<svg id="be0f25d3-4891-46d8-bd3b-21778f5cbb12" data-name="Capa 1" xmlns="http://www.w3.org/2000/svg" xmlns:xlink="http://www.w3.org/1999/xlink" viewBox="0 0 1080 1080"><defs><style>.a12e3902-8a5a-4425-8203-846273b7306e{fill:url(#a911c0ca-4661-46ac-a8a5-a319e73f3bb3);}.fc688ef0-6be8-4e66-87c8-c36cb0c08fe3{fill:url(#aabd4e3a-f301-4be9-b4d0-67c7bb701952);}.abbaadf2-0e2b-4636-b3c3-d9369bd39ede{fill:none;}.b10efdbc-3ae9-4e2b-82ec-e5b837fdf2e9{fill:url(#e065a2ef-7a42-4f9f-8d06-74ff5536f795);}.ae36fbfa-7453-4d3b-b937-166a0e7f1519{opacity:0.76;}.ac99a5bb-5508-48cf-9795-aa260b41dbee{clip-path:url(#ec9b3076-cec2-4720-b9f1-fb6c1753aaf6);}.edf1497a-5295-4f96-9270-c9153653aae7{clip-path:url(#ff37fbfd-e134-4458-8f06-f76958e83d57);}.e97be571-9cf8-40ef-a0c4-4618dd471f3b{mask:url(#a2b768d8-3d8b-44e1-996b-c22b00a3d367);}.e3538a83-c082-422a-a85b-f3902becd7cb{fill:url(#bb6b6981-2cff-4e16-a438-5ca9708af572);}.b0762b42-3082-46b1-a8d7-246622d01a45{opacity:0.7;}.f3c6a2ba-5ffe-412b-b5ae-39ca40dbbb2e{clip-path:url(#b394e4cc-cacf-40d7-8861-f1bce2031ae4);}.a56f8740-69d7-4b00-ade9-749b25c5e629{mask:url(#b5827583-979f-4778-922b-7d4a8cea30b8);}.b582b5a5-495f-45ac-ad67-bf48a3ecbf60{fill:url(#f6052ad7-97d4-4cc9-9e57-dced4272bf41);}.fe0ec57b-c548-485e-9145-7ee84ff75b14{fill:#00bbe6;}</style><linearGradient id="a911c0ca-4661-46ac-a8a5-a319e73f3bb3" x1="3749.29" y1="943.18" x2="3750.57" y2="943.18" gradientTransform="matrix(587.6, 0, 0, -587.6, -2202927.21, 554737.08)" gradientUnits="userSpaceOnUse"><stop offset="0"/><stop offset="0.08" stop-color="#080808"/><stop offset="0.2" stop-color="#1e1e1e"/><stop offset="0.35" stop-color="#424242"/><stop offset="0.53" stop-color="#737373"/><stop offset="0.71" stop-color="#b2b2b2"/><stop offset="0.79" stop-color="#ccc"/><stop offset="1" stop-color="#ccc"/></linearGradient><linearGradient id="aabd4e3a-f301-4be9-b4d0-67c7bb701952" x1="3749.31" y1="943.16" x2="3750.59" y2="943.16" gradientTransform="matrix(587.6, 0, 0, -587.6, -2202924.59, 554733.72)" gradientUnits="userSpaceOnUse"><stop offset="0"/><stop offset="0.1" stop-color="#080808"/><stop offset="0.26" stop-color="#1e1e1e"/><stop offset="0.45" stop-color="#424242"/><stop offset="0.67" stop-color="#737373"/><stop offset="0.91" stop-color="#b2b2b2"/><stop offset="1" stop-color="#ccc"/></linearGradient><linearGradient id="e065a2ef-7a42-4f9f-8d06-74ff5536f795" x1="340.12" y1="875.68" x2="729.1" y2="201.96" gradientUnits="userSpaceOnUse"><stop offset="0" stop-color="#fff" stop-opacity="0.4"/><stop offset="0.19" stop-color="#f4fcfe" stop-opacity="0.4"/><stop offset="0.39" stop-color="#d4f4fb" stop-opacity="0.4"/><stop offset="0.6" stop-color="#9fe5f6" stop-opacity="0.4"/><stop offset="0.81" stop-color="#54d1ee" stop-opacity="0.4"/><stop offset="1" stop-color="#00bbe6" stop-opacity="0.4"/></linearGradient><clipPath id="ec9b3076-cec2-4720-b9f1-fb6c1753aaf6"><rect class="abbaadf2-0e2b-4636-b3c3-d9369bd39ede" x="158.56" y="173.03" width="722" height="712.11"/></clipPath><clipPath id="ff37fbfd-e134-4458-8f06-f76958e83d57"><path class="abbaadf2-0e2b-4636-b3c3-d9369bd39ede" d="M878.45,518.1c-7.71,67.68-38.27,146.46-99.81,182.85-93,55-84.83,138.94-266.6,176.21a374.2,374.2,0,0,1-80.64,8,312.41,312.41,0,0,1-39.6-3.06C276.1,865.63,198,785.59,169,688.69c-38.1-127.44,36.57-211.29,86.08-261.82s85.28-207.51,263.69-245.55a362.28,362.28,0,0,1,82.87-8.22c63.54,1.3,132.92,21.87,181.05,65.22q5.41,4.88,10.56,10.11c66.93,68.13,95.7,177.4,85.19,269.67"/></clipPath><mask id="a2b768d8-3d8b-44e1-996b-c22b00a3d367" x="-36.18" y="-5.13" width="1092.23" height="1068.27" maskUnits="userSpaceOnUse"><rect class="a12e3902-8a5a-4425-8203-846273b7306e" x="56.04" y="91.54" width="907.79" height="874.92" transform="translate(-112.66 138.81) rotate(-13.98)"/></mask><linearGradient id="bb6b6981-2cff-4e16-a438-5ca9708af572" x1="3749.29" y1="943.18" x2="3750.57" y2="943.18" gradientTransform="matrix(587.6, 0, 0, -587.6, -2202927.48, 554736.93)" gradientUnits="userSpaceOnUse"><stop offset="0" stop-color="#fff"/><stop offset="0.2" stop-color="#f7fbfd"/><stop offset="0.52" stop-color="#e1f2f8"/><stop offset="0.79" stop-color="#c9e7f3"/><stop offset="1" stop-color="#c9e7f3"/></linearGradient><clipPath id="b394e4cc-cacf-40d7-8861-f1bce2031ae4"><path class="b10efdbc-3ae9-4e2b-82ec-e5b837fdf2e9" d="M878.45,518.1c-7.71,67.68-38.27,146.46-99.81,182.85-93,55-84.83,138.94-266.6,176.21a374.2,374.2,0,0,1-80.64,8,312.41,312.41,0,0,1-39.6-3.06C276.1,865.63,198,785.59,169,688.69c-38.1-127.44,36.57-211.29,86.08-261.82s85.28-207.51,263.69-245.55a362.28,362.28,0,0,1,82.87-8.22c63.54,1.3,132.92,21.87,181.05,65.22q5.41,4.88,10.56,10.11c66.93,68.13,95.7,177.4,85.19,269.67"/></clipPath><mask id="b5827583-979f-4778-922b-7d4a8cea30b8" x="-21.18" y="3.87" width="1092.23" height="1068.27" maskUnits="userSpaceOnUse"><rect class="fc688ef0-6be8-4e66-87c8-c36cb0c08fe3" x="71.04" y="100.54" width="907.79" height="874.92" transform="translate(-114.39 142.7) rotate(-13.98)"/></mask><linearGradient id="f6052ad7-97d4-4cc9-9e57-dced4272bf41" x1="209.95" y1="1083.58" x2="839.93" y2="-7.58" gradientTransform="translate(145.47 -110.85) rotate(13.98)" xlink:href="#e065a2ef-7a42-4f9f-8d06-74ff5536f795"/></defs><title>iconos s2r</title><g class="ae36fbfa-7453-4d3b-b937-166a0e7f1519"><g class="ac99a5bb-5508-48cf-9795-aa260b41dbee"><g class="edf1497a-5295-4f96-9270-c9153653aae7"><g class="e97be571-9cf8-40ef-a0c4-4618dd471f3b"><rect class="e3538a83-c082-422a-a85b-f3902becd7cb" x="56.04" y="91.54" width="907.79" height="874.92" transform="translate(-112.66 138.81) rotate(-13.98)"/></g></g><g class="b0762b42-3082-46b1-a8d7-246622d01a45"><g class="ac99a5bb-5508-48cf-9795-aa260b41dbee"><path class="b10efdbc-3ae9-4e2b-82ec-e5b837fdf2e9" d="M878.45,518.1c-7.71,67.68-38.27,146.46-99.81,182.85-93,55-84.83,138.94-266.6,176.21a374.2,374.2,0,0,1-80.64,8,312.41,312.41,0,0,1-39.6-3.06C276.1,865.63,198,785.59,169,688.69c-38.1-127.44,36.57-211.29,86.08-261.82s85.28-207.51,263.69-245.55a362.28,362.28,0,0,1,82.87-8.22c63.54,1.3,132.92,21.87,181.05,65.22q5.41,4.88,10.56,10.11c66.93,68.13,95.7,177.4,85.19,269.67"/><g class="f3c6a2ba-5ffe-412b-b5ae-39ca40dbbb2e"><g class="a56f8740-69d7-4b00-ade9-749b25c5e629"><rect class="b582b5a5-495f-45ac-ad67-bf48a3ecbf60" x="71.04" y="100.54" width="907.79" height="874.92" transform="translate(-114.39 142.7) rotate(-13.98)"/></g></g></g></g></g></g><path d="M707.49,550.88V348.18A19.18,19.18,0,0,0,688.31,329H496.49a20.86,20.86,0,0,0-13.56,5.62L367.84,449.71a21,21,0,0,0-5.62,13.56V731.82A19.18,19.18,0,0,0,381.4,751H688.31a19.18,19.18,0,0,0,19.18-19.18V605.49m-230.18-211v49.6h-49.6ZM673.13,638.85l1,83.79H391.58V471.45h99.91a19.18,19.18,0,0,0,19.18-19.18V361.36H673.13V577.24"/><path class="fe0ec57b-c548-485e-9145-7ee84ff75b14" d="M458.13,544.76h57.54c10.6,0,19.19-7.27,19.19-16.26s-8.59-16.27-19.19-16.27C483.45,515.29,439,502.88,439,528.5,439,537.49,447.54,544.76,458.13,544.76Z"/><path class="fe0ec57b-c548-485e-9145-7ee84ff75b14" d="M554,577.3H458.13c-10.59,0-19.18,7.27-19.18,16.26s8.59,16.27,19.18,16.27H554c10.59,0,19.18-7.28,19.18-16.27S564.63,577.3,554,577.3Z"/><path class="fe0ec57b-c548-485e-9145-7ee84ff75b14" d="M534.86,642.36H458.13c-10.59,0-19.18,7.28-19.18,16.27s8.59,16.26,19.18,16.26h76.73c10.59,0,19.18-7.27,19.18-16.26S545.45,642.36,534.86,642.36Z"/><path class="fe0ec57b-c548-485e-9145-7ee84ff75b14" d="M712.16,557.33,699,570.48a.06.06,0,0,1-.08,0l-26.15-25.34a.07.07,0,0,1,0-.09l14-14a18.26,18.26,0,0,1,26.4.6C719.8,539,719.14,550.35,712.16,557.33Zm-11.54,11.52-83.57,83.57,0,0-31.47,8.77a2.43,2.43,0,0,1-3-3l8.63-31.6,0,0,83.26-83.26a.06.06,0,0,1,.09,0l26.06,25.42A.06.06,0,0,1,700.62,568.85Z"/></svg>