<svg id="f41cf4e9-c60f-463d-b4e6-5f56cf549ee7" data-name="Capa 1" xmlns="http://www.w3.org/2000/svg" xmlns:xlink="http://www.w3.org/1999/xlink" viewBox="0 0 1080 1080"><defs><style>.bf40c6ec-2b1d-4202-9a97-91e2ec1c7ee9{fill:none;}.af49a75f-fcab-43c8-9733-2599f5cfcfde{opacity:0.76;}.ace1e211-8bc2-45a2-8255-4d8c4eb67fd4{clip-path:url(#b7555bb4-4beb-4d2e-9c41-2ba925615027);}.a3021fcd-eaab-4403-a3d8-64043148370e{opacity:0.7;}.efa3ee0f-2380-45bf-8ec9-99b828a5bfa4{fill:url(#f04a5def-0394-454d-a539-cc5b517656f7);}.b7310979-9f62-4a9f-991e-be68b2c69491{fill:#37bac4;}</style><clipPath id="b7555bb4-4beb-4d2e-9c41-2ba925615027"><rect class="bf40c6ec-2b1d-4202-9a97-91e2ec1c7ee9" x="178.69" y="183.74" width="722" height="712.11"/></clipPath><linearGradient id="f04a5def-0394-454d-a539-cc5b517656f7" x1="360.25" y1="886.39" x2="749.23" y2="212.66" gradientUnits="userSpaceOnUse"><stop offset="0" stop-color="#fff" stop-opacity="0.4"/><stop offset="0.29" stop-color="#d4f0f2" stop-opacity="0.49"/><stop offset="0.82" stop-color="#62c9d1" stop-opacity="0.71"/><stop offset="1" stop-color="#37bac4" stop-opacity="0.8"/></linearGradient></defs><title>iconos s2r</title><g class="af49a75f-fcab-43c8-9733-2599f5cfcfde"><g class="ace1e211-8bc2-45a2-8255-4d8c4eb67fd4"><g class="a3021fcd-eaab-4403-a3d8-64043148370e"><g class="ace1e211-8bc2-45a2-8255-4d8c4eb67fd4"><path class="efa3ee0f-2380-45bf-8ec9-99b828a5bfa4" d="M898.58,528.8c-7.71,67.68-38.27,146.46-99.81,182.85-93,55-84.83,138.94-266.61,176.21a374.12,374.12,0,0,1-80.63,7.95,312.27,312.27,0,0,1-39.6-3.06c-115.7-16.41-193.84-96.46-222.79-193.36C151,572,225.71,488.1,275.22,437.57S360.49,230.06,538.9,192a362.42,362.42,0,0,1,82.88-8.22C685.31,185.1,754.7,205.68,802.83,249q5.42,4.89,10.55,10.11c66.93,68.13,95.71,177.4,85.2,269.67"/></g></g></g></g><path class="b7310979-9f62-4a9f-991e-be68b2c69491" d="M551.73,452.24a18.9,18.9,0,0,0-24.09,0l-68.16,59.15c-6.66,5.78-6.66,15.14,0,20.91a18.9,18.9,0,0,0,24.09,0l5-4.33v38.24c0,8.17,7.63,14.79,17,14.79h68.15c9.42,0,17-6.62,17-14.79V528l5,4.33a18.9,18.9,0,0,0,24.09,0c6.66-5.77,6.66-15.13,0-20.91Z"/><path d="M761,616.73H738.92V386.55c0-10.6-9.88-19.19-22.1-19.19H363.18c-12.21,0-22.1,8.59-22.1,19.19V616.73H319c-12.2,0-22.1,8.59-22.1,19.18v57.54c0,10.6,9.9,19.19,22.1,19.19H761c12.21,0,22.1-8.59,22.1-19.19V635.91C783.13,625.32,773.24,616.73,761,616.73ZM371,394H709V618H371ZM738.92,674.27H341.08V655.09H738.92Z"/></svg>