<svg id="a932ea82-62c5-4287-b3fd-b859d8affc0d" data-name="Capa 1" xmlns="http://www.w3.org/2000/svg" xmlns:xlink="http://www.w3.org/1999/xlink" viewBox="0 0 1080 1080"><defs><style>.f4c2e4bf-dd55-4930-9cd8-3afe1e68352a{fill:none;}.a6a50fa6-5ea7-458f-8005-27b3d96f34d7{opacity:0.76;}.a3ee2dd4-cb9a-4c7b-a541-0782564cfed4{clip-path:url(#e071a78c-2a22-4e9e-80cf-a6b60129700f);}.f1060b4c-1086-4994-8ebf-ce7136902f6d{opacity:0.7;}.b86a787a-322f-47da-9e44-a53138add2c6{fill:url(#acbdaacb-7462-4204-ab82-72cd113f607b);}.aa50b3f1-669a-4bc9-96fc-c98f6a382eb6{fill:#00b68d;}</style><clipPath id="e071a78c-2a22-4e9e-80cf-a6b60129700f"><rect class="f4c2e4bf-dd55-4930-9cd8-3afe1e68352a" x="179" y="183.94" width="722" height="712.11"/></clipPath><linearGradient id="acbdaacb-7462-4204-ab82-72cd113f607b" x1="360.56" y1="886.6" x2="749.54" y2="212.87" gradientUnits="userSpaceOnUse"><stop offset="0" stop-color="#fff" stop-opacity="0.4"/><stop offset="0.19" stop-color="#e0f6f1" stop-opacity="0.45"/><stop offset="0.52" stop-color="#8ddecc" stop-opacity="0.58"/><stop offset="0.98" stop-color="#07b890" stop-opacity="0.79"/><stop offset="1" stop-color="#00b68d" stop-opacity="0.8"/></linearGradient></defs><title>iconos s2r</title><g class="a6a50fa6-5ea7-458f-8005-27b3d96f34d7"><g class="a3ee2dd4-cb9a-4c7b-a541-0782564cfed4"><g class="f1060b4c-1086-4994-8ebf-ce7136902f6d"><g class="a3ee2dd4-cb9a-4c7b-a541-0782564cfed4"><path class="b86a787a-322f-47da-9e44-a53138add2c6" d="M898.89,529c-7.71,67.68-38.27,146.46-99.81,182.85-93,55-84.83,138.94-266.6,176.21A374.2,374.2,0,0,1,451.84,896a312.41,312.41,0,0,1-39.6-3.06C296.54,876.55,218.4,796.5,189.45,699.6,151.35,572.16,226,488.31,275.53,437.78s85.28-207.51,263.69-245.55A362.83,362.83,0,0,1,622.09,184c63.54,1.29,132.92,21.87,181,65.21q5.42,4.89,10.56,10.11c66.93,68.13,95.7,177.4,85.19,269.67"/></g></g></g></g><path d="M729,364.5H351A13.49,13.49,0,0,0,337.5,378V702A13.49,13.49,0,0,0,351,715.5H729A13.49,13.49,0,0,0,742.5,702V378A13.49,13.49,0,0,0,729,364.5Zm-13.5,27v27h-351v-27Zm-351,297v-243h351v243Z"/><path d="M603.2,589.29a13.49,13.49,0,0,0-13.5,13.5V621H494V525.27h63.2a13.5,13.5,0,0,0,0-27h-76.7a13.49,13.49,0,0,0-13.5,13.5V634.5a13.49,13.49,0,0,0,13.5,13.5H603.2a13.49,13.49,0,0,0,13.5-13.5V602.79A13.49,13.49,0,0,0,603.2,589.29Z"/><path class="aa50b3f1-669a-4bc9-96fc-c98f6a382eb6" d="M630.48,490,548,572.46l-21.14-21.13a13.5,13.5,0,0,0-19.09,19.08l30.68,30.68a13.48,13.48,0,0,0,19.09,0L649.57,509A13.5,13.5,0,1,0,630.48,490Z"/></svg>