<svg id="ab2cce34-b2d5-4cb7-8d3e-b33e42163eb7" data-name="Capa 1" xmlns="http://www.w3.org/2000/svg" xmlns:xlink="http://www.w3.org/1999/xlink" viewBox="0 0 1080 1080"><defs><style>.b4fc25a5-e13f-41d9-9ee0-9e9223b4cfe1{fill:url(#a708ef82-98b3-431b-a108-c94c1ac8c234);}.aecaafd3-eb30-49ac-92c6-c8029ffe1472{fill:url(#e1b594d2-752d-4600-bc6d-de0f60f34fe8);}.b2bd8127-46af-4720-adff-dc8ee2da366b{fill:none;}.e4e4fa0a-0f1d-4f88-944a-0b9647bd1924{fill:url(#abf7528b-37a6-4efb-8cf4-3f619b6b1c66);}.e44df4ee-5304-4bdb-9c9c-824a31f7b3b7{fill:url(#f6e666a5-9e9b-4715-9f5c-b2955eb4ec5f);}.f3e9f095-8258-4bc9-a862-77c820972688{opacity:0.76;}.aaf7af05-74be-4825-a89c-69a60bfaa2c2{clip-path:url(#b04cca9e-670d-44c5-b201-0a407fb4ecfa);}.b0bc2fe5-c21b-43ca-bba2-7ded1ea074fc{opacity:0.7;}.e8913f07-973f-4aea-b769-dd56b7a1097c{clip-path:url(#f07b2e83-2e62-464e-86ac-a9cf94bce731);}.f730efc6-22d9-4fc7-a75f-c6062d539118{mask:url(#b788fe10-23dc-4fb2-8b87-32f2761d6b08);}.ed62eda5-b093-4e46-bb6d-ff4f5ff4b693{fill:url(#b2c10c10-7e86-4aff-b652-5dd1eccd96ea);}.fe87654e-fb34-4e52-8eb7-1a27bacfde34{clip-path:url(#b0fa9673-7262-4172-b575-9e4f50b59b5b);}.b61eca04-086e-4aac-94be-f95a846033fa{clip-path:url(#a2ca3653-5fb0-4269-b74c-952de5679034);}.a4da0d5c-7d9a-4471-9fa4-353ebf3f5d1c{mask:url(#a9d76006-8ba7-48a2-a988-2f582a57e251);}.b9894b98-6465-4bba-8c49-6b3a2892283d{fill:url(#bd565518-75a0-4ebe-a793-24360a09be7b);}.e4f9c31e-acef-462e-af1c-9db25a6c4cf3{fill:#00bbe6;}</style><linearGradient id="a708ef82-98b3-431b-a108-c94c1ac8c234" x1="5003.95" y1="-416.59" x2="5005.23" y2="-416.59" gradientTransform="matrix(587.6, 0, 0, -587.6, -2941126.01, -243991.8)" gradientUnits="userSpaceOnUse"><stop offset="0"/><stop offset="0.1" stop-color="#080808"/><stop offset="0.26" stop-color="#1e1e1e"/><stop offset="0.45" stop-color="#424242"/><stop offset="0.67" stop-color="#737373"/><stop offset="0.91" stop-color="#b2b2b2"/><stop offset="1" stop-color="#ccc"/></linearGradient><linearGradient id="e1b594d2-752d-4600-bc6d-de0f60f34fe8" x1="5006.2" y1="-417.15" x2="5007.48" y2="-417.15" gradientTransform="matrix(587.6, 0, 0, -587.6, -2941085.66, -244320.98)" xlink:href="#a708ef82-98b3-431b-a108-c94c1ac8c234"/><linearGradient id="abf7528b-37a6-4efb-8cf4-3f619b6b1c66" x1="-1002.44" y1="886.6" x2="-613.46" y2="212.87" gradientUnits="userSpaceOnUse"><stop offset="0" stop-color="#fff" stop-opacity="0.4"/><stop offset="0.26" stop-color="#e0f7f1" stop-opacity="0.47"/><stop offset="0.74" stop-color="#8ee1ca" stop-opacity="0.67"/><stop offset="1" stop-color="#5ad3b2" stop-opacity="0.8"/></linearGradient><linearGradient id="f6e666a5-9e9b-4715-9f5c-b2955eb4ec5f" x1="360.56" y1="886.6" x2="749.54" y2="212.87" gradientUnits="userSpaceOnUse"><stop offset="0" stop-color="#fff" stop-opacity="0.4"/><stop offset="0.19" stop-color="#e0f7fc" stop-opacity="0.45"/><stop offset="0.52" stop-color="#8de1f4" stop-opacity="0.58"/><stop offset="0.98" stop-color="#07bde7" stop-opacity="0.79"/><stop offset="1" stop-color="#00bbe6" stop-opacity="0.8"/></linearGradient><clipPath id="b04cca9e-670d-44c5-b201-0a407fb4ecfa"><rect class="b2bd8127-46af-4720-adff-dc8ee2da366b" x="-1184" y="183.94" width="722" height="712.11"/></clipPath><clipPath id="f07b2e83-2e62-464e-86ac-a9cf94bce731"><path class="e4e4fa0a-0f1d-4f88-944a-0b9647bd1924" d="M-464.11,529c-7.71,67.68-38.27,146.46-99.81,182.85-93,55-84.83,138.94-266.6,176.21A374.2,374.2,0,0,1-911.16,896a312.41,312.41,0,0,1-39.6-3.06c-115.7-16.41-193.84-96.46-222.79-193.36-38.1-127.44,36.57-211.29,86.08-261.82s85.28-207.51,263.69-245.55A362.83,362.83,0,0,1-740.91,184c63.54,1.29,132.92,21.87,181,65.21q5.42,4.89,10.56,10.11c66.93,68.13,95.7,177.4,85.19,269.67"/></clipPath><mask id="b788fe10-23dc-4fb2-8b87-32f2761d6b08" x="-1000.74" y="259.78" width="1092.23" height="1068.27" maskUnits="userSpaceOnUse"><rect class="b4fc25a5-e13f-41d9-9ee0-9e9223b4cfe1" x="-908.52" y="356.45" width="907.79" height="874.92" transform="translate(-205.2 -86.3) rotate(-13.98)"/></mask><linearGradient id="b2c10c10-7e86-4aff-b652-5dd1eccd96ea" x1="-769.61" y1="1339.49" x2="-139.64" y2="248.33" gradientTransform="translate(178.28 133.3) rotate(13.98)" gradientUnits="userSpaceOnUse"><stop offset="0" stop-color="#fff" stop-opacity="0.4"/><stop offset="0.17" stop-color="#f4fbf9" stop-opacity="0.4"/><stop offset="0.35" stop-color="#d4f0e6" stop-opacity="0.4"/><stop offset="0.54" stop-color="#9fdec6" stop-opacity="0.4"/><stop offset="0.6" stop-color="#89d7b9" stop-opacity="0.4"/><stop offset="1" stop-color="#7ed3b2" stop-opacity="0.9"/></linearGradient><clipPath id="b0fa9673-7262-4172-b575-9e4f50b59b5b"><rect class="b2bd8127-46af-4720-adff-dc8ee2da366b" x="179" y="183.94" width="722" height="712.11"/></clipPath><clipPath id="a2ca3653-5fb0-4269-b74c-952de5679034"><path class="e44df4ee-5304-4bdb-9c9c-824a31f7b3b7" d="M898.89,529c-7.71,67.68-38.27,146.46-99.81,182.85-93,55-84.83,138.94-266.6,176.21A374.2,374.2,0,0,1,451.84,896a312.41,312.41,0,0,1-39.6-3.06C296.54,876.55,218.4,796.5,189.45,699.6,151.35,572.16,226,488.31,275.53,437.78s85.28-207.51,263.69-245.55A362.83,362.83,0,0,1,622.09,184c63.54,1.29,132.92,21.87,181,65.21q5.42,4.89,10.56,10.11c66.93,68.13,95.7,177.4,85.19,269.67"/></clipPath><mask id="a9d76006-8ba7-48a2-a988-2f582a57e251" x="362.26" y="259.78" width="1092.23" height="1068.27" maskUnits="userSpaceOnUse"><rect class="aecaafd3-eb30-49ac-92c6-c8029ffe1472" x="454.48" y="356.45" width="907.79" height="874.92" transform="translate(-164.85 242.88) rotate(-13.98)"/></mask><linearGradient id="bd565518-75a0-4ebe-a793-24360a09be7b" x1="593.39" y1="1339.49" x2="1223.36" y2="248.33" gradientTransform="translate(218.63 -195.88) rotate(13.98)" xlink:href="#b2c10c10-7e86-4aff-b652-5dd1eccd96ea"/></defs><title>iconos s2r</title><g class="f3e9f095-8258-4bc9-a862-77c820972688"><g class="aaf7af05-74be-4825-a89c-69a60bfaa2c2"><g class="b0bc2fe5-c21b-43ca-bba2-7ded1ea074fc"><g class="aaf7af05-74be-4825-a89c-69a60bfaa2c2"><path class="e4e4fa0a-0f1d-4f88-944a-0b9647bd1924" d="M-464.11,529c-7.71,67.68-38.27,146.46-99.81,182.85-93,55-84.83,138.94-266.6,176.21A374.2,374.2,0,0,1-911.16,896a312.41,312.41,0,0,1-39.6-3.06c-115.7-16.41-193.84-96.46-222.79-193.36-38.1-127.44,36.57-211.29,86.08-261.82s85.28-207.51,263.69-245.55A362.83,362.83,0,0,1-740.91,184c63.54,1.29,132.92,21.87,181,65.21q5.42,4.89,10.56,10.11c66.93,68.13,95.7,177.4,85.19,269.67"/><g class="e8913f07-973f-4aea-b769-dd56b7a1097c"><g class="f730efc6-22d9-4fc7-a75f-c6062d539118"><rect class="ed62eda5-b093-4e46-bb6d-ff4f5ff4b693" x="-908.52" y="356.45" width="907.79" height="874.92" transform="translate(-205.2 -86.3) rotate(-13.98)"/></g></g></g></g></g></g><g class="f3e9f095-8258-4bc9-a862-77c820972688"><g class="fe87654e-fb34-4e52-8eb7-1a27bacfde34"><g class="b0bc2fe5-c21b-43ca-bba2-7ded1ea074fc"><g class="fe87654e-fb34-4e52-8eb7-1a27bacfde34"><path class="e44df4ee-5304-4bdb-9c9c-824a31f7b3b7" d="M898.89,529c-7.71,67.68-38.27,146.46-99.81,182.85-93,55-84.83,138.94-266.6,176.21A374.2,374.2,0,0,1,451.84,896a312.41,312.41,0,0,1-39.6-3.06C296.54,876.55,218.4,796.5,189.45,699.6,151.35,572.16,226,488.31,275.53,437.78s85.28-207.51,263.69-245.55A362.83,362.83,0,0,1,622.09,184c63.54,1.29,132.92,21.87,181,65.21q5.42,4.89,10.56,10.11c66.93,68.13,95.7,177.4,85.19,269.67"/><g class="b61eca04-086e-4aac-94be-f95a846033fa"><g class="a4da0d5c-7d9a-4471-9fa4-353ebf3f5d1c"><rect class="b9894b98-6465-4bba-8c49-6b3a2892283d" x="454.48" y="356.45" width="907.79" height="874.92" transform="translate(-164.85 242.88) rotate(-13.98)"/></g></g></g></g></g></g><path class="e4f9c31e-acef-462e-af1c-9db25a6c4cf3" d="M424.91,578.36a19.18,19.18,0,0,0-19.18,19.19v38.36a19.18,19.18,0,1,0,38.36,0V616.73h19.18v19.18a19.19,19.19,0,0,0,38.37,0V616.73h61.08a57.55,57.55,0,1,0,0-38.37Zm191.82,0a19.19,19.19,0,1,1-19.18,19.19A19.2,19.2,0,0,1,616.73,578.36Z"/><path d="M745.38,526.44,553.56,334.62a19.17,19.17,0,0,0-27.12,0L334.62,526.44A19.16,19.16,0,0,0,329,540V731.82A19.18,19.18,0,0,0,348.18,751H731.82A19.18,19.18,0,0,0,751,731.82V540A19.16,19.16,0,0,0,745.38,526.44Zm-26.74,192.2H359.36V547.94L540,370.31,718.64,547.94Z"/></svg>