<svg id="a68212ef-bbdc-4e33-be0d-985f906294a4" data-name="Capa 1" xmlns="http://www.w3.org/2000/svg" xmlns:xlink="http://www.w3.org/1999/xlink" viewBox="0 0 1080 1080"><defs><style>.a3445e88-2ab0-4332-a05c-80ab82171c9d{fill:none;}.ec23c72e-e364-4946-82e4-275a4f7fc43e{opacity:0.76;}.f6f9cd80-0d2e-4a80-b312-b57fb21ff55e{clip-path:url(#b7aa3acf-827b-4e7b-b2e7-94745349e6c4);}.b9066779-9437-4dc5-81c2-ecb2d3fb4ad8{opacity:0.7;}.ffe51d11-7b25-4252-b7cc-c40c066d65ee{fill:url(#bbfe64c1-bba9-43dc-85f4-624d6c5316c3);}.f482ea67-a039-47cf-8374-67ed5ca066aa{fill:#f46060;}</style><clipPath id="b7aa3acf-827b-4e7b-b2e7-94745349e6c4"><rect class="a3445e88-2ab0-4332-a05c-80ab82171c9d" x="179" y="183.94" width="722" height="712.11"/></clipPath><linearGradient id="bbfe64c1-bba9-43dc-85f4-624d6c5316c3" x1="360.56" y1="886.6" x2="749.54" y2="212.87" gradientUnits="userSpaceOnUse"><stop offset="0" stop-color="#fff" stop-opacity="0.4"/><stop offset="0.2" stop-color="#feeaea" stop-opacity="0.45"/><stop offset="0.56" stop-color="#fab1b1" stop-opacity="0.6"/><stop offset="1" stop-color="#f46060" stop-opacity="0.8"/></linearGradient></defs><title>iconos s2r</title><g class="ec23c72e-e364-4946-82e4-275a4f7fc43e"><g class="f6f9cd80-0d2e-4a80-b312-b57fb21ff55e"><g class="b9066779-9437-4dc5-81c2-ecb2d3fb4ad8"><g class="f6f9cd80-0d2e-4a80-b312-b57fb21ff55e"><path class="ffe51d11-7b25-4252-b7cc-c40c066d65ee" d="M898.89,529c-7.71,67.68-38.27,146.46-99.81,182.85-93,55-84.83,138.94-266.6,176.21A374.2,374.2,0,0,1,451.84,896a312.41,312.41,0,0,1-39.6-3.06C296.54,876.55,218.4,796.5,189.45,699.6,151.35,572.16,226,488.31,275.53,437.78s85.28-207.51,263.69-245.55A362.83,362.83,0,0,1,622.09,184c63.54,1.29,132.92,21.87,181,65.21q5.42,4.89,10.56,10.11c66.93,68.13,95.7,177.4,85.19,269.67"/></g></g></g></g><path class="f482ea67-a039-47cf-8374-67ed5ca066aa" d="M623.16,492.18l-70.67-70.67a17.66,17.66,0,0,0-25,0l-70.67,70.67a17.66,17.66,0,0,0,25,25L487,512v45.69a17.66,17.66,0,0,0,17.67,17.66h70.66A17.66,17.66,0,0,0,593,557.67V512l5.18,5.18a17.66,17.66,0,0,0,25-25Z"/><path d="M540,345.67c-87.68,0-159,75.49-159,168.27,0,139.63,143.52,236.18,149.63,240.22a16.88,16.88,0,0,0,18.74,0c6.11-4,149.63-100.59,149.63-240.22C699,421.16,627.68,345.67,540,345.67Zm0,370C509.67,692.8,416.33,614.23,416.33,513.94c0-72.17,55.49-130.88,123.67-130.88s123.67,58.71,123.67,130.88C663.67,614,570.29,692.75,540,715.68Z"/></svg>