<svg id="f284b297-3e12-4c42-9d67-c5d187e43a87" data-name="Capa 1" xmlns="http://www.w3.org/2000/svg" xmlns:xlink="http://www.w3.org/1999/xlink" viewBox="0 0 1080 1080"><defs><style>.f3c07518-e1ad-4067-aa56-5b576cfcbe15{fill:none;}.b32e4a15-2d2e-4ffc-badf-c503557fcca6{opacity:0.76;}.b628f9f6-47b5-4d1f-a552-3896a7d1b9d6{clip-path:url(#a9af26a4-13de-4572-833f-ffc34cefdd14);}.a07842df-f104-43ca-bbea-291f2bf8ca05{opacity:0.7;}.b9fb0434-732c-422a-b255-2bfe89515fcb{fill:url(#ff8116fe-5662-48a9-b788-49c10d1ed794);}.e6e29ee9-5455-4988-a54f-11d5d3e112a6{fill:#f46060;}</style><clipPath id="a9af26a4-13de-4572-833f-ffc34cefdd14"><rect class="f3c07518-e1ad-4067-aa56-5b576cfcbe15" x="179" y="183.94" width="722" height="712.11"/></clipPath><linearGradient id="ff8116fe-5662-48a9-b788-49c10d1ed794" x1="360.56" y1="886.6" x2="749.54" y2="212.87" gradientUnits="userSpaceOnUse"><stop offset="0" stop-color="#fff" stop-opacity="0.4"/><stop offset="0.2" stop-color="#feeaea" stop-opacity="0.45"/><stop offset="0.56" stop-color="#fab1b1" stop-opacity="0.6"/><stop offset="1" stop-color="#f46060" stop-opacity="0.8"/></linearGradient></defs><title>iconos s2r</title><g class="b32e4a15-2d2e-4ffc-badf-c503557fcca6"><g class="b628f9f6-47b5-4d1f-a552-3896a7d1b9d6"><g class="a07842df-f104-43ca-bbea-291f2bf8ca05"><g class="b628f9f6-47b5-4d1f-a552-3896a7d1b9d6"><path class="b9fb0434-732c-422a-b255-2bfe89515fcb" d="M898.89,529c-7.71,67.68-38.27,146.46-99.81,182.85-93,55-84.83,138.94-266.6,176.21A374.2,374.2,0,0,1,451.84,896a312.41,312.41,0,0,1-39.6-3.06C296.54,876.55,218.4,796.5,189.45,699.6,151.35,572.16,226,488.31,275.53,437.78s85.28-207.51,263.69-245.55A362.83,362.83,0,0,1,622.09,184c63.54,1.29,132.92,21.87,181,65.21q5.42,4.89,10.56,10.11c66.93,68.13,95.7,177.4,85.19,269.67"/></g></g></g></g><path class="e6e29ee9-5455-4988-a54f-11d5d3e112a6" d="M568.67,755h172a14.34,14.34,0,0,0,13.94-17.68C749.77,727.23,738.31,583,626,583c-32.28,0-63.12,15.92-85.79,43.15Zm-18.19-28.67,29.49,0c-7.42-27.56-8.92-47.62-23.13-74.86,17.65-25,42.95-39.8,69.16-39.8,80.59,0,95.38,112.42,96.48,114.66Z"/><path d="M454,554.34c57.07,0,86-48.22,86-143.33a86,86,0,1,0-172,0C368,506.12,396.94,554.34,454,554.34Zm0-200.66A57.39,57.39,0,0,1,511.33,411c0,114.66-43.15,114.66-57.33,114.66s-57.33,0-57.33-114.66A57.39,57.39,0,0,1,454,353.68Z"/><path class="e6e29ee9-5455-4988-a54f-11d5d3e112a6" d="M580.13,376.61c33-44,103.2-20.39,103.2,34.4,0,11.85,1.24,111.66,42,149.45-2.28,6.41-8.28,8.08-13.38,8.21a14.33,14.33,0,0,0,0,28.66c17.29,0,43-11.44,43-43a14.32,14.32,0,0,0-6.38-11.93C722,524.66,712,452.39,712,411h0c0-82.22-105.22-117.57-154.79-51.61a14.34,14.34,0,1,0,22.93,17.22Z"/><path class="e6e29ee9-5455-4988-a54f-11d5d3e112a6" d="M672.21,499.54c-36.25-14-45.22-65.3-48.16-82.15-2.26-12.86-19.17-16.21-26.19-5.26-10.42,16.25-23.26,29.41-36.14,37.05a14.35,14.35,0,0,0-7,13c3.79,79.71,39.19,96.44,68.22,96.44,26.39,0,46.21-13.88,57.3-40.14A14.33,14.33,0,0,0,672.21,499.54ZM622.93,530c-9.52,0-34.18,0-39.06-61a129.29,129.29,0,0,0,18.78-16.46c6.78,22.62,19.54,50.25,44.59,66.37C641.21,526.46,633.39,530,622.93,530Z"/><path d="M453.7,581.5c-112.36,0-126.21,147.93-130.17,156.21a14.51,14.51,0,0,0,14.11,17.89H569.77a14.5,14.5,0,0,0,14.1-17.89C579,727.49,567.39,581.5,453.7,581.5ZM356,726.59c2.22-4.56,14.54-116.07,97.66-116.07,82.78,0,95.86,112.37,97.66,116.07Z"/></svg>