<svg id="f04ed791-1ebd-4a14-9649-0b4cf26b9a9c" data-name="Capa 1" xmlns="http://www.w3.org/2000/svg" xmlns:xlink="http://www.w3.org/1999/xlink" viewBox="0 0 1080 1080"><defs><style>.f9cd4083-ca71-49dd-94f1-f13302a8343c{fill:none;}.b88ee418-1ffd-4c4b-994a-c0616498492d{opacity:0.76;}.ee966144-8590-4ad9-b720-773c8261cd31{clip-path:url(#bfba9630-d8a8-4249-ac20-c4152362e0b3);}.a3924f41-5316-4db7-9b2a-e5bcee0e19f9{opacity:0.7;}.a2a2186e-168d-489d-9d9e-0ac0a6b57863{fill:url(#b437c5b7-1018-41f5-b3a0-1ec0381a6509);}.ac6076f1-1b45-4449-b665-3cef1c10e9a5{fill:#00b68d;}</style><clipPath id="bfba9630-d8a8-4249-ac20-c4152362e0b3"><rect class="f9cd4083-ca71-49dd-94f1-f13302a8343c" x="179" y="183.94" width="722" height="712.11"/></clipPath><linearGradient id="b437c5b7-1018-41f5-b3a0-1ec0381a6509" x1="360.56" y1="886.6" x2="749.54" y2="212.87" gradientUnits="userSpaceOnUse"><stop offset="0" stop-color="#fff" stop-opacity="0.4"/><stop offset="0.19" stop-color="#e0f6f1" stop-opacity="0.45"/><stop offset="0.52" stop-color="#8ddecc" stop-opacity="0.58"/><stop offset="0.98" stop-color="#07b890" stop-opacity="0.79"/><stop offset="1" stop-color="#00b68d" stop-opacity="0.8"/></linearGradient></defs><title>iconos s2r</title><g class="b88ee418-1ffd-4c4b-994a-c0616498492d"><g class="ee966144-8590-4ad9-b720-773c8261cd31"><g class="a3924f41-5316-4db7-9b2a-e5bcee0e19f9"><g class="ee966144-8590-4ad9-b720-773c8261cd31"><path class="a2a2186e-168d-489d-9d9e-0ac0a6b57863" d="M898.89,529c-7.71,67.68-38.27,146.46-99.81,182.85-93,55-84.83,138.94-266.6,176.21A374.2,374.2,0,0,1,451.84,896a312.41,312.41,0,0,1-39.6-3.06C296.54,876.55,218.4,796.5,189.45,699.6,151.35,572.16,226,488.31,275.53,437.78s85.28-207.51,263.69-245.55A362.83,362.83,0,0,1,622.09,184c63.54,1.29,132.92,21.87,181,65.21q5.42,4.89,10.56,10.11c66.93,68.13,95.7,177.4,85.19,269.67"/></g></g></g></g><path class="ac6076f1-1b45-4449-b665-3cef1c10e9a5" d="M540,554.51c57.76,0,87-48.81,87-145.08a87.05,87.05,0,1,0-174.1,0C453,505.7,482.24,554.51,540,554.51Zm0-203.12a58.1,58.1,0,0,1,58,58c0,116.06-43.68,116.06-58,116.06s-58,0-58-116.06A58.1,58.1,0,0,1,540,351.39Z"/><path class="ac6076f1-1b45-4449-b665-3cef1c10e9a5" d="M540,583.52c-112.36,0-126.21,147.93-130.17,156.21a14.5,14.5,0,0,0,14.1,17.89H656.07a14.5,14.5,0,0,0,14.1-17.89C665.28,729.52,653.69,583.52,540,583.52ZM442.34,728.61c2.22-4.56,14.54-116.07,97.66-116.07,82.78,0,95.86,112.37,97.66,116.07Z"/><path d="M437.89,604a14.5,14.5,0,0,0-10-17.92,67.55,67.55,0,0,0-18.46-2.58c-36,0-66.89,27.93-76.87,69.49l-6.88,28.69c-4.49,18.75,23.71,25.52,28.22,6.77l6.87-28.69c6.68-27.81,26.69-47.24,48.66-47.24A38.6,38.6,0,0,1,420,614,14.51,14.51,0,0,0,437.89,604Z"/><path d="M387.46,555.32c14.84,7.94,30.68,6,44.52-3.25a14.51,14.51,0,0,0-16.09-24.14c-7.08,4.73-11.42,3.58-14.74,1.81-18.65-10-35.25-59.37-35.25-91.3,0-30.07,29.87-34.23,55.22-29.29a14.51,14.51,0,0,0,5.66-28.46c-46.59-9.39-89.9,9.27-89.9,57.75C336.88,475.15,354.9,537.9,387.46,555.32Z"/><path d="M754.32,681.7,747.44,653c-10-41.56-40.87-69.49-76.87-69.49a67.55,67.55,0,0,0-18.46,2.58A14.51,14.51,0,0,0,660,614a38.6,38.6,0,0,1,10.54-1.48c22,0,42,19.43,48.65,47.24l6.88,28.69C730.61,707.22,758.81,700.45,754.32,681.7Z"/><path d="M678.85,529.74c-3.3,1.77-7.63,2.92-14.74-1.81A14.51,14.51,0,0,0,648,552.07c13.84,9.23,29.68,11.19,44.52,3.25,32.56-17.42,50.58-80.17,50.58-116.88,0-48.64-43.46-67-89.9-57.75a14.51,14.51,0,0,0,5.66,28.46c26-5,55.22-.45,55.22,29.29C714.1,470.37,697.5,519.75,678.85,529.74Z"/></svg>