<svg id="aac8d8ae-8191-4977-97f3-d6ec9d9aa4bb" data-name="Capa 1" xmlns="http://www.w3.org/2000/svg" xmlns:xlink="http://www.w3.org/1999/xlink" viewBox="0 0 1080 1080"><defs><style>.a4f862ef-4250-4c57-81af-59104377d9db{fill:url(#aa9f29e2-f1f5-4ad3-9595-11c4a5bb2425);}.bd6e6fed-8aa9-412a-a130-2e3b439979d5{fill:none;}.a5916fba-9418-495b-9eef-bc623a90b336{fill:url(#be92646d-2fbe-41a7-85d7-1430957eb775);}.b048c331-fa14-41df-ade6-e50ab76121dc{opacity:0.76;}.be039ec4-c9e0-4dbd-984f-ef896acea939{clip-path:url(#a5c81075-eed4-465f-b042-3b3d0915339f);}.f905006c-ac1f-4d86-8db3-231c0b14b311{opacity:0.7;}.a9fd36f3-2d98-49aa-a6bd-bed919110604{clip-path:url(#a9f4d9d4-97ce-4e0e-a297-152381df3373);}.b6716e64-82f5-48f3-afe2-2cd8776b8dd6{mask:url(#ba9c4a4e-1a2f-4c89-b874-c5c2b5f6ac22);}.a4d9916c-ea84-46ec-a173-f0ec32051000{fill:url(#a2d7dd5d-c314-4a3a-8d3a-e0a1515cd330);}.b5e96957-752b-4f16-b665-51d3a728515e{fill:#5ad3b2;}</style><linearGradient id="aa9f29e2-f1f5-4ad3-9595-11c4a5bb2425" x1="6366.95" y1="-416.59" x2="6368.23" y2="-416.59" gradientTransform="matrix(587.6, 0, 0, -587.6, -3740656.95, -243991.78)" gradientUnits="userSpaceOnUse"><stop offset="0"/><stop offset="0.1" stop-color="#080808"/><stop offset="0.26" stop-color="#1e1e1e"/><stop offset="0.45" stop-color="#424242"/><stop offset="0.67" stop-color="#737373"/><stop offset="0.91" stop-color="#b2b2b2"/><stop offset="1" stop-color="#ccc"/></linearGradient><linearGradient id="be92646d-2fbe-41a7-85d7-1430957eb775" x1="360.56" y1="886.6" x2="749.54" y2="212.87" gradientUnits="userSpaceOnUse"><stop offset="0" stop-color="#fff" stop-opacity="0.4"/><stop offset="0.26" stop-color="#e0f7f1" stop-opacity="0.47"/><stop offset="0.74" stop-color="#8ee1ca" stop-opacity="0.67"/><stop offset="1" stop-color="#5ad3b2" stop-opacity="0.8"/></linearGradient><clipPath id="a5c81075-eed4-465f-b042-3b3d0915339f"><rect class="bd6e6fed-8aa9-412a-a130-2e3b439979d5" x="179" y="183.94" width="722" height="712.11"/></clipPath><clipPath id="a9f4d9d4-97ce-4e0e-a297-152381df3373"><path class="a5916fba-9418-495b-9eef-bc623a90b336" d="M898.89,529c-7.71,67.68-38.27,146.46-99.81,182.85-93,55-84.83,138.94-266.6,176.21A374.2,374.2,0,0,1,451.84,896a312.41,312.41,0,0,1-39.6-3.06C296.54,876.55,218.4,796.5,189.45,699.6,151.35,572.16,226,488.31,275.53,437.78s85.28-207.51,263.69-245.55A362.83,362.83,0,0,1,622.09,184c63.54,1.29,132.92,21.87,181,65.21q5.42,4.89,10.56,10.11c66.93,68.13,95.7,177.4,85.19,269.67"/></clipPath><mask id="ba9c4a4e-1a2f-4c89-b874-c5c2b5f6ac22" x="362.26" y="259.78" width="1092.23" height="1068.27" maskUnits="userSpaceOnUse"><rect class="a4f862ef-4250-4c57-81af-59104377d9db" x="454.48" y="356.45" width="907.79" height="874.92" transform="translate(-164.85 242.88) rotate(-13.98)"/></mask><linearGradient id="a2d7dd5d-c314-4a3a-8d3a-e0a1515cd330" x1="593.39" y1="1339.49" x2="1223.36" y2="248.33" gradientTransform="translate(218.63 -195.88) rotate(13.98)" gradientUnits="userSpaceOnUse"><stop offset="0" stop-color="#fff" stop-opacity="0.4"/><stop offset="0.17" stop-color="#f4fbf9" stop-opacity="0.4"/><stop offset="0.35" stop-color="#d4f0e6" stop-opacity="0.4"/><stop offset="0.54" stop-color="#9fdec6" stop-opacity="0.4"/><stop offset="0.6" stop-color="#89d7b9" stop-opacity="0.4"/><stop offset="1" stop-color="#7ed3b2" stop-opacity="0.9"/></linearGradient></defs><title>iconos s2r</title><g class="b048c331-fa14-41df-ade6-e50ab76121dc"><g class="be039ec4-c9e0-4dbd-984f-ef896acea939"><g class="f905006c-ac1f-4d86-8db3-231c0b14b311"><g class="be039ec4-c9e0-4dbd-984f-ef896acea939"><path class="a5916fba-9418-495b-9eef-bc623a90b336" d="M898.89,529c-7.71,67.68-38.27,146.46-99.81,182.85-93,55-84.83,138.94-266.6,176.21A374.2,374.2,0,0,1,451.84,896a312.41,312.41,0,0,1-39.6-3.06C296.54,876.55,218.4,796.5,189.45,699.6,151.35,572.16,226,488.31,275.53,437.78s85.28-207.51,263.69-245.55A362.83,362.83,0,0,1,622.09,184c63.54,1.29,132.92,21.87,181,65.21q5.42,4.89,10.56,10.11c66.93,68.13,95.7,177.4,85.19,269.67"/><g class="a9fd36f3-2d98-49aa-a6bd-bed919110604"><g class="b6716e64-82f5-48f3-afe2-2cd8776b8dd6"><rect class="a4d9916c-ea84-46ec-a173-f0ec32051000" x="454.48" y="356.45" width="907.79" height="874.92" transform="translate(-164.85 242.88) rotate(-13.98)"/></g></g></g></g></g></g><path class="b5e96957-752b-4f16-b665-51d3a728515e" d="M552.53,567.26c-71.89,0-130.38-58.49-130.38-130.38S480.64,306.5,552.53,306.5,682.91,365,682.91,436.88,624.41,567.26,552.53,567.26Z"/><path d="M569.46,773.5H333.76A14.73,14.73,0,0,1,319,758.77V626.18a14.67,14.67,0,0,1,4.31-10.41c3.45-3.46,34.77-33.78,69.34-33.78,28.64,0,65.59,21.64,78,29.46H540a44.26,44.26,0,0,1,44.19,44.32,45.1,45.1,0,0,1-.66,7.52l116.25-48.43A44.19,44.19,0,0,1,761,655.65a14.73,14.73,0,0,1-7.3,12.73L576.89,771.5A14.81,14.81,0,0,1,569.46,773.5ZM348.49,744h217l164.11-95.73a14.82,14.82,0,0,0-4.63-4.92,14.49,14.49,0,0,0-13.83-1.34l-136,56.66a14.81,14.81,0,0,1-5.69,1.13H451.61a14.73,14.73,0,0,1,0-29.46H540a14.74,14.74,0,0,0,0-29.46H466.34a14.9,14.9,0,0,1-8.17-2.46c-11.27-7.52-45.05-27-65.49-27-16.05,0-34.57,13-44.19,21.2Z"/><path d="M537.39,377.8v.75a36.7,36.7,0,0,0,7.34,72.65h14.68a7.34,7.34,0,0,1,0,14.67h-36.7a14.68,14.68,0,0,0,0,29.36h14.68a14.68,14.68,0,1,0,29.35,0v-.74a36.7,36.7,0,0,0-7.33-72.65H544.73a7.34,7.34,0,0,1,0-14.68h36.69a14.68,14.68,0,1,0,0-29.36H566.74a14.68,14.68,0,0,0-29.35,0Z"/></svg>