<svg id="be354930-9d84-4ee0-a82d-c0b431315cd0" data-name="Capa 1" xmlns="http://www.w3.org/2000/svg" xmlns:xlink="http://www.w3.org/1999/xlink" viewBox="0 0 1080 1080"><defs><style>.a22198f7-6d2b-4eba-ad68-290f8df2caf5{fill:none;}.f313229d-056c-45db-a883-5c1f35596db6{opacity:0.76;}.afe6f6ca-62e6-4902-bf46-1ff8439289d7{clip-path:url(#b9358c46-5710-4040-820b-372ca347a89f);}.b91d8c28-7eb7-4ab3-8bd9-7d601b8836d0{opacity:0.7;}.eaf6ae56-f6e3-45b7-a11c-f6134516acba{fill:url(#e96fdb2d-4bdc-4878-aa19-dee890b164f0);}.ab613bcf-8e43-463e-bd51-ac8d8ed0e081{fill:#00bbe6;}</style><clipPath id="b9358c46-5710-4040-820b-372ca347a89f"><rect class="a22198f7-6d2b-4eba-ad68-290f8df2caf5" x="179" y="183.94" width="722" height="712.11"/></clipPath><linearGradient id="e96fdb2d-4bdc-4878-aa19-dee890b164f0" x1="360.56" y1="886.6" x2="749.54" y2="212.87" gradientUnits="userSpaceOnUse"><stop offset="0" stop-color="#fff" stop-opacity="0.4"/><stop offset="0.19" stop-color="#e0f7fc" stop-opacity="0.45"/><stop offset="0.52" stop-color="#8de1f4" stop-opacity="0.58"/><stop offset="0.98" stop-color="#07bde7" stop-opacity="0.79"/><stop offset="1" stop-color="#00bbe6" stop-opacity="0.8"/></linearGradient></defs><title>iconos s2r</title><g class="f313229d-056c-45db-a883-5c1f35596db6"><g class="afe6f6ca-62e6-4902-bf46-1ff8439289d7"><g class="b91d8c28-7eb7-4ab3-8bd9-7d601b8836d0"><g class="afe6f6ca-62e6-4902-bf46-1ff8439289d7"><path class="eaf6ae56-f6e3-45b7-a11c-f6134516acba" d="M898.89,529c-7.71,67.68-38.27,146.46-99.81,182.85-93,55-84.83,138.94-266.6,176.21A374.2,374.2,0,0,1,451.84,896a312.41,312.41,0,0,1-39.6-3.06C296.54,876.55,218.4,796.5,189.45,699.6,151.35,572.16,226,488.31,275.53,437.78s85.28-207.51,263.69-245.55A362.83,362.83,0,0,1,622.09,184c63.54,1.29,132.92,21.87,181,65.21q5.42,4.89,10.56,10.11c66.93,68.13,95.7,177.4,85.19,269.67"/></g></g></g></g><path d="M586.84,712H740.67A14.34,14.34,0,0,0,755,697.67v-344a14.34,14.34,0,0,0-14.33-14.33H339.33A14.34,14.34,0,0,0,325,353.67v344A14.34,14.34,0,0,0,339.33,712H586.84ZM726.33,368v28.66H353.67V368ZM540,709.86m-72.94-26.52H353.67v-258H726.33v258H467.06Z"/><path class="ab613bcf-8e43-463e-bd51-ac8d8ed0e081" d="M579.24,676.77c49.85-68,42.13-155.34,41.65-160.1a14.34,14.34,0,0,0-11.45-12.62c-18.77-3.78-72.06-17.14-93-38.08a14.33,14.33,0,0,0-20.27,0c-20.94,20.94-74.24,34.3-93,38.08a14.35,14.35,0,0,0-11.45,12.62c-.47,4.76-8.2,92.1,41.66,160.1a236.93,236.93,0,0,0,66.53,55.82,14.5,14.5,0,0,0,12.82,0,206.61,206.61,0,0,0,66.53-55.82Z"/></svg>