<svg id="e6122c4a-80eb-4297-8bf8-aca139458c53" data-name="Capa 1" xmlns="http://www.w3.org/2000/svg" xmlns:xlink="http://www.w3.org/1999/xlink" viewBox="0 0 1080 1080"><defs><style>.ae1f13e1-bc5a-4ef7-82c0-77ffbf580830{fill:none;}.ad6e6431-7ed4-4d76-ad62-b6d87879739f{opacity:0.76;}.f2a2767a-b726-45d1-bbe7-ce07421cd450{clip-path:url(#bc0c289c-5024-4d21-aa9e-9f7da41039c8);}.a530baf8-9db9-4169-b23b-51887574c444{opacity:0.7;}.abca2f80-b072-4bee-ad6c-6553a10aed32{fill:url(#f0ab46e1-34e8-4e43-8631-52ed282e478b);}.e8bd9f3a-3586-4462-94ea-0519266ebc3f{fill:#f46060;}</style><clipPath id="bc0c289c-5024-4d21-aa9e-9f7da41039c8"><rect class="ae1f13e1-bc5a-4ef7-82c0-77ffbf580830" x="162" y="208.94" width="722" height="712.11"/></clipPath><linearGradient id="f0ab46e1-34e8-4e43-8631-52ed282e478b" x1="343.56" y1="911.6" x2="732.54" y2="237.87" gradientUnits="userSpaceOnUse"><stop offset="0" stop-color="#fff" stop-opacity="0.4"/><stop offset="0.2" stop-color="#feeaea" stop-opacity="0.45"/><stop offset="0.56" stop-color="#fab1b1" stop-opacity="0.6"/><stop offset="1" stop-color="#f46060" stop-opacity="0.8"/></linearGradient></defs><title>iconos s2r</title><g class="ad6e6431-7ed4-4d76-ad62-b6d87879739f"><g class="f2a2767a-b726-45d1-bbe7-ce07421cd450"><g class="a530baf8-9db9-4169-b23b-51887574c444"><g class="f2a2767a-b726-45d1-bbe7-ce07421cd450"><path class="abca2f80-b072-4bee-ad6c-6553a10aed32" d="M881.89,554c-7.71,67.68-38.27,146.46-99.81,182.85-93,55-84.83,138.94-266.6,176.21A374.2,374.2,0,0,1,434.84,921a312.41,312.41,0,0,1-39.6-3.06C279.54,901.55,201.4,821.5,172.45,724.6,134.35,597.16,209,513.31,258.53,462.78s85.28-207.51,263.69-245.55A362.83,362.83,0,0,1,605.09,209c63.54,1.29,132.92,21.87,181,65.21q5.42,4.89,10.56,10.11c66.93,68.13,95.7,177.4,85.19,269.67"/></g></g></g></g><path d="M765,525.14,554.86,315a21,21,0,0,0-29.72,0L315,525.14a21,21,0,0,0,29.72,29.72l27.17-27.17V750.15a21,21,0,0,0,21,21H687.11a21,21,0,0,0,21-21V527.69l27.18,27.17A21,21,0,0,0,765,525.14ZM671.59,739.21H408.41V485.66L540,359.57,671.59,485.66Z"/><path class="e8bd9f3a-3586-4462-94ea-0519266ebc3f" d="M473.59,534.86c-19.2,20.92-19.24,54.75,0,75.69l54.75,59.69a15,15,0,0,0,22.5,0l54.74-59.69c19.22-20.91,19.23-54.75,0-75.69-17.45-19.05-47.22-17.68-66-.7C520.8,517.18,491.05,515.82,473.59,534.86Z"/></svg>