<svg id="adaf08ed-e696-4acf-b10e-f38d76f2cf7b" data-name="Capa 1" xmlns="http://www.w3.org/2000/svg" xmlns:xlink="http://www.w3.org/1999/xlink" viewBox="0 0 1080 1080"><defs><style>.e6404c0d-482b-4473-ad98-6195682b23e9{fill:url(#f91cea6a-fb39-4154-9605-c1f73389b53c);}.ad337dd8-e52e-46dd-af6e-c441dc71d301{fill:url(#b5847a6d-dc1a-46de-8388-b73571aa7b13);}.a88b47b1-d9eb-4446-b95e-0c7689a9bbd4{fill:none;}.ab346e9f-7fe1-4510-a09a-49cde4249673{fill:url(#bee44cd0-029f-40a6-bb88-fdfbd4bacc3c);}.b5110a83-eb71-4ca1-adc7-d0ee792bd434{opacity:0.76;}.a25eef40-c6af-493d-be55-7403ddeee4c0{clip-path:url(#bfa3d212-423e-468a-8f46-49572bb2fdc9);}.b0343894-f8f9-4bcb-9c5f-7111cb43e4e5{clip-path:url(#e1b56012-7efc-4fe1-9e84-6dce7085b3df);}.e19dca35-dae3-451a-8f26-b1920041c60b{mask:url(#bf88155a-1140-4c4f-9fd9-d1dab07dca09);}.e0088d44-7d47-45a3-b333-90a1ceb2b0d7{fill:url(#b34e4e5f-2a0c-4f8a-8cee-32ce42c0f534);}.ffd781a7-056a-4b2c-a6da-b7a2a5e1fabd{opacity:0.7;}.e6d1eeb8-c84b-48f6-986f-0e46ba912764{clip-path:url(#e93fed4f-508b-4dd8-9a20-766fa22192be);}.f8cc8b52-aa5c-4da1-93e1-d2a506b60825{fill:url(#ae48cdd7-7a8a-4b7c-a6f2-cf706850ee33);}.a5095fb1-6914-420d-ad28-939f336ee79c{fill:#00b68d;}</style><linearGradient id="f91cea6a-fb39-4154-9605-c1f73389b53c" x1="6366.98" y1="944.23" x2="6368.28" y2="944.23" gradientTransform="matrix(587.6, 0, 0, -587.6, -3741057.44, 555365.79)" gradientUnits="userSpaceOnUse"><stop offset="0"/><stop offset="0.08" stop-color="#080808"/><stop offset="0.2" stop-color="#1e1e1e"/><stop offset="0.35" stop-color="#424242"/><stop offset="0.53" stop-color="#737373"/><stop offset="0.71" stop-color="#b2b2b2"/><stop offset="0.79" stop-color="#ccc"/><stop offset="1" stop-color="#ccc"/></linearGradient><linearGradient id="b5847a6d-dc1a-46de-8388-b73571aa7b13" x1="6366.98" y1="944.23" x2="6368.28" y2="944.23" gradientTransform="matrix(587.6, 0, 0, -587.6, -3741057.44, 555365.79)" gradientUnits="userSpaceOnUse"><stop offset="0"/><stop offset="0.1" stop-color="#080808"/><stop offset="0.26" stop-color="#1e1e1e"/><stop offset="0.45" stop-color="#424242"/><stop offset="0.67" stop-color="#737373"/><stop offset="0.91" stop-color="#b2b2b2"/><stop offset="1" stop-color="#ccc"/></linearGradient><linearGradient id="bee44cd0-029f-40a6-bb88-fdfbd4bacc3c" x1="357.84" y1="891.85" x2="752.71" y2="207.91" gradientUnits="userSpaceOnUse"><stop offset="0" stop-color="#fff" stop-opacity="0.3"/><stop offset="0.22" stop-color="#f1fbf9" stop-opacity="0.3"/><stop offset="0.45" stop-color="#c6efe5" stop-opacity="0.3"/><stop offset="0.7" stop-color="#7edac6" stop-opacity="0.3"/><stop offset="0.94" stop-color="#1bbe99" stop-opacity="0.3"/><stop offset="1" stop-color="#00b68d" stop-opacity="0.3"/></linearGradient><clipPath id="bfa3d212-423e-468a-8f46-49572bb2fdc9"><rect class="a88b47b1-d9eb-4446-b95e-0c7689a9bbd4" x="173.53" y="178.55" width="732.94" height="722.9"/></clipPath><clipPath id="e1b56012-7efc-4fe1-9e84-6dce7085b3df"><path class="a88b47b1-d9eb-4446-b95e-0c7689a9bbd4" d="M904.33,528.85C896.5,597.55,865.48,677.53,803,714.47c-94.39,55.82-86.12,141-270.65,178.87a380,380,0,0,1-81.85,8.08,316.2,316.2,0,0,1-40.21-3.11C292.85,881.65,213.52,800.39,184.14,702c-38.68-129.37,37.12-214.49,87.38-265.79S358.09,225.58,539.2,187a368.22,368.22,0,0,1,84.13-8.34c64.5,1.31,134.94,22.2,183.8,66.2q5.5,5,10.72,10.27c67.94,69.16,97.15,180.09,86.48,273.76"/></clipPath><mask id="bf88155a-1140-4c4f-9fd9-d1dab07dca09" x="-24.16" y="-2.32" width="1108.78" height="1084.46" maskUnits="userSpaceOnUse"><rect class="e6404c0d-482b-4473-ad98-6195682b23e9" x="69.45" y="95.82" width="921.55" height="888.19" transform="translate(-114.7 144.04) rotate(-13.98)"/></mask><linearGradient id="b34e4e5f-2a0c-4f8a-8cee-32ce42c0f534" x1="6366.98" y1="944.23" x2="6368.28" y2="944.23" gradientTransform="matrix(587.6, 0, 0, -587.6, -3741057.86, 555365.5)" gradientUnits="userSpaceOnUse"><stop offset="0" stop-color="#fff"/><stop offset="0.2" stop-color="#f7fbfd"/><stop offset="0.52" stop-color="#e1f2f8"/><stop offset="0.79" stop-color="#c9e7f3"/><stop offset="1" stop-color="#c9e7f3"/></linearGradient><clipPath id="e93fed4f-508b-4dd8-9a20-766fa22192be"><path class="ab346e9f-7fe1-4510-a09a-49cde4249673" d="M904.33,528.85C896.5,597.55,865.48,677.53,803,714.47c-94.39,55.82-86.12,141-270.65,178.87a380,380,0,0,1-81.85,8.08,316.2,316.2,0,0,1-40.21-3.11C292.85,881.65,213.52,800.39,184.14,702c-38.68-129.37,37.12-214.49,87.38-265.79S358.09,225.58,539.2,187a368.22,368.22,0,0,1,84.13-8.34c64.5,1.31,134.94,22.2,183.8,66.2q5.5,5,10.72,10.27c67.94,69.16,97.15,180.09,86.48,273.76"/></clipPath><linearGradient id="ae48cdd7-7a8a-4b7c-a6f2-cf706850ee33" x1="210.47" y1="1093.76" x2="849.99" y2="-13.94" gradientTransform="translate(146.09 -112.07) rotate(13.98)" xlink:href="#bee44cd0-029f-40a6-bb88-fdfbd4bacc3c"/></defs><title>iconos s2r</title><g class="b5110a83-eb71-4ca1-adc7-d0ee792bd434"><g class="a25eef40-c6af-493d-be55-7403ddeee4c0"><g class="b0343894-f8f9-4bcb-9c5f-7111cb43e4e5"><g class="e19dca35-dae3-451a-8f26-b1920041c60b"><rect class="e0088d44-7d47-45a3-b333-90a1ceb2b0d7" x="69.45" y="95.82" width="921.55" height="888.19" transform="translate(-114.7 144.04) rotate(-13.98)"/></g></g><g class="ffd781a7-056a-4b2c-a6da-b7a2a5e1fabd"><g class="a25eef40-c6af-493d-be55-7403ddeee4c0"><path class="ab346e9f-7fe1-4510-a09a-49cde4249673" d="M904.33,528.85C896.5,597.55,865.48,677.53,803,714.47c-94.39,55.82-86.12,141-270.65,178.87a380,380,0,0,1-81.85,8.08,316.2,316.2,0,0,1-40.21-3.11C292.85,881.65,213.52,800.39,184.14,702c-38.68-129.37,37.12-214.49,87.38-265.79S358.09,225.58,539.2,187a368.22,368.22,0,0,1,84.13-8.34c64.5,1.31,134.94,22.2,183.8,66.2q5.5,5,10.72,10.27c67.94,69.16,97.15,180.09,86.48,273.76"/><g class="e6d1eeb8-c84b-48f6-986f-0e46ba912764"><g class="e19dca35-dae3-451a-8f26-b1920041c60b"><rect class="f8cc8b52-aa5c-4da1-93e1-d2a506b60825" x="69.45" y="95.82" width="921.55" height="888.19" transform="translate(-114.7 144.04) rotate(-13.98)"/></g></g></g></g></g></g><path d="M765,525.14,554.86,315a21,21,0,0,0-29.72,0L315,525.14a21,21,0,0,0,29.72,29.72l27.17-27.17V750.15a21,21,0,0,0,21,21H687.11a21,21,0,0,0,21-21V527.69l27.18,27.17A21,21,0,0,0,765,525.14ZM671.59,739.21H408.41V485.66L540,359.57,671.59,485.66Z"/><path class="a5095fb1-6914-420d-ad28-939f336ee79c" d="M519,498V499a52.54,52.54,0,0,0,10.51,104h21a10.51,10.51,0,1,1,0,21H498a21,21,0,1,0,0,42h21a21,21,0,1,0,42,0V665a52.54,52.54,0,0,0-10.51-104h-21a10.51,10.51,0,0,1,0-21H582a21,21,0,1,0,0-42H561a21,21,0,1,0-42,0Z"/></svg>