<svg id="fea8e835-4d07-4952-9d5f-233a765eef79" data-name="Capa 1" xmlns="http://www.w3.org/2000/svg" xmlns:xlink="http://www.w3.org/1999/xlink" viewBox="0 0 1080 1080"><defs><style>.a0292846-1499-4aa0-b212-24ca5caf83b5{fill:none;}.fb93b867-d6b9-4c3d-ae9c-f3fbcd1a86e1{opacity:0.76;}.ea00433e-9860-46f3-9b8a-de6fa0ecedf7{clip-path:url(#a81510a6-1c91-4e77-b7d1-333bc5d57a0d);}.fe7cebd0-7d72-4f02-be6f-b7102948be5b{opacity:0.7;}.a796afe0-60f8-4ea2-adf6-16b23de455b9{fill:url(#a5c0a285-d0ec-4401-9fe0-7847ed491397);}.ac149868-ada2-4541-9b0a-87df5daf7757{fill:#222;}.a145b8cc-d290-4dc1-a687-d34b3f431cc1{fill:#0074bf;}</style><clipPath id="a81510a6-1c91-4e77-b7d1-333bc5d57a0d"><rect class="a0292846-1499-4aa0-b212-24ca5caf83b5" x="179" y="183.94" width="722" height="712.11"/></clipPath><linearGradient id="a5c0a285-d0ec-4401-9fe0-7847ed491397" x1="360.56" y1="886.6" x2="749.54" y2="212.87" gradientUnits="userSpaceOnUse"><stop offset="0" stop-color="#fff" stop-opacity="0.4"/><stop offset="0.19" stop-color="#e0eef7" stop-opacity="0.45"/><stop offset="0.52" stop-color="#8dc1e2" stop-opacity="0.58"/><stop offset="0.98" stop-color="#0778c1" stop-opacity="0.79"/><stop offset="1" stop-color="#0074bf" stop-opacity="0.8"/></linearGradient></defs><title>iconos s2r</title><g class="fb93b867-d6b9-4c3d-ae9c-f3fbcd1a86e1"><g class="ea00433e-9860-46f3-9b8a-de6fa0ecedf7"><g class="fe7cebd0-7d72-4f02-be6f-b7102948be5b"><g class="ea00433e-9860-46f3-9b8a-de6fa0ecedf7"><path class="a796afe0-60f8-4ea2-adf6-16b23de455b9" d="M898.89,529c-7.71,67.68-38.27,146.46-99.81,182.85-93,55-84.83,138.94-266.6,176.21A374.2,374.2,0,0,1,451.84,896a312.41,312.41,0,0,1-39.6-3.06C296.54,876.55,218.4,796.5,189.45,699.6,151.35,572.16,226,488.31,275.53,437.78s85.28-207.51,263.69-245.55A362.83,362.83,0,0,1,622.09,184c63.54,1.29,132.92,21.87,181,65.21q5.42,4.89,10.56,10.11c66.93,68.13,95.7,177.4,85.19,269.67"/></g></g></g></g><path class="ac149868-ada2-4541-9b0a-87df5daf7757" d="M449.44,477.5a7.86,7.86,0,0,1-3.88-1l-22.95-12.93a7.9,7.9,0,0,1,7.75-13.76h0l18.95,10.67c7.4-4.49,23.41-14.14,33.66-19.93,16.73-9.48,28.52-8.17,42,4.64a7.9,7.9,0,0,1-10.86,11.47c-8.4-8-12.77-8.37-23.41-2.37-13.17,7.44-36.93,21.92-37.17,22.11A8,8,0,0,1,449.44,477.5Z"/><path class="ac149868-ada2-4541-9b0a-87df5daf7757" d="M657.16,614.88a30.19,30.19,0,0,1-16.36-4.32c-7.26-4.84-39.23-36.19-45.56-42.42a7.89,7.89,0,0,1,11-11.26c14.22,14,38.6,37.44,43.25,40.54a18.36,18.36,0,0,0,18.67-1.92,11.23,11.23,0,0,0,1.12-15.84,10.52,10.52,0,0,0-1.44-1.39c-8.07-9.08-41.59-41.34-48.95-48.41a524.92,524.92,0,0,1-74.48-34.13l-8.31,5.43a36.19,36.19,0,0,1-14,21.57,21.81,21.81,0,0,1-18,4.2,27.48,27.48,0,0,1-19-11.4A37.45,37.45,0,0,1,483.85,487c6.73-26.95,17.66-33.89,32.78-43.5l3.33-2.12c16.66-10.7,31-16.4,46.66-9.33,9.76,4.4,44.4,17.81,54.24,21.62l33-10.81a7.89,7.89,0,0,1,4.92,15L623.1,469.51a7.94,7.94,0,0,1-5.29-.13c-1.87-.73-45.92-17.67-57.64-23-7-3.16-14.47-2.84-31.65,8.2l-3.4,2.17c-13.79,8.76-20.72,13.17-25.93,34-2.67,10.68-1.44,15-.46,16.59,1.24,2.08,4.13,2.93,8.74,4.08a6.73,6.73,0,0,0,5.57-1.58,20.46,20.46,0,0,0,8-14.1,7.88,7.88,0,0,1,3.53-5.92l15.2-9.94a7.9,7.9,0,0,1,8.11-.3c.54.29,53.78,29.41,77.09,35.53a8.09,8.09,0,0,1,3.46,1.94c1.71,1.63,41.85,40.07,51.28,50.71a26.85,26.85,0,0,1,.62,38c-.31.31-.62.62-.94.92A31.67,31.67,0,0,1,657.16,614.88Z"/><path class="ac149868-ada2-4541-9b0a-87df5daf7757" d="M673.82,580.92a7.89,7.89,0,0,1-3.2-15.11l27.7-12.27a7.9,7.9,0,1,1,6.75,14.28l-.35.15L677,580.27A7.75,7.75,0,0,1,673.82,580.92Z"/><path class="a145b8cc-d290-4dc1-a687-d34b3f431cc1" d="M710,587.38a7.91,7.91,0,0,1-7.32-4.94l-59.6-147.87a7.9,7.9,0,0,1,4.37-10.28l.29-.11,63.69-22.79a7.9,7.9,0,0,1,10,4.52L779.9,552.57a7.9,7.9,0,0,1-4.45,10.25l-.06,0-62.52,24A8,8,0,0,1,710,587.38Z"/><path class="ac149868-ada2-4541-9b0a-87df5daf7757" d="M621.59,638.83a26.71,26.71,0,0,1-17.88-6.15c-10.57-9.4-37.75-36.56-38.9-37.71A7.9,7.9,0,0,1,576,583.8c.28.28,28,28,38.23,37.12a15.41,15.41,0,0,0,14.21.94,21.4,21.4,0,0,0,14.25-17.05,7.9,7.9,0,0,1,15.56,2.69,37.23,37.23,0,0,1-24.56,29.22A36.76,36.76,0,0,1,621.59,638.83Z"/><path class="ac149868-ada2-4541-9b0a-87df5daf7757" d="M584.84,658a25,25,0,0,1-17.69-6.31l-28-28a8.16,8.16,0,0,1,11.17-11.18l28.05,28.05a14.24,14.24,0,0,0,11.5,1.08A20.83,20.83,0,0,0,605,626.72a7.89,7.89,0,0,1,15.16,4.4l-.06.23A36.8,36.8,0,0,1,584.85,658Z"/><path class="ac149868-ada2-4541-9b0a-87df5daf7757" d="M554.74,679.06a28.72,28.72,0,0,1-17.92-5.8q-10.67-8.55-21.43-17a7.9,7.9,0,0,1,9.53-12.59l.19.14s9.86,7.7,21.58,17.08a16.78,16.78,0,0,0,16.59.34,12.3,12.3,0,0,0,7.43-11.79,7.9,7.9,0,0,1,7.66-8.13A8,8,0,0,1,586.5,649a28.1,28.1,0,0,1-16.17,26.4A35.14,35.14,0,0,1,554.74,679.06Z"/><path class="ac149868-ada2-4541-9b0a-87df5daf7757" d="M495.57,675.41a19.77,19.77,0,0,1-7.48-1.5,34.84,34.84,0,0,1-15.2-14.52,24.85,24.85,0,0,1-16.45-2.47A38.1,38.1,0,0,1,440,632.54a7.87,7.87,0,0,1,1.08-5.85c6.42-10,16.1-25.58,17.55-28.82a20.12,20.12,0,0,1,13.1-10.49,26.52,26.52,0,0,1,22.45,4.3,23.54,23.54,0,0,1,10.45,21.65A26.24,26.24,0,0,1,524,623.21a28.32,28.32,0,0,1,3,24.21,47,47,0,0,1-23.69,26.41A20.09,20.09,0,0,1,495.57,675.41Zm-9.38-24.65c2.48,4.2,6.91,10.21,11.05,8.48a31.15,31.15,0,0,0,14.86-16.89,12.76,12.76,0,0,0-.79-9.84,12.48,12.48,0,0,0-9.11-3.57Zm-29.94-18.55A20,20,0,0,0,464,643a9.58,9.58,0,0,0,7.6.5l16.86-28.9a8.41,8.41,0,0,0-3.25-10,11,11,0,0,0-8.69-2.22,5.91,5.91,0,0,0-3.47,1.92C470.93,609,460.9,624.89,456.25,632.21Z"/><path class="ac149868-ada2-4541-9b0a-87df5daf7757" d="M435.22,644.54a19.16,19.16,0,0,1-5.53-.79c-13.53-4.07-18.83-21.58-19.39-23.56a7.91,7.91,0,0,1,.74-6,326.51,326.51,0,0,1,22.23-33.64,26.79,26.79,0,0,1,35.48-6.37c7.46,5.17,12.92,16.42,3.78,31.13a7.9,7.9,0,0,1-13.43-8.34c2-3.27,3.79-7.62.64-9.81a10.92,10.92,0,0,0-14,3,311.21,311.21,0,0,0-19.22,28.74c1.73,4.13,4.67,8.86,7.68,9.75,2.66.79,6.32-1.94,8.3-3.63a7.9,7.9,0,1,1,10.33,12A26.92,26.92,0,0,1,435.22,644.54Z"/><path class="ac149868-ada2-4541-9b0a-87df5daf7757" d="M417.88,625.91a8,8,0,0,1-2.55-.42c-1.33-.45-32.8-11.45-32.8-36.1a7.72,7.72,0,0,1,.37-2.44,92,92,0,0,1,11.64-22.11A24.51,24.51,0,0,1,424.92,559,20.43,20.43,0,0,1,436,584.28c-5.16,16.63-10.46,35.64-10.51,35.84a7.9,7.9,0,0,1-7.61,5.77Zm-19.5-35.3c.79,7.39,8.36,13,14.42,16.38,2.06-7.2,5.12-17.68,8.12-27.36a4.74,4.74,0,0,0-2.39-6.26,4.07,4.07,0,0,0-.58-.22,9.49,9.49,0,0,0-10.5.79A82.07,82.07,0,0,0,398.38,590.61Z"/><path class="ac149868-ada2-4541-9b0a-87df5daf7757" d="M396.9,583.66a7.85,7.85,0,0,1-4.45-1.38l-20.71-14.21a7.9,7.9,0,0,1,8.92-13l20.71,14.21a7.89,7.89,0,0,1-4.47,14.42Z"/><path class="a145b8cc-d290-4dc1-a687-d34b3f431cc1" d="M367.63,587.38a8,8,0,0,1-3.61-.87l-60.19-31a7.9,7.9,0,0,1-3.42-10.6l70.7-139.65a7.9,7.9,0,0,1,10.61-3.48l0,0L439,431a7.91,7.91,0,0,1,3.54,10.46l-67.78,141.4a8,8,0,0,1-4.61,4.08A8.28,8.28,0,0,1,367.63,587.38Z"/></svg>