<svg id="eb01fdf7-6b88-4ef4-b150-4344084d79f7" data-name="Capa 1" xmlns="http://www.w3.org/2000/svg" xmlns:xlink="http://www.w3.org/1999/xlink" viewBox="0 0 1080 1080"><defs><style>.ee3c504a-0fb2-4f8c-a5f6-52cf93f82f2a{fill:url(#aa604d2e-fdfd-4406-852c-a842e9745f9b);}.aa105db2-b93f-4735-a8d8-f4aae0775465{fill:none;}.b75fab2a-d7cd-4844-96d4-a762bf10a0f1{fill:url(#f4e2f000-b8c3-46b7-80ed-ffb326e7ccf7);}.ad99f82e-e254-4ff0-8907-31fcd58e65fa{opacity:0.76;}.bd6e3270-6d42-4739-aaa0-e4a0057caa17{clip-path:url(#aef034e9-b1bf-4766-a97f-2b32294b97a1);}.b2a22179-9c8e-4311-b579-918998cda19e{opacity:0.7;}.ea2e1e70-764a-4aab-95d4-5d862e8a8b21{clip-path:url(#a387aa2d-8a77-46e4-a5ff-88e1075b8f7a);}.a37e5e36-4c0f-4edd-ae1f-c968cfdd5e1d{mask:url(#bff3b0a0-0e6e-4156-add2-0211569b39df);}.ad78a572-9efe-488b-8c42-336d982ea5f5{fill:url(#bd24fdb0-e7e7-46b7-b92e-6d57526a8da2);}.bc9a84a7-3d59-4a2a-9f67-6c573ae6a1a6{clip-path:url(#a128c4cc-245c-456e-a273-b4bfffba7291);}.f30ca803-4863-40bb-bd3a-ff8f1c54560b{fill:url(#ae0f483d-d5ff-4ed6-a497-474d209030a8);}.a4499790-54c3-4582-a12f-89e576ba6434{fill:#f3d13b;}</style><linearGradient id="aa604d2e-fdfd-4406-852c-a842e9745f9b" x1="3747.2" y1="-417.15" x2="3748.48" y2="-417.15" gradientTransform="matrix(587.6, 0, 0, -587.6, -2202560.75, -244321)" gradientUnits="userSpaceOnUse"><stop offset="0"/><stop offset="0.1" stop-color="#080808"/><stop offset="0.26" stop-color="#1e1e1e"/><stop offset="0.45" stop-color="#424242"/><stop offset="0.67" stop-color="#737373"/><stop offset="0.91" stop-color="#b2b2b2"/><stop offset="1" stop-color="#ccc"/></linearGradient><linearGradient id="f4e2f000-b8c3-46b7-80ed-ffb326e7ccf7" x1="-898.44" y1="886.6" x2="-509.46" y2="212.87" gradientUnits="userSpaceOnUse"><stop offset="0" stop-color="#fff" stop-opacity="0.4"/><stop offset="0.19" stop-color="#e0f7fc" stop-opacity="0.45"/><stop offset="0.52" stop-color="#8de1f4" stop-opacity="0.58"/><stop offset="0.98" stop-color="#07bde7" stop-opacity="0.79"/><stop offset="1" stop-color="#00bbe6" stop-opacity="0.8"/></linearGradient><clipPath id="aef034e9-b1bf-4766-a97f-2b32294b97a1"><rect class="aa105db2-b93f-4735-a8d8-f4aae0775465" x="-1080" y="183.94" width="722" height="712.11"/></clipPath><clipPath id="a387aa2d-8a77-46e4-a5ff-88e1075b8f7a"><path class="b75fab2a-d7cd-4844-96d4-a762bf10a0f1" d="M-360.11,529c-7.71,67.68-38.27,146.46-99.81,182.85-93,55-84.83,138.94-266.6,176.21A374.2,374.2,0,0,1-807.16,896a312.41,312.41,0,0,1-39.6-3.06c-115.7-16.41-193.84-96.46-222.79-193.36-38.1-127.44,36.57-211.29,86.08-261.82s85.28-207.51,263.69-245.55A362.83,362.83,0,0,1-636.91,184c63.54,1.29,132.92,21.87,181,65.21q5.42,4.89,10.56,10.11c66.93,68.13,95.7,177.4,85.19,269.67"/></clipPath><mask id="bff3b0a0-0e6e-4156-add2-0211569b39df" x="-896.74" y="259.78" width="1092.23" height="1068.27" maskUnits="userSpaceOnUse"><rect class="ee3c504a-0fb2-4f8c-a5f6-52cf93f82f2a" x="-804.52" y="356.45" width="907.79" height="874.92" transform="translate(-202.12 -61.18) rotate(-13.98)"/></mask><linearGradient id="bd24fdb0-e7e7-46b7-b92e-6d57526a8da2" x1="-665.61" y1="1339.49" x2="-35.64" y2="248.33" gradientTransform="translate(181.36 108.18) rotate(13.98)" gradientUnits="userSpaceOnUse"><stop offset="0" stop-color="#fff" stop-opacity="0.4"/><stop offset="0.17" stop-color="#f4fbf9" stop-opacity="0.4"/><stop offset="0.35" stop-color="#d4f0e6" stop-opacity="0.4"/><stop offset="0.54" stop-color="#9fdec6" stop-opacity="0.4"/><stop offset="0.6" stop-color="#89d7b9" stop-opacity="0.4"/><stop offset="1" stop-color="#7ed3b2" stop-opacity="0.9"/></linearGradient><clipPath id="a128c4cc-245c-456e-a273-b4bfffba7291"><rect class="aa105db2-b93f-4735-a8d8-f4aae0775465" x="179" y="183.94" width="722" height="712.11"/></clipPath><linearGradient id="ae0f483d-d5ff-4ed6-a497-474d209030a8" x1="360.56" y1="886.6" x2="749.54" y2="212.87" gradientUnits="userSpaceOnUse"><stop offset="0" stop-color="#fff" stop-opacity="0.4"/><stop offset="0.2" stop-color="#fdf9e4" stop-opacity="0.45"/><stop offset="0.57" stop-color="#f9e89e" stop-opacity="0.6"/><stop offset="1" stop-color="#f3d13b" stop-opacity="0.8"/></linearGradient></defs><title>iconos s2r</title><g class="ad99f82e-e254-4ff0-8907-31fcd58e65fa"><g class="bd6e3270-6d42-4739-aaa0-e4a0057caa17"><g class="b2a22179-9c8e-4311-b579-918998cda19e"><g class="bd6e3270-6d42-4739-aaa0-e4a0057caa17"><path class="b75fab2a-d7cd-4844-96d4-a762bf10a0f1" d="M-360.11,529c-7.71,67.68-38.27,146.46-99.81,182.85-93,55-84.83,138.94-266.6,176.21A374.2,374.2,0,0,1-807.16,896a312.41,312.41,0,0,1-39.6-3.06c-115.7-16.41-193.84-96.46-222.79-193.36-38.1-127.44,36.57-211.29,86.08-261.82s85.28-207.51,263.69-245.55A362.83,362.83,0,0,1-636.91,184c63.54,1.29,132.92,21.87,181,65.21q5.42,4.89,10.56,10.11c66.93,68.13,95.7,177.4,85.19,269.67"/><g class="ea2e1e70-764a-4aab-95d4-5d862e8a8b21"><g class="a37e5e36-4c0f-4edd-ae1f-c968cfdd5e1d"><rect class="ad78a572-9efe-488b-8c42-336d982ea5f5" x="-804.52" y="356.45" width="907.79" height="874.92" transform="translate(-202.12 -61.18) rotate(-13.98)"/></g></g></g></g></g></g><g class="ad99f82e-e254-4ff0-8907-31fcd58e65fa"><g class="bc9a84a7-3d59-4a2a-9f67-6c573ae6a1a6"><g class="b2a22179-9c8e-4311-b579-918998cda19e"><g class="bc9a84a7-3d59-4a2a-9f67-6c573ae6a1a6"><path class="f30ca803-4863-40bb-bd3a-ff8f1c54560b" d="M898.89,529c-7.71,67.68-38.27,146.46-99.81,182.85-93,55-84.83,138.94-266.6,176.21A374.2,374.2,0,0,1,451.84,896a312.41,312.41,0,0,1-39.6-3.06C296.54,876.55,218.4,796.5,189.45,699.6,151.35,572.16,226,488.31,275.53,437.78s85.28-207.51,263.69-245.55A362.83,362.83,0,0,1,622.09,184c63.54,1.29,132.92,21.87,181,65.21q5.42,4.89,10.56,10.11c66.93,68.13,95.7,177.4,85.19,269.67"/></g></g></g></g><path d="M583,756.68H497a14.34,14.34,0,0,1-14.33-14.34v-258A14.34,14.34,0,0,1,497,470h86a14.34,14.34,0,0,1,14.33,14.33v258A14.34,14.34,0,0,1,583,756.68ZM511.33,728h57.34V498.68H511.33Z"/><path d="M740.67,756.68h-86a14.34,14.34,0,0,1-14.34-14.34v-129A14.34,14.34,0,0,1,654.67,599h86A14.34,14.34,0,0,1,755,613.34v129A14.34,14.34,0,0,1,740.67,756.68ZM669,728h57.33V627.68H669Z"/><path d="M425.33,756.68h-86A14.34,14.34,0,0,1,325,742.34V556a14.33,14.33,0,0,1,14.33-14.33h86A14.33,14.33,0,0,1,439.67,556V742.34A14.34,14.34,0,0,1,425.33,756.68ZM353.67,728H411V570.34H353.67Z"/><path class="a4499790-54c3-4582-a12f-89e576ba6434" d="M558.84,433.13,540,419.44l-18.84,13.69c-11.2,8.15-26.34-2.85-22.06-16L506.29,395l-18.83-13.69c-11.2-8.14-5.42-25.93,8.43-25.93h23.28l7.2-22.14c4.27-13.17,23-13.17,27.26,0l7.2,22.14h23.28c13.85,0,19.63,17.79,8.43,25.93L573.71,395l7.19,22.15C585.2,430.35,569.94,441.21,558.84,433.13Z"/></svg>