<svg id="ec8a968a-3e94-45c3-966b-5279e1a616c7" data-name="Capa 1" xmlns="http://www.w3.org/2000/svg" xmlns:xlink="http://www.w3.org/1999/xlink" viewBox="0 0 1080 1080"><defs><style>.ff9a8ba4-bbb6-4469-bd22-b37b66921547{fill:none;}.f1255036-e84b-4e29-a146-80781d2063f0{opacity:0.76;}.b6bd3be3-0815-45b7-a3e9-d2052a1de33e{clip-path:url(#ffa208d7-2ff7-4dfc-b56c-3bed93aa9b59);}.fba3c924-6ca9-485c-b029-0d0aefcc9617{opacity:0.7;}.f4b8e725-be3a-47fe-8690-a43e5b142f7f{fill:url(#a7bf9479-0e95-4705-b2d0-478d613ea482);}.e35cf883-0739-45ca-86cb-1a9d0e18fe60{fill:#f3d13b;}</style><clipPath id="ffa208d7-2ff7-4dfc-b56c-3bed93aa9b59"><rect class="ff9a8ba4-bbb6-4469-bd22-b37b66921547" x="179" y="183.94" width="722" height="712.11"/></clipPath><linearGradient id="a7bf9479-0e95-4705-b2d0-478d613ea482" x1="360.56" y1="886.6" x2="749.54" y2="212.87" gradientUnits="userSpaceOnUse"><stop offset="0" stop-color="#fff" stop-opacity="0.4"/><stop offset="0.2" stop-color="#fdf9e4" stop-opacity="0.45"/><stop offset="0.57" stop-color="#f9e89e" stop-opacity="0.6"/><stop offset="1" stop-color="#f3d13b" stop-opacity="0.8"/></linearGradient></defs><title>iconos s2r</title><g class="f1255036-e84b-4e29-a146-80781d2063f0"><g class="b6bd3be3-0815-45b7-a3e9-d2052a1de33e"><g class="fba3c924-6ca9-485c-b029-0d0aefcc9617"><g class="b6bd3be3-0815-45b7-a3e9-d2052a1de33e"><path class="f4b8e725-be3a-47fe-8690-a43e5b142f7f" d="M898.89,529c-7.71,67.68-38.27,146.46-99.81,182.85-93,55-84.83,138.94-266.6,176.21A374.2,374.2,0,0,1,451.84,896a312.41,312.41,0,0,1-39.6-3.06C296.54,876.55,218.4,796.5,189.45,699.6,151.35,572.16,226,488.31,275.53,437.78s85.28-207.51,263.69-245.55A362.83,362.83,0,0,1,622.09,184c63.54,1.29,132.92,21.87,181,65.21q5.42,4.89,10.56,10.11c66.93,68.13,95.7,177.4,85.19,269.67"/></g></g></g></g><path d="M696.31,549.86V404.35a19.17,19.17,0,0,0-19.18-19.18H370.22A19.17,19.17,0,0,0,351,404.35V788a19.17,19.17,0,0,0,19.18,19.18H677.13A19.17,19.17,0,0,0,696.31,788V549.86ZM667,683.24V777H379V413H667V683.24Z"/><path class="e35cf883-0739-45ca-86cb-1a9d0e18fe60" d="M523.67,677c-36.58,0-41.92-34.49-95.91-34.49-10.6,0-19.18,7.71-19.18,17.25S417.16,677,427.76,677c36.58,0,41.92,34.49,95.91,34.49,10.6,0,19.18-7.71,19.18-17.24S534.27,677,523.67,677Z"/><path class="e35cf883-0739-45ca-86cb-1a9d0e18fe60" d="M427.76,504.49h95.91c10.6,0,19.18-7.71,19.18-17.24S534.27,470,523.67,470H427.76c-10.6,0-19.18,7.71-19.18,17.25S417.16,504.49,427.76,504.49Z"/><path class="e35cf883-0739-45ca-86cb-1a9d0e18fe60" d="M427.76,573.48H562c10.6,0,19.18-7.72,19.18-17.25S572.64,539,562,539H427.76c-10.6,0-19.18,7.72-19.18,17.25S417.16,573.48,427.76,573.48Z"/><path class="e35cf883-0739-45ca-86cb-1a9d0e18fe60" d="M703.55,599.74l-13.16,13.15a0,0,0,0,1-.08,0l-26.15-25.34a.06.06,0,0,1,0-.09l14-14a18.26,18.26,0,0,1,26.4.6C711.19,581.38,710.52,592.76,703.55,599.74ZM692,611.26l-83.57,83.58h0l-31.47,8.77a2.43,2.43,0,0,1-3-3l8.63-31.6,0,0,83.26-83.26a.06.06,0,0,1,.09,0L692,611.17A.06.06,0,0,1,692,611.26Z"/></svg>