<svg id="bf859b5b-8866-4d71-a40c-c32acd3ab0a0" data-name="Capa 1" xmlns="http://www.w3.org/2000/svg" xmlns:xlink="http://www.w3.org/1999/xlink" viewBox="0 0 1080 1080"><defs><style>.b3e09e8e-ba4e-4c41-bac8-5f0a34b7043c{fill:none;}.bb2a03ca-65a6-49a2-b465-fe59efa52b24{opacity:0.76;}.b55f6eac-3c49-4b06-8132-22c2d31a96cb{clip-path:url(#a66b336f-9683-420d-83a3-1b106cb8ade9);}.a0f6f825-e1eb-476b-99c1-e6cd91d0c165{opacity:0.7;}.be2a3d8f-c7f9-4cf7-87cb-4d96e9ba2811{fill:url(#f2904783-84e2-429c-adc2-75efd957382c);}.a176e57a-2b6f-49da-ac2d-37e874c0d2bf{fill:#0074bf;stroke:#0074bf;stroke-miterlimit:10;stroke-width:10px;}</style><clipPath id="a66b336f-9683-420d-83a3-1b106cb8ade9"><rect class="b3e09e8e-ba4e-4c41-bac8-5f0a34b7043c" x="179" y="183.94" width="722" height="712.11"/></clipPath><linearGradient id="f2904783-84e2-429c-adc2-75efd957382c" x1="360.56" y1="886.6" x2="749.54" y2="212.87" gradientUnits="userSpaceOnUse"><stop offset="0" stop-color="#fff" stop-opacity="0.4"/><stop offset="0.19" stop-color="#e0eef7" stop-opacity="0.45"/><stop offset="0.52" stop-color="#8dc1e2" stop-opacity="0.58"/><stop offset="0.98" stop-color="#0778c1" stop-opacity="0.79"/><stop offset="1" stop-color="#0074bf" stop-opacity="0.8"/></linearGradient></defs><title>iconos s2r</title><g class="bb2a03ca-65a6-49a2-b465-fe59efa52b24"><g class="b55f6eac-3c49-4b06-8132-22c2d31a96cb"><g class="a0f6f825-e1eb-476b-99c1-e6cd91d0c165"><g class="b55f6eac-3c49-4b06-8132-22c2d31a96cb"><path class="be2a3d8f-c7f9-4cf7-87cb-4d96e9ba2811" d="M898.89,529c-7.71,67.68-38.27,146.46-99.81,182.85-93,55-84.83,138.94-266.6,176.21A374.2,374.2,0,0,1,451.84,896a312.41,312.41,0,0,1-39.6-3.06C296.54,876.55,218.4,796.5,189.45,699.6,151.35,572.16,226,488.31,275.53,437.78s85.28-207.51,263.69-245.55A362.83,362.83,0,0,1,622.09,184c63.54,1.29,132.92,21.87,181,65.21q5.42,4.89,10.56,10.11c66.93,68.13,95.7,177.4,85.19,269.67"/></g></g></g></g><path class="a176e57a-2b6f-49da-ac2d-37e874c0d2bf" d="M495.52,712.46a8,8,0,0,1-8,8H392a27.13,27.13,0,0,1-27.1-27.1V626.83l-16.77,21.26a8,8,0,0,1-12.56-9.9l31.05-39.38a8,8,0,0,1,11.24-1.33,7.91,7.91,0,0,1,1.32,1.33l31.06,39.38a8,8,0,1,1-12.43,10.07,1.09,1.09,0,0,1-.13-.17l-16.78-21.26v66.53A11.12,11.12,0,0,0,392,704.46h95.55a8,8,0,0,1,8,8Zm94.59-311.18h95.56a11.11,11.11,0,0,1,11.1,11.1v66.53L680,457.64a8,8,0,0,0-12.56,9.91l31.06,39.38a8,8,0,0,0,12.56,0l31.05-39.38a8,8,0,0,0-12.56-9.91h0l-16.77,21.27V412.38a27.13,27.13,0,0,0-27.1-27.1H590.11a8,8,0,0,0,0,16Z"/><path d="M593.7,692.14l4.41-4.41V801.94A15.06,15.06,0,0,0,613.17,817H793.83a15.06,15.06,0,0,0,15.06-15.06V687.73l4.41,4.41a15.05,15.05,0,0,0,21.29-21.29L714.14,550.41a15,15,0,0,0-21.28,0L572.41,670.85a15.05,15.05,0,0,0,21.29,21.29ZM703.5,574.66l81,83v135H622.46v-135Z"/><path d="M271.67,410.89l4.41-4.41V520.69a15.05,15.05,0,0,0,15.06,15.06H471.8a15.06,15.06,0,0,0,15.06-15.06V406.48l4.41,4.41a15.05,15.05,0,0,0,21.29-21.29L392.11,269.16a15.05,15.05,0,0,0-21.29,0L250.38,389.6a15.05,15.05,0,1,0,21.29,21.29Zm109.8-117.48,81,83v135H300.43v-135Z"/></svg>