<svg id="b26397e8-5d1c-4d2f-b77d-3fc39e1d1efa" data-name="Capa 1" xmlns="http://www.w3.org/2000/svg" xmlns:xlink="http://www.w3.org/1999/xlink" viewBox="0 0 1080 1080"><defs><style>.aa8a32e3-f331-433e-abd8-18bbbc4b153e{fill:none;}.bd616fb6-96bd-4217-b16b-0cebf972c7f3{opacity:0.76;}.accf71d4-bc22-4986-8723-0c5a0b3584ea{clip-path:url(#b4a78684-0eca-485d-97c7-12fe58bc2cdf);}.a9f5820c-dfde-4747-97c0-18a3f7679e36{opacity:0.7;}.a91d138a-e3b8-474d-94fa-9b30aae4fd40{fill:url(#fe5b22cd-0d92-4e00-9dc7-1a43f0336926);}.ace81dd0-d8ec-4cf6-8ce4-6af39909ae27{fill:#5ad3b2;}</style><clipPath id="b4a78684-0eca-485d-97c7-12fe58bc2cdf"><rect class="aa8a32e3-f331-433e-abd8-18bbbc4b153e" x="179" y="183.94" width="722" height="712.11"/></clipPath><linearGradient id="fe5b22cd-0d92-4e00-9dc7-1a43f0336926" x1="360.56" y1="886.6" x2="749.54" y2="212.87" gradientUnits="userSpaceOnUse"><stop offset="0" stop-color="#fff" stop-opacity="0.4"/><stop offset="0.26" stop-color="#e0f7f1" stop-opacity="0.47"/><stop offset="0.74" stop-color="#8ee1ca" stop-opacity="0.67"/><stop offset="1" stop-color="#5ad3b2" stop-opacity="0.8"/></linearGradient></defs><title>iconos s2r</title><g class="bd616fb6-96bd-4217-b16b-0cebf972c7f3"><g class="accf71d4-bc22-4986-8723-0c5a0b3584ea"><g class="a9f5820c-dfde-4747-97c0-18a3f7679e36"><g class="accf71d4-bc22-4986-8723-0c5a0b3584ea"><path class="a91d138a-e3b8-474d-94fa-9b30aae4fd40" d="M898.89,529c-7.71,67.68-38.27,146.46-99.81,182.85-93,55-84.83,138.94-266.6,176.21A374.2,374.2,0,0,1,451.84,896a312.41,312.41,0,0,1-39.6-3.06C296.54,876.55,218.4,796.5,189.45,699.6,151.35,572.16,226,488.31,275.53,437.78s85.28-207.51,263.69-245.55A362.83,362.83,0,0,1,622.09,184c63.54,1.29,132.92,21.87,181,65.21q5.42,4.89,10.56,10.11c66.93,68.13,95.7,177.4,85.19,269.67"/></g></g></g></g><path d="M745.84,642.67l-76.47-29.41a184.26,184.26,0,0,0,28.2-98.41c0-102.72-83.57-186.29-186.29-186.29S325,412.13,325,514.85s83.56,186.28,186.28,186.28A186.57,186.57,0,0,0,617.63,667.8l28.64,74.46c4.81,12.54,22.72,12.13,27-.62l18-54,54-18C757.93,665.42,758.38,647.48,745.84,642.67Zm-234.56,29.8c-86.91,0-157.62-70.71-157.62-157.62s70.71-157.63,157.62-157.63,157.63,70.71,157.63,157.63a155.92,155.92,0,0,1-26.86,87.9L614.12,592a14.34,14.34,0,0,0-18.51,18.53L606.92,640A157.69,157.69,0,0,1,511.28,672.47Zm164.09-9.75a14.3,14.3,0,0,0-9.06,9l-7.63,22.91-24.75-64.34,64.34,24.74Z"/><path class="ace81dd0-d8ec-4cf6-8ce4-6af39909ae27" d="M490,430.58v1.06a52.54,52.54,0,0,0,10.5,104h21a10.51,10.51,0,0,1,0,21H469a21,21,0,0,0,0,42h21a21,21,0,0,0,42,0v-1.06a52.54,52.54,0,0,0-10.51-104h-21a10.51,10.51,0,0,1,0-21h52.54a21,21,0,1,0,0-42H532a21,21,0,1,0-42,0Z"/></svg>