<svg id="e0968167-f917-43a6-9312-c84737bad643" data-name="Capa 1" xmlns="http://www.w3.org/2000/svg" xmlns:xlink="http://www.w3.org/1999/xlink" viewBox="0 0 1080 1080"><defs><style>.b7281472-071f-4bcf-88a5-c3c669a49aad{fill:url(#f6175659-69bd-4185-99e7-03a19d595f4e);}.ab29989b-ac51-4681-87bf-0d95e63c8204{fill:none;}.a910e6d9-c7fa-41df-8909-4f469fa1a2fe{opacity:0.76;}.accfc9bf-ea3b-4941-b3cf-b1d53e15f908{clip-path:url(#adec345e-eb77-48f7-9e00-f18fb409a829);}.e25691a0-edc2-469c-8b0b-62624e593a12{clip-path:url(#f3436115-570a-4b2f-9973-d920bd002217);}.b709ec40-6047-46d6-ae9d-cbd32e4bcfe6{mask:url(#a6d560a2-52ea-4395-b796-7e841342050e);}.fcc21dbf-6c41-420c-a8a6-f4157b0409f4{fill:url(#b0cf9820-8bdb-48d9-b326-033dbe6fa381);}.e84a2e7b-6ace-4571-9f72-fe9e25822299{fill:#f3d13b;}</style><linearGradient id="f6175659-69bd-4185-99e7-03a19d595f4e" x1="1144.58" y1="942.02" x2="1145.86" y2="942.02" gradientTransform="matrix(587.6, 0, 0, -587.6, -672407.67, 554108.28)" gradientUnits="userSpaceOnUse"><stop offset="0"/><stop offset="0.08" stop-color="#080808"/><stop offset="0.2" stop-color="#1e1e1e"/><stop offset="0.35" stop-color="#424242"/><stop offset="0.53" stop-color="#737373"/><stop offset="0.71" stop-color="#b2b2b2"/><stop offset="0.79" stop-color="#ccc"/><stop offset="1" stop-color="#ccc"/></linearGradient><clipPath id="adec345e-eb77-48f7-9e00-f18fb409a829"><rect class="ab29989b-ac51-4681-87bf-0d95e63c8204" x="197.12" y="169.53" width="722" height="712.11"/></clipPath><clipPath id="f3436115-570a-4b2f-9973-d920bd002217"><path class="ab29989b-ac51-4681-87bf-0d95e63c8204" d="M917,514.6c-7.71,67.68-38.27,146.46-99.81,182.85-93,55-84.82,138.94-266.6,176.21a374.12,374.12,0,0,1-80.63,8,312.57,312.57,0,0,1-39.61-3.06c-115.69-16.42-193.84-96.46-222.79-193.36-38.09-127.44,36.57-211.29,86.08-261.82s85.28-207.51,263.69-245.55a362.28,362.28,0,0,1,82.87-8.22c63.54,1.3,132.92,21.87,181,65.22q5.43,4.88,10.56,10.11c66.93,68.13,95.7,177.4,85.19,269.67"/></clipPath><mask id="a6d560a2-52ea-4395-b796-7e841342050e" x="-35.61" y="45.37" width="1092.23" height="1068.27" maskUnits="userSpaceOnUse"><rect class="b7281472-071f-4bcf-88a5-c3c669a49aad" x="56.6" y="142.04" width="907.79" height="874.92" transform="translate(-124.84 140.45) rotate(-13.98)"/></mask><linearGradient id="b0cf9820-8bdb-48d9-b326-033dbe6fa381" x1="1144.58" y1="942.02" x2="1145.86" y2="942.02" gradientTransform="matrix(587.6, 0, 0, -587.6, -672407.79, 554108.28)" gradientUnits="userSpaceOnUse"><stop offset="0" stop-color="#fff"/><stop offset="0" stop-color="#fff" stop-opacity="0.4"/><stop offset="0.18" stop-color="#fefbf3" stop-opacity="0.44"/><stop offset="0.45" stop-color="#fbf0d3" stop-opacity="0.53"/><stop offset="0.79" stop-color="#f6de9f" stop-opacity="0.69"/><stop offset="1" stop-color="#f3d179" stop-opacity="0.8"/></linearGradient></defs><title>iconos s2r</title><g class="a910e6d9-c7fa-41df-8909-4f469fa1a2fe"><g class="accfc9bf-ea3b-4941-b3cf-b1d53e15f908"><g class="e25691a0-edc2-469c-8b0b-62624e593a12"><g class="b709ec40-6047-46d6-ae9d-cbd32e4bcfe6"><rect class="fcc21dbf-6c41-420c-a8a6-f4157b0409f4" x="56.6" y="142.04" width="907.79" height="874.92" transform="translate(-124.84 140.45) rotate(-13.98)"/></g></g></g></g><path class="e84a2e7b-6ace-4571-9f72-fe9e25822299" d="M731.36,597.41H674a19.14,19.14,0,0,0,0,38.27h11.22l-76.55,76.55h-260a19.14,19.14,0,1,0,0,38.27H616.55a19.13,19.13,0,0,0,13.53-5.61l82.15-82.15V674a19.14,19.14,0,1,0,38.27,0v-57.4A19.21,19.21,0,0,0,731.36,597.41Z"/><path d="M362.17,515.26l5.6-5.61V654.82A19.13,19.13,0,0,0,386.91,674H616.55a19.12,19.12,0,0,0,19.13-19.13V509.65l5.61,5.61a19.13,19.13,0,0,0,27.06-27.06L515.26,335.11a19.12,19.12,0,0,0-27.06,0L335.11,488.2a19.13,19.13,0,1,0,27.06,27.06ZM501.73,365.94l103,105.44V643h-206V471.38Z"/></svg>