<svg id="a00962fc-bfe3-490b-98a7-c928fd9b302e" data-name="Capa 1" xmlns="http://www.w3.org/2000/svg" xmlns:xlink="http://www.w3.org/1999/xlink" viewBox="0 0 1080 1080"><defs><style>.a28d65ec-5c2b-442a-a8c5-3ffb22b57281{fill:url(#b8934de8-af80-4a1a-8cb6-39873b883088);}.a87e8695-5371-4456-90b8-abee7bba7f35{fill:url(#a64a3d62-7566-4f75-999e-61589f2dac19);}.ea01bb92-6bfe-44c2-adae-3504422f432b{fill:none;}.eed10d75-fc8b-47be-9d32-cca593eb6f4b{fill:url(#ae52529b-e10e-45b4-9cd1-b45bc9eefd8f);}.a3bc1b8d-2c3a-4a4a-9b08-631faad9183d{opacity:0.76;}.b881921a-789f-4142-ac07-e1564756598c{clip-path:url(#a04bcf53-79b4-4fe3-822f-e6977b158d16);}.ea0608ed-fd61-4734-bcf8-07c82b873771{clip-path:url(#ea412a76-1e72-4bee-8194-aac087e1c838);}.fa75251e-2583-433c-88eb-cab4b4a5cbe1{mask:url(#a2c5e451-594c-4c33-a85f-bc226f98648a);}.e42beaf5-2574-4890-aecc-fcc76f21a89e{fill:url(#a731f0e2-28d8-4b7e-b9d4-4923fddff8f7);}.b82fb316-4dfe-4ecb-a987-ae0cf1323b98{opacity:0.7;}.a51f2c50-404b-431a-ac39-f0c8560e569f{clip-path:url(#ada54365-b6f1-4c8e-8588-5f54f8bb89e1);}.e1a16404-e260-4a8e-8eab-874c8121dede{fill:url(#a5bcd91a-db93-4108-8688-53c68317bbf0);}.b551387f-19cc-47c4-9f00-e2a8daa12545{fill:#37bac4;}</style><linearGradient id="b8934de8-af80-4a1a-8cb6-39873b883088" x1="5006.24" y1="943.67" x2="5007.52" y2="943.67" gradientTransform="matrix(587.6, 0, 0, -587.6, -2941486.14, 555036.55)" gradientUnits="userSpaceOnUse"><stop offset="0"/><stop offset="0.08" stop-color="#080808"/><stop offset="0.2" stop-color="#1e1e1e"/><stop offset="0.35" stop-color="#424242"/><stop offset="0.53" stop-color="#737373"/><stop offset="0.71" stop-color="#b2b2b2"/><stop offset="0.79" stop-color="#ccc"/><stop offset="1" stop-color="#ccc"/></linearGradient><linearGradient id="a64a3d62-7566-4f75-999e-61589f2dac19" x1="5006.24" y1="943.67" x2="5007.52" y2="943.67" gradientTransform="matrix(587.6, 0, 0, -587.6, -2941486.14, 555036.55)" gradientUnits="userSpaceOnUse"><stop offset="0"/><stop offset="0.1" stop-color="#080808"/><stop offset="0.26" stop-color="#1e1e1e"/><stop offset="0.45" stop-color="#424242"/><stop offset="0.67" stop-color="#737373"/><stop offset="0.91" stop-color="#b2b2b2"/><stop offset="1" stop-color="#ccc"/></linearGradient><linearGradient id="ae52529b-e10e-45b4-9cd1-b45bc9eefd8f" x1="360.56" y1="886.6" x2="749.54" y2="212.87" gradientUnits="userSpaceOnUse"><stop offset="0" stop-color="#fff" stop-opacity="0.4"/><stop offset="0.19" stop-color="#f4fcfc" stop-opacity="0.4"/><stop offset="0.39" stop-color="#d4f4f4" stop-opacity="0.4"/><stop offset="0.6" stop-color="#9fe5e6" stop-opacity="0.4"/><stop offset="0.81" stop-color="#54d1d3" stop-opacity="0.4"/><stop offset="1" stop-color="#00bbbd" stop-opacity="0.4"/></linearGradient><clipPath id="a04bcf53-79b4-4fe3-822f-e6977b158d16"><rect class="ea01bb92-6bfe-44c2-adae-3504422f432b" x="179" y="183.94" width="722" height="712.11"/></clipPath><clipPath id="ea412a76-1e72-4bee-8194-aac087e1c838"><path class="ea01bb92-6bfe-44c2-adae-3504422f432b" d="M898.89,529c-7.71,67.68-38.27,146.46-99.81,182.85-93,55-84.83,138.94-266.6,176.21A374.2,374.2,0,0,1,451.84,896a312.41,312.41,0,0,1-39.6-3.06C296.54,876.55,218.4,796.5,189.45,699.6,151.35,572.16,226,488.31,275.53,437.78s85.28-207.51,263.69-245.55A362.83,362.83,0,0,1,622.09,184c63.54,1.29,132.92,21.87,181,65.21q5.42,4.89,10.56,10.11c66.93,68.13,95.7,177.4,85.19,269.67"/></clipPath><mask id="a2c5e451-594c-4c33-a85f-bc226f98648a" x="-15.74" y="5.78" width="1092.23" height="1068.27" maskUnits="userSpaceOnUse"><rect class="a28d65ec-5c2b-442a-a8c5-3ffb22b57281" x="76.48" y="102.45" width="907.79" height="874.92" transform="translate(-114.69 144.07) rotate(-13.98)"/></mask><linearGradient id="a731f0e2-28d8-4b7e-b9d4-4923fddff8f7" x1="5006.24" y1="943.67" x2="5007.52" y2="943.67" gradientTransform="matrix(587.6, 0, 0, -587.6, -2941486.49, 555036.33)" gradientUnits="userSpaceOnUse"><stop offset="0" stop-color="#fff"/><stop offset="0.2" stop-color="#f7fbfd"/><stop offset="0.52" stop-color="#e1f2f8"/><stop offset="0.79" stop-color="#c9e7f3"/><stop offset="1" stop-color="#c9e7f3"/></linearGradient><clipPath id="ada54365-b6f1-4c8e-8588-5f54f8bb89e1"><path class="eed10d75-fc8b-47be-9d32-cca593eb6f4b" d="M898.89,529c-7.71,67.68-38.27,146.46-99.81,182.85-93,55-84.83,138.94-266.6,176.21A374.2,374.2,0,0,1,451.84,896a312.41,312.41,0,0,1-39.6-3.06C296.54,876.55,218.4,796.5,189.45,699.6,151.35,572.16,226,488.31,275.53,437.78s85.28-207.51,263.69-245.55A362.83,362.83,0,0,1,622.09,184c63.54,1.29,132.92,21.87,181,65.21q5.42,4.89,10.56,10.11c66.93,68.13,95.7,177.4,85.19,269.67"/></clipPath><linearGradient id="a5bcd91a-db93-4108-8688-53c68317bbf0" x1="215.39" y1="1085.49" x2="845.36" y2="-5.67" gradientTransform="translate(146.1 -112.11) rotate(13.98)" xlink:href="#ae52529b-e10e-45b4-9cd1-b45bc9eefd8f"/></defs><title>iconos s2r</title><g class="a3bc1b8d-2c3a-4a4a-9b08-631faad9183d"><g class="b881921a-789f-4142-ac07-e1564756598c"><g class="ea0608ed-fd61-4734-bcf8-07c82b873771"><g class="fa75251e-2583-433c-88eb-cab4b4a5cbe1"><rect class="e42beaf5-2574-4890-aecc-fcc76f21a89e" x="76.48" y="102.45" width="907.79" height="874.92" transform="translate(-114.69 144.07) rotate(-13.98)"/></g></g><g class="b82fb316-4dfe-4ecb-a987-ae0cf1323b98"><g class="b881921a-789f-4142-ac07-e1564756598c"><path class="eed10d75-fc8b-47be-9d32-cca593eb6f4b" d="M898.89,529c-7.71,67.68-38.27,146.46-99.81,182.85-93,55-84.83,138.94-266.6,176.21A374.2,374.2,0,0,1,451.84,896a312.41,312.41,0,0,1-39.6-3.06C296.54,876.55,218.4,796.5,189.45,699.6,151.35,572.16,226,488.31,275.53,437.78s85.28-207.51,263.69-245.55A362.83,362.83,0,0,1,622.09,184c63.54,1.29,132.92,21.87,181,65.21q5.42,4.89,10.56,10.11c66.93,68.13,95.7,177.4,85.19,269.67"/><g class="a51f2c50-404b-431a-ac39-f0c8560e569f"><g class="fa75251e-2583-433c-88eb-cab4b4a5cbe1"><rect class="e1a16404-e260-4a8e-8eab-874c8121dede" x="76.48" y="102.45" width="907.79" height="874.92" transform="translate(-114.69 144.07) rotate(-13.98)"/></g></g></g></g></g></g><path d="M765,525.14,554.86,315a21,21,0,0,0-29.72,0L315,525.14a21,21,0,0,0,29.72,29.72l27.17-27.17V750.15a21,21,0,0,0,21,21H687.11a21,21,0,0,0,21-21V527.69l27.18,27.17A21,21,0,0,0,765,525.14ZM671.59,739.21H408.41V485.66L540,359.57,671.59,485.66Z"/><path class="b551387f-19cc-47c4-9f00-e2a8daa12545" d="M561,547a21,21,0,0,0-21-21H519a21,21,0,0,0,0,42v63a21,21,0,0,0,0,42h42a21,21,0,0,0,0-42Z"/><circle class="b551387f-19cc-47c4-9f00-e2a8daa12545" cx="540" cy="484" r="21"/></svg>