<svg id="fa919b1f-5f5a-434e-914e-bac9c3c53384" data-name="Capa 1" xmlns="http://www.w3.org/2000/svg" xmlns:xlink="http://www.w3.org/1999/xlink" viewBox="0 0 1080 1080"><defs><style>.e3cfa469-2e87-4a23-b66e-e9ce4659d224{fill:url(#a2eb6d07-d238-46aa-b83b-3b1ad40281b8);}.f8f291f6-b182-4cad-960f-f9311d11a32c{fill:none;}.b4b7d2da-523b-4e53-b341-2c9cd9580f82{opacity:0.76;}.f5e6879d-9b70-419c-9801-826173833029{clip-path:url(#bc96dc8f-e8d6-4618-88db-e5311160c504);}.ba103874-3048-473c-b2a9-db38b0331edf{clip-path:url(#acadeabf-0426-4026-9009-0e3ff6f4532d);}.b2c42f81-eb62-44e6-844a-c58406a7e6e0{mask:url(#ae00dbd7-4331-4701-a11f-f8d4c38c2578);}.ad3b3707-561b-4800-be5e-16102daf81ca{fill:url(#fcd16f2a-3164-4d8b-95f6-efad409db97a);}.e26f1ddc-1dc4-4337-983e-36101a77e71a{fill:#231f20;}.b0065c4a-accd-4681-9e29-28dbe884eb85{fill:#00b68d;}</style><linearGradient id="a2eb6d07-d238-46aa-b83b-3b1ad40281b8" x1="-189.25" y1="941.46" x2="-187.97" y2="941.46" gradientTransform="matrix(587.6, 0, 0, -587.6, 111327.66, 553790.4)" gradientUnits="userSpaceOnUse"><stop offset="0"/><stop offset="0.08" stop-color="#080808"/><stop offset="0.2" stop-color="#1e1e1e"/><stop offset="0.35" stop-color="#424242"/><stop offset="0.53" stop-color="#737373"/><stop offset="0.71" stop-color="#b2b2b2"/><stop offset="0.79" stop-color="#ccc"/><stop offset="1" stop-color="#ccc"/></linearGradient><clipPath id="bc96dc8f-e8d6-4618-88db-e5311160c504"><rect class="f8f291f6-b182-4cad-960f-f9311d11a32c" x="179" y="183.94" width="722" height="712.11"/></clipPath><clipPath id="acadeabf-0426-4026-9009-0e3ff6f4532d"><path class="f8f291f6-b182-4cad-960f-f9311d11a32c" d="M898.89,529c-7.71,67.68-38.27,146.46-99.81,182.85-93,55-84.83,138.94-266.6,176.21A374.2,374.2,0,0,1,451.84,896a312.41,312.41,0,0,1-39.6-3.06C296.54,876.55,218.4,796.5,189.45,699.6,151.35,572.16,226,488.31,275.53,437.78s85.28-207.51,263.69-245.55A362.83,362.83,0,0,1,622.09,184c63.54,1.29,132.92,21.87,181,65.21q5.42,4.89,10.56,10.11c66.93,68.13,95.7,177.4,85.19,269.67"/></clipPath><mask id="ae00dbd7-4331-4701-a11f-f8d4c38c2578" x="-53.74" y="59.78" width="1092.23" height="1068.27" maskUnits="userSpaceOnUse"><rect class="e3cfa469-2e87-4a23-b66e-e9ce4659d224" x="38.48" y="156.45" width="907.79" height="874.92" transform="translate(-128.86 136.5) rotate(-13.98)"/></mask><linearGradient id="fcd16f2a-3164-4d8b-95f6-efad409db97a" x1="-189.25" y1="941.46" x2="-187.97" y2="941.46" gradientTransform="matrix(587.6, 0, 0, -587.6, 111327.62, 553790.47)" gradientUnits="userSpaceOnUse"><stop offset="0" stop-color="#fff"/><stop offset="0" stop-color="#fff" stop-opacity="0.4"/><stop offset="0.16" stop-color="#ebf9f6" stop-opacity="0.43"/><stop offset="0.42" stop-color="#b3e9dd" stop-opacity="0.52"/><stop offset="0.74" stop-color="#59cfb5" stop-opacity="0.66"/><stop offset="1" stop-color="#00b68d" stop-opacity="0.8"/></linearGradient></defs><title>iconos s2r</title><g class="b4b7d2da-523b-4e53-b341-2c9cd9580f82"><g class="f5e6879d-9b70-419c-9801-826173833029"><g class="ba103874-3048-473c-b2a9-db38b0331edf"><g class="b2c42f81-eb62-44e6-844a-c58406a7e6e0"><rect class="ad3b3707-561b-4800-be5e-16102daf81ca" x="38.48" y="156.45" width="907.79" height="874.92" transform="translate(-128.86 136.5) rotate(-13.98)"/></g></g></g></g><path class="e26f1ddc-1dc4-4337-983e-36101a77e71a" d="M633.77,570.89a12.5,12.5,0,0,0-14.64,9.91h0A124,124,0,0,1,497.49,681.24a122.11,122.11,0,0,1-60.4-15.86,12.45,12.45,0,0,0-9.23-1.26l-47.69,12,14-42a12.5,12.5,0,0,0-1.34-10.69,121.93,121.93,0,0,1-19.16-66,124.25,124.25,0,0,1,107-122.73,12.5,12.5,0,1,0-3-24.81l-.34,0a149.35,149.35,0,0,0-128.64,147.5,147.11,147.11,0,0,0,19.94,74.3l-19.3,58.12a12.48,12.48,0,0,0,7.92,15.8,12.27,12.27,0,0,0,3.94.64,12,12,0,0,0,3-.37l65-16.31a147.49,147.49,0,0,0,68.29,16.68,149,149,0,0,0,146.2-120.72A12.5,12.5,0,0,0,633.77,570.89ZM734,477.08A113.52,113.52,0,0,0,748.63,421a114.94,114.94,0,1,0-63.17,102.45l47.62,11.94A12.51,12.51,0,0,0,748,519.35Zm-25.54,2.42,8.68,26.13-30.25-7.58a12.39,12.39,0,0,0-9.23,1.26,88.64,88.64,0,0,1-43.76,11.49A89.78,89.78,0,1,1,723.63,421a88.33,88.33,0,0,1-13.88,47.79A12.5,12.5,0,0,0,708.41,479.5Z"/><path class="b0065c4a-accd-4681-9e29-28dbe884eb85" d="M681.55,412.05l-44.38-44.38a4.43,4.43,0,0,0-6.28,0l-44.38,44.38a4.44,4.44,0,0,0,6.28,6.27l5.74-5.74v47A4.44,4.44,0,0,0,603,464h62.12a4.44,4.44,0,0,0,4.44-4.44v-47l5.74,5.74a4.44,4.44,0,0,0,6.28-6.27Z"/><path class="b0065c4a-accd-4681-9e29-28dbe884eb85" d="M474.14,504.51v.76a37.68,37.68,0,0,0,7.54,74.59h15.07a7.54,7.54,0,1,1,0,15.07H459.07a15.08,15.08,0,0,0,0,30.15h15.07a15.08,15.08,0,0,0,30.15,0v-.77a37.68,37.68,0,0,0-7.54-74.59H481.68a7.54,7.54,0,1,1,0-15.07h37.68a15.07,15.07,0,0,0,0-30.14H504.29a15.08,15.08,0,1,0-30.15,0Z"/></svg>