<svg id="bedb4d4b-8206-4efd-8bd7-6cb0677bab85" data-name="Capa 1" xmlns="http://www.w3.org/2000/svg" xmlns:xlink="http://www.w3.org/1999/xlink" viewBox="0 0 1080 1080"><defs><style>.e5290ad2-2827-410b-9b12-1e60b575af9d{fill:none;}.f12f1b1c-6056-465c-b0f4-f8f0edc3ddc2{opacity:0.76;}.e42b67ed-9270-4fdb-a0f8-8cf1398cccec{clip-path:url(#aa1580a2-d03f-4b14-bab6-4f56c3b88349);}.a12ace39-8f89-45de-8b49-f9e130ab0bec{opacity:0.7;}.fcd23155-4301-4ffb-8f80-d5dcd248855a{fill:url(#bd819472-2c83-46bf-b9ce-8ad52b6b11a3);}.a2a8b277-2a1d-4d6d-9638-f1823d6d277d{fill:#f3d13b;}</style><clipPath id="aa1580a2-d03f-4b14-bab6-4f56c3b88349"><rect class="e5290ad2-2827-410b-9b12-1e60b575af9d" x="179" y="183.94" width="722" height="712.11"/></clipPath><linearGradient id="bd819472-2c83-46bf-b9ce-8ad52b6b11a3" x1="360.56" y1="886.6" x2="749.54" y2="212.87" gradientUnits="userSpaceOnUse"><stop offset="0" stop-color="#fff" stop-opacity="0.4"/><stop offset="0.2" stop-color="#fdf9e4" stop-opacity="0.45"/><stop offset="0.57" stop-color="#f9e89e" stop-opacity="0.6"/><stop offset="1" stop-color="#f3d13b" stop-opacity="0.8"/></linearGradient></defs><title>iconos s2r</title><g class="f12f1b1c-6056-465c-b0f4-f8f0edc3ddc2"><g class="e42b67ed-9270-4fdb-a0f8-8cf1398cccec"><g class="a12ace39-8f89-45de-8b49-f9e130ab0bec"><g class="e42b67ed-9270-4fdb-a0f8-8cf1398cccec"><path class="fcd23155-4301-4ffb-8f80-d5dcd248855a" d="M898.89,529c-7.71,67.68-38.27,146.46-99.81,182.85-93,55-84.83,138.94-266.6,176.21A374.2,374.2,0,0,1,451.84,896a312.41,312.41,0,0,1-39.6-3.06C296.54,876.55,218.4,796.5,189.45,699.6,151.35,572.16,226,488.31,275.53,437.78s85.28-207.51,263.69-245.55A362.83,362.83,0,0,1,622.09,184c63.54,1.29,132.92,21.87,181,65.21q5.42,4.89,10.56,10.11c66.93,68.13,95.7,177.4,85.19,269.67"/></g></g></g></g><path class="a2a8b277-2a1d-4d6d-9638-f1823d6d277d" d="M553,397.66l-13-9.43-13,9.43c-7.72,5.61-18.15-2-15.2-11l5-15.27-13-9.42c-7.72-5.61-3.73-17.87,5.81-17.87h16l5-15.26c2.94-9.07,15.84-9.07,18.78,0l5,15.26h16a9.89,9.89,0,0,1,5.81,17.87l-13,9.42,5,15.27C571.14,395.74,560.63,403.22,553,397.66Z"/><path d="M400.82,641.93l5.61-5.6V781.49a19.13,19.13,0,0,0,19.14,19.14H655.2a19.13,19.13,0,0,0,19.14-19.14V636.33l5.6,5.6A19.13,19.13,0,0,0,707,614.87L553.91,461.78a19.14,19.14,0,0,0-27.06,0L373.76,614.87a19.13,19.13,0,1,0,27.06,27.06ZM540.38,492.61l103,105.44V769.68h-206V598.05Z"/><path class="a2a8b277-2a1d-4d6d-9638-f1823d6d277d" d="M656.37,475.6l-13-9.43-13,9.43c-7.72,5.61-18.14-2-15.2-11l5-15.27-13-9.42C599.47,434.25,603.45,422,613,422h16l5-15.26c3-9.07,15.84-9.07,18.79,0l5,15.26h16c9.54,0,13.52,12.26,5.8,17.87l-13,9.42,4.95,15.27C674.53,473.68,664,481.16,656.37,475.6Z"/><path class="a2a8b277-2a1d-4d6d-9638-f1823d6d277d" d="M450.37,475.6l-13-9.43-13,9.43c-7.72,5.61-18.14-2-15.2-11l5-15.27-13-9.42C393.47,434.25,397.45,422,407,422h16l5-15.26c2.95-9.07,15.84-9.07,18.79,0l5,15.26h16c9.54,0,13.52,12.26,5.8,17.87l-13,9.42,4.95,15.27C468.53,473.68,458,481.16,450.37,475.6Z"/><path class="a2a8b277-2a1d-4d6d-9638-f1823d6d277d" d="M737.37,568.6l-13-9.43-13,9.43c-7.72,5.61-18.14-2-15.2-11l5-15.27-13-9.42C680.47,527.25,684.45,515,694,515h16l5-15.26c3-9.07,15.84-9.07,18.79,0l5,15.26h16c9.54,0,13.52,12.26,5.8,17.87l-13,9.42,4.95,15.27C755.53,566.68,745,574.16,737.37,568.6Z"/><path class="a2a8b277-2a1d-4d6d-9638-f1823d6d277d" d="M369.37,568.6l-13-9.43-13,9.43c-7.72,5.61-18.14-2-15.2-11l5-15.27-13-9.42C312.47,527.25,316.45,515,326,515h16l5-15.26c2.95-9.07,15.84-9.07,18.79,0l5,15.26h16c9.54,0,13.52,12.26,5.8,17.87l-13,9.42,4.95,15.27C387.53,566.68,377,574.16,369.37,568.6Z"/></svg>