<svg id="e05e7b4d-2244-49fd-88b4-b29c598c6e0f" data-name="Capa 1" xmlns="http://www.w3.org/2000/svg" xmlns:xlink="http://www.w3.org/1999/xlink" viewBox="0 0 1080 1080"><defs><style>.e630e4ea-0c6b-4d36-8371-6b802469330a{fill:none;}.b78e23e5-d8dd-45cb-b6f2-1aeca9a9336c{opacity:0.76;}.afcb108e-1ab6-461f-a0e2-d872dbf5fbba{clip-path:url(#a66c32ce-558b-4c76-9c39-c1d3250db249);}.e264de76-c07b-42ec-b9b6-6c21abfc79d1{opacity:0.7;}.b13c5f68-a17d-469e-ad30-6bad7562bf1e{fill:url(#aa6e190d-19ae-42b9-97c4-4569bf606730);}.e3c74a91-d56b-48dc-bdaa-2fd40b6429d9{fill:#00b68d;}</style><clipPath id="a66c32ce-558b-4c76-9c39-c1d3250db249"><rect class="e630e4ea-0c6b-4d36-8371-6b802469330a" x="179" y="183.94" width="722" height="712.11"/></clipPath><linearGradient id="aa6e190d-19ae-42b9-97c4-4569bf606730" x1="360.56" y1="886.6" x2="749.54" y2="212.87" gradientUnits="userSpaceOnUse"><stop offset="0" stop-color="#fff" stop-opacity="0.4"/><stop offset="0.19" stop-color="#e0f6f1" stop-opacity="0.45"/><stop offset="0.52" stop-color="#8ddecc" stop-opacity="0.58"/><stop offset="0.98" stop-color="#07b890" stop-opacity="0.79"/><stop offset="1" stop-color="#00b68d" stop-opacity="0.8"/></linearGradient></defs><title>iconos s2r</title><g class="b78e23e5-d8dd-45cb-b6f2-1aeca9a9336c"><g class="afcb108e-1ab6-461f-a0e2-d872dbf5fbba"><g class="e264de76-c07b-42ec-b9b6-6c21abfc79d1"><g class="afcb108e-1ab6-461f-a0e2-d872dbf5fbba"><path class="b13c5f68-a17d-469e-ad30-6bad7562bf1e" d="M898.89,529c-7.71,67.68-38.27,146.46-99.81,182.85-93,55-84.83,138.94-266.6,176.21A374.2,374.2,0,0,1,451.84,896a312.41,312.41,0,0,1-39.6-3.06C296.54,876.55,218.4,796.5,189.45,699.6,151.35,572.16,226,488.31,275.53,437.78s85.28-207.51,263.69-245.55A362.83,362.83,0,0,1,622.09,184c63.54,1.29,132.92,21.87,181,65.21q5.42,4.89,10.56,10.11c66.93,68.13,95.7,177.4,85.19,269.67"/></g></g></g></g><path d="M725.78,284.56H354.22A23.21,23.21,0,0,0,331,307.78V772.22a23.21,23.21,0,0,0,23.22,23.22H725.78A23.21,23.21,0,0,0,749,772.22V307.78A23.21,23.21,0,0,0,725.78,284.56ZM717,764H363V316H717Z"/><path class="e3c74a91-d56b-48dc-bdaa-2fd40b6429d9" d="M423.89,563.22h92.89A23.22,23.22,0,0,0,540,540V493.56a23.21,23.21,0,0,0-6.8-16.42l-46.45-46.45a23.21,23.21,0,0,0-32.83,0l-46.45,46.45a23.21,23.21,0,0,0-6.8,16.42V540A23.22,23.22,0,0,0,423.89,563.22Zm-1.22-72,47.66-45.51L518,491.24V540H422.67Z"/><path d="M422.59,387.94H576.07c12.11,0,21.93-7.54,21.93-16.86s-9.82-16.86-21.93-16.86H422.59c-12.11,0-21.92,7.54-21.92,16.86S410.48,387.94,422.59,387.94Z"/><path d="M582.22,478.67c-12.53,0-22.69,7.54-22.69,16.86s10.16,16.86,22.69,16.86h22.7c12.53,0,22.69-7.54,22.69-16.86s-10.16-16.86-22.69-16.86Z"/><path d="M559.53,546.11c0,9.32,10.16,16.86,22.69,16.86h68.09c12.53,0,22.69-7.54,22.69-16.86s-10.16-16.86-22.69-16.86H582.22C569.69,529.25,559.53,536.79,559.53,546.11Z"/><path d="M582.22,675.42h22.7c12.53,0,22.69-7.55,22.69-16.86s-10.16-16.87-22.69-16.87h-22.7c-12.53,0-22.69,7.55-22.69,16.87S569.69,675.42,582.22,675.42Z"/><path d="M650.31,692.28H582.22c-12.53,0-22.69,7.54-22.69,16.86S569.69,726,582.22,726h68.09c12.53,0,22.69-7.54,22.69-16.86S662.84,692.28,650.31,692.28Z"/><path class="e3c74a91-d56b-48dc-bdaa-2fd40b6429d9" d="M424,725.61h92.89a23.22,23.22,0,0,0,23.22-23.22V655.94a23.25,23.25,0,0,0-6.8-16.42l-46.45-46.44a23.21,23.21,0,0,0-32.83,0l-46.45,46.44a23.25,23.25,0,0,0-6.8,16.42v46.45A23.22,23.22,0,0,0,424,725.61Zm-1.22-72,47.67-45.51,47.66,45.51v48.77H422.78Z"/></svg>