<svg id="a5030833-3e93-4bb2-9e52-afbfd927824c" data-name="Capa 1" xmlns="http://www.w3.org/2000/svg" xmlns:xlink="http://www.w3.org/1999/xlink" viewBox="0 0 1080 1080"><defs><style>.a3f75dc0-e24d-40da-917d-8c54597dc9c6,.b0958cf9-078f-404f-920c-bd37f166b5c2{fill:none;}.e88a44a2-e92b-43ae-88bf-4eb4377e9c84{opacity:0.76;}.ea335250-3b16-4ed0-9b93-8428e52c3874{clip-path:url(#bbeb52da-d568-4b56-ab7c-ff5d09740e2d);}.a375af9a-ce99-4ccf-a447-6eae487d6fe2{opacity:0.7;}.fb526a8d-834d-4e01-b2be-36ef0ab25bba{fill:url(#f5518ec4-3972-4d81-a70e-3d23170ce140);}.a3f75dc0-e24d-40da-917d-8c54597dc9c6{stroke:#000;stroke-miterlimit:10;stroke-width:35px;}.afbafa4a-97fe-4063-94ac-0b4ad4178d5d{fill:#37bac4;}.fdf7f0f5-7ed1-454e-81a1-f803edbdc2bd{fill:#55c4cd;}</style><clipPath id="bbeb52da-d568-4b56-ab7c-ff5d09740e2d"><rect class="b0958cf9-078f-404f-920c-bd37f166b5c2" x="179" y="183.94" width="722" height="712.11"/></clipPath><linearGradient id="f5518ec4-3972-4d81-a70e-3d23170ce140" x1="360.56" y1="886.6" x2="749.54" y2="212.87" gradientUnits="userSpaceOnUse"><stop offset="0" stop-color="#fff" stop-opacity="0.4"/><stop offset="0.29" stop-color="#d4f0f2" stop-opacity="0.49"/><stop offset="0.82" stop-color="#62c9d1" stop-opacity="0.71"/><stop offset="1" stop-color="#37bac4" stop-opacity="0.8"/></linearGradient></defs><title>iconos s2r</title><g class="e88a44a2-e92b-43ae-88bf-4eb4377e9c84"><g class="ea335250-3b16-4ed0-9b93-8428e52c3874"><g class="a375af9a-ce99-4ccf-a447-6eae487d6fe2"><g class="ea335250-3b16-4ed0-9b93-8428e52c3874"><path class="fb526a8d-834d-4e01-b2be-36ef0ab25bba" d="M898.89,529c-7.71,67.68-38.27,146.46-99.81,182.85-93,55-84.83,138.94-266.6,176.21A374.2,374.2,0,0,1,451.84,896a312.41,312.41,0,0,1-39.6-3.06C296.54,876.55,218.4,796.5,189.45,699.6,151.35,572.16,226,488.31,275.53,437.78s85.28-207.51,263.69-245.55A362.83,362.83,0,0,1,622.09,184c63.54,1.29,132.92,21.87,181,65.21q5.42,4.89,10.56,10.11c66.93,68.13,95.7,177.4,85.19,269.67"/></g></g></g></g><path class="a3f75dc0-e24d-40da-917d-8c54597dc9c6" d="M684.55,704.24H604.17V465.08a7,7,0,0,1,7-7H759.63a7,7,0,0,1,5.7,3L849,578.82a7,7,0,0,1,1.3,4.06V697.25a7,7,0,0,1-7,7H780.39"/><rect class="afbafa4a-97fe-4063-94ac-0b4ad4178d5d" x="405.77" y="378.05" width="179.5" height="192.19"/><rect class="afbafa4a-97fe-4063-94ac-0b4ad4178d5d" x="268.17" y="320" width="137.69" height="249.67"/><rect class="fdf7f0f5-7ed1-454e-81a1-f803edbdc2bd" x="369.29" y="320" width="36.57" height="249.67"/><path d="M733.56,640.11a64.14,64.14,0,1,0,64.13,64.13A64.13,64.13,0,0,0,733.56,640.11Zm0,99.53a35.4,35.4,0,1,1,35.4-35.4A35.4,35.4,0,0,1,733.56,739.64Z"/><polygon class="fdf7f0f5-7ed1-454e-81a1-f803edbdc2bd" points="361.82 378.05 337.01 365.57 312.2 378.05 312.2 320 361.82 320 361.82 378.05"/><polygon class="fdf7f0f5-7ed1-454e-81a1-f803edbdc2bd" points="554.93 436.49 530.11 424.01 505.3 436.49 505.3 378.44 554.93 378.44 554.93 436.49"/><path class="a3f75dc0-e24d-40da-917d-8c54597dc9c6" d="M366.45,704.24H261.86c-3.24,0-5.86-3.1-5.86-6.91V587.69c0-3.89,2.67-7,6-7H604.17V704.24H448.28"/><path d="M405.47,640.29a64.14,64.14,0,1,0,64.14,64.13A64.14,64.14,0,0,0,405.47,640.29Zm0,99.54a35.41,35.41,0,1,1,35.4-35.41A35.4,35.4,0,0,1,405.47,739.83Z"/></svg>