<svg id="b17277cf-b976-4dc4-98d3-424543e8b125" data-name="Capa 1" xmlns="http://www.w3.org/2000/svg" xmlns:xlink="http://www.w3.org/1999/xlink" viewBox="0 0 1080 1080"><defs><style>.ab1c3de8-f9e7-436c-9b2f-035bb0e7e9b4{fill:none;}.acf647da-a750-4ec7-85bc-691c6a841f42{opacity:0.76;}.e6a1e060-ea59-4914-bdf0-079bb8b055ca{clip-path:url(#fa539d43-a5cb-44b0-9505-f894c0b602b2);}.a68617e3-6dfc-4bc5-9b49-323111a9c611{opacity:0.7;}.a520e417-f6e6-4981-8bcc-0d0ebee46673{fill:url(#af63633d-9f55-45a7-9db0-4f3f664ee892);}.af9a83a4-9f41-4857-918d-74c65ff7a933{fill:#00bbe6;}</style><clipPath id="fa539d43-a5cb-44b0-9505-f894c0b602b2"><rect class="ab1c3de8-f9e7-436c-9b2f-035bb0e7e9b4" x="179" y="183.94" width="722" height="712.11"/></clipPath><linearGradient id="af63633d-9f55-45a7-9db0-4f3f664ee892" x1="360.56" y1="886.6" x2="749.54" y2="212.87" gradientUnits="userSpaceOnUse"><stop offset="0" stop-color="#fff" stop-opacity="0.4"/><stop offset="0.19" stop-color="#e0f7fc" stop-opacity="0.45"/><stop offset="0.52" stop-color="#8de1f4" stop-opacity="0.58"/><stop offset="0.98" stop-color="#07bde7" stop-opacity="0.79"/><stop offset="1" stop-color="#00bbe6" stop-opacity="0.8"/></linearGradient></defs><title>iconos s2r</title><g class="acf647da-a750-4ec7-85bc-691c6a841f42"><g class="e6a1e060-ea59-4914-bdf0-079bb8b055ca"><g class="a68617e3-6dfc-4bc5-9b49-323111a9c611"><g class="e6a1e060-ea59-4914-bdf0-079bb8b055ca"><path class="a520e417-f6e6-4981-8bcc-0d0ebee46673" d="M898.89,529c-7.71,67.68-38.27,146.46-99.81,182.85-93,55-84.83,138.94-266.6,176.21A374.2,374.2,0,0,1,451.84,896a312.41,312.41,0,0,1-39.6-3.06C296.54,876.55,218.4,796.5,189.45,699.6,151.35,572.16,226,488.31,275.53,437.78s85.28-207.51,263.69-245.55A362.83,362.83,0,0,1,622.09,184c63.54,1.29,132.92,21.87,181,65.21q5.42,4.89,10.56,10.11c66.93,68.13,95.7,177.4,85.19,269.67"/></g></g></g></g><path d="M495.16,550.83c57.76,0,87.05-48.81,87.05-145.08a87.05,87.05,0,0,0-174.1,0C408.11,502,437.39,550.83,495.16,550.83Zm0-203.11a58.09,58.09,0,0,1,58,58c0,116.07-43.68,116.07-58,116.07s-58,0-58-116.07A58.1,58.1,0,0,1,495.16,347.72Z"/><path d="M495.16,579.85C382.8,579.85,369,727.78,365,736.05a14.51,14.51,0,0,0,14.1,17.9H611.22a14.51,14.51,0,0,0,14.11-17.9C620.44,725.84,608.85,579.85,495.16,579.85ZM397.5,724.93c2.22-4.56,14.53-116.06,97.66-116.06,82.78,0,95.85,112.36,97.66,116.06Z"/><path class="af9a83a4-9f41-4857-918d-74c65ff7a933" d="M616.24,632.93a25.39,25.39,0,0,0-25.4,25.4v25.39H565.45a25.4,25.4,0,1,0,0,50.79h25.39v25.4a25.4,25.4,0,0,0,50.79,0v-25.4H667a25.4,25.4,0,0,0,0-50.79h-25.4V658.33A25.39,25.39,0,0,0,616.24,632.93Z"/></svg>