<svg id="b75de674-9e02-40b4-9f9e-0a132b99d57a" data-name="Capa 1" xmlns="http://www.w3.org/2000/svg" xmlns:xlink="http://www.w3.org/1999/xlink" viewBox="0 0 1080 1080"><defs><style>.f36451e8-d2fc-4b5e-b357-d3b2d52306e9{fill:none;}.b3482275-9273-4ccc-b77b-4a24983b800e{opacity:0.76;}.b607483f-9e3b-44c8-ad4f-3d0c18fa7cdd{clip-path:url(#b2a288de-9d3d-4416-aefc-cc74297bf432);}.bdc30c46-fc23-476a-881b-c0161aa6aab0{opacity:0.7;}.e7eb96fa-704c-41c7-9f3f-f0414ab22eca{fill:url(#f3e4abbd-17fb-4d53-bd55-f480459391e1);}.afec8b2b-0217-4566-8a6b-da89cbe6dbc2{fill:#00bbe6;}</style><clipPath id="b2a288de-9d3d-4416-aefc-cc74297bf432"><rect class="f36451e8-d2fc-4b5e-b357-d3b2d52306e9" x="179" y="183.94" width="722" height="712.11"/></clipPath><linearGradient id="f3e4abbd-17fb-4d53-bd55-f480459391e1" x1="360.56" y1="886.6" x2="749.54" y2="212.87" gradientUnits="userSpaceOnUse"><stop offset="0" stop-color="#fff" stop-opacity="0.4"/><stop offset="0.19" stop-color="#e0f7fc" stop-opacity="0.45"/><stop offset="0.52" stop-color="#8de1f4" stop-opacity="0.58"/><stop offset="0.98" stop-color="#07bde7" stop-opacity="0.79"/><stop offset="1" stop-color="#00bbe6" stop-opacity="0.8"/></linearGradient></defs><title>iconos s2r</title><g class="b3482275-9273-4ccc-b77b-4a24983b800e"><g class="b607483f-9e3b-44c8-ad4f-3d0c18fa7cdd"><g class="bdc30c46-fc23-476a-881b-c0161aa6aab0"><g class="b607483f-9e3b-44c8-ad4f-3d0c18fa7cdd"><path class="e7eb96fa-704c-41c7-9f3f-f0414ab22eca" d="M898.89,529c-7.71,67.68-38.27,146.46-99.81,182.85-93,55-84.83,138.94-266.6,176.21A374.2,374.2,0,0,1,451.84,896a312.41,312.41,0,0,1-39.6-3.06C296.54,876.55,218.4,796.5,189.45,699.6,151.35,572.16,226,488.31,275.53,437.78s85.28-207.51,263.69-245.55A362.83,362.83,0,0,1,622.09,184c63.54,1.29,132.92,21.87,181,65.21q5.42,4.89,10.56,10.11c66.93,68.13,95.7,177.4,85.19,269.67"/></g></g></g></g><path class="afec8b2b-0217-4566-8a6b-da89cbe6dbc2" d="M463.74,639.3a11.37,11.37,0,0,0,0,16.17l35.71,33a11,11,0,0,0,14.95-16.17l-15.06-13.94H606a11,11,0,0,0,0-22H499.34l15.06-13.93a11,11,0,0,0-14.95-16.18Z"/><path class="afec8b2b-0217-4566-8a6b-da89cbe6dbc2" d="M564.9,496.78a11,11,0,0,0,.61,15.55l15.06,13.94H473.89a11,11,0,0,0,0,22H580.57l-15.06,13.93a11,11,0,0,0,15,16.18l35.7-33a11,11,0,0,0,0-16.17l-35.7-33A11,11,0,0,0,564.9,496.78Z"/><path d="M765,525.14,554.86,315a21,21,0,0,0-29.72,0L315,525.14a21,21,0,0,0,29.72,29.72l27.17-27.17V750.15a21,21,0,0,0,21,21H687.11a21,21,0,0,0,21-21V527.69l27.18,27.17A21,21,0,0,0,765,525.14ZM671.59,739.21H408.41V485.66L540,359.57,671.59,485.66Z"/></svg>