<svg id="becf15a4-e6d2-4ac0-b2dd-aec27509cea5" data-name="Capa 1" xmlns="http://www.w3.org/2000/svg" xmlns:xlink="http://www.w3.org/1999/xlink" viewBox="0 0 1080 1080"><defs><style>.e6a151b7-003d-4db2-be5f-f6a486ef0009{fill:none;}.b4cc9028-82db-44ff-a6c5-eafd86d44da2{opacity:0.76;}.aa87305b-0eb6-42a8-9d8d-73797a6f8c2a{clip-path:url(#a1975191-ad6a-4c5e-9742-29062a28644d);}.b41a0c8a-7a6d-4cd7-ad85-72ee9da669fc{opacity:0.7;}.a94a988a-bb83-4138-938b-4800b99203a4{fill:url(#ae7513f7-3250-4682-88be-b80871744fd0);}.a62b53dc-bf96-498e-8fa3-14480eaed8a6{fill:#f3d13b;}</style><clipPath id="a1975191-ad6a-4c5e-9742-29062a28644d"><rect class="e6a151b7-003d-4db2-be5f-f6a486ef0009" x="179" y="183.94" width="722" height="712.11"/></clipPath><linearGradient id="ae7513f7-3250-4682-88be-b80871744fd0" x1="360.56" y1="886.6" x2="749.54" y2="212.87" gradientUnits="userSpaceOnUse"><stop offset="0" stop-color="#fff" stop-opacity="0.4"/><stop offset="0.2" stop-color="#fdf9e4" stop-opacity="0.45"/><stop offset="0.57" stop-color="#f9e89e" stop-opacity="0.6"/><stop offset="1" stop-color="#f3d13b" stop-opacity="0.8"/></linearGradient></defs><title>iconos s2r</title><g class="b4cc9028-82db-44ff-a6c5-eafd86d44da2"><g class="aa87305b-0eb6-42a8-9d8d-73797a6f8c2a"><g class="b41a0c8a-7a6d-4cd7-ad85-72ee9da669fc"><g class="aa87305b-0eb6-42a8-9d8d-73797a6f8c2a"><path class="a94a988a-bb83-4138-938b-4800b99203a4" d="M898.89,529c-7.71,67.68-38.27,146.46-99.81,182.85-93,55-84.83,138.94-266.6,176.21A374.2,374.2,0,0,1,451.84,896a312.41,312.41,0,0,1-39.6-3.06C296.54,876.55,218.4,796.5,189.45,699.6,151.35,572.16,226,488.31,275.53,437.78s85.28-207.51,263.69-245.55A362.83,362.83,0,0,1,622.09,184c63.54,1.29,132.92,21.87,181,65.21q5.42,4.89,10.56,10.11c66.93,68.13,95.7,177.4,85.19,269.67"/></g></g></g></g><path d="M378,729V661.5H351A13.5,13.5,0,0,1,337.5,648V351A13.49,13.49,0,0,1,351,337.5H729A13.49,13.49,0,0,1,742.5,351V648A13.5,13.5,0,0,1,729,661.5H478.09l-77,77C392.62,747,378,741.11,378,729Zm-13.5-94.5h27A13.49,13.49,0,0,1,405,648v48.41l58-58a13.47,13.47,0,0,1,9.54-4h243v-270h-351Z"/><path class="a62b53dc-bf96-498e-8fa3-14480eaed8a6" d="M509.7,479.25H464.37a18.9,18.9,0,0,0-18.9,18.9v43.2a18.9,18.9,0,0,0,18.9,18.9H486v40.5l35.59-35.59c7.3-7.29,4.17-15.88,4.91-25.16V496A16.77,16.77,0,0,0,509.7,479.25Z"/><path class="a62b53dc-bf96-498e-8fa3-14480eaed8a6" d="M617.7,479.25H572.37a18.9,18.9,0,0,0-18.9,18.9v43.2a18.9,18.9,0,0,0,18.9,18.9H594v40.5l35.59-35.59c7.3-7.29,4.17-15.88,4.91-25.16V496A16.77,16.77,0,0,0,617.7,479.25Z"/></svg>