<svg id="e34dca15-a711-4411-accf-5683213f32b2" data-name="Capa 1" xmlns="http://www.w3.org/2000/svg" xmlns:xlink="http://www.w3.org/1999/xlink" viewBox="0 0 1080 1080"><defs><style>.fc86f782-f377-4ec3-bced-32b40b141b2d{fill:none;}.fb9178b9-ab7d-4759-89f6-79427c74155d{opacity:0.76;}.b4f11394-d677-4b66-af84-098eea4b8cf0{clip-path:url(#fc365866-f17c-4b8c-a743-43124447d1d7);}.f8ec8b20-3f9d-4049-b8e9-2673e002a9d9{opacity:0.7;}.ffaa7ba3-d902-46df-9db8-905ceb07a529{fill:url(#bbbe2f51-d8ba-44cc-bee5-47f1764617b4);}.a3b6f1c0-4c3e-45a0-95ca-3dfcb9d692ef{fill:#37bac4;}</style><clipPath id="fc365866-f17c-4b8c-a743-43124447d1d7"><rect class="fc86f782-f377-4ec3-bced-32b40b141b2d" x="179" y="183.94" width="722" height="712.11"/></clipPath><linearGradient id="bbbe2f51-d8ba-44cc-bee5-47f1764617b4" x1="360.56" y1="886.6" x2="749.54" y2="212.87" gradientUnits="userSpaceOnUse"><stop offset="0" stop-color="#fff" stop-opacity="0.4"/><stop offset="0.29" stop-color="#d4f0f2" stop-opacity="0.49"/><stop offset="0.82" stop-color="#62c9d1" stop-opacity="0.71"/><stop offset="1" stop-color="#37bac4" stop-opacity="0.8"/></linearGradient></defs><title>iconos s2r</title><g class="fb9178b9-ab7d-4759-89f6-79427c74155d"><g class="b4f11394-d677-4b66-af84-098eea4b8cf0"><g class="f8ec8b20-3f9d-4049-b8e9-2673e002a9d9"><g class="b4f11394-d677-4b66-af84-098eea4b8cf0"><path class="ffaa7ba3-d902-46df-9db8-905ceb07a529" d="M898.89,529c-7.71,67.68-38.27,146.46-99.81,182.85-93,55-84.83,138.94-266.6,176.21A374.2,374.2,0,0,1,451.84,896a312.41,312.41,0,0,1-39.6-3.06C296.54,876.55,218.4,796.5,189.45,699.6,151.35,572.16,226,488.31,275.53,437.78s85.28-207.51,263.69-245.55A362.83,362.83,0,0,1,622.09,184c63.54,1.29,132.92,21.87,181,65.21q5.42,4.89,10.56,10.11c66.93,68.13,95.7,177.4,85.19,269.67"/></g></g></g></g><path class="a3b6f1c0-4c3e-45a0-95ca-3dfcb9d692ef" d="M655.09,686c-10.59,0-19.18,7.28-19.18,16.25H367.36c0-9-8.59-16.25-19.18-16.25S329,693.28,329,702.25v32.5c0,9,8.59,16.25,19.18,16.25s19.18-7.28,19.18-16.25H635.91c0,9,8.59,16.25,19.18,16.25s19.18-7.28,19.18-16.25v-32.5C674.27,693.28,665.68,686,655.09,686Z"/><path class="a3b6f1c0-4c3e-45a0-95ca-3dfcb9d692ef" d="M734.75,635.91V367.36c9,0,16.25-8.59,16.25-19.18S743.72,329,734.75,329h-32.5c-9,0-16.25,8.59-16.25,19.18s7.28,19.18,16.25,19.18V635.91c-9,0-16.25,8.59-16.25,19.18s7.28,19.18,16.25,19.18h32.5c9,0,16.25-8.59,16.25-19.18S743.72,635.91,734.75,635.91Z"/><path d="M669.65,490.45,512.79,333.6a15.67,15.67,0,0,0-22.18,0L333.75,490.45a15.68,15.68,0,0,0,22.18,22.18l20.29-20.28v166a15.68,15.68,0,0,0,15.68,15.69H611.5a15.68,15.68,0,0,0,15.69-15.69v-166l20.28,20.28a15.68,15.68,0,0,0,22.18-22.18ZM599.92,650.24H403.49V461l98.21-94.11L599.92,461Z"/></svg>