<svg id="a845a7ad-9fd4-4932-979f-bbe367b7b552" data-name="Capa 1" xmlns="http://www.w3.org/2000/svg" xmlns:xlink="http://www.w3.org/1999/xlink" viewBox="0 0 1080 1080"><defs><style>.a36c205e-bdf4-4558-8c58-602d36e78a04{fill:none;}.eb68758e-cecf-40fc-bfde-291716cd2852{opacity:0.76;}.a27ae20d-7840-4d71-ad13-80bef9d78b83{clip-path:url(#e7f37baa-04ff-43b1-b0c0-6e7456300733);}.e1367dcd-83fe-48de-966c-4cfec624dcbe{opacity:0.7;}.a529db1d-2994-4ea8-bf7f-9291374b7a49{fill:url(#b8948fe4-25bc-426a-a422-9bb88901662c);}.b9fa8cae-0cf1-464a-a02c-657e224e0165{fill:#5ad3b2;}</style><clipPath id="e7f37baa-04ff-43b1-b0c0-6e7456300733"><rect class="a36c205e-bdf4-4558-8c58-602d36e78a04" x="179" y="183.94" width="722" height="712.11"/></clipPath><linearGradient id="b8948fe4-25bc-426a-a422-9bb88901662c" x1="360.56" y1="886.6" x2="749.54" y2="212.87" gradientUnits="userSpaceOnUse"><stop offset="0" stop-color="#fff" stop-opacity="0.4"/><stop offset="0.26" stop-color="#e0f7f1" stop-opacity="0.47"/><stop offset="0.74" stop-color="#8ee1ca" stop-opacity="0.67"/><stop offset="1" stop-color="#5ad3b2" stop-opacity="0.8"/></linearGradient></defs><title>iconos s2r</title><g class="eb68758e-cecf-40fc-bfde-291716cd2852"><g class="a27ae20d-7840-4d71-ad13-80bef9d78b83"><g class="e1367dcd-83fe-48de-966c-4cfec624dcbe"><g class="a27ae20d-7840-4d71-ad13-80bef9d78b83"><path class="a529db1d-2994-4ea8-bf7f-9291374b7a49" d="M898.89,529c-7.71,67.68-38.27,146.46-99.81,182.85-93,55-84.83,138.94-266.6,176.21A374.2,374.2,0,0,1,451.84,896a312.41,312.41,0,0,1-39.6-3.06C296.54,876.55,218.4,796.5,189.45,699.6,151.35,572.16,226,488.31,275.53,437.78s85.28-207.51,263.69-245.55A362.83,362.83,0,0,1,622.09,184c63.54,1.29,132.92,21.87,181,65.21q5.42,4.89,10.56,10.11c66.93,68.13,95.7,177.4,85.19,269.67"/></g></g></g></g><path d="M744.31,643.47A67.26,67.26,0,0,0,726,640.91c-35.76,0-66.44,27.75-76.37,69l-6.84,28.5c-4.47,18.63,23.56,25.37,28,6.73l6.84-28.5c6.63-27.64,26.51-46.94,48.33-46.94a38.36,38.36,0,0,1,10.47,1.47C754.82,676.36,762.63,648.68,744.31,643.47Z"/><path d="M653.88,496.77c0,36.47,17.89,98.81,50.25,116.12,14.63,7.84,30.37,6,44.23-3.23,15.88-10.57-.14-34.59-16-24-7.08,4.72-11.36,3.56-14.64,1.8-18.53-9.93-35-59-35-90.71,0-29.88,29.63-34,54.87-29.11,18.56,3.79,24.37-24.51,5.61-28.27C697.05,430.2,653.88,448.41,653.88,496.77Z"/><path d="M354.05,640.91a67.26,67.26,0,0,0-18.36,2.56c-18.31,5.21-10.52,32.93,7.89,27.74a38.36,38.36,0,0,1,10.47-1.47c47.27,0,51.83,67.9,55.17,75.44,4.48,18.64,32.51,11.9,28-6.73C434.55,732.89,426.48,640.91,354.05,640.91Z"/><path d="M362.27,587.48c-3.28,1.74-7.54,2.9-14.64-1.8-15.91-10.6-31.84,13.43-16,24,13.86,9.25,29.61,11.06,44.23,3.23,32.36-17.31,50.25-79.65,50.25-116.12,0-48.11-42.8-66.57-89.31-57.38-18.7,3.73-13,32,5.61,28.27,25.8-4.94,54.87-.5,54.87,29.11C397.29,528.49,380.8,577.55,362.27,587.48Z"/><path class="b9fa8cae-0cf1-464a-a02c-657e224e0165" d="M639.46,395.86a14.42,14.42,0,0,0,14.42,14.42h28.83a14.42,14.42,0,0,0,14.41-14.42V367a14.42,14.42,0,0,0-28.83,0v.35a215.34,215.34,0,0,0-280.92,18.18,14.41,14.41,0,1,0,20.16,20.6,186.73,186.73,0,0,1,236.58-20.78A14.26,14.26,0,0,0,639.46,395.86Z"/><path class="b9fa8cae-0cf1-464a-a02c-657e224e0165" d="M516.36,498.45v1.18a58.62,58.62,0,0,0,11.73,116h23.44a11.72,11.72,0,0,1,0,23.44H492.92a23.45,23.45,0,1,0,0,46.89h23.44a23.45,23.45,0,1,0,46.89,0v-1.18a58.62,58.62,0,0,0-11.72-116.05H528.09a11.72,11.72,0,1,1,0-23.44H586.7a23.45,23.45,0,1,0,0-46.89H563.25a23.45,23.45,0,1,0-46.89,0Z"/></svg>