<svg id="e6a52633-583e-4006-aafd-3a45d94d3ec0" data-name="Capa 1" xmlns="http://www.w3.org/2000/svg" xmlns:xlink="http://www.w3.org/1999/xlink" viewBox="0 0 1080 1080"><defs><style>.b89c9c43-19b8-4561-be8e-3044ea1f3507{fill:none;}.a58b49ff-adf2-4052-b859-ab086219cf51{fill:#5ad3b2;}.b272e02b-4484-43bf-980a-83c3c20bbff2{opacity:0.76;}.b254db20-f174-4036-b9ca-d3d835895c04{clip-path:url(#ef1d296f-716a-428c-af97-1277973f156e);}.f21c9247-2b40-43e8-842b-6f41905e8b1f{opacity:0.7;}.a3a3ece0-1e00-49c8-9173-adce3b2f416e{fill:url(#b4493a4a-ac9e-4d76-8d1d-46b45285ffc1);}</style><clipPath id="ef1d296f-716a-428c-af97-1277973f156e"><rect class="b89c9c43-19b8-4561-be8e-3044ea1f3507" x="179" y="183.94" width="722" height="712.11"/></clipPath><linearGradient id="b4493a4a-ac9e-4d76-8d1d-46b45285ffc1" x1="360.56" y1="886.6" x2="749.54" y2="212.87" gradientUnits="userSpaceOnUse"><stop offset="0" stop-color="#fff" stop-opacity="0.4"/><stop offset="0.26" stop-color="#e0f7f1" stop-opacity="0.47"/><stop offset="0.74" stop-color="#8ee1ca" stop-opacity="0.67"/><stop offset="1" stop-color="#5ad3b2" stop-opacity="0.8"/></linearGradient></defs><title>iconos s2r</title><circle class="a58b49ff-adf2-4052-b859-ab086219cf51" cx="540" cy="540" r="200"/><path d="M494.2,603.25a16.91,16.91,0,0,0,23.92,0L619.65,501.73a16.92,16.92,0,0,0-23.93-23.93l-89.56,89.56-21.88-21.88a16.92,16.92,0,1,0-23.93,23.93Z"/><g class="b272e02b-4484-43bf-980a-83c3c20bbff2"><g class="b254db20-f174-4036-b9ca-d3d835895c04"><g class="f21c9247-2b40-43e8-842b-6f41905e8b1f"><g class="b254db20-f174-4036-b9ca-d3d835895c04"><path class="a3a3ece0-1e00-49c8-9173-adce3b2f416e" d="M898.89,529c-7.71,67.68-38.27,146.46-99.81,182.85-93,55-84.83,138.94-266.6,176.21A374.2,374.2,0,0,1,451.84,896a312.41,312.41,0,0,1-39.6-3.06C296.54,876.55,218.4,796.5,189.45,699.6,151.35,572.16,226,488.31,275.53,437.78s85.28-207.51,263.69-245.55A362.83,362.83,0,0,1,622.09,184c63.54,1.29,132.92,21.87,181,65.21q5.42,4.89,10.56,10.11c66.93,68.13,95.7,177.4,85.19,269.67"/></g></g></g></g></svg>