<svg width="72" height="73" viewBox="0 0 72 73" fill="none" xmlns="http://www.w3.org/2000/svg">
<path d="M57.93 57.2C59.25 55.13 60 52.64 60 50C60 42.5 54 36.5 46.5 36.5C39 36.5 33 42.5 33 50C33 57.5 39 63.5 46.5 63.5C49.11 63.5 51.57 62.75 53.64 61.46L63 70.67L67.17 66.5L57.93 57.2ZM46.5 57.5C44.5109 57.5 42.6032 56.7098 41.1967 55.3033C39.7902 53.8968 39 51.9891 39 50C39 48.0109 39.7902 46.1032 41.1967 44.6967C42.6032 43.2902 44.5109 42.5 46.5 42.5C48.4891 42.5 50.3968 43.2902 51.8033 44.6967C53.2098 46.1032 54 48.0109 54 50C54 51.9891 53.2098 53.8968 51.8033 55.3033C50.3968 56.7098 48.4891 57.5 46.5 57.5ZM15 60.5V36.5H6L36 9.5L66 36.5H60.54C57 32.81 52.02 30.5 46.5 30.5C35.76 30.5 27 39.26 27 50C27 53.87 28.14 57.5 30.09 60.5H15Z" fill="#1F262E"/>
</svg>
