<svg width="72" height="73" viewBox="0 0 72 73" fill="none" xmlns="http://www.w3.org/2000/svg">
<g clip-path="url(#clip0_2108_65)">
<path d="M58.3884 7.49455C60.7392 9.33775 62.3592 12.3149 63.0216 15.4325C63.1018 15.4579 63.18 15.4892 63.2556 15.5261L70.6176 18.9317C71.0291 19.1207 71.3779 19.4235 71.6229 19.8043C71.8679 20.1851 71.9987 20.6281 72 21.0809V65.6021C71.9974 65.972 71.9091 66.3362 71.7421 66.6661C71.575 66.9961 71.3339 67.2829 71.0374 67.5041C70.7409 67.7252 70.3973 67.8746 70.0334 67.9406C69.6695 68.0066 69.2952 67.9874 68.94 67.8845L48.5316 62.1245L24.2676 68.8133C23.8298 68.9336 23.3671 68.9286 22.932 68.7989L1.7064 62.4809C1.21579 62.3368 0.784763 62.0383 0.477343 61.6297C0.169923 61.2211 0.00251877 60.7243 0 60.2129L0 14.8925C0 13.3085 1.5408 12.1709 3.078 12.6173L23.6052 18.5969L34.038 15.4037C34.1816 15.3614 34.3285 15.3312 34.4772 15.3137C34.8804 12.9521 36.0072 10.6841 37.8972 8.47374C40.14 5.84574 44.0748 4.30495 47.9088 4.12135C51.8868 3.93055 54.9252 4.78015 58.3848 7.49095L58.3884 7.49455ZM4.7988 18.0713V58.4453L22.3308 63.6617V23.1725L4.7988 18.0713ZM34.3512 20.2817L27.1296 22.4885V63.0929L45.3636 58.0745V46.2125C45.3636 44.9021 46.44 43.8401 47.7648 43.8401C49.0896 43.8401 50.1624 44.9021 50.1624 46.2161V57.6533L67.2012 62.4593V22.5893L63.1692 20.7173C63.1008 21.1133 63.0144 21.5021 62.9064 21.8801C62.1236 24.6405 60.8103 27.2218 59.04 29.4797L50.1228 40.6145C49.888 40.9073 49.5882 41.1413 49.2471 41.2978C48.906 41.4543 48.5331 41.529 48.158 41.5161C47.783 41.5032 47.4161 41.4029 47.0866 41.2233C46.7571 41.0436 46.4741 40.7896 46.26 40.4813L37.926 28.4105C36.5508 26.4881 35.586 24.7745 35.0424 23.2409C34.7012 22.2838 34.4693 21.291 34.3512 20.2817ZM48.1392 8.86614C45.5256 8.99214 42.84 10.0433 41.562 11.5373C40.0248 13.3373 39.2688 15.0221 39.1176 16.7285C38.9376 18.7841 39.06 20.2349 39.5712 21.6713C39.9492 22.7333 40.7016 24.0797 41.8644 25.7033L48.384 35.1425L55.26 26.5565C56.6472 24.7837 57.6756 22.7576 58.2876 20.5913C59.1516 17.5673 57.8484 13.1249 55.4076 11.2169C52.9056 9.25495 51.0156 8.72574 48.1428 8.86614H48.1392ZM48.636 11.3753C52.6104 11.3753 55.836 14.5613 55.836 18.4925C55.8308 19.4327 55.6404 20.3626 55.2758 21.2292C54.9111 22.0957 54.3792 22.8819 53.7106 23.5429C53.0419 24.2038 52.2496 24.7265 51.3789 25.0812C50.5082 25.4358 49.5761 25.6154 48.636 25.6097C44.6616 25.6097 41.436 22.4237 41.436 18.4925C41.436 14.5613 44.6616 11.3753 48.636 11.3753ZM48.636 16.1201C48.3226 16.1182 48.0118 16.1781 47.7215 16.2963C47.4312 16.4145 47.167 16.5887 46.944 16.809C46.7211 17.0293 46.5437 17.2914 46.422 17.5802C46.3003 17.8691 46.2367 18.1791 46.2348 18.4925C46.2348 19.8029 47.3112 20.8649 48.636 20.8649C48.9494 20.8664 49.2601 20.806 49.5502 20.6874C49.8403 20.5688 50.1043 20.3941 50.3269 20.1735C50.5495 19.9529 50.7265 19.6906 50.8478 19.4015C50.969 19.1125 51.0322 18.8024 51.0336 18.4889C51.0288 17.8572 50.7738 17.2531 50.3244 16.809C49.8749 16.365 49.2678 16.1173 48.636 16.1201Z" fill="#40FF62"/>
</g>
<defs>
<clipPath id="clip0_2108_65">
<rect width="72" height="72" fill="white" transform="translate(0 0.5)"/>
</clipPath>
</defs>
</svg>
