<svg width="72" height="72" viewBox="0 0 72 72" fill="none" xmlns="http://www.w3.org/2000/svg">
<g opacity="0.99">
<path d="M7.19922 12.6004C7.19732 11.3252 7.64682 10.0904 8.46808 9.11479C9.28935 8.13918 10.4294 7.48571 11.6863 7.27012C12.9432 7.05453 14.2359 7.29073 15.3353 7.93688C16.4348 8.58303 17.27 9.59744 17.6932 10.8004H59.3992C60.6754 10.7987 61.9109 11.2489 62.8867 12.0713C63.8625 12.8937 64.5156 14.0351 64.73 15.2931C64.9444 16.5512 64.7063 17.8445 64.058 18.9437C63.4098 20.0429 62.3931 20.877 61.1884 21.298L61.1992 21.6004V46.8004C61.1992 49.6648 60.0614 52.4118 58.036 54.4372C56.0106 56.4626 53.2636 57.6004 50.3992 57.6004H25.1992C22.542 57.6038 19.9775 56.6241 17.9992 54.85V62.1004C17.9992 62.8165 17.7148 63.5033 17.2084 64.0096C16.7021 64.516 16.0153 64.8004 15.2992 64.8004H9.89922C9.18314 64.8004 8.49638 64.516 7.99004 64.0096C7.48369 63.5033 7.19922 62.8165 7.19922 62.1004V12.6004ZM57.5992 46.8004V21.6004H17.9992V46.8004C17.9992 48.71 18.7578 50.5413 20.1081 51.8916C21.4583 53.2419 23.2897 54.0004 25.1992 54.0004H50.3992C52.3088 54.0004 54.1401 53.2419 55.4904 51.8916C56.8407 50.5413 57.5992 48.71 57.5992 46.8004ZM14.3992 18.0004H59.3992C59.8766 18.0004 60.3345 17.8108 60.672 17.4732C61.0096 17.1357 61.1992 16.6778 61.1992 16.2004C61.1992 15.723 61.0096 15.2652 60.672 14.9276C60.3345 14.5901 59.8766 14.4004 59.3992 14.4004H14.3992V12.6004C14.3992 12.123 14.2096 11.6652 13.872 11.3276C13.5345 10.9901 13.0766 10.8004 12.5992 10.8004C12.1218 10.8004 11.664 10.9901 11.3264 11.3276C10.9889 11.6652 10.7992 12.123 10.7992 12.6004V61.2004H14.3992V18.0004ZM26.9992 35.8384V45.0184C26.9992 45.4958 27.1889 45.9537 27.5264 46.2912C27.864 46.6288 28.3218 46.8184 28.7992 46.8184H32.3992C32.8766 46.8184 33.3345 46.6288 33.672 46.2912C34.0096 45.9537 34.1992 45.4958 34.1992 45.0184V41.4184C34.1992 40.9411 34.3889 40.4832 34.7264 40.1456C35.064 39.8081 35.5218 39.6184 35.9992 39.6184H39.5992C40.0766 39.6184 40.5345 39.8081 40.872 40.1456C41.2096 40.4832 41.3992 40.9411 41.3992 41.4184V45.0184C41.3992 45.4958 41.5889 45.9537 41.9264 46.2912C42.264 46.6288 42.7218 46.8184 43.1992 46.8184H46.7992C47.2766 46.8184 47.7345 46.6288 48.072 46.2912C48.4096 45.9537 48.5992 45.4958 48.5992 45.0184V35.8384C48.5994 35.3296 48.4916 34.8265 48.2831 34.3624C48.0746 33.8982 47.7701 33.4835 47.3896 33.1456L38.9944 25.6936C38.665 25.4011 38.2398 25.2396 37.7992 25.2396C37.3587 25.2396 36.9334 25.4011 36.604 25.6936L28.2088 33.1456C27.8283 33.4835 27.5238 33.8982 27.3153 34.3624C27.1068 34.8265 26.9991 35.3296 26.9992 35.8384Z" fill="#40FF62"/>
</g>
</svg>
