<svg width="72" height="72" viewBox="0 0 72 72" fill="none" xmlns="http://www.w3.org/2000/svg">
<g opacity="0.99">
<path d="M37.4997 20.7C42.8397 20.7 44.8197 23.25 44.9997 27H51.6297C51.4197 21.84 48.2697 17.1 41.9997 15.57V9H32.9997V15.48C31.8297 15.72 30.7497 16.11 29.6997 16.56L34.2297 21.09C35.1897 20.85 36.2997 20.7 37.4997 20.7ZM16.4097 11.76L12.1797 15.99L22.4997 26.31C22.4997 32.55 27.1797 35.97 34.2297 38.04L44.7597 48.57C43.7397 50.04 41.6097 51.3 37.4997 51.3C31.3197 51.3 28.8897 48.54 28.5597 45H21.9597C22.3197 51.57 27.2397 55.26 32.9997 56.49V63H41.9997V56.55C44.8797 56.01 47.4897 54.9 49.3797 53.19L56.0397 59.85L60.2697 55.62L16.4097 11.76Z" fill="#40FF62"/>
</g>
</svg>
