<svg width="60" height="54" viewBox="0 0 60 54" fill="none" xmlns="http://www.w3.org/2000/svg">
<path d="M48.657 2.83218C50.616 4.36808 51.966 6.84891 52.518 9.44674C52.5848 9.4679 52.65 9.49397 52.713 9.52474L58.848 12.3625C59.1909 12.52 59.4816 12.7723 59.6857 13.0896C59.8899 13.407 59.9989 13.7761 60 14.1534V51.252C59.9978 51.5601 59.9242 51.8636 59.785 52.1386C59.6459 52.4135 59.4449 52.6525 59.1978 52.8368C58.9508 53.021 58.6644 53.1456 58.3612 53.2006C58.0579 53.2556 57.746 53.2396 57.45 53.1538L40.443 48.3542L20.223 53.9278C19.8582 54.028 19.4726 54.0238 19.11 53.9158L1.422 48.6511C1.01316 48.5311 0.653969 48.2823 0.397786 47.9418C0.141603 47.6014 0.00209898 47.1873 0 46.7613L0 8.99677C0 7.67686 1.284 6.72892 2.565 7.1009L19.671 12.0836L28.365 9.42274C28.4847 9.38742 28.6071 9.36233 28.731 9.34775C29.067 7.37988 30.006 5.49 31.581 3.64813C33.45 1.45827 36.729 0.174357 39.924 0.0213673C43.239 -0.137622 45.771 0.570331 48.654 2.82918L48.657 2.83218ZM3.999 11.6456V45.2884L18.609 49.6351V15.8963L3.999 11.6456ZM28.626 13.4875L22.608 15.3264V49.1611L37.803 44.9794V35.095C37.803 34.0031 38.7 33.1182 39.804 33.1182C40.908 33.1182 41.802 34.0031 41.802 35.098V44.6284L56.001 48.6331V15.4103L52.641 13.8505C52.584 14.1804 52.512 14.5044 52.422 14.8194C51.7696 17.1195 50.6752 19.2705 49.2 21.152L41.769 30.4303C41.5733 30.6743 41.3235 30.8692 41.0392 30.9997C40.755 31.1301 40.4442 31.1924 40.1317 31.1816C39.8191 31.1708 39.5134 31.0873 39.2388 30.9376C38.9642 30.7879 38.7284 30.5762 38.55 30.3194L31.605 20.261C30.459 18.6591 29.655 17.2312 29.202 15.9533C28.9177 15.1557 28.7244 14.3285 28.626 13.4875ZM40.116 3.9751C37.938 4.0801 35.7 4.95604 34.635 6.20096C33.354 7.70086 32.724 9.10476 32.598 10.5267C32.448 12.2396 32.55 13.4485 32.976 14.6454C33.291 15.5303 33.918 16.6523 34.887 18.0052L40.32 25.8707L46.05 18.7161C47.206 17.2389 48.063 15.5505 48.573 13.7455C49.293 11.2256 48.207 7.52387 46.173 5.93397C44.088 4.29908 42.513 3.85811 40.119 3.9751H40.116ZM40.53 6.06597C43.842 6.06597 46.53 8.72079 46.53 11.9966C46.5257 12.78 46.367 13.5549 46.0631 14.2769C45.7592 14.999 45.316 15.6542 44.7588 16.2049C44.2016 16.7557 43.5414 17.1912 42.8158 17.4867C42.0902 17.7823 41.3135 17.9319 40.53 17.9272C37.218 17.9272 34.53 15.2724 34.53 11.9966C34.53 8.72079 37.218 6.06597 40.53 6.06597ZM40.53 10.0197C40.2688 10.0181 40.0098 10.068 39.7679 10.1665C39.526 10.265 39.3058 10.4102 39.12 10.5937C38.9342 10.7773 38.7864 10.9957 38.685 11.2364C38.5836 11.4771 38.5306 11.7354 38.529 11.9966C38.529 13.0885 39.426 13.9734 40.53 13.9734C40.7912 13.9746 41.0501 13.9244 41.2918 13.8255C41.5336 13.7266 41.7535 13.5811 41.9391 13.3973C42.1246 13.2134 42.2721 12.9948 42.3732 12.754C42.4742 12.5131 42.5268 12.2548 42.528 11.9936C42.524 11.4671 42.3115 10.9637 41.937 10.5937C41.5624 10.2237 41.0565 10.0173 40.53 10.0197Z" fill="#1E93FF"/>
</svg>
