<svg width="48" height="60" viewBox="0 0 48 60" fill="none" xmlns="http://www.w3.org/2000/svg">
<path d="M24 44.55C24.85 44.55 25.563 44.262 26.139 43.686C26.715 43.11 27.002 42.398 27 41.55V29.55C27 28.7 26.712 27.987 26.136 27.411C25.56 26.835 24.848 26.548 24 26.55C23.15 26.55 22.437 26.838 21.861 27.414C21.285 27.99 20.998 28.702 21 29.55V41.55C21 42.4 21.288 43.113 21.864 43.689C22.44 44.265 23.152 44.552 24 44.55ZM24 20.55C24.85 20.55 25.563 20.262 26.139 19.686C26.715 19.11 27.002 18.398 27 17.55C27 16.7 26.712 15.987 26.136 15.411C25.56 14.835 24.848 14.548 24 14.55C23.15 14.55 22.437 14.838 21.861 15.414C21.285 15.99 20.998 16.702 21 17.55C21 18.4 21.288 19.113 21.864 19.689C22.44 20.265 23.152 20.552 24 20.55ZM24 59.25C23.65 59.25 23.325 59.225 23.025 59.175C22.725 59.125 22.425 59.05 22.125 58.95C15.375 56.7 10 52.537 6 46.461C2 40.385 0 33.848 0 26.85V12.675C0 11.425 0.363 10.3 1.089 9.3C1.815 8.3 2.752 7.575 3.9 7.125L21.9 0.375C22.6 0.125 23.3 0 24 0C24.7 0 25.4 0.125 26.1 0.375L44.1 7.125C45.25 7.575 46.188 8.3 46.914 9.3C47.64 10.3 48.002 11.425 48 12.675V26.85C48 33.85 46 40.388 42 46.464C38 52.54 32.625 56.702 25.875 58.95C25.575 59.05 25.275 59.125 24.975 59.175C24.675 59.225 24.35 59.25 24 59.25ZM24 53.25C29.2 51.6 33.5 48.3 36.9 43.35C40.3 38.4 42 32.9 42 26.85V12.675L24 5.925L6 12.675V26.85C6 32.9 7.7 38.4 11.1 43.35C14.5 48.3 18.8 51.6 24 53.25Z" fill="#1E93FF"/>
</svg>
