<svg width="73" height="73" viewBox="0 0 73 73" fill="none" xmlns="http://www.w3.org/2000/svg">
<g clip-path="url(#clip0_2248_66)">
<path d="M47.75 63.5C50.2353 63.5 52.25 61.4853 52.25 59C52.25 56.5147 50.2353 54.5 47.75 54.5C45.2647 54.5 43.25 56.5147 43.25 59C43.25 61.4853 45.2647 63.5 47.75 63.5Z" fill="#1F262E"/>
<path d="M9.5 45.5V50H19.8185L5 64.8185L8.1815 68L23 53.1815V63.5H27.5V45.5H9.5Z" fill="#1F262E"/>
<path d="M47.75 18.5C50.2353 18.5 52.25 16.4853 52.25 14C52.25 11.5147 50.2353 9.5 47.75 9.5C45.2647 9.5 43.25 11.5147 43.25 14C43.25 16.4853 45.2647 18.5 47.75 18.5Z" fill="#1F262E"/>
<path d="M9.5 41C11.9853 41 14 38.9853 14 36.5C14 34.0147 11.9853 32 9.5 32C7.01472 32 5 34.0147 5 36.5C5 38.9853 7.01472 41 9.5 41Z" fill="#1F262E"/>
<path d="M63.5 27.5C61.5101 27.5059 59.5784 28.1718 58.0076 29.3933C56.4367 30.6148 55.3155 32.3229 54.8195 34.25H45.1805C44.8618 32.9811 44.2681 31.7978 43.4412 30.7839C42.6144 29.7701 41.5748 28.9504 40.3959 28.383C39.2171 27.8156 37.9279 27.5143 36.6197 27.5005C35.3115 27.4867 34.0163 27.7608 32.8258 28.3033L25.6775 19.3708C26.8535 17.8266 27.4934 15.9409 27.5 14C27.5 12.22 26.9722 10.4799 25.9832 8.99987C24.9943 7.51983 23.5887 6.36628 21.9442 5.68509C20.2996 5.0039 18.49 4.82567 16.7442 5.17294C14.9984 5.5202 13.3947 6.37737 12.136 7.63604C10.8774 8.89472 10.0202 10.4984 9.67294 12.2442C9.32567 13.99 9.5039 15.7996 10.1851 17.4442C10.8663 19.0887 12.0198 20.4943 13.4999 21.4832C14.9799 22.4722 16.72 23 18.5 23C19.7687 22.9971 21.0222 22.7232 22.1765 22.1968L29.3225 31.1293C28.1464 32.6733 27.5065 34.5591 27.5 36.5C27.4929 38.6903 28.2865 40.8076 29.7315 42.4536C31.1766 44.0995 33.1733 45.1606 35.3461 45.4371C37.5188 45.7136 39.7177 45.1865 41.529 43.9549C43.3402 42.7233 44.6388 40.8722 45.1805 38.75H54.8195C55.2432 40.3758 56.1143 41.8501 57.3338 43.0057C58.5533 44.1613 60.0724 44.9518 61.7186 45.2874C63.3648 45.623 65.0721 45.4903 66.6467 44.9044C68.2213 44.3185 69.6 43.3028 70.6263 41.9726C71.6527 40.6425 72.2855 39.0512 72.4529 37.3795C72.6203 35.7078 72.3156 34.0227 71.5735 32.5154C70.8313 31.0082 69.6814 29.7392 68.2543 28.8527C66.8272 27.9661 65.1801 27.4975 63.5 27.5ZM18.5 18.5C17.61 18.5 16.74 18.2361 15.9999 17.7416C15.2599 17.2472 14.6831 16.5443 14.3425 15.7221C14.002 14.8998 13.9128 13.995 14.0865 13.1221C14.2601 12.2492 14.6887 11.4474 15.318 10.818C15.9474 10.1887 16.7492 9.7601 17.6221 9.58647C18.495 9.41284 19.3998 9.50195 20.2221 9.84255C21.0443 10.1831 21.7472 10.7599 22.2416 11.4999C22.7361 12.24 23 13.11 23 14C22.9988 15.1931 22.5243 16.337 21.6807 17.1807C20.837 18.0243 19.6931 18.4988 18.5 18.5ZM36.5 41C35.61 41 34.74 40.7361 33.9999 40.2416C33.2599 39.7472 32.6831 39.0443 32.3425 38.2221C32.002 37.3998 31.9128 36.495 32.0865 35.6221C32.2601 34.7492 32.6887 33.9474 33.318 33.318C33.9474 32.6887 34.7492 32.2601 35.6221 32.0865C36.495 31.9128 37.3998 32.002 38.2221 32.3425C39.0443 32.6831 39.7472 33.2599 40.2416 33.9999C40.7361 34.74 41 35.61 41 36.5C40.9988 37.6931 40.5243 38.837 39.6807 39.6807C38.837 40.5243 37.6931 40.9988 36.5 41ZM63.5 41C62.61 41 61.74 40.7361 60.9999 40.2416C60.2599 39.7472 59.6831 39.0443 59.3425 38.2221C59.002 37.3998 58.9128 36.495 59.0865 35.6221C59.2601 34.7492 59.6887 33.9474 60.318 33.318C60.9474 32.6887 61.7492 32.2601 62.6221 32.0865C63.495 31.9128 64.3998 32.002 65.2221 32.3425C66.0443 32.6831 66.7472 33.2599 67.2416 33.9999C67.7361 34.74 68 35.61 68 36.5C67.9988 37.6931 67.5243 38.837 66.6807 39.6807C65.837 40.5243 64.6931 40.9988 63.5 41Z" fill="#1F262E"/>
</g>
<defs>
<clipPath id="clip0_2248_66">
<rect width="72" height="72" fill="white" transform="translate(0.5 0.5)"/>
</clipPath>
</defs>
</svg>
