<svg width="89" height="88" viewBox="0 0 89 88" fill="none" xmlns="http://www.w3.org/2000/svg">
<path d="M26.1844 21.1749C22.8233 23.8638 20.1491 27.1797 18.1617 31.1226C16.1744 35.0655 15.182 39.3579 15.1844 43.9999C15.1844 51.0277 17.3233 57.1547 21.6011 62.3809C25.8789 67.6072 31.2872 70.9829 37.8261 72.5083C38.7427 72.7527 39.4761 73.2881 40.0261 74.1143C40.5761 74.9405 40.8511 75.8413 40.8511 76.8166C40.8511 77.7944 40.515 78.6194 39.8427 79.2916C39.1705 79.9638 38.4066 80.2083 37.5511 80.0249C28.9955 78.4361 21.9066 74.2964 16.2844 67.6059C10.6622 60.9155 7.85107 53.0468 7.85107 43.9999C7.85107 38.4388 8.96696 33.3055 11.1987 28.5999C13.4305 23.8944 16.4702 19.8611 20.3177 16.4999H15.1844C14.1455 16.4999 13.2741 16.1479 12.5701 15.4439C11.8661 14.7399 11.5153 13.8697 11.5177 12.8333C11.5177 11.7944 11.8697 10.9229 12.5737 10.2189C13.2777 9.51494 14.148 9.16417 15.1844 9.16661H29.8511C30.89 9.16661 31.7614 9.51861 32.4654 10.2226C33.1694 10.9266 33.5202 11.7968 33.5177 12.8333V27.4999C33.5177 28.5388 33.1657 29.4103 32.4617 30.1143C31.7577 30.8183 30.8875 31.1691 29.8511 31.1666C28.8122 31.1666 27.9407 30.8146 27.2367 30.1106C26.5327 29.4066 26.182 28.5364 26.1844 27.4999V21.1749ZM39.2927 50.5083L57.5344 32.2666C58.2677 31.5333 59.1233 31.1813 60.1011 31.2106C61.0789 31.2399 61.9344 31.6225 62.6677 32.3583C63.34 33.0916 63.692 33.9472 63.7237 34.9249C63.7555 35.9027 63.4035 36.7583 62.6677 37.4916L41.8594 58.2999C41.1261 59.0333 40.2705 59.3999 39.2927 59.3999C38.315 59.3999 37.4594 59.0333 36.7261 58.2999L26.3677 47.8499C25.6955 47.1777 25.3447 46.3368 25.3154 45.3273C25.2861 44.3177 25.6369 43.4475 26.3677 42.7166C27.04 42.0444 27.8955 41.7083 28.9344 41.7083C29.9733 41.7083 30.8289 42.0444 31.5011 42.7166L39.2927 50.5083ZM68.7177 71.4999H73.8511C74.89 71.4999 75.7614 71.8519 76.4654 72.5559C77.1694 73.2599 77.5202 74.1302 77.5177 75.1666C77.5177 76.2055 77.1657 77.0769 76.4617 77.7809C75.7577 78.4849 74.8875 78.8357 73.8511 78.8333H59.1844C58.1455 78.8333 57.2741 78.4813 56.5701 77.7773C55.8661 77.0733 55.5153 76.2031 55.5177 75.1666V60.4999C55.5177 59.4611 55.8697 58.5896 56.5737 57.8856C57.2777 57.1816 58.148 56.8308 59.1844 56.8333C60.2233 56.8333 61.0947 57.1853 61.7987 57.8893C62.5027 58.5933 62.8535 59.4635 62.8511 60.4999V66.825C66.2122 64.0749 68.8864 60.7444 70.8737 56.8333C72.8611 52.9222 73.8535 48.6444 73.8511 43.9999C73.8511 36.9722 71.7122 30.8452 67.4344 25.6189C63.1566 20.3927 57.7483 17.0169 51.2094 15.4916C50.2927 15.2472 49.5594 14.7131 49.0094 13.8893C48.4594 13.0655 48.1844 12.1635 48.1844 11.1833C48.1844 10.2055 48.5205 9.3805 49.1927 8.70828C49.865 8.03606 50.6289 7.79161 51.4844 7.97494C60.04 9.56383 67.1289 13.7047 72.7511 20.3976C78.3733 27.0905 81.1844 34.9579 81.1844 43.9999C81.1844 49.5611 80.0685 54.6944 77.8367 59.3999C75.605 64.1055 72.5653 68.1388 68.7177 71.4999Z" fill="#1E93FF"/>
</svg>
