<svg width="72" height="72" viewBox="0 0 72 72" fill="none" xmlns="http://www.w3.org/2000/svg">
<g opacity="0.99" clip-path="url(#clip0_2140_492)">
<path d="M23.9999 32.2799H22.2599C19.8854 32.1941 17.5186 32.5971 15.3064 33.4641C13.0942 34.3311 11.0838 35.6435 9.39992 37.3199L8.91992 37.8799V54.4399H17.0799V45.0399L18.1799 43.7999L18.6799 43.2199C21.2838 40.5449 24.5255 38.5764 28.0999 37.4999C26.3103 36.1381 24.8989 34.3411 23.9999 32.2799Z" fill="#40FF62"/>
<path d="M62.6806 37.2603C60.9968 35.584 58.9863 34.2716 56.7741 33.4046C54.5619 32.5376 52.1951 32.1345 49.8206 32.2203C49.0924 32.2224 48.3647 32.2624 47.6406 32.3403C46.7248 34.2741 45.3519 35.9559 43.6406 37.2403C47.4566 38.296 50.9134 40.3701 53.6406 43.2403L54.1406 43.8003L55.2206 45.0403V54.4603H63.1006V37.8203L62.6806 37.2603Z" fill="#40FF62"/>
<path d="M22.1997 28.3796H22.8197C22.5317 25.9061 22.9657 23.4021 24.0694 21.1698C25.1731 18.9375 26.8994 17.0724 29.0397 15.7996C28.2639 14.6143 27.1935 13.6508 25.9334 13.0035C24.6732 12.3562 23.2666 12.0472 21.8512 12.1069C20.4358 12.1665 19.0602 12.5927 17.859 13.3438C16.6578 14.0948 15.6723 15.1449 14.9989 16.3913C14.3255 17.6377 13.9873 19.0376 14.0175 20.4539C14.0477 21.8702 14.4452 23.2545 15.1711 24.471C15.8969 25.6876 16.9263 26.6947 18.1584 27.3939C19.3905 28.0931 20.7831 28.4603 22.1997 28.4596V28.3796Z" fill="#40FF62"/>
<path d="M48.8595 26.8801C48.8837 27.3398 48.8837 27.8004 48.8595 28.2601C49.2433 28.321 49.6309 28.3544 50.0195 28.3601H50.3995C51.8099 28.2849 53.1768 27.8458 54.3671 27.0855C55.5575 26.3252 56.5307 25.2696 57.192 24.0215C57.8533 22.7735 58.1801 21.3755 58.1407 19.9636C58.1013 18.5517 57.697 17.1741 56.9672 15.9648C56.2373 14.7556 55.2068 13.7559 53.9759 13.0632C52.745 12.3704 51.3558 12.0082 49.9433 12.0117C48.5309 12.0153 47.1435 12.3845 45.9161 13.0834C44.6887 13.7824 43.6632 14.7872 42.9395 16.0001C44.7496 17.182 46.2381 18.7947 47.2713 20.6937C48.3046 22.5926 48.8503 24.7183 48.8595 26.8801Z" fill="#40FF62"/>
<path d="M35.7408 35.84C40.6782 35.84 44.6808 31.8374 44.6808 26.9C44.6808 21.9625 40.6782 17.96 35.7408 17.96C30.8034 17.96 26.8008 21.9625 26.8008 26.9C26.8008 31.8374 30.8034 35.84 35.7408 35.84Z" fill="#40FF62"/>
<path d="M36.22 40.6C33.6081 40.4945 31.0018 40.9185 28.5581 41.8466C26.1143 42.7746 23.8835 44.1874 22 46L21.5 46.56V59.22C21.5078 59.6323 21.5968 60.0391 21.7618 60.4171C21.9269 60.7951 22.1648 61.1369 22.4619 61.4229C22.7591 61.7089 23.1097 61.9336 23.4937 62.0841C23.8777 62.2346 24.2876 62.3079 24.7 62.3H47.68C48.0924 62.3079 48.5023 62.2346 48.8863 62.0841C49.2703 61.9336 49.6209 61.7089 49.9181 61.4229C50.2152 61.1369 50.4531 60.7951 50.6182 60.4171C50.7832 60.0391 50.8722 59.6323 50.88 59.22V46.6L50.4 46C48.5286 44.1818 46.3057 42.765 43.8673 41.8364C41.429 40.9079 38.8267 40.4871 36.22 40.6Z" fill="#40FF62"/>
</g>
<defs>
<clipPath id="clip0_2140_492">
<rect width="72" height="72" fill="white"/>
</clipPath>
</defs>
</svg>
