<svg width="72" height="72" viewBox="0 0 72 72" fill="none" xmlns="http://www.w3.org/2000/svg">
<g opacity="0.99">
<path d="M36 51.0002C36.85 51.0002 37.563 50.7122 38.139 50.1362C38.715 49.5602 39.002 48.8482 39 48.0002V36.0002C39 35.1502 38.712 34.4372 38.136 33.8612C37.56 33.2852 36.848 32.9982 36 33.0002C35.15 33.0002 34.437 33.2882 33.861 33.8642C33.285 34.4402 32.998 35.1522 33 36.0002V48.0002C33 48.8502 33.288 49.5632 33.864 50.1392C34.44 50.7152 35.152 51.0022 36 51.0002ZM36 27.0002C36.85 27.0002 37.563 26.7122 38.139 26.1362C38.715 25.5602 39.002 24.8482 39 24.0002C39 23.1502 38.712 22.4372 38.136 21.8612C37.56 21.2852 36.848 20.9982 36 21.0002C35.15 21.0002 34.437 21.2882 33.861 21.8642C33.285 22.4402 32.998 23.1522 33 24.0002C33 24.8502 33.288 25.5632 33.864 26.1392C34.44 26.7152 35.152 27.0022 36 27.0002ZM36 65.7002C35.65 65.7002 35.325 65.6752 35.025 65.6252C34.725 65.5752 34.425 65.5002 34.125 65.4002C27.375 63.1502 22 58.9872 18 52.9112C14 46.8352 12 40.2982 12 33.3002V19.1252C12 17.8752 12.363 16.7502 13.089 15.7502C13.815 14.7502 14.752 14.0252 15.9 13.5752L33.9 6.8252C34.6 6.5752 35.3 6.4502 36 6.4502C36.7 6.4502 37.4 6.5752 38.1 6.8252L56.1 13.5752C57.25 14.0252 58.188 14.7502 58.914 15.7502C59.64 16.7502 60.002 17.8752 60 19.1252V33.3002C60 40.3002 58 46.8382 54 52.9142C50 58.9902 44.625 63.1522 37.875 65.4002C37.575 65.5002 37.275 65.5752 36.975 65.6252C36.675 65.6752 36.35 65.7002 36 65.7002ZM36 59.7002C41.2 58.0502 45.5 54.7502 48.9 49.8002C52.3 44.8502 54 39.3502 54 33.3002V19.1252L36 12.3752L18 19.1252V33.3002C18 39.3502 19.7 44.8502 23.1 49.8002C26.5 54.7502 30.8 58.0502 36 59.7002Z" fill="#40FF62"/>
</g>
</svg>
