<svg width="40" height="43" viewBox="0 0 40 43" fill="none" xmlns="http://www.w3.org/2000/svg">
<path d="M4.29478 35.6518V4.34022H17.4524V19.531H32.4841V21.7011C33.9873 21.7011 35.4261 21.9832 36.7789 22.4607V13.0207L23.8946 0H4.29478C1.91118 0 0 1.9314 0 4.34022V35.6518C0 36.8029 0.452484 37.9069 1.25791 38.7208C2.06334 39.5348 3.15573 39.9921 4.29478 39.9921H20.3514C19.879 38.6249 19.5998 37.1709 19.5998 35.6518H4.29478ZM21.7472 3.25517L33.5578 15.1908H21.7472V3.25517ZM40 31.8541L29.7999 42.1622L23.8946 35.6518L26.3856 33.1345L29.7999 36.585L37.509 28.7943L40 31.8541Z" fill="#1E93FF"/>
</svg>
