<svg width="89" height="88" viewBox="0 0 89 88" fill="none" xmlns="http://www.w3.org/2000/svg">
<g clip-path="url(#clip0_2776_4996)">
<path fill-rule="evenodd" clip-rule="evenodd" d="M44.3604 7.3335C48.3607 7.3335 52.1227 8.40416 55.3604 10.2815C55.7985 10.5107 56.1858 10.8262 56.4989 11.209C56.812 11.5918 57.0444 12.0339 57.1822 12.5089C57.32 12.9838 57.3603 13.4817 57.3007 13.9726C57.241 14.4635 57.0827 14.9373 56.8353 15.3654C56.5878 15.7936 56.2562 16.1672 55.8606 16.4639C55.465 16.7606 55.0134 16.9742 54.5331 17.0919C54.0528 17.2095 53.5536 17.2288 53.0657 17.1485C52.5777 17.0683 52.111 16.8901 51.6937 16.6248C49.4636 15.3373 46.9337 14.6596 44.3586 14.6599C41.7835 14.6602 39.2538 15.3385 37.024 16.6266C34.7942 17.9147 32.9428 19.7671 31.656 21.9977C30.3693 24.2283 29.6925 26.7584 29.6937 29.3335L70.027 29.3372C71.9719 29.3372 73.8372 30.1098 75.2125 31.485C76.5877 32.8603 77.3604 34.7256 77.3604 36.6705V73.3372C77.3604 75.2821 76.5877 77.1473 75.2125 78.5226C73.8372 79.8979 71.9719 80.6705 70.027 80.6705H18.6937C16.7488 80.6705 14.8835 79.8979 13.5082 78.5226C12.133 77.1473 11.3604 75.2821 11.3604 73.3372V36.6668C11.3604 34.7219 12.133 32.8566 13.5082 31.4814C14.8835 30.1061 16.7488 29.3335 18.6937 29.3335H22.3604C22.3604 23.4987 24.6782 17.9029 28.804 13.7771C32.9298 9.65135 38.5256 7.3335 44.3604 7.3335ZM44.3604 44.0002C42.7461 44.0002 41.177 44.5329 39.8963 45.5157C38.6156 46.4984 37.695 47.8762 37.2772 49.4355C36.8594 50.9947 36.9678 52.6483 37.5855 54.1397C38.2032 55.6311 39.2957 56.877 40.6937 57.6842V62.3335C40.6937 63.306 41.08 64.2386 41.7676 64.9262C42.4553 65.6139 43.3879 66.0002 44.3604 66.0002C45.3328 66.0002 46.2654 65.6139 46.9531 64.9262C47.6407 64.2386 48.027 63.306 48.027 62.3335V57.6842C49.425 56.877 50.5175 55.6311 51.1352 54.1397C51.7529 52.6483 51.8613 50.9947 51.4435 49.4355C51.0257 47.8762 50.1051 46.4984 48.8244 45.5157C47.5437 44.5329 45.9746 44.0002 44.3604 44.0002ZM73.393 18.4105L76.935 19.3638C77.8381 19.6465 78.597 20.2675 79.0528 21.0968C79.5087 21.9261 79.6262 22.8995 79.3809 23.8135C79.1356 24.7275 78.5464 25.5112 77.7366 26.0008C76.9268 26.4904 75.959 26.648 75.0357 26.4405L71.4973 25.4945C70.562 25.2395 69.7657 24.6245 69.2826 23.7839C68.7995 22.9433 68.669 21.9456 68.9197 21.0091C69.1703 20.0725 69.7816 19.2734 70.6199 18.7864C71.4582 18.2994 72.4553 18.1642 73.393 18.4105ZM68.6814 7.6635C69.1465 7.78816 69.5826 8.00323 69.9646 8.29644C70.3467 8.58965 70.6672 8.95525 70.9079 9.37235C71.1487 9.78945 71.3049 10.2499 71.3676 10.7274C71.4304 11.2049 71.3985 11.69 71.2737 12.1552L70.8007 13.9225C70.678 14.3896 70.4643 14.8279 70.1717 15.2122C69.8792 15.5964 69.5136 15.9191 69.096 16.1617C68.6784 16.4043 68.217 16.562 67.7383 16.6258C67.2596 16.6895 66.773 16.6581 66.3064 16.5332C65.8399 16.4084 65.4026 16.1926 65.0197 15.8983C64.6368 15.6039 64.3158 15.2369 64.0752 14.8181C63.8345 14.3994 63.679 13.9373 63.6175 13.4583C63.5559 12.9792 63.5897 12.4928 63.7167 12.0268L64.1934 10.2558C64.4452 9.31718 65.0593 8.5169 65.9008 8.03082C66.7424 7.54473 67.7425 7.41262 68.6814 7.6635Z" fill="#1E93FF"/>
</g>
<defs>
<clipPath id="clip0_2776_4996">
<rect width="88" height="88" fill="white" transform="translate(0.360352)"/>
</clipPath>
</defs>
</svg>
