<svg width="49" height="54" viewBox="0 0 49 54" fill="none" xmlns="http://www.w3.org/2000/svg">
<path d="M25.32 11.7C30.66 11.7 32.64 14.25 32.82 18H39.45C39.24 12.84 36.09 8.1 29.82 6.57V0H20.82V6.48C19.65 6.72 18.57 7.11 17.52 7.56L22.05 12.09C23.01 11.85 24.12 11.7 25.32 11.7ZM4.23 2.76L0 6.99L10.32 17.31C10.32 23.55 15 26.97 22.05 29.04L32.58 39.57C31.56 41.04 29.43 42.3 25.32 42.3C19.14 42.3 16.71 39.54 16.38 36H9.78C10.14 42.57 15.06 46.26 20.82 47.49V54H29.82V47.55C32.7 47.01 35.31 45.9 37.2 44.19L43.86 50.85L48.09 46.62L4.23 2.76Z" fill="#1E93FF"/>
</svg>
