<svg width="72" height="73" viewBox="0 0 72 73" fill="none" xmlns="http://www.w3.org/2000/svg">
<g opacity="0.9">
<path d="M53.898 19.174L48.408 13.684C43.773 9.04897 41.457 6.72996 38.448 5.86896C35.439 5.00496 32.244 5.74296 25.857 7.21897L22.173 8.06797C16.797 9.30696 14.109 9.92797 12.267 11.767C10.428 13.609 9.807 16.297 8.568 21.673L7.716 25.357C6.243 31.747 5.505 34.939 6.366 37.948C7.23 40.957 9.549 43.273 14.184 47.908L19.674 53.398C27.744 61.471 31.776 65.5 36.786 65.5C41.799 65.5 45.831 61.465 53.898 53.398C61.971 45.331 66 41.299 66 36.286C66 31.276 61.965 27.241 53.898 19.174Z" fill="#1F262E"/>
<path d="M33.0258 41.9207C31.0068 39.9047 31.0248 37.0067 32.2308 34.7117C31.9315 34.2794 31.793 33.7559 31.8395 33.2322C31.8859 32.7084 32.1144 32.2175 32.4851 31.8446C32.8559 31.4717 33.3455 31.2404 33.869 31.191C34.3925 31.1415 34.9167 31.2769 35.3508 31.5737C36.3708 31.0337 37.4898 30.7457 38.6058 30.7577C39.2025 30.7633 39.7726 31.0057 40.1906 31.4316C40.6086 31.8575 40.8403 32.432 40.8348 33.0287C40.8292 33.6255 40.5868 34.1955 40.1609 34.6136C39.735 35.0316 39.1605 35.2633 38.5638 35.2577C37.8691 35.2834 37.2126 35.582 36.7368 36.0887C35.5758 37.2497 35.8818 38.4137 36.2058 38.7407C36.5358 39.0677 37.6968 39.3707 38.8578 38.2097C41.2098 35.8577 45.2718 35.0777 47.8758 37.6787C49.8948 39.6977 49.8768 42.5957 48.6678 44.8907C48.9652 45.3231 49.1021 45.8459 49.0548 46.3686C49.0075 46.8913 48.7789 47.381 48.4087 47.753C48.0385 48.125 47.5499 48.3558 47.0275 48.4057C46.505 48.4555 45.9816 48.3211 45.5478 48.0257C44.2015 48.7641 42.6399 49.0102 41.1318 48.7217C40.8422 48.6622 40.5672 48.5463 40.3224 48.3805C40.0777 48.2148 39.868 48.0024 39.7053 47.7556C39.5426 47.5088 39.4301 47.2323 39.3743 46.942C39.3184 46.6517 39.3203 46.3533 39.3798 46.0637C39.4393 45.7742 39.5552 45.4992 39.721 45.2544C39.8867 45.0096 40.0991 44.7999 40.3459 44.6372C40.5927 44.4746 40.8692 44.3621 41.1595 44.3062C41.4498 44.2504 41.7482 44.2522 42.0378 44.3117C42.5688 44.4227 43.4268 44.2487 44.1618 43.5137C45.3258 42.3497 45.0198 41.1887 44.6928 40.8617C44.3658 40.5347 43.2048 40.2317 42.0408 41.3927C39.6888 43.7447 35.6268 44.5247 33.0258 41.9207ZM29.6478 29.8157C30.2208 29.2622 30.6779 28.6002 30.9924 27.8682C31.3068 27.1361 31.4723 26.3488 31.4793 25.5521C31.4862 24.7555 31.3344 23.9654 31.0327 23.228C30.731 22.4906 30.2855 21.8207 29.7221 21.2574C29.1588 20.694 28.4889 20.2485 27.7515 19.9468C27.0141 19.6451 26.224 19.4933 25.4274 19.5002C24.6307 19.5071 23.8434 19.6727 23.1113 19.9871C22.3793 20.3016 21.7172 20.7587 21.1638 21.3317C20.0708 22.4633 19.466 23.979 19.4797 25.5521C19.4934 27.1253 20.1244 28.6302 21.2369 29.7426C22.3493 30.8551 23.8542 31.4861 25.4274 31.4998C27.0005 31.5134 28.5162 30.9087 29.6478 29.8157Z" fill="white"/>
</g>
</svg>
