<svg width="60" height="56" viewBox="0 0 60 56" fill="none" xmlns="http://www.w3.org/2000/svg">
<path d="M20.0003 25.0381H18.5503C16.5715 24.9715 14.5992 25.2841 12.7557 25.9566C10.9122 26.629 9.23682 27.6468 7.83359 28.9469L7.43359 29.3812V42.2246H14.2336V34.9343L15.1503 33.9726L15.5669 33.5228C17.7368 31.4481 20.4382 29.9215 23.4169 29.0865C21.9256 28.0304 20.7494 26.6367 20.0003 25.0381Z" fill="#1E93FF"/>
<path d="M52.8667 28.8961C51.4634 27.596 49.7881 26.5782 47.9446 25.9058C46.1011 25.2334 44.1287 24.9207 42.15 24.9873C41.5431 24.9889 40.9367 25.02 40.3333 25.0804C39.5701 26.5802 38.4261 27.8845 37 28.8806C40.18 29.6994 43.0606 31.308 45.3333 33.534L45.75 33.9684L46.65 34.9301V42.2359H53.2167V29.3305L52.8667 28.8961Z" fill="#1E93FF"/>
<path d="M18.4998 22.009H19.0165C18.7764 20.0907 19.1381 18.1486 20.0578 16.4173C20.9776 14.6861 22.4161 13.2395 24.1998 12.2524C23.5532 11.3331 22.6612 10.5859 21.6111 10.0838C20.561 9.5818 19.3888 9.34218 18.2093 9.38844C17.0298 9.4347 15.8835 9.76525 14.8825 10.3477C13.8815 10.9302 13.0602 11.7447 12.499 12.7113C11.9379 13.678 11.6561 14.7637 11.6812 15.8621C11.7064 16.9606 12.0376 18.0341 12.6425 18.9777C13.2475 19.9212 14.1053 20.7023 15.132 21.2446C16.1588 21.7868 17.3192 22.0716 18.4998 22.0711V22.009Z" fill="#1E93FF"/>
<path d="M40.7146 20.8478C40.7348 21.2043 40.7348 21.5616 40.7146 21.9181C41.0344 21.9653 41.3575 21.9912 41.6813 21.9957H41.9979C43.1733 21.9373 44.3124 21.5968 45.3043 21.0071C46.2963 20.4174 47.1073 19.5988 47.6583 18.6308C48.2094 17.6629 48.4818 16.5786 48.449 15.4836C48.4161 14.3886 48.0792 13.3202 47.471 12.3823C46.8628 11.4445 46.004 10.6691 44.9783 10.1319C43.9526 9.5946 42.7948 9.31367 41.6178 9.31643C40.4408 9.31918 39.2846 9.60553 38.2618 10.1476C37.239 10.6897 36.3844 11.469 35.7812 12.4097C37.2897 13.3263 38.5301 14.5771 39.3911 16.0498C40.2522 17.5226 40.7069 19.1712 40.7146 20.8478Z" fill="#1E93FF"/>
<path d="M29.7859 27.7968C33.9005 27.7968 37.2359 24.6926 37.2359 20.8633C37.2359 17.034 33.9005 13.9297 29.7859 13.9297C25.6714 13.9297 22.3359 17.034 22.3359 20.8633C22.3359 24.6926 25.6714 27.7968 29.7859 27.7968Z" fill="#1E93FF"/>
<path d="M30.1807 31.4885C28.0041 31.4067 25.8323 31.7356 23.7958 32.4553C21.7593 33.1751 19.9003 34.2708 18.3307 35.6766L17.9141 36.1109V45.9296C17.9206 46.2494 17.9947 46.5649 18.1323 46.858C18.2698 47.1512 18.468 47.4162 18.7157 47.6381C18.9633 47.8599 19.2555 48.0341 19.5755 48.1509C19.8955 48.2676 20.2371 48.3245 20.5807 48.3183H39.7307C40.0744 48.3245 40.416 48.2676 40.736 48.1509C41.056 48.0341 41.3481 47.8599 41.5958 47.6381C41.8434 47.4162 42.0417 47.1512 42.1792 46.858C42.3167 46.5649 42.3909 46.2494 42.3974 45.9296V36.1419L41.9974 35.6766C40.4379 34.2665 38.5854 33.1677 36.5535 32.4475C34.5216 31.7273 32.353 31.401 30.1807 31.4885Z" fill="#1E93FF"/>
</svg>
