<svg width="88" height="88" viewBox="0 0 88 88" fill="none" xmlns="http://www.w3.org/2000/svg">
<path d="M70.8035 69.3C72.4168 66.77 73.3335 63.7267 73.3335 60.5C73.3335 51.3333 66.0002 44 56.8335 44C47.6668 44 40.3335 51.3333 40.3335 60.5C40.3335 69.6667 47.6668 77 56.8335 77C60.0235 77 63.0302 76.0833 65.5602 74.5067L77.0002 85.7633L82.0968 80.6667L70.8035 69.3ZM56.8335 69.6667C54.4023 69.6667 52.0708 68.7009 50.3517 66.9818C48.6326 65.2627 47.6668 62.9311 47.6668 60.5C47.6668 58.0688 48.6326 55.7373 50.3517 54.0182C52.0708 52.2991 54.4023 51.3333 56.8335 51.3333C59.2646 51.3333 61.5962 52.2991 63.3153 54.0182C65.0344 55.7373 66.0002 58.0688 66.0002 60.5C66.0002 62.9311 65.0344 65.2627 63.3153 66.9818C61.5962 68.7009 59.2646 69.6667 56.8335 69.6667ZM18.3335 73.3333V44H7.3335L44.0002 11L80.6668 44H73.9935C69.6668 39.49 63.5802 36.6667 56.8335 36.6667C43.7068 36.6667 33.0002 47.3733 33.0002 60.5C33.0002 65.23 34.3935 69.6667 36.7768 73.3333H18.3335Z" fill="#1E93FF"/>
</svg>
