<svg width="73" height="72" viewBox="0 0 73 72" fill="none" xmlns="http://www.w3.org/2000/svg">
<path d="M39.4999 30.51L31.9999 23.01V6.75C31.9999 5.75544 32.395 4.80161 33.0982 4.09835C33.8015 3.39509 34.7553 3 35.7499 3C36.7445 3 37.6983 3.39509 38.4015 4.09835C39.1048 4.80161 39.4999 5.75544 39.4999 6.75V30.51ZM60.4999 15.96C60.4999 14.01 59.0899 12.21 57.1399 12C54.8899 11.76 52.9999 13.53 52.9999 15.72V31.47C52.9999 32.31 52.3399 32.97 51.4999 32.97C50.6599 32.97 49.9999 32.31 49.9999 31.47V9.93C49.9999 7.98 48.5899 6.18 46.6399 5.97C44.3899 5.79 42.4999 7.56 42.4999 9.75V33.51L60.4999 51.51V15.96ZM28.9999 12.75C28.9999 10.68 27.3199 9 25.2499 9C23.2399 9 21.6499 10.59 21.5299 12.54L28.9999 20.01V12.75ZM51.4999 66C53.3599 66 55.0399 65.43 56.4499 64.44L56.3899 64.38L57.7099 65.7C58.2708 66.2609 59.0316 66.5761 59.8249 66.5761C60.6182 66.5761 61.379 66.2609 61.9399 65.7C62.5008 65.1391 62.8159 64.3783 62.8159 63.585C62.8159 62.7917 62.5008 62.0309 61.9399 61.47L11.0299 10.53C10.469 9.96907 9.70817 9.65394 8.91489 9.65394C8.12161 9.65394 7.36082 9.96907 6.79989 10.53C6.23896 11.0909 5.92383 11.8517 5.92383 12.645C5.92383 13.4383 6.23896 14.1991 6.79989 14.76L21.5599 29.52L21.4999 29.49V42.39L13.6999 37.95C13.1899 37.68 12.6799 37.53 12.0799 37.53C11.2999 37.53 10.5799 37.8 9.97989 38.31L6.49989 41.64L26.8999 63.18C28.6099 64.98 30.9499 66 33.4399 66H51.4999Z" fill="#1F262E"/>
</svg>
