<svg width="72" height="72" viewBox="0 0 72 72" fill="none" xmlns="http://www.w3.org/2000/svg">
<path d="M57.93 56.7C59.25 54.63 60 52.14 60 49.5C60 42 54 36 46.5 36C39 36 33 42 33 49.5C33 57 39 63 46.5 63C49.11 63 51.57 62.25 53.64 60.96L63 70.17L67.17 66L57.93 56.7ZM46.5 57C44.5109 57 42.6032 56.2098 41.1967 54.8033C39.7902 53.3968 39 51.4891 39 49.5C39 47.5109 39.7902 45.6032 41.1967 44.1967C42.6032 42.7902 44.5109 42 46.5 42C48.4891 42 50.3968 42.7902 51.8033 44.1967C53.2098 45.6032 54 47.5109 54 49.5C54 51.4891 53.2098 53.3968 51.8033 54.8033C50.3968 56.2098 48.4891 57 46.5 57ZM15 60V36H6L36 9L66 36H60.54C57 32.31 52.02 30 46.5 30C35.76 30 27 38.76 27 49.5C27 53.37 28.14 57 30.09 60H15Z" fill="#40FF62"/>
</svg>
