<svg width="45" height="45" viewBox="0 0 45 45" fill="none" xmlns="http://www.w3.org/2000/svg">
<path d="M4.68546e-06 4.22445C-0.00147941 3.2283 0.349639 2.26376 0.991172 1.50167C1.6327 0.739584 2.52325 0.229133 3.50508 0.0607243C4.48691 -0.107684 5.49666 0.0768194 6.35549 0.581556C7.21432 1.08629 7.8668 1.87869 8.19737 2.8184H40.7759C41.7728 2.81701 42.7379 3.16872 43.5002 3.81113C44.2624 4.45354 44.7725 5.34515 44.94 6.32784C45.1075 7.31052 44.9216 8.32076 44.4152 9.17941C43.9087 10.038 43.1146 10.6896 42.1736 11.0185L42.182 11.2547V30.9395C42.182 33.1769 41.2932 35.3227 39.711 36.9048C38.1289 38.487 35.9831 39.3758 33.7456 39.3758H14.0607C11.985 39.3784 9.98171 38.6131 8.4364 37.2273V42.8909C8.4364 43.4503 8.21419 43.9867 7.81866 44.3823C7.42313 44.7778 6.88667 45 6.3273 45H2.1091C1.54974 45 1.01328 44.7778 0.617745 44.3823C0.222212 43.9867 4.68546e-06 43.4503 4.68546e-06 42.8909V4.22445ZM39.3699 30.9395V11.2547H8.4364V30.9395C8.4364 32.4311 9.02896 33.8616 10.0837 34.9164C11.1385 35.9711 12.569 36.5637 14.0607 36.5637H33.7456C35.2372 36.5637 36.6678 35.9711 37.7225 34.9164C38.7773 33.8616 39.3699 32.4311 39.3699 30.9395ZM5.62427 8.44261H40.7759C41.1488 8.44261 41.5065 8.29448 41.7702 8.03079C42.0339 7.7671 42.182 7.40947 42.182 7.03656C42.182 6.66365 42.0339 6.30602 41.7702 6.04233C41.5065 5.77864 41.1488 5.63051 40.7759 5.63051H5.62427V4.22445C5.62427 3.85154 5.47613 3.49391 5.21244 3.23022C4.94875 2.96654 4.59112 2.8184 4.2182 2.8184C3.84529 2.8184 3.48765 2.96654 3.22396 3.23022C2.96028 3.49391 2.81214 3.85154 2.81214 4.22445V42.1879H5.62427V8.44261ZM15.4667 22.3766V29.5475C15.4667 29.9204 15.6149 30.278 15.8786 30.5417C16.1423 30.8054 16.4999 30.9535 16.8728 30.9535H19.6849C20.0578 30.9535 20.4155 30.8054 20.6792 30.5417C20.9429 30.278 21.091 29.9204 21.091 29.5475V26.7354C21.091 26.3625 21.2391 26.0048 21.5028 25.7411C21.7665 25.4775 22.1242 25.3293 22.4971 25.3293H25.3092C25.6821 25.3293 26.0397 25.4775 26.3034 25.7411C26.5671 26.0048 26.7153 26.3625 26.7153 26.7354V29.5475C26.7153 29.9204 26.8634 30.278 27.1271 30.5417C27.3908 30.8054 27.7484 30.9535 28.1213 30.9535H30.9335C31.3064 30.9535 31.664 30.8054 31.9277 30.5417C32.1914 30.278 32.3395 29.9204 32.3395 29.5475V22.3766C32.3396 21.9791 32.2555 21.5861 32.0926 21.2236C31.9297 20.861 31.6919 20.5371 31.3947 20.2731L24.8368 14.4521C24.5794 14.2236 24.2473 14.0974 23.9031 14.0974C23.559 14.0974 23.2268 14.2236 22.9695 14.4521L16.4116 20.2731C16.1144 20.5371 15.8765 20.861 15.7137 21.2236C15.5508 21.5861 15.4666 21.9791 15.4667 22.3766Z" fill="#1E93FF"/>
</svg>
