<svg width="72" height="72" viewBox="0 0 72 72" fill="none" xmlns="http://www.w3.org/2000/svg">
<path d="M36.15 57L44.7 48.525L36.15 40.05L33 43.2L36.225 46.425C34.825 46.475 33.462 46.25 32.136 45.75C30.81 45.25 29.623 44.475 28.575 43.425C27.575 42.425 26.812 41.275 26.286 39.975C25.76 38.675 25.498 37.375 25.5 36.075C25.5 35.225 25.613 34.375 25.839 33.525C26.065 32.675 26.377 31.85 26.775 31.05L23.475 27.75C22.625 29 22 30.325 21.6 31.725C21.2 33.125 21 34.55 21 36C21 37.9 21.375 39.775 22.125 41.625C22.875 43.475 23.975 45.125 25.425 46.575C26.875 48.025 28.5 49.113 30.3 49.839C32.1 50.565 33.95 50.952 35.85 51L33 53.85L36.15 57ZM48.525 44.25C49.375 43 50 41.675 50.4 40.275C50.8 38.875 51 37.45 51 36C51 34.1 50.637 32.212 49.911 30.336C49.185 28.46 48.098 26.798 46.65 25.35C45.2 23.9 43.562 22.825 41.736 22.125C39.91 21.425 38.048 21.075 36.15 21.075L39 18.15L35.85 15L27.3 23.475L35.85 31.95L39 28.8L35.7 25.5C37.05 25.5 38.425 25.763 39.825 26.289C41.225 26.815 42.425 27.577 43.425 28.575C44.425 29.575 45.188 30.725 45.714 32.025C46.24 33.325 46.502 34.625 46.5 35.925C46.5 36.775 46.387 37.625 46.161 38.475C45.935 39.325 45.623 40.15 45.225 40.95L48.525 44.25ZM36 66C31.85 66 27.95 65.212 24.3 63.636C20.65 62.06 17.475 59.923 14.775 57.225C12.075 54.525 9.938 51.35 8.364 47.7C6.79 44.05 6.002 40.15 6 36C6 31.85 6.788 27.95 8.364 24.3C9.94 20.65 12.077 17.475 14.775 14.775C17.475 12.075 20.65 9.938 24.3 8.364C27.95 6.79 31.85 6.002 36 6C40.15 6 44.05 6.788 47.7 8.364C51.35 9.94 54.525 12.077 57.225 14.775C59.925 17.475 62.063 20.65 63.639 24.3C65.215 27.95 66.002 31.85 66 36C66 40.15 65.212 44.05 63.636 47.7C62.06 51.35 59.923 54.525 57.225 57.225C54.525 59.925 51.35 62.063 47.7 63.639C44.05 65.215 40.15 66.002 36 66ZM36 60C42.7 60 48.375 57.675 53.025 53.025C57.675 48.375 60 42.7 60 36C60 29.3 57.675 23.625 53.025 18.975C48.375 14.325 42.7 12 36 12C29.3 12 23.625 14.325 18.975 18.975C14.325 23.625 12 29.3 12 36C12 42.7 14.325 48.375 18.975 53.025C23.625 57.675 29.3 60 36 60Z" fill="#40FF62"/>
</svg>
