<svg width="73" height="72" viewBox="0 0 73 72" fill="none" xmlns="http://www.w3.org/2000/svg">
<path d="M36.8167 57L45.3667 48.525L36.8167 40.05L33.6667 43.2L36.8917 46.425C35.4917 46.475 34.1287 46.25 32.8027 45.75C31.4767 45.25 30.2897 44.475 29.2417 43.425C28.2417 42.425 27.4787 41.275 26.9527 39.975C26.4267 38.675 26.1647 37.375 26.1667 36.075C26.1667 35.225 26.2797 34.375 26.5057 33.525C26.7317 32.675 27.0437 31.85 27.4417 31.05L24.1417 27.75C23.2917 29 22.6667 30.325 22.2667 31.725C21.8667 33.125 21.6667 34.55 21.6667 36C21.6667 37.9 22.0417 39.775 22.7917 41.625C23.5417 43.475 24.6417 45.125 26.0917 46.575C27.5417 48.025 29.1667 49.113 30.9667 49.839C32.7667 50.565 34.6167 50.952 36.5167 51L33.6667 53.85L36.8167 57ZM49.1917 44.25C50.0417 43 50.6667 41.675 51.0667 40.275C51.4667 38.875 51.6667 37.45 51.6667 36C51.6667 34.1 51.3037 32.212 50.5777 30.336C49.8517 28.46 48.7647 26.798 47.3167 25.35C45.8667 23.9 44.2287 22.825 42.4027 22.125C40.5767 21.425 38.7147 21.075 36.8167 21.075L39.6667 18.15L36.5167 15L27.9667 23.475L36.5167 31.95L39.6667 28.8L36.3667 25.5C37.7167 25.5 39.0917 25.763 40.4917 26.289C41.8917 26.815 43.0917 27.577 44.0918 28.575C45.0918 29.575 45.8547 30.725 46.3807 32.025C46.9067 33.325 47.1687 34.625 47.1667 35.925C47.1667 36.775 47.0537 37.625 46.8277 38.475C46.6017 39.325 46.2897 40.15 45.8917 40.95L49.1917 44.25ZM36.6667 66C32.5167 66 28.6167 65.212 24.9667 63.636C21.3167 62.06 18.1417 59.923 15.4417 57.225C12.7417 54.525 10.6047 51.35 9.03075 47.7C7.45675 44.05 6.66875 40.15 6.66675 36C6.66675 31.85 7.45475 27.95 9.03075 24.3C10.6067 20.65 12.7437 17.475 15.4417 14.775C18.1417 12.075 21.3167 9.938 24.9667 8.364C28.6167 6.79 32.5167 6.002 36.6667 6C40.8167 6 44.7167 6.788 48.3667 8.364C52.0167 9.94 55.1917 12.077 57.8918 14.775C60.5918 17.475 62.7297 20.65 64.3057 24.3C65.8817 27.95 66.6687 31.85 66.6667 36C66.6667 40.15 65.8787 44.05 64.3027 47.7C62.7267 51.35 60.5898 54.525 57.8918 57.225C55.1917 59.925 52.0167 62.063 48.3667 63.639C44.7167 65.215 40.8167 66.002 36.6667 66ZM36.6667 60C43.3667 60 49.0417 57.675 53.6917 53.025C58.3417 48.375 60.6667 42.7 60.6667 36C60.6667 29.3 58.3417 23.625 53.6917 18.975C49.0417 14.325 43.3667 12 36.6667 12C29.9667 12 24.2917 14.325 19.6417 18.975C14.9917 23.625 12.6667 29.3 12.6667 36C12.6667 42.7 14.9917 48.375 19.6417 53.025C24.2917 57.675 29.9667 60 36.6667 60Z" fill="#1E93FF"/>
</svg>
