<svg width="72" height="73" viewBox="0 0 72 73" fill="none" xmlns="http://www.w3.org/2000/svg">
<path d="M48 24.5C51.3 24.5 54 27.2 54 30.5V60.5C54 63.8 51.3 66.5 48 66.5H12C8.7 66.5 6 63.8 6 60.5V30.5C6 27.2 8.7 24.5 12 24.5H39V18.5C39 13.4 35.1 9.5 30 9.5C24.9 9.5 21 13.4 21 18.5H15C15 10.1 21.6 3.5 30 3.5C38.4 3.5 45 10.1 45 18.5V24.5H48ZM30 51.5C33.3 51.5 36 48.8 36 45.5C36 42.2 33.3 39.5 30 39.5C26.7 39.5 24 42.2 24 45.5C24 48.8 26.7 51.5 30 51.5ZM66 39.5H60V21.5H66V39.5ZM66 51.5H60V45.5H66V51.5Z" fill="#40FF62"/>
</svg>
