<svg width="73" height="72" viewBox="0 0 73 72" fill="none" xmlns="http://www.w3.org/2000/svg">
<path d="M48.3335 24C51.6335 24 54.3335 26.7 54.3335 30V60C54.3335 63.3 51.6335 66 48.3335 66H12.3335C9.0335 66 6.3335 63.3 6.3335 60V30C6.3335 26.7 9.0335 24 12.3335 24H39.3335V18C39.3335 12.9 35.4335 9 30.3335 9C25.2335 9 21.3335 12.9 21.3335 18H15.3335C15.3335 9.6 21.9335 3 30.3335 3C38.7335 3 45.3335 9.6 45.3335 18V24H48.3335ZM30.3335 51C33.6335 51 36.3335 48.3 36.3335 45C36.3335 41.7 33.6335 39 30.3335 39C27.0335 39 24.3335 41.7 24.3335 45C24.3335 48.3 27.0335 51 30.3335 51ZM66.3335 39H60.3335V21H66.3335V39ZM66.3335 51H60.3335V45H66.3335V51Z" fill="#1E93FF"/>
</svg>
