<svg width="28" height="28" viewBox="0 0 28 28" fill="none" xmlns="http://www.w3.org/2000/svg">
<circle cx="14" cy="14.5" r="12" fill="white"/>
<path d="M12.18 20.48L21.345 11.315L19.525 9.495L12.18 16.84L8.475 13.135L6.655 14.955L12.18 20.48ZM14 27.5C12.2017 27.5 10.5117 27.1585 8.93 26.4756C7.34833 25.7927 5.9725 24.8666 4.8025 23.6975C3.6325 22.5275 2.70647 21.1517 2.0244 19.57C1.34233 17.9883 1.00087 16.2983 1 14.5C1 12.7017 1.34147 11.0117 2.0244 9.43C2.70733 7.84833 3.63337 6.4725 4.8025 5.3025C5.9725 4.1325 7.34833 3.20647 8.93 2.5244C10.5117 1.84233 12.2017 1.50087 14 1.5C15.7983 1.5 17.4883 1.84147 19.07 2.5244C20.6517 3.20733 22.0275 4.13337 23.1975 5.3025C24.3675 6.4725 25.294 7.84833 25.9769 9.43C26.6598 11.0117 27.0009 12.7017 27 14.5C27 16.2983 26.6585 17.9883 25.9756 19.57C25.2927 21.1517 24.3666 22.5275 23.1975 23.6975C22.0275 24.8675 20.6517 25.794 19.07 26.4769C17.4883 27.1598 15.7983 27.5009 14 27.5ZM14 24.9C16.9033 24.9 19.3625 23.8925 21.3775 21.8775C23.3925 19.8625 24.4 17.4033 24.4 14.5C24.4 11.5967 23.3925 9.1375 21.3775 7.1225C19.3625 5.1075 16.9033 4.1 14 4.1C11.0967 4.1 8.6375 5.1075 6.6225 7.1225C4.6075 9.1375 3.6 11.5967 3.6 14.5C3.6 17.4033 4.6075 19.8625 6.6225 21.8775C8.6375 23.8925 11.0967 24.9 14 24.9Z" fill="#40FF62"/>
</svg>
