<svg width="28" height="20" viewBox="0 0 28 20" fill="none" xmlns="http://www.w3.org/2000/svg">
<g clip-path="url(#clip0_3078_541)">
<path d="M11.1541 13.5214L18.7437 9.59973L11.1541 5.63196V13.5214ZM14.0562 -0.000153033C15.813 -0.000153033 17.5098 0.0234548 19.1464 0.0706705C20.783 0.117886 21.9829 0.167572 22.7461 0.219729L23.8908 0.285612C23.9012 0.285612 23.989 0.293572 24.1543 0.309494C24.2918 0.3202 24.4154 0.33667 24.5372 0.359729L24.5158 0.356435C24.5894 0.372357 24.7124 0.395965 24.8848 0.427259C25.0536 0.456082 25.2043 0.499729 25.3468 0.557376L25.3319 0.552435C25.4577 0.604592 25.6043 0.67267 25.7717 0.75667C25.957 0.850553 26.1168 0.95267 26.265 1.06714L26.2584 1.0622C26.4256 1.19232 26.5738 1.3282 26.7105 1.47561L26.713 1.47808C26.797 1.5662 26.8769 1.66091 26.9502 1.75973L26.9559 1.76796C27.1223 2.02985 27.2755 2.33291 27.3982 2.64996L27.4105 2.6862C27.6082 3.14655 27.7539 3.6802 27.8231 4.23855L27.8264 4.26738C27.9099 4.93663 27.9757 5.65036 28.0241 6.40855C28.0724 7.16675 28.1012 7.75969 28.1105 8.18738V10.9478L28.1114 11.1644C28.1114 12.6904 28.0084 14.1934 27.8091 15.665L27.8281 15.4937C27.7628 16.0437 27.6248 16.5826 27.4179 17.0963L27.4328 17.0543C27.3086 17.4019 27.1367 17.7306 26.9222 18.031L26.9304 18.0187L26.7114 18.2822C26.5739 18.4305 26.4246 18.5674 26.265 18.6915L26.2568 18.6981C26.1109 18.8116 25.9533 18.909 25.7865 18.9888L25.7709 18.9954C25.6034 19.0739 25.4569 19.1398 25.3311 19.193C25.1913 19.2495 25.0458 19.2909 24.8971 19.3166L24.8839 19.3182C24.7116 19.3495 24.5861 19.3731 24.5076 19.389C24.4291 19.4049 24.3088 19.4206 24.1469 19.436C23.9849 19.4513 23.8987 19.4593 23.8883 19.4598C21.2667 19.6641 17.9899 19.7662 14.0578 19.7662C11.893 19.7453 10.0132 19.7113 8.4183 19.6641C6.8234 19.6169 5.77504 19.5776 5.27324 19.5463L4.50406 19.4804L3.93912 19.4146C3.63338 19.3777 3.33027 19.3216 3.03159 19.2466L3.08265 19.2573C2.79729 19.1693 2.52076 19.0548 2.25665 18.9155L2.28301 18.9278C1.95281 18.7668 1.65323 18.5494 1.39771 18.2855L1.39689 18.2847C1.31213 18.1957 1.23293 18.1017 1.15971 18.003L1.15395 17.9948C0.978372 17.7158 0.830267 17.4204 0.711712 17.1128L0.699359 17.0766C0.490275 16.5808 0.351406 16.0583 0.28677 15.5242L0.283476 15.4954C0.200025 14.8261 0.134143 14.1124 0.0858293 13.3542C0.0375155 12.596 0.00869202 12.0031 -0.000641314 11.5754V8.81491L-0.00146484 8.59832C-0.00146484 7.07232 0.101476 5.56938 0.30077 4.09773L0.281829 4.26902C0.347142 3.71906 0.485048 3.18017 0.691947 2.66643L0.677123 2.70844C0.810535 2.34032 0.980182 2.02161 1.18771 1.73173L1.17948 1.74408L1.39854 1.48055C1.53771 1.33067 1.68595 1.19479 1.84489 1.07126L1.85312 1.06467C1.99477 0.954318 2.15371 0.853023 2.32254 0.766553L2.33983 0.758318C2.50728 0.674867 2.65387 0.606788 2.77959 0.554082C2.91947 0.497617 3.06495 0.456207 3.21359 0.430553L3.22677 0.428906C3.39916 0.397612 3.52214 0.374004 3.59571 0.358082C3.69536 0.338318 3.81889 0.321847 3.94489 0.311965L3.95724 0.311141C4.12469 0.295219 4.21254 0.287259 4.22077 0.287259C6.84673 0.0951019 10.126 -0.000976562 14.0587 -0.000976562L14.0562 -0.000153033Z" fill="#40FF62"/>
</g>
<defs>
<clipPath id="clip0_3078_541">
<rect width="28" height="19.7647" fill="white"/>
</clipPath>
</defs>
</svg>
