<svg id="a95e9543-10ad-460b-85e0-d4018d5a4e9a" data-name="Capa 1" xmlns="http://www.w3.org/2000/svg" viewBox="0 0 1080 1080"><defs><style>.aa0264cc-f06b-4458-9c58-6f2e18bd1c2d{fill:#f6f6f6;}.a17d2097-4141-403f-bdda-019e37d49f30{fill:#fff;}.e013550b-f4b6-44ab-aa95-c963d2cc14a1{fill:#989aa6;}.a000566d-8a53-4e6c-9d71-68f7fdfe32de{fill:#2fc8f2;}.ef51e055-8077-4567-b6f1-6279cf9b8f15{fill:#2caae6;}.b2091fe2-f9c9-409a-afcd-cdebb2d8dd83{fill:#282c3f;}.a1b24191-ad66-477c-9825-e971a4065a9b{fill:#ededed;}.a0d57477-0cf9-454c-a1db-22e0a4906490{fill:#52576a;}.ab9f7e59-eca7-4d4b-a0e2-471cf360e5d0{fill:#30354c;}.ec3260f9-75a9-44dd-9f97-72444efe9d76{fill:#a09cad;}.b740a2d6-84b0-4ca4-8838-4fab14bda780{fill:#b8b5c6;}</style></defs><title>ICONS S2R</title><path class="aa0264cc-f06b-4458-9c58-6f2e18bd1c2d" d="M878.5,419.33c-24-65.71,2.54-170.87-51.43-216-52.32-43.74-152.13-6.59-224.42-19.41s-150.16-81.49-214.6-58.46C321.58,149.23,309.5,257,263.85,310.3c-44.25,51.71-150.43,80.54-163.4,152s76.44,135,99.74,198.67c24,65.71-2.54,170.86,51.43,216,52.32,43.74,151.77,1,224.06,13.87s150.52,87,215,64C757.11,931.05,769.19,823.33,814.84,770c44.25-51.71,150.43-80.53,163.4-152S901.8,483,878.5,419.33Z"/><circle class="a17d2097-4141-403f-bdda-019e37d49f30" cx="431.92" cy="906.81" r="52.4"/><path class="e013550b-f4b6-44ab-aa95-c963d2cc14a1" d="M431.92,964.45a57.64,57.64,0,1,1,57.64-57.64A57.7,57.7,0,0,1,431.92,964.45Zm0-104.8a47.16,47.16,0,1,0,47.16,47.16A47.21,47.21,0,0,0,431.92,859.65Z"/><path class="e013550b-f4b6-44ab-aa95-c963d2cc14a1" d="M473.32,873.06l-41.87,41.87-13.05-13a8,8,0,1,0-11.33,11.32l18.72,18.72a8,8,0,0,0,11.32,0l44.83-44.46Z"/><circle class="a17d2097-4141-403f-bdda-019e37d49f30" cx="885.2" cy="398.52" r="52.4"/><path class="e013550b-f4b6-44ab-aa95-c963d2cc14a1" d="M885.2,456.16a57.65,57.65,0,1,1,57.64-57.64A57.71,57.71,0,0,1,885.2,456.16Zm0-104.81a47.17,47.17,0,1,0,47.16,47.17A47.22,47.22,0,0,0,885.2,351.35Z"/><path class="e013550b-f4b6-44ab-aa95-c963d2cc14a1" d="M925.28,364.77l-41.87,41.86-13-13.05A8,8,0,0,0,859,404.91l18.71,18.71a8,8,0,0,0,11.33,0l44.83-44.46Z"/><circle class="a17d2097-4141-403f-bdda-019e37d49f30" cx="932.36" cy="786.29" r="52.4"/><path class="e013550b-f4b6-44ab-aa95-c963d2cc14a1" d="M932.36,843.93A57.64,57.64,0,1,1,990,786.29,57.7,57.7,0,0,1,932.36,843.93Zm0-104.8a47.16,47.16,0,1,0,47.16,47.16A47.21,47.21,0,0,0,932.36,739.13Z"/><path class="e013550b-f4b6-44ab-aa95-c963d2cc14a1" d="M972.44,752.54,930.57,794.4l-13.05-13a8,8,0,1,0-11.32,11.33l18.71,18.71a8,8,0,0,0,11.33,0l44.83-44.45Z"/><circle class="a17d2097-4141-403f-bdda-019e37d49f30" cx="631.05" cy="173.19" r="52.4"/><path class="e013550b-f4b6-44ab-aa95-c963d2cc14a1" d="M632.36,230.83A57.64,57.64,0,1,1,690,173.19,57.7,57.7,0,0,1,632.36,230.83Zm0-104.8a47.16,47.16,0,1,0,47.16,47.16A47.21,47.21,0,0,0,632.36,126Z"/><path class="e013550b-f4b6-44ab-aa95-c963d2cc14a1" d="M672.44,139.44,630.57,181.3l-13.05-13.05a8,8,0,0,0-11.32,11.33l18.71,18.71a8,8,0,0,0,11.33,0l44.83-44.45Z"/><circle class="a17d2097-4141-403f-bdda-019e37d49f30" cx="172.53" cy="293.71" r="52.4"/><path class="e013550b-f4b6-44ab-aa95-c963d2cc14a1" d="M173.84,351.35a57.64,57.64,0,1,1,57.64-57.64A57.7,57.7,0,0,1,173.84,351.35Zm0-104.8A47.16,47.16,0,1,0,221,293.71,47.22,47.22,0,0,0,173.84,246.55Z"/><path class="e013550b-f4b6-44ab-aa95-c963d2cc14a1" d="M213.93,260l-41.87,41.87L159,288.78a8,8,0,1,0-11.33,11.32l18.72,18.72a8,8,0,0,0,11.32,0l44.83-44.46Z"/><circle class="a17d2097-4141-403f-bdda-019e37d49f30" cx="146.33" cy="639.56" r="52.4"/><path class="e013550b-f4b6-44ab-aa95-c963d2cc14a1" d="M147.64,697.21a57.65,57.65,0,1,1,57.64-57.65A57.71,57.71,0,0,1,147.64,697.21Zm0-104.81a47.16,47.16,0,1,0,47.16,47.16A47.22,47.22,0,0,0,147.64,592.4Z"/><path class="e013550b-f4b6-44ab-aa95-c963d2cc14a1" d="M187.73,605.81l-41.87,41.87-13.05-13A8,8,0,1,0,121.48,646l18.72,18.72a8,8,0,0,0,11.32,0l44.83-44.46Z"/><rect class="a000566d-8a53-4e6c-9d71-68f7fdfe32de" x="198.73" y="199.39" width="524.02" height="555.46"/><path class="ef51e055-8077-4567-b6f1-6279cf9b8f15" d="M539.34,199.39,198.73,540V754.85h524V199.39Z"/><path class="b2091fe2-f9c9-409a-afcd-cdebb2d8dd83" d="M722.75,760.09h-524a5.25,5.25,0,0,1-5.24-5.24V440.44a5.24,5.24,0,0,1,10.48,0V749.61H717.51v-545H204V409a5.24,5.24,0,0,1-10.48,0V199.39a5.25,5.25,0,0,1,5.24-5.24h524a5.24,5.24,0,0,1,5.24,5.24V754.85A5.24,5.24,0,0,1,722.75,760.09Z"/><path class="a17d2097-4141-403f-bdda-019e37d49f30" d="M790.87,817.73h-524V367.07l104.8-104.8H790.87Z"/><path class="a1b24191-ad66-477c-9825-e971a4065a9b" d="M790.87,817.73h-524V786.29l524-524h0Z"/><path class="b2091fe2-f9c9-409a-afcd-cdebb2d8dd83" d="M701.79,823H266.86a5.24,5.24,0,0,1-5.24-5.24V367.07a5.25,5.25,0,0,1,1.53-3.7L368,258.57a5.24,5.24,0,0,1,3.71-1.54H790.87a5.24,5.24,0,0,1,5.24,5.24v283a5.24,5.24,0,0,1-10.48,0V267.51H373.83L272.1,369.24V812.49H701.79a5.24,5.24,0,0,1,0,10.48Z"/><polygon class="a0d57477-0cf9-454c-a1db-22e0a4906490" points="371.66 262.27 266.86 367.07 371.66 367.07 371.66 262.27"/><polygon class="ab9f7e59-eca7-4d4b-a0e2-471cf360e5d0" points="308.78 367.07 371.66 367.07 371.66 304.19 308.78 367.07"/><path class="b2091fe2-f9c9-409a-afcd-cdebb2d8dd83" d="M371.66,372.31H266.86a5.23,5.23,0,0,1-3.71-8.94L368,258.57a5.24,5.24,0,0,1,8.95,3.7v104.8A5.23,5.23,0,0,1,371.66,372.31Zm-92.15-10.48h86.91V274.92Z"/><path class="b2091fe2-f9c9-409a-afcd-cdebb2d8dd83" d="M607.47,361.83H450.26a5.24,5.24,0,1,1,0-10.48H607.47a5.24,5.24,0,1,1,0,10.48Z"/><path class="b2091fe2-f9c9-409a-afcd-cdebb2d8dd83" d="M733.23,403.76H555.07a5.24,5.24,0,0,1,0-10.48H733.23a5.24,5.24,0,0,1,0,10.48Z"/><path class="b2091fe2-f9c9-409a-afcd-cdebb2d8dd83" d="M523.62,403.76H324.5a5.24,5.24,0,0,1,0-10.48H523.62a5.24,5.24,0,0,1,0,10.48Z"/><path class="b2091fe2-f9c9-409a-afcd-cdebb2d8dd83" d="M733.23,445.68H633.67a5.24,5.24,0,0,1,0-10.48h99.56a5.24,5.24,0,0,1,0,10.48Z"/><path class="b2091fe2-f9c9-409a-afcd-cdebb2d8dd83" d="M602.23,445.68H324.5a5.24,5.24,0,0,1,0-10.48H602.23a5.24,5.24,0,0,1,0,10.48Z"/><path class="b2091fe2-f9c9-409a-afcd-cdebb2d8dd83" d="M680.83,487.6H486.94a5.24,5.24,0,1,1,0-10.48H680.83a5.24,5.24,0,0,1,0,10.48Z"/><path class="b2091fe2-f9c9-409a-afcd-cdebb2d8dd83" d="M455.5,487.6h-131a5.24,5.24,0,0,1,0-10.48h131a5.24,5.24,0,0,1,0,10.48Z"/><path class="b2091fe2-f9c9-409a-afcd-cdebb2d8dd83" d="M733.23,529.52h-152a5.24,5.24,0,0,1,0-10.48h152a5.24,5.24,0,0,1,0,10.48Z"/><path class="b2091fe2-f9c9-409a-afcd-cdebb2d8dd83" d="M549.83,529.52H324.5a5.24,5.24,0,0,1,0-10.48H549.83a5.24,5.24,0,1,1,0,10.48Z"/><path class="b2091fe2-f9c9-409a-afcd-cdebb2d8dd83" d="M607.47,571.44H518.38a5.24,5.24,0,1,1,0-10.48h89.09a5.24,5.24,0,0,1,0,10.48Z"/><path class="b2091fe2-f9c9-409a-afcd-cdebb2d8dd83" d="M486.94,571.44H324.5a5.24,5.24,0,0,1,0-10.48H486.94a5.24,5.24,0,1,1,0,10.48Z"/><path class="b2091fe2-f9c9-409a-afcd-cdebb2d8dd83" d="M450.26,613.36H324.5a5.24,5.24,0,0,1,0-10.48H450.26a5.24,5.24,0,1,1,0,10.48Z"/><path class="b2091fe2-f9c9-409a-afcd-cdebb2d8dd83" d="M371.66,681.48H324.5a5.24,5.24,0,0,1,0-10.48h47.16a5.24,5.24,0,0,1,0,10.48Z"/><path class="b2091fe2-f9c9-409a-afcd-cdebb2d8dd83" d="M413.58,712.93H324.5a5.24,5.24,0,0,1,0-10.48h89.08a5.24,5.24,0,1,1,0,10.48Z"/><path class="ec3260f9-75a9-44dd-9f97-72444efe9d76" d="M733.23,692h52.4V854.41a26.2,26.2,0,0,1-26.2,26.2h0a26.2,26.2,0,0,1-26.2-26.2Z"/><path class="b740a2d6-84b0-4ca4-8838-4fab14bda780" d="M785.63,692h0V854.41a26.2,26.2,0,0,1-26.2,26.2h0a26.2,26.2,0,0,1-26.2-26.2v-110Z"/><rect class="a0d57477-0cf9-454c-a1db-22e0a4906490" x="680.83" y="576.68" width="157.21" height="115.28"/><path class="ab9f7e59-eca7-4d4b-a0e2-471cf360e5d0" d="M785.63,576.68H838V692H680.83V681.48Z"/><rect class="ec3260f9-75a9-44dd-9f97-72444efe9d76" x="638.91" y="555.72" width="41.92" height="157.21" rx="5.24"/><rect class="ec3260f9-75a9-44dd-9f97-72444efe9d76" x="838.03" y="555.72" width="41.92" height="157.21" rx="5.24"/><path class="b740a2d6-84b0-4ca4-8838-4fab14bda780" d="M644.15,555.72h31.44a5.24,5.24,0,0,1,5.24,5.24V676.24l-36.68,36.69h0a5.24,5.24,0,0,1-5.24-5.24V561A5.24,5.24,0,0,1,644.15,555.72Z"/><path class="b740a2d6-84b0-4ca4-8838-4fab14bda780" d="M843.28,555.72h31.44A5.25,5.25,0,0,1,880,561V676.24l-36.68,36.69h0a5.25,5.25,0,0,1-5.25-5.24V561A5.25,5.25,0,0,1,843.28,555.72Z"/><path class="b2091fe2-f9c9-409a-afcd-cdebb2d8dd83" d="M759.43,885.85A31.47,31.47,0,0,1,728,854.41V692a5.25,5.25,0,0,1,5.24-5.25h52.4a5.24,5.24,0,0,1,5.24,5.25V854.41A31.47,31.47,0,0,1,759.43,885.85Zm-21-188.64v157.2a21,21,0,0,0,41.92,0V697.21Z"/><path class="b2091fe2-f9c9-409a-afcd-cdebb2d8dd83" d="M838,697.21H680.83a5.24,5.24,0,0,1-5.24-5.24V576.68a5.24,5.24,0,0,1,5.24-5.24H838a5.25,5.25,0,0,1,5.25,5.24V692A5.25,5.25,0,0,1,838,697.21Zm-152-10.49H832.79V581.92H686.07Z"/><path class="b2091fe2-f9c9-409a-afcd-cdebb2d8dd83" d="M675.59,718.17H644.15a10.49,10.49,0,0,1-10.48-10.48V561a10.49,10.49,0,0,1,10.48-10.48h31.44A10.49,10.49,0,0,1,686.07,561V707.69A10.49,10.49,0,0,1,675.59,718.17ZM644.15,561h0V707.69h31.44V561Z"/><path class="b2091fe2-f9c9-409a-afcd-cdebb2d8dd83" d="M874.72,718.17H843.28a10.5,10.5,0,0,1-10.49-10.48V561a10.5,10.5,0,0,1,10.49-10.48h31.44A10.5,10.5,0,0,1,885.2,561V707.69A10.5,10.5,0,0,1,874.72,718.17ZM843.28,561h0V707.69h31.44V561Z"/><path class="a000566d-8a53-4e6c-9d71-68f7fdfe32de" d="M539.34,623.84a78.2,78.2,0,0,1,47.11,15.78A78.54,78.54,0,1,0,476.52,749.55a78.5,78.5,0,0,1,62.82-125.71Z"/><path class="ef51e055-8077-4567-b6f1-6279cf9b8f15" d="M602.23,686.72a78.19,78.19,0,0,0-15.78-47.1A78.5,78.5,0,0,0,476.52,749.55a78.5,78.5,0,0,0,125.71-62.83Z"/><path class="b2091fe2-f9c9-409a-afcd-cdebb2d8dd83" d="M523.62,770.57a83.85,83.85,0,1,1,83.85-83.85A83.94,83.94,0,0,1,523.62,770.57Zm0-157.21A73.37,73.37,0,1,0,597,686.72,73.44,73.44,0,0,0,523.62,613.36Z"/><path class="a17d2097-4141-403f-bdda-019e37d49f30" d="M523.62,736.51c-5.94,0-10.4-3.44-13.66-5.94a21.86,21.86,0,0,0-3.5-2.4,22.82,22.82,0,0,0-4.47-.88c-4.23-.58-9.5-1.3-13.57-5.37s-4.79-9.33-5.36-13.56a22.67,22.67,0,0,0-.88-4.47,21.86,21.86,0,0,0-2.4-3.5c-2.5-3.25-5.94-7.71-5.94-13.67s3.44-10.41,5.94-13.66a21.86,21.86,0,0,0,2.4-3.5,22.67,22.67,0,0,0,.88-4.47c.57-4.23,1.29-9.5,5.36-13.56s9.34-4.79,13.57-5.37a22.4,22.4,0,0,0,4.46-.88,21.44,21.44,0,0,0,3.51-2.4c3.26-2.5,7.72-5.94,13.66-5.94s10.41,3.44,13.67,5.94a21.86,21.86,0,0,0,3.5,2.4,22.82,22.82,0,0,0,4.47.88c4.23.58,9.5,1.3,13.57,5.37s4.79,9.33,5.36,13.56a22,22,0,0,0,.88,4.47,22.38,22.38,0,0,0,2.39,3.5c2.51,3.25,5.95,7.71,5.95,13.66s-3.44,10.42-5.95,13.67a22.38,22.38,0,0,0-2.39,3.5,22,22,0,0,0-.88,4.47c-.57,4.23-1.3,9.5-5.36,13.56s-9.34,4.79-13.57,5.37a22.4,22.4,0,0,0-4.46.88,21.44,21.44,0,0,0-3.51,2.4C534,733.07,529.57,736.51,523.62,736.51Zm0-83.85c-.7.11-2.79,1.72-4,2.68a31,31,0,0,1-7.08,4.46,32.73,32.73,0,0,1-8.35,1.93c-1.5.21-4,.55-4.67,1a27.23,27.23,0,0,0-.81,4.5,33.37,33.37,0,0,1-1.94,8.36,31.15,31.15,0,0,1-4.46,7.07c-1,1.25-2.57,3.33-2.68,4.12.11.7,1.72,2.78,2.68,4a31.15,31.15,0,0,1,4.46,7.07,33.37,33.37,0,0,1,1.94,8.36c.2,1.5.54,4,1,4.67a28.51,28.51,0,0,0,4.51.82,32.9,32.9,0,0,1,8.36,1.93,31.15,31.15,0,0,1,7.07,4.46c1.24,1,3.33,2.57,4.12,2.68.7-.11,2.78-1.72,4-2.68a31.15,31.15,0,0,1,7.07-4.46,32.9,32.9,0,0,1,8.36-1.93c1.5-.21,4-.55,4.67-1a27.23,27.23,0,0,0,.81-4.5,32.93,32.93,0,0,1,1.94-8.36A31.15,31.15,0,0,1,555,690.8c1-1.22,2.51-3.26,2.67-4.08-.16-.81-1.72-2.85-2.67-4.07a31.15,31.15,0,0,1-4.46-7.07,32.93,32.93,0,0,1-1.94-8.36c-.2-1.5-.54-4-1-4.67a28.12,28.12,0,0,0-4.5-.82,32.9,32.9,0,0,1-8.36-1.93,31.15,31.15,0,0,1-7.07-4.46C526.45,654.38,524.37,652.77,523.58,652.66Zm34.11,34.11h0Z"/><path class="ab9f7e59-eca7-4d4b-a0e2-471cf360e5d0" d="M434.54,770.57c-12.76,0-19.53-6.1-24.48-10.55-4.09-3.68-5.93-5.17-10.46-5.17s-6.37,1.49-10.46,5.17c-4.95,4.45-11.72,10.55-24.48,10.55s-19.53-6.1-24.47-10.55c-4.09-3.68-5.92-5.17-10.45-5.17a10.48,10.48,0,0,1,0-21c12.75,0,19.53,6.1,24.47,10.55,4.08,3.68,5.92,5.17,10.45,5.17s6.37-1.49,10.46-5.17c4.95-4.46,11.72-10.55,24.48-10.55s19.53,6.09,24.48,10.55c4.09,3.68,5.93,5.17,10.46,5.17a10.48,10.48,0,0,1,0,21Z"/></svg>