<svg id="ae263c31-8448-4290-ab3c-40c97295e2e4" data-name="Capa 1" xmlns="http://www.w3.org/2000/svg" viewBox="0 0 1080 1080"><defs><style>.baa8035a-8c8f-42af-b919-566e1caecca3{fill:#f6f6f6;}.a1f3456b-20f1-4772-9445-b3b0f21a9c50{fill:#989aa6;}.a96c788f-2488-4e9d-a6a9-3d533cb57696{fill:#a09cad;}.f0979d11-6107-4ca6-88b1-917cb1cadc6b{fill:#f7f7f7;}.bff268e8-1df4-458b-bfe8-a3e202388675{fill:#fff;}.a2931c4b-0a82-418e-981f-45b71bcca530{fill:#282c3f;}.b8e92ac2-2e08-47dd-9413-b9657ea827bc{fill:#30354c;}.ec13a771-d8a5-4798-93da-7d2da9806118{fill:#52576a;}.b667ce7d-fede-4210-98db-d65814186563{fill:#2fc8f2;}.f15bf77b-79f0-4577-8c28-3cd1a892a827{fill:#2caae6;}</style></defs><title>ICONS S2R</title><path class="baa8035a-8c8f-42af-b919-566e1caecca3" d="M961.57,437.44c-16.92-69.3-121.79-91.23-167.9-139.3C746.1,248.55,727.85,143.63,661.84,124.3c-64-18.74-135.47,58.71-204.91,75.6s-168.62-19-216.78,27c-49.69,47.48-17.51,149-36.88,214.89C184.5,505.62,101.5,573.26,118.43,642.56s121.79,91.23,167.9,139.3c47.57,49.59,65.82,154.51,131.83,173.84,64,18.74,135.47-58.71,204.91-75.6s168.62,19,216.78-27c49.69-47.48,17.51-149,36.88-214.89C895.5,574.37,978.5,506.74,961.57,437.44Z"/><path class="a1f3456b-20f1-4772-9445-b3b0f21a9c50" d="M173.72,466.74H95.23a5.23,5.23,0,1,1,0-10.46h78.49a5.23,5.23,0,0,1,0,10.46Z"/><path class="a1f3456b-20f1-4772-9445-b3b0f21a9c50" d="M252.21,435.35H173.72a5.24,5.24,0,0,1,0-10.47h78.49a5.24,5.24,0,0,1,0,10.47Z"/><path class="a1f3456b-20f1-4772-9445-b3b0f21a9c50" d="M147.56,435.35H95.23a5.24,5.24,0,0,1,0-10.47h52.33a5.24,5.24,0,0,1,0,10.47Z"/><path class="a1f3456b-20f1-4772-9445-b3b0f21a9c50" d="M252.21,404h-157a5.23,5.23,0,0,1,0-10.46h157a5.23,5.23,0,0,1,0,10.46Z"/><path class="a1f3456b-20f1-4772-9445-b3b0f21a9c50" d="M173.72,759.77H95.23a5.24,5.24,0,0,1,0-10.47h78.49a5.24,5.24,0,0,1,0,10.47Z"/><path class="a1f3456b-20f1-4772-9445-b3b0f21a9c50" d="M252.21,728.37H147.56a5.23,5.23,0,1,1,0-10.46H252.21a5.23,5.23,0,0,1,0,10.46Z"/><path class="a1f3456b-20f1-4772-9445-b3b0f21a9c50" d="M121.4,728.37H95.23a5.23,5.23,0,1,1,0-10.46H121.4a5.23,5.23,0,0,1,0,10.46Z"/><path class="a1f3456b-20f1-4772-9445-b3b0f21a9c50" d="M932.44,393.49H827.79a5.24,5.24,0,0,1,0-10.47H932.44a5.24,5.24,0,0,1,0,10.47Z"/><path class="a1f3456b-20f1-4772-9445-b3b0f21a9c50" d="M984.77,362.09h-157a5.23,5.23,0,0,1,0-10.46h157a5.23,5.23,0,1,1,0,10.46Z"/><path class="a1f3456b-20f1-4772-9445-b3b0f21a9c50" d="M937.67,702.21H827.79a5.24,5.24,0,0,1,0-10.47H937.67a5.24,5.24,0,1,1,0,10.47Z"/><path class="a1f3456b-20f1-4772-9445-b3b0f21a9c50" d="M984.77,670.81H906.28a5.23,5.23,0,0,1,0-10.46h78.49a5.23,5.23,0,1,1,0,10.46Z"/><path class="a96c788f-2488-4e9d-a6a9-3d533cb57696" d="M880.12,670.81H827.79a5.23,5.23,0,0,1,0-10.46h52.33a5.23,5.23,0,0,1,0,10.46Z"/><path class="a1f3456b-20f1-4772-9445-b3b0f21a9c50" d="M984.77,639.42H932.44a5.24,5.24,0,0,1,0-10.47h52.33a5.24,5.24,0,0,1,0,10.47Z"/><path class="a1f3456b-20f1-4772-9445-b3b0f21a9c50" d="M906.28,639.42H827.79a5.24,5.24,0,0,1,0-10.47h78.49a5.24,5.24,0,0,1,0,10.47Z"/><path class="a1f3456b-20f1-4772-9445-b3b0f21a9c50" d="M670.81,963.84H560.93a5.24,5.24,0,0,1,0-10.47H670.81a5.24,5.24,0,1,1,0,10.47Z"/><path class="a1f3456b-20f1-4772-9445-b3b0f21a9c50" d="M717.91,932.44H639.42a5.23,5.23,0,1,1,0-10.46h78.49a5.23,5.23,0,0,1,0,10.46Z"/><path class="a1f3456b-20f1-4772-9445-b3b0f21a9c50" d="M613.26,932.44H560.93a5.23,5.23,0,1,1,0-10.46h52.33a5.23,5.23,0,0,1,0,10.46Z"/><path class="a1f3456b-20f1-4772-9445-b3b0f21a9c50" d="M717.91,901.05H665.58a5.24,5.24,0,0,1,0-10.47h52.33a5.24,5.24,0,0,1,0,10.47Z"/><path class="a1f3456b-20f1-4772-9445-b3b0f21a9c50" d="M639.42,901.05H560.93a5.24,5.24,0,0,1,0-10.47h78.49a5.24,5.24,0,0,1,0,10.47Z"/><path class="a1f3456b-20f1-4772-9445-b3b0f21a9c50" d="M519.07,126.63H440.58a5.24,5.24,0,0,1,0-10.47h78.49a5.24,5.24,0,0,1,0,10.47Z"/><path class="a1f3456b-20f1-4772-9445-b3b0f21a9c50" d="M414.42,126.63H362.09a5.24,5.24,0,0,1,0-10.47h52.33a5.24,5.24,0,0,1,0,10.47Z"/><path class="a1f3456b-20f1-4772-9445-b3b0f21a9c50" d="M456.28,158H362.09a5.23,5.23,0,1,1,0-10.46h94.19a5.23,5.23,0,1,1,0,10.46Z"/><path class="f0979d11-6107-4ca6-88b1-917cb1cadc6b" d="M252.21,199.88H827.79a52.33,52.33,0,0,1,52.33,52.33V827.79a0,0,0,0,1,0,0H199.88a0,0,0,0,1,0,0V252.21A52.33,52.33,0,0,1,252.21,199.88Z"/><path class="bff268e8-1df4-458b-bfe8-a3e202388675" d="M304.53,199.88H775.47a52.33,52.33,0,0,1,52.33,52.33V827.79a0,0,0,0,1,0,0H252.21a0,0,0,0,1,0,0V252.21A52.33,52.33,0,0,1,304.53,199.88Z"/><path class="a2931c4b-0a82-418e-981f-45b71bcca530" d="M252.21,833H199.88a5.23,5.23,0,0,1-5.23-5.23V252.21a57.62,57.62,0,0,1,57.56-57.56H629a5.24,5.24,0,1,1,0,10.47H252.21a47.14,47.14,0,0,0-47.09,47.09V822.56h47.09a5.23,5.23,0,0,1,0,10.46Z"/><path class="a2931c4b-0a82-418e-981f-45b71bcca530" d="M880.12,833H283.6a5.23,5.23,0,1,1,0-10.46H874.88V252.21a47.14,47.14,0,0,0-47.09-47.09H660.35a5.24,5.24,0,0,1,0-10.47H827.79a57.62,57.62,0,0,1,57.56,57.56V827.79A5.23,5.23,0,0,1,880.12,833Z"/><path class="b8e92ac2-2e08-47dd-9413-b9657ea827bc" d="M199.88,252.21V827.79a52.25,52.25,0,0,0,26.17,45.27V297.48A52.25,52.25,0,0,1,199.88,252.21Z"/><path class="ec13a771-d8a5-4798-93da-7d2da9806118" d="M226.05,873.06a52,52,0,0,0,26.16,7.06V304.53a52,52,0,0,1-26.16-7Z"/><path class="b8e92ac2-2e08-47dd-9413-b9657ea827bc" d="M854,297.48V873.06a52.25,52.25,0,0,0,26.17-45.27V252.21A52.25,52.25,0,0,1,854,297.48Z"/><path class="ec13a771-d8a5-4798-93da-7d2da9806118" d="M827.79,304.53V880.12A52,52,0,0,0,854,873.06V297.48A52,52,0,0,1,827.79,304.53Z"/><path class="a2931c4b-0a82-418e-981f-45b71bcca530" d="M252.21,885.35a57.62,57.62,0,0,1-57.56-57.56V252.21a5.24,5.24,0,0,1,10.47,0,47.14,47.14,0,0,0,47.09,47.09,5.23,5.23,0,0,1,5.23,5.23V880.12A5.23,5.23,0,0,1,252.21,885.35ZM205.12,285.27V827.79A47.15,47.15,0,0,0,247,874.59V309.53A57.58,57.58,0,0,1,205.12,285.27Z"/><path class="a2931c4b-0a82-418e-981f-45b71bcca530" d="M827.79,885.35a5.23,5.23,0,0,1-5.23-5.23V482.44a5.23,5.23,0,0,1,10.46,0V874.59a47.15,47.15,0,0,0,41.86-46.8V285.27A57.58,57.58,0,0,1,833,309.53V451.05a5.23,5.23,0,0,1-10.46,0V304.53a5.23,5.23,0,0,1,5.23-5.23,47.14,47.14,0,0,0,47.09-47.09,5.24,5.24,0,0,1,10.47,0V827.79A57.62,57.62,0,0,1,827.79,885.35Z"/><path class="b667ce7d-fede-4210-98db-d65814186563" d="M534.77,341.16A10.46,10.46,0,0,1,524.3,330.7V304.53a10.47,10.47,0,0,1,20.93,0V330.7A10.46,10.46,0,0,1,534.77,341.16Z"/><path class="b667ce7d-fede-4210-98db-d65814186563" d="M534.77,419.65a10.46,10.46,0,0,1-10.47-10.46v-31.4a10.47,10.47,0,0,1,20.93,0v31.4A10.46,10.46,0,0,1,534.77,419.65Z"/><path class="b667ce7d-fede-4210-98db-d65814186563" d="M534.77,733.6a10.46,10.46,0,0,1-10.47-10.46V618.49a10.47,10.47,0,1,1,20.93,0V723.14A10.46,10.46,0,0,1,534.77,733.6Z"/><path class="b667ce7d-fede-4210-98db-d65814186563" d="M534.77,576.63a10.47,10.47,0,0,1-10.47-10.47v-157a10.47,10.47,0,1,1,20.93,0v157A10.46,10.46,0,0,1,534.77,576.63Z"/><path class="b667ce7d-fede-4210-98db-d65814186563" d="M424.88,526.92H369.94a10.47,10.47,0,0,1,0-20.93h54.94a10.47,10.47,0,1,1,0,20.93Z"/><path class="b667ce7d-fede-4210-98db-d65814186563" d="M597.56,526.92H477.21a10.47,10.47,0,1,1,0-20.93H597.56a10.47,10.47,0,0,1,0,20.93Z"/><path class="b667ce7d-fede-4210-98db-d65814186563" d="M710.06,526.92H649.88a10.47,10.47,0,0,1,0-20.93h60.18a10.47,10.47,0,0,1,0,20.93Z"/><path class="f15bf77b-79f0-4577-8c28-3cd1a892a827" d="M404,660.35H362.09a10.46,10.46,0,0,1-10.46-10.47V304.53a10.46,10.46,0,0,1,10.46-10.46H534.77a10.47,10.47,0,0,1,0,20.93H372.56V639.42H404a10.47,10.47,0,1,1,0,20.93Z"/><path class="f15bf77b-79f0-4577-8c28-3cd1a892a827" d="M717.91,733.6H440.58a10.46,10.46,0,0,1-10.46-10.46V686.51a10.47,10.47,0,0,1,20.93,0v26.16H707.44v-293H534.77a10.47,10.47,0,1,1,0-20.93H717.91a10.46,10.46,0,0,1,10.46,10.47v314A10.46,10.46,0,0,1,717.91,733.6Z"/><path class="f15bf77b-79f0-4577-8c28-3cd1a892a827" d="M717.91,341.16a10.46,10.46,0,0,1-10.47-10.46V315h-15.7a10.47,10.47,0,0,1,0-20.93h26.17a10.46,10.46,0,0,1,10.46,10.46V330.7A10.46,10.46,0,0,1,717.91,341.16Z"/><path class="f15bf77b-79f0-4577-8c28-3cd1a892a827" d="M717.91,419.65a10.46,10.46,0,0,1-10.47-10.46v-31.4a10.47,10.47,0,0,1,20.93,0v31.4A10.46,10.46,0,0,1,717.91,419.65Z"/><path class="f15bf77b-79f0-4577-8c28-3cd1a892a827" d="M644.65,315H613.26a10.47,10.47,0,1,1,0-20.93h31.39a10.47,10.47,0,1,1,0,20.93Z"/><path class="f15bf77b-79f0-4577-8c28-3cd1a892a827" d="M566.16,315H534.77a10.47,10.47,0,1,1,0-20.93h31.39a10.47,10.47,0,1,1,0,20.93Z"/><path class="a1f3456b-20f1-4772-9445-b3b0f21a9c50" d="M780.7,304.53H749.3a5.23,5.23,0,1,1,0-10.46h31.4a5.23,5.23,0,0,1,0,10.46Z"/><path class="a1f3456b-20f1-4772-9445-b3b0f21a9c50" d="M780.7,733.6H749.3a5.23,5.23,0,1,1,0-10.46h31.4a5.23,5.23,0,0,1,0,10.46Z"/><path class="a1f3456b-20f1-4772-9445-b3b0f21a9c50" d="M765,733.6a5.23,5.23,0,0,1-5.23-5.23V299.3a5.23,5.23,0,1,1,10.46,0V728.37A5.23,5.23,0,0,1,765,733.6Z"/><path class="a1f3456b-20f1-4772-9445-b3b0f21a9c50" d="M356.86,278.37a5.23,5.23,0,0,1-5.23-5.23v-31.4a5.23,5.23,0,1,1,10.46,0v31.4A5.23,5.23,0,0,1,356.86,278.37Z"/><path class="a1f3456b-20f1-4772-9445-b3b0f21a9c50" d="M723.14,278.37a5.23,5.23,0,0,1-5.23-5.23v-31.4a5.23,5.23,0,0,1,10.46,0v31.4A5.23,5.23,0,0,1,723.14,278.37Z"/><path class="a1f3456b-20f1-4772-9445-b3b0f21a9c50" d="M723.14,262.67H356.86a5.23,5.23,0,0,1,0-10.46H723.14a5.23,5.23,0,1,1,0,10.46Z"/><path class="a1f3456b-20f1-4772-9445-b3b0f21a9c50" d="M435.35,791.16a5.23,5.23,0,0,1-5.23-5.23v-31.4a5.23,5.23,0,1,1,10.46,0v31.4A5.23,5.23,0,0,1,435.35,791.16Z"/><path class="a1f3456b-20f1-4772-9445-b3b0f21a9c50" d="M723.14,791.16a5.23,5.23,0,0,1-5.23-5.23v-31.4a5.23,5.23,0,0,1,10.46,0v31.4A5.23,5.23,0,0,1,723.14,791.16Z"/><path class="a1f3456b-20f1-4772-9445-b3b0f21a9c50" d="M723.14,775.47H435.35a5.24,5.24,0,0,1,0-10.47H723.14a5.24,5.24,0,0,1,0,10.47Z"/><path class="a1f3456b-20f1-4772-9445-b3b0f21a9c50" d="M330.7,304.53H299.3a5.23,5.23,0,0,1,0-10.46h31.4a5.23,5.23,0,1,1,0,10.46Z"/><path class="a1f3456b-20f1-4772-9445-b3b0f21a9c50" d="M330.7,660.35H299.3a5.24,5.24,0,0,1,0-10.47h31.4a5.24,5.24,0,0,1,0,10.47Z"/><path class="a1f3456b-20f1-4772-9445-b3b0f21a9c50" d="M315,660.35a5.23,5.23,0,0,1-5.23-5.23V299.3a5.23,5.23,0,1,1,10.46,0V655.12A5.23,5.23,0,0,1,315,660.35Z"/></svg>