<?xml version="1.0" encoding="UTF-8"?>
<svg id="Capa_1" data-name="Capa 1" xmlns="http://www.w3.org/2000/svg" viewBox="0 0 1080 1080">
  <defs>
    <style>
      .cls-1 {
        fill: #f6f6f6;
      }

      .cls-2 {
        fill: #ebebeb;
      }

      .cls-3 {
        fill: #fff;
      }

      .cls-4 {
        fill: #9799a4;
      }

      .cls-5 {
        fill: #9c9aaa;
      }

      .cls-6 {
        fill: #b5b3c3;
      }

      .cls-7 {
        fill: #65b3f0;
      }

      .cls-8 {
        fill: #33284d;
      }

      .cls-9 {
        fill: #2d3041;
      }

      .cls-10 {
        fill: #35384c;
      }

      .cls-11 {
        fill: #545869;
      }

      .cls-12 {
        fill: #76c6ef;
      }
    </style>
  </defs>
  <path class="cls-1" d="m944.8,448.4c-16.44-67.89-118.29-89.37-163.07-136.46-46.2-48.58-45.96-132.15-118.83-161.29-60.19-24.07-140.77,48.51-208.21,65.06-67.44,16.55-153.09-12.01-203.19,38.11-47.39,47.41-24.36,134.29-43.17,198.82-18.23,62.55-98.84,128.8-82.4,196.69,16.44,67.89,118.29,89.37,163.07,136.46,46.2,48.58,63.93,151.36,128.03,170.29,62.14,18.35,131.57-57.51,199.01-74.06,67.44-16.55,163.77,18.64,210.54-26.44,48.26-46.51,17.01-145.97,35.82-210.49,18.23-62.55,98.84-128.81,82.4-196.69Z"/>
  <circle class="cls-3" cx="189.79" cy="730.23" r="40.66"/>
  <path class="cls-4" d="m189.79,775.97c-25.22,0-45.74-20.52-45.74-45.74s20.52-45.74,45.74-45.74,45.74,20.52,45.74,45.74-20.52,45.74-45.74,45.74Zm0-81.31c-19.62,0-35.57,15.96-35.57,35.57s15.96,35.57,35.57,35.57,35.57-15.96,35.57-35.57-15.96-35.57-35.57-35.57Z"/>
  <circle class="cls-4" cx="189.79" cy="730.23" r="18.07"/>
  <circle class="cls-3" cx="144.05" cy="465.97" r="40.66"/>
  <path class="cls-4" d="m144.05,511.7c-25.22,0-45.74-20.52-45.74-45.74s20.52-45.74,45.74-45.74,45.74,20.52,45.74,45.74-20.52,45.74-45.74,45.74Zm0-81.31c-19.62,0-35.57,15.96-35.57,35.57s15.96,35.57,35.57,35.57,35.57-15.96,35.57-35.57-15.96-35.57-35.57-35.57Z"/>
  <circle class="cls-4" cx="144.05" cy="465.97" r="18.07"/>
  <circle class="cls-3" cx="880.94" cy="379.57" r="40.66"/>
  <path class="cls-4" d="m880.94,425.31c-25.22,0-45.74-20.52-45.74-45.74s20.52-45.74,45.74-45.74,45.74,20.52,45.74,45.74-20.52,45.74-45.74,45.74Zm0-81.31c-19.62,0-35.57,15.96-35.57,35.57s15.96,35.57,35.57,35.57,35.57-15.96,35.57-35.57-15.96-35.57-35.57-35.57Z"/>
  <circle class="cls-4" cx="880.94" cy="379.57" r="18.07"/>
  <circle class="cls-3" cx="926.67" cy="659.08" r="40.66"/>
  <path class="cls-4" d="m926.67,704.82c-25.22,0-45.74-20.52-45.74-45.74s20.52-45.74,45.74-45.74,45.74,20.52,45.74,45.74-20.52,45.74-45.74,45.74Zm0-81.31c-19.62,0-35.57,15.96-35.57,35.57s15.96,35.57,35.57,35.57,35.57-15.96,35.57-35.57-15.96-35.57-35.57-35.57Z"/>
  <circle class="cls-4" cx="926.67" cy="659.08" r="18.07"/>
  <circle class="cls-3" cx="723.4" cy="903.02" r="40.66"/>
  <path class="cls-4" d="m723.4,948.75c-25.22,0-45.74-20.52-45.74-45.74s20.52-45.74,45.74-45.74,45.74,20.52,45.74,45.74-20.52,45.74-45.74,45.74Zm0-81.31c-19.62,0-35.57,15.96-35.57,35.57s15.96,35.57,35.57,35.57,35.57-15.96,35.57-35.57-15.96-35.57-35.57-35.57Z"/>
  <circle class="cls-4" cx="723.4" cy="903.02" r="18.07"/>
  <circle class="cls-3" cx="393.07" cy="918.26" r="40.66"/>
  <path class="cls-4" d="m393.07,964c-25.22,0-45.74-20.52-45.74-45.74s20.52-45.74,45.74-45.74,45.74,20.52,45.74,45.74-20.52,45.74-45.74,45.74Zm0-81.31c-19.62,0-35.57,15.96-35.57,35.57s15.96,35.57,35.57,35.57,35.57-15.96,35.57-35.57-15.96-35.57-35.57-35.57Z"/>
  <circle class="cls-4" cx="393.07" cy="918.26" r="18.07"/>
  <circle class="cls-3" cx="631.92" cy="186.46" r="40.66"/>
  <path class="cls-4" d="m631.92,232.2c-25.22,0-45.74-20.52-45.74-45.74s20.52-45.74,45.74-45.74,45.74,20.52,45.74,45.74-20.52,45.74-45.74,45.74Zm0-81.31c-19.62,0-35.57,15.96-35.57,35.57s15.96,35.57,35.57,35.57,35.57-15.96,35.57-35.57-15.96-35.57-35.57-35.57Z"/>
  <circle class="cls-4" cx="631.92" cy="186.46" r="18.07"/>
  <circle class="cls-3" cx="428.64" cy="216.95" r="40.66"/>
  <path class="cls-4" d="m428.64,262.69c-25.22,0-45.74-20.52-45.74-45.74s20.52-45.74,45.74-45.74,45.74,20.52,45.74,45.74-20.52,45.74-45.74,45.74Zm0-81.31c-19.62,0-35.57,15.96-35.57,35.57s15.96,35.57,35.57,35.57,35.57-15.96,35.57-35.57-15.96-35.57-35.57-35.57Z"/>
  <circle class="cls-4" cx="428.64" cy="216.95" r="18.07"/>
  <path class="cls-6" d="m855.53,272.85H215.2c-5.61,0-10.16,4.55-10.16,10.16v579.34c0,5.61,4.55,10.16,10.16,10.16h264.26c2.81,0,5.08,2.27,5.08,5.08v5.08c0,5.61,4.55,10.16,10.16,10.16h81.31c5.61,0,10.16-4.55,10.16-10.16v-5.08c0-2.81,2.28-5.08,5.08-5.08h264.26c5.61,0,10.16-4.55,10.16-10.16V283.02c0-5.61-4.55-10.16-10.16-10.16Z"/>
  <path class="cls-5" d="m835.2,272.85H235.53c-5.61,0-10.16,4.55-10.16,10.16v559.02c0,5.61,4.55,10.16,10.16,10.16h259.18c2.81,0,5.08,2.27,5.08,5.08v5.08c0,5.61,4.55,10.16,10.16,10.16h50.82c5.61,0,10.16-4.55,10.16-10.16v-5.08c0-2.81,2.28-5.08,5.08-5.08h259.18c5.61,0,10.16-4.55,10.16-10.16V283.02c0-5.61-4.55-10.16-10.16-10.16Z"/>
  <path class="cls-8" d="m576.02,897.93h-81.31c-8.41,0-15.25-6.84-15.25-15.25v-5.08H215.2c-8.41,0-15.25-6.84-15.25-15.25V283.02c0-8.41,6.84-15.25,15.25-15.25h640.33c8.41,0,15.25,6.84,15.25,15.25v426.89c0,2.81-2.28,5.08-5.08,5.08s-5.08-2.27-5.08-5.08v-426.89c0-2.8-2.28-5.08-5.08-5.08H215.2c-2.8,0-5.08,2.28-5.08,5.08v579.34c0,2.8,2.28,5.08,5.08,5.08h264.26c5.61,0,10.16,4.56,10.16,10.16v5.08c0,2.8,2.28,5.08,5.08,5.08h81.31c2.8,0,5.08-2.28,5.08-5.08v-5.08c0-5.6,4.56-10.16,10.16-10.16h264.26c2.8,0,5.08-2.28,5.08-5.08v-121.97c0-2.81,2.28-5.08,5.08-5.08s5.08,2.27,5.08,5.08v121.97c0,8.41-6.84,15.25-15.25,15.25h-264.26v5.08c0,8.41-6.84,15.25-15.25,15.25Z"/>
  <path class="cls-2" d="m809.79,232.2v597.45h-229.79c-24.68,0-44.65,19.18-44.65,42.87V275.08c0-23.68,19.99-42.88,44.65-42.88h229.78Z"/>
  <path class="cls-2" d="m260.93,232.2v597.45h229.79c24.68,0,44.65,19.18,44.65,42.87V275.08c0-23.68-19.99-42.88-44.65-42.88h-229.78Z"/>
  <rect class="cls-3" x="580.01" y="232.2" width="229.78" height="597.45"/>
  <rect class="cls-3" x="260.93" y="232.2" width="229.78" height="597.45"/>
  <path class="cls-9" d="m535.35,877.61c-2.81,0-5.08-2.27-5.08-5.08V275.08c0-26.45,22.31-47.96,49.74-47.96h229.78c2.81,0,5.08,2.27,5.08,5.08v597.45c0,2.81-2.28,5.08-5.08,5.08h-229.79c-21.82,0-39.57,16.95-39.57,37.79,0,2.81-2.28,5.08-5.08,5.08Zm44.65-640.33c-21.82,0-39.57,16.96-39.57,37.8v568.43c9.09-11.5,23.45-18.93,39.57-18.93h224.7V237.28h-224.7Z"/>
  <path class="cls-9" d="m535.36,877.61c-2.81,0-5.08-2.27-5.08-5.08,0-20.84-17.75-37.79-39.57-37.79h-229.79c-2.81,0-5.08-2.27-5.08-5.08V232.2c0-2.81,2.28-5.08,5.08-5.08h66.08c2.81,0,5.08,2.27,5.08,5.08s-2.28,5.08-5.08,5.08h-60.99v587.29h224.7c16.12,0,30.47,7.43,39.57,18.93V275.08c0-20.84-17.75-37.8-39.57-37.8h-133.22c-2.81,0-5.08-2.27-5.08-5.08s2.28-5.08,5.08-5.08h133.22c27.42,0,49.74,21.51,49.74,47.96v597.45c0,2.81-2.28,5.08-5.08,5.08Z"/>
  <path class="cls-8" d="m769.13,298.26h-60.98c-2.81,0-5.08-2.27-5.08-5.08s2.28-5.08,5.08-5.08h60.98c2.81,0,5.08,2.27,5.08,5.08s-2.28,5.08-5.08,5.08Z"/>
  <path class="cls-8" d="m682.73,298.26h-106.72c-2.81,0-5.08-2.27-5.08-5.08s2.28-5.08,5.08-5.08h106.72c2.81,0,5.08,2.27,5.08,5.08s-2.28,5.08-5.08,5.08Z"/>
  <path class="cls-8" d="m769.13,338.92h-106.72c-2.81,0-5.08-2.27-5.08-5.08s2.28-5.08,5.08-5.08h106.72c2.81,0,5.08,2.27,5.08,5.08s-2.28,5.08-5.08,5.08Z"/>
  <path class="cls-8" d="m637,338.92h-60.98c-2.81,0-5.08-2.27-5.08-5.08s2.28-5.08,5.08-5.08h60.98c2.81,0,5.08,2.27,5.08,5.08s-2.28,5.08-5.08,5.08Z"/>
  <path class="cls-8" d="m733.55,379.57h-45.74c-2.81,0-5.08-2.27-5.08-5.08s2.28-5.08,5.08-5.08h45.74c2.81,0,5.08,2.27,5.08,5.08s-2.28,5.08-5.08,5.08Z"/>
  <path class="cls-8" d="m662.41,379.57h-86.39c-2.81,0-5.08-2.27-5.08-5.08s2.28-5.08,5.08-5.08h86.39c2.81,0,5.08,2.27,5.08,5.08s-2.28,5.08-5.08,5.08Z"/>
  <path class="cls-8" d="m769.13,420.23h-121.97c-2.81,0-5.08-2.27-5.08-5.08s2.28-5.08,5.08-5.08h121.97c2.81,0,5.08,2.27,5.08,5.08s-2.28,5.08-5.08,5.08Z"/>
  <path class="cls-8" d="m769.13,460.89h-50.82c-2.81,0-5.08-2.27-5.08-5.08s2.28-5.08,5.08-5.08h50.82c2.81,0,5.08,2.27,5.08,5.08s-2.28,5.08-5.08,5.08Z"/>
  <path class="cls-8" d="m769.13,501.54h-66.07c-2.81,0-5.08-2.27-5.08-5.08s2.28-5.08,5.08-5.08h66.07c2.81,0,5.08,2.27,5.08,5.08s-2.28,5.08-5.08,5.08Z"/>
  <path class="cls-8" d="m769.13,542.2h-71.15c-2.81,0-5.08-2.27-5.08-5.08s2.28-5.08,5.08-5.08h71.15c2.81,0,5.08,2.27,5.08,5.08s-2.28,5.08-5.08,5.08Z"/>
  <path class="cls-8" d="m769.13,582.85h-76.23c-2.81,0-5.08-2.27-5.08-5.08s2.28-5.08,5.08-5.08h76.23c2.81,0,5.08,2.27,5.08,5.08s-2.28,5.08-5.08,5.08Z"/>
  <path class="cls-8" d="m738.64,623.51h-60.98c-2.81,0-5.08-2.27-5.08-5.08s2.28-5.08,5.08-5.08h60.98c2.81,0,5.08,2.27,5.08,5.08s-2.28,5.08-5.08,5.08Z"/>
  <path class="cls-8" d="m769.13,664.16h-40.66c-2.81,0-5.08-2.27-5.08-5.08s2.28-5.08,5.08-5.08h40.66c2.81,0,5.08,2.27,5.08,5.08s-2.28,5.08-5.08,5.08Z"/>
  <path class="cls-8" d="m703.06,664.16h-60.98c-2.81,0-5.08-2.27-5.08-5.08s2.28-5.08,5.08-5.08h60.98c2.81,0,5.08,2.27,5.08,5.08s-2.28,5.08-5.08,5.08Z"/>
  <path class="cls-8" d="m769.13,704.82h-96.56c-2.81,0-5.08-2.27-5.08-5.08s2.28-5.08,5.08-5.08h96.56c2.81,0,5.08,2.27,5.08,5.08s-2.28,5.08-5.08,5.08Z"/>
  <path class="cls-8" d="m647.16,704.82h-71.15c-2.81,0-5.08-2.27-5.08-5.08s2.28-5.08,5.08-5.08h71.15c2.81,0,5.08,2.27,5.08,5.08s-2.28,5.08-5.08,5.08Z"/>
  <path class="cls-8" d="m728.47,745.48h-152.46c-2.81,0-5.08-2.27-5.08-5.08s2.28-5.08,5.08-5.08h152.46c2.81,0,5.08,2.27,5.08,5.08s-2.28,5.08-5.08,5.08Z"/>
  <path class="cls-8" d="m769.13,786.13h-86.39c-2.81,0-5.08-2.27-5.08-5.08s2.28-5.08,5.08-5.08h86.39c2.81,0,5.08,2.27,5.08,5.08s-2.28,5.08-5.08,5.08Z"/>
  <path class="cls-8" d="m657.33,786.13h-81.31c-2.81,0-5.08-2.27-5.08-5.08s2.28-5.08,5.08-5.08h81.31c2.81,0,5.08,2.27,5.08,5.08s-2.28,5.08-5.08,5.08Z"/>
  <path class="cls-8" d="m494.7,298.26h-66.07c-2.81,0-5.08-2.27-5.08-5.08s2.28-5.08,5.08-5.08h66.07c2.81,0,5.08,2.27,5.08,5.08s-2.28,5.08-5.08,5.08Z"/>
  <path class="cls-8" d="m403.23,298.26h-101.64c-2.81,0-5.08-2.27-5.08-5.08s2.28-5.08,5.08-5.08h101.64c2.81,0,5.08,2.27,5.08,5.08s-2.28,5.08-5.08,5.08Z"/>
  <path class="cls-8" d="m494.7,338.92h-111.8c-2.81,0-5.08-2.27-5.08-5.08s2.28-5.08,5.08-5.08h111.8c2.81,0,5.08,2.27,5.08,5.08s-2.28,5.08-5.08,5.08Z"/>
  <path class="cls-8" d="m357.49,338.92h-55.9c-2.81,0-5.08-2.27-5.08-5.08s2.28-5.08,5.08-5.08h55.9c2.81,0,5.08,2.27,5.08,5.08s-2.28,5.08-5.08,5.08Z"/>
  <path class="cls-8" d="m494.7,379.57h-76.23c-2.81,0-5.08-2.27-5.08-5.08s2.28-5.08,5.08-5.08h76.23c2.81,0,5.08,2.27,5.08,5.08s-2.28,5.08-5.08,5.08Z"/>
  <path class="cls-9" d="m393.06,379.57h-91.48c-2.81,0-5.08-2.27-5.08-5.08s2.28-5.08,5.08-5.08h91.48c2.81,0,5.08,2.27,5.08,5.08s-2.28,5.08-5.08,5.08Z"/>
  <path class="cls-9" d="m428.64,420.23h-45.74c-2.81,0-5.08-2.27-5.08-5.08s2.28-5.08,5.08-5.08h45.74c2.81,0,5.08,2.27,5.08,5.08s-2.28,5.08-5.08,5.08Z"/>
  <path class="cls-9" d="m357.49,420.23h-55.9c-2.81,0-5.08-2.27-5.08-5.08s2.28-5.08,5.08-5.08h55.9c2.81,0,5.08,2.27,5.08,5.08s-2.28,5.08-5.08,5.08Z"/>
  <path class="cls-9" d="m393.06,460.89h-91.48c-2.81,0-5.08-2.27-5.08-5.08s2.28-5.08,5.08-5.08h91.48c2.81,0,5.08,2.27,5.08,5.08s-2.28,5.08-5.08,5.08Z"/>
  <path class="cls-9" d="m377.82,501.54h-76.23c-2.81,0-5.08-2.27-5.08-5.08s2.28-5.08,5.08-5.08h76.23c2.81,0,5.08,2.27,5.08,5.08s-2.28,5.08-5.08,5.08Z"/>
  <path class="cls-9" d="m372.73,542.2h-71.15c-2.81,0-5.08-2.27-5.08-5.08s2.28-5.08,5.08-5.08h71.15c2.81,0,5.08,2.27,5.08,5.08s-2.28,5.08-5.08,5.08Z"/>
  <path class="cls-8" d="m377.82,582.85h-76.23c-2.81,0-5.08-2.27-5.08-5.08s2.28-5.08,5.08-5.08h76.23c2.81,0,5.08,2.27,5.08,5.08s-2.28,5.08-5.08,5.08Z"/>
  <path class="cls-9" d="m393.06,623.51h-91.48c-2.81,0-5.08-2.27-5.08-5.08s2.28-5.08,5.08-5.08h91.48c2.81,0,5.08,2.27,5.08,5.08s-2.28,5.08-5.08,5.08Z"/>
  <path class="cls-8" d="m428.64,664.16h-55.9c-2.81,0-5.08-2.27-5.08-5.08s2.28-5.08,5.08-5.08h55.9c2.81,0,5.08,2.27,5.08,5.08s-2.28,5.08-5.08,5.08Z"/>
  <path class="cls-8" d="m347.33,664.16h-45.74c-2.81,0-5.08-2.27-5.08-5.08s2.28-5.08,5.08-5.08h45.74c2.81,0,5.08,2.27,5.08,5.08s-2.28,5.08-5.08,5.08Z"/>
  <path class="cls-9" d="m499.78,704.82h-96.56c-2.81,0-5.08-2.27-5.08-5.08s2.28-5.08,5.08-5.08h96.56c2.81,0,5.08,2.27,5.08,5.08s-2.28,5.08-5.08,5.08Z"/>
  <path class="cls-9" d="m377.82,704.82h-76.23c-2.81,0-5.08-2.27-5.08-5.08s2.28-5.08,5.08-5.08h76.23c2.81,0,5.08,2.27,5.08,5.08s-2.28,5.08-5.08,5.08Z"/>
  <path class="cls-9" d="m454.05,745.48h-152.46c-2.81,0-5.08-2.27-5.08-5.08s2.28-5.08,5.08-5.08h152.46c2.81,0,5.08,2.27,5.08,5.08s-2.28,5.08-5.08,5.08Z"/>
  <path class="cls-9" d="m494.7,786.13h-86.39c-2.81,0-5.08-2.27-5.08-5.08s2.28-5.08,5.08-5.08h86.39c2.81,0,5.08,2.27,5.08,5.08s-2.28,5.08-5.08,5.08Z"/>
  <path class="cls-9" d="m382.9,786.13h-81.31c-2.81,0-5.08-2.27-5.08-5.08s2.28-5.08,5.08-5.08h81.31c2.81,0,5.08,2.27,5.08,5.08s-2.28,5.08-5.08,5.08Z"/>
  <circle class="cls-10" cx="535.36" cy="537.11" r="142.3"/>
  <path class="cls-11" d="m560.77,420.23c32.82,0,63.01,11.14,87.09,29.8-26.03-33.58-66.72-55.21-112.5-55.21-78.59,0-142.3,63.71-142.3,142.3,0,45.77,21.64,86.47,55.21,112.49-18.66-24.07-29.8-54.27-29.8-87.08,0-78.59,63.71-142.3,142.3-142.3Z"/>
  <path class="cls-9" d="m535.36,684.49c-81.26,0-147.38-66.12-147.38-147.38s66.11-147.38,147.38-147.38c65.48,0,123.76,43.93,141.72,106.82.77,2.7-.79,5.51-3.49,6.28-2.7.75-5.51-.79-6.28-3.49-16.73-58.55-70.99-99.45-131.95-99.45-75.66,0-137.21,61.55-137.21,137.21s61.55,137.21,137.21,137.21,137.21-61.55,137.21-137.21c0-2-.04-3.99-.13-5.98-.12-2.8,2.06-5.17,4.86-5.29,2.8-.19,5.17,2.06,5.29,4.86.09,2.12.14,4.26.14,6.41,0,81.26-66.11,147.38-147.38,147.38Z"/>
  <path class="cls-12" d="m475.58,522.49l56.1,56.09c3.97,3.97,10.4,3.97,14.37,0l125.56-125.56c5.6-5.6,13.18-8.44,20.66-8.35-.7-.9-1.34-1.82-2.16-2.65-10.5-10.5-27.5-10.5-38,0l-113.25,113.24-43.78-43.78c-10.5-10.5-27.5-10.5-38,0-.82.82-1.47,1.75-2.16,2.65,7.48-.09,15.06,2.75,20.66,8.35Z"/>
  <path class="cls-7" d="m457.09,549.5l62.78,62.78c5.25,5.25,12.12,7.87,19,7.87s13.75-2.63,19-7.87l132.25-132.25c9.67-9.66,10.32-24.81,2.16-35.35-7.48-.09-15.06,2.74-20.66,8.35l-125.56,125.56c-3.97,3.97-10.4,3.97-14.37,0l-56.1-56.09c-5.6-5.6-13.17-8.44-20.66-8.35-8.15,10.54-7.51,25.69,2.16,35.36Z"/>
  <path class="cls-9" d="m538.87,625.24c-8.53,0-16.55-3.33-22.59-9.36l-62.78-62.78c-6.03-6.03-9.36-14.06-9.36-22.59s3.33-16.56,9.36-22.59c12.46-12.46,32.73-12.45,45.18,0l40.19,40.18,109.66-109.65c12.46-12.46,32.73-12.45,45.18,0h0c6.03,6.03,9.36,14.05,9.36,22.59s-3.33,16.56-9.36,22.59l-132.25,132.25c-6.03,6.03-14.06,9.36-22.59,9.36Zm-62.78-116.51c-5.58,0-11.16,2.12-15.4,6.37-4.11,4.11-6.38,9.59-6.38,15.4s2.27,11.29,6.38,15.4l62.78,62.79c4.12,4.11,9.59,6.38,15.4,6.38s11.29-2.27,15.4-6.38l132.25-132.25c4.12-4.11,6.38-9.58,6.38-15.4s-2.27-11.29-6.38-15.4h0c-8.49-8.5-22.31-8.5-30.81,0l-113.25,113.24c-1.99,1.99-5.2,1.99-7.19,0l-43.78-43.78c-4.25-4.25-9.83-6.37-15.41-6.37Z"/>
</svg>