<?xml version="1.0" encoding="UTF-8"?>
<svg id="Capa_1" data-name="Capa 1" xmlns="http://www.w3.org/2000/svg" viewBox="0 0 1080 1080">
  <defs>
    <style>
      .cls-1 {
        fill: #f6f6f6;
      }

      .cls-2 {
        fill: #fff;
      }

      .cls-3 {
        fill: #e4e4e4;
      }

      .cls-4 {
        fill: #9c9aaa;
      }

      .cls-5 {
        fill: #65b3f0;
      }

      .cls-6 {
        fill: #2d3041;
      }

      .cls-7 {
        fill: #35384c;
      }

      .cls-8 {
        fill: #545869;
      }
    </style>
  </defs>
  <path class="cls-1" d="m973.24,418.67c16.96,69.42-69.34,126.49-92.68,200.05-23.94,75.48,20.52,168.8-29.26,216.36-48.25,46.1-147.61,10.11-217.17,27.03-69.56,16.92-141.18,94.5-205.27,75.74-66.12-19.36-84.41-124.47-132.06-174.15-46.19-48.15-151.25-70.12-168.2-139.55-16.96-69.42,66.18-137.18,84.99-201.14,19.41-65.99-12.83-167.71,36.95-215.27,48.25-46.1,147.61-10.11,217.17-27.03,69.56-16.92,141.18-94.51,205.27-75.74,66.12,19.36,84.41,124.47,132.06,174.15,46.19,48.15,151.25,70.12,168.2,139.55Z"/>
  <path class="cls-8" d="m571.89,233.11c80.07,0,153.03,30.43,207.95,80.36-56.58-62.25-138.19-101.33-228.92-101.33-170.79,0-309.27,138.47-309.27,309.27,0,90.73,39.08,172.34,101.31,228.91-49.92-54.92-80.35-127.88-80.35-207.94,0-170.79,138.48-309.27,309.27-309.27Z"/>
  <path class="cls-7" d="m860.19,521.41c0-80.06-30.43-153.02-80.35-207.94-54.92-49.93-127.88-80.36-207.95-80.36-170.79,0-309.27,138.47-309.27,309.27,0,80.06,30.43,153.02,80.35,207.94,54.93,49.93,127.89,80.36,207.95,80.36,170.79,0,309.27-138.47,309.27-309.27Z"/>
  <path class="cls-6" d="m550.92,835.92c-173.42,0-314.51-141.09-314.51-314.51s141.09-314.51,314.51-314.51,314.51,141.09,314.51,314.51c0,124.72-73.79,237.77-187.98,288.01-2.66,1.17-5.75-.04-6.91-2.69-1.17-2.65.04-5.74,2.69-6.91,110.39-48.57,181.71-157.86,181.71-278.42,0-167.64-136.39-304.03-304.03-304.03s-304.03,136.39-304.03,304.03,136.39,304.03,304.03,304.03c30.54,0,60.68-4.51,89.57-13.41,2.77-.86,5.7.7,6.55,3.47.85,2.76-.7,5.7-3.47,6.55-29.88,9.2-61.06,13.87-92.65,13.87Z"/>
  <path class="cls-3" d="m718.01,333.36c39.51,44.44,63.56,102.94,63.56,167.08,0,138.95-112.66,251.61-251.61,251.61-64.14,0-122.64-24.04-167.08-63.56,46.09,51.83,113.24,84.52,188.05,84.52,138.95,0,251.61-112.66,251.61-251.61,0-74.81-32.69-141.96-84.52-188.05Z"/>
  <path class="cls-2" d="m781.56,500.44c0-64.14-24.04-122.64-63.56-167.08-44.44-39.51-102.94-63.56-167.08-63.56-138.95,0-251.61,112.65-251.61,251.61,0,64.14,24.04,122.64,63.56,167.08,44.44,39.51,102.94,63.56,167.08,63.56,138.95,0,251.61-112.66,251.61-251.61Z"/>
  <path class="cls-6" d="m550.92,778.26c-113.56,0-212.24-72.87-245.56-181.32-.85-2.77.71-5.7,3.47-6.55,2.77-.86,5.7.71,6.55,3.47,31.95,104.03,126.61,173.92,235.54,173.92,135.85,0,246.37-110.52,246.37-246.37s-110.52-246.37-246.37-246.37-246.37,110.52-246.37,246.37c0,13.71,1.14,27.48,3.38,40.9.48,2.86-1.45,5.56-4.31,6.04-2.85.5-5.56-1.45-6.03-4.31-2.34-14-3.52-28.34-3.52-42.63,0-141.63,115.22-256.85,256.85-256.85s256.85,115.22,256.85,256.85-115.22,256.85-256.85,256.85Z"/>
  <path class="cls-8" d="m571.89,348.43c48.22,0,92.29,17.64,126.22,46.76-35.57-41.44-88.3-67.73-147.19-67.73-107.1,0-193.95,86.84-193.95,193.95,0,58.89,26.29,111.61,67.73,147.19-29.12-33.93-46.76-78-46.76-126.22,0-107.11,86.84-193.95,193.95-193.95Z"/>
  <path class="cls-7" d="m744.87,521.41c0-48.22-17.64-92.29-46.76-126.22-33.93-29.12-78-46.76-126.22-46.76-107.1,0-193.95,86.84-193.95,193.95,0,48.22,17.64,92.29,46.76,126.22,33.93,29.12,78,46.76,126.22,46.76,107.1,0,193.95-86.84,193.95-193.95Z"/>
  <path class="cls-6" d="m550.92,720.6c-109.83,0-199.19-89.36-199.19-199.19s89.36-199.19,199.19-199.19c76.04,0,144.38,42.3,178.35,110.4,1.3,2.59.24,5.74-2.35,7.03-2.6,1.31-5.74.24-7.03-2.35-32.18-64.51-96.93-104.6-168.97-104.6-104.05,0-188.71,84.65-188.71,188.71s84.65,188.71,188.71,188.71,188.71-84.65,188.71-188.71c0-19.1-2.84-37.95-8.45-56.01-.86-2.77.69-5.7,3.45-6.56,2.78-.84,5.71.69,6.56,3.45,5.92,19.07,8.92,38.97,8.92,59.12,0,109.83-89.36,199.19-199.19,199.19Z"/>
  <path class="cls-6" d="m891.64,526.65h-178.22c-2.9,0-5.24-2.34-5.24-5.24s2.34-5.24,5.24-5.24h178.22c2.9,0,5.24,2.34,5.24,5.24s-2.34,5.24-5.24,5.24Z"/>
  <path class="cls-6" d="m388.43,526.65h-178.22c-2.9,0-5.24-2.34-5.24-5.24s2.34-5.24,5.24-5.24h178.22c2.9,0,5.24,2.34,5.24,5.24s-2.34,5.24-5.24,5.24Z"/>
  <path class="cls-6" d="m550.92,867.37c-2.9,0-5.24-2.34-5.24-5.24v-178.29c0-2.9,2.34-5.24,5.24-5.24s5.24,2.34,5.24,5.24v178.29c0,2.9-2.34,5.24-5.24,5.24Z"/>
  <path class="cls-6" d="m550.92,364.16c-2.9,0-5.24-2.34-5.24-5.24v-178.22c0-2.9,2.34-5.24,5.24-5.24s5.24,2.34,5.24,5.24v178.22c0,2.9-2.34,5.24-5.24,5.24Z"/>
  <path class="cls-3" d="m636.22,415.15c18.77,23.35,30.02,53,30.02,85.29,0,75.27-61.02,136.29-136.29,136.29-32.29,0-61.94-11.26-85.3-30.02,24.98,31.08,63.29,50.99,106.27,50.99,75.27,0,136.29-61.02,136.29-136.29,0-42.98-19.91-81.28-50.99-106.26Z"/>
  <path class="cls-2" d="m666.24,500.44c0-32.29-11.26-61.94-30.02-85.29-23.35-18.77-53.01-30.03-85.3-30.03-75.27,0-136.29,61.02-136.29,136.29,0,32.29,11.26,61.94,30.02,85.3,23.35,18.77,53.01,30.02,85.3,30.02,75.27,0,136.29-61.02,136.29-136.29Z"/>
  <circle class="cls-5" cx="634.79" cy="521.41" r="15.73"/>
  <circle class="cls-5" cx="467.05" cy="521.41" r="15.73"/>
  <path class="cls-6" d="m550.92,662.94c-78.04,0-141.53-63.49-141.53-141.53s63.49-141.53,141.53-141.53,141.53,63.49,141.53,141.53-63.49,141.53-141.53,141.53Zm0-272.58c-72.26,0-131.05,58.79-131.05,131.05s58.79,131.05,131.05,131.05,131.05-58.79,131.05-131.05-58.79-131.05-131.05-131.05Z"/>
  <path class="cls-5" d="m550.92,612.14c-28.64,0-51.93-23.3-51.93-51.93,0-7.24,5.87-13.1,13.1-13.1s13.1,5.87,13.1,13.1c0,14.18,11.54,25.72,25.72,25.72s25.72-11.54,25.72-25.72-11.54-25.72-25.72-25.72c-28.64,0-51.93-23.3-51.93-51.93s23.3-51.94,51.93-51.94,51.93,23.3,51.93,51.94c0,7.24-5.87,13.1-13.1,13.1s-13.1-5.87-13.1-13.1c0-14.18-11.54-25.73-25.72-25.73s-25.72,11.54-25.72,25.73,11.54,25.72,25.72,25.72c28.64,0,51.93,23.3,51.93,51.93s-23.3,51.93-51.93,51.93Z"/>
  <path class="cls-5" d="m550.92,639.32c-7.24,0-13.1-5.87-13.1-13.1v-27.18c0-7.24,5.87-13.1,13.1-13.1s13.1,5.87,13.1,13.1v27.18c0,7.24-5.87,13.1-13.1,13.1Z"/>
  <path class="cls-5" d="m550.92,456.83c-7.24,0-13.1-5.87-13.1-13.1v-27.18c0-7.24,5.87-13.1,13.1-13.1s13.1,5.87,13.1,13.1v27.18c0,7.24-5.87,13.1-13.1,13.1Z"/>
  <circle class="cls-2" cx="364.84" cy="888.34" r="52.42"/>
  <path class="cls-4" d="m364.84,946c-31.79,0-57.66-25.87-57.66-57.66s25.87-57.66,57.66-57.66,57.66,25.87,57.66,57.66-25.87,57.66-57.66,57.66Zm0-104.84c-26.01,0-47.18,21.16-47.18,47.18s21.16,47.18,47.18,47.18,47.18-21.16,47.18-47.18-21.16-47.18-47.18-47.18Z"/>
  <path class="cls-4" d="m404.93,854.58l-41.88,41.88-13.05-13.05c-3.13-3.13-8.2-3.13-11.33,0-3.13,3.13-3.13,8.2,0,11.33l18.72,18.72c1.56,1.57,3.61,2.35,5.66,2.35s4.1-.78,5.67-2.35l44.85-44.47-8.63-14.4Z"/>
  <circle class="cls-2" cx="875.92" cy="778.26" r="52.42"/>
  <path class="cls-4" d="m875.92,835.92c-31.79,0-57.66-25.87-57.66-57.66s25.87-57.66,57.66-57.66,57.66,25.87,57.66,57.66-25.87,57.66-57.66,57.66Zm0-104.84c-26.01,0-47.18,21.16-47.18,47.18s21.16,47.18,47.18,47.18,47.18-21.16,47.18-47.18-21.16-47.18-47.18-47.18Z"/>
  <path class="cls-4" d="m916.01,744.5l-41.88,41.88-13.05-13.05c-3.13-3.13-8.2-3.13-11.33,0-3.13,3.13-3.13,8.2,0,11.33l18.72,18.72c1.56,1.57,3.61,2.35,5.66,2.35s4.1-.78,5.67-2.35l44.85-44.47-8.63-14.4Z"/>
  <circle class="cls-2" cx="944.06" cy="385.12" r="52.42"/>
  <path class="cls-4" d="m944.06,442.78c-31.79,0-57.66-25.87-57.66-57.66s25.87-57.66,57.66-57.66,57.66,25.87,57.66,57.66-25.87,57.66-57.66,57.66Zm0-104.84c-26.01,0-47.18,21.16-47.18,47.18s21.16,47.18,47.18,47.18,47.18-21.16,47.18-47.18-21.16-47.18-47.18-47.18Z"/>
  <path class="cls-4" d="m984.16,351.36l-41.88,41.88-13.05-13.05c-3.13-3.13-8.2-3.13-11.33,0-3.13,3.13-3.13,8.2,0,11.33l18.72,18.72c1.56,1.57,3.61,2.35,5.66,2.35s4.1-.78,5.67-2.35l44.85-44.47-8.63-14.4Z"/>
  <circle class="cls-2" cx="752.73" cy="154.48" r="52.42"/>
  <path class="cls-4" d="m752.73,212.14c-31.79,0-57.66-25.87-57.66-57.66s25.87-57.66,57.66-57.66,57.66,25.87,57.66,57.66-25.87,57.66-57.66,57.66Zm0-104.84c-26.01,0-47.18,21.16-47.18,47.18s21.16,47.18,47.18,47.18,47.18-21.16,47.18-47.18-21.16-47.18-47.18-47.18Z"/>
  <path class="cls-4" d="m792.83,120.72l-41.88,41.88-13.05-13.05c-3.13-3.13-8.2-3.13-11.33,0-3.13,3.13-3.13,8.2,0,11.33l18.72,18.72c1.56,1.57,3.61,2.35,5.66,2.35s4.1-.78,5.67-2.35l44.85-44.47-8.63-14.4Z"/>
  <circle class="cls-2" cx="225.93" cy="280.29" r="52.42"/>
  <path class="cls-4" d="m225.93,337.95c-31.79,0-57.66-25.87-57.66-57.66s25.87-57.66,57.66-57.66,57.66,25.87,57.66,57.66-25.87,57.66-57.66,57.66Zm0-104.84c-26.01,0-47.18,21.16-47.18,47.18s21.16,47.18,47.18,47.18,47.18-21.16,47.18-47.18-21.16-47.18-47.18-47.18Z"/>
  <path class="cls-4" d="m266.03,246.53l-41.88,41.88-13.05-13.05c-3.13-3.13-8.2-3.13-11.33,0-3.13,3.13-3.13,8.2,0,11.33l18.72,18.72c1.56,1.57,3.61,2.35,5.66,2.35s4.1-.78,5.67-2.35l44.85-44.47-8.63-14.4Z"/>
  <circle class="cls-2" cx="157.78" cy="689.15" r="52.42"/>
  <path class="cls-4" d="m157.78,746.81c-31.79,0-57.66-25.87-57.66-57.66s25.87-57.66,57.66-57.66,57.66,25.87,57.66,57.66-25.87,57.66-57.66,57.66Zm0-104.84c-26.01,0-47.18,21.16-47.18,47.18s21.16,47.18,47.18,47.18,47.18-21.16,47.18-47.18-21.16-47.18-47.18-47.18Z"/>
  <path class="cls-4" d="m197.88,655.39l-41.88,41.88-13.05-13.05c-3.13-3.13-8.2-3.13-11.33,0-3.13,3.13-3.13,8.2,0,11.33l18.72,18.72c1.56,1.57,3.61,2.35,5.66,2.35s4.1-.78,5.67-2.35l44.85-44.47-8.63-14.4Z"/>
</svg>