<svg id="ad21b959-7f6e-499b-aa62-178c68a69cd2" data-name="Capa 1" xmlns="http://www.w3.org/2000/svg" viewBox="0 0 1080 1080"><defs><style>.b9379014-104c-4834-ad45-fbe7d05d47ef{fill:#f6f6f6;}.a5bf6860-d589-401b-9c8a-b77837b9e3b4{fill:#e6e6e6;}.f3ff5575-0f60-4119-97a0-663b2a1b158f{fill:#fff;}.bb233eb0-fb84-41ab-a2df-6779751c4699{fill:#282c3f;}.ea2d3a92-03b1-4fdf-845b-592441c0d346{fill:#2fc8f2;}.a42fe577-885f-4a5b-a285-a3d65b00d0dc{fill:#2caae6;}.adc44fa5-77bc-45c5-b369-eddf884b4109{fill:#00b5f4;}.b4271d7a-f7b4-4e1f-9aad-6ed627cec01b{fill:#30354c;}.a30b5656-a2db-4126-862b-c19143f98289{fill:#52576a;}.ff48b741-dc73-4297-9911-af077c0d63fd{fill:#989aa6;}</style></defs><title>ICONOS S2R</title><path class="b9379014-104c-4834-ad45-fbe7d05d47ef" d="M872.14,396.61c-27.1-63.34-5.68-172-64.73-216.19s-156.79,7.4-225.06-.6c-70.42-8.26-154-80-219.12-52-63.15,27.19-69,136.11-113,195.34S103.73,419.07,95.75,487.54C87.52,558.17,179.89,618,207.86,683.39c27.1,63.34,5.68,172,64.73,216.19s156.79-7.4,225.06.6c70.42,8.26,154,80,219.12,52,63.15-27.19,69-136.11,113-195.34s146.47-95.87,154.45-164.34C992.48,521.83,900.11,462,872.14,396.61Z"/><circle class="a5bf6860-d589-401b-9c8a-b77837b9e3b4" cx="540" cy="540" r="300.87"/><circle class="f3ff5575-0f60-4119-97a0-663b2a1b158f" cx="526.92" cy="526.92" r="287.79"/><path class="bb233eb0-fb84-41ab-a2df-6779751c4699" d="M540,846.1c-168.79,0-306.1-137.31-306.1-306.1S371.21,233.9,540,233.9a306.43,306.43,0,0,1,146.4,37.22,5.23,5.23,0,1,1-5,9.18A296,296,0,0,0,540,244.36C377,244.36,244.36,377,244.36,540S377,835.64,540,835.64,835.64,703,835.64,540A296,296,0,0,0,799.7,398.61a5.23,5.23,0,1,1,9.18-5A306.43,306.43,0,0,1,846.1,540C846.1,708.79,708.79,846.1,540,846.1Z"/><circle class="ea2d3a92-03b1-4fdf-845b-592441c0d346" cx="540" cy="540" r="222.38"/><circle class="a42fe577-885f-4a5b-a285-a3d65b00d0dc" cx="553.08" cy="553.08" r="209.3"/><path class="bb233eb0-fb84-41ab-a2df-6779751c4699" d="M540,767.62A228.43,228.43,0,0,1,342.64,653.47a5.23,5.23,0,0,1,9.07-5.23A217.91,217.91,0,0,0,540,757.15c119.74,0,217.15-97.41,217.15-217.15a215.16,215.16,0,0,0-20.76-92.78,5.23,5.23,0,0,1,9.46-4.48A225.67,225.67,0,0,1,767.62,540C767.62,665.51,665.51,767.62,540,767.62Z"/><path class="bb233eb0-fb84-41ab-a2df-6779751c4699" d="M334.11,629.42a5.25,5.25,0,0,1-4.85-3.25A226.41,226.41,0,0,1,312.38,540c0-125.51,102.11-227.62,227.62-227.62a225.66,225.66,0,0,1,97.25,21.77,5.23,5.23,0,1,1-4.48,9.46A215.11,215.11,0,0,0,540,322.85c-119.74,0-217.15,97.41-217.15,217.15A216,216,0,0,0,339,622.2a5.25,5.25,0,0,1-2.86,6.83A5.33,5.33,0,0,1,334.11,629.42Z"/><circle class="a5bf6860-d589-401b-9c8a-b77837b9e3b4" cx="540" cy="540" r="143.9"/><circle class="f3ff5575-0f60-4119-97a0-663b2a1b158f" cx="526.92" cy="526.92" r="130.81"/><path class="bb233eb0-fb84-41ab-a2df-6779751c4699" d="M540,689.13c-82.23,0-149.13-66.9-149.13-149.13S457.77,390.87,540,390.87,689.13,457.77,689.13,540,622.23,689.13,540,689.13Zm0-287.79c-76.46,0-138.66,62.2-138.66,138.66S463.54,678.66,540,678.66,678.66,616.46,678.66,540,616.46,401.34,540,401.34Z"/><circle class="ea2d3a92-03b1-4fdf-845b-592441c0d346" cx="540" cy="540" r="65.41"/><circle class="adc44fa5-77bc-45c5-b369-eddf884b4109" cx="547.85" cy="547.85" r="57.56"/><path class="bb233eb0-fb84-41ab-a2df-6779751c4699" d="M540,610.64A70.64,70.64,0,1,1,610.64,540,70.72,70.72,0,0,1,540,610.64Zm0-130.81A60.17,60.17,0,1,0,600.17,540,60.24,60.24,0,0,0,540,479.83Z"/><path class="bb233eb0-fb84-41ab-a2df-6779751c4699" d="M880.12,545.23H605.41a5.23,5.23,0,1,1,0-10.46H880.12a5.23,5.23,0,0,1,0,10.46Z"/><path class="bb233eb0-fb84-41ab-a2df-6779751c4699" d="M474.59,545.23H199.88a5.23,5.23,0,1,1,0-10.46H474.59a5.23,5.23,0,1,1,0,10.46Z"/><path class="bb233eb0-fb84-41ab-a2df-6779751c4699" d="M540,885.35a5.23,5.23,0,0,1-5.23-5.23V605.41a5.23,5.23,0,1,1,10.46,0V880.12A5.23,5.23,0,0,1,540,885.35Z"/><path class="bb233eb0-fb84-41ab-a2df-6779751c4699" d="M540,479.83a5.24,5.24,0,0,1-5.23-5.24V199.88a5.23,5.23,0,0,1,10.46,0V474.59A5.24,5.24,0,0,1,540,479.83Z"/><polygon class="b4271d7a-f7b4-4e1f-9aad-6ed627cec01b" points="791.39 288.61 791.39 199.88 741.11 250.16 741.11 338.89 829.84 338.89 880.12 288.61 791.39 288.61"/><polygon class="b4271d7a-f7b4-4e1f-9aad-6ed627cec01b" points="707.67 372.33 707.67 283.61 657.39 333.88 657.39 422.61 746.12 422.61 796.39 372.33 707.67 372.33"/><polygon class="a30b5656-a2db-4126-862b-c19143f98289" points="791.39 288.61 791.39 199.88 741.11 250.16 741.11 338.89 791.39 288.61"/><polygon class="a30b5656-a2db-4126-862b-c19143f98289" points="707.67 372.33 707.67 283.61 657.39 333.88 657.39 422.61 707.67 372.33"/><path class="bb233eb0-fb84-41ab-a2df-6779751c4699" d="M829.84,344.12H741.11a5.23,5.23,0,0,1-5.23-5.23V250.16a5.25,5.25,0,0,1,1.53-3.7l50.28-50.28a5.23,5.23,0,0,1,8.93,3.7v83.5h83.5a5.23,5.23,0,0,1,3.7,8.93l-50.28,50.28A5.25,5.25,0,0,1,829.84,344.12Zm-83.5-10.46h81.33l39.81-39.82H791.39a5.23,5.23,0,0,1-5.23-5.23V212.52l-39.82,39.81Z"/><path class="bb233eb0-fb84-41ab-a2df-6779751c4699" d="M746.12,427.84H657.39a5.23,5.23,0,0,1-5.23-5.23V333.88a5.26,5.26,0,0,1,1.53-3.7L704,279.91a5.23,5.23,0,0,1,8.93,3.69v83.5h83.5a5.23,5.23,0,0,1,3.69,8.93l-50.27,50.28A5.26,5.26,0,0,1,746.12,427.84Zm-83.5-10.46H744l39.81-39.82H707.67a5.23,5.23,0,0,1-5.23-5.23V296.24l-39.82,39.81Z"/><path class="bb233eb0-fb84-41ab-a2df-6779751c4699" d="M540,545.23a5.23,5.23,0,0,1-3.7-8.93L834.56,238a5.23,5.23,0,0,1,7.4,7.4L543.7,543.7A5.22,5.22,0,0,1,540,545.23Z"/><circle class="f3ff5575-0f60-4119-97a0-663b2a1b158f" cx="147.56" cy="796.4" r="36.63"/><path class="ff48b741-dc73-4297-9911-af077c0d63fd" d="M147.56,838.26a41.87,41.87,0,1,1,41.86-41.86A41.91,41.91,0,0,1,147.56,838.26Zm0-73.26A31.4,31.4,0,1,0,179,796.4,31.43,31.43,0,0,0,147.56,765Z"/><path class="ff48b741-dc73-4297-9911-af077c0d63fd" d="M126.63,801.63H95.23a5.24,5.24,0,0,1,0-10.47h31.4a5.24,5.24,0,0,1,0,10.47Z"/><path class="ff48b741-dc73-4297-9911-af077c0d63fd" d="M199.88,801.63H168.49a5.24,5.24,0,0,1,0-10.47h31.39a5.24,5.24,0,1,1,0,10.47Z"/><path class="ff48b741-dc73-4297-9911-af077c0d63fd" d="M147.56,854a5.23,5.23,0,0,1-5.23-5.23V817.33a5.23,5.23,0,1,1,10.46,0v31.39A5.23,5.23,0,0,1,147.56,854Z"/><path class="ff48b741-dc73-4297-9911-af077c0d63fd" d="M147.56,780.7a5.23,5.23,0,0,1-5.23-5.23v-31.4a5.23,5.23,0,0,1,10.46,0v31.4A5.23,5.23,0,0,1,147.56,780.7Z"/><circle class="f3ff5575-0f60-4119-97a0-663b2a1b158f" cx="346.4" cy="189.42" r="52.33"/><path class="ff48b741-dc73-4297-9911-af077c0d63fd" d="M346.4,247A57.56,57.56,0,1,1,404,189.42,57.62,57.62,0,0,1,346.4,247Zm0-104.65a47.09,47.09,0,1,0,47.09,47.09A47.15,47.15,0,0,0,346.4,142.33Z"/><circle class="f3ff5575-0f60-4119-97a0-663b2a1b158f" cx="346.4" cy="189.42" r="20.93"/><path class="ff48b741-dc73-4297-9911-af077c0d63fd" d="M346.4,215.58a26.16,26.16,0,1,1,26.16-26.16A26.2,26.2,0,0,1,346.4,215.58Zm0-41.86a15.7,15.7,0,1,0,15.69,15.7A15.71,15.71,0,0,0,346.4,173.72Z"/><path class="ff48b741-dc73-4297-9911-af077c0d63fd" d="M325.47,194.65h-47.1a5.23,5.23,0,0,1,0-10.46h47.1a5.23,5.23,0,0,1,0,10.46Z"/><path class="ff48b741-dc73-4297-9911-af077c0d63fd" d="M414.42,194.65H367.33a5.23,5.23,0,1,1,0-10.46h47.09a5.23,5.23,0,0,1,0,10.46Z"/><path class="ff48b741-dc73-4297-9911-af077c0d63fd" d="M346.4,262.67a5.24,5.24,0,0,1-5.24-5.23V210.35a5.24,5.24,0,0,1,10.47,0v47.09A5.23,5.23,0,0,1,346.4,262.67Z"/><path class="ff48b741-dc73-4297-9911-af077c0d63fd" d="M346.4,173.72a5.24,5.24,0,0,1-5.24-5.23V121.4a5.24,5.24,0,1,1,10.47,0v47.09A5.23,5.23,0,0,1,346.4,173.72Z"/><circle class="f3ff5575-0f60-4119-97a0-663b2a1b158f" cx="791.16" cy="890.58" r="52.33"/><path class="ff48b741-dc73-4297-9911-af077c0d63fd" d="M791.16,948.14a57.56,57.56,0,1,1,57.56-57.56A57.63,57.63,0,0,1,791.16,948.14Zm0-104.65a47.09,47.09,0,1,0,47.1,47.09A47.15,47.15,0,0,0,791.16,843.49Z"/><circle class="f3ff5575-0f60-4119-97a0-663b2a1b158f" cx="791.16" cy="890.58" r="20.93"/><path class="ff48b741-dc73-4297-9911-af077c0d63fd" d="M791.16,916.74a26.16,26.16,0,1,1,26.17-26.16A26.19,26.19,0,0,1,791.16,916.74Zm0-41.86a15.7,15.7,0,1,0,15.7,15.7A15.72,15.72,0,0,0,791.16,874.88Z"/><path class="ff48b741-dc73-4297-9911-af077c0d63fd" d="M770.23,895.81H723.14a5.23,5.23,0,0,1,0-10.46h47.09a5.23,5.23,0,1,1,0,10.46Z"/><path class="ff48b741-dc73-4297-9911-af077c0d63fd" d="M859.19,895.81h-47.1a5.23,5.23,0,0,1,0-10.46h47.1a5.23,5.23,0,0,1,0,10.46Z"/><path class="ff48b741-dc73-4297-9911-af077c0d63fd" d="M791.16,963.84a5.24,5.24,0,0,1-5.23-5.24V911.51a5.24,5.24,0,0,1,10.47,0V958.6A5.25,5.25,0,0,1,791.16,963.84Z"/><path class="ff48b741-dc73-4297-9911-af077c0d63fd" d="M791.16,874.88a5.23,5.23,0,0,1-5.23-5.23V822.56a5.24,5.24,0,0,1,10.47,0v47.09A5.24,5.24,0,0,1,791.16,874.88Z"/><circle class="f3ff5575-0f60-4119-97a0-663b2a1b158f" cx="194.65" cy="372.56" r="36.63"/><path class="ff48b741-dc73-4297-9911-af077c0d63fd" d="M194.65,414.42a41.86,41.86,0,1,1,41.86-41.86A41.91,41.91,0,0,1,194.65,414.42Zm0-73.26a31.4,31.4,0,1,0,31.4,31.4A31.43,31.43,0,0,0,194.65,341.16Z"/><path class="ff48b741-dc73-4297-9911-af077c0d63fd" d="M173.72,377.79H142.33a5.23,5.23,0,1,1,0-10.46h31.39a5.23,5.23,0,0,1,0,10.46Z"/><path class="ff48b741-dc73-4297-9911-af077c0d63fd" d="M247,377.79h-31.4a5.23,5.23,0,1,1,0-10.46H247a5.23,5.23,0,0,1,0,10.46Z"/><path class="ff48b741-dc73-4297-9911-af077c0d63fd" d="M194.65,430.12a5.24,5.24,0,0,1-5.23-5.24V393.49a5.23,5.23,0,1,1,10.46,0v31.39A5.24,5.24,0,0,1,194.65,430.12Z"/><path class="ff48b741-dc73-4297-9911-af077c0d63fd" d="M194.65,356.86a5.23,5.23,0,0,1-5.23-5.23v-31.4a5.23,5.23,0,1,1,10.46,0v31.4A5.23,5.23,0,0,1,194.65,356.86Z"/><circle class="f3ff5575-0f60-4119-97a0-663b2a1b158f" cx="932.44" cy="696.98" r="36.63"/><path class="ff48b741-dc73-4297-9911-af077c0d63fd" d="M932.44,738.84A41.86,41.86,0,1,1,974.3,697,41.91,41.91,0,0,1,932.44,738.84Zm0-73.26a31.4,31.4,0,1,0,31.4,31.4A31.43,31.43,0,0,0,932.44,665.58Z"/><path class="ff48b741-dc73-4297-9911-af077c0d63fd" d="M911.51,702.21H880.12a5.24,5.24,0,1,1,0-10.47h31.39a5.24,5.24,0,0,1,0,10.47Z"/><path class="ff48b741-dc73-4297-9911-af077c0d63fd" d="M984.77,702.21h-31.4a5.24,5.24,0,0,1,0-10.47h31.4a5.24,5.24,0,0,1,0,10.47Z"/><path class="ff48b741-dc73-4297-9911-af077c0d63fd" d="M932.44,754.53a5.23,5.23,0,0,1-5.23-5.23V717.91a5.23,5.23,0,1,1,10.46,0V749.3A5.23,5.23,0,0,1,932.44,754.53Z"/><path class="ff48b741-dc73-4297-9911-af077c0d63fd" d="M932.44,681.28a5.23,5.23,0,0,1-5.23-5.23v-31.4a5.23,5.23,0,1,1,10.46,0v31.4A5.23,5.23,0,0,1,932.44,681.28Z"/></svg>