<svg id="b0ef50ab-790b-40f7-9dc9-5dfadf2cc2d8" data-name="Capa 1" xmlns="http://www.w3.org/2000/svg" viewBox="0 0 1080 1080"><defs><style>.a3d5c2b7-750b-422a-b582-62a13feac9a2{fill:#f6f6f6;}.a1f43dbb-8cdf-4505-919d-0d28b80d19c5{fill:#ededed;}.aca1989d-f382-430f-b2a3-a50ec48e857d{fill:#fff;}.e6525e22-e633-43fd-9ffc-e3c951e5c317{fill:#989aa6;}.bca51436-3e2f-4e7f-92c0-4df9e8c17488{fill:#30354c;}.e2b9731e-e4df-4459-9632-384a61bf55bd{fill:#52576a;}.a1245138-ff9b-4d8c-9ce0-bed0d80ea483{fill:#282c3f;}.af707f76-382a-487d-b2e2-024683032395{fill:#b8b5c6;}.bfb85db9-2d36-42fe-b70b-59ef98389ae8{fill:#a09cad;}.b2afd4ab-0c8d-42c0-a575-fcf1abb67759{fill:#2fc8f2;}.bb13afc5-80d3-446c-b7d2-33f305dd4f80{fill:#2caae6;}</style></defs><title>ICONS S2R</title><path class="a3d5c2b7-750b-422a-b582-62a13feac9a2" d="M878.67,419.5c-24-65.61,2.53-170.61-51.36-215.67-52.24-43.67-151.91-6.58-224.1-19.38s-149.94-81.37-214.28-58.37c-66.38,23.72-78.44,131.29-124,184.55-44.18,51.64-150.2,80.42-163.16,151.78s76.33,134.78,99.59,198.37c24,65.62-2.53,170.62,51.36,215.67,52.24,43.68,151.55,1,223.74,13.85s150.3,86.9,214.64,63.91c66.38-23.73,78.44-131.29,124-184.56C859.28,718,965.3,689.23,978.26,617.88S901.93,483.1,878.67,419.5Z"/><path class="a1f43dbb-8cdf-4505-919d-0d28b80d19c5" d="M296.48,526.41l-12,119.47a31.34,31.34,0,0,1-6.73,16.49l-15.13,18.91-10.46,225h607l-9.32-167.63a31.37,31.37,0,0,0-20.69-27.79L755,684.09a20.93,20.93,0,0,1-11.55-10.2L665.71,521a41.86,41.86,0,0,0-37.31-22.88H327.71A31.39,31.39,0,0,0,296.48,526.41Z"/><path class="aca1989d-f382-430f-b2a3-a50ec48e857d" d="M296.48,526.41l-12,119.47a31.34,31.34,0,0,1-6.73,16.49l-15.13,18.91L258.78,765H851.34l-1.47-26.35a31.37,31.37,0,0,0-20.69-27.79L755,684.09a20.93,20.93,0,0,1-11.55-10.2L665.71,521a41.86,41.86,0,0,0-37.31-22.88H327.71A31.39,31.39,0,0,0,296.48,526.41Z"/><path class="e6525e22-e633-43fd-9ffc-e3c951e5c317" d="M984.77,963.84H95.23a5.24,5.24,0,0,1,0-10.47H984.77a5.24,5.24,0,0,1,0,10.47Z"/><path class="e6525e22-e633-43fd-9ffc-e3c951e5c317" d="M984.77,686.51h-89a5.23,5.23,0,1,1,0-10.46h89a5.23,5.23,0,0,1,0,10.46Z"/><path class="e6525e22-e633-43fd-9ffc-e3c951e5c317" d="M922,655.12H817.33a5.24,5.24,0,1,1,0-10.47H922a5.24,5.24,0,0,1,0,10.47Z"/><path class="e6525e22-e633-43fd-9ffc-e3c951e5c317" d="M948.14,623.72h-68a5.23,5.23,0,1,1,0-10.46h68a5.23,5.23,0,1,1,0,10.46Z"/><path class="e6525e22-e633-43fd-9ffc-e3c951e5c317" d="M869.65,519.07H796.4a5.24,5.24,0,1,1,0-10.47h73.25a5.24,5.24,0,0,1,0,10.47Z"/><path class="e6525e22-e633-43fd-9ffc-e3c951e5c317" d="M822.56,487.67h-89a5.23,5.23,0,0,1,0-10.46h89a5.23,5.23,0,0,1,0,10.46Z"/><path class="e6525e22-e633-43fd-9ffc-e3c951e5c317" d="M184.19,613.26H126.63a5.24,5.24,0,0,1,0-10.47h57.56a5.24,5.24,0,0,1,0,10.47Z"/><path class="e6525e22-e633-43fd-9ffc-e3c951e5c317" d="M241.74,581.86H95.23a5.23,5.23,0,1,1,0-10.46H241.74a5.23,5.23,0,1,1,0,10.46Z"/><path class="e6525e22-e633-43fd-9ffc-e3c951e5c317" d="M215.58,550.47H158A5.24,5.24,0,0,1,158,540h57.56a5.24,5.24,0,0,1,0,10.47Z"/><polygon class="bca51436-3e2f-4e7f-92c0-4df9e8c17488" points="851.34 765 775.47 765 799.38 817.33 854.25 817.33 851.34 765"/><polygon class="e2b9731e-e4df-4459-9632-384a61bf55bd" points="258.78 765 311.11 765 308.67 817.33 256.35 817.33 258.78 765"/><path class="a1245138-ff9b-4d8c-9ce0-bed0d80ea483" d="M854.24,822.56H799.38a5.23,5.23,0,0,1-4.75-3.06l-23.92-52.33a5.22,5.22,0,0,1,4.76-7.4h75.87a5.23,5.23,0,0,1,5.22,4.94L859.47,817a5.23,5.23,0,0,1-5.23,5.53Zm-51.49-10.47h46l-2.33-41.86H783.61Z"/><rect class="af707f76-382a-487d-b2e2-024683032395" x="461.51" y="278.37" width="125.58" height="94.19"/><rect class="bfb85db9-2d36-42fe-b70b-59ef98389ae8" x="461.51" y="304.53" width="125.58" height="68.02"/><path class="a1245138-ff9b-4d8c-9ce0-bed0d80ea483" d="M308.67,822.56H256.35a5.23,5.23,0,0,1-5.23-5.48l2.43-52.32a5.24,5.24,0,0,1,5.23-5h52.33a5.23,5.23,0,0,1,5.22,5.47l-2.43,52.33A5.23,5.23,0,0,1,308.67,822.56Zm-46.84-10.47h41.85l1.94-41.86H263.78Z"/><path class="e6525e22-e633-43fd-9ffc-e3c951e5c317" d="M612.91,709.53H571.05A10.47,10.47,0,0,0,560.58,720h0a10.46,10.46,0,0,0,10.47,10.46h41.86A10.46,10.46,0,0,0,623.37,720h0A10.46,10.46,0,0,0,612.91,709.53Z"/><path class="e6525e22-e633-43fd-9ffc-e3c951e5c317" d="M414.07,709.53H372.21A10.46,10.46,0,0,0,361.75,720h0a10.46,10.46,0,0,0,10.46,10.46h41.86A10.46,10.46,0,0,0,424.54,720h0A10.47,10.47,0,0,0,414.07,709.53Z"/><path class="e6525e22-e633-43fd-9ffc-e3c951e5c317" d="M256.83,806.86H215.58a15.7,15.7,0,0,1-15.7-15.7V697a15.7,15.7,0,0,1,15.7-15.7h47.09Z"/><path class="af707f76-382a-487d-b2e2-024683032395" d="M258.3,775.47H215.58a15.7,15.7,0,0,1-15.7-15.7V697a15.7,15.7,0,0,1,15.7-15.7h47.09Z"/><path class="a1245138-ff9b-4d8c-9ce0-bed0d80ea483" d="M256.83,812.09H215.58a21,21,0,0,1-20.93-20.93V697a21,21,0,0,1,20.93-20.93h47.09a5.23,5.23,0,0,1,5.23,5.47L262.06,807.1A5.23,5.23,0,0,1,256.83,812.09ZM215.58,686.51A10.48,10.48,0,0,0,205.12,697v94.18a10.48,10.48,0,0,0,10.46,10.47h36.26l5.35-115.12Z"/><rect class="b2afd4ab-0c8d-42c0-a575-fcf1abb67759" x="335.93" y="309.77" width="125.58" height="151.74"/><rect class="bb13afc5-80d3-446c-b7d2-33f305dd4f80" x="335.93" y="335.93" width="125.58" height="125.58"/><path class="bfb85db9-2d36-42fe-b70b-59ef98389ae8" d="M649.88,466.74H304.53a5.23,5.23,0,0,1-5.23-5.23v-15.7a5.24,5.24,0,0,1,10.47,0v10.47H644.65V445.81a5.24,5.24,0,0,1,10.47,0v15.7A5.23,5.23,0,0,1,649.88,466.74Z"/><path class="bfb85db9-2d36-42fe-b70b-59ef98389ae8" d="M597.56,503.37H356.86a5.23,5.23,0,0,1-5.23-5.23V461.51a5.23,5.23,0,0,1,5.23-5.23h240.7a5.23,5.23,0,0,1,5.23,5.23v36.63A5.23,5.23,0,0,1,597.56,503.37ZM362.09,492.91H592.33V466.74H362.09Z"/><path class="bfb85db9-2d36-42fe-b70b-59ef98389ae8" d="M519.07,503.37H435.35a5.23,5.23,0,0,1-5.23-5.23V461.51a5.23,5.23,0,0,1,5.23-5.23h83.72a5.23,5.23,0,0,1,5.23,5.23v36.63A5.23,5.23,0,0,1,519.07,503.37Zm-78.49-10.46h73.26V466.74H440.58Z"/><path class="a1245138-ff9b-4d8c-9ce0-bed0d80ea483" d="M461.51,466.74H335.93a5.23,5.23,0,0,1-5.23-5.23V309.77a5.24,5.24,0,0,1,5.23-5.24h94.19a5.24,5.24,0,0,1,0,10.47h-89V456.28H456.28V309.77a5.23,5.23,0,1,1,10.46,0V461.51A5.23,5.23,0,0,1,461.51,466.74Z"/><path class="a1245138-ff9b-4d8c-9ce0-bed0d80ea483" d="M587.09,377.79H461.51a5.23,5.23,0,0,1-5.23-5.23V278.37a5.23,5.23,0,0,1,5.23-5.23H587.09a5.24,5.24,0,0,1,5.24,5.23v94.19A5.24,5.24,0,0,1,587.09,377.79ZM466.74,367.33H581.86V283.6H466.74Z"/><rect class="e2b9731e-e4df-4459-9632-384a61bf55bd" x="461.51" y="372.56" width="156.98" height="88.95"/><rect class="bca51436-3e2f-4e7f-92c0-4df9e8c17488" x="461.51" y="398.72" width="156.98" height="62.79"/><path class="a1245138-ff9b-4d8c-9ce0-bed0d80ea483" d="M618.49,466.74h-157a5.23,5.23,0,0,1-5.23-5.23V372.56a5.23,5.23,0,0,1,5.23-5.23h157a5.23,5.23,0,0,1,5.23,5.23v88.95A5.23,5.23,0,0,1,618.49,466.74ZM466.74,456.28H613.26V377.79H466.74Z"/><path class="aca1989d-f382-430f-b2a3-a50ec48e857d" d="M571.4,438H508.6a5.24,5.24,0,0,1-5.23-5.24V417a5.24,5.24,0,0,1,10.47,0V427.5h52.32V417a5.24,5.24,0,0,1,10.47,0v15.7A5.24,5.24,0,0,1,571.4,438Z"/><path class="aca1989d-f382-430f-b2a3-a50ec48e857d" d="M550.47,341.16H498.14a5.23,5.23,0,0,1-5.23-5.23v-15.7a5.23,5.23,0,0,1,10.46,0V330.7h41.86V320.23a5.24,5.24,0,0,1,10.47,0v15.7A5.23,5.23,0,0,1,550.47,341.16Z"/><path class="aca1989d-f382-430f-b2a3-a50ec48e857d" d="M430.12,398.72H367.33a5.23,5.23,0,0,1-5.24-5.23v-15.7a5.24,5.24,0,0,1,10.47,0v10.47h52.32V377.79a5.24,5.24,0,0,1,10.47,0v15.7A5.23,5.23,0,0,1,430.12,398.72Z"/><path class="e6525e22-e633-43fd-9ffc-e3c951e5c317" d="M801.63,895.81a89,89,0,0,0-177.91,0,90.4,90.4,0,0,0,.67,10.47H801A90.4,90.4,0,0,0,801.63,895.81Z"/><path class="e6525e22-e633-43fd-9ffc-e3c951e5c317" d="M398.72,806.86a88.54,88.54,0,0,0-88.28,99.42H487a90.4,90.4,0,0,0,.66-10.47A88.94,88.94,0,0,0,398.72,806.86Z"/><rect class="e6525e22-e633-43fd-9ffc-e3c951e5c317" x="267.91" y="874.88" width="575.58" height="31.4"/><path class="a1245138-ff9b-4d8c-9ce0-bed0d80ea483" d="M859.19,911.51H602.79a5.23,5.23,0,0,1,0-10.46H853.66l-9-162.11a26.12,26.12,0,0,0-17.24-23.16L753.23,689a26,26,0,0,1-14.44-12.75L661,523.4a36.45,36.45,0,0,0-32.64-20H327.71a26.09,26.09,0,0,0-26,23.56L289.74,646.4a36.6,36.6,0,0,1-7.85,19.24l-14.07,17.58L257.69,901.05H571.4a5.23,5.23,0,0,1,0,10.46H252.21A5.23,5.23,0,0,1,247,906l10.47-225a5.21,5.21,0,0,1,1.14-3l15.13-18.91a26.1,26.1,0,0,0,5.6-13.74l11.95-119.47a36.51,36.51,0,0,1,36.44-33H628.4a46.87,46.87,0,0,1,42,25.74l77.75,152.87a15.62,15.62,0,0,0,8.66,7.65L831,705.94a36.54,36.54,0,0,1,24.13,32.42L864.41,906a5.23,5.23,0,0,1-5.22,5.52Z"/><path class="e2b9731e-e4df-4459-9632-384a61bf55bd" d="M728.37,848.72A62.45,62.45,0,0,1,764.2,860a62.77,62.77,0,1,0-87.36,87.36,62.75,62.75,0,0,1,51.53-98.62Z"/><path class="bca51436-3e2f-4e7f-92c0-4df9e8c17488" d="M775.47,895.81A62.41,62.41,0,0,0,764.2,860a62.75,62.75,0,0,0-87.36,87.36,62.76,62.76,0,0,0,98.63-51.53Z"/><circle class="aca1989d-f382-430f-b2a3-a50ec48e857d" cx="712.67" cy="895.81" r="23.55"/><path class="a1245138-ff9b-4d8c-9ce0-bed0d80ea483" d="M712.67,963.84a68,68,0,1,1,68-68A68.11,68.11,0,0,1,712.67,963.84Zm0-125.58a57.56,57.56,0,1,0,57.56,57.55A57.62,57.62,0,0,0,712.67,838.26Z"/><path class="e2b9731e-e4df-4459-9632-384a61bf55bd" d="M414.42,848.72A62.45,62.45,0,0,1,450.25,860a62.77,62.77,0,1,0-87.36,87.36,62.75,62.75,0,0,1,51.53-98.62Z"/><path class="bca51436-3e2f-4e7f-92c0-4df9e8c17488" d="M461.51,895.81A62.48,62.48,0,0,0,450.25,860a62.75,62.75,0,0,0-87.36,87.36,62.75,62.75,0,0,0,98.62-51.53Z"/><circle class="aca1989d-f382-430f-b2a3-a50ec48e857d" cx="398.72" cy="895.81" r="23.55"/><path class="a1245138-ff9b-4d8c-9ce0-bed0d80ea483" d="M398.72,963.84a68,68,0,1,1,68-68A68.1,68.1,0,0,1,398.72,963.84Zm0-125.58a57.56,57.56,0,1,0,57.56,57.55A57.62,57.62,0,0,0,398.72,838.26Z"/><path class="b2afd4ab-0c8d-42c0-a575-fcf1abb67759" d="M241.74,906.28h62.79L283.6,854H241.74a10.46,10.46,0,0,0-10.46,10.47v31.39A10.46,10.46,0,0,0,241.74,906.28Z"/><path class="a1245138-ff9b-4d8c-9ce0-bed0d80ea483" d="M304.53,911.51H241.74a15.71,15.71,0,0,1-15.69-15.7V864.42a15.71,15.71,0,0,1,15.69-15.7H283.6a5.22,5.22,0,0,1,4.86,3.29l20.93,52.32a5.23,5.23,0,0,1-4.86,7.18Zm-62.79-52.32a5.23,5.23,0,0,0-5.23,5.23v31.39a5.24,5.24,0,0,0,5.23,5.24h55.07l-16.75-41.86Z"/><path class="bb13afc5-80d3-446c-b7d2-33f305dd4f80" d="M869.65,906.28H806.86L827.79,854h41.86a10.47,10.47,0,0,1,10.47,10.47v31.39A10.47,10.47,0,0,1,869.65,906.28Z"/><path class="a1245138-ff9b-4d8c-9ce0-bed0d80ea483" d="M869.65,911.51H806.86a5.24,5.24,0,0,1-4.86-7.18L822.93,852a5.24,5.24,0,0,1,4.86-3.29h41.86a15.71,15.71,0,0,1,15.7,15.7v31.39A15.71,15.71,0,0,1,869.65,911.51Zm-55.06-10.46h55.06a5.24,5.24,0,0,0,5.23-5.24V864.42a5.23,5.23,0,0,0-5.23-5.23H831.33Z"/><path class="bb13afc5-80d3-446c-b7d2-33f305dd4f80" d="M367.62,549.37,356.21,663.46a16.21,16.21,0,0,0,16.13,17.82H490.76A16.21,16.21,0,0,0,506.68,662L485,548A16.21,16.21,0,0,0,469,534.77H383.75A16.2,16.2,0,0,0,367.62,549.37Z"/><path class="bb13afc5-80d3-446c-b7d2-33f305dd4f80" d="M621.66,534.77h-83A16.21,16.21,0,0,0,522.73,554L544.47,668.1a16.2,16.2,0,0,0,15.92,13.18H679.68a16.22,16.22,0,0,0,14.46-23.56l-58-114.09A16.2,16.2,0,0,0,621.66,534.77Z"/><path class="b2afd4ab-0c8d-42c0-a575-fcf1abb67759" d="M417.63,534.77,357.71,648.48l-1.5,15a16.14,16.14,0,0,0,4.55,12.89l74.62-141.58Z"/><path class="b2afd4ab-0c8d-42c0-a575-fcf1abb67759" d="M485,548A16.21,16.21,0,0,0,469,534.77h-2.71L389.1,681.28h35.5l63-119.52Z"/><polygon class="b2afd4ab-0c8d-42c0-a575-fcf1abb67759" points="595.54 534.77 539.37 641.35 544.08 666.08 613.29 534.77 595.54 534.77"/><polygon class="b2afd4ab-0c8d-42c0-a575-fcf1abb67759" points="637.8 546.96 567.01 681.28 602.5 681.28 655.23 581.23 637.8 546.96"/><path class="a1245138-ff9b-4d8c-9ce0-bed0d80ea483" d="M490.76,686.51H372.34A21.44,21.44,0,0,1,351,662.93l11.41-114.09a21.39,21.39,0,0,1,21.34-19.31H469A21.47,21.47,0,0,1,490.09,547l21.73,114.09a21.43,21.43,0,0,1-21.06,25.45ZM383.75,540a11,11,0,0,0-10.93,9.89h0L361.42,664a11,11,0,0,0,10.92,12.07H490.76a11,11,0,0,0,10.78-13L479.81,548.92A11,11,0,0,0,469,540Zm-16.13,9.36h0Z"/><path class="a1245138-ff9b-4d8c-9ce0-bed0d80ea483" d="M679.68,686.51H660a5.23,5.23,0,0,1,0-10.46h19.68a11,11,0,0,0,9.79-16L631.45,546a10.93,10.93,0,0,0-9.79-6h-83a11,11,0,0,0-10.79,13l21.74,114.09a11,11,0,0,0,10.78,8.93h68.22a5.23,5.23,0,0,1,0,10.46H560.39a21.46,21.46,0,0,1-21.06-17.43L517.59,555a21.46,21.46,0,0,1,21.07-25.46h83a21.36,21.36,0,0,1,19.12,11.73l58,114.09a21.45,21.45,0,0,1-19.12,31.16Z"/><path class="aca1989d-f382-430f-b2a3-a50ec48e857d" d="M888.32,338.3a18.75,18.75,0,0,0-28.94-23.12A33.83,33.83,0,0,0,792,319.56a34.34,34.34,0,0,0,.59,6.22,28.18,28.18,0,0,0-5.85-.63,28.52,28.52,0,1,0,0,57h97.38a22.14,22.14,0,0,0,4.2-43.88Z"/><path class="e6525e22-e633-43fd-9ffc-e3c951e5c317" d="M884.12,387.42H786.74a33.75,33.75,0,0,1,0-67.5h0v-.36a39.06,39.06,0,0,1,76-12.67A24,24,0,0,1,895.24,335a27.38,27.38,0,0,1-11.12,52.4Zm-97.38-57a23.28,23.28,0,1,0,0,46.56h97.38a16.91,16.91,0,0,0,3.22-33.51,5.22,5.22,0,0,1-3.77-2.94,5.27,5.27,0,0,1,.2-4.78,13.52,13.52,0,0,0-20.87-16.67,5.23,5.23,0,0,1-8.71-3.2,28.59,28.59,0,1,0-56.45,9,5.24,5.24,0,0,1-6.24,6.07A23.09,23.09,0,0,0,786.74,330.39Z"/><path class="aca1989d-f382-430f-b2a3-a50ec48e857d" d="M579.62,176.37a19.61,19.61,0,0,1,30.26-24.17,35.37,35.37,0,0,1,70.44,4.58,35.74,35.74,0,0,1-.62,6.51,28.78,28.78,0,0,1,6.13-.67,29.82,29.82,0,0,1,0,59.63H584a23.15,23.15,0,0,1-4.4-45.88Z"/><path class="e6525e22-e633-43fd-9ffc-e3c951e5c317" d="M685.83,227.48H584a28.38,28.38,0,0,1-11.34-54.4,24.85,24.85,0,0,1,33.78-29.22,40.6,40.6,0,0,1,79.1,12.92c0,.21,0,.41,0,.61h.28a35,35,0,0,1,0,70.09ZM596.7,152.32a14.39,14.39,0,0,0-12.52,21.48,5.23,5.23,0,0,1-3.57,7.71A17.92,17.92,0,0,0,584,217H685.83a24.57,24.57,0,1,0-5-48.62,5.24,5.24,0,0,1-6.24-6.07,29.19,29.19,0,0,0,.54-5.55,30.14,30.14,0,0,0-60-3.91,5.23,5.23,0,0,1-8.7,3.2A14.37,14.37,0,0,0,596.7,152.32Z"/><path class="aca1989d-f382-430f-b2a3-a50ec48e857d" d="M242.19,265.16a15.9,15.9,0,0,0-24.54-19.61,28.69,28.69,0,1,0-56.64,9,23.87,23.87,0,0,0-5-.53,24.18,24.18,0,1,0,0,48.36h82.59a18.77,18.77,0,0,0,3.56-37.21Z"/><path class="e6525e22-e633-43fd-9ffc-e3c951e5c317" d="M238.63,307.6H156.05a29.41,29.41,0,0,1-.77-58.82A33.92,33.92,0,0,1,221,237.48a21.15,21.15,0,0,1,28.48,19.85,20.76,20.76,0,0,1-.51,4.59,24,24,0,0,1-10.35,45.68Zm-82.58-48.36a19,19,0,1,0,0,37.9h82.58a13.54,13.54,0,0,0,2.58-26.84,5.25,5.25,0,0,1-3.57-7.72,10.55,10.55,0,0,0,1.39-5.25,10.67,10.67,0,0,0-17.86-7.91,5.24,5.24,0,0,1-8.72-3.2,23.45,23.45,0,0,0-46.71,3.05,23.77,23.77,0,0,0,.41,4.3,5.22,5.22,0,0,1-6.23,6.09A18.55,18.55,0,0,0,156.05,259.24Z"/></svg>