<svg id="a2c33b0d-33f1-4f75-b4ac-ce67160b86fc" data-name="Capa 1" xmlns="http://www.w3.org/2000/svg" viewBox="0 0 1080 1080"><defs><style>.aa3a6aa2-90d9-462a-9209-2ccea711f235{fill:#f6f6f6;}.eba39c9a-1d7a-47d3-8365-9b3cf84accdf{fill:#fff;}.f562671f-67c4-429c-b979-ff89adbfd08d{fill:#989aa6;}.ee424d5f-24cc-4899-b227-4508e2d24582{fill:#ededed;}.b23e0dcc-dd8b-4627-8280-e3f29c6aa37b{fill:#282c3f;}.ac3613ca-c78e-41b7-a20a-c2a09c7812b3{fill:#34234d;}.eca15ae3-ffd8-4aa2-aa2d-6d8bc94b8301{fill:#a09cad;}.bc653933-d946-4a2d-85be-ced29d3b66ec{fill:#b8b5c6;}.f1d69273-fe46-4b29-9403-595a21a2d81c{fill:#2caae6;}.ba2ad7a0-7e7c-4a97-9b83-dcb14a7c3627{fill:#2fc8f2;}.f072066e-97af-4b8b-982f-9e7d89aeff78{fill:#52576a;}.be151153-bce3-415b-9843-07473a3f07d0{fill:#30354c;}</style></defs><title>ICONS S2R</title><path class="aa3a6aa2-90d9-462a-9209-2ccea711f235" d="M857.68,370.78c-33.17-62.38-22-171.47-81.81-209-58-36.37-150.06,20.52-223.32,18S391.38,114,331,146.23C268.78,179.47,272.31,289.07,234.87,349c-36.28,58.07-137,102-139.59,175.44s94.88,124.31,127,184.79c33.17,62.38,22,171.47,81.81,209,57.95,36.37,150.06-20.52,223.31-18S688.62,966,749,933.77c62.26-33.24,58.73-142.84,96.17-202.76,36.28-58.07,137-102,139.59-175.44S889.84,431.26,857.68,370.78Z"/><path class="eba39c9a-1d7a-47d3-8365-9b3cf84accdf" d="M818.83,708.08a18,18,0,0,1,27.73-22.15,32.41,32.41,0,0,1,64.55,4.2,33.36,33.36,0,0,1-.57,6,27.31,27.31,0,1,1,5.61,54h-93.3a21.21,21.21,0,0,1-4-42Z"/><path class="f562671f-67c4-429c-b979-ff89adbfd08d" d="M916.15,755.36h-93.3a26.45,26.45,0,0,1-10.91-50.54,23.23,23.23,0,0,1,31.22-27.12,37.64,37.64,0,0,1,73.18,12.43v.12a32.56,32.56,0,0,1-.19,65.11Zm-81.67-68.88a12.77,12.77,0,0,0-12.75,12.76,12.52,12.52,0,0,0,1.66,6.27,5.24,5.24,0,0,1-3.58,7.71,16,16,0,0,0,3,31.67h93.3a22.08,22.08,0,1,0-4.53-43.68,5.24,5.24,0,0,1-6.23-6.07,27,27,0,0,0,.49-5,27.18,27.18,0,0,0-54.13-3.53,5.23,5.23,0,0,1-8.71,3.2A12.73,12.73,0,0,0,834.48,686.48Z"/><path class="eba39c9a-1d7a-47d3-8365-9b3cf84accdf" d="M150.11,599.3a17.74,17.74,0,0,1,27.37-21.87,32,32,0,0,1,63.72,4.14,32.58,32.58,0,0,1-.56,5.89,26.47,26.47,0,0,1,5.53-.6,27,27,0,1,1,0,53.93H154.08a20.93,20.93,0,0,1-4-41.49Z"/><path class="f562671f-67c4-429c-b979-ff89adbfd08d" d="M246.17,646H154.08a26.17,26.17,0,0,1-10.84-50,23,23,0,0,1,30.84-26.81,37.23,37.23,0,0,1,72.35,12.35v.06a32.2,32.2,0,0,1-.26,64.39Zm-80.6-68a12.51,12.51,0,0,0-10.9,18.68,5.22,5.22,0,0,1-3.57,7.71,15.71,15.71,0,0,0,3,31.13h92.09a21.72,21.72,0,1,0-4.45-43,5.24,5.24,0,0,1-6.23-6.07,26.75,26.75,0,1,0-52.82-8.41,5.23,5.23,0,0,1-8.7,3.2A12.52,12.52,0,0,0,165.57,578Z"/><path class="eba39c9a-1d7a-47d3-8365-9b3cf84accdf" d="M971.7,283.07a13.65,13.65,0,0,0-21.06-16.83,24.62,24.62,0,0,0-49,3.19A25,25,0,0,0,902,274a20,20,0,0,0-4.26-.46,20.75,20.75,0,1,0,0,41.5h70.87a16.11,16.11,0,0,0,3.05-31.93Z"/><path class="f562671f-67c4-429c-b979-ff89adbfd08d" d="M968.65,320.23H897.78a26,26,0,0,1-1.39-51.93A29.85,29.85,0,0,1,954,258.38a18.87,18.87,0,0,1,24.41,21.5,21.34,21.34,0,0,1-9.72,40.35Zm-70.87-41.5a15.52,15.52,0,0,0,0,31h70.87a10.88,10.88,0,0,0,2.07-21.57,5.22,5.22,0,0,1-3.57-7.71,8.43,8.43,0,0,0-7.34-12.58,8.48,8.48,0,0,0-5.66,2.2,5.18,5.18,0,0,1-5.32,1,5.25,5.25,0,0,1-3.38-4.24,19.39,19.39,0,0,0-38.61,2.52,19.92,19.92,0,0,0,.34,3.58,5.22,5.22,0,0,1-6.24,6.06A15,15,0,0,0,897.78,278.73Z"/><path class="eba39c9a-1d7a-47d3-8365-9b3cf84accdf" d="M537.18,178.67a20.43,20.43,0,0,1,31.53-25.18A36.84,36.84,0,1,1,641.45,165a30.49,30.49,0,0,1,6.38-.69,31.06,31.06,0,0,1,0,62.12H541.76a24.12,24.12,0,0,1-4.58-47.8Z"/><path class="f562671f-67c4-429c-b979-ff89adbfd08d" d="M647.83,231.7H541.76a29.35,29.35,0,0,1-11.56-56.33,26.08,26.08,0,0,1-.91-6.75,25.68,25.68,0,0,1,36-23.53,42.08,42.08,0,0,1,82.05,13.17c0,.29,0,.58,0,.86a36.29,36.29,0,1,1,.51,72.58ZM555,153.39a15.21,15.21,0,0,0-13.24,22.71,5.22,5.22,0,0,1-3.57,7.71,18.89,18.89,0,0,0,3.59,37.43H647.83a25.82,25.82,0,1,0-5.29-51.08,5.23,5.23,0,0,1-6.23-6.09,31.61,31.61,0,1,0-62.41-9.91,5.23,5.23,0,0,1-8.7,3.2A15.19,15.19,0,0,0,555,153.39Z"/><path class="eba39c9a-1d7a-47d3-8365-9b3cf84accdf" d="M210.18,301.63a16.57,16.57,0,0,0-25.57-20.43,29.9,29.9,0,0,0-59.54,3.87,29.22,29.22,0,0,0,.54,5.5,25.19,25.19,0,1,0-5.18,49.83h86a19.56,19.56,0,0,0,3.71-38.77Z"/><path class="f562671f-67c4-429c-b979-ff89adbfd08d" d="M206.47,345.64h-86a30.43,30.43,0,0,1-.59-60.85A35.13,35.13,0,0,1,188,273.08a21.81,21.81,0,0,1,29.58,20.39,22,22,0,0,1-.56,4.92,24.8,24.8,0,0,1-10.54,47.25Zm-86-50.39a20,20,0,0,0,0,39.92h86a14.33,14.33,0,0,0,2.72-28.4,5.24,5.24,0,0,1-3.56-7.72,11.14,11.14,0,0,0,1.47-5.58,11.33,11.33,0,0,0-19-8.4,5.23,5.23,0,0,1-8.71-3.2,24.66,24.66,0,0,0-49.11,3.2,24.36,24.36,0,0,0,.44,4.54,5.23,5.23,0,0,1-6.23,6.08A20.06,20.06,0,0,0,120.43,295.25Z"/><path class="f562671f-67c4-429c-b979-ff89adbfd08d" d="M984.77,963.84H95.23a5.24,5.24,0,0,1,0-10.47H984.77a5.24,5.24,0,0,1,0,10.47Z"/><polygon class="ee424d5f-24cc-4899-b227-4508e2d24582" points="853.95 456.28 540 330.7 226.05 456.28 226.05 958.61 853.95 958.61 853.95 456.28"/><polygon class="eba39c9a-1d7a-47d3-8365-9b3cf84accdf" points="853.95 487.67 540 362.09 226.05 487.67 226.05 958.61 853.95 958.61 853.95 487.67"/><path class="b23e0dcc-dd8b-4627-8280-e3f29c6aa37b" d="M854,963.84H226.05a5.24,5.24,0,0,1-5.24-5.24V791.16a5.24,5.24,0,0,1,10.47,0V953.37H848.72V487.67a5.24,5.24,0,0,1,10.47,0V958.6A5.24,5.24,0,0,1,854,963.84Z"/><path class="ac3613ca-c78e-41b7-a20a-c2a09c7812b3" d="M226.05,765a5.23,5.23,0,0,1-5.24-5.23V456.28a5.24,5.24,0,0,1,3.29-4.86l314-125.58a5.23,5.23,0,1,1,3.88,9.72L231.28,459.82v300A5.23,5.23,0,0,1,226.05,765Z"/><polygon class="eca15ae3-ffd8-4aa2-aa2d-6d8bc94b8301" points="880.12 414.42 540 278.37 199.88 414.42 199.88 466.74 540 330.7 880.12 466.74 880.12 414.42"/><polygon class="bc653933-d946-4a2d-85be-ced29d3b66ec" points="880.12 414.42 540 278.37 199.88 414.42 199.88 445.81 540 309.77 880.12 445.81 880.12 414.42"/><path class="b23e0dcc-dd8b-4627-8280-e3f29c6aa37b" d="M880.12,472a5.29,5.29,0,0,1-2-.38L540,336.33,201.83,471.6a5.23,5.23,0,0,1-7.18-4.86V414.42a5.23,5.23,0,0,1,3.29-4.86l340.12-136a5.3,5.3,0,0,1,3.88,0L882.06,409.56a5.23,5.23,0,0,1,3.29,4.86v52.32a5.23,5.23,0,0,1-5.23,5.24ZM540,325.47a5.19,5.19,0,0,1,1.94.37L874.88,459V418L540,284,205.12,418V459L538.06,325.84A5.19,5.19,0,0,1,540,325.47Z"/><rect class="f1d69273-fe46-4b29-9403-595a21a2d81c" x="304.53" y="550.47" width="470.93" height="408.14"/><rect class="eca15ae3-ffd8-4aa2-aa2d-6d8bc94b8301" x="304.53" y="644.65" width="470.93" height="47.09"/><rect class="eca15ae3-ffd8-4aa2-aa2d-6d8bc94b8301" x="304.53" y="550.47" width="470.93" height="47.09"/><rect class="eca15ae3-ffd8-4aa2-aa2d-6d8bc94b8301" x="304.53" y="597.56" width="470.93" height="47.09"/><rect class="bc653933-d946-4a2d-85be-ced29d3b66ec" x="304.53" y="644.65" width="470.93" height="26.16"/><path class="b23e0dcc-dd8b-4627-8280-e3f29c6aa37b" d="M775.47,963.84H304.53a5.24,5.24,0,0,1-5.23-5.24V550.47a5.24,5.24,0,1,1,10.47,0v402.9H770.23V550.47a5.24,5.24,0,1,1,10.47,0V958.6A5.24,5.24,0,0,1,775.47,963.84Z"/><rect class="bc653933-d946-4a2d-85be-ced29d3b66ec" x="304.53" y="550.47" width="470.93" height="26.16"/><rect class="bc653933-d946-4a2d-85be-ced29d3b66ec" x="304.53" y="597.56" width="470.93" height="26.16"/><path class="b23e0dcc-dd8b-4627-8280-e3f29c6aa37b" d="M775.47,602.79H304.53a5.23,5.23,0,0,1-5.23-5.23V550.47a5.24,5.24,0,0,1,5.23-5.24H608a5.24,5.24,0,1,1,0,10.47H309.77v36.63H770.23V555.7H639.42a5.24,5.24,0,0,1,0-10.47H775.47a5.24,5.24,0,0,1,5.23,5.24v47.09A5.23,5.23,0,0,1,775.47,602.79Z"/><path class="b23e0dcc-dd8b-4627-8280-e3f29c6aa37b" d="M775.47,649.88H304.53a5.23,5.23,0,0,1-5.23-5.23V597.56a5.23,5.23,0,0,1,5.23-5.23H775.47a5.23,5.23,0,0,1,5.23,5.23v47.09A5.23,5.23,0,0,1,775.47,649.88Zm-465.7-10.46H770.23V602.79H309.77Z"/><path class="b23e0dcc-dd8b-4627-8280-e3f29c6aa37b" d="M775.47,697H472a5.24,5.24,0,1,1,0-10.47H770.23V649.88H309.77v36.63H440.58a5.24,5.24,0,0,1,0,10.47h-136a5.24,5.24,0,0,1-5.23-5.24V644.65a5.23,5.23,0,0,1,5.23-5.23H775.47a5.23,5.23,0,0,1,5.23,5.23v47.09A5.24,5.24,0,0,1,775.47,697Z"/><rect class="ba2ad7a0-7e7c-4a97-9b83-dcb14a7c3627" x="508.6" y="445.81" width="62.79" height="62.79" rx="10.47"/><rect class="ba2ad7a0-7e7c-4a97-9b83-dcb14a7c3627" x="634.19" y="445.81" width="62.79" height="62.79" rx="10.47"/><rect class="ba2ad7a0-7e7c-4a97-9b83-dcb14a7c3627" x="383.02" y="445.81" width="62.79" height="62.79" rx="10.47"/><rect class="f1d69273-fe46-4b29-9403-595a21a2d81c" x="508.6" y="471.98" width="62.79" height="36.63" rx="10.47"/><rect class="f1d69273-fe46-4b29-9403-595a21a2d81c" x="634.19" y="471.98" width="62.79" height="36.63" rx="10.47"/><rect class="f1d69273-fe46-4b29-9403-595a21a2d81c" x="383.02" y="471.98" width="62.79" height="36.63" rx="10.47"/><path class="b23e0dcc-dd8b-4627-8280-e3f29c6aa37b" d="M560.93,513.84H519.07a15.71,15.71,0,0,1-15.7-15.7V456.28a15.71,15.71,0,0,1,15.7-15.7h41.86a15.71,15.71,0,0,1,15.7,15.7v41.86A15.71,15.71,0,0,1,560.93,513.84Zm-41.86-62.79a5.23,5.23,0,0,0-5.23,5.23v41.86a5.23,5.23,0,0,0,5.23,5.23h41.86a5.23,5.23,0,0,0,5.23-5.23V456.28a5.23,5.23,0,0,0-5.23-5.23Z"/><path class="b23e0dcc-dd8b-4627-8280-e3f29c6aa37b" d="M686.51,513.84H644.65a15.71,15.71,0,0,1-15.7-15.7V456.28a15.71,15.71,0,0,1,15.7-15.7h41.86a15.71,15.71,0,0,1,15.7,15.7v41.86A15.71,15.71,0,0,1,686.51,513.84Zm-41.86-62.79a5.23,5.23,0,0,0-5.23,5.23v41.86a5.23,5.23,0,0,0,5.23,5.23h41.86a5.23,5.23,0,0,0,5.23-5.23V456.28a5.23,5.23,0,0,0-5.23-5.23Z"/><path class="b23e0dcc-dd8b-4627-8280-e3f29c6aa37b" d="M435.35,513.84H393.49a15.71,15.71,0,0,1-15.7-15.7V456.28a15.71,15.71,0,0,1,15.7-15.7h41.86a15.72,15.72,0,0,1,15.7,15.7v41.86A15.72,15.72,0,0,1,435.35,513.84Zm-41.86-62.79a5.23,5.23,0,0,0-5.23,5.23v41.86a5.23,5.23,0,0,0,5.23,5.23h41.86a5.23,5.23,0,0,0,5.23-5.23V456.28a5.23,5.23,0,0,0-5.23-5.23Z"/><path class="eca15ae3-ffd8-4aa2-aa2d-6d8bc94b8301" d="M639.42,927.21h52.33a0,0,0,0,1,0,0v26.16a5.23,5.23,0,0,1-5.23,5.23H644.65a5.23,5.23,0,0,1-5.23-5.23V927.21A0,0,0,0,1,639.42,927.21Z"/><path class="eca15ae3-ffd8-4aa2-aa2d-6d8bc94b8301" d="M388.26,927.21h52.33a0,0,0,0,1,0,0v26.16a5.23,5.23,0,0,1-5.23,5.23H393.49a5.23,5.23,0,0,1-5.23-5.23V927.21A0,0,0,0,1,388.26,927.21Z"/><path class="b23e0dcc-dd8b-4627-8280-e3f29c6aa37b" d="M686.51,963.84H644.65a10.48,10.48,0,0,1-10.46-10.47V927.21a5.23,5.23,0,0,1,5.23-5.23h52.32a5.23,5.23,0,0,1,5.24,5.23v26.16A10.49,10.49,0,0,1,686.51,963.84Zm-41.86-31.4v20.93h41.86V932.44Z"/><path class="b23e0dcc-dd8b-4627-8280-e3f29c6aa37b" d="M435.35,963.84H393.49A10.49,10.49,0,0,1,383,953.37V927.21a5.23,5.23,0,0,1,5.24-5.23h52.32a5.23,5.23,0,0,1,5.23,5.23v26.16A10.48,10.48,0,0,1,435.35,963.84Zm-41.86-31.4v20.93h41.86V932.44Z"/><path class="ee424d5f-24cc-4899-b227-4508e2d24582" d="M643,733.6H437a16.81,16.81,0,0,0-16.44,13.3l-14,65.19H673.42l-14-65.19A16.81,16.81,0,0,0,643,733.6Z"/><path class="eba39c9a-1d7a-47d3-8365-9b3cf84accdf" d="M659.45,746.9A16.81,16.81,0,0,0,643,733.6H437a16.81,16.81,0,0,0-16.44,13.3l-8.36,39H667.81Z"/><path class="b23e0dcc-dd8b-4627-8280-e3f29c6aa37b" d="M673.42,817.33H406.58a5.24,5.24,0,0,1-5.12-6.33l14-65.2A22.15,22.15,0,0,1,437,728.37H643a22.15,22.15,0,0,1,21.55,17.43l14,65.2a5.24,5.24,0,0,1-5.12,6.33ZM413.05,806.86H667L654.33,748A11.64,11.64,0,0,0,643,738.84H437A11.64,11.64,0,0,0,425.67,748Z"/><path class="f072066e-97af-4b8b-982f-9e7d89aeff78" d="M388.26,812.09H691.74A20.93,20.93,0,0,1,712.67,833v62.79a0,0,0,0,1,0,0H367.33a0,0,0,0,1,0,0V833A20.93,20.93,0,0,1,388.26,812.09Z"/><path class="b23e0dcc-dd8b-4627-8280-e3f29c6aa37b" d="M712.67,901.05H367.33a5.24,5.24,0,0,1-5.24-5.24V833a26.2,26.2,0,0,1,26.17-26.16H691.74A26.2,26.2,0,0,1,717.91,833v62.79A5.24,5.24,0,0,1,712.67,901.05ZM372.56,890.58H707.44V833a15.71,15.71,0,0,0-15.7-15.69H388.26A15.71,15.71,0,0,0,372.56,833Z"/><circle class="eba39c9a-1d7a-47d3-8365-9b3cf84accdf" cx="670.81" cy="853.95" r="15.7"/><circle class="eba39c9a-1d7a-47d3-8365-9b3cf84accdf" cx="409.19" cy="853.95" r="15.7"/><path class="be151153-bce3-415b-9843-07473a3f07d0" d="M341.16,759.39h31.4a5.23,5.23,0,0,1,5.23,5.23v26.16a0,0,0,0,1,0,0H341.16a5.23,5.23,0,0,1-5.23-5.23V764.62A5.23,5.23,0,0,1,341.16,759.39Z"/><path class="be151153-bce3-415b-9843-07473a3f07d0" d="M707.44,760.14h31.4a5.23,5.23,0,0,1,5.23,5.23v20.93a5.23,5.23,0,0,1-5.23,5.23H702.21a0,0,0,0,1,0,0V765.38A5.23,5.23,0,0,1,707.44,760.14Z"/><path class="b23e0dcc-dd8b-4627-8280-e3f29c6aa37b" d="M377.79,796H341.16a10.47,10.47,0,0,1-10.46-10.47V764.62a10.47,10.47,0,0,1,10.46-10.46h31.4A10.47,10.47,0,0,1,383,764.62v26.17A5.23,5.23,0,0,1,377.79,796Zm-36.63-31.4v20.93h31.4V764.62Z"/><path class="b23e0dcc-dd8b-4627-8280-e3f29c6aa37b" d="M738.84,796.77H702.21a5.23,5.23,0,0,1-5.23-5.23V765.38a10.47,10.47,0,0,1,10.46-10.47h31.4a10.47,10.47,0,0,1,10.46,10.47v20.93A10.47,10.47,0,0,1,738.84,796.77Zm-31.4-10.46h31.4V765.38h-31.4Z"/><path class="b23e0dcc-dd8b-4627-8280-e3f29c6aa37b" d="M398.72,816.57a5.15,5.15,0,0,1-3.66-1.5l-20.93-20.55a5.23,5.23,0,0,1,7.32-7.47l20.93,20.56a5.22,5.22,0,0,1-3.66,9Z"/><path class="b23e0dcc-dd8b-4627-8280-e3f29c6aa37b" d="M681.28,817.33a5.23,5.23,0,0,1-3.66-9l20.93-20.55a5.23,5.23,0,1,1,7.32,7.46l-20.93,20.56A5.19,5.19,0,0,1,681.28,817.33Z"/><rect class="eca15ae3-ffd8-4aa2-aa2d-6d8bc94b8301" x="451.05" y="812.09" width="177.91" height="83.72" rx="20.93"/><rect class="bc653933-d946-4a2d-85be-ced29d3b66ec" x="451.05" y="811.34" width="177.91" height="63.54" rx="20.93"/><path class="eba39c9a-1d7a-47d3-8365-9b3cf84accdf" d="M527.44,874.88a5.23,5.23,0,0,1-5.23-5.23V838.26a5.23,5.23,0,1,1,10.46,0v31.39A5.23,5.23,0,0,1,527.44,874.88Z"/><path class="eba39c9a-1d7a-47d3-8365-9b3cf84accdf" d="M552.56,874.88a5.23,5.23,0,0,1-5.23-5.23V838.26a5.23,5.23,0,1,1,10.46,0v31.39A5.23,5.23,0,0,1,552.56,874.88Z"/><path class="eba39c9a-1d7a-47d3-8365-9b3cf84accdf" d="M577.68,874.88a5.23,5.23,0,0,1-5.24-5.23V838.26a5.24,5.24,0,1,1,10.47,0v31.39A5.23,5.23,0,0,1,577.68,874.88Z"/><path class="eba39c9a-1d7a-47d3-8365-9b3cf84accdf" d="M602.79,874.88a5.23,5.23,0,0,1-5.23-5.23V838.26a5.23,5.23,0,1,1,10.46,0v31.39A5.23,5.23,0,0,1,602.79,874.88Z"/><path class="eba39c9a-1d7a-47d3-8365-9b3cf84accdf" d="M502.32,874.88a5.23,5.23,0,0,1-5.23-5.23V838.26a5.24,5.24,0,1,1,10.47,0v31.39A5.23,5.23,0,0,1,502.32,874.88Z"/><path class="eba39c9a-1d7a-47d3-8365-9b3cf84accdf" d="M477.21,874.88a5.23,5.23,0,0,1-5.23-5.23V838.26a5.23,5.23,0,1,1,10.46,0v31.39A5.23,5.23,0,0,1,477.21,874.88Z"/><path class="b23e0dcc-dd8b-4627-8280-e3f29c6aa37b" d="M608,901.05H472a26.2,26.2,0,0,1-26.17-26.17V833A26.2,26.2,0,0,1,472,806.86H608A26.2,26.2,0,0,1,634.19,833v41.86A26.2,26.2,0,0,1,608,901.05ZM472,817.33A15.71,15.71,0,0,0,456.28,833v41.86a15.71,15.71,0,0,0,15.7,15.7H608a15.71,15.71,0,0,0,15.7-15.7V833A15.71,15.71,0,0,0,608,817.33Z"/><rect class="be151153-bce3-415b-9843-07473a3f07d0" x="356.86" y="895.81" width="366.28" height="31.4" rx="10.47"/><path class="b23e0dcc-dd8b-4627-8280-e3f29c6aa37b" d="M712.67,932.44H367.33a15.71,15.71,0,0,1-15.7-15.7V906.28a15.71,15.71,0,0,1,15.7-15.7H712.67a15.71,15.71,0,0,1,15.7,15.7v10.46A15.71,15.71,0,0,1,712.67,932.44ZM367.33,901.05a5.24,5.24,0,0,0-5.24,5.23v10.46a5.25,5.25,0,0,0,5.24,5.24H712.67a5.25,5.25,0,0,0,5.24-5.24V906.28a5.24,5.24,0,0,0-5.24-5.23Z"/></svg>