<svg id="adaa4e7d-e17c-4698-94bb-e61f8f4387b0" data-name="Capa 1" xmlns="http://www.w3.org/2000/svg" viewBox="0 0 1080 1080"><defs><style>.bfc466f1-7936-4c5e-b87a-34a178b75f96{fill:#f6f6f6;}.a12deb12-ab11-4bc3-b2e1-1a2f186a2a47{fill:#52576a;}.acb20988-0c4d-47a6-ac70-34f13898635e{fill:#30354c;}.fb23f0db-f5a7-410b-92a3-84d80e7b0d8a{fill:#2caae6;}.f7e440e4-4872-475e-aab0-e0739cb69c6d{fill:#2fc8f2;}.b7f46e2d-46ec-4382-9d7b-3dfe72ad3f38{fill:#fff;}.b28be598-ceae-476a-8e57-1294fe8c54a0{fill:#ededed;}.b0436be9-bfdb-4546-bf92-6c43efd8f415{fill:#282c3f;}.bfc2bdc7-7123-4b52-bda9-0dd898fe63f2{fill:#b8b5c6;}.bbb1ebb6-61bf-473e-ad81-024cf4472b62{fill:#a09cad;}.a1c9f84c-04e3-4784-ade6-1ab7f10aafae{fill:#989aa6;}</style></defs><title>ICONS S2R</title><path class="bfc466f1-7936-4c5e-b87a-34a178b75f96" d="M858.56,371.61c-32.88-62.83-21.18-172.34-80.8-210.32C720,124.48,627.57,181.17,554.33,178.23s-160.88-66.84-221.39-34.77c-62.43,33.08-59.43,143.18-97.17,203.18C199.19,404.79,98.22,448.45,95.3,522.17s88.17,130,120,190.93c32.88,62.83,10.13,157,86.92,205.61,57.88,36.66,150.18-19.88,223.43-16.94s160.88,66.84,221.39,34.78c62.42-33.09,59.43-143.19,97.16-203.19,36.58-58.15,137.55-101.81,140.47-175.53S890.42,432.51,858.56,371.61Z"/><path class="a12deb12-ab11-4bc3-b2e1-1a2f186a2a47" d="M880.12,498.14V377.79a20.94,20.94,0,0,0-20.93-20.93H639.42V498.14Z"/><path class="acb20988-0c4d-47a6-ac70-34f13898635e" d="M639.42,498.14V618.49a20.93,20.93,0,0,1-20.93,20.93H440.58V775.47a20.94,20.94,0,0,0,20.93,20.93H681.28l130.81,83.72L796.4,796.4h62.79a20.94,20.94,0,0,0,20.93-20.93V498.14Z"/><path class="fb23f0db-f5a7-410b-92a3-84d80e7b0d8a" d="M199.88,498.14V618.49a20.94,20.94,0,0,0,20.93,20.93H283.6l-15.69,83.72,130.81-83.72h41.86V498.14Z"/><path class="f7e440e4-4872-475e-aab0-e0739cb69c6d" d="M440.58,377.79a20.93,20.93,0,0,1,20.93-20.93H639.42v-136a20.94,20.94,0,0,0-20.93-20.93H220.81a20.94,20.94,0,0,0-20.93,20.93V498.14h240.7Z"/><path class="b7f46e2d-46ec-4382-9d7b-3dfe72ad3f38" d="M440.58,377.79V498.14H639.42V356.86H461.51A20.93,20.93,0,0,0,440.58,377.79Z"/><path class="b28be598-ceae-476a-8e57-1294fe8c54a0" d="M639.42,618.49V498.14H440.58V639.42H618.49A20.93,20.93,0,0,0,639.42,618.49Z"/><path class="b0436be9-bfdb-4546-bf92-6c43efd8f415" d="M534.77,801.63H461.51a26.2,26.2,0,0,1-26.16-26.16V377.79a26.2,26.2,0,0,1,26.16-26.16H859.19a26.2,26.2,0,0,1,26.16,26.16V566.16a5.24,5.24,0,1,1-10.47,0V377.79a15.71,15.71,0,0,0-15.69-15.7H461.51a15.72,15.72,0,0,0-15.7,15.7V775.47a15.72,15.72,0,0,0,15.7,15.69h73.26a5.24,5.24,0,0,1,0,10.47Z"/><path class="b0436be9-bfdb-4546-bf92-6c43efd8f415" d="M812.09,885.35a5.23,5.23,0,0,1-2.82-.83L679.75,801.63H566.16a5.24,5.24,0,0,1,0-10.47H681.28a5.22,5.22,0,0,1,2.82.83l120.61,77.2-13.46-71.83a5.24,5.24,0,0,1,5.15-6.2h62.79a15.71,15.71,0,0,0,15.69-15.69V597.56a5.24,5.24,0,0,1,10.47,0V775.47a26.2,26.2,0,0,1-26.16,26.16H802.7l14.53,77.52a5.23,5.23,0,0,1-5.14,6.2Z"/><path class="b0436be9-bfdb-4546-bf92-6c43efd8f415" d="M267.91,728.37a5.22,5.22,0,0,1-5.14-6.2l14.53-77.52H220.81a26.2,26.2,0,0,1-26.16-26.16V472a5.24,5.24,0,1,1,10.47,0V618.49a15.72,15.72,0,0,0,15.69,15.7H283.6a5.23,5.23,0,0,1,5.15,6.19l-13.46,71.83L395.9,635a5.21,5.21,0,0,1,2.82-.82H618.49a15.73,15.73,0,0,0,15.7-15.7V356.86a5.23,5.23,0,0,1,10.46,0V618.49a26.2,26.2,0,0,1-26.16,26.16H400.25L270.73,727.54A5.15,5.15,0,0,1,267.91,728.37Z"/><path class="b0436be9-bfdb-4546-bf92-6c43efd8f415" d="M199.88,445.81a5.23,5.23,0,0,1-5.23-5.23V220.81a26.2,26.2,0,0,1,26.16-26.16H618.49a26.2,26.2,0,0,1,26.16,26.16V325.47a5.23,5.23,0,0,1-10.46,0V220.81a15.72,15.72,0,0,0-15.7-15.69H220.81a15.71,15.71,0,0,0-15.69,15.69V440.58A5.23,5.23,0,0,1,199.88,445.81Z"/><path class="b7f46e2d-46ec-4382-9d7b-3dfe72ad3f38" d="M833,642H681.28a10.47,10.47,0,1,1,0-20.93H833A10.47,10.47,0,1,1,833,642Z"/><path class="b7f46e2d-46ec-4382-9d7b-3dfe72ad3f38" d="M833,699.59H738.84a10.47,10.47,0,1,1,0-20.93H833a10.47,10.47,0,1,1,0,20.93Z"/><path class="b7f46e2d-46ec-4382-9d7b-3dfe72ad3f38" d="M686.51,699.59H487.67a10.47,10.47,0,0,1,0-20.93H686.51a10.47,10.47,0,1,1,0,20.93Z"/><path class="b7f46e2d-46ec-4382-9d7b-3dfe72ad3f38" d="M759.77,757.15H639.42a10.47,10.47,0,1,1,0-20.93H759.77a10.47,10.47,0,0,1,0,20.93Z"/><path class="b7f46e2d-46ec-4382-9d7b-3dfe72ad3f38" d="M592.33,757.15H487.67a10.47,10.47,0,0,1,0-20.93H592.33a10.47,10.47,0,0,1,0,20.93Z"/><path class="b7f46e2d-46ec-4382-9d7b-3dfe72ad3f38" d="M796.4,584.48H681.28a10.47,10.47,0,1,1,0-20.93H796.4a10.47,10.47,0,0,1,0,20.93Z"/><path class="b7f46e2d-46ec-4382-9d7b-3dfe72ad3f38" d="M833,526.92H770.23a10.47,10.47,0,0,1,0-20.93H833a10.47,10.47,0,1,1,0,20.93Z"/><path class="b7f46e2d-46ec-4382-9d7b-3dfe72ad3f38" d="M723.14,526.92H681.28a10.47,10.47,0,1,1,0-20.93h41.86a10.47,10.47,0,0,1,0,20.93Z"/><path class="b7f46e2d-46ec-4382-9d7b-3dfe72ad3f38" d="M833,469.36H681.28a10.47,10.47,0,1,1,0-20.93H833a10.47,10.47,0,1,1,0,20.93Z"/><path class="b7f46e2d-46ec-4382-9d7b-3dfe72ad3f38" d="M833,411.8H681.28a10.47,10.47,0,1,1,0-20.93H833a10.47,10.47,0,1,1,0,20.93Z"/><path class="b7f46e2d-46ec-4382-9d7b-3dfe72ad3f38" d="M398.72,485.06H335.93a10.47,10.47,0,0,1,0-20.93h62.79a10.47,10.47,0,1,1,0,20.93Z"/><path class="b7f46e2d-46ec-4382-9d7b-3dfe72ad3f38" d="M288.84,485.06H247a10.47,10.47,0,1,1,0-20.93h41.86a10.47,10.47,0,0,1,0,20.93Z"/><path class="b7f46e2d-46ec-4382-9d7b-3dfe72ad3f38" d="M398.72,542.62H247a10.47,10.47,0,1,1,0-20.93H398.72a10.47,10.47,0,1,1,0,20.93Z"/><path class="b7f46e2d-46ec-4382-9d7b-3dfe72ad3f38" d="M351.63,600.17H247a10.47,10.47,0,1,1,0-20.93H351.63a10.47,10.47,0,0,1,0,20.93Z"/><path class="b7f46e2d-46ec-4382-9d7b-3dfe72ad3f38" d="M346.4,427.5H247a10.47,10.47,0,1,1,0-20.93H346.4a10.47,10.47,0,0,1,0,20.93Z"/><path class="b7f46e2d-46ec-4382-9d7b-3dfe72ad3f38" d="M398.72,369.94H335.93a10.47,10.47,0,0,1,0-20.93h62.79a10.47,10.47,0,1,1,0,20.93Z"/><path class="b7f46e2d-46ec-4382-9d7b-3dfe72ad3f38" d="M288.84,369.94H247A10.47,10.47,0,1,1,247,349h41.86a10.47,10.47,0,0,1,0,20.93Z"/><path class="b7f46e2d-46ec-4382-9d7b-3dfe72ad3f38" d="M592.33,312.38H404a10.47,10.47,0,0,1,0-20.93H592.33a10.47,10.47,0,0,1,0,20.93Z"/><path class="b7f46e2d-46ec-4382-9d7b-3dfe72ad3f38" d="M356.86,312.38H247a10.47,10.47,0,1,1,0-20.93H356.86a10.47,10.47,0,1,1,0,20.93Z"/><path class="b7f46e2d-46ec-4382-9d7b-3dfe72ad3f38" d="M592.33,254.83H477.21a10.47,10.47,0,1,1,0-20.93H592.33a10.47,10.47,0,0,1,0,20.93Z"/><path class="b7f46e2d-46ec-4382-9d7b-3dfe72ad3f38" d="M430.12,254.83H247a10.47,10.47,0,1,1,0-20.93H430.12a10.47,10.47,0,0,1,0,20.93Z"/><path class="bfc2bdc7-7123-4b52-bda9-0dd898fe63f2" d="M579.23,470.9c-.56-20.5-17.65-37.6-38.15-38.15A39.23,39.23,0,0,0,500.76,472,38.69,38.69,0,0,0,511,498.14h58A38.67,38.67,0,0,0,579.23,470.9Z"/><path class="bbb1ebb6-61bf-473e-ad81-024cf4472b62" d="M563.5,503.23a40.18,40.18,0,0,0,5.5-5.09H511a40.26,40.26,0,0,0,5.51,5.09l-15.44,49a8.73,8.73,0,0,0,8.32,11.35h61.24a8.73,8.73,0,0,0,8.32-11.35Z"/><path class="b0436be9-bfdb-4546-bf92-6c43efd8f415" d="M570.62,568.78H509.38a13.95,13.95,0,0,1-13.31-18.15L510.44,505a44.39,44.39,0,0,1,30.78-77.51c23.22.62,42.61,20,43.24,43.24A44.44,44.44,0,0,1,569.55,505l14.38,45.6a13.95,13.95,0,0,1-13.31,18.15ZM540,438a33.89,33.89,0,0,0-20.34,61.08,5.24,5.24,0,0,1,1.84,5.76l-15.44,49a3.49,3.49,0,0,0,3.33,4.53h61.24a3.49,3.49,0,0,0,3.33-4.53l-15.44-49a5.24,5.24,0,0,1,1.84-5.76A33.6,33.6,0,0,0,574,471,34.41,34.41,0,0,0,540.94,438Z"/><circle class="b7f46e2d-46ec-4382-9d7b-3dfe72ad3f38" cx="942.91" cy="581.86" r="41.86"/><path class="a1c9f84c-04e3-4784-ade6-1ab7f10aafae" d="M942.91,629a5.23,5.23,0,0,1-5.24-5.23,36.67,36.67,0,0,0-36.62-36.63,5.23,5.23,0,1,1,0-10.46A36.67,36.67,0,0,0,937.67,540a5.24,5.24,0,0,1,10.47,0,36.68,36.68,0,0,0,36.63,36.63,5.23,5.23,0,0,1,0,10.46,36.68,36.68,0,0,0-36.63,36.63A5.23,5.23,0,0,1,942.91,629Zm-20.3-47.09a47.37,47.37,0,0,1,20.3,20.3,47.4,47.4,0,0,1,20.29-20.3,47.4,47.4,0,0,1-20.29-20.3A47.37,47.37,0,0,1,922.61,581.86Z"/><circle class="b7f46e2d-46ec-4382-9d7b-3dfe72ad3f38" cx="566.16" cy="916.74" r="41.86"/><path class="a1c9f84c-04e3-4784-ade6-1ab7f10aafae" d="M566.16,963.84a5.23,5.23,0,0,1-5.23-5.24A36.67,36.67,0,0,0,524.3,922a5.24,5.24,0,0,1,0-10.47,36.67,36.67,0,0,0,36.63-36.63,5.24,5.24,0,0,1,10.47,0A36.67,36.67,0,0,0,608,911.51,5.24,5.24,0,1,1,608,922,36.66,36.66,0,0,0,571.4,958.6,5.24,5.24,0,0,1,566.16,963.84Zm-20.29-47.1A47.45,47.45,0,0,1,566.16,937a47.42,47.42,0,0,1,20.3-20.3,47.4,47.4,0,0,1-20.3-20.29A47.43,47.43,0,0,1,545.87,916.74Z"/><circle class="b7f46e2d-46ec-4382-9d7b-3dfe72ad3f38" cx="676.05" cy="163.26" r="41.86"/><path class="a1c9f84c-04e3-4784-ade6-1ab7f10aafae" d="M676.05,210.35a5.23,5.23,0,0,1-5.24-5.23,36.67,36.67,0,0,0-36.62-36.63,5.24,5.24,0,1,1,0-10.47,36.66,36.66,0,0,0,36.62-36.62,5.24,5.24,0,1,1,10.47,0A36.67,36.67,0,0,0,717.91,158a5.24,5.24,0,0,1,0,10.47,36.67,36.67,0,0,0-36.63,36.63A5.23,5.23,0,0,1,676.05,210.35Zm-20.3-47.09a47.45,47.45,0,0,1,20.3,20.29,47.43,47.43,0,0,1,20.29-20.29A47.51,47.51,0,0,1,676.05,143,47.53,47.53,0,0,1,655.75,163.26Z"/><circle class="b7f46e2d-46ec-4382-9d7b-3dfe72ad3f38" cx="838.26" cy="278.37" r="41.86"/><path class="a1c9f84c-04e3-4784-ade6-1ab7f10aafae" d="M838.26,325.47a5.24,5.24,0,0,1-5.24-5.24A36.67,36.67,0,0,0,796.4,283.6a5.23,5.23,0,1,1,0-10.46A36.67,36.67,0,0,0,833,236.51a5.24,5.24,0,0,1,10.47,0,36.67,36.67,0,0,0,36.63,36.63,5.23,5.23,0,0,1,0,10.46,36.68,36.68,0,0,0-36.63,36.63A5.24,5.24,0,0,1,838.26,325.47ZM818,278.37a47.42,47.42,0,0,1,20.3,20.3,47.4,47.4,0,0,1,20.29-20.3,47.4,47.4,0,0,1-20.29-20.3A47.42,47.42,0,0,1,818,278.37Z"/><circle class="b7f46e2d-46ec-4382-9d7b-3dfe72ad3f38" cx="137.09" cy="456.28" r="41.86"/><path class="a1c9f84c-04e3-4784-ade6-1ab7f10aafae" d="M137.09,503.37a5.23,5.23,0,0,1-5.23-5.23,36.67,36.67,0,0,0-36.63-36.63,5.23,5.23,0,0,1,0-10.46,36.67,36.67,0,0,0,36.63-36.63,5.24,5.24,0,0,1,10.47,0A36.67,36.67,0,0,0,179,451.05a5.23,5.23,0,1,1,0,10.46,36.67,36.67,0,0,0-36.62,36.63A5.23,5.23,0,0,1,137.09,503.37ZM116.8,456.28a47.4,47.4,0,0,1,20.29,20.3,47.37,47.37,0,0,1,20.3-20.3,47.37,47.37,0,0,1-20.3-20.3A47.4,47.4,0,0,1,116.8,456.28Z"/><circle class="b7f46e2d-46ec-4382-9d7b-3dfe72ad3f38" cx="342.24" cy="801.63" r="41.86"/><path class="a1c9f84c-04e3-4784-ade6-1ab7f10aafae" d="M342.24,848.72a5.23,5.23,0,0,1-5.23-5.23,36.68,36.68,0,0,0-36.63-36.63,5.23,5.23,0,0,1,0-10.46A36.68,36.68,0,0,0,337,759.77a5.23,5.23,0,1,1,10.46,0A36.68,36.68,0,0,0,384.1,796.4a5.23,5.23,0,0,1,0,10.46,36.68,36.68,0,0,0-36.63,36.63A5.23,5.23,0,0,1,342.24,848.72Zm-20.3-47.09a47.4,47.4,0,0,1,20.3,20.29,47.4,47.4,0,0,1,20.3-20.29,47.37,47.37,0,0,1-20.3-20.3A47.37,47.37,0,0,1,321.94,801.63Z"/></svg>