<svg id="b208e210-e525-4dca-8da0-788c4a4cd1b4" data-name="Capa 1" xmlns="http://www.w3.org/2000/svg" viewBox="0 0 1080 1080"><defs><style>.b8ff7e50-6598-42df-a27a-ded06b1a0c89{fill:#f9f9f9;}.b3c38898-a61c-48ca-bd98-9fdd486b428d{fill:#2caae6;}.ae35bdf1-df1c-4d47-8bbc-9770a18321c5{fill:#282c3f;}.a4121b85-8c38-46c4-8f94-2feba0b86cc4{fill:#2fc8f2;}.f4d90d7c-71b5-46ff-9fa6-e6d91e98fe51{fill:#fff;}.fc4b537d-a1e0-4571-813f-de9c983c76f9{fill:#ededed;}.ad204416-5e5c-4081-8d6a-f24463ac9196{fill:#989aa6;}.a1e36137-24ce-4bbd-bc06-6bde10a6f178{fill:#52576a;}.e8161c8e-404d-45c7-90f3-30b9f1dde36b{fill:#30354c;}</style></defs><title>ICONS S2R</title><path class="b8ff7e50-6598-42df-a27a-ded06b1a0c89" d="M878.67,419.32c-24-65.64,2.53-170.67-51.36-215.74-52.24-43.69-151.55-1.05-223.74-13.86s-150.3-86.93-214.64-63.93c-66.38,23.74-78.44,131.34-124,184.62-44.18,51.66-150.2,80.45-163.16,151.83s76.33,134.82,99.59,198.44c24,65.64-2.53,170.67,51.36,215.74,52.24,43.69,151.55,1.05,223.74,13.86s150.3,86.93,214.64,63.93c66.38-23.74,78.44-131.34,124-184.62,44.18-51.66,150.2-80.45,163.16-151.83S901.93,482.94,878.67,419.32Z"/><polygon class="b3c38898-a61c-48ca-bd98-9fdd486b428d" points="681.28 471.98 681.28 880.12 540 801.63 540 471.98 681.28 471.98"/><path class="ae35bdf1-df1c-4d47-8bbc-9770a18321c5" d="M681.28,885.35a5.23,5.23,0,0,1-2.54-.66L537.46,806.2a5.22,5.22,0,0,1-2.69-4.57V472a5.24,5.24,0,0,1,5.23-5.24H681.28a5.24,5.24,0,0,1,5.23,5.24V880.12a5.23,5.23,0,0,1-5.23,5.23Zm-136-86.8,130.82,72.67v-394H545.23Z"/><polygon class="a4121b85-8c38-46c4-8f94-2feba0b86cc4" points="540 471.98 540 801.63 398.72 880.12 398.72 471.98 540 471.98"/><path class="ae35bdf1-df1c-4d47-8bbc-9770a18321c5" d="M398.72,885.35a5.23,5.23,0,0,1-5.23-5.23V694.19a5.23,5.23,0,1,1,10.46,0v177l130.82-72.67V477.21H404V652.33a5.23,5.23,0,1,1-10.46,0V472a5.24,5.24,0,0,1,5.23-5.24H540a5.24,5.24,0,0,1,5.23,5.24V801.63a5.22,5.22,0,0,1-2.69,4.57L401.26,884.69A5.23,5.23,0,0,1,398.72,885.35Z"/><path class="f4d90d7c-71b5-46ff-9fa6-e6d91e98fe51" d="M300.57,461.51c0,22.81-27.05,48.86-21.43,69.89,5.82,21.77,42.44,30.78,53.46,49.83,11.18,19.33.8,55.51,16.48,71.2s51.87,5.3,71.2,16.48c19.05,11,28.07,47.64,49.83,53.46,21,5.62,47.08-21.43,69.89-21.43s48.86,27,69.89,21.43c21.76-5.82,30.78-42.43,49.83-53.46,19.33-11.18,55.51-.8,71.2-16.48s5.3-51.87,16.48-71.2c11-19.05,47.64-28.07,53.46-49.83,5.62-21-21.43-47.08-21.43-69.89s27.05-48.86,21.43-69.89c-5.82-21.76-42.44-30.78-53.46-49.83-11.18-19.33-.8-55.51-16.48-71.2s-51.87-5.3-71.2-16.48c-19.05-11-28.07-47.64-49.83-53.46-21-5.62-47.08,21.43-69.89,21.43S491.14,195,470.11,200.65c-21.76,5.82-30.78,42.44-49.83,53.46-19.33,11.19-55.51.8-71.2,16.49s-5.3,51.87-16.48,71.19c-11,19.06-47.64,28.07-53.46,49.83C273.52,412.65,300.57,438.71,300.57,461.51Z"/><path class="fc4b537d-a1e0-4571-813f-de9c983c76f9" d="M730.92,270.59c-15.69-15.68-51.87-5.3-71.2-16.48-14.6-8.45-23.33-31.89-36.39-45L463,719.13a25.36,25.36,0,0,0,7.13,3.24c21,5.62,47.08-21.43,69.89-21.43s48.86,27,69.89,21.43c.26-.07.49-.19.74-.27L741,307.48C740.23,293.13,739.27,279,730.92,270.59Z"/><path class="fc4b537d-a1e0-4571-813f-de9c983c76f9" d="M470.11,200.65a25.22,25.22,0,0,0-6.8,3.06l-124,416.17c.79,12.81,2.31,25,9.82,32.55,6.59,6.59,16.8,8.56,27.85,9.48l140.3-446.26C500.93,208,484.37,196.84,470.11,200.65Z"/><path class="ae35bdf1-df1c-4d47-8bbc-9770a18321c5" d="M476.16,728.37a28.61,28.61,0,0,1-7.4-.94C454.81,723.7,446,710.1,437.53,697c-6.1-9.44-12.41-19.2-19.87-23.52-7.66-4.43-19.42-5.05-30.79-5.65-15.48-.81-31.48-1.65-41.49-11.66s-10.84-26-11.66-41.48c-.59-11.37-1.21-23.14-5.64-30.79C323.76,576.4,314,570.09,304.56,564c-13.15-8.5-26.74-17.29-30.47-31.24-3.57-13.35,3.61-27.44,10.55-41.07,5.26-10.32,10.7-21,10.7-30.17s-5.44-19.85-10.7-30.17c-6.94-13.63-14.12-27.72-10.55-41.07,3.73-13.94,17.32-22.73,30.46-31.22,9.44-6.11,19.2-12.42,23.52-19.88,4.43-7.66,5.06-19.42,5.65-30.8.82-15.47,1.66-31.47,11.66-41.47s26-10.85,41.48-11.67c11.38-.6,23.14-1.21,30.8-5.65,7.46-4.31,13.76-14.07,19.87-23.51,8.49-13.15,17.28-26.74,31.22-30.47,13.36-3.56,27.45,3.61,41.08,10.55,10.32,5.26,21,10.7,30.17,10.7s19.85-5.44,30.17-10.7c13.63-6.94,27.74-14.11,41.07-10.55,14,3.73,22.73,17.32,31.23,30.47,6.1,9.43,12.41,19.2,19.87,23.51,7.66,4.43,19.42,5,30.79,5.65,15.48.82,31.48,1.66,41.49,11.67s10.84,26,11.66,41.47c.59,11.38,1.21,23.14,5.64,30.8,4.32,7.46,14.09,13.77,23.52,19.87,13.15,8.5,26.74,17.28,30.47,31.23,3.57,13.35-3.61,27.44-10.55,41.07-5.26,10.32-10.7,21-10.7,30.17s5.44,19.85,10.7,30.18c6.94,13.62,14.12,27.71,10.55,41.06-3.73,14-17.32,22.73-30.46,31.23-8.26,5.34-16.07,10.39-21,16.3a5.23,5.23,0,1,1-8-6.69c6-7.15,14.8-12.87,23.36-18.4,11.48-7.42,23.35-15.09,26-25.14,2.53-9.47-3.45-21.2-9.77-33.61C780.22,485,774.2,473.2,774.2,461.51s6-23.5,11.84-34.92c6.32-12.42,12.3-24.15,9.77-33.62-2.69-10.05-14.57-17.72-26-25.14-10.48-6.77-21.31-13.78-26.89-23.42-5.69-9.84-6.38-22.88-7-35.49-.75-14.12-1.45-27.46-8.61-34.63s-20.51-7.86-34.63-8.61c-12.61-.66-25.65-1.35-35.49-7-9.64-5.58-16.64-16.41-23.42-26.89-7.42-11.49-15.09-23.36-25.14-26-9.49-2.53-21.21,3.44-33.62,9.77-11.42,5.82-23.23,11.83-34.92,11.83s-23.5-6-34.92-11.83c-12.41-6.32-24.13-12.3-33.62-9.77-10,2.68-17.72,14.56-25.15,26-6.77,10.48-13.77,21.31-23.41,26.89-9.84,5.7-22.88,6.38-35.49,7-14.12.75-27.46,1.45-34.63,8.62s-7.87,20.5-8.61,34.62c-.66,12.61-1.35,25.65-7,35.49-5.58,9.64-16.42,16.65-26.9,23.42-11.48,7.42-23.35,15.1-26,25.14-2.53,9.47,3.45,21.2,9.77,33.62,5.82,11.42,11.84,23.23,11.84,34.92s-6,23.5-11.83,34.92c-6.33,12.42-12.31,24.15-9.77,33.62,2.69,10.05,14.56,17.72,26,25.15,10.48,6.77,21.32,13.77,26.89,23.41,5.69,9.84,6.38,22.88,7,35.49.75,14.13,1.45,27.46,8.61,34.63s20.51,7.87,34.63,8.61c12.61.66,25.65,1.35,35.49,7,9.64,5.58,16.64,16.42,23.42,26.9,7.42,11.48,15.09,23.35,25.14,26,9.49,2.54,21.21-3.44,33.62-9.76,11.42-5.82,23.23-11.84,34.92-11.84s23.5,6,34.92,11.83c12.41,6.33,24.14,12.31,33.62,9.77,10.05-2.68,17.72-14.55,25.15-26,6.77-10.47,13.77-21.31,23.41-26.89,9.84-5.69,22.88-6.38,35.49-7,14.12-.74,27.46-1.45,34.63-8.61s7.86-20.5,8.61-34.62l.3-5.4a5.23,5.23,0,1,1,10.44.63l-.29,5.33c-.82,15.46-1.66,31.46-11.66,41.46s-26,10.84-41.48,11.66c-11.38.6-23.14,1.22-30.8,5.65-7.46,4.32-13.76,14.08-19.87,23.52-8.49,13.14-17.28,26.74-31.22,30.47-13.37,3.55-27.45-3.62-41.08-10.56-10.32-5.26-21-10.7-30.17-10.7s-19.85,5.44-30.17,10.7C498.7,722.54,487.26,728.37,476.16,728.37Z"/><path class="ad204416-5e5c-4081-8d6a-f24463ac9196" d="M540,663c-111.08,0-201.45-90.38-201.45-201.46S428.92,260.06,540,260.06s201.45,90.37,201.45,201.45S651.08,663,540,663Zm0-376.75c-96.65,0-175.29,78.63-175.29,175.29S443.35,636.8,540,636.8s175.29-78.63,175.29-175.29S636.65,286.22,540,286.22Z"/><path class="a1e36137-24ce-4bbd-bc06-6bde10a6f178" d="M540,330.7a130.19,130.19,0,0,0-64.24,16.87L422.1,518.25a131.12,131.12,0,0,0,82.29,69.13l78.44-249.47A130.64,130.64,0,0,0,540,330.7Z"/><path class="e8161c8e-404d-45c7-90f3-30b9f1dde36b" d="M670.81,461.51a130.84,130.84,0,0,0-88-123.6L504.39,587.38A130.78,130.78,0,0,0,670.81,461.51Z"/><path class="e8161c8e-404d-45c7-90f3-30b9f1dde36b" d="M409.19,461.51a130.35,130.35,0,0,0,12.91,56.74l53.66-170.68A130.74,130.74,0,0,0,409.19,461.51Z"/><path class="ae35bdf1-df1c-4d47-8bbc-9770a18321c5" d="M540,597.56c-75,0-136-61-136-136s61-136,136.05-136A134.65,134.65,0,0,1,623.38,354a5.23,5.23,0,1,1-6.41,8.26,124.38,124.38,0,0,0-77-26.34A125.58,125.58,0,1,0,665.58,461.51a5.24,5.24,0,0,1,10.47,0C676.05,536.53,615,597.56,540,597.56Z"/><path class="f4d90d7c-71b5-46ff-9fa6-e6d91e98fe51" d="M678.32,379.59a26.53,26.53,0,0,0-37.53,0L539.59,480.78l-43.24-43.23a26.54,26.54,0,0,0-37.53,37.53l62,62a26.53,26.53,0,0,0,37.52,0l120-120A26.53,26.53,0,0,0,678.32,379.59Z"/><path class="ae35bdf1-df1c-4d47-8bbc-9770a18321c5" d="M539.59,550.08a31.54,31.54,0,0,1-22.46-9.3l-62-62a31.77,31.77,0,1,1,44.93-44.93l39.54,39.53,97.5-97.49a31.8,31.8,0,0,1,44.92,0h0a31.76,31.76,0,0,1,0,44.93l-120,120A31.56,31.56,0,0,1,539.59,550.08ZM477.59,435a21.3,21.3,0,0,0-15.07,36.36l62,62a21.29,21.29,0,0,0,30.12,0l120-120a21.29,21.29,0,0,0,0-30.12h0a21.34,21.34,0,0,0-30.13,0L543.29,484.48a5.22,5.22,0,0,1-7.4,0l-43.24-43.23A21.16,21.16,0,0,0,477.59,435Z"/><path class="f4d90d7c-71b5-46ff-9fa6-e6d91e98fe51" d="M227.17,431.91a19,19,0,0,0-29.36-23.45,34.3,34.3,0,1,0-67.72,10.75,28.91,28.91,0,1,0-5.94,57.19H222.9a22.45,22.45,0,0,0,4.27-44.49Z"/><path class="ad204416-5e5c-4081-8d6a-f24463ac9196" d="M222.9,481.64H124.15a34.15,34.15,0,0,1,0-68.3h.11c0-.15,0-.29,0-.44a39.55,39.55,0,0,1,77-12.75,24.27,24.27,0,0,1,33.64,22.39,23.91,23.91,0,0,1-.78,6.08,27.69,27.69,0,0,1-11.19,53Zm-98.75-57.83a23.68,23.68,0,0,0,0,47.36H222.9a17.22,17.22,0,0,0,3.28-34.12,5.23,5.23,0,0,1-3.57-7.72,13.79,13.79,0,0,0-21.28-17,5.23,5.23,0,0,1-8.7-3.2,29.08,29.08,0,0,0-57.91,3.77,28.65,28.65,0,0,0,.52,5.35,5.24,5.24,0,0,1-6.23,6.08A23.51,23.51,0,0,0,124.15,423.81Z"/><path class="f4d90d7c-71b5-46ff-9fa6-e6d91e98fe51" d="M188.72,749.07a19,19,0,0,1,29.36-23.45,34.3,34.3,0,1,1,67.72,10.75,28.91,28.91,0,1,1,5.94,57.2H193a22.45,22.45,0,0,1-4.26-44.5Z"/><path class="ad204416-5e5c-4081-8d6a-f24463ac9196" d="M291.74,798.8H193a27.69,27.69,0,0,1-11.19-53,24.26,24.26,0,0,1,32.87-28.46,39.54,39.54,0,0,1,77,12.74v.44h.11a34.15,34.15,0,1,1,0,68.3Zm-86.45-72.91a13.79,13.79,0,0,0-12,20.6,5.23,5.23,0,0,1-3.57,7.72A17.21,17.21,0,0,0,193,788.33h98.76a23.67,23.67,0,1,0-4.85-46.84,5.24,5.24,0,0,1-6.24-6.07,29.06,29.06,0,1,0-57.38-9.13,5.23,5.23,0,0,1-8.71,3.2A13.79,13.79,0,0,0,205.29,725.89Z"/><path class="f4d90d7c-71b5-46ff-9fa6-e6d91e98fe51" d="M861.63,906.63a22.22,22.22,0,0,0-34.28-27.4,40.08,40.08,0,0,0-79.82,5.2,40.65,40.65,0,0,0,.71,7.37,33,33,0,0,0-6.93-.75,33.78,33.78,0,1,0,0,67.55H856.66a26.22,26.22,0,0,0,5-52Z"/><path class="ad204416-5e5c-4081-8d6a-f24463ac9196" d="M856.66,963.84H741.31a39,39,0,1,1,1-78c0-.47,0-.93,0-1.4a45.31,45.31,0,0,1,88.5-13.7,27.45,27.45,0,0,1,37.86,32.56,31.47,31.47,0,0,1-12,60.55ZM741.31,896.28a28.55,28.55,0,1,0,0,57.09H856.66a21,21,0,0,0,4-41.61,5.22,5.22,0,0,1-3.57-7.71,17,17,0,0,0-26.22-20.94,5.23,5.23,0,0,1-8.71-3.2,34.83,34.83,0,1,0-68.76,10.93,5.23,5.23,0,0,1-6.23,6.08A28.31,28.31,0,0,0,741.31,896.28Z"/><path class="f4d90d7c-71b5-46ff-9fa6-e6d91e98fe51" d="M794.14,167A16.27,16.27,0,0,0,769,147a29.34,29.34,0,1,0-57.93,9.2,25,25,0,0,0-5.08-.54,24.74,24.74,0,1,0,0,49.47h84.47A19.21,19.21,0,0,0,794.14,167Z"/><path class="ad204416-5e5c-4081-8d6a-f24463ac9196" d="M790.49,210.31H706a30,30,0,0,1-.67-59.93,34.58,34.58,0,0,1,67-11.52,21.32,21.32,0,0,1,7.56-1.38A21.55,21.55,0,0,1,801.48,159a21.21,21.21,0,0,1-.54,4.77,24.44,24.44,0,0,1-10.45,46.54ZM706,160.84a19.51,19.51,0,1,0,0,39h84.47a14,14,0,0,0,2.66-27.7,5.24,5.24,0,0,1-3.57-7.72A10.92,10.92,0,0,0,791,159a11,11,0,0,0-18.48-8.17,5.23,5.23,0,0,1-8.7-3.2,24.12,24.12,0,0,0-48,3.13,25.33,25.33,0,0,0,.43,4.45,5.19,5.19,0,0,1-1.5,4.69,5.26,5.26,0,0,1-4.73,1.37A19.16,19.16,0,0,0,706,160.84Z"/><path class="f4d90d7c-71b5-46ff-9fa6-e6d91e98fe51" d="M852.08,571.12a19.13,19.13,0,0,1,29.52-23.59A34.5,34.5,0,0,1,950.32,552a35,35,0,0,1-.61,6.35,28.66,28.66,0,0,1,6-.64,29.08,29.08,0,1,1,0,58.16H856.36a22.58,22.58,0,0,1-4.28-44.75Z"/><path class="ad204416-5e5c-4081-8d6a-f24463ac9196" d="M955.68,621.1H856.36a27.81,27.81,0,0,1-11.22-53.27,24.4,24.4,0,0,1,23.6-30.52,24.1,24.1,0,0,1,9.44,1.92A39.74,39.74,0,0,1,955.55,552c0,.16,0,.32,0,.47h.14a34.32,34.32,0,1,1,0,68.63Zm-86.94-73.32a13.89,13.89,0,0,0-12.11,20.75,5.23,5.23,0,0,1-3.57,7.72,17.35,17.35,0,0,0,3.3,34.39h99.32a23.84,23.84,0,1,0-4.89-47.17,5.23,5.23,0,0,1-6.23-6.08,28.31,28.31,0,0,0,.52-5.39,29.27,29.27,0,0,0-58.29-3.8,5.24,5.24,0,0,1-8.71,3.21A13.88,13.88,0,0,0,868.74,547.78Z"/><path class="f4d90d7c-71b5-46ff-9fa6-e6d91e98fe51" d="M226,218.33a13.77,13.77,0,0,1,21.25-17,24.84,24.84,0,0,1,49.48,3.22,25.56,25.56,0,0,1-.44,4.57,20.31,20.31,0,0,1,4.3-.47,20.94,20.94,0,0,1,0,41.88H229.09A16.26,16.26,0,0,1,226,218.33Z"/><path class="ad204416-5e5c-4081-8d6a-f24463ac9196" d="M300.6,255.78H229.09a21.49,21.49,0,0,1-9.76-40.64,18.75,18.75,0,0,1-.35-3.59,19,19,0,0,1,19-19,18.84,18.84,0,0,1,5.94.95,30.07,30.07,0,0,1,58,10,26.17,26.17,0,0,1-1.35,52.31ZM238,203a8.57,8.57,0,0,0-8.55,8.56,8.38,8.38,0,0,0,1.11,4.2,5.23,5.23,0,0,1-3.57,7.72,11,11,0,0,0,2.1,21.85H300.6a15.7,15.7,0,1,0-3.22-31.06,5.24,5.24,0,0,1-6.23-6.08,19.24,19.24,0,0,0,.35-3.61A19.61,19.61,0,0,0,252.45,202a5.23,5.23,0,0,1-8.7,3.2A8.55,8.55,0,0,0,238,203Z"/></svg>