<svg id="bd2dde15-b078-4f06-9f36-8cc220c96bc9" data-name="Capa 1" xmlns="http://www.w3.org/2000/svg" viewBox="0 0 1080 1080"><defs><style>.a5742cd3-0833-481a-9a19-1b33ead44a93{fill:#f6f6f6;}.a5e42f2a-1a17-43b9-b3f3-aa46909e7e40{fill:#989aa6;}.a16cd605-5512-48bb-9a4c-0a71c2bd7ac0{fill:#fff;}.b7fb2fd8-de42-4f0a-bdf6-c54399ef78a1{fill:#ededed;}.b1229468-7e26-462c-846a-2fb4643e47e9{fill:#282c3f;}.e6e8640f-415f-45dc-b066-2fc0e4db3ac2{fill:#30354c;}.a028d7be-7b9f-46be-b68b-45b97ddacf6d{fill:#52576a;}.a39dfdd9-c65f-422c-8e97-b8757852d065{fill:#2caae6;}.b78c8827-c799-4fd1-9e0a-9ecdb844d703{fill:#e6e6e6;}</style></defs><title>ICONS S2R</title><path class="a5742cd3-0833-481a-9a19-1b33ead44a93" d="M850.93,418.73c-30.35-60.86.33-163.89-51.09-208.4-69.82-60.44-145.94,4-215.88-6.11S438.51,142.17,379.21,171c-86.85,42.17-58.11,86.54-119.45,152.72C215,372,119.4,364,109.87,486.15c-9,115.46,83.14,200.24,107.66,261.42,25.3,63.13-1.89,94.82,51.5,136.93,51.76,40.83,146-4,215.88,6.12s147.62,79.69,208.81,55.17c63.12-25.3,88.53-93.36,115.93-155.6,42-95.32,113.32-116.89,121.56-187.06C941.47,515.7,889.11,495.24,850.93,418.73Z"/><path class="a5e42f2a-1a17-43b9-b3f3-aa46909e7e40" d="M873.59,962.2h-745a5.21,5.21,0,1,1,0-10.42h745a5.21,5.21,0,0,1,0,10.42Z"/><path class="a5e42f2a-1a17-43b9-b3f3-aa46909e7e40" d="M281.47,655.72H170.27a5.22,5.22,0,0,1,0-10.43h111.2a5.22,5.22,0,0,1,0,10.43Z"/><path class="a5e42f2a-1a17-43b9-b3f3-aa46909e7e40" d="M239.77,690.46H128.57a5.21,5.21,0,1,1,0-10.42h111.2a5.21,5.21,0,0,1,0,10.42Z"/><path class="a16cd605-5512-48bb-9a4c-0a71c2bd7ac0" d="M173.87,486.33a185.94,185.94,0,0,0-12.43-15.06,37.81,37.81,0,0,0-26.9-11.56,38.59,38.59,0,0,0-27.91,11.56,39.85,39.85,0,0,0-11.42,28.37,39.14,39.14,0,0,0,11.42,27.54c18.87,18.77,67.24,65.64,67.24,65.64s48.43-46.88,67.23-65.64a39.14,39.14,0,0,0,11.43-27.54,39.78,39.78,0,0,0-11.43-28.37,38.57,38.57,0,0,0-27.9-11.56,37.81,37.81,0,0,0-26.9,11.56A188.28,188.28,0,0,0,173.87,486.33Z"/><path class="a5e42f2a-1a17-43b9-b3f3-aa46909e7e40" d="M173.87,598a5.2,5.2,0,0,1-3.63-1.47c-.49-.47-48.61-47.1-67.28-65.68a44.2,44.2,0,0,1-13-31.2,44.83,44.83,0,0,1,12.92-32.07,43.47,43.47,0,0,1,62.26,0c2.87,3,6.16,6.94,8.69,10.15,2.54-3.21,5.83-7.19,8.69-10.15a43.46,43.46,0,0,1,62.25,0,44.74,44.74,0,0,1,12.93,32.08,44.19,44.19,0,0,1-13,31.18c-18.62,18.57-66.81,65.22-67.29,65.69A5.17,5.17,0,0,1,173.87,598ZM134.13,464.92a33.21,33.21,0,0,0-23.79,10,34.44,34.44,0,0,0-9.91,24.67,33.82,33.82,0,0,0,9.88,23.89c15.62,15.54,52,50.82,63.56,62.07,11.61-11.25,48-46.54,63.55-62.07a33.84,33.84,0,0,0,9.89-23.89,34.38,34.38,0,0,0-9.91-24.67,33,33,0,0,0-47.36,0,185.35,185.35,0,0,0-12,14.54,5.21,5.21,0,0,1-4.18,2.1h0a5.19,5.19,0,0,1-4.18-2.11,184.4,184.4,0,0,0-12-14.53,32.59,32.59,0,0,0-23.22-10Z"/><path class="b7fb2fd8-de42-4f0a-bdf6-c54399ef78a1" d="M773.51,957h-556V404.48L332.2,289.81H773.51Z"/><path class="a16cd605-5512-48bb-9a4c-0a71c2bd7ac0" d="M717.91,901.39,217.53,940.31V412.12L339.84,289.81h417Z"/><path class="b7fb2fd8-de42-4f0a-bdf6-c54399ef78a1" d="M217.53,412.12,339.84,289.81h16.68l10.65,143.68a5.57,5.57,0,0,1-6,6L217.53,428.8Z"/><path class="b1229468-7e26-462c-846a-2fb4643e47e9" d="M773.51,478.5a5.22,5.22,0,0,1-5.21-5.22V295H540a5.22,5.22,0,0,1,0-10.43H773.51a5.22,5.22,0,0,1,5.21,5.22V473.28A5.22,5.22,0,0,1,773.51,478.5Z"/><path class="b1229468-7e26-462c-846a-2fb4643e47e9" d="M217.53,795.21a5.21,5.21,0,0,1-5.21-5.21V412.12a5.2,5.2,0,0,1,1.53-3.68L336.16,286.12a5.2,5.2,0,0,1,3.68-1.53h166.8a5.22,5.22,0,0,1,0,10.43H342L222.74,414.28V790A5.21,5.21,0,0,1,217.53,795.21Z"/><path class="b1229468-7e26-462c-846a-2fb4643e47e9" d="M773.51,962.2h-556a5.21,5.21,0,0,1-5.21-5.21V823.36a5.21,5.21,0,1,1,10.42,0V951.78H768.3V506.64a5.21,5.21,0,1,1,10.42,0V957A5.21,5.21,0,0,1,773.51,962.2Z"/><path class="e6e8640f-415f-45dc-b066-2fc0e4db3ac2" d="M717.92,555.4s-15-20.27-26.35-31.94A80.27,80.27,0,0,0,634.52,499a81.79,81.79,0,0,0-59.18,24.51,84.52,84.52,0,0,0-24.22,60.17A82.93,82.93,0,0,0,575.34,642c40,39.8,142.58,139.18,142.58,139.18S820.6,681.79,860.49,642a83,83,0,0,0,24.22-58.4,84.35,84.35,0,0,0-24.22-60.17A81.78,81.78,0,0,0,801.31,499a80.23,80.23,0,0,0-57,24.51C733,535.13,717.92,555.4,717.92,555.4Z"/><path class="a028d7be-7b9f-46be-b68b-45b97ddacf6d" d="M597.79,552.37A78,78,0,0,1,654.18,529a76.49,76.49,0,0,1,54.37,23.36c8.22,8.47,18.48,21.69,22.91,27.52a2.76,2.76,0,0,0,4.4,0c4.43-5.82,14.7-19,22.93-27.52A76.41,76.41,0,0,1,813.13,529a77.93,77.93,0,0,1,56.39,23.36A79.21,79.21,0,0,1,884,572.61a83.89,83.89,0,0,0-23.52-49.15A81.78,81.78,0,0,0,801.31,499a80.23,80.23,0,0,0-57,24.51C733,535.13,717.92,555.4,717.92,555.4s-15-20.27-26.35-31.94A80.27,80.27,0,0,0,634.52,499a81.79,81.79,0,0,0-59.18,24.51,84.52,84.52,0,0,0-24.22,60.17A82.93,82.93,0,0,0,575.34,642c4.51,4.48,9.84,9.76,15.7,15.53a79.43,79.43,0,0,1-16.33-47.85A80.51,80.51,0,0,1,597.79,552.37Z"/><path class="b1229468-7e26-462c-846a-2fb4643e47e9" d="M717.92,786.42a5.19,5.19,0,0,1-3.63-1.46c-1-1-103.06-99.87-142.63-139.24a87.92,87.92,0,0,1-25.75-62.05,89.26,89.26,0,0,1,25.72-63.87,86.83,86.83,0,0,1,63-26.06,85.26,85.26,0,0,1,60.73,26.09c7.86,8.1,17.29,20,22.61,26.94,5.33-6.93,14.76-18.84,22.62-26.94a85.23,85.23,0,0,1,60.71-26.09,86.11,86.11,0,0,1,63,26.06,89.1,89.1,0,0,1,25.72,63.87,87.94,87.94,0,0,1-25.75,62.05C824.71,685.06,722.57,784,721.54,785A5.16,5.16,0,0,1,717.92,786.42ZM633.65,504.15a76.18,76.18,0,0,0-54.6,23,78.93,78.93,0,0,0-22.72,56.47A77.52,77.52,0,0,0,579,638.33c35.26,35.1,120.3,117.59,138.9,135.62,18.61-18,103.72-100.55,138.89-135.62a77.58,77.58,0,0,0,22.69-54.75,78.83,78.83,0,0,0-22.71-56.46,76.36,76.36,0,0,0-55.42-23A74.84,74.84,0,0,0,748,527.09c-11,11.29-25.78,31.22-25.93,31.42a5.21,5.21,0,0,1-4.18,2.1h0a5.19,5.19,0,0,1-4.19-2.11c-.15-.2-15-20.13-25.91-31.41a74.87,74.87,0,0,0-53.36-22.93Z"/><path class="a16cd605-5512-48bb-9a4c-0a71c2bd7ac0" d="M464.94,143.67A148.54,148.54,0,0,0,455.3,132a29.41,29.41,0,0,0-20.88-9,30,30,0,0,0-21.66,9,30.93,30.93,0,0,0-8.86,22,30.37,30.37,0,0,0,8.86,21.38c14.64,14.56,52.18,50.94,52.18,50.94s37.59-36.39,52.18-50.94A30.4,30.4,0,0,0,526,154a30.89,30.89,0,0,0-8.87-22,30,30,0,0,0-21.66-9,29.39,29.39,0,0,0-20.87,9A149.64,149.64,0,0,0,464.94,143.67Z"/><path class="a5e42f2a-1a17-43b9-b3f3-aa46909e7e40" d="M464.94,231.53a5.2,5.2,0,0,1-3.63-1.47c-.37-.36-37.73-36.56-52.22-51a35.42,35.42,0,0,1-10.4-25,35.65,35.65,0,0,1,35.79-36.24A34.46,34.46,0,0,1,459,128.36c1.92,2,4.08,4.54,5.91,6.81,1.82-2.27,4-4.83,5.9-6.81a34.46,34.46,0,0,1,24.56-10.56h.38a34.92,34.92,0,0,1,25.05,10.53,35.88,35.88,0,0,1,10.36,25.72,35.49,35.49,0,0,1-10.4,25c-14.45,14.42-51.86,50.64-52.24,51A5.16,5.16,0,0,1,464.94,231.53ZM434.1,128.22a24.63,24.63,0,0,0-17.63,7.43A25.54,25.54,0,0,0,409.11,154a25.14,25.14,0,0,0,7.33,17.73c11.77,11.71,38.72,37.88,48.5,47.37,9.79-9.49,36.77-35.67,48.5-47.37A25.12,25.12,0,0,0,520.77,154a25.53,25.53,0,0,0-7.35-18.31,24.54,24.54,0,0,0-17.9-7.42,24.15,24.15,0,0,0-17.19,7.38c-3.86,4-9.15,11.1-9.21,11.17a5.21,5.21,0,0,1-4.18,2.1h0a5.22,5.22,0,0,1-4.19-2.1,140.74,140.74,0,0,0-9.19-11.17,24.16,24.16,0,0,0-17.2-7.38Z"/><path class="a16cd605-5512-48bb-9a4c-0a71c2bd7ac0" d="M925.2,274.29a141.9,141.9,0,0,0-9.42-11.42,28.69,28.69,0,0,0-20.37-8.75,29.22,29.22,0,0,0-21.15,8.75,30.19,30.19,0,0,0-8.65,21.5,29.62,29.62,0,0,0,8.65,20.86C888.55,319.45,925.2,355,925.2,355s36.69-35.52,50.94-49.73a29.65,29.65,0,0,0,8.65-20.86,30.19,30.19,0,0,0-8.65-21.5A29.24,29.24,0,0,0,955,254.12a28.67,28.67,0,0,0-20.37,8.75A141.9,141.9,0,0,0,925.2,274.29Z"/><path class="a5e42f2a-1a17-43b9-b3f3-aa46909e7e40" d="M925.2,360.17a5.16,5.16,0,0,1-3.62-1.47c-.38-.35-36.85-35.69-51-49.77a34.74,34.74,0,0,1-10.19-24.52,34.94,34.94,0,0,1,35.06-35.51,33.75,33.75,0,0,1,24.06,10.35c1.85,1.9,3.92,4.35,5.68,6.54,1.77-2.19,3.83-4.64,5.69-6.55a33.76,33.76,0,0,1,24.05-10.34,35.24,35.24,0,0,1,24.88,60c-14.12,14.08-50.63,49.43-51,49.78A5.16,5.16,0,0,1,925.2,360.17ZM895.1,259.33a23.92,23.92,0,0,0-17.13,7.2,24.9,24.9,0,0,0-7.15,17.8,24.36,24.36,0,0,0,7.12,17.21c11.46,11.4,37.64,36.83,47.26,46.16,9.63-9.33,35.83-34.77,47.26-46.16a24.33,24.33,0,0,0,7.11-17.21,24.81,24.81,0,0,0-7.14-17.79,24.42,24.42,0,0,0-17.38-7.21,23.46,23.46,0,0,0-16.69,7.17,136.11,136.11,0,0,0-9,10.89,5.41,5.41,0,0,1-8.38,0,136.59,136.59,0,0,0-9-10.89,23.44,23.44,0,0,0-16.69-7.17Z"/><polygon class="a39dfdd9-c65f-422c-8e97-b8757852d065" points="217.53 412.12 339.84 289.81 339.84 412.12 217.53 412.12"/><path class="b1229468-7e26-462c-846a-2fb4643e47e9" d="M339.84,417.34H217.53a5.21,5.21,0,0,1-3.68-8.9L336.16,286.12a5.21,5.21,0,0,1,8.9,3.69V412.12A5.22,5.22,0,0,1,339.84,417.34ZM230.11,406.91H334.63V302.39Z"/><path class="a5e42f2a-1a17-43b9-b3f3-aa46909e7e40" d="M578.92,433.67H412.12a10.43,10.43,0,0,1,0-20.85h166.8a10.43,10.43,0,0,1,0,20.85Z"/><path class="b78c8827-c799-4fd1-9e0a-9ecdb844d703" d="M351,590a33.36,33.36,0,1,1-33.37-33.36A33.37,33.37,0,0,1,351,590Z"/><path class="a5e42f2a-1a17-43b9-b3f3-aa46909e7e40" d="M540,517.07H412.12a10.43,10.43,0,0,1,0-20.85H540a10.43,10.43,0,0,1,0,20.85Z"/><path class="a5e42f2a-1a17-43b9-b3f3-aa46909e7e40" d="M512.2,600.46H412.12a10.43,10.43,0,0,1,0-20.85H512.2a10.43,10.43,0,1,1,0,20.85Z"/><path class="b78c8827-c799-4fd1-9e0a-9ecdb844d703" d="M351,506.64a33.36,33.36,0,1,1-33.37-33.36A33.36,33.36,0,0,1,351,506.64Z"/><path class="a39dfdd9-c65f-422c-8e97-b8757852d065" d="M323.55,522.62h0a10.4,10.4,0,0,1-7.37-3L293.56,497a10.42,10.42,0,0,1,14.74-14.74l15.25,15.25,36.73-36.72A10.42,10.42,0,0,1,375,475.48l-44.1,44.09A10.4,10.4,0,0,1,323.55,522.62Z"/><path class="a39dfdd9-c65f-422c-8e97-b8757852d065" d="M323.55,606h0a10.44,10.44,0,0,1-7.37-3l-22.62-22.63A10.42,10.42,0,0,1,308.3,565.6l15.25,15.25,36.73-36.72A10.42,10.42,0,0,1,375,558.87L330.92,603A10.44,10.44,0,0,1,323.55,606Z"/><path class="b78c8827-c799-4fd1-9e0a-9ecdb844d703" d="M351,673.44a33.36,33.36,0,1,1-33.37-33.36A33.37,33.37,0,0,1,351,673.44Z"/><path class="b78c8827-c799-4fd1-9e0a-9ecdb844d703" d="M351,840.23a33.36,33.36,0,1,1-33.37-33.36A33.36,33.36,0,0,1,351,840.23Z"/><path class="b78c8827-c799-4fd1-9e0a-9ecdb844d703" d="M351,756.83a33.36,33.36,0,1,1-33.37-33.35A33.36,33.36,0,0,1,351,756.83Z"/><path class="a5e42f2a-1a17-43b9-b3f3-aa46909e7e40" d="M551.12,683.67h-139a10.43,10.43,0,0,1,0-20.85h139a10.43,10.43,0,1,1,0,20.85Z"/><path class="a5e42f2a-1a17-43b9-b3f3-aa46909e7e40" d="M640.08,767.07h-228a10.43,10.43,0,0,1,0-20.85h228a10.43,10.43,0,0,1,0,20.85Z"/><path class="a39dfdd9-c65f-422c-8e97-b8757852d065" d="M323.55,772.63h0a10.41,10.41,0,0,1-7.37-3.06L293.56,747a10.42,10.42,0,1,1,14.74-14.74l15.25,15.25,36.73-36.72A10.42,10.42,0,0,1,375,725.48l-44.1,44.09A10.41,10.41,0,0,1,323.55,772.63Z"/><path class="a5e42f2a-1a17-43b9-b3f3-aa46909e7e40" d="M673.43,850.27H412.12a10.43,10.43,0,0,1,0-20.85H673.43a10.43,10.43,0,1,1,0,20.85Z"/><path class="a5e42f2a-1a17-43b9-b3f3-aa46909e7e40" d="M962.55,721.74h-83.4a5.22,5.22,0,0,1,0-10.43h83.4a5.22,5.22,0,0,1,0,10.43Z"/><path class="a5e42f2a-1a17-43b9-b3f3-aa46909e7e40" d="M920.85,756.49H809.65a5.22,5.22,0,0,1,0-10.43h111.2a5.22,5.22,0,0,1,0,10.43Z"/><path class="a5e42f2a-1a17-43b9-b3f3-aa46909e7e40" d="M934.75,791.24h-55.6a5.22,5.22,0,0,1,0-10.43h55.6a5.22,5.22,0,0,1,0,10.43Z"/><path class="a5e42f2a-1a17-43b9-b3f3-aa46909e7e40" d="M744.33,222.05h-83.4a5.22,5.22,0,0,1,0-10.43h83.4a5.22,5.22,0,0,1,0,10.43Z"/><path class="a5e42f2a-1a17-43b9-b3f3-aa46909e7e40" d="M702.63,256.79H591.43a5.21,5.21,0,1,1,0-10.42h111.2a5.21,5.21,0,1,1,0,10.42Z"/></svg>