<svg id="b8b56bc2-8231-44c4-90cf-10b000be0fd1" data-name="Capa 1" xmlns="http://www.w3.org/2000/svg" viewBox="0 0 1080 1080"><defs><style>.ace98ae9-20d8-4c69-b079-9052106654d2{fill:#f6f6f6;}.afa43735-e795-4f78-bf22-fbce751afd2b{fill:#fff;}.b7c3e9b1-9d1d-4283-bcc6-c23b71cb85c0{fill:#282c3f;}.b99b0b55-483e-4c58-8650-bde0e93c2e52{fill:#ededed;}.eb0bac7e-a4cd-48df-bd36-98a4c87eefdc{fill:#2caae6;}.bff14516-d700-4594-a078-08f0e7316721{fill:#2fc8f2;}.bf28005b-4b02-4979-b6e9-99785d9b04dd{fill:#30354c;}.e4d395ec-f7e5-4b0c-a58a-ced3e46cf9a3{fill:#52576a;}.f3a4e75e-e8ca-4a07-ad60-1cf9f5947a74{fill:#989aa6;}</style></defs><title>ICONS S2R</title><path class="ace98ae9-20d8-4c69-b079-9052106654d2" d="M961.57,437.44c-16.92-69.3-121.79-91.23-167.9-139.3C746.1,248.55,727.85,143.63,661.84,124.3c-64-18.74-135.47,58.71-204.91,75.6s-168.62-19-216.78,27c-49.69,47.48-17.51,149-36.88,214.89C184.5,505.62,101.5,573.26,118.43,642.56s121.79,91.23,167.9,139.3c47.57,49.59,65.82,154.51,131.83,173.84,64,18.74,135.47-58.71,204.91-75.6s168.62,19,216.78-27c49.69-47.48,17.51-149,36.88-214.89C895.5,574.37,978.5,506.74,961.57,437.44Z"/><rect class="afa43735-e795-4f78-bf22-fbce751afd2b" x="199.88" y="351.63" width="680.23" height="549.42"/><path class="b7c3e9b1-9d1d-4283-bcc6-c23b71cb85c0" d="M880.12,906.28H728a5.24,5.24,0,0,1,0-10.47H874.88V356.86H205.12V529.53a5.24,5.24,0,1,1-10.47,0V351.63a5.23,5.23,0,0,1,5.23-5.23H880.12a5.23,5.23,0,0,1,5.23,5.23V901.05A5.23,5.23,0,0,1,880.12,906.28Z"/><polygon class="b99b0b55-483e-4c58-8650-bde0e93c2e52" points="602.83 901.31 831.09 278.37 653.2 278.37 425.04 901.05 602.83 901.31"/><polygon class="b99b0b55-483e-4c58-8650-bde0e93c2e52" points="330.54 901.05 558.7 278.37 483.14 278.37 254.98 901.05 330.54 901.05"/><path class="b7c3e9b1-9d1d-4283-bcc6-c23b71cb85c0" d="M351.22,906.28H199.88a5.23,5.23,0,0,1-5.23-5.23V560.93a5.24,5.24,0,0,1,10.47,0V895.81h146.1a5.24,5.24,0,0,1,0,10.47Z"/><rect class="eb0bac7e-a4cd-48df-bd36-98a4c87eefdc" x="199.88" y="278.37" width="680.23" height="73.26"/><polygon class="bff14516-d700-4594-a078-08f0e7316721" points="804.24 351.63 831.09 278.37 653.2 278.37 626.35 351.63 804.24 351.63"/><polygon class="bff14516-d700-4594-a078-08f0e7316721" points="531.86 351.63 558.7 278.37 483.14 278.37 456.3 351.63 531.86 351.63"/><path class="b7c3e9b1-9d1d-4283-bcc6-c23b71cb85c0" d="M880.12,356.86H199.88a5.23,5.23,0,0,1-5.23-5.23V278.37a5.23,5.23,0,0,1,5.23-5.23H401.34a5.23,5.23,0,1,1,0,10.46H205.12v62.8H874.88V283.6H432.73a5.23,5.23,0,0,1,0-10.46H880.12a5.23,5.23,0,0,1,5.23,5.23v73.26A5.23,5.23,0,0,1,880.12,356.86Z"/><circle class="afa43735-e795-4f78-bf22-fbce751afd2b" cx="236.51" cy="315" r="7.85"/><circle class="afa43735-e795-4f78-bf22-fbce751afd2b" cx="273.14" cy="315" r="7.85"/><circle class="afa43735-e795-4f78-bf22-fbce751afd2b" cx="309.77" cy="315" r="7.85"/><path class="bf28005b-4b02-4979-b6e9-99785d9b04dd" d="M803.46,646.61H766.18a226.76,226.76,0,0,0-13-48.38l32.32-18.66a13.86,13.86,0,0,0,5.07-18.94l-20.8-36a13.86,13.86,0,0,0-18.94-5.07L718.48,538.2a230.54,230.54,0,0,0-35.4-35.4l18.67-32.35a13.86,13.86,0,0,0-5.07-18.94l-36-20.8a13.86,13.86,0,0,0-18.94,5.07L623.05,468.1a226.33,226.33,0,0,0-48.38-13V417.82A13.87,13.87,0,0,0,560.8,404H519.2a13.87,13.87,0,0,0-13.87,13.87V455.1a226.49,226.49,0,0,0-48.38,13l-18.66-32.32a13.86,13.86,0,0,0-18.94-5.07l-36,20.8a13.86,13.86,0,0,0-5.07,18.94l18.67,32.35a230.54,230.54,0,0,0-35.4,35.4l-32.35-18.67a13.86,13.86,0,0,0-18.94,5.07l-20.8,36a13.86,13.86,0,0,0,5.07,18.94l32.32,18.66a226.17,226.17,0,0,0-13,48.38H276.54a13.87,13.87,0,0,0-13.87,13.87v41.6a13.86,13.86,0,0,0,13.87,13.86h37.28a226.26,226.26,0,0,0,13,48.39L294.5,783a13.86,13.86,0,0,0-5.07,18.94l20.8,36A13.86,13.86,0,0,0,329.17,843l32.35-18.68a230.16,230.16,0,0,0,35.4,35.41l-18.67,32.35a13.86,13.86,0,0,0,5.07,18.94l36,20.8a13.86,13.86,0,0,0,18.94-5.08L457,894.46a227.66,227.66,0,0,0,48.38,13v37.28A13.86,13.86,0,0,0,519.2,958.6h41.6a13.86,13.86,0,0,0,13.87-13.86V907.46a227.51,227.51,0,0,0,48.38-13l18.66,32.31a13.86,13.86,0,0,0,18.94,5.08l36-20.8a13.86,13.86,0,0,0,5.07-18.94l-18.67-32.35a230.16,230.16,0,0,0,35.4-35.41L750.83,843A13.86,13.86,0,0,0,769.77,838l20.8-36A13.86,13.86,0,0,0,785.5,783l-32.32-18.66a226.84,226.84,0,0,0,13-48.39h37.28a13.86,13.86,0,0,0,13.87-13.86v-41.6A13.87,13.87,0,0,0,803.46,646.61Z"/><path class="e4d395ec-f7e5-4b0c-a58a-ced3e46cf9a3" d="M718.48,538.2a230.54,230.54,0,0,0-35.4-35.4l18.67-32.35a13.86,13.86,0,0,0-5.07-18.94l-36-20.8a13.86,13.86,0,0,0-18.94,5.07L623.05,468.1a229.6,229.6,0,0,0-35.48-10.64L425,901.05l-10.31,28.13,4.18,2.41a14.38,14.38,0,0,0,19.64-5.26l14.57-25.24,3.83-6.63c6.49,2.53,13.14,4.71,19.89,6.66a224.37,224.37,0,0,0,28.49,6.34v37.28A13.86,13.86,0,0,0,519.2,958.6h41.6a13.86,13.86,0,0,0,13.87-13.86V907.46a225.79,225.79,0,0,0,27.87-6.15h.29l0-.1L740.55,525.47Z"/><path class="e4d395ec-f7e5-4b0c-a58a-ced3e46cf9a3" d="M457,468.1l-18.66-32.32A13.8,13.8,0,0,0,428,429l-111,303a228.61,228.61,0,0,0,9.88,32.36l-27.57,15.92-8.67,23.67,19.65,34A13.86,13.86,0,0,0,329.17,843l28.7-16.57L493.13,457.31A229.13,229.13,0,0,0,457,468.1Z"/><path class="b7c3e9b1-9d1d-4283-bcc6-c23b71cb85c0" d="M560.8,963.84H519.2a19.12,19.12,0,0,1-19.1-19.1V911.91a232.7,232.7,0,0,1-40.84-11l-16.44,28.46a19.11,19.11,0,0,1-26.09,7l-36-20.8a19.12,19.12,0,0,1-7-26.09L390.17,861a236.26,236.26,0,0,1-29.88-29.88l-28.5,16.45a19.09,19.09,0,0,1-26.09-7l-20.8-36a19.11,19.11,0,0,1,7-26.1L320.35,762a233,233,0,0,1-11-40.85H276.54a19.12,19.12,0,0,1-19.1-19.1v-41.6a19.12,19.12,0,0,1,19.1-19.1h32.83a233,233,0,0,1,11-40.85L291.89,584.1a19.1,19.1,0,0,1-7-26.09l20.8-36a19.09,19.09,0,0,1,26.09-7l28.5,16.45a235.6,235.6,0,0,1,29.88-29.88l-16.45-28.5a19.09,19.09,0,0,1,7-26.09l36-20.8a19.11,19.11,0,0,1,26.09,7l16.44,28.46a232.7,232.7,0,0,1,40.84-11V417.82a19.12,19.12,0,0,1,19.1-19.1h41.6a19.12,19.12,0,0,1,19.1,19.1v32.83a232.7,232.7,0,0,1,40.84,11l16.44-28.46a19.12,19.12,0,0,1,26.09-7l36,20.8a19.09,19.09,0,0,1,7,26.09l-16.45,28.5a236.34,236.34,0,0,1,29.89,29.88L748.21,515a19.09,19.09,0,0,1,26.09,7l20.8,36a19.1,19.1,0,0,1-7,26.09l-28.46,16.43a232.81,232.81,0,0,1,11,40.85h32.83a19.12,19.12,0,0,1,19.1,19.1v41.6a19.12,19.12,0,0,1-19.1,19.1H770.63a233,233,0,0,1-11,40.85l28.46,16.42a19.11,19.11,0,0,1,7,26.1l-20.8,36a19.09,19.09,0,0,1-26.09,7l-28.5-16.45A236.26,236.26,0,0,1,689.83,861l16.45,28.5a19.12,19.12,0,0,1-7,26.09l-36,20.8a19.12,19.12,0,0,1-26.09-7l-16.44-28.46a232.7,232.7,0,0,1-40.84,11v32.83A19.12,19.12,0,0,1,560.8,963.84ZM457,889.23a5.08,5.08,0,0,1,1.9.36,222.72,222.72,0,0,0,47.27,12.7,5.23,5.23,0,0,1,4.45,5.17v37.28a8.64,8.64,0,0,0,8.63,8.63h41.6a8.64,8.64,0,0,0,8.63-8.63V907.46a5.23,5.23,0,0,1,4.45-5.17,222.72,222.72,0,0,0,47.27-12.7,5.23,5.23,0,0,1,6.43,2.25l18.66,32.32A8.64,8.64,0,0,0,658,927.32l36-20.8a8.64,8.64,0,0,0,3.16-11.79l-18.68-32.36a5.23,5.23,0,0,1,1.26-6.69,225.5,225.5,0,0,0,34.6-34.6,5.24,5.24,0,0,1,6.7-1.26l32.35,18.68a8.61,8.61,0,0,0,6.55.86,8.52,8.52,0,0,0,5.24-4l20.8-36a8.63,8.63,0,0,0-3.16-11.79l-32.32-18.66a5.23,5.23,0,0,1-2.25-6.43A222.29,222.29,0,0,0,761,715.16a5.22,5.22,0,0,1,5.17-4.45h37.28a8.64,8.64,0,0,0,8.63-8.63v-41.6a8.64,8.64,0,0,0-8.63-8.63H766.18A5.22,5.22,0,0,1,761,647.4a222.29,222.29,0,0,0-12.7-47.27,5.25,5.25,0,0,1,2.25-6.44L782.88,575A8.63,8.63,0,0,0,786,563.25l-20.8-36a8.63,8.63,0,0,0-11.79-3.16L721.1,542.74a5.24,5.24,0,0,1-6.7-1.26,225.5,225.5,0,0,0-34.6-34.6,5.24,5.24,0,0,1-1.26-6.7l18.68-32.35A8.63,8.63,0,0,0,694.06,456l-36-20.8a8.64,8.64,0,0,0-11.79,3.16l-18.66,32.31a5.22,5.22,0,0,1-6.43,2.26,222.13,222.13,0,0,0-47.27-12.7,5.24,5.24,0,0,1-4.45-5.17V417.82a8.64,8.64,0,0,0-8.63-8.63H519.2a8.64,8.64,0,0,0-8.63,8.63V455.1a5.24,5.24,0,0,1-4.45,5.17A222.13,222.13,0,0,0,458.85,473a5.2,5.2,0,0,1-6.43-2.26L433.76,438.4A8.64,8.64,0,0,0,422,435.24l-36,20.8a8.63,8.63,0,0,0-3.16,11.79l18.68,32.35a5.24,5.24,0,0,1-1.26,6.7,224.62,224.62,0,0,0-34.6,34.6,5.26,5.26,0,0,1-6.7,1.26l-32.35-18.68a8.63,8.63,0,0,0-11.79,3.16l-20.8,36A8.63,8.63,0,0,0,297.12,575l32.32,18.65a5.25,5.25,0,0,1,2.25,6.44A222.29,222.29,0,0,0,319,647.4a5.22,5.22,0,0,1-5.17,4.45H276.54a8.64,8.64,0,0,0-8.63,8.63v41.6a8.64,8.64,0,0,0,8.63,8.63h37.28a5.22,5.22,0,0,1,5.17,4.45,222.29,222.29,0,0,0,12.7,47.27,5.23,5.23,0,0,1-2.25,6.43l-32.32,18.66A8.63,8.63,0,0,0,294,799.31l20.8,36a8.63,8.63,0,0,0,11.79,3.16l32.35-18.68a5.24,5.24,0,0,1,6.7,1.26,225.5,225.5,0,0,0,34.6,34.6,5.23,5.23,0,0,1,1.26,6.69l-18.68,32.36a8.64,8.64,0,0,0,3.16,11.79l36,20.8a8.64,8.64,0,0,0,11.79-3.16l18.66-32.32A5.23,5.23,0,0,1,457,889.23Z"/><path class="b99b0b55-483e-4c58-8650-bde0e93c2e52" d="M540,513.84A166.8,166.8,0,0,0,466.13,531l-79.6,217.25a168.1,168.1,0,0,0,66.58,76.19L566.17,515.89A168.54,168.54,0,0,0,540,513.84Z"/><path class="b99b0b55-483e-4c58-8650-bde0e93c2e52" d="M632.26,821a167.39,167.39,0,0,0,68.43-186.76Z"/><path class="afa43735-e795-4f78-bf22-fbce751afd2b" d="M566.17,515.89,453.11,824.44A167.47,167.47,0,0,0,632.26,821l68.43-186.76A167.58,167.58,0,0,0,566.17,515.89Z"/><path class="afa43735-e795-4f78-bf22-fbce751afd2b" d="M372.56,681.28a166.73,166.73,0,0,0,14,67L466.13,531A167.44,167.44,0,0,0,372.56,681.28Z"/><path class="eb0bac7e-a4cd-48df-bd36-98a4c87eefdc" d="M500.76,806.87a15.72,15.72,0,0,1-14.79-21l78.49-219.76A15.7,15.7,0,1,1,594,576.67L515.54,796.44A15.71,15.71,0,0,1,500.76,806.87Z"/><path class="eb0bac7e-a4cd-48df-bd36-98a4c87eefdc" d="M461.52,754.53a15.64,15.64,0,0,1-12.7-6.46L407,690.51a15.67,15.67,0,0,1,0-18.46l41.86-57.56A15.7,15.7,0,0,1,474.21,633l-35.15,48.33,35.15,48.32a15.69,15.69,0,0,1-12.69,24.93Z"/><path class="eb0bac7e-a4cd-48df-bd36-98a4c87eefdc" d="M618.48,754.53a15.69,15.69,0,0,1-12.69-24.93l35.15-48.32L605.79,633a15.7,15.7,0,0,1,25.39-18.46L673,672.05a15.67,15.67,0,0,1,0,18.46l-41.86,57.56A15.67,15.67,0,0,1,618.48,754.53Z"/><path class="f3a4e75e-e8ca-4a07-ad60-1cf9f5947a74" d="M937.67,833a5.23,5.23,0,0,1-3.7-8.93l15.7-15.7a5.23,5.23,0,1,1,7.4,7.4l-15.7,15.7A5.22,5.22,0,0,1,937.67,833Z"/><path class="f3a4e75e-e8ca-4a07-ad60-1cf9f5947a74" d="M901.05,869.65a5.23,5.23,0,0,1-3.7-8.93L913,845a5.23,5.23,0,0,1,7.4,7.4l-15.69,15.7A5.23,5.23,0,0,1,901.05,869.65Z"/><path class="f3a4e75e-e8ca-4a07-ad60-1cf9f5947a74" d="M953.37,869.65a5.22,5.22,0,0,1-3.7-1.53L934,852.42a5.23,5.23,0,0,1,7.4-7.4l15.7,15.7a5.23,5.23,0,0,1-3.7,8.93Z"/><path class="f3a4e75e-e8ca-4a07-ad60-1cf9f5947a74" d="M916.74,833a5.25,5.25,0,0,1-3.7-1.53l-15.69-15.7a5.23,5.23,0,1,1,7.4-7.4l15.69,15.7a5.23,5.23,0,0,1-3.7,8.93Z"/><path class="f3a4e75e-e8ca-4a07-ad60-1cf9f5947a74" d="M158,404a5.23,5.23,0,0,1-3.7-8.93l15.7-15.7a5.23,5.23,0,1,1,7.4,7.4l-15.7,15.7A5.22,5.22,0,0,1,158,404Z"/><path class="f3a4e75e-e8ca-4a07-ad60-1cf9f5947a74" d="M121.4,440.58a5.23,5.23,0,0,1-3.7-8.93L133.39,416a5.23,5.23,0,1,1,7.4,7.4l-15.7,15.7A5.21,5.21,0,0,1,121.4,440.58Z"/><path class="f3a4e75e-e8ca-4a07-ad60-1cf9f5947a74" d="M173.72,440.58a5.22,5.22,0,0,1-3.7-1.53l-15.7-15.7a5.23,5.23,0,1,1,7.4-7.4l15.7,15.7a5.23,5.23,0,0,1-3.7,8.93Z"/><path class="f3a4e75e-e8ca-4a07-ad60-1cf9f5947a74" d="M137.09,404a5.23,5.23,0,0,1-3.7-1.53l-15.69-15.7a5.23,5.23,0,1,1,7.39-7.4l15.7,15.7a5.23,5.23,0,0,1-3.7,8.93Z"/><path class="f3a4e75e-e8ca-4a07-ad60-1cf9f5947a74" d="M131.86,707.44a5.23,5.23,0,0,1-3.7-8.93l15.7-15.7a5.23,5.23,0,0,1,7.4,7.4l-15.7,15.7A5.22,5.22,0,0,1,131.86,707.44Z"/><path class="f3a4e75e-e8ca-4a07-ad60-1cf9f5947a74" d="M95.23,744.07a5.23,5.23,0,0,1-3.7-8.93l15.7-15.7a5.23,5.23,0,0,1,7.4,7.4l-15.7,15.7A5.22,5.22,0,0,1,95.23,744.07Z"/><path class="f3a4e75e-e8ca-4a07-ad60-1cf9f5947a74" d="M147.56,744.07a5.22,5.22,0,0,1-3.7-1.53l-15.7-15.7a5.23,5.23,0,0,1,7.4-7.4l15.7,15.7a5.23,5.23,0,0,1-3.7,8.93Z"/><path class="f3a4e75e-e8ca-4a07-ad60-1cf9f5947a74" d="M110.93,707.44a5.22,5.22,0,0,1-3.7-1.53l-15.7-15.7a5.23,5.23,0,0,1,7.4-7.4l15.7,15.7a5.23,5.23,0,0,1-3.7,8.93Z"/><path class="f3a4e75e-e8ca-4a07-ad60-1cf9f5947a74" d="M597.56,215.58a5.23,5.23,0,0,1-3.7-8.93l15.7-15.7a5.23,5.23,0,1,1,7.4,7.4l-15.7,15.7A5.22,5.22,0,0,1,597.56,215.58Z"/><path class="f3a4e75e-e8ca-4a07-ad60-1cf9f5947a74" d="M560.93,252.21a5.23,5.23,0,0,1-3.7-8.93l15.7-15.7a5.23,5.23,0,0,1,7.4,7.4l-15.7,15.7A5.22,5.22,0,0,1,560.93,252.21Z"/><path class="f3a4e75e-e8ca-4a07-ad60-1cf9f5947a74" d="M613.26,252.21a5.22,5.22,0,0,1-3.7-1.53L593.86,235a5.23,5.23,0,1,1,7.4-7.4l15.7,15.7a5.23,5.23,0,0,1-3.7,8.93Z"/><path class="f3a4e75e-e8ca-4a07-ad60-1cf9f5947a74" d="M576.63,215.58a5.22,5.22,0,0,1-3.7-1.53l-15.7-15.7a5.23,5.23,0,0,1,7.4-7.4l15.7,15.7a5.23,5.23,0,0,1-3.7,8.93Z"/><path class="f3a4e75e-e8ca-4a07-ad60-1cf9f5947a74" d="M885.35,184.19a5.24,5.24,0,0,1-3.7-8.94l15.7-15.69a5.23,5.23,0,0,1,7.4,7.4l-15.7,15.69A5.23,5.23,0,0,1,885.35,184.19Z"/><path class="f3a4e75e-e8ca-4a07-ad60-1cf9f5947a74" d="M848.72,220.81a5.23,5.23,0,0,1-3.7-8.93l15.7-15.7a5.23,5.23,0,1,1,7.4,7.4l-15.7,15.7A5.22,5.22,0,0,1,848.72,220.81Z"/><path class="f3a4e75e-e8ca-4a07-ad60-1cf9f5947a74" d="M901.05,220.81a5.22,5.22,0,0,1-3.7-1.53l-15.7-15.7a5.23,5.23,0,1,1,7.4-7.4l15.7,15.7a5.23,5.23,0,0,1-3.7,8.93Z"/><path class="f3a4e75e-e8ca-4a07-ad60-1cf9f5947a74" d="M864.42,184.19a5.23,5.23,0,0,1-3.7-1.54L845,167a5.23,5.23,0,0,1,7.4-7.4l15.7,15.69a5.24,5.24,0,0,1-3.7,8.94Z"/><path class="f3a4e75e-e8ca-4a07-ad60-1cf9f5947a74" d="M288.84,142.33a5.24,5.24,0,0,1-3.7-8.94l15.7-15.69a5.23,5.23,0,0,1,7.39,7.39l-15.69,15.7A5.24,5.24,0,0,1,288.84,142.33Z"/><path class="f3a4e75e-e8ca-4a07-ad60-1cf9f5947a74" d="M252.21,179a5.23,5.23,0,0,1-3.7-8.93l15.7-15.7a5.23,5.23,0,0,1,7.4,7.4l-15.7,15.7A5.22,5.22,0,0,1,252.21,179Z"/><path class="f3a4e75e-e8ca-4a07-ad60-1cf9f5947a74" d="M304.53,179a5.21,5.21,0,0,1-3.69-1.53l-15.7-15.7a5.23,5.23,0,0,1,7.4-7.4L308.23,170a5.23,5.23,0,0,1-3.7,8.93Z"/><path class="f3a4e75e-e8ca-4a07-ad60-1cf9f5947a74" d="M267.91,142.33a5.23,5.23,0,0,1-3.7-1.54l-15.7-15.7a5.23,5.23,0,1,1,7.4-7.39l15.7,15.69a5.24,5.24,0,0,1-3.7,8.94Z"/><path class="f3a4e75e-e8ca-4a07-ad60-1cf9f5947a74" d="M969.07,550.47a5.24,5.24,0,0,1-3.7-8.94l15.7-15.69a5.23,5.23,0,0,1,7.4,7.39l-15.7,15.7A5.23,5.23,0,0,1,969.07,550.47Z"/><path class="f3a4e75e-e8ca-4a07-ad60-1cf9f5947a74" d="M932.44,587.09a5.23,5.23,0,0,1-3.7-8.93l15.7-15.7a5.23,5.23,0,0,1,7.4,7.4l-15.7,15.7A5.22,5.22,0,0,1,932.44,587.09Z"/><path class="f3a4e75e-e8ca-4a07-ad60-1cf9f5947a74" d="M984.77,587.09a5.22,5.22,0,0,1-3.7-1.53l-15.7-15.7a5.23,5.23,0,0,1,7.4-7.4l15.7,15.7a5.23,5.23,0,0,1-3.7,8.93Z"/><path class="f3a4e75e-e8ca-4a07-ad60-1cf9f5947a74" d="M948.14,550.47a5.23,5.23,0,0,1-3.7-1.54l-15.7-15.7a5.23,5.23,0,0,1,7.4-7.39l15.7,15.69a5.24,5.24,0,0,1-3.7,8.94Z"/></svg>