<?xml version="1.0" encoding="UTF-8"?>
<svg id="Capa_1" data-name="Capa 1" xmlns="http://www.w3.org/2000/svg" viewBox="0 0 1080 1080">
  <defs>
    <style>
      .cls-1 {
        fill: #f6f6f6;
      }

      .cls-2 {
        fill: #66a8e3;
      }

      .cls-3 {
        fill: #ebebeb;
      }

      .cls-4 {
        fill: #fff;
      }

      .cls-5 {
        fill: #9799a4;
      }

      .cls-6 {
        fill: #9c9aaa;
      }

      .cls-7 {
        fill: #b5b3c3;
      }

      .cls-8 {
        fill: #65b3f0;
      }

      .cls-9 {
        fill: #33284d;
      }

      .cls-10 {
        fill: #2d3041;
      }

      .cls-11 {
        fill: #35384c;
      }

      .cls-12 {
        fill: #545869;
      }

      .cls-13 {
        fill: #76c6ef;
      }
    </style>
  </defs>
  <path class="cls-1" d="m870.4,395.89c-27.74-64.95-7.39-172.62-63.74-215.07-54.62-41.14-151.14,7.67-223.85-1.12-72.71-8.79-154.89-79.19-217.7-52.24-64.8,27.81-70.56,137.25-112.91,193.72-41.05,54.74-145.07,89.95-153.83,162.83-8.77,72.88,83.92,131.86,110.82,194.81,27.74,64.95,7.39,172.62,63.74,215.07,54.62,41.14,151.14-7.67,223.85,1.11,72.71,8.79,154.89,79.19,217.7,52.24,64.8-27.8,70.56-137.24,112.91-193.72,41.05-54.75,145.07-89.96,153.83-162.83,8.76-72.88-83.92-131.86-110.82-194.81Z"/>
  <path class="cls-4" d="m199.92,897.26c-1.98-3.49-3.12-7.51-3.12-11.81,0-13.26,10.75-24.01,24.01-24.01,6.21,0,11.85,2.38,16.11,6.25,2.76-21.24,20.88-37.66,42.88-37.66,23.9,0,43.28,19.37,43.28,43.27,0,2.72-.28,5.38-.77,7.96,2.42-.51,4.92-.81,7.49-.81,20.14,0,36.46,16.32,36.46,36.46s-16.32,36.46-36.46,36.46h-124.51c-15.65,0-28.33-12.69-28.33-28.33,0-13.8,9.89-25.26,22.96-27.77Z"/>
  <path class="cls-5" d="m329.81,958.57h-124.51c-18.49,0-33.53-15.04-33.53-33.53,0-13.88,8.58-26.12,21.11-31.1-.83-2.74-1.26-5.6-1.26-8.48,0-16.11,13.1-29.21,29.21-29.21,4.42,0,8.74,1.01,12.65,2.9,6.12-20.03,24.8-34.32,46.33-34.32,26.73,0,48.48,21.74,48.48,48.47,0,.66-.02,1.32-.05,1.98,23.61-.93,43.23,18.13,43.23,41.63s-18.69,41.66-41.66,41.66Zm-108.99-91.92c-10.37,0-18.81,8.44-18.81,18.81,0,3.22.84,6.42,2.44,9.24.83,1.46.9,3.22.2,4.75-.71,1.52-2.1,2.6-3.74,2.93-10.86,2.08-18.74,11.61-18.74,22.66,0,12.76,10.37,23.13,23.13,23.13h124.51c17.24,0,31.26-14.03,31.26-31.26,0-19.32-17.46-34.84-37.68-30.56-1.69.36-3.47-.16-4.71-1.37-1.24-1.21-1.8-2.97-1.48-4.68.45-2.41.68-4.76.68-7,0-20.99-17.08-38.07-38.08-38.07-19.05,0-35.27,14.24-37.72,33.13-.25,1.92-1.54,3.54-3.36,4.21-1.81.66-3.86.27-5.29-1.03-3.48-3.16-7.96-4.9-12.62-4.9Z"/>
  <path class="cls-4" d="m774.87,847.65c-1.44-2.53-2.27-5.45-2.27-8.57,0-9.63,7.81-17.43,17.43-17.43,4.51,0,8.61,1.73,11.71,4.53,2-15.43,15.16-27.35,31.13-27.35,17.35,0,31.42,14.07,31.42,31.42,0,1.98-.2,3.9-.55,5.78,1.76-.38,3.57-.59,5.44-.59,14.63,0,26.48,11.85,26.48,26.48s-11.85,26.47-26.48,26.47h-90.42c-11.36,0-20.57-9.21-20.57-20.57,0-10.02,7.18-18.34,16.67-20.17Z"/>
  <path class="cls-5" d="m869.19,893.59h-90.42c-14.21,0-25.77-11.56-25.77-25.77,0-10.23,6.06-19.29,15.05-23.41-.42-1.74-.64-3.53-.64-5.33,0-12.48,10.15-22.63,22.63-22.63,2.88,0,5.7.55,8.33,1.59,5.07-14.33,18.78-24.41,34.51-24.41,20.19,0,36.62,16.42,36.62,36.61,17.32.17,31.36,14.32,31.36,31.68s-14.21,31.67-31.68,31.67Zm-79.15-66.75c-6.74,0-12.23,5.49-12.23,12.23,0,2.1.55,4.18,1.58,6,.83,1.46.9,3.22.2,4.75-.7,1.52-2.09,2.61-3.74,2.93-7.22,1.39-12.46,7.72-12.46,15.06,0,8.48,6.9,15.37,15.37,15.37h90.42c11.73,0,21.28-9.54,21.28-21.27,0-13.15-11.98-23.73-25.63-20.81-1.7.38-3.47-.14-4.72-1.36-1.24-1.21-1.8-2.97-1.48-4.68.31-1.65.47-3.28.47-4.82,0-14.46-11.77-26.22-26.22-26.22-13.12,0-24.29,9.81-25.98,22.82-.25,1.92-1.54,3.54-3.36,4.21-1.82.66-3.85.27-5.29-1.03-2.26-2.06-5.18-3.19-8.21-3.19Z"/>
  <path class="cls-4" d="m795.36,322.73c-1.47-2.6-2.32-5.6-2.32-8.8,0-9.89,8.01-17.9,17.9-17.9,4.63,0,8.84,1.77,12.01,4.66,2.06-15.84,15.57-28.09,31.97-28.09,17.82,0,32.27,14.45,32.27,32.27,0,2.03-.21,4.01-.57,5.93,1.81-.38,3.67-.6,5.59-.6,15.02,0,27.19,12.17,27.19,27.19s-12.17,27.19-27.19,27.19h-92.84c-11.66,0-21.13-9.46-21.13-21.12,0-10.29,7.37-18.84,17.12-20.71Z"/>
  <path class="cls-5" d="m892.21,369.76h-92.84c-14.51,0-26.33-11.81-26.33-26.32,0-10.49,6.24-19.78,15.48-23.96-.45-1.81-.68-3.68-.68-5.55,0-12.74,10.36-23.1,23.1-23.1,2.99,0,5.92.58,8.64,1.68,5.15-14.73,19.22-25.11,35.35-25.11,20.66,0,37.47,16.81,37.47,37.47v.13c17.77.1,32.21,14.59,32.21,32.39s-14.53,32.39-32.39,32.39Zm-81.27-68.54c-7,0-12.7,5.7-12.7,12.7,0,2.21.55,4.31,1.65,6.24.83,1.46.9,3.22.2,4.74-.71,1.52-2.1,2.61-3.74,2.93-7.48,1.44-12.9,8-12.9,15.61,0,8.78,7.14,15.92,15.93,15.92h92.84c12.13,0,21.99-9.86,21.99-21.99,0-13.59-12.29-24.48-26.5-21.5-1.69.36-3.47-.15-4.71-1.37-1.24-1.21-1.8-2.97-1.48-4.68.32-1.7.48-3.37.48-4.97,0-14.93-12.14-27.07-27.07-27.07-13.54,0-25.07,10.13-26.82,23.56-.25,1.92-1.54,3.54-3.36,4.21-1.81.66-3.85.27-5.29-1.03-2.35-2.13-5.37-3.31-8.52-3.31Z"/>
  <path class="cls-4" d="m962.48,628.29c1.67-2.93,2.63-6.32,2.63-9.93,0-11.16-9.04-20.2-20.2-20.2-5.23,0-9.97,2-13.56,5.26-2.32-17.88-17.57-31.69-36.07-31.69-20.11,0-36.42,16.3-36.42,36.41,0,2.29.24,4.52.64,6.69-2.04-.43-4.14-.68-6.3-.68-16.95,0-30.68,13.74-30.68,30.68s13.73,30.68,30.68,30.68h104.76c13.16,0,23.83-10.67,23.83-23.84,0-11.61-8.32-21.26-19.32-23.37Z"/>
  <path class="cls-5" d="m957.97,680.7h-104.76c-19.78,0-35.88-16.09-35.88-35.88s16.09-35.88,35.88-35.88c.16,0,.31,0,.47,0,0-.27-.01-.54-.01-.82,0-22.94,18.67-41.61,41.62-41.61,18.15,0,33.96,11.84,39.48,28.56,3.17-1.39,6.62-2.12,10.15-2.12,14.01,0,25.4,11.4,25.4,25.4,0,2.25-.3,4.49-.89,6.65,10.48,4.49,17.59,14.89,17.59,26.66,0,16.01-13.03,29.04-29.03,29.04Zm-104.76-61.36c-14.05,0-25.48,11.43-25.48,25.48s11.43,25.48,25.48,25.48h104.76c10.27,0,18.63-8.36,18.63-18.64,0-8.9-6.35-16.59-15.1-18.26-1.65-.32-3.04-1.41-3.74-2.93-.7-1.52-.63-3.29.2-4.74,1.27-2.25,1.95-4.79,1.95-7.37,0-8.27-6.73-15-15-15-3.72,0-7.29,1.39-10.07,3.91-1.43,1.31-3.47,1.69-5.29,1.03-1.82-.67-3.11-2.29-3.36-4.21-2.01-15.48-15.3-27.16-30.92-27.16-17.21,0-31.22,14-31.22,31.21,0,1.86.18,3.73.56,5.74.32,1.71-.24,3.46-1.48,4.68-1.24,1.21-3.02,1.73-4.71,1.37-1.78-.38-3.53-.57-5.23-.57Z"/>
  <path class="cls-4" d="m257.2,168.32c-1.38-2.44-2.18-5.25-2.18-8.25,0-9.26,7.51-16.77,16.77-16.77,4.34,0,8.28,1.66,11.25,4.36,1.92-14.84,14.58-26.31,29.95-26.31,16.7,0,30.23,13.53,30.23,30.23,0,1.9-.2,3.75-.53,5.56,1.69-.36,3.43-.57,5.23-.57,14.07,0,25.47,11.4,25.47,25.47s-11.4,25.46-25.47,25.46h-86.97c-10.93,0-19.79-8.86-19.79-19.79,0-9.64,6.91-17.65,16.04-19.4Z"/>
  <path class="cls-5" d="m347.92,212.71h-86.97c-13.78,0-24.99-11.21-24.99-24.99,0-9.86,5.81-18.61,14.44-22.63-.39-1.64-.58-3.32-.58-5.02,0-12.11,9.86-21.97,21.97-21.97,2.72,0,5.39.51,7.89,1.47,4.96-13.76,18.17-23.42,33.31-23.42,19.47,0,35.32,15.78,35.43,35.22,16.68.27,30.16,13.92,30.16,30.66s-13.76,30.67-30.67,30.67Zm-76.13-64.21c-6.38,0-11.57,5.19-11.57,11.57,0,1.99.52,3.95,1.5,5.68.82,1.46.9,3.22.2,4.74-.71,1.52-2.1,2.61-3.74,2.93-6.85,1.32-11.82,7.33-11.82,14.3,0,8.04,6.55,14.59,14.59,14.59h86.97c11.18,0,20.27-9.09,20.27-20.27,0-12.53-11.43-22.59-24.41-19.81-1.71.35-3.47-.15-4.71-1.36-1.24-1.21-1.8-2.97-1.49-4.68.3-1.61.45-3.12.45-4.61,0-13.8-11.23-25.03-25.03-25.03-12.52,0-23.18,9.36-24.79,21.78-.25,1.92-1.54,3.54-3.36,4.21-1.81.67-3.85.27-5.29-1.03-2.14-1.94-4.9-3.01-7.76-3.01Z"/>
  <path class="cls-4" d="m253.15,484.7c1.84-3.26,2.91-7.02,2.91-11.03,0-12.38-10.04-22.42-22.43-22.42-5.8,0-11.07,2.22-15.05,5.84-2.57-19.84-19.5-35.18-40.04-35.18-22.32,0-40.42,18.1-40.42,40.42,0,2.54.26,5.02.71,7.43-2.26-.48-4.59-.75-6.99-.75-18.81,0-34.05,15.24-34.05,34.05s15.24,34.05,34.05,34.05h116.29c14.62,0,26.46-11.85,26.46-26.46,0-12.89-9.23-23.6-21.44-25.94Z"/>
  <path class="cls-5" d="m248.13,542.31h-116.29c-21.64,0-39.25-17.61-39.25-39.25s18.06-39.99,40.36-39.23c-.02-.5-.03-1-.03-1.5,0-25.15,20.47-45.62,45.62-45.62,20.13,0,37.61,13.27,43.48,31.92,3.61-1.68,7.56-2.57,11.61-2.57,15.23,0,27.63,12.39,27.63,27.62,0,2.61-.38,5.21-1.11,7.71,11.68,4.79,19.64,16.26,19.64,29.26,0,17.46-14.2,31.66-31.66,31.66Zm-116.29-68.1c-15.91,0-28.85,12.94-28.85,28.85s12.94,28.85,28.85,28.85h116.29c11.72,0,21.26-9.54,21.26-21.26,0-10.15-7.24-18.92-17.22-20.84-1.65-.32-3.04-1.4-3.74-2.93-.71-1.52-.63-3.29.19-4.74,1.46-2.58,2.23-5.51,2.23-8.47,0-9.5-7.73-17.22-17.23-17.22-4.27,0-8.37,1.59-11.56,4.49-1.43,1.3-3.46,1.7-5.29,1.03-1.81-.67-3.11-2.29-3.36-4.21-2.26-17.47-17.26-30.65-34.88-30.65-19.42,0-35.22,15.8-35.22,35.22,0,2.1.2,4.22.63,6.49.31,1.71-.24,3.46-1.48,4.67-1.25,1.21-3.01,1.72-4.71,1.36-2-.42-3.99-.64-5.91-.64Z"/>
  <path class="cls-2" d="m539.79,204.56c-24.37,0-44.2-19.83-44.2-44.2s19.83-44.2,44.2-44.2,44.2,19.83,44.2,44.2-19.83,44.2-44.2,44.2Zm0-78c-18.64,0-33.8,15.16-33.8,33.8s15.16,33.8,33.8,33.8,33.8-15.16,33.8-33.8-15.16-33.8-33.8-33.8Z"/>
  <circle class="cls-7" cx="539.79" cy="537.36" r="338"/>
  <path class="cls-6" d="m765.42,285.74c53.69,59.84,86.38,138.9,86.38,225.62,0,186.67-151.33,338-338,338-86.72,0-165.78-32.69-225.62-86.39,61.88,68.97,151.67,112.39,251.62,112.39,186.67,0,338-151.33,338-338,0-99.95-43.42-189.74-112.38-251.62Z"/>
  <path class="cls-10" d="m207.54,480.16c-.31,0-.63-.03-.96-.09-2.82-.53-4.68-3.24-4.16-6.07,30.27-162.15,172.16-279.85,337.37-279.85,61.3,0,121.45,16.36,173.97,47.3,2.47,1.46,3.3,4.64,1.84,7.12-1.46,2.48-4.65,3.3-7.12,1.84-50.92-30-109.25-45.86-168.69-45.86-160.21,0-297.8,114.12-327.14,271.36-.47,2.5-2.65,4.25-5.11,4.25Z"/>
  <path class="cls-10" d="m539.79,880.57c-189.24,0-343.2-153.96-343.2-343.2,0-8.15.29-16.41.87-24.55.2-2.86,2.73-5.02,5.55-4.82,2.86.2,5.02,2.69,4.82,5.55-.55,7.9-.84,15.92-.84,23.82,0,183.51,149.29,332.8,332.8,332.8s332.8-149.29,332.8-332.8c0-105.08-50.5-205.16-135.09-267.73-2.31-1.71-2.8-4.96-1.09-7.27,1.71-2.31,4.96-2.8,7.27-1.09,87.22,64.52,139.3,167.73,139.3,276.09,0,189.24-153.96,343.2-343.2,343.2Z"/>
  <circle class="cls-4" cx="539.79" cy="537.36" r="275.6"/>
  <path class="cls-3" d="m513.79,786.96c-69.49,0-132.92-25.77-181.4-68.21,50.52,57.71,124.67,94.21,207.4,94.21,152.21,0,275.6-123.39,275.6-275.6,0-82.72-36.5-156.88-94.21-207.4,42.43,48.48,68.21,111.91,68.21,181.4,0,152.21-123.39,275.6-275.6,275.6Z"/>
  <path class="cls-10" d="m539.79,818.16c-154.83,0-280.8-125.97-280.8-280.8s125.97-280.8,280.8-280.8,280.8,125.97,280.8,280.8c0,85.15-38,164.74-104.26,218.37-2.23,1.8-5.52,1.45-7.31-.77-1.81-2.23-1.46-5.5.77-7.31,63.81-51.65,100.4-128.29,100.4-210.29,0-149.1-121.3-270.4-270.4-270.4s-270.4,121.3-270.4,270.4,121.3,270.4,270.4,270.4c49.75,0,98.38-13.62,140.62-39.39,2.44-1.5,5.65-.73,7.14,1.73,1.5,2.45.72,5.65-1.73,7.14-43.87,26.77-94.36,40.92-146.03,40.92Z"/>
  <path class="cls-7" d="m716.6,381.36l-150.19,90.11c-5.24-1.11-10.65-1.71-16.21-1.71-43.08,0-78,34.92-78,78,0,5.56.6,10.98,1.71,16.21l-90.11,150.19,150.19-90.11c5.24,1.11,10.65,1.71,16.21,1.71,43.08,0,78-34.92,78-78,0-5.56-.6-10.98-1.71-16.21l90.11-150.19Z"/>
  <path class="cls-7" d="m383.79,719.36c-1.34,0-2.68-.52-3.68-1.52-1.69-1.69-2.01-4.31-.78-6.35l89.08-148.47c-.94-5.07-1.42-10.19-1.42-15.26,0-45.88,37.32-83.2,83.2-83.2,5.07,0,10.19.48,15.26,1.42l148.47-89.08c2.05-1.23,4.67-.91,6.35.78,1.69,1.69,2.01,4.31.78,6.35l-89.08,148.47c.94,5.06,1.42,10.19,1.42,15.26,0,45.88-37.32,83.2-83.2,83.2-5.07,0-10.19-.48-15.26-1.42l-148.47,89.08c-.83.5-1.76.74-2.68.74Zm166.4-244.4c-40.14,0-72.8,32.66-72.8,72.8,0,5.03.54,10.12,1.6,15.14.27,1.28.05,2.63-.63,3.75l-79.41,132.35,132.35-79.41c1.13-.68,2.47-.9,3.75-.63,5.02,1.06,10.11,1.6,15.14,1.6,40.14,0,72.8-32.66,72.8-72.8,0-5.03-.54-10.12-1.6-15.14-.27-1.28-.05-2.63.63-3.75l79.41-132.35-132.35,79.41c-1.13.67-2.48.89-3.75.63-5.02-1.06-10.11-1.6-15.14-1.6Z"/>
  <path class="cls-11" d="m373.39,703.76l150.19-90.11c5.24,1.11,10.65,1.71,16.21,1.71,21.54,0,41.04-8.73,55.15-22.85l-55.15-55.15-166.4,166.4Z"/>
  <path class="cls-12" d="m484.64,482.21c-14.12,14.11-22.85,33.61-22.85,55.15,0,5.56.6,10.98,1.71,16.21l-90.11,150.19,166.4-166.4-55.15-55.15Z"/>
  <path class="cls-13" d="m706.2,370.96l-150.19,90.11c-5.24-1.11-10.65-1.71-16.21-1.71-21.54,0-41.04,8.73-55.15,22.85l55.15,55.15,166.4-166.4Z"/>
  <path class="cls-8" d="m539.79,537.36l55.15,55.15c14.12-14.11,22.85-33.61,22.85-55.15,0-5.56-.6-10.98-1.71-16.21l90.11-150.19-166.4,166.4Z"/>
  <circle class="cls-4" cx="539.79" cy="537.36" r="36.4"/>
  <path class="cls-4" d="m594.95,597.71c-1.33,0-2.66-.51-3.68-1.52l-110.31-110.31c-2.03-2.03-2.03-5.32,0-7.35,2.03-2.03,5.32-2.03,7.35,0l110.31,110.31c2.03,2.03,2.03,5.32,0,7.35-1.02,1.02-2.35,1.52-3.68,1.52Z"/>
  <path class="cls-9" d="m539.79,578.96c-22.94,0-41.6-18.66-41.6-41.6s18.66-41.6,41.6-41.6,41.6,18.66,41.6,41.6-18.66,41.6-41.6,41.6Zm0-72.8c-17.21,0-31.2,14-31.2,31.2s14,31.2,31.2,31.2,31.2-14,31.2-31.2-14-31.2-31.2-31.2Z"/>
  <circle class="cls-6" cx="758.2" cy="537.36" r="23.4"/>
  <circle class="cls-7" cx="321.39" cy="537.36" r="23.4"/>
  <circle class="cls-6" cx="539.79" cy="755.76" r="23.4"/>
  <circle class="cls-7" cx="539.79" cy="318.96" r="23.4"/>
  <path class="cls-10" d="m758.2,565.96c-15.77,0-28.6-12.83-28.6-28.6s12.83-28.6,28.6-28.6,28.6,12.83,28.6,28.6-12.83,28.6-28.6,28.6Zm0-46.8c-10.03,0-18.2,8.17-18.2,18.2s8.17,18.2,18.2,18.2,18.2-8.17,18.2-18.2-8.17-18.2-18.2-18.2Z"/>
  <path class="cls-10" d="m321.39,565.96c-15.77,0-28.6-12.83-28.6-28.6s12.83-28.6,28.6-28.6,28.6,12.83,28.6,28.6-12.83,28.6-28.6,28.6Zm0-46.8c-10.03,0-18.2,8.17-18.2,18.2s8.17,18.2,18.2,18.2,18.2-8.17,18.2-18.2-8.17-18.2-18.2-18.2Z"/>
  <path class="cls-9" d="m539.79,784.36c-15.77,0-28.6-12.83-28.6-28.6s12.83-28.6,28.6-28.6,28.6,12.83,28.6,28.6-12.83,28.6-28.6,28.6Zm0-46.8c-10.03,0-18.2,8.17-18.2,18.2s8.17,18.2,18.2,18.2,18.2-8.17,18.2-18.2-8.17-18.2-18.2-18.2Z"/>
  <path class="cls-10" d="m539.79,347.56c-15.77,0-28.6-12.83-28.6-28.6s12.83-28.6,28.6-28.6,28.6,12.83,28.6,28.6-12.83,28.6-28.6,28.6Zm0-46.8c-10.03,0-18.2,8.17-18.2,18.2s8.17,18.2,18.2,18.2,18.2-8.17,18.2-18.2-8.17-18.2-18.2-18.2Z"/>
  <path class="cls-10" d="m373.39,708.96c-1.34,0-2.68-.52-3.68-1.52-1.69-1.69-2.01-4.31-.78-6.35l89.08-148.47c-.94-5.07-1.42-10.19-1.42-15.26,0-45.88,37.32-83.2,83.2-83.2,5.07,0,10.19.48,15.26,1.42l148.47-89.08c2.05-1.23,4.66-.91,6.35.78,1.69,1.69,2.01,4.31.78,6.35l-89.08,148.47c.94,5.06,1.42,10.19,1.42,15.26,0,45.88-37.32,83.2-83.2,83.2-5.07,0-10.19-.48-15.26-1.42l-148.47,89.08c-.83.5-1.76.74-2.68.74Zm166.4-244.4c-40.14,0-72.8,32.66-72.8,72.8,0,5.03.54,10.12,1.6,15.14.27,1.28.05,2.63-.63,3.75l-79.41,132.35,132.35-79.41c1.12-.68,2.48-.91,3.75-.63,5.02,1.06,10.11,1.6,15.14,1.6,40.14,0,72.8-32.66,72.8-72.8,0-5.03-.54-10.12-1.6-15.14-.27-1.28-.05-2.63.63-3.75l79.41-132.35-132.35,79.41c-1.12.68-2.48.9-3.75.63-5.02-1.06-10.11-1.6-15.14-1.6Z"/>
</svg>