<svg id="b6fb32b6-f7ef-45bd-868f-cde8c0436c11" data-name="Capa 1" xmlns="http://www.w3.org/2000/svg" viewBox="0 0 1080 1080"><defs><style>.a75a1647-d69d-4de5-b48b-08f0b861674d{fill:#f6f6f6;}.a5e3f255-78f3-4278-8090-3374651fa6ff{fill:#fff;}.ba9e6094-a8e8-47c7-8b22-55a7c7ead32a{fill:#989aa6;}.e6aedb8c-8214-4012-96ef-64e2c72d1bc7{fill:#2fc8f2;}.e325880c-ea7b-48ac-b679-9ecec8ecfc65{fill:#2caae6;}.fd217b59-13e7-4a16-afb8-ffc320f4c635{fill:#282c3f;}.aa277fef-72ea-4ae4-b6f1-b30bef6bdc75{fill:#52576a;}.bb12bfb9-1317-47e4-9e8d-f82202c85115{fill:#30354c;}.bfe89ff2-e292-4aca-a444-963308efa0bb{fill:#e6e6e6;}.b167886d-1853-4138-834b-09546aa73dc7{fill:#00b5f4;}</style></defs><title>ICONOS S2R</title><path class="a75a1647-d69d-4de5-b48b-08f0b861674d" d="M961.57,437.44c16.93,69.3-66.06,136.94-84.84,200.79-19.37,65.88,12.81,167.41-36.88,214.89-48.16,46-147.34,10.09-216.78,27s-140.93,94.34-204.91,75.6c-66-19.33-84.26-124.25-131.83-173.84-46.11-48.07-151-70-167.9-139.3s66.06-136.94,84.84-200.79c19.37-65.88-12.81-167.41,36.88-214.89,48.16-46,147.34-10.09,216.78-27s140.93-94.34,204.91-75.6c66,19.33,84.26,124.25,131.83,173.84C839.78,346.21,944.65,368.14,961.57,437.44Z"/><circle class="a5e3f255-78f3-4278-8090-3374651fa6ff" cx="158.02" cy="817.33" r="62.79"/><path class="ba9e6094-a8e8-47c7-8b22-55a7c7ead32a" d="M158,885.35a5.23,5.23,0,0,1-5.23-5.23,57.62,57.62,0,0,0-57.56-57.56,5.24,5.24,0,0,1,0-10.47,57.62,57.62,0,0,0,57.56-57.56,5.24,5.24,0,0,1,10.47,0,57.62,57.62,0,0,0,57.55,57.56,5.24,5.24,0,1,1,0,10.47,57.62,57.62,0,0,0-57.55,57.56A5.23,5.23,0,0,1,158,885.35Zm-36.62-68A68.4,68.4,0,0,1,158,854a68.45,68.45,0,0,1,36.63-36.62A68.5,68.5,0,0,1,158,780.7,68.45,68.45,0,0,1,121.4,817.33Z"/><circle class="a5e3f255-78f3-4278-8090-3374651fa6ff" cx="921.98" cy="717.91" r="62.79"/><path class="ba9e6094-a8e8-47c7-8b22-55a7c7ead32a" d="M922,785.93a5.23,5.23,0,0,1-5.24-5.23,57.62,57.62,0,0,0-57.55-57.56,5.24,5.24,0,1,1,0-10.47,57.62,57.62,0,0,0,57.55-57.55,5.24,5.24,0,1,1,10.47,0,57.62,57.62,0,0,0,57.56,57.55,5.24,5.24,0,0,1,0,10.47,57.62,57.62,0,0,0-57.56,57.56A5.23,5.23,0,0,1,922,785.93Zm-36.63-68A68.45,68.45,0,0,1,922,754.53a68.4,68.4,0,0,1,36.62-36.62A68.41,68.41,0,0,1,922,681.28,68.47,68.47,0,0,1,885.35,717.91Z"/><path class="ba9e6094-a8e8-47c7-8b22-55a7c7ead32a" d="M984.77,963.84H95.23a5.24,5.24,0,0,1,0-10.47H984.77a5.24,5.24,0,0,1,0,10.47Z"/><polygon class="e6aedb8c-8214-4012-96ef-64e2c72d1bc7" points="540 278.37 199.88 556.65 540 834.93 880.12 556.65 540 278.37"/><polygon class="e325880c-ea7b-48ac-b679-9ecec8ecfc65" points="592.36 321.21 210.35 565.21 540 834.93 880.12 556.65 592.36 321.21"/><path class="fd217b59-13e7-4a16-afb8-ffc320f4c635" d="M540,840.16a5.18,5.18,0,0,1-3.31-1.18L196.57,560.7a5.23,5.23,0,0,1,0-8.1L536.69,274.32a5.22,5.22,0,0,1,6.62,0L883.43,552.6a5.23,5.23,0,0,1,0,8.1L543.31,839A5.18,5.18,0,0,1,540,840.16ZM208.15,556.65,540,828.17,871.85,556.65,540,285.13Z"/><rect class="aa277fef-72ea-4ae4-b6f1-b30bef6bdc75" x="304.53" y="362.09" width="470.93" height="596.51"/><polygon class="bb12bfb9-1317-47e4-9e8d-f82202c85115" points="775.47 958.61 304.54 958.61 304.54 505.05 528.35 362.09 775.47 362.09 775.47 958.61"/><path class="fd217b59-13e7-4a16-afb8-ffc320f4c635" d="M775.47,963.84H304.53a5.24,5.24,0,0,1-5.23-5.24V362.09a5.23,5.23,0,0,1,5.23-5.23h63.39a5.24,5.24,0,0,1,0,10.47H309.77v586H770.23v-586H404.55a5.24,5.24,0,1,1,0-10.47H775.47a5.23,5.23,0,0,1,5.23,5.23V958.6A5.24,5.24,0,0,1,775.47,963.84Z"/><rect class="a5e3f255-78f3-4278-8090-3374651fa6ff" x="356.86" y="414.42" width="167.44" height="167.44" rx="10.47"/><path class="a5e3f255-78f3-4278-8090-3374651fa6ff" d="M513.84,587.09H367.33a15.71,15.71,0,0,1-15.7-15.69V424.88a15.71,15.71,0,0,1,15.7-15.69H513.84a15.71,15.71,0,0,1,15.69,15.69V571.4A15.71,15.71,0,0,1,513.84,587.09ZM367.33,419.65a5.24,5.24,0,0,0-5.24,5.23V571.4a5.24,5.24,0,0,0,5.24,5.23H513.84a5.24,5.24,0,0,0,5.23-5.23V424.88a5.24,5.24,0,0,0-5.23-5.23Z"/><path class="a5e3f255-78f3-4278-8090-3374651fa6ff" d="M728.37,419.65H566.16a5.23,5.23,0,0,1,0-10.46H728.37a5.23,5.23,0,1,1,0,10.46Z"/><path class="a5e3f255-78f3-4278-8090-3374651fa6ff" d="M728.37,461.51h-68a5.23,5.23,0,0,1,0-10.46h68a5.23,5.23,0,1,1,0,10.46Z"/><path class="a5e3f255-78f3-4278-8090-3374651fa6ff" d="M629,461.51H566.16a5.23,5.23,0,1,1,0-10.46H629a5.23,5.23,0,1,1,0,10.46Z"/><path class="a5e3f255-78f3-4278-8090-3374651fa6ff" d="M691.74,503.37H566.16a5.23,5.23,0,1,1,0-10.46H691.74a5.23,5.23,0,1,1,0,10.46Z"/><path class="a5e3f255-78f3-4278-8090-3374651fa6ff" d="M728.37,545.23H566.16a5.23,5.23,0,1,1,0-10.46H728.37a5.23,5.23,0,0,1,0,10.46Z"/><path class="a5e3f255-78f3-4278-8090-3374651fa6ff" d="M665.58,587.09H566.16a5.23,5.23,0,0,1,0-10.46h99.42a5.23,5.23,0,0,1,0,10.46Z"/><path class="a5e3f255-78f3-4278-8090-3374651fa6ff" d="M728.37,629H498.14a5.23,5.23,0,1,1,0-10.46H728.37a5.23,5.23,0,1,1,0,10.46Z"/><path class="a5e3f255-78f3-4278-8090-3374651fa6ff" d="M466.74,629H356.86a5.23,5.23,0,0,1,0-10.46H466.74a5.23,5.23,0,1,1,0,10.46Z"/><path class="a5e3f255-78f3-4278-8090-3374651fa6ff" d="M686.51,670.81H555.7a5.23,5.23,0,0,1,0-10.46H686.51a5.23,5.23,0,1,1,0,10.46Z"/><path class="a5e3f255-78f3-4278-8090-3374651fa6ff" d="M524.3,670.81H356.86a5.23,5.23,0,0,1,0-10.46H524.3a5.23,5.23,0,0,1,0,10.46Z"/><polygon class="a5e3f255-78f3-4278-8090-3374651fa6ff" points="540 834.93 199.88 556.65 199.88 958.61 880.12 958.61 880.12 556.65 540 834.93"/><polygon class="bfe89ff2-e292-4aca-a444-963308efa0bb" points="880.12 958.61 634.48 757.63 686.51 715.05 880.12 953.29 880.12 958.61"/><path class="fd217b59-13e7-4a16-afb8-ffc320f4c635" d="M880.12,963.84H199.88a5.24,5.24,0,0,1-5.23-5.24v-402a5.23,5.23,0,0,1,8.54-4L540,828.17,876.81,552.6a5.23,5.23,0,0,1,8.54,4V805.43a5.24,5.24,0,0,1-10.47,0V567.69L543.31,839a5.22,5.22,0,0,1-6.62,0L205.12,567.69V953.37H874.88V836.83a5.24,5.24,0,0,1,10.47,0V958.6A5.24,5.24,0,0,1,880.12,963.84Z"/><polygon class="bfe89ff2-e292-4aca-a444-963308efa0bb" points="540 680.33 880.12 958.61 199.88 958.61 540 680.33"/><polygon class="a5e3f255-78f3-4278-8090-3374651fa6ff" points="540 680.33 808.36 899.89 205.54 953.97 540 680.33"/><path class="fd217b59-13e7-4a16-afb8-ffc320f4c635" d="M880.12,963.84H199.88a5.23,5.23,0,0,1-3.31-9.28L321.4,852.43a5.23,5.23,0,1,1,6.62,8.1L214.54,953.37H865.46L540,687.09,354.36,839a5.23,5.23,0,1,1-6.63-8.1l189-154.6a5.22,5.22,0,0,1,6.62,0L883.43,954.56a5.23,5.23,0,0,1-3.31,9.28Z"/><path class="b167886d-1853-4138-834b-09546aa73dc7" d="M474.28,559.26a10.9,10.9,0,0,1-5.1-1.26L440.8,543.08,412,558a10.95,10.95,0,0,1-15.88-11.54l5.42-31.59-23.1-22.8a11,11,0,0,1,6.07-18.67l31.72-4.61,14.55-29a10.94,10.94,0,0,1,19.62,0l14.19,28.74,32.08,4.88a10.94,10.94,0,0,1,6.06,18.67l-22.94,22.37,5.27,32a11,11,0,0,1-10.77,12.8Zm-33.7-115.11-14.62,29a10.93,10.93,0,0,1-8.23,6L386,483.76l-.26.82L408.69,507a10.92,10.92,0,0,1,3.15,9.68l-5.42,31.6,3.13,5.14-2.43-4.64,28.37-14.91a10.93,10.93,0,0,1,10.19,0l28.37,14.91.69-.5-5.42-31.59a10.94,10.94,0,0,1,3.16-9.69l22.94-22.37-.26-.82-31.72-4.61a10.93,10.93,0,0,1-8.24-6L441,444.42h0A.42.42,0,0,0,440.58,444.15Z"/><circle class="a5e3f255-78f3-4278-8090-3374651fa6ff" cx="210.35" cy="424.88" r="52.33"/><path class="ba9e6094-a8e8-47c7-8b22-55a7c7ead32a" d="M210.35,482.44a5.23,5.23,0,0,1-5.23-5.23A47.15,47.15,0,0,0,158,430.12a5.24,5.24,0,0,1,0-10.47,47.15,47.15,0,0,0,47.1-47.09,5.23,5.23,0,0,1,10.46,0,47.15,47.15,0,0,0,47.09,47.09,5.24,5.24,0,1,1,0,10.47,47.14,47.14,0,0,0-47.09,47.09A5.23,5.23,0,0,1,210.35,482.44ZM182,424.88a57.92,57.92,0,0,1,28.36,28.36,57.94,57.94,0,0,1,28.35-28.36,57.92,57.92,0,0,1-28.35-28.35A57.9,57.9,0,0,1,182,424.88Z"/><circle class="a5e3f255-78f3-4278-8090-3374651fa6ff" cx="822.56" cy="299.3" r="52.33"/><path class="ba9e6094-a8e8-47c7-8b22-55a7c7ead32a" d="M822.56,356.86a5.23,5.23,0,0,1-5.23-5.23,47.15,47.15,0,0,0-47.1-47.1,5.23,5.23,0,0,1,0-10.46A47.15,47.15,0,0,0,817.33,247a5.23,5.23,0,1,1,10.46,0,47.14,47.14,0,0,0,47.09,47.09,5.23,5.23,0,1,1,0,10.46,47.15,47.15,0,0,0-47.09,47.1A5.23,5.23,0,0,1,822.56,356.86ZM794.2,299.3a57.94,57.94,0,0,1,28.36,28.35,58,58,0,0,1,28.35-28.35A57.92,57.92,0,0,1,822.56,271,57.9,57.9,0,0,1,794.2,299.3Z"/><circle class="a5e3f255-78f3-4278-8090-3374651fa6ff" cx="440.58" cy="184.19" r="62.79"/><path class="ba9e6094-a8e8-47c7-8b22-55a7c7ead32a" d="M440.58,252.21a5.23,5.23,0,0,1-5.23-5.23,57.62,57.62,0,0,0-57.56-57.56,5.24,5.24,0,0,1,0-10.47,57.62,57.62,0,0,0,57.56-57.55,5.23,5.23,0,1,1,10.46,0A57.62,57.62,0,0,0,503.37,179a5.24,5.24,0,0,1,0,10.47A57.62,57.62,0,0,0,445.81,247,5.23,5.23,0,0,1,440.58,252.21Zm-36.63-68a68.41,68.41,0,0,1,36.63,36.62,68.41,68.41,0,0,1,36.63-36.62,68.43,68.43,0,0,1-36.63-36.63A68.43,68.43,0,0,1,404,184.19Z"/></svg>