<svg id="a51db720-482a-41a4-925d-4aa66bd53079" data-name="Capa 1" xmlns="http://www.w3.org/2000/svg" viewBox="0 0 1080 1080"><defs><style>.bbc0432b-840f-4b1b-8c37-bd8513412013{fill:#f6f6f6;}.fbedea0c-4023-4e60-a3c4-d08a7ad5d756{fill:#ededed;}.f7289143-672c-4e48-bb95-8daa12c7565e{fill:#fff;}.b043418a-f785-4a38-99aa-ea9b69f6b3f1{fill:#282c3f;}.f8798904-e2d3-464e-aa4d-64c6189a5bbb{fill:#2caae6;}.a324a8da-ff68-4f2d-b5c8-6a0d92962342{fill:#2fc8f2;}.af791dc3-6ee0-4aa0-9d6d-16f3ffcaaa3f{fill:#a09cad;}.a9f2a1d7-4497-4041-9615-6c5b7bd59c71{fill:#b8b5c6;}.beec763f-1603-48a6-97d2-e4d21732790b{fill:#989aa6;}.f5abe64f-f288-4c47-8189-39762ffbbbf7{fill:#52576a;}.f4951a7a-3323-41be-a35b-7e8280388650{fill:#30354c;}</style></defs><title>ICONS S2R</title><path class="bbc0432b-840f-4b1b-8c37-bd8513412013" d="M961.65,437.44c-16.93-69.3-121.81-91.23-167.92-139.3C746.15,248.55,727.9,143.63,661.89,124.3,597.9,105.56,526.41,183,457,199.9s-168.63-19-216.8,27c-49.69,47.48-17.52,149-36.88,214.89C184.5,505.62,101.5,573.26,118.43,642.56s121.81,91.23,167.92,139.3c47.57,49.59,65.82,154.51,131.83,173.84,64,18.74,135.49-58.71,204.93-75.6s168.64,19,216.81-27c49.69-47.48,5.3-140.63,29.21-216C892.42,563.72,978.58,506.74,961.65,437.44Z"/><path class="fbedea0c-4023-4e60-a3c4-d08a7ad5d756" d="M880.12,540S727.84,775.47,540,775.47,199.88,540,199.88,540,352.16,304.53,540,304.53,880.12,540,880.12,540Z"/><path class="f7289143-672c-4e48-bb95-8daa12c7565e" d="M880.12,540S727.84,738.84,540,738.84,199.88,540,199.88,540,352.16,341.16,540,341.16,880.12,540,880.12,540Z"/><path class="b043418a-f785-4a38-99aa-ea9b69f6b3f1" d="M355,710.07a5.21,5.21,0,0,1-3.12-1c-93-69.12-155.76-165.24-156.38-166.2a5.22,5.22,0,0,1,0-5.68c6.28-9.72,156-237.86,344.51-237.86,53.37,0,108.88,18.66,165,55.47a5.23,5.23,0,0,1-5.74,8.75c-54.37-35.67-108-53.75-159.25-53.75-171.72,0-315.75,203.62-333.82,230.24,11,16.32,69.39,99.31,151.94,160.63a5.23,5.23,0,0,1-3.13,9.43Z"/><path class="b043418a-f785-4a38-99aa-ea9b69f6b3f1" d="M540,780.7c-52.52,0-107.14-18.08-162.33-53.74a5.23,5.23,0,1,1,5.68-8.79c53.47,34.55,106.17,52.06,156.65,52.06,171.72,0,315.75-203.62,333.82-230.24-10.93-16.14-68.11-97.49-149.2-158.59a5.23,5.23,0,1,1,6.29-8.36c91.51,68.94,153,163.17,153.6,164.12a5.22,5.22,0,0,1,0,5.68C878.23,552.56,728.52,780.7,540,780.7Z"/><circle class="f8798904-e2d3-464e-aa4d-64c6189a5bbb" cx="540" cy="540" r="177.91"/><path class="b043418a-f785-4a38-99aa-ea9b69f6b3f1" d="M540,723.14C439,723.14,356.86,641,356.86,540S439,356.86,540,356.86,723.14,439,723.14,540,641,723.14,540,723.14Zm0-355.81c-95.21,0-172.67,77.46-172.67,172.67S444.79,712.67,540,712.67,712.67,635.21,712.67,540,635.21,367.33,540,367.33Z"/><path class="a324a8da-ff68-4f2d-b5c8-6a0d92962342" d="M407.64,571.6c-9.76-21.71-11.23-47.13-6.23-71.29a71.37,71.37,0,0,1,2.34-9c.94-2.95,1.77-6,2.9-8.86,2.48-5.68,4.67-11.58,8-16.9,5.81-11.11,13.93-20.8,22.55-29.85,18-17.35,40.69-30.2,65.08-34.84,24.2-4.83,49.63-2.88,71.19,7.21a169.41,169.41,0,0,0-66.89,8.68c-20.82,6.89-39.18,19.05-54.69,33.85-1.94,1.85-3.67,3.92-5.52,5.87a59.78,59.78,0,0,0-5.25,6.11l-5,6.35c-1.58,2.18-2.91,4.53-4.45,6.75-3.22,4.38-5.34,9.37-8.1,14.07-1.24,2.41-2.15,5-3.29,7.45a58.57,58.57,0,0,0-3.06,7.6A171.91,171.91,0,0,0,407.64,571.6Z"/><circle class="af791dc3-6ee0-4aa0-9d6d-16f3ffcaaa3f" cx="540" cy="540" r="88.95"/><circle class="a9f2a1d7-4497-4041-9615-6c5b7bd59c71" cx="519.07" cy="519.07" r="31.4"/><path class="b043418a-f785-4a38-99aa-ea9b69f6b3f1" d="M540,634.19A94.19,94.19,0,1,1,634.19,540,94.31,94.31,0,0,1,540,634.19Zm0-177.91A83.72,83.72,0,1,0,623.72,540,83.82,83.82,0,0,0,540,456.28Z"/><path class="beec763f-1603-48a6-97d2-e4d21732790b" d="M869.65,351.63a15.7,15.7,0,0,1-15.7-15.7V241.74a15.71,15.71,0,0,0-15.69-15.69H744.07a15.7,15.7,0,0,1,0-31.4h94.19a47.15,47.15,0,0,1,47.09,47.09v94.19A15.7,15.7,0,0,1,869.65,351.63Z"/><path class="a9f2a1d7-4497-4041-9615-6c5b7bd59c71" d="M210.35,351.63a15.7,15.7,0,0,1-15.7-15.7V241.74a47.15,47.15,0,0,1,47.09-47.09h94.19a15.7,15.7,0,0,1,0,31.4H241.74a15.71,15.71,0,0,0-15.69,15.69v94.19A15.7,15.7,0,0,1,210.35,351.63Z"/><path class="beec763f-1603-48a6-97d2-e4d21732790b" d="M335.93,885.35H241.74a47.15,47.15,0,0,1-47.09-47.09V744.07a15.7,15.7,0,0,1,31.4,0v94.19A15.71,15.71,0,0,0,241.74,854h94.19a15.7,15.7,0,0,1,0,31.4Z"/><path class="beec763f-1603-48a6-97d2-e4d21732790b" d="M838.26,885.35H744.07a15.7,15.7,0,1,1,0-31.4h94.19A15.71,15.71,0,0,0,854,838.26V744.07a15.7,15.7,0,1,1,31.4,0v94.19A47.15,47.15,0,0,1,838.26,885.35Z"/><rect class="f5abe64f-f288-4c47-8189-39762ffbbbf7" x="199.88" y="597.56" width="680.23" height="62.79" rx="15.7"/><rect class="f4951a7a-3323-41be-a35b-7e8280388650" x="199.88" y="618.49" width="680.23" height="41.86" rx="15.7"/><path class="b043418a-f785-4a38-99aa-ea9b69f6b3f1" d="M864.42,665.58H215.58a21,21,0,0,1-20.93-20.93V613.26a21,21,0,0,1,20.93-20.93H759.77a5.23,5.23,0,1,1,0,10.46H215.58a10.48,10.48,0,0,0-10.46,10.47v31.39a10.48,10.48,0,0,0,10.46,10.47H864.42a10.48,10.48,0,0,0,10.46-10.47V613.26a10.48,10.48,0,0,0-10.46-10.47H791.16a5.23,5.23,0,1,1,0-10.46h73.26a21,21,0,0,1,20.93,20.93v31.39A21,21,0,0,1,864.42,665.58Z"/><path class="beec763f-1603-48a6-97d2-e4d21732790b" d="M414.42,147.56H372.56a5.24,5.24,0,0,1,0-10.47h41.86a5.24,5.24,0,0,1,0,10.47Z"/><path class="beec763f-1603-48a6-97d2-e4d21732790b" d="M393.49,168.49a5.23,5.23,0,0,1-5.23-5.23V121.4a5.23,5.23,0,1,1,10.46,0v41.86A5.23,5.23,0,0,1,393.49,168.49Z"/><path class="beec763f-1603-48a6-97d2-e4d21732790b" d="M163.26,738.84H121.4a5.24,5.24,0,1,1,0-10.47h41.86a5.24,5.24,0,0,1,0,10.47Z"/><path class="beec763f-1603-48a6-97d2-e4d21732790b" d="M142.33,759.77a5.23,5.23,0,0,1-5.24-5.24V712.67a5.24,5.24,0,0,1,10.47,0v41.86A5.23,5.23,0,0,1,142.33,759.77Z"/><path class="beec763f-1603-48a6-97d2-e4d21732790b" d="M634.19,241.74H581.86a5.23,5.23,0,0,1,0-10.46h52.33a5.23,5.23,0,0,1,0,10.46Z"/><path class="beec763f-1603-48a6-97d2-e4d21732790b" d="M608,267.91a5.23,5.23,0,0,1-5.23-5.24V210.35a5.24,5.24,0,0,1,10.47,0v52.32A5.23,5.23,0,0,1,608,267.91Z"/><path class="beec763f-1603-48a6-97d2-e4d21732790b" d="M728.37,942.91H686.51a5.24,5.24,0,0,1,0-10.47h41.86a5.24,5.24,0,0,1,0,10.47Z"/><path class="beec763f-1603-48a6-97d2-e4d21732790b" d="M707.44,963.84a5.23,5.23,0,0,1-5.23-5.24V916.74a5.23,5.23,0,1,1,10.46,0V958.6A5.23,5.23,0,0,1,707.44,963.84Z"/><path class="beec763f-1603-48a6-97d2-e4d21732790b" d="M482.44,854H430.12a5.23,5.23,0,1,1,0-10.46h52.32a5.23,5.23,0,1,1,0,10.46Z"/><path class="beec763f-1603-48a6-97d2-e4d21732790b" d="M456.28,880.12a5.23,5.23,0,0,1-5.23-5.24V822.56a5.23,5.23,0,0,1,10.46,0v52.32A5.23,5.23,0,0,1,456.28,880.12Z"/><path class="beec763f-1603-48a6-97d2-e4d21732790b" d="M147.56,398.72H95.23a5.23,5.23,0,1,1,0-10.46h52.33a5.23,5.23,0,0,1,0,10.46Z"/><path class="beec763f-1603-48a6-97d2-e4d21732790b" d="M121.4,424.88a5.23,5.23,0,0,1-5.24-5.23V367.33a5.24,5.24,0,1,1,10.47,0v52.32A5.23,5.23,0,0,1,121.4,424.88Z"/><path class="beec763f-1603-48a6-97d2-e4d21732790b" d="M984.77,576.63H942.91a5.24,5.24,0,1,1,0-10.47h41.86a5.24,5.24,0,0,1,0,10.47Z"/><path class="beec763f-1603-48a6-97d2-e4d21732790b" d="M963.84,597.56a5.24,5.24,0,0,1-5.24-5.23V550.47a5.24,5.24,0,1,1,10.47,0v41.86A5.23,5.23,0,0,1,963.84,597.56Z"/></svg>