<?xml version="1.0" encoding="UTF-8"?>
<svg id="Capa_1" data-name="Capa 1" xmlns="http://www.w3.org/2000/svg" xmlns:xlink="http://www.w3.org/1999/xlink" viewBox="0 0 1080 1080">
  <defs>
    <style>
      .cls-1 {
        fill: none;
      }

      .cls-2 {
        clip-path: url(#clippath);
      }

      .cls-3 {
        fill: #f6f6f6;
      }

      .cls-4 {
        fill: #66a8e3;
      }

      .cls-5 {
        fill: #fff;
      }

      .cls-6 {
        fill: #e4e4e4;
      }

      .cls-7 {
        fill: #9c9aaa;
      }

      .cls-8 {
        fill: #b5b3c3;
      }

      .cls-9 {
        fill: #65b3f0;
      }

      .cls-10 {
        fill: #33284d;
      }

      .cls-11 {
        fill: #2d3041;
      }

      .cls-12 {
        fill: #35384c;
      }

      .cls-13 {
        fill: #545869;
      }

      .cls-14 {
        fill: #76c6ef;
      }
    </style>
    <clipPath id="clippath">
      <circle class="cls-1" cx="520.43" cy="536.5" r="324.6"/>
    </clipPath>
  </defs>
  <path class="cls-3" d="m922.77,438.62c-16.15-66.14-116.24-87.07-160.25-132.95-45.4-47.33-62.82-147.46-125.81-165.91-61.06-17.88-129.29,56.03-195.56,72.15-66.27,16.12-160.93-18.16-206.89,25.75-47.42,45.31-16.72,142.21-35.2,205.08-17.91,60.94-97.13,125.49-80.97,191.63,16.15,66.14,116.24,87.07,160.25,132.95,45.4,47.33,62.82,147.46,125.81,165.91,61.06,17.88,129.29-56.03,195.56-72.15,66.27-16.12,160.93,18.16,206.89-25.75,47.42-45.31,16.72-142.21,35.2-205.08,17.91-60.94,97.13-125.49,80.97-191.63Z"/>
  <g class="cls-2">
    <path class="cls-12" d="m648.34,508.78l-60.35-15.85h-140.24l-60.37,15.85c-22.91,6.02-38.88,26.72-38.88,50.4v332.86h338.71v-332.87c0-23.68-15.97-44.39-38.88-50.4Z"/>
    <path class="cls-13" d="m651.71,509.82c-1.11-.37-2.23-.74-3.38-1.04l-60.35-15.85h-140.24l-60.37,15.85c-22.91,6.02-38.88,26.72-38.88,50.4v109.76c83.24-13.01,196.91-52.02,303.21-159.12Z"/>
    <path class="cls-10" d="m687.21,897.04h-338.71c-2.76,0-4.99-2.24-4.99-4.99v-332.86c0-25.93,17.52-48.64,42.6-55.23l60.37-15.85c.41-.11.84-.16,1.27-.16h140.24c.43,0,.85.06,1.27.16l60.35,15.85c25.08,6.58,42.6,29.29,42.6,55.23v332.87c0,2.76-2.24,4.99-4.99,4.99Zm-333.72-9.99h328.72v-327.87c0-21.4-14.46-40.14-35.15-45.57h0l-59.72-15.69h-138.96l-59.75,15.69c-20.69,5.44-35.15,24.17-35.15,45.57v327.87Z"/>
    <path class="cls-6" d="m517.85,541.13s69.68-19.86,70.13-48.2c-14.76-7.57-25.85-21.36-28.97-37.95-.46-2.43-.81-17.85-1.08-20.19l-80.26.06c-.31,2.67-.73,18.5-1.29,21.37-3.16,16.28-14.08,29.55-28.66,36.72.63,28.23,70.12,48.2,70.12,48.2Z"/>
    <path class="cls-11" d="m517.85,546.13c-.46,0-.93-.07-1.38-.19-7.47-2.15-73.04-21.87-73.73-52.89-.04-1.94,1.04-3.74,2.79-4.59,13.71-6.74,23.17-18.83,25.96-33.19.26-1.36.58-8.49.77-12.75.17-3.79.33-7.13.46-8.25.29-2.51,2.42-4.41,4.96-4.41l80.26-.06h0c2.54,0,4.67,1.9,4.96,4.42.12,1.01.26,4.37.41,8.14.15,3.92.41,10.49.62,11.72,2.72,14.49,12.56,27.36,26.33,34.41,1.69.87,2.75,2.62,2.72,4.53-.5,31.14-66.26,50.78-73.76,52.92-.45.13-.91.19-1.37.19Zm-64.72-50.4c4.26,16.6,40.57,33.04,64.72,40.21,24.25-7.14,60.69-23.58,64.76-40.25-14.88-8.74-25.43-23.38-28.51-39.78-.31-1.67-.5-6.08-.78-13.15-.04-1.04-.08-2.04-.11-2.96l-70.83.05c-.04.96-.09,2.02-.14,3.12-.33,7.32-.57,12.27-.94,14.2-3.17,16.3-13.35,30.17-28.16,38.56Z"/>
    <path class="cls-5" d="m593.34,359.71c-7.62-1.62-17.72,8.4-20.3,20.12-2.58,11.72,1.5,22.54,9.12,24.16,7.62,1.62,16.92-6.29,19.5-18.01,2.58-11.73-.7-24.65-8.32-26.27Z"/>
    <path class="cls-5" d="m442.36,359.71c7.62-1.62,17.71,8.4,20.3,20.12,2.58,11.72-1.5,22.54-9.12,24.16-7.62,1.62-16.92-6.29-19.5-18.01-2.58-11.73.7-24.65,8.32-26.27Z"/>
    <path class="cls-5" d="m517.85,292.28c-39.47,0-71.47,40.11-71.47,89.6s32,89.6,71.47,89.6,71.47-40.11,71.47-89.6-32-89.6-71.47-89.6Z"/>
    <path class="cls-11" d="m517.85,476.47c-34.42,0-64.34-28.23-73.55-69-7.19-3.29-13.08-11.1-15.13-20.41-2.06-9.36-.8-19.43,3.21-25.65,2.28-3.54,5.37-5.81,8.95-6.57,1.1-.24,2.22-.33,3.38-.27,9.65-39.87,39.15-67.28,73.15-67.28s63.51,27.41,73.15,67.29c1.15-.06,2.28.02,3.37.26h0c3.57.76,6.67,3.03,8.95,6.57,4.01,6.23,5.27,16.3,3.21,25.65-2.05,9.31-7.94,17.11-15.13,20.41-9.21,40.77-39.13,69-73.55,69Zm-73.84-111.93c-.22,0-.42.02-.61.06-.93.2-1.81.94-2.63,2.21-2.56,3.98-3.32,11.42-1.85,18.1,1.7,7.72,6.81,12.88,10.98,13.99,1.84.49,3.24,1.98,3.61,3.85,7.52,37.52,33.98,63.73,64.35,63.73s56.83-26.21,64.34-63.73c.37-1.87,1.77-3.36,3.61-3.85,4.17-1.11,9.28-6.28,10.98-14,1.47-6.68.71-14.12-1.85-18.1-.82-1.27-1.7-2.01-2.63-2.21-.82-.17-1.87.02-3.07.55-1.39.62-2.98.57-4.34-.13-1.35-.7-2.3-1.98-2.59-3.47-7.37-37.84-33.88-64.27-64.46-64.27s-57.09,26.43-64.46,64.27c-.29,1.49-1.25,2.77-2.59,3.47-1.35.7-2.95.75-4.33.14-.92-.41-1.75-.62-2.45-.62Z"/>
    <path class="cls-7" d="m448.5,360.59s-17.76-12.64-7.78-48.6c10.63-38.35,45.25-32.42,45.25-32.42,0,0,31.46-32.65,78.88-6.19,47.43,26.46,22.37,87.21,22.37,87.21,0,0-8.49-29.95-43.44-41.31,0,0-13.56,14.1-54.57,15.04-32.29.74-40.7,26.27-40.7,26.27Z"/>
    <path class="cls-11" d="m587.21,365.58c-.1,0-.19,0-.29,0-2.12-.12-3.94-1.58-4.52-3.62-.31-1.08-7.91-26.14-37.62-37.04-5.85,4.33-22.2,13.63-55.47,14.39-28.18.65-35.77,21.96-36.08,22.87-.51,1.49-1.7,2.67-3.2,3.15-1.51.48-3.15.24-4.43-.67-.84-.6-20.48-15.11-9.7-54,9.94-35.85,39.45-36.81,48.34-36.27,7.82-6.72,39.46-29.68,83.04-5.37,50.72,28.3,24.82,92.82,24.55,93.47-.77,1.88-2.6,3.09-4.61,3.09Zm-106.43-81.38c-8.72,0-28.04,3.07-35.26,29.12-5.7,20.53-1.79,32.41,1.84,38.36,5.35-8.62,17.46-21.8,41.72-22.35,37.9-.87,51-13.42,51.13-13.55,1.33-1.32,3.32-1.83,5.1-1.25,22.49,7.31,34.74,21.72,40.99,32.22,4.33-17.97,7.32-51.6-23.89-69.01-43.32-24.17-71.68,4.09-72.86,5.31-1.15,1.17-2.8,1.71-4.43,1.45-.27-.04-1.88-.29-4.33-.29Z"/>
    <path class="cls-7" d="m197.18,679.06l60.35-15.85h140.24l60.37,15.85c22.91,6.02,38.88,26.72,38.88,50.4v332.86H158.31v-332.86c0-23.68,15.97-44.39,38.88-50.4Z"/>
    <path class="cls-8" d="m458.14,679.06l-60.37-15.85h-140.24l-60.35,15.85c-22.91,6.02-38.88,26.72-38.88,50.4v20.13c28.89,6.52,180.5,36.93,338.71-2.58v-17.55c0-23.68-15.97-44.39-38.88-50.4Z"/>
    <path class="cls-10" d="m227.79,1067.32c-2.76,0-4.99-2.24-4.99-4.99v-317.88c0-2.76,2.24-4.99,4.99-4.99s4.99,2.24,4.99,4.99v317.88c0,2.76-2.24,4.99-4.99,4.99Z"/>
    <path class="cls-11" d="m427.54,1067.32c-2.76,0-4.99-2.24-4.99-4.99v-317.88c0-2.76,2.24-4.99,4.99-4.99s4.99,2.24,4.99,4.99v317.88c0,2.76-2.24,4.99-4.99,4.99Z"/>
    <path class="cls-11" d="m497.02,1067.32H158.31c-2.76,0-4.99-2.24-4.99-4.99v-332.86c0-25.93,17.52-48.64,42.6-55.23h0l60.35-15.85c.41-.11.84-.16,1.27-.16h140.24c.43,0,.85.06,1.27.16l60.37,15.85c25.08,6.59,42.6,29.3,42.6,55.23v332.86c0,2.76-2.24,4.99-4.99,4.99Zm-333.72-9.99h328.72v-327.87c0-21.4-14.45-40.14-35.15-45.57l-59.75-15.69h-138.95l-59.72,15.68c-20.69,5.44-35.15,24.17-35.15,45.57v327.87Z"/>
    <path class="cls-6" d="m327.66,711.41s-69.68-19.86-70.13-48.2c14.76-7.57,25.85-21.36,28.96-37.95.46-2.43.81-17.85,1.08-20.19l80.26.06c.31,2.67.73,18.5,1.29,21.37,3.16,16.28,14.08,29.55,28.65,36.71-.63,28.23-70.12,48.2-70.12,48.2Z"/>
    <path class="cls-11" d="m327.66,716.4c-.46,0-.92-.06-1.37-.19-7.5-2.14-73.26-21.78-73.76-52.92-.03-1.9,1.02-3.66,2.72-4.53,13.77-7.06,23.62-19.93,26.33-34.42.21-1.23.47-7.83.62-11.77.15-3.74.29-7.06.4-8.07.29-2.52,2.42-4.42,4.96-4.42h0l80.26.06c2.54,0,4.67,1.9,4.96,4.42.13,1.12.29,4.42.46,8.18.19,4.28.51,11.43.78,12.8,2.79,14.35,12.25,26.45,25.96,33.19,1.74.86,2.83,2.65,2.79,4.59-.69,31.01-66.26,50.74-73.73,52.89-.45.13-.92.2-1.38.2Zm-64.77-50.45c4.07,16.67,40.52,33.11,64.76,40.25,24.15-7.17,60.47-23.61,64.72-40.21-14.81-8.38-24.99-22.26-28.15-38.55-.38-1.94-.62-6.91-.95-14.26-.05-1.08-.1-2.12-.14-3.06l-70.83-.05c-.04.9-.07,1.88-.11,2.89-.28,7.11-.47,11.55-.79,13.22-3.07,16.4-13.63,31.04-28.51,39.77Z"/>
    <path class="cls-5" d="m252.17,529.99c7.62-1.62,17.72,8.4,20.3,20.12,2.58,11.72-1.5,22.54-9.12,24.16-7.62,1.62-16.92-6.29-19.5-18.02-2.58-11.73.7-24.65,8.32-26.27Z"/>
    <path class="cls-5" d="m403.15,529.99c-7.62-1.62-17.72,8.4-20.3,20.12-2.58,11.72,1.5,22.54,9.12,24.16,7.62,1.62,16.92-6.29,19.5-18.02,2.58-11.73-.7-24.65-8.32-26.27Z"/>
    <path class="cls-5" d="m327.66,462.55c39.47,0,71.47,40.11,71.47,89.6s-32,89.6-71.47,89.6-71.47-40.11-71.47-89.6,32-89.6,71.47-89.6Z"/>
    <path class="cls-11" d="m327.66,646.74c-34.42,0-64.34-28.23-73.55-69-7.19-3.29-13.08-11.1-15.13-20.41-2.06-9.36-.8-19.43,3.21-25.65,2.28-3.54,5.37-5.81,8.95-6.57h0c1.09-.23,2.22-.32,3.37-.26,9.65-39.88,39.15-67.29,73.15-67.29s63.51,27.41,73.15,67.29c1.16-.07,2.29.02,3.37.26,3.58.76,6.67,3.03,8.95,6.57,4.01,6.22,5.27,16.29,3.21,25.65-2.05,9.31-7.94,17.11-15.13,20.41-9.21,40.77-39.13,69-73.55,69Zm-74.45-111.87c-.93.2-1.81.94-2.63,2.21-2.56,3.97-3.32,11.42-1.85,18.1,1.7,7.72,6.81,12.89,10.97,14,1.84.49,3.24,1.98,3.61,3.85,7.52,37.52,33.98,63.73,64.35,63.73s56.83-26.21,64.35-63.73c.37-1.87,1.77-3.36,3.61-3.85,4.17-1.11,9.28-6.28,10.98-14,1.47-6.68.71-14.12-1.85-18.1-.82-1.27-1.7-2.02-2.63-2.21-.81-.17-1.87.02-3.07.55-1.38.62-2.98.57-4.34-.13-1.35-.7-2.3-1.98-2.59-3.48-7.37-37.84-33.88-64.27-64.46-64.27s-57.08,26.43-64.46,64.27c-.29,1.49-1.25,2.77-2.59,3.48-1.35.7-2.95.75-4.34.13-1.2-.53-2.25-.71-3.07-.55h0Z"/>
    <path class="cls-4" d="m397.02,530.86s17.75-12.64,7.78-48.6c-10.63-38.35-45.25-32.42-45.25-32.42,0,0-31.46-32.65-78.88-6.19-47.43,26.46-22.37,87.21-22.37,87.21,0,0,8.49-29.95,43.44-41.31,0,0,14.66,24.95,54.57,15.04,31.35-7.79,40.7,26.27,40.7,26.27Z"/>
    <path class="cls-11" d="m397.02,535.86c-.56,0-1.13-.1-1.68-.29-1.53-.55-2.7-1.8-3.14-3.37-.36-1.26-8.54-29.27-34.69-22.75-34.21,8.5-51.58-6.76-57.59-13.95-29.04,11.04-36.51,35.67-36.82,36.75-.59,2.04-2.41,3.49-4.53,3.6-2.12.11-4.08-1.11-4.89-3.08-.27-.65-26.17-65.18,24.55-93.47,43.58-24.32,75.22-1.35,83.04,5.37,8.88-.57,38.39.41,48.34,36.27,10.78,38.89-8.86,53.4-9.7,54-.86.61-1.87.92-2.9.92Zm-31.73-37.42c17.16,0,27.92,11.95,33.31,22.75,3.48-6.17,6.85-17.91,1.39-37.59-9.25-33.38-38.37-29.03-39.61-28.83-1.62.27-3.28-.28-4.42-1.46-1.17-1.21-29.53-29.47-72.85-5.29-31.2,17.41-28.22,51.03-23.89,69.01,6.24-10.5,18.5-24.91,40.99-32.22,2.23-.73,4.66.2,5.85,2.22.52.85,13.54,21.55,49.06,12.72,3.61-.9,7-1.3,10.18-1.3Z"/>
    <path class="cls-9" d="m838.54,632.37l-60.35-15.85h-140.24l-60.37,15.85c-22.91,6.01-38.88,26.72-38.88,50.4v332.86h338.71v-332.87c0-23.68-15.97-44.39-38.87-50.4Z"/>
    <path class="cls-14" d="m732.41,616.53h-94.46l-60.37,15.85c-22.91,6.01-38.88,26.72-38.88,50.4v56.58c64.96-21.05,133.36-58.41,193.71-122.84Z"/>
    <path class="cls-10" d="m807.94,1020.64c-2.76,0-4.99-2.24-4.99-4.99v-317.88c0-2.76,2.24-4.99,4.99-4.99s4.99,2.24,4.99,4.99v317.88c0,2.76-2.24,4.99-4.99,4.99Z"/>
    <path class="cls-11" d="m608.18,1020.64c-2.76,0-4.99-2.24-4.99-4.99v-317.88c0-2.76,2.24-4.99,4.99-4.99s4.99,2.24,4.99,4.99v317.88c0,2.76-2.24,4.99-4.99,4.99Z"/>
    <path class="cls-11" d="m877.42,1020.64h-338.71c-2.76,0-4.99-2.24-4.99-4.99v-332.86c0-25.93,17.52-48.65,42.6-55.23l60.37-15.85c.41-.11.84-.16,1.27-.16h140.24c.43,0,.85.06,1.27.16l60.35,15.85c25.08,6.59,42.6,29.3,42.6,55.23v332.87c0,2.76-2.24,4.99-4.99,4.99Zm-333.72-9.99h328.72v-327.87c0-21.4-14.45-40.14-35.15-45.57h0l-59.72-15.69h-138.96l-59.75,15.69c-20.7,5.43-35.15,24.17-35.15,45.57v327.87Z"/>
    <path class="cls-6" d="m708.06,664.73s69.68-19.86,70.13-48.2c-14.77-7.57-25.85-21.37-28.97-37.95-.46-2.43-.81-17.85-1.08-20.19l-80.26.06c-.31,2.67-.73,18.5-1.29,21.37-3.16,16.28-14.08,29.55-28.66,36.72.63,28.23,70.12,48.2,70.12,48.2Z"/>
    <path class="cls-11" d="m708.06,669.72c-.46,0-.93-.07-1.38-.2-7.47-2.15-73.04-21.87-73.73-52.88-.04-1.94,1.04-3.74,2.79-4.59,13.71-6.74,23.17-18.84,25.96-33.19.26-1.37.58-8.51.77-12.78.17-3.77.33-7.09.46-8.2.29-2.52,2.42-4.42,4.95-4.42l80.26-.06h0c2.54,0,4.67,1.9,4.96,4.42.12,1.01.26,4.37.41,8.14.15,3.92.41,10.48.62,11.72,2.72,14.49,12.56,27.36,26.33,34.42,1.69.87,2.75,2.62,2.72,4.53-.5,31.14-66.26,50.78-73.76,52.92-.45.13-.91.19-1.37.19Zm-64.72-50.4c4.26,16.6,40.57,33.04,64.72,40.2,24.25-7.14,60.7-23.58,64.77-40.25-14.88-8.74-25.43-23.38-28.51-39.78-.31-1.67-.5-6.08-.78-13.15-.04-1.04-.08-2.04-.11-2.96l-70.84.05c-.04.95-.09,2-.14,3.08-.33,7.34-.57,12.3-.95,14.24-3.17,16.3-13.35,30.17-28.16,38.56Z"/>
    <path class="cls-5" d="m783.55,483.31c-7.62-1.62-17.72,8.4-20.3,20.12-2.58,11.72,1.5,22.54,9.12,24.16,7.62,1.62,16.91-6.29,19.49-18.02,2.58-11.72-.7-24.65-8.32-26.27Z"/>
    <path class="cls-5" d="m632.57,483.31c7.62-1.62,17.72,8.4,20.3,20.12,2.58,11.72-1.5,22.54-9.12,24.16-7.62,1.62-16.91-6.29-19.5-18.02-2.58-11.72.7-24.65,8.32-26.27Z"/>
    <path class="cls-5" d="m708.06,415.87c-39.47,0-71.47,40.12-71.47,89.6s32,89.6,71.47,89.6,71.47-40.11,71.47-89.6-32-89.6-71.47-89.6Z"/>
    <path class="cls-10" d="m708.06,600.06c-34.42,0-64.34-28.23-73.55-69.01-7.19-3.29-13.08-11.1-15.13-20.4-2.06-9.36-.8-19.43,3.21-25.66,2.28-3.54,5.37-5.81,8.95-6.57,1.1-.24,2.24-.31,3.37-.27,9.65-39.87,39.15-67.28,73.15-67.28s63.5,27.41,73.16,67.28c1.14-.05,2.27.03,3.37.27h0c3.57.76,6.67,3.03,8.95,6.57,4.01,6.23,5.27,16.3,3.21,25.66-2.05,9.31-7.94,17.11-15.13,20.4-9.21,40.77-39.13,69.01-73.55,69.01Zm-73.83-111.93c-.22,0-.43.02-.62.06-.92.2-1.81.94-2.63,2.21-2.56,3.97-3.32,11.42-1.85,18.1,1.7,7.72,6.81,12.88,10.98,14,1.84.49,3.24,1.98,3.61,3.85,7.52,37.52,33.98,63.73,64.34,63.73s56.83-26.21,64.35-63.73c.37-1.87,1.77-3.36,3.61-3.85,4.17-1.11,9.28-6.28,10.98-14,1.47-6.68.71-14.12-1.85-18.1-.82-1.27-1.7-2.01-2.63-2.21h0c-.81-.17-1.86.02-3.06.55-1.39.62-2.98.57-4.34-.13-1.35-.7-2.3-1.98-2.59-3.47-7.37-37.84-33.88-64.27-64.46-64.27s-57.09,26.43-64.46,64.27c-.29,1.49-1.25,2.77-2.59,3.47-1.35.71-2.95.75-4.34.13-.91-.4-1.74-.61-2.45-.61Z"/>
    <path class="cls-13" d="m638.7,484.18s-17.75-12.64-7.78-48.6c10.63-38.35,45.25-32.42,45.25-32.42,0,0,31.46-32.65,78.88-6.19,47.43,26.46,22.37,87.21,22.37,87.21,0,0-20.27-32.17-67.63-32.17-44.46,0-71.09,32.17-71.09,32.17Z"/>
    <path class="cls-10" d="m638.7,489.18c-1,0-2.02-.3-2.89-.92-.84-.6-20.48-15.11-9.7-54,9.94-35.85,39.46-36.81,48.34-36.27,7.82-6.72,39.46-29.68,83.04-5.37,50.72,28.3,24.82,92.82,24.55,93.47-.71,1.73-2.33,2.91-4.19,3.07-1.89.16-3.66-.73-4.65-2.31-.77-1.21-19.57-29.84-63.4-29.84s-66.99,30.06-67.24,30.36c-.98,1.19-2.41,1.81-3.85,1.81Zm32.29-81.38c-8.72,0-28.04,3.07-35.26,29.12-6.29,22.7-.88,34.8,2.92,40.01,9.11-9.06,34.12-29.91,71.14-29.91s56.27,16.76,65.78,26.93c4.66-16.68,10.48-53.95-22.95-72.61-43.33-24.17-71.68,4.09-72.86,5.3-1.14,1.18-2.8,1.71-4.43,1.45-.27-.04-1.88-.29-4.34-.29Z"/>
  </g>
  <path class="cls-11" d="m520.43,866.09c-181.74,0-329.59-147.85-329.59-329.59,0-33.42,4.99-66.4,14.82-98.01.82-2.64,3.63-4.1,6.25-3.29,2.63.82,4.11,3.62,3.29,6.25-9.53,30.65-14.37,62.63-14.37,95.04,0,176.23,143.37,319.6,319.6,319.6,159.77,0,295.98-119.25,316.84-277.4.36-2.73,2.88-4.66,5.6-4.3,2.73.36,4.66,2.87,4.3,5.6-21.51,163.09-161.98,286.08-326.74,286.08Z"/>
  <path class="cls-11" d="m219.05,420.7c-.62,0-1.25-.12-1.86-.36-2.56-1.03-3.8-3.94-2.78-6.5,50.43-125.71,170.55-206.94,306.01-206.94,54.55,0,108.61,13.61,156.31,39.35,2.43,1.31,3.33,4.34,2.02,6.77-1.31,2.43-4.33,3.33-6.77,2.02-46.25-24.96-98.66-38.15-151.56-38.15-131.36,0-247.84,78.77-296.74,200.67-.78,1.95-2.66,3.13-4.64,3.14Z"/>
  <path class="cls-11" d="m844.59,558.64c-.09,0-.18,0-.26,0-2.76-.14-4.87-2.49-4.73-5.25.29-5.58.44-11.27.44-16.89,0-109.05-54.77-209.51-146.52-268.72-2.32-1.5-2.98-4.59-1.49-6.91,1.5-2.32,4.59-2.98,6.91-1.49,94.6,61.07,151.09,164.66,151.09,277.12,0,5.8-.15,11.65-.45,17.41-.14,2.67-2.34,4.74-4.98,4.74Z"/>
  <path class="cls-5" d="m855.02,666.34c24.84,0,44.94,20.1,44.94,44.94,0-24.84,20.1-44.94,44.94-44.94-24.84,0-44.94-20.1-44.94-44.94,0,24.84-20.1,44.94-44.94,44.94Z"/>
  <path class="cls-7" d="m899.96,716.28c-2.76,0-4.99-2.24-4.99-4.99,0-22.03-17.92-39.95-39.95-39.95-2.76,0-4.99-2.24-4.99-4.99s2.24-4.99,4.99-4.99c22.03,0,39.95-17.92,39.95-39.95,0-2.76,2.24-4.99,4.99-4.99s4.99,2.24,4.99,4.99c0,22.03,17.92,39.95,39.95,39.95,2.76,0,4.99,2.24,4.99,4.99s-2.24,4.99-4.99,4.99c-22.03,0-39.95,17.92-39.95,39.95,0,2.76-2.24,4.99-4.99,4.99Zm-23.19-49.94c10.09,4.9,18.29,13.1,23.19,23.19,4.9-10.09,13.1-18.29,23.19-23.19-10.09-4.9-18.29-13.1-23.19-23.19-4.9,10.09-13.1,18.29-23.19,23.19Z"/>
  <path class="cls-5" d="m735.16,846.12c22.08,0,39.95,17.87,39.95,39.95,0-22.08,17.87-39.95,39.95-39.95-22.08,0-39.95-17.87-39.95-39.95,0,22.08-17.87,39.95-39.95,39.95Z"/>
  <path class="cls-7" d="m775.11,891.06c-2.76,0-4.99-2.24-4.99-4.99,0-19.28-15.68-34.96-34.96-34.96-2.76,0-4.99-2.24-4.99-4.99s2.24-4.99,4.99-4.99c19.28,0,34.96-15.68,34.96-34.96,0-2.76,2.24-4.99,4.99-4.99s4.99,2.24,4.99,4.99c0,19.28,15.68,34.96,34.96,34.96,2.76,0,4.99,2.24,4.99,4.99s-2.24,4.99-4.99,4.99c-19.28,0-34.96,15.68-34.96,34.96,0,2.76-2.24,4.99-4.99,4.99Zm-19.37-44.94c8.29,4.29,15.09,11.08,19.37,19.37,4.29-8.29,11.08-15.09,19.37-19.37-8.29-4.29-15.09-11.08-19.37-19.37-4.29,8.29-11.08,15.09-19.37,19.37Z"/>
  <path class="cls-5" d="m215.81,881.07c30.36,0,54.93,24.57,54.93,54.93,0-30.36,24.57-54.93,54.93-54.93-30.36,0-54.93-24.57-54.93-54.93,0,30.36-24.57,54.93-54.93,54.93Z"/>
  <path class="cls-7" d="m270.74,941c-2.76,0-4.99-2.24-4.99-4.99,0-27.54-22.4-49.94-49.94-49.94-2.76,0-4.99-2.24-4.99-4.99s2.24-4.99,4.99-4.99c27.54,0,49.94-22.4,49.94-49.94,0-2.76,2.24-4.99,4.99-4.99s4.99,2.24,4.99,4.99c0,27.54,22.4,49.94,49.94,49.94,2.76,0,4.99,2.24,4.99,4.99s-2.24,4.99-4.99,4.99c-27.54,0-49.94,22.4-49.94,49.94,0,2.76-2.24,4.99-4.99,4.99Zm-30.98-59.93c13.82,6.05,24.94,17.16,30.98,30.98,6.05-13.82,17.16-24.94,30.98-30.98-13.82-6.05-24.94-17.16-30.98-30.98-6.05,13.82-17.16,24.94-30.98,30.98Z"/>
  <path class="cls-5" d="m740.16,211.9c27.6,0,49.94,22.34,49.94,49.94,0-27.6,22.34-49.94,49.94-49.94-27.6,0-49.94-22.34-49.94-49.94,0,27.6-22.34,49.94-49.94,49.94Z"/>
  <path class="cls-7" d="m790.1,266.83c-2.76,0-4.99-2.24-4.99-4.99,0-24.78-20.16-44.94-44.94-44.94-2.76,0-4.99-2.24-4.99-4.99s2.24-4.99,4.99-4.99c24.78,0,44.94-20.16,44.94-44.94,0-2.76,2.24-4.99,4.99-4.99s4.99,2.24,4.99,4.99c0,24.78,20.16,44.94,44.94,44.94,2.76,0,4.99,2.24,4.99,4.99s-2.24,4.99-4.99,4.99c-24.78,0-44.94,20.16-44.94,44.94,0,2.76-2.24,4.99-4.99,4.99Zm-27.06-54.93c11.93,5.49,21.57,15.13,27.06,27.06,5.49-11.93,15.13-21.57,27.06-27.06-11.93-5.49-21.57-15.13-27.06-27.06-5.49,11.93-15.13,21.57-27.06,27.06Z"/>
  <path class="cls-5" d="m245.77,181.94c24.84,0,44.94,20.1,44.94,44.94,0-24.84,20.1-44.94,44.94-44.94-24.84,0-44.94-20.1-44.94-44.94,0,24.84-20.1,44.94-44.94,44.94Z"/>
  <path class="cls-7" d="m290.71,231.88c-2.76,0-4.99-2.24-4.99-4.99,0-22.03-17.92-39.95-39.95-39.95-2.76,0-4.99-2.24-4.99-4.99s2.24-4.99,4.99-4.99c22.03,0,39.95-17.92,39.95-39.95,0-2.76,2.24-4.99,4.99-4.99s4.99,2.24,4.99,4.99c0,22.03,17.92,39.95,39.95,39.95,2.76,0,4.99,2.24,4.99,4.99s-2.24,4.99-4.99,4.99c-22.03,0-39.95,17.92-39.95,39.95,0,2.76-2.24,4.99-4.99,4.99Zm-23.19-49.94c10.09,4.9,18.29,13.1,23.19,23.19,4.9-10.09,13.1-18.29,23.19-23.19-10.09-4.9-18.29-13.1-23.19-23.19-4.9,10.09-13.1,18.29-23.19,23.19Z"/>
  <path class="cls-5" d="m95.95,431.63c22.08,0,39.95,17.87,39.95,39.95,0-22.08,17.87-39.95,39.95-39.95-22.08,0-39.95-17.87-39.95-39.95,0,22.08-17.87,39.95-39.95,39.95Z"/>
  <path class="cls-7" d="m135.9,476.57c-2.76,0-4.99-2.24-4.99-4.99,0-19.28-15.68-34.96-34.96-34.96-2.76,0-4.99-2.24-4.99-4.99s2.24-4.99,4.99-4.99c19.28,0,34.96-15.68,34.96-34.96,0-2.76,2.24-4.99,4.99-4.99s4.99,2.24,4.99,4.99c0,19.28,15.68,34.96,34.96,34.96,2.76,0,4.99,2.24,4.99,4.99s-2.24,4.99-4.99,4.99c-19.28,0-34.96,15.68-34.96,34.96,0,2.76-2.24,4.99-4.99,4.99Zm-19.37-44.94c8.29,4.29,15.09,11.08,19.37,19.37,4.29-8.29,11.08-15.09,19.37-19.37-8.29-4.29-15.09-11.08-19.37-19.37-4.29,8.29-11.08,15.09-19.37,19.37Z"/>
</svg>