<svg id="ad99c905-c171-4c52-9462-11e76d0800d0" data-name="Capa 1" xmlns="http://www.w3.org/2000/svg" viewBox="0 0 1080 1080"><defs><style>.e7a180ea-e996-4214-be79-644cd9024bf8{fill:#f6f6f6;}.fb3f5b68-3dea-48e9-98d6-7b076e077814{fill:#2fc8f2;}.f8f4966b-425e-4838-acec-254eb8251df3{fill:#2caae6;}.b8280533-99a8-4921-8f9f-fe1e3e82a415{fill:#282c3f;}.e9cb848c-939f-471e-a733-20848dfeab29{fill:#fff;}.a80f1d2f-ccfb-4ce4-8ea3-1c47bc754e64{fill:#ededed;}.b183e176-d302-4283-9715-6fb4112081e0{fill:#52576a;}.b2a0599a-b17a-47da-bd80-b3eddb66d107{fill:#30354c;}.e444b18f-6847-4893-bdf6-6f9e45a8e7e0{fill:#a09cad;}.ebde79bb-947e-4ee1-a951-d1f8b170cf87{fill:#b8b5c6;}.a819d817-eb57-47f0-9ea0-1509be4d5fb8{fill:#989aa6;}</style></defs><title>ICONS S2R</title><path class="e7a180ea-e996-4214-be79-644cd9024bf8" d="M961.57,437.44c-16.92-69.3-121.79-91.23-167.9-139.3C746.1,248.55,727.85,143.63,661.84,124.3c-64-18.74-135.47,58.71-204.91,75.6s-168.62-19-216.78,27c-49.69,47.48-17.51,149-36.88,214.89C184.5,505.62,101.5,573.26,118.43,642.56s121.79,91.23,167.9,139.3c47.57,49.59,65.82,154.51,131.83,173.84,64,18.74,135.47-58.71,204.91-75.6s168.62,19,216.78-27c49.69-47.48,17.51-149,36.88-214.89C895.5,574.37,978.5,506.74,961.57,437.44Z"/><path class="fb3f5b68-3dea-48e9-98d6-7b076e077814" d="M831.06,765H216.24a16.35,16.35,0,0,1-16.36-16.35V216.24a16.35,16.35,0,0,1,16.36-16.36H392a40.89,40.89,0,0,1,32.71,16.36L449.25,249A40.88,40.88,0,0,0,482,265.3H814.71a16.35,16.35,0,0,1,16.35,16.35Z"/><path class="f8f4966b-425e-4838-acec-254eb8251df3" d="M831.06,765H216.24a16.35,16.35,0,0,1-16.36-16.35V252.86a16.35,16.35,0,0,1,16.36-16.35H371.08a40.88,40.88,0,0,1,32.7,16.35l24.54,32.71A40.85,40.85,0,0,0,461,301.92H814.71a16.36,16.36,0,0,1,16.35,16.36Z"/><path class="b8280533-99a8-4921-8f9f-fe1e3e82a415" d="M831.06,770.23H404a5.23,5.23,0,1,1,0-10.46H825.83V281.65a11.13,11.13,0,0,0-11.12-11.12H613.26a5.23,5.23,0,1,1,0-10.46H814.71a21.6,21.6,0,0,1,21.58,21.58V765A5.23,5.23,0,0,1,831.06,770.23Z"/><path class="b8280533-99a8-4921-8f9f-fe1e3e82a415" d="M372.56,770.23H216.24a21.61,21.61,0,0,1-21.59-21.58V216.24a21.61,21.61,0,0,1,21.59-21.59H392A46.33,46.33,0,0,1,428.9,213.1l24.53,32.71A35.82,35.82,0,0,0,482,260.07h99.91a5.23,5.23,0,1,1,0,10.46H482a46.35,46.35,0,0,1-36.89-18.44l-24.53-32.71A35.82,35.82,0,0,0,392,205.12H216.24a11.12,11.12,0,0,0-11.12,11.12V748.65a11.13,11.13,0,0,0,11.12,11.12H372.56a5.23,5.23,0,0,1,0,10.46Z"/><path class="e9cb848c-939f-471e-a733-20848dfeab29" d="M372.56,267.91H267.91a10.47,10.47,0,1,1,0-20.93H372.56a10.47,10.47,0,0,1,0,20.93Z"/><path class="a80f1d2f-ccfb-4ce4-8ea3-1c47bc754e64" d="M243.05,765H863.76a16.35,16.35,0,0,0,16.36-16.35V356.86a15.7,15.7,0,0,0-15.7-15.7h-573a15.69,15.69,0,0,0-15.69,15.7V748.65A16.35,16.35,0,0,1,259.4,765Z"/><rect class="e9cb848c-939f-471e-a733-20848dfeab29" x="275.76" y="341.16" width="604.36" height="381.98" rx="15.7"/><path class="a80f1d2f-ccfb-4ce4-8ea3-1c47bc754e64" d="M472,618.49H765a31.4,31.4,0,0,1,31.4,31.4V765a0,0,0,0,1,0,0H472a31.4,31.4,0,0,1-31.4-31.4V649.88A31.4,31.4,0,0,1,472,618.49Z"/><path class="b8280533-99a8-4921-8f9f-fe1e3e82a415" d="M372.56,770.23H243.05a5.23,5.23,0,1,1,0-10.46H259.4a11.13,11.13,0,0,0,11.12-11.12V356.86a21,21,0,0,1,20.93-20.93h573a21,21,0,0,1,20.93,20.93v62.79a5.24,5.24,0,0,1-10.47,0V356.86a10.47,10.47,0,0,0-10.46-10.46h-573A10.47,10.47,0,0,0,281,356.86V748.65a21.48,21.48,0,0,1-3.09,11.12h94.66a5.23,5.23,0,0,1,0,10.46Z"/><path class="b8280533-99a8-4921-8f9f-fe1e3e82a415" d="M863.76,770.23H404a5.23,5.23,0,1,1,0-10.46H863.76a11.13,11.13,0,0,0,11.12-11.12V451.05a5.24,5.24,0,1,1,10.47,0v297.6A21.61,21.61,0,0,1,863.76,770.23Z"/><rect class="b183e176-d302-4283-9715-6fb4112081e0" x="403.95" y="618.49" width="355.81" height="261.63" rx="31.4"/><path class="a80f1d2f-ccfb-4ce4-8ea3-1c47bc754e64" d="M665.58,451.05H550.47a73.25,73.25,0,0,0-73.26,73.25v94.19H524.3V524.3a26.17,26.17,0,0,1,26.17-26.16H665.58a26.16,26.16,0,0,1,26.16,26.16v94.19h47.1V524.3A73.25,73.25,0,0,0,665.58,451.05Z"/><rect class="b2a0599a-b17a-47da-bd80-b3eddb66d107" x="403.95" y="655.12" width="355.81" height="225" rx="31.4"/><path class="b8280533-99a8-4921-8f9f-fe1e3e82a415" d="M728.37,885.35h-293a36.67,36.67,0,0,1-36.63-36.63V649.88a36.67,36.67,0,0,1,36.63-36.62h293A36.67,36.67,0,0,1,765,649.88V848.72A36.67,36.67,0,0,1,728.37,885.35Zm-293-261.63a26.19,26.19,0,0,0-26.16,26.16V848.72a26.18,26.18,0,0,0,26.16,26.16h293a26.18,26.18,0,0,0,26.16-26.16V649.88a26.19,26.19,0,0,0-26.16-26.16Z"/><path class="b183e176-d302-4283-9715-6fb4112081e0" d="M639.42,451.05H524.3a73.24,73.24,0,0,0-73.25,73.25v94.19h47.09V524.3a26.16,26.16,0,0,1,26.16-26.16H639.42a26.16,26.16,0,0,1,26.16,26.16v94.19h47.09V524.3A73.24,73.24,0,0,0,639.42,451.05Z"/><path class="b2a0599a-b17a-47da-bd80-b3eddb66d107" d="M639.42,472H524.3a73.24,73.24,0,0,0-73.25,73.25v73.26h47.09V524.3a26.16,26.16,0,0,1,26.16-26.16H639.42a26.16,26.16,0,0,1,26.16,26.16v94.19h47.09V545.23A73.24,73.24,0,0,0,639.42,472Z"/><path class="b8280533-99a8-4921-8f9f-fe1e3e82a415" d="M712.67,623.72H665.58a5.23,5.23,0,0,1-5.23-5.23V524.3a21,21,0,0,0-20.93-20.93H524.3a21,21,0,0,0-20.93,20.93v94.19a5.23,5.23,0,0,1-5.23,5.23H451.05a5.24,5.24,0,0,1-5.24-5.23V524.3a78.58,78.58,0,0,1,78.49-78.49H639.42a78.58,78.58,0,0,1,78.49,78.49v94.19A5.24,5.24,0,0,1,712.67,623.72Zm-41.86-10.46h36.63v-89a68.09,68.09,0,0,0-68-68H524.3a68.09,68.09,0,0,0-68,68v89h36.63v-89a31.42,31.42,0,0,1,31.39-31.39H639.42a31.42,31.42,0,0,1,31.39,31.39Z"/><path class="e444b18f-6847-4893-bdf6-6f9e45a8e7e0" d="M625.47,809.86,608.18,755a43.72,43.72,0,0,0,17.62-36.2c-.63-23-19.76-42.12-42.73-42.74a43.93,43.93,0,0,0-11.71,1.31c18.65,4.69,33,21.62,33.51,41.43A43.72,43.72,0,0,1,587.25,755l17.29,54.86a9.76,9.76,0,0,1-9.31,12.7h20.93A9.76,9.76,0,0,0,625.47,809.86Z"/><path class="ebde79bb-947e-4ee1-a951-d1f8b170cf87" d="M604.54,809.86,587.25,755a43.72,43.72,0,0,0,17.62-36.2c-.54-19.81-14.86-36.74-33.51-41.43A43.76,43.76,0,0,0,555.54,755l-17.29,54.86a9.77,9.77,0,0,0,9.32,12.7h47.66A9.76,9.76,0,0,0,604.54,809.86Z"/><path class="b8280533-99a8-4921-8f9f-fe1e3e82a415" d="M616.16,827.79H547.57a15,15,0,0,1-14.31-19.51l16.22-51.46a49,49,0,0,1-1.93-72.07,49.22,49.22,0,0,1,35.66-13.92c25.67.69,47.12,22.15,47.82,47.82a49.2,49.2,0,0,1-16.79,38.17l16.22,51.46a15,15,0,0,1-14.3,19.51Zm-34.3-146.51a38.59,38.59,0,0,0-23.17,69.54,5.24,5.24,0,0,1,1.84,5.76l-17.29,54.85a4.54,4.54,0,0,0,4.33,5.9h68.59a4.54,4.54,0,0,0,4.32-5.9l-17.29-54.85a5.24,5.24,0,0,1,1.84-5.76,38.26,38.26,0,0,0,15.54-31.88c-.55-20.22-17.44-37.1-37.64-37.65Z"/><path class="a819d817-eb57-47f0-9ea0-1509be4d5fb8" d="M508.6,147.56H466.74a5.24,5.24,0,0,1,0-10.47H508.6a5.24,5.24,0,1,1,0,10.47Z"/><path class="a819d817-eb57-47f0-9ea0-1509be4d5fb8" d="M487.67,168.49a5.23,5.23,0,0,1-5.23-5.23V121.4a5.24,5.24,0,1,1,10.47,0v41.86A5.24,5.24,0,0,1,487.67,168.49Z"/><path class="a819d817-eb57-47f0-9ea0-1509be4d5fb8" d="M163.26,744.07H121.4a5.24,5.24,0,1,1,0-10.47h41.86a5.24,5.24,0,0,1,0,10.47Z"/><path class="a819d817-eb57-47f0-9ea0-1509be4d5fb8" d="M142.33,765a5.24,5.24,0,0,1-5.24-5.23V717.91a5.24,5.24,0,1,1,10.47,0v41.86A5.23,5.23,0,0,1,142.33,765Z"/><path class="a819d817-eb57-47f0-9ea0-1509be4d5fb8" d="M812.09,215.58H759.77a5.23,5.23,0,1,1,0-10.46h52.32a5.23,5.23,0,1,1,0,10.46Z"/><path class="a819d817-eb57-47f0-9ea0-1509be4d5fb8" d="M785.93,241.74a5.23,5.23,0,0,1-5.23-5.23V184.19a5.23,5.23,0,1,1,10.46,0v52.32A5.23,5.23,0,0,1,785.93,241.74Z"/><path class="a819d817-eb57-47f0-9ea0-1509be4d5fb8" d="M665.58,937.67H613.26a5.23,5.23,0,1,1,0-10.46h52.32a5.23,5.23,0,0,1,0,10.46Z"/><path class="a819d817-eb57-47f0-9ea0-1509be4d5fb8" d="M639.42,963.84a5.23,5.23,0,0,1-5.23-5.24V906.28a5.23,5.23,0,0,1,10.46,0V958.6A5.23,5.23,0,0,1,639.42,963.84Z"/><path class="a819d817-eb57-47f0-9ea0-1509be4d5fb8" d="M294.07,864.42H241.74a5.24,5.24,0,0,1,0-10.47h52.33a5.24,5.24,0,0,1,0,10.47Z"/><path class="a819d817-eb57-47f0-9ea0-1509be4d5fb8" d="M267.91,890.58a5.24,5.24,0,0,1-5.24-5.23V833a5.24,5.24,0,0,1,10.47,0v52.33A5.23,5.23,0,0,1,267.91,890.58Z"/><path class="a819d817-eb57-47f0-9ea0-1509be4d5fb8" d="M147.56,404H95.23a5.23,5.23,0,0,1,0-10.46h52.33a5.23,5.23,0,0,1,0,10.46Z"/><path class="a819d817-eb57-47f0-9ea0-1509be4d5fb8" d="M121.4,430.12a5.25,5.25,0,0,1-5.24-5.24V372.56a5.24,5.24,0,0,1,10.47,0v52.32A5.24,5.24,0,0,1,121.4,430.12Z"/><path class="a819d817-eb57-47f0-9ea0-1509be4d5fb8" d="M984.77,602.79H942.91a5.23,5.23,0,1,1,0-10.46h41.86a5.23,5.23,0,1,1,0,10.46Z"/><path class="a819d817-eb57-47f0-9ea0-1509be4d5fb8" d="M963.84,623.72a5.24,5.24,0,0,1-5.24-5.23V576.63a5.24,5.24,0,0,1,10.47,0v41.86A5.23,5.23,0,0,1,963.84,623.72Z"/></svg>