<svg id="b2b2cb10-6794-4d15-b27d-937c3e605d6e" data-name="Capa 1" xmlns="http://www.w3.org/2000/svg" viewBox="0 0 1080 1080"><defs><style>.ed8ededd-5f38-4a60-9795-f837537d9eb5{fill:#f6f6f6;}.a99cb4f3-f444-4bbb-9f5b-39ab0a78744f{fill:#2fc8f2;}.b121ab42-1b97-43da-b0ec-2384ad5eb1f4{fill:#2caae6;}.f31e3c83-6537-4671-a066-5784b65c8d10{fill:#ededed;}.b7ab6129-14b8-48bf-ba84-127b6630f906{fill:#b8b5c6;}.ea39d11d-e9ec-4584-805d-3142e967cf3e{fill:#fff;}.f79ddafb-143f-41c1-a9ba-d598bc7c5046{fill:#282c3f;}.f2633b6e-4b79-4858-8659-6bbc745319ce{fill:#52576a;}.b7b45c88-92a0-43ad-bda4-e231673d3120{fill:#30354c;}.b99efd6e-5b6a-4d44-a27f-7099b4f2f3f8{fill:#989aa6;}</style></defs><title>ICONS S2R</title><path class="ed8ededd-5f38-4a60-9795-f837537d9eb5" d="M879.59,412.67c-25.42-65.56-.55-171.62-55.77-216-53.52-43-153,1.64-226.05-9.95S444.49,102,380,126.3c-66.57,25-76.77,133.42-121.8,187.8-43.66,52.7-150.13,83.54-161.9,155.52s79.48,134.17,104.13,197.71c25.42,65.56.55,171.62,55.77,216,53.52,43,153-1.64,226.05,10S635.51,978,700,953.7c66.57-25,76.77-133.42,121.8-187.8,43.66-52.7,150.13-83.53,161.9-155.52S904.24,476.21,879.59,412.67Z"/><path class="a99cb4f3-f444-4bbb-9f5b-39ab0a78744f" d="M869.65,351.63a15.7,15.7,0,0,1-15.7-15.7V241.74a15.71,15.71,0,0,0-15.69-15.69H744.07a15.7,15.7,0,0,1,0-31.4h94.19a47.15,47.15,0,0,1,47.09,47.09v94.19A15.7,15.7,0,0,1,869.65,351.63Z"/><path class="a99cb4f3-f444-4bbb-9f5b-39ab0a78744f" d="M210.35,351.63a15.7,15.7,0,0,1-15.7-15.7V241.74a47.15,47.15,0,0,1,47.09-47.09h94.19a15.7,15.7,0,0,1,0,31.4H241.74a15.71,15.71,0,0,0-15.69,15.69v94.19A15.7,15.7,0,0,1,210.35,351.63Z"/><path class="b121ab42-1b97-43da-b0ec-2384ad5eb1f4" d="M335.93,885.35H241.74a47.15,47.15,0,0,1-47.09-47.09V744.07a15.7,15.7,0,0,1,31.4,0v94.19A15.71,15.71,0,0,0,241.74,854h94.19a15.7,15.7,0,0,1,0,31.4Z"/><path class="b121ab42-1b97-43da-b0ec-2384ad5eb1f4" d="M838.26,885.35H744.07a15.7,15.7,0,1,1,0-31.4h94.19A15.71,15.71,0,0,0,854,838.26V744.07a15.7,15.7,0,1,1,31.4,0v94.19A47.15,47.15,0,0,1,838.26,885.35Z"/><path class="f31e3c83-6537-4671-a066-5784b65c8d10" d="M540,252.21h0c-118.48,0-214.53,96-214.53,214.53V613.26c0,118.48,96,214.53,214.53,214.53h0c118.48,0,214.53-96,214.53-214.53V466.74C754.53,348.26,658.48,252.21,540,252.21Z"/><path class="b7ab6129-14b8-48bf-ba84-127b6630f906" d="M540,252.21h0c-118.48,0-214.53,96-214.53,214.53V613.26c0,118.48,96,214.53,214.53,214.53h0c118.48,0,214.53-96,214.53-214.53V466.74C754.53,348.26,658.48,252.21,540,252.21Z"/><path class="ea39d11d-e9ec-4584-805d-3142e967cf3e" d="M540,252.21h0c-118.48,0-214.53,96-214.53,214.53v94.19H754.53V466.74C754.53,348.26,658.48,252.21,540,252.21Z"/><path class="f79ddafb-143f-41c1-a9ba-d598bc7c5046" d="M540,833A219.39,219.39,0,0,1,337.34,698.41a5.23,5.23,0,0,1,9.65-4,209.46,209.46,0,0,0,291,103.9,5.24,5.24,0,0,1,4.91,9.25A220.32,220.32,0,0,1,540,833Z"/><path class="f79ddafb-143f-41c1-a9ba-d598bc7c5046" d="M328.43,654.29a5.24,5.24,0,0,1-5.15-4.37,221.91,221.91,0,0,1-3-36.66V466.74A219.29,219.29,0,0,1,353.08,351.1a5.24,5.24,0,0,1,8.9,5.52A208.74,208.74,0,0,0,330.7,466.74V613.26a210.92,210.92,0,0,0,2.9,34.93,5.23,5.23,0,0,1-4.29,6A6.65,6.65,0,0,1,328.43,654.29Z"/><path class="f79ddafb-143f-41c1-a9ba-d598bc7c5046" d="M385.54,323.08a5.22,5.22,0,0,1-3.76-8.86A218,218,0,0,1,540,247a221.39,221.39,0,0,1,37.41,3.17,5.23,5.23,0,1,1-1.77,10.31,211.94,211.94,0,0,0-35.64-3,207.63,207.63,0,0,0-150.69,64A5.21,5.21,0,0,1,385.54,323.08Z"/><path class="f79ddafb-143f-41c1-a9ba-d598bc7c5046" d="M754.43,465.3a5.24,5.24,0,0,1-5.23-5.08A209,209,0,0,0,616.57,271.89a5.23,5.23,0,1,1,3.83-9.74A219.51,219.51,0,0,1,759.66,459.9a5.23,5.23,0,0,1-5.07,5.39Z"/><path class="f79ddafb-143f-41c1-a9ba-d598bc7c5046" d="M680.14,780.93a5.23,5.23,0,0,1-3.42-9.19A209.23,209.23,0,0,0,749.3,613.26V506a5.24,5.24,0,0,1,10.47,0V613.26a219.71,219.71,0,0,1-76.21,166.4A5.24,5.24,0,0,1,680.14,780.93Z"/><path class="f79ddafb-143f-41c1-a9ba-d598bc7c5046" d="M557.12,785.07a5.23,5.23,0,0,1-.53-10.44A161.65,161.65,0,0,0,702.21,613.26V466.74A162.18,162.18,0,0,0,681,386.49a5.23,5.23,0,1,1,9.09-5.18,172.6,172.6,0,0,1,22.58,85.43V613.26A172.08,172.08,0,0,1,557.65,785Z"/><path class="f79ddafb-143f-41c1-a9ba-d598bc7c5046" d="M513.84,783.9a5.76,5.76,0,0,1-.82-.06c-84.42-13.25-145.69-85-145.69-170.58V466.74c0-95.21,77.46-172.67,172.67-172.67A171.28,171.28,0,0,1,664.12,346.7,5.23,5.23,0,0,1,656.6,354,160.91,160.91,0,0,0,540,304.54c-89.44,0-162.21,72.76-162.21,162.2V613.26c0,80.4,57.56,147.79,136.85,160.23a5.24,5.24,0,0,1-.8,10.41Z"/><path class="f79ddafb-143f-41c1-a9ba-d598bc7c5046" d="M658.31,449.86a5.24,5.24,0,0,1-5.14-4.28,115.18,115.18,0,0,0-170-78.95,5.23,5.23,0,1,1-5.17-9.09,125.63,125.63,0,0,1,185.51,86.13,5.24,5.24,0,0,1-4.19,6.1A5.39,5.39,0,0,1,658.31,449.86Z"/><path class="f79ddafb-143f-41c1-a9ba-d598bc7c5046" d="M540,738.84a124.31,124.31,0,0,1-56.14-13.22,5.23,5.23,0,1,1,4.69-9.36A113.81,113.81,0,0,0,540,728.37,115.24,115.24,0,0,0,655.12,613.26V491.13a5.23,5.23,0,0,1,10.46,0V613.26A125.72,125.72,0,0,1,540,738.84Z"/><path class="f79ddafb-143f-41c1-a9ba-d598bc7c5046" d="M453.24,701.89a5.19,5.19,0,0,1-3.77-1.6,125,125,0,0,1-35.05-87V466.74a125.84,125.84,0,0,1,28.27-79.39A5.23,5.23,0,0,1,450.8,394a115.34,115.34,0,0,0-25.92,72.77V613.26A114.52,114.52,0,0,0,457,693a5.23,5.23,0,0,1-3.77,8.86Z"/><path class="f79ddafb-143f-41c1-a9ba-d598bc7c5046" d="M603.93,654.28a5.16,5.16,0,0,1-2.56-.67,5.22,5.22,0,0,1-2-7.12A68,68,0,0,0,608,613.26V466.74a68,68,0,0,0-136,0V483.2a5.24,5.24,0,0,1-10.47,0V466.74a78.49,78.49,0,0,1,157,0V613.26a78.49,78.49,0,0,1-10,38.35A5.22,5.22,0,0,1,603.93,654.28Z"/><path class="f79ddafb-143f-41c1-a9ba-d598bc7c5046" d="M540,691.74a78.57,78.57,0,0,1-78.49-78.48v-89a5.24,5.24,0,0,1,10.47,0v89a68.06,68.06,0,0,0,97.86,61.15,5.23,5.23,0,1,1,4.59,9.4A77.82,77.82,0,0,1,540,691.74Z"/><path class="f79ddafb-143f-41c1-a9ba-d598bc7c5046" d="M540,644.65a31.43,31.43,0,0,1-31.4-31.39V466.74a31.4,31.4,0,0,1,62.8,0V613.26A31.43,31.43,0,0,1,540,644.65Zm0-198.84a21,21,0,0,0-20.93,20.93V613.26a20.93,20.93,0,1,0,41.86,0V466.74A21,21,0,0,0,540,445.81Z"/><rect class="f2633b6e-4b79-4858-8659-6bbc745319ce" x="199.88" y="540" width="680.23" height="62.79" rx="15.7"/><path class="b7b45c88-92a0-43ad-bda4-e231673d3120" d="M199.88,560.93H880.12a0,0,0,0,1,0,0v26.16a15.7,15.7,0,0,1-15.7,15.7H215.58a15.7,15.7,0,0,1-15.7-15.7V560.93A0,0,0,0,1,199.88,560.93Z"/><path class="b99efd6e-5b6a-4d44-a27f-7099b4f2f3f8" d="M634.19,927.21a5.22,5.22,0,0,1-3.7-1.53L614.79,910a5.23,5.23,0,1,1,7.4-7.4l15.7,15.7a5.23,5.23,0,0,1-3.7,8.93Z"/><path class="b99efd6e-5b6a-4d44-a27f-7099b4f2f3f8" d="M670.81,963.84a5.2,5.2,0,0,1-3.7-1.54l-15.69-15.69a5.23,5.23,0,0,1,7.4-7.4l15.69,15.7a5.24,5.24,0,0,1-3.7,8.93Z"/><path class="b99efd6e-5b6a-4d44-a27f-7099b4f2f3f8" d="M618.49,963.84a5.24,5.24,0,0,1-3.7-8.93l15.7-15.7a5.23,5.23,0,0,1,7.4,7.4l-15.7,15.69A5.19,5.19,0,0,1,618.49,963.84Z"/><path class="b99efd6e-5b6a-4d44-a27f-7099b4f2f3f8" d="M655.12,927.21a5.23,5.23,0,0,1-3.7-8.93l15.69-15.7a5.23,5.23,0,0,1,7.4,7.4l-15.69,15.7A5.23,5.23,0,0,1,655.12,927.21Z"/><path class="b99efd6e-5b6a-4d44-a27f-7099b4f2f3f8" d="M901.05,398.72a5.22,5.22,0,0,1-3.7-1.53l-15.7-15.7a5.23,5.23,0,1,1,7.4-7.4l15.7,15.7a5.23,5.23,0,0,1-3.7,8.93Z"/><path class="b99efd6e-5b6a-4d44-a27f-7099b4f2f3f8" d="M937.67,435.35a5.25,5.25,0,0,1-3.7-1.53l-15.69-15.7a5.23,5.23,0,0,1,7.4-7.4l15.69,15.7a5.23,5.23,0,0,1-3.7,8.93Z"/><path class="b99efd6e-5b6a-4d44-a27f-7099b4f2f3f8" d="M885.35,435.35a5.23,5.23,0,0,1-3.7-8.93l15.7-15.7a5.23,5.23,0,0,1,7.4,7.4l-15.7,15.7A5.22,5.22,0,0,1,885.35,435.35Z"/><path class="b99efd6e-5b6a-4d44-a27f-7099b4f2f3f8" d="M922,398.72a5.23,5.23,0,0,1-3.7-8.93L934,374.09a5.23,5.23,0,1,1,7.4,7.4l-15.69,15.7A5.23,5.23,0,0,1,922,398.72Z"/><path class="b99efd6e-5b6a-4d44-a27f-7099b4f2f3f8" d="M948.14,686.51a5.22,5.22,0,0,1-3.7-1.53l-15.7-15.7a5.23,5.23,0,0,1,7.4-7.4l15.7,15.7a5.23,5.23,0,0,1-3.7,8.93Z"/><path class="b99efd6e-5b6a-4d44-a27f-7099b4f2f3f8" d="M984.77,723.14a5.22,5.22,0,0,1-3.7-1.53l-15.7-15.7a5.23,5.23,0,0,1,7.4-7.4l15.7,15.7a5.23,5.23,0,0,1-3.7,8.93Z"/><path class="b99efd6e-5b6a-4d44-a27f-7099b4f2f3f8" d="M932.44,723.14a5.23,5.23,0,0,1-3.7-8.93l15.7-15.7a5.23,5.23,0,0,1,7.4,7.4l-15.7,15.7A5.22,5.22,0,0,1,932.44,723.14Z"/><path class="b99efd6e-5b6a-4d44-a27f-7099b4f2f3f8" d="M969.07,686.51a5.23,5.23,0,0,1-3.7-8.93l15.7-15.7a5.23,5.23,0,0,1,7.4,7.4L972.77,685A5.22,5.22,0,0,1,969.07,686.51Z"/><path class="b99efd6e-5b6a-4d44-a27f-7099b4f2f3f8" d="M597.56,142.33a5.23,5.23,0,0,1-3.7-1.54l-15.7-15.7a5.23,5.23,0,1,1,7.4-7.39l15.7,15.69a5.24,5.24,0,0,1-3.7,8.94Z"/><path class="b99efd6e-5b6a-4d44-a27f-7099b4f2f3f8" d="M634.19,179a5.22,5.22,0,0,1-3.7-1.53l-15.7-15.7a5.23,5.23,0,1,1,7.4-7.4l15.7,15.7a5.23,5.23,0,0,1-3.7,8.93Z"/><path class="b99efd6e-5b6a-4d44-a27f-7099b4f2f3f8" d="M581.86,179a5.23,5.23,0,0,1-3.7-8.93l15.7-15.7a5.23,5.23,0,0,1,7.4,7.4l-15.7,15.7A5.22,5.22,0,0,1,581.86,179Z"/><path class="b99efd6e-5b6a-4d44-a27f-7099b4f2f3f8" d="M618.49,142.33a5.24,5.24,0,0,1-3.7-8.94l15.7-15.69a5.23,5.23,0,1,1,7.4,7.39l-15.7,15.7A5.23,5.23,0,0,1,618.49,142.33Z"/><path class="b99efd6e-5b6a-4d44-a27f-7099b4f2f3f8" d="M110.93,372.56a5.22,5.22,0,0,1-3.7-1.53l-15.7-15.7a5.23,5.23,0,0,1,7.4-7.4l15.7,15.7a5.23,5.23,0,0,1-3.7,8.93Z"/><path class="b99efd6e-5b6a-4d44-a27f-7099b4f2f3f8" d="M147.56,409.19a5.23,5.23,0,0,1-3.7-1.54L128.16,392a5.23,5.23,0,0,1,7.4-7.4l15.7,15.69a5.24,5.24,0,0,1-3.7,8.94Z"/><path class="b99efd6e-5b6a-4d44-a27f-7099b4f2f3f8" d="M95.23,409.19a5.24,5.24,0,0,1-3.7-8.94l15.7-15.69a5.23,5.23,0,1,1,7.4,7.4l-15.7,15.69A5.23,5.23,0,0,1,95.23,409.19Z"/><path class="b99efd6e-5b6a-4d44-a27f-7099b4f2f3f8" d="M131.86,372.56a5.23,5.23,0,0,1-3.7-8.93l15.7-15.7a5.23,5.23,0,0,1,7.4,7.4L135.56,371A5.22,5.22,0,0,1,131.86,372.56Z"/><path class="b99efd6e-5b6a-4d44-a27f-7099b4f2f3f8" d="M388.26,864.42a5.22,5.22,0,0,1-3.7-1.53l-15.7-15.7a5.23,5.23,0,0,1,7.4-7.4l15.7,15.7a5.23,5.23,0,0,1-3.7,8.93Z"/><path class="b99efd6e-5b6a-4d44-a27f-7099b4f2f3f8" d="M424.88,901.05a5.2,5.2,0,0,1-3.7-1.54l-15.69-15.69a5.23,5.23,0,0,1,7.4-7.4l15.69,15.69a5.24,5.24,0,0,1-3.7,8.94Z"/><path class="b99efd6e-5b6a-4d44-a27f-7099b4f2f3f8" d="M372.56,901.05a5.24,5.24,0,0,1-3.7-8.94l15.7-15.69a5.23,5.23,0,0,1,7.4,7.4l-15.7,15.69A5.19,5.19,0,0,1,372.56,901.05Z"/><path class="b99efd6e-5b6a-4d44-a27f-7099b4f2f3f8" d="M409.19,864.42a5.23,5.23,0,0,1-3.7-8.93l15.69-15.7a5.23,5.23,0,0,1,7.4,7.4l-15.69,15.7A5.23,5.23,0,0,1,409.19,864.42Z"/><path class="b99efd6e-5b6a-4d44-a27f-7099b4f2f3f8" d="M163.26,655.12a5.19,5.19,0,0,1-3.7-1.54l-15.7-15.69a5.23,5.23,0,0,1,7.4-7.4L167,646.18a5.24,5.24,0,0,1-3.7,8.94Z"/><path class="b99efd6e-5b6a-4d44-a27f-7099b4f2f3f8" d="M199.88,691.74a5.23,5.23,0,0,1-3.7-1.53l-15.69-15.7a5.23,5.23,0,1,1,7.4-7.4l15.69,15.7a5.23,5.23,0,0,1-3.7,8.93Z"/><path class="b99efd6e-5b6a-4d44-a27f-7099b4f2f3f8" d="M147.56,691.74a5.23,5.23,0,0,1-3.7-8.93l15.7-15.7a5.23,5.23,0,1,1,7.4,7.4l-15.7,15.7A5.22,5.22,0,0,1,147.56,691.74Z"/><path class="b99efd6e-5b6a-4d44-a27f-7099b4f2f3f8" d="M184.19,655.12a5.24,5.24,0,0,1-3.7-8.94l15.69-15.69a5.23,5.23,0,0,1,7.4,7.4l-15.69,15.69A5.2,5.2,0,0,1,184.19,655.12Z"/></svg>