<svg id="b6827c4c-c3c6-4304-8f18-e4367ab7efa0" data-name="Capa 1" xmlns="http://www.w3.org/2000/svg" viewBox="0 0 1080 1080"><defs><style>.b0f4d0c8-3773-4d02-8088-a43f5bfd6395{fill:#f6f6f6;}.a7a1366c-caae-4d95-af23-ec5360fdc6cf{fill:#fff;}.e8127425-3c74-402c-b9f7-0d6a41918b4b{fill:#ededed;}.b0360131-fdec-4893-88ba-0bff92581afb{fill:#b8b5c6;}.b23b5da7-2463-471c-83ef-253baf555c9a{fill:#2fc8f2;}.e43ca8c8-43b2-4581-a503-de8316b62d65{fill:#00b5f4;}.a678085a-62b3-457f-940e-63fb7ceed681{fill:#282c3f;}.bd41d47a-5567-49b7-9cca-771f4476f4f7{fill:#30354c;}.fd63fa85-ac7d-4722-8639-9e62b97cd190{fill:#52576a;}.a7a3b8b1-12df-416b-a67c-220aa7ccc8d7{fill:#989aa6;}</style></defs><title>ICONS S2R</title><path class="b0f4d0c8-3773-4d02-8088-a43f5bfd6395" d="M858.56,371.61c-32.88-62.83-21.19-172.34-80.8-210.32C720,124.48,627.57,181.17,554.32,178.23s-160.87-66.84-221.38-34.77c-62.43,33.08-59.44,143.18-97.17,203.18C199.19,404.79,98.22,448.45,95.3,522.17s94.28,125.32,126.14,186.22c32.88,62.83,21.19,172.34,80.8,210.32,57.78,36.81,150.19-19.88,223.44-16.94s160.87,66.84,221.38,34.78c62.43-33.09,59.44-143.19,97.17-203.19,36.58-58.15,137.55-101.81,140.47-175.53S890.42,432.51,858.56,371.61Z"/><path class="a7a1366c-caae-4d95-af23-ec5360fdc6cf" d="M540,335.93c-112.7,0-204.07,91.37-204.07,204.07A203.44,203.44,0,0,0,395.7,684.3L684.3,395.7A203.44,203.44,0,0,0,540,335.93Z"/><path class="e8127425-3c74-402c-b9f7-0d6a41918b4b" d="M684.3,395.7,395.7,684.3A203.44,203.44,0,0,0,540,744.07c112.7,0,204.07-91.37,204.07-204.07A203.44,203.44,0,0,0,684.3,395.7Z"/><rect class="b0360131-fdec-4893-88ba-0bff92581afb" x="524.3" y="335.93" width="31.4" height="408.14"/><rect class="b0360131-fdec-4893-88ba-0bff92581afb" x="335.93" y="524.3" width="408.14" height="31.4"/><rect class="b0360131-fdec-4893-88ba-0bff92581afb" x="335.93" y="524.3" width="408.14" height="31.39" transform="translate(-223.68 540) rotate(-45)"/><rect class="b0360131-fdec-4893-88ba-0bff92581afb" x="524.3" y="335.93" width="31.39" height="408.14" transform="translate(-223.68 540) rotate(-45)"/><path class="b23b5da7-2463-471c-83ef-253baf555c9a" d="M540,388.26a151.75,151.75,0,0,0-107.3,259L647.3,432.7A151.27,151.27,0,0,0,540,388.26Z"/><path class="e43ca8c8-43b2-4581-a503-de8316b62d65" d="M432.7,647.3A151.75,151.75,0,0,0,647.3,432.7Z"/><path class="a678085a-62b3-457f-940e-63fb7ceed681" d="M540,749.3c-115.41,0-209.3-93.89-209.3-209.3S424.59,330.7,540,330.7a209.44,209.44,0,0,1,172.62,90.9,5.23,5.23,0,0,1-8.63,5.92,199,199,0,0,0-164-86.36c-109.64,0-198.84,89.2-198.84,198.84S430.36,738.84,540,738.84a199.78,199.78,0,0,0,47-5.58,5.23,5.23,0,1,1,2.46,10.17A210.45,210.45,0,0,1,540,749.3Z"/><path class="a678085a-62b3-457f-940e-63fb7ceed681" d="M621.07,732.56a5.23,5.23,0,0,1-2.08-10A199,199,0,0,0,720.62,456.74a5.23,5.23,0,1,1,9.5-4.39,209.5,209.5,0,0,1-107,279.78A5.31,5.31,0,0,1,621.07,732.56Z"/><path class="a678085a-62b3-457f-940e-63fb7ceed681" d="M540,697a156.6,156.6,0,0,1-139.31-84.57,5.23,5.23,0,0,1,9.28-4.83,146.16,146.16,0,0,0,130,78.93c80.79,0,146.51-65.72,146.51-146.51S620.79,393.49,540,393.49,393.49,459.21,393.49,540a146.79,146.79,0,0,0,4.35,35.57,5.24,5.24,0,0,1-10.16,2.53A157.48,157.48,0,0,1,383,540c0-86.56,70.42-157,157-157s157,70.42,157,157S626.56,697,540,697Z"/><path class="a678085a-62b3-457f-940e-63fb7ceed681" d="M588.19,813.07a5.23,5.23,0,0,1-.91-10.38A266.95,266.95,0,0,0,668.33,306a5.23,5.23,0,1,1,5-9.17A277.4,277.4,0,0,1,589.12,813,5.94,5.94,0,0,1,588.19,813.07Z"/><path class="a678085a-62b3-457f-940e-63fb7ceed681" d="M491.8,813.07a5.82,5.82,0,0,1-.92-.08A277.4,277.4,0,0,1,406.62,296.8a5.23,5.23,0,1,1,5,9.17,266.94,266.94,0,0,0,81.07,496.72,5.23,5.23,0,0,1-.92,10.38Z"/><path class="bd41d47a-5567-49b7-9cca-771f4476f4f7" d="M863.3,575.62c-19.6,25-54.35,7.16-54.35,7.16s-25.6-29.51-6-54.51,77-36,77-36S882.92,550.62,863.3,575.62Z"/><path class="a678085a-62b3-457f-940e-63fb7ceed681" d="M834.47,594.13a64.3,64.3,0,0,1-27.92-6.7A5.31,5.31,0,0,1,805,586.2c-9.83-11.33-23.76-38.7-6.15-61.16,20.59-26.23,77.71-37.45,80.13-37.92a5.18,5.18,0,0,1,4.22,1,5.26,5.26,0,0,1,2,3.85c.12,2.47,2.82,60.62-17.77,86.86h0C858.37,590.38,846.09,594.13,834.47,594.13Zm-22.2-15.57c5.37,2.49,31.69,13.23,46.92-6.17h0c14.55-18.56,15.78-58.3,15.68-73.65-14.93,3.56-53.23,14.21-67.79,32.76C792,550.79,808.7,574.05,812.27,578.56Z"/><path class="bd41d47a-5567-49b7-9cca-771f4476f4f7" d="M851.3,442.74c-11.32,29.68-49.79,22.94-49.79,22.94s-33.19-20.61-21.86-50.29,62.88-57.2,62.88-57.2S862.63,413.06,851.3,442.74Z"/><path class="a678085a-62b3-457f-940e-63fb7ceed681" d="M810.75,471.66a59.13,59.13,0,0,1-10.15-.83,4.91,4.91,0,0,1-1.85-.71c-12.75-7.91-34.17-29.92-24-56.59,11.89-31.16,63.13-58.79,65.3-59.95a5.23,5.23,0,0,1,7.38,2.81c.85,2.32,20.64,57.07,8.75,88.22C848,466.09,826.52,471.66,810.75,471.66Zm-7.33-11c5.84.79,34.19,3.29,43-19.79h0c8.41-22-2.18-60.36-6.82-75-13.21,7.82-46.64,29.33-55.05,51.37C775.73,440.34,798.53,457.36,803.42,460.67Z"/><path class="bd41d47a-5567-49b7-9cca-771f4476f4f7" d="M790.8,330.74c-3.66,31.56-42.62,34.49-42.62,34.49s-37.23-11.8-33.56-43.35S761.48,251,761.48,251,794.47,299.18,790.8,330.74Z"/><path class="a678085a-62b3-457f-940e-63fb7ceed681" d="M748.18,370.46a5.36,5.36,0,0,1-1.58-.24c-14.3-4.53-40.47-20.59-37.18-49,3.85-33.12,46.71-72.53,48.53-74.19a5.29,5.29,0,0,1,4.13-1.33A5.23,5.23,0,0,1,765.8,248c1.39,2,34.05,50.22,30.2,83.34-3.29,28.36-32.46,38-47.42,39.11Zm12.35-111.32c-10.88,10.83-38,39.91-40.71,63.34-2.85,24.54,23.44,35.42,29,37.43,5.86-.69,34-5.24,36.81-29.78C788.33,306.7,768.63,272.17,760.53,259.14Z"/><path class="bd41d47a-5567-49b7-9cca-771f4476f4f7" d="M685.39,247.62c15.41,27.78-14.52,53.73-14.52,53.73s-37.13,11.26-52.54-16.52-3.27-84.95-3.27-84.95S670,219.84,685.39,247.62Z"/><path class="a678085a-62b3-457f-940e-63fb7ceed681" d="M654.35,308.89c-14.4,0-31.3-4.76-40.6-21.53-16.18-29.15-4.32-86.15-3.81-88.56a5.23,5.23,0,0,1,6.91-3.83c2.31.84,56.94,20.95,73.12,50.11,13.82,24.91-4.21,50.29-15.67,60.22a5.44,5.44,0,0,1-1.91,1.06A64.1,64.1,0,0,1,654.35,308.89Zm16.53-7.55h0Zm-51.82-94.25c-2.53,15.13-7.6,54.57,3.84,75.2,11.86,21.37,39.58,15.77,45.38,14.34,4.53-4.28,24.49-24.93,12.54-46.47h0C669.36,229.5,633.24,213,619.06,207.09Z"/><path class="bd41d47a-5567-49b7-9cca-771f4476f4f7" d="M613.89,873.92c-37-16.53-25.69-66.08-25.69-66.08s28.58-39.77,65.58-23.24,68.39,84.11,68.39,84.11S650.89,890.44,613.89,873.92Z"/><path class="a678085a-62b3-457f-940e-63fb7ceed681" d="M650.24,885.35c-13.91,0-27.52-1.76-38.49-6.65h0c-32.36-14.46-32.89-53.44-28.65-72a5.31,5.31,0,0,1,.86-1.89c.3-.43,31.48-43,71.95-25,38.34,17.12,69.69,83.85,71,86.69a5.24,5.24,0,0,1-3.22,7.21C721.57,874.37,685,885.35,650.24,885.35ZM616,869.14c28.73,12.83,81,.86,98.65-3.78-8.3-16.21-34.28-63.14-63-76-30.15-13.46-54.27,15.16-58.55,20.67-1.36,7.05-7.26,45.61,22.94,59.1Z"/><path class="bd41d47a-5567-49b7-9cca-771f4476f4f7" d="M736.33,810.11c-36.31-6.28-37.22-51.58-37.22-51.58s16.06-42.38,52.37-36.1,79.14,58.83,79.14,58.83S772.64,816.38,736.33,810.11Z"/><path class="a678085a-62b3-457f-940e-63fb7ceed681" d="M745.6,816.08a60,60,0,0,1-10.16-.82h0c-32.08-5.55-41.21-39.47-41.55-56.63a5.22,5.22,0,0,1,.34-2c6.09-16,26.08-44.94,58.16-39.39,37.8,6.53,80.5,58.47,82.29,60.67a5.25,5.25,0,0,1-1.34,7.79C831.1,787.09,782.76,816.08,745.6,816.08ZM737.22,805c27.75,4.79,70.36-16.85,85.3-25.09-11.31-12.78-44.17-47.47-71.92-52.27-29.16-5.06-43.68,25.84-46.21,31.85.37,6.51,3.7,40.47,32.83,45.51Z"/><path class="bd41d47a-5567-49b7-9cca-771f4476f4f7" d="M825,703.55c-30.57,14.81-55.59-18.64-55.59-18.64s-10.74-40.37,19.84-55.18,90.88,1.54,90.88,1.54S855.54,688.73,825,703.55Z"/><path class="a678085a-62b3-457f-940e-63fb7ceed681" d="M809.18,712.5c-19.84,0-36.62-14.59-44-24.46a5.14,5.14,0,0,1-.87-1.79c-4.1-15.41-4.64-48,22.62-61.24,32-15.47,92,.52,94.53,1.21a5.23,5.23,0,0,1,3.44,7.1c-1,2.42-25.69,59.45-57.66,74.94h0A41,41,0,0,1,809.18,712.5Zm15.78-9h0Zm-50.77-21c3.89,4.81,24.37,27.95,48.49,16.27h0c23-11.15,43.05-49.45,50-64-15.71-3.56-58.2-11.58-81.2-.42C767.36,646.12,772.83,676.55,774.19,682.57Z"/><path class="fd63fa85-ac7d-4722-8639-9e62b97cd190" d="M343.42,810.11c36.31-6.28,37.22-51.58,37.22-51.58s-16.06-42.38-52.37-36.1-79.14,58.83-79.14,58.83S307.11,816.38,343.42,810.11Z"/><path class="a678085a-62b3-457f-940e-63fb7ceed681" d="M334.15,816.08c-37.17,0-85.5-29-87.73-30.34a5.25,5.25,0,0,1-1.34-7.79c1.79-2.2,44.49-54.14,82.3-60.67,32-5.54,52.07,23.34,58.15,39.39a5.22,5.22,0,0,1,.34,2c-.34,17.16-9.47,51.08-41.55,56.63h0A60,60,0,0,1,334.15,816.08Zm9.27-6h0Zm-86.19-30.25c14.94,8.24,57.56,29.88,85.3,25.09h0c29.13-5,32.46-39,32.83-45.51-2.53-6-17.05-36.88-46.2-31.85C301.4,732.39,268.54,767.08,257.23,779.86Z"/><path class="fd63fa85-ac7d-4722-8639-9e62b97cd190" d="M216.7,575.62c19.6,25,54.35,7.16,54.35,7.16s25.6-29.51,6-54.51-77-36-77-36S197.08,550.62,216.7,575.62Z"/><path class="a678085a-62b3-457f-940e-63fb7ceed681" d="M245.53,594.13c-11.62,0-23.9-3.75-32.95-15.28C192,552.61,194.69,494.46,194.82,492a5.22,5.22,0,0,1,6.21-4.87c2.42.47,59.54,11.69,80.13,37.92,17.61,22.46,3.68,49.83-6.15,61.16a5.31,5.31,0,0,1-1.56,1.23A64.3,64.3,0,0,1,245.53,594.13Zm-40.4-95.39c-.1,15.35,1.12,55.09,15.68,73.65h0c15.25,19.42,41.58,8.65,46.94,6.17,3.68-4.61,20.42-27.62,5.17-47.06C258.34,512.92,220.05,502.29,205.13,498.74Z"/><path class="fd63fa85-ac7d-4722-8639-9e62b97cd190" d="M228.7,442.74c11.32,29.68,49.79,22.94,49.79,22.94s33.19-20.61,21.86-50.29-62.88-57.2-62.88-57.2S217.37,413.06,228.7,442.74Z"/><path class="a678085a-62b3-457f-940e-63fb7ceed681" d="M269.25,471.66c-15.77,0-37.25-5.57-45.44-27.05h0c-11.89-31.15,7.9-85.9,8.75-88.22a5.23,5.23,0,0,1,7.38-2.81c2.17,1.16,53.41,28.79,65.3,59.95,10.18,26.67-11.24,48.68-24,56.59a4.91,4.91,0,0,1-1.85.71A59.13,59.13,0,0,1,269.25,471.66ZM240.41,365.89c-4.64,14.63-15.23,52.95-6.82,75h0c8.8,23.08,37.13,20.57,43,19.79,4.89-3.31,27.69-20.33,18.88-43.41C287.05,395.22,253.62,373.71,240.41,365.89Z"/><path class="fd63fa85-ac7d-4722-8639-9e62b97cd190" d="M289.2,330.74c3.66,31.56,42.62,34.49,42.62,34.49s37.23-11.8,33.56-43.35S318.52,251,318.52,251,285.53,299.18,289.2,330.74Z"/><path class="a678085a-62b3-457f-940e-63fb7ceed681" d="M331.82,370.46h-.4c-15-1.13-44.13-10.75-47.42-39.11C280.15,298.22,312.81,250,314.2,248a5.23,5.23,0,0,1,7.85-.92c1.82,1.66,44.68,41.07,48.53,74.19,3.29,28.36-22.88,44.42-37.18,49A5.36,5.36,0,0,1,331.82,370.46ZM319.47,259.14c-8.1,13-27.8,47.56-25.08,71,2.83,24.35,31.11,29.07,36.82,29.78,5.58-2,31.82-12.91,29-37.43C357.46,299.05,330.35,270,319.47,259.14Z"/><path class="fd63fa85-ac7d-4722-8639-9e62b97cd190" d="M394.61,247.62c-15.41,27.78,14.52,53.76,14.52,53.76s37.13,11.23,52.55-16.55,3.26-84.95,3.26-84.95S410,219.84,394.61,247.62Z"/><path class="a678085a-62b3-457f-940e-63fb7ceed681" d="M425.6,308.9a64.13,64.13,0,0,1-18-2.51,5.25,5.25,0,0,1-1.92-1.06C394.24,295.38,376.21,270,390,245.08h0c16.18-29.16,70.81-49.27,73.12-50.11a5.23,5.23,0,0,1,6.91,3.83c.51,2.41,12.37,59.41-3.81,88.56C456.94,304.14,440,308.9,425.6,308.9Zm-13.87-12.23c5.93,1.51,33.42,7.15,45.37-14.38,11.46-20.66,6.37-60.07,3.84-75.2-14.18,5.87-50.31,22.44-61.76,43.07h0C387.22,271.71,407.21,292.4,411.73,296.67Zm-17.12-49.05h0Z"/><path class="fd63fa85-ac7d-4722-8639-9e62b97cd190" d="M466.11,873.92c37-16.53,25.69-66.09,25.69-66.09s-28.58-39.76-65.58-23.23-68.39,84.11-68.39,84.11S429.11,890.44,466.11,873.92Z"/><path class="a678085a-62b3-457f-940e-63fb7ceed681" d="M429.76,885.35c-34.72,0-71.33-11-73.46-11.63a5.24,5.24,0,0,1-3.22-7.21c1.32-2.84,32.67-69.57,71-86.69,40.43-18,71.65,24.52,72,25a5.24,5.24,0,0,1,.86,1.89c4.24,18.59,3.71,57.57-28.65,72h0C457.28,883.59,443.67,885.35,429.76,885.35Zm-64.44-20C382.94,870,435.22,882,464,869.14c30.2-13.49,24.3-52,22.94-59.1-4.28-5.52-28.38-34.12-58.55-20.67C399.6,802.22,373.62,849.15,365.32,865.36Zm100.79,8.56h0Z"/><path class="fd63fa85-ac7d-4722-8639-9e62b97cd190" d="M255,703.55c30.57,14.81,55.59-18.64,55.59-18.64s10.74-40.37-19.84-55.18-90.88,1.54-90.88,1.54S224.46,688.73,255,703.55Z"/><path class="a678085a-62b3-457f-940e-63fb7ceed681" d="M270.82,712.5a41,41,0,0,1-18.06-4.24h0c-32-15.49-56.63-72.52-57.66-74.94a5.23,5.23,0,0,1,3.44-7.1c2.54-.68,62.58-16.67,94.53-1.21,27.26,13.21,26.72,45.83,22.62,61.24a5.14,5.14,0,0,1-.87,1.79C307.44,697.91,290.66,712.5,270.82,712.5Zm-13.5-13.66c24.14,11.68,44.6-11.46,48.49-16.27,1.36-6,6.83-36.45-17.29-48.13-23-11.16-65.49-3.14-81.2.42,7,14.53,27,52.83,50,64Z"/><path class="a7a1366c-caae-4d95-af23-ec5360fdc6cf" d="M540,634.19a20.94,20.94,0,0,1-20.93-20.93V487.67h-15.7a20.93,20.93,0,0,1,0-41.86H540a20.94,20.94,0,0,1,20.93,20.93V613.26A20.94,20.94,0,0,1,540,634.19Z"/><path class="a7a1366c-caae-4d95-af23-ec5360fdc6cf" d="M576.63,634.19H503.37a20.93,20.93,0,0,1,0-41.86h73.26a20.93,20.93,0,1,1,0,41.86Z"/><path class="a7a3b8b1-12df-416b-a67c-220aa7ccc8d7" d="M294.07,927.21a5.22,5.22,0,0,1-3.7-1.53L274.67,910a5.23,5.23,0,1,1,7.4-7.4l15.7,15.7a5.23,5.23,0,0,1-3.7,8.93Z"/><path class="a7a3b8b1-12df-416b-a67c-220aa7ccc8d7" d="M330.7,963.84a5.19,5.19,0,0,1-3.7-1.54l-15.7-15.69a5.23,5.23,0,0,1,7.4-7.4l15.7,15.7a5.24,5.24,0,0,1-3.7,8.93Z"/><path class="a7a3b8b1-12df-416b-a67c-220aa7ccc8d7" d="M278.37,963.84a5.24,5.24,0,0,1-3.7-8.93l15.7-15.7a5.23,5.23,0,0,1,7.4,7.4l-15.7,15.69A5.19,5.19,0,0,1,278.37,963.84Z"/><path class="a7a3b8b1-12df-416b-a67c-220aa7ccc8d7" d="M315,927.21a5.23,5.23,0,0,1-3.7-8.93l15.7-15.7a5.23,5.23,0,1,1,7.4,7.4l-15.7,15.7A5.22,5.22,0,0,1,315,927.21Z"/><path class="a7a3b8b1-12df-416b-a67c-220aa7ccc8d7" d="M948.14,608a5.22,5.22,0,0,1-3.7-1.53l-15.7-15.7a5.23,5.23,0,0,1,7.4-7.4l15.7,15.7a5.23,5.23,0,0,1-3.7,8.93Z"/><path class="a7a3b8b1-12df-416b-a67c-220aa7ccc8d7" d="M984.77,644.65a5.22,5.22,0,0,1-3.7-1.53l-15.7-15.7a5.23,5.23,0,0,1,7.4-7.4l15.7,15.7a5.23,5.23,0,0,1-3.7,8.93Z"/><path class="a7a3b8b1-12df-416b-a67c-220aa7ccc8d7" d="M932.44,644.65a5.23,5.23,0,0,1-3.7-8.93l15.7-15.7a5.23,5.23,0,0,1,7.4,7.4l-15.7,15.7A5.22,5.22,0,0,1,932.44,644.65Z"/><path class="a7a3b8b1-12df-416b-a67c-220aa7ccc8d7" d="M969.07,608a5.23,5.23,0,0,1-3.7-8.93l15.7-15.7a5.23,5.23,0,0,1,7.4,7.4l-15.7,15.7A5.22,5.22,0,0,1,969.07,608Z"/><path class="a7a3b8b1-12df-416b-a67c-220aa7ccc8d7" d="M885.35,283.6a5.22,5.22,0,0,1-3.7-1.53L866,266.37a5.23,5.23,0,0,1,7.4-7.39l15.7,15.69a5.23,5.23,0,0,1-3.7,8.93Z"/><path class="a7a3b8b1-12df-416b-a67c-220aa7ccc8d7" d="M922,320.23a5.22,5.22,0,0,1-3.7-1.53L902.58,303a5.23,5.23,0,1,1,7.4-7.4l15.7,15.7a5.23,5.23,0,0,1-3.7,8.93Z"/><path class="a7a3b8b1-12df-416b-a67c-220aa7ccc8d7" d="M869.65,320.23a5.23,5.23,0,0,1-3.7-8.93l15.7-15.7a5.23,5.23,0,0,1,7.4,7.4l-15.7,15.7A5.22,5.22,0,0,1,869.65,320.23Z"/><path class="a7a3b8b1-12df-416b-a67c-220aa7ccc8d7" d="M906.28,283.6a5.23,5.23,0,0,1-3.7-8.93L918.28,259a5.23,5.23,0,1,1,7.4,7.39L910,282.07A5.22,5.22,0,0,1,906.28,283.6Z"/><path class="a7a3b8b1-12df-416b-a67c-220aa7ccc8d7" d="M775.47,869.65a5.22,5.22,0,0,1-3.7-1.53l-15.7-15.7a5.23,5.23,0,0,1,7.4-7.4l15.69,15.7a5.23,5.23,0,0,1-3.69,8.93Z"/><path class="a7a3b8b1-12df-416b-a67c-220aa7ccc8d7" d="M812.09,906.28a5.23,5.23,0,0,1-3.7-1.53l-15.69-15.7a5.23,5.23,0,1,1,7.39-7.4l15.7,15.7a5.23,5.23,0,0,1-3.7,8.93Z"/><path class="a7a3b8b1-12df-416b-a67c-220aa7ccc8d7" d="M759.77,906.28a5.23,5.23,0,0,1-3.7-8.93l15.7-15.7a5.23,5.23,0,0,1,7.39,7.4l-15.69,15.7A5.23,5.23,0,0,1,759.77,906.28Z"/><path class="a7a3b8b1-12df-416b-a67c-220aa7ccc8d7" d="M796.4,869.65a5.23,5.23,0,0,1-3.7-8.93L808.39,845a5.23,5.23,0,0,1,7.4,7.4l-15.7,15.7A5.21,5.21,0,0,1,796.4,869.65Z"/><path class="a7a3b8b1-12df-416b-a67c-220aa7ccc8d7" d="M335.93,142.33a5.23,5.23,0,0,1-3.7-1.54l-15.7-15.7a5.23,5.23,0,0,1,7.4-7.39l15.7,15.69a5.24,5.24,0,0,1-3.7,8.94Z"/><path class="a7a3b8b1-12df-416b-a67c-220aa7ccc8d7" d="M372.56,179a5.22,5.22,0,0,1-3.7-1.53l-15.7-15.7a5.23,5.23,0,1,1,7.4-7.4l15.7,15.7a5.23,5.23,0,0,1-3.7,8.93Z"/><path class="a7a3b8b1-12df-416b-a67c-220aa7ccc8d7" d="M320.23,179a5.23,5.23,0,0,1-3.7-8.93l15.7-15.7a5.23,5.23,0,1,1,7.4,7.4l-15.7,15.7A5.22,5.22,0,0,1,320.23,179Z"/><path class="a7a3b8b1-12df-416b-a67c-220aa7ccc8d7" d="M356.86,142.33a5.24,5.24,0,0,1-3.7-8.94l15.7-15.69a5.23,5.23,0,0,1,7.4,7.39l-15.7,15.7A5.23,5.23,0,0,1,356.86,142.33Z"/><path class="a7a3b8b1-12df-416b-a67c-220aa7ccc8d7" d="M152.79,414.42a5.22,5.22,0,0,1-3.7-1.53l-15.7-15.7a5.23,5.23,0,1,1,7.4-7.4l15.7,15.7a5.23,5.23,0,0,1-3.7,8.93Z"/><path class="a7a3b8b1-12df-416b-a67c-220aa7ccc8d7" d="M189.42,451.05a5.19,5.19,0,0,1-3.7-1.54L170,433.82a5.23,5.23,0,0,1,7.4-7.4l15.7,15.69a5.24,5.24,0,0,1,0,7.4A5.19,5.19,0,0,1,189.42,451.05Z"/><path class="a7a3b8b1-12df-416b-a67c-220aa7ccc8d7" d="M137.09,451.05a5.24,5.24,0,0,1-3.7-8.94l15.7-15.69a5.23,5.23,0,1,1,7.4,7.4l-15.7,15.69A5.19,5.19,0,0,1,137.09,451.05Z"/><path class="a7a3b8b1-12df-416b-a67c-220aa7ccc8d7" d="M173.72,414.42a5.23,5.23,0,0,1-3.7-8.93l15.7-15.7a5.23,5.23,0,1,1,7.4,7.4l-15.7,15.7A5.22,5.22,0,0,1,173.72,414.42Z"/><path class="a7a3b8b1-12df-416b-a67c-220aa7ccc8d7" d="M712.67,184.19a5.26,5.26,0,0,1-3.7-1.54L693.28,167a5.23,5.23,0,0,1,7.4-7.4l15.69,15.69a5.24,5.24,0,0,1-3.7,8.94Z"/><path class="a7a3b8b1-12df-416b-a67c-220aa7ccc8d7" d="M749.3,220.81a5.22,5.22,0,0,1-3.7-1.53l-15.69-15.7a5.23,5.23,0,0,1,7.39-7.4l15.7,15.7a5.23,5.23,0,0,1-3.7,8.93Z"/><path class="a7a3b8b1-12df-416b-a67c-220aa7ccc8d7" d="M697,220.81a5.23,5.23,0,0,1-3.7-8.93L709,196.18a5.23,5.23,0,1,1,7.4,7.4l-15.69,15.7A5.23,5.23,0,0,1,697,220.81Z"/><path class="a7a3b8b1-12df-416b-a67c-220aa7ccc8d7" d="M733.6,184.19a5.24,5.24,0,0,1-3.69-8.94l15.69-15.69A5.23,5.23,0,0,1,753,167l-15.7,15.69A5.23,5.23,0,0,1,733.6,184.19Z"/><path class="a7a3b8b1-12df-416b-a67c-220aa7ccc8d7" d="M110.93,754.53a5.22,5.22,0,0,1-3.7-1.53l-15.7-15.7a5.23,5.23,0,0,1,7.4-7.39l15.7,15.69a5.23,5.23,0,0,1-3.7,8.93Z"/><path class="a7a3b8b1-12df-416b-a67c-220aa7ccc8d7" d="M147.56,791.16a5.22,5.22,0,0,1-3.7-1.53l-15.7-15.7a5.23,5.23,0,0,1,7.4-7.4l15.7,15.7a5.23,5.23,0,0,1-3.7,8.93Z"/><path class="a7a3b8b1-12df-416b-a67c-220aa7ccc8d7" d="M95.23,791.16a5.23,5.23,0,0,1-3.7-8.93l15.7-15.7a5.23,5.23,0,0,1,7.4,7.4l-15.7,15.7A5.22,5.22,0,0,1,95.23,791.16Z"/><path class="a7a3b8b1-12df-416b-a67c-220aa7ccc8d7" d="M131.86,754.53a5.23,5.23,0,0,1-3.7-8.93l15.7-15.69a5.23,5.23,0,0,1,7.4,7.39L135.56,753A5.22,5.22,0,0,1,131.86,754.53Z"/></svg>