<svg id="b43698e1-5464-4e6a-8afd-b1f23f0838db" data-name="Capa 1" xmlns="http://www.w3.org/2000/svg" viewBox="0 0 1080 1080"><defs><style>.b807db30-06cc-4866-8575-5ce440c05d5b{fill:#f6f6f6;}.a3f5e4f9-440c-4651-98b3-9851fdc26b40{fill:#fff;}.bd0648ba-84e0-4ab2-a4f6-43babd4bc246{fill:#989aa6;}.ac38d8a0-172d-4d45-b3a2-5f96641f9fb9{fill:#282c3f;}.fe6eb8aa-6175-46f4-a084-835125fc092a{fill:#2fc8f2;}.fed137f9-0725-4c9e-bdc9-62464aa7f9e6{fill:#2caae6;}.a13d1af7-a022-484c-bded-8fb3914ebda1{fill:#52576a;}.a4b62804-52db-44a4-9266-5c15a8fdd854{fill:#30354c;}.bb35b11b-7578-46bb-94ee-d514642a378b{fill:#a09cad;}</style></defs><title>ICONS S2R</title><path class="b807db30-06cc-4866-8575-5ce440c05d5b" d="M858.56,371.61c-32.88-62.83-21.18-172.34-80.8-210.32C720,124.48,627.57,181.17,554.33,178.23s-160.88-66.84-221.39-34.77c-62.43,33.08-59.43,143.18-97.17,203.18C199.19,404.79,98.22,448.45,95.3,522.17s88.17,130,120,190.93c32.88,62.83,10.13,157,86.92,205.61,57.88,36.66,150.18-19.88,223.43-16.94s160.88,66.84,221.39,34.78c62.42-33.09,59.43-143.19,97.16-203.19,36.58-58.15,137.55-101.81,140.47-175.53S890.42,432.51,858.56,371.61Z"/><path class="a3f5e4f9-440c-4651-98b3-9851fdc26b40" d="M830.71,602.27A22.21,22.21,0,0,1,865,574.89a40.05,40.05,0,1,1,79.07,12.56,33.08,33.08,0,0,1,6.94-.75,33.77,33.77,0,1,1,0,67.53H835.69a26.22,26.22,0,0,1-5-52Z"/><path class="bd0648ba-84e0-4ab2-a4f6-43babd4bc246" d="M951,659.47H835.69a31.45,31.45,0,0,1-12-60.53,27.45,27.45,0,0,1,37.86-32.55A45.29,45.29,0,0,1,950,580.08c0,.46,0,.93,0,1.4h1a39,39,0,0,1,0,78ZM850.06,574.33a17,17,0,0,0-14.8,25.36,5.23,5.23,0,0,1-3.57,7.72,21,21,0,0,0,4,41.59H951a28.52,28.52,0,1,0-5.86-56.43,5.24,5.24,0,0,1-6.22-6.08,34.82,34.82,0,1,0-68.74-10.93,5.23,5.23,0,0,1-8.71,3.2A17,17,0,0,0,850.06,574.33Z"/><path class="a3f5e4f9-440c-4651-98b3-9851fdc26b40" d="M181.51,719.64a17.74,17.74,0,0,1,27.37-21.87,32,32,0,0,1,63.71,4.15,32.39,32.39,0,0,1-.56,5.88,27.33,27.33,0,0,1,5.54-.59,27,27,0,0,1,0,53.93H185.48a20.94,20.94,0,0,1-4-41.5Z"/><path class="bd0648ba-84e0-4ab2-a4f6-43babd4bc246" d="M277.57,766.37H185.48a26.17,26.17,0,0,1-10.84-50,23,23,0,0,1,30.84-26.81,37.23,37.23,0,0,1,72.35,12.35V702a32.2,32.2,0,0,1-.26,64.4Zm-80.61-68a12.54,12.54,0,0,0-12.52,12.52,12.29,12.29,0,0,0,1.62,6.15,5.24,5.24,0,0,1-3.57,7.73,15.7,15.7,0,0,0,3,31.11h92.09a21.73,21.73,0,1,0,0-43.46,21.14,21.14,0,0,0-4.46.49,5.24,5.24,0,0,1-6.22-6.08,26.76,26.76,0,1,0-52.83-8.4,5.23,5.23,0,0,1-8.7,3.2A12.5,12.5,0,0,0,197,698.39Z"/><path class="a3f5e4f9-440c-4651-98b3-9851fdc26b40" d="M750.51,238.53a17,17,0,0,0-26.28-21,30.72,30.72,0,0,0-61.19,4,31.83,31.83,0,0,0,.54,5.65,25.14,25.14,0,0,0-5.32-.57,25.89,25.89,0,1,0,0,51.78H746.7a20.1,20.1,0,0,0,3.81-39.84Z"/><path class="bd0648ba-84e0-4ab2-a4f6-43babd4bc246" d="M746.7,283.6H658.26a31.12,31.12,0,0,1-.45-62.24,36,36,0,0,1,69.8-12A22.29,22.29,0,0,1,758,230.14a22.62,22.62,0,0,1-.6,5.13A25.34,25.34,0,0,1,746.7,283.6Zm-88.44-51.78a20.66,20.66,0,1,0,0,41.32H746.7a14.87,14.87,0,0,0,2.82-29.48,5.23,5.23,0,0,1-3.56-7.72,11.8,11.8,0,0,0-18.22-14.54,5.23,5.23,0,0,1-8.7-3.2,25.49,25.49,0,1,0-50.31,8,5.24,5.24,0,0,1-6.23,6.07A20.08,20.08,0,0,0,658.26,231.82Z"/><path class="a3f5e4f9-440c-4651-98b3-9851fdc26b40" d="M369.74,178.67a20.43,20.43,0,0,1,31.53-25.18A36.84,36.84,0,1,1,474,165a30.49,30.49,0,0,1,6.38-.69,31.06,31.06,0,0,1,0,62.12H374.32a24.12,24.12,0,0,1-4.58-47.8Z"/><path class="bd0648ba-84e0-4ab2-a4f6-43babd4bc246" d="M480.39,231.7H374.32a29.35,29.35,0,0,1-11.56-56.33,25.68,25.68,0,0,1,35.08-30.28,42.08,42.08,0,0,1,82.05,13.17c0,.29,0,.57,0,.86a36.29,36.29,0,1,1,.51,72.58Zm-92.85-78.31A15.21,15.21,0,0,0,374.3,176.1a5.23,5.23,0,0,1-3.57,7.71,18.89,18.89,0,0,0,3.59,37.43H480.39a25.82,25.82,0,1,0-5.29-51.08,5.24,5.24,0,0,1-6.24-6.08,31.32,31.32,0,0,0,.57-5.82,31.62,31.62,0,0,0-63-4.1,5.23,5.23,0,0,1-8.71,3.2A15.16,15.16,0,0,0,387.54,153.39Z"/><path class="a3f5e4f9-440c-4651-98b3-9851fdc26b40" d="M191.64,460.39a13.9,13.9,0,0,0-21.45-17.14,25.07,25.07,0,0,0-49.93,3.25,24.29,24.29,0,0,0,.45,4.62,20.85,20.85,0,0,0-4.35-.47,21.13,21.13,0,1,0,0,42.26h72.16a16.41,16.41,0,0,0,3.12-32.52Z"/><path class="bd0648ba-84e0-4ab2-a4f6-43babd4bc246" d="M188.52,498.14H116.36a26.36,26.36,0,0,1-1.31-52.69,30.3,30.3,0,0,1,58.47-10.08,19.14,19.14,0,0,1,25.16,18.18,18.59,18.59,0,0,1-.36,3.65,21.64,21.64,0,0,1-9.8,40.94Zm-72.16-42.26a15.9,15.9,0,0,0,0,31.79h72.16a11.17,11.17,0,0,0,2.13-22.14,5.23,5.23,0,0,1-3.57-7.72,8.54,8.54,0,0,0,1.13-4.26,8.66,8.66,0,0,0-14.5-6.42,5.24,5.24,0,0,1-8.71-3.2,19.84,19.84,0,0,0-39.51,2.57,19.45,19.45,0,0,0,.36,3.65,5.23,5.23,0,0,1-6.23,6.08A16,16,0,0,0,116.36,455.88Z"/><path class="bd0648ba-84e0-4ab2-a4f6-43babd4bc246" d="M288.84,278.37h0a26.17,26.17,0,0,0-26.17,26.16V958.6H315V304.53A26.16,26.16,0,0,0,288.84,278.37Z"/><path class="ac38d8a0-172d-4d45-b3a2-5f96641f9fb9" d="M315,963.84H262.67a5.23,5.23,0,0,1-5.23-5.24V304.53a31.4,31.4,0,0,1,62.79,0V571.4a5.23,5.23,0,0,1-10.46,0V304.53a20.93,20.93,0,0,0-41.86,0V953.37h41.86V602.79a5.23,5.23,0,0,1,10.46,0V958.6A5.23,5.23,0,0,1,315,963.84Z"/><path class="bd0648ba-84e0-4ab2-a4f6-43babd4bc246" d="M880.12,367.33h0A26.17,26.17,0,0,0,854,341.16H210.35a10.47,10.47,0,0,0-10.47,10.47V383a10.47,10.47,0,0,0,10.47,10.47H854A26.17,26.17,0,0,0,880.12,367.33Z"/><rect class="fe6eb8aa-6175-46f4-a084-835125fc092a" x="388.26" y="466.74" width="491.86" height="366.28" rx="26.16"/><rect class="fed137f9-0725-4c9e-bdc9-62464aa7f9e6" x="388.26" y="498.14" width="491.86" height="334.88" rx="26.16"/><path class="ac38d8a0-172d-4d45-b3a2-5f96641f9fb9" d="M854,838.26H746.69a5.24,5.24,0,1,1,0-10.47H854a21,21,0,0,0,20.93-20.93V492.91A21,21,0,0,0,854,472H414.42a21,21,0,0,0-20.93,20.93v314a21,21,0,0,0,20.93,20.93H715.29a5.24,5.24,0,0,1,0,10.47H414.42a31.44,31.44,0,0,1-31.4-31.4V492.91a31.43,31.43,0,0,1,31.4-31.4H854a31.43,31.43,0,0,1,31.4,31.4v314A31.43,31.43,0,0,1,854,838.26Z"/><path class="a3f5e4f9-440c-4651-98b3-9851fdc26b40" d="M498.14,639.42A10.47,10.47,0,0,1,487.67,629V524.3a10.46,10.46,0,0,1,10.47-10.46h62.79a10.47,10.47,0,1,1,0,20.93H508.6V629A10.46,10.46,0,0,1,498.14,639.42Z"/><path class="a3f5e4f9-440c-4651-98b3-9851fdc26b40" d="M545.23,587.09H498.14a10.47,10.47,0,1,1,0-20.93h47.09a10.47,10.47,0,1,1,0,20.93Z"/><path class="a3f5e4f9-440c-4651-98b3-9851fdc26b40" d="M636.8,639.42H621.1a34.05,34.05,0,0,1-34-34V547.85a34.05,34.05,0,0,1,34-34h15.7a34,34,0,0,1,34,34v57.56A34,34,0,0,1,636.8,639.42ZM621.1,534.77A13.1,13.1,0,0,0,608,547.85v57.56a13.1,13.1,0,0,0,13.08,13.08h15.7a13.09,13.09,0,0,0,13.08-13.08V547.85a13.09,13.09,0,0,0-13.08-13.08Z"/><path class="a3f5e4f9-440c-4651-98b3-9851fdc26b40" d="M744.07,594.57H707.44A10.46,10.46,0,0,1,697,584.1V524.3a10.46,10.46,0,0,1,10.46-10.46h36.63a36.68,36.68,0,0,1,36.63,36.63v7.47A36.68,36.68,0,0,1,744.07,594.57Zm-26.16-20.93h26.16a15.71,15.71,0,0,0,15.7-15.7v-7.47a15.71,15.71,0,0,0-15.7-15.7H717.91Z"/><path class="a3f5e4f9-440c-4651-98b3-9851fdc26b40" d="M770.24,639.42a10.45,10.45,0,0,1-8.27-4l-31.75-40.81H717.91V629A10.47,10.47,0,1,1,697,629V584.1a10.46,10.46,0,0,1,10.46-10.46h27.9a10.46,10.46,0,0,1,8.26,4l34.89,44.85a10.47,10.47,0,0,1-8.25,16.89Z"/><path class="ac38d8a0-172d-4d45-b3a2-5f96641f9fb9" d="M854,398.72H210.35a15.71,15.71,0,0,1-15.7-15.7V351.63a15.71,15.71,0,0,1,15.7-15.7H519.07a5.24,5.24,0,0,1,0,10.47H210.35a5.23,5.23,0,0,0-5.23,5.23V383a5.24,5.24,0,0,0,5.23,5.24H854a20.93,20.93,0,0,0,0-41.86H555.7a5.24,5.24,0,0,1,0-10.47H854a31.4,31.4,0,1,1,0,62.79Z"/><path class="a3f5e4f9-440c-4651-98b3-9851fdc26b40" d="M725.76,791.16a10.48,10.48,0,0,1-9-5.08l-43.35-72.25V780.7a10.47,10.47,0,0,1-20.93,0V676.05a10.47,10.47,0,0,1,19.44-5.39l43.35,72.25V676.05a10.47,10.47,0,1,1,20.93,0V780.7a10.46,10.46,0,0,1-10.46,10.46Z"/><path class="a3f5e4f9-440c-4651-98b3-9851fdc26b40" d="M799,791.16a10.46,10.46,0,0,1-10.46-10.46V676.05a10.47,10.47,0,1,1,20.93,0V780.7A10.46,10.46,0,0,1,799,791.16Z"/><path class="a3f5e4f9-440c-4651-98b3-9851fdc26b40" d="M830.41,686.51H767.62a10.47,10.47,0,1,1,0-20.93h62.79a10.47,10.47,0,0,1,0,20.93Z"/><path class="a3f5e4f9-440c-4651-98b3-9851fdc26b40" d="M621.1,791.16H558.31a10.46,10.46,0,0,1-10.46-10.46V676.05a10.46,10.46,0,0,1,10.46-10.47H621.1a10.47,10.47,0,1,1,0,20.93H568.78v83.72H621.1a10.47,10.47,0,1,1,0,20.93Z"/><path class="a3f5e4f9-440c-4651-98b3-9851fdc26b40" d="M605.4,738.84H558.31a10.47,10.47,0,0,1,0-20.93H605.4a10.47,10.47,0,1,1,0,20.93Z"/><path class="a3f5e4f9-440c-4651-98b3-9851fdc26b40" d="M485.06,746.31H448.43A10.46,10.46,0,0,1,438,735.85v-59.8a10.46,10.46,0,0,1,10.46-10.47h36.63a36.68,36.68,0,0,1,36.63,36.63v7.48A36.67,36.67,0,0,1,485.06,746.31ZM458.9,725.38h26.16a15.72,15.72,0,0,0,15.7-15.69v-7.48a15.72,15.72,0,0,0-15.7-15.7H458.9Z"/><path class="a3f5e4f9-440c-4651-98b3-9851fdc26b40" d="M511.23,791.16a10.44,10.44,0,0,1-8.27-4l-31.75-40.82H458.9V780.7a10.47,10.47,0,0,1-20.93,0V735.85a10.46,10.46,0,0,1,10.46-10.47h27.9a10.49,10.49,0,0,1,8.26,4l34.89,44.85a10.46,10.46,0,0,1-8.25,16.89Z"/><path class="a13d1af7-a022-484c-bded-8fb3914ebda1" d="M482.44,320.23h31.4A10.47,10.47,0,0,1,524.3,330.7v136a0,0,0,0,1,0,0H472a0,0,0,0,1,0,0v-136A10.47,10.47,0,0,1,482.44,320.23Z"/><path class="a13d1af7-a022-484c-bded-8fb3914ebda1" d="M754.53,320.23h31.4A10.47,10.47,0,0,1,796.4,330.7v136a0,0,0,0,1,0,0H744.07a0,0,0,0,1,0,0v-136A10.47,10.47,0,0,1,754.53,320.23Z"/><path class="a4b62804-52db-44a4-9266-5c15a8fdd854" d="M482.44,362.09h31.4a10.47,10.47,0,0,1,10.47,10.47v94.19a0,0,0,0,1,0,0H472a0,0,0,0,1,0,0V372.56A10.47,10.47,0,0,1,482.44,362.09Z"/><path class="a4b62804-52db-44a4-9266-5c15a8fdd854" d="M754.53,362.09h31.4a10.47,10.47,0,0,1,10.47,10.47v94.19a0,0,0,0,1,0,0H744.07a0,0,0,0,1,0,0V372.56A10.47,10.47,0,0,1,754.53,362.09Z"/><path class="ac38d8a0-172d-4d45-b3a2-5f96641f9fb9" d="M524.3,472H472a5.24,5.24,0,0,1-5.24-5.24v-136a15.72,15.72,0,0,1,15.7-15.7h31.4a15.71,15.71,0,0,1,15.69,15.7v136A5.24,5.24,0,0,1,524.3,472Zm-47.09-10.47h41.86V330.7a5.23,5.23,0,0,0-5.23-5.23h-31.4a5.23,5.23,0,0,0-5.23,5.23Z"/><path class="ac38d8a0-172d-4d45-b3a2-5f96641f9fb9" d="M796.4,472H744.07a5.24,5.24,0,0,1-5.23-5.24v-136A15.71,15.71,0,0,1,754.53,315h31.4a15.71,15.71,0,0,1,15.7,15.7v136A5.24,5.24,0,0,1,796.4,472Zm-47.1-10.47h41.86V330.7a5.23,5.23,0,0,0-5.23-5.23h-31.4a5.23,5.23,0,0,0-5.23,5.23Z"/><path class="bd0648ba-84e0-4ab2-a4f6-43babd4bc246" d="M984.77,963.84H95.23a5.24,5.24,0,0,1,0-10.47H984.77a5.24,5.24,0,0,1,0,10.47Z"/><path class="ac38d8a0-172d-4d45-b3a2-5f96641f9fb9" d="M880.12,963.84h-450a5.24,5.24,0,1,1,0-10.47h450a5.24,5.24,0,0,1,0,10.47Z"/><path class="ac38d8a0-172d-4d45-b3a2-5f96641f9fb9" d="M398.72,963.84H199.88a5.24,5.24,0,0,1,0-10.47H398.72a5.24,5.24,0,0,1,0,10.47Z"/><circle class="bb35b11b-7578-46bb-94ee-d514642a378b" cx="288.84" cy="367.33" r="10.47"/></svg>