<svg id="a30b2517-2d68-4373-8cfe-73a00a4ec98e" data-name="Capa 1" xmlns="http://www.w3.org/2000/svg" xmlns:xlink="http://www.w3.org/1999/xlink" viewBox="0 0 1080 1080"><defs><style>.bf063c28-5b1e-480f-8c8e-c60db1832776{fill:none;}.ad5c8429-be0d-4bf7-bfaf-46cff1842a33{fill:#f6f6f6;}.ae3e8f9e-9554-4d31-8834-dd71ff027259{fill:#282c3f;}.e71a60b7-533f-470f-a152-f2ea28506cd6{fill:#52576a;}.b8d4c8ea-1594-4c74-a88c-4e00eb276139{fill:#ededed;}.ff5da3a0-41b0-4374-81cd-16a25b684fa4{fill:#fff;}.b204c5c2-f6e7-4a3f-bce3-0c4c44dd00dd{clip-path:url(#a966c1ee-ef16-4f8d-9d14-cc481ab08b6a);}.b09ff4bd-57de-420b-9751-337b7aad5c01{fill:#a09cad;}.f5e4643d-8c7b-4291-9dfb-3aac64c0cabe{fill:#b8b5c6;}.b00e972b-fabe-4e74-819f-0135733a9746{fill:#34234d;}.b562fc3c-e374-45f0-87db-cb746e656fcc{fill:#e6e6e6;}.ac0cc3f5-f247-4e99-8465-6c04e7bcaf90{fill:#2caae6;}.a7c33159-5a0a-47c5-8151-cf843ad657b1{fill:#00b5f4;}.b5dcf029-3a67-4fc0-b759-8f248dfd6b83{fill:#2fc8f2;}.ba7e7b30-74ac-46bf-887c-4cc737ccc712{fill:#30354c;}.be1ef868-eb01-4595-8963-54d82b9413a4{fill:#989aa6;}</style><clipPath id="a966c1ee-ef16-4f8d-9d14-cc481ab08b6a"><circle class="bf063c28-5b1e-480f-8c8e-c60db1832776" cx="540" cy="540" r="209.3"/></clipPath></defs><title>ICONS S2R</title><path class="ad5c8429-be0d-4bf7-bfaf-46cff1842a33" d="M855.36,365.68c-34-62.3-24.25-172.13-84.5-209.07-58.41-35.8-149.74,22.62-223,21s-162-64-221.87-30.8c-61.8,34.25-56.84,144.4-93.49,205.14C197,410.82,96.85,456.36,95.25,530.2s96.46,123.74,129.39,184.12c34,62.3,24.25,172.13,84.5,209.07,58.41,35.8,149.74-22.62,223-21s162,64,221.87,30.8c61.8-34.25,56.84-144.4,93.49-205.14C883,669.18,983.15,623.64,984.75,549.8S888.29,426.06,855.36,365.68Z"/><circle class="ae3e8f9e-9554-4d31-8834-dd71ff027259" cx="540" cy="540" r="313.95"/><path class="e71a60b7-533f-470f-a152-f2ea28506cd6" d="M560.93,247a312.82,312.82,0,0,1,211.29,81.74A313.14,313.14,0,0,0,540,226.05c-173.39,0-313.95,140.56-313.95,314A313.14,313.14,0,0,0,328.72,772.22,312.82,312.82,0,0,1,247,560.93C247,387.54,387.54,247,560.93,247Z"/><circle class="b8d4c8ea-1594-4c74-a88c-4e00eb276139" cx="540" cy="540" r="261.63"/><path class="ff5da3a0-41b0-4374-81cd-16a25b684fa4" d="M560.93,299.3a260.63,260.63,0,0,1,174.21,66.49A260.94,260.94,0,0,0,540,278.37c-144.49,0-261.63,117.14-261.63,261.63a260.94,260.94,0,0,0,87.42,195.14A260.63,260.63,0,0,1,299.3,560.93C299.3,416.44,416.44,299.3,560.93,299.3Z"/><path class="ae3e8f9e-9554-4d31-8834-dd71ff027259" d="M540,806.86c-147.15,0-266.86-119.71-266.86-266.86S392.85,273.14,540,273.14,806.86,392.85,806.86,540a5.23,5.23,0,0,1-10.46,0c0-141.38-115-256.4-256.4-256.4S283.6,398.62,283.6,540s115,256.4,256.4,256.4c129.75,0,239.18-97,254.57-225.63A5.23,5.23,0,0,1,805,572C789,705.9,675,806.86,540,806.86Z"/><path class="ae3e8f9e-9554-4d31-8834-dd71ff027259" d="M540,859.19A315.85,315.85,0,0,1,394.35,824.1a5.23,5.23,0,1,1,4.79-9.31A305.43,305.43,0,0,0,540,848.72c170.23,0,308.72-138.49,308.72-308.72S710.23,231.28,540,231.28,231.28,369.77,231.28,540a308.36,308.36,0,0,0,138,257.28,5.23,5.23,0,1,1-5.79,8.71,318.79,318.79,0,0,1-142.7-266C220.81,364,364,220.81,540,220.81S859.19,364,859.19,540,716,859.19,540,859.19Z"/><path class="b8d4c8ea-1594-4c74-a88c-4e00eb276139" d="M668.19,374.6a208.38,208.38,0,0,1,43.9,128.19c0,115.6-93.7,209.3-209.3,209.3a208.38,208.38,0,0,1-128.19-43.9A208.91,208.91,0,0,0,540,749.3c115.59,0,209.3-93.71,209.3-209.3A208.91,208.91,0,0,0,668.19,374.6Z"/><path class="ff5da3a0-41b0-4374-81cd-16a25b684fa4" d="M712.09,502.79a208.38,208.38,0,0,0-43.9-128.19A208.35,208.35,0,0,0,540,330.7c-115.59,0-209.3,93.71-209.3,209.3a208.35,208.35,0,0,0,43.9,128.19,208.38,208.38,0,0,0,128.19,43.9C618.39,712.09,712.09,618.39,712.09,502.79Z"/><g class="b204c5c2-f6e7-4a3f-bce3-0c4c44dd00dd"><path class="b09ff4bd-57de-420b-9751-337b7aad5c01" d="M346,641.34V830.87H573.34v-131A209.34,209.34,0,0,1,346,641.34Z"/><path class="f5e4643d-8c7b-4291-9dfb-3aac64c0cabe" d="M547.25,573.59,506.72,563H412.58l-40.51,10.64A35,35,0,0,0,346,607.42v33.92a209.34,209.34,0,0,0,227.37,58.53V607.43A35,35,0,0,0,547.25,573.59Z"/><path class="ae3e8f9e-9554-4d31-8834-dd71ff027259" d="M392.61,836.1a5.23,5.23,0,0,1-5.23-5.23V617.48a5.24,5.24,0,0,1,10.47,0V830.87A5.24,5.24,0,0,1,392.61,836.1Z"/><path class="b00e972b-fabe-4e74-819f-0135733a9746" d="M526.7,836.1a5.23,5.23,0,0,1-5.23-5.23V617.48a5.24,5.24,0,0,1,10.47,0V830.87A5.24,5.24,0,0,1,526.7,836.1Z"/><path class="ae3e8f9e-9554-4d31-8834-dd71ff027259" d="M573.34,836.1H346a5.23,5.23,0,0,1-5.23-5.23V607.42a40.24,40.24,0,0,1,30-38.89l40.51-10.64a5.39,5.39,0,0,1,1.33-.17h94.14a5.39,5.39,0,0,1,1.33.17l40.53,10.64a40.25,40.25,0,0,1,30,38.9V830.87A5.24,5.24,0,0,1,573.34,836.1ZM351.21,825.64h216.9V607.43a29.77,29.77,0,0,0-22.19-28.78l-39.87-10.47h-92.8L373.4,578.65h0a29.75,29.75,0,0,0-22.19,28.77Zm20.86-252h0Z"/><path class="b562fc3c-e374-45f0-87db-cb746e656fcc" d="M459.66,595.31S412.88,582,412.58,563A36.46,36.46,0,0,0,432,537.47c.31-1.63.55-12,.73-13.55l53.88,0c.2,1.8.49,12.42.86,14.35A35.09,35.09,0,0,0,506.73,563C506.3,581.9,459.66,595.31,459.66,595.31Z"/><path class="ae3e8f9e-9554-4d31-8834-dd71ff027259" d="M459.66,600.54a5.31,5.31,0,0,1-1.43-.2c-8.44-2.41-50.53-15.5-50.88-37.3a5.25,5.25,0,0,1,2.84-4.75,31.37,31.37,0,0,0,16.69-21.78c.12-.83.29-5.06.39-7.59s.2-4.9.28-5.6a5.23,5.23,0,0,1,5.2-4.63h0l53.88,0a5.24,5.24,0,0,1,5.2,4.63c.08.77.19,3,.31,5.61s.33,7.37.49,8.36A29.69,29.69,0,0,0,509,558.26a5.24,5.24,0,0,1,2.92,4.81c-.48,21.7-42.45,34.85-50.85,37.27A5.57,5.57,0,0,1,459.66,600.54Zm-41.25-34.9c3.82,9.4,25.09,19.38,41.24,24.21,16.08-4.85,37.25-14.81,41.2-24.17a39.74,39.74,0,0,1-18.49-26.38,94.8,94.8,0,0,1-.68-9.87,1.93,1.93,0,0,0,0-.24l-43.94,0c0,.06,0,.11,0,.17-.21,5.29-.33,7.91-.55,9.11A41.7,41.7,0,0,1,418.41,565.64Z"/><path class="ff5da3a0-41b0-4374-81cd-16a25b684fa4" d="M409,473.53c5.12-1.09,11.9,5.63,13.63,13.5s-1,15.14-6.12,16.22S405.13,499,403.4,491.16,403.87,474.61,409,473.53Z"/><path class="ff5da3a0-41b0-4374-81cd-16a25b684fa4" d="M510.33,473.53c-5.11-1.09-11.89,5.63-13.62,13.5s1,15.14,6.12,16.22,11.35-4.22,13.09-12.09S515.45,474.61,510.33,473.53Z"/><ellipse class="ff5da3a0-41b0-4374-81cd-16a25b684fa4" cx="459.66" cy="488.4" rx="47.98" ry="60.15"/><path class="ae3e8f9e-9554-4d31-8834-dd71ff027259" d="M459.66,553.78c-23.75,0-44.4-19.15-51-46.92-5-2.65-8.94-8.14-10.36-14.58-1.51-6.85-.59-14,2.41-18.64a11.34,11.34,0,0,1,7.19-5.23h0a9.22,9.22,0,0,1,1.19-.18c7-26.86,27.27-45.21,50.58-45.21s43.55,18.35,50.58,45.21a9.49,9.49,0,0,1,1.19.18,11.35,11.35,0,0,1,7.19,5.23c3,4.65,3.92,11.79,2.41,18.64-1.42,6.45-5.4,11.93-10.37,14.58C504.06,534.63,483.41,553.78,459.66,553.78Zm-49.58-75.14c-1.11.53-2.87,5.47-1.57,11.39,1,4.4,3.82,7.4,6,8a5.25,5.25,0,0,1,3.78,4c4.87,24.3,21.87,41.27,41.35,41.27s36.48-17,41.35-41.27a5.25,5.25,0,0,1,3.78-4c2.19-.58,5-3.58,6-8,1.31-5.95-.48-10.89-1.58-11.39a2.37,2.37,0,0,0-.89.25,5.23,5.23,0,0,1-7.26-3.78c-4.77-24.51-21.81-41.62-41.42-41.62S423,450.6,418.24,475.11a5.23,5.23,0,0,1-7.26,3.78A3,3,0,0,0,410.08,478.64Zm0,0Zm0,0ZM409,473.53h0Z"/><path class="ac0cc3f5-f247-4e99-8465-6c04e7bcaf90" d="M506.22,474.11s11.92-8.48,5.22-32.62c-7.14-25.74-30.37-21.77-30.37-21.77s-21.12-21.91-52.95-4.15-15,58.54-15,58.54,5.7-20.1,29.16-27.73c0,0,9.84,16.75,36.63,10.1C499.94,451.25,506.22,474.11,506.22,474.11Z"/><path class="ae3e8f9e-9554-4d31-8834-dd71ff027259" d="M413.1,479.34a5.24,5.24,0,0,1-4.84-3.23c-6.43-15.59-11.09-49.27,17.31-65.11,29.11-16.24,50.67-2.07,57.21,3.27,10.25-.71,27.61,3.83,33.71,25.82,7.58,27.36-6.63,37.85-7.24,38.28a5.22,5.22,0,0,1-8.07-2.86c-.53-1.86-5.56-17.83-21-13.95-22.4,5.56-34.61-3.53-39.64-9-17.78,7.36-22.34,22.77-22.39,22.94a5.22,5.22,0,0,1-4.73,3.79ZM485,450.45c10.6,0,17.79,6.3,22.07,13,1.39-4.25,2-10.85-.66-20.53-5.64-20.36-22.58-18.31-24.48-18a5.34,5.34,0,0,1-4.62-1.53c-.74-.76-18.89-18.7-46.63-3.22C413,430,412.54,448,414.62,460.05a51.14,51.14,0,0,1,26-18.65,5.23,5.23,0,0,1,6.12,2.33c.31.5,8.5,13.24,30.86,7.67A30.53,30.53,0,0,1,485,450.45Z"/><path class="a7c33159-5a0a-47c5-8151-cf843ad657b1" d="M717.93,591.67l-22.92-6A209.34,209.34,0,0,1,516.66,711.59V849H744V625.5A35,35,0,0,0,717.93,591.67Z"/><path class="b5dcf029-3a67-4fc0-b759-8f248dfd6b83" d="M695,585.65,677.42,581H583.28l-40.53,10.64a35,35,0,0,0-26.09,33.84v86.08A209.34,209.34,0,0,0,695,585.65Z"/><path class="ae3e8f9e-9554-4d31-8834-dd71ff027259" d="M697.39,854.18a5.23,5.23,0,0,1-5.23-5.23V635.56a5.23,5.23,0,0,1,10.46,0V849A5.23,5.23,0,0,1,697.39,854.18Z"/><path class="ae3e8f9e-9554-4d31-8834-dd71ff027259" d="M563.3,854.18a5.23,5.23,0,0,1-5.23-5.23V635.56a5.23,5.23,0,0,1,10.46,0V849A5.23,5.23,0,0,1,563.3,854.18Z"/><path class="ae3e8f9e-9554-4d31-8834-dd71ff027259" d="M744,854.18H516.66a5.23,5.23,0,0,1-5.23-5.23V625.51a40.23,40.23,0,0,1,30-38.9L582,576a5.39,5.39,0,0,1,1.33-.17h94.14a5.39,5.39,0,0,1,1.33.17l40.51,10.64h0a40.23,40.23,0,0,1,30,38.89V849A5.23,5.23,0,0,1,744,854.18ZM521.89,843.72H738.8V625.5a29.77,29.77,0,0,0-22.2-28.77l-39.85-10.46H584l-39.87,10.47a29.77,29.77,0,0,0-22.19,28.77Z"/><path class="b562fc3c-e374-45f0-87db-cb746e656fcc" d="M630.34,613.39s46.78-13.33,47.08-32.36A36.47,36.47,0,0,1,658,555.56c-.31-1.64-.55-12-.73-13.55l-53.87,0c-.21,1.79-.49,12.41-.87,14.34A35.07,35.07,0,0,1,583.28,581C583.69,600,630.34,613.39,630.34,613.39Z"/><path class="ae3e8f9e-9554-4d31-8834-dd71ff027259" d="M630.34,618.62a5.44,5.44,0,0,1-1.44-.2c-8.41-2.42-50.37-15.57-50.86-37.27a5.24,5.24,0,0,1,2.93-4.81,29.7,29.7,0,0,0,16.4-21c.16-1,.38-5.73.49-8.3s.23-4.88.32-5.65a5.24,5.24,0,0,1,5.19-4.63l53.88,0h0a5.24,5.24,0,0,1,5.2,4.64c.08.7.18,3,.29,5.56s.26,6.8.39,7.69a31.39,31.39,0,0,0,16.68,21.72,5.23,5.23,0,0,1,2.85,4.74c-.35,21.8-42.45,34.9-50.88,37.3A5.38,5.38,0,0,1,630.34,618.62Zm-41.19-34.86c4,9.38,25.12,19.33,41.2,24.18,16.16-4.84,37.42-14.82,41.24-24.22a41.74,41.74,0,0,1-18.76-27.2c-.22-1.21-.34-3.83-.55-9.13a.76.76,0,0,0,0-.15l-43.94,0c0,.09,0,.19,0,.28a92.69,92.69,0,0,1-.67,9.83A39.76,39.76,0,0,1,589.15,583.76Z"/><path class="ff5da3a0-41b0-4374-81cd-16a25b684fa4" d="M681,491.61c-5.12-1.09-11.9,5.64-13.63,13.5s1,15.14,6.12,16.23,11.36-4.23,13.09-12.1S686.13,492.7,681,491.61Z"/><path class="ff5da3a0-41b0-4374-81cd-16a25b684fa4" d="M579.67,491.61c5.11-1.09,11.89,5.64,13.62,13.5s-1,15.14-6.12,16.23-11.35-4.23-13.09-12.1S574.55,492.7,579.67,491.61Z"/><path class="ff5da3a0-41b0-4374-81cd-16a25b684fa4" d="M630.34,446.34c-26.49,0-48,26.92-48,60.14s21.49,60.15,48,60.15,48-26.93,48-60.15S656.84,446.34,630.34,446.34Z"/><path class="ae3e8f9e-9554-4d31-8834-dd71ff027259" d="M630.34,571.86c-23.74,0-44.39-19.15-51-46.92-5-2.65-9-8.13-10.36-14.58-1.51-6.85-.59-14,2.4-18.64a11.38,11.38,0,0,1,7.2-5.23,11.58,11.58,0,0,1,1.18-.18c7-26.86,27.28-45.2,50.58-45.2s43.55,18.34,50.59,45.2a9.18,9.18,0,0,1,1.17.18h0a11.34,11.34,0,0,1,7.19,5.23c3,4.65,3.92,11.79,2.41,18.65-1.42,6.44-5.4,11.92-10.36,14.57C674.74,552.71,654.09,571.86,630.34,571.86Zm-49.57-75.13h0c-1.08.48-2.87,5.43-1.55,11.38,1,4.41,3.82,7.4,6,8a5.22,5.22,0,0,1,3.78,4c4.87,24.3,21.87,41.27,41.35,41.27s36.49-17,41.35-41.27a5.22,5.22,0,0,1,3.78-4c2.2-.59,5-3.58,6-8,1.31-5.93-.46-10.86-1.57-11.39a2.41,2.41,0,0,0-.89.24,5.22,5.22,0,0,1-7.26-3.77C667,468.69,650,451.57,630.34,451.57s-36.65,17.12-41.42,41.62a5.22,5.22,0,0,1-7.26,3.78A2.22,2.22,0,0,0,580.77,496.73Z"/><path class="ba7e7b30-74ac-46bf-887c-4cc737ccc712" d="M583.78,492.19s-11.91-8.48-5.22-32.62c7.14-25.74,30.38-21.76,30.38-21.76s21.11-21.92,52.95-4.16,15,58.54,15,58.54-13.6-21.6-45.4-21.6C601.66,470.59,583.78,492.19,583.78,492.19Z"/><path class="ae3e8f9e-9554-4d31-8834-dd71ff027259" d="M676.9,497.43a5.25,5.25,0,0,1-4.43-2.45c-.49-.76-12.66-19.15-41-19.15-26.89,0-43.53,19.51-43.69,19.71a5.27,5.27,0,0,1-7.06.92c-.61-.44-14.82-10.93-7.23-38.29,6.09-22,23.41-26.53,33.71-25.82,6.53-5.34,28.09-19.52,57.21-3.27,28.39,15.84,23.73,49.52,17.3,65.11a5.24,5.24,0,0,1-4.39,3.22Zm-71.68-54.66c-5.53,0-17.13,2-21.62,18.2-3.38,12.2-1.5,19.5.54,23.39,7.42-6.84,23.91-19,47.36-19,21.74,0,35.69,9.27,43.15,16.3,2.67-11.76,4.08-32.62-15.31-43.44-27.75-15.48-45.9,2.46-46.65,3.24a5.33,5.33,0,0,1-4.64,1.51A17.38,17.38,0,0,0,605.22,442.77Z"/></g><path class="ae3e8f9e-9554-4d31-8834-dd71ff027259" d="M540,754.53c-118.29,0-214.53-96.24-214.53-214.53a215.12,215.12,0,0,1,47-134.09,5.24,5.24,0,0,1,8.17,6.55A201.84,201.84,0,0,0,335.93,540c0,112.53,91.54,204.07,204.07,204.07S744.07,652.53,744.07,540,652.53,335.93,540,335.93a203.87,203.87,0,0,0-134.78,50.84,5.23,5.23,0,1,1-6.92-7.85A214.32,214.32,0,0,1,540,325.47c118.29,0,214.53,96.24,214.53,214.53S658.29,754.53,540,754.53Z"/><path class="ae3e8f9e-9554-4d31-8834-dd71ff027259" d="M880.12,545.23H775.47a5.23,5.23,0,1,1,0-10.46H880.12a5.23,5.23,0,0,1,0,10.46Z"/><path class="ae3e8f9e-9554-4d31-8834-dd71ff027259" d="M304.53,545.23H199.88a5.23,5.23,0,1,1,0-10.46H304.53a5.23,5.23,0,1,1,0,10.46Z"/><path class="ae3e8f9e-9554-4d31-8834-dd71ff027259" d="M540,885.35a5.23,5.23,0,0,1-5.23-5.23V775.47a5.23,5.23,0,1,1,10.46,0V880.12A5.23,5.23,0,0,1,540,885.35Z"/><path class="ae3e8f9e-9554-4d31-8834-dd71ff027259" d="M540,309.77a5.24,5.24,0,0,1-5.23-5.24V199.88a5.23,5.23,0,0,1,10.46,0V304.53A5.24,5.24,0,0,1,540,309.77Z"/><circle class="ff5da3a0-41b0-4374-81cd-16a25b684fa4" cx="147.56" cy="796.4" r="36.63"/><path class="be1ef868-eb01-4595-8963-54d82b9413a4" d="M147.56,838.26a41.87,41.87,0,1,1,41.86-41.86A41.91,41.91,0,0,1,147.56,838.26Zm0-73.26A31.4,31.4,0,1,0,179,796.4,31.43,31.43,0,0,0,147.56,765Z"/><path class="be1ef868-eb01-4595-8963-54d82b9413a4" d="M126.63,801.63H95.23a5.24,5.24,0,0,1,0-10.47h31.4a5.24,5.24,0,0,1,0,10.47Z"/><path class="be1ef868-eb01-4595-8963-54d82b9413a4" d="M199.88,801.63H168.49a5.24,5.24,0,0,1,0-10.47h31.39a5.24,5.24,0,1,1,0,10.47Z"/><path class="be1ef868-eb01-4595-8963-54d82b9413a4" d="M147.56,854a5.23,5.23,0,0,1-5.23-5.23V817.33a5.23,5.23,0,1,1,10.46,0v31.39A5.23,5.23,0,0,1,147.56,854Z"/><path class="be1ef868-eb01-4595-8963-54d82b9413a4" d="M147.56,780.7a5.23,5.23,0,0,1-5.23-5.23v-31.4a5.23,5.23,0,0,1,10.46,0v31.4A5.23,5.23,0,0,1,147.56,780.7Z"/><circle class="ff5da3a0-41b0-4374-81cd-16a25b684fa4" cx="330.7" cy="189.42" r="52.33"/><path class="be1ef868-eb01-4595-8963-54d82b9413a4" d="M330.7,247a57.56,57.56,0,1,1,57.56-57.56A57.62,57.62,0,0,1,330.7,247Zm0-104.65a47.09,47.09,0,1,0,47.09,47.09A47.15,47.15,0,0,0,330.7,142.33Z"/><circle class="ff5da3a0-41b0-4374-81cd-16a25b684fa4" cx="330.7" cy="189.42" r="20.93"/><path class="be1ef868-eb01-4595-8963-54d82b9413a4" d="M330.7,215.58a26.16,26.16,0,1,1,26.16-26.16A26.2,26.2,0,0,1,330.7,215.58Zm0-41.86a15.7,15.7,0,1,0,15.7,15.7A15.71,15.71,0,0,0,330.7,173.72Z"/><path class="be1ef868-eb01-4595-8963-54d82b9413a4" d="M309.77,194.65h-47.1a5.23,5.23,0,0,1,0-10.46h47.1a5.23,5.23,0,1,1,0,10.46Z"/><path class="be1ef868-eb01-4595-8963-54d82b9413a4" d="M398.72,194.65H351.63a5.23,5.23,0,0,1,0-10.46h47.09a5.23,5.23,0,0,1,0,10.46Z"/><path class="be1ef868-eb01-4595-8963-54d82b9413a4" d="M330.7,262.67a5.23,5.23,0,0,1-5.23-5.23V210.35a5.23,5.23,0,0,1,10.46,0v47.09A5.23,5.23,0,0,1,330.7,262.67Z"/><path class="be1ef868-eb01-4595-8963-54d82b9413a4" d="M330.7,173.72a5.23,5.23,0,0,1-5.23-5.23V121.4a5.23,5.23,0,1,1,10.46,0v47.09A5.23,5.23,0,0,1,330.7,173.72Z"/><circle class="ff5da3a0-41b0-4374-81cd-16a25b684fa4" cx="791.16" cy="890.58" r="52.33"/><path class="be1ef868-eb01-4595-8963-54d82b9413a4" d="M791.16,948.14a57.56,57.56,0,1,1,57.56-57.56A57.63,57.63,0,0,1,791.16,948.14Zm0-104.65a47.09,47.09,0,1,0,47.1,47.09A47.15,47.15,0,0,0,791.16,843.49Z"/><circle class="ff5da3a0-41b0-4374-81cd-16a25b684fa4" cx="791.16" cy="890.58" r="20.93"/><path class="be1ef868-eb01-4595-8963-54d82b9413a4" d="M791.16,916.74a26.16,26.16,0,1,1,26.17-26.16A26.19,26.19,0,0,1,791.16,916.74Zm0-41.86a15.7,15.7,0,1,0,15.7,15.7A15.72,15.72,0,0,0,791.16,874.88Z"/><path class="be1ef868-eb01-4595-8963-54d82b9413a4" d="M770.23,895.81H723.14a5.23,5.23,0,0,1,0-10.46h47.09a5.23,5.23,0,1,1,0,10.46Z"/><path class="be1ef868-eb01-4595-8963-54d82b9413a4" d="M859.19,895.81h-47.1a5.23,5.23,0,0,1,0-10.46h47.1a5.23,5.23,0,0,1,0,10.46Z"/><path class="be1ef868-eb01-4595-8963-54d82b9413a4" d="M791.16,963.84a5.24,5.24,0,0,1-5.23-5.24V911.51a5.24,5.24,0,0,1,10.47,0V958.6A5.25,5.25,0,0,1,791.16,963.84Z"/><path class="be1ef868-eb01-4595-8963-54d82b9413a4" d="M791.16,874.88a5.23,5.23,0,0,1-5.23-5.23V822.56a5.24,5.24,0,0,1,10.47,0v47.09A5.24,5.24,0,0,1,791.16,874.88Z"/><circle class="ff5da3a0-41b0-4374-81cd-16a25b684fa4" cx="859.19" cy="267.91" r="52.33"/><path class="be1ef868-eb01-4595-8963-54d82b9413a4" d="M859.19,325.47a57.56,57.56,0,1,1,57.55-57.56A57.63,57.63,0,0,1,859.19,325.47Zm0-104.66a47.1,47.1,0,1,0,47.09,47.1A47.15,47.15,0,0,0,859.19,220.81Z"/><circle class="ff5da3a0-41b0-4374-81cd-16a25b684fa4" cx="859.19" cy="267.91" r="20.93"/><path class="b09ff4bd-57de-420b-9751-337b7aad5c01" d="M859.19,294.07a26.17,26.17,0,1,1,26.16-26.16A26.2,26.2,0,0,1,859.19,294.07Zm0-41.86a15.7,15.7,0,1,0,15.69,15.7A15.71,15.71,0,0,0,859.19,252.21Z"/><path class="be1ef868-eb01-4595-8963-54d82b9413a4" d="M838.26,273.14h-47.1a5.24,5.24,0,0,1,0-10.47h47.1a5.24,5.24,0,0,1,0,10.47Z"/><path class="be1ef868-eb01-4595-8963-54d82b9413a4" d="M927.21,273.14H880.12a5.24,5.24,0,1,1,0-10.47h47.09a5.24,5.24,0,0,1,0,10.47Z"/><path class="be1ef868-eb01-4595-8963-54d82b9413a4" d="M859.19,341.16a5.24,5.24,0,0,1-5.24-5.23V288.84a5.24,5.24,0,1,1,10.47,0v47.09A5.23,5.23,0,0,1,859.19,341.16Z"/><path class="be1ef868-eb01-4595-8963-54d82b9413a4" d="M859.19,252.21A5.24,5.24,0,0,1,854,247v-47.1a5.24,5.24,0,0,1,10.47,0V247A5.23,5.23,0,0,1,859.19,252.21Z"/><circle class="ff5da3a0-41b0-4374-81cd-16a25b684fa4" cx="194.65" cy="356.86" r="36.63"/><path class="be1ef868-eb01-4595-8963-54d82b9413a4" d="M194.65,398.72a41.86,41.86,0,1,1,41.86-41.86A41.91,41.91,0,0,1,194.65,398.72Zm0-73.25a31.4,31.4,0,1,0,31.4,31.39A31.42,31.42,0,0,0,194.65,325.47Z"/><path class="be1ef868-eb01-4595-8963-54d82b9413a4" d="M173.72,362.09H142.33a5.23,5.23,0,1,1,0-10.46h31.39a5.23,5.23,0,0,1,0,10.46Z"/><path class="be1ef868-eb01-4595-8963-54d82b9413a4" d="M247,362.09h-31.4a5.23,5.23,0,0,1,0-10.46H247a5.23,5.23,0,0,1,0,10.46Z"/><path class="be1ef868-eb01-4595-8963-54d82b9413a4" d="M194.65,414.42a5.23,5.23,0,0,1-5.23-5.23v-31.4a5.23,5.23,0,1,1,10.46,0v31.4A5.23,5.23,0,0,1,194.65,414.42Z"/><path class="be1ef868-eb01-4595-8963-54d82b9413a4" d="M194.65,341.16a5.23,5.23,0,0,1-5.23-5.23v-31.4a5.23,5.23,0,0,1,10.46,0v31.4A5.23,5.23,0,0,1,194.65,341.16Z"/><circle class="ff5da3a0-41b0-4374-81cd-16a25b684fa4" cx="932.44" cy="623.72" r="36.63"/><path class="be1ef868-eb01-4595-8963-54d82b9413a4" d="M932.44,665.58a41.86,41.86,0,1,1,41.86-41.86A41.91,41.91,0,0,1,932.44,665.58Zm0-73.25a31.4,31.4,0,1,0,31.4,31.39A31.42,31.42,0,0,0,932.44,592.33Z"/><path class="be1ef868-eb01-4595-8963-54d82b9413a4" d="M911.51,629H880.12a5.23,5.23,0,1,1,0-10.46h31.39a5.23,5.23,0,0,1,0,10.46Z"/><path class="be1ef868-eb01-4595-8963-54d82b9413a4" d="M984.77,629h-31.4a5.23,5.23,0,0,1,0-10.46h31.4a5.23,5.23,0,0,1,0,10.46Z"/><path class="be1ef868-eb01-4595-8963-54d82b9413a4" d="M932.44,681.28a5.23,5.23,0,0,1-5.23-5.23v-31.4a5.23,5.23,0,1,1,10.46,0v31.4A5.23,5.23,0,0,1,932.44,681.28Z"/><path class="be1ef868-eb01-4595-8963-54d82b9413a4" d="M932.44,608a5.23,5.23,0,0,1-5.23-5.23V571.4a5.23,5.23,0,1,1,10.46,0v31.39A5.23,5.23,0,0,1,932.44,608Z"/></svg>