<svg id="a25fda57-d778-4000-a3c1-8eb7c067d261" data-name="Capa 1" xmlns="http://www.w3.org/2000/svg" viewBox="0 0 1080 1080"><defs><style>.a16b2cfe-f36e-4e24-9ba9-4072b52faac7{fill:#f6f6f6;}.f7a78834-3a07-4b48-a2dc-330deaf8437c{fill:#2fc8f2;}.bbdeb302-8835-44d9-9b41-c740b14feea1{fill:#2caae6;}.a54da718-5985-4ce9-b51c-6b91ec608ea4{fill:#fff;}.b63785e0-fbb7-4d1e-8c4a-d7b72c5c25b6{fill:#f7f7f7;}.ab86a7ac-5582-4946-87e7-03c20958bfac{fill:#282c3f;}.bb818546-8738-4e52-87a3-2a093e06b06e{fill:#989aa6;}.afb7b3fb-f2cb-4d9f-892e-46ff5aa40104{fill:#30354c;}.fa644b7b-de77-450a-bdd0-99b493b71987{fill:#ededed;}.f4bac00a-d3fe-4a89-a895-4b2d342bb15c{fill:#b8b5c6;}.a0ab7ead-a0ce-40cb-9a89-9696aac82974{fill:#a09cad;}</style></defs><title>ICONS S2R</title><path class="a16b2cfe-f36e-4e24-9ba9-4072b52faac7" d="M879.44,594.94c10.56-64.16,83.15-139.68,58.33-204.86s-129.5-73.88-180.15-115c-52.26-42.39-82.66-142-149.21-152.79-64.5-10.52-124.71,73.14-190.23,97.84s-166.34,1.72-207.65,52.12c-42.61,52,.93,146.59-10,212.78C190,549.22,117.41,624.74,142.23,689.92s129.5,73.89,180.15,115c52.26,42.39,82.66,142,149.21,152.79,64.5,10.52,124.71-73.14,190.23-97.83s166.34-1.73,207.65-52.13C912.08,755.75,868.54,661.14,879.44,594.94Z"/><path class="f7a78834-3a07-4b48-a2dc-330deaf8437c" d="M808.52,489.65l71.6-41.22-34.87-84.17-79.78,21.47a271.2,271.2,0,0,0-71.16-71.34l21.44-79.64-84.18-34.87-41.15,71.47a271.59,271.59,0,0,0-100.77.13l-41.23-71.6-84.16,34.87,21.47,79.78a271.2,271.2,0,0,0-71.34,71.16l-79.64-21.43-34.86,84.17,71.46,41.15a271.59,271.59,0,0,0,.13,100.77l-71.6,41.23,34.87,84.17,79.77-21.48a271.54,271.54,0,0,0,71.17,71.34l-21.44,79.64,84.18,34.86,41.15-71.47a271.38,271.38,0,0,0,100.77-.12l41.23,71.6,84.17-34.87-21.48-79.77a271.39,271.39,0,0,0,71.34-71.17l79.64,21.44,34.86-84.18-71.46-41.15A271.59,271.59,0,0,0,808.52,489.65Z"/><path class="bbdeb302-8835-44d9-9b41-c740b14feea1" d="M808.52,489.65l71.6-41.22-34.87-84.17c-122.45,295.41-371.89,349.57-511,355.41a269.72,269.72,0,0,0,51.48,45.94l-21.44,79.64,84.18,34.86,41.15-71.47a271.38,271.38,0,0,0,100.77-.12l41.23,71.6,84.17-34.87-21.48-79.77a271.39,271.39,0,0,0,71.34-71.17l79.64,21.44,34.86-84.18-71.46-41.15A271.59,271.59,0,0,0,808.52,489.65Z"/><path class="a54da718-5985-4ce9-b51c-6b91ec608ea4" d="M743.86,531.69c-4.37-108.85-94-195.76-203.86-195.76-112.7,0-204.07,91.37-204.07,204.07a203.89,203.89,0,0,0,90.19,169.36C525.87,691,646.91,644,743.86,531.69Z"/><path class="b63785e0-fbb7-4d1e-8c4a-d7b72c5c25b6" d="M744.07,540c0-2.79-.1-5.55-.21-8.31C646.91,644,525.87,691,426.12,709.36A203.17,203.17,0,0,0,540,744.07C652.7,744.07,744.07,652.7,744.07,540Z"/><path class="ab86a7ac-5582-4946-87e7-03c20958bfac" d="M267.14,560.27a5.24,5.24,0,0,1-5.22-4.93,275.45,275.45,0,0,1,3.63-63.07L197.28,453a5.23,5.23,0,0,1-2.23-6.53l34.87-84.18a5.22,5.22,0,0,1,6.19-3.05l76.07,20.48a276.16,276.16,0,0,1,67.54-67.36L359.2,236.11a5.23,5.23,0,0,1,3.05-6.19l84.17-34.87a5.23,5.23,0,0,1,6.54,2.22l39.38,68.4a275.83,275.83,0,0,1,95.39-.12L627,197.28a5.23,5.23,0,0,1,6.54-2.22l84.18,34.86a5.23,5.23,0,0,1,3,6.19l-20.48,76.08c5.85,4.11,11.58,8.48,17.07,13a5.23,5.23,0,0,1-6.67,8.06c-6.2-5.12-12.71-10-19.36-14.56a5.23,5.23,0,0,1-2.1-5.68l20.24-75.2-75.69-31.35L595,274a5.25,5.25,0,0,1-5.5,2.53,265.74,265.74,0,0,0-98.83.12,5.24,5.24,0,0,1-5.51-2.53l-38.93-67.61L370.5,237.83l20.29,75.34a5.25,5.25,0,0,1-2.11,5.68,265.41,265.41,0,0,0-70,69.79,5.23,5.23,0,0,1-5.68,2.1l-75.2-20.24-31.35,75.69L274,485.05a5.22,5.22,0,0,1,2.52,5.5,265.14,265.14,0,0,0-4.12,64.19,5.23,5.23,0,0,1-4.92,5.52Z"/><path class="ab86a7ac-5582-4946-87e7-03c20958bfac" d="M631.58,885.35a5.25,5.25,0,0,1-4.54-2.62l-9.23-16a5.23,5.23,0,1,1,9.07-5.22l6.94,12,75.68-31.35-20.29-75.34a5.25,5.25,0,0,1,2.11-5.68,265.41,265.41,0,0,0,70-69.79,5.19,5.19,0,0,1,5.68-2.1l75.2,20.24,31.35-75.69L806,595a5.22,5.22,0,0,1-2.52-5.5,266,266,0,0,0-.13-98.83,5.24,5.24,0,0,1,2.53-5.51l67.61-38.93L842.18,370.5l-75.35,20.29a5.27,5.27,0,0,1-5.68-2.11,270.18,270.18,0,0,0-26.89-33.39,5.23,5.23,0,1,1,7.6-7.19,281.15,281.15,0,0,1,25.82,31.62l76.21-20.52a5.24,5.24,0,0,1,6.2,3.05L885,446.42a5.24,5.24,0,0,1-2.22,6.54l-68.4,39.38a275.83,275.83,0,0,1,.12,95.39L882.72,627a5.23,5.23,0,0,1,2.23,6.53l-34.87,84.18a5.24,5.24,0,0,1-6.19,3l-76.07-20.48a276.16,276.16,0,0,1-67.54,67.36l20.52,76.21a5.22,5.22,0,0,1-3,6.19L633.58,885A5.21,5.21,0,0,1,631.58,885.35Z"/><path class="ab86a7ac-5582-4946-87e7-03c20958bfac" d="M448.43,885.34a5.2,5.2,0,0,1-2-.39l-84.18-34.87a5.23,5.23,0,0,1-3.05-6.19l20.48-76.07a276,276,0,0,1-67.36-67.54L236.11,720.8a5.23,5.23,0,0,1-6.19-3l-34.87-84.17a5.24,5.24,0,0,1,2.22-6.54l71.6-41.22a5.23,5.23,0,1,1,5.22,9.06l-67.61,38.94,31.35,75.68,75.33-20.29a5.25,5.25,0,0,1,5.68,2.11,265.75,265.75,0,0,0,69.8,70,5.23,5.23,0,0,1,2.1,5.68l-20.24,75.2,75.69,31.35L485.05,806a5.25,5.25,0,0,1,5.5-2.53,265.53,265.53,0,0,0,98.83-.12,5.25,5.25,0,0,1,5.51,2.53l14.21,24.68a5.23,5.23,0,0,1-9.07,5.22l-12.37-21.48a275.83,275.83,0,0,1-95.39.12L453,882.72A5.24,5.24,0,0,1,448.43,885.34Z"/><polygon class="bb818546-8738-4e52-87a3-2a093e06b06e" points="676.05 644.65 403.95 644.65 403.95 463.25 540 372.56 676.05 463.25 676.05 644.65"/><polygon class="afb7b3fb-f2cb-4d9f-892e-46ff5aa40104" points="676.05 644.65 424.88 644.65 435.35 478.95 540 398.72 676.05 463.25 676.05 644.65"/><path class="ab86a7ac-5582-4946-87e7-03c20958bfac" d="M676.05,649.88H404a5.23,5.23,0,0,1-5.23-5.23V463.25a5.25,5.25,0,0,1,2.33-4.35L537.1,368.21a5.19,5.19,0,0,1,5.8,0L679,458.9a5.23,5.23,0,0,1,2.33,4.35v181.4A5.23,5.23,0,0,1,676.05,649.88ZM409.19,639.42H670.81V466.05L540,378.85l-130.81,87.2Z"/><path class="ab86a7ac-5582-4946-87e7-03c20958bfac" d="M697,482.44a5.19,5.19,0,0,1-2.9-.88L540,378.85,385.93,481.56a5.23,5.23,0,1,1-5.81-8.7l157-104.65a5.19,5.19,0,0,1,5.8,0l157,104.65a5.23,5.23,0,0,1-2.91,9.58Z"/><polygon class="fa644b7b-de77-450a-bdd0-99b493b71987" points="461.51 482.44 540 430.12 618.49 482.44 461.51 482.44"/><polygon class="a54da718-5985-4ce9-b51c-6b91ec608ea4" points="461.51 482.44 533.03 434.77 566.16 482.44 461.51 482.44"/><path class="ab86a7ac-5582-4946-87e7-03c20958bfac" d="M618.49,487.67h-157a5.23,5.23,0,0,1-2.9-9.58l78.49-52.33a5.23,5.23,0,0,1,5.8,0l78.49,52.33a5.23,5.23,0,0,1-2.9,9.58Zm-139.7-10.46H601.21L540,436.41Z"/><rect class="f4bac00a-d3fe-4a89-a895-4b2d342bb15c" x="461.51" y="513.84" width="62.79" height="130.81"/><polygon class="a0ab7ead-a0ce-40cb-9a89-9696aac82974" points="524.3 618.49 461.51 628.95 461.51 644.65 524.3 644.65 524.3 618.49"/><path class="ab86a7ac-5582-4946-87e7-03c20958bfac" d="M524.3,649.88H461.51a5.23,5.23,0,0,1-5.23-5.23V513.84a5.24,5.24,0,0,1,5.23-5.24H524.3a5.24,5.24,0,0,1,5.23,5.24V644.65A5.23,5.23,0,0,1,524.3,649.88Zm-57.56-10.46h52.33V519.07H466.74Z"/><rect class="fa644b7b-de77-450a-bdd0-99b493b71987" x="555.7" y="513.84" width="62.79" height="73.26"/><polygon class="a54da718-5985-4ce9-b51c-6b91ec608ea4" points="602.79 513.84 555.7 513.84 555.7 587.09 587.09 587.09 602.79 513.84"/><path class="ab86a7ac-5582-4946-87e7-03c20958bfac" d="M618.49,592.33H555.7a5.23,5.23,0,0,1-5.23-5.24V513.84a5.24,5.24,0,0,1,5.23-5.24h62.79a5.24,5.24,0,0,1,5.23,5.24v73.25A5.23,5.23,0,0,1,618.49,592.33Zm-57.56-10.47h52.33V519.07H560.93Z"/><circle class="ab86a7ac-5582-4946-87e7-03c20958bfac" cx="508.6" cy="576.63" r="5.23"/><path class="ab86a7ac-5582-4946-87e7-03c20958bfac" d="M691.74,649.88H388.26a5.23,5.23,0,1,1,0-10.46H691.74a5.23,5.23,0,1,1,0,10.46Z"/><path class="bb818546-8738-4e52-87a3-2a093e06b06e" d="M668.2,681.28H555.7a5.24,5.24,0,0,1,0-10.47H668.2a5.24,5.24,0,0,1,0,10.47Z"/><path class="bb818546-8738-4e52-87a3-2a093e06b06e" d="M524.3,681.28H411.8a5.24,5.24,0,0,1,0-10.47H524.3a5.24,5.24,0,0,1,0,10.47Z"/><path class="bb818546-8738-4e52-87a3-2a093e06b06e" d="M623.72,712.67H587.09a5.23,5.23,0,0,1,0-10.46h36.63a5.23,5.23,0,0,1,0,10.46Z"/><path class="bb818546-8738-4e52-87a3-2a093e06b06e" d="M555.7,712.67H456.28a5.23,5.23,0,0,1,0-10.46H555.7a5.23,5.23,0,0,1,0,10.46Z"/><polygon class="a54da718-5985-4ce9-b51c-6b91ec608ea4" points="772.25 121.16 785 147.01 813.52 151.15 792.88 171.27 797.75 199.67 772.25 186.26 746.75 199.67 751.62 171.27 730.99 151.15 759.5 147.01 772.25 121.16"/><path class="bb818546-8738-4e52-87a3-2a093e06b06e" d="M746.75,204.91a5.23,5.23,0,0,1-5.16-6.12l4.41-25.7L727.33,154.9a5.23,5.23,0,0,1,2.9-8.92l25.8-3.76,11.53-23.37c1.76-3.58,7.62-3.59,9.38,0l11.54,23.37L814.27,146a5.23,5.23,0,0,1,2.9,8.92l-18.66,18.19,4.4,25.7a5.22,5.22,0,0,1-7.59,5.51l-23.07-12.13L749.18,204.3A5.12,5.12,0,0,1,746.75,204.91ZM772.25,181a5.15,5.15,0,0,1,2.44.6l16.11,8.47-3.07-17.95a5.24,5.24,0,0,1,1.5-4.63l13-12.71-18-2.63a5.19,5.19,0,0,1-3.94-2.86L772.25,133l-8.06,16.33a5.19,5.19,0,0,1-3.93,2.86l-18,2.63,13,12.71a5.25,5.25,0,0,1,1.51,4.63L753.7,190.1l16.12-8.47A5.11,5.11,0,0,1,772.25,181Z"/><polygon class="a54da718-5985-4ce9-b51c-6b91ec608ea4" points="798.41 827.81 811.16 853.65 839.68 857.8 819.04 877.91 823.92 906.31 798.41 892.91 772.91 906.31 777.78 877.91 757.15 857.8 785.66 853.65 798.41 827.81"/><path class="bb818546-8738-4e52-87a3-2a093e06b06e" d="M772.91,911.55a5.17,5.17,0,0,1-3.07-1,5.26,5.26,0,0,1-2.09-5.12l4.41-25.69-18.66-18.2a5.23,5.23,0,0,1,2.9-8.93l25.79-3.75,11.53-23.37c1.76-3.58,7.62-3.58,9.38,0l11.54,23.37,25.79,3.75a5.23,5.23,0,0,1,2.9,8.93l-18.66,18.2,4.41,25.69a5.26,5.26,0,0,1-2.09,5.12,5.2,5.2,0,0,1-5.51.4l-23.07-12.13L775.35,911A5.27,5.27,0,0,1,772.91,911.55Zm25.5-23.88a5.24,5.24,0,0,1,2.44.6L817,896.75l-3.08-18a5.23,5.23,0,0,1,1.5-4.63l13-12.72-18-2.62a5.27,5.27,0,0,1-3.94-2.86l-8.06-16.33-8,16.33a5.27,5.27,0,0,1-3.94,2.86l-18,2.62,13,12.72a5.23,5.23,0,0,1,1.5,4.63l-3.08,18L796,888.27A5.23,5.23,0,0,1,798.41,887.67Z"/><polygon class="a54da718-5985-4ce9-b51c-6b91ec608ea4" points="942.91 456.14 955.84 482.36 984.77 486.56 963.84 506.96 968.78 535.78 942.91 522.18 917.03 535.78 921.98 506.96 901.05 486.56 929.97 482.36 942.91 456.14"/><path class="bb818546-8738-4e52-87a3-2a093e06b06e" d="M968.78,541a5.19,5.19,0,0,1-2.44-.61l-23.43-12.32-23.44,12.32a5.22,5.22,0,0,1-7.59-5.51l4.47-26.11-19-18.48a5.24,5.24,0,0,1,2.9-8.93l26.21-3.81,11.72-23.75c1.76-3.58,7.61-3.58,9.38,0l11.72,23.75,26.2,3.81a5.24,5.24,0,0,1,2.9,8.93l-19,18.48,4.48,26.11a5.24,5.24,0,0,1-5.16,6.12Zm-25.87-24.08a5.12,5.12,0,0,1,2.43.61l16.49,8.66-3.15-18.36a5.21,5.21,0,0,1,1.51-4.63l13.33-13-18.43-2.68a5.21,5.21,0,0,1-3.94-2.86L942.91,468l-8.25,16.7a5.21,5.21,0,0,1-3.94,2.86l-18.43,2.68,13.34,13a5.23,5.23,0,0,1,1.5,4.63L924,526.21l16.49-8.66A5.13,5.13,0,0,1,942.91,516.94Z"/><polygon class="a54da718-5985-4ce9-b51c-6b91ec608ea4" points="264.14 195.84 276.89 221.68 305.4 225.83 284.77 245.94 289.64 274.35 264.14 260.94 238.64 274.35 243.51 245.94 222.88 225.83 251.39 221.68 264.14 195.84"/><path class="bb818546-8738-4e52-87a3-2a093e06b06e" d="M289.64,279.58a5.23,5.23,0,0,1-2.43-.6l-23.07-12.13L241.07,279a5.23,5.23,0,0,1-7.59-5.52l4.4-25.69-18.65-18.2a5.23,5.23,0,0,1,2.89-8.92l25.79-3.75,11.54-23.38c1.76-3.57,7.62-3.57,9.38,0l11.54,23.38,25.79,3.75a5.23,5.23,0,0,1,2.9,8.92l-18.66,18.2,4.4,25.69a5.23,5.23,0,0,1-5.16,6.12Zm-25.5-23.87a5.22,5.22,0,0,1,2.43.59l16.12,8.48-3.08-18a5.29,5.29,0,0,1,1.51-4.63l13-12.71-18-2.62A5.23,5.23,0,0,1,272.2,224l-8.06-16.33L256.08,224a5.23,5.23,0,0,1-3.94,2.86l-18,2.62,13,12.71a5.29,5.29,0,0,1,1.51,4.63l-3.08,18,16.11-8.48A5.26,5.26,0,0,1,264.14,255.71Z"/><polygon class="a54da718-5985-4ce9-b51c-6b91ec608ea4" points="136.5 524.18 149.25 550.02 177.76 554.16 157.13 574.28 162 602.69 136.5 589.28 111 602.69 115.86 574.28 95.23 554.16 123.75 550.02 136.5 524.18"/><path class="bb818546-8738-4e52-87a3-2a093e06b06e" d="M111,607.92a5.23,5.23,0,0,1-5.15-6.12l4.4-25.69L91.58,557.92a5.24,5.24,0,0,1,2.9-8.93l25.79-3.75,11.53-23.37c1.77-3.59,7.62-3.59,9.39,0l11.53,23.37L178.51,549a5.23,5.23,0,0,1,2.9,8.93l-18.66,18.19,4.41,25.69a5.24,5.24,0,0,1-7.6,5.52L136.5,595.19l-23.07,12.13A5.27,5.27,0,0,1,111,607.92ZM136.5,584a5.12,5.12,0,0,1,2.43.61l16.12,8.47-3.08-18a5.22,5.22,0,0,1,1.51-4.63l13-12.72-18-2.62a5.23,5.23,0,0,1-3.93-2.86L136.5,536l-8.06,16.34a5.25,5.25,0,0,1-3.94,2.86l-18,2.62,13,12.72a5.24,5.24,0,0,1,1.5,4.63l-3.08,18,16.12-8.47A5.13,5.13,0,0,1,136.5,584Z"/><polygon class="a54da718-5985-4ce9-b51c-6b91ec608ea4" points="334.21 880.09 346.96 905.93 375.47 910.08 354.84 930.19 359.71 958.6 334.21 945.19 308.71 958.6 313.58 930.19 292.95 910.08 321.46 905.93 334.21 880.09"/><path class="bb818546-8738-4e52-87a3-2a093e06b06e" d="M359.71,963.83a5.23,5.23,0,0,1-2.43-.6L334.21,951.1l-23.07,12.13a5.23,5.23,0,0,1-7.59-5.51L308,932l-18.67-18.19a5.24,5.24,0,0,1,2.9-8.93L318,901.15l11.54-23.37c1.76-3.58,7.62-3.58,9.38,0l11.54,23.37,25.79,3.75a5.24,5.24,0,0,1,2.9,8.93L360.47,932l4.4,25.7a5.23,5.23,0,0,1-5.16,6.11Zm-55.52-50.1,13,12.72a5.25,5.25,0,0,1,1.51,4.63L315.66,949l16.12-8.47a5.18,5.18,0,0,1,4.87,0L352.76,949l-3.08-17.95a5.28,5.28,0,0,1,1.51-4.63l13-12.72-18-2.62a5.23,5.23,0,0,1-3.94-2.86l-8.06-16.33-8.06,16.33a5.21,5.21,0,0,1-3.94,2.86Z"/></svg>