<svg id="b197b07e-aca1-4292-a249-8ff36186ce0d" data-name="Capa 1" xmlns="http://www.w3.org/2000/svg" viewBox="0 0 1080 1080"><defs><style>.f1272643-4f80-4c0e-a3ac-dbbe4baccac7{fill:#f6f6f6;}.ba58384f-0da6-462b-ac64-0d2764983b88{fill:#fff;}.bb8c9768-5d42-40ab-ab74-a14457e0d348{fill:#989aa6;}.a4dc1720-b474-47ec-9bf6-b3ce8c1f7987{fill:#f7f7f7;}.ec6520cc-63ef-4137-b444-0a86b0e7ee20{fill:#b8b5c6;}.aba58d6a-043a-4d24-8ba0-3aff1a95f4c4{fill:#282c3f;}.a2fe0bba-9c7b-4cd5-9c85-3dd1302ac50c{fill:#52576a;}.a1ac0278-65c9-4b78-9247-d188856690e4{fill:#30354c;}.f1efbd65-ff09-4d09-bf22-5f5b62ed9c1f{fill:#2caae6;}.eaca6dcb-6c77-4cc2-89f8-72405b8a093c{fill:#2fc8f2;}</style></defs><title>ICONS S2R</title><path class="f1272643-4f80-4c0e-a3ac-dbbe4baccac7" d="M961.65,437.44c-16.93-69.3-121.81-91.23-167.92-139.3C746.15,248.55,727.9,143.63,661.89,124.3,597.9,105.56,526.41,183,457,199.9s-168.63-19-216.8,27c-49.69,47.48-17.52,149-36.88,214.89C184.5,505.62,101.5,573.26,118.43,642.56s121.81,91.23,167.92,139.3c47.57,49.59,65.82,154.51,131.83,173.84,64,18.74,135.49-58.71,204.93-75.6s168.64,19,216.81-27c49.69-47.48,5.3-140.63,29.21-216C892.42,563.72,978.58,506.74,961.65,437.44Z"/><path class="ba58384f-0da6-462b-ac64-0d2764983b88" d="M559.94,182.64a21.85,21.85,0,0,0-33.71-26.94,39.39,39.39,0,1,0-77.77,12.36,32.7,32.7,0,0,0-6.83-.74,33.21,33.21,0,1,0,0,66.42H555a25.78,25.78,0,0,0,4.9-51.1Z"/><path class="bb8c9768-5d42-40ab-ab74-a14457e0d348" d="M555,239H441.63a38.44,38.44,0,0,1,0-76.88h.92c0-.43,0-.86,0-1.29a44.63,44.63,0,0,1,87.15-13.58A27.08,27.08,0,0,1,568,171.88a26.62,26.62,0,0,1-1,7.43A31,31,0,0,1,555,239ZM441.63,172.56a28,28,0,1,0,0,55.94H555A20.54,20.54,0,0,0,559,187.78a5.26,5.26,0,0,1-3.76-2.95,5.19,5.19,0,0,1,.2-4.77,16.62,16.62,0,0,0-25.65-20.48,5.23,5.23,0,0,1-8.7-3.2,34.16,34.16,0,1,0-67.44,10.73,5.23,5.23,0,0,1-6.24,6.06A28.27,28.27,0,0,0,441.63,172.56Z"/><path class="ba58384f-0da6-462b-ac64-0d2764983b88" d="M765.38,275.45a18.77,18.77,0,0,1,29-23.14,33.84,33.84,0,1,1,66.82,10.61A28.53,28.53,0,1,1,867,319.36H769.58a22.15,22.15,0,0,1-4.2-43.91Z"/><path class="bb8c9768-5d42-40ab-ab74-a14457e0d348" d="M867,324.59H769.58a27.39,27.39,0,0,1-11.12-52.43A24,24,0,0,1,790.93,244,39.08,39.08,0,0,1,867,256.7v.36h0a33.77,33.77,0,1,1,0,67.53Zm-85.29-71.94a13.57,13.57,0,0,0-13.56,13.56,13.43,13.43,0,0,0,1.76,6.66,5.23,5.23,0,0,1-3.57,7.72,16.92,16.92,0,0,0,3.22,33.54H867a23.31,23.31,0,1,0,0-46.61,22.84,22.84,0,0,0-4.78.52A5.23,5.23,0,0,1,856,262a28.34,28.34,0,0,0,.51-5.25,28.62,28.62,0,0,0-57-3.72,5.23,5.23,0,0,1-8.7,3.2A13.59,13.59,0,0,0,781.73,252.65Z"/><path class="ba58384f-0da6-462b-ac64-0d2764983b88" d="M114.83,376.76a20.48,20.48,0,0,1,31.6-25.24,36.92,36.92,0,1,1,72.9,11.57,31.12,31.12,0,1,1,6.39,61.57H119.42a24.17,24.17,0,0,1-4.59-47.9Z"/><path class="bb8c9768-5d42-40ab-ab74-a14457e0d348" d="M225.72,429.89H119.42a29.4,29.4,0,0,1-11.57-56.44A25.71,25.71,0,0,1,143,343.12a42.17,42.17,0,0,1,82.22,13.18c0,.29,0,.59,0,.88h.52a36.36,36.36,0,1,1,0,72.72Zm-93.05-78.48a15.24,15.24,0,0,0-13.28,22.77,5.23,5.23,0,0,1-3.57,7.72,18.94,18.94,0,0,0,3.6,37.53h106.3a25.89,25.89,0,1,0-5.3-51.22,5.22,5.22,0,0,1-6.24-6.07,31.69,31.69,0,1,0-62.56-9.95,5.23,5.23,0,0,1-8.71,3.2A15.18,15.18,0,0,0,132.67,351.41Z"/><polygon class="ba58384f-0da6-462b-ac64-0d2764983b88" points="837.6 765 858.53 749.3 879.46 765 879.46 958.61 837.6 958.61 837.6 765"/><path class="bb8c9768-5d42-40ab-ab74-a14457e0d348" d="M879.46,963.84H837.6a5.23,5.23,0,0,1-5.23-5.24V765a5.26,5.26,0,0,1,2.09-4.19l20.93-15.69a5.22,5.22,0,0,1,6.28,0l20.93,15.69a5.23,5.23,0,0,1,2.09,4.19V958.6A5.23,5.23,0,0,1,879.46,963.84Zm-36.63-10.47h31.4V767.62l-15.7-11.78-15.7,11.78Z"/><polygon class="ba58384f-0da6-462b-ac64-0d2764983b88" points="879.46 765 900.39 749.3 921.32 765 921.32 958.61 879.46 958.61 879.46 765"/><path class="bb8c9768-5d42-40ab-ab74-a14457e0d348" d="M921.32,963.84H879.46a5.23,5.23,0,0,1-5.23-5.24V765a5.26,5.26,0,0,1,2.09-4.19l20.93-15.69a5.22,5.22,0,0,1,6.28,0l20.93,15.69a5.24,5.24,0,0,1,2.1,4.19V958.6A5.24,5.24,0,0,1,921.32,963.84Zm-36.63-10.47h31.4V767.62l-15.7-11.78-15.7,11.78Z"/><polygon class="ba58384f-0da6-462b-ac64-0d2764983b88" points="921.32 765 942.25 749.3 963.18 765 963.18 958.61 921.32 958.61 921.32 765"/><path class="bb8c9768-5d42-40ab-ab74-a14457e0d348" d="M963.18,963.84H921.32a5.23,5.23,0,0,1-5.23-5.24V765a5.24,5.24,0,0,1,2.1-4.19l20.93-15.69a5.21,5.21,0,0,1,6.27,0l20.93,15.69a5.24,5.24,0,0,1,2.1,4.19V958.6A5.23,5.23,0,0,1,963.18,963.84Zm-36.62-10.47H958V767.62l-15.7-11.78-15.69,11.78Z"/><polygon class="ba58384f-0da6-462b-ac64-0d2764983b88" points="116.82 765 137.75 749.3 158.68 765 158.68 958.61 116.82 958.61 116.82 765"/><path class="bb8c9768-5d42-40ab-ab74-a14457e0d348" d="M158.68,963.84H116.82a5.23,5.23,0,0,1-5.24-5.24V765a5.24,5.24,0,0,1,2.1-4.19l20.93-15.69a5.21,5.21,0,0,1,6.27,0l20.93,15.69a5.24,5.24,0,0,1,2.1,4.19V958.6A5.23,5.23,0,0,1,158.68,963.84Zm-36.63-10.47h31.39V767.62l-15.69-11.78-15.7,11.78Z"/><polygon class="ba58384f-0da6-462b-ac64-0d2764983b88" points="158.68 765 179.61 749.3 200.54 765 200.54 958.61 158.68 958.61 158.68 765"/><path class="bb8c9768-5d42-40ab-ab74-a14457e0d348" d="M200.54,963.84H158.68a5.24,5.24,0,0,1-5.24-5.24V765a5.24,5.24,0,0,1,2.1-4.19l20.93-15.69a5.21,5.21,0,0,1,6.27,0l20.94,15.69a5.26,5.26,0,0,1,2.09,4.19V958.6A5.23,5.23,0,0,1,200.54,963.84Zm-36.63-10.47h31.4V767.62l-15.7-11.78-15.7,11.78Z"/><polygon class="ba58384f-0da6-462b-ac64-0d2764983b88" points="200.54 765 221.47 749.3 242.4 765 242.4 958.61 200.54 958.61 200.54 765"/><path class="bb8c9768-5d42-40ab-ab74-a14457e0d348" d="M242.4,963.84H200.54a5.23,5.23,0,0,1-5.23-5.24V765a5.23,5.23,0,0,1,2.09-4.19l20.93-15.69a5.22,5.22,0,0,1,6.28,0l20.93,15.69a5.26,5.26,0,0,1,2.09,4.19V958.6A5.23,5.23,0,0,1,242.4,963.84Zm-36.63-10.47h31.4V767.62l-15.7-11.78-15.7,11.78Z"/><path class="bb8c9768-5d42-40ab-ab74-a14457e0d348" d="M984.77,963.84H95.23a5.24,5.24,0,0,1,0-10.47H984.77a5.24,5.24,0,0,1,0,10.47Z"/><polygon class="a4dc1720-b474-47ec-9bf6-b3ce8c1f7987" points="837.6 958.61 242.4 958.61 242.4 556.64 540 342.31 837.6 556.64 837.6 958.61"/><polygon class="ba58384f-0da6-462b-ac64-0d2764983b88" points="242.4 958.61 242.4 556.64 540 342.31 690.93 451.02 242.4 958.61"/><rect class="bb8c9768-5d42-40ab-ab74-a14457e0d348" x="241.74" y="916.74" width="596.51" height="41.86"/><polygon class="ec6520cc-63ef-4137-b444-0a86b0e7ee20" points="279.39 916.74 241.74 916.74 241.74 958.61 242.4 958.61 279.39 916.74"/><path class="aba58d6a-043a-4d24-8ba0-3aff1a95f4c4" d="M837.6,963.84H242.4a5.23,5.23,0,0,1-5.23-5.24v-364a5.23,5.23,0,1,1,10.46,0V953.37H832.37V702.21a5.23,5.23,0,0,1,10.46,0V958.6A5.23,5.23,0,0,1,837.6,963.84Z"/><path class="aba58d6a-043a-4d24-8ba0-3aff1a95f4c4" d="M837.6,676.05a5.23,5.23,0,0,1-5.23-5.24V559.32L540,348.76,245.45,560.89a5.23,5.23,0,1,1-6.11-8.49l297.6-214.33a5.22,5.22,0,0,1,6.12,0L840.66,552.4a5.2,5.2,0,0,1,2.17,4.24V670.81A5.23,5.23,0,0,1,837.6,676.05Z"/><polygon class="a2fe0bba-9c7b-4cd5-9c85-3dd1302ac50c" points="540 278.37 199.88 523.32 199.88 587.26 540 342.31 880.12 587.26 880.12 523.32 540 278.37"/><polygon class="a1ac0278-65c9-4b78-9247-d188856690e4" points="725.46 411.94 690.93 451.02 880.12 587.26 880.12 523.32 725.46 411.94"/><path class="aba58d6a-043a-4d24-8ba0-3aff1a95f4c4" d="M880.12,592.49a5.26,5.26,0,0,1-3.06-1L540,348.76,202.94,591.51a5.23,5.23,0,0,1-8.29-4.25V523.32a5.21,5.21,0,0,1,2.18-4.24L434.74,347.73a5.23,5.23,0,0,1,6.11,8.49L205.12,526v51l331.82-239a5.22,5.22,0,0,1,6.12,0l331.82,239V526L540,284.82l-70.28,50.61a5.23,5.23,0,0,1-6.11-8.49l73.33-52.81a5.22,5.22,0,0,1,6.12,0l340.11,245a5.21,5.21,0,0,1,2.18,4.24v63.94a5.24,5.24,0,0,1-2.85,4.66A5.15,5.15,0,0,1,880.12,592.49Z"/><path class="a1ac0278-65c9-4b78-9247-d188856690e4" d="M540,738.84h0a57.56,57.56,0,0,0-57.56,57.56V958.6H597.56V796.4A57.56,57.56,0,0,0,540,738.84Z"/><path class="aba58d6a-043a-4d24-8ba0-3aff1a95f4c4" d="M597.56,963.84H482.44a5.23,5.23,0,0,1-5.23-5.24V796.4a62.79,62.79,0,1,1,125.58,0V958.6A5.23,5.23,0,0,1,597.56,963.84ZM487.67,953.37H592.33v-157a52.33,52.33,0,0,0-104.66,0Z"/><path class="f1efbd65-ff09-4d09-bf22-5f5b62ed9c1f" d="M723.14,738.84h0a57.56,57.56,0,0,0-57.56,57.56v78.48H780.7V796.4A57.56,57.56,0,0,0,723.14,738.84Z"/><path class="eaca6dcb-6c77-4cc2-89f8-72405b8a093c" d="M356.86,738.84h0A57.56,57.56,0,0,0,299.3,796.4v78.48H414.42V796.4A57.56,57.56,0,0,0,356.86,738.84Z"/><path class="f1efbd65-ff09-4d09-bf22-5f5b62ed9c1f" d="M408.4,770.74l-92,104.14h98V796.4A57.39,57.39,0,0,0,408.4,770.74Z"/><path class="f1efbd65-ff09-4d09-bf22-5f5b62ed9c1f" d="M723.14,550.47h0A57.55,57.55,0,0,0,665.58,608v78.49H780.7V608A57.55,57.55,0,0,0,723.14,550.47Z"/><path class="eaca6dcb-6c77-4cc2-89f8-72405b8a093c" d="M356.86,550.47h0A57.55,57.55,0,0,0,299.3,608v78.49H414.42V608A57.55,57.55,0,0,0,356.86,550.47Z"/><path class="eaca6dcb-6c77-4cc2-89f8-72405b8a093c" d="M540,550.47h0A57.55,57.55,0,0,0,482.44,608v78.49H597.56V608A57.55,57.55,0,0,0,540,550.47Z"/><path class="f1efbd65-ff09-4d09-bf22-5f5b62ed9c1f" d="M584.48,571.49l-102,115H597.56V608A57.33,57.33,0,0,0,584.48,571.49Z"/><path class="aba58d6a-043a-4d24-8ba0-3aff1a95f4c4" d="M780.7,880.12H665.58a5.23,5.23,0,0,1-5.23-5.24V796.4a62.79,62.79,0,1,1,125.58,0v78.48A5.23,5.23,0,0,1,780.7,880.12ZM670.81,869.65H775.47V796.4a52.33,52.33,0,0,0-104.66,0Z"/><path class="aba58d6a-043a-4d24-8ba0-3aff1a95f4c4" d="M414.42,880.12H299.3a5.23,5.23,0,0,1-5.23-5.24V796.4a62.79,62.79,0,1,1,125.58,0v78.48A5.23,5.23,0,0,1,414.42,880.12ZM304.53,869.65H409.19V796.4a52.33,52.33,0,1,0-104.66,0Z"/><path class="aba58d6a-043a-4d24-8ba0-3aff1a95f4c4" d="M424.88,880.12h-136a5.24,5.24,0,1,1,0-10.47h136a5.24,5.24,0,1,1,0,10.47Z"/><path class="aba58d6a-043a-4d24-8ba0-3aff1a95f4c4" d="M791.16,880.12h-136a5.24,5.24,0,1,1,0-10.47h136a5.24,5.24,0,1,1,0,10.47Z"/><path class="aba58d6a-043a-4d24-8ba0-3aff1a95f4c4" d="M780.7,691.74H665.58a5.23,5.23,0,0,1-5.23-5.23V608a62.79,62.79,0,0,1,125.58,0v78.49A5.23,5.23,0,0,1,780.7,691.74ZM670.81,681.28H775.47V608a52.33,52.33,0,0,0-104.66,0Z"/><path class="aba58d6a-043a-4d24-8ba0-3aff1a95f4c4" d="M414.42,691.74H299.3a5.23,5.23,0,0,1-5.23-5.23V608a62.79,62.79,0,1,1,125.58,0v78.49A5.23,5.23,0,0,1,414.42,691.74ZM304.53,681.28H409.19V608a52.33,52.33,0,0,0-104.66,0Z"/><path class="aba58d6a-043a-4d24-8ba0-3aff1a95f4c4" d="M424.88,691.74h-136a5.23,5.23,0,1,1,0-10.46h136a5.23,5.23,0,1,1,0,10.46Z"/><path class="aba58d6a-043a-4d24-8ba0-3aff1a95f4c4" d="M791.16,691.74h-136a5.23,5.23,0,1,1,0-10.46h136a5.23,5.23,0,1,1,0,10.46Z"/><path class="aba58d6a-043a-4d24-8ba0-3aff1a95f4c4" d="M597.56,691.74H482.44a5.23,5.23,0,0,1-5.23-5.23V608a62.79,62.79,0,1,1,125.58,0v78.49A5.23,5.23,0,0,1,597.56,691.74ZM487.67,681.28H592.33V608a52.33,52.33,0,0,0-104.66,0Z"/><path class="aba58d6a-043a-4d24-8ba0-3aff1a95f4c4" d="M608,691.74H472a5.23,5.23,0,1,1,0-10.46H608a5.23,5.23,0,1,1,0,10.46Z"/><circle class="ba58384f-0da6-462b-ac64-0d2764983b88" cx="576.63" cy="864.42" r="7.85"/><circle class="eaca6dcb-6c77-4cc2-89f8-72405b8a093c" cx="540" cy="456.28" r="41.86"/><path class="aba58d6a-043a-4d24-8ba0-3aff1a95f4c4" d="M540,503.37a47.09,47.09,0,1,1,47.09-47.09A47.14,47.14,0,0,1,540,503.37Zm0-83.72a36.63,36.63,0,1,0,36.63,36.63A36.68,36.68,0,0,0,540,419.65Z"/></svg>