<svg id="b0378195-e9ed-4fb8-82e3-c5ebcf9b38fd" data-name="Capa 1" xmlns="http://www.w3.org/2000/svg" viewBox="0 0 1080 1080"><defs><style>.b5e5959a-51a6-48ee-9ed0-a933d7a97592{fill:#f6f6f6;}.e5537902-9e6c-4511-9ee3-184cbb47cf87{fill:#fff;}.b2e37bc9-0e70-46f2-9468-c1a881cb3146{fill:#989aa6;}.a1c14609-eaa7-4616-bde3-92cbedab2ac9{fill:#ededed;}.b0000dd3-4104-47ca-9a85-ebd0a1c7e2ef{fill:#282c3f;}.a1163a7c-6e0d-435b-bc19-cb1cb0a64e43{fill:#a09cad;}.bf1c46f4-67cf-4924-95a4-18c88891c0a9{fill:#b8b5c6;}.e34363a9-1fee-41b8-86b0-c0f5c81ea58f{fill:#2caae6;}.a6adad4f-89af-4be4-96cc-6056fe1e04e0{fill:#2fc8f2;}.b9919f4d-a4b0-47c7-8830-38a9c029af8d{fill:#34234d;}.ed2cd355-c074-4083-98ac-aab41b203663{fill:#30354c;}.a8182414-30c0-4bdb-87f6-cf6ba08147df{fill:#52576a;}</style></defs><title>ICONS S2R</title><path class="b5e5959a-51a6-48ee-9ed0-a933d7a97592" d="M879.59,412.67c-25.42-65.56-.55-171.62-55.77-216-53.52-43-153,1.64-226.05-9.95S444.49,102,380,126.3c-66.57,25-76.77,133.42-121.81,187.8-43.65,52.7-150.12,83.54-161.9,155.52s79.49,134.17,104.14,197.71c25.42,65.56.55,171.62,55.77,216,53.52,43,153-1.64,226.05,10S635.51,978,700,953.7c66.57-25,76.77-133.42,121.81-187.8,43.65-52.7,150.12-83.53,161.9-155.52S904.24,476.21,879.59,412.67Z"/><path class="e5537902-9e6c-4511-9ee3-184cbb47cf87" d="M644.9,179a20.55,20.55,0,0,0-31.7-25.33,37.05,37.05,0,1,0-73.15,11.62,30.8,30.8,0,0,0-6.42-.69,31.24,31.24,0,0,0,0,62.47H640.3A24.25,24.25,0,0,0,644.9,179Z"/><path class="b2e37bc9-0e70-46f2-9468-c1a881cb3146" d="M640.3,232.29H533.63a36.47,36.47,0,1,1,.54-72.93c0-.3,0-.6,0-.89a42.29,42.29,0,0,1,82.48-13.2A25.47,25.47,0,0,1,627,143.08a25.78,25.78,0,0,1,24.88,32.61,29.48,29.48,0,0,1-11.58,56.6ZM533.63,169.82a26,26,0,0,0,0,52H640.3a19,19,0,0,0,3.61-37.7,5.22,5.22,0,0,1-3.56-7.71,15.31,15.31,0,0,0-23.63-18.88,5.23,5.23,0,0,1-8.71-3.2,31.82,31.82,0,0,0-63.38,4.13,31.44,31.44,0,0,0,.56,5.85A5.23,5.23,0,0,1,539,170.4,25.87,25.87,0,0,0,533.63,169.82Z"/><path class="e5537902-9e6c-4511-9ee3-184cbb47cf87" d="M314.53,347.79a17.13,17.13,0,0,0,2.25-8.51,17.29,17.29,0,0,0-28.92-12.8,31.17,31.17,0,1,0-61.53,9.77,26.27,26.27,0,1,0-5.4,52h89.73a20.4,20.4,0,0,0,3.87-40.43Z"/><path class="b2e37bc9-0e70-46f2-9468-c1a881cb3146" d="M310.66,393.46H220.93a31.51,31.51,0,0,1-.39-63,36.41,36.41,0,0,1,70.71-12.13,22.52,22.52,0,0,1,30.76,21,22.57,22.57,0,0,1-.62,5.25,25.64,25.64,0,0,1-10.73,48.93ZM220.93,340.9a21,21,0,1,0,0,42.09h89.73a15.17,15.17,0,0,0,2.89-30.06,5.25,5.25,0,0,1-3.57-7.72,12.05,12.05,0,0,0-18.6-14.86,5.23,5.23,0,0,1-8.71-3.2,25.93,25.93,0,1,0-51.2,8.14,5.23,5.23,0,0,1-6.23,6.08A20.89,20.89,0,0,0,220.93,340.9Z"/><path class="e5537902-9e6c-4511-9ee3-184cbb47cf87" d="M863.14,585.94a17.54,17.54,0,0,1,27.06-21.62,31.62,31.62,0,1,1,62.43,9.92,26.06,26.06,0,0,1,5.48-.59,26.66,26.66,0,0,1,0,53.32h-91a20.7,20.7,0,0,1-3.93-41Z"/><path class="b2e37bc9-0e70-46f2-9468-c1a881cb3146" d="M958.11,632.2h-91a25.93,25.93,0,0,1-10.79-49.52,22.55,22.55,0,0,1-.65-5.37,22.81,22.81,0,0,1,22.79-22.79,22.56,22.56,0,0,1,8.39,1.61,36.86,36.86,0,0,1,71.61,12.29,31.89,31.89,0,0,1-.31,63.78ZM878.42,565a12.34,12.34,0,0,0-12.32,12.32,12.2,12.2,0,0,0,1.6,6.06,5.23,5.23,0,0,1-3.57,7.71,15.46,15.46,0,0,0,2.94,30.65h91a21.41,21.41,0,1,0-4.39-42.37A5.19,5.19,0,0,1,949,578a5.25,5.25,0,0,1-1.49-4.71,26.8,26.8,0,0,0,.47-4.86A26.4,26.4,0,0,0,895.39,565a5.24,5.24,0,0,1-8.71,3.2A12.25,12.25,0,0,0,878.42,565Z"/><path class="e5537902-9e6c-4511-9ee3-184cbb47cf87" d="M118,536.45a23.79,23.79,0,0,1,36.7-29.33,42.91,42.91,0,0,1,85.46,5.56,43.6,43.6,0,0,1-.75,7.89,35.61,35.61,0,0,1,7.43-.8,36.17,36.17,0,0,1,0,72.33H123.33A28.08,28.08,0,0,1,118,536.45Z"/><path class="b2e37bc9-0e70-46f2-9468-c1a881cb3146" d="M246.85,597.33H123.33a33.31,33.31,0,0,1-12.41-64.23,29,29,0,0,1,40.32-34.57,48.15,48.15,0,0,1,94.17,14.15c0,.62,0,1.25,0,1.89a41.39,41.39,0,1,1,1.49,82.76ZM138.73,506.15a18.57,18.57,0,0,0-16.17,27.72,5.25,5.25,0,0,1-3.57,7.72,22.85,22.85,0,0,0,4.34,45.28H246.85a30.92,30.92,0,1,0-6.34-61.18,5.23,5.23,0,0,1-6.24-6.08,37.34,37.34,0,0,0,.67-6.93,37.68,37.68,0,0,0-75-4.89,5.23,5.23,0,0,1-8.7,3.2A18.54,18.54,0,0,0,138.73,506.15Z"/><polygon class="e5537902-9e6c-4511-9ee3-184cbb47cf87" points="116.82 785.93 137.75 770.23 158.68 785.93 158.68 958.61 116.82 958.61 116.82 785.93"/><path class="b2e37bc9-0e70-46f2-9468-c1a881cb3146" d="M158.68,963.84H116.82a5.24,5.24,0,0,1-5.24-5.24V785.93a5.21,5.21,0,0,1,2.1-4.18l20.93-15.7a5.22,5.22,0,0,1,6.28,0l20.93,15.7a5.2,5.2,0,0,1,2.09,4.18V958.6A5.23,5.23,0,0,1,158.68,963.84Zm-36.63-10.47h31.39V788.55l-15.69-11.78-15.7,11.78Z"/><polygon class="e5537902-9e6c-4511-9ee3-184cbb47cf87" points="158.68 785.93 179.61 770.23 200.54 785.93 200.54 958.61 158.68 958.61 158.68 785.93"/><path class="b2e37bc9-0e70-46f2-9468-c1a881cb3146" d="M200.54,963.84H158.68a5.24,5.24,0,0,1-5.24-5.24V785.93a5.21,5.21,0,0,1,2.1-4.18l20.93-15.7a5.22,5.22,0,0,1,6.28,0l20.93,15.7a5.2,5.2,0,0,1,2.09,4.18V958.6A5.23,5.23,0,0,1,200.54,963.84Zm-36.63-10.47h31.4V788.55l-15.7-11.78-15.7,11.78Z"/><polygon class="e5537902-9e6c-4511-9ee3-184cbb47cf87" points="200.54 785.93 221.47 770.23 242.4 785.93 242.4 958.61 200.54 958.61 200.54 785.93"/><path class="b2e37bc9-0e70-46f2-9468-c1a881cb3146" d="M242.4,963.84H200.54a5.23,5.23,0,0,1-5.23-5.24V785.93a5.2,5.2,0,0,1,2.09-4.18l20.93-15.7a5.22,5.22,0,0,1,6.28,0l20.93,15.7a5.2,5.2,0,0,1,2.09,4.18V958.6A5.23,5.23,0,0,1,242.4,963.84Zm-36.63-10.47h31.4V788.55l-15.7-11.78-15.7,11.78Z"/><polygon class="e5537902-9e6c-4511-9ee3-184cbb47cf87" points="837.6 785.93 858.53 770.23 879.46 785.93 879.46 958.61 837.6 958.61 837.6 785.93"/><path class="b2e37bc9-0e70-46f2-9468-c1a881cb3146" d="M879.46,963.84H837.6a5.23,5.23,0,0,1-5.23-5.24V785.93a5.2,5.2,0,0,1,2.09-4.18l20.93-15.7a5.22,5.22,0,0,1,6.28,0l20.93,15.7a5.2,5.2,0,0,1,2.09,4.18V958.6A5.23,5.23,0,0,1,879.46,963.84Zm-36.63-10.47h31.4V788.55l-15.7-11.78-15.7,11.78Z"/><polygon class="e5537902-9e6c-4511-9ee3-184cbb47cf87" points="879.46 785.93 900.39 770.23 921.32 785.93 921.32 958.61 879.46 958.61 879.46 785.93"/><path class="b2e37bc9-0e70-46f2-9468-c1a881cb3146" d="M921.32,963.84H879.46a5.23,5.23,0,0,1-5.23-5.24V785.93a5.2,5.2,0,0,1,2.09-4.18l20.93-15.7a5.22,5.22,0,0,1,6.28,0l20.93,15.7a5.21,5.21,0,0,1,2.1,4.18V958.6A5.24,5.24,0,0,1,921.32,963.84Zm-36.63-10.47h31.4V788.55l-15.7-11.78-15.7,11.78Z"/><polygon class="e5537902-9e6c-4511-9ee3-184cbb47cf87" points="921.32 785.93 942.25 770.23 963.18 785.93 963.18 958.61 921.32 958.61 921.32 785.93"/><path class="b2e37bc9-0e70-46f2-9468-c1a881cb3146" d="M963.18,963.84H921.32a5.23,5.23,0,0,1-5.23-5.24V785.93a5.2,5.2,0,0,1,2.09-4.18l20.93-15.7a5.22,5.22,0,0,1,6.28,0l20.93,15.7a5.21,5.21,0,0,1,2.1,4.18V958.6A5.24,5.24,0,0,1,963.18,963.84Zm-36.62-10.47H958V788.55l-15.7-11.78-15.69,11.78Z"/><polygon class="a1c14609-eaa7-4616-bde3-92cbedab2ac9" points="242.4 690.07 540 566.16 837.6 690.07 837.6 958.61 242.4 958.61 242.4 690.07"/><path class="b2e37bc9-0e70-46f2-9468-c1a881cb3146" d="M984.77,963.84H95.23a5.24,5.24,0,0,1,0-10.47H984.77a5.24,5.24,0,0,1,0,10.47Z"/><polygon class="e5537902-9e6c-4511-9ee3-184cbb47cf87" points="242.4 716.24 540 592.33 837.6 716.24 837.6 890.58 242.4 932.44 242.4 716.24"/><path class="b0000dd3-4104-47ca-9a85-ebd0a1c7e2ef" d="M837.6,963.84H404a5.24,5.24,0,0,1,0-10.47H832.37V693.56L540,571.83,247.63,693.56V953.37H372.56a5.24,5.24,0,0,1,0,10.47H242.4a5.23,5.23,0,0,1-5.23-5.24V690.07a5.24,5.24,0,0,1,3.22-4.83L538,561.33a5.19,5.19,0,0,1,4,0l297.6,123.91a5.24,5.24,0,0,1,3.22,4.83V958.6A5.23,5.23,0,0,1,837.6,963.84Z"/><path class="b0000dd3-4104-47ca-9a85-ebd0a1c7e2ef" d="M880.11,713a5.21,5.21,0,0,1-2-.4L540,571.83,201.89,712.61a5.23,5.23,0,1,1-4-9.66L538,561.33a5.19,5.19,0,0,1,4,0L882.13,703a5.23,5.23,0,0,1-2,10.06Z"/><rect class="a1163a7c-6e0d-435b-bc19-cb1cb0a64e43" x="477.21" y="728.37" width="125.58" height="230.23"/><polygon class="bf1c46f4-67cf-4924-95a4-18c88891c0a9" points="602.79 728.37 477.21 728.37 477.21 915.93 602.79 907.1 602.79 728.37"/><path class="b0000dd3-4104-47ca-9a85-ebd0a1c7e2ef" d="M602.79,963.84H477.21A5.23,5.23,0,0,1,472,958.6V728.37a5.23,5.23,0,0,1,5.23-5.23H602.79a5.23,5.23,0,0,1,5.23,5.23V958.6A5.23,5.23,0,0,1,602.79,963.84ZM482.44,953.37H597.56V733.6H482.44Z"/><rect class="e34363a9-1fee-41b8-86b0-c0f5c81ea58f" x="660.35" y="728.37" width="125.58" height="136.05"/><rect class="e34363a9-1fee-41b8-86b0-c0f5c81ea58f" x="294.07" y="728.37" width="125.58" height="136.05"/><polygon class="a6adad4f-89af-4be4-96cc-6056fe1e04e0" points="331.8 859.74 350.52 869.1 423.78 733.05 405.06 723.69 331.8 859.74"/><polygon class="a6adad4f-89af-4be4-96cc-6056fe1e04e0" points="362.64 726.03 289.39 862.08 298.75 866.76 372.01 730.71 362.64 726.03"/><polygon class="a6adad4f-89af-4be4-96cc-6056fe1e04e0" points="771.34 723.69 698.08 859.74 716.8 869.1 790.06 733.05 771.34 723.69"/><polygon class="a6adad4f-89af-4be4-96cc-6056fe1e04e0" points="728.92 726.03 655.67 862.08 665.03 866.76 738.28 730.71 728.92 726.03"/><path class="b9919f4d-a4b0-47c7-8830-38a9c029af8d" d="M785.93,869.65H660.35a5.23,5.23,0,0,1-5.23-5.23v-136a5.23,5.23,0,0,1,5.23-5.23H785.93a5.23,5.23,0,0,1,5.23,5.23v136A5.23,5.23,0,0,1,785.93,869.65ZM665.58,859.19H780.7V733.6H665.58Z"/><path class="b0000dd3-4104-47ca-9a85-ebd0a1c7e2ef" d="M419.65,869.65H294.07a5.23,5.23,0,0,1-5.23-5.23v-136a5.23,5.23,0,0,1,5.23-5.23H419.65a5.23,5.23,0,0,1,5.23,5.23v136A5.23,5.23,0,0,1,419.65,869.65ZM299.3,859.19H414.42V733.6H299.3Z"/><path class="b0000dd3-4104-47ca-9a85-ebd0a1c7e2ef" d="M613.26,733.6H466.74a5.23,5.23,0,0,1,0-10.46H613.26a5.23,5.23,0,0,1,0,10.46Z"/><path class="b9919f4d-a4b0-47c7-8830-38a9c029af8d" d="M430.12,869.65H283.6a5.23,5.23,0,0,1,0-10.46H430.12a5.23,5.23,0,1,1,0,10.46Z"/><path class="b9919f4d-a4b0-47c7-8830-38a9c029af8d" d="M796.4,869.65H649.88a5.23,5.23,0,1,1,0-10.46H796.4a5.23,5.23,0,1,1,0,10.46Z"/><circle class="e5537902-9e6c-4511-9ee3-184cbb47cf87" cx="576.63" cy="864.42" r="10.47"/><rect class="ed2cd355-c074-4083-98ac-aab41b203663" x="377.79" y="278.37" width="502.33" height="230.23"/><polygon class="a8182414-30c0-4bdb-87f6-cf6ba08147df" points="701.72 508.61 822.56 278.37 699.15 278.37 578.32 508.61 701.72 508.61"/><polygon class="a8182414-30c0-4bdb-87f6-cf6ba08147df" points="509.8 508.61 630.63 278.37 580.02 278.37 461.51 508.61 509.8 508.61"/><path class="b0000dd3-4104-47ca-9a85-ebd0a1c7e2ef" d="M880.12,513.84H377.79a5.24,5.24,0,0,1-5.23-5.24V278.37a5.23,5.23,0,0,1,5.23-5.23H880.12a5.23,5.23,0,0,1,5.23,5.23v73.26a5.24,5.24,0,0,1-10.47,0v-68H383V503.37H874.88V383a5.24,5.24,0,0,1,10.47,0V508.6A5.24,5.24,0,0,1,880.12,513.84Z"/><polygon class="a1163a7c-6e0d-435b-bc19-cb1cb0a64e43" points="660.35 508.61 597.56 508.61 597.56 590.13 660.35 616.27 660.35 508.61"/><polygon class="bf1c46f4-67cf-4924-95a4-18c88891c0a9" points="660.35 508.61 597.56 508.61 597.56 569.2 660.35 584.88 660.35 508.61"/><path class="b0000dd3-4104-47ca-9a85-ebd0a1c7e2ef" d="M660.35,621.5a5.19,5.19,0,0,1-2-.4L595.55,595a5.24,5.24,0,0,1-3.22-4.83V508.6a5.23,5.23,0,0,1,5.23-5.23h62.79a5.24,5.24,0,0,1,0,10.47H602.79v72.8l52.33,21.78V540a5.23,5.23,0,0,1,10.46,0v76.27a5.21,5.21,0,0,1-2.33,4.35A5.15,5.15,0,0,1,660.35,621.5Z"/><path class="e5537902-9e6c-4511-9ee3-184cbb47cf87" d="M724.46,458.9H661.67a10.47,10.47,0,0,1-10.47-10.47V338.55a10.47,10.47,0,1,1,20.93,0V438h52.33a10.47,10.47,0,1,1,0,20.93Z"/><path class="e5537902-9e6c-4511-9ee3-184cbb47cf87" d="M823.88,458.9H761.09a10.46,10.46,0,0,1-10.46-10.47V338.55a10.46,10.46,0,0,1,10.46-10.47h62.79a10.47,10.47,0,1,1,0,20.93H771.56v89h52.32a10.47,10.47,0,1,1,0,20.93Z"/><path class="e5537902-9e6c-4511-9ee3-184cbb47cf87" d="M808.18,404H761.09a10.47,10.47,0,0,1,0-20.93h47.09a10.47,10.47,0,1,1,0,20.93Z"/><path class="e5537902-9e6c-4511-9ee3-184cbb47cf87" d="M617.18,419.65H546.54a10.46,10.46,0,0,1-10.46-10.47V373.87a45.79,45.79,0,1,1,91.57,0v35.31A10.47,10.47,0,0,1,617.18,419.65ZM557,398.72h49.71V373.87a24.86,24.86,0,1,0-49.71,0Z"/><path class="e5537902-9e6c-4511-9ee3-184cbb47cf87" d="M617.18,419.65H546.54a10.46,10.46,0,0,1-10.46-10.47V373.87a45.79,45.79,0,1,1,91.57,0v35.31A10.47,10.47,0,0,1,617.18,419.65ZM557,398.72h49.71V373.87a24.86,24.86,0,1,0-49.71,0Z"/><path class="e5537902-9e6c-4511-9ee3-184cbb47cf87" d="M617.18,458.9a10.46,10.46,0,0,1-10.46-10.47V419.65H557v28.78a10.47,10.47,0,1,1-20.93,0V409.18a10.46,10.46,0,0,1,10.46-10.46h70.64a10.46,10.46,0,0,1,10.47,10.46v39.25A10.47,10.47,0,0,1,617.18,458.9Z"/><path class="e5537902-9e6c-4511-9ee3-184cbb47cf87" d="M477.19,458.9H436.64a10.47,10.47,0,0,1,0-20.93h40.55a17,17,0,0,0,0-34H461.5a37.94,37.94,0,1,1,0-75.87h40.55a10.47,10.47,0,0,1,0,20.93H461.5a17,17,0,1,0,0,34h15.69a37.94,37.94,0,0,1,0,75.88Z"/><path class="a6adad4f-89af-4be4-96cc-6056fe1e04e0" d="M555.7,634.19a36.27,36.27,0,0,1,16.81,4.11,36.61,36.61,0,1,0-49.33,49.33,36.59,36.59,0,0,1,32.52-53.44Z"/><path class="e34363a9-1fee-41b8-86b0-c0f5c81ea58f" d="M576.63,655.12a36.34,36.34,0,0,0-4.12-16.82,36.59,36.59,0,0,0-49.33,49.33,36.6,36.6,0,0,0,53.45-32.51Z"/><path class="b0000dd3-4104-47ca-9a85-ebd0a1c7e2ef" d="M540,697a41.86,41.86,0,1,1,41.86-41.86A41.91,41.91,0,0,1,540,697Zm0-73.26a31.4,31.4,0,1,0,31.4,31.4A31.43,31.43,0,0,0,540,623.72Z"/></svg>