<svg id="a6a0ecc0-94f1-41fa-a2e3-f979b6063862" data-name="Capa 1" xmlns="http://www.w3.org/2000/svg" viewBox="0 0 1080 1080"><defs><style>.f14c31f0-02d1-4ee2-af0b-b9cf59867221{fill:#f6f6f6;}.b42b069f-f3aa-4c04-a36b-f15330419dfd{fill:#ededed;}.aa594fd3-0eb3-458e-b84d-85d1d71d8e8c{fill:#fff;}.eadf49b4-560c-4f37-989f-fb68184afbfd{fill:#b8b5c6;}.acdfcc2a-b441-4cc9-b8c2-e8a6ff7ddb0b{fill:#282c3f;}.bfd4bfa4-6f36-403c-ab68-e497c13442ae{fill:#52576a;}.b1b163c6-39ca-4023-9651-2ce7adb36767{fill:#30354c;}.bd632bef-92f7-4c80-a066-79b4cccc3ab1{fill:#2fc8f2;}.a1db470b-8292-41f2-845d-db9877c53961{fill:#2caae6;}.ee3e2916-97b1-4ddd-b240-ead75604cbd8{fill:#989aa6;}</style></defs><title>ICONS S2R</title><path class="f14c31f0-02d1-4ee2-af0b-b9cf59867221" d="M879.59,412.67c-25.42-65.56-.55-171.62-55.77-216-53.52-43-153,1.64-226.05-9.95S444.49,102,380,126.3c-66.57,25-76.77,133.42-121.81,187.8-43.65,52.7-150.12,83.54-161.9,155.52s79.49,134.17,104.14,197.71c25.42,65.56.55,171.62,55.77,216,53.52,43,153-1.64,226.05,10S635.51,978,700,953.7c66.57-25,76.77-133.42,121.81-187.8,43.65-52.7,150.12-83.53,161.9-155.52S904.24,476.21,879.59,412.67Z"/><path class="b42b069f-f3aa-4c04-a36b-f15330419dfd" d="M649.88,880.12H283.6L199.88,796.4V273.14h450Z"/><path class="aa594fd3-0eb3-458e-b84d-85d1d71d8e8c" d="M608.78,849.18,283.6,864.42c-32.69-32.69-51-35.33-83.72-68V273.14H634.19L618.75,839A10.48,10.48,0,0,1,608.78,849.18Z"/><rect class="eadf49b4-560c-4f37-989f-fb68184afbfd" x="246.98" y="461.51" width="355.81" height="272.09" rx="10.47"/><rect class="eadf49b4-560c-4f37-989f-fb68184afbfd" x="246.98" y="775.47" width="355.81" height="52.33" rx="10.47"/><rect class="eadf49b4-560c-4f37-989f-fb68184afbfd" x="246.98" y="325.47" width="355.81" height="94.19" rx="10.47"/><path class="acdfcc2a-b441-4cc9-b8c2-e8a6ff7ddb0b" d="M362.5,885.35H283.6a5.22,5.22,0,0,1-3.69-1.53l-83.73-83.73a5.21,5.21,0,0,1-1.53-3.69V273.14a5.23,5.23,0,0,1,5.23-5.23h450a5.24,5.24,0,0,1,5.24,5.23V540a5.24,5.24,0,0,1-10.47,0V278.37H205.12V794.23l80.65,80.65H362.5a5.24,5.24,0,0,1,0,10.47Z"/><path class="acdfcc2a-b441-4cc9-b8c2-e8a6ff7ddb0b" d="M649.88,885.35h-256a5.24,5.24,0,1,1,0-10.47H644.65V571.4a5.24,5.24,0,1,1,10.47,0V880.12A5.24,5.24,0,0,1,649.88,885.35Z"/><rect class="bfd4bfa4-6f36-403c-ab68-e497c13442ae" x="199.88" y="199.88" width="450" height="73.26"/><path class="b1b163c6-39ca-4023-9651-2ce7adb36767" d="M649.88,273.14H215.58l8.69-39.1a10.47,10.47,0,0,1,10-8.2l415.65-10.26Z"/><path class="acdfcc2a-b441-4cc9-b8c2-e8a6ff7ddb0b" d="M649.88,278.37h-450a5.23,5.23,0,0,1-5.23-5.23V199.88a5.23,5.23,0,0,1,5.23-5.23H438a5.24,5.24,0,0,1,0,10.47H205.12v62.79H644.65V205.12H469.36a5.24,5.24,0,0,1,0-10.47H649.88a5.24,5.24,0,0,1,5.24,5.23v73.26A5.24,5.24,0,0,1,649.88,278.37Z"/><circle class="aa594fd3-0eb3-458e-b84d-85d1d71d8e8c" cx="236.51" cy="236.51" r="7.85"/><circle class="aa594fd3-0eb3-458e-b84d-85d1d71d8e8c" cx="273.14" cy="236.51" r="7.85"/><circle class="aa594fd3-0eb3-458e-b84d-85d1d71d8e8c" cx="309.77" cy="236.51" r="7.85"/><path class="b1b163c6-39ca-4023-9651-2ce7adb36767" d="M806.85,770.24a15.8,15.8,0,0,1-6.62-1.47l-382-177.91a15.7,15.7,0,0,1-.73-28.1L762.88,379.62a15.7,15.7,0,0,1,14.71,27.74L460.11,575.72,813.49,740.3a15.71,15.71,0,0,1-6.64,29.94Z"/><path class="bd632bef-92f7-4c80-a066-79b4cccc3ab1" d="M445.81,466.74a130.24,130.24,0,0,1,81.43,28.47A130.79,130.79,0,1,0,343.46,679,130.79,130.79,0,0,1,445.81,466.74Z"/><path class="a1db470b-8292-41f2-845d-db9877c53961" d="M555.7,576.63a130.27,130.27,0,0,0-28.46-81.42A130.78,130.78,0,0,0,343.46,679,130.79,130.79,0,0,0,555.7,576.63Z"/><path class="bd632bef-92f7-4c80-a066-79b4cccc3ab1" d="M827.79,702.21A72.9,72.9,0,0,1,868,714.28,73.24,73.24,0,1,0,766.61,815.71a73.21,73.21,0,0,1,61.18-113.5Z"/><path class="bd632bef-92f7-4c80-a066-79b4cccc3ab1" d="M733.6,414.42A57.49,57.49,0,0,1,820,364.66a57.53,57.53,0,1,0-78.6,78.59A57.17,57.17,0,0,1,733.6,414.42Z"/><path class="a1db470b-8292-41f2-845d-db9877c53961" d="M880.12,754.53A72.88,72.88,0,0,0,868,714.28,73.22,73.22,0,0,0,766.61,815.71a73.22,73.22,0,0,0,113.51-61.18Z"/><path class="a1db470b-8292-41f2-845d-db9877c53961" d="M733.6,414.42a57.17,57.17,0,0,0,7.8,28.83A57.49,57.49,0,0,0,820,364.66a57.49,57.49,0,0,0-86.4,49.76Z"/><path class="b42b069f-f3aa-4c04-a36b-f15330419dfd" d="M468.92,511.66a78.49,78.49,0,0,1-109,109,78.49,78.49,0,1,0,109-109Z"/><path class="aa594fd3-0eb3-458e-b84d-85d1d71d8e8c" d="M482.44,555.7a78.1,78.1,0,0,0-13.52-44,78.49,78.49,0,0,0-109,109,78.49,78.49,0,0,0,122.53-65Z"/><path class="acdfcc2a-b441-4cc9-b8c2-e8a6ff7ddb0b" d="M424.88,660.35a83.72,83.72,0,1,1,83.72-83.72A83.82,83.82,0,0,1,424.88,660.35Zm0-157a73.26,73.26,0,1,0,73.26,73.26A73.34,73.34,0,0,0,424.88,503.37Z"/><circle class="aa594fd3-0eb3-458e-b84d-85d1d71d8e8c" cx="770.23" cy="393.49" r="20.93"/><path class="acdfcc2a-b441-4cc9-b8c2-e8a6ff7ddb0b" d="M424.88,712.67c-75,0-136-61-136-136s61-136,136-136,136,61,136,136.05S499.9,712.67,424.88,712.67Zm0-261.62A125.58,125.58,0,1,0,550.47,576.63,125.72,125.72,0,0,0,424.88,451.05Z"/><path class="acdfcc2a-b441-4cc9-b8c2-e8a6ff7ddb0b" d="M806.86,833a78.49,78.49,0,1,1,78.49-78.49A78.57,78.57,0,0,1,806.86,833Zm0-146.51a68,68,0,1,0,68,68A68.1,68.1,0,0,0,806.86,686.51Z"/><circle class="aa594fd3-0eb3-458e-b84d-85d1d71d8e8c" cx="806.86" cy="754.53" r="31.4"/><path class="acdfcc2a-b441-4cc9-b8c2-e8a6ff7ddb0b" d="M770.23,456.28A62.79,62.79,0,1,1,833,393.49,62.86,62.86,0,0,1,770.23,456.28Zm0-115.12a52.33,52.33,0,1,0,52.33,52.33A52.39,52.39,0,0,0,770.23,341.16Z"/><polygon class="b1b163c6-39ca-4023-9651-2ce7adb36767" points="199.88 796.39 283.61 880.12 283.61 796.39 199.88 796.39"/><path class="acdfcc2a-b441-4cc9-b8c2-e8a6ff7ddb0b" d="M283.6,885.35a5.21,5.21,0,0,1-3.69-1.53l-83.73-83.73a5.23,5.23,0,0,1,3.7-8.93H283.6a5.24,5.24,0,0,1,5.24,5.24v83.72a5.24,5.24,0,0,1-5.24,5.23Zm-71.08-83.72,65.85,65.85V801.63Z"/><circle class="aa594fd3-0eb3-458e-b84d-85d1d71d8e8c" cx="927.21" cy="288.84" r="57.56"/><path class="ee3e2916-97b1-4ddd-b240-ead75604cbd8" d="M927.21,351.63A5.23,5.23,0,0,1,922,346.4a52.39,52.39,0,0,0-52.33-52.33,5.24,5.24,0,0,1,0-10.47A52.39,52.39,0,0,0,922,231.28a5.23,5.23,0,0,1,10.46,0,52.38,52.38,0,0,0,52.33,52.32,5.24,5.24,0,0,1,0,10.47,52.38,52.38,0,0,0-52.33,52.33A5.23,5.23,0,0,1,927.21,351.63Zm-32.47-62.79a63.12,63.12,0,0,1,32.47,32.46,63.12,63.12,0,0,1,32.47-32.46,63.18,63.18,0,0,1-32.47-32.47A63.18,63.18,0,0,1,894.74,288.84Z"/><circle class="aa594fd3-0eb3-458e-b84d-85d1d71d8e8c" cx="843.49" cy="587.09" r="41.86"/><path class="ee3e2916-97b1-4ddd-b240-ead75604cbd8" d="M843.49,634.19a5.23,5.23,0,0,1-5.23-5.24,36.67,36.67,0,0,0-36.63-36.62,5.24,5.24,0,0,1,0-10.47,36.67,36.67,0,0,0,36.63-36.63,5.23,5.23,0,0,1,10.46,0,36.67,36.67,0,0,0,36.63,36.63,5.24,5.24,0,0,1,0,10.47A36.67,36.67,0,0,0,848.72,629,5.23,5.23,0,0,1,843.49,634.19Zm-20.3-47.1a47.37,47.37,0,0,1,20.3,20.3,47.37,47.37,0,0,1,20.3-20.3,47.4,47.4,0,0,1-20.3-20.29A47.4,47.4,0,0,1,823.19,587.09Z"/><circle class="aa594fd3-0eb3-458e-b84d-85d1d71d8e8c" cx="728.37" cy="874.88" r="41.86"/><path class="ee3e2916-97b1-4ddd-b240-ead75604cbd8" d="M728.37,922a5.23,5.23,0,0,1-5.23-5.24,36.67,36.67,0,0,0-36.63-36.62,5.24,5.24,0,0,1,0-10.47A36.67,36.67,0,0,0,723.14,833a5.23,5.23,0,0,1,10.46,0,36.68,36.68,0,0,0,36.63,36.63,5.24,5.24,0,1,1,0,10.47,36.67,36.67,0,0,0-36.63,36.62A5.23,5.23,0,0,1,728.37,922Zm-20.3-47.1a47.42,47.42,0,0,1,20.3,20.3,47.42,47.42,0,0,1,20.3-20.3,47.4,47.4,0,0,1-20.3-20.29A47.4,47.4,0,0,1,708.07,874.88Z"/><circle class="aa594fd3-0eb3-458e-b84d-85d1d71d8e8c" cx="691.74" cy="163.26" r="41.86"/><path class="ee3e2916-97b1-4ddd-b240-ead75604cbd8" d="M691.74,210.35a5.23,5.23,0,0,1-5.23-5.23,36.67,36.67,0,0,0-36.63-36.63,5.24,5.24,0,0,1,0-10.47,36.67,36.67,0,0,0,36.63-36.62,5.24,5.24,0,1,1,10.47,0A36.66,36.66,0,0,0,733.6,158a5.24,5.24,0,1,1,0,10.47A36.67,36.67,0,0,0,697,205.12,5.24,5.24,0,0,1,691.74,210.35Zm-20.29-47.09a47.4,47.4,0,0,1,20.29,20.3,47.47,47.47,0,0,1,20.3-20.3,47.58,47.58,0,0,1-20.3-20.3A47.51,47.51,0,0,1,671.45,163.26Z"/><circle class="aa594fd3-0eb3-458e-b84d-85d1d71d8e8c" cx="137.09" cy="519.07" r="41.86"/><path class="ee3e2916-97b1-4ddd-b240-ead75604cbd8" d="M137.09,566.16a5.23,5.23,0,0,1-5.23-5.23A36.67,36.67,0,0,0,95.23,524.3a5.23,5.23,0,0,1,0-10.46,36.67,36.67,0,0,0,36.63-36.63,5.24,5.24,0,0,1,10.47,0A36.67,36.67,0,0,0,179,513.84a5.23,5.23,0,1,1,0,10.46,36.67,36.67,0,0,0-36.62,36.63A5.24,5.24,0,0,1,137.09,566.16Zm-20.3-47.09a47.37,47.37,0,0,1,20.3,20.3,47.42,47.42,0,0,1,20.3-20.3,47.42,47.42,0,0,1-20.3-20.3A47.37,47.37,0,0,1,116.79,519.07Z"/><circle class="aa594fd3-0eb3-458e-b84d-85d1d71d8e8c" cx="377.79" cy="921.98" r="36.63"/><path class="ee3e2916-97b1-4ddd-b240-ead75604cbd8" d="M377.79,963.84a5.23,5.23,0,0,1-5.23-5.24,31.43,31.43,0,0,0-31.4-31.39,5.24,5.24,0,0,1,0-10.47,31.43,31.43,0,0,0,31.4-31.39,5.23,5.23,0,1,1,10.46,0,31.43,31.43,0,0,0,31.4,31.39,5.24,5.24,0,0,1,0,10.47A31.43,31.43,0,0,0,383,958.6,5.23,5.23,0,0,1,377.79,963.84ZM361.41,922a42.12,42.12,0,0,1,16.38,16.37A42.19,42.19,0,0,1,394.17,922a42.28,42.28,0,0,1-16.38-16.38A42.21,42.21,0,0,1,361.41,922Z"/></svg>