<svg id="f9a1a9bb-298c-4d9b-9270-efb7b8ff5a4c" data-name="Capa 1" xmlns="http://www.w3.org/2000/svg" viewBox="0 0 1080 1080"><defs><style>.a5da7080-88a3-41b7-84e5-824fff9c0794{fill:#e6e6e6;}.b47be09e-086d-46ad-b189-134ae07d962a{fill:#30354c;}.b09407af-2176-4d5e-8eea-14ac66f07b4d{fill:#52576a;}.ab23b5a8-f7ef-4e36-b3e4-98113b600ebd{fill:#282c3f;}.a85044c6-3925-49d6-8e1b-e9c3f3de515d{fill:#b8b5c6;}.a743a94d-c6cd-47ea-8d26-446103ff1018{fill:#fff;}.aecb6b02-78ad-44a6-9702-ff2856546812{fill:#2fc8f2;}.b567d8d5-faf3-4071-b1a6-f95218d6d5c3{fill:#2caae6;}.bf106217-1b86-4e8c-9c4e-8985fa643fb9{fill:#34234d;}.a1d08b49-13f9-433f-bef0-73750552a298{fill:#989aa6;}</style></defs><title>ICONS S2R</title><path class="a5da7080-88a3-41b7-84e5-824fff9c0794" d="M872.67,397.65c-27.91-65.36-7.44-173.7-64.14-216.41-55-41.41-152.08,7.71-225.24-1.13s-155.86-79.69-219.06-52.56c-65.2,28-71,138.1-113.61,194.93-41.31,55.08-146,90.51-154.8,163.85s84.45,132.67,111.51,196c27.91,65.36,7.44,173.7,64.14,216.42,55,41.4,152.08-7.72,225.24,1.12s155.86,79.69,219.06,52.56c65.2-28,71-138.1,113.61-194.93,41.31-55.09,146-90.51,154.8-163.85S899.73,461,872.67,397.65Z"/><path class="b47be09e-086d-46ad-b189-134ae07d962a" d="M712.67,372.56A172.67,172.67,0,1,0,466.3,528.73v43.51l29.85,29.85L466.3,631.93l29.85,29.84L466.3,691.62l29.85,29.85L466.3,751.32l29.85,29.84L466.3,811l69.11,69.12,78.3-78.41v-273A172.68,172.68,0,0,0,712.67,372.56Z"/><path class="b09407af-2176-4d5e-8eea-14ac66f07b4d" d="M566.16,226.05a171.9,171.9,0,0,1,108.3,38.21,172.61,172.61,0,1,0-242.7,242.68,172.53,172.53,0,0,1,134.4-280.89Z"/><path class="ab23b5a8-f7ef-4e36-b3e4-98113b600ebd" d="M535.41,885.35a5.23,5.23,0,0,1-3.7-1.53L462.6,814.7a5.23,5.23,0,0,1,0-7.39l26.15-26.15L462.6,755a5.24,5.24,0,0,1,0-7.4l26.15-26.15L462.6,695.32a5.24,5.24,0,0,1,0-7.4l26.15-26.15L462.6,635.63a5.24,5.24,0,0,1,0-7.4l26.15-26.14L462.6,575.94a5.23,5.23,0,0,1-1.53-3.7V532a178.82,178.82,0,0,1-99-159.45,176.82,176.82,0,0,1,32.12-102,5.23,5.23,0,0,1,8.57,6,166.45,166.45,0,0,0-30.22,96,168.27,168.27,0,0,0,96,151.44,5.22,5.22,0,0,1,3,4.73v41.34l28.32,28.32a5.24,5.24,0,0,1,0,7.4L473.7,631.93l26.15,26.14a5.24,5.24,0,0,1,0,7.4L473.7,691.62l26.15,26.15a5.24,5.24,0,0,1,0,7.4L473.7,751.32l26.15,26.14a5.24,5.24,0,0,1,0,7.4L473.7,811l61.71,61.71,73.06-73.17V560.12a5.24,5.24,0,0,1,10.47,0V801.71a5.25,5.25,0,0,1-1.53,3.7l-78.29,78.41a5.25,5.25,0,0,1-3.71,1.53Z"/><path class="ab23b5a8-f7ef-4e36-b3e4-98113b600ebd" d="M613.71,534a5.23,5.23,0,0,1-2.24-10,168.28,168.28,0,0,0,96-151.44c0-92.33-75.11-167.44-167.44-167.44A166.67,166.67,0,0,0,424.81,251a5.23,5.23,0,0,1-7.21-7.59A177.15,177.15,0,0,1,540,194.65c98.1,0,177.91,79.81,177.91,177.91a178.8,178.8,0,0,1-102,160.9A5.21,5.21,0,0,1,613.71,534Z"/><path class="a85044c6-3925-49d6-8e1b-e9c3f3de515d" d="M559.89,266.61a52.3,52.3,0,0,1-60.71,81.08,52.31,52.31,0,1,0,60.71-81.08Z"/><path class="a743a94d-c6cd-47ea-8d26-446103ff1018" d="M571.4,299.3a52.11,52.11,0,0,0-11.51-32.69,52.29,52.29,0,0,0-60.71,81.08A52.3,52.3,0,0,0,571.4,299.3Z"/><path class="ab23b5a8-f7ef-4e36-b3e4-98113b600ebd" d="M540,372.56A57.56,57.56,0,1,1,597.56,315,57.62,57.62,0,0,1,540,372.56Zm0-104.65A47.09,47.09,0,1,0,587.09,315,47.14,47.14,0,0,0,540,267.91Z"/><path class="ab23b5a8-f7ef-4e36-b3e4-98113b600ebd" d="M455.83,676.05H325.47a5.24,5.24,0,1,1,0-10.47H455.83a5.24,5.24,0,1,1,0,10.47Z"/><path class="ab23b5a8-f7ef-4e36-b3e4-98113b600ebd" d="M445.37,571.4H388.26a5.24,5.24,0,0,1-3.7-1.54l-36.63-36.63a5.23,5.23,0,0,1,7.4-7.39l35.09,35.09h54.95a5.24,5.24,0,0,1,0,10.47Z"/><path class="ab23b5a8-f7ef-4e36-b3e4-98113b600ebd" d="M450.6,623.72H356.86a5.23,5.23,0,0,1-3.7-1.53l-35.09-35.1H252.21a5.23,5.23,0,0,1,0-10.46h68a5.23,5.23,0,0,1,3.7,1.53l35.1,35.1H450.6a5.23,5.23,0,0,1,0,10.46Z"/><path class="ab23b5a8-f7ef-4e36-b3e4-98113b600ebd" d="M351.63,817.33a5.24,5.24,0,0,1-3.7-8.94l36.63-36.62a5.2,5.2,0,0,1,3.7-1.54h67.57a5.24,5.24,0,0,1,0,10.47H390.42l-35.09,35.09A5.23,5.23,0,0,1,351.63,817.33Z"/><path class="ab23b5a8-f7ef-4e36-b3e4-98113b600ebd" d="M320.23,765h-68a5.24,5.24,0,0,1,0-10.47h65.86l35.09-35.09a5.23,5.23,0,0,1,3.7-1.53H388a5.23,5.23,0,1,1,0,10.46H359l-35.1,35.1A5.23,5.23,0,0,1,320.23,765Z"/><path class="ab23b5a8-f7ef-4e36-b3e4-98113b600ebd" d="M461.06,728.37H414.19a5.23,5.23,0,1,1,0-10.46h46.87a5.23,5.23,0,1,1,0,10.46Z"/><path class="aecb6b02-78ad-44a6-9702-ff2856546812" d="M315,655.12a25.68,25.68,0,0,1,5.65.65,26.13,26.13,0,1,0-27,40.56A26.11,26.11,0,0,1,315,655.12Z"/><path class="aecb6b02-78ad-44a6-9702-ff2856546812" d="M796.4,655.12a25.75,25.75,0,0,1,5.65.65,26.14,26.14,0,1,0-27,40.56,26.1,26.1,0,0,1,21.35-41.21Z"/><path class="aecb6b02-78ad-44a6-9702-ff2856546812" d="M743.65,534.12A26.11,26.11,0,0,1,765,492.91a25.68,25.68,0,0,1,5.65.65,26.13,26.13,0,1,0-27,40.56Z"/><path class="aecb6b02-78ad-44a6-9702-ff2856546812" d="M848.3,607.37a26.11,26.11,0,0,1,21.35-41.21,26.3,26.3,0,0,1,5.65.65,26.13,26.13,0,1,0-27,40.56Z"/><path class="aecb6b02-78ad-44a6-9702-ff2856546812" d="M346.4,492.91a25.75,25.75,0,0,1,5.65.65,26.13,26.13,0,1,0-27,40.56,26.1,26.1,0,0,1,21.35-41.21Z"/><path class="aecb6b02-78ad-44a6-9702-ff2856546812" d="M241.74,566.16a26.39,26.39,0,0,1,5.66.65,26.14,26.14,0,1,0-27,40.56,26.11,26.11,0,0,1,21.35-41.21Z"/><path class="aecb6b02-78ad-44a6-9702-ff2856546812" d="M346.4,817.33a26.37,26.37,0,0,1,5.65.64,26.14,26.14,0,1,0-27,40.57,26.1,26.1,0,0,1,21.35-41.21Z"/><path class="aecb6b02-78ad-44a6-9702-ff2856546812" d="M241.74,744.07a26.39,26.39,0,0,1,5.66.65,26.14,26.14,0,1,0-27,40.56,26.11,26.11,0,0,1,21.35-41.21Z"/><path class="aecb6b02-78ad-44a6-9702-ff2856546812" d="M765,817.33a26.3,26.3,0,0,1,5.65.64,26.14,26.14,0,1,0-27,40.57A26.11,26.11,0,0,1,765,817.33Z"/><path class="aecb6b02-78ad-44a6-9702-ff2856546812" d="M869.65,744.07a26.3,26.3,0,0,1,5.65.65,26.13,26.13,0,1,0-27,40.56,26.11,26.11,0,0,1,21.35-41.21Z"/><path class="b567d8d5-faf3-4071-b1a6-f95218d6d5c3" d="M325.47,670.81a26,26,0,0,0-4.82-15,25.68,25.68,0,0,0-5.65-.65,26.11,26.11,0,0,0-21.35,41.21,26,26,0,0,0,31.82-25.52Z"/><path class="b567d8d5-faf3-4071-b1a6-f95218d6d5c3" d="M806.86,670.81a26,26,0,0,0-4.81-15,25.75,25.75,0,0,0-5.65-.65,26.1,26.1,0,0,0-21.35,41.21,26,26,0,0,0,31.81-25.52Z"/><path class="b567d8d5-faf3-4071-b1a6-f95218d6d5c3" d="M738.84,519.07a26,26,0,0,0,4.81,15,26,26,0,0,0,31.82-25.52,26,26,0,0,0-4.82-15,25.68,25.68,0,0,0-5.65-.65A26.16,26.16,0,0,0,738.84,519.07Z"/><path class="b567d8d5-faf3-4071-b1a6-f95218d6d5c3" d="M843.49,592.33a26,26,0,0,0,4.81,15A25.75,25.75,0,0,0,854,608a26.1,26.1,0,0,0,21.35-41.21,26,26,0,0,0-31.81,25.52Z"/><path class="b567d8d5-faf3-4071-b1a6-f95218d6d5c3" d="M356.86,508.6a26,26,0,0,0-4.81-15,25.75,25.75,0,0,0-5.65-.65,26.1,26.1,0,0,0-21.35,41.21,26,26,0,0,0,31.81-25.52Z"/><path class="b567d8d5-faf3-4071-b1a6-f95218d6d5c3" d="M252.21,581.86a26,26,0,0,0-4.81-15.05,26,26,0,0,0-31.82,25.52,26,26,0,0,0,4.81,15,25.77,25.77,0,0,0,5.66.65A26.16,26.16,0,0,0,252.21,581.86Z"/><path class="b567d8d5-faf3-4071-b1a6-f95218d6d5c3" d="M356.86,833a26,26,0,0,0-4.81-15,26.08,26.08,0,0,0-31.82,25.52,26,26,0,0,0,4.82,15A26,26,0,0,0,356.86,833Z"/><path class="b567d8d5-faf3-4071-b1a6-f95218d6d5c3" d="M252.21,759.77a26,26,0,0,0-4.81-15,26,26,0,0,0-31.82,25.51,26,26,0,0,0,4.81,15,26,26,0,0,0,31.82-25.51Z"/><path class="b567d8d5-faf3-4071-b1a6-f95218d6d5c3" d="M775.47,833a26,26,0,0,0-4.82-15,26.07,26.07,0,0,0-31.81,25.52,26,26,0,0,0,4.81,15A26,26,0,0,0,775.47,833Z"/><path class="b567d8d5-faf3-4071-b1a6-f95218d6d5c3" d="M880.12,759.77a26,26,0,0,0-4.82-15,26,26,0,0,0-31.81,25.51,26,26,0,0,0,4.81,15,26,26,0,0,0,31.82-25.51Z"/><path class="ab23b5a8-f7ef-4e36-b3e4-98113b600ebd" d="M299.3,702.21a31.4,31.4,0,1,1,31.4-31.4A31.43,31.43,0,0,1,299.3,702.21Zm0-52.33a20.93,20.93,0,1,0,20.93,20.93A21,21,0,0,0,299.3,649.88Z"/><path class="ab23b5a8-f7ef-4e36-b3e4-98113b600ebd" d="M780.7,702.21a31.4,31.4,0,1,1,31.39-31.4A31.43,31.43,0,0,1,780.7,702.21Zm0-52.33a20.93,20.93,0,1,0,20.93,20.93A20.95,20.95,0,0,0,780.7,649.88Z"/><path class="ab23b5a8-f7ef-4e36-b3e4-98113b600ebd" d="M749.3,540a31.4,31.4,0,1,1,31.4-31.4A31.43,31.43,0,0,1,749.3,540Zm0-52.33a20.93,20.93,0,1,0,20.93,20.93A21,21,0,0,0,749.3,487.67Z"/><path class="ab23b5a8-f7ef-4e36-b3e4-98113b600ebd" d="M854,613.26a31.4,31.4,0,1,1,31.4-31.4A31.43,31.43,0,0,1,854,613.26Zm0-52.33a20.93,20.93,0,1,0,20.93,20.93A21,21,0,0,0,854,560.93Z"/><path class="ab23b5a8-f7ef-4e36-b3e4-98113b600ebd" d="M330.7,540a31.4,31.4,0,1,1,31.39-31.4A31.43,31.43,0,0,1,330.7,540Zm0-52.33a20.93,20.93,0,1,0,20.93,20.93A20.95,20.95,0,0,0,330.7,487.67Z"/><path class="ab23b5a8-f7ef-4e36-b3e4-98113b600ebd" d="M226.05,613.26a31.4,31.4,0,1,1,31.39-31.4A31.43,31.43,0,0,1,226.05,613.26Zm0-52.33A20.93,20.93,0,1,0,247,581.86,20.95,20.95,0,0,0,226.05,560.93Z"/><path class="ab23b5a8-f7ef-4e36-b3e4-98113b600ebd" d="M330.7,864.42A31.4,31.4,0,1,1,362.09,833,31.43,31.43,0,0,1,330.7,864.42Zm0-52.33A20.93,20.93,0,1,0,351.63,833,20.95,20.95,0,0,0,330.7,812.09Z"/><path class="ab23b5a8-f7ef-4e36-b3e4-98113b600ebd" d="M226.05,791.16a31.4,31.4,0,1,1,31.39-31.39A31.43,31.43,0,0,1,226.05,791.16Zm0-52.32A20.93,20.93,0,1,0,247,759.77,20.94,20.94,0,0,0,226.05,738.84Z"/><path class="ab23b5a8-f7ef-4e36-b3e4-98113b600ebd" d="M749.3,864.42A31.4,31.4,0,1,1,780.7,833,31.43,31.43,0,0,1,749.3,864.42Zm0-52.33A20.93,20.93,0,1,0,770.23,833,21,21,0,0,0,749.3,812.09Z"/><path class="ab23b5a8-f7ef-4e36-b3e4-98113b600ebd" d="M854,791.16a31.4,31.4,0,1,1,31.4-31.39A31.42,31.42,0,0,1,854,791.16Zm0-52.32a20.93,20.93,0,1,0,20.93,20.93A20.95,20.95,0,0,0,854,738.84Z"/><path class="bf106217-1b86-4e8c-9c4e-8985fa643fb9" d="M754.53,676.05H707.66a5.24,5.24,0,0,1,0-10.47h46.87a5.24,5.24,0,1,1,0,10.47Z"/><path class="ab23b5a8-f7ef-4e36-b3e4-98113b600ebd" d="M681.5,676.05H634.64a5.24,5.24,0,1,1,0-10.47H681.5a5.24,5.24,0,0,1,0,10.47Z"/><path class="ab23b5a8-f7ef-4e36-b3e4-98113b600ebd" d="M691.74,571.4h-57.1a5.24,5.24,0,1,1,0-10.47h54.94l35.09-35.09a5.23,5.23,0,0,1,7.4,7.39l-36.63,36.63A5.24,5.24,0,0,1,691.74,571.4Z"/><path class="ab23b5a8-f7ef-4e36-b3e4-98113b600ebd" d="M723.14,623.72h-88.5a5.23,5.23,0,1,1,0-10.46H721l35.1-35.1a5.23,5.23,0,0,1,3.7-1.53h68a5.23,5.23,0,0,1,0,10.46H761.93l-35.09,35.1A5.23,5.23,0,0,1,723.14,623.72Z"/><path class="ab23b5a8-f7ef-4e36-b3e4-98113b600ebd" d="M728.37,817.33a5.23,5.23,0,0,1-3.7-1.54L689.58,780.7h-55a5.24,5.24,0,0,1,0-10.47h57.11a5.2,5.2,0,0,1,3.7,1.54l36.63,36.62a5.24,5.24,0,0,1-3.7,8.94Z"/><path class="ab23b5a8-f7ef-4e36-b3e4-98113b600ebd" d="M827.79,765h-68a5.23,5.23,0,0,1-3.7-1.53L721,728.37H634.63a5.23,5.23,0,0,1,0-10.46h88.51a5.23,5.23,0,0,1,3.7,1.53l35.09,35.09h65.86a5.24,5.24,0,0,1,0,10.47Z"/><path class="a743a94d-c6cd-47ea-8d26-446103ff1018" d="M540,825.17a7.85,7.85,0,0,1-7.85-7.84V550.47a7.85,7.85,0,0,1,15.7,0V817.33A7.85,7.85,0,0,1,540,825.17Z"/><path class="a1d08b49-13f9-433f-bef0-73750552a298" d="M984.77,461.51a5.22,5.22,0,0,1-3.7-1.53l-41.86-41.86a5.23,5.23,0,0,1,7.4-7.4l41.86,41.86a5.23,5.23,0,0,1-3.7,8.93Z"/><path class="a1d08b49-13f9-433f-bef0-73750552a298" d="M942.91,461.51a5.23,5.23,0,0,1-3.7-8.93l41.86-41.86a5.23,5.23,0,0,1,7.4,7.4L946.61,460A5.23,5.23,0,0,1,942.91,461.51Z"/><path class="a1d08b49-13f9-433f-bef0-73750552a298" d="M498.14,963.84a5.19,5.19,0,0,1-3.7-1.54l-41.86-41.86A5.23,5.23,0,1,1,460,913l41.86,41.87a5.24,5.24,0,0,1-3.7,8.93Z"/><path class="a1d08b49-13f9-433f-bef0-73750552a298" d="M456.28,963.84a5.24,5.24,0,0,1-3.7-8.93L494.44,913a5.23,5.23,0,0,1,7.4,7.4L460,962.3A5.19,5.19,0,0,1,456.28,963.84Z"/><path class="a1d08b49-13f9-433f-bef0-73750552a298" d="M922,869.65a5.22,5.22,0,0,1-3.7-1.53l-41.86-41.86a5.23,5.23,0,1,1,7.4-7.4l41.86,41.86a5.23,5.23,0,0,1-3.7,8.93Z"/><path class="a1d08b49-13f9-433f-bef0-73750552a298" d="M880.12,869.65a5.23,5.23,0,0,1-3.7-8.93l41.86-41.86a5.23,5.23,0,1,1,7.4,7.4l-41.86,41.86A5.23,5.23,0,0,1,880.12,869.65Z"/><path class="a1d08b49-13f9-433f-bef0-73750552a298" d="M137.09,660.35a5.23,5.23,0,0,1-3.7-1.53L91.53,617a5.23,5.23,0,0,1,7.4-7.4l41.86,41.86a5.23,5.23,0,0,1-3.7,8.93Z"/><path class="a1d08b49-13f9-433f-bef0-73750552a298" d="M95.23,660.35a5.23,5.23,0,0,1-3.7-8.93l41.86-41.86a5.23,5.23,0,0,1,7.4,7.4L98.93,658.82A5.22,5.22,0,0,1,95.23,660.35Z"/><path class="a1d08b49-13f9-433f-bef0-73750552a298" d="M273.14,226.05a5.19,5.19,0,0,1-3.7-1.54l-41.86-41.86a5.23,5.23,0,1,1,7.4-7.4l41.86,41.86a5.24,5.24,0,0,1,0,7.4A5.19,5.19,0,0,1,273.14,226.05Z"/><path class="a1d08b49-13f9-433f-bef0-73750552a298" d="M231.28,226.05a5.19,5.19,0,0,1-3.7-1.54,5.24,5.24,0,0,1,0-7.4l41.86-41.86a5.23,5.23,0,1,1,7.4,7.4L235,224.51A5.19,5.19,0,0,1,231.28,226.05Z"/><path class="a1d08b49-13f9-433f-bef0-73750552a298" d="M634.19,168.49a5.22,5.22,0,0,1-3.7-1.53l-41.86-41.87a5.23,5.23,0,1,1,7.4-7.39l41.86,41.86a5.23,5.23,0,0,1-3.7,8.93Z"/><path class="a1d08b49-13f9-433f-bef0-73750552a298" d="M592.33,168.49a5.23,5.23,0,0,1-3.7-8.93l41.86-41.86a5.23,5.23,0,1,1,7.4,7.39L596,167A5.25,5.25,0,0,1,592.33,168.49Z"/></svg>