<svg id="ab5af2ca-152a-4f88-aa3a-b8f3535882fb" data-name="Capa 1" xmlns="http://www.w3.org/2000/svg" viewBox="0 0 1080 1080"><defs><style>.af1ff99f-13ce-49eb-8048-a25270e42921{fill:#f6f6f6;}.bc2e5595-0d42-4355-ad2a-745412857838{fill:#989aa6;}.b33ff5ab-a68f-4dbd-bb06-8daa4274c374{fill:#2caae6;}.a1c1ffe2-b092-483d-aa7c-cc6c5d453b48{fill:#fff;}.fef0f92c-94a6-48c2-a129-05687fa009fc{fill:#2fc8f2;}.e7de186d-f822-4fd1-bd7e-94de2bb43dc6{fill:#282c3f;}.ee684ff6-b29d-4d8a-b51d-c36383cb552f{fill:#ededed;}.ff549625-655d-4721-8457-67c1d7f63b4f{fill:#a09cad;}.eb46ad08-b5c7-436f-ba54-c0a4edbb1f22{fill:#b8b5c6;}.bc9029b6-2966-460a-85d0-3faf36b3bb0b{fill:#30354c;}.fb6cce3e-d465-4915-9448-056bcb3ed16d{fill:#52576a;}</style></defs><title>ICONS S2R</title><path class="af1ff99f-13ce-49eb-8048-a25270e42921" d="M857.68,370.78c-33.17-62.38-22-171.47-81.81-209-58-36.37-150.06,20.52-223.32,18S391.38,114,331,146.23C268.78,179.47,272.31,289.07,234.87,349c-36.28,58.07-137,102-139.59,175.44s94.88,124.31,127,184.79c33.17,62.38,22,171.47,81.81,209,57.95,36.37,150.06-20.52,223.31-18S688.62,966,749,933.77c62.26-33.24,58.73-142.84,96.17-202.76,36.28-58.07,137-102,139.59-175.44S889.84,431.26,857.68,370.78Z"/><path class="bc2e5595-0d42-4355-ad2a-745412857838" d="M984.77,963.84H95.23a5.24,5.24,0,0,1,0-10.47H984.77a5.24,5.24,0,0,1,0,10.47Z"/><rect class="b33ff5ab-a68f-4dbd-bb06-8daa4274c374" x="199.88" y="278.37" width="470.93" height="680.23" rx="31.4"/><rect class="a1c1ffe2-b092-483d-aa7c-cc6c5d453b48" x="199.88" y="351.63" width="470.93" height="533.72" rx="20.93"/><path class="fef0f92c-94a6-48c2-a129-05687fa009fc" d="M555.74,278.37,326.05,958.6H441.12L664,298.43a15.2,15.2,0,0,0-14.4-20.06Z"/><path class="fef0f92c-94a6-48c2-a129-05687fa009fc" d="M425.16,278.37,206.88,937.46a16.09,16.09,0,0,0,15.28,21.14h17.65L469.5,278.37Z"/><path class="e7de186d-f822-4fd1-bd7e-94de2bb43dc6" d="M639.42,963.84H231.28a36.67,36.67,0,0,1-36.63-36.63V540.53a5.24,5.24,0,0,1,10.47,0V927.21a26.19,26.19,0,0,0,26.16,26.16H639.42a26.2,26.2,0,0,0,26.16-26.16V759.73a5.24,5.24,0,0,1,10.47,0V927.21A36.68,36.68,0,0,1,639.42,963.84Z"/><path class="e7de186d-f822-4fd1-bd7e-94de2bb43dc6" d="M670.81,728.34a5.24,5.24,0,0,1-5.23-5.24V309.77a26.2,26.2,0,0,0-26.16-26.17H231.28a26.19,26.19,0,0,0-26.16,26.17V509.13a5.24,5.24,0,1,1-10.47,0V309.77a36.67,36.67,0,0,1,36.63-36.63H639.42a36.68,36.68,0,0,1,36.63,36.63V723.1A5.24,5.24,0,0,1,670.81,728.34Z"/><polygon class="ee684ff6-b29d-4d8a-b51d-c36383cb552f" points="531.01 351.63 350.79 885.35 465.86 885.35 646.08 351.63 531.01 351.63"/><polygon class="ee684ff6-b29d-4d8a-b51d-c36383cb552f" points="400.9 351.63 224.15 885.35 264.54 885.35 444.76 351.63 400.9 351.63"/><path class="e7de186d-f822-4fd1-bd7e-94de2bb43dc6" d="M649.88,890.58H409.19a5.23,5.23,0,1,1,0-10.46H649.88a15.72,15.72,0,0,0,15.7-15.7,5.24,5.24,0,0,1,10.47,0A26.2,26.2,0,0,1,649.88,890.58Z"/><path class="e7de186d-f822-4fd1-bd7e-94de2bb43dc6" d="M670.81,377.79a5.23,5.23,0,0,1-5.23-5.23,15.71,15.71,0,0,0-15.7-15.7H220.81a15.71,15.71,0,0,0-15.69,15.7,5.24,5.24,0,0,1-10.47,0,26.19,26.19,0,0,1,26.16-26.16H649.88a26.19,26.19,0,0,1,26.17,26.16A5.23,5.23,0,0,1,670.81,377.79Z"/><circle class="a1c1ffe2-b092-483d-aa7c-cc6c5d453b48" cx="435.35" cy="921.98" r="13.08"/><circle class="a1c1ffe2-b092-483d-aa7c-cc6c5d453b48" cx="555.7" cy="921.98" r="13.08"/><circle class="a1c1ffe2-b092-483d-aa7c-cc6c5d453b48" cx="519.07" cy="315" r="13.08"/><circle class="a1c1ffe2-b092-483d-aa7c-cc6c5d453b48" cx="315" cy="921.98" r="13.08"/><path class="a1c1ffe2-b092-483d-aa7c-cc6c5d453b48" d="M479.83,322.85h-89A7.85,7.85,0,0,1,383,315h0a7.85,7.85,0,0,1,7.85-7.85h89a7.84,7.84,0,0,1,7.84,7.85h0A7.84,7.84,0,0,1,479.83,322.85Z"/><path class="e7de186d-f822-4fd1-bd7e-94de2bb43dc6" d="M377.8,890.58h-157a26.2,26.2,0,0,1-26.16-26.16,5.24,5.24,0,0,1,10.47,0,15.72,15.72,0,0,0,15.69,15.7h157a5.23,5.23,0,0,1,0,10.46Z"/><circle class="bc2e5595-0d42-4355-ad2a-745412857838" cx="226.05" cy="377.79" r="7.85"/><circle class="bc2e5595-0d42-4355-ad2a-745412857838" cx="252.21" cy="377.79" r="7.85"/><circle class="bc2e5595-0d42-4355-ad2a-745412857838" cx="278.37" cy="377.79" r="7.85"/><circle class="bc2e5595-0d42-4355-ad2a-745412857838" cx="304.53" cy="377.79" r="7.85"/><circle class="bc2e5595-0d42-4355-ad2a-745412857838" cx="330.7" cy="377.79" r="7.85"/><path class="bc2e5595-0d42-4355-ad2a-745412857838" d="M649.88,372.56h-5.23v-2.62a2.61,2.61,0,0,0-2.62-2.61H605.41a2.61,2.61,0,0,0-2.62,2.61v15.7a2.62,2.62,0,0,0,2.62,2.62H642a2.62,2.62,0,0,0,2.62-2.62V383h5.23a2.61,2.61,0,0,0,2.62-2.61v-5.24A2.61,2.61,0,0,0,649.88,372.56Z"/><path class="ff549625-655d-4721-8457-67c1d7f63b4f" d="M397.75,626.64a62.59,62.59,0,0,1-25.12-47c-1.66-34.77,27-65.28,61.78-65.78a62.43,62.43,0,0,1,16.79,2.08c-27.82,7.39-48.6,34-47.17,63.7a62.56,62.56,0,0,0,25.12,47l-30.43,96.5H367.33Z"/><path class="eb46ad08-b5c7-436f-ba54-c0a4edbb1f22" d="M404,579.63c-1.43-29.75,19.35-56.31,47.17-63.7A62.53,62.53,0,0,1,473,626.64l30.42,96.5H398.72l30.43-96.5A62.56,62.56,0,0,1,404,579.63Z"/><path class="e7de186d-f822-4fd1-bd7e-94de2bb43dc6" d="M503.37,728.37h-136a5.23,5.23,0,0,1-5-6.8l29.35-93.08a67.88,67.88,0,0,1,44.69-119.88A67.81,67.81,0,0,1,479,628.49l29.34,93.08a5.23,5.23,0,0,1-5,6.8ZM374.46,717.91H496.23L468,628.21a5.24,5.24,0,0,1,1.85-5.75,57.56,57.56,0,1,0-68.9,0,5.22,5.22,0,0,1,1.84,5.75Z"/><path class="bc9029b6-2966-460a-85d0-3faf36b3bb0b" d="M749.3,487.67A130.86,130.86,0,0,0,623,584.48H373.07a62.68,62.68,0,0,0,24.68,42.16l-8.16,25.86H623A130.82,130.82,0,1,0,749.3,487.67Zm0,209.31a78.49,78.49,0,1,1,78.49-78.49A78.49,78.49,0,0,1,749.3,697Z"/><path class="fb6cce3e-d465-4915-9448-056bcb3ed16d" d="M755.27,513.84c66.73,0,121.22,49.36,124.67,111.48.11-2.26.18-4.54.18-6.83a130.82,130.82,0,0,0-257.14-34H373.07A61.24,61.24,0,0,0,377.62,601H627.1a10.3,10.3,0,0,0,9.76-6.74C653.42,547.51,700.17,513.84,755.27,513.84Z"/><path class="e7de186d-f822-4fd1-bd7e-94de2bb43dc6" d="M749.3,754.53A136.22,136.22,0,0,1,619,657.73H389.59a5.23,5.23,0,0,1-5-6.8l7.08-22.44a67.28,67.28,0,0,1-23.8-43.36,5.23,5.23,0,0,1,5.19-5.89H619a136.22,136.22,0,0,1,130.27-96.8c75,0,136.05,61,136.05,136.05S824.32,754.53,749.3,754.53ZM396.73,647.27H623a5.22,5.22,0,0,1,5,3.87,125.58,125.58,0,1,0,0-65.31,5.22,5.22,0,0,1-5,3.88H379.32a57.3,57.3,0,0,0,21.58,32.75,5.22,5.22,0,0,1,1.84,5.75ZM749.3,702.21A83.72,83.72,0,1,1,833,618.49,83.82,83.82,0,0,1,749.3,702.21Zm0-157a73.26,73.26,0,1,0,73.26,73.26A73.34,73.34,0,0,0,749.3,545.23Z"/><polygon class="a1c1ffe2-b092-483d-aa7c-cc6c5d453b48" points="777.15 294.83 789.89 320.67 818.41 324.81 797.78 344.92 802.65 373.32 777.15 359.91 751.64 373.32 756.51 344.92 735.88 324.81 764.4 320.67 777.15 294.83"/><path class="bc2e5595-0d42-4355-ad2a-745412857838" d="M802.65,378.55a5.23,5.23,0,0,1-2.43-.6l-23.07-12.13L754.07,378a5.23,5.23,0,0,1-7.58-5.52l4.4-25.68-18.66-18.2a5.23,5.23,0,0,1,2.9-8.92l25.79-3.75,11.54-23.37c1.75-3.57,7.62-3.57,9.38,0l11.53,23.37,25.79,3.75a5.22,5.22,0,0,1,2.9,8.92l-18.66,18.2,4.41,25.68a5.23,5.23,0,0,1-5.16,6.12Zm-25.5-23.87a5.23,5.23,0,0,1,2.43.6l16.12,8.47-3.08-17.94a5.24,5.24,0,0,1,1.51-4.63l13-12.72-18-2.61A5.25,5.25,0,0,1,785.2,323l-8.05-16.33L769.09,323a5.24,5.24,0,0,1-3.94,2.87l-18,2.61,13,12.72a5.23,5.23,0,0,1,1.5,4.63l-3.08,17.94,16.12-8.47A5.27,5.27,0,0,1,777.15,354.68Z"/><polygon class="a1c1ffe2-b092-483d-aa7c-cc6c5d453b48" points="838.85 801.63 851.6 827.46 880.12 831.61 859.48 851.72 864.36 880.12 838.85 866.71 813.35 880.12 818.22 851.72 797.59 831.61 826.1 827.46 838.85 801.63"/><path class="bc2e5595-0d42-4355-ad2a-745412857838" d="M813.35,885.35a5.23,5.23,0,0,1-5.16-6.12l4.41-25.69-18.66-18.19a5.22,5.22,0,0,1,2.9-8.92l25.78-3.75,11.54-23.37a5.23,5.23,0,0,1,4.69-2.91h0a5.21,5.21,0,0,1,4.69,2.91l11.54,23.37,25.79,3.75a5.24,5.24,0,0,1,2.9,8.93L865.1,853.54l4.41,25.69a5.23,5.23,0,0,1-7.59,5.52l-23.07-12.13-23.06,12.13A5.3,5.3,0,0,1,813.35,885.35Zm-4.52-50.09,13,12.71a5.25,5.25,0,0,1,1.51,4.63l-3.08,17.95,16.12-8.47a5.18,5.18,0,0,1,4.87,0l16.12,8.47-3.08-17.95a5.24,5.24,0,0,1,1.5-4.63l13-12.71-18-2.62a5.25,5.25,0,0,1-3.94-2.86l-8.06-16.33-8.06,16.33a5.23,5.23,0,0,1-3.94,2.86Z"/><polygon class="a1c1ffe2-b092-483d-aa7c-cc6c5d453b48" points="942.91 467.49 955.85 493.7 984.77 497.9 963.84 518.31 968.78 547.11 942.91 533.51 917.04 547.11 921.98 518.31 901.05 497.9 929.97 493.7 942.91 467.49"/><path class="bc2e5595-0d42-4355-ad2a-745412857838" d="M968.78,552.35a5.12,5.12,0,0,1-2.43-.61l-23.44-12.32-23.44,12.32a5.22,5.22,0,0,1-7.59-5.51l4.48-26.1-19-18.48a5.23,5.23,0,0,1,2.91-8.92l26.2-3.81,11.72-23.74c1.75-3.58,7.62-3.58,9.38,0l11.71,23.74,26.21,3.81a5.23,5.23,0,0,1,2.9,8.92l-19,18.48,4.47,26.1a5.23,5.23,0,0,1-5.15,6.12Zm-25.87-24.07a5.2,5.2,0,0,1,2.43.6l16.49,8.67-3.15-18.36a5.23,5.23,0,0,1,1.5-4.63l13.34-13-18.43-2.68a5.23,5.23,0,0,1-3.94-2.86l-8.24-16.71L934.66,496a5.23,5.23,0,0,1-3.94,2.86l-18.43,2.68,13.34,13a5.23,5.23,0,0,1,1.5,4.63L924,537.55l16.49-8.67A5.27,5.27,0,0,1,942.91,528.28Z"/><polygon class="a1c1ffe2-b092-483d-aa7c-cc6c5d453b48" points="457.73 121.39 470.48 147.23 498.99 151.38 478.36 171.49 483.23 199.88 457.73 186.47 432.23 199.88 437.1 171.49 416.46 151.38 444.98 147.23 457.73 121.39"/><path class="bc2e5595-0d42-4355-ad2a-745412857838" d="M432.23,205.12a5.23,5.23,0,0,1-5.16-6.12l4.41-25.69-18.67-18.19a5.23,5.23,0,0,1,2.9-8.92l25.79-3.75L453,119.08a5.23,5.23,0,0,1,4.69-2.92h0a5.23,5.23,0,0,1,4.69,2.92L474,142.45l25.79,3.75a5.23,5.23,0,0,1,2.91,8.92L484,173.31l4.4,25.69a5.23,5.23,0,0,1-7.59,5.52l-23.06-12.13-23.07,12.13A5.23,5.23,0,0,1,432.23,205.12ZM427.71,155l13,12.71a5.23,5.23,0,0,1,1.5,4.63l-3.07,17.95,16.11-8.48a5.26,5.26,0,0,1,4.88,0l16.11,8.48-3.08-17.95a5.21,5.21,0,0,1,1.51-4.63l13-12.71-18-2.62a5.23,5.23,0,0,1-3.94-2.86l-8.06-16.33-8.06,16.33a5.25,5.25,0,0,1-3.94,2.86Z"/><polygon class="a1c1ffe2-b092-483d-aa7c-cc6c5d453b48" points="158.62 184.86 171.37 210.7 199.88 214.84 179.25 234.95 184.13 263.35 158.62 249.94 133.12 263.35 137.99 234.95 117.36 214.84 145.87 210.7 158.62 184.86"/><path class="bc2e5595-0d42-4355-ad2a-745412857838" d="M184.12,268.58a5.23,5.23,0,0,1-2.43-.6l-23.07-12.12L135.55,268a5.23,5.23,0,0,1-7.59-5.51l4.41-25.69L113.7,218.59a5.24,5.24,0,0,1,2.91-8.93l25.78-3.74,11.54-23.38a5.23,5.23,0,0,1,4.69-2.91h0a5.23,5.23,0,0,1,4.69,2.92l11.53,23.37,25.8,3.74a5.24,5.24,0,0,1,2.9,8.93l-18.67,18.19,4.41,25.68a5.23,5.23,0,0,1-5.16,6.12ZM128.6,218.49l13,12.72a5.23,5.23,0,0,1,1.5,4.63l-3.07,17.95,16.12-8.48a5.22,5.22,0,0,1,4.86,0l16.13,8.47-3.09-17.94a5.24,5.24,0,0,1,1.51-4.64l13-12.71-18-2.61a5.22,5.22,0,0,1-3.94-2.87l-8.06-16.32L150.56,213a5.25,5.25,0,0,1-3.94,2.86Z"/><polygon class="a1c1ffe2-b092-483d-aa7c-cc6c5d453b48" points="136.5 644.92 149.25 670.75 177.76 674.9 157.13 695.01 162 723.41 136.5 710 110.99 723.41 115.87 695.01 95.23 674.9 123.75 670.75 136.5 644.92"/><path class="bc2e5595-0d42-4355-ad2a-745412857838" d="M162,728.64a5.3,5.3,0,0,1-2.44-.6l-23.07-12.13L113.43,728a5.23,5.23,0,0,1-7.59-5.52l4.41-25.68L91.58,678.65a5.24,5.24,0,0,1,2.9-8.93L120.27,666,131.8,642.6c1.76-3.57,7.63-3.57,9.39,0L152.72,666l25.79,3.75a5.24,5.24,0,0,1,2.91,8.93l-18.67,18.19,4.4,25.68a5.22,5.22,0,0,1-5.15,6.12Zm-25.51-23.87a5.24,5.24,0,0,1,2.44.6l16.12,8.47-3.08-18a5.22,5.22,0,0,1,1.51-4.63l13-12.71-18-2.62a5.19,5.19,0,0,1-3.94-2.86l-8.07-16.33-8.05,16.33a5.2,5.2,0,0,1-3.94,2.86l-18,2.62,13,12.71a5.24,5.24,0,0,1,1.5,4.63l-3.07,18,16.11-8.47A5.23,5.23,0,0,1,136.49,704.77Z"/></svg>