<svg id="a7524183-afc2-4a1c-813f-e91a4617ca3a" data-name="Capa 1" xmlns="http://www.w3.org/2000/svg" viewBox="0 0 1080 1080"><defs><style>.bd19b267-27fe-44e9-bad1-ebd10b478270{fill:#f6f6f6;}.edbb5894-9139-45e2-909c-f5dfcf6d51be{fill:#989aa6;}.b33489fb-bbd9-47c6-b0cb-b25e1765e071{fill:#ededed;}.b22e2705-0dc4-4ca9-8a11-1c34156f7837{fill:#2caae6;}.e9f4d20a-7891-4fac-8337-ceb1a9b873eb{fill:#282c3f;}.e9e94dda-af42-4654-8547-f9d72eb884fe{fill:#30354c;}.bef2bcb0-e757-4b3c-8c8b-0995819b92d0{fill:#34234d;}.a9b1c581-da8b-4e0b-a383-719a1bbb1aeb{fill:#fff;}.b3febfb2-6277-46b1-beff-6c3c5a2fa892{fill:#b8b5c6;}.fb4f0213-f90d-4fa4-b3d1-507218dc1463{fill:#2fc8f2;}.a672387d-3f7e-4185-823a-a02577895883{fill:#52576a;}</style></defs><title>ICONS S2R</title><path class="bd19b267-27fe-44e9-bad1-ebd10b478270" d="M887.28,577.94c7.47-64.25,77.32-142.8,48.83-206.31S801,304.59,747.46,266.27c-55.18-39.55-91.08-136.93-159.16-144.44-66-7.28-122.87,78.75-188.12,106.49s-168.73,9.86-208.1,61.93c-40.62,53.71,8.36,145.54.64,211.81-7.47,64.25-77.32,142.8-48.83,206.31s135.16,67,188.65,105.36c55.18,39.55,91.08,136.93,159.16,144.44,66,7.28,122.87-78.75,188.12-106.49s168.73-9.86,208.1-61.93C928.54,736,879.56,644.21,887.28,577.94Z"/><path class="edbb5894-9139-45e2-909c-f5dfcf6d51be" d="M984.77,963.84H95.23a5.24,5.24,0,0,1,0-10.47H984.77a5.24,5.24,0,0,1,0,10.47Z"/><rect class="b33489fb-bbd9-47c6-b0cb-b25e1765e071" x="686.51" y="445.81" width="193.6" height="512.79"/><polygon class="edbb5894-9139-45e2-909c-f5dfcf6d51be" points="686.51 445.81 686.51 958.61 765 958.61 686.51 445.81"/><rect class="b22e2705-0dc4-4ca9-8a11-1c34156f7837" x="801.63" y="487.67" width="41.86" height="52.33" transform="translate(1645.12 1027.67) rotate(180)"/><rect class="b22e2705-0dc4-4ca9-8a11-1c34156f7837" x="723.14" y="487.67" width="41.86" height="52.33" transform="translate(1488.14 1027.67) rotate(180)"/><rect class="b22e2705-0dc4-4ca9-8a11-1c34156f7837" x="801.63" y="581.86" width="41.86" height="52.33" transform="translate(1645.12 1216.05) rotate(180)"/><rect class="b22e2705-0dc4-4ca9-8a11-1c34156f7837" x="723.14" y="581.86" width="41.86" height="52.33" transform="translate(1488.14 1216.05) rotate(180)"/><rect class="b22e2705-0dc4-4ca9-8a11-1c34156f7837" x="801.63" y="676.05" width="41.86" height="52.33" transform="translate(1645.12 1404.42) rotate(180)"/><rect class="b22e2705-0dc4-4ca9-8a11-1c34156f7837" x="723.14" y="676.05" width="41.86" height="52.33" transform="translate(1488.14 1404.42) rotate(180)"/><rect class="b22e2705-0dc4-4ca9-8a11-1c34156f7837" x="801.63" y="770.23" width="41.86" height="52.33" transform="translate(1645.12 1592.79) rotate(180)"/><rect class="b22e2705-0dc4-4ca9-8a11-1c34156f7837" x="723.14" y="770.23" width="41.86" height="52.33" transform="translate(1488.14 1592.79) rotate(180)"/><rect class="b22e2705-0dc4-4ca9-8a11-1c34156f7837" x="801.63" y="864.42" width="41.86" height="52.33" transform="translate(1645.12 1781.16) rotate(180)"/><rect class="b22e2705-0dc4-4ca9-8a11-1c34156f7837" x="723.14" y="864.42" width="41.86" height="52.33" transform="translate(1488.14 1781.16) rotate(180)"/><path class="e9f4d20a-7891-4fac-8337-ceb1a9b873eb" d="M765,545.23H723.14a5.23,5.23,0,0,1-5.23-5.23V487.67a5.23,5.23,0,0,1,5.23-5.23H765a5.23,5.23,0,0,1,5.23,5.23V540A5.23,5.23,0,0,1,765,545.23Zm-36.63-10.46h31.4V492.91h-31.4Z"/><path class="e9f4d20a-7891-4fac-8337-ceb1a9b873eb" d="M843.49,545.23H801.63A5.23,5.23,0,0,1,796.4,540V487.67a5.23,5.23,0,0,1,5.23-5.23h41.86a5.23,5.23,0,0,1,5.23,5.23V540A5.23,5.23,0,0,1,843.49,545.23Zm-36.63-10.46h31.4V492.91h-31.4Z"/><path class="e9f4d20a-7891-4fac-8337-ceb1a9b873eb" d="M765,639.42H723.14a5.23,5.23,0,0,1-5.23-5.23V581.86a5.23,5.23,0,0,1,5.23-5.23H765a5.23,5.23,0,0,1,5.23,5.23v52.33A5.23,5.23,0,0,1,765,639.42ZM728.37,629h31.4V587.09h-31.4Z"/><path class="e9f4d20a-7891-4fac-8337-ceb1a9b873eb" d="M843.49,639.42H801.63a5.23,5.23,0,0,1-5.23-5.23V581.86a5.23,5.23,0,0,1,5.23-5.23h41.86a5.23,5.23,0,0,1,5.23,5.23v52.33A5.23,5.23,0,0,1,843.49,639.42ZM806.86,629h31.4V587.09h-31.4Z"/><path class="e9f4d20a-7891-4fac-8337-ceb1a9b873eb" d="M765,733.6H723.14a5.23,5.23,0,0,1-5.23-5.23V676.05a5.23,5.23,0,0,1,5.23-5.24H765a5.23,5.23,0,0,1,5.23,5.24v52.32A5.23,5.23,0,0,1,765,733.6Zm-36.63-10.46h31.4V681.28h-31.4Z"/><path class="e9f4d20a-7891-4fac-8337-ceb1a9b873eb" d="M843.49,733.6H801.63a5.23,5.23,0,0,1-5.23-5.23V676.05a5.23,5.23,0,0,1,5.23-5.24h41.86a5.23,5.23,0,0,1,5.23,5.24v52.32A5.23,5.23,0,0,1,843.49,733.6Zm-36.63-10.46h31.4V681.28h-31.4Z"/><path class="e9f4d20a-7891-4fac-8337-ceb1a9b873eb" d="M765,827.79H723.14a5.23,5.23,0,0,1-5.23-5.23V770.23a5.23,5.23,0,0,1,5.23-5.23H765a5.23,5.23,0,0,1,5.23,5.23v52.33A5.23,5.23,0,0,1,765,827.79Zm-36.63-10.46h31.4V775.47h-31.4Z"/><path class="e9f4d20a-7891-4fac-8337-ceb1a9b873eb" d="M843.49,827.79H801.63a5.23,5.23,0,0,1-5.23-5.23V770.23a5.23,5.23,0,0,1,5.23-5.23h41.86a5.23,5.23,0,0,1,5.23,5.23v52.33A5.23,5.23,0,0,1,843.49,827.79Zm-36.63-10.46h31.4V775.47h-31.4Z"/><path class="e9f4d20a-7891-4fac-8337-ceb1a9b873eb" d="M765,922H723.14a5.23,5.23,0,0,1-5.23-5.24V864.42a5.23,5.23,0,0,1,5.23-5.23H765a5.23,5.23,0,0,1,5.23,5.23v52.32A5.23,5.23,0,0,1,765,922Zm-36.63-10.47h31.4V869.65h-31.4Z"/><path class="e9f4d20a-7891-4fac-8337-ceb1a9b873eb" d="M843.49,922H801.63a5.23,5.23,0,0,1-5.23-5.24V864.42a5.23,5.23,0,0,1,5.23-5.23h41.86a5.23,5.23,0,0,1,5.23,5.23v52.32A5.23,5.23,0,0,1,843.49,922Zm-36.63-10.47h31.4V869.65h-31.4Z"/><rect class="e9e94dda-af42-4654-8547-f9d72eb884fe" x="686.51" y="403.95" width="151.74" height="41.86"/><path class="bef2bcb0-e757-4b3c-8c8b-0995819b92d0" d="M838.26,451.05H686.51a5.23,5.23,0,0,1-5.23-5.24V404a5.23,5.23,0,0,1,5.23-5.23H838.26a5.23,5.23,0,0,1,5.23,5.23v41.86A5.23,5.23,0,0,1,838.26,451.05ZM691.74,440.58H833V409.19H691.74Z"/><path class="e9f4d20a-7891-4fac-8337-ceb1a9b873eb" d="M880.12,963.84H686.51a5.23,5.23,0,0,1-5.23-5.24V445.81a5.23,5.23,0,0,1,5.23-5.23H880.12a5.23,5.23,0,0,1,5.23,5.23v47.1a5.24,5.24,0,0,1-10.47,0V451.05H691.74V953.37H874.88V524.3a5.24,5.24,0,0,1,10.47,0V958.6A5.23,5.23,0,0,1,880.12,963.84Z"/><path class="e9f4d20a-7891-4fac-8337-ceb1a9b873eb" d="M848.72,922H796.4a5.24,5.24,0,1,1,0-10.47h52.32a5.24,5.24,0,0,1,0,10.47Z"/><path class="e9f4d20a-7891-4fac-8337-ceb1a9b873eb" d="M770.23,922H717.91a5.24,5.24,0,1,1,0-10.47h52.32a5.24,5.24,0,1,1,0,10.47Z"/><path class="e9f4d20a-7891-4fac-8337-ceb1a9b873eb" d="M848.72,827.79H796.4a5.23,5.23,0,1,1,0-10.46h52.32a5.23,5.23,0,1,1,0,10.46Z"/><path class="e9f4d20a-7891-4fac-8337-ceb1a9b873eb" d="M770.23,827.79H717.91a5.23,5.23,0,1,1,0-10.46h52.32a5.23,5.23,0,1,1,0,10.46Z"/><path class="e9f4d20a-7891-4fac-8337-ceb1a9b873eb" d="M848.72,733.6H796.4a5.23,5.23,0,1,1,0-10.46h52.32a5.23,5.23,0,0,1,0,10.46Z"/><path class="e9f4d20a-7891-4fac-8337-ceb1a9b873eb" d="M770.23,733.6H717.91a5.23,5.23,0,1,1,0-10.46h52.32a5.23,5.23,0,1,1,0,10.46Z"/><path class="e9f4d20a-7891-4fac-8337-ceb1a9b873eb" d="M848.72,639.42H796.4a5.24,5.24,0,1,1,0-10.47h52.32a5.24,5.24,0,0,1,0,10.47Z"/><path class="e9f4d20a-7891-4fac-8337-ceb1a9b873eb" d="M770.23,639.42H717.91a5.24,5.24,0,1,1,0-10.47h52.32a5.24,5.24,0,1,1,0,10.47Z"/><path class="e9f4d20a-7891-4fac-8337-ceb1a9b873eb" d="M848.72,545.23H796.4a5.23,5.23,0,1,1,0-10.46h52.32a5.23,5.23,0,0,1,0,10.46Z"/><path class="e9f4d20a-7891-4fac-8337-ceb1a9b873eb" d="M770.23,545.23H717.91a5.23,5.23,0,1,1,0-10.46h52.32a5.23,5.23,0,1,1,0,10.46Z"/><rect class="a9b1c581-da8b-4e0b-a383-719a1bbb1aeb" x="393.49" y="320.23" width="293.02" height="638.37"/><polygon class="b3febfb2-6277-46b1-beff-6c3c5a2fa892" points="393.49 320.23 393.49 958.61 491.2 958.61 393.49 320.23"/><rect class="fb4f0213-f90d-4fa4-b3d1-507218dc1463" x="519.07" y="362.09" width="41.86" height="52.33" transform="translate(1080 776.51) rotate(180)"/><path class="e9f4d20a-7891-4fac-8337-ceb1a9b873eb" d="M686.51,963.84h-293a5.23,5.23,0,0,1-5.23-5.24V320.23a5.23,5.23,0,0,1,5.23-5.23h293a5.23,5.23,0,0,1,5.23,5.23V958.6A5.23,5.23,0,0,1,686.51,963.84ZM398.72,953.37H681.28V325.47H398.72Z"/><rect class="fb4f0213-f90d-4fa4-b3d1-507218dc1463" x="602.79" y="362.09" width="41.86" height="52.33" transform="translate(1247.44 776.51) rotate(180)"/><path class="e9f4d20a-7891-4fac-8337-ceb1a9b873eb" d="M560.93,419.65H519.07a5.23,5.23,0,0,1-5.23-5.23V362.09a5.23,5.23,0,0,1,5.23-5.23h41.86a5.23,5.23,0,0,1,5.23,5.23v52.33A5.23,5.23,0,0,1,560.93,419.65ZM524.3,409.19h31.4V367.33H524.3Z"/><path class="e9f4d20a-7891-4fac-8337-ceb1a9b873eb" d="M644.65,419.65H602.79a5.23,5.23,0,0,1-5.23-5.23V362.09a5.23,5.23,0,0,1,5.23-5.23h41.86a5.23,5.23,0,0,1,5.23,5.23v52.33A5.23,5.23,0,0,1,644.65,419.65ZM608,409.19h31.4V367.33H608Z"/><rect class="fb4f0213-f90d-4fa4-b3d1-507218dc1463" x="435.35" y="362.09" width="41.86" height="52.33" transform="translate(912.56 776.51) rotate(180)"/><rect class="fb4f0213-f90d-4fa4-b3d1-507218dc1463" x="519.07" y="456.28" width="41.86" height="52.33" transform="translate(1080 964.88) rotate(180)"/><rect class="fb4f0213-f90d-4fa4-b3d1-507218dc1463" x="602.79" y="456.28" width="41.86" height="52.33" transform="translate(1247.44 964.88) rotate(180)"/><rect class="fb4f0213-f90d-4fa4-b3d1-507218dc1463" x="435.35" y="456.28" width="41.86" height="52.33" transform="translate(912.56 964.88) rotate(180)"/><rect class="fb4f0213-f90d-4fa4-b3d1-507218dc1463" x="519.07" y="550.47" width="41.86" height="52.33" transform="translate(1080 1153.26) rotate(180)"/><rect class="fb4f0213-f90d-4fa4-b3d1-507218dc1463" x="602.79" y="550.47" width="41.86" height="52.33" transform="translate(1247.44 1153.26) rotate(180)"/><rect class="fb4f0213-f90d-4fa4-b3d1-507218dc1463" x="435.35" y="550.47" width="41.86" height="52.33" transform="translate(912.56 1153.26) rotate(180)"/><rect class="fb4f0213-f90d-4fa4-b3d1-507218dc1463" x="519.07" y="644.65" width="41.86" height="52.33" transform="translate(1080 1341.63) rotate(180)"/><rect class="fb4f0213-f90d-4fa4-b3d1-507218dc1463" x="602.79" y="644.65" width="41.86" height="52.33" transform="translate(1247.44 1341.63) rotate(180)"/><rect class="b22e2705-0dc4-4ca9-8a11-1c34156f7837" x="435.35" y="644.65" width="41.86" height="52.33" transform="translate(912.56 1341.63) rotate(180)"/><polygon class="fb4f0213-f90d-4fa4-b3d1-507218dc1463" points="443.15 644.65 477.21 644.65 477.21 696.98 451.15 696.98 443.15 644.65"/><rect class="fb4f0213-f90d-4fa4-b3d1-507218dc1463" x="519.07" y="738.84" width="41.86" height="52.33" transform="translate(1080 1530) rotate(180)"/><rect class="fb4f0213-f90d-4fa4-b3d1-507218dc1463" x="602.79" y="738.84" width="41.86" height="52.33" transform="translate(1247.44 1530) rotate(180)"/><rect class="b22e2705-0dc4-4ca9-8a11-1c34156f7837" x="435.35" y="738.84" width="41.86" height="52.33" transform="translate(912.56 1530) rotate(180)"/><polygon class="fb4f0213-f90d-4fa4-b3d1-507218dc1463" points="457.56 738.84 477.21 738.84 477.21 791.16 465.57 791.16 457.56 738.84"/><path class="e9f4d20a-7891-4fac-8337-ceb1a9b873eb" d="M477.21,419.65H435.35a5.23,5.23,0,0,1-5.23-5.23V362.09a5.23,5.23,0,0,1,5.23-5.23h41.86a5.23,5.23,0,0,1,5.23,5.23v52.33A5.23,5.23,0,0,1,477.21,419.65Zm-36.63-10.46H472V367.33h-31.4Z"/><path class="e9f4d20a-7891-4fac-8337-ceb1a9b873eb" d="M560.93,513.84H519.07a5.23,5.23,0,0,1-5.23-5.24V456.28a5.23,5.23,0,0,1,5.23-5.23h41.86a5.23,5.23,0,0,1,5.23,5.23V508.6A5.23,5.23,0,0,1,560.93,513.84ZM524.3,503.37h31.4V461.51H524.3Z"/><path class="e9f4d20a-7891-4fac-8337-ceb1a9b873eb" d="M644.65,513.84H602.79a5.23,5.23,0,0,1-5.23-5.24V456.28a5.23,5.23,0,0,1,5.23-5.23h41.86a5.23,5.23,0,0,1,5.23,5.23V508.6A5.23,5.23,0,0,1,644.65,513.84ZM608,503.37h31.4V461.51H608Z"/><path class="e9f4d20a-7891-4fac-8337-ceb1a9b873eb" d="M477.21,513.84H435.35a5.23,5.23,0,0,1-5.23-5.24V456.28a5.23,5.23,0,0,1,5.23-5.23h41.86a5.23,5.23,0,0,1,5.23,5.23V508.6A5.23,5.23,0,0,1,477.21,513.84Zm-36.63-10.47H472V461.51h-31.4Z"/><path class="e9f4d20a-7891-4fac-8337-ceb1a9b873eb" d="M560.93,608H519.07a5.23,5.23,0,0,1-5.23-5.23V550.47a5.23,5.23,0,0,1,5.23-5.24h41.86a5.23,5.23,0,0,1,5.23,5.24v52.32A5.23,5.23,0,0,1,560.93,608ZM524.3,597.56h31.4V555.7H524.3Z"/><path class="e9f4d20a-7891-4fac-8337-ceb1a9b873eb" d="M644.65,608H602.79a5.23,5.23,0,0,1-5.23-5.23V550.47a5.23,5.23,0,0,1,5.23-5.24h41.86a5.23,5.23,0,0,1,5.23,5.24v52.32A5.23,5.23,0,0,1,644.65,608ZM608,597.56h31.4V555.7H608Z"/><path class="e9f4d20a-7891-4fac-8337-ceb1a9b873eb" d="M477.21,608H435.35a5.23,5.23,0,0,1-5.23-5.23V550.47a5.23,5.23,0,0,1,5.23-5.24h41.86a5.23,5.23,0,0,1,5.23,5.24v52.32A5.23,5.23,0,0,1,477.21,608Zm-36.63-10.46H472V555.7h-31.4Z"/><path class="e9f4d20a-7891-4fac-8337-ceb1a9b873eb" d="M560.93,702.21H519.07a5.23,5.23,0,0,1-5.23-5.23V644.65a5.23,5.23,0,0,1,5.23-5.23h41.86a5.23,5.23,0,0,1,5.23,5.23V697A5.23,5.23,0,0,1,560.93,702.21ZM524.3,691.74h31.4V649.88H524.3Z"/><path class="e9f4d20a-7891-4fac-8337-ceb1a9b873eb" d="M644.65,702.21H602.79a5.23,5.23,0,0,1-5.23-5.23V644.65a5.23,5.23,0,0,1,5.23-5.23h41.86a5.23,5.23,0,0,1,5.23,5.23V697A5.23,5.23,0,0,1,644.65,702.21ZM608,691.74h31.4V649.88H608Z"/><path class="e9f4d20a-7891-4fac-8337-ceb1a9b873eb" d="M477.21,702.21H435.35a5.23,5.23,0,0,1-5.23-5.23V644.65a5.23,5.23,0,0,1,5.23-5.23h41.86a5.23,5.23,0,0,1,5.23,5.23V697A5.23,5.23,0,0,1,477.21,702.21Zm-36.63-10.47H472V649.88h-31.4Z"/><path class="e9f4d20a-7891-4fac-8337-ceb1a9b873eb" d="M560.93,796.4H519.07a5.24,5.24,0,0,1-5.23-5.24V738.84a5.24,5.24,0,0,1,5.23-5.24h41.86a5.24,5.24,0,0,1,5.23,5.24v52.32A5.24,5.24,0,0,1,560.93,796.4ZM524.3,785.93h31.4V744.07H524.3Z"/><path class="e9f4d20a-7891-4fac-8337-ceb1a9b873eb" d="M644.65,796.4H602.79a5.24,5.24,0,0,1-5.23-5.24V738.84a5.24,5.24,0,0,1,5.23-5.24h41.86a5.24,5.24,0,0,1,5.23,5.24v52.32A5.24,5.24,0,0,1,644.65,796.4ZM608,785.93h31.4V744.07H608Z"/><path class="e9f4d20a-7891-4fac-8337-ceb1a9b873eb" d="M477.21,796.4H435.35a5.24,5.24,0,0,1-5.23-5.24V738.84a5.24,5.24,0,0,1,5.23-5.24h41.86a5.24,5.24,0,0,1,5.23,5.24v52.32A5.24,5.24,0,0,1,477.21,796.4Zm-36.63-10.47H472V744.07h-31.4Z"/><rect class="fb4f0213-f90d-4fa4-b3d1-507218dc1463" x="571.4" y="833.02" width="62.79" height="125.58"/><rect class="b22e2705-0dc4-4ca9-8a11-1c34156f7837" x="445.81" y="833.02" width="62.79" height="125.58"/><polygon class="fb4f0213-f90d-4fa4-b3d1-507218dc1463" points="508.61 833.02 471.98 833.02 491.2 958.61 508.61 958.61 508.61 833.02"/><rect class="fb4f0213-f90d-4fa4-b3d1-507218dc1463" x="508.6" y="833.02" width="62.79" height="125.58"/><path class="e9f4d20a-7891-4fac-8337-ceb1a9b873eb" d="M634.19,963.84H571.4a5.23,5.23,0,0,1-5.24-5.24V833a5.23,5.23,0,0,1,5.24-5.23h62.79a5.23,5.23,0,0,1,5.23,5.23V958.6A5.23,5.23,0,0,1,634.19,963.84Zm-57.56-10.47H629V838.26H576.63Z"/><path class="e9f4d20a-7891-4fac-8337-ceb1a9b873eb" d="M508.6,963.84H445.81a5.23,5.23,0,0,1-5.23-5.24V833a5.23,5.23,0,0,1,5.23-5.23H508.6a5.23,5.23,0,0,1,5.24,5.23V958.6A5.23,5.23,0,0,1,508.6,963.84Zm-57.55-10.47h52.32V838.26H451.05Z"/><path class="e9f4d20a-7891-4fac-8337-ceb1a9b873eb" d="M571.4,963.84H508.6a5.23,5.23,0,0,1-5.23-5.24V833a5.23,5.23,0,0,1,5.23-5.23h62.8a5.23,5.23,0,0,1,5.23,5.23V958.6A5.23,5.23,0,0,1,571.4,963.84Zm-57.56-10.47h52.32V838.26H513.84Z"/><rect class="a672387d-3f7e-4185-823a-a02577895883" x="430.12" y="278.37" width="219.77" height="41.86"/><path class="bef2bcb0-e757-4b3c-8c8b-0995819b92d0" d="M649.88,325.47H430.12a5.24,5.24,0,0,1-5.24-5.24V278.37a5.23,5.23,0,0,1,5.24-5.23h57.55a5.23,5.23,0,1,1,0,10.46H435.35V315h209.3V283.6H519.07a5.23,5.23,0,0,1,0-10.46H649.88a5.23,5.23,0,0,1,5.24,5.23v41.86A5.24,5.24,0,0,1,649.88,325.47Z"/><path class="e9f4d20a-7891-4fac-8337-ceb1a9b873eb" d="M649.88,838.26H430.12a5.24,5.24,0,1,1,0-10.47H649.88a5.24,5.24,0,1,1,0,10.47Z"/><path class="e9f4d20a-7891-4fac-8337-ceb1a9b873eb" d="M482.44,513.84H430.12a5.24,5.24,0,1,1,0-10.47h52.32a5.24,5.24,0,0,1,0,10.47Z"/><path class="e9f4d20a-7891-4fac-8337-ceb1a9b873eb" d="M566.16,513.84H513.84a5.24,5.24,0,1,1,0-10.47h52.32a5.24,5.24,0,1,1,0,10.47Z"/><path class="e9f4d20a-7891-4fac-8337-ceb1a9b873eb" d="M649.88,513.84H597.56a5.24,5.24,0,0,1,0-10.47h52.32a5.24,5.24,0,1,1,0,10.47Z"/><path class="e9f4d20a-7891-4fac-8337-ceb1a9b873eb" d="M482.44,419.65H430.12a5.23,5.23,0,1,1,0-10.46h52.32a5.23,5.23,0,0,1,0,10.46Z"/><path class="e9f4d20a-7891-4fac-8337-ceb1a9b873eb" d="M566.16,419.65H513.84a5.23,5.23,0,1,1,0-10.46h52.32a5.23,5.23,0,1,1,0,10.46Z"/><path class="e9f4d20a-7891-4fac-8337-ceb1a9b873eb" d="M649.88,419.65H597.56a5.23,5.23,0,1,1,0-10.46h52.32a5.23,5.23,0,1,1,0,10.46Z"/><path class="e9f4d20a-7891-4fac-8337-ceb1a9b873eb" d="M482.44,608H430.12a5.23,5.23,0,1,1,0-10.46h52.32a5.23,5.23,0,1,1,0,10.46Z"/><path class="e9f4d20a-7891-4fac-8337-ceb1a9b873eb" d="M566.16,608H513.84a5.23,5.23,0,1,1,0-10.46h52.32a5.23,5.23,0,1,1,0,10.46Z"/><path class="e9f4d20a-7891-4fac-8337-ceb1a9b873eb" d="M649.88,608H597.56a5.23,5.23,0,1,1,0-10.46h52.32a5.23,5.23,0,1,1,0,10.46Z"/><path class="e9f4d20a-7891-4fac-8337-ceb1a9b873eb" d="M482.44,702.21H430.12a5.24,5.24,0,1,1,0-10.47h52.32a5.24,5.24,0,0,1,0,10.47Z"/><path class="e9f4d20a-7891-4fac-8337-ceb1a9b873eb" d="M566.16,702.21H513.84a5.24,5.24,0,1,1,0-10.47h52.32a5.24,5.24,0,1,1,0,10.47Z"/><path class="e9f4d20a-7891-4fac-8337-ceb1a9b873eb" d="M649.88,702.21H597.56a5.24,5.24,0,0,1,0-10.47h52.32a5.24,5.24,0,1,1,0,10.47Z"/><path class="e9f4d20a-7891-4fac-8337-ceb1a9b873eb" d="M482.44,796.4H430.12a5.24,5.24,0,1,1,0-10.47h52.32a5.24,5.24,0,0,1,0,10.47Z"/><path class="e9f4d20a-7891-4fac-8337-ceb1a9b873eb" d="M566.16,796.4H513.84a5.24,5.24,0,1,1,0-10.47h52.32a5.24,5.24,0,1,1,0,10.47Z"/><path class="e9f4d20a-7891-4fac-8337-ceb1a9b873eb" d="M649.88,796.4H597.56a5.24,5.24,0,0,1,0-10.47h52.32a5.24,5.24,0,1,1,0,10.47Z"/><rect class="b33489fb-bbd9-47c6-b0cb-b25e1765e071" x="199.88" y="445.81" width="193.6" height="512.79" transform="translate(593.37 1404.42) rotate(180)"/><rect class="b22e2705-0dc4-4ca9-8a11-1c34156f7837" x="315" y="487.67" width="41.86" height="52.33" transform="translate(671.86 1027.67) rotate(180)"/><rect class="b22e2705-0dc4-4ca9-8a11-1c34156f7837" x="236.51" y="487.67" width="41.86" height="52.33" transform="translate(514.88 1027.67) rotate(180)"/><rect class="b22e2705-0dc4-4ca9-8a11-1c34156f7837" x="315" y="581.86" width="41.86" height="52.33" transform="translate(671.86 1216.05) rotate(180)"/><rect class="b22e2705-0dc4-4ca9-8a11-1c34156f7837" x="236.51" y="581.86" width="41.86" height="52.33" transform="translate(514.88 1216.05) rotate(180)"/><rect class="b22e2705-0dc4-4ca9-8a11-1c34156f7837" x="315" y="676.05" width="41.86" height="52.33" transform="translate(671.86 1404.42) rotate(180)"/><rect class="b22e2705-0dc4-4ca9-8a11-1c34156f7837" x="236.51" y="676.05" width="41.86" height="52.33" transform="translate(514.88 1404.42) rotate(180)"/><rect class="b22e2705-0dc4-4ca9-8a11-1c34156f7837" x="315" y="770.23" width="41.86" height="52.33" transform="translate(671.86 1592.79) rotate(180)"/><polygon class="edbb5894-9139-45e2-909c-f5dfcf6d51be" points="199.88 445.81 199.88 958.61 278.37 958.61 199.88 445.81"/><rect class="b22e2705-0dc4-4ca9-8a11-1c34156f7837" x="236.51" y="770.23" width="41.86" height="52.33" transform="translate(514.88 1592.79) rotate(180)"/><rect class="b22e2705-0dc4-4ca9-8a11-1c34156f7837" x="315" y="864.42" width="41.86" height="52.33" transform="translate(671.86 1781.16) rotate(180)"/><rect class="b22e2705-0dc4-4ca9-8a11-1c34156f7837" x="236.51" y="864.42" width="41.86" height="52.33" transform="translate(514.88 1781.16) rotate(180)"/><path class="e9f4d20a-7891-4fac-8337-ceb1a9b873eb" d="M356.86,545.23H315a5.23,5.23,0,0,1-5.23-5.23V487.67a5.23,5.23,0,0,1,5.23-5.23h41.86a5.23,5.23,0,0,1,5.23,5.23V540A5.23,5.23,0,0,1,356.86,545.23Zm-36.63-10.46h31.4V492.91h-31.4Z"/><path class="e9f4d20a-7891-4fac-8337-ceb1a9b873eb" d="M278.37,545.23H236.51a5.23,5.23,0,0,1-5.23-5.23V487.67a5.23,5.23,0,0,1,5.23-5.23h41.86a5.23,5.23,0,0,1,5.23,5.23V540A5.23,5.23,0,0,1,278.37,545.23Zm-36.63-10.46h31.4V492.91h-31.4Z"/><path class="e9f4d20a-7891-4fac-8337-ceb1a9b873eb" d="M356.86,639.42H315a5.23,5.23,0,0,1-5.23-5.23V581.86a5.23,5.23,0,0,1,5.23-5.23h41.86a5.23,5.23,0,0,1,5.23,5.23v52.33A5.23,5.23,0,0,1,356.86,639.42ZM320.23,629h31.4V587.09h-31.4Z"/><path class="e9f4d20a-7891-4fac-8337-ceb1a9b873eb" d="M278.37,639.42H236.51a5.23,5.23,0,0,1-5.23-5.23V581.86a5.23,5.23,0,0,1,5.23-5.23h41.86a5.23,5.23,0,0,1,5.23,5.23v52.33A5.23,5.23,0,0,1,278.37,639.42ZM241.74,629h31.4V587.09h-31.4Z"/><path class="e9f4d20a-7891-4fac-8337-ceb1a9b873eb" d="M356.86,733.6H315a5.23,5.23,0,0,1-5.23-5.23V676.05a5.23,5.23,0,0,1,5.23-5.24h41.86a5.23,5.23,0,0,1,5.23,5.24v52.32A5.23,5.23,0,0,1,356.86,733.6Zm-36.63-10.46h31.4V681.28h-31.4Z"/><path class="e9f4d20a-7891-4fac-8337-ceb1a9b873eb" d="M278.37,733.6H236.51a5.23,5.23,0,0,1-5.23-5.23V676.05a5.23,5.23,0,0,1,5.23-5.24h41.86a5.23,5.23,0,0,1,5.23,5.24v52.32A5.23,5.23,0,0,1,278.37,733.6Zm-36.63-10.46h31.4V681.28h-31.4Z"/><path class="e9f4d20a-7891-4fac-8337-ceb1a9b873eb" d="M356.86,827.79H315a5.23,5.23,0,0,1-5.23-5.23V770.23A5.23,5.23,0,0,1,315,765h41.86a5.23,5.23,0,0,1,5.23,5.23v52.33A5.23,5.23,0,0,1,356.86,827.79Zm-36.63-10.46h31.4V775.47h-31.4Z"/><path class="e9f4d20a-7891-4fac-8337-ceb1a9b873eb" d="M278.37,827.79H236.51a5.23,5.23,0,0,1-5.23-5.23V770.23a5.23,5.23,0,0,1,5.23-5.23h41.86a5.23,5.23,0,0,1,5.23,5.23v52.33A5.23,5.23,0,0,1,278.37,827.79Zm-36.63-10.46h31.4V775.47h-31.4Z"/><path class="e9f4d20a-7891-4fac-8337-ceb1a9b873eb" d="M356.86,922H315a5.23,5.23,0,0,1-5.23-5.24V864.42a5.23,5.23,0,0,1,5.23-5.23h41.86a5.23,5.23,0,0,1,5.23,5.23v52.32A5.23,5.23,0,0,1,356.86,922Zm-36.63-10.47h31.4V869.65h-31.4Z"/><path class="e9f4d20a-7891-4fac-8337-ceb1a9b873eb" d="M278.37,922H236.51a5.23,5.23,0,0,1-5.23-5.24V864.42a5.23,5.23,0,0,1,5.23-5.23h41.86a5.23,5.23,0,0,1,5.23,5.23v52.32A5.23,5.23,0,0,1,278.37,922Zm-36.63-10.47h31.4V869.65h-31.4Z"/><rect class="e9e94dda-af42-4654-8547-f9d72eb884fe" x="241.74" y="403.95" width="151.74" height="41.86" transform="translate(635.23 849.77) rotate(180)"/><path class="e9f4d20a-7891-4fac-8337-ceb1a9b873eb" d="M393.49,451.05H241.74a5.23,5.23,0,0,1-5.23-5.24V404a5.23,5.23,0,0,1,5.23-5.23H393.49a5.23,5.23,0,0,1,5.23,5.23v41.86A5.23,5.23,0,0,1,393.49,451.05ZM247,440.58H388.26V409.19H247Z"/><path class="e9f4d20a-7891-4fac-8337-ceb1a9b873eb" d="M393.49,963.84H199.88a5.23,5.23,0,0,1-5.23-5.24V723.14a5.24,5.24,0,0,1,10.47,0V953.37H388.26V451.05H205.12V691.74a5.24,5.24,0,1,1-10.47,0V445.81a5.23,5.23,0,0,1,5.23-5.23H393.49a5.23,5.23,0,0,1,5.23,5.23V958.6A5.23,5.23,0,0,1,393.49,963.84Z"/><path class="e9f4d20a-7891-4fac-8337-ceb1a9b873eb" d="M362.09,639.42H309.77a5.24,5.24,0,1,1,0-10.47h52.32a5.24,5.24,0,1,1,0,10.47Z"/><path class="e9f4d20a-7891-4fac-8337-ceb1a9b873eb" d="M283.6,639.42H231.28a5.24,5.24,0,0,1,0-10.47H283.6a5.24,5.24,0,1,1,0,10.47Z"/><path class="e9f4d20a-7891-4fac-8337-ceb1a9b873eb" d="M362.09,545.23H309.77a5.23,5.23,0,1,1,0-10.46h52.32a5.23,5.23,0,1,1,0,10.46Z"/><path class="e9f4d20a-7891-4fac-8337-ceb1a9b873eb" d="M283.6,545.23H231.28a5.23,5.23,0,1,1,0-10.46H283.6a5.23,5.23,0,1,1,0,10.46Z"/><path class="e9f4d20a-7891-4fac-8337-ceb1a9b873eb" d="M362.09,827.79H309.77a5.23,5.23,0,1,1,0-10.46h52.32a5.23,5.23,0,1,1,0,10.46Z"/><path class="e9f4d20a-7891-4fac-8337-ceb1a9b873eb" d="M283.6,827.79H231.28a5.23,5.23,0,0,1,0-10.46H283.6a5.23,5.23,0,1,1,0,10.46Z"/><path class="e9f4d20a-7891-4fac-8337-ceb1a9b873eb" d="M362.09,922H309.77a5.24,5.24,0,1,1,0-10.47h52.32a5.24,5.24,0,1,1,0,10.47Z"/><path class="e9f4d20a-7891-4fac-8337-ceb1a9b873eb" d="M283.6,922H231.28a5.24,5.24,0,0,1,0-10.47H283.6a5.24,5.24,0,1,1,0,10.47Z"/><path class="e9f4d20a-7891-4fac-8337-ceb1a9b873eb" d="M362.09,733.6H309.77a5.23,5.23,0,1,1,0-10.46h52.32a5.23,5.23,0,1,1,0,10.46Z"/><path class="e9f4d20a-7891-4fac-8337-ceb1a9b873eb" d="M283.6,733.6H231.28a5.23,5.23,0,1,1,0-10.46H283.6a5.23,5.23,0,1,1,0,10.46Z"/><path class="edbb5894-9139-45e2-909c-f5dfcf6d51be" d="M451.05,152.79H398.72a5.23,5.23,0,0,1,0-10.46h52.33a5.23,5.23,0,0,1,0,10.46Z"/><path class="edbb5894-9139-45e2-909c-f5dfcf6d51be" d="M424.88,179a5.23,5.23,0,0,1-5.23-5.23V121.4a5.24,5.24,0,1,1,10.47,0v52.32A5.23,5.23,0,0,1,424.88,179Z"/><path class="edbb5894-9139-45e2-909c-f5dfcf6d51be" d="M880.12,262.67H827.79a5.23,5.23,0,0,1,0-10.46h52.33a5.23,5.23,0,1,1,0,10.46Z"/><path class="edbb5894-9139-45e2-909c-f5dfcf6d51be" d="M854,288.84a5.23,5.23,0,0,1-5.23-5.24V231.28a5.24,5.24,0,0,1,10.47,0V283.6A5.23,5.23,0,0,1,854,288.84Z"/><path class="edbb5894-9139-45e2-909c-f5dfcf6d51be" d="M179,791.16H137.09a5.23,5.23,0,0,1,0-10.46H179a5.23,5.23,0,1,1,0,10.46Z"/><path class="edbb5894-9139-45e2-909c-f5dfcf6d51be" d="M158,812.09a5.23,5.23,0,0,1-5.23-5.23V765a5.24,5.24,0,0,1,10.47,0v41.86A5.23,5.23,0,0,1,158,812.09Z"/><path class="edbb5894-9139-45e2-909c-f5dfcf6d51be" d="M649.88,220.81H608a5.23,5.23,0,0,1,0-10.46h41.86a5.23,5.23,0,1,1,0,10.46Z"/><path class="edbb5894-9139-45e2-909c-f5dfcf6d51be" d="M629,241.74a5.23,5.23,0,0,1-5.23-5.23V194.65a5.24,5.24,0,0,1,10.47,0v41.86A5.23,5.23,0,0,1,629,241.74Z"/><path class="edbb5894-9139-45e2-909c-f5dfcf6d51be" d="M257.44,341.16H215.58a5.23,5.23,0,1,1,0-10.46h41.86a5.23,5.23,0,0,1,0,10.46Z"/><path class="edbb5894-9139-45e2-909c-f5dfcf6d51be" d="M236.51,362.09a5.23,5.23,0,0,1-5.23-5.23V315a5.23,5.23,0,0,1,10.46,0v41.86A5.23,5.23,0,0,1,236.51,362.09Z"/><path class="edbb5894-9139-45e2-909c-f5dfcf6d51be" d="M147.56,513.84H95.23a5.24,5.24,0,0,1,0-10.47h52.33a5.24,5.24,0,0,1,0,10.47Z"/><path class="edbb5894-9139-45e2-909c-f5dfcf6d51be" d="M121.4,540a5.23,5.23,0,0,1-5.24-5.23V482.44a5.24,5.24,0,0,1,10.47,0v52.33A5.23,5.23,0,0,1,121.4,540Z"/><path class="edbb5894-9139-45e2-909c-f5dfcf6d51be" d="M984.77,639.42H932.44a5.24,5.24,0,0,1,0-10.47h52.33a5.24,5.24,0,0,1,0,10.47Z"/><path class="edbb5894-9139-45e2-909c-f5dfcf6d51be" d="M958.6,665.58a5.23,5.23,0,0,1-5.23-5.23V608a5.24,5.24,0,0,1,10.47,0v52.33A5.23,5.23,0,0,1,958.6,665.58Z"/><path class="edbb5894-9139-45e2-909c-f5dfcf6d51be" d="M942.91,864.42H901.05a5.24,5.24,0,1,1,0-10.47h41.86a5.24,5.24,0,0,1,0,10.47Z"/><path class="edbb5894-9139-45e2-909c-f5dfcf6d51be" d="M922,885.35a5.23,5.23,0,0,1-5.24-5.23V838.26a5.24,5.24,0,1,1,10.47,0v41.86A5.23,5.23,0,0,1,922,885.35Z"/></svg>