<?xml version="1.0" encoding="UTF-8"?>
<svg id="Capa_1" data-name="Capa 1" xmlns="http://www.w3.org/2000/svg" viewBox="0 0 1080 1080">
  <defs>
    <style>
      .cls-1 {
        fill: #f6f6f6;
      }

      .cls-2 {
        fill: #66a8e3;
      }

      .cls-3 {
        fill: #ebebeb;
      }

      .cls-4 {
        fill: #fff;
      }

      .cls-5 {
        fill: #9799a4;
      }

      .cls-6 {
        fill: #9c9aaa;
      }

      .cls-7 {
        fill: #65b3f0;
      }

      .cls-8 {
        fill: #2d3041;
      }

      .cls-9 {
        fill: #35384c;
      }

      .cls-10 {
        fill: #545869;
      }

      .cls-11 {
        fill: #76c6ef;
      }
    </style>
  </defs>
  <path class="cls-1" d="m861.66,385.38c-33.68-64.35-21.7-176.53-82.76-215.43-59.19-37.71-153.84,20.36-228.86,17.35-75.03-3.01-164.79-68.47-226.77-35.62-63.94,33.89-60.87,146.66-99.53,208.12-37.47,59.57-140.89,104.29-143.89,179.8-2.99,75.51,90.31,133.19,122.95,195.57,33.68,64.35,10.37,160.79,89.03,210.61,59.29,37.55,153.84-20.36,228.86-17.35,75.03,3.01,164.79,68.47,226.77,35.62,63.94-33.89,60.87-146.67,99.53-208.12,37.47-59.56,140.89-104.29,143.88-179.8,2.99-75.51-96.57-128.37-129.21-190.75Z"/>
  <path class="cls-4" d="m299.66,523.12c3.99-123.68,104.26-226.29,227.83-232.9,139.21-7.44,254.43,103.25,254.43,240.84,0,70.61-30.45,133.98-78.84,178.04-23.16,21.07-36.01,51.17-36.01,82.48v2.11c0,11.84-9.6,21.44-21.44,21.44h-209.79c-11.84,0-21.44-9.6-21.44-21.44v-2.05c0-31.1-12.48-61.23-35.53-82.11-50.48-45.71-81.57-112.39-79.19-186.41Z"/>
  <path class="cls-3" d="m626.33,305.52c67.71,42.71,112.71,118.14,112.71,204.1,0,70.61-30.45,133.98-78.85,178.04-23.15,21.07-36.01,51.17-36.01,82.48v44.99h21.44c11.84,0,21.44-9.6,21.44-21.44v-2.11c0-31.31,12.85-61.41,36.01-82.48,48.4-44.06,78.85-107.43,78.85-178.04,0-103.06-64.64-191.01-155.58-225.54Z"/>
  <path class="cls-8" d="m645.62,820.49h-209.79c-14.78,0-26.8-12.02-26.8-26.8v-2.05c0-30.23-12.31-58.71-33.77-78.14-2.56-2.32-5.08-4.69-7.54-7.11-2.1-2.08-2.13-5.47-.06-7.58,2.07-2.1,5.46-2.14,7.58-.06,2.36,2.32,4.76,4.59,7.21,6.81,23.7,21.45,37.29,52.83,37.29,86.08v2.05c0,8.87,7.21,16.08,16.08,16.08h209.79c8.87,0,16.08-7.21,16.08-16.08v-2.11c0-33.1,13.77-64.6,37.76-86.44,48.99-44.6,77.09-108.05,77.09-174.08,0-52.44-16.84-102.07-48.7-143.54-1.81-2.35-1.36-5.71.98-7.52,2.36-1.81,5.71-1.36,7.52.98,33.32,43.36,50.92,95.25,50.92,150.07,0,69.04-29.37,135.38-80.6,182-21.77,19.82-34.26,48.43-34.26,78.52v2.11c0,14.78-12.02,26.8-26.8,26.8Z"/>
  <path class="cls-8" d="m348.68,682.05c-1.62,0-3.21-.73-4.27-2.11-34.62-45.42-51.95-99.7-50.11-156.99,4.08-126.74,106.38-231.31,232.89-238.07,69.82-3.72,135.77,21.02,185.66,69.68,2.12,2.07,2.16,5.46.09,7.58-2.07,2.12-5.46,2.17-7.58.09-47.72-46.55-110.78-70.22-177.6-66.65-121.01,6.47-218.85,106.49-222.76,227.72-1.76,54.8,14.81,106.72,47.92,150.15,1.8,2.36,1.35,5.72-1.01,7.51-.97.74-2.11,1.1-3.25,1.1Z"/>
  <path class="cls-10" d="m630.24,909.83l-182.23-18.22c-8.22-.82-14.48-7.74-14.48-16v-10.56c0-9.51,8.21-16.94,17.68-16l182.23,18.22c8.22.82,14.48,7.74,14.48,16v10.56c0,9.52-8.21,16.95-17.68,16Z"/>
  <path class="cls-10" d="m631.84,943.76h-182.23c-8.88,0-16.08-7.2-16.08-16.08v-19.75c0-9.51,8.21-16.94,17.68-16l182.23,18.22c8.22.82,14.48,7.74,14.48,16v1.53c0,8.88-7.2,16.08-16.08,16.08Z"/>
  <path class="cls-10" d="m630.24,866.96l-182.23-18.22c-8.22-.82-14.48-7.74-14.48-16v-17.61h214.39v35.83c0,9.52-8.21,16.95-17.68,16Z"/>
  <path class="cls-2" d="m540.72,825.85c-5.92,0-10.72-4.8-10.72-10.72v-67.86c0-5.92,4.8-10.72,10.72-10.72s10.72,4.8,10.72,10.72v67.86c0,5.92-4.8,10.72-10.72,10.72Z"/>
  <path class="cls-2" d="m540.73,758c-4.21,0-8.2-2.49-9.91-6.62-2.27-5.47.33-11.74,5.8-14.01l26.8-11.1c5.46-2.27,11.74.33,14.01,5.8,2.27,5.47-.33,11.74-5.8,14.01l-26.8,11.1c-1.34.55-2.73.82-4.1.82Z"/>
  <path class="cls-2" d="m540.72,758c-1.37,0-2.75-.27-4.1-.82l-26.8-11.1c-5.47-2.27-8.07-8.54-5.8-14.01,2.27-5.46,8.52-8.07,14.01-5.8l26.8,11.1c5.47,2.27,8.07,8.54,5.8,14.01-1.71,4.12-5.7,6.62-9.91,6.62Z"/>
  <path class="cls-9" d="m647.92,850.96v-35.83h-214.39v10.72l185.9,20.91c2.71.3,4.76,2.6,4.76,5.32v91.69h7.66c8.88,0,16.08-7.2,16.08-16.08v-1.53c0-8.26-6.26-15.18-14.48-16l-.5-.34c8.27-.56,14.98-7.39,14.98-15.98v-10.56c0-8.26-6.26-15.18-14.48-16l-.5-.34c8.27-.56,14.98-7.39,14.98-15.98Z"/>
  <path class="cls-8" d="m631.83,915.27c-.71,0-1.41-.04-2.12-.11l-182.23-18.22c-11-1.1-19.3-10.27-19.3-21.33v-10.56c0-6.05,2.57-11.83,7.05-15.89,4.49-4.06,10.47-6.01,16.52-5.44l182.23,18.22c11,1.1,19.3,10.27,19.3,21.33v10.56c0,6.05-2.57,11.84-7.06,15.9-3.95,3.58-9.1,5.54-14.39,5.54Zm-182.26-60.94c-2.65,0-5.16.97-7.16,2.77-2.28,2.06-3.53,4.88-3.53,7.95v10.56c0,5.53,4.15,10.12,9.65,10.67l182.23,18.22h0c3.06.32,5.99-.66,8.26-2.72,2.28-2.06,3.53-4.88,3.53-7.95v-10.56c0-5.53-4.15-10.12-9.65-10.67l-182.23-18.22c-.37-.04-.74-.06-1.1-.06Z"/>
  <path class="cls-8" d="m631.84,949.12h-182.23c-11.82,0-21.44-9.61-21.44-21.44v-19.75c0-6.05,2.57-11.83,7.05-15.89,4.49-4.06,10.47-6.01,16.52-5.44l182.23,18.22c11,1.1,19.3,10.27,19.3,21.33v1.53c0,11.82-9.61,21.44-21.44,21.44Zm-182.27-51.91c-2.65,0-5.16.97-7.16,2.77-2.28,2.06-3.53,4.88-3.53,7.95v19.75c0,5.91,4.81,10.72,10.72,10.72h182.23c5.91,0,10.72-4.81,10.72-10.72v-1.53c0-5.53-4.15-10.12-9.65-10.67l-182.23-18.22c-.37-.04-.74-.06-1.1-.06Z"/>
  <path class="cls-6" d="m580.92,986.64h-80.4c-8.44,0-16.38-3.97-21.44-10.72l-24.12-32.16h171.51l-24.12,32.16c-5.06,6.75-13,10.72-21.44,10.72Z"/>
  <path class="cls-8" d="m580.92,992h-80.4c-10.07,0-19.69-4.81-25.73-12.86l-24.12-32.16c-1.22-1.62-1.41-3.79-.51-5.61.91-1.82,2.76-2.96,4.79-2.96h171.51c2.03,0,3.88,1.15,4.79,2.96.91,1.82.71,3.99-.51,5.61l-24.12,32.16c-6.04,8.06-15.66,12.87-25.73,12.87Zm-115.23-42.88l17.69,23.59c4.03,5.37,10.44,8.57,17.15,8.57h80.4c6.71,0,13.12-3.21,17.15-8.58l17.69-23.58h-150.07Z"/>
  <path class="cls-8" d="m631.83,872.4c-.71,0-1.41-.04-2.12-.11l-182.23-18.22c-11-1.1-19.3-10.27-19.3-21.33v-17.61c0-2.96,2.4-5.36,5.36-5.36h214.39c2.96,0,5.36,2.4,5.36,5.36s-2.4,5.36-5.36,5.36h-209.03v12.25c0,5.53,4.15,10.12,9.65,10.67l182.23,18.22c3.06.3,5.99-.66,8.26-2.72,2.28-2.06,3.53-4.88,3.53-7.95v-3.67c0-2.96,2.4-5.36,5.36-5.36s5.36,2.4,5.36,5.36v3.67c0,6.05-2.57,11.84-7.06,15.9-3.95,3.58-9.1,5.54-14.39,5.54Z"/>
  <path class="cls-7" d="m883.75,541.78h-69.68c-5.92,0-10.72-4.8-10.72-10.72s4.8-10.72,10.72-10.72h69.68c5.92,0,10.72,4.8,10.72,10.72s-4.8,10.72-10.72,10.72Z"/>
  <path class="cls-7" d="m267.38,541.78h-69.68c-5.92,0-10.72-4.8-10.72-10.72s4.8-10.72,10.72-10.72h69.68c5.92,0,10.72,4.8,10.72,10.72s-4.8,10.72-10.72,10.72Z"/>
  <path class="cls-5" d="m883.75,541.78h-69.68c-5.92,0-10.72-4.8-10.72-10.72s4.8-10.72,10.72-10.72h69.68c5.92,0,10.72,4.8,10.72,10.72s-4.8,10.72-10.72,10.72Z"/>
  <path class="cls-5" d="m267.38,541.78h-69.68c-5.92,0-10.72-4.8-10.72-10.72s4.8-10.72,10.72-10.72h69.68c5.92,0,10.72,4.8,10.72,10.72s-4.8,10.72-10.72,10.72Z"/>
  <path class="cls-5" d="m777.46,405.11c-3.71,0-7.31-1.92-9.3-5.36-2.96-5.13-1.2-11.68,3.93-14.64l60.34-34.84c5.13-2.98,11.68-1.2,14.64,3.92,2.96,5.13,1.2,11.68-3.93,14.64l-60.34,34.84c-1.69.98-3.53,1.44-5.35,1.44Z"/>
  <path class="cls-5" d="m243.67,713.29c-3.71,0-7.31-1.92-9.3-5.36-2.96-5.13-1.2-11.68,3.93-14.64l60.34-34.84c5.13-2.96,11.68-1.2,14.64,3.93,2.96,5.13,1.2,11.68-3.93,14.64l-60.34,34.84c-1.69.97-3.53,1.43-5.35,1.43Z"/>
  <path class="cls-5" d="m677.39,305.06c-1.82,0-3.66-.46-5.35-1.44-5.13-2.96-6.88-9.52-3.93-14.64l34.84-60.34c2.96-5.12,9.51-6.89,14.65-3.92,5.13,2.96,6.88,9.52,3.93,14.64l-34.84,60.34c-1.99,3.44-5.59,5.36-9.3,5.36Z"/>
  <path class="cls-5" d="m540.72,268.43c-5.92,0-10.72-4.8-10.72-10.72v-69.68c0-5.92,4.8-10.72,10.72-10.72s10.72,4.8,10.72,10.72v69.68c0,5.92-4.8,10.72-10.72,10.72Z"/>
  <path class="cls-5" d="m404.06,305.06c-3.71,0-7.31-1.92-9.3-5.36l-34.84-60.34c-2.96-5.13-1.2-11.68,3.93-14.64,5.12-2.97,11.68-1.2,14.64,3.92l34.84,60.34c2.96,5.13,1.2,11.68-3.93,14.64-1.69.98-3.53,1.44-5.35,1.44Z"/>
  <path class="cls-5" d="m303.99,405.11c-1.82,0-3.66-.46-5.35-1.44l-60.34-34.84c-5.13-2.96-6.88-9.52-3.93-14.64,2.96-5.13,9.5-6.9,14.64-3.92l60.34,34.84c5.13,2.96,6.88,9.52,3.93,14.64-1.99,3.44-5.59,5.36-9.3,5.36Z"/>
  <path class="cls-5" d="m837.78,713.29c-1.82,0-3.66-.46-5.35-1.43l-60.34-34.84c-5.13-2.96-6.88-9.52-3.93-14.64,2.96-5.12,9.51-6.89,14.65-3.93l60.34,34.84c5.13,2.96,6.88,9.52,3.93,14.64-1.99,3.44-5.59,5.36-9.3,5.36Z"/>
  <path class="cls-2" d="m676.13,505.67l36.1-20.79-17.58-42.44-40.23,10.83c-9.48-13.89-21.53-26.18-35.89-35.98l10.81-40.16-42.45-17.58-20.75,36.04c-17.08-3.22-34.29-3.05-50.82.06l-20.79-36.1-42.44,17.58,10.83,40.23c-13.89,9.48-26.18,21.53-35.97,35.89l-40.16-10.81-17.58,42.45,36.04,20.75c-3.22,17.08-3.05,34.29.06,50.82l-36.1,20.79,17.58,42.44,40.23-10.83c9.48,13.89,21.53,26.18,35.89,35.97l-10.81,40.16,42.45,17.59,20.75-36.04c17.09,3.22,34.29,3.05,50.82-.06l20.79,36.1,42.44-17.58-10.83-40.23c13.89-9.48,26.18-21.53,35.97-35.89l40.16,10.81,17.58-42.45-36.04-20.75c3.22-17.08,3.05-34.29-.06-50.82Z"/>
  <path class="cls-8" d="m494.55,707.93c-.69,0-1.38-.13-2.05-.41l-42.45-17.59c-2.49-1.03-3.82-3.75-3.12-6.34l9.84-36.53c-12.27-8.87-23-19.63-31.97-32.05l-36.61,9.86c-2.61.7-5.31-.64-6.34-3.12l-17.58-42.44c-1.03-2.49-.06-5.35,2.28-6.69l32.85-18.92c-2.44-15.13-2.47-30.32-.06-45.27l-32.79-18.88c-2.33-1.34-3.31-4.21-2.28-6.7l17.58-42.45c1.03-2.48,3.74-3.81,6.34-3.12l36.54,9.84c8.87-12.27,19.63-23,32.05-31.96l-9.86-36.61c-.7-2.6.64-5.31,3.12-6.34l42.44-17.58c2.5-1.03,5.36-.06,6.69,2.28l18.92,32.85c15.13-2.44,30.33-2.47,45.27-.06l18.88-32.79c1.34-2.33,4.2-3.31,6.69-2.28l42.45,17.58c2.49,1.03,3.82,3.75,3.12,6.34l-9.84,36.53c12.27,8.87,23,19.63,31.96,32.06l36.61-9.86c2.61-.68,5.31.64,6.34,3.12l17.58,42.44c1.03,2.49.06,5.35-2.28,6.7l-32.85,18.92c2.44,15.13,2.47,30.32.06,45.27l32.79,18.88c2.33,1.34,3.31,4.21,2.28,6.69l-17.58,42.45c-1.03,2.48-3.74,3.82-6.34,3.12l-36.54-9.84c-8.87,12.27-19.63,23-32.05,31.96l9.86,36.61c.7,2.6-.64,5.31-3.12,6.34l-42.44,17.58c-2.48,1.04-5.35.06-6.69-2.28l-18.92-32.85c-15.12,2.45-30.32,2.48-45.26.06l-18.88,32.79c-.98,1.71-2.78,2.69-4.64,2.69Zm71.57-46.82c1.89,0,3.67,1,4.64,2.68l18.45,32.03,33.75-13.98-9.61-35.69c-.59-2.2.27-4.53,2.16-5.82,13.71-9.36,25.34-20.96,34.57-34.48,1.28-1.88,3.61-2.76,5.82-2.16l35.62,9.59,13.98-33.76-31.96-18.4c-1.97-1.14-3.01-3.4-2.59-5.64,3.03-16.07,3.01-32.5-.06-48.83-.42-2.24.62-4.5,2.59-5.64l32.03-18.44-13.98-33.75-35.69,9.61c-2.21.58-4.54-.28-5.82-2.15-9.36-13.71-20.96-25.35-34.48-34.57-1.88-1.28-2.75-3.62-2.16-5.82l9.59-35.61-33.76-13.98-18.4,31.96c-1.14,1.98-3.37,3.03-5.64,2.59-16.07-3.03-32.5-3.01-48.83.07-2.25.41-4.5-.62-5.64-2.59l-18.45-32.03-33.75,13.98,9.61,35.69c.59,2.2-.27,4.53-2.16,5.82-13.71,9.37-25.34,20.97-34.57,34.48-1.29,1.88-3.63,2.74-5.82,2.16l-35.62-9.59-13.98,33.75,31.96,18.4c1.97,1.14,3.01,3.4,2.59,5.64-3.03,16.07-3.01,32.5.06,48.83.42,2.24-.62,4.5-2.59,5.64l-32.03,18.44,13.98,33.75,35.69-9.61c2.2-.6,4.53.28,5.82,2.16,9.36,13.71,20.96,25.34,34.48,34.57,1.88,1.29,2.75,3.62,2.16,5.82l-9.59,35.61,33.76,13.99,18.41-31.96c1.14-1.97,3.38-3,5.64-2.59,16.08,3.04,32.51,3.01,48.82-.06.33-.06.66-.09.99-.09Z"/>
  <circle class="cls-4" cx="540.72" cy="531.06" r="64.32"/>
  <path class="cls-8" d="m540.72,600.74c-38.42,0-69.68-31.26-69.68-69.68s31.26-69.68,69.68-69.68,69.68,31.26,69.68,69.68-31.26,69.68-69.68,69.68Zm0-128.63c-32.51,0-58.96,26.45-58.96,58.96s26.45,58.96,58.96,58.96,58.96-26.45,58.96-58.96-26.45-58.96-58.96-58.96Z"/>
  <path class="cls-11" d="m441.57,541.78c-5.92,0-10.72-4.8-10.72-10.72,0-60.58,49.29-109.87,109.87-109.87,5.92,0,10.72,4.8,10.72,10.72s-4.8,10.72-10.72,10.72c-48.76,0-88.44,39.67-88.44,88.44,0,5.92-4.8,10.72-10.72,10.72Z"/>
  <path class="cls-11" d="m540.72,640.94c-5.92,0-10.72-4.8-10.72-10.72s4.8-10.72,10.72-10.72c48.76,0,88.44-39.67,88.44-88.44,0-5.92,4.8-10.72,10.72-10.72s10.72,4.8,10.72,10.72c0,60.58-49.29,109.87-109.87,109.87Z"/>
  <path class="cls-4" d="m905.19,654.34c23.7,0,42.88,19.18,42.88,42.88,0-23.7,19.18-42.88,42.88-42.88-23.7,0-42.88-19.18-42.88-42.88,0,23.7-19.18,42.88-42.88,42.88Z"/>
  <path class="cls-5" d="m948.06,702.57c-2.96,0-5.36-2.4-5.36-5.36,0-20.69-16.83-37.52-37.52-37.52-2.96,0-5.36-2.4-5.36-5.36s2.4-5.36,5.36-5.36c20.69,0,37.52-16.83,37.52-37.52,0-2.96,2.4-5.36,5.36-5.36s5.36,2.4,5.36,5.36c0,20.69,16.83,37.52,37.52,37.52,2.96,0,5.36,2.4,5.36,5.36s-2.4,5.36-5.36,5.36c-20.69,0-37.52,16.83-37.52,37.52,0,2.96-2.4,5.36-5.36,5.36Zm-20.79-48.24c8.9,4.6,16.19,11.89,20.79,20.79,4.6-8.9,11.89-16.19,20.79-20.79-8.9-4.6-16.19-11.89-20.79-20.79-4.6,8.9-11.89,16.19-20.79,20.79Z"/>
  <path class="cls-4" d="m728.31,943.76c23.7,0,42.88,19.18,42.88,42.88,0-23.7,19.18-42.88,42.88-42.88-23.7,0-42.88-19.18-42.88-42.88,0,23.7-19.18,42.88-42.88,42.88Z"/>
  <path class="cls-5" d="m771.19,992c-2.96,0-5.36-2.4-5.36-5.36,0-20.69-16.83-37.52-37.52-37.52-2.96,0-5.36-2.4-5.36-5.36s2.4-5.36,5.36-5.36c20.69,0,37.52-16.83,37.52-37.52,0-2.96,2.4-5.36,5.36-5.36s5.36,2.4,5.36,5.36c0,20.69,16.83,37.52,37.52,37.52,2.96,0,5.36,2.4,5.36,5.36s-2.4,5.36-5.36,5.36c-20.69,0-37.52,16.83-37.52,37.52,0,2.96-2.4,5.36-5.36,5.36Zm-20.79-48.24c8.9,4.6,16.19,11.89,20.79,20.79,4.6-8.9,11.89-16.19,20.79-20.79-8.9-4.6-16.19-11.89-20.79-20.79-4.6,8.9-11.89,16.19-20.79,20.79Z"/>
  <path class="cls-4" d="m846.23,263.07c23.7,0,42.88,19.18,42.88,42.88,0-23.7,19.18-42.88,42.88-42.88-23.7,0-42.88-19.18-42.88-42.88,0,23.7-19.18,42.88-42.88,42.88Z"/>
  <path class="cls-5" d="m889.11,311.31c-2.96,0-5.36-2.4-5.36-5.36,0-20.69-16.83-37.52-37.52-37.52-2.96,0-5.36-2.4-5.36-5.36s2.4-5.36,5.36-5.36c20.69,0,37.52-16.83,37.52-37.52,0-2.96,2.4-5.36,5.36-5.36s5.36,2.4,5.36,5.36c0,20.69,16.83,37.52,37.52,37.52,2.96,0,5.36,2.4,5.36,5.36s-2.4,5.36-5.36,5.36c-20.69,0-37.52,16.83-37.52,37.52,0,2.96-2.4,5.36-5.36,5.36Zm-20.79-48.24c8.9,4.6,16.19,11.89,20.79,20.79,4.6-8.9,11.89-16.19,20.79-20.79-8.9-4.6-16.19-11.89-20.79-20.79-4.6,8.9-11.89,16.19-20.79,20.79Z"/>
  <path class="cls-4" d="m401.37,171.96c23.7,0,42.88,19.18,42.88,42.88,0-23.7,19.18-42.88,42.88-42.88-23.7,0-42.88-19.18-42.88-42.88,0,23.7-19.18,42.88-42.88,42.88Z"/>
  <path class="cls-5" d="m444.25,220.2c-2.96,0-5.36-2.4-5.36-5.36,0-20.69-16.83-37.52-37.52-37.52-2.96,0-5.36-2.4-5.36-5.36s2.4-5.36,5.36-5.36c20.69,0,37.52-16.83,37.52-37.52,0-2.96,2.4-5.36,5.36-5.36s5.36,2.4,5.36,5.36c0,20.69,16.83,37.52,37.52,37.52,2.96,0,5.36,2.4,5.36,5.36s-2.4,5.36-5.36,5.36c-20.69,0-37.52,16.83-37.52,37.52,0,2.96-2.4,5.36-5.36,5.36Zm-20.79-48.24c8.9,4.6,16.19,11.89,20.79,20.79,4.6-8.9,11.89-16.19,20.79-20.79-8.9-4.6-16.19-11.89-20.79-20.79-4.6,8.9-11.89,16.19-20.79,20.79Z"/>
  <path class="cls-4" d="m128.02,418.51c23.7,0,42.88,19.18,42.88,42.88,0-23.7,19.18-42.88,42.88-42.88-23.7,0-42.88-19.18-42.88-42.88,0,23.7-19.18,42.88-42.88,42.88Z"/>
  <path class="cls-5" d="m170.9,466.75c-2.96,0-5.36-2.4-5.36-5.36,0-20.69-16.83-37.52-37.52-37.52-2.96,0-5.36-2.4-5.36-5.36s2.4-5.36,5.36-5.36c20.69,0,37.52-16.83,37.52-37.52,0-2.96,2.4-5.36,5.36-5.36s5.36,2.4,5.36,5.36c0,20.69,16.83,37.52,37.52,37.52,2.96,0,5.36,2.4,5.36,5.36s-2.4,5.36-5.36,5.36c-20.69,0-37.52,16.83-37.52,37.52,0,2.96-2.4,5.36-5.36,5.36Zm-20.79-48.24c8.9,4.6,16.19,11.89,20.79,20.79,4.6-8.9,11.89-16.19,20.79-20.79-8.9-4.6-16.19-11.89-20.79-20.79-4.6,8.9-11.89,16.19-20.79,20.79Z"/>
  <path class="cls-4" d="m79.78,772.25c23.7,0,42.88,19.18,42.88,42.88,0-23.7,19.18-42.88,42.88-42.88-23.7,0-42.88-19.18-42.88-42.88,0,23.7-19.18,42.88-42.88,42.88Z"/>
  <path class="cls-5" d="m122.66,820.49c-2.96,0-5.36-2.4-5.36-5.36,0-20.69-16.83-37.52-37.52-37.52-2.96,0-5.36-2.4-5.36-5.36s2.4-5.36,5.36-5.36c20.69,0,37.52-16.83,37.52-37.52,0-2.96,2.4-5.36,5.36-5.36s5.36,2.4,5.36,5.36c0,20.69,16.83,37.52,37.52,37.52,2.96,0,5.36,2.4,5.36,5.36s-2.4,5.36-5.36,5.36c-20.69,0-37.52,16.83-37.52,37.52,0,2.96-2.4,5.36-5.36,5.36Zm-20.79-48.24c8.9,4.6,16.19,11.89,20.79,20.79,4.6-8.9,11.89-16.19,20.79-20.79-8.9-4.6-16.19-11.89-20.79-20.79-4.6,8.9-11.89,16.19-20.79,20.79Z"/>
</svg>