<?xml version="1.0" encoding="UTF-8"?>
<svg id="Capa_1" data-name="Capa 1" xmlns="http://www.w3.org/2000/svg" viewBox="0 0 1080 1080">
  <defs>
    <style>
      .cls-1 {
        fill: #ebebeb;
      }

      .cls-2 {
        fill: #fff;
      }

      .cls-3 {
        fill: #e4e4e4;
      }

      .cls-4 {
        fill: #9c9aaa;
      }

      .cls-5 {
        fill: #65b3f0;
      }

      .cls-6 {
        fill: #33284d;
      }

      .cls-7 {
        fill: #2d3041;
      }

      .cls-8 {
        fill: #35384c;
      }

      .cls-9 {
        fill: #545869;
      }

      .cls-10 {
        fill: #76c6ef;
      }
    </style>
  </defs>
  <path class="cls-3" d="m970.39,447.83c17.28,70.75-67.45,139.8-86.61,204.99-19.77,67.25,13.07,170.91-37.65,219.38-49.17,46.98-150.42,10.3-221.32,27.55-70.89,17.25-143.87,96.31-209.19,77.18-67.39-19.74-86.02-126.85-134.58-177.48-47.07-49.07-154.14-71.46-171.42-142.22-17.28-70.75,67.45-139.8,86.61-204.98,19.77-67.25-13.07-170.91,37.65-219.38,49.17-46.98,150.42-10.3,221.32-27.55,70.89-17.25,143.87-96.31,209.19-77.18,67.39,19.74,86.02,126.85,134.58,177.48,47.07,49.07,154.14,71.47,171.42,142.22Z"/>
  <path class="cls-6" d="m195.85,676.11c-1.84,0-3.64-.95-4.63-2.67-4.23-7.31-4.93-16.4-2.09-27.01,15.61-58.27,139.94-164.34,302.34-257.94,171.45-98.82,366.93-169.64,397.3-117.12,1.48,2.55.6,5.82-1.95,7.3-2.55,1.48-5.82.61-7.3-1.95-20.86-36.06-179.62,3.97-382.71,121.03-157.6,90.84-282.65,196.59-297.36,251.45-2.08,7.77-1.74,14.13,1.01,18.9,1.48,2.56.6,5.82-1.95,7.3-.84.49-1.76.72-2.67.72Z"/>
  <path class="cls-6" d="m333.32,282.73c-.53,0-1.07-.08-1.6-.25-71.37-22.31-120.44-24.46-131.25-5.77-1.48,2.56-4.75,3.43-7.3,1.95-2.55-1.48-3.43-4.74-1.95-7.3,17.81-30.79,87.97-16.49,143.69.92,2.81.88,4.38,3.88,3.51,6.69-.71,2.28-2.82,3.75-5.1,3.75Z"/>
  <path class="cls-6" d="m884.15,676.11c-.91,0-1.83-.23-2.67-.72-2.55-1.48-3.43-4.74-1.95-7.3,12.11-20.93-22.66-70.12-90.73-128.37-2.24-1.92-2.5-5.29-.58-7.53,1.92-2.24,5.28-2.5,7.53-.58,43.74,37.43,113.98,105.62,93.03,141.84-.99,1.71-2.79,2.67-4.63,2.67Z"/>
  <path class="cls-2" d="m299.74,437.78c3.97-123.27,103.91-225.55,227.07-232.12,138.75-7.41,253.58,102.9,253.58,240.04,0,70.38-30.35,133.54-78.58,177.45-23.08,21-35.89,51-35.89,82.21v2.1c0,11.8-9.56,21.37-21.37,21.37h-209.1c-11.8,0-21.37-9.57-21.37-21.37v-2.04c0-31-12.43-61.03-35.41-81.84-50.32-45.56-81.31-112.02-78.93-185.8Z"/>
  <path class="cls-1" d="m625.32,220.89c67.48,42.57,112.33,117.75,112.33,203.43,0,70.38-30.35,133.54-78.58,177.45-23.08,21-35.89,51-35.89,82.21v44.84h21.37c11.8,0,21.37-9.57,21.37-21.37v-2.1c0-31.21,12.81-61.2,35.89-82.21,48.24-43.91,78.58-107.07,78.58-177.45,0-102.72-64.43-190.38-155.07-224.8Z"/>
  <path class="cls-7" d="m644.55,734.16h-209.1c-14.73,0-26.71-11.98-26.71-26.71v-2.04c0-13.07-2.28-25.83-6.78-37.92-1.03-2.76.38-5.84,3.15-6.87,2.77-1.03,5.84.38,6.87,3.15,4.94,13.29,7.44,27.3,7.44,41.65v2.04c0,8.84,7.19,16.03,16.03,16.03h209.1c8.84,0,16.03-7.19,16.03-16.03v-2.1c0-32.99,13.72-64.39,37.64-86.16,48.83-44.45,76.84-107.69,76.84-173.5s-26.06-125.76-73.37-170.61c-47.27-44.82-109.22-67.57-174.59-64.1-120.61,6.45-218.13,106.14-222.02,226.96-2.22,69.03,25.91,135.25,77.18,181.66,1.11,1,2.2,2.03,3.26,3.08,2.1,2.07,2.13,5.45.06,7.55-2.07,2.11-5.45,2.12-7.55.06-.96-.94-1.94-1.87-2.93-2.77-53.61-48.53-83.01-117.76-80.69-189.93,4.07-126.32,106.03-230.55,232.13-237.29,68.25-3.66,133.08,20.15,182.51,67.01,49.46,46.89,76.7,110.23,76.7,178.36s-29.28,134.93-80.33,181.4c-21.7,19.75-34.14,48.27-34.14,78.26v2.1c0,14.73-11.98,26.71-26.71,26.71Z"/>
  <path class="cls-10" d="m629.22,823.21l-181.63-18.16c-8.19-.82-14.43-7.72-14.43-15.95v-10.52c0-9.48,8.19-16.89,17.62-15.95l181.63,18.16c8.19.82,14.43,7.72,14.43,15.95v10.52c0,9.48-8.19,16.89-17.62,15.95Z"/>
  <path class="cls-10" d="m630.81,857.03h-181.63c-8.85,0-16.03-7.17-16.03-16.03v-19.68c0-9.48,8.19-16.89,17.62-15.95l181.63,18.16c8.19.82,14.43,7.72,14.43,15.95v1.52c0,8.85-7.18,16.03-16.03,16.03Z"/>
  <path class="cls-10" d="m629.22,780.48l-181.63-18.16c-8.19-.82-14.43-7.72-14.43-15.95v-17.55h213.68v35.71c0,9.48-8.19,16.89-17.62,15.95Z"/>
  <path class="cls-5" d="m646.84,764.53v-35.71h-213.68v10.68l190.02,21.37v96.16h7.63c8.85,0,16.03-7.17,16.03-16.03v-1.52c0-8.23-6.24-15.13-14.43-15.95l-.5-.34c8.24-.56,14.93-7.36,14.93-15.93v-10.52c0-8.23-6.24-15.13-14.43-15.95l-.5-.34c8.24-.56,14.93-7.36,14.93-15.93Z"/>
  <path class="cls-6" d="m630.81,828.63c-.7,0-1.41-.04-2.12-.1l-181.63-18.16c-10.97-1.1-19.24-10.24-19.24-21.26v-10.52c0-6.03,2.56-11.81,7.03-15.85,4.47-4.04,10.46-5.98,16.46-5.41l181.63,18.16c10.97,1.1,19.24,10.24,19.24,21.26v10.52c0,6.03-2.56,11.81-7.03,15.85-3.94,3.56-9.07,5.52-14.35,5.52Zm-181.66-60.74c-2.64,0-5.14.96-7.13,2.76-2.27,2.05-3.52,4.87-3.52,7.92v10.52c0,5.51,4.14,10.08,9.62,10.63l181.63,18.16h0c3.04.3,5.96-.66,8.23-2.71s3.52-4.87,3.52-7.92v-10.52c0-5.51-4.14-10.08-9.62-10.63l-181.63-18.16c-.37-.04-.74-.06-1.1-.06Z"/>
  <path class="cls-7" d="m630.81,862.37h-181.63c-11.78,0-21.37-9.58-21.37-21.37v-19.68c0-6.03,2.56-11.81,7.03-15.85,4.47-4.04,10.46-6,16.46-5.41l181.63,18.16c10.97,1.1,19.24,10.24,19.24,21.26v1.52c0,11.79-9.59,21.37-21.37,21.37Zm-181.67-51.74c-2.64,0-5.14.96-7.13,2.76-2.27,2.05-3.52,4.87-3.52,7.92v19.68c0,5.89,4.79,10.68,10.68,10.68h181.63c5.89,0,10.68-4.79,10.68-10.68v-1.52c0-5.51-4.14-10.08-9.62-10.63l-181.63-18.16c-.37-.04-.74-.06-1.1-.06Z"/>
  <path class="cls-4" d="m580.07,899.76h-80.13c-8.41,0-16.32-3.96-21.37-10.68l-24.04-32.05h170.94l-24.04,32.05c-5.04,6.72-12.96,10.68-21.37,10.68Z"/>
  <path class="cls-7" d="m580.07,905.11h-80.13c-10.03,0-19.62-4.79-25.64-12.82l-24.04-32.06c-1.22-1.62-1.41-3.78-.51-5.59.9-1.81,2.75-2.95,4.78-2.95h170.94c2.02,0,3.87,1.14,4.78,2.95.91,1.81.71,3.98-.51,5.59l-24.04,32.05c-6.02,8.03-15.61,12.82-25.64,12.82Zm-114.85-42.74l17.63,23.51c4.02,5.35,10.41,8.55,17.1,8.55h80.13c6.69,0,13.08-3.2,17.1-8.55l17.63-23.5h-149.58Z"/>
  <circle class="cls-8" cx="540" cy="445.69" r="149.58"/>
  <path class="cls-9" d="m566.71,322.83c34.5,0,66.24,11.71,91.54,31.32-27.36-35.29-70.14-58.03-118.25-58.03-82.61,0-149.58,66.97-149.58,149.58,0,48.11,22.74,90.89,58.03,118.25-19.62-25.3-31.32-57.04-31.32-91.54,0-82.61,66.97-149.58,149.58-149.58Z"/>
  <path class="cls-5" d="m689.98,353.46c-10.4-10.41-27.26-10.41-37.67,0l-112.27,112.26-43.41-43.4c-10.41-10.41-27.26-10.41-37.67,0-10.41,10.4-10.41,27.27,0,37.67l62.24,62.24c5.2,5.2,12.02,7.8,18.83,7.8s13.63-2.6,18.83-7.8l131.11-131.11c10.41-10.4,10.41-27.27,0-37.67Z"/>
  <path class="cls-7" d="m540.03,535.38c-8.53,0-16.57-3.33-22.61-9.37l-62.24-62.24c-6.04-6.04-9.37-14.07-9.37-22.61s3.33-16.58,9.37-22.61c12.46-12.46,32.75-12.47,45.22,0l39.63,39.62,108.5-108.49c6.04-6.04,14.07-9.37,22.61-9.37s16.57,3.33,22.61,9.37h0c6.04,6.04,9.37,14.07,9.37,22.61s-3.33,16.57-9.37,22.61l-131.11,131.1c-6.04,6.04-14.08,9.37-22.61,9.37Zm-62.24-115.51c-5.45,0-10.91,2.08-15.06,6.23-4.02,4.02-6.24,9.37-6.24,15.06s2.21,11.03,6.24,15.05l62.24,62.24c8.05,8.04,22.06,8.05,30.11,0l131.11-131.1c4.02-4.02,6.24-9.37,6.24-15.06s-2.22-11.03-6.24-15.05h0c-8.05-8.05-22.06-8.05-30.11,0l-112.27,112.26c-2.09,2.09-5.47,2.09-7.55,0l-43.4-43.4c-4.15-4.15-9.6-6.23-15.06-6.23Z"/>
  <path class="cls-7" d="m630.81,785.9c-.7,0-1.41-.04-2.12-.1l-181.63-18.16c-10.97-1.1-19.24-10.24-19.24-21.26v-17.55c0-2.95,2.39-5.34,5.34-5.34h213.68c2.95,0,5.34,2.39,5.34,5.34v35.71c0,6.03-2.56,11.81-7.03,15.85-3.94,3.56-9.07,5.52-14.35,5.52Zm-192.3-51.74v12.21c0,5.51,4.14,10.08,9.62,10.63l181.63,18.16h0c3.04.3,5.96-.66,8.23-2.71s3.52-4.87,3.52-7.92v-30.37h-203Z"/>
  <path class="cls-7" d="m237.27,691.27c-22.79,0-38.93-5.53-46.05-17.83-1.48-2.56-.6-5.82,1.95-7.3,2.55-1.49,5.82-.61,7.3,1.95,20.85,36.08,179.61-3.96,382.71-121.03,157.6-90.84,282.65-196.59,297.36-251.45,2.08-7.77,1.74-14.13-1.01-18.9-1.48-2.55-.6-5.82,1.95-7.3,2.55-1.48,5.82-.61,7.3,1.95,4.23,7.31,4.93,16.4,2.09,27.01-15.61,58.27-139.94,164.34-302.34,257.94-131.3,75.68-276.72,134.95-351.25,134.95Z"/>
  <path class="cls-7" d="m842.73,691.27c-74.53,0-219.94-59.26-351.25-134.95-162.4-93.61-286.73-199.67-302.34-257.94-2.84-10.61-2.14-19.7,2.09-27.01,1.48-2.56,4.74-3.43,7.3-1.95,2.55,1.48,3.43,4.74,1.95,7.3-2.76,4.77-3.1,11.12-1.01,18.9,14.7,54.87,139.76,160.62,297.36,251.45,203.1,117.06,361.85,157.09,382.71,121.03,1.48-2.55,4.75-3.43,7.3-1.95,2.55,1.48,3.43,4.74,1.95,7.3-7.11,12.29-23.27,17.83-46.05,17.83Z"/>
  <circle class="cls-2" cx="139.35" cy="429.67" r="53.42"/>
  <path class="cls-4" d="m139.35,488.43c-32.4,0-58.76-26.36-58.76-58.76s26.36-58.76,58.76-58.76,58.76,26.36,58.76,58.76-26.36,58.76-58.76,58.76Zm0-106.84c-26.51,0-48.08,21.57-48.08,48.08s21.57,48.08,48.08,48.08,48.08-21.57,48.08-48.08-21.57-48.08-48.08-48.08Z"/>
  <path class="cls-3" d="m139.35,461.72c-17.67,0-32.05-14.38-32.05-32.05s14.38-32.05,32.05-32.05,32.05,14.38,32.05,32.05c0,2.95-2.39,5.34-5.34,5.34s-5.34-2.39-5.34-5.34c0-11.78-9.59-21.37-21.37-21.37s-21.37,9.59-21.37,21.37,9.59,21.37,21.37,21.37c2.95,0,5.34,2.39,5.34,5.34s-2.39,5.34-5.34,5.34Z"/>
  <path class="cls-4" d="m139.35,461.72c-2.95,0-5.34-2.39-5.34-5.34s2.39-5.34,5.34-5.34c11.78,0,21.37-9.59,21.37-21.37,0-2.95,2.39-5.34,5.34-5.34s5.34,2.39,5.34,5.34c0,17.67-14.38,32.05-32.05,32.05Z"/>
  <circle class="cls-2" cx="262.22" cy="926.47" r="53.42"/>
  <path class="cls-4" d="m262.22,985.24c-32.4,0-58.76-26.36-58.76-58.76s26.36-58.76,58.76-58.76,58.76,26.36,58.76,58.76-26.36,58.76-58.76,58.76Zm0-106.84c-26.51,0-48.08,21.57-48.08,48.08s21.57,48.08,48.08,48.08,48.08-21.57,48.08-48.08-21.57-48.08-48.08-48.08Z"/>
  <path class="cls-3" d="m262.22,958.53c-17.67,0-32.05-14.38-32.05-32.05s14.38-32.05,32.05-32.05,32.05,14.38,32.05,32.05c0,2.95-2.39,5.34-5.34,5.34s-5.34-2.39-5.34-5.34c0-11.79-9.59-21.37-21.37-21.37s-21.37,9.58-21.37,21.37,9.59,21.37,21.37,21.37c2.95,0,5.34,2.39,5.34,5.34s-2.39,5.34-5.34,5.34Z"/>
  <path class="cls-4" d="m262.22,958.53c-2.95,0-5.34-2.39-5.34-5.34s2.39-5.34,5.34-5.34c11.78,0,21.37-9.58,21.37-21.37,0-2.95,2.39-5.34,5.34-5.34s5.34,2.39,5.34,5.34c0,17.67-14.38,32.05-32.05,32.05Z"/>
  <circle class="cls-2" cx="828.47" cy="851.69" r="53.42"/>
  <path class="cls-4" d="m828.47,910.45c-32.4,0-58.76-26.36-58.76-58.76s26.36-58.76,58.76-58.76,58.76,26.36,58.76,58.76-26.36,58.76-58.76,58.76Zm0-106.84c-26.51,0-48.08,21.57-48.08,48.08s21.57,48.08,48.08,48.08,48.08-21.57,48.08-48.08-21.57-48.08-48.08-48.08Z"/>
  <path class="cls-3" d="m828.47,883.74c-17.67,0-32.05-14.38-32.05-32.05s14.38-32.05,32.05-32.05,32.05,14.38,32.05,32.05c0,2.95-2.39,5.34-5.34,5.34s-5.34-2.39-5.34-5.34c0-11.79-9.59-21.37-21.37-21.37s-21.37,9.58-21.37,21.37,9.59,21.37,21.37,21.37c2.95,0,5.34,2.39,5.34,5.34s-2.39,5.34-5.34,5.34Z"/>
  <path class="cls-4" d="m828.47,883.74c-2.95,0-5.34-2.39-5.34-5.34s2.39-5.34,5.34-5.34c11.78,0,21.37-9.58,21.37-21.37,0-2.95,2.39-5.34,5.34-5.34s5.34,2.39,5.34,5.34c0,17.67-14.38,32.05-32.05,32.05Z"/>
  <circle class="cls-2" cx="940.65" cy="515.14" r="53.42"/>
  <path class="cls-4" d="m940.65,573.9c-32.4,0-58.76-26.36-58.76-58.76s26.36-58.76,58.76-58.76,58.76,26.36,58.76,58.76-26.36,58.76-58.76,58.76Zm0-106.84c-26.51,0-48.08,21.57-48.08,48.08s21.57,48.08,48.08,48.08,48.08-21.57,48.08-48.08-21.57-48.08-48.08-48.08Z"/>
  <path class="cls-3" d="m940.65,547.19c-17.67,0-32.05-14.38-32.05-32.05s14.38-32.05,32.05-32.05,32.05,14.38,32.05,32.05c0,2.95-2.39,5.34-5.34,5.34s-5.34-2.39-5.34-5.34c0-11.78-9.59-21.37-21.37-21.37s-21.37,9.59-21.37,21.37,9.59,21.37,21.37,21.37c2.95,0,5.34,2.39,5.34,5.34s-2.39,5.34-5.34,5.34Z"/>
  <path class="cls-4" d="m940.65,547.19c-2.95,0-5.34-2.39-5.34-5.34s2.39-5.34,5.34-5.34c11.78,0,21.37-9.59,21.37-21.37,0-2.95,2.39-5.34,5.34-5.34s5.34,2.39,5.34,5.34c0,17.67-14.38,32.05-32.05,32.05Z"/>
  <circle class="cls-2" cx="337" cy="178.59" r="53.42"/>
  <path class="cls-4" d="m337,237.35c-32.4,0-58.76-26.36-58.76-58.76s26.36-58.76,58.76-58.76,58.76,26.36,58.76,58.76-26.36,58.76-58.76,58.76Zm0-106.84c-26.51,0-48.08,21.57-48.08,48.08s21.57,48.08,48.08,48.08,48.08-21.57,48.08-48.08-21.57-48.08-48.08-48.08Z"/>
  <path class="cls-3" d="m337,210.64c-17.67,0-32.05-14.38-32.05-32.05s14.38-32.05,32.05-32.05,32.05,14.38,32.05,32.05c0,2.95-2.39,5.34-5.34,5.34s-5.34-2.39-5.34-5.34c0-11.78-9.59-21.37-21.37-21.37s-21.37,9.59-21.37,21.37,9.59,21.37,21.37,21.37c2.95,0,5.34,2.39,5.34,5.34s-2.39,5.34-5.34,5.34Z"/>
  <path class="cls-4" d="m337,210.64c-2.95,0-5.34-2.39-5.34-5.34s2.39-5.34,5.34-5.34c11.78,0,21.37-9.59,21.37-21.37,0-2.95,2.39-5.34,5.34-5.34s5.34,2.39,5.34,5.34c0,17.67-14.38,32.05-32.05,32.05Z"/>
</svg>