<svg id="aa325833-5cef-4237-8b85-3188855869e7" data-name="Capa 1" xmlns="http://www.w3.org/2000/svg" viewBox="0 0 1080 1080"><defs><style>.fea5bd20-7bb4-4f1e-9811-4b3d4142445c{fill:#f6f6f6;}.ac7eca1f-03ea-40b0-a9a9-12039e9b4055{fill:#ededed;}.af69f79b-16e4-4f2b-b322-6986d834235f{fill:#fff;}.f9d29040-9c62-4ed5-ab1d-04cc16c68e65{fill:#b8b5c6;}.edc2ab17-4a70-48ee-8d3d-aaa8e253f13d{fill:#a09cad;}.b2605f6f-e274-4647-9a05-0a65fe98aacd{fill:#282c3f;}.bec301ec-1de9-4e13-a186-9e65286a0be9{fill:#30354c;}.add4d4e1-c73c-45aa-a353-6699ec276e38{fill:#52576a;}.a59958ab-f16c-4512-bfc9-b2a7298eaa1e{fill:#2caae6;}.a11d0355-e2d9-4167-9b61-eac1bc04e368{fill:#2fc8f2;}.f4b26fa1-9f7f-4f3f-90d1-86c3813a4c19{fill:#989aa6;}</style></defs><title>ICONS S2R</title><path class="fea5bd20-7bb4-4f1e-9811-4b3d4142445c" d="M961.65,437.44c-16.93-69.3-121.81-91.23-167.92-139.3C746.15,248.55,727.9,143.63,661.89,124.3,597.9,105.56,526.41,183,457,199.9s-168.63-19-216.8,27c-49.69,47.48-17.52,149-36.88,214.89C184.5,505.62,101.5,573.26,118.43,642.56s121.81,91.23,167.92,139.3c47.57,49.59,65.82,154.51,131.83,173.84,64,18.74,135.49-58.71,204.93-75.6s168.64,19,216.81-27c49.69-47.48,5.3-140.63,29.21-216C892.42,563.72,978.58,506.74,961.65,437.44Z"/><path class="ac7eca1f-03ea-40b0-a9a9-12039e9b4055" d="M758.62,279.52a338.7,338.7,0,0,1,79.64,218.62C838.26,686,686,838.26,498.14,838.26a338.7,338.7,0,0,1-218.62-79.64c62.39,74.26,155.9,121.5,260.48,121.5,187.84,0,340.12-152.28,340.12-340.12C880.12,435.42,832.88,341.91,758.62,279.52Z"/><path class="af69f79b-16e4-4f2b-b322-6986d834235f" d="M838.26,498.14a338.7,338.7,0,0,0-79.64-218.62A338.7,338.7,0,0,0,540,199.88c-187.84,0-340.12,152.28-340.12,340.12a338.7,338.7,0,0,0,79.64,218.62,338.7,338.7,0,0,0,218.62,79.64C686,838.26,838.26,686,838.26,498.14Z"/><path class="f9d29040-9c62-4ed5-ab1d-04cc16c68e65" d="M645.72,270.75l-76.13,76.13a36.64,36.64,0,0,0,51.81,51.81l70.9-70.91A79.22,79.22,0,0,1,797,321.22a80.42,80.42,0,0,1,7.54,6.57,79.36,79.36,0,0,1,0,112.24L649.63,595a79.47,79.47,0,0,1-112.25,0,36.63,36.63,0,0,0-51.81,51.8,152.82,152.82,0,0,0,215.86,0L861.57,486.6c.22-.21.41-.43.62-.65A141.06,141.06,0,0,0,873.49,473C853.11,371,787,285.44,697.49,238.56a125.59,125.59,0,0,0-17.49,7.1A131.93,131.93,0,0,0,645.72,270.75Z"/><path class="f9d29040-9c62-4ed5-ab1d-04cc16c68e65" d="M491.83,856.34l70.9-70.9a36.63,36.63,0,1,0-51.8-51.8L440,804.55a79.43,79.43,0,0,1-112.25,0,80.72,80.72,0,0,1-6.57-7.55,79.22,79.22,0,0,1,6.58-104.7l154.9-154.91a79.46,79.46,0,0,1,112.26,0,36.63,36.63,0,1,0,51.8-51.81c-59.51-59.5-156.34-59.51-215.86,0L276,640.49a151,151,0,0,0-36.56,58.67c46.86,88.3,131.43,153.53,232.28,174.09a153.35,153.35,0,0,0,14-11.09C487.77,860.28,489.83,858.35,491.83,856.34Z"/><path class="edc2ab17-4a70-48ee-8d3d-aaa8e253f13d" d="M862.19,486a143.64,143.64,0,0,0,11.22-12.81c-.23-1.16-.45-2.33-.7-3.48q-1.26-6-2.72-11.84-.86-3.46-1.77-6.89c-1-3.83-2.16-7.62-3.32-11.4-.72-2.31-1.44-4.62-2.2-6.9-1.22-3.68-2.53-7.32-3.87-10.93-.86-2.31-1.71-4.62-2.62-6.91-1.4-3.52-2.88-7-4.39-10.47-1-2.3-2-4.6-3.05-6.87-1.56-3.38-3.21-6.71-4.88-10-1.14-2.27-2.27-4.53-3.46-6.77-1.72-3.25-3.54-6.44-5.37-9.63-1.27-2.21-2.52-4.44-3.85-6.62-1.89-3.12-3.87-6.19-5.86-9.25-1.39-2.14-2.75-4.29-4.18-6.4-2.07-3-4.23-6-6.4-8.95-1.48-2-2.93-4.08-4.46-6.08-2.27-3-4.64-5.86-7-8.76-1.53-1.87-3-3.78-4.61-5.62-2.52-3-5.15-5.83-7.77-8.69-1.54-1.67-3-3.38-4.58-5-2.86-3-5.83-5.91-8.8-8.81-1.43-1.4-2.82-2.83-4.27-4.2-3.4-3.21-6.9-6.29-10.43-9.35-1.11-1-2.17-2-3.29-2.93-.25-.21-.51-.39-.75-.6a344.53,344.53,0,0,1,24.35,32.89,81.47,81.47,0,0,1,21.39,15.16,79.67,79.67,0,0,1,23.25,56.12,79.83,79.83,0,0,1-2.72,20.41,339.66,339.66,0,0,1,13.19,93.82c0,4.05-.17,8.06-.31,12.08l23.62-23.62C861.79,486.39,862,486.17,862.19,486Z"/><path class="edc2ab17-4a70-48ee-8d3d-aaa8e253f13d" d="M491.83,856.34,510.23,838c-4,.14-8,.31-12.09.31a339.66,339.66,0,0,1-93.82-13.19,78.16,78.16,0,0,1-37,.95,78.76,78.76,0,0,1-39.56-21.48,80.72,80.72,0,0,1-6.57-7.55,79.39,79.39,0,0,1-8.58-13.85,341.06,341.06,0,0,1-32.89-24.34c.23.26.43.54.66.8,2,2.38,4.1,4.65,6.16,7s4,4.5,6,6.68c2.23,2.36,4.56,4.64,6.86,7,2,2,4,4,6.05,6,2.41,2.3,4.92,4.52,7.4,6.75,2.06,1.85,4.09,3.73,6.19,5.53,2.58,2.2,5.23,4.31,7.87,6.44,2.12,1.71,4.23,3.45,6.39,5.1,2.7,2.08,5.48,4.06,8.25,6.06,2.2,1.59,4.4,3.2,6.65,4.74,2.8,1.92,5.67,3.75,8.53,5.59,2.32,1.48,4.62,3,7,4.41,2.88,1.75,5.82,3.41,8.75,5.08,2.44,1.39,4.87,2.78,7.34,4.1,2.93,1.57,5.91,3.06,8.9,4.55,2.57,1.27,5.13,2.56,7.73,3.78,3,1.38,6,2.69,9,4,2.71,1.16,5.41,2.33,8.16,3.43,3,1.2,6,2.33,9.06,3.45,2.85,1,5.69,2.08,8.57,3s6.05,2,9.09,2.89,6,1.82,9,2.66,6,1.59,9.05,2.34,6.3,1.52,9.48,2.21c1.31.28,2.64.52,3.95.79a155.32,155.32,0,0,0,13.83-11C487.77,860.28,489.83,858.35,491.83,856.34Z"/><path class="b2605f6f-e274-4647-9a05-0a65fe98aacd" d="M540,885.35c-144.89,0-275.4-91.47-324.76-227.62a5.23,5.23,0,1,1,9.84-3.57C273,786.18,399.5,874.88,540,874.88c184.66,0,334.88-150.22,334.88-334.88a338,338,0,0,0-6.8-67.5,5.23,5.23,0,1,1,10.25-2.09,347.71,347.71,0,0,1,7,69.59C885.35,730.43,730.43,885.35,540,885.35Z"/><path class="b2605f6f-e274-4647-9a05-0a65fe98aacd" d="M207.33,616.4a5.24,5.24,0,0,1-5.11-4.15A347.79,347.79,0,0,1,194.65,540c0-190.43,154.92-345.35,345.35-345.35,145.85,0,276.65,92.28,325.48,229.63a5.23,5.23,0,0,1-9.86,3.51C808.27,294.6,681.43,205.12,540,205.12c-184.66,0-334.88,150.22-334.88,334.88a336.59,336.59,0,0,0,7.34,70.08,5.25,5.25,0,0,1-4,6.21A5.86,5.86,0,0,1,207.33,616.4Z"/><path class="bec301ec-1de9-4e13-a186-9e65286a0be9" d="M770.84,295.06a80.3,80.3,0,0,1,7.54,6.56,78.77,78.77,0,0,1,21.48,39.55A337.63,337.63,0,0,1,836,459.79c28.35-28.68,38.85-61.58,38.85-102.05A152.62,152.62,0,0,0,722.26,205.12c-25.54,0-48.07,4.18-68.43,14.38a340,340,0,0,1,104.79,60C762.86,284.57,766.9,289.77,770.84,295.06Z"/><path class="add4d4e1-c73c-45aa-a353-6699ec276e38" d="M543.43,320.72a36.63,36.63,0,1,0,51.8,51.8l70.9-70.9a79.23,79.23,0,0,1,104.71-6.56c-3.94-5.29-8-10.49-12.22-15.54a340,340,0,0,0-104.79-60,132.05,132.05,0,0,0-34.27,25.09Z"/><path class="add4d4e1-c73c-45aa-a353-6699ec276e38" d="M801.63,357.74a78.86,78.86,0,0,1-23.25,56.13L623.47,568.78a79.46,79.46,0,0,1-112.25,0,36.64,36.64,0,1,0-51.81,51.81,152.81,152.81,0,0,0,215.86,0L835.41,460.44c.21-.22.4-.44.62-.65a337.63,337.63,0,0,0-36.17-118.62A80,80,0,0,1,801.63,357.74Z"/><path class="a59958ab-f16c-4512-bfc9-b2a7298eaa1e" d="M301.62,778.38a80.72,80.72,0,0,1-6.57-7.55c-5.28-3.94-10.49-8-15.53-12.21a340,340,0,0,1-59.29-102.7A152.65,152.65,0,0,0,459.5,836a337.72,337.72,0,0,1-118.33-36.14A78.77,78.77,0,0,1,301.62,778.38Z"/><path class="a11d0355-e2d9-4167-9b61-eac1bc04e368" d="M536.57,759.28a36.63,36.63,0,1,0-51.8-51.8l-70.9,70.9a78.86,78.86,0,0,1-56.13,23.25,80,80,0,0,1-16.57-1.77A337.72,337.72,0,0,0,459.5,836c2.1-1.88,4.16-3.81,6.17-5.82Z"/><path class="a11d0355-e2d9-4167-9b61-eac1bc04e368" d="M295.05,770.83a79.23,79.23,0,0,1,6.57-104.7L456.53,511.22a79.45,79.45,0,0,1,112.25,0,36.64,36.64,0,0,0,51.81-51.81c-59.52-59.5-156.34-59.51-215.86,0L249.82,614.33a152.67,152.67,0,0,0-29.59,41.59,340,340,0,0,0,59.29,102.7C284.56,762.85,289.77,766.89,295.05,770.83Z"/><path class="b2605f6f-e274-4647-9a05-0a65fe98aacd" d="M567.34,670.45a156.82,156.82,0,0,1-111.63-46.16,41.87,41.87,0,1,1,59.21-59.21,74.23,74.23,0,0,0,104.85,0L774.68,410.17A74.14,74.14,0,1,0,669.83,305.32l-70.9,70.9a41.86,41.86,0,1,1-59.2-59.2l26.65-26.65a5.23,5.23,0,0,1,7.4,7.4l-26.65,26.65a31.4,31.4,0,1,0,44.4,44.4l70.9-70.9A84.61,84.61,0,0,1,782.08,417.57L627.17,572.48a84,84,0,0,1-59.83,24.75h0a84,84,0,0,1-59.81-24.75,31.4,31.4,0,1,0-44.41,44.41,147.57,147.57,0,0,0,208.46,0L831.71,456.74c26.24-26.24,37.94-56.77,37.94-99A147.39,147.39,0,0,0,722.26,210.35c-42.23,0-72.76,11.7-99,37.93l-23.32,23.33a5.23,5.23,0,0,1-7.4-7.4l23.32-23.32c28-28,61.78-41,106.4-41A157.87,157.87,0,0,1,880.12,357.74c0,44.62-13,78.43-41,106.4L679,624.28A156.8,156.8,0,0,1,567.34,670.45Z"/><path class="b2605f6f-e274-4647-9a05-0a65fe98aacd" d="M357.74,880.12A157.86,157.86,0,0,1,246.12,610.63L401,455.72c61.55-61.56,161.71-61.56,223.26,0a41.87,41.87,0,0,1-59.21,59.21,74.2,74.2,0,0,0-104.85,0L305.32,669.83A74.14,74.14,0,1,0,410.17,774.68l70.9-70.9a41.86,41.86,0,0,1,59.2,59.2l-70.9,70.9A156.83,156.83,0,0,1,357.74,880.12ZM512.66,420a146.94,146.94,0,0,0-104.23,43.11L253.52,618A147.4,147.4,0,0,0,462,826.48l70.9-70.9a31.4,31.4,0,0,0-44.4-44.4l-70.9,70.9A84.61,84.61,0,0,1,297.92,662.43L452.83,507.52a84,84,0,0,1,59.83-24.75h0a84,84,0,0,1,59.82,24.75,31.4,31.4,0,0,0,44.41-44.41A147,147,0,0,0,512.66,420Z"/><circle class="af69f79b-16e4-4f2b-b322-6986d834235f" cx="937.67" cy="283.6" r="47.09"/><path class="f4b26fa1-9f7f-4f3f-90d1-86c3813a4c19" d="M937.67,335.93a5.23,5.23,0,0,1-5.23-5.23,41.91,41.91,0,0,0-41.86-41.86,5.24,5.24,0,0,1,0-10.47,41.91,41.91,0,0,0,41.86-41.86,5.24,5.24,0,0,1,10.47,0,41.91,41.91,0,0,0,41.86,41.86,5.24,5.24,0,0,1,0,10.47,41.91,41.91,0,0,0-41.86,41.86A5.23,5.23,0,0,1,937.67,335.93ZM913.38,283.6a52.64,52.64,0,0,1,24.29,24.3A52.7,52.7,0,0,1,962,283.6a52.64,52.64,0,0,1-24.3-24.29A52.57,52.57,0,0,1,913.38,283.6Z"/><circle class="af69f79b-16e4-4f2b-b322-6986d834235f" cx="231.28" cy="246.98" r="47.09"/><path class="f4b26fa1-9f7f-4f3f-90d1-86c3813a4c19" d="M231.28,299.3a5.23,5.23,0,0,1-5.23-5.23,41.91,41.91,0,0,0-41.86-41.86,5.24,5.24,0,1,1,0-10.47,41.9,41.9,0,0,0,41.86-41.86,5.23,5.23,0,1,1,10.46,0,41.9,41.9,0,0,0,41.86,41.86,5.24,5.24,0,0,1,0,10.47,41.91,41.91,0,0,0-41.86,41.86A5.23,5.23,0,0,1,231.28,299.3ZM207,247a52.66,52.66,0,0,1,24.29,24.29A52.57,52.57,0,0,1,255.57,247a52.64,52.64,0,0,1-24.29-24.3A52.73,52.73,0,0,1,207,247Z"/><circle class="af69f79b-16e4-4f2b-b322-6986d834235f" cx="833.02" cy="843.49" r="41.86"/><path class="f4b26fa1-9f7f-4f3f-90d1-86c3813a4c19" d="M833,890.58a5.23,5.23,0,0,1-5.23-5.23,36.67,36.67,0,0,0-36.63-36.63,5.23,5.23,0,0,1,0-10.46,36.68,36.68,0,0,0,36.63-36.63,5.24,5.24,0,0,1,10.47,0,36.67,36.67,0,0,0,36.62,36.63,5.23,5.23,0,1,1,0,10.46,36.67,36.67,0,0,0-36.62,36.63A5.23,5.23,0,0,1,833,890.58Zm-20.29-47.09A47.43,47.43,0,0,1,833,863.78a47.4,47.4,0,0,1,20.3-20.29,47.37,47.37,0,0,1-20.3-20.3A47.4,47.4,0,0,1,812.73,843.49Z"/><circle class="af69f79b-16e4-4f2b-b322-6986d834235f" cx="649.88" cy="158.02" r="36.63"/><path class="f4b26fa1-9f7f-4f3f-90d1-86c3813a4c19" d="M649.88,199.88a5.23,5.23,0,0,1-5.23-5.23,31.42,31.42,0,0,0-31.39-31.39,5.24,5.24,0,1,1,0-10.47,31.42,31.42,0,0,0,31.39-31.39,5.24,5.24,0,1,1,10.47,0,31.42,31.42,0,0,0,31.39,31.39,5.24,5.24,0,0,1,0,10.47,31.42,31.42,0,0,0-31.39,31.39A5.23,5.23,0,0,1,649.88,199.88ZM633.51,158a42.19,42.19,0,0,1,16.37,16.38A42.28,42.28,0,0,1,666.26,158a42.19,42.19,0,0,1-16.38-16.37A42.09,42.09,0,0,1,633.51,158Z"/><circle class="af69f79b-16e4-4f2b-b322-6986d834235f" cx="131.86" cy="581.86" r="36.63"/><path class="f4b26fa1-9f7f-4f3f-90d1-86c3813a4c19" d="M131.86,623.72a5.23,5.23,0,0,1-5.23-5.23,31.44,31.44,0,0,0-31.4-31.4,5.23,5.23,0,1,1,0-10.46,31.43,31.43,0,0,0,31.4-31.4,5.23,5.23,0,1,1,10.46,0,31.43,31.43,0,0,0,31.4,31.4,5.23,5.23,0,0,1,0,10.46,31.44,31.44,0,0,0-31.4,31.4A5.23,5.23,0,0,1,131.86,623.72Zm-16.38-41.86a42,42,0,0,1,16.38,16.38,42,42,0,0,1,16.38-16.38,42,42,0,0,1-16.38-16.38A42,42,0,0,1,115.48,581.86Z"/><circle class="af69f79b-16e4-4f2b-b322-6986d834235f" cx="419.65" cy="921.98" r="36.63"/><path class="f4b26fa1-9f7f-4f3f-90d1-86c3813a4c19" d="M419.65,963.84a5.23,5.23,0,0,1-5.23-5.24A31.43,31.43,0,0,0,383,927.21a5.24,5.24,0,0,1,0-10.47,31.43,31.43,0,0,0,31.4-31.39,5.23,5.23,0,0,1,10.46,0,31.43,31.43,0,0,0,31.4,31.39,5.24,5.24,0,0,1,0,10.47,31.43,31.43,0,0,0-31.4,31.39A5.23,5.23,0,0,1,419.65,963.84ZM403.27,922a42.05,42.05,0,0,1,16.38,16.37A42.12,42.12,0,0,1,436,922a42.21,42.21,0,0,1-16.38-16.38A42.14,42.14,0,0,1,403.27,922Z"/></svg>