<svg id="b0927364-b10d-4952-a7c7-6f3ebfe5e1ef" data-name="Capa 1" xmlns="http://www.w3.org/2000/svg" viewBox="0 0 1080 1080"><defs><style>.ad7509e0-0608-44dc-ac60-1e26b2e83eed{fill:#f6f6f6;}.b6656c3b-94a7-4bce-9911-947e3e5fba48{fill:#2caae6;}.b146a2b8-144a-4076-9e66-dd05ab8a3ecf{fill:#2fc8f2;}.bfa2cc3c-60ca-4735-8598-434961639710{fill:#e6e6e6;}.ee6ded9a-203b-4c8d-b7d7-9e962e811f00{fill:#fff;}.a90baa99-ac16-42a6-b815-9fc645ef0272{fill:#282c3f;}.bc554edf-1a51-43b7-be33-ef5bdbcbb9e7{fill:#989aa6;}.ad369f43-b061-4550-a832-2875996b3cb5{fill:#a09cad;}.f5572e2f-a142-461d-b04e-4aa8e6b90a14{fill:#52576a;}.e9b04ea3-5c2f-45aa-8742-139001064b69{fill:#30354c;}.b43f3334-0041-409f-9671-08ea994ad2b4{fill:#ededed;}</style></defs><title>ICONS S2R</title><path class="ad7509e0-0608-44dc-ac60-1e26b2e83eed" d="M961.57,433c-16.92-69.89-121.79-92-167.9-140.49-47.57-50-47.32-136.07-122.36-166.08-62-24.78-144.94,50-214.38,67S299.3,181,247.72,232.61c-48.8,48.82-25.08,138.27-44.45,204.71-18.77,64.4-101.77,132.62-84.84,202.52s121.79,92,167.9,140.5c47.57,50,65.82,155.84,131.83,175.33,64,18.9,135.47-59.21,204.91-76.25s168.62,19.2,216.78-27.21c49.69-47.89,17.51-150.3,36.88-216.74C895.5,571.07,978.5,502.85,961.57,433Z"/><circle class="b6656c3b-94a7-4bce-9911-947e3e5fba48" cx="555.7" cy="524.3" r="266.86"/><path class="b146a2b8-144a-4076-9e66-dd05ab8a3ecf" d="M491.23,459.84C595.37,355.7,708.54,300,744.14,335.36A266,266,0,0,0,555.7,257.44c-147.38,0-266.86,119.48-266.86,266.86a266,266,0,0,0,77.92,188.45C331.41,677.15,387.09,564,491.23,459.84Z"/><path class="bfa2cc3c-60ca-4735-8598-434961639710" d="M365.62,711.42a268.42,268.42,0,0,0,39.25,32.87c10.31-15.27,26.29-30.4,47.71-25.42,53,12.29,62.9-103.92,7.24-100.58-45.38,2.72-9.69-45.39-55.7-31.62a62.61,62.61,0,0,1-15.22,2.66C357.09,644.17,346.73,690.15,365.62,711.42Z"/><path class="ee6ded9a-203b-4c8d-b7d7-9e962e811f00" d="M379.31,533.12c14.23-3.92,52-15,61.39-55.38,9.9-42.73-49.39-56.38-35.67-82.08C421.46,364.88,502.11,435.35,528,373c9.74-23.52-23.82-50-46.44-47.26-25.84,3.08-49-16.9-52.78-36.06A267.43,267.43,0,0,0,291.21,489.17c-.19,1.47-.39,2.94-.56,4.42q-.39,3.38-.69,6.77-.24,2.81-.42,5.61c-.15,2.1-.3,4.21-.4,6.33s-.13,4.51-.17,6.78c-.07,4-.07,8,0,12,0,1.19,0,2.37.09,3.55q.18,4.56.52,9.14c0,.5.07,1,.11,1.49.55,6.89,1.35,13.8,2.45,20.74a266.48,266.48,0,0,0,19.64,66.64,1.11,1.11,0,0,0,.07.16q2.64,5.94,5.56,11.71l.57,1.11c1.81,3.55,3.71,7.06,5.67,10.51l.91,1.58q2.88,5,6,9.81c.35.55.7,1.1,1.06,1.65q3.13,4.86,6.48,9.55l.95,1.34q3.57,4.93,7.34,9.71l.51.66a271,271,0,0,0,18.72,21c-18.89-21.27-8.53-67.25,23.28-122.09C348.3,591.13,336.46,544.92,379.31,533.12Z"/><path class="bfa2cc3c-60ca-4735-8598-434961639710" d="M819.25,482.7a265.44,265.44,0,0,0-60.78-131.8,184.57,184.57,0,0,0-16.32,19.66c-12.68,17.42-39.09,18.28-53.49-10.21a61.83,61.83,0,0,0-22.64-25c-26.3,10.15-56.57,27.3-88.28,50.23-5.22,23.72,2.48,45.84,42.32,53.36,49.49,9.33,26.87,54.57-6.34,44.48-32.36-9.84-53.68-19.62-74-2.46s-17.11,56.77,9.71,61.46c22.3,3.89,40.09,20.63,25.09,44.89-16.42,26.57-24.79,75.82,2.2,86.4,26,10.2,39.47-9.46,44.2-19.51,5.08-10.82,1.61-18.9,13.59-39.09,8.93-15.07,40-21.74,40-21.74s25.52-9.17,7.78-56.5,44-39.48,57.6-7.54C751.24,556,724.24,599.83,772,592.11c21.4-3.47,29.63,7.32,37.47,14.62A265.47,265.47,0,0,0,819.25,482.7Z"/><path class="bfa2cc3c-60ca-4735-8598-434961639710" d="M703.51,659c1.64,11.45-12.66,5.94-25.18,17.83s-15.73,18.75-30.68,11.28c-13.34-6.68,10.14-38.14,21.05-42S701.18,642.71,703.51,659Z"/><path class="ee6ded9a-203b-4c8d-b7d7-9e962e811f00" d="M578.78,381.36c-.39,1.39-.73,2.8-1,4.21,31.71-22.93,62-40.08,88.28-50.23C636.34,317.07,593.86,328.56,578.78,381.36Z"/><path class="a90baa99-ac16-42a6-b815-9fc645ef0272" d="M555.7,796.4a5.24,5.24,0,0,1,0-10.47c144.26,0,261.63-117.36,261.63-261.63S700,262.68,555.7,262.68,294.07,380,294.07,524.3A260.75,260.75,0,0,0,494.18,778.65a5.24,5.24,0,0,1-2.45,10.18C369.19,759.3,283.61,650.53,283.61,524.3c0-150,122.06-272.09,272.09-272.09S827.79,374.27,827.79,524.3,705.73,796.4,555.7,796.4Z"/><path class="bc554edf-1a51-43b7-be33-ef5bdbcbb9e7" d="M555.7,854a333.64,333.64,0,0,1-47.47-3.39,10.46,10.46,0,1,1,3-20.71A313.75,313.75,0,0,0,555.7,833c170.23,0,308.72-138.48,308.72-308.72S725.93,215.58,555.7,215.58c-108.3,0-210,57.89-265.49,151.07a10.47,10.47,0,0,1-18-10.7c59.21-99.49,167.84-161.3,283.48-161.3,181.77,0,329.65,147.88,329.65,329.65S737.47,854,555.7,854Z"/><polygon class="ad369f43-b061-4550-a832-2875996b3cb5" points="312.81 369.44 258.17 400.01 259 337.41 312.81 369.44"/><path class="f5572e2f-a142-461d-b04e-4aa8e6b90a14" d="M478.75,435.35H266.37a66.5,66.5,0,0,1-66.49,66.49V758.23L372.56,880.11,545.23,758.23V501.84A66.5,66.5,0,0,1,478.75,435.35Z"/><polygon class="e9b04ea3-5c2f-45aa-8742-139001064b69" points="199.88 758.23 372.56 880.11 545.23 758.23 545.23 503.37 199.88 758.23"/><path class="a90baa99-ac16-42a6-b815-9fc645ef0272" d="M372.56,885.34a5.22,5.22,0,0,1-3-1L196.87,762.51a5.24,5.24,0,0,1-2.22-4.28V686a5.24,5.24,0,0,1,10.47,0v69.56L372.56,873.71,540,755.52V591.07a5.24,5.24,0,0,1,10.47,0V758.23a5.24,5.24,0,0,1-2.22,4.28L375.58,884.39A5.22,5.22,0,0,1,372.56,885.34Z"/><path class="a90baa99-ac16-42a6-b815-9fc645ef0272" d="M199.88,659.8a5.23,5.23,0,0,1-5.23-5.23V501.84a5.23,5.23,0,0,1,5.23-5.24,61.32,61.32,0,0,0,61.26-61.25,5.23,5.23,0,0,1,5.23-5.23H478.75a5.23,5.23,0,0,1,5.23,5.23,61.32,61.32,0,0,0,61.25,61.25,5.24,5.24,0,0,1,5.24,5.24v57.83a5.24,5.24,0,1,1-10.47,0V506.88a71.85,71.85,0,0,1-66.3-66.3H271.41a71.83,71.83,0,0,1-66.29,66.3V654.57A5.24,5.24,0,0,1,199.88,659.8Z"/><path class="ee6ded9a-203b-4c8d-b7d7-9e962e811f00" d="M372.56,832.33a10.41,10.41,0,0,1-6-1.88L241,742.84a10.44,10.44,0,0,1-4.48-8.58V538.7a10.48,10.48,0,0,1,6.11-9.52,103.5,103.5,0,0,0,51.09-51.09,10.47,10.47,0,0,1,9.52-6.11H441.88a10.45,10.45,0,0,1,9.52,6.11,103.57,103.57,0,0,0,51.09,51.09,10.46,10.46,0,0,1,6.11,9.52V734.26a10.46,10.46,0,0,1-4.47,8.58L378.55,830.45A10.43,10.43,0,0,1,372.56,832.33ZM257.44,728.8l115.12,80.31L487.67,728.8V545.21a124.45,124.45,0,0,1-52.3-52.3H309.75a124.42,124.42,0,0,1-52.31,52.3Z"/><path class="b43f3334-0041-409f-9671-08ea994ad2b4" d="M396,643.16a38.94,38.94,0,0,0,15.68-32.25c-.55-20.45-17.59-37.51-38-38a39,39,0,0,0-24.52,70.3L333.72,692a8.7,8.7,0,0,0,8.3,11.31H403.1A8.69,8.69,0,0,0,411.39,692Z"/><path class="ee6ded9a-203b-4c8d-b7d7-9e962e811f00" d="M373.64,572.86a39,39,0,0,0-24.52,70.3l-2,6.43,63.45-46.82C406.39,586.12,391.29,573.33,373.64,572.86Z"/><path class="a90baa99-ac16-42a6-b815-9fc645ef0272" d="M403.1,708.55H342a13.93,13.93,0,0,1-13.29-18.12L343.06,645a44.29,44.29,0,0,1,30.72-77.33c23.16.62,42.51,20,43.14,43.14A44.38,44.38,0,0,1,402.05,645l14.33,45.48a13.93,13.93,0,0,1-13.28,18.12ZM372.56,578.08A33.79,33.79,0,0,0,352.27,639a5.22,5.22,0,0,1,1.84,5.75l-15.4,48.84a3.46,3.46,0,0,0,3.31,4.51H403.1a3.46,3.46,0,0,0,3.3-4.51L391,644.73a5.22,5.22,0,0,1,1.84-5.75,33.51,33.51,0,0,0,13.6-27.92,34.31,34.31,0,0,0-32.95-33Z"/><path class="f5572e2f-a142-461d-b04e-4aa8e6b90a14" d="M705.67,546.19A54.19,54.19,0,0,0,629,622.82l.94.95,76.58-76.58C706.25,546.86,706,546.51,705.67,546.19Z"/><path class="e9b04ea3-5c2f-45aa-8742-139001064b69" d="M630,623.77l37.37,37.37,38.32-38.32a54.14,54.14,0,0,0,.89-75.63Z"/><path class="a90baa99-ac16-42a6-b815-9fc645ef0272" d="M667.35,666.37a5.23,5.23,0,0,1-3.7-1.53l-38.31-38.32a59.42,59.42,0,0,1,84-84h0a59.43,59.43,0,0,1,0,84l-38.32,38.32A5.23,5.23,0,0,1,667.35,666.37Zm0-130.79a48.93,48.93,0,0,0-34.61,83.54l34.61,34.62L702,619.12a49,49,0,0,0,0-69.23h0A48.83,48.83,0,0,0,667.35,535.58Z"/><path class="ee6ded9a-203b-4c8d-b7d7-9e962e811f00" d="M667.83,558.12a17.22,17.22,0,0,0-10.82,31l-3.5,11.11,30.17-30.17A17.44,17.44,0,0,0,667.83,558.12Z"/><path class="b43f3334-0041-409f-9671-08ea994ad2b4" d="M684.61,574.91a16.36,16.36,0,0,0-.93-4.84l-30.17,30.17-3.29,10.44a3.84,3.84,0,0,0,3.66,5h27a3.84,3.84,0,0,0,3.66-5l-6.8-21.55A17.17,17.17,0,0,0,684.61,574.91Z"/><path class="f5572e2f-a142-461d-b04e-4aa8e6b90a14" d="M778.52,345a54.19,54.19,0,1,0-76.63,76.63l.94.95L779.41,346C779.11,345.65,778.84,345.3,778.52,345Z"/><path class="e9b04ea3-5c2f-45aa-8742-139001064b69" d="M702.83,422.56l37.37,37.36,38.32-38.31a54.15,54.15,0,0,0,.89-75.64Z"/><path class="a90baa99-ac16-42a6-b815-9fc645ef0272" d="M740.2,465.16a5.26,5.26,0,0,1-3.7-1.53l-38.31-38.32a59.42,59.42,0,0,1,84-84h0a59.43,59.43,0,0,1,0,84L743.9,463.63A5.23,5.23,0,0,1,740.2,465.16Zm0-130.79a48.93,48.93,0,0,0-34.61,83.54l34.61,34.62,34.62-34.62a48.95,48.95,0,0,0,0-69.23h0A48.81,48.81,0,0,0,740.2,334.37Z"/><path class="ee6ded9a-203b-4c8d-b7d7-9e962e811f00" d="M740.68,356.9a17.23,17.23,0,0,0-10.82,31L726.36,399l30.17-30.17A17.45,17.45,0,0,0,740.68,356.9Z"/><path class="b43f3334-0041-409f-9671-08ea994ad2b4" d="M757.47,373.69a16.63,16.63,0,0,0-.94-4.83L726.36,399l-3.29,10.43a3.84,3.84,0,0,0,3.66,5h26.95a3.84,3.84,0,0,0,3.66-5l-6.8-21.54A17.21,17.21,0,0,0,757.47,373.69Z"/><path class="f5572e2f-a142-461d-b04e-4aa8e6b90a14" d="M514,263.92a54.19,54.19,0,1,0-76.63,76.63l.94.94,76.59-76.58C514.55,264.59,514.28,264.23,514,263.92Z"/><path class="e9b04ea3-5c2f-45aa-8742-139001064b69" d="M438.27,341.49l37.38,37.37L514,340.55a54.16,54.16,0,0,0,.9-75.64Z"/><path class="a90baa99-ac16-42a6-b815-9fc645ef0272" d="M475.65,384.09a5.22,5.22,0,0,1-3.7-1.53l-38.32-38.31a59.42,59.42,0,1,1,84,0l-38.31,38.31A5.25,5.25,0,0,1,475.65,384.09Zm0-130.79A48.94,48.94,0,0,0,441,336.85l34.62,34.61,34.61-34.61a48.94,48.94,0,0,0-34.61-83.55Z"/><path class="ee6ded9a-203b-4c8d-b7d7-9e962e811f00" d="M476.12,275.84a17.22,17.22,0,0,0-10.81,31L461.8,318,492,287.8A17.43,17.43,0,0,0,476.12,275.84Z"/><path class="b43f3334-0041-409f-9671-08ea994ad2b4" d="M492.91,292.63a16.56,16.56,0,0,0-.94-4.83L461.8,318l-3.29,10.43a3.84,3.84,0,0,0,3.66,5h26.95a3.84,3.84,0,0,0,3.66-5L486,306.86A17.17,17.17,0,0,0,492.91,292.63Z"/><polygon class="ee6ded9a-203b-4c8d-b7d7-9e962e811f00" points="859.67 199.88 872.42 225.72 900.94 229.87 880.3 249.98 885.17 278.37 859.67 264.96 834.17 278.37 839.04 249.98 818.41 229.87 846.92 225.72 859.67 199.88"/><path class="bc554edf-1a51-43b7-be33-ef5bdbcbb9e7" d="M885.18,283.61a5.16,5.16,0,0,1-2.44-.61l-23.07-12.12L836.6,283a5.23,5.23,0,0,1-7.59-5.51l4.41-25.69-18.66-18.19a5.22,5.22,0,0,1,2.9-8.92l25.79-3.75L855,197.57c1.77-3.58,7.62-3.58,9.38,0l11.54,23.37,25.79,3.75a5.23,5.23,0,0,1,2.9,8.92L885.93,251.8l4.41,25.69a5.26,5.26,0,0,1-5.16,6.12Zm-25.51-23.88a5.13,5.13,0,0,1,2.44.61l16.12,8.47-3.08-17.95a5.22,5.22,0,0,1,1.5-4.63l13-12.71-18-2.62a5.27,5.27,0,0,1-3.94-2.86l-8.06-16.33L851.61,228a5.23,5.23,0,0,1-3.93,2.86l-18,2.62,13,12.71a5.24,5.24,0,0,1,1.5,4.63l-3.08,17.95,16.12-8.47A5.12,5.12,0,0,1,859.67,259.73Z"/><polygon class="ee6ded9a-203b-4c8d-b7d7-9e962e811f00" points="684.67 880.11 697.42 905.95 725.93 910.09 705.3 930.2 710.17 958.6 684.67 945.2 659.16 958.6 664.03 930.2 643.4 910.09 671.91 905.95 684.67 880.11"/><path class="bc554edf-1a51-43b7-be33-ef5bdbcbb9e7" d="M710.17,963.83a5.27,5.27,0,0,1-2.44-.6L684.67,951.1,661.6,963.23a5.24,5.24,0,0,1-7.6-5.51L658.41,932l-18.66-18.19a5.22,5.22,0,0,1,2.9-8.92l25.79-3.76L680,877.8a5.21,5.21,0,0,1,4.69-2.92h0a5.23,5.23,0,0,1,4.69,2.92l11.53,23.36,25.79,3.76a5.22,5.22,0,0,1,2.9,8.92L710.92,932l4.41,25.69a5.24,5.24,0,0,1-2.09,5.11A5.17,5.17,0,0,1,710.17,963.83Zm-55.52-50.08,13,12.71a5.23,5.23,0,0,1,1.5,4.63L666.11,949l16.12-8.47a5.18,5.18,0,0,1,4.87,0L703.22,949l-3.08-17.94a5.23,5.23,0,0,1,1.5-4.63l13-12.71-18-2.63a5.22,5.22,0,0,1-3.94-2.86l-8.05-16.32-8.06,16.32a5.22,5.22,0,0,1-3.94,2.86Z"/><polygon class="ee6ded9a-203b-4c8d-b7d7-9e962e811f00" points="234.72 834.04 247.47 859.87 275.99 864.02 255.35 884.12 260.23 912.52 234.72 899.12 209.22 912.52 214.09 884.12 193.46 864.02 221.97 859.87 234.72 834.04"/><path class="bc554edf-1a51-43b7-be33-ef5bdbcbb9e7" d="M209.22,917.75a5.23,5.23,0,0,1-5.16-6.12L208.47,886,189.8,867.76a5.24,5.24,0,0,1,2.9-8.93l25.8-3.75L230,831.72c1.76-3.58,7.62-3.58,9.38,0L251,855.08l25.79,3.75a5.24,5.24,0,0,1,2.9,8.93L261,886l4.4,25.68a5.23,5.23,0,0,1-7.59,5.52L234.72,905l-23.07,12.13A5.23,5.23,0,0,1,209.22,917.75Zm25.5-23.87a5.16,5.16,0,0,1,2.44.61L253.28,903,250.2,885a5.23,5.23,0,0,1,1.5-4.63l13-12.72-18-2.62a5.24,5.24,0,0,1-3.94-2.85l-8.06-16.34-8.05,16.34a5.25,5.25,0,0,1-3.94,2.85l-18,2.62,13,12.72a5.24,5.24,0,0,1,1.51,4.63L216.17,903l16.12-8.46A5.12,5.12,0,0,1,234.72,893.88Z"/><polygon class="ee6ded9a-203b-4c8d-b7d7-9e962e811f00" points="942.91 607.25 955.84 633.46 984.77 637.67 963.84 658.07 968.78 686.88 942.91 673.27 917.03 686.88 921.98 658.07 901.05 637.67 929.97 633.46 942.91 607.25"/><path class="bc554edf-1a51-43b7-be33-ef5bdbcbb9e7" d="M968.78,692.11a5.19,5.19,0,0,1-2.44-.61l-23.43-12.31L919.47,691.5a5.22,5.22,0,0,1-7.59-5.51l4.47-26.09-19-18.49a5.23,5.23,0,0,1,2.9-8.92l26.21-3.81,11.71-23.74c1.77-3.58,7.63-3.58,9.39,0l11.72,23.74,26.2,3.81a5.23,5.23,0,0,1,2.9,8.92l-19,18.49L973.94,686a5.24,5.24,0,0,1-5.16,6.12Zm-25.87-24.06a5.11,5.11,0,0,1,2.43.6l16.49,8.66L958.68,659a5.25,5.25,0,0,1,1.5-4.63l13.34-13-18.43-2.68a5.23,5.23,0,0,1-3.94-2.86l-8.24-16.7-8.25,16.7a5.21,5.21,0,0,1-3.94,2.86l-18.43,2.68,13.34,13a5.25,5.25,0,0,1,1.5,4.63L924,677.31l16.49-8.66A5.12,5.12,0,0,1,942.91,668.05Z"/><polygon class="ee6ded9a-203b-4c8d-b7d7-9e962e811f00" points="345.65 121.4 358.4 147.23 386.92 151.38 366.28 171.49 371.15 199.88 345.65 186.48 320.15 199.88 325.02 171.49 304.39 151.38 332.9 147.23 345.65 121.4"/><path class="bc554edf-1a51-43b7-be33-ef5bdbcbb9e7" d="M371.15,205.12a5.23,5.23,0,0,1-2.43-.6l-23.07-12.13-23.07,12.13A5.23,5.23,0,0,1,315,199l4.4-25.69-18.66-18.19a5.23,5.23,0,0,1,2.9-8.92l25.8-3.75L341,119.08a5.23,5.23,0,0,1,4.69-2.92h0a5.24,5.24,0,0,1,4.7,2.92l11.53,23.37,25.79,3.75a5.23,5.23,0,0,1,2.9,8.92l-18.66,18.19,4.4,25.69a5.23,5.23,0,0,1-5.16,6.12ZM315.63,155l13,12.71a5.25,5.25,0,0,1,1.51,4.63l-3.08,17.95,16.12-8.47a5.18,5.18,0,0,1,4.87,0l16.11,8.47-3.08-17.95a5.28,5.28,0,0,1,1.51-4.63l13-12.71-18-2.62a5.23,5.23,0,0,1-3.94-2.86l-8.06-16.33-8.06,16.33a5.23,5.23,0,0,1-3.94,2.86Z"/><polygon class="ee6ded9a-203b-4c8d-b7d7-9e962e811f00" points="136.5 435.35 149.25 461.19 177.76 465.33 157.13 485.44 162 513.84 136.5 500.43 111 513.84 115.87 485.44 95.23 465.33 123.75 461.19 136.5 435.35"/><path class="bc554edf-1a51-43b7-be33-ef5bdbcbb9e7" d="M162,519.07a5.3,5.3,0,0,1-2.44-.6L136.5,506.34l-23.07,12.13a5.23,5.23,0,0,1-7.59-5.52l4.4-25.68L91.58,469.08a5.24,5.24,0,0,1,2.9-8.93l25.79-3.75L131.81,433a5.23,5.23,0,0,1,4.69-2.92h0a5.23,5.23,0,0,1,4.69,2.92l11.53,23.36,25.79,3.75a5.23,5.23,0,0,1,2.9,8.93l-18.66,18.19L167.16,513a5.23,5.23,0,0,1-5.16,6.12ZM106.48,469l13,12.72a5.23,5.23,0,0,1,1.5,4.63l-3.08,17.94,16.12-8.47a5.18,5.18,0,0,1,4.87,0l16.12,8.47L152,486.33a5.21,5.21,0,0,1,1.51-4.63l13-12.72-18-2.62a5.24,5.24,0,0,1-3.94-2.86l-8.05-16.33-8.06,16.33a5.23,5.23,0,0,1-3.94,2.86Z"/></svg>