<svg id="be1720e4-bd39-4c19-8989-1bdfa30925bb" data-name="Capa 1" xmlns="http://www.w3.org/2000/svg" viewBox="0 0 1080 1080"><defs><style>.ab1346e6-38f7-4755-b127-8e57ce7790ab{fill:#f6f6f6;}.eaa9a66b-fc41-4a85-b057-007173f85bd8{fill:#ededed;}.eb0d77a4-7177-49d2-b908-59abe0afae41{fill:#989aa6;}.af14116b-f301-4754-8a5a-946565ec1a67{fill:#fff;}.b61c1b24-fd3a-47ea-a5cc-186ad096602b{fill:#b8b5c6;}.f855e581-e26e-4089-a60c-ce1e01cc8ea9{fill:#282c3f;}.b0522ed1-04a1-482f-8eb4-1ea376bd655a{fill:#52576a;}.e75e8266-be1c-4b16-a4e5-ab542b694046{fill:#30354c;}.a41ef8a6-4b52-406d-952d-a4420fd9fe65{fill:#2fc8f2;}.a46cccf7-afdc-494e-9f22-f25b07defe9e{fill:#2caae6;}.b4ffabce-2caa-4ed0-8c8a-6b6c3bccc01f{fill:#a09cad;}</style></defs><title>ICONS S2R</title><path class="ab1346e6-38f7-4755-b127-8e57ce7790ab" d="M879.44,594.94c10.56-64.16,83.15-139.68,58.33-204.86s-129.5-73.88-180.15-115c-52.26-42.4-82.66-142-149.21-152.8-64.5-10.51-124.71,73.15-190.23,97.84s-166.34,1.73-207.65,52.13c-42.61,52,.93,146.59-10,212.78C190,549.22,117.41,624.74,142.23,689.92s129.5,73.89,180.15,115c52.26,42.4,82.66,142,149.21,152.8,64.5,10.51,124.71-73.15,190.23-97.84s166.34-1.73,207.65-52.13C912.08,755.75,868.54,661.14,879.44,594.94Z"/><rect class="eaa9a66b-fc41-4a85-b057-007173f85bd8" x="199.88" y="540" width="575.58" height="418.6" rx="62.79"/><path class="eb0d77a4-7177-49d2-b908-59abe0afae41" d="M984.77,963.84H95.23a5.24,5.24,0,0,1,0-10.47H984.77a5.24,5.24,0,0,1,0,10.47Z"/><rect class="af14116b-f301-4754-8a5a-946565ec1a67" x="199.88" y="540" width="575.58" height="381.98" rx="62.79"/><path class="b61c1b24-fd3a-47ea-a5cc-186ad096602b" d="M377.79,801.63H754.53a20.93,20.93,0,0,1,20.93,20.93v83.72a0,0,0,0,1,0,0H377.79a20.93,20.93,0,0,1-20.93-20.93V822.56A20.93,20.93,0,0,1,377.79,801.63Z"/><path class="b61c1b24-fd3a-47ea-a5cc-186ad096602b" d="M377.79,634.19H754.53a20.93,20.93,0,0,1,20.93,20.93v83.72a0,0,0,0,1,0,0H377.79a20.93,20.93,0,0,1-20.93-20.93V655.12A20.93,20.93,0,0,1,377.79,634.19Z"/><path class="f855e581-e26e-4089-a60c-ce1e01cc8ea9" d="M712.67,963.84H629a5.24,5.24,0,0,1,0-10.47h83.72a57.62,57.62,0,0,0,57.56-57.56v-293a57.62,57.62,0,0,0-57.56-57.56H388.26a5.23,5.23,0,1,1,0-10.46H712.67a68.1,68.1,0,0,1,68,68v293A68.11,68.11,0,0,1,712.67,963.84Z"/><path class="f855e581-e26e-4089-a60c-ce1e01cc8ea9" d="M597.56,963.84H262.67a68.1,68.1,0,0,1-68-68v-293a68.09,68.09,0,0,1,68-68h94.19a5.23,5.23,0,0,1,0,10.46H262.67a57.62,57.62,0,0,0-57.55,57.56v293a57.62,57.62,0,0,0,57.55,57.56H597.56a5.24,5.24,0,0,1,0,10.47Z"/><rect class="b0522ed1-04a1-482f-8eb4-1ea376bd655a" x="335.93" y="780.7" width="544.19" height="104.65" rx="20.93"/><rect class="e75e8266-be1c-4b16-a4e5-ab542b694046" x="335.93" y="806.86" width="544.19" height="78.49" rx="20.93"/><rect class="a41ef8a6-4b52-406d-952d-a4420fd9fe65" x="335.93" y="613.26" width="544.19" height="104.65" rx="20.93"/><rect class="a46cccf7-afdc-494e-9f22-f25b07defe9e" x="335.93" y="639.42" width="544.19" height="78.49" rx="20.93"/><path class="f855e581-e26e-4089-a60c-ce1e01cc8ea9" d="M859.19,890.58H356.86a26.2,26.2,0,0,1-26.16-26.16V801.63a26.19,26.19,0,0,1,26.16-26.16H859.19a26.19,26.19,0,0,1,26.16,26.16v62.79A26.2,26.2,0,0,1,859.19,890.58ZM356.86,785.93a15.71,15.71,0,0,0-15.7,15.7v62.79a15.72,15.72,0,0,0,15.7,15.7H859.19a15.72,15.72,0,0,0,15.69-15.7V801.63a15.71,15.71,0,0,0-15.69-15.7Z"/><path class="f855e581-e26e-4089-a60c-ce1e01cc8ea9" d="M859.19,723.14H555.7a5.24,5.24,0,0,1,0-10.47H859.19A15.71,15.71,0,0,0,874.88,697V634.19a15.71,15.71,0,0,0-15.69-15.7H356.86a15.71,15.71,0,0,0-15.7,15.7V697a15.71,15.71,0,0,0,15.7,15.69H524.3a5.24,5.24,0,0,1,0,10.47H356.86A26.2,26.2,0,0,1,330.7,697V634.19A26.2,26.2,0,0,1,356.86,608H859.19a26.2,26.2,0,0,1,26.16,26.17V697A26.2,26.2,0,0,1,859.19,723.14Z"/><path class="b4ffabce-2caa-4ed0-8c8a-6b6c3bccc01f" d="M560.93,278.37H414.42a136,136,0,0,0-136,136.05V540h78.49V414.42a57.56,57.56,0,0,1,57.56-57.56H560.93a57.56,57.56,0,0,1,57.56,57.56V540H697V414.42A136,136,0,0,0,560.93,278.37Z"/><path class="b61c1b24-fd3a-47ea-a5cc-186ad096602b" d="M560.93,278.37H414.42a136,136,0,0,0-136,136.05V508.6h78.49V414.42a57.56,57.56,0,0,1,57.56-57.56H560.93a57.56,57.56,0,0,1,57.56,57.56V508.6H697V414.42A136,136,0,0,0,560.93,278.37Z"/><path class="f855e581-e26e-4089-a60c-ce1e01cc8ea9" d="M697,545.23H618.49a5.23,5.23,0,0,1-5.23-5.23V487.67a5.23,5.23,0,0,1,10.46,0v47.1h68V414.42c0-72.13-58.68-130.82-130.81-130.82H414.42c-72.13,0-130.82,58.69-130.82,130.82V534.77h68V414.42a62.86,62.86,0,0,1,62.79-62.79H560.93a62.86,62.86,0,0,1,62.79,62.79v41.86a5.23,5.23,0,0,1-10.46,0V414.42a52.4,52.4,0,0,0-52.33-52.33H414.42a52.4,52.4,0,0,0-52.33,52.33V540a5.23,5.23,0,0,1-5.23,5.23H278.37a5.23,5.23,0,0,1-5.23-5.23V414.42c0-77.9,63.38-141.28,141.28-141.28H560.93c77.9,0,141.28,63.38,141.28,141.28V540A5.23,5.23,0,0,1,697,545.23Z"/><path class="af14116b-f301-4754-8a5a-946565ec1a67" d="M534.77,861.8a5.24,5.24,0,0,1-5.24-5.23V809.48a5.24,5.24,0,1,1,10.47,0v47.09A5.23,5.23,0,0,1,534.77,861.8Z"/><path class="af14116b-f301-4754-8a5a-946565ec1a67" d="M555.15,850a5.3,5.3,0,0,1-2.61-.7l-40.78-23.55a5.23,5.23,0,1,1,5.23-9.06l40.79,23.54a5.24,5.24,0,0,1-2.63,9.77Z"/><path class="af14116b-f301-4754-8a5a-946565ec1a67" d="M514.38,850a5.23,5.23,0,0,1-2.62-9.77l40.78-23.54a5.23,5.23,0,0,1,5.24,9.06L517,849.33A5.24,5.24,0,0,1,514.38,850Z"/><path class="af14116b-f301-4754-8a5a-946565ec1a67" d="M461.51,861.8a5.23,5.23,0,0,1-5.23-5.23V809.48a5.23,5.23,0,1,1,10.46,0v47.09A5.23,5.23,0,0,1,461.51,861.8Z"/><path class="af14116b-f301-4754-8a5a-946565ec1a67" d="M481.9,850a5.24,5.24,0,0,1-2.61-.7L438.5,825.78a5.23,5.23,0,1,1,5.24-9.06l40.78,23.54A5.23,5.23,0,0,1,481.9,850Z"/><path class="af14116b-f301-4754-8a5a-946565ec1a67" d="M441.13,850a5.24,5.24,0,0,1-2.63-9.77l40.79-23.54a5.23,5.23,0,1,1,5.23,9.06l-40.78,23.55A5.3,5.3,0,0,1,441.13,850Z"/><path class="af14116b-f301-4754-8a5a-946565ec1a67" d="M388.26,861.8a5.24,5.24,0,0,1-5.24-5.23V809.48a5.24,5.24,0,1,1,10.47,0v47.09A5.23,5.23,0,0,1,388.26,861.8Z"/><path class="af14116b-f301-4754-8a5a-946565ec1a67" d="M408.64,850a5.3,5.3,0,0,1-2.61-.7l-40.78-23.55a5.23,5.23,0,1,1,5.23-9.06l40.78,23.54a5.23,5.23,0,0,1-2.62,9.77Z"/><path class="af14116b-f301-4754-8a5a-946565ec1a67" d="M367.87,850a5.23,5.23,0,0,1-2.62-9.77L406,816.72a5.23,5.23,0,1,1,5.23,9.06l-40.78,23.55A5.24,5.24,0,0,1,367.87,850Z"/><path class="af14116b-f301-4754-8a5a-946565ec1a67" d="M681.28,861.8a5.23,5.23,0,0,1-5.23-5.23V809.48a5.23,5.23,0,1,1,10.46,0v47.09A5.23,5.23,0,0,1,681.28,861.8Z"/><path class="af14116b-f301-4754-8a5a-946565ec1a67" d="M701.67,850a5.31,5.31,0,0,1-2.62-.7l-40.78-23.55a5.23,5.23,0,0,1,5.23-9.06l40.79,23.54a5.24,5.24,0,0,1-2.62,9.77Z"/><path class="af14116b-f301-4754-8a5a-946565ec1a67" d="M660.89,850a5.24,5.24,0,0,1-2.62-9.77l40.78-23.54a5.23,5.23,0,0,1,5.24,9.06L663.5,849.33A5.24,5.24,0,0,1,660.89,850Z"/><path class="af14116b-f301-4754-8a5a-946565ec1a67" d="M754.53,861.8a5.23,5.23,0,0,1-5.23-5.23V809.48a5.24,5.24,0,1,1,10.47,0v47.09A5.24,5.24,0,0,1,754.53,861.8Z"/><path class="af14116b-f301-4754-8a5a-946565ec1a67" d="M774.92,850a5.27,5.27,0,0,1-2.61-.7l-40.78-23.55a5.23,5.23,0,1,1,5.23-9.06l40.78,23.54a5.23,5.23,0,0,1-2.62,9.77Z"/><path class="af14116b-f301-4754-8a5a-946565ec1a67" d="M734.15,850a5.23,5.23,0,0,1-2.62-9.77l40.78-23.54a5.23,5.23,0,1,1,5.23,9.06l-40.78,23.55A5.24,5.24,0,0,1,734.15,850Z"/><path class="af14116b-f301-4754-8a5a-946565ec1a67" d="M827.79,861.8a5.23,5.23,0,0,1-5.23-5.23V809.48a5.23,5.23,0,1,1,10.46,0v47.09A5.23,5.23,0,0,1,827.79,861.8Z"/><path class="af14116b-f301-4754-8a5a-946565ec1a67" d="M848.18,850a5.24,5.24,0,0,1-2.61-.7l-40.79-23.55a5.23,5.23,0,1,1,5.24-9.06l40.78,23.54a5.24,5.24,0,0,1-2.62,9.77Z"/><path class="af14116b-f301-4754-8a5a-946565ec1a67" d="M807.4,850a5.24,5.24,0,0,1-2.62-9.77l40.79-23.54a5.23,5.23,0,0,1,5.23,9.06L810,849.33A5.31,5.31,0,0,1,807.4,850Z"/><path class="af14116b-f301-4754-8a5a-946565ec1a67" d="M608,861.8a5.23,5.23,0,0,1-5.23-5.23V809.48a5.24,5.24,0,1,1,10.47,0v47.09A5.24,5.24,0,0,1,608,861.8Z"/><path class="af14116b-f301-4754-8a5a-946565ec1a67" d="M628.41,850a5.24,5.24,0,0,1-2.61-.7L585,825.78a5.23,5.23,0,1,1,5.23-9.06L631,840.26a5.23,5.23,0,0,1-2.62,9.77Z"/><path class="af14116b-f301-4754-8a5a-946565ec1a67" d="M587.64,850a5.23,5.23,0,0,1-2.62-9.77l40.78-23.54a5.23,5.23,0,1,1,5.23,9.06l-40.78,23.55A5.27,5.27,0,0,1,587.64,850Z"/><path class="af14116b-f301-4754-8a5a-946565ec1a67" d="M833,676.05H686.51a10.47,10.47,0,0,1,0-20.93H833a10.47,10.47,0,1,1,0,20.93Z"/><path class="af14116b-f301-4754-8a5a-946565ec1a67" d="M629,676.05H383a10.47,10.47,0,0,1,0-20.93H629a10.47,10.47,0,1,1,0,20.93Z"/><circle class="af14116b-f301-4754-8a5a-946565ec1a67" cx="859.19" cy="419.65" r="41.86"/><path class="b4ffabce-2caa-4ed0-8c8a-6b6c3bccc01f" d="M859.19,466.74a5.24,5.24,0,0,1-5.24-5.23,36.67,36.67,0,0,0-36.62-36.63,5.23,5.23,0,1,1,0-10.46A36.67,36.67,0,0,0,854,377.79a5.24,5.24,0,0,1,10.47,0,36.67,36.67,0,0,0,36.63,36.63,5.23,5.23,0,1,1,0,10.46,36.68,36.68,0,0,0-36.63,36.63A5.23,5.23,0,0,1,859.19,466.74Zm-20.3-47.09a47.47,47.47,0,0,1,20.3,20.3,47.37,47.37,0,0,1,20.3-20.3,47.37,47.37,0,0,1-20.3-20.3A47.47,47.47,0,0,1,838.89,419.65Z"/><circle class="af14116b-f301-4754-8a5a-946565ec1a67" cx="942.91" cy="749.3" r="41.86"/><path class="eb0d77a4-7177-49d2-b908-59abe0afae41" d="M942.91,796.4a5.25,5.25,0,0,1-5.24-5.24,36.67,36.67,0,0,0-36.62-36.63,5.23,5.23,0,1,1,0-10.46,36.67,36.67,0,0,0,36.62-36.63,5.24,5.24,0,0,1,10.47,0,36.67,36.67,0,0,0,36.63,36.63,5.23,5.23,0,1,1,0,10.46,36.68,36.68,0,0,0-36.63,36.63A5.24,5.24,0,0,1,942.91,796.4Zm-20.3-47.1a47.42,47.42,0,0,1,20.3,20.3,47.37,47.37,0,0,1,20.3-20.3A47.4,47.4,0,0,1,942.91,729,47.45,47.45,0,0,1,922.61,749.3Z"/><circle class="af14116b-f301-4754-8a5a-946565ec1a67" cx="712.67" cy="215.58" r="41.86"/><path class="eb0d77a4-7177-49d2-b908-59abe0afae41" d="M712.67,262.67a5.23,5.23,0,0,1-5.23-5.23,36.68,36.68,0,0,0-36.63-36.63,5.23,5.23,0,1,1,0-10.46,36.67,36.67,0,0,0,36.63-36.63,5.24,5.24,0,0,1,10.47,0,36.67,36.67,0,0,0,36.62,36.63,5.23,5.23,0,1,1,0,10.46,36.67,36.67,0,0,0-36.62,36.63A5.24,5.24,0,0,1,712.67,262.67Zm-20.29-47.09a47.4,47.4,0,0,1,20.29,20.3,47.47,47.47,0,0,1,20.3-20.3,47.47,47.47,0,0,1-20.3-20.3A47.4,47.4,0,0,1,692.38,215.58Z"/><circle class="af14116b-f301-4754-8a5a-946565ec1a67" cx="383.02" cy="163.26" r="41.86"/><path class="eb0d77a4-7177-49d2-b908-59abe0afae41" d="M383,210.35a5.23,5.23,0,0,1-5.23-5.23,36.67,36.67,0,0,0-36.63-36.63,5.24,5.24,0,0,1,0-10.47,36.67,36.67,0,0,0,36.63-36.62,5.24,5.24,0,1,1,10.47,0A36.66,36.66,0,0,0,424.88,158a5.24,5.24,0,1,1,0,10.47,36.67,36.67,0,0,0-36.62,36.63A5.24,5.24,0,0,1,383,210.35Zm-20.3-47.09A47.4,47.4,0,0,1,383,183.55a47.45,47.45,0,0,1,20.3-20.29A47.47,47.47,0,0,1,383,143,47.42,47.42,0,0,1,362.72,163.26Z"/><circle class="af14116b-f301-4754-8a5a-946565ec1a67" cx="163.26" cy="477.21" r="41.86"/><path class="eb0d77a4-7177-49d2-b908-59abe0afae41" d="M163.26,524.3a5.24,5.24,0,0,1-5.24-5.23,36.67,36.67,0,0,0-36.62-36.63,5.23,5.23,0,1,1,0-10.46A36.67,36.67,0,0,0,158,435.35a5.24,5.24,0,0,1,10.47,0A36.68,36.68,0,0,0,205.12,472a5.23,5.23,0,1,1,0,10.46,36.68,36.68,0,0,0-36.63,36.63A5.23,5.23,0,0,1,163.26,524.3ZM143,477.21a47.47,47.47,0,0,1,20.3,20.3,47.37,47.37,0,0,1,20.3-20.3,47.37,47.37,0,0,1-20.3-20.3A47.47,47.47,0,0,1,143,477.21Z"/><circle class="af14116b-f301-4754-8a5a-946565ec1a67" cx="138.17" cy="806.86" r="41.86"/><path class="eb0d77a4-7177-49d2-b908-59abe0afae41" d="M138.17,854a5.23,5.23,0,0,1-5.23-5.23,36.68,36.68,0,0,0-36.63-36.63,5.23,5.23,0,1,1,0-10.46A36.68,36.68,0,0,0,132.94,765a5.23,5.23,0,0,1,10.46,0A36.68,36.68,0,0,0,180,801.63a5.23,5.23,0,0,1,0,10.46,36.68,36.68,0,0,0-36.63,36.63A5.23,5.23,0,0,1,138.17,854Zm-20.3-47.09a47.37,47.37,0,0,1,20.3,20.3,47.37,47.37,0,0,1,20.3-20.3,47.37,47.37,0,0,1-20.3-20.3A47.37,47.37,0,0,1,117.87,806.86Z"/></svg>