<svg id="bba679fa-116a-4117-942e-709d616898c3" data-name="Capa 1" xmlns="http://www.w3.org/2000/svg" viewBox="0 0 1080 1080"><defs><style>.b075c4c7-a24e-4af6-9a8f-4ab89d889bb0{fill:#f6f6f6;}.e95c8aee-9be3-4a6b-926d-26639e4409ea{fill:#fff;}.b170a99c-09bd-4049-b82c-77e8351f6898{fill:#b8b5c6;}.a461ec45-abc7-49e2-b9b7-31ddf4b8b91b{fill:#282c3f;}.a62298d6-2b76-447d-a0bf-a305e6fb235b{fill:#2fc8f2;}.f72c912f-8615-4075-b922-6601778170c1{fill:#2caae6;}.aaad0a42-0999-42e6-b6e2-24544eab8fe8{fill:#52576a;}.e4b3ce8b-5a8e-4bfb-bd6d-f9eb85231434{fill:#ededed;}.b29db5a5-5247-4fc3-be69-e107d6085819{fill:#989aa6;}</style></defs><title>ICONS S2R</title><path class="b075c4c7-a24e-4af6-9a8f-4ab89d889bb0" d="M961.57,437.44c-16.92-69.3-121.79-91.23-167.9-139.3C746.1,248.55,727.85,143.63,661.84,124.3c-64-18.74-135.47,58.71-204.91,75.6s-168.62-19-216.78,27c-49.69,47.48-17.51,149-36.88,214.89C184.5,505.62,101.5,573.26,118.43,642.56s121.79,91.23,167.9,139.3c47.57,49.59,65.82,154.51,131.83,173.84,64,18.74,135.47-58.71,204.91-75.6s168.62,19,216.78-27c49.69-47.48,17.51-149,36.88-214.89C895.5,574.38,978.5,506.74,961.57,437.44Z"/><rect class="e95c8aee-9be3-4a6b-926d-26639e4409ea" x="199.88" y="351.63" width="680.23" height="544.19"/><rect class="b170a99c-09bd-4049-b82c-77e8351f6898" x="456.28" y="560.93" width="245.93" height="198.84" rx="15.61"/><rect class="b170a99c-09bd-4049-b82c-77e8351f6898" x="749.3" y="560.93" width="88.95" height="198.84" rx="15.61"/><rect class="b170a99c-09bd-4049-b82c-77e8351f6898" x="241.74" y="560.93" width="167.44" height="198.84" rx="15.61"/><rect class="b170a99c-09bd-4049-b82c-77e8351f6898" x="241.74" y="393.49" width="596.51" height="125.58" rx="15.61"/><rect class="b170a99c-09bd-4049-b82c-77e8351f6898" x="241.74" y="393.49" width="596.51" height="125.58" rx="15.61"/><rect class="b170a99c-09bd-4049-b82c-77e8351f6898" x="241.74" y="801.63" width="596.51" height="52.33" rx="15.61"/><path class="a461ec45-abc7-49e2-b9b7-31ddf4b8b91b" d="M645.06,901.05H199.88a5.24,5.24,0,0,1-5.23-5.24V351.63a5.23,5.23,0,0,1,5.23-5.23H880.12a5.23,5.23,0,0,1,5.23,5.23v73.25a5.24,5.24,0,1,1-10.47,0v-68H205.12V890.58H645.06a5.24,5.24,0,0,1,0,10.47Z"/><path class="a461ec45-abc7-49e2-b9b7-31ddf4b8b91b" d="M880.12,901.05H834.06a5.24,5.24,0,0,1,0-10.47h40.82V456.28a5.24,5.24,0,0,1,10.47,0V895.81A5.24,5.24,0,0,1,880.12,901.05Z"/><rect class="a62298d6-2b76-447d-a0bf-a305e6fb235b" x="199.88" y="278.37" width="680.23" height="73.26"/><rect class="f72c912f-8615-4075-b922-6601778170c1" x="199.88" y="304.53" width="680.23" height="47.09"/><path class="a461ec45-abc7-49e2-b9b7-31ddf4b8b91b" d="M880.12,356.86H199.88a5.23,5.23,0,0,1-5.23-5.23V278.37a5.23,5.23,0,0,1,5.23-5.23H364.71a5.23,5.23,0,0,1,0,10.46H205.12v62.8H874.88V283.6H396.1a5.23,5.23,0,0,1,0-10.46h484a5.23,5.23,0,0,1,5.23,5.23v73.26A5.23,5.23,0,0,1,880.12,356.86Z"/><circle class="e95c8aee-9be3-4a6b-926d-26639e4409ea" cx="236.51" cy="315" r="7.85"/><circle class="e95c8aee-9be3-4a6b-926d-26639e4409ea" cx="273.14" cy="315" r="7.85"/><circle class="e95c8aee-9be3-4a6b-926d-26639e4409ea" cx="309.77" cy="315" r="7.85"/><path class="a461ec45-abc7-49e2-b9b7-31ddf4b8b91b" d="M762.75,958.6a44,44,0,0,1-31.19-12.91L357.45,571.58a44.11,44.11,0,1,1,62.38-62.38L793.94,883.31a44.1,44.1,0,0,1-31.19,75.29Z"/><rect class="aaad0a42-0999-42e6-b6e2-24544eab8fe8" x="699.39" y="882.16" width="88.22" height="26.16" transform="translate(-415.27 787.96) rotate(-45)"/><path class="a461ec45-abc7-49e2-b9b7-31ddf4b8b91b" d="M762.75,963.84a49,49,0,0,1-34.89-14.45L353.75,575.28a49.34,49.34,0,0,1,69.78-69.78L797.64,879.61a49.34,49.34,0,0,1-34.89,84.23ZM388.64,501.53a38.86,38.86,0,0,0-27.49,66.35L735.26,942a38.88,38.88,0,0,0,55-55L416.13,512.9A38.75,38.75,0,0,0,388.64,501.53Z"/><path class="a62298d6-2b76-447d-a0bf-a305e6fb235b" d="M337.66,784.2a208.4,208.4,0,0,1-48.82-134.32c0-115.59,93.71-209.3,209.3-209.3A208.42,208.42,0,0,1,632.46,489.4a208.83,208.83,0,0,0-160.48-75c-115.6,0-209.31,93.71-209.31,209.3A208.8,208.8,0,0,0,337.66,784.2Z"/><path class="f72c912f-8615-4075-b922-6601778170c1" d="M288.84,649.88A208.4,208.4,0,0,0,337.66,784.2,208.4,208.4,0,0,0,472,833c115.59,0,209.3-93.71,209.3-209.3A208.42,208.42,0,0,0,632.46,489.4a208.42,208.42,0,0,0-134.32-48.82C382.55,440.58,288.84,534.29,288.84,649.88Z"/><path class="a461ec45-abc7-49e2-b9b7-31ddf4b8b91b" d="M472,838.26c-118.3,0-214.54-96.24-214.54-214.54S353.68,409.19,472,409.19s214.53,96.24,214.53,214.53S590.27,838.26,472,838.26Zm0-418.61c-112.53,0-204.07,91.55-204.07,204.07S359.45,827.79,472,827.79s204.07-91.54,204.07-204.07S584.5,419.65,472,419.65Z"/><path class="e4b3ce8b-5a8e-4bfb-bd6d-f9eb85231434" d="M565.37,504.17A151.7,151.7,0,0,1,352.42,717.11a151.71,151.71,0,1,0,213-212.94Z"/><path class="e95c8aee-9be3-4a6b-926d-26639e4409ea" d="M597.56,597.56a151,151,0,0,0-32.19-93.39A151.7,151.7,0,0,0,352.42,717.11,151.7,151.7,0,0,0,597.56,597.56Z"/><path class="aaad0a42-0999-42e6-b6e2-24544eab8fe8" d="M409.81,624.48l50.34,50.33a10.46,10.46,0,0,0,14.8,0L589.88,559.9c10.69-10.69,27.87-12.54,39.77-3.4a29.23,29.23,0,0,0-7.51-13.21,29.57,29.57,0,0,0-41.82,0L467.55,656.05l-48.18-48.17a29.55,29.55,0,0,0-41.82,0,29.2,29.2,0,0,0-7.51,13.2C381.94,611.94,399.12,613.79,409.81,624.48Z"/><path class="a461ec45-abc7-49e2-b9b7-31ddf4b8b91b" d="M377.55,649.69l69.09,69.09a29.57,29.57,0,0,0,41.82,0L622.14,585.1a29.43,29.43,0,0,0,7.51-28.6c-11.9-9.14-29.08-7.29-39.77,3.4L475,674.81a10.46,10.46,0,0,1-14.8,0l-50.34-50.33c-10.69-10.69-27.87-12.54-39.77-3.4A29.42,29.42,0,0,0,377.55,649.69Z"/><path class="a461ec45-abc7-49e2-b9b7-31ddf4b8b91b" d="M467.55,732.68a34.58,34.58,0,0,1-24.61-10.2l-69.09-69.09a34.8,34.8,0,1,1,49.22-49.21l44.48,44.47L576.62,539.59a34.84,34.84,0,0,1,49.22,0h0a34.8,34.8,0,0,1,0,49.21L492.16,722.48A34.58,34.58,0,0,1,467.55,732.68ZM398.46,604.44A24.34,24.34,0,0,0,381.25,646l69.09,69.09a24.34,24.34,0,0,0,34.42,0L618.44,581.4a24.32,24.32,0,0,0,0-34.41h0A24.34,24.34,0,0,0,584,547L471.25,659.75a5.22,5.22,0,0,1-7.4,0l-48.18-48.18A24.22,24.22,0,0,0,398.46,604.44Z"/><path class="b29db5a5-5247-4fc3-be69-e107d6085819" d="M649.88,215.58H608a5.23,5.23,0,0,1,0-10.46h41.86a5.23,5.23,0,1,1,0,10.46Z"/><path class="b29db5a5-5247-4fc3-be69-e107d6085819" d="M629,236.51a5.23,5.23,0,0,1-5.23-5.23V189.42a5.24,5.24,0,0,1,10.47,0v41.86A5.24,5.24,0,0,1,629,236.51Z"/><path class="b29db5a5-5247-4fc3-be69-e107d6085819" d="M948.14,477.21H906.28a5.24,5.24,0,0,1,0-10.47h41.86a5.24,5.24,0,0,1,0,10.47Z"/><path class="b29db5a5-5247-4fc3-be69-e107d6085819" d="M927.21,498.14a5.23,5.23,0,0,1-5.23-5.23V451.05a5.23,5.23,0,1,1,10.46,0v41.86A5.23,5.23,0,0,1,927.21,498.14Z"/><path class="b29db5a5-5247-4fc3-be69-e107d6085819" d="M618.49,942.91H576.63a5.24,5.24,0,0,1,0-10.47h41.86a5.24,5.24,0,0,1,0,10.47Z"/><path class="b29db5a5-5247-4fc3-be69-e107d6085819" d="M597.56,963.84a5.24,5.24,0,0,1-5.23-5.24V916.74a5.23,5.23,0,0,1,10.46,0V958.6A5.24,5.24,0,0,1,597.56,963.84Z"/><path class="b29db5a5-5247-4fc3-be69-e107d6085819" d="M173.72,885.35H131.86a5.24,5.24,0,0,1,0-10.47h41.86a5.24,5.24,0,0,1,0,10.47Z"/><path class="b29db5a5-5247-4fc3-be69-e107d6085819" d="M152.79,906.28a5.23,5.23,0,0,1-5.23-5.23V859.19a5.23,5.23,0,1,1,10.46,0v41.86A5.23,5.23,0,0,1,152.79,906.28Z"/><path class="b29db5a5-5247-4fc3-be69-e107d6085819" d="M984.77,723.14H922a5.24,5.24,0,1,1,0-10.47h62.79a5.24,5.24,0,0,1,0,10.47Z"/><path class="b29db5a5-5247-4fc3-be69-e107d6085819" d="M953.37,754.53a5.23,5.23,0,0,1-5.23-5.23V686.51a5.23,5.23,0,0,1,10.46,0V749.3A5.23,5.23,0,0,1,953.37,754.53Z"/><path class="b29db5a5-5247-4fc3-be69-e107d6085819" d="M173.72,346.4H110.93a5.24,5.24,0,0,1,0-10.47h62.79a5.24,5.24,0,0,1,0,10.47Z"/><path class="b29db5a5-5247-4fc3-be69-e107d6085819" d="M142.33,377.79a5.24,5.24,0,0,1-5.24-5.23V309.77a5.24,5.24,0,1,1,10.47,0v62.79A5.23,5.23,0,0,1,142.33,377.79Z"/><path class="b29db5a5-5247-4fc3-be69-e107d6085819" d="M477.21,158H414.42a5.23,5.23,0,0,1,0-10.46h62.79a5.23,5.23,0,1,1,0,10.46Z"/><path class="b29db5a5-5247-4fc3-be69-e107d6085819" d="M445.81,189.42a5.23,5.23,0,0,1-5.23-5.23V121.4a5.24,5.24,0,1,1,10.47,0v62.79A5.24,5.24,0,0,1,445.81,189.42Z"/><path class="b29db5a5-5247-4fc3-be69-e107d6085819" d="M137.09,618.49H95.23a5.24,5.24,0,0,1,0-10.47h41.86a5.24,5.24,0,1,1,0,10.47Z"/><path class="b29db5a5-5247-4fc3-be69-e107d6085819" d="M116.16,639.42a5.23,5.23,0,0,1-5.23-5.23V592.33a5.24,5.24,0,1,1,10.47,0v41.86A5.24,5.24,0,0,1,116.16,639.42Z"/></svg>