<?xml version="1.0" encoding="UTF-8"?>
<svg id="Capa_1" data-name="Capa 1" xmlns="http://www.w3.org/2000/svg" xmlns:xlink="http://www.w3.org/1999/xlink" viewBox="0 0 1080 1080">
  <defs>
    <style>
      .cls-1 {
        fill: none;
      }

      .cls-2 {
        clip-path: url(#clippath);
      }

      .cls-3 {
        fill: #f6f6f6;
      }

      .cls-4 {
        fill: #f7f7f7;
      }

      .cls-5 {
        fill: #ebebeb;
      }

      .cls-6 {
        fill: #fff;
      }

      .cls-7 {
        fill: #9799a4;
      }

      .cls-8 {
        fill: #9c9aaa;
      }

      .cls-9 {
        fill: #b5b3c3;
      }

      .cls-10 {
        fill: #65b3f0;
      }

      .cls-11 {
        fill: #2d3041;
      }

      .cls-12 {
        fill: #35384c;
      }

      .cls-13 {
        fill: #545869;
      }

      .cls-14 {
        fill: #76c6ef;
      }
    </style>
    <clipPath id="clippath">
      <circle class="cls-1" cx="505.37" cy="509.9" r="239.98"/>
    </clipPath>
  </defs>
  <path class="cls-3" d="m983.03,453.37c-17.25-70.63-124.14-92.98-171.13-141.98-48.48-50.54-67.08-157.48-134.36-177.18-65.21-19.1-138.07,59.83-208.84,77.05-70.77,17.22-171.86-19.4-220.94,27.5-50.64,48.39-17.85,151.87-37.59,219.01-19.13,65.08-103.72,134.01-86.47,204.64,17.25,70.64,124.14,92.98,171.13,141.98,48.48,50.54,67.08,157.48,134.36,177.18,65.21,19.09,138.07-59.83,208.84-77.05,70.77-17.22,171.86,19.4,220.94-27.5,50.64-48.39,17.85-151.87,37.59-219.01,19.13-65.08,103.72-134.01,86.47-204.64Z"/>
  <path class="cls-10" d="m847.88,904.54c-13.34,0-26.68-5.09-36.86-15.26l-407.72-407.72c-20.36-20.35-20.36-53.36,0-73.72,20.36-20.35,53.36-20.35,73.72,0l407.72,407.72c20.36,20.36,20.36,53.37,0,73.72-10.18,10.18-23.52,15.26-36.86,15.26Z"/>
  <path class="cls-14" d="m865.11,795.93l-39.52,39.52c-4.16,4.16-4.16,10.92,0,15.08h0c4.16,4.17,10.92,4.17,15.08,0l39.52-39.52-15.08-15.08Z"/>
  <path class="cls-14" d="m822.45,753.26l-39.52,39.52c-4.16,4.16-4.16,10.92,0,15.08h0c4.16,4.17,10.92,4.17,15.08,0l39.52-39.52-15.08-15.08Z"/>
  <path class="cls-14" d="m779.78,710.6l-39.52,39.52c-4.16,4.16-4.16,10.92,0,15.08h0c4.16,4.17,10.92,4.17,15.08,0l39.52-39.52-15.08-15.08Z"/>
  <path class="cls-11" d="m847.88,909.88c-15.35,0-29.78-5.97-40.63-16.83l-105.45-105.46c-2.08-2.08-2.08-5.46,0-7.54,2.08-2.08,5.46-2.08,7.54,0l105.45,105.46c8.84,8.84,20.59,13.7,33.09,13.7s24.25-4.86,33.09-13.7c18.24-18.25,18.24-47.93,0-66.18l-407.72-407.72c-18.24-18.23-47.93-18.24-66.18,0-18.24,18.24-18.24,47.93,0,66.18l253.68,253.69c2.08,2.08,2.08,5.46,0,7.54s-5.46,2.08-7.54,0l-253.68-253.69c-22.4-22.4-22.4-58.86,0-81.26,22.41-22.39,58.86-22.39,81.26,0l407.72,407.72c22.4,22.4,22.4,58.86,0,81.27-10.86,10.85-25.28,16.83-40.63,16.83Z"/>
  <circle class="cls-9" cx="505.37" cy="509.9" r="298.65"/>
  <path class="cls-8" d="m702.74,285.86c46.4,52.63,74.61,121.69,74.61,197.37,0,164.94-133.71,298.65-298.65,298.65-75.68,0-144.74-28.21-197.37-74.61,54.73,62.07,134.78,101.27,224.04,101.27,164.94,0,298.65-133.71,298.65-298.65,0-89.26-39.2-169.31-101.27-224.04Z"/>
  <path class="cls-11" d="m358.59,775.39c-.89,0-1.79-.22-2.62-.69-95.35-53.91-154.58-155.38-154.58-264.8,0-125.18,78.53-239.32,195.41-284.02,2.74-1.05,5.84.33,6.89,3.08,1.05,2.75-.33,5.84-3.08,6.89-112.78,43.14-188.56,153.27-188.56,274.06,0,105.58,57.16,203.49,149.17,255.51,2.57,1.45,3.47,4.7,2.02,7.27-.98,1.73-2.79,2.71-4.65,2.71Z"/>
  <path class="cls-11" d="m505.37,813.88c-40.55,0-79.92-7.85-117.03-23.35-2.72-1.14-4-4.26-2.87-6.98,1.13-2.71,4.25-4.01,6.98-2.86,35.8,14.95,73.79,22.52,112.92,22.52,161.73,0,293.31-131.58,293.31-293.31s-131.58-293.31-293.31-293.31c-23.92,0-47.72,2.89-70.71,8.58-2.85.7-5.75-1.04-6.46-3.9-.71-2.86,1.04-5.75,3.9-6.46,23.84-5.9,48.49-8.89,73.28-8.89,167.61,0,303.98,136.37,303.98,303.98s-136.37,303.98-303.98,303.98Z"/>
  <circle class="cls-4" cx="505.37" cy="509.9" r="239.98"/>
  <path class="cls-5" d="m658.31,324.97c34.38,41.53,55.05,94.82,55.05,152.94,0,132.54-107.44,239.98-239.98,239.98-58.12,0-111.41-20.67-152.94-55.05,44.02,53.17,110.52,87.05,184.94,87.05,132.54,0,239.98-107.45,239.98-239.98,0-74.42-33.88-140.92-87.04-184.94Z"/>
  <g class="cls-2">
    <rect class="cls-13" x="345.38" y="552.38" width="53.33" height="202.84"/>
    <rect class="cls-13" x="398.71" y="483.44" width="53.33" height="271.77"/>
    <rect class="cls-13" x="452.04" y="382.51" width="53.33" height="372.7"/>
    <rect class="cls-13" x="505.37" y="515.44" width="53.33" height="239.77"/>
    <rect class="cls-13" x="558.7" y="467.24" width="53.33" height="287.98"/>
    <rect class="cls-12" x="345.38" y="629.17" width="53.33" height="126.05"/>
    <rect class="cls-12" x="398.71" y="590.78" width="53.33" height="164.44"/>
    <rect class="cls-12" x="452.04" y="563.06" width="53.33" height="192.16"/>
    <rect class="cls-12" x="505.37" y="606.78" width="53.33" height="148.43"/>
    <rect class="cls-12" x="558.7" y="569.08" width="53.33" height="186.14"/>
    <path class="cls-11" d="m398.71,760.55h-53.33c-2.94,0-5.33-2.39-5.33-5.33v-202.84c0-2.94,2.39-5.33,5.33-5.33h53.33c2.94,0,5.33,2.39,5.33,5.33v202.84c0,2.95-2.39,5.33-5.33,5.33Zm-48-10.67h42.66v-192.18h-42.66v192.18Z"/>
    <path class="cls-11" d="m452.04,760.55h-53.33c-2.94,0-5.33-2.39-5.33-5.33v-271.78c0-2.95,2.39-5.33,5.33-5.33h53.33c2.94,0,5.33,2.39,5.33,5.33v271.78c0,2.95-2.39,5.33-5.33,5.33Zm-48-10.67h42.66v-261.11h-42.66v261.11Z"/>
    <path class="cls-11" d="m505.37,760.55h-53.33c-2.94,0-5.33-2.38-5.33-5.33v-372.7c0-2.95,2.39-5.33,5.33-5.33h53.33c2.94,0,5.33,2.39,5.33,5.33v372.7c0,2.95-2.39,5.33-5.33,5.33Zm-48-10.67h42.66v-362.04h-42.66v362.04Z"/>
    <path class="cls-11" d="m558.7,760.55h-53.33c-2.94,0-5.33-2.38-5.33-5.33v-239.77c0-2.95,2.39-5.33,5.33-5.33h53.33c2.94,0,5.33,2.39,5.33,5.33v239.77c0,2.95-2.39,5.33-5.33,5.33Zm-48-10.67h42.66v-229.11h-42.66v229.11Z"/>
    <path class="cls-11" d="m612.03,760.55h-53.33c-2.94,0-5.33-2.38-5.33-5.33v-287.98c0-2.94,2.39-5.33,5.33-5.33h53.33c2.94,0,5.33,2.39,5.33,5.33v287.98c0,2.95-2.39,5.33-5.33,5.33Zm-48-10.67h42.66v-277.31h-42.66v277.31Z"/>
    <rect class="cls-13" x="612.03" y="413.91" width="53.33" height="341.31"/>
    <rect class="cls-12" x="612.03" y="505.08" width="53.33" height="250.14"/>
    <path class="cls-11" d="m665.36,760.55h-53.33c-2.94,0-5.33-2.38-5.33-5.33v-341.31c0-2.94,2.39-5.33,5.33-5.33h53.33c2.94,0,5.33,2.39,5.33,5.33v341.31c0,2.95-2.39,5.33-5.33,5.33Zm-48-10.67h42.66v-330.64h-42.66v330.64Z"/>
  </g>
  <path class="cls-11" d="m505.37,755.22c-135.27,0-245.32-110.05-245.32-245.32s110.05-245.32,245.32-245.32,245.32,110.05,245.32,245.32-110.05,245.32-245.32,245.32Zm0-479.97c-129.39,0-234.65,105.26-234.65,234.65s105.26,234.65,234.65,234.65,234.65-105.26,234.65-234.65-105.26-234.65-234.65-234.65Z"/>
  <polygon class="cls-14" points="398.71 435.24 345.38 381.91 206.72 381.91 206.72 211.26 398.71 211.26 398.71 435.24"/>
  <polygon class="cls-10" points="398.71 435.24 345.38 381.91 222.72 381.91 238.72 248.59 398.71 232.59 398.71 435.24"/>
  <path class="cls-11" d="m398.71,440.57c-1.39,0-2.75-.54-3.77-1.56l-51.77-51.77h-136.45c-2.94,0-5.33-2.39-5.33-5.33v-170.66c0-2.94,2.39-5.33,5.33-5.33h191.99c2.94,0,5.33,2.39,5.33,5.33v223.99c0,2.16-1.3,4.1-3.29,4.93-.66.27-1.35.41-2.04.41Zm-186.65-64h133.32c1.41,0,2.77.56,3.77,1.56l44.23,44.23v-205.78h-181.32v159.99Z"/>
  <path class="cls-6" d="m366.71,253.92h-53.33c-2.94,0-5.33-2.39-5.33-5.33s2.39-5.33,5.33-5.33h53.33c2.94,0,5.33,2.39,5.33,5.33s-2.39,5.33-5.33,5.33Z"/>
  <path class="cls-6" d="m286.71,253.92h-48c-2.94,0-5.33-2.39-5.33-5.33s2.39-5.33,5.33-5.33h48c2.94,0,5.33,2.39,5.33,5.33s-2.39,5.33-5.33,5.33Z"/>
  <path class="cls-6" d="m313.38,285.92h-74.66c-2.94,0-5.33-2.39-5.33-5.33s2.39-5.33,5.33-5.33h74.66c2.94,0,5.33,2.39,5.33,5.33s-2.39,5.33-5.33,5.33Z"/>
  <path class="cls-6" d="m366.71,317.91h-42.66c-2.94,0-5.33-2.39-5.33-5.33s2.39-5.33,5.33-5.33h42.66c2.94,0,5.33,2.39,5.33,5.33s-2.39,5.33-5.33,5.33Z"/>
  <path class="cls-6" d="m297.38,317.91h-58.66c-2.94,0-5.33-2.39-5.33-5.33s2.39-5.33,5.33-5.33h58.66c2.94,0,5.33,2.39,5.33,5.33s-2.39,5.33-5.33,5.33Z"/>
  <path class="cls-6" d="m340.04,349.91h-37.33c-2.94,0-5.33-2.39-5.33-5.33s2.39-5.33,5.33-5.33h37.33c2.94,0,5.33,2.39,5.33,5.33s-2.39,5.33-5.33,5.33Z"/>
  <path class="cls-6" d="m276.05,349.91h-37.33c-2.94,0-5.33-2.39-5.33-5.33s2.39-5.33,5.33-5.33h37.33c2.94,0,5.33,2.39,5.33,5.33s-2.39,5.33-5.33,5.33Z"/>
  <path class="cls-7" d="m969.34,632.65c-1.36,0-2.73-.52-3.77-1.56l-16-16c-2.08-2.08-2.08-5.46,0-7.54,2.08-2.08,5.46-2.08,7.54,0l16,16c2.08,2.08,2.08,5.46,0,7.54-1.04,1.04-2.41,1.56-3.77,1.56Z"/>
  <path class="cls-7" d="m1006.67,669.98c-1.36,0-2.73-.52-3.77-1.56l-16-16c-2.08-2.08-2.08-5.46,0-7.54,2.08-2.08,5.46-2.08,7.54,0l16,16c2.08,2.08,2.08,5.46,0,7.54-1.04,1.04-2.41,1.56-3.77,1.56Z"/>
  <path class="cls-7" d="m953.34,669.98c-1.36,0-2.73-.52-3.77-1.56-2.08-2.08-2.08-5.46,0-7.54l16-16c2.08-2.08,5.46-2.08,7.54,0,2.08,2.08,2.08,5.46,0,7.54l-16,16c-1.04,1.04-2.41,1.56-3.77,1.56Z"/>
  <path class="cls-7" d="m990.67,632.65c-1.36,0-2.73-.52-3.77-1.56-2.08-2.08-2.08-5.46,0-7.54l16-16c2.08-2.08,5.46-2.08,7.54,0,2.08,2.08,2.08,5.46,0,7.54l-16,16c-1.04,1.04-2.41,1.56-3.77,1.56Z"/>
  <path class="cls-7" d="m302.71,952.54c-1.36,0-2.73-.52-3.77-1.56l-16-16c-2.08-2.08-2.08-5.46,0-7.54,2.08-2.08,5.46-2.08,7.54,0l16,16c2.08,2.08,2.08,5.46,0,7.54-1.04,1.04-2.41,1.56-3.77,1.56Z"/>
  <path class="cls-7" d="m340.04,989.87c-1.36,0-2.73-.52-3.77-1.56l-16-16c-2.08-2.08-2.08-5.46,0-7.54,2.08-2.08,5.46-2.08,7.54,0l16,16c2.08,2.08,2.08,5.46,0,7.54-1.04,1.04-2.41,1.56-3.77,1.56Z"/>
  <path class="cls-7" d="m286.71,989.87c-1.36,0-2.73-.52-3.77-1.56-2.08-2.08-2.08-5.46,0-7.54l16-16c2.08-2.08,5.46-2.08,7.54,0,2.08,2.08,2.08,5.46,0,7.54l-16,16c-1.04,1.04-2.41,1.56-3.77,1.56Z"/>
  <path class="cls-7" d="m324.04,952.54c-1.36,0-2.73-.52-3.77-1.56-2.08-2.08-2.08-5.46,0-7.54l16-16c2.08-2.08,5.46-2.08,7.54,0,2.08,2.08,2.08,5.46,0,7.54l-16,16c-1.04,1.04-2.41,1.56-3.77,1.56Z"/>
  <path class="cls-7" d="m590.69,861.88c-1.36,0-2.73-.52-3.77-1.56l-16-16c-2.08-2.08-2.08-5.46,0-7.54,2.08-2.08,5.46-2.08,7.54,0l16,16c2.08,2.08,2.08,5.46,0,7.54-1.04,1.04-2.41,1.56-3.77,1.56Z"/>
  <path class="cls-7" d="m628.02,899.21c-1.36,0-2.73-.52-3.77-1.56l-16-16c-2.08-2.08-2.08-5.46,0-7.54,2.08-2.08,5.46-2.08,7.54,0l16,16c2.08,2.08,2.08,5.46,0,7.54-1.04,1.04-2.41,1.56-3.77,1.56Z"/>
  <path class="cls-7" d="m574.69,899.21c-1.36,0-2.73-.52-3.77-1.56-2.08-2.08-2.08-5.46,0-7.54l16-16c2.08-2.08,5.46-2.08,7.54,0,2.08,2.08,2.08,5.46,0,7.54l-16,16c-1.04,1.04-2.41,1.56-3.77,1.56Z"/>
  <path class="cls-7" d="m612.03,861.88c-1.36,0-2.73-.52-3.77-1.56-2.08-2.08-2.08-5.46,0-7.54l16-16c2.08-2.08,5.46-2.08,7.54,0,2.08,2.08,2.08,5.46,0,7.54l-16,16c-1.04,1.04-2.41,1.56-3.77,1.56Z"/>
  <path class="cls-7" d="m433.37,152.59c-1.36,0-2.73-.52-3.77-1.56l-16-16c-2.08-2.08-2.08-5.46,0-7.54,2.08-2.08,5.46-2.08,7.54,0l16,16c2.08,2.08,2.08,5.46,0,7.54-1.04,1.04-2.41,1.56-3.77,1.56Z"/>
  <path class="cls-7" d="m470.7,189.92c-1.36,0-2.73-.52-3.77-1.56l-16-16c-2.08-2.08-2.08-5.46,0-7.54,2.08-2.08,5.46-2.08,7.54,0l16,16c2.08,2.08,2.08,5.46,0,7.54-1.04,1.04-2.41,1.56-3.77,1.56Z"/>
  <path class="cls-7" d="m417.37,189.92c-1.36,0-2.73-.52-3.77-1.56-2.08-2.08-2.08-5.46,0-7.54l16-16c2.08-2.08,5.46-2.08,7.54,0,2.08,2.08,2.08,5.46,0,7.54l-16,16c-1.04,1.04-2.41,1.56-3.77,1.56Z"/>
  <path class="cls-7" d="m454.7,152.59c-1.36,0-2.73-.52-3.77-1.56-2.08-2.08-2.08-5.46,0-7.54l16-16c2.08-2.08,5.46-2.08,7.54,0,2.08,2.08,2.08,5.46,0,7.54l-16,16c-1.04,1.04-2.41,1.56-3.77,1.56Z"/>
  <path class="cls-7" d="m169.39,763.39c-1.36,0-2.73-.52-3.77-1.56l-16-16c-2.08-2.08-2.08-5.46,0-7.54,2.08-2.08,5.46-2.08,7.54,0l16,16c2.08,2.08,2.08,5.46,0,7.54-1.04,1.04-2.41,1.56-3.77,1.56Z"/>
  <path class="cls-7" d="m206.72,800.72c-1.36,0-2.73-.52-3.77-1.56l-16-16c-2.08-2.08-2.08-5.46,0-7.54,2.08-2.08,5.46-2.08,7.54,0l16,16c2.08,2.08,2.08,5.46,0,7.54-1.04,1.04-2.41,1.56-3.77,1.56Z"/>
  <path class="cls-7" d="m153.39,800.72c-1.36,0-2.73-.52-3.77-1.56-2.08-2.08-2.08-5.46,0-7.54l16-16c2.08-2.08,5.46-2.08,7.54,0,2.08,2.08,2.08,5.46,0,7.54l-16,16c-1.04,1.04-2.41,1.56-3.77,1.56Z"/>
  <path class="cls-7" d="m190.72,763.39c-1.36,0-2.73-.52-3.77-1.56-2.08-2.08-2.08-5.46,0-7.54l16-16c2.08-2.08,5.46-2.08,7.54,0,2.08,2.08,2.08,5.46,0,7.54l-16,16c-1.04,1.04-2.41,1.56-3.77,1.56Z"/>
  <path class="cls-7" d="m116.06,438.08c-1.36,0-2.73-.52-3.77-1.56l-16-16c-2.08-2.08-2.08-5.46,0-7.54,2.08-2.08,5.46-2.08,7.54,0l16,16c2.08,2.08,2.08,5.46,0,7.54-1.04,1.04-2.41,1.56-3.77,1.56Z"/>
  <path class="cls-7" d="m153.39,475.41c-1.36,0-2.73-.52-3.77-1.56l-16-16c-2.08-2.08-2.08-5.46,0-7.54,2.08-2.08,5.46-2.08,7.54,0l16,16c2.08,2.08,2.08,5.46,0,7.54-1.04,1.04-2.41,1.56-3.77,1.56Z"/>
  <path class="cls-7" d="m100.06,475.41c-1.36,0-2.73-.52-3.77-1.56-2.08-2.08-2.08-5.46,0-7.54l16-16c2.08-2.08,5.46-2.08,7.54,0,2.08,2.08,2.08,5.46,0,7.54l-16,16c-1.04,1.04-2.41,1.56-3.77,1.56Z"/>
  <path class="cls-7" d="m137.39,438.08c-1.36,0-2.73-.52-3.77-1.56-2.08-2.08-2.08-5.46,0-7.54l16-16c2.08-2.08,5.46-2.08,7.54,0,2.08,2.08,2.08,5.46,0,7.54l-16,16c-1.04,1.04-2.41,1.56-3.77,1.56Z"/>
  <path class="cls-7" d="m842.12,319.89c-1.36,0-2.73-.52-3.77-1.56l-16-16c-2.08-2.08-2.08-5.46,0-7.54,2.08-2.08,5.46-2.08,7.54,0l16,16c2.08,2.08,2.08,5.46,0,7.54-1.04,1.04-2.41,1.56-3.77,1.56Z"/>
  <path class="cls-7" d="m879.45,357.22c-1.36,0-2.73-.52-3.77-1.56l-16-16c-2.08-2.08-2.08-5.46,0-7.54,2.08-2.08,5.46-2.08,7.54,0l16,16c2.08,2.08,2.08,5.46,0,7.54-1.04,1.04-2.41,1.56-3.77,1.56Z"/>
  <path class="cls-7" d="m826.12,357.22c-1.36,0-2.73-.52-3.77-1.56-2.08-2.08-2.08-5.46,0-7.54l16-16c2.08-2.08,5.46-2.08,7.54,0s2.08,5.46,0,7.54l-16,16c-1.04,1.04-2.41,1.56-3.77,1.56Z"/>
  <path class="cls-7" d="m863.45,319.89c-1.36,0-2.73-.52-3.77-1.56-2.08-2.08-2.08-5.46,0-7.54l16-16c2.08-2.08,5.46-2.08,7.54,0s2.08,5.46,0,7.54l-16,16c-1.04,1.04-2.41,1.56-3.77,1.56Z"/>
</svg>