<?xml version="1.0" encoding="UTF-8"?>
<svg id="Capa_1" data-name="Capa 1" xmlns="http://www.w3.org/2000/svg" xmlns:xlink="http://www.w3.org/1999/xlink" viewBox="0 0 1080 1080">
  <defs>
    <style>
      .cls-1 {
        fill: none;
      }

      .cls-2 {
        clip-path: url(#clippath);
      }

      .cls-3 {
        fill: #ebebeb;
      }

      .cls-4 {
        fill: #fff;
      }

      .cls-5 {
        fill: #e4e4e4;
      }

      .cls-6 {
        fill: #9c9aaa;
      }

      .cls-7 {
        fill: #b5b3c3;
      }

      .cls-8 {
        fill: #65b3f0;
      }

      .cls-9 {
        fill: #33284d;
      }

      .cls-10 {
        fill: #2d3041;
      }

      .cls-11 {
        fill: #35384c;
      }

      .cls-12 {
        fill: #545869;
      }

      .cls-13 {
        fill: #76c6ef;
      }
    </style>
    <clipPath id="clippath">
      <circle class="cls-1" cx="494.21" cy="478.88" r="248.05"/>
    </clipPath>
  </defs>
  <path class="cls-5" d="m909.65,568.45c7.88-67.67,81.46-150.43,51.45-217.33-30.01-66.9-142.38-70.62-198.73-110.99-58.13-41.66-95.95-144.25-167.67-152.15-69.52-7.67-129.44,82.96-198.17,112.18-68.73,29.21-177.75,10.39-219.23,65.24-42.79,56.59,8.81,153.32.68,223.14-7.88,67.67-81.46,150.43-51.45,217.33,30.01,66.9,142.38,70.62,198.73,110.99,58.13,41.66,95.95,144.24,167.67,152.15,69.52,7.67,129.44-82.96,198.17-112.18,68.73-29.21,177.75-10.39,219.23-65.24,42.79-56.59-8.81-153.32-.68-223.14Z"/>
  <path class="cls-11" d="m842.72,881.26c-13.79,0-27.58-5.26-38.1-15.78l-421.42-421.42c-21.04-21.04-21.04-55.16,0-76.2,21.05-21.04,55.15-21.04,76.2,0l421.41,421.41c21.04,21.04,21.04,55.16,0,76.2-10.52,10.52-24.3,15.78-38.1,15.78Z"/>
  <rect class="cls-12" x="765.32" y="790.09" width="107.76" height="27.56" transform="translate(-328.48 814.71) rotate(-45)"/>
  <path class="cls-10" d="m842.72,886.78c-15.86,0-30.77-6.17-42-17.39l-108.99-109c-2.15-2.15-2.15-5.64,0-7.79,2.15-2.15,5.64-2.15,7.79,0l108.99,109c9.14,9.13,21.28,14.16,34.2,14.16s25.06-5.03,34.2-14.16c18.86-18.86,18.86-49.54,0-68.41l-421.42-421.41c-18.86-18.85-49.54-18.85-68.41,0-18.86,18.86-18.86,49.54,0,68.4l262.21,262.21c2.15,2.15,2.15,5.64,0,7.79s-5.64,2.15-7.79,0l-262.21-262.21c-23.15-23.16-23.15-60.84,0-83.99,23.17-23.15,60.85-23.14,84,0l421.42,421.41c23.15,23.16,23.15,60.84,0,84-11.22,11.22-26.13,17.39-42,17.39Z"/>
  <circle class="cls-4" cx="494.21" cy="478.88" r="308.68"/>
  <path class="cls-3" d="m696.44,245.78c47.04,54.17,75.58,124.85,75.58,202.23,0,170.48-138.2,308.68-308.68,308.68-77.39,0-148.06-28.54-202.23-75.58,56.6,65.18,140,106.45,233.1,106.45,170.48,0,308.68-138.2,308.68-308.68,0-93.1-41.27-176.5-106.45-233.1Z"/>
  <path class="cls-10" d="m494.21,793.07c-137.33,0-257.63-87.82-299.36-218.53-.93-2.9.67-6,3.57-6.92,2.89-.95,6,.67,6.92,3.57,40.28,126.12,156.36,210.86,288.87,210.86,167.17,0,303.17-136,303.17-303.17,0-110.56-60.22-212.39-157.16-265.76-2.66-1.47-3.64-4.82-2.17-7.49,1.46-2.66,4.82-3.63,7.49-2.17,100.46,55.31,162.87,160.84,162.87,275.41,0,173.25-140.95,314.19-314.19,314.19Z"/>
  <path class="cls-10" d="m191.32,544.24c-2.58,0-4.89-1.82-5.4-4.45-3.91-19.92-5.9-40.42-5.9-60.91,0-173.25,140.95-314.19,314.19-314.19,42.4,0,83.55,8.31,122.3,24.69,2.8,1.18,4.11,4.42,2.93,7.22-1.18,2.8-4.43,4.11-7.22,2.93-37.38-15.8-77.08-23.82-118.01-23.82-167.17,0-303.17,136-303.17,303.17,0,19.79,1.92,39.57,5.7,58.79.59,2.98-1.36,5.88-4.35,6.47-.35.07-.72.1-1.07.1Z"/>
  <path class="cls-3" d="m646.13,282.86c32.58,41.98,52.03,94.66,52.03,151.92,0,136.99-111.06,248.05-248.05,248.05-57.25,0-109.94-19.45-151.92-52.03,45.38,58.46,116.28,96.13,196.02,96.13,136.99,0,248.05-111.06,248.05-248.05,0-79.74-37.66-150.64-96.13-196.02Z"/>
  <path class="cls-4" d="m698.16,434.78c0-57.25-19.45-109.94-52.03-151.92-41.98-32.58-94.66-52.03-151.92-52.03-136.99,0-248.05,111.06-248.05,248.05,0,57.25,19.45,109.94,52.03,151.92,41.98,32.58,94.66,52.03,151.92,52.03,136.99,0,248.05-111.06,248.05-248.05Z"/>
  <g class="cls-2">
    <path class="cls-6" d="m264.27,598.98v224.62h269.46v-155.25c-26.13,9.36-54.27,14.49-83.61,14.49-74.01,0-140.4-32.45-185.85-83.85Z"/>
    <path class="cls-7" d="m502.8,518.68l-48.03-12.61h-111.57l-48.01,12.61c-18.22,4.79-30.92,21.26-30.92,40.1v40.19c45.45,51.4,111.84,83.85,185.85,83.85,29.35,0,57.48-5.13,83.61-14.49v-109.56c0-18.84-12.7-35.31-30.92-40.1Z"/>
    <path class="cls-9" d="m319.54,829.1c-3.05,0-5.51-2.47-5.51-5.51v-252.89c0-3.05,2.47-5.51,5.51-5.51s5.51,2.47,5.51,5.51v252.89c0,3.05-2.47,5.51-5.51,5.51Z"/>
    <path class="cls-9" d="m478.45,829.1c-3.05,0-5.51-2.47-5.51-5.51v-252.89c0-3.05,2.47-5.51,5.51-5.51s5.51,2.47,5.51,5.51v252.89c0,3.05-2.47,5.51-5.51,5.51Z"/>
    <path class="cls-10" d="m533.73,829.1h-269.46c-3.05,0-5.51-2.47-5.51-5.51v-264.81c0-21.33,14.41-40.01,35.04-45.43h0l48.01-12.61c.46-.12.93-.18,1.4-.18h111.57c.47,0,.94.06,1.4.18l48.03,12.61c20.63,5.42,35.04,24.09,35.04,45.43v264.81c0,3.05-2.47,5.51-5.51,5.51Zm-263.95-11.02h258.44v-259.3c0-16.32-11.02-30.62-26.81-34.77l-47.34-12.42h-110.15l-47.32,12.42c-15.79,4.15-26.81,18.45-26.81,34.77v259.3Z"/>
    <path class="cls-5" d="m399,544.42s-55.43-15.8-55.79-38.34c11.75-6.02,20.57-16.99,23.04-30.19.36-1.93.65-14.2.86-16.06l63.85.04c.25,2.13.58,14.72,1.03,17,2.51,12.95,11.2,23.51,22.8,29.21-.5,22.46-55.78,38.34-55.78,38.34Z"/>
    <path class="cls-10" d="m399,549.93c-.51,0-1.02-.07-1.51-.21-6.08-1.73-59.38-17.67-59.79-43.56-.03-2.1,1.13-4.03,3-4.99,10.53-5.4,18.07-15.23,20.14-26.31.15-.99.34-6.1.47-9.16.12-3.01.23-5.68.32-6.5.32-2.79,2.68-4.89,5.48-4.89h0l63.85.04c2.79,0,5.15,2.1,5.47,4.88.11.9.24,3.58.37,6.62.14,3.3.39,8.82.6,9.97,2.12,10.93,9.34,20.15,19.81,25.3,1.92.95,3.13,2.92,3.08,5.07-.58,25.77-53.72,41.78-59.77,43.52-.5.14-1.01.21-1.52.21Zm-49.73-40.96c4.4,12.54,33.71,24.89,49.72,29.7,15.94-4.83,45.11-17.17,49.67-29.65-11.6-6.94-19.57-18.08-22.09-31.1-.32-1.65-.51-5.47-.79-11.57-.02-.33-.03-.66-.04-.97l-53.4-.03c-.01.26-.02.52-.03.79-.25,6.27-.39,9.38-.65,10.76-2.46,13.11-10.72,24.84-22.4,32.08Z"/>
    <path class="cls-4" d="m338.94,400.1c6.07-1.29,14.1,6.68,16.15,16.01,2.06,9.33-1.19,17.93-7.25,19.22-6.06,1.29-13.46-5.01-15.51-14.33-2.06-9.33.55-19.61,6.62-20.9Z"/>
    <path class="cls-4" d="m459.05,400.1c-6.06-1.29-14.09,6.68-16.15,16.01-2.06,9.33,1.19,17.93,7.25,19.22,6.07,1.29,13.46-5.01,15.51-14.33,2.06-9.33-.55-19.61-6.62-20.9Z"/>
    <ellipse class="cls-4" cx="399" cy="417.73" rx="56.86" ry="71.28"/>
    <path class="cls-10" d="m399,494.52c-27.91,0-52.17-22.62-59.85-55.38-5.83-2.99-10.54-9.39-12.21-16.96-1.75-7.96-.69-16.22,2.77-21.58,2.04-3.17,4.83-5.2,8.08-5.89.59-.12,1.19-.2,1.8-.24,8.14-31.78,31.96-53.53,59.4-53.53s51.27,21.75,59.41,53.53c.61.04,1.21.11,1.8.24,3.25.69,6.05,2.73,8.09,5.9,3.46,5.36,4.51,13.63,2.76,21.58-1.67,7.57-6.38,13.97-12.21,16.97-7.68,32.76-31.94,55.37-59.85,55.37Zm-58.73-89.05c-.07,0-.13,0-.18.02h0c-.3.06-.73.47-1.11,1.08-1.5,2.33-2.53,7.46-1.27,13.24,1.22,5.54,4.76,9.22,7.63,9.98,2.03.54,3.57,2.19,3.98,4.24,5.84,29.12,26.26,49.46,49.68,49.46s43.85-20.34,49.68-49.46c.41-2.06,1.95-3.7,3.98-4.24,2.86-.76,6.41-4.44,7.63-9.98,1.27-5.78.24-10.91-1.26-13.24-.39-.6-.82-1.02-1.12-1.08-.24-.05-.75.01-1.48.33-1.55.68-3.3.63-4.79-.14-1.49-.78-2.55-2.19-2.87-3.84-5.72-29.37-26.19-49.89-49.77-49.89s-44.04,20.51-49.77,49.89c-.32,1.65-1.38,3.06-2.86,3.83-1.49.78-3.26.83-4.79.15-.59-.26-1.04-.35-1.32-.35Zm-1.32-5.38h.05-.05Z"/>
    <path class="cls-8" d="m454.17,400.79s14.12-10.06,6.2-38.66c-8.46-30.51-36-25.8-36-25.8,0,0-25.02-25.97-62.75-4.93-37.73,21.05-17.79,69.38-17.79,69.38,0,0,6.76-23.83,34.56-32.86,0,0,11.66,19.85,43.41,11.96,24.94-6.2,32.38,20.9,32.38,20.9Z"/>
    <path class="cls-10" d="m454.18,406.3c-.62,0-1.25-.11-1.85-.32-1.7-.6-2.99-1.99-3.47-3.73-.65-2.29-6.72-21.74-25.74-17.02-26.72,6.65-41.01-4.52-46.63-10.77-21.51,8.67-27.14,27.03-27.37,27.85-.66,2.25-2.66,3.84-5,3.96-2.4.14-4.5-1.23-5.39-3.39-7.54-18.29-13.03-57.76,20.2-76.3,34.47-19.24,59.9-2.1,67.24,3.97,11.87-.88,32.35,4.26,39.51,30.09,8.86,31.96-7.6,44.12-8.31,44.62-.95.67-2.07,1.02-3.2,1.02Zm-25.19-32.86c12.92,0,21.49,8.08,26.34,16.26,2.01-5.08,3.24-13.4-.28-26.1-6.86-24.75-27.46-22.19-29.79-21.83-1.79.3-3.62-.32-4.87-1.62-.9-.91-22.74-22.55-56.1-3.94-21.98,12.27-21.8,35.17-19.03,49.6,5.58-8.13,15.27-17.89,31.41-23.14,2.48-.8,5.15.23,6.46,2.45.38.62,10.31,16.13,37.33,9.4,3.03-.75,5.87-1.09,8.53-1.09Z"/>
    <path class="cls-8" d="m705.08,540.11l-27.16-7.13c-35.99,83.37-116.37,143.03-211.37,149.24v162.8h269.46v-264.81c0-18.84-12.7-35.31-30.92-40.1Z"/>
    <path class="cls-13" d="m677.92,532.98l-20.85-5.47h-111.57l-48.03,12.61c-18.22,4.79-30.93,21.26-30.93,40.1v102.01c95-6.22,175.39-65.88,211.37-149.24Z"/>
    <path class="cls-10" d="m680.73,850.53c-3.05,0-5.51-2.47-5.51-5.51v-252.89c0-3.05,2.47-5.51,5.51-5.51s5.51,2.47,5.51,5.51v252.89c0,3.05-2.47,5.51-5.51,5.51Z"/>
    <path class="cls-10" d="m521.82,850.53c-3.05,0-5.51-2.47-5.51-5.51v-252.89c0-3.05,2.47-5.51,5.51-5.51s5.51,2.47,5.51,5.51v252.89c0,3.05-2.47,5.51-5.51,5.51Z"/>
    <path class="cls-10" d="m736.01,850.53h-269.46c-3.05,0-5.51-2.47-5.51-5.51v-264.81c0-21.33,14.41-40.01,35.04-45.43l48.03-12.61c.46-.12.93-.18,1.4-.18h111.57c.47,0,.94.06,1.4.18l48.01,12.61h0c20.63,5.42,35.04,24.09,35.04,45.43v264.81c0,3.05-2.47,5.51-5.51,5.51Zm-263.95-11.02h258.44v-259.3c0-16.32-11.02-30.62-26.81-34.77l-47.32-12.42h-110.15l-47.34,12.42c-15.79,4.15-26.81,18.45-26.81,34.77v259.3Z"/>
    <path class="cls-5" d="m601.28,565.85s55.43-15.8,55.79-38.34c-11.75-6.02-20.57-16.99-23.04-30.19-.36-1.93-.65-14.2-.86-16.06l-63.85.04c-.25,2.13-.58,14.72-1.03,17-2.51,12.95-11.2,23.51-22.8,29.21.5,22.46,55.78,38.34,55.78,38.34Z"/>
    <path class="cls-10" d="m601.28,571.36c-.51,0-1.02-.07-1.52-.21-6.06-1.74-59.2-17.74-59.77-43.52-.05-2.15,1.16-4.12,3.08-5.07,10.47-5.15,17.69-14.37,19.82-25.31.2-1.15.45-6.66.59-9.96.13-3.04.26-5.72.37-6.62.32-2.78,2.68-4.88,5.47-4.88l63.85-.04h0c2.8,0,5.16,2.11,5.48,4.89.09.81.2,3.48.32,6.5.12,3.06.32,8.18.48,9.22,2.07,11.02,9.6,20.85,20.13,26.25,1.87.96,3.03,2.89,3,4.99-.41,25.89-53.72,41.83-59.79,43.56-.49.14-1.01.21-1.51.21Zm-49.67-40.91c4.56,12.5,33.72,24.83,49.67,29.65,16.01-4.82,45.32-17.17,49.72-29.7-11.68-7.23-19.94-18.96-22.39-32.07-.26-1.39-.4-4.49-.65-10.77-.01-.27-.02-.53-.03-.79l-53.4.03c-.02.32-.03.65-.04.97-.27,6.1-.46,9.92-.79,11.58-2.52,13.01-10.49,24.15-22.09,31.09Z"/>
    <path class="cls-4" d="m661.33,421.53c-6.07-1.29-14.1,6.68-16.15,16.01-2.05,9.32,1.2,17.93,7.26,19.22,6.06,1.29,13.46-5.01,15.51-14.33,2.06-9.33-.56-19.61-6.62-20.9Z"/>
    <path class="cls-4" d="m541.22,421.53c6.06-1.29,14.1,6.68,16.15,16.01,2.06,9.32-1.19,17.93-7.25,19.22-6.07,1.29-13.46-5.01-15.51-14.33-2.06-9.33.55-19.61,6.62-20.9Z"/>
    <ellipse class="cls-4" cx="601.28" cy="439.15" rx="56.86" ry="71.28"/>
    <path class="cls-10" d="m601.28,515.95c-27.91,0-52.17-22.62-59.85-55.37-5.83-2.99-10.54-9.4-12.21-16.97-1.75-7.95-.69-16.21,2.76-21.58,2.04-3.17,4.84-5.21,8.09-5.9.59-.12,1.19-.2,1.8-.24,8.14-31.78,31.97-53.53,59.41-53.53s51.26,21.75,59.4,53.53c.61.03,1.21.11,1.8.24h0c3.25.69,6.05,2.73,8.09,5.9,3.46,5.36,4.51,13.63,2.76,21.58-1.67,7.57-6.38,13.97-12.21,16.96-7.68,32.76-31.94,55.38-59.85,55.38Zm-58.73-89.05c-.07,0-.13,0-.18.02-.3.06-.73.48-1.12,1.08-1.5,2.33-2.53,7.46-1.26,13.24,1.22,5.54,4.76,9.22,7.63,9.98,2.03.54,3.57,2.19,3.98,4.24,5.83,29.12,26.26,49.46,49.68,49.46s43.84-20.34,49.68-49.46c.41-2.06,1.95-3.7,3.98-4.24,2.86-.76,6.41-4.44,7.63-9.98,1.27-5.78.24-10.91-1.26-13.24-.39-.6-.82-1.02-1.12-1.08h0c-.25-.06-.76.01-1.5.33-1.52.69-3.29.64-4.79-.15-1.49-.78-2.54-2.19-2.86-3.83-5.72-29.37-26.18-49.89-49.77-49.89s-44.04,20.51-49.77,49.89c-.32,1.65-1.38,3.06-2.87,3.84-1.5.76-3.25.82-4.79.14-.58-.26-1.03-.35-1.3-.35Z"/>
    <path class="cls-12" d="m546.1,422.22s-14.12-10.06-6.2-38.66c8.46-30.51,36-25.8,36-25.8,0,0,25.02-25.97,62.75-4.93,37.73,21.05,17.79,69.38,17.79,69.38,0,0-16.12-25.6-53.8-25.6-35.37,0-56.55,25.6-56.55,25.6Z"/>
    <path class="cls-10" d="m656.45,427.73c-1.88,0-3.65-.96-4.66-2.57-.59-.92-15.18-23.02-49.14-23.02s-52.12,23.37-52.32,23.61c-1.85,2.21-5.09,2.63-7.43.96-.71-.5-17.17-12.66-8.31-44.62,7.16-25.83,27.64-30.96,39.51-30.09,7.35-6.08,32.76-23.21,67.24-3.97,33.23,18.54,27.74,58.01,20.2,76.3-.79,1.91-2.57,3.21-4.63,3.39-.16.02-.31.02-.47.02Zm-84.99-64.78c-6.75,0-20.81,2.47-26.25,22.08-4.3,15.49-1.52,24.48,1.13,29,8.37-7.89,28.02-22.92,56.31-22.92,26.41,0,43.02,11.63,51.52,19.95,3.38-13.85,5.84-40-18.2-53.42-33.39-18.6-55.2,3.03-56.12,3.96-1.27,1.28-3.07,1.91-4.88,1.59-.47-.08-1.74-.24-3.51-.24Z"/>
  </g>
  <path class="cls-9" d="m494.21,732.44c-139.81,0-253.56-113.75-253.56-253.56s113.75-253.56,253.56-253.56,253.56,113.75,253.56,253.56-113.75,253.56-253.56,253.56Zm0-496.09c-133.73,0-242.54,108.8-242.54,242.54s108.8,242.54,242.54,242.54,242.54-108.8,242.54-242.54-108.8-242.54-242.54-242.54Z"/>
  <circle class="cls-4" cx="775.33" cy="142.63" r="55.12"/>
  <path class="cls-6" d="m775.33,203.27c-33.43,0-60.63-27.2-60.63-60.63s27.2-60.63,60.63-60.63,60.63,27.2,60.63,60.63-27.2,60.63-60.63,60.63Zm0-110.24c-27.36,0-49.61,22.25-49.61,49.61s22.25,49.61,49.61,49.61,49.61-22.25,49.61-49.61-22.25-49.61-49.61-49.61Z"/>
  <path class="cls-6" d="m802.89,148.15h-55.12c-3.05,0-5.51-2.47-5.51-5.51s2.47-5.51,5.51-5.51h55.12c3.05,0,5.51,2.47,5.51,5.51s-2.47,5.51-5.51,5.51Z"/>
  <path class="cls-6" d="m775.33,175.71c-3.05,0-5.51-2.47-5.51-5.51v-55.12c0-3.05,2.47-5.51,5.51-5.51s5.51,2.47,5.51,5.51v55.12c0,3.05-2.47,5.51-5.51,5.51Z"/>
  <circle class="cls-4" cx="290.26" cy="842.68" r="55.12"/>
  <path class="cls-6" d="m290.26,903.31c-33.43,0-60.63-27.2-60.63-60.63s27.2-60.63,60.63-60.63,60.63,27.2,60.63,60.63-27.2,60.63-60.63,60.63Zm0-110.24c-27.36,0-49.61,22.25-49.61,49.61s22.25,49.61,49.61,49.61,49.61-22.25,49.61-49.61-22.25-49.61-49.61-49.61Z"/>
  <path class="cls-6" d="m317.82,848.19h-55.12c-3.05,0-5.51-2.47-5.51-5.51s2.47-5.51,5.51-5.51h55.12c3.05,0,5.51,2.47,5.51,5.51s-2.47,5.51-5.51,5.51Z"/>
  <path class="cls-6" d="m290.26,875.75c-3.05,0-5.51-2.47-5.51-5.51v-55.12c0-3.05,2.47-5.51,5.51-5.51s5.51,2.47,5.51,5.51v55.12c0,3.05-2.47,5.51-5.51,5.51Z"/>
  <circle class="cls-4" cx="637.53" cy="919.85" r="49.61"/>
  <path class="cls-6" d="m637.53,974.97c-30.39,0-55.12-24.73-55.12-55.12s24.73-55.12,55.12-55.12,55.12,24.73,55.12,55.12-24.73,55.12-55.12,55.12Zm0-99.22c-24.31,0-44.1,19.78-44.1,44.1s19.78,44.1,44.1,44.1,44.1-19.78,44.1-44.1-19.78-44.1-44.1-44.1Z"/>
  <path class="cls-6" d="m659.57,925.36h-44.1c-3.05,0-5.51-2.47-5.51-5.51s2.47-5.51,5.51-5.51h44.1c3.05,0,5.51,2.47,5.51,5.51s-2.47,5.51-5.51,5.51Z"/>
  <path class="cls-6" d="m637.53,947.41c-3.05,0-5.51-2.47-5.51-5.51v-44.1c0-3.05,2.47-5.51,5.51-5.51s5.51,2.47,5.51,5.51v44.1c0,3.05-2.47,5.51-5.51,5.51Z"/>
  <circle class="cls-4" cx="962.74" cy="484.39" r="49.61"/>
  <path class="cls-6" d="m962.74,539.51c-30.39,0-55.12-24.73-55.12-55.12s24.73-55.12,55.12-55.12,55.12,24.73,55.12,55.12-24.73,55.12-55.12,55.12Zm0-99.22c-24.31,0-44.1,19.78-44.1,44.1s19.78,44.1,44.1,44.1,44.1-19.78,44.1-44.1-19.78-44.1-44.1-44.1Z"/>
  <path class="cls-6" d="m984.79,489.9h-44.1c-3.05,0-5.51-2.47-5.51-5.51s2.47-5.51,5.51-5.51h44.1c3.05,0,5.51,2.47,5.51,5.51s-2.47,5.51-5.51,5.51Z"/>
  <path class="cls-6" d="m962.74,511.95c-3.05,0-5.51-2.47-5.51-5.51v-44.1c0-3.05,2.47-5.51,5.51-5.51s5.51,2.47,5.51,5.51v44.1c0,3.05-2.47,5.51-5.51,5.51Z"/>
  <circle class="cls-4" cx="124.89" cy="324.54" r="49.61"/>
  <path class="cls-6" d="m124.89,379.66c-30.39,0-55.12-24.73-55.12-55.12s24.73-55.12,55.12-55.12,55.12,24.73,55.12,55.12-24.73,55.12-55.12,55.12Zm0-99.22c-24.31,0-44.1,19.78-44.1,44.1s19.78,44.1,44.1,44.1,44.1-19.78,44.1-44.1-19.78-44.1-44.1-44.1Z"/>
  <path class="cls-6" d="m146.94,330.05h-44.1c-3.05,0-5.51-2.47-5.51-5.51s2.47-5.51,5.51-5.51h44.1c3.05,0,5.51,2.47,5.51,5.51s-2.47,5.51-5.51,5.51Z"/>
  <path class="cls-6" d="m124.89,352.1c-3.05,0-5.51-2.47-5.51-5.51v-44.1c0-3.05,2.47-5.51,5.51-5.51s5.51,2.47,5.51,5.51v44.1c0,3.05-2.47,5.51-5.51,5.51Z"/>
</svg>