<svg id="e1cb7d3c-2a47-485b-8b25-aad6c2e744e4" data-name="Capa 1" xmlns="http://www.w3.org/2000/svg" xmlns:xlink="http://www.w3.org/1999/xlink" viewBox="0 0 1080 1080"><defs><style>.f600e337-7a09-4cee-951c-74fd0cb03fd6{fill:none;}.af626bff-6389-49cc-ab3d-1ce98f570674{fill:#f6f6f6;}.a878400a-ca0a-4c2a-b06e-bea2088140cb{fill:#30354c;}.e4a38ef9-7290-4d94-bdb5-9fe45f752393{fill:#52576a;}.a6045f5e-c6ad-49fb-8473-304b0fd2afce{fill:#282c3f;}.fb96e872-b65d-4c1c-94d2-0a0f9b536ace{fill:#b8b5c6;}.f72f104a-589e-490b-9e04-08a833de8ea8{fill:#a09cad;}.b82dd28c-04bb-4abc-aff3-ad9c277279bf{fill:#ededed;}.badb6c16-14a4-425b-a2e0-ca4a88c17f9b{fill:#fff;}.ae2e752f-59c9-473f-9f19-ad90a44191fc{clip-path:url(#a78818f4-9842-4040-ab6d-ef756c66f78d);}.b43115b1-2192-4fc9-b11e-b10131705717{fill:#2fc8f2;}.e42981b6-ce95-427f-b990-f03669ce67de{fill:#2caae6;}.ab2567b6-66a6-4d66-9404-c23237cf1cec{fill:#989aa6;}</style><clipPath id="a78818f4-9842-4040-ab6d-ef756c66f78d"><circle class="f600e337-7a09-4cee-951c-74fd0cb03fd6" cx="495.52" cy="495.52" r="230.23"/></clipPath></defs><title>ICONS S2R</title><path class="af626bff-6389-49cc-ab3d-1ce98f570674" d="M961.57,433c-16.92-69.9-121.79-92-167.9-140.5-47.57-50-47.32-136.07-122.36-166.08-62-24.78-144.94,50-214.38,67S299.3,181,247.72,232.61c-48.8,48.82-25.08,138.27-44.45,204.71-18.78,64.4-101.77,132.62-84.85,202.52s121.8,92,167.91,140.5c47.57,50,65.82,155.84,131.83,175.34,64,18.89,135.47-59.22,204.91-76.25s168.62,19.19,216.78-27.22c49.69-47.89,17.51-150.3,36.88-216.74C895.5,571.07,978.5,502.85,961.57,433Z"/><path class="a878400a-ca0a-4c2a-b06e-bea2088140cb" d="M826.35,877.5a51,51,0,0,1-36.16-15l-400-400a51.15,51.15,0,0,1,72.33-72.33l400,400a51.15,51.15,0,0,1-36.17,87.31Z"/><rect class="e4a38ef9-7290-4d94-bdb5-9fe45f752393" x="763.34" y="804.03" width="102.3" height="20.93" transform="translate(-337.38 814.47) rotate(-45)"/><rect class="e4a38ef9-7290-4d94-bdb5-9fe45f752393" x="721.48" y="762.17" width="102.3" height="20.93" transform="translate(-320.04 772.61) rotate(-45)"/><path class="a6045f5e-c6ad-49fb-8473-304b0fd2afce" d="M826.35,882.73a56,56,0,0,1-39.86-16.51L683,762.75a5.23,5.23,0,0,1,7.4-7.4L793.89,858.82a45.91,45.91,0,0,0,64.93-64.93l-400-400a45.91,45.91,0,1,0-64.93,64.93L642.76,707.69a5.23,5.23,0,0,1-7.4,7.4L386.45,466.18a56.38,56.38,0,0,1,79.73-79.73l400,400a56.38,56.38,0,0,1-39.87,96.24Z"/><circle class="fb96e872-b65d-4c1c-94d2-0a0f9b536ace" cx="495.52" cy="495.52" r="293.02"/><path class="f72f104a-589e-490b-9e04-08a833de8ea8" d="M687.5,274.25a291.81,291.81,0,0,1,71.74,192c0,161.83-131.19,293-293,293a291.8,291.8,0,0,1-192-71.75,292.26,292.26,0,0,0,221.27,101c161.83,0,293-131.2,293-293A292.26,292.26,0,0,0,687.5,274.25Z"/><path class="a6045f5e-c6ad-49fb-8473-304b0fd2afce" d="M495.52,793.78c-130.36,0-244.56-83.37-284.17-207.45a5.23,5.23,0,0,1,10-3.18c38.22,119.72,148.41,200.16,274.2,200.16,158.69,0,287.79-129.1,287.79-287.79A288,288,0,0,0,634.12,243.25a5.23,5.23,0,0,1,5-9.17A298.49,298.49,0,0,1,793.78,495.52C793.78,660,660,793.78,495.52,793.78Z"/><path class="a6045f5e-c6ad-49fb-8473-304b0fd2afce" d="M208,557.57a5.23,5.23,0,0,1-5.13-4.22,300.46,300.46,0,0,1-5.6-57.83c0-164.45,133.8-298.25,298.25-298.25a296.33,296.33,0,0,1,116.1,23.44,5.23,5.23,0,1,1-4.08,9.63,286.11,286.11,0,0,0-112-22.61c-158.68,0-287.79,129.11-287.79,287.79a290,290,0,0,0,5.41,55.81,5.24,5.24,0,0,1-4.13,6.15A5.83,5.83,0,0,1,208,557.57Z"/><path class="b82dd28c-04bb-4abc-aff3-ad9c277279bf" d="M641.87,317.79a229.29,229.29,0,0,1,52.49,146.34c0,127.15-103.08,230.23-230.23,230.23a229.32,229.32,0,0,1-146.35-52.49,229.8,229.8,0,0,0,177.74,83.89c127.16,0,230.24-103.08,230.24-230.24A229.73,229.73,0,0,0,641.87,317.79Z"/><path class="badb6c16-14a4-425b-a2e0-ca4a88c17f9b" d="M694.36,464.13a229.29,229.29,0,0,0-52.49-146.34,229.27,229.27,0,0,0-146.35-52.5c-127.15,0-230.23,103.08-230.23,230.23a229.32,229.32,0,0,0,52.49,146.35,229.32,229.32,0,0,0,146.35,52.49C591.28,694.36,694.36,591.28,694.36,464.13Z"/><g class="ae2e752f-59c9-473f-9f19-ad90a44191fc"><path class="b43115b1-2192-4fc9-b11e-b10131705717" d="M598.83,650.79V433.26a40.6,40.6,0,0,0-11.89-28.7l-57-57a48.69,48.69,0,0,0-68.87,0l-57,57a40.59,40.59,0,0,0-11.88,28.7V682.87a230.26,230.26,0,0,0,206.61-32.08Z"/><path class="e42981b6-ce95-427f-b990-f03669ce67de" d="M407.28,725.76H583.76a15.07,15.07,0,0,0,15.07-15.07v-59.9a230.26,230.26,0,0,1-206.61,32.08v27.82A15.07,15.07,0,0,0,407.28,725.76Z"/><path class="a6045f5e-c6ad-49fb-8473-304b0fd2afce" d="M583.76,731H407.28a20.33,20.33,0,0,1-20.3-20.3V433.26a46.15,46.15,0,0,1,13.43-32.4l57-57a54,54,0,0,1,76.27,0l57,57a45.52,45.52,0,0,1,13.42,32.4V710.69A20.32,20.32,0,0,1,583.76,731ZM495.52,338.57a43.29,43.29,0,0,0-30.73,12.71l-57,57a35.59,35.59,0,0,0-10.35,25V710.69a9.84,9.84,0,0,0,9.83,9.83H583.76a9.84,9.84,0,0,0,9.84-9.83V433.26a35.13,35.13,0,0,0-10.36-25l-57-57A43.31,43.31,0,0,0,495.52,338.57Z"/><circle class="badb6c16-14a4-425b-a2e0-ca4a88c17f9b" cx="495.52" cy="393.49" r="26.16"/><path class="a6045f5e-c6ad-49fb-8473-304b0fd2afce" d="M495.52,424.88a31.4,31.4,0,1,1,31.4-31.39A31.42,31.42,0,0,1,495.52,424.88Zm0-52.32a20.93,20.93,0,1,0,20.93,20.93A21,21,0,0,0,495.52,372.56Z"/><path class="badb6c16-14a4-425b-a2e0-ca4a88c17f9b" d="M500.76,657.73H490.29a44.53,44.53,0,0,1-44.48-44.47,13.09,13.09,0,1,1,26.17,0,18.33,18.33,0,0,0,18.31,18.31h10.47a18.34,18.34,0,0,0,18.31-18.31V602.79a18.33,18.33,0,0,0-18.31-18.31H490.29A44.54,44.54,0,0,1,445.81,540V529.54a44.53,44.53,0,0,1,44.48-44.48h10.47a44.52,44.52,0,0,1,44.47,44.48,13.08,13.08,0,0,1-26.16,0,18.34,18.34,0,0,0-18.31-18.32H490.29A18.33,18.33,0,0,0,472,529.54V540a18.33,18.33,0,0,0,18.31,18.31h10.47a44.53,44.53,0,0,1,44.47,44.48v10.47A44.52,44.52,0,0,1,500.76,657.73Z"/><path class="badb6c16-14a4-425b-a2e0-ca4a88c17f9b" d="M495.52,511.22a13.08,13.08,0,0,1-13.08-13.08v-31.4a13.08,13.08,0,0,1,26.16,0v31.4A13.07,13.07,0,0,1,495.52,511.22Z"/><path class="badb6c16-14a4-425b-a2e0-ca4a88c17f9b" d="M495.52,689.13a13.08,13.08,0,0,1-13.08-13.08v-31.4a13.08,13.08,0,0,1,26.16,0v31.4A13.08,13.08,0,0,1,495.52,689.13Z"/><path class="a6045f5e-c6ad-49fb-8473-304b0fd2afce" d="M495.52,388.26a5.23,5.23,0,0,1-5.23-5.24V265.29a5.24,5.24,0,0,1,10.47,0V383A5.24,5.24,0,0,1,495.52,388.26Z"/></g><path class="a6045f5e-c6ad-49fb-8473-304b0fd2afce" d="M495.52,731c-129.83,0-235.46-105.63-235.46-235.47S365.69,260.06,495.52,260.06,731,365.69,731,495.52,625.36,731,495.52,731Zm0-460.47c-124.06,0-225,100.94-225,225s100.94,225,225,225,225-100.93,225-225S619.59,270.52,495.52,270.52Z"/><polygon class="badb6c16-14a4-425b-a2e0-ca4a88c17f9b" points="278.97 880.09 291.72 905.93 320.23 910.08 299.6 930.19 304.47 958.6 278.97 945.19 253.47 958.6 258.34 930.19 237.71 910.08 266.22 905.93 278.97 880.09"/><path class="ab2567b6-66a6-4d66-9404-c23237cf1cec" d="M304.47,963.83a5.23,5.23,0,0,1-2.43-.6L279,951.1,255.9,963.23a5.23,5.23,0,0,1-7.59-5.51l4.4-25.7-18.66-18.19a5.24,5.24,0,0,1,2.9-8.93l25.79-3.75,11.54-23.37a5.23,5.23,0,0,1,4.69-2.92h0a5.23,5.23,0,0,1,4.69,2.92l11.53,23.37L321,904.9a5.24,5.24,0,0,1,2.9,8.93L305.22,932l4.41,25.7a5.23,5.23,0,0,1-5.16,6.11ZM249,913.73l13,12.72a5.24,5.24,0,0,1,1.5,4.63L260.42,949l16.12-8.47a5.18,5.18,0,0,1,4.87,0L297.52,949l-3.08-17.95a5.25,5.25,0,0,1,1.51-4.63l13-12.72-18-2.62a5.21,5.21,0,0,1-3.94-2.86L279,891.92l-8.06,16.33a5.21,5.21,0,0,1-3.94,2.86Z"/><polygon class="badb6c16-14a4-425b-a2e0-ca4a88c17f9b" points="613.85 832.98 626.6 858.83 655.12 862.97 634.49 883.09 639.36 911.5 613.85 898.08 588.35 911.5 593.22 883.09 572.59 862.97 601.1 858.83 613.85 832.98"/><path class="ab2567b6-66a6-4d66-9404-c23237cf1cec" d="M639.35,916.73a5.26,5.26,0,0,1-2.43-.6L613.85,904l-23.06,12.14a5.24,5.24,0,0,1-7.6-5.52l4.41-25.7-18.67-18.19a5.23,5.23,0,0,1,2.9-8.92l25.8-3.75,11.53-23.38a5.23,5.23,0,0,1,4.69-2.92h0a5.23,5.23,0,0,1,4.7,2.92l11.53,23.38,25.79,3.75a5.23,5.23,0,0,1,2.9,8.92l-18.66,18.19,4.4,25.7a5.23,5.23,0,0,1-5.16,6.12Zm-55.52-50.1,13,12.71a5.26,5.26,0,0,1,1.51,4.63l-3.08,18,16.12-8.48a5.24,5.24,0,0,1,4.87,0l16.12,8.48-3.08-18a5.25,5.25,0,0,1,1.5-4.63l13-12.71-18-2.63a5.2,5.2,0,0,1-3.94-2.86l-8.06-16.33-8.06,16.33a5.19,5.19,0,0,1-3.93,2.86Z"/><polygon class="badb6c16-14a4-425b-a2e0-ca4a88c17f9b" points="943.5 621.01 956.25 646.85 984.77 651 964.13 671.11 969 699.52 943.5 686.11 918 699.52 922.87 671.11 902.24 651 930.75 646.85 943.5 621.01"/><path class="ab2567b6-66a6-4d66-9404-c23237cf1cec" d="M969,704.75a5.27,5.27,0,0,1-2.44-.6L943.5,692l-23.06,12.13a5.24,5.24,0,0,1-7.6-5.52l4.41-25.69-18.66-18.2a5.22,5.22,0,0,1,2.9-8.92l25.79-3.75,11.53-23.38a5.23,5.23,0,0,1,4.69-2.92h0a5.23,5.23,0,0,1,4.7,2.92l11.53,23.38,25.79,3.75a5.23,5.23,0,0,1,2.9,8.92l-18.66,18.2,4.4,25.69a5.23,5.23,0,0,1-2.08,5.12A5.17,5.17,0,0,1,969,704.75Zm-55.53-50.1,13,12.72A5.21,5.21,0,0,1,928,672L925,690l16.12-8.48a5.24,5.24,0,0,1,4.87,0L962.06,690,959,672a5.23,5.23,0,0,1,1.5-4.63l13-12.72-18-2.62a5.25,5.25,0,0,1-3.94-2.86l-8.06-16.33-8.06,16.33a5.23,5.23,0,0,1-3.93,2.86Z"/><polygon class="badb6c16-14a4-425b-a2e0-ca4a88c17f9b" points="807.46 121.16 820.21 147.01 848.72 151.15 828.09 171.27 832.96 199.68 807.46 186.26 781.95 199.68 786.82 171.27 766.19 151.15 794.7 147.01 807.46 121.16"/><path class="ab2567b6-66a6-4d66-9404-c23237cf1cec" d="M782,204.91a5.23,5.23,0,0,1-5.15-6.12l4.4-25.7L762.54,154.9a5.23,5.23,0,0,1,2.9-8.92l25.79-3.76,11.53-23.37c1.76-3.58,7.62-3.59,9.39,0l11.53,23.37L849.47,146a5.22,5.22,0,0,1,2.9,8.92l-18.66,18.19,4.41,25.7a5.23,5.23,0,0,1-7.6,5.51l-23.06-12.13L784.39,204.3A5.16,5.16,0,0,1,782,204.91ZM807.46,181a5.11,5.11,0,0,1,2.43.6L826,190.1l-3.08-17.95a5.22,5.22,0,0,1,1.51-4.63l13-12.71-18-2.63a5.19,5.19,0,0,1-3.93-2.86L807.46,133l-8.06,16.33a5.2,5.2,0,0,1-3.94,2.86l-18,2.63,13,12.71a5.24,5.24,0,0,1,1.5,4.63L788.9,190.1,805,181.63A5.12,5.12,0,0,1,807.46,181Z"/><polygon class="badb6c16-14a4-425b-a2e0-ca4a88c17f9b" points="252.21 165.9 264.96 191.75 293.47 195.89 272.84 216.01 277.71 244.41 252.21 231 226.71 244.41 231.58 216.01 210.95 195.89 239.46 191.75 252.21 165.9"/><path class="ab2567b6-66a6-4d66-9404-c23237cf1cec" d="M277.71,249.65a5.23,5.23,0,0,1-2.43-.6l-23.07-12.13-23.07,12.13a5.23,5.23,0,0,1-7.59-5.52l4.4-25.69-18.66-18.2a5.23,5.23,0,0,1,2.9-8.92L236,187l11.54-23.38c1.76-3.58,7.62-3.58,9.38,0L268.44,187l25.79,3.75a5.23,5.23,0,0,1,2.89,8.92l-18.66,18.2,4.41,25.69a5.23,5.23,0,0,1-5.16,6.12Zm-25.5-23.88a5.2,5.2,0,0,1,2.43.6l16.12,8.48-3.08-18a5.24,5.24,0,0,1,1.51-4.63l13-12.71-18-2.62a5.22,5.22,0,0,1-3.94-2.87l-8.06-16.33-8.06,16.33a5.22,5.22,0,0,1-3.94,2.87l-18,2.62,13,12.71a5.24,5.24,0,0,1,1.51,4.63l-3.08,18,16.12-8.48A5.2,5.2,0,0,1,252.21,225.77Z"/><polygon class="badb6c16-14a4-425b-a2e0-ca4a88c17f9b" points="136.5 382.86 149.25 408.71 177.76 412.85 157.13 432.97 162 461.37 136.5 447.96 111 461.37 115.87 432.97 95.23 412.85 123.75 408.71 136.5 382.86"/><path class="ab2567b6-66a6-4d66-9404-c23237cf1cec" d="M111,466.61a5.25,5.25,0,0,1-5.15-6.12l4.4-25.7L91.58,416.6a5.24,5.24,0,0,1,2.9-8.93l25.79-3.75,11.53-23.37c1.76-3.58,7.62-3.59,9.39,0l11.53,23.37,25.79,3.75a5.23,5.23,0,0,1,2.9,8.93l-18.66,18.19,4.41,25.7a5.24,5.24,0,0,1-7.6,5.51L136.5,453.87,113.43,466A5.16,5.16,0,0,1,111,466.61Zm25.51-23.88a5.23,5.23,0,0,1,2.43.6l16.12,8.47L152,433.85a5.22,5.22,0,0,1,1.51-4.63l13-12.72-18-2.62a5.21,5.21,0,0,1-3.93-2.86l-8.06-16.33L128.44,411a5.23,5.23,0,0,1-3.94,2.86l-18,2.62,13,12.72a5.24,5.24,0,0,1,1.5,4.63l-3.08,17.95,16.12-8.47A5.24,5.24,0,0,1,136.5,442.73Z"/></svg>