<svg id="edb9376b-d13d-4e34-a1f4-a878cb17f6f6" data-name="Capa 1" xmlns="http://www.w3.org/2000/svg" viewBox="0 0 1080 1080"><defs><style>.f4b9d40d-9d16-4028-8cac-48cc94bd1a1b{fill:#f6f6f6;}.f8592651-045c-46d0-b6b3-656310640c4e{fill:#2fc8f2;}.e7b52621-ebcc-43c0-8a53-ed22aa3b6c24{fill:#2caae6;}.bc347818-7311-46ae-839d-a245c7c5e172{fill:#989aa6;}.fbb90500-ccdc-47c5-b26f-4bf8931fef7d{fill:#e6e6e6;}.fe55b513-d339-4681-9efd-71a25e0c4670{fill:#fff;}.bb204ae0-0368-43c8-9985-3c5b81e7a602{fill:#52576a;}.f4c10884-ab51-4732-84b8-0740850d8e05{fill:#30354c;}.a06b6b6d-2550-4d5d-8997-24a087dffed4{fill:#00b5f4;}.bf016073-c5d8-400b-9a99-e0dcb372a707{fill:#282c3f;}</style></defs><title>ICONOS S2R</title><path class="f4b9d40d-9d16-4028-8cac-48cc94bd1a1b" d="M566.31,121.54c69.18,4.32,108,100.35,161.88,136,55.55,36.81,159,36.33,188.78,95.83,28.83,57.68-33.09,138.85-37.43,207.78S926.48,718.34,890.66,772c-37,55.33-139.59,42-199.31,71.62-57.9,28.71-108.47,119.16-177.66,114.85s-108-100.35-161.88-136c-55.55-36.81-159-36.33-188.78-95.83-28.83-57.68,33.09-138.85,37.43-207.78S153.52,361.66,189.34,308c37-55.34,139.58-42,199.31-71.63C446.55,207.68,497.12,117.23,566.31,121.54Z"/><path class="f8592651-045c-46d0-b6b3-656310640c4e" d="M231.28,613.26H335.93a0,0,0,0,1,0,0V833A20.93,20.93,0,0,1,315,854H241.74a10.47,10.47,0,0,1-10.47-10.47V613.26A0,0,0,0,1,231.28,613.26Z"/><path class="e7b52621-ebcc-43c0-8a53-ed22aa3b6c24" d="M262.67,613.26h73.26a0,0,0,0,1,0,0V833A20.93,20.93,0,0,1,315,854H273.14a10.47,10.47,0,0,1-10.47-10.47V613.26A0,0,0,0,1,262.67,613.26Z"/><path class="bc347818-7311-46ae-839d-a245c7c5e172" d="M335.93,686.51h15.7a26.16,26.16,0,0,1,26.16,26.16v31.4a26.16,26.16,0,0,1-26.16,26.16h-15.7a0,0,0,0,1,0,0V686.51A0,0,0,0,1,335.93,686.51Z"/><path class="fbb90500-ccdc-47c5-b26f-4bf8931fef7d" d="M702.21,759.77C538.56,617.65,335.93,613.26,335.93,613.26V372.56s202.63-4.39,366.28-146.51Z"/><path class="fe55b513-d339-4681-9efd-71a25e0c4670" d="M702.21,681.28C577.56,609.8,335.93,608,335.93,608V372.56s202.63-4.39,366.28-146.51Z"/><path class="bb204ae0-0368-43c8-9985-3c5b81e7a602" d="M147.56,372.56H335.93a0,0,0,0,1,0,0v240.7a0,0,0,0,1,0,0H147.56a52.33,52.33,0,0,1-52.33-52.33v-136A52.33,52.33,0,0,1,147.56,372.56Z"/><path class="f4c10884-ab51-4732-84b8-0740850d8e05" d="M147.56,404H335.93a0,0,0,0,1,0,0v209.3a0,0,0,0,1,0,0H147.56a52.33,52.33,0,0,1-52.33-52.33V456.28A52.33,52.33,0,0,1,147.56,404Z"/><path class="a06b6b6d-2550-4d5d-8997-24a087dffed4" d="M702.21,388.26v209.3C785.93,539.71,785.93,446.1,702.21,388.26Z"/><path class="bf016073-c5d8-400b-9a99-e0dcb372a707" d="M315,859.19H241.74a15.72,15.72,0,0,1-15.69-15.7V613.26a5.24,5.24,0,0,1,5.23-5.24H335.93a5.24,5.24,0,0,1,0,10.47H236.51v225a5.24,5.24,0,0,0,5.23,5.23H315A15.71,15.71,0,0,0,330.7,833V644.65a5.23,5.23,0,0,1,10.46,0V833A26.19,26.19,0,0,1,315,859.19Z"/><rect class="fbb90500-ccdc-47c5-b26f-4bf8931fef7d" x="634.19" y="273.19" width="10.47" height="439.43"/><path class="bf016073-c5d8-400b-9a99-e0dcb372a707" d="M702.21,765a5.23,5.23,0,0,1-3.43-1.28c-160.36-139.27-360.95-145.19-363-145.23a5.24,5.24,0,0,1-5.12-5.23V372.56a5.22,5.22,0,0,1,5.12-5.23c.27,0,27.71-.7,69.73-8.4a5.23,5.23,0,0,1,1.89,10.29c-32.71,6-56.37,7.82-66.28,8.35v230.7C373.28,610.16,549.87,626,697,748.45V388.26a5.23,5.23,0,1,1,10.46,0V759.77a5.22,5.22,0,0,1-3.06,4.76A5.33,5.33,0,0,1,702.21,765Z"/><path class="bf016073-c5d8-400b-9a99-e0dcb372a707" d="M435.74,363.27a5.24,5.24,0,0,1-1.16-10.34c70.45-16.2,173.48-52.05,264.2-130.83a5.23,5.23,0,0,1,8.66,4V356.86a5.23,5.23,0,0,1-10.46,0V237.37C606.8,312.45,506.31,347.18,436.92,363.13A5.35,5.35,0,0,1,435.74,363.27Z"/><path class="bf016073-c5d8-400b-9a99-e0dcb372a707" d="M335.93,618.49H147.56A57.62,57.62,0,0,1,90,560.93v-136a57.62,57.62,0,0,1,57.56-57.55H335.93a5.23,5.23,0,0,1,5.23,5.23v240.7A5.23,5.23,0,0,1,335.93,618.49ZM147.56,377.79a47.14,47.14,0,0,0-47.09,47.09v136A47.14,47.14,0,0,0,147.56,608H330.7V377.79Z"/><path class="fe55b513-d339-4681-9efd-71a25e0c4670" d="M215.58,568.78A13.08,13.08,0,0,1,202.5,555.7V430.12a13.08,13.08,0,1,1,26.16,0V555.7A13.08,13.08,0,0,1,215.58,568.78Z"/><path class="fe55b513-d339-4681-9efd-71a25e0c4670" d="M278.37,568.78a13.08,13.08,0,0,1-13.08-13.08V430.12a13.08,13.08,0,1,1,26.16,0V555.7A13.08,13.08,0,0,1,278.37,568.78Z"/><path class="fe55b513-d339-4681-9efd-71a25e0c4670" d="M152.79,568.78a13.08,13.08,0,0,1-13.08-13.08V430.12a13.08,13.08,0,1,1,26.16,0V555.7A13.08,13.08,0,0,1,152.79,568.78Z"/><path class="bf016073-c5d8-400b-9a99-e0dcb372a707" d="M702.21,602.79a5.23,5.23,0,0,1-5.23-5.23V388.26a5.23,5.23,0,0,1,8.2-4.31c42,29,65.05,67.68,65.05,109s-23.1,80-65.05,109A5.19,5.19,0,0,1,702.21,602.79Zm5.23-204.23v188.7c33.83-26.15,52.33-59.35,52.33-94.35S741.27,424.7,707.44,398.56Z"/><path class="bc347818-7311-46ae-839d-a245c7c5e172" d="M765,639.42a5.23,5.23,0,0,1-3.28-9.32c46-36.76,71.29-85.48,71.29-137.19S807.7,392.47,761.73,355.72a5.24,5.24,0,0,1,6.54-8.18c48.5,38.78,75.22,90.41,75.22,145.37s-26.72,106.58-75.22,145.36A5.23,5.23,0,0,1,765,639.42Z"/><path class="bc347818-7311-46ae-839d-a245c7c5e172" d="M806.87,694.36a5.23,5.23,0,0,1-3.22-9.36c66.18-51.45,102.63-119.66,102.63-192.09S869.83,352.26,803.65,300.82a5.23,5.23,0,0,1,6.42-8.27C878.86,346,916.74,417.18,916.74,492.91S878.86,639.79,810.07,693.26A5.22,5.22,0,0,1,806.87,694.36Z"/><path class="bc347818-7311-46ae-839d-a245c7c5e172" d="M848.73,749.3a5.23,5.23,0,0,1-3.19-9.38c86.41-66.13,134-153.86,134-247S932,312,845.54,245.9a5.23,5.23,0,0,1,6.36-8.31C941,305.74,990,396.42,990,492.91S941,680.07,851.9,748.22A5.19,5.19,0,0,1,848.73,749.3Z"/><path class="fe55b513-d339-4681-9efd-71a25e0c4670" d="M485.74,182.23a21.7,21.7,0,0,1,33.49-26.75,39.13,39.13,0,1,1,77.25,12.27,32.23,32.23,0,0,1,6.78-.73,33,33,0,1,1,0,66H490.6a25.61,25.61,0,0,1-4.86-50.76Z"/><path class="bc347818-7311-46ae-839d-a245c7c5e172" d="M603.26,238.23H490.6a30.85,30.85,0,0,1-11.88-59.33A26.93,26.93,0,0,1,515.78,147a44.37,44.37,0,0,1,86.63,13.54c0,.42,0,.83,0,1.25a38.22,38.22,0,1,1,.87,76.43Zm-98.62-83.17a16.46,16.46,0,0,0-14.34,24.59,5.23,5.23,0,0,1-3.57,7.72,20.38,20.38,0,0,0,3.87,40.39H603.26a27.74,27.74,0,1,0-5.68-54.89,5.24,5.24,0,0,1-6.24-6.08,33.9,33.9,0,1,0-66.93-10.64,5.23,5.23,0,0,1-8.7,3.2A16.43,16.43,0,0,0,504.64,155.06Z"/><path class="fe55b513-d339-4681-9efd-71a25e0c4670" d="M749.45,911a20.35,20.35,0,0,1,31.4-25.09,36.69,36.69,0,1,1,72.44,11.51,30.23,30.23,0,0,1,6.36-.68,30.93,30.93,0,1,1,0,61.86H754a24,24,0,0,1-4.55-47.6Z"/><path class="bc347818-7311-46ae-839d-a245c7c5e172" d="M859.65,963.84H754a29.26,29.26,0,0,1-11.53-56.15,25.28,25.28,0,0,1-.9-6.7,25.63,25.63,0,0,1,25.6-25.61,25.37,25.37,0,0,1,10.24,2.15,41.93,41.93,0,0,1,81.76,13.14c0,.28,0,.56,0,.84a36.17,36.17,0,1,1,.49,72.33Zm-92.48-78A15.12,15.12,0,0,0,754,908.42a5.23,5.23,0,0,1-3.57,7.72A18.78,18.78,0,0,0,754,953.37H859.65a25.69,25.69,0,1,0-5.27-50.83,5.24,5.24,0,0,1-6.24-6.08,31,31,0,0,0,.57-5.79A31.47,31.47,0,0,0,786,886.59a5.24,5.24,0,0,1-8.71,3.2A15.09,15.09,0,0,0,767.17,885.84Z"/><path class="fe55b513-d339-4681-9efd-71a25e0c4670" d="M548.5,813.32A19.1,19.1,0,0,0,519,789.77a34.45,34.45,0,0,0-68.61,4.46,34,34,0,0,0,.61,6.34,28.66,28.66,0,0,0-6-.64,29,29,0,1,0,0,58.07h99.17a22.54,22.54,0,0,0,4.28-44.68Z"/><path class="bc347818-7311-46ae-839d-a245c7c5e172" d="M544.22,863.24H445.05a34.28,34.28,0,0,1,0-68.55h.13v-.46a39.68,39.68,0,0,1,77.26-12.77,24.34,24.34,0,0,1,33.77,22.45,24.68,24.68,0,0,1-.78,6.12,27.78,27.78,0,0,1-11.21,53.21Zm-99.17-58.08a23.81,23.81,0,0,0,0,47.61h99.17a17.32,17.32,0,0,0,3.29-34.32,5.23,5.23,0,0,1-3.57-7.71,13.87,13.87,0,0,0-21.4-17.1,5.23,5.23,0,0,1-8.7-3.2,29.22,29.22,0,0,0-58.2,3.79,29,29,0,0,0,.52,5.38,5.23,5.23,0,0,1-6.23,6.08A23.73,23.73,0,0,0,445.05,805.16Z"/><path class="fe55b513-d339-4681-9efd-71a25e0c4670" d="M321.53,270.43a19.05,19.05,0,0,0-29.4-23.49,34.36,34.36,0,0,0-68.44,4.45,34.74,34.74,0,0,0,.61,6.33,28.47,28.47,0,0,0-6-.65,29,29,0,1,0,0,57.93h98.91a22.49,22.49,0,0,0,4.27-44.57Z"/><path class="bc347818-7311-46ae-839d-a245c7c5e172" d="M317.26,320.23H218.35a34.2,34.2,0,1,1,0-68.39h.11v-.45a39.6,39.6,0,0,1,77.09-12.75,24.26,24.26,0,0,1,32.9,28.5,27.72,27.72,0,0,1-11.19,53.09Zm-98.91-57.92a23.73,23.73,0,1,0,0,47.46h98.91a17.25,17.25,0,0,0,3.28-34.2,5.23,5.23,0,0,1-3.56-7.73,13.82,13.82,0,0,0-21.34-17,5.23,5.23,0,0,1-8.7-3.21,29.13,29.13,0,0,0-58,3.78,28.83,28.83,0,0,0,.52,5.36,5.23,5.23,0,0,1-6.23,6.08A23.37,23.37,0,0,0,218.35,262.31Z"/></svg>