<svg id="f8643a89-8cb4-46e9-a728-96f0ca454405" data-name="Capa 1" xmlns="http://www.w3.org/2000/svg" viewBox="0 0 1080 1080"><defs><style>.b17ca633-8bb8-45b1-9950-fa022ac39b2f{fill:#f6f6f6;}.a631565c-ae35-43cd-8500-1d4cdb4ba4b9{fill:#ededed;}.b198be2b-e936-42d8-85a5-29701b8815a7{fill:#fff;}.ab495cfa-e9dc-45f5-ad09-b77b005970d6{fill:#282c3f;}.a51b424c-40c5-4fc0-b252-b1ef7bcc5200{fill:#2caae6;}.a0aed909-ad09-4b59-9976-5237d8a169fb{fill:#2fc8f2;}.eda655aa-0aaf-4323-a286-c014a79d68ef{fill:#a09cad;}.a37561d0-cbc6-48c1-9dc8-2801d830b507{fill:#989aa6;}.fef53f8c-074e-4793-bbb1-6329b2d2e278{fill:#52576a;}.b9fb745a-866d-462a-ad74-50ac42fb3e0a{fill:#30354c;}.ffa2f7f8-8e41-4c70-85b5-82155644ecc7{fill:#00b5f4;}.bcb16be7-319a-4e49-a831-31e385256f54{fill:#e6e6e6;}</style></defs><title>ICONS S2R</title><path class="b17ca633-8bb8-45b1-9950-fa022ac39b2f" d="M932.53,437.84c-16.66-69-119.84-90.88-165.2-138.77-46.8-49.4-64.76-153.91-129.7-173.17-63-18.66-133.28,58.48-201.6,75.31s-165.89-19-213.28,26.88c-48.88,47.3-17.23,148.44-36.28,214.06-18.47,63.61-100.13,131-83.47,200S222.83,733,268.19,780.92C315,830.33,333,934.84,397.89,954.1c62.95,18.66,133.28-58.48,201.59-75.31s165.9,19,213.29-26.88c48.89-47.3,17.23-148.44,36.28-214.06C867.52,574.24,949.18,506.87,932.53,437.84Z"/><rect class="a631565c-ae35-43cd-8500-1d4cdb4ba4b9" x="373.2" y="206.41" width="500.39" height="333.59" rx="26.06"/><path class="b198be2b-e936-42d8-85a5-29701b8815a7" d="M813.94,496.08,373.2,512.2v-278a27.8,27.8,0,0,1,27.8-27.8H845.79l-15.8,274A16.7,16.7,0,0,1,813.94,496.08Z"/><path class="ab495cfa-e9dc-45f5-ad09-b77b005970d6" d="M845.36,545.64h-50a5.21,5.21,0,1,1,0-10.42h50A22.61,22.61,0,0,0,868,512.63v-278a22.61,22.61,0,0,0-22.59-22.59H400.57A22.61,22.61,0,0,0,378,234.64v278a22.61,22.61,0,0,0,22.58,22.59H762a5.21,5.21,0,1,1,0,10.42H400.57a33,33,0,0,1-33-33v-278a33,33,0,0,1,33-33H845.36a33,33,0,0,1,33,33v278A33,33,0,0,1,845.36,545.64Z"/><rect class="a51b424c-40c5-4fc0-b252-b1ef7bcc5200" x="423.24" y="256.45" width="100.08" height="66.72" rx="5.21"/><path class="a0aed909-ad09-4b59-9976-5237d8a169fb" d="M456.6,328.38a5.22,5.22,0,0,1-5.21-5.22V256.45a5.21,5.21,0,1,1,10.42,0v66.71A5.22,5.22,0,0,1,456.6,328.38Z"/><path class="a0aed909-ad09-4b59-9976-5237d8a169fb" d="M490,328.38a5.22,5.22,0,0,1-5.21-5.22V256.45a5.22,5.22,0,1,1,10.43,0v66.71A5.22,5.22,0,0,1,490,328.38Z"/><path class="a0aed909-ad09-4b59-9976-5237d8a169fb" d="M523.32,295H490a5.22,5.22,0,0,1,0-10.43h33.36a5.22,5.22,0,0,1,0,10.43Z"/><path class="a0aed909-ad09-4b59-9976-5237d8a169fb" d="M456.6,295H423.24a5.22,5.22,0,0,1,0-10.43H456.6a5.22,5.22,0,0,1,0,10.43Z"/><path class="ab495cfa-e9dc-45f5-ad09-b77b005970d6" d="M517.68,328.81H428a10.44,10.44,0,0,1-10.42-10.43V262.09A10.43,10.43,0,0,1,428,251.67h89.66a10.43,10.43,0,0,1,10.42,10.42v56.29A10.44,10.44,0,0,1,517.68,328.81ZM428,262.09v56.29h89.66V262.09Z"/><path class="eda655aa-0aaf-4323-a286-c014a79d68ef" d="M562.24,428.46h-139a5.22,5.22,0,0,1,0-10.43h139a5.22,5.22,0,0,1,0,10.43Z"/><path class="a37561d0-cbc6-48c1-9dc8-2801d830b507" d="M690.12,428.46H595.6a5.22,5.22,0,0,1,0-10.43h94.52a5.22,5.22,0,0,1,0,10.43Z"/><path class="a37561d0-cbc6-48c1-9dc8-2801d830b507" d="M506.64,456.25h-83.4a5.21,5.21,0,0,1,0-10.42h83.4a5.21,5.21,0,0,1,0,10.42Z"/><path class="a37561d0-cbc6-48c1-9dc8-2801d830b507" d="M651.2,456.25H540a5.21,5.21,0,0,1,0-10.42H651.2a5.21,5.21,0,0,1,0,10.42Z"/><path class="a37561d0-cbc6-48c1-9dc8-2801d830b507" d="M861.08,733.56H749.88a5.22,5.22,0,0,1,0-10.43h111.2a5.22,5.22,0,0,1,0,10.43Z"/><path class="a37561d0-cbc6-48c1-9dc8-2801d830b507" d="M891.66,768.3H819.38a5.21,5.21,0,0,1,0-10.42h72.28a5.21,5.21,0,0,1,0,10.42Z"/><path class="a37561d0-cbc6-48c1-9dc8-2801d830b507" d="M307.88,299.88h-83.4a5.21,5.21,0,0,1,0-10.42h83.4a5.21,5.21,0,0,1,0,10.42Z"/><path class="a37561d0-cbc6-48c1-9dc8-2801d830b507" d="M338.45,334.63H277.29a5.21,5.21,0,0,1,0-10.42h61.16a5.21,5.21,0,1,1,0,10.42Z"/><rect class="fef53f8c-074e-4793-bbb1-6329b2d2e278" x="206.41" y="484.4" width="555.99" height="389.19"/><path class="b9fb745a-866d-462a-ad74-50ac42fb3e0a" d="M762.4,873.59H223.09L239.29,528A11.12,11.12,0,0,1,250,517.43L762.4,501.08Z"/><path class="ab495cfa-e9dc-45f5-ad09-b77b005970d6" d="M451,878.8H206.41a5.21,5.21,0,0,1-5.21-5.21v-278a5.21,5.21,0,1,1,10.42,0V868.38H451a5.21,5.21,0,1,1,0,10.42Z"/><path class="ab495cfa-e9dc-45f5-ad09-b77b005970d6" d="M762,879.24H484a5.22,5.22,0,0,1,0-10.43H756.75V490.05H211.19v72.62a5.22,5.22,0,0,1-10.43,0V484.83a5.22,5.22,0,0,1,5.22-5.21H762a5.21,5.21,0,0,1,5.21,5.21V874A5.22,5.22,0,0,1,762,879.24Z"/><path class="b198be2b-e936-42d8-85a5-29701b8815a7" d="M670.66,823.56H298.14a41.69,41.69,0,0,0-41.7-41.7V576.14a41.69,41.69,0,0,0,41.7-41.7H670.66a41.7,41.7,0,0,0,41.69,41.7V781.86A41.69,41.69,0,0,0,670.66,823.56Z"/><path class="ab495cfa-e9dc-45f5-ad09-b77b005970d6" d="M670.22,829.2H297.71A5.21,5.21,0,0,1,292.5,824,36.53,36.53,0,0,0,256,787.5a5.21,5.21,0,0,1-5.21-5.21V576.57a5.21,5.21,0,0,1,5.21-5.21,36.53,36.53,0,0,0,36.49-36.49,5.21,5.21,0,0,1,5.21-5.21H670.22a5.21,5.21,0,0,1,5.22,5.21,36.53,36.53,0,0,0,36.48,36.49,5.22,5.22,0,0,1,5.22,5.21V782.29a5.22,5.22,0,0,1-5.22,5.21A36.53,36.53,0,0,0,675.44,824,5.21,5.21,0,0,1,670.22,829.2ZM302.63,818.77H665.3a47,47,0,0,1,41.41-41.4V581.49a47,47,0,0,1-41.41-41.41H302.63a47,47,0,0,1-41.4,41.41V777.37A47,47,0,0,1,302.63,818.77Z"/><path class="a51b424c-40c5-4fc0-b252-b1ef7bcc5200" d="M573.36,679c0,61.41-39.83,111.19-89,111.19s-89-49.78-89-111.19,39.83-111.2,89-111.2S573.36,617.59,573.36,679Z"/><path class="a0aed909-ad09-4b59-9976-5237d8a169fb" d="M484.4,795.41c-51.93,0-94.17-52.22-94.17-116.41s42.24-116.41,94.17-116.41S578.57,614.81,578.57,679,536.32,795.41,484.4,795.41Zm0-222.4c-46.18,0-83.74,47.55-83.74,106s37.56,106,83.74,106,83.75-47.54,83.75-106S530.58,573,484.4,573Z"/><path class="b198be2b-e936-42d8-85a5-29701b8815a7" d="M484.4,749.37a39.14,39.14,0,0,1-39.09-39.1,7.82,7.82,0,1,1,15.63,0,23.46,23.46,0,1,0,23.46-23.45,39.1,39.1,0,1,1,39.09-39.1,7.82,7.82,0,1,1-15.63,0,23.46,23.46,0,1,0-23.46,23.46,39.1,39.1,0,0,1,0,78.19Z"/><path class="b198be2b-e936-42d8-85a5-29701b8815a7" d="M484.4,770.21a7.82,7.82,0,0,1-7.82-7.81V741.55a7.82,7.82,0,0,1,15.64,0V762.4A7.82,7.82,0,0,1,484.4,770.21Z"/><path class="b198be2b-e936-42d8-85a5-29701b8815a7" d="M484.4,624.27a7.82,7.82,0,0,1-7.82-7.82V595.6a7.82,7.82,0,1,1,15.64,0v20.85A7.82,7.82,0,0,1,484.4,624.27Z"/><path class="ffa2f7f8-8e41-4c70-85b5-82155644ecc7" d="M640.44,712a33,33,0,1,1,33-33A33,33,0,0,1,640.44,712Zm0-55.6A22.59,22.59,0,1,0,663,679,22.61,22.61,0,0,0,640.44,656.41Z"/><path class="ffa2f7f8-8e41-4c70-85b5-82155644ecc7" d="M329.09,712a33,33,0,1,1,33-33A33,33,0,0,1,329.09,712Zm0-55.6A22.59,22.59,0,1,0,351.68,679,22.62,22.62,0,0,0,329.09,656.41Z"/><path class="ab495cfa-e9dc-45f5-ad09-b77b005970d6" d="M422.81,384.41a5.21,5.21,0,0,1-5.21-5.21V368.07a5.21,5.21,0,0,1,10.42,0V379.2A5.21,5.21,0,0,1,422.81,384.41Z"/><path class="ab495cfa-e9dc-45f5-ad09-b77b005970d6" d="M445.05,384.41a5.21,5.21,0,0,1-5.21-5.21V368.07a5.21,5.21,0,0,1,10.42,0V379.2A5.21,5.21,0,0,1,445.05,384.41Z"/><path class="ab495cfa-e9dc-45f5-ad09-b77b005970d6" d="M467.29,384.41a5.21,5.21,0,0,1-5.21-5.21V368.07a5.22,5.22,0,0,1,10.43,0V379.2A5.22,5.22,0,0,1,467.29,384.41Z"/><path class="ab495cfa-e9dc-45f5-ad09-b77b005970d6" d="M489.53,384.41a5.21,5.21,0,0,1-5.21-5.21V368.07a5.21,5.21,0,0,1,10.42,0V379.2A5.21,5.21,0,0,1,489.53,384.41Z"/><path class="ab495cfa-e9dc-45f5-ad09-b77b005970d6" d="M534.44,384a5.21,5.21,0,0,1-5.21-5.21V367.64a5.21,5.21,0,1,1,10.42,0v11.13A5.21,5.21,0,0,1,534.44,384Z"/><path class="ab495cfa-e9dc-45f5-ad09-b77b005970d6" d="M556.68,384a5.21,5.21,0,0,1-5.21-5.21V367.64a5.21,5.21,0,0,1,10.42,0v11.13A5.21,5.21,0,0,1,556.68,384Z"/><path class="ab495cfa-e9dc-45f5-ad09-b77b005970d6" d="M578.92,384a5.21,5.21,0,0,1-5.21-5.21V367.64a5.21,5.21,0,0,1,10.42,0v11.13A5.21,5.21,0,0,1,578.92,384Z"/><path class="ab495cfa-e9dc-45f5-ad09-b77b005970d6" d="M601.16,384a5.21,5.21,0,0,1-5.21-5.21V367.64a5.21,5.21,0,0,1,10.42,0v11.13A5.21,5.21,0,0,1,601.16,384Z"/><path class="ab495cfa-e9dc-45f5-ad09-b77b005970d6" d="M645.64,384a5.22,5.22,0,0,1-5.22-5.21V367.64a5.22,5.22,0,0,1,10.43,0v11.13A5.21,5.21,0,0,1,645.64,384Z"/><path class="ab495cfa-e9dc-45f5-ad09-b77b005970d6" d="M667.88,384a5.22,5.22,0,0,1-5.22-5.21V367.64a5.22,5.22,0,0,1,10.43,0v11.13A5.21,5.21,0,0,1,667.88,384Z"/><path class="ab495cfa-e9dc-45f5-ad09-b77b005970d6" d="M690.12,384a5.22,5.22,0,0,1-5.22-5.21V367.64a5.22,5.22,0,0,1,10.43,0v11.13A5.21,5.21,0,0,1,690.12,384Z"/><path class="ab495cfa-e9dc-45f5-ad09-b77b005970d6" d="M712.35,384a5.21,5.21,0,0,1-5.21-5.21V367.64a5.22,5.22,0,0,1,10.43,0v11.13A5.22,5.22,0,0,1,712.35,384Z"/><path class="ab495cfa-e9dc-45f5-ad09-b77b005970d6" d="M756.83,384a5.21,5.21,0,0,1-5.21-5.21V367.64a5.22,5.22,0,0,1,10.43,0v11.13A5.22,5.22,0,0,1,756.83,384Z"/><path class="ab495cfa-e9dc-45f5-ad09-b77b005970d6" d="M779.07,384a5.21,5.21,0,0,1-5.21-5.21V367.64a5.21,5.21,0,1,1,10.42,0v11.13A5.21,5.21,0,0,1,779.07,384Z"/><path class="ab495cfa-e9dc-45f5-ad09-b77b005970d6" d="M801.32,384a5.22,5.22,0,0,1-5.22-5.21V367.64a5.22,5.22,0,0,1,10.43,0v11.13A5.21,5.21,0,0,1,801.32,384Z"/><path class="ab495cfa-e9dc-45f5-ad09-b77b005970d6" d="M823.56,384a5.22,5.22,0,0,1-5.22-5.21V367.64a5.22,5.22,0,0,1,10.43,0v11.13A5.21,5.21,0,0,1,823.56,384Z"/><path class="b198be2b-e936-42d8-85a5-29701b8815a7" d="M328.73,178.61a55.61,55.61,0,1,1-55.6-55.6A55.61,55.61,0,0,1,328.73,178.61Z"/><path class="a37561d0-cbc6-48c1-9dc8-2801d830b507" d="M273.13,239.42a60.81,60.81,0,1,1,60.81-60.81A60.88,60.88,0,0,1,273.13,239.42Zm0-111.2a50.39,50.39,0,1,0,50.38,50.39A50.45,50.45,0,0,0,273.13,128.22Z"/><path class="bcb16be7-319a-4e49-a831-31e385256f54" d="M273.13,211.62a33,33,0,1,1,33-33,5.21,5.21,0,1,1-10.42,0,22.59,22.59,0,1,0-22.59,22.59,5.21,5.21,0,0,1,0,10.42Z"/><path class="a37561d0-cbc6-48c1-9dc8-2801d830b507" d="M273.13,211.62a5.21,5.21,0,1,1,0-10.42,22.62,22.62,0,0,0,22.59-22.59,5.21,5.21,0,1,1,10.42,0A33,33,0,0,1,273.13,211.62Z"/><path class="b198be2b-e936-42d8-85a5-29701b8815a7" d="M984.79,634.51a55.6,55.6,0,1,1-55.6-55.59A55.6,55.6,0,0,1,984.79,634.51Z"/><path class="a37561d0-cbc6-48c1-9dc8-2801d830b507" d="M929.19,695.33A60.81,60.81,0,1,1,990,634.52,60.88,60.88,0,0,1,929.19,695.33Zm0-111.2a50.39,50.39,0,1,0,50.39,50.39A50.45,50.45,0,0,0,929.19,584.13Z"/><path class="bcb16be7-319a-4e49-a831-31e385256f54" d="M929.19,667.53a33,33,0,1,1,33-33,5.21,5.21,0,0,1-10.42,0,22.59,22.59,0,1,0-22.59,22.59,5.21,5.21,0,0,1,0,10.42Z"/><path class="a37561d0-cbc6-48c1-9dc8-2801d830b507" d="M929.19,667.53a5.21,5.21,0,0,1,0-10.42,22.61,22.61,0,0,0,22.59-22.59,5.21,5.21,0,0,1,10.42,0A33,33,0,0,1,929.19,667.53Z"/><path class="b198be2b-e936-42d8-85a5-29701b8815a7" d="M923.63,901.39a55.6,55.6,0,1,1-55.6-55.6A55.6,55.6,0,0,1,923.63,901.39Z"/><path class="a37561d0-cbc6-48c1-9dc8-2801d830b507" d="M868,962.2a60.81,60.81,0,1,1,60.81-60.81A60.88,60.88,0,0,1,868,962.2ZM868,851a50.39,50.39,0,1,0,50.39,50.38A50.44,50.44,0,0,0,868,851Z"/><path class="bcb16be7-319a-4e49-a831-31e385256f54" d="M868,934.4a33,33,0,1,1,33-33,5.21,5.21,0,0,1-10.42,0A22.59,22.59,0,1,0,868,924a5.21,5.21,0,1,1,0,10.42Z"/><path class="a37561d0-cbc6-48c1-9dc8-2801d830b507" d="M868,934.4A5.21,5.21,0,1,1,868,924a22.61,22.61,0,0,0,22.59-22.59,5.21,5.21,0,1,1,10.42,0A33,33,0,0,1,868,934.4Z"/><path class="b198be2b-e936-42d8-85a5-29701b8815a7" d="M206.41,378.77a55.6,55.6,0,1,1-55.6-55.61A55.59,55.59,0,0,1,206.41,378.77Z"/><path class="a37561d0-cbc6-48c1-9dc8-2801d830b507" d="M150.81,439.58a60.82,60.82,0,1,1,60.81-60.81A60.88,60.88,0,0,1,150.81,439.58Zm0-111.2a50.39,50.39,0,1,0,50.39,50.39A50.45,50.45,0,0,0,150.81,328.38Z"/><path class="bcb16be7-319a-4e49-a831-31e385256f54" d="M150.81,411.78a33,33,0,1,1,33-33,5.21,5.21,0,1,1-10.42,0,22.59,22.59,0,1,0-22.59,22.58,5.22,5.22,0,0,1,0,10.43Z"/><path class="a37561d0-cbc6-48c1-9dc8-2801d830b507" d="M150.81,411.78a5.22,5.22,0,0,1,0-10.43,22.61,22.61,0,0,0,22.59-22.58,5.21,5.21,0,1,1,10.42,0A33,33,0,0,1,150.81,411.78Z"/></svg>