<svg id="aa8b69e3-8a90-48d1-92ee-b2b35916ca56" data-name="Capa 1" xmlns="http://www.w3.org/2000/svg" viewBox="0 0 1080 1080"><defs><style>.fa40d000-ea75-4173-b430-cfb4c484cff0{fill:#f6f6f6;}.aadf627a-655f-4195-b107-4a9b3a1e4de9{fill:#fff;}.f1350494-3a36-4ffe-afd3-ab055cf28970{fill:#989aa6;}.b0419e6c-d2a2-4fad-819d-763e2bd71196{fill:#ededed;}.e53cabbe-0daa-490a-906c-38b0e7bda491{fill:#282c3f;}.f1b58841-d04e-4e24-a029-1a31fb75c2b2{fill:#30354c;}.a26a02f2-315e-4bea-83d3-48dfd71c0ccd{fill:#34234d;}.bc98c7e7-26cc-4400-99e5-e554390fe04a{fill:#52576a;}.bb8f1fa6-aacc-4daf-b383-436bbc73fa99{fill:#00b5f4;}.b134cd90-b821-4511-b659-12015e312873{fill:#2caae6;}.e6f315b3-1729-4448-bf6e-aa8d2759ec42{fill:#2fc8f2;}</style></defs><title>ICONOS S2R</title><path class="fa40d000-ea75-4173-b430-cfb4c484cff0" d="M873.11,398.6c-27.76-65.36-7-173.57-63.62-216.38-54.86-41.5-152.14,7.33-225.29-1.69s-155.7-80-219-53.07c-65.29,27.79-71.37,137.81-114.13,194.48C209.63,376.88,104.85,412,95.85,485.26S180,618,206.89,681.4c27.76,65.36,7,173.57,63.61,216.38,54.87,41.5,152.15-7.33,225.3,1.69s155.7,80,219,53.07c65.29-27.79,71.37-137.81,114.13-194.48C870.37,703.12,975.15,668,984.15,594.74S900,462,873.11,398.6Z"/><circle class="aadf627a-655f-4195-b107-4a9b3a1e4de9" cx="921.98" cy="817.33" r="62.79"/><path class="f1350494-3a36-4ffe-afd3-ab055cf28970" d="M922,885.35a5.23,5.23,0,0,1-5.24-5.23,57.62,57.62,0,0,0-57.55-57.56,5.24,5.24,0,1,1,0-10.47,57.62,57.62,0,0,0,57.55-57.56,5.24,5.24,0,0,1,10.47,0,57.62,57.62,0,0,0,57.56,57.56,5.24,5.24,0,0,1,0,10.47,57.62,57.62,0,0,0-57.56,57.56A5.23,5.23,0,0,1,922,885.35Zm-36.63-68A68.45,68.45,0,0,1,922,854a68.4,68.4,0,0,1,36.62-36.62A68.45,68.45,0,0,1,922,780.7,68.5,68.5,0,0,1,885.35,817.33Z"/><circle class="aadf627a-655f-4195-b107-4a9b3a1e4de9" cx="383.02" cy="210.35" r="41.86"/><path class="f1350494-3a36-4ffe-afd3-ab055cf28970" d="M383,257.44a5.23,5.23,0,0,1-5.23-5.23,36.67,36.67,0,0,0-36.63-36.63,5.23,5.23,0,0,1,0-10.46,36.68,36.68,0,0,0,36.63-36.63,5.24,5.24,0,0,1,10.47,0,36.67,36.67,0,0,0,36.62,36.63,5.23,5.23,0,1,1,0,10.46,36.67,36.67,0,0,0-36.62,36.63A5.23,5.23,0,0,1,383,257.44Zm-20.29-47.09A47.4,47.4,0,0,1,383,230.65a47.37,47.37,0,0,1,20.3-20.3,47.37,47.37,0,0,1-20.3-20.3A47.4,47.4,0,0,1,362.73,210.35Z"/><circle class="aadf627a-655f-4195-b107-4a9b3a1e4de9" cx="634.19" cy="173.72" r="52.33"/><path class="f1350494-3a36-4ffe-afd3-ab055cf28970" d="M634.19,231.28a5.23,5.23,0,0,1-5.24-5.23A47.15,47.15,0,0,0,581.86,179a5.23,5.23,0,0,1,0-10.46A47.14,47.14,0,0,0,629,121.4a5.24,5.24,0,1,1,10.47,0,47.14,47.14,0,0,0,47.09,47.09,5.23,5.23,0,1,1,0,10.46,47.15,47.15,0,0,0-47.09,47.1A5.23,5.23,0,0,1,634.19,231.28Zm-28.36-57.56a57.92,57.92,0,0,1,28.36,28.36,57.86,57.86,0,0,1,28.35-28.36,57.88,57.88,0,0,1-28.35-28.35A57.94,57.94,0,0,1,605.83,173.72Z"/><circle class="aadf627a-655f-4195-b107-4a9b3a1e4de9" cx="137.09" cy="696.98" r="41.86"/><path class="f1350494-3a36-4ffe-afd3-ab055cf28970" d="M137.09,744.07a5.23,5.23,0,0,1-5.23-5.23,36.67,36.67,0,0,0-36.63-36.63,5.24,5.24,0,0,1,0-10.47,36.67,36.67,0,0,0,36.63-36.62,5.24,5.24,0,1,1,10.47,0A36.66,36.66,0,0,0,179,691.74a5.24,5.24,0,1,1,0,10.47,36.67,36.67,0,0,0-36.62,36.63A5.24,5.24,0,0,1,137.09,744.07ZM116.8,697a47.43,47.43,0,0,1,20.29,20.29A47.4,47.4,0,0,1,157.39,697a47.37,47.37,0,0,1-20.3-20.3A47.4,47.4,0,0,1,116.8,697Z"/><circle class="aadf627a-655f-4195-b107-4a9b3a1e4de9" cx="859.19" cy="492.91" r="41.86"/><path class="f1350494-3a36-4ffe-afd3-ab055cf28970" d="M859.19,540a5.23,5.23,0,0,1-5.24-5.23,36.67,36.67,0,0,0-36.62-36.63,5.24,5.24,0,1,1,0-10.47A36.66,36.66,0,0,0,854,451.05a5.24,5.24,0,1,1,10.47,0,36.67,36.67,0,0,0,36.63,36.62,5.24,5.24,0,0,1,0,10.47,36.67,36.67,0,0,0-36.63,36.63A5.23,5.23,0,0,1,859.19,540Zm-20.3-47.09a47.45,47.45,0,0,1,20.3,20.29,47.43,47.43,0,0,1,20.29-20.29,47.4,47.4,0,0,1-20.29-20.3A47.42,47.42,0,0,1,838.89,492.91Z"/><path class="f1350494-3a36-4ffe-afd3-ab055cf28970" d="M984.77,963.84H95.23a5.24,5.24,0,0,1,0-10.47H984.77a5.24,5.24,0,0,1,0,10.47Z"/><rect class="aadf627a-655f-4195-b107-4a9b3a1e4de9" x="199.88" y="351.63" width="586.05" height="606.98"/><polygon class="b0419e6c-d2a2-4fad-819d-763e2bd71196" points="521.67 958.61 770.91 278.37 624.42 278.37 375.17 958.61 521.67 958.61"/><polygon class="b0419e6c-d2a2-4fad-819d-763e2bd71196" points="280.67 958.61 529.92 278.37 475.29 278.37 226.05 958.61 280.67 958.61"/><path class="e53cabbe-0daa-490a-906c-38b0e7bda491" d="M785.93,545.23A5.23,5.23,0,0,1,780.7,540V356.86H205.12v83.72a5.24,5.24,0,0,1-10.47,0V351.63a5.23,5.23,0,0,1,5.23-5.23H785.93a5.23,5.23,0,0,1,5.23,5.23V540A5.23,5.23,0,0,1,785.93,545.23Z"/><path class="e53cabbe-0daa-490a-906c-38b0e7bda491" d="M785.93,963.84h-586a5.23,5.23,0,0,1-5.23-5.24V472a5.24,5.24,0,1,1,10.47,0V953.37H780.7V770.23a5.23,5.23,0,0,1,10.46,0V958.6A5.23,5.23,0,0,1,785.93,963.84Z"/><path class="f1b58841-d04e-4e24-a029-1a31fb75c2b2" d="M722.93,772.9a68.67,68.67,0,0,1-48-117.78,68.67,68.67,0,1,1,114.76-65.19,68.71,68.71,0,1,1,0,130.37A68.68,68.68,0,0,1,722.93,772.9Z"/><path class="a26a02f2-315e-4bea-83d3-48dfd71c0ccd" d="M722.93,778.13A74,74,0,0,1,649,704.2a73.28,73.28,0,0,1,18.67-49.08,73.91,73.91,0,1,1,125.6-71.69,73.94,73.94,0,1,1,0,143.37A73.63,73.63,0,0,1,722.93,778.13Zm0-235.56a63.44,63.44,0,0,0-44.37,108.81,5.24,5.24,0,0,1,0,7.48,63.44,63.44,0,1,0,106,60.21,5.25,5.25,0,0,1,6.74-3.74,63.47,63.47,0,1,0,0-120.43,5.24,5.24,0,0,1-6.74-3.74A63.22,63.22,0,0,0,722.93,542.57Z"/><path class="bc98c7e7-26cc-4400-99e5-e554390fe04a" d="M722.93,537.33a68.68,68.68,0,0,0-48,117.79H676A68.64,68.64,0,0,1,784.61,576,68.55,68.55,0,0,0,722.93,537.33Z"/><path class="e53cabbe-0daa-490a-906c-38b0e7bda491" d="M722.93,778.13A74,74,0,0,1,649,704.2a73.28,73.28,0,0,1,18.67-49.08,73.91,73.91,0,1,1,125.6-71.69,73.94,73.94,0,1,1,0,143.37A73.63,73.63,0,0,1,722.93,778.13Zm0-235.56a63.44,63.44,0,0,0-44.37,108.81,5.24,5.24,0,0,1,0,7.48,63.44,63.44,0,1,0,106,60.21,5.25,5.25,0,0,1,6.74-3.74,63.47,63.47,0,1,0,0-120.43,5.24,5.24,0,0,1-6.74-3.74A63.22,63.22,0,0,0,722.93,542.57Z"/><path class="aadf627a-655f-4195-b107-4a9b3a1e4de9" d="M696.36,606a26.58,26.58,0,1,0,26.57-26.58A26.58,26.58,0,0,0,696.36,606Z"/><path class="e53cabbe-0daa-490a-906c-38b0e7bda491" d="M722.93,637.84A31.81,31.81,0,1,1,754.74,606,31.84,31.84,0,0,1,722.93,637.84Zm0-53.14A21.34,21.34,0,1,0,744.27,606,21.36,21.36,0,0,0,722.93,584.7Z"/><path class="aadf627a-655f-4195-b107-4a9b3a1e4de9" d="M696.36,704.2a26.58,26.58,0,1,0,26.57-26.57A26.58,26.58,0,0,0,696.36,704.2Z"/><path class="e53cabbe-0daa-490a-906c-38b0e7bda491" d="M722.93,736a31.81,31.81,0,1,1,31.81-31.8A31.84,31.84,0,0,1,722.93,736Zm0-53.14a21.34,21.34,0,1,0,21.34,21.34A21.36,21.36,0,0,0,722.93,682.86Z"/><path class="aadf627a-655f-4195-b107-4a9b3a1e4de9" d="M784.7,655.12a26.58,26.58,0,1,0,26.58-26.58A26.58,26.58,0,0,0,784.7,655.12Z"/><path class="e53cabbe-0daa-490a-906c-38b0e7bda491" d="M811.28,686.92a31.81,31.81,0,1,1,31.8-31.8A31.84,31.84,0,0,1,811.28,686.92Zm0-53.14a21.34,21.34,0,1,0,21.33,21.34A21.36,21.36,0,0,0,811.28,633.78Z"/><polygon class="bc98c7e7-26cc-4400-99e5-e554390fe04a" points="367.33 576.63 367.33 618.49 325.46 618.49 325.46 576.63 283.61 576.63 283.61 654.63 409.19 655.12 409.19 576.63 367.33 576.63"/><polygon class="f1b58841-d04e-4e24-a029-1a31fb75c2b2" points="367.33 601.04 367.33 618.49 325.46 618.49 325.46 609.77 283.61 618.49 283.61 654.63 409.19 655.12 409.19 592.33 367.33 601.04"/><path class="e53cabbe-0daa-490a-906c-38b0e7bda491" d="M409.19,660.35h0l-125.59-.49a5.23,5.23,0,0,1-5.21-5.23v-78a5.23,5.23,0,0,1,5.23-5.23h41.86a5.23,5.23,0,0,1,5.23,5.23v36.63H362.1V576.63a5.23,5.23,0,0,1,5.23-5.23h41.86a5.23,5.23,0,0,1,5.23,5.23v78.49a5.24,5.24,0,0,1-5.23,5.23ZM288.84,649.42l115.11.44v-68H372.56v36.63a5.23,5.23,0,0,1-5.23,5.23H325.46a5.23,5.23,0,0,1-5.23-5.23V581.86H288.84Z"/><path class="e53cabbe-0daa-490a-906c-38b0e7bda491" d="M674.9,660.35H263.66a5.24,5.24,0,0,1,0-10.47H674.9a5.24,5.24,0,0,1,0,10.47Z"/><path class="bb8f1fa6-aacc-4daf-b383-436bbc73fa99" d="M605.89,736.22H533.15a13.08,13.08,0,1,1,0-26.16h72.74a13.08,13.08,0,0,1,0,26.16Z"/><path class="bb8f1fa6-aacc-4daf-b383-436bbc73fa99" d="M479.05,736.22H392.5a13.08,13.08,0,1,1,0-26.16h86.55a13.08,13.08,0,0,1,0,26.16Z"/><path class="bb8f1fa6-aacc-4daf-b383-436bbc73fa99" d="M338.4,736.22H273.14a13.08,13.08,0,1,1,0-26.16H338.4a13.08,13.08,0,0,1,0,26.16Z"/><path class="bb8f1fa6-aacc-4daf-b383-436bbc73fa99" d="M627.53,793.78H565.61a13.08,13.08,0,0,1,0-26.16h61.92a13.08,13.08,0,1,1,0,26.16Z"/><path class="bb8f1fa6-aacc-4daf-b383-436bbc73fa99" d="M511.51,793.78h-69a13.08,13.08,0,0,1,0-26.16h69a13.08,13.08,0,1,1,0,26.16Z"/><path class="bb8f1fa6-aacc-4daf-b383-436bbc73fa99" d="M388.41,793.78H273.14a13.08,13.08,0,0,1,0-26.16H388.41a13.08,13.08,0,1,1,0,26.16Z"/><path class="bb8f1fa6-aacc-4daf-b383-436bbc73fa99" d="M712.67,851.34H598.07a13.09,13.09,0,0,1,0-26.17h114.6a13.09,13.09,0,1,1,0,26.17Z"/><path class="bb8f1fa6-aacc-4daf-b383-436bbc73fa99" d="M544,851.34H399.24a13.09,13.09,0,0,1,0-26.17H544a13.09,13.09,0,0,1,0,26.17Z"/><path class="bb8f1fa6-aacc-4daf-b383-436bbc73fa99" d="M345.13,851.34h-72a13.09,13.09,0,0,1,0-26.17h72a13.09,13.09,0,0,1,0,26.17Z"/><path class="bb8f1fa6-aacc-4daf-b383-436bbc73fa99" d="M627.53,547.85H576.08a13.08,13.08,0,1,1,0-26.16h51.45a13.08,13.08,0,1,1,0,26.16Z"/><path class="bb8f1fa6-aacc-4daf-b383-436bbc73fa99" d="M522,547.85H421.59a13.08,13.08,0,1,1,0-26.16H522a13.08,13.08,0,0,1,0,26.16Z"/><path class="bb8f1fa6-aacc-4daf-b383-436bbc73fa99" d="M605.89,605.41H555.15a13.09,13.09,0,1,1,0-26.17h50.74a13.09,13.09,0,0,1,0,26.17Z"/><path class="bb8f1fa6-aacc-4daf-b383-436bbc73fa99" d="M501.05,605.41H453a13.09,13.09,0,0,1,0-26.17h48.07a13.09,13.09,0,0,1,0,26.17Z"/><path class="bb8f1fa6-aacc-4daf-b383-436bbc73fa99" d="M367.48,547.85H273.14a13.08,13.08,0,0,1,0-26.16h94.34a13.08,13.08,0,1,1,0,26.16Z"/><path class="bb8f1fa6-aacc-4daf-b383-436bbc73fa99" d="M712.67,490.29H545.75a13.08,13.08,0,0,1,0-26.16H712.67a13.08,13.08,0,1,1,0,26.16Z"/><path class="bb8f1fa6-aacc-4daf-b383-436bbc73fa99" d="M491.64,490.29H394a13.08,13.08,0,1,1,0-26.16h97.64a13.08,13.08,0,1,1,0,26.16Z"/><path class="bb8f1fa6-aacc-4daf-b383-436bbc73fa99" d="M339.9,490.29H273.14a13.08,13.08,0,1,1,0-26.16H339.9a13.08,13.08,0,1,1,0,26.16Z"/><rect class="b134cd90-b821-4511-b659-12015e312873" x="199.88" y="278.37" width="586.05" height="73.26"/><polygon class="e6f315b3-1729-4448-bf6e-aa8d2759ec42" points="744.07 351.63 770.91 278.37 624.42 278.37 597.57 351.63 744.07 351.63"/><polygon class="e6f315b3-1729-4448-bf6e-aa8d2759ec42" points="503.08 351.63 529.92 278.37 475.29 278.37 448.45 351.63 503.08 351.63"/><path class="e53cabbe-0daa-490a-906c-38b0e7bda491" d="M785.93,356.86h-586a5.23,5.23,0,0,1-5.23-5.23V278.37a5.23,5.23,0,0,1,5.23-5.23H785.93a5.23,5.23,0,0,1,5.23,5.23v73.26A5.23,5.23,0,0,1,785.93,356.86ZM205.12,346.4H780.7V283.6H205.12Z"/><circle class="aadf627a-655f-4195-b107-4a9b3a1e4de9" cx="236.51" cy="315" r="10.47"/><circle class="aadf627a-655f-4195-b107-4a9b3a1e4de9" cx="278.37" cy="315" r="10.47"/><circle class="aadf627a-655f-4195-b107-4a9b3a1e4de9" cx="320.23" cy="315" r="10.47"/></svg>