<svg id="a747e107-7099-43ef-a5eb-3eeaa008ae80" data-name="Capa 1" xmlns="http://www.w3.org/2000/svg" viewBox="0 0 1080 1080"><defs><style>.a86b28b4-ae2c-459d-b0da-9b8c7ca1a850{fill:#989aa6;}.a9e20a1c-5312-495b-ba08-6ecabac8fca2{fill:#f6f6f6;}.fba66be8-61cb-4e87-a1d5-4b1ae65c875a{fill:#fff;}.b080656d-2b82-4a4d-9647-755d78dd941f{fill:#2fc8f2;}.b4fab5fa-06f4-4120-9ebf-3d2c54c59e6c{fill:#00b5f4;}.bc76c874-439a-48fd-a061-4bcff014b3bc{fill:#ededed;}.bb84184f-c01d-4dfb-bea9-1b8a55c10544{fill:#282c3f;}.a2382cd3-8edb-4415-89a7-8df1a2c11896{fill:#30354c;}.e6ecfd05-a1cd-4314-9eaa-5c7c3d80c19c{fill:#52576a;}.a6e1bdee-c88b-4a77-8eba-01731d39ec37{fill:#2caae6;}.b994b464-643b-4f1e-8e78-289be792fa7f{fill:#b8b5c6;}.e2f472ea-a593-4092-bce0-3f0ab9d8b014{fill:#a09cad;}</style></defs><title>ICONS S2R</title><path class="a86b28b4-ae2c-459d-b0da-9b8c7ca1a850" d="M984.77,953.37H95.23a5.24,5.24,0,0,0,0,10.47H984.77a5.24,5.24,0,0,0,0-10.47Z"/><path class="a9e20a1c-5312-495b-ba08-6ecabac8fca2" d="M857.68,370.78c-33.17-62.38-22-171.47-81.81-209-58-36.37-150.06,20.52-223.31,18S391.38,114,331,146.23C268.78,179.47,272.31,289.07,234.87,349c-36.29,58.07-137,102-139.59,175.45s94.88,124.3,127,184.78c33.17,62.38,22,171.47,81.81,209,57.95,36.37,150.06-20.52,223.31-18S688.62,966,749,933.77c62.26-33.24,58.73-142.84,96.17-202.76,36.29-58.07,137-102,139.59-175.45S889.84,431.26,857.68,370.78Z"/><path class="fba66be8-61cb-4e87-a1d5-4b1ae65c875a" d="M264.33,401.76a17.34,17.34,0,0,0-26.76-21.38,31.26,31.26,0,1,0-61.72,9.81,25.5,25.5,0,0,0-5.42-.59,26.36,26.36,0,0,0,0,52.72h90a20.47,20.47,0,0,0,3.89-40.56Z"/><path class="a86b28b4-ae2c-459d-b0da-9b8c7ca1a850" d="M260.44,447.55h-90a31.59,31.59,0,0,1-.37-63.18A36.51,36.51,0,0,1,241,372.21a22.21,22.21,0,0,1,8.25-1.58,22.61,22.61,0,0,1,22,27.87,25.7,25.7,0,0,1-10.75,49.05Zm-90-52.71a21.13,21.13,0,0,0,0,42.25h90a15.23,15.23,0,0,0,2.9-30.19,5.24,5.24,0,0,1-3.57-7.73,12.1,12.1,0,0,0-18.68-14.91,5.23,5.23,0,0,1-8.7-3.2,26,26,0,1,0-51.4,8.17,5.24,5.24,0,0,1-6.23,6.08A20.86,20.86,0,0,0,170.43,394.84Z"/><path class="fba66be8-61cb-4e87-a1d5-4b1ae65c875a" d="M720.88,168.35A16.75,16.75,0,0,0,695,147.7a30.2,30.2,0,1,0-59.63,9.48,24.43,24.43,0,0,0-5.23-.57,25.46,25.46,0,1,0,0,50.92h87a19.77,19.77,0,0,0,3.75-39.18Z"/><path class="a86b28b4-ae2c-459d-b0da-9b8c7ca1a850" d="M717.13,212.76h-87a30.69,30.69,0,0,1-.54-61.38,35.44,35.44,0,0,1,68.78-11.81,22,22,0,0,1,29.29,25.53,25,25,0,0,1-10.58,47.66Zm-87-50.92a20.23,20.23,0,1,0,0,40.46h87a14.54,14.54,0,0,0,2.76-28.81,5.24,5.24,0,0,1-3.56-7.72,11.38,11.38,0,0,0,1.49-5.67,11.51,11.51,0,0,0-19.26-8.53,5.23,5.23,0,0,1-8.71-3.19,25,25,0,1,0-49.3,7.82,5.23,5.23,0,0,1-6.22,6.09A20,20,0,0,0,630.18,161.84Z"/><path class="fba66be8-61cb-4e87-a1d5-4b1ae65c875a" d="M804.56,486.81a15.87,15.87,0,0,1,24.49-19.57,28.62,28.62,0,1,1,56.5,9,23.85,23.85,0,0,1,5-.53,24.12,24.12,0,1,1,0,48.24h-82.4a18.73,18.73,0,0,1-3.55-37.12Z"/><path class="a86b28b4-ae2c-459d-b0da-9b8c7ca1a850" d="M890.51,529.17h-82.4a24,24,0,0,1-10.34-45.59,20.74,20.74,0,0,1-.51-4.58,21.12,21.12,0,0,1,28.42-19.82,33.86,33.86,0,0,1,65.6,11.28,29.36,29.36,0,0,1-.77,58.71Zm-72.13-60.83A10.67,10.67,0,0,0,807.73,479a10.46,10.46,0,0,0,1.38,5.23,5.23,5.23,0,0,1-3.57,7.72,13.5,13.5,0,0,0,2.57,26.76h82.4a18.89,18.89,0,1,0-3.88-37.37,5.24,5.24,0,0,1-6.22-6.08,24.13,24.13,0,0,0,.41-4.31,23.39,23.39,0,0,0-46.59-3,5.23,5.23,0,0,1-8.7,3.2A10.62,10.62,0,0,0,818.38,468.34Z"/><path class="fba66be8-61cb-4e87-a1d5-4b1ae65c875a" d="M877.16,866.69a15.52,15.52,0,0,1,23.94-19.13,28,28,0,1,1,55.24,8.77A23.58,23.58,0,1,1,961.18,903H880.63a18.31,18.31,0,0,1-3.47-36.29Z"/><path class="a86b28b4-ae2c-459d-b0da-9b8c7ca1a850" d="M961.18,908.22H880.63a23.55,23.55,0,0,1-10.24-44.76,20.34,20.34,0,0,1-.48-4.41,20.76,20.76,0,0,1,27.83-19.52,33.22,33.22,0,0,1,64.32,11.07,28.82,28.82,0,0,1-.88,57.62Zm-70.5-59.47a10.31,10.31,0,0,0-10.3,10.3,10.17,10.17,0,0,0,1.34,5.07,5.23,5.23,0,0,1-3.58,7.71,13.08,13.08,0,0,0,2.49,25.92h80.55a18.35,18.35,0,1,0-3.76-36.3,5.23,5.23,0,0,1-6.23-6.08,22.74,22.74,0,1,0-44.9-7.13,5.24,5.24,0,0,1-8.71,3.19A10.23,10.23,0,0,0,890.68,848.75Z"/><path class="fba66be8-61cb-4e87-a1d5-4b1ae65c875a" d="M378.32,205.6a14.22,14.22,0,0,1,21.94-17.54,25.65,25.65,0,0,1,51.08,3.33,26.22,26.22,0,0,1-.45,4.72,20.9,20.9,0,0,1,4.44-.48,21.62,21.62,0,1,1,0,43.23H381.51a16.78,16.78,0,0,1-3.19-33.26Z"/><path class="a86b28b4-ae2c-459d-b0da-9b8c7ca1a850" d="M455.33,244.09H381.51a22,22,0,0,1-9.89-41.69,19.47,19.47,0,0,1,25.31-22.25,30.88,30.88,0,0,1,59.63,10.27,26.85,26.85,0,0,1-1.23,53.67Zm-64.62-54.5a9,9,0,0,0-9,9,8.84,8.84,0,0,0,1.18,4.42,5.25,5.25,0,0,1-3.57,7.72,11.55,11.55,0,0,0,2.2,22.89h73.82A16.38,16.38,0,1,0,452,201.22a5.24,5.24,0,0,1-6.24-6.07,19.86,19.86,0,0,0,.37-3.76,20.42,20.42,0,0,0-40.66-2.65,5.23,5.23,0,0,1-8.71,3.2A9,9,0,0,0,390.71,189.59Z"/><path class="fba66be8-61cb-4e87-a1d5-4b1ae65c875a" d="M115.39,793.75a21.06,21.06,0,0,1,32.5-26,38,38,0,0,1,75.66,4.93,37.37,37.37,0,0,1-.68,7A32,32,0,1,1,229.45,843H120.11a24.86,24.86,0,0,1-4.72-49.27Z"/><path class="a86b28b4-ae2c-459d-b0da-9b8c7ca1a850" d="M229.45,848.25H120.11a30.09,30.09,0,0,1-11.72-57.82,26.3,26.3,0,0,1,36.06-31.08,43.22,43.22,0,0,1,84.33,13.36c0,.34,0,.7,0,1h.69a37.25,37.25,0,1,1,0,74.5Zm-95.71-80.73a15.88,15.88,0,0,0-15.85,15.86,15.6,15.6,0,0,0,2.06,7.79,5.24,5.24,0,0,1-3.57,7.72,19.63,19.63,0,0,0,3.73,38.9H229.45a26.79,26.79,0,1,0,0-53.58,26.35,26.35,0,0,0-5.49.6,5.23,5.23,0,0,1-6.23-6.07,32.74,32.74,0,1,0-64.65-10.29,5.23,5.23,0,0,1-8.71,3.2A15.81,15.81,0,0,0,133.74,767.52Z"/><polygon class="b080656d-2b82-4a4d-9647-755d78dd941f" points="710.06 278.37 328.08 278.37 328.08 351.63 679.97 351.63 710.06 278.37"/><polygon class="b4fab5fa-06f4-4120-9ebf-3d2c54c59e6c" points="710.06 278.37 679.97 351.63 751.92 351.63 751.92 278.37 710.06 278.37"/><polygon class="bc76c874-439a-48fd-a061-4bcff014b3bc" points="589.71 571.39 751.92 571.39 751.92 351.63 679.97 351.63 589.71 571.39"/><polygon class="fba66be8-61cb-4e87-a1d5-4b1ae65c875a" points="328.08 351.63 328.08 571.39 589.71 571.39 679.97 351.63 328.08 351.63"/><path class="bb84184f-c01d-4dfb-bea9-1b8a55c10544" d="M751.92,356.86H328.08a5.23,5.23,0,0,1-5.23-5.23V278.37a5.23,5.23,0,0,1,5.23-5.23H550.47a5.23,5.23,0,0,1,0,10.46H333.31v62.8H746.69V283.6H581.86a5.23,5.23,0,0,1,0-10.46H751.92a5.23,5.23,0,0,1,5.23,5.23v73.26A5.23,5.23,0,0,1,751.92,356.86Z"/><circle class="a2382cd3-8edb-4415-89a7-8df1a2c11896" cx="364.71" cy="315" r="7.85"/><circle class="a2382cd3-8edb-4415-89a7-8df1a2c11896" cx="401.34" cy="315" r="7.85"/><circle class="a2382cd3-8edb-4415-89a7-8df1a2c11896" cx="437.97" cy="315" r="7.85"/><path class="bb84184f-c01d-4dfb-bea9-1b8a55c10544" d="M751.92,576.63H328.08a5.23,5.23,0,0,1-5.23-5.23V351.63a5.23,5.23,0,0,1,5.23-5.23H751.92a5.23,5.23,0,0,1,5.23,5.23V571.4A5.23,5.23,0,0,1,751.92,576.63ZM333.31,566.16H746.69V356.86H333.31Z"/><path class="a2382cd3-8edb-4415-89a7-8df1a2c11896" d="M641.49,526.94a97.89,97.89,0,0,0-5.74-13.74l31.81-43.81a158.32,158.32,0,0,0-24.84-27.08L592.09,565.6a52,52,0,0,1-11.79,28.69L529.72,717.46c3.41.24,6.84.45,10.3.45a157.19,157.19,0,0,0,25.48-2.13L574,662.37a105,105,0,0,0,13.72-5.74l43.81,31.77a157,157,0,0,0,36-36l-31.81-43.78a104,104,0,0,0,5.74-13.74l53.43-8.51A156.11,156.11,0,0,0,697,560.92h0a155.72,155.72,0,0,0-2.06-25.45Z"/><path class="e6ecfd05-a1cd-4314-9eaa-5c7c3d80c19c" d="M540,613.26a52.33,52.33,0,1,1,52.33-52.33c0,1.57-.1,3.13-.24,4.67l50.63-123.29c-3.6-3.12-7.32-6.12-11.2-8.91l-43.81,31.79A99.67,99.67,0,0,0,574,459.47l-8.49-53.41a154.84,154.84,0,0,0-51,0l-8.5,53.41a101.37,101.37,0,0,0-13.73,5.72L448.56,433.4a157.11,157.11,0,0,0-36.06,36l31.77,43.81a108.24,108.24,0,0,0-5.7,13.74l-53.45,8.52a155.71,155.71,0,0,0-2.1,25.45h0a156.11,156.11,0,0,0,2.1,25.46l53.45,8.51a106.66,106.66,0,0,0,5.72,13.74L412.5,652.41a155.93,155.93,0,0,0,36.06,36l43.76-31.77a106.87,106.87,0,0,0,13.73,5.74l8.5,53.41c5,.82,10.05,1.33,15.17,1.68L580.3,594.29A52.17,52.17,0,0,1,540,613.26Z"/><path class="bb84184f-c01d-4dfb-bea9-1b8a55c10544" d="M540,723.14A164.06,164.06,0,0,1,513.7,721a5.26,5.26,0,0,1-4.32-4.35l-8-50.33c-2.8-1-5.62-2.22-8.51-3.57l-41.24,29.94a5.24,5.24,0,0,1-6.11,0,161.07,161.07,0,0,1-37.27-37.2,5.22,5.22,0,0,1,0-6.13l30-41.25c-1.33-2.87-2.52-5.72-3.56-8.52l-50.36-8a5.22,5.22,0,0,1-4.34-4.31,160.64,160.64,0,0,1,0-52.63,5.22,5.22,0,0,1,4.34-4.31l50.36-8c1-2.78,2.2-5.6,3.55-8.51l-29.95-41.3a5.22,5.22,0,0,1,0-6.12,162.4,162.4,0,0,1,37.26-37.2,5.22,5.22,0,0,1,6.12,0l41.23,29.94c2.81-1.31,5.66-2.5,8.52-3.55l8-50.32a5.25,5.25,0,0,1,4.31-4.34,161.07,161.07,0,0,1,52.67,0,5.25,5.25,0,0,1,4.31,4.34l8,50.32q4.3,1.57,8.51,3.55l41.27-29.95a5.21,5.21,0,0,1,6.12,0,162.78,162.78,0,0,1,37.23,37.18,5.24,5.24,0,0,1,0,6.14l-29.95,41.25c1.28,2.73,2.47,5.59,3.55,8.55l50.35,8a5.21,5.21,0,0,1,4.34,4.31,163.62,163.62,0,0,1,0,52.63,5.21,5.21,0,0,1-4.34,4.31l-50.35,8q-1.59,4.34-3.56,8.53l30,41.24a5.22,5.22,0,0,1,0,6.13,161.69,161.69,0,0,1-37.24,37.19,5.22,5.22,0,0,1-6.12,0L587.17,662.7c-2.86,1.34-5.71,2.53-8.5,3.57l-8,50.33a5.23,5.23,0,0,1-4.32,4.34A162.89,162.89,0,0,1,540,723.14Zm-20.9-12a147.52,147.52,0,0,0,41.81,0l7.89-49.64a5.26,5.26,0,0,1,3.52-4.14,99.63,99.63,0,0,0,13-5.45,5.23,5.23,0,0,1,5.41.44l40.72,29.53a151.28,151.28,0,0,0,29.57-29.54L631.52,611.7a5.24,5.24,0,0,1-.44-5.43,99.07,99.07,0,0,0,5.45-13,5.24,5.24,0,0,1,4.14-3.5l49.65-7.91a154.37,154.37,0,0,0,0-41.78l-49.65-7.92a5.24,5.24,0,0,1-4.14-3.5,93.81,93.81,0,0,0-5.43-13,5.23,5.23,0,0,1,.42-5.46l29.55-40.71a152.38,152.38,0,0,0-29.57-29.54l-40.72,29.55a5.26,5.26,0,0,1-5.44.43,93.15,93.15,0,0,0-13-5.42,5.23,5.23,0,0,1-3.53-4.14l-7.89-49.64a150.14,150.14,0,0,0-41.81,0l-7.9,49.64a5.23,5.23,0,0,1-3.52,4.14,95.35,95.35,0,0,0-13,5.42,5.2,5.2,0,0,1-5.43-.44l-40.67-29.54A151.43,151.43,0,0,0,419,469.42l29.52,40.71a5.22,5.22,0,0,1,.46,5.38,102.81,102.81,0,0,0-5.43,13.08,5.23,5.23,0,0,1-4.14,3.52L389.71,540a151.21,151.21,0,0,0,0,41.78l49.68,7.91a5.23,5.23,0,0,1,4.14,3.52A101.94,101.94,0,0,0,449,606.3a5.23,5.23,0,0,1-.45,5.4L419,652.39a151.11,151.11,0,0,0,29.59,29.54l40.68-29.54a5.23,5.23,0,0,1,5.4-.45,101.45,101.45,0,0,0,13.06,5.47,5.21,5.21,0,0,1,3.51,4.13ZM540,618.49a57.56,57.56,0,1,1,57.56-57.56A57.62,57.62,0,0,1,540,618.49Zm0-104.65a47.09,47.09,0,1,0,47.09,47.09A47.14,47.14,0,0,0,540,513.84Z"/><rect class="fba66be8-61cb-4e87-a1d5-4b1ae65c875a" x="252.21" y="571.4" width="418.6" height="387.21"/><rect class="a6e1bdee-c88b-4a77-8eba-01731d39ec37" x="325.47" y="765" width="272.09" height="125.58" rx="10.47"/><path class="bb84184f-c01d-4dfb-bea9-1b8a55c10544" d="M587.09,895.81H335.93a15.71,15.71,0,0,1-15.7-15.69V775.47a15.71,15.71,0,0,1,15.7-15.7H587.09a15.71,15.71,0,0,1,15.7,15.7V880.12A15.71,15.71,0,0,1,587.09,895.81ZM335.93,770.23a5.24,5.24,0,0,0-5.23,5.24V880.12a5.24,5.24,0,0,0,5.23,5.23H587.09a5.24,5.24,0,0,0,5.24-5.23V775.47a5.25,5.25,0,0,0-5.24-5.24Z"/><rect class="bc76c874-439a-48fd-a061-4bcff014b3bc" x="670.81" y="571.4" width="156.98" height="387.21"/><path class="bb84184f-c01d-4dfb-bea9-1b8a55c10544" d="M670.81,963.84H252.21A5.23,5.23,0,0,1,247,958.6V901.05a5.23,5.23,0,1,1,10.46,0v52.32H665.58V576.63H257.44V874.88a5.23,5.23,0,1,1-10.46,0V571.4a5.23,5.23,0,0,1,5.23-5.24h418.6a5.24,5.24,0,0,1,5.24,5.24V958.6A5.24,5.24,0,0,1,670.81,963.84Z"/><path class="bb84184f-c01d-4dfb-bea9-1b8a55c10544" d="M827.79,963.84h-157a5.23,5.23,0,0,1-5.23-5.24V571.4a5.23,5.23,0,0,1,5.23-5.24h157A5.23,5.23,0,0,1,833,571.4V833a5.23,5.23,0,1,1-10.46,0V576.63H676.05V953.37H822.56v-89a5.23,5.23,0,0,1,10.46,0V958.6A5.23,5.23,0,0,1,827.79,963.84Z"/><polygon class="b994b464-643b-4f1e-8e78-289be792fa7f" points="618.49 696.98 199.88 696.98 252.21 571.39 670.81 571.39 618.49 696.98"/><polygon class="e2f472ea-a593-4092-bce0-3f0ab9d8b014" points="723.14 696.98 880.12 696.98 827.79 571.39 670.81 571.39 723.14 696.98"/><path class="bb84184f-c01d-4dfb-bea9-1b8a55c10544" d="M618.49,702.21H199.88a5.24,5.24,0,0,1-4.83-7.25l52.33-125.58a5.25,5.25,0,0,1,4.83-3.22h418.6a5.23,5.23,0,0,1,4.83,7.25L623.32,699A5.24,5.24,0,0,1,618.49,702.21ZM207.73,691.74H615l48-115.11H255.7Z"/><path class="bb84184f-c01d-4dfb-bea9-1b8a55c10544" d="M880.12,702.21h-157a5.23,5.23,0,0,1-4.83-3.22L666,573.41a5.24,5.24,0,0,1,4.83-7.25h157a5.25,5.25,0,0,1,4.83,3.22L885,695a5.24,5.24,0,0,1-4.83,7.25ZM726.63,691.74H872.27l-48-115.11H678.66Z"/></svg>