<svg id="b050fd10-6d97-41d8-b0be-b7ca992db725" data-name="Capa 1" xmlns="http://www.w3.org/2000/svg" viewBox="0 0 1080 1080"><defs><style>.ea27b5e8-d251-4ebc-b209-40b811e4b628{fill:#f6f6f6;}.b9950a1d-58b2-4a5b-99cb-425031ef0489{fill:#fff;}.bd5dd3f0-d512-4501-9ff6-c6ab01da3f4c{fill:#989aa6;}.efe7e16f-2a39-41a6-9d24-34e461dd136b{fill:#2fc8f2;}.aec3ebf4-3e45-4210-8c88-22b3b0f1f70d{fill:#2caae6;}.a4a938e5-3df9-4437-9084-6bac6c954178{fill:#282c3f;}.bc844b46-f26b-4d03-804f-7e0ad469d65f{fill:#ededed;}.b4a9837e-4be6-45cb-90a3-6a11dfcc8626{fill:#30354c;}.b43cfdae-5ea3-4b59-b24a-197ff8a85744{fill:#a09cad;}</style></defs><title>ICONS S2R</title><path class="ea27b5e8-d251-4ebc-b209-40b811e4b628" d="M872.67,397.65c-27.91-65.36-7.44-173.7-64.14-216.42-55-41.4-152.08,7.72-225.24-1.12s-155.86-79.69-219.06-52.56c-65.2,28-71,138.1-113.62,194.93-41.3,55.08-146,90.51-154.79,163.85s84.45,132.67,111.51,196c27.91,65.36,7.44,173.7,64.14,216.42,55,41.4,152.08-7.72,225.24,1.12s155.86,79.69,219.06,52.56c65.2-28,71-138.1,113.62-194.93,41.3-55.09,146-90.51,154.79-163.85S899.73,461,872.67,397.65Z"/><polygon class="b9950a1d-58b2-4a5b-99cb-425031ef0489" points="943.5 720.52 956.25 746.36 984.77 750.5 964.13 770.62 969.01 799.01 943.5 785.6 918 799.01 922.87 770.62 902.24 750.5 930.75 746.36 943.5 720.52"/><path class="bd5dd3f0-d512-4501-9ff6-c6ab01da3f4c" d="M918,804.24a5.22,5.22,0,0,1-5.15-6.11l4.4-25.69-18.66-18.19a5.23,5.23,0,0,1,2.9-8.92l25.79-3.75,11.53-23.37a5.23,5.23,0,0,1,4.7-2.92h0a5.23,5.23,0,0,1,4.69,2.92l11.53,23.37,25.79,3.75a5.23,5.23,0,0,1,2.9,8.92l-18.67,18.19,4.41,25.69a5.23,5.23,0,0,1-7.59,5.51l-23.06-12.12-23.07,12.12A5.3,5.3,0,0,1,918,804.24Zm-4.52-50.08,13,12.71A5.21,5.21,0,0,1,928,771.5l-3.08,18L941.07,781a5.24,5.24,0,0,1,4.87,0l16.12,8.48-3.08-18a5.23,5.23,0,0,1,1.5-4.63l13-12.71-18-2.62a5.24,5.24,0,0,1-3.94-2.87l-8-16.32-8.07,16.32a5.22,5.22,0,0,1-3.94,2.87Z"/><polygon class="b9950a1d-58b2-4a5b-99cb-425031ef0489" points="943.5 432.73 956.25 458.57 984.77 462.71 964.13 482.82 969.01 511.22 943.5 497.81 918 511.22 922.87 482.82 902.24 462.71 930.75 458.57 943.5 432.73"/><path class="bd5dd3f0-d512-4501-9ff6-c6ab01da3f4c" d="M918,516.45a5.22,5.22,0,0,1-5.15-6.11l4.4-25.69-18.66-18.19a5.24,5.24,0,0,1,2.9-8.93l25.79-3.74,11.53-23.37a5.23,5.23,0,0,1,4.7-2.92h0a5.23,5.23,0,0,1,4.69,2.92l11.53,23.37,25.79,3.74a5.24,5.24,0,0,1,2.9,8.93l-18.67,18.19,4.41,25.68a5.23,5.23,0,0,1-7.59,5.52l-23.06-12.13-23.07,12.13A5.3,5.3,0,0,1,918,516.45Zm-4.52-50.08,13,12.71a5.21,5.21,0,0,1,1.51,4.63l-3.08,18,16.12-8.48a5.24,5.24,0,0,1,4.87,0l16.12,8.48-3.08-18a5.26,5.26,0,0,1,1.5-4.64l13-12.7-18-2.62a5.24,5.24,0,0,1-3.94-2.87l-8-16.33-8.07,16.34a5.23,5.23,0,0,1-3.94,2.86Z"/><polygon class="b9950a1d-58b2-4a5b-99cb-425031ef0489" points="776.06 121.39 788.81 147.23 817.33 151.38 796.69 171.49 801.57 199.88 776.06 186.47 750.56 199.88 755.43 171.49 734.8 151.38 763.31 147.23 776.06 121.39"/><path class="bd5dd3f0-d512-4501-9ff6-c6ab01da3f4c" d="M750.56,205.12A5.23,5.23,0,0,1,745.4,199l4.41-25.69-18.66-18.19a5.22,5.22,0,0,1,2.9-8.92l25.78-3.75,11.54-23.37a5.23,5.23,0,0,1,4.69-2.92h0a5.2,5.2,0,0,1,4.69,2.92l11.54,23.37,25.79,3.75a5.23,5.23,0,0,1,2.9,8.92l-18.67,18.19L806.72,199a5.23,5.23,0,0,1-7.59,5.52l-23.07-12.13L753,204.52A5.3,5.3,0,0,1,750.56,205.12ZM746,155l13,12.71a5.24,5.24,0,0,1,1.51,4.63l-3.08,17.95,16.12-8.48a5.24,5.24,0,0,1,4.87,0l16.12,8.48-3.08-17.95a5.21,5.21,0,0,1,1.5-4.63l13-12.71-18-2.62a5.23,5.23,0,0,1-3.94-2.86l-8.06-16.33L768,149.55a5.23,5.23,0,0,1-3.94,2.86Z"/><polygon class="b9950a1d-58b2-4a5b-99cb-425031ef0489" points="498.14 171.36 510.89 197.2 539.4 201.34 518.77 221.45 523.64 249.85 498.14 236.44 472.64 249.85 477.5 221.45 456.88 201.34 485.39 197.2 498.14 171.36"/><path class="bd5dd3f0-d512-4501-9ff6-c6ab01da3f4c" d="M523.64,255.08a5.23,5.23,0,0,1-2.43-.6l-23.07-12.13-23.07,12.13a5.23,5.23,0,0,1-7.59-5.52l4.4-25.69-18.66-18.19a5.23,5.23,0,0,1,2.91-8.92l25.79-3.75L493.45,169c1.76-3.57,7.62-3.57,9.38,0l11.53,23.37,25.79,3.75a5.23,5.23,0,0,1,2.91,8.92l-18.67,18.19L528.8,249a5.23,5.23,0,0,1-5.16,6.12Zm-25.5-23.88a5.16,5.16,0,0,1,2.44.61l16.11,8.47-3.07-17.95a5.23,5.23,0,0,1,1.5-4.63l13-12.71-18-2.62a5.23,5.23,0,0,1-3.94-2.86l-8.06-16.33-8.06,16.33a5.23,5.23,0,0,1-3.94,2.86l-18,2.62,13,12.71a5.23,5.23,0,0,1,1.5,4.63l-3.07,17.95,16.11-8.47A5.16,5.16,0,0,1,498.14,231.2Z"/><polygon class="b9950a1d-58b2-4a5b-99cb-425031ef0489" points="309.77 121.39 322.52 147.23 351.03 151.38 330.4 171.49 335.27 199.88 309.77 186.47 284.26 199.88 289.13 171.49 268.5 151.38 297.02 147.23 309.77 121.39"/><path class="bd5dd3f0-d512-4501-9ff6-c6ab01da3f4c" d="M335.27,205.12a5.3,5.3,0,0,1-2.44-.6l-23.06-12.13L286.7,204.52a5.23,5.23,0,0,1-7.59-5.52l4.4-25.69-18.66-18.19a5.23,5.23,0,0,1,2.9-8.92l25.79-3.75,11.54-23.37c1.75-3.57,7.62-3.57,9.38,0L326,142.45l25.79,3.75a5.22,5.22,0,0,1,2.9,8.92L336,173.31,340.43,199a5.23,5.23,0,0,1-5.16,6.12Zm-25.5-23.88a5.2,5.2,0,0,1,2.43.6l16.12,8.48-3.07-17.95a5.21,5.21,0,0,1,1.5-4.63l13-12.71-18-2.62a5.23,5.23,0,0,1-3.94-2.86l-8.06-16.33-8.06,16.33a5.23,5.23,0,0,1-3.94,2.86l-18,2.62,13,12.71a5.23,5.23,0,0,1,1.5,4.63l-3.08,17.95,16.12-8.48A5.27,5.27,0,0,1,309.77,181.24Z"/><polygon class="b9950a1d-58b2-4a5b-99cb-425031ef0489" points="136.5 542.62 149.25 568.45 177.76 572.6 157.13 592.71 162 621.11 136.5 607.7 110.99 621.11 115.87 592.71 95.23 572.6 123.75 568.45 136.5 542.62"/><path class="bd5dd3f0-d512-4501-9ff6-c6ab01da3f4c" d="M162,626.34a5.19,5.19,0,0,1-2.44-.61l-23.07-12.12-23.06,12.12a5.22,5.22,0,0,1-7.59-5.51l4.41-25.69L91.58,576.34a5.23,5.23,0,0,1,2.9-8.92l25.79-3.75L131.8,540.3c1.76-3.57,7.63-3.57,9.39,0l11.53,23.37,25.79,3.75a5.23,5.23,0,0,1,2.9,8.92l-18.66,18.19,4.4,25.69a5.22,5.22,0,0,1-5.15,6.12Zm-25.51-23.88a5.13,5.13,0,0,1,2.44.61l16.12,8.47L152,593.59a5.22,5.22,0,0,1,1.51-4.63l13-12.71-18-2.62a5.23,5.23,0,0,1-3.94-2.86l-8.07-16.33-8.05,16.33a5.25,5.25,0,0,1-3.94,2.86l-18,2.62,13,12.71a5.24,5.24,0,0,1,1.5,4.63l-3.08,17.95,16.12-8.47A5.12,5.12,0,0,1,136.49,602.46Z"/><polygon class="b9950a1d-58b2-4a5b-99cb-425031ef0489" points="136.5 848.72 149.25 874.56 177.76 878.7 157.13 898.81 162 927.21 136.5 913.8 110.99 927.21 115.87 898.81 95.23 878.7 123.75 874.56 136.5 848.72"/><path class="bd5dd3f0-d512-4501-9ff6-c6ab01da3f4c" d="M162,932.44a5.3,5.3,0,0,1-2.44-.6l-23.07-12.13-23.06,12.13a5.23,5.23,0,0,1-7.59-5.51l4.41-25.69L91.58,882.45a5.24,5.24,0,0,1,2.9-8.93l25.79-3.75,11.53-23.36c1.76-3.58,7.63-3.58,9.39,0l11.53,23.36,25.79,3.75a5.24,5.24,0,0,1,2.9,8.93l-18.66,18.19,4.4,25.69a5.22,5.22,0,0,1-5.15,6.11Zm-25.51-23.87a5.24,5.24,0,0,1,2.44.6l16.12,8.47L152,899.7a5.21,5.21,0,0,1,1.51-4.63l13-12.72-18-2.62a5.21,5.21,0,0,1-3.94-2.86l-8.07-16.32-8.05,16.32a5.23,5.23,0,0,1-3.94,2.86l-18,2.62,13,12.72a5.23,5.23,0,0,1,1.5,4.63l-3.08,17.94,16.12-8.47A5.23,5.23,0,0,1,136.49,908.57Z"/><rect class="efe7e16f-2a39-41a6-9d24-34e461dd136b" x="199.88" y="351.63" width="680.23" height="549.42"/><polygon class="aec3ebf4-3e45-4210-8c88-22b3b0f1f70d" points="880.12 901.05 220.81 901.05 241.74 393.49 880.12 367.33 880.12 901.05"/><path class="a4a938e5-3df9-4437-9084-6bac6c954178" d="M880.12,906.28H743.66a5.24,5.24,0,0,1,0-10.47H874.88V356.86H205.12V728.37a5.24,5.24,0,0,1-10.47,0V351.63a5.23,5.23,0,0,1,5.23-5.23H880.12a5.23,5.23,0,0,1,5.23,5.23V901.05A5.23,5.23,0,0,1,880.12,906.28Z"/><path class="a4a938e5-3df9-4437-9084-6bac6c954178" d="M335.52,906.28H199.88a5.23,5.23,0,0,1-5.23-5.23V759.77a5.24,5.24,0,1,1,10.47,0v136h130.4a5.24,5.24,0,0,1,0,10.47Z"/><rect class="bc844b46-f26b-4d03-804f-7e0ad469d65f" x="199.88" y="278.37" width="680.23" height="73.26"/><polygon class="b9950a1d-58b2-4a5b-99cb-425031ef0489" points="859.19 320.23 199.88 335.93 199.88 278.37 864.42 278.37 859.19 320.23"/><path class="a4a938e5-3df9-4437-9084-6bac6c954178" d="M880.12,356.86H199.88a5.23,5.23,0,0,1-5.23-5.23V278.37a5.23,5.23,0,0,1,5.23-5.23H443.2a5.23,5.23,0,0,1,0,10.46H205.12v62.8H874.88V283.6H474.59a5.23,5.23,0,1,1,0-10.46H880.12a5.23,5.23,0,0,1,5.23,5.23v73.26A5.23,5.23,0,0,1,880.12,356.86Z"/><circle class="b4a9837e-4be6-45cb-90a3-6a11dfcc8626" cx="236.51" cy="315" r="9.16"/><circle class="b4a9837e-4be6-45cb-90a3-6a11dfcc8626" cx="278.37" cy="315" r="9.16"/><circle class="b4a9837e-4be6-45cb-90a3-6a11dfcc8626" cx="320.23" cy="315" r="9.16"/><path class="bc844b46-f26b-4d03-804f-7e0ad469d65f" d="M722.53,472.59a276.16,276.16,0,0,1,68.63,182.53c0,153.16-124.16,277.32-277.32,277.32a276.16,276.16,0,0,1-182.53-68.63A276.59,276.59,0,0,0,540,958.6c153.16,0,277.33-124.16,277.33-277.32A276.59,276.59,0,0,0,722.53,472.59Z"/><path class="b9950a1d-58b2-4a5b-99cb-425031ef0489" d="M791.16,655.12a276.16,276.16,0,0,0-68.63-182.53A276.19,276.19,0,0,0,540,404c-153.16,0-277.33,124.17-277.33,277.33a276.19,276.19,0,0,0,68.64,182.53,276.16,276.16,0,0,0,182.53,68.63C667,932.44,791.16,808.28,791.16,655.12Z"/><path class="a4a938e5-3df9-4437-9084-6bac6c954178" d="M540,963.84c-155.8,0-282.56-126.76-282.56-282.56S384.2,398.72,540,398.72a282,282,0,0,1,147,41.22,5.23,5.23,0,0,1-5.45,8.93A271.61,271.61,0,0,0,540,409.19c-150,0-272.09,122.06-272.09,272.09S390,953.37,540,953.37,812.09,831.31,812.09,681.28A270.94,270.94,0,0,0,709.93,468.76a5.23,5.23,0,0,1,6.54-8.17A281.38,281.38,0,0,1,822.56,681.28C822.56,837.08,695.8,963.84,540,963.84Z"/><path class="bc844b46-f26b-4d03-804f-7e0ad469d65f" d="M351.63,697a203.44,203.44,0,0,0,59.77,144.3l53.16-53.17a128.88,128.88,0,0,1,0-182.27L411.4,552.68A203.42,203.42,0,0,0,351.63,697Z"/><path class="bc844b46-f26b-4d03-804f-7e0ad469d65f" d="M555.7,492.91a203.44,203.44,0,0,0-144.3,59.77l53.16,53.16a128.88,128.88,0,0,1,182.27,0L700,552.68A203.44,203.44,0,0,0,555.7,492.91Z"/><path class="bc844b46-f26b-4d03-804f-7e0ad469d65f" d="M646.83,605.84a128.86,128.86,0,0,1,0,182.27L700,841.28a204.07,204.07,0,0,0,0-288.6Z"/><path class="b4a9837e-4be6-45cb-90a3-6a11dfcc8626" d="M335.93,681.28a203.44,203.44,0,0,0,59.77,144.3l53.16-53.17a128.88,128.88,0,0,1,0-182.27L395.7,537A203.44,203.44,0,0,0,335.93,681.28Z"/><path class="b43cfdae-5ea3-4b59-b24a-197ff8a85744" d="M540,477.21A203.44,203.44,0,0,0,395.7,537l53.16,53.16a128.89,128.89,0,0,1,182.28,0L684.3,537A203.44,203.44,0,0,0,540,477.21Z"/><path class="bc844b46-f26b-4d03-804f-7e0ad469d65f" d="M718.55,741.19S649.69,705,600.58,682a52.31,52.31,0,1,0-13.25,52.11C641.33,738.42,718.55,741.19,718.55,741.19Z"/><path class="aec3ebf4-3e45-4210-8c88-22b3b0f1f70d" d="M631.14,590.14a128.88,128.88,0,0,1,0,182.27l53.16,53.17a204.07,204.07,0,0,0,0-288.6Z"/><path class="a4a938e5-3df9-4437-9084-6bac6c954178" d="M395.7,830.81a5.22,5.22,0,0,1-3.7-1.53,209.31,209.31,0,0,1,0-296,5.24,5.24,0,0,1,7.4,0l53.16,53.16a5.21,5.21,0,0,1,0,7.4,123.68,123.68,0,0,0,0,174.88,5.2,5.2,0,0,1,0,7.39L399.4,829.28A5.22,5.22,0,0,1,395.7,830.81Zm.05-286.38a198.83,198.83,0,0,0,0,273.7l45.79-45.79a134.09,134.09,0,0,1,0-182.12Z"/><path class="a4a938e5-3df9-4437-9084-6bac6c954178" d="M631.14,595.38h0a5.24,5.24,0,0,1-3.7-1.54,123.66,123.66,0,0,0-174.88,0,5.36,5.36,0,0,1-7.39,0L392,540.68a5.24,5.24,0,0,1,0-7.4,209.31,209.31,0,0,1,296,0,5.24,5.24,0,0,1,0,7.4l-53.17,53.16A5.22,5.22,0,0,1,631.14,595.38ZM540,547.16a133.1,133.1,0,0,1,91.06,35.66L676.85,537a198.83,198.83,0,0,0-273.7,0l45.79,45.79A133.1,133.1,0,0,1,540,547.16Z"/><path class="a4a938e5-3df9-4437-9084-6bac6c954178" d="M684.3,830.81a5.22,5.22,0,0,1-3.7-1.53l-53.16-53.17a5.2,5.2,0,0,1,0-7.39,123.68,123.68,0,0,0,0-174.88,5.21,5.21,0,0,1,0-7.4l53.16-53.16a5.24,5.24,0,0,1,7.4,0,209.31,209.31,0,0,1,0,296A5.22,5.22,0,0,1,684.3,830.81Zm-45.84-58.47,45.79,45.79a198.83,198.83,0,0,0,0-273.7l-45.79,45.79a134.09,134.09,0,0,1,0,182.12Z"/><path class="b4a9837e-4be6-45cb-90a3-6a11dfcc8626" d="M708.09,725.5s-68.86-36.18-118-59.21a52.32,52.32,0,1,0-13.26,52.11C630.86,722.73,708.09,725.5,708.09,725.5Z"/><path class="a4a938e5-3df9-4437-9084-6bac6c954178" d="M540,738.84a57.56,57.56,0,1,1,54.4-76.32c48.51,22.85,115.44,58,116.12,58.35a5.22,5.22,0,0,1,2.62,6,5,5,0,0,1-5.24,3.88c-.76,0-75.74-2.74-129.12-6.92A57.14,57.14,0,0,1,540,738.84Zm0-104.65a47.09,47.09,0,1,0,33.17,80.5,5.24,5.24,0,0,1,4.11-1.5c35.11,2.81,80.5,5,107.59,6.14-24.21-12.51-65-33.31-97-48.3a5.22,5.22,0,0,1-2.79-3.24A47.37,47.37,0,0,0,540,634.19Z"/><circle class="b9950a1d-58b2-4a5b-99cb-425031ef0489" cx="540" cy="681.28" r="20.93"/></svg>