<svg id="a8807c55-67ff-43e9-a05f-2b030d962c37" data-name="Capa 1" xmlns="http://www.w3.org/2000/svg" xmlns:xlink="http://www.w3.org/1999/xlink" viewBox="0 0 1080 1080"><defs><style>.bcbea8e1-f379-4a7c-9b6d-0c9f58e29ca8{fill:none;}.a9b92a7e-f03c-4b6d-9c40-891e534d5fa0{fill:#f6f6f6;}.b0a3a467-1b09-4962-bbd6-3dbfeefc35aa{fill:#282c3f;}.ee839e4f-4a23-43cf-b8c8-8291d43fb962{fill:#52576a;}.fdaf5f08-0317-457f-b915-f18d5a474575{fill:#30354c;}.b4839b8a-e2ba-40b0-b73d-3a0b6aa9efbf{fill:#2fc8f2;}.b33218f2-a3c5-4786-801b-76846c2ee366{fill:#2caae6;}.e1df3c78-8322-4af7-8aa7-34480e64d960{fill:#fff;}.f282c6a4-081a-4044-99c7-6f378851a788{fill:#e6e6e6;}.ac3aa4d9-5de1-4cc6-ba92-3fe127fa256a{clip-path:url(#b254ed8d-44e8-4f5f-bcc6-e3a6ecec90b1);}.e6fbb7f8-5bb0-4059-aa11-c9ceb0952da3{fill:#b8b5c6;}.a1860c65-9534-4ad5-9ea9-395a2ec37a27{fill:#a09cad;}.ebc9a829-9813-4199-aaae-9890763038e5{fill:#989aa6;}</style><clipPath id="b254ed8d-44e8-4f5f-bcc6-e3a6ecec90b1"><circle class="bcbea8e1-f379-4a7c-9b6d-0c9f58e29ca8" cx="540" cy="540" r="162.21"/></clipPath></defs><title>ICONS S2R</title><path class="a9b92a7e-f03c-4b6d-9c40-891e534d5fa0" d="M887.28,577.94c7.47-64.25,77.32-142.8,48.83-206.31S801,304.59,747.46,266.27c-55.18-39.55-91.08-136.93-159.16-144.44-66-7.28-122.87,78.75-188.12,106.49s-168.73,9.86-208.1,61.93c-40.62,53.71,8.36,145.54.64,211.81-7.47,64.25-77.32,142.8-48.83,206.31s135.16,67,188.65,105.36c55.18,39.55,91.08,136.93,159.16,144.44,66,7.28,122.87-78.75,188.12-106.49s168.73-9.86,208.1-61.93C928.54,736,879.56,644.21,887.28,577.94Z"/><path class="b0a3a467-1b09-4962-bbd6-3dbfeefc35aa" d="M540,545.23a5.23,5.23,0,0,1-3.7-8.93L782.23,290.37a5.23,5.23,0,1,1,7.4,7.4L543.7,543.7A5.22,5.22,0,0,1,540,545.23Z"/><path class="b0a3a467-1b09-4962-bbd6-3dbfeefc35aa" d="M827.79,341.16a5.22,5.22,0,0,1-3.7-1.53l-83.72-83.72a5.23,5.23,0,1,1,7.4-7.4l83.72,83.72a5.23,5.23,0,0,1-3.7,8.93Z"/><path class="b0a3a467-1b09-4962-bbd6-3dbfeefc35aa" d="M294.07,791.16a5.23,5.23,0,0,1-3.7-8.93L536.3,536.3a5.23,5.23,0,0,1,7.4,7.4L297.77,789.63A5.22,5.22,0,0,1,294.07,791.16Z"/><path class="b0a3a467-1b09-4962-bbd6-3dbfeefc35aa" d="M335.93,833a5.22,5.22,0,0,1-3.7-1.53l-83.72-83.72a5.23,5.23,0,1,1,7.4-7.4l83.72,83.72a5.23,5.23,0,0,1-3.7,8.93Z"/><path class="b0a3a467-1b09-4962-bbd6-3dbfeefc35aa" d="M540,545.23a5.22,5.22,0,0,1-3.7-1.53l-225-225a5.23,5.23,0,0,1,7.4-7.4l225,225a5.23,5.23,0,0,1-3.7,8.93Z"/><path class="b0a3a467-1b09-4962-bbd6-3dbfeefc35aa" d="M252.21,341.16a5.23,5.23,0,0,1-3.7-8.93l83.72-83.72a5.23,5.23,0,1,1,7.4,7.4l-83.72,83.72A5.22,5.22,0,0,1,252.21,341.16Z"/><path class="b0a3a467-1b09-4962-bbd6-3dbfeefc35aa" d="M785.93,791.16a5.22,5.22,0,0,1-3.7-1.53L671.91,679.31a5.23,5.23,0,1,1,7.4-7.4L789.63,782.23a5.23,5.23,0,0,1-3.7,8.93Z"/><path class="b0a3a467-1b09-4962-bbd6-3dbfeefc35aa" d="M744.07,833a5.23,5.23,0,0,1-3.7-8.93l83.72-83.72a5.23,5.23,0,0,1,7.4,7.4l-83.72,83.72A5.22,5.22,0,0,1,744.07,833Z"/><path class="b0a3a467-1b09-4962-bbd6-3dbfeefc35aa" d="M738.84,545.23H341.16a5.23,5.23,0,0,1,0-10.46H738.84a5.23,5.23,0,1,1,0,10.46Z"/><path class="b0a3a467-1b09-4962-bbd6-3dbfeefc35aa" d="M848.72,623.72a5.22,5.22,0,0,1-3.7-1.53L766.53,543.7a5.24,5.24,0,0,1,0-7.4L845,457.81a5.23,5.23,0,1,1,7.4,7.4L777.63,540l74.79,74.79a5.23,5.23,0,0,1-3.7,8.93Z"/><path class="b0a3a467-1b09-4962-bbd6-3dbfeefc35aa" d="M231.28,623.72a5.23,5.23,0,0,1-3.7-8.93L302.37,540l-74.79-74.79a5.23,5.23,0,0,1,7.4-7.4l78.49,78.49a5.24,5.24,0,0,1,0,7.4L235,622.19A5.22,5.22,0,0,1,231.28,623.72Z"/><path class="b0a3a467-1b09-4962-bbd6-3dbfeefc35aa" d="M540,744.07a5.23,5.23,0,0,1-5.23-5.23V341.16a5.23,5.23,0,0,1,10.46,0V738.84A5.23,5.23,0,0,1,540,744.07Z"/><path class="b0a3a467-1b09-4962-bbd6-3dbfeefc35aa" d="M540,315a5.22,5.22,0,0,1-3.7-1.53L457.81,235a5.23,5.23,0,0,1,7.4-7.4L540,302.37l74.79-74.79a5.23,5.23,0,0,1,7.4,7.4L543.7,313.47A5.22,5.22,0,0,1,540,315Z"/><path class="b0a3a467-1b09-4962-bbd6-3dbfeefc35aa" d="M618.49,854a5.22,5.22,0,0,1-3.7-1.53L540,777.63l-74.79,74.79a5.23,5.23,0,1,1-7.4-7.4l78.49-78.49a5.24,5.24,0,0,1,7.4,0L622.19,845a5.23,5.23,0,0,1-3.7,8.93Z"/><circle class="ee839e4f-4a23-43cf-b8c8-8291d43fb962" cx="738.84" cy="246.98" r="31.4"/><path class="b0a3a467-1b09-4962-bbd6-3dbfeefc35aa" d="M738.84,283.6A36.63,36.63,0,1,1,775.47,247,36.67,36.67,0,0,1,738.84,283.6Zm0-62.79A26.17,26.17,0,1,0,765,247,26.2,26.2,0,0,0,738.84,220.81Z"/><circle class="fdaf5f08-0317-457f-b915-f18d5a474575" cx="712.67" cy="367.33" r="31.4"/><path class="b0a3a467-1b09-4962-bbd6-3dbfeefc35aa" d="M712.67,404a36.63,36.63,0,1,1,36.63-36.62A36.66,36.66,0,0,1,712.67,404Zm0-62.79a26.17,26.17,0,1,0,26.17,26.17A26.2,26.2,0,0,0,712.67,341.16Z"/><circle class="ee839e4f-4a23-43cf-b8c8-8291d43fb962" cx="833.02" cy="341.16" r="31.4"/><path class="b0a3a467-1b09-4962-bbd6-3dbfeefc35aa" d="M833,377.79a36.63,36.63,0,1,1,36.63-36.63A36.67,36.67,0,0,1,833,377.79ZM833,315a26.17,26.17,0,1,0,26.17,26.16A26.2,26.2,0,0,0,833,315Z"/><circle class="ee839e4f-4a23-43cf-b8c8-8291d43fb962" cx="341.16" cy="833.02" r="31.4"/><path class="b0a3a467-1b09-4962-bbd6-3dbfeefc35aa" d="M341.16,869.65A36.63,36.63,0,1,1,377.79,833,36.67,36.67,0,0,1,341.16,869.65Zm0-62.79A26.17,26.17,0,1,0,367.33,833,26.2,26.2,0,0,0,341.16,806.86Z"/><circle class="fdaf5f08-0317-457f-b915-f18d5a474575" cx="367.33" cy="712.67" r="31.4"/><path class="b0a3a467-1b09-4962-bbd6-3dbfeefc35aa" d="M367.33,749.3A36.63,36.63,0,1,1,404,712.67,36.67,36.67,0,0,1,367.33,749.3Zm0-62.79a26.17,26.17,0,1,0,26.16,26.16A26.2,26.2,0,0,0,367.33,686.51Z"/><circle class="ee839e4f-4a23-43cf-b8c8-8291d43fb962" cx="246.98" cy="738.84" r="31.4"/><path class="b0a3a467-1b09-4962-bbd6-3dbfeefc35aa" d="M247,775.47a36.63,36.63,0,1,1,36.62-36.63A36.68,36.68,0,0,1,247,775.47Zm0-62.8a26.17,26.17,0,1,0,26.16,26.17A26.2,26.2,0,0,0,247,712.67Z"/><circle class="ee839e4f-4a23-43cf-b8c8-8291d43fb962" cx="246.98" cy="341.16" r="31.4"/><path class="b0a3a467-1b09-4962-bbd6-3dbfeefc35aa" d="M247,377.79a36.63,36.63,0,1,1,36.62-36.63A36.67,36.67,0,0,1,247,377.79ZM247,315a26.17,26.17,0,1,0,26.16,26.16A26.2,26.2,0,0,0,247,315Z"/><circle class="fdaf5f08-0317-457f-b915-f18d5a474575" cx="367.33" cy="367.33" r="31.4"/><path class="b0a3a467-1b09-4962-bbd6-3dbfeefc35aa" d="M367.33,404A36.63,36.63,0,1,1,404,367.33,36.67,36.67,0,0,1,367.33,404Zm0-62.79a26.17,26.17,0,1,0,26.16,26.17A26.2,26.2,0,0,0,367.33,341.16Z"/><circle class="ee839e4f-4a23-43cf-b8c8-8291d43fb962" cx="341.16" cy="246.98" r="31.4"/><path class="b0a3a467-1b09-4962-bbd6-3dbfeefc35aa" d="M341.16,283.6A36.63,36.63,0,1,1,377.79,247,36.66,36.66,0,0,1,341.16,283.6Zm0-62.79A26.17,26.17,0,1,0,367.33,247,26.2,26.2,0,0,0,341.16,220.81Z"/><circle class="ee839e4f-4a23-43cf-b8c8-8291d43fb962" cx="833.02" cy="738.84" r="31.4"/><path class="b0a3a467-1b09-4962-bbd6-3dbfeefc35aa" d="M833,775.47a36.63,36.63,0,1,1,36.63-36.63A36.67,36.67,0,0,1,833,775.47Zm0-62.8a26.17,26.17,0,1,0,26.17,26.17A26.2,26.2,0,0,0,833,712.67Z"/><circle class="fdaf5f08-0317-457f-b915-f18d5a474575" cx="712.67" cy="712.67" r="31.4"/><path class="b0a3a467-1b09-4962-bbd6-3dbfeefc35aa" d="M712.67,749.3a36.63,36.63,0,1,1,36.63-36.63A36.67,36.67,0,0,1,712.67,749.3Zm0-62.79a26.17,26.17,0,1,0,26.17,26.16A26.2,26.2,0,0,0,712.67,686.51Z"/><circle class="ee839e4f-4a23-43cf-b8c8-8291d43fb962" cx="738.84" cy="833.02" r="31.4"/><path class="b0a3a467-1b09-4962-bbd6-3dbfeefc35aa" d="M738.84,869.65A36.63,36.63,0,1,1,775.47,833,36.67,36.67,0,0,1,738.84,869.65Zm0-62.79A26.17,26.17,0,1,0,765,833,26.2,26.2,0,0,0,738.84,806.86Z"/><circle class="b4839b8a-e2ba-40b0-b73d-3a0b6aa9efbf" cx="848.72" cy="461.51" r="31.4"/><path class="b0a3a467-1b09-4962-bbd6-3dbfeefc35aa" d="M848.72,498.14a36.63,36.63,0,1,1,36.63-36.63A36.68,36.68,0,0,1,848.72,498.14Zm0-62.79a26.16,26.16,0,1,0,26.16,26.16A26.2,26.2,0,0,0,848.72,435.35Z"/><circle class="b4839b8a-e2ba-40b0-b73d-3a0b6aa9efbf" cx="848.72" cy="618.49" r="31.4"/><path class="b0a3a467-1b09-4962-bbd6-3dbfeefc35aa" d="M848.72,655.12a36.63,36.63,0,1,1,36.63-36.63A36.68,36.68,0,0,1,848.72,655.12Zm0-62.79a26.16,26.16,0,1,0,26.16,26.16A26.19,26.19,0,0,0,848.72,592.33Z"/><circle class="b33218f2-a3c5-4786-801b-76846c2ee366" cx="770.23" cy="540" r="31.4"/><path class="b0a3a467-1b09-4962-bbd6-3dbfeefc35aa" d="M770.23,576.63A36.63,36.63,0,1,1,806.86,540,36.68,36.68,0,0,1,770.23,576.63Zm0-62.79A26.16,26.16,0,1,0,796.4,540,26.19,26.19,0,0,0,770.23,513.84Z"/><circle class="b4839b8a-e2ba-40b0-b73d-3a0b6aa9efbf" cx="231.28" cy="461.51" r="31.4"/><path class="b0a3a467-1b09-4962-bbd6-3dbfeefc35aa" d="M231.28,498.14a36.63,36.63,0,1,1,36.63-36.63A36.67,36.67,0,0,1,231.28,498.14Zm0-62.79a26.16,26.16,0,1,0,26.16,26.16A26.19,26.19,0,0,0,231.28,435.35Z"/><circle class="b4839b8a-e2ba-40b0-b73d-3a0b6aa9efbf" cx="231.28" cy="618.49" r="31.4"/><path class="b0a3a467-1b09-4962-bbd6-3dbfeefc35aa" d="M231.28,655.12a36.63,36.63,0,1,1,36.63-36.63A36.68,36.68,0,0,1,231.28,655.12Zm0-62.79a26.16,26.16,0,1,0,26.16,26.16A26.18,26.18,0,0,0,231.28,592.33Z"/><circle class="b33218f2-a3c5-4786-801b-76846c2ee366" cx="309.77" cy="540" r="31.4"/><path class="b0a3a467-1b09-4962-bbd6-3dbfeefc35aa" d="M309.77,576.63A36.63,36.63,0,1,1,346.4,540,36.68,36.68,0,0,1,309.77,576.63Zm0-62.79A26.16,26.16,0,1,0,335.93,540,26.19,26.19,0,0,0,309.77,513.84Z"/><circle class="b4839b8a-e2ba-40b0-b73d-3a0b6aa9efbf" cx="461.51" cy="231.28" r="31.4"/><path class="b0a3a467-1b09-4962-bbd6-3dbfeefc35aa" d="M461.51,267.91a36.63,36.63,0,1,1,36.63-36.63A36.68,36.68,0,0,1,461.51,267.91Zm0-62.79a26.16,26.16,0,1,0,26.16,26.16A26.19,26.19,0,0,0,461.51,205.12Z"/><circle class="b4839b8a-e2ba-40b0-b73d-3a0b6aa9efbf" cx="618.49" cy="231.28" r="31.4"/><path class="b0a3a467-1b09-4962-bbd6-3dbfeefc35aa" d="M618.49,267.91a36.63,36.63,0,1,1,36.63-36.63A36.68,36.68,0,0,1,618.49,267.91Zm0-62.79a26.16,26.16,0,1,0,26.16,26.16A26.18,26.18,0,0,0,618.49,205.12Z"/><circle class="b33218f2-a3c5-4786-801b-76846c2ee366" cx="540" cy="309.77" r="31.4"/><path class="b0a3a467-1b09-4962-bbd6-3dbfeefc35aa" d="M540,346.4a36.63,36.63,0,1,1,36.63-36.63A36.68,36.68,0,0,1,540,346.4Zm0-62.8a26.17,26.17,0,1,0,26.16,26.17A26.19,26.19,0,0,0,540,283.6Z"/><circle class="b4839b8a-e2ba-40b0-b73d-3a0b6aa9efbf" cx="618.49" cy="848.72" r="31.4"/><path class="b0a3a467-1b09-4962-bbd6-3dbfeefc35aa" d="M618.49,885.35a36.63,36.63,0,1,1,36.63-36.63A36.67,36.67,0,0,1,618.49,885.35Zm0-62.79a26.16,26.16,0,1,0,26.16,26.16A26.19,26.19,0,0,0,618.49,822.56Z"/><circle class="b4839b8a-e2ba-40b0-b73d-3a0b6aa9efbf" cx="461.51" cy="848.72" r="31.4"/><path class="b0a3a467-1b09-4962-bbd6-3dbfeefc35aa" d="M461.51,885.35a36.63,36.63,0,1,1,36.63-36.63A36.68,36.68,0,0,1,461.51,885.35Zm0-62.79a26.16,26.16,0,1,0,26.16,26.16A26.2,26.2,0,0,0,461.51,822.56Z"/><circle class="b33218f2-a3c5-4786-801b-76846c2ee366" cx="540" cy="770.23" r="31.4"/><path class="b0a3a467-1b09-4962-bbd6-3dbfeefc35aa" d="M540,806.86a36.63,36.63,0,1,1,36.63-36.63A36.68,36.68,0,0,1,540,806.86Zm0-62.79a26.17,26.17,0,1,0,26.16,26.16A26.19,26.19,0,0,0,540,744.07Z"/><circle class="e1df3c78-8322-4af7-8aa7-34480e64d960" cx="540" cy="540" r="162.21"/><path class="f282c6a4-081a-4044-99c7-6f378851a788" d="M466,684.34a162.14,162.14,0,0,0,235.59-131C628.12,628.94,542,666.42,466,684.34Z"/><g class="ac3aa4d9-5de1-4cc6-ba92-3fe127fa256a"><path class="e6fbb7f8-5bb0-4059-aa11-c9ceb0952da3" d="M638.57,610.83l-45.59-12H487l-45.61,12a39.37,39.37,0,0,0-29.36,38.08V900.35H667.93V648.91A39.37,39.37,0,0,0,638.57,610.83Z"/><path class="a1860c65-9534-4ad5-9ea9-395a2ec37a27" d="M412.07,900.35H667.93V648.91a39.37,39.37,0,0,0-29.36-38.08l-3.52-.92c-75.49,52.68-156.47,75.41-223,84.42Z"/><path class="b0a3a467-1b09-4962-bbd6-3dbfeefc35aa" d="M667.93,905.58H412.07a5.23,5.23,0,0,1-5.23-5.23V648.91a44.6,44.6,0,0,1,33.27-43.13l45.6-12a5.45,5.45,0,0,1,1.33-.17H593a5.45,5.45,0,0,1,1.33.17l45.58,12h0a44.62,44.62,0,0,1,33.27,43.14V900.35A5.23,5.23,0,0,1,667.93,905.58ZM417.3,895.12H662.7V648.91a34.17,34.17,0,0,0-25.46-33l-44.93-11.8H487.72l-45,11.81a34.15,34.15,0,0,0-25.46,33Z"/><path class="f282c6a4-081a-4044-99c7-6f378851a788" d="M540,635.27s52.64-15,53-36.41a41,41,0,0,1-21.88-28.67c-.34-1.83-.61-13.48-.82-15.24l-60.63,0c-.23,2-.55,14-1,16.14A39.49,39.49,0,0,1,487,598.86C487.51,620.19,540,635.27,540,635.27Z"/><path class="b0a3a467-1b09-4962-bbd6-3dbfeefc35aa" d="M540,640.51a5.14,5.14,0,0,1-1.45-.21c-5.74-1.65-56.2-16.85-56.75-41.32a5.23,5.23,0,0,1,2.93-4.81,34.13,34.13,0,0,0,18.82-24c.18-1.06.41-6.29.55-9.41.13-2.91.25-5.47.36-6.33a5.22,5.22,0,0,1,5.19-4.63l60.63,0h0a5.24,5.24,0,0,1,5.2,4.63c.09.79.2,3.37.32,6.27s.3,7.69.45,8.67a36,36,0,0,0,19.12,24.93,5.22,5.22,0,0,1,2.84,4.73c-.39,24.59-51,39.72-56.77,41.37A5.44,5.44,0,0,1,540,640.51Zm-47.16-38.85c4.32,11.87,32,23.58,47.17,28.16,15.2-4.57,43-16.3,47.21-28.21A46.22,46.22,0,0,1,566,571.16c-.25-1.31-.38-4.23-.62-10.13l0-.85-50.71,0c0,.32,0,.64,0,1-.26,5.76-.44,9.37-.74,10.93A44.18,44.18,0,0,1,492.84,601.66Z"/><path class="e1df3c78-8322-4af7-8aa7-34480e64d960" d="M597,498.23c-5.76-1.22-13.39,6.35-15.34,15.2s1.14,17,6.89,18.26,12.77-4.76,14.73-13.62S602.78,499.45,597,498.23Z"/><path class="e1df3c78-8322-4af7-8aa7-34480e64d960" d="M483,498.23c5.76-1.22,13.39,6.35,15.34,15.2s-1.14,17-6.89,18.26-12.77-4.76-14.73-13.62S477.22,499.45,483,498.23Z"/><path class="e1df3c78-8322-4af7-8aa7-34480e64d960" d="M540,447.29c-29.82,0-54,30.3-54,67.68s24.17,67.69,54,67.69,54-30.31,54-67.69S569.82,447.29,540,447.29Z"/><path class="b0a3a467-1b09-4962-bbd6-3dbfeefc35aa" d="M540,587.89c-26.5,0-49.54-21.48-56.83-52.59-5.53-2.83-10-8.92-11.59-16.1-1.66-7.54-.66-15.4,2.62-20.49a12.18,12.18,0,0,1,7.69-5.6,10.81,10.81,0,0,1,1.71-.22c7.72-30.18,30.34-50.83,56.4-50.83s48.68,20.65,56.4,50.83a10.81,10.81,0,0,1,1.71.22h0a12.18,12.18,0,0,1,7.69,5.6c3.28,5.09,4.28,13,2.62,20.49-1.59,7.18-6.06,13.27-11.59,16.1C589.54,566.41,566.5,587.89,540,587.89Zm-55.77-84.55h-.17a2.36,2.36,0,0,0-1.06,1c-1.42,2.21-2.4,7.09-1.2,12.57,1.16,5.26,4.53,8.75,7.24,9.48a5.24,5.24,0,0,1,3.79,4c5.53,27.65,24.94,47,47.17,47s41.64-19.32,47.17-47a5.22,5.22,0,0,1,3.79-4c2.71-.73,6.08-4.22,7.24-9.48,1.2-5.48.22-10.36-1.2-12.57a2.36,2.36,0,0,0-1.06-1h0a2.68,2.68,0,0,0-1.42.32,5.23,5.23,0,0,1-7.26-3.78C581.82,472,562.39,452.52,540,452.52S498.18,472,492.74,499.89a5.23,5.23,0,0,1-7.26,3.78A3.27,3.27,0,0,0,484.23,503.34Z"/><path class="fdaf5f08-0317-457f-b915-f18d5a474575" d="M487.61,498.89s-13.42-9.54-5.88-36.71c8-29,34.18-24.49,34.18-24.49S539.67,413,575.5,433s16.89,65.88,16.89,65.88-6.41-22.62-32.81-31.21c0,0-10.25,10.66-41.23,11.37C494,479.61,487.61,498.89,487.61,498.89Z"/><path class="b0a3a467-1b09-4962-bbd6-3dbfeefc35aa" d="M592.39,504.12h-.3a5.22,5.22,0,0,1-4.73-3.79c-.23-.76-5.69-18.62-26.77-26.72-5.09,3.62-17.59,10.12-42.12,10.68-20.2.46-25.68,15.64-25.91,16.28a5.24,5.24,0,0,1-8,2.59c-.67-.47-16.3-12-7.89-42.37,6.8-24.51,26.19-29.38,37.52-28.56,7-5.77,31.09-22,63.85-3.77,31.55,17.6,26.34,55.08,19.18,72.44A5.24,5.24,0,0,1,592.39,504.12Zm-80.69-61.5c-6.41,0-19.77,2.34-24.93,21-3.58,12.89-2,21,.14,25.74,4.79-6.65,14.21-15.11,31.33-15.5,27.87-.64,37.53-9.73,37.63-9.82a5.39,5.39,0,0,1,5.32-1.29,56.65,56.65,0,0,1,29.83,22c2.63-13.7,2.8-35.45-18.07-47.1-31.71-17.69-52.42,2.87-53.29,3.76a5.28,5.28,0,0,1-4.63,1.51A21,21,0,0,0,511.7,442.62Z"/><path class="b0a3a467-1b09-4962-bbd6-3dbfeefc35aa" d="M615.45,905.58a5.23,5.23,0,0,1-5.23-5.23V660.23a5.23,5.23,0,1,1,10.46,0V900.35A5.23,5.23,0,0,1,615.45,905.58Z"/><path class="b0a3a467-1b09-4962-bbd6-3dbfeefc35aa" d="M464.55,905.58a5.23,5.23,0,0,1-5.23-5.23V660.23a5.23,5.23,0,1,1,10.46,0V900.35A5.23,5.23,0,0,1,464.55,905.58Z"/></g><path class="b0a3a467-1b09-4962-bbd6-3dbfeefc35aa" d="M540,707.44c-92.33,0-167.44-75.11-167.44-167.44S447.67,372.56,540,372.56a168.1,168.1,0,0,1,36.26,3.94A5.23,5.23,0,0,1,574,386.72a158,158,0,0,0-34-3.7c-86.56,0-157,70.42-157,157s70.42,157,157,157,157-70.42,157-157a157.33,157.33,0,0,0-92.56-143.19,5.24,5.24,0,1,1,4.3-9.55A167.82,167.82,0,0,1,707.44,540C707.44,632.33,632.33,707.44,540,707.44Z"/><path class="ebc9a829-9813-4199-aaae-9890763038e5" d="M895.81,812.09a5.23,5.23,0,0,1-3.7-8.93l15.7-15.7a5.23,5.23,0,0,1,7.4,7.4l-15.7,15.7A5.22,5.22,0,0,1,895.81,812.09Z"/><path class="ebc9a829-9813-4199-aaae-9890763038e5" d="M859.19,848.72a5.23,5.23,0,0,1-3.7-8.93l15.69-15.7a5.23,5.23,0,1,1,7.4,7.4l-15.69,15.7A5.25,5.25,0,0,1,859.19,848.72Z"/><path class="ebc9a829-9813-4199-aaae-9890763038e5" d="M911.51,848.72a5.22,5.22,0,0,1-3.7-1.53l-15.7-15.7a5.23,5.23,0,1,1,7.4-7.4l15.7,15.7a5.23,5.23,0,0,1-3.7,8.93Z"/><path class="ebc9a829-9813-4199-aaae-9890763038e5" d="M874.88,812.09a5.23,5.23,0,0,1-3.7-1.53l-15.69-15.7a5.23,5.23,0,0,1,7.4-7.4l15.69,15.7a5.23,5.23,0,0,1-3.7,8.93Z"/><path class="ebc9a829-9813-4199-aaae-9890763038e5" d="M697,927.21a5.23,5.23,0,0,1-3.7-8.93l15.7-15.7a5.23,5.23,0,0,1,7.39,7.4l-15.69,15.7A5.23,5.23,0,0,1,697,927.21Z"/><path class="ebc9a829-9813-4199-aaae-9890763038e5" d="M660.35,963.84a5.24,5.24,0,0,1-3.7-8.93l15.7-15.7a5.23,5.23,0,0,1,7.4,7.4l-15.7,15.69A5.19,5.19,0,0,1,660.35,963.84Z"/><path class="ebc9a829-9813-4199-aaae-9890763038e5" d="M712.67,963.84A5.18,5.18,0,0,1,709,962.3l-15.7-15.69a5.23,5.23,0,0,1,7.4-7.4l15.69,15.7a5.24,5.24,0,0,1-3.7,8.93Z"/><path class="ebc9a829-9813-4199-aaae-9890763038e5" d="M676.05,927.21a5.22,5.22,0,0,1-3.7-1.53L656.65,910a5.23,5.23,0,1,1,7.4-7.4l15.7,15.7a5.23,5.23,0,0,1-3.7,8.93Z"/><path class="ebc9a829-9813-4199-aaae-9890763038e5" d="M267.91,927.21a5.23,5.23,0,0,1-3.7-8.93l15.7-15.7a5.23,5.23,0,1,1,7.39,7.4l-15.69,15.7A5.23,5.23,0,0,1,267.91,927.21Z"/><path class="ebc9a829-9813-4199-aaae-9890763038e5" d="M231.28,963.84a5.24,5.24,0,0,1-3.7-8.93l15.7-15.7a5.23,5.23,0,0,1,7.4,7.4L235,962.3A5.19,5.19,0,0,1,231.28,963.84Z"/><path class="ebc9a829-9813-4199-aaae-9890763038e5" d="M283.6,963.84a5.18,5.18,0,0,1-3.69-1.54l-15.7-15.69a5.23,5.23,0,0,1,7.4-7.4l15.69,15.7a5.24,5.24,0,0,1-3.7,8.93Z"/><path class="ebc9a829-9813-4199-aaae-9890763038e5" d="M247,927.21a5.22,5.22,0,0,1-3.7-1.53L227.58,910a5.23,5.23,0,1,1,7.4-7.4l15.7,15.7a5.23,5.23,0,0,1-3.7,8.93Z"/><path class="ebc9a829-9813-4199-aaae-9890763038e5" d="M152.79,435.35a5.23,5.23,0,0,1-3.7-8.93l15.7-15.7a5.23,5.23,0,1,1,7.4,7.4l-15.7,15.7A5.22,5.22,0,0,1,152.79,435.35Z"/><path class="ebc9a829-9813-4199-aaae-9890763038e5" d="M116.16,472a5.24,5.24,0,0,1-3.7-8.94l15.7-15.69a5.23,5.23,0,1,1,7.4,7.4l-15.7,15.69A5.19,5.19,0,0,1,116.16,472Z"/><path class="ebc9a829-9813-4199-aaae-9890763038e5" d="M168.49,472a5.19,5.19,0,0,1-3.7-1.54l-15.7-15.69a5.23,5.23,0,0,1,7.4-7.4L172.19,463a5.24,5.24,0,0,1,0,7.4A5.19,5.19,0,0,1,168.49,472Z"/><path class="ebc9a829-9813-4199-aaae-9890763038e5" d="M131.86,435.35a5.22,5.22,0,0,1-3.7-1.53l-15.7-15.7a5.23,5.23,0,0,1,7.4-7.4l15.7,15.7a5.23,5.23,0,0,1-3.7,8.93Z"/><path class="ebc9a829-9813-4199-aaae-9890763038e5" d="M131.86,717.91a5.24,5.24,0,0,1-3.7-8.93l15.7-15.7a5.23,5.23,0,0,1,7.4,7.4l-15.7,15.69A5.19,5.19,0,0,1,131.86,717.91Z"/><path class="ebc9a829-9813-4199-aaae-9890763038e5" d="M95.23,754.53a5.23,5.23,0,0,1-3.7-8.93l15.7-15.69a5.23,5.23,0,0,1,7.4,7.39L98.93,753A5.22,5.22,0,0,1,95.23,754.53Z"/><path class="ebc9a829-9813-4199-aaae-9890763038e5" d="M147.56,754.53a5.22,5.22,0,0,1-3.7-1.53l-15.7-15.7a5.23,5.23,0,0,1,7.4-7.39l15.7,15.69a5.23,5.23,0,0,1-3.7,8.93Z"/><path class="ebc9a829-9813-4199-aaae-9890763038e5" d="M110.93,717.91a5.19,5.19,0,0,1-3.7-1.54l-15.7-15.69a5.23,5.23,0,0,1,7.4-7.4l15.7,15.7a5.24,5.24,0,0,1-3.7,8.93Z"/><path class="ebc9a829-9813-4199-aaae-9890763038e5" d="M885.35,184.19a5.24,5.24,0,0,1-3.7-8.94l15.7-15.69a5.23,5.23,0,0,1,7.4,7.4l-15.7,15.69A5.23,5.23,0,0,1,885.35,184.19Z"/><path class="ebc9a829-9813-4199-aaae-9890763038e5" d="M848.72,220.81a5.23,5.23,0,0,1-3.7-8.93l15.7-15.7a5.23,5.23,0,1,1,7.4,7.4l-15.7,15.7A5.22,5.22,0,0,1,848.72,220.81Z"/><path class="ebc9a829-9813-4199-aaae-9890763038e5" d="M901.05,220.81a5.22,5.22,0,0,1-3.7-1.53l-15.7-15.7a5.23,5.23,0,1,1,7.4-7.4l15.7,15.7a5.23,5.23,0,0,1-3.7,8.93Z"/><path class="ebc9a829-9813-4199-aaae-9890763038e5" d="M864.42,184.19a5.23,5.23,0,0,1-3.7-1.54L845,167a5.23,5.23,0,0,1,7.4-7.4l15.7,15.69a5.24,5.24,0,0,1-3.7,8.94Z"/><path class="ebc9a829-9813-4199-aaae-9890763038e5" d="M288.84,142.33a5.24,5.24,0,0,1-3.7-8.94l15.7-15.69a5.23,5.23,0,0,1,7.39,7.39l-15.69,15.7A5.24,5.24,0,0,1,288.84,142.33Z"/><path class="ebc9a829-9813-4199-aaae-9890763038e5" d="M252.21,179a5.23,5.23,0,0,1-3.7-8.93l15.7-15.7a5.23,5.23,0,0,1,7.4,7.4l-15.7,15.7A5.22,5.22,0,0,1,252.21,179Z"/><path class="ebc9a829-9813-4199-aaae-9890763038e5" d="M304.54,179a5.22,5.22,0,0,1-3.7-1.53l-15.7-15.7a5.23,5.23,0,0,1,7.4-7.4L308.23,170a5.23,5.23,0,0,1-3.69,8.93Z"/><path class="ebc9a829-9813-4199-aaae-9890763038e5" d="M267.91,142.33a5.23,5.23,0,0,1-3.7-1.54l-15.7-15.7a5.23,5.23,0,1,1,7.4-7.39l15.7,15.69a5.24,5.24,0,0,1-3.7,8.94Z"/><path class="ebc9a829-9813-4199-aaae-9890763038e5" d="M969.07,550.47a5.24,5.24,0,0,1-3.7-8.94l15.7-15.69a5.23,5.23,0,0,1,7.4,7.39l-15.7,15.7A5.23,5.23,0,0,1,969.07,550.47Z"/><path class="ebc9a829-9813-4199-aaae-9890763038e5" d="M932.44,587.09a5.23,5.23,0,0,1-3.7-8.93l15.7-15.7a5.23,5.23,0,0,1,7.4,7.4l-15.7,15.7A5.22,5.22,0,0,1,932.44,587.09Z"/><path class="ebc9a829-9813-4199-aaae-9890763038e5" d="M984.77,587.09a5.22,5.22,0,0,1-3.7-1.53l-15.7-15.7a5.23,5.23,0,0,1,7.4-7.4l15.7,15.7a5.23,5.23,0,0,1-3.7,8.93Z"/><path class="ebc9a829-9813-4199-aaae-9890763038e5" d="M948.14,550.47a5.23,5.23,0,0,1-3.7-1.54l-15.7-15.7a5.23,5.23,0,0,1,7.4-7.39l15.7,15.69a5.24,5.24,0,0,1-3.7,8.94Z"/></svg>