<svg id="b4f78624-20a3-4a77-b7c2-d14f31760036" data-name="Capa 1" xmlns="http://www.w3.org/2000/svg" viewBox="0 0 1080 1080"><defs><style>.e350efd3-9e16-48eb-b762-ccc8e3c8cae7{fill:#f6f6f6;}.be27fcdb-88d3-4621-b631-d48b223692b5{fill:#b8b5c6;}.f6b4d621-9c7b-439a-9028-341ac1b34194{fill:#a09cad;}.e0fba832-075e-4051-bca8-2287d4d2bb7d{fill:#2fc8f2;}.f1a3add0-5fe4-40a7-94c7-035323976263{fill:#2caae6;}.b0268d24-156f-421a-a74a-b86182b260e1{fill:#282c3f;}.a338817e-c1a3-40cf-9c5c-d70c1b87935a{fill:#30354c;}.a722b906-82b8-4a1b-9b13-f96ed4028750{fill:#52576a;}.fc2b1974-b4d0-4703-97a1-3abc55e746ec{fill:#fff;}.bddc8085-e80d-44dd-8c91-f1e9cbda644f{fill:#989aa6;}</style></defs><title>ICONS S2R</title><path class="e350efd3-9e16-48eb-b762-ccc8e3c8cae7" d="M857.68,370.78c-33.17-62.38-22-171.47-81.81-209-58-36.37-150.06,20.52-223.31,18S391.38,114,331,146.23C268.78,179.47,272.31,289.07,234.87,349c-36.29,58.07-137,102-139.59,175.45s94.88,124.3,127,184.78c33.17,62.38,22,171.47,81.81,209,57.95,36.37,150.06-20.52,223.31-18S688.62,966,749,933.77c62.26-33.24,58.73-142.84,96.17-202.76,36.29-58.07,137-102,139.59-175.45S889.84,431.26,857.68,370.78Z"/><path class="be27fcdb-88d3-4621-b631-d48b223692b5" d="M359.73,385.14c-5.41-6.1-11.46-12.34-17.87-18.76-31.4-31.39-58.95-54.73-82.17-31.52a239.09,239.09,0,0,0-30.37,36.84L266,408.33a239.09,239.09,0,0,1,30.37-36.84C314.79,353,336,364.06,359.73,385.14Z"/><path class="f6b4d621-9c7b-439a-9028-341ac1b34194" d="M373.38,448.55c18.47-18.47,7.43-39.7-13.65-63.41C336,364.06,314.79,353,296.32,371.49A239.09,239.09,0,0,0,266,408.33l79.6,79.6A93.23,93.23,0,0,1,351,477,139,139,0,0,1,373.38,448.55Z"/><path class="e0fba832-075e-4051-bca8-2287d4d2bb7d" d="M376.46,714c-96.88-96.89-175-208.34-110.51-305.67L229.32,371.7c-64.53,97.33-22.44,214.58,121,358,139,139,253.36,182.79,348.86,126.68C605.21,911.5,515.39,852.93,376.46,714Z"/><path class="f1a3add0-5fe4-40a7-94c7-035323976263" d="M376.46,714c138.93,138.93,228.75,197.5,322.7,142.38q4.61-2.7,9.14-5.7L592.07,734.45c-55.56,23.15-100.47-19-158.78-77.27l-1.49-1.5c-1.25-1.24-2.49-2.49-3.74-3.74-58.32-58.31-105.66-108.45-82.51-164L266,408.33C201.42,505.66,279.58,617.11,376.46,714Z"/><path class="f6b4d621-9c7b-439a-9028-341ac1b34194" d="M713.62,738.14c-31.4-31.39-59-54.73-82.17-31.52A139,139,0,0,1,603.05,729a92.46,92.46,0,0,1-11,5.45L708.3,850.68a239.09,239.09,0,0,0,36.84-30.37C768.35,797.09,745,769.54,713.62,738.14Z"/><path class="b0268d24-156f-421a-a74a-b86182b260e1" d="M345.55,493.16a5.24,5.24,0,0,1-3.7-1.53L225.62,375.4a5.24,5.24,0,0,1-.66-6.59,245.53,245.53,0,0,1,31-37.65c29-29,64,6,89.57,31.52s60.54,60.55,31.52,89.57a135.17,135.17,0,0,0-21.56,27.33h0a91.48,91.48,0,0,0-5.14,10.36,5.27,5.27,0,0,1-3.81,3.13A5.86,5.86,0,0,1,345.55,493.16ZM236.08,371.06,344,478.94q1.19-2.32,2.51-4.61h0a145.51,145.51,0,0,1,23.21-29.48c18.18-18.17,2.94-40.3-31.52-74.77s-56.59-49.7-74.77-31.52A237.26,237.26,0,0,0,236.08,371.06Z"/><path class="b0268d24-156f-421a-a74a-b86182b260e1" d="M508.92,727.64a5.11,5.11,0,0,1-2.77-.8c-26.22-16.42-52.56-42-81.79-71.2-52.6-52.59-107-106.95-84.93-166.43L230.22,380c-20.66,33.44-28.46,68.6-23.84,107.31a5.24,5.24,0,1,1-10.4,1.24c-5.09-42.76,4.66-83.05,29-119.74A5.23,5.23,0,0,1,233,368L349.25,484.23a5.22,5.22,0,0,1,1.13,5.71c-21.05,50.53,18.55,95.48,81.38,158.3C460.53,677,486.41,702.13,511.7,718a5.23,5.23,0,0,1-2.78,9.67Z"/><path class="b0268d24-156f-421a-a74a-b86182b260e1" d="M613.72,885.32c-77.29,0-165.58-50.39-267.12-151.92-78.15-78.15-125-146.79-143.38-209.83a5.23,5.23,0,0,1,10.05-2.92C231.1,582,277.13,649.13,354,726,494.21,866.21,607.48,906.74,700,849.78L590.8,740.58c-17,6.33-34.16,6.79-52.29,1.42a5.24,5.24,0,0,1,3-10c16.89,5,32.78,4.24,48.58-2.34a5.24,5.24,0,0,1,5.71,1.13L712,847a5.19,5.19,0,0,1,1.51,4.22,5.24,5.24,0,0,1-2.31,3.84Q665.58,885.3,613.72,885.32Z"/><path class="b0268d24-156f-421a-a74a-b86182b260e1" d="M708.3,855.91a5.22,5.22,0,0,1-3.7-1.53L588.37,738.15a5.24,5.24,0,0,1,1.68-8.53,88.62,88.62,0,0,0,10.38-5.15,135.09,135.09,0,0,0,27.32-21.55c29-29,64,6,89.57,31.52h0C742.87,760,777.86,795,748.84,824a245.32,245.32,0,0,1-37.65,31A5.28,5.28,0,0,1,708.3,855.91ZM601.06,736,708.94,843.92a238.46,238.46,0,0,0,32.5-27.31c18.17-18.18,2.94-40.3-31.52-74.77s-56.6-49.7-74.77-31.52a145.2,145.2,0,0,1-29.48,23.21C604.15,734.41,602.62,735.25,601.06,736Z"/><path class="a338817e-c1a3-40cf-9c5c-d70c1b87935a" d="M827.79,576.63H749.3l-62.79,83.72-62.79-83.72H545.23a52.32,52.32,0,0,1-52.32-52.33V252.21a52.32,52.32,0,0,1,52.32-52.33H827.79a52.33,52.33,0,0,1,52.33,52.33V524.3A52.33,52.33,0,0,1,827.79,576.63Z"/><path class="a722b906-82b8-4a1b-9b13-f96ed4028750" d="M806.86,534.77H545.23a52.32,52.32,0,0,1-52.32-52.33V252.21a52.32,52.32,0,0,1,52.32-52.33h240.7a52.33,52.33,0,0,1,52.33,52.33V503.37A31.4,31.4,0,0,1,806.86,534.77Z"/><path class="b0268d24-156f-421a-a74a-b86182b260e1" d="M686.51,665.58a5.22,5.22,0,0,1-4.18-2.09L621.1,581.86H545.23a57.62,57.62,0,0,1-57.56-57.56V252.21a57.62,57.62,0,0,1,57.56-57.56H827.79a57.62,57.62,0,0,1,57.56,57.56v34a5.24,5.24,0,0,1-10.47,0v-34a47.14,47.14,0,0,0-47.09-47.09H545.23a47.14,47.14,0,0,0-47.09,47.09V524.3a47.15,47.15,0,0,0,47.09,47.1h78.49a5.23,5.23,0,0,1,4.19,2.09l58.6,78.14,58.61-78.14a5.2,5.2,0,0,1,4.18-2.09h78.49a47.15,47.15,0,0,0,47.09-47.1V317.62a5.24,5.24,0,1,1,10.47,0V524.3a57.62,57.62,0,0,1-57.56,57.56H751.92L690.7,663.49A5.26,5.26,0,0,1,686.51,665.58Z"/><path class="fc2b1974-b4d0-4703-97a1-3abc55e746ec" d="M772.85,487.67H751.92a47.14,47.14,0,0,1-47.09-47.09,15.7,15.7,0,1,1,31.39,0,15.71,15.71,0,0,0,15.7,15.7h20.93a15.72,15.72,0,0,0,15.7-15.7V419.65a15.73,15.73,0,0,0-15.7-15.7H751.92a47.14,47.14,0,0,1-47.09-47.09V335.93a47.14,47.14,0,0,1,47.09-47.09h20.93a47.14,47.14,0,0,1,47.09,47.09,15.7,15.7,0,1,1-31.39,0,15.72,15.72,0,0,0-15.7-15.7H751.92a15.71,15.71,0,0,0-15.7,15.7v20.93a15.71,15.71,0,0,0,15.7,15.7h20.93a47.14,47.14,0,0,1,47.09,47.09v20.93A47.14,47.14,0,0,1,772.85,487.67Z"/><path class="fc2b1974-b4d0-4703-97a1-3abc55e746ec" d="M762.38,320.23a15.68,15.68,0,0,1-15.69-15.69V267.91a15.7,15.7,0,1,1,31.39,0v36.63A15.69,15.69,0,0,1,762.38,320.23Z"/><path class="fc2b1974-b4d0-4703-97a1-3abc55e746ec" d="M762.38,524.3a15.69,15.69,0,0,1-15.69-15.7V472a15.7,15.7,0,1,1,31.39,0V508.6A15.69,15.69,0,0,1,762.38,524.3Z"/><path class="fc2b1974-b4d0-4703-97a1-3abc55e746ec" d="M615.87,487.67H594.94a47.14,47.14,0,0,1-47.09-47.09,15.7,15.7,0,1,1,31.39,0,15.72,15.72,0,0,0,15.7,15.7h20.93a15.71,15.71,0,0,0,15.7-15.7V419.65a15.72,15.72,0,0,0-15.7-15.7H594.94a47.14,47.14,0,0,1-47.09-47.09V335.93a47.14,47.14,0,0,1,47.09-47.09h20.93A47.15,47.15,0,0,1,663,335.93a15.7,15.7,0,0,1-31.4,0,15.71,15.71,0,0,0-15.7-15.7H594.94a15.72,15.72,0,0,0-15.7,15.7v20.93a15.72,15.72,0,0,0,15.7,15.7h20.93A47.15,47.15,0,0,1,663,419.65v20.93A47.15,47.15,0,0,1,615.87,487.67Z"/><path class="fc2b1974-b4d0-4703-97a1-3abc55e746ec" d="M605.41,320.23a15.69,15.69,0,0,1-15.7-15.69V267.91a15.7,15.7,0,1,1,31.39,0v36.63A15.68,15.68,0,0,1,605.41,320.23Z"/><path class="fc2b1974-b4d0-4703-97a1-3abc55e746ec" d="M605.41,524.3a15.69,15.69,0,0,1-15.7-15.7V472a15.7,15.7,0,1,1,31.39,0V508.6A15.69,15.69,0,0,1,605.41,524.3Z"/><path class="bddc8085-e80d-44dd-8c91-f1e9cbda644f" d="M393.49,927.21a5.22,5.22,0,0,1-3.7-1.53L374.09,910a5.23,5.23,0,1,1,7.4-7.4l15.7,15.7a5.23,5.23,0,0,1-3.7,8.93Z"/><path class="bddc8085-e80d-44dd-8c91-f1e9cbda644f" d="M430.12,963.84a5.19,5.19,0,0,1-3.7-1.54l-15.7-15.69a5.23,5.23,0,0,1,7.4-7.4l15.7,15.7a5.24,5.24,0,0,1-3.7,8.93Z"/><path class="bddc8085-e80d-44dd-8c91-f1e9cbda644f" d="M377.79,963.84a5.24,5.24,0,0,1-3.7-8.93l15.7-15.7a5.23,5.23,0,0,1,7.4,7.4l-15.7,15.69A5.19,5.19,0,0,1,377.79,963.84Z"/><path class="bddc8085-e80d-44dd-8c91-f1e9cbda644f" d="M414.42,927.21a5.23,5.23,0,0,1-3.7-8.93l15.7-15.7a5.23,5.23,0,1,1,7.4,7.4l-15.7,15.7A5.22,5.22,0,0,1,414.42,927.21Z"/><path class="bddc8085-e80d-44dd-8c91-f1e9cbda644f" d="M948.14,806.86a5.22,5.22,0,0,1-3.7-1.53l-15.7-15.7a5.23,5.23,0,0,1,7.4-7.4l15.7,15.7a5.23,5.23,0,0,1-3.7,8.93Z"/><path class="bddc8085-e80d-44dd-8c91-f1e9cbda644f" d="M984.77,843.49a5.22,5.22,0,0,1-3.7-1.53l-15.7-15.7a5.23,5.23,0,1,1,7.4-7.4l15.7,15.7a5.23,5.23,0,0,1-3.7,8.93Z"/><path class="bddc8085-e80d-44dd-8c91-f1e9cbda644f" d="M932.44,843.49a5.23,5.23,0,0,1-3.7-8.93l15.7-15.7a5.23,5.23,0,1,1,7.4,7.4L936.14,842A5.22,5.22,0,0,1,932.44,843.49Z"/><path class="bddc8085-e80d-44dd-8c91-f1e9cbda644f" d="M969.07,806.86a5.23,5.23,0,0,1-3.7-8.93l15.7-15.7a5.23,5.23,0,0,1,7.4,7.4l-15.7,15.7A5.22,5.22,0,0,1,969.07,806.86Z"/><path class="bddc8085-e80d-44dd-8c91-f1e9cbda644f" d="M791.16,649.88a5.23,5.23,0,0,1-3.7-1.53l-15.69-15.7a5.23,5.23,0,1,1,7.39-7.4l15.7,15.7a5.23,5.23,0,0,1-3.7,8.93Z"/><path class="bddc8085-e80d-44dd-8c91-f1e9cbda644f" d="M827.79,686.51a5.22,5.22,0,0,1-3.7-1.53l-15.7-15.7a5.23,5.23,0,1,1,7.4-7.4l15.7,15.7a5.23,5.23,0,0,1-3.7,8.93Z"/><path class="bddc8085-e80d-44dd-8c91-f1e9cbda644f" d="M775.47,686.51a5.23,5.23,0,0,1-3.7-8.93l15.69-15.7a5.23,5.23,0,1,1,7.4,7.4L779.16,685A5.21,5.21,0,0,1,775.47,686.51Z"/><path class="bddc8085-e80d-44dd-8c91-f1e9cbda644f" d="M812.09,649.88a5.23,5.23,0,0,1-3.7-8.93l15.7-15.7a5.23,5.23,0,0,1,7.4,7.4l-15.7,15.7A5.22,5.22,0,0,1,812.09,649.88Z"/><path class="bddc8085-e80d-44dd-8c91-f1e9cbda644f" d="M424.88,142.33a5.24,5.24,0,0,1-3.7-1.54l-15.69-15.7a5.23,5.23,0,0,1,7.4-7.39l15.69,15.69a5.24,5.24,0,0,1-3.7,8.94Z"/><path class="bddc8085-e80d-44dd-8c91-f1e9cbda644f" d="M461.51,179a5.22,5.22,0,0,1-3.7-1.53l-15.7-15.7a5.23,5.23,0,1,1,7.4-7.4l15.7,15.7a5.23,5.23,0,0,1-3.7,8.93Z"/><path class="bddc8085-e80d-44dd-8c91-f1e9cbda644f" d="M409.19,179a5.23,5.23,0,0,1-3.7-8.93l15.69-15.7a5.23,5.23,0,1,1,7.4,7.4l-15.69,15.7A5.23,5.23,0,0,1,409.19,179Z"/><path class="bddc8085-e80d-44dd-8c91-f1e9cbda644f" d="M445.81,142.33a5.24,5.24,0,0,1-3.7-8.94l15.7-15.69a5.23,5.23,0,0,1,7.4,7.39l-15.7,15.7A5.23,5.23,0,0,1,445.81,142.33Z"/><path class="bddc8085-e80d-44dd-8c91-f1e9cbda644f" d="M110.93,341.16a5.22,5.22,0,0,1-3.7-1.53l-15.7-15.7a5.23,5.23,0,0,1,7.4-7.4l15.7,15.7a5.23,5.23,0,0,1-3.7,8.93Z"/><path class="bddc8085-e80d-44dd-8c91-f1e9cbda644f" d="M147.56,377.79a5.22,5.22,0,0,1-3.7-1.53l-15.7-15.7a5.23,5.23,0,0,1,7.4-7.4l15.7,15.7a5.23,5.23,0,0,1-3.7,8.93Z"/><path class="bddc8085-e80d-44dd-8c91-f1e9cbda644f" d="M95.23,377.79a5.23,5.23,0,0,1-3.7-8.93l15.7-15.7a5.23,5.23,0,1,1,7.4,7.4l-15.7,15.7A5.22,5.22,0,0,1,95.23,377.79Z"/><path class="bddc8085-e80d-44dd-8c91-f1e9cbda644f" d="M131.86,341.16a5.23,5.23,0,0,1-3.7-8.93l15.7-15.7a5.23,5.23,0,0,1,7.4,7.4l-15.7,15.7A5.22,5.22,0,0,1,131.86,341.16Z"/><path class="bddc8085-e80d-44dd-8c91-f1e9cbda644f" d="M152.79,728.37a5.22,5.22,0,0,1-3.7-1.53l-15.7-15.7a5.23,5.23,0,0,1,7.4-7.4l15.7,15.7a5.23,5.23,0,0,1-3.7,8.93Z"/><path class="bddc8085-e80d-44dd-8c91-f1e9cbda644f" d="M189.42,765a5.22,5.22,0,0,1-3.7-1.53L170,747.77a5.23,5.23,0,1,1,7.4-7.4l15.7,15.7a5.23,5.23,0,0,1-3.7,8.93Z"/><path class="bddc8085-e80d-44dd-8c91-f1e9cbda644f" d="M137.09,765a5.23,5.23,0,0,1-3.7-8.93l15.7-15.7a5.23,5.23,0,1,1,7.4,7.4l-15.7,15.7A5.22,5.22,0,0,1,137.09,765Z"/><path class="bddc8085-e80d-44dd-8c91-f1e9cbda644f" d="M173.72,728.37a5.23,5.23,0,0,1-3.7-8.93l15.7-15.7a5.23,5.23,0,0,1,7.4,7.4l-15.7,15.7A5.22,5.22,0,0,1,173.72,728.37Z"/></svg>