<svg id="a2004ad1-c4b2-41c6-add5-fd15f687a187" data-name="Capa 1" xmlns="http://www.w3.org/2000/svg" viewBox="0 0 1080 1080"><defs><style>.b9a32b86-86e6-42e0-9912-e4c036c7bd2d{fill:#f6f6f6;}.b3106e24-828b-4a19-87c6-058b4e8bef46{fill:#fff;}.eb0bc9b2-001b-4204-a47c-c11784a8dde5{fill:#989aa6;}.a0e6c344-da2b-4878-b1dc-a2cfc52cf54e{fill:#ededed;}.a1217d74-fdf6-4526-aa6d-98901f5317b6{fill:#a09cad;}.add93a34-5998-4435-bed8-fedb5330c5d9{fill:#b8b5c6;}.aee251cc-71f0-4123-a5af-292df33f9fc3{fill:#2caae6;}.e07b01e1-ee75-40e1-8a1b-f4ba10e71f43{fill:#2fc8f2;}.bc9b4385-de73-4aa2-b79d-7d471c45880a{fill:#282c3f;}.ae9b555f-e648-4d1c-88af-01cd2eb92257{fill:#34234d;}.b60b8432-d6d0-4f29-b846-af8c13c76909{fill:#52576a;}.b375fe11-2240-421f-b5f5-b53873de6054{fill:#30354c;}</style></defs><title>ICONS S2R</title><path class="b9a32b86-86e6-42e0-9912-e4c036c7bd2d" d="M961.57,438c-16.92-69.9-121.79-92-167.9-140.5-47.57-50-47.32-136.07-122.36-166.08-62-24.78-144.94,50-214.38,67S299.3,186,247.72,237.61c-48.8,48.82-25.08,138.27-44.45,204.71-18.77,64.4-101.77,132.62-84.84,202.52s121.79,92,167.9,140.5c47.57,50,65.82,155.84,131.83,175.34,64,18.89,135.47-59.22,204.91-76.25s168.62,19.19,216.78-27.22c49.69-47.89,17.51-150.3,36.88-216.74C895.5,576.07,978.5,507.85,961.57,438Z"/><path class="b3106e24-828b-4a19-87c6-058b4e8bef46" d="M830.71,643.9A22.21,22.21,0,0,1,865,616.51a40.06,40.06,0,0,1,79.79,5.2,39.67,39.67,0,0,1-.71,7.36A33.76,33.76,0,1,1,951,695.86H835.69a26.22,26.22,0,0,1-5-52Z"/><path class="eb0bc9b2-001b-4204-a47c-c11784a8dde5" d="M951,701.09H835.69a31.45,31.45,0,0,1-12-60.52,27.45,27.45,0,0,1,26.39-35.07A27.15,27.15,0,0,1,861.53,608,45.29,45.29,0,0,1,950,621.71c0,.46,0,.93,0,1.4a39,39,0,1,1,1,78ZM850.06,616a17,17,0,0,0-14.8,25.36A5.24,5.24,0,0,1,831.7,649a21,21,0,0,0,4,41.59H951a28.52,28.52,0,1,0-5.85-56.44,5.23,5.23,0,0,1-6.23-6.07,34.47,34.47,0,0,0,.62-6.41,34.83,34.83,0,0,0-69.37-4.52,5.21,5.21,0,0,1-3.38,4.23,5.27,5.27,0,0,1-5.32-1A17,17,0,0,0,850.06,616Z"/><path class="b3106e24-828b-4a19-87c6-058b4e8bef46" d="M146.86,729.88A17.74,17.74,0,0,1,174.23,708a32,32,0,1,1,63.15,10,26.64,26.64,0,0,1,5.54-.6,27,27,0,1,1,0,53.93H150.83a20.93,20.93,0,0,1-4-41.49Z"/><path class="eb0bc9b2-001b-4204-a47c-c11784a8dde5" d="M242.92,776.6H150.83a26.17,26.17,0,0,1-10.84-50,23,23,0,0,1,30.84-26.81,37.23,37.23,0,0,1,72.35,12.36v.05a32.2,32.2,0,0,1-.26,64.39Zm-80.61-68a12.54,12.54,0,0,0-12.52,12.52,12.41,12.41,0,0,0,1.62,6.16,5.24,5.24,0,0,1-3.56,7.72,15.7,15.7,0,0,0,3,31.12h92.09a21.76,21.76,0,0,0,21.73-21.74,21.54,21.54,0,0,0-26.19-21.24,5.23,5.23,0,0,1-6.22-6.08,26.75,26.75,0,1,0-52.82-8.4,5.23,5.23,0,0,1-8.71,3.2A12.48,12.48,0,0,0,162.31,708.62Z"/><path class="b3106e24-828b-4a19-87c6-058b4e8bef46" d="M410.56,287.33a17,17,0,0,0-26.29-21A30.71,30.71,0,1,0,323.63,276a25.21,25.21,0,0,0-5.32-.57,25.89,25.89,0,1,0,0,51.78h88.43a20.1,20.1,0,0,0,3.82-39.84Z"/><path class="eb0bc9b2-001b-4204-a47c-c11784a8dde5" d="M406.74,332.4H318.31a31.12,31.12,0,0,1-.45-62.24,36,36,0,0,1,69.8-12,22.28,22.28,0,0,1,29.74,25.9,25.34,25.34,0,0,1-10.66,48.33Zm-88.43-51.78a20.66,20.66,0,1,0,0,41.32h88.43a14.87,14.87,0,0,0,2.83-29.47,5.25,5.25,0,0,1-3.57-7.72,11.64,11.64,0,0,0,1.54-5.81,11.8,11.8,0,0,0-19.75-8.74,5.23,5.23,0,0,1-8.71-3.2,25.49,25.49,0,0,0-50.76,3.31,25.06,25.06,0,0,0,.46,4.69,5.25,5.25,0,0,1-6.23,6.08A20.22,20.22,0,0,0,318.31,280.62Z"/><path class="b3106e24-828b-4a19-87c6-058b4e8bef46" d="M704,183.67a20.42,20.42,0,0,1,31.52-25.18A36.84,36.84,0,1,1,808.24,170a30.49,30.49,0,0,1,6.38-.69,31.06,31.06,0,0,1,0,62.12H708.55a24.12,24.12,0,0,1-4.57-47.8Z"/><path class="eb0bc9b2-001b-4204-a47c-c11784a8dde5" d="M814.62,236.7H708.55A29.35,29.35,0,0,1,697,180.37a25.67,25.67,0,0,1,35.07-30.28,42.08,42.08,0,0,1,82,13.17c0,.29,0,.58,0,.86h.51a36.29,36.29,0,0,1,0,72.58Zm-92.85-78.31a15.2,15.2,0,0,0-13.24,22.7,5.24,5.24,0,0,1-3.56,7.72,18.88,18.88,0,0,0,3.58,37.43H814.62a25.82,25.82,0,1,0-5.29-51.08,5.24,5.24,0,0,1-6.23-6.08,32,32,0,0,0,.56-5.82,31.62,31.62,0,0,0-63-4.1,5.23,5.23,0,0,1-8.71,3.2A15.14,15.14,0,0,0,721.77,158.39Z"/><path class="b3106e24-828b-4a19-87c6-058b4e8bef46" d="M191.64,412.17A13.9,13.9,0,0,0,170.19,395a25.06,25.06,0,1,0-49.48,7.87,20.85,20.85,0,0,0-4.35-.47,21.13,21.13,0,1,0,0,42.26h72.16a16.41,16.41,0,0,0,3.12-32.52Z"/><path class="eb0bc9b2-001b-4204-a47c-c11784a8dde5" d="M188.52,449.92H116.36a26.36,26.36,0,0,1-1.31-52.69,30.3,30.3,0,0,1,58.47-10.08,19.14,19.14,0,0,1,25.16,18.18,18.59,18.59,0,0,1-.36,3.65,21.64,21.64,0,0,1-9.8,40.94Zm-72.16-42.26a15.9,15.9,0,0,0,0,31.79h72.16a11.17,11.17,0,0,0,2.13-22.14,5.23,5.23,0,0,1-3.57-7.71,8.58,8.58,0,0,0,1.13-4.27,8.67,8.67,0,0,0-14.51-6.42,5.23,5.23,0,0,1-8.7-3.2,19.83,19.83,0,1,0-39.15,6.23,5.23,5.23,0,0,1-6.24,6.07A15.84,15.84,0,0,0,116.36,407.66Z"/><rect class="a0e6c344-da2b-4878-b1dc-a2cfc52cf54e" x="199.88" y="492.67" width="680.23" height="470.93" rx="15.7"/><rect class="b3106e24-828b-4a19-87c6-058b4e8bef46" x="199.88" y="492.67" width="643.6" height="434.3" rx="15.7"/><path class="eb0bc9b2-001b-4204-a47c-c11784a8dde5" d="M984.77,968.84H95.23a5.24,5.24,0,0,1,0-10.47H984.77a5.24,5.24,0,0,1,0,10.47Z"/><path class="a1217d74-fdf6-4526-aa6d-98901f5317b6" d="M581.86,864.19h62.79a10.47,10.47,0,0,1,10.47,10.47v89a0,0,0,0,1,0,0H571.4a0,0,0,0,1,0,0v-89A10.47,10.47,0,0,1,581.86,864.19Z"/><path class="add93a34-5998-4435-bed8-fedb5330c5d9" d="M581.86,864.19h62.79a10.47,10.47,0,0,1,10.47,10.47V927a0,0,0,0,1,0,0H571.4a0,0,0,0,1,0,0V874.65A10.47,10.47,0,0,1,581.86,864.19Z"/><path class="a1217d74-fdf6-4526-aa6d-98901f5317b6" d="M210.35,864.19h89a10.47,10.47,0,0,1,10.47,10.47v89a0,0,0,0,1,0,0H215.58a15.7,15.7,0,0,1-15.7-15.7V874.65A10.47,10.47,0,0,1,210.35,864.19Z"/><path class="add93a34-5998-4435-bed8-fedb5330c5d9" d="M210.35,864.19h89a10.47,10.47,0,0,1,10.47,10.47V927a0,0,0,0,1,0,0H199.88a0,0,0,0,1,0,0V874.65A10.47,10.47,0,0,1,210.35,864.19Z"/><path class="a1217d74-fdf6-4526-aa6d-98901f5317b6" d="M770.23,864.19H880.12a0,0,0,0,1,0,0V927a0,0,0,0,1,0,0H770.23a10.47,10.47,0,0,1-10.47-10.47V874.65A10.47,10.47,0,0,1,770.23,864.19Z"/><path class="add93a34-5998-4435-bed8-fedb5330c5d9" d="M770.23,864.19h73.26a0,0,0,0,1,0,0V927a0,0,0,0,1,0,0H770.23a10.47,10.47,0,0,1-10.47-10.47V874.65A10.47,10.47,0,0,1,770.23,864.19Z"/><rect class="aee251cc-71f0-4123-a5af-292df33f9fc3" x="843.49" y="790.93" width="36.63" height="41.86"/><polygon class="e07b01e1-ee75-40e1-8a1b-f4ba10e71f43" points="843.49 694.95 843.49 635.75 688.3 790.93 383.02 790.93 383.02 492.67 341.16 492.67 341.16 602.56 199.88 602.56 199.88 644.42 341.16 644.42 341.16 790.93 199.88 790.93 199.88 832.79 341.16 832.79 341.16 963.61 383.02 963.61 383.02 832.79 686.51 832.79 686.51 963.61 728.37 963.61 728.37 832.79 843.49 832.79 843.49 790.93 747.51 790.93 843.49 694.95"/><polygon class="aee251cc-71f0-4123-a5af-292df33f9fc3" points="880.12 658.32 880.12 599.13 843.49 635.75 843.49 694.95 880.12 658.32"/><path class="bc9b4385-de73-4aa2-b79d-7d471c45880a" d="M864.42,968.84H451.05a5.24,5.24,0,1,1,0-10.47H864.42a10.47,10.47,0,0,0,10.46-10.46V770a5.24,5.24,0,0,1,10.47,0V947.91A21,21,0,0,1,864.42,968.84Z"/><path class="add93a34-5998-4435-bed8-fedb5330c5d9" d="M199.88,524.07H299.3a10.47,10.47,0,0,1,10.47,10.47v31.4A10.47,10.47,0,0,1,299.3,576.4H199.88a0,0,0,0,1,0,0V524.07A0,0,0,0,1,199.88,524.07Z"/><path class="ae9b555f-e648-4d1c-88af-01cd2eb92257" d="M419.65,968.84H215.58a21,21,0,0,1-20.93-20.93V749.07a5.24,5.24,0,0,1,10.47,0V947.91a10.47,10.47,0,0,0,10.46,10.46H419.65a5.24,5.24,0,0,1,0,10.47Z"/><path class="b60b8432-d6d0-4f29-b846-af8c13c76909" d="M542.62,746.45v-68h190.8l-64.19,64.19a13,13,0,0,1-9.25,3.83Z"/><path class="b375fe11-2240-421f-b5f5-b53873de6054" d="M739.73,665.35H540a10.46,10.46,0,0,0-10.47,10.46v73.26A10.46,10.46,0,0,0,540,759.53H660a26.15,26.15,0,0,0,18.5-7.66l68.66-68.66A10.46,10.46,0,0,0,739.73,665.35Zm-79.75,68H555.7V691.51H701.84Z"/><path class="bc9b4385-de73-4aa2-b79d-7d471c45880a" d="M880.12,743.84a5.24,5.24,0,0,1-5.24-5.24V508.37a10.47,10.47,0,0,0-10.46-10.46H215.58a10.47,10.47,0,0,0-10.46,10.46v209.3a5.24,5.24,0,1,1-10.47,0V508.37a21,21,0,0,1,20.93-20.93H864.42a21,21,0,0,1,20.93,20.93V738.6A5.23,5.23,0,0,1,880.12,743.84Z"/><rect class="add93a34-5998-4435-bed8-fedb5330c5d9" x="414.42" y="864.19" width="125.58" height="62.79" rx="10.47"/><rect class="add93a34-5998-4435-bed8-fedb5330c5d9" x="414.42" y="633.95" width="83.72" height="125.58" rx="10.47"/><rect class="add93a34-5998-4435-bed8-fedb5330c5d9" x="236.51" y="675.81" width="73.26" height="83.72" rx="10.47"/><path class="add93a34-5998-4435-bed8-fedb5330c5d9" d="M681.28,555.47a10.46,10.46,0,0,0-10.47,10.46v57.56A10.46,10.46,0,0,0,681.28,634h99a26.17,26.17,0,0,0,18.51-7.66l38.53-38.53a20.94,20.94,0,0,0,6.13-14.8v-7A10.46,10.46,0,0,0,833,555.47Z"/><rect class="add93a34-5998-4435-bed8-fedb5330c5d9" x="414.42" y="524.07" width="94.19" height="78.49" rx="10.47"/><path class="aee251cc-71f0-4123-a5af-292df33f9fc3" d="M739.68,335.74h0a178.8,178.8,0,0,0-252.85,0h0a178.78,178.78,0,0,0,0,252.84L613.26,715,739.68,588.58A178.78,178.78,0,0,0,739.68,335.74Z"/><path class="e07b01e1-ee75-40e1-8a1b-f4ba10e71f43" d="M506,359.72h0a178.8,178.8,0,0,1,252.84,0h0c1.15,1.15,2.23,2.34,3.34,3.51a179.31,179.31,0,0,0-22.52-27.49h0a178.78,178.78,0,0,0-252.84,0h0c-68.67,68.67-69.75,179.27-3.34,249.33A178.84,178.84,0,0,1,506,359.72Z"/><path class="bc9b4385-de73-4aa2-b79d-7d471c45880a" d="M613.26,720.23a5.23,5.23,0,0,1-3.7-1.53L483.13,592.28a184,184,0,0,1,0-260.24c71.75-71.75,188.5-71.75,260.25,0h0a184,184,0,0,1,0,260.24L617,718.7A5.26,5.26,0,0,1,613.26,720.23Zm0-431.54A173.5,173.5,0,0,0,490.53,584.88L613.26,707.6,736,584.88A173.47,173.47,0,0,0,613.26,288.69Z"/><path class="a0e6c344-da2b-4878-b1dc-a2cfc52cf54e" d="M666.56,391.06a88.84,88.84,0,0,1-124.4,124.4,88.88,88.88,0,1,0,124.4-124.4Z"/><path class="b3106e24-828b-4a19-87c6-058b4e8bef46" d="M684.42,444.37a88.48,88.48,0,0,0-17.86-53.31,88.84,88.84,0,0,0-124.4,124.4,88.84,88.84,0,0,0,142.26-71.09Z"/><path class="ae9b555f-e648-4d1c-88af-01cd2eb92257" d="M613.26,556.34a94.19,94.19,0,1,1,94.18-94.18A94.29,94.29,0,0,1,613.26,556.34Zm0-177.9A83.72,83.72,0,1,0,697,462.16,83.81,83.81,0,0,0,613.26,378.44Z"/></svg>