<svg id="f538b49a-7e2e-4c53-95d2-e01852f892e2" data-name="Capa 1" xmlns="http://www.w3.org/2000/svg" viewBox="0 0 1080 1080"><defs><style>.b0b7dff6-a05a-40e5-a165-5e462e1d7e32{fill:#f6f6f6;}.ba683084-2012-4207-a01b-81d1b75773d9{fill:#ededed;}.a741e333-07e9-46a0-b243-2684f28d43ef{fill:#fff;}.bfb28678-bc5f-48ca-872c-841b1f66c5fa{fill:#282c3f;}.ec3e2b42-a945-4171-b2f6-c3ced96e9599{fill:#30354c;}.e7872f1f-d624-40f1-b516-d71f6374e7b0{fill:#52576a;}.bae9a1ad-f7f3-4af1-896e-217300110513{fill:#a09cad;}.a2fc5b16-fe11-41e3-b24d-bd473aa84518{fill:#2caae6;}.bc95e301-fd2a-4034-9b21-a3e0475ef891{fill:#2fc8f2;}.bec84198-9e14-4926-811d-7e755146e758{fill:#989aa6;}</style></defs><title>ICONS S2R</title><path class="b0b7dff6-a05a-40e5-a165-5e462e1d7e32" d="M878.67,419.5c-24-65.61,2.53-170.61-51.36-215.67-52.24-43.67-151.91-6.58-224.1-19.38s-149.94-81.37-214.28-58.37c-66.38,23.72-78.44,131.29-124,184.55-44.18,51.64-150.2,80.42-163.16,151.78s76.33,134.78,99.59,198.37c24,65.62-2.53,170.62,51.36,215.67,52.24,43.68,151.55,1,223.74,13.85s150.3,86.9,214.64,63.91c66.38-23.73,78.44-131.29,124-184.56C859.28,718,965.3,689.23,978.26,617.88S901.93,483.1,878.67,419.5Z"/><path class="ba683084-2012-4207-a01b-81d1b75773d9" d="M252.21,377.79H827.79a52.33,52.33,0,0,1,52.33,52.33v450a0,0,0,0,1,0,0H199.88a0,0,0,0,1,0,0v-450A52.33,52.33,0,0,1,252.21,377.79Z" transform="translate(1080 1257.91) rotate(180)"/><path class="a741e333-07e9-46a0-b243-2684f28d43ef" d="M304.53,377.79H775.47a52.33,52.33,0,0,1,52.33,52.33v450a0,0,0,0,1,0,0H252.21a0,0,0,0,1,0,0v-450A52.33,52.33,0,0,1,304.53,377.79Z" transform="translate(1080 1257.91) rotate(180)"/><rect class="ba683084-2012-4207-a01b-81d1b75773d9" x="252.21" y="775.47" width="575.58" height="20.93"/><rect class="ba683084-2012-4207-a01b-81d1b75773d9" x="252.21" y="691.74" width="575.58" height="20.93"/><rect class="ba683084-2012-4207-a01b-81d1b75773d9" x="330.7" y="608.02" width="418.6" height="20.93"/><rect class="ba683084-2012-4207-a01b-81d1b75773d9" x="252.21" y="524.3" width="575.58" height="20.93"/><rect class="ba683084-2012-4207-a01b-81d1b75773d9" x="252.21" y="440.58" width="497.09" height="20.93"/><rect class="ba683084-2012-4207-a01b-81d1b75773d9" x="741.45" y="377.79" width="20.93" height="408.14"/><rect class="ba683084-2012-4207-a01b-81d1b75773d9" x="635.49" y="707.44" width="20.93" height="172.67"/><rect class="ba683084-2012-4207-a01b-81d1b75773d9" x="529.53" y="377.79" width="20.93" height="502.33"/><rect class="ba683084-2012-4207-a01b-81d1b75773d9" x="423.58" y="618.49" width="20.93" height="167.44"/><rect class="ba683084-2012-4207-a01b-81d1b75773d9" x="317.62" y="377.79" width="20.93" height="502.33"/><path class="bfb28678-bc5f-48ca-872c-841b1f66c5fa" d="M827.79,885.35H451.05a5.24,5.24,0,1,1,0-10.47H827.79a47.14,47.14,0,0,0,47.09-47.09V383H827.79a5.23,5.23,0,0,1,0-10.46h52.33a5.23,5.23,0,0,1,5.23,5.23v450A57.62,57.62,0,0,1,827.79,885.35Z"/><path class="bfb28678-bc5f-48ca-872c-841b1f66c5fa" d="M419.65,885.35H252.21a57.62,57.62,0,0,1-57.56-57.56v-450a5.23,5.23,0,0,1,5.23-5.23H796.4a5.23,5.23,0,1,1,0,10.46H205.12V827.79a47.14,47.14,0,0,0,47.09,47.09H419.65a5.24,5.24,0,0,1,0,10.47Z"/><path class="ec3e2b42-a945-4171-b2f6-c3ced96e9599" d="M880.12,827.79v-450A52.25,52.25,0,0,0,854,332.52v450A52.25,52.25,0,0,1,880.12,827.79Z"/><path class="e7872f1f-d624-40f1-b516-d71f6374e7b0" d="M854,332.52a52,52,0,0,0-26.16-7v450a52,52,0,0,1,26.16,7Z"/><path class="ec3e2b42-a945-4171-b2f6-c3ced96e9599" d="M226.05,782.52v-450a52.25,52.25,0,0,0-26.17,45.27v450A52.25,52.25,0,0,1,226.05,782.52Z"/><path class="e7872f1f-d624-40f1-b516-d71f6374e7b0" d="M252.21,775.47v-450a52,52,0,0,0-26.16,7v450A52,52,0,0,1,252.21,775.47Z"/><path class="bfb28678-bc5f-48ca-872c-841b1f66c5fa" d="M880.12,833a5.23,5.23,0,0,1-5.24-5.23,47.14,47.14,0,0,0-47.09-47.09,5.23,5.23,0,0,1-5.23-5.23v-450a5.24,5.24,0,0,1,5.23-5.24,57.62,57.62,0,0,1,57.56,57.56v450A5.23,5.23,0,0,1,880.12,833ZM833,770.47a57.58,57.58,0,0,1,41.86,24.26V377.79A47.15,47.15,0,0,0,833,331Z"/><path class="bfb28678-bc5f-48ca-872c-841b1f66c5fa" d="M199.88,833a5.23,5.23,0,0,1-5.23-5.23v-450a57.62,57.62,0,0,1,57.56-57.56,5.24,5.24,0,0,1,5.23,5.24V597.56a5.23,5.23,0,1,1-10.46,0V331a47.15,47.15,0,0,0-41.86,46.8V794.73A57.58,57.58,0,0,1,247,770.47V629a5.23,5.23,0,1,1,10.46,0V775.47a5.23,5.23,0,0,1-5.23,5.23,47.14,47.14,0,0,0-47.09,47.09A5.23,5.23,0,0,1,199.88,833Z"/><circle class="bae9a1ad-f7f3-4af1-896e-217300110513" cx="540" cy="618.49" r="31.4"/><circle class="bae9a1ad-f7f3-4af1-896e-217300110513" cx="644.65" cy="785.93" r="31.4"/><path class="bae9a1ad-f7f3-4af1-896e-217300110513" d="M649.88,796.4H367.33a52.33,52.33,0,1,1,0-104.66H712.67a31.4,31.4,0,1,0,0-62.79H540A10.47,10.47,0,1,1,540,608H712.67a52.33,52.33,0,1,1,0,104.65H367.33a31.4,31.4,0,1,0,0,62.8H649.88a10.47,10.47,0,1,1,0,20.93Z"/><path class="a2fc5b16-fe11-41e3-b24d-bd473aa84518" d="M662.61,250.67h0a173.39,173.39,0,0,0-245.22,0h0a173.39,173.39,0,0,0,0,245.21L540,618.49,662.61,495.88A173.39,173.39,0,0,0,662.61,250.67Z"/><path class="bc95e301-fd2a-4034-9b21-a3e0475ef891" d="M436,273.92h0a173.39,173.39,0,0,1,245.21,0h0c1.12,1.12,2.16,2.28,3.24,3.41a174.53,174.53,0,0,0-21.84-26.66h0a173.39,173.39,0,0,0-245.22,0h0c-66.6,66.6-67.64,173.86-3.24,241.8A173.45,173.45,0,0,1,436,273.92Z"/><path class="bfb28678-bc5f-48ca-872c-841b1f66c5fa" d="M540,623.72a5.22,5.22,0,0,1-3.7-1.53L413.69,499.58c-69.64-69.64-69.64-183,0-252.61s183-69.64,252.62,0h0c69.64,69.64,69.64,183,0,252.61L543.7,622.19A5.22,5.22,0,0,1,540,623.72Zm0-418.52a167.67,167.67,0,0,0-118.91,49.17c-65.56,65.57-65.56,172.25,0,237.81L540,611.09,658.91,492.18c65.56-65.56,65.56-172.24,0-237.81A167.67,167.67,0,0,0,540,205.2Z"/><path class="ba683084-2012-4207-a01b-81d1b75773d9" d="M591.69,304.33A86.15,86.15,0,0,1,471.05,425,86.19,86.19,0,1,0,591.69,304.33Z"/><path class="a741e333-07e9-46a0-b243-2684f28d43ef" d="M609,356a85.74,85.74,0,0,0-17.32-51.69A86.15,86.15,0,0,0,471.05,425a86.15,86.15,0,0,0,138-69Z"/><path class="bfb28678-bc5f-48ca-872c-841b1f66c5fa" d="M540,464.78a91.51,91.51,0,1,1,91.5-91.5A91.6,91.6,0,0,1,540,464.78Zm0-172.54a81,81,0,1,0,81,81A81.13,81.13,0,0,0,540,292.24Z"/><path class="bec84198-9e14-4926-811d-7e755146e758" d="M440.58,152.79H388.26a5.23,5.23,0,1,1,0-10.46h52.32a5.23,5.23,0,1,1,0,10.46Z"/><path class="bec84198-9e14-4926-811d-7e755146e758" d="M414.42,179a5.23,5.23,0,0,1-5.23-5.23V121.4a5.23,5.23,0,1,1,10.46,0v52.32A5.23,5.23,0,0,1,414.42,179Z"/><path class="bec84198-9e14-4926-811d-7e755146e758" d="M785.93,299.3H744.07a5.23,5.23,0,0,1,0-10.46h41.86a5.23,5.23,0,0,1,0,10.46Z"/><path class="bec84198-9e14-4926-811d-7e755146e758" d="M765,320.23a5.23,5.23,0,0,1-5.23-5.23V273.14a5.23,5.23,0,0,1,10.46,0V315A5.23,5.23,0,0,1,765,320.23Z"/><path class="bec84198-9e14-4926-811d-7e755146e758" d="M262.67,257.44H220.81a5.23,5.23,0,0,1,0-10.46h41.86a5.23,5.23,0,1,1,0,10.46Z"/><path class="bec84198-9e14-4926-811d-7e755146e758" d="M241.74,278.37a5.23,5.23,0,0,1-5.23-5.23V231.28a5.24,5.24,0,0,1,10.47,0v41.86A5.23,5.23,0,0,1,241.74,278.37Z"/><path class="bec84198-9e14-4926-811d-7e755146e758" d="M686.51,937.67H634.19a5.23,5.23,0,1,1,0-10.46h52.32a5.23,5.23,0,0,1,0,10.46Z"/><path class="bec84198-9e14-4926-811d-7e755146e758" d="M660.35,963.84a5.24,5.24,0,0,1-5.23-5.24V906.28a5.23,5.23,0,0,1,10.46,0V958.6A5.24,5.24,0,0,1,660.35,963.84Z"/><path class="bec84198-9e14-4926-811d-7e755146e758" d="M147.56,519.07H95.23a5.24,5.24,0,0,1,0-10.47h52.33a5.24,5.24,0,0,1,0,10.47Z"/><path class="bec84198-9e14-4926-811d-7e755146e758" d="M121.4,545.23a5.23,5.23,0,0,1-5.24-5.23V487.67a5.24,5.24,0,0,1,10.47,0V540A5.23,5.23,0,0,1,121.4,545.23Z"/><path class="bec84198-9e14-4926-811d-7e755146e758" d="M984.77,435.35H932.44a5.24,5.24,0,0,1,0-10.47h52.33a5.24,5.24,0,0,1,0,10.47Z"/><path class="bec84198-9e14-4926-811d-7e755146e758" d="M958.6,461.51a5.23,5.23,0,0,1-5.23-5.23V404a5.24,5.24,0,0,1,10.47,0v52.33A5.23,5.23,0,0,1,958.6,461.51Z"/><path class="bec84198-9e14-4926-811d-7e755146e758" d="M948.14,806.86H906.28a5.23,5.23,0,0,1,0-10.46h41.86a5.23,5.23,0,0,1,0,10.46Z"/><path class="bec84198-9e14-4926-811d-7e755146e758" d="M927.21,827.79a5.23,5.23,0,0,1-5.23-5.23V780.7a5.23,5.23,0,0,1,10.46,0v41.86A5.23,5.23,0,0,1,927.21,827.79Z"/><path class="bec84198-9e14-4926-811d-7e755146e758" d="M184.19,890.58H142.33a5.23,5.23,0,1,1,0-10.46h41.86a5.23,5.23,0,0,1,0,10.46Z"/><path class="bec84198-9e14-4926-811d-7e755146e758" d="M163.26,911.51a5.23,5.23,0,0,1-5.24-5.23V864.42a5.24,5.24,0,0,1,10.47,0v41.86A5.23,5.23,0,0,1,163.26,911.51Z"/></svg>