<svg id="b284ae87-8648-4d99-8db0-9abc9338f86e" data-name="Capa 1" xmlns="http://www.w3.org/2000/svg" viewBox="0 0 1080 1080"><defs><style>.b5a4ecd0-c480-4f1f-af2a-b3168bb0052c{fill:#f6f6f6;}.bb3abe16-87e8-4c69-8531-5fb4d15ec39e{fill:#fff;}.b6899ab2-f0bc-4a76-81a3-a52216aa6cf2{fill:#ededed;}.b284a310-ba2b-4aa7-b690-b26e4b924178{fill:#989aa6;}.b0fcf686-c7c2-47fe-85bf-47ffb8c23e84{fill:#30354c;}.fedea19b-cdc3-432e-a8c7-cbf829585514{fill:#52576a;}.ba29b565-018f-43d2-8cbe-c7f5fe8dbe46{fill:#282c3f;}.eb0cc590-c006-4ef4-a48a-0acee7867e14{fill:#a09cad;}.f17bb2e8-23ca-4d87-ac77-b75d4b556cae{fill:#b8b5c6;}.ae5a92e3-09a6-42df-b79c-73ebf9f2378a{fill:#2caae6;}.b86bd9f1-7c9c-4adb-9033-7f30474dcf7a{fill:#2fc8f2;}</style></defs><title>ICONS S2R</title><path class="b5a4ecd0-c480-4f1f-af2a-b3168bb0052c" d="M857.68,370.78c-33.17-62.38-22-171.47-81.81-209-58-36.37-150.06,20.52-223.32,18S391.38,114,331,146.23C268.78,179.47,272.31,289.07,234.87,349c-36.28,58.07-137,102-139.59,175.44s94.88,124.31,127,184.79c33.17,62.38,22,171.47,81.81,209,57.95,36.37,150.06-20.52,223.31-18S688.62,966,749,933.77c62.26-33.24,58.73-142.84,96.17-202.76,36.28-58.07,137-102,139.59-175.44S889.84,431.26,857.68,370.78Z"/><path class="bb3abe16-87e8-4c69-8531-5fb4d15ec39e" d="M874.88,958.6a5.23,5.23,0,0,0,5.24-5.23V493.44a5.24,5.24,0,0,0-5.24-5.23h-675V874.88A83.72,83.72,0,0,0,283.6,958.6Z"/><path class="b6899ab2-f0bc-4a76-81a3-a52216aa6cf2" d="M564.59,869a35.74,35.74,0,0,0,10.57-1.6l67.48-20.88A35.79,35.79,0,0,0,667,820.06l4.6-20.94,41.11-16.48A35.73,35.73,0,0,0,733.23,738l-2.88-8.5,7.83-13.19A35.74,35.74,0,0,0,723.11,666l-59.44-29A36,36,0,0,0,648,633.35h0a36,36,0,0,0-15.24,3.42l-106,50a35.62,35.62,0,0,0-19.12,42.08l9.24,32.56-21.41,24.46a35.72,35.72,0,0,0,9.31,54.65L547,864.4A35.79,35.79,0,0,0,564.59,869Z"/><path class="b6899ab2-f0bc-4a76-81a3-a52216aa6cf2" d="M258,799.35l28.69-11.45,35-14,26.58,13.48A35.66,35.66,0,0,0,399,764.33l7.51-29.82,30.14-9.78A35.86,35.86,0,0,0,461,695.57l5.45-40.3,54.3-30a35.68,35.68,0,0,0,16.58-42.57l-30.54-91.09a33.23,33.23,0,0,0-1.45-3.41H367.14l-4.91,32.91-22.4,15.53a35.54,35.54,0,0,0-14.5,37.06L331,599.32l-17.48,20.15-31.21-5.17-24.35-4V799.35Z"/><path class="b6899ab2-f0bc-4a76-81a3-a52216aa6cf2" d="M450.51,914.09l7.31-32.15a32.19,32.19,0,0,0-11.52-32.37l-26.49-20.7a32.07,32.07,0,0,0-43.42,3.66L352.63,858.6l-19.57-1.24-23.12-18.3A32.06,32.06,0,0,0,268,841l-11.89,11.32a31.91,31.91,0,0,0-1.81,44.58l20.94,23.43-2.59,36.84-.05.65a84,84,0,0,0,11.05.81H496.12l-15.35-15Z"/><path class="b6899ab2-f0bc-4a76-81a3-a52216aa6cf2" d="M880.12,572.47l-8.94,4.22-18.73,8.84a33.92,33.92,0,0,0-19.24,26.53l-11,87.45-20.34,8a33.88,33.88,0,0,0-20.14,21.79l-17.36,57.15-61.19,16.77a34.15,34.15,0,0,0-22.88,20.92l-22.69,60.72L556.85,940.27,523.53,958.6H874.88a5.24,5.24,0,0,0,5.24-5.23Z"/><path class="b284a310-ba2b-4aa7-b690-b26e4b924178" d="M984.77,963.84H95.23a5.24,5.24,0,0,1,0-10.47H984.77a5.24,5.24,0,0,1,0,10.47Z"/><path class="b0fcf686-c7c2-47fe-85bf-47ffb8c23e84" d="M654.49,655.78l59.45,29a14.81,14.81,0,0,1,6.24,20.86l-9.26,15.61a14.77,14.77,0,0,0-1.29,12.3l3.78,11.17a14.81,14.81,0,0,1-8.51,18.49L660.78,780.9a14.8,14.8,0,0,0-8.94,10.57l-5.3,24.1a14.8,14.8,0,0,1-10.08,11L569,847.43a14.8,14.8,0,0,1-11.66-1.26L515,822.31a14.82,14.82,0,0,1-3.86-22.65l23.61-27a14.8,14.8,0,0,0,3.1-13.8l-10.15-35.75a14.82,14.82,0,0,1,7.93-17.44l106-50A14.77,14.77,0,0,1,654.49,655.78Z"/><path class="b0fcf686-c7c2-47fe-85bf-47ffb8c23e84" d="M510.59,607l-57,31.49a14.75,14.75,0,0,0-7.48,10.93l-5.87,43.39a14.76,14.76,0,0,1-10.06,12.05l-33.39,10.84A14.75,14.75,0,0,0,387,726.08l-8.35,33.13a14.74,14.74,0,0,1-21,9.55L328.63,754a14.75,14.75,0,0,0-12.14-.55l-37.58,15V634.94l34.62,5.75a14.78,14.78,0,0,0,13.55-4.89l21.79-25.12a14.76,14.76,0,0,0,3.26-12.86l-6.37-28.65a14.75,14.75,0,0,1,6-15.32l22.4-15.53a21,21,0,0,0,8.78-14.11l5.37-36h84.63a14.75,14.75,0,0,1,14,10.06l30.54,91.09A14.77,14.77,0,0,1,510.59,607Z"/><path class="b0fcf686-c7c2-47fe-85bf-47ffb8c23e84" d="M566.94,958.6,670.2,901.79a13.18,13.18,0,0,0,6-6.9l23.7-63.43a13.14,13.14,0,0,1,8.82-8.06L774,805.48a13.11,13.11,0,0,0,9.08-8.83l18.62-61.27a13.15,13.15,0,0,1,7.76-8.4l24.66-9.69a13.1,13.1,0,0,0,8.21-10.57l11.63-92a13.13,13.13,0,0,1,7.41-10.22l18.73-8.84V953.37a5.23,5.23,0,0,1-5.24,5.23Z"/><path class="b0fcf686-c7c2-47fe-85bf-47ffb8c23e84" d="M466.15,958.6,432,925.23a11.12,11.12,0,0,1-3.08-10.43l8.53-37.5a11.13,11.13,0,0,0-4-11.24l-26.49-20.7a11.13,11.13,0,0,0-15.07,1.27l-26.93,29.54a11.11,11.11,0,0,1-8.92,3.61l-27.33-1.72a11.26,11.26,0,0,1-6.2-2.38L297,855.47a11.12,11.12,0,0,0-14.57.67l-11.9,11.31a11.12,11.12,0,0,0-.62,15.47l23.69,26.52a11.1,11.1,0,0,1,2.81,8.19l-2.88,41Z"/><path class="fedea19b-cdc3-432e-a8c7-cbf829585514" d="M567.31,720.1l107-50.48a14.89,14.89,0,0,1,5.76-1.35l-25.59-12.49a14.77,14.77,0,0,0-12.8-.08l-106,50a14.82,14.82,0,0,0-7.93,17.44l10.15,35.75a14.8,14.8,0,0,1-3.1,13.8l-23.61,27A14.82,14.82,0,0,0,515,822.31l19.6,11.06a14.85,14.85,0,0,1,3.24-13.22l28.56-32.45a14.91,14.91,0,0,0,3.13-13.92l-10.24-36.09A14.93,14.93,0,0,1,567.31,720.1Z"/><path class="fedea19b-cdc3-432e-a8c7-cbf829585514" d="M697.09,926.28l23.7-63.42a13.16,13.16,0,0,1,8.82-8.07L795,836.88A13.12,13.12,0,0,0,804,828l18.62-61.27a13.11,13.11,0,0,1,7.76-8.39l24.66-9.69a13.13,13.13,0,0,0,8.21-10.57l11.63-92a13,13,0,0,1,5.21-8.81V595.62l-18.73,8.84A13.13,13.13,0,0,0,854,614.68l-11.63,92a13.1,13.1,0,0,1-8.21,10.57L809.48,727a13.15,13.15,0,0,0-7.76,8.4L783.1,796.65a13.11,13.11,0,0,1-9.08,8.83L708.68,823.4a13.14,13.14,0,0,0-8.82,8.06l-23.7,63.43a13.22,13.22,0,0,1-6,6.9L566.94,958.6h78l46.2-25.42A13.14,13.14,0,0,0,697.09,926.28Z"/><path class="fedea19b-cdc3-432e-a8c7-cbf829585514" d="M308.83,891.42l25.54,20.21a11.05,11.05,0,0,0,6.19,2.38l27.33,1.72a11.1,11.1,0,0,0,8.92-3.61l26.93-29.53a11.11,11.11,0,0,1,15.07-1.27l15,11.73,3.58-15.75a11.13,11.13,0,0,0-4-11.24l-26.49-20.7a11.13,11.13,0,0,0-15.07,1.27l-26.93,29.54a11.11,11.11,0,0,1-8.92,3.61l-27.33-1.72a11.26,11.26,0,0,1-6.2-2.38L297,855.47a11.12,11.12,0,0,0-14.57.67l-11.9,11.31a11.12,11.12,0,0,0-.62,15.47l15.64,17.51,8.76-8.34A11.13,11.13,0,0,1,308.83,891.42Z"/><path class="fedea19b-cdc3-432e-a8c7-cbf829585514" d="M278.91,667.24l61.34,10.17a13.76,13.76,0,0,0,12.62-4.55L375,647.31a14.73,14.73,0,0,0,3.26-12.86l-6.37-28.65a14.75,14.75,0,0,1,6-15.32l23.69-16.42a24.18,24.18,0,0,0,8.82-11.26l28.5-74.59H388.3l-5.37,36a21,21,0,0,1-8.78,14.11l-22.4,15.53a14.75,14.75,0,0,0-6,15.32l6.37,28.65a14.76,14.76,0,0,1-3.26,12.86L327.08,635.8a14.78,14.78,0,0,1-13.55,4.89l-34.62-5.75v32.3Z"/><path class="ba29b565-018f-43d2-8cbe-c7f5fe8dbe46" d="M535.54,963.84H283.6a89.06,89.06,0,0,1-89-89V488.21a5.23,5.23,0,0,1,5.23-5.23H807.74a5.23,5.23,0,1,1,0,10.46H205.12V874.88a78.57,78.57,0,0,0,78.48,78.49H535.54a5.24,5.24,0,1,1,0,10.47Z"/><path class="ba29b565-018f-43d2-8cbe-c7f5fe8dbe46" d="M874.88,963.84H566.94a5.24,5.24,0,0,1,0-10.47H874.88V493.44H839.14a5.23,5.23,0,0,1,0-10.46h35.74a10.48,10.48,0,0,1,10.47,10.46V953.37A10.49,10.49,0,0,1,874.88,963.84Z"/><path class="ba29b565-018f-43d2-8cbe-c7f5fe8dbe46" d="M564.61,853.31a20.12,20.12,0,0,1-9.87-2.58l-42.28-23.87a20,20,0,0,1-5.23-30.64l23.62-27a9.55,9.55,0,0,0,2-8.92L522.7,724.58A20,20,0,0,1,533.42,701l106-50a19.94,19.94,0,0,1,17.34.11l59.44,29a20,20,0,0,1,8.45,28.23l-9.26,15.61a9.53,9.53,0,0,0-.83,8L718.37,743a20.05,20.05,0,0,1-11.52,25l-44.12,17.69a9.59,9.59,0,0,0-5.79,6.83l-5.29,24.1A20.08,20.08,0,0,1,638,831.54l-67.49,20.88A19.88,19.88,0,0,1,564.61,853.31ZM648,659.51a9.6,9.6,0,0,0-4.08.92l-106,50a9.54,9.54,0,0,0-5.13,11.27l10.16,35.76a20,20,0,0,1-4.2,18.67l-23.62,27a9.59,9.59,0,0,0,2.51,14.64l42.27,23.87a9.65,9.65,0,0,0,7.54.81l67.49-20.89a9.59,9.59,0,0,0,6.52-7.09l5.29-24.1a20,20,0,0,1,12.12-14.3L703,758.35a9.57,9.57,0,0,0,5.49-12l-3.78-11.17a20,20,0,0,1,1.75-16.65L715.67,703a9.56,9.56,0,0,0-4-13.48l-59.44-29h0A9.6,9.6,0,0,0,648,659.51Z"/><path class="eb0cc590-c006-4ef4-a48a-0acee7867e14" d="M199.88,874.88c0-1.4.14-2.76.21-4.15l-.21.2Z"/><path class="eb0cc590-c006-4ef4-a48a-0acee7867e14" d="M278.91,795.86V409.19a78.82,78.82,0,0,0-31.4,6.51V802.37A78.82,78.82,0,0,1,278.91,795.86Z"/><path class="f17bb2e8-23ca-4d87-ac77-b75d4b556cae" d="M247.51,802.37V415.7a79,79,0,0,0-47.63,72.51V870.93l.21-.2A79,79,0,0,1,247.51,802.37Z"/><path class="ba29b565-018f-43d2-8cbe-c7f5fe8dbe46" d="M199.88,880.12a5.24,5.24,0,0,1-5.23-5.24V488.21A84.36,84.36,0,0,1,278.91,404a5.24,5.24,0,0,1,5.23,5.24V526.65a5.23,5.23,0,1,1-10.46,0v-112a73.89,73.89,0,0,0-68.56,73.61v346a84.37,84.37,0,0,1,68.56-43.45V558.05a5.23,5.23,0,1,1,10.46,0V795.86a5.23,5.23,0,0,1-5.23,5.23,73.87,73.87,0,0,0-73.79,73.79A5.24,5.24,0,0,1,199.88,880.12Z"/><path class="ba29b565-018f-43d2-8cbe-c7f5fe8dbe46" d="M364.37,775.6a19.94,19.94,0,0,1-9-2.18l-29.07-14.75a9.55,9.55,0,0,0-7.83-.35l-37.58,15a5.24,5.24,0,0,1-7.17-4.86V634.94a5.23,5.23,0,0,1,6.09-5.16l34.62,5.75a9.63,9.63,0,0,0,8.74-3.16l21.78-25.12A9.52,9.52,0,0,0,347,599l-6.37-28.65a19.89,19.89,0,0,1,8.13-20.75L371.16,534a15.72,15.72,0,0,0,6.59-10.58l5.37-36A5.24,5.24,0,0,1,388.3,483h84.63a20,20,0,0,1,18.94,13.62l30.54,91.1a20,20,0,0,1-9.29,23.84L456.1,643a9.57,9.57,0,0,0-4.83,7.06l-5.86,43.38a20.07,20.07,0,0,1-13.64,16.32l-33.39,10.85a9.42,9.42,0,0,0-6.28,6.72l-8.35,33.13a20,20,0,0,1-19.38,15.11ZM322,747.18a19.92,19.92,0,0,1,9,2.16l29.07,14.75a9.52,9.52,0,0,0,13.54-6.16L382,724.8a19.88,19.88,0,0,1,13.2-14.12l33.39-10.84a9.54,9.54,0,0,0,6.49-7.77l5.87-43.39A20.1,20.1,0,0,1,451,633.87l57-31.49h0A9.51,9.51,0,0,0,512.48,591L482,499.93a9.51,9.51,0,0,0-9-6.49H392.81L388.1,525a26.25,26.25,0,0,1-11,17.64l-22.39,15.53a9.45,9.45,0,0,0-3.87,9.88l6.37,28.65a20.08,20.08,0,0,1-4.42,17.43L331,639.23a20.12,20.12,0,0,1-18.36,6.62l-28.54-4.73V760.74l30.41-12.14A19.94,19.94,0,0,1,322,747.18Z"/><path class="ae5a92e3-09a6-42df-b79c-73ebf9f2378a" d="M751.19,335.51h0c-76.18-76.18-199.69-76.18-275.87,0h0c-76.17,76.17-76.17,199.68,0,275.86L613.26,749.3,751.19,611.37C827.37,535.19,827.37,411.68,751.19,335.51Z"/><path class="b86bd9f1-7c9c-4adb-9033-7f30474dcf7a" d="M496.25,361.67h0c76.18-76.18,199.69-76.18,275.87,0h0c1.26,1.25,2.43,2.55,3.64,3.83a195.9,195.9,0,0,0-24.57-30h0c-76.18-76.18-199.69-76.18-275.87,0h0c-74.92,74.92-76.1,195.59-3.64,272C421.24,531.77,429.42,428.5,496.25,361.67Z"/><path class="ba29b565-018f-43d2-8cbe-c7f5fe8dbe46" d="M613.26,754.53a5.22,5.22,0,0,1-3.7-1.53L471.62,615.07a200.31,200.31,0,0,1,0-283.26c78.1-78.1,205.17-78.1,283.27,0a200.31,200.31,0,0,1,0,283.26L617,753A5.25,5.25,0,0,1,613.26,754.53Zm0-470.84A189.77,189.77,0,0,0,479,607.67L613.26,741.9,747.49,607.67a189.83,189.83,0,0,0,0-268.46h0A189.24,189.24,0,0,0,613.26,283.69Z"/><path class="b6899ab2-f0bc-4a76-81a3-a52216aa6cf2" d="M669.69,398.16A94.06,94.06,0,0,1,538,529.88,94.1,94.1,0,1,0,669.69,398.16Z"/><path class="bb3abe16-87e8-4c69-8531-5fb4d15ec39e" d="M688.61,454.6a93.66,93.66,0,0,0-18.92-56.44A94.06,94.06,0,0,0,538,529.88,94.06,94.06,0,0,0,688.61,454.6Z"/><path class="ba29b565-018f-43d2-8cbe-c7f5fe8dbe46" d="M613.26,572.86a99.42,99.42,0,1,1,99.41-99.42A99.53,99.53,0,0,1,613.26,572.86Zm0-188.38a89,89,0,1,0,89,89A89.06,89.06,0,0,0,613.26,384.48Z"/><path class="ba29b565-018f-43d2-8cbe-c7f5fe8dbe46" d="M874.88,963.84H566.94a5.23,5.23,0,0,1-2.52-9.82L667.67,897.2a7.86,7.86,0,0,0,3.59-4.15L695,829.63a18.42,18.42,0,0,1,12.33-11.28l65.34-17.91a7.84,7.84,0,0,0,5.46-5.31l18.63-61.28a18.25,18.25,0,0,1,10.84-11.74l24.66-9.69a7.88,7.88,0,0,0,4.94-6.35L848.79,614a18.26,18.26,0,0,1,10.37-14.29l18.72-8.85a5.24,5.24,0,0,1,7.47,4.74V953.37A10.49,10.49,0,0,1,874.88,963.84ZM587.3,953.37H874.88V603.88l-11.25,5.31a7.85,7.85,0,0,0-4.46,6.15l-11.62,92a18.37,18.37,0,0,1-11.5,14.78l-24.66,9.69a7.86,7.86,0,0,0-4.66,5l-18.62,61.27a18.26,18.26,0,0,1-12.71,12.36l-65.34,17.91a7.93,7.93,0,0,0-5.3,4.85l-23.7,63.43a18.32,18.32,0,0,1-8.34,9.65Z"/><path class="ba29b565-018f-43d2-8cbe-c7f5fe8dbe46" d="M466.15,963.84H293.48a5.24,5.24,0,0,1-5.22-5.6l2.88-41a5.94,5.94,0,0,0-1.48-4.34L266,886.41a16.28,16.28,0,0,1,.92-22.75l11.89-11.31a16.44,16.44,0,0,1,21.43-1l25.53,20.21a5.85,5.85,0,0,0,3.29,1.25l27.31,1.73a6,6,0,0,0,4.74-1.91L388,843.11a16.44,16.44,0,0,1,22.16-1.87l26.49,20.7a16.44,16.44,0,0,1,5.88,16.52L434,916a5.9,5.9,0,0,0,1.63,5.51l34.2,33.38a5.24,5.24,0,0,1-3.66,9ZM299.09,953.37H453.3l-25-24.39a16.43,16.43,0,0,1-4.53-15.34l8.53-37.5a5.9,5.9,0,0,0-2.12-5.95l-26.49-20.7a5.89,5.89,0,0,0-8,.67L368.8,879.7a16.25,16.25,0,0,1-13.13,5.3l-27.31-1.72a16.25,16.25,0,0,1-9.12-3.5l-25.54-20.2a5.9,5.9,0,0,0-7.71.35L274.1,871.24a5.86,5.86,0,0,0-.34,8.19L297.46,906a16.49,16.49,0,0,1,4.12,12Z"/><path class="b284a310-ba2b-4aa7-b690-b26e4b924178" d="M885.35,362.09a5.22,5.22,0,0,1-3.7-1.53L866,344.86a5.23,5.23,0,0,1,7.4-7.4l15.7,15.7a5.23,5.23,0,0,1-3.7,8.93Z"/><path class="b284a310-ba2b-4aa7-b690-b26e4b924178" d="M922,398.72a5.22,5.22,0,0,1-3.7-1.53l-15.7-15.7a5.23,5.23,0,1,1,7.4-7.4l15.7,15.7a5.23,5.23,0,0,1-3.7,8.93Z"/><path class="b284a310-ba2b-4aa7-b690-b26e4b924178" d="M869.65,398.72a5.23,5.23,0,0,1-3.7-8.93l15.7-15.7a5.23,5.23,0,0,1,7.4,7.4l-15.7,15.7A5.22,5.22,0,0,1,869.65,398.72Z"/><path class="b284a310-ba2b-4aa7-b690-b26e4b924178" d="M906.28,362.09a5.23,5.23,0,0,1-3.7-8.93l15.7-15.7a5.23,5.23,0,1,1,7.4,7.4L910,360.56A5.22,5.22,0,0,1,906.28,362.09Z"/><path class="b284a310-ba2b-4aa7-b690-b26e4b924178" d="M948.14,712.67a5.22,5.22,0,0,1-3.7-1.53l-15.7-15.7a5.23,5.23,0,0,1,7.4-7.4l15.7,15.7a5.23,5.23,0,0,1-3.7,8.93Z"/><path class="b284a310-ba2b-4aa7-b690-b26e4b924178" d="M984.77,749.3a5.22,5.22,0,0,1-3.7-1.53l-15.7-15.7a5.23,5.23,0,1,1,7.4-7.4l15.7,15.7a5.23,5.23,0,0,1-3.7,8.93Z"/><path class="b284a310-ba2b-4aa7-b690-b26e4b924178" d="M932.44,749.3a5.23,5.23,0,0,1-3.7-8.93l15.7-15.7a5.23,5.23,0,1,1,7.4,7.4l-15.7,15.7A5.22,5.22,0,0,1,932.44,749.3Z"/><path class="b284a310-ba2b-4aa7-b690-b26e4b924178" d="M969.07,712.67a5.23,5.23,0,0,1-3.7-8.93l15.7-15.7a5.23,5.23,0,0,1,7.4,7.4l-15.7,15.7A5.22,5.22,0,0,1,969.07,712.67Z"/><path class="b284a310-ba2b-4aa7-b690-b26e4b924178" d="M613.26,142.33a5.23,5.23,0,0,1-3.7-1.54l-15.7-15.7a5.23,5.23,0,1,1,7.4-7.39L617,133.39a5.24,5.24,0,0,1-3.7,8.94Z"/><path class="b284a310-ba2b-4aa7-b690-b26e4b924178" d="M649.88,179a5.23,5.23,0,0,1-3.7-1.53l-15.69-15.7a5.23,5.23,0,0,1,7.4-7.4L653.58,170a5.23,5.23,0,0,1-3.7,8.93Z"/><path class="b284a310-ba2b-4aa7-b690-b26e4b924178" d="M597.56,179a5.23,5.23,0,0,1-3.7-8.93l15.7-15.7a5.23,5.23,0,1,1,7.4,7.4l-15.7,15.7A5.22,5.22,0,0,1,597.56,179Z"/><path class="b284a310-ba2b-4aa7-b690-b26e4b924178" d="M634.19,142.33a5.24,5.24,0,0,1-3.7-8.94l15.69-15.69a5.23,5.23,0,0,1,7.4,7.39l-15.69,15.7A5.24,5.24,0,0,1,634.19,142.33Z"/><path class="b284a310-ba2b-4aa7-b690-b26e4b924178" d="M341.16,288.84a5.2,5.2,0,0,1-3.7-1.54l-15.69-15.69a5.23,5.23,0,1,1,7.39-7.4l15.7,15.7a5.24,5.24,0,0,1-3.7,8.93Z"/><path class="b284a310-ba2b-4aa7-b690-b26e4b924178" d="M377.79,325.47a5.23,5.23,0,0,1-3.7-1.54l-15.7-15.7a5.23,5.23,0,0,1,7.4-7.39l15.7,15.69a5.24,5.24,0,0,1-3.7,8.94Z"/><path class="b284a310-ba2b-4aa7-b690-b26e4b924178" d="M325.47,325.47a5.24,5.24,0,0,1-3.7-8.94l15.69-15.69a5.23,5.23,0,0,1,7.4,7.39l-15.7,15.7A5.22,5.22,0,0,1,325.47,325.47Z"/><path class="b284a310-ba2b-4aa7-b690-b26e4b924178" d="M362.09,288.84a5.24,5.24,0,0,1-3.7-8.93l15.7-15.7a5.23,5.23,0,0,1,7.4,7.4l-15.7,15.69A5.19,5.19,0,0,1,362.09,288.84Z"/><path class="b284a310-ba2b-4aa7-b690-b26e4b924178" d="M110.93,791.16a5.22,5.22,0,0,1-3.7-1.53l-15.7-15.7a5.23,5.23,0,0,1,7.4-7.4l15.7,15.7a5.23,5.23,0,0,1-3.7,8.93Z"/><path class="b284a310-ba2b-4aa7-b690-b26e4b924178" d="M147.56,827.79a5.22,5.22,0,0,1-3.7-1.53l-15.7-15.7a5.23,5.23,0,1,1,7.4-7.4l15.7,15.7a5.23,5.23,0,0,1-3.7,8.93Z"/><path class="b284a310-ba2b-4aa7-b690-b26e4b924178" d="M95.23,827.79a5.23,5.23,0,0,1-3.7-8.93l15.7-15.7a5.23,5.23,0,1,1,7.4,7.4l-15.7,15.7A5.22,5.22,0,0,1,95.23,827.79Z"/><path class="b284a310-ba2b-4aa7-b690-b26e4b924178" d="M131.86,791.16a5.23,5.23,0,0,1-3.7-8.93l15.7-15.7a5.23,5.23,0,0,1,7.4,7.4l-15.7,15.7A5.22,5.22,0,0,1,131.86,791.16Z"/></svg>