<?xml version="1.0" encoding="UTF-8"?>
<svg id="Capa_1" data-name="Capa 1" xmlns="http://www.w3.org/2000/svg" viewBox="0 0 1080 1080">
  <defs>
    <style>
      .cls-1 {
        fill: #f6f6f6;
      }

      .cls-2 {
        fill: #fff;
      }

      .cls-3 {
        fill: #e4e4e4;
      }

      .cls-4 {
        fill: #9799a4;
      }

      .cls-5 {
        fill: #9c9aaa;
      }

      .cls-6 {
        fill: #65b3f0;
      }

      .cls-7 {
        fill: #2d3041;
      }

      .cls-8 {
        fill: #35384c;
      }

      .cls-9 {
        fill: #545869;
      }

      .cls-10 {
        fill: #76c6ef;
      }
    </style>
  </defs>
  <path class="cls-1" d="m865.7,610.65c10.54-64.01,82.96-139.36,58.19-204.38-24.77-65.02-129.18-73.72-179.72-114.71-52.14-42.29-82.47-141.62-148.86-152.43-64.35-10.49-124.42,72.97-189.78,97.61-65.36,24.64-165.55,2.05-207.16,52-70.66,84.82,5.47,152.15-5.4,218.19-10.54,64.01-87.5,133.46-62.73,198.48,24.77,65.02,129.18,73.71,179.72,114.71,52.14,42.29,82.47,141.62,148.86,152.43,64.35,10.49,124.42-72.97,189.78-97.61,65.36-24.64,165.95-1.73,207.16-52,42.52-51.86-.93-146.25,9.95-212.29Z"/>
  <path class="cls-4" d="m187.75,598.29v-225.16c40.77-40.77,63.63-63.63,104.4-104.4h192.51v84.58c0,5.77,4.67,10.44,10.44,10.44h21.29c11.31,0,22.46-3.35,31.54-10.08,10.3-7.62,23.12-12.03,36.98-11.74,31.28.66,57.43,26.27,58.69,57.54,1.38,34.28-26,62.51-59.98,62.51-13.11,0-25.23-4.2-35.1-11.33-9.37-6.76-20.57-10.5-32.13-10.5h-21.29c-5.77,0-10.44,4.67-10.44,10.44v147.63l-91.66.06c-5.77,0-10.45-4.67-10.45-10.44v-21.28c0-11.31,3.35-22.45,10.08-31.54,7.62-10.3,12.03-23.12,11.74-36.98-.66-31.28-26.27-57.43-57.54-58.69-34.28-1.38-62.51,26-62.51,59.98,0,13.1,4.2,25.23,11.33,35.1,6.76,9.37,10.5,20.57,10.5,32.13v21.29c0,5.77-4.67,10.44-10.44,10.44h-107.96Z"/>
  <path class="cls-7" d="m295.71,603.51h-107.96c-2.89,0-5.22-2.34-5.22-5.22v-225.16c0-1.38.55-2.71,1.53-3.69l104.4-104.4c.98-.98,2.3-1.53,3.69-1.53h192.51c2.89,0,5.22,2.34,5.22,5.22v84.58c0,2.88,2.34,5.22,5.22,5.22h21.29c10.46,0,20.55-3.21,28.44-9.05,11.69-8.66,25.63-12.97,40.19-12.76,33.82.71,62.43,28.77,63.79,62.55.72,17.95-5.71,34.96-18.13,47.89-12.42,12.93-29.13,20.05-47.06,20.05-13.8,0-27-4.26-38.15-12.32-8.63-6.22-18.68-9.51-29.07-9.51h-21.29c-2.88,0-5.22,2.34-5.22,5.22v147.63c0,2.88-2.33,5.22-5.21,5.22l-91.66.06h-.02c-4.18,0-8.11-1.63-11.07-4.58-2.96-2.96-4.59-6.89-4.59-11.08v-21.28c0-12.67,3.95-24.98,11.1-34.65,7.26-9.82,10.97-21.49,10.71-33.76-.6-28.4-24.16-52.44-52.53-53.58-15.09-.62-29.37,4.8-40.23,15.23-10.86,10.44-16.85,24.48-16.85,39.54,0,11.6,3.57,22.68,10.34,32.04,7.52,10.42,11.49,22.59,11.49,35.18v21.29c0,8.64-7.02,15.66-15.66,15.66Zm-102.74-10.44h102.74c2.88,0,5.22-2.34,5.22-5.22v-21.29c0-10.39-3.29-20.44-9.51-29.07-8.06-11.15-12.32-24.35-12.32-38.15,0-17.93,7.12-34.64,20.05-47.07,12.93-12.42,30.02-18.85,47.88-18.13,33.78,1.36,61.84,29.98,62.55,63.79.31,14.6-4.11,28.5-12.76,40.19-5.84,7.89-9.05,17.98-9.05,28.44v21.28c0,1.39.55,2.71,1.53,3.69.99.98,2.29,1.53,3.69,1.53h0l86.44-.06v-142.41c0-8.64,7.02-15.66,15.66-15.66h21.29c12.6,0,24.77,3.97,35.18,11.49,9.37,6.76,20.45,10.34,32.05,10.34,15.06,0,29.1-5.98,39.53-16.85,10.43-10.86,15.84-25.14,15.23-40.23-1.14-28.37-25.18-51.93-53.58-52.53-12.2-.32-23.94,3.45-33.76,10.72-9.67,7.16-21.97,11.1-34.64,11.1h-21.29c-8.64,0-15.66-7.02-15.66-15.66v-79.36h-185.13l-101.35,101.35v217.78Z"/>
  <path class="cls-6" d="m648.15,608.73v21.3c0,11.31-3.35,22.46-10.08,31.54-7.62,10.3-12.03,23.12-11.74,36.97.66,31.28,26.27,57.43,57.54,58.69,34.28,1.38,62.51-26,62.51-59.98,0-13.1-4.2-25.23-11.33-35.1-6.76-9.37-10.51-20.57-10.51-32.13v-21.36c0-5.77,4.67-10.44,10.44-10.44h79.18v-277.29c-40.77-40.77-63.63-63.63-104.4-104.4h-225.11s0,136.79,0,136.79c0,5.77,4.67,10.44,10.44,10.44h21.29c11.31,0,22.46-3.35,31.54-10.08,10.3-7.62,23.12-12.03,36.98-11.74,31.28.66,57.43,26.27,58.69,57.54,1.38,34.28-26,62.51-59.98,62.51-13.11,0-25.23-4.2-35.1-11.33-9.37-6.76-20.57-10.5-32.13-10.5h-21.29c-5.77,0-10.44,4.67-10.44,10.44v147.63l153.05.06c5.76,0,10.44,4.68,10.44,10.44Z"/>
  <path class="cls-8" d="m484.66,895.15h-140.31c-40.77-40.77-63.63-63.63-104.4-104.4v-192.46h55.76c5.77,0,10.44-4.67,10.44-10.44v-21.29c0-11.31-3.35-22.45-10.08-31.54-7.62-10.29-12.03-23.11-11.74-36.97.66-31.28,26.27-57.43,57.54-58.69,34.28-1.38,62.51,26,62.51,59.98,0,13.1-4.2,25.23-11.33,35.1-6.76,9.37-10.5,20.57-10.5,32.13v21.29c0,5.77,4.67,10.44,10.44,10.44h91.66v99.75c0,5.77-4.67,10.44-10.45,10.44h-21.29c-11.31,0-22.46-3.35-31.54-10.08-10.3-7.62-23.12-12.03-36.98-11.74-31.28.66-57.43,26.28-58.69,57.54-1.38,34.29,26,62.51,59.98,62.51,13.11,0,25.23-4.2,35.1-11.32,9.37-6.76,20.57-10.5,32.13-10.5h21.29c5.77,0,10.44,4.67,10.44,10.44v99.82Z"/>
  <path class="cls-3" d="m484.66,598.29h153.05c5.77,0,10.44,4.67,10.44,10.44v21.29c0,11.31-3.35,22.46-10.08,31.54-7.62,10.3-12.03,23.12-11.74,36.97.66,31.28,26.27,57.43,57.54,58.69,34.28,1.38,62.51-26,62.51-59.98,0-13.1-4.2-25.23-11.33-35.1-6.76-9.37-10.51-20.57-10.51-32.13v-21.29c0-5.77,4.67-10.44,10.44-10.44h131.38v140.25c-40.77,40.77-63.63,63.63-104.4,104.4h-277.31v-47.62c0-5.77-4.67-10.44-10.45-10.44h-21.29c-11.31,0-22.46,3.35-31.54,10.08-10.3,7.62-23.12,12.03-36.98,11.74-31.28-.66-57.43-26.27-58.69-57.54-1.38-34.29,26-62.51,59.98-62.51,13.11,0,25.23,4.2,35.1,11.32,9.37,6.76,20.57,10.5,32.13,10.5h21.29c5.77,0,10.44-4.67,10.44-10.44v-99.75Z"/>
  <path class="cls-10" d="m814.17,400.49v-79.56c-40.77-40.77-63.63-63.63-104.4-104.4h-225.11v136.79c0,5.77,4.67,10.44,10.45,10.44h21.29c11.31,0,22.46-3.35,31.55-10.08,10.29-7.62,23.11-12.03,36.97-11.74,31.28.66,57.42,26.27,58.69,57.53,1.39,34.29-26,62.52-59.98,62.52-13.11,0-25.23-4.2-35.1-11.32-9.37-6.76-20.57-10.5-32.13-10.5h-21.29c-5.77,0-10.44,4.67-10.44,10.44v147.63l145.07.06c69.59-49.47,135.42-113.96,184.44-197.79Z"/>
  <path class="cls-9" d="m327.06,734.15c.14-.64.27-1.29.43-1.93.38-1.56.85-3.08,1.35-4.59.05-.14.09-.29.14-.43,7.17-20.86,25.46-36.48,47.83-39.81.7-.11,1.39-.25,2.1-.33.9-.1,1.8-.13,2.71-.19.93-.07,1.85-.18,2.78-.2.25,0,.49.02.73.02.19,0,.37-.03.56-.03.72,0,1.44.06,2.16.09.73.03,1.46.04,2.19.09.96.07,1.9.19,2.84.3.69.08,1.38.14,2.06.25.98.15,1.94.36,2.9.56.62.13,1.25.23,1.87.38,1.05.25,2.07.56,3.09.86.51.15,1.04.28,1.53.44,1.52.49,3.01,1.05,4.47,1.65,0,0,.01,0,.02,0,1.45.61,2.88,1.27,4.28,1.99.46.24.91.51,1.37.77.92.5,1.84,1,2.73,1.55.54.33,1.05.7,1.57,1.04.68.45,1.37.88,2.03,1.35,2.83,2.05,5.85,3.78,8.98,5.25,17.73-6.69,36.1-14.2,54.88-22.62v-82.32h-91.66c-5.77,0-10.44-4.67-10.44-10.44v-21.29c0-11.55,3.74-22.76,10.5-32.13,7.13-9.87,11.33-21.99,11.33-35.1,0-33.98-28.23-61.36-62.51-59.98-31.27,1.26-56.88,27.41-57.54,58.69-.29,13.86,4.11,26.68,11.74,36.98,6.72,9.09,10.07,20.23,10.07,31.54v21.29c0,5.77-4.67,10.44-10.44,10.44h-55.76v155.92s34.07-4.36,86.68-18.11c.12-.66.29-1.3.43-1.95Z"/>
  <path class="cls-2" d="m629.72,598.29h-145.06v82.32c47.3-21.21,97.07-48.2,145.06-82.32Z"/>
  <path class="cls-7" d="m686.39,762.5c-.91,0-1.81-.02-2.72-.06-33.78-1.36-61.84-29.98-62.55-63.79-.31-14.6,4.11-28.5,12.76-40.19,5.84-7.88,9.05-17.98,9.05-28.44v-21.3c0-2.88-2.34-5.22-5.21-5.22l-153.05-.06c-2.89,0-5.22-2.34-5.22-5.22v-147.63c0-8.64,7.02-15.66,15.66-15.66h21.29c12.6,0,24.77,3.97,35.18,11.49,9.37,6.76,20.45,10.34,32.05,10.34,15.06,0,29.1-5.98,39.53-16.85,10.43-10.86,15.84-25.14,15.23-40.23-1.14-28.37-25.18-51.93-53.58-52.53-12.2-.32-23.94,3.45-33.76,10.71-9.67,7.16-21.98,11.1-34.65,11.1h-21.29c-8.64,0-15.66-7.02-15.66-15.66v-136.79c0-2.88,2.33-5.22,5.22-5.22h80.04c2.89,0,5.22,2.34,5.22,5.22s-2.33,5.22-5.22,5.22h-74.82v131.57c0,2.88,2.34,5.22,5.22,5.22h21.29c10.46,0,20.55-3.21,28.44-9.05,11.68-8.65,25.52-12.97,40.19-12.76,33.82.71,62.43,28.77,63.79,62.55.72,17.95-5.71,34.96-18.13,47.89-12.42,12.93-29.13,20.05-47.06,20.05-13.8,0-27-4.26-38.15-12.32-8.63-6.22-18.68-9.51-29.07-9.51h-21.29c-2.88,0-5.22,2.34-5.22,5.22v142.41l147.83.06c8.64,0,15.66,7.03,15.66,15.66v21.3c0,12.68-3.95,24.98-11.1,34.65-7.27,9.82-10.98,21.49-10.72,33.76.6,28.4,24.16,52.44,52.53,53.58,15.13.62,29.38-4.8,40.24-15.23,10.86-10.44,16.85-24.47,16.85-39.53,0-11.59-3.57-22.67-10.34-32.04-7.52-10.41-11.5-22.58-11.5-35.18v-21.36c0-8.64,7.02-15.66,15.66-15.66h73.96v-269.91l-101.35-101.35h-111.58c-2.89,0-5.22-2.34-5.22-5.22s2.33-5.22,5.22-5.22h113.74c1.39,0,2.71.55,3.69,1.53l104.4,104.4c.98.98,1.53,2.31,1.53,3.69v277.29c0,2.88-2.34,5.22-5.22,5.22h-79.18c-2.88,0-5.22,2.34-5.22,5.22v21.36c0,10.39,3.29,20.45,9.52,29.07,8.06,11.16,12.32,24.35,12.32,38.16,0,17.93-7.12,34.64-20.05,47.06-12.27,11.79-28.22,18.19-45.17,18.19Z"/>
  <path class="cls-7" d="m484.66,900.37h-140.31c-1.39,0-2.71-.55-3.69-1.53l-104.4-104.4c-.98-.98-1.53-2.31-1.53-3.69v-161.14c0-2.88,2.33-5.22,5.22-5.22s5.22,2.34,5.22,5.22v158.97l101.35,101.35h132.93v-94.6c0-2.88-2.34-5.22-5.22-5.22h-21.29c-10.39,0-20.45,3.29-29.07,9.52-11.15,8.06-24.35,12.31-38.15,12.31-17.93,0-34.64-7.12-47.06-20.05-12.42-12.93-18.86-29.93-18.13-47.89,1.36-33.78,29.98-61.84,63.79-62.55,14.72-.24,28.51,4.11,40.2,12.76,7.88,5.84,17.98,9.05,28.44,9.05h21.29c2.88,0,5.22-2.34,5.22-5.22v-94.53h-86.44c-8.64,0-15.66-7.02-15.66-15.66v-21.29c0-12.6,3.97-24.76,11.49-35.18,6.76-9.37,10.34-20.45,10.34-32.05,0-15.06-5.99-29.1-16.85-39.54-10.86-10.43-25.01-15.84-40.23-15.23-28.37,1.14-51.93,25.18-52.53,53.58-.26,12.27,3.45,23.94,10.71,33.76,7.16,9.67,11.1,21.98,11.1,34.65v21.29c0,8.64-7.02,15.66-15.66,15.66h-55.76c-2.89,0-5.22-2.34-5.22-5.22s2.33-5.22,5.22-5.22h55.76c2.88,0,5.22-2.34,5.22-5.22v-21.29c0-10.45-3.22-20.55-9.05-28.44-8.65-11.69-13.07-25.59-12.76-40.19.71-33.82,28.77-62.44,62.55-63.79,17.92-.8,34.96,5.72,47.88,18.13,12.93,12.42,20.06,29.14,20.06,47.07,0,13.8-4.26,27-12.32,38.16-6.22,8.63-9.51,18.68-9.51,29.07v21.29c0,2.88,2.34,5.22,5.22,5.22h91.66c2.89,0,5.22,2.34,5.22,5.22v99.75c0,8.64-7.02,15.66-15.66,15.66h-21.29c-12.68,0-24.98-3.94-34.65-11.1-9.81-7.27-21.29-10.98-33.76-10.72-28.4.6-52.44,24.16-53.58,52.53-.61,15.09,4.8,29.38,15.23,40.23,10.44,10.87,24.47,16.85,39.53,16.85,11.6,0,22.68-3.57,32.05-10.34,10.41-7.52,22.58-11.49,35.18-11.49h21.29c8.64,0,15.66,7.02,15.66,15.66v99.82c0,2.88-2.33,5.22-5.22,5.22Z"/>
  <path class="cls-7" d="m761.97,848.17h-277.31c-2.89,0-5.22-2.34-5.22-5.22v-47.62c0-2.88-2.34-5.22-5.22-5.22h-21.29c-10.46,0-20.55,3.21-28.44,9.05-11.69,8.66-25.62,13.03-40.19,12.77-33.82-.71-62.43-28.77-63.79-62.55-.72-17.95,5.72-34.96,18.13-47.89,12.42-12.93,29.13-20.05,47.06-20.05,13.8,0,27,4.26,38.15,12.31,8.63,6.22,18.68,9.51,29.07,9.51h21.29c2.88,0,5.22-2.34,5.22-5.22v-99.75c0-2.88,2.33-5.22,5.22-5.22h153.05c8.64,0,15.66,7.02,15.66,15.66v21.29c0,12.68-3.95,24.98-11.1,34.65-7.27,9.82-10.98,21.49-10.72,33.76.6,28.4,24.16,52.44,52.53,53.58,15.13.62,29.38-4.8,40.24-15.23,10.86-10.44,16.85-24.47,16.85-39.53,0-11.59-3.57-22.67-10.34-32.04-7.52-10.41-11.5-22.58-11.5-35.18v-21.29c0-8.64,7.02-15.66,15.66-15.66h131.38c2.89,0,5.22,2.34,5.22,5.22v51c0,2.88-2.34,5.22-5.22,5.22s-5.22-2.34-5.22-5.22v-45.78h-126.16c-2.88,0-5.22,2.34-5.22,5.22v21.29c0,10.39,3.29,20.45,9.52,29.07,8.06,11.16,12.32,24.35,12.32,38.16,0,17.93-7.12,34.64-20.05,47.06-12.93,12.42-30.08,18.87-47.89,18.13-33.78-1.36-61.84-29.98-62.55-63.79-.31-14.6,4.11-28.5,12.76-40.19,5.84-7.88,9.05-17.98,9.05-28.44v-21.29c0-2.88-2.34-5.22-5.22-5.22h-147.83v94.53c0,8.64-7.02,15.66-15.66,15.66h-21.29c-12.6,0-24.77-3.97-35.18-11.49-9.37-6.76-20.45-10.34-32.05-10.34-15.06,0-29.1,5.98-39.53,16.85-10.43,10.86-15.84,25.15-15.23,40.23,1.14,28.37,25.18,51.93,53.58,52.53,12.31.36,23.94-3.45,33.76-10.72,9.67-7.16,21.97-11.1,34.64-11.1h21.29c8.64,0,15.67,7.02,15.67,15.66v42.4h269.93l101.35-101.35v-55.78c0-2.88,2.33-5.22,5.22-5.22s5.22,2.34,5.22,5.22v57.94c0,1.38-.55,2.71-1.53,3.69l-104.4,104.4c-.98.98-2.3,1.53-3.69,1.53Z"/>
  <path class="cls-5" d="m213.85,942.13c-1.34,0-2.67-.51-3.69-1.53l-15.66-15.66c-2.04-2.04-2.04-5.34,0-7.38,2.04-2.04,5.34-2.04,7.38,0l15.66,15.66c2.04,2.04,2.04,5.34,0,7.38-1.02,1.02-2.35,1.53-3.69,1.53Z"/>
  <path class="cls-5" d="m250.39,978.67c-1.34,0-2.67-.51-3.69-1.53l-15.66-15.66c-2.04-2.04-2.04-5.34,0-7.38,2.04-2.04,5.34-2.04,7.38,0l15.66,15.66c2.04,2.04,2.04,5.34,0,7.38-1.02,1.02-2.35,1.53-3.69,1.53Z"/>
  <path class="cls-5" d="m198.19,978.67c-1.34,0-2.67-.51-3.69-1.53-2.04-2.04-2.04-5.34,0-7.38l15.66-15.66c2.04-2.04,5.34-2.04,7.38,0,2.04,2.04,2.04,5.34,0,7.38l-15.66,15.66c-1.02,1.02-2.35,1.53-3.69,1.53Z"/>
  <path class="cls-5" d="m234.73,942.13c-1.34,0-2.67-.51-3.69-1.53-2.04-2.04-2.04-5.34,0-7.38l15.66-15.66c2.04-2.04,5.34-2.04,7.38,0,2.04,2.04,2.04,5.34,0,7.38l-15.66,15.66c-1.02,1.02-2.35,1.53-3.69,1.53Z"/>
  <path class="cls-5" d="m934.24,759.43c-1.34,0-2.67-.51-3.69-1.53l-15.66-15.66c-2.04-2.04-2.04-5.34,0-7.38,2.04-2.04,5.34-2.04,7.38,0l15.66,15.66c2.04,2.04,2.04,5.34,0,7.38-1.02,1.02-2.35,1.53-3.69,1.53Z"/>
  <path class="cls-5" d="m970.78,795.97c-1.34,0-2.67-.51-3.69-1.53l-15.66-15.66c-2.04-2.04-2.04-5.34,0-7.38,2.04-2.04,5.34-2.04,7.38,0l15.66,15.66c2.04,2.04,2.04,5.34,0,7.38-1.02,1.02-2.35,1.53-3.69,1.53Z"/>
  <path class="cls-5" d="m918.58,795.97c-1.34,0-2.67-.51-3.69-1.53-2.04-2.04-2.04-5.34,0-7.38l15.66-15.66c2.04-2.04,5.34-2.04,7.38,0,2.04,2.04,2.04,5.34,0,7.38l-15.66,15.66c-1.02,1.02-2.35,1.53-3.69,1.53Z"/>
  <path class="cls-5" d="m955.12,759.43c-1.34,0-2.67-.51-3.69-1.53-2.04-2.04-2.04-5.34,0-7.38l15.66-15.66c2.04-2.04,5.34-2.04,7.38,0,2.04,2.04,2.04,5.34,0,7.38l-15.66,15.66c-1.02,1.02-2.35,1.53-3.69,1.53Z"/>
  <path class="cls-5" d="m840.27,242.63c-1.34,0-2.67-.51-3.69-1.53l-15.66-15.66c-2.04-2.04-2.04-5.34,0-7.38,2.04-2.04,5.34-2.04,7.38,0l15.66,15.66c2.04,2.04,2.04,5.34,0,7.38-1.02,1.02-2.35,1.53-3.69,1.53Z"/>
  <path class="cls-5" d="m876.82,279.17c-1.34,0-2.67-.51-3.69-1.53l-15.66-15.66c-2.04-2.04-2.04-5.34,0-7.38,2.04-2.04,5.34-2.04,7.38,0l15.66,15.66c2.04,2.04,2.04,5.34,0,7.38-1.02,1.02-2.35,1.53-3.69,1.53Z"/>
  <path class="cls-5" d="m824.61,279.17c-1.34,0-2.67-.51-3.69-1.53-2.04-2.04-2.04-5.34,0-7.38l15.66-15.66c2.04-2.04,5.34-2.04,7.38,0,2.04,2.04,2.04,5.34,0,7.38l-15.66,15.66c-1.02,1.02-2.35,1.53-3.69,1.53Z"/>
  <path class="cls-5" d="m861.16,242.63c-1.34,0-2.67-.51-3.69-1.53-2.04-2.04-2.04-5.34,0-7.38l15.66-15.66c2.04-2.04,5.34-2.04,7.38,0,2.04,2.04,2.04,5.34,0,7.38l-15.66,15.66c-1.02,1.02-2.35,1.53-3.69,1.53Z"/>
  <path class="cls-5" d="m365.24,159.1c-1.34,0-2.67-.51-3.69-1.53l-15.66-15.66c-2.04-2.04-2.04-5.34,0-7.38,2.04-2.04,5.34-2.04,7.38,0l15.66,15.66c2.04,2.04,2.04,5.34,0,7.38-1.02,1.02-2.35,1.53-3.69,1.53Z"/>
  <path class="cls-5" d="m401.78,195.64c-1.34,0-2.67-.51-3.69-1.53l-15.66-15.66c-2.04-2.04-2.04-5.34,0-7.38,2.04-2.04,5.34-2.04,7.38,0l15.66,15.66c2.04,2.04,2.04,5.34,0,7.38-1.02,1.02-2.35,1.53-3.69,1.53Z"/>
  <path class="cls-5" d="m349.58,195.64c-1.34,0-2.67-.51-3.69-1.53-2.04-2.04-2.04-5.34,0-7.38l15.66-15.66c2.04-2.04,5.34-2.04,7.38,0,2.04,2.04,2.04,5.34,0,7.38l-15.66,15.66c-1.02,1.02-2.35,1.53-3.69,1.53Z"/>
  <path class="cls-5" d="m386.12,159.1c-1.34,0-2.67-.51-3.69-1.53-2.04-2.04-2.04-5.34,0-7.38l15.66-15.66c2.04-2.04,5.34-2.04,7.38,0,2.04,2.04,2.04,5.34,0,7.38l-15.66,15.66c-1.02,1.02-2.35,1.53-3.69,1.53Z"/>
  <path class="cls-5" d="m99.01,503.64c-1.34,0-2.67-.51-3.69-1.53l-15.66-15.66c-2.04-2.04-2.04-5.34,0-7.38,2.04-2.04,5.34-2.04,7.38,0l15.66,15.66c2.04,2.04,2.04,5.34,0,7.38-1.02,1.02-2.35,1.53-3.69,1.53Z"/>
  <path class="cls-5" d="m135.55,540.18c-1.34,0-2.67-.51-3.69-1.53l-15.66-15.66c-2.04-2.04-2.04-5.34,0-7.38,2.04-2.04,5.34-2.04,7.38,0l15.66,15.66c2.04,2.04,2.04,5.34,0,7.38-1.02,1.02-2.35,1.53-3.69,1.53Z"/>
  <path class="cls-5" d="m83.34,540.18c-1.34,0-2.67-.51-3.69-1.53-2.04-2.04-2.04-5.34,0-7.38l15.66-15.66c2.04-2.04,5.34-2.04,7.38,0,2.04,2.04,2.04,5.34,0,7.38l-15.66,15.66c-1.02,1.02-2.35,1.53-3.69,1.53Z"/>
  <path class="cls-5" d="m119.89,503.64c-1.34,0-2.67-.51-3.69-1.53-2.04-2.04-2.04-5.34,0-7.38l15.66-15.66c2.04-2.04,5.34-2.04,7.38,0,2.04,2.04,2.04,5.34,0,7.38l-15.66,15.66c-1.02,1.02-2.35,1.53-3.69,1.53Z"/>
</svg>