<svg id="a288c70d-8653-416f-bbbd-9c8728b0f55f" data-name="Capa 1" xmlns="http://www.w3.org/2000/svg" xmlns:xlink="http://www.w3.org/1999/xlink" viewBox="0 0 1080 1080"><defs><style>.ebacacaf-2e76-403e-b761-6aa4103a98f9{fill:none;}.eb9f247e-989a-4f2b-9984-f12431ecf6b4{fill:#f6f6f6;}.baecfe38-3fc3-4be7-9795-8687746d3e37{fill:#fff;}.a2777c5e-9d69-49dd-949a-1a70eecd6b57{fill:#989aa6;}.abcd9c95-62f5-4177-8956-c72851143ce2{fill:#ededed;}.a0eaa076-d7ee-4362-a4ef-a2d185eaaae2{clip-path:url(#e8331249-e697-48f9-bd85-66c98a108ebe);}.a69dac1a-fb9d-42fe-b575-40a15b00975a{fill:#282c3f;}.afb6fbc3-f97a-4f75-8f27-6e9fc843ed2a{fill:#52576a;}.aa7b953f-f75b-4c87-b8be-c889e906354a{fill:#30354c;}.f2a99d52-cae9-4524-b2cb-7e4ae8ddb537{fill:#2fc8f2;}.e126df2e-1c9b-4182-aba7-b1232de1ff14{fill:#2caae6;}.ad8cc819-7822-4e11-be1d-ce7917b14322{fill:#34234d;}.f7cb38c5-3589-4180-9448-909b2135a86d{fill:#b8b5c6;}.aab49e30-4c02-447a-8448-f2d38911e8c7{fill:#a09cad;}</style><clipPath id="e8331249-e697-48f9-bd85-66c98a108ebe"><circle class="ebacacaf-2e76-403e-b761-6aa4103a98f9" cx="540" cy="540" r="340.12"/></clipPath></defs><title>ICONS S2R</title><path class="eb9f247e-989a-4f2b-9984-f12431ecf6b4" d="M855.36,365.68c-34-62.3-24.25-172.13-84.5-209.07-58.41-35.8-149.74,22.62-223,21s-162-64-221.87-30.8c-61.8,34.25-56.84,144.4-93.49,205.14C197,410.82,96.85,456.36,95.25,530.2s96.46,123.74,129.39,184.12c34,62.3,24.25,172.13,84.5,209.07,58.41,35.8,149.74-22.62,223-21s162,64,221.87,30.8c61.8-34.25,56.84-144.4,93.49-205.14C883,669.18,983.15,623.64,984.75,549.8S888.29,426.06,855.36,365.68Z"/><circle class="baecfe38-3fc3-4be7-9795-8687746d3e37" cx="142.33" cy="749.3" r="47.09"/><path class="a2777c5e-9d69-49dd-949a-1a70eecd6b57" d="M142.33,801.63a52.33,52.33,0,1,1,52.32-52.33A52.38,52.38,0,0,1,142.33,801.63Zm0-94.19a41.86,41.86,0,1,0,41.86,41.86A41.9,41.9,0,0,0,142.33,707.44Z"/><circle class="a2777c5e-9d69-49dd-949a-1a70eecd6b57" cx="142.33" cy="749.3" r="20.93"/><circle class="baecfe38-3fc3-4be7-9795-8687746d3e37" cx="278.37" cy="911.51" r="47.09"/><path class="a2777c5e-9d69-49dd-949a-1a70eecd6b57" d="M278.37,963.84a52.33,52.33,0,1,1,52.33-52.33A52.39,52.39,0,0,1,278.37,963.84Zm0-94.19a41.86,41.86,0,1,0,41.86,41.86A41.91,41.91,0,0,0,278.37,869.65Z"/><circle class="a2777c5e-9d69-49dd-949a-1a70eecd6b57" cx="278.37" cy="911.51" r="20.93"/><circle class="baecfe38-3fc3-4be7-9795-8687746d3e37" cx="765" cy="827.79" r="47.09"/><path class="a2777c5e-9d69-49dd-949a-1a70eecd6b57" d="M765,880.12a52.33,52.33,0,1,1,52.33-52.33A52.4,52.4,0,0,1,765,880.12Zm0-94.19a41.86,41.86,0,1,0,41.86,41.86A41.91,41.91,0,0,0,765,785.93Z"/><circle class="a2777c5e-9d69-49dd-949a-1a70eecd6b57" cx="765" cy="827.79" r="20.93"/><circle class="baecfe38-3fc3-4be7-9795-8687746d3e37" cx="937.67" cy="681.28" r="47.09"/><path class="a2777c5e-9d69-49dd-949a-1a70eecd6b57" d="M937.67,733.6A52.33,52.33,0,1,1,990,681.28,52.38,52.38,0,0,1,937.67,733.6Zm0-94.18a41.86,41.86,0,1,0,41.86,41.86A41.91,41.91,0,0,0,937.67,639.42Z"/><circle class="a2777c5e-9d69-49dd-949a-1a70eecd6b57" cx="937.67" cy="681.28" r="20.93"/><circle class="baecfe38-3fc3-4be7-9795-8687746d3e37" cx="916.74" cy="335.93" r="47.09"/><path class="a2777c5e-9d69-49dd-949a-1a70eecd6b57" d="M916.74,388.26a52.33,52.33,0,1,1,52.33-52.33A52.39,52.39,0,0,1,916.74,388.26Zm0-94.19a41.86,41.86,0,1,0,41.86,41.86A41.91,41.91,0,0,0,916.74,294.07Z"/><circle class="a2777c5e-9d69-49dd-949a-1a70eecd6b57" cx="916.74" cy="335.93" r="20.93"/><circle class="baecfe38-3fc3-4be7-9795-8687746d3e37" cx="717.91" cy="226.05" r="47.09"/><path class="a2777c5e-9d69-49dd-949a-1a70eecd6b57" d="M717.91,278.37a52.33,52.33,0,1,1,52.32-52.32A52.38,52.38,0,0,1,717.91,278.37Zm0-94.18a41.86,41.86,0,1,0,41.86,41.86A41.91,41.91,0,0,0,717.91,184.19Z"/><circle class="a2777c5e-9d69-49dd-949a-1a70eecd6b57" cx="717.91" cy="226.05" r="20.93"/><circle class="baecfe38-3fc3-4be7-9795-8687746d3e37" cx="299.3" cy="168.49" r="47.09"/><path class="a2777c5e-9d69-49dd-949a-1a70eecd6b57" d="M299.3,220.81a52.33,52.33,0,1,1,52.33-52.32A52.38,52.38,0,0,1,299.3,220.81Zm0-94.18a41.86,41.86,0,1,0,41.86,41.86A41.91,41.91,0,0,0,299.3,126.63Z"/><circle class="a2777c5e-9d69-49dd-949a-1a70eecd6b57" cx="299.3" cy="168.49" r="20.93"/><circle class="baecfe38-3fc3-4be7-9795-8687746d3e37" cx="220.81" cy="367.33" r="47.09"/><path class="a2777c5e-9d69-49dd-949a-1a70eecd6b57" d="M220.81,419.65a52.33,52.33,0,1,1,52.33-52.32A52.38,52.38,0,0,1,220.81,419.65Zm0-94.18a41.86,41.86,0,1,0,41.86,41.86A41.9,41.9,0,0,0,220.81,325.47Z"/><circle class="a2777c5e-9d69-49dd-949a-1a70eecd6b57" cx="220.81" cy="367.33" r="20.93"/><circle class="baecfe38-3fc3-4be7-9795-8687746d3e37" cx="540" cy="540" r="340.12"/><path class="abcd9c95-62f5-4177-8956-c72851143ce2" d="M752.86,274.81a338.62,338.62,0,0,1,74.93,212.86c0,187.84-152.28,340.12-340.12,340.12a338.62,338.62,0,0,1-212.86-74.93C337.15,830.42,432.75,880.12,540,880.12c187.84,0,340.12-152.28,340.12-340.12C880.12,432.75,830.42,337.15,752.86,274.81Z"/><g class="a0eaa076-d7ee-4362-a4ef-a2d185eaaae2"><path class="baecfe38-3fc3-4be7-9795-8687746d3e37" d="M403.76,452.31c-9.41-.5-17.2,7.26-17.19,16.92v-29.7c0-9.16-6.63-17.37-15.45-17.84-9.42-.5-17.19,7.26-17.19,16.91V420.24c0-9.17-6.63-17.39-15.46-17.85-9.41-.49-17.16,7.28-17.17,16.91V455h0c0-10.43-9.12-18.69-19.55-16.6-7.75,1.56-13.08,9.07-13.08,17.26v80.14h0c0-12.71-10.27-22.7-22-20.06-8.59,1.94-14.45,11-14.45,20.83V593a38.57,38.57,0,0,0,9.44,25.61l18.67,19.61a30.57,30.57,0,0,1,8.33,21.07v42H396.53V664.33a63.9,63.9,0,0,1,6.43-28l9.82-20.17a64,64,0,0,0,6.42-28v-118C419.2,461,412.58,452.79,403.76,452.31Z"/><path class="abcd9c95-62f5-4177-8956-c72851143ce2" d="M403.76,452.31c-9.41-.5-17.2,7.26-17.19,16.92V583a64,64,0,0,1-6.43,28l-9.82,20.17a64,64,0,0,0-6.42,28v42.17h32.64V664.33a63.9,63.9,0,0,1,6.43-28l9.82-20.17a64,64,0,0,0,6.42-28v-118C419.2,461,412.58,452.79,403.76,452.31Z"/><path class="a69dac1a-fb9d-42fe-b575-40a15b00975a" d="M396.53,706.5a5.23,5.23,0,0,1-5.23-5.23V664.33a69.5,69.5,0,0,1,6.95-30.27l9.82-20.17A59,59,0,0,0,414,588.2v-118c0-6.65-4.7-12.31-10.49-12.62a10.74,10.74,0,0,0-8,3,12,12,0,0,0-3.68,8.71,5.23,5.23,0,0,1-5.22,5.24h0a5.24,5.24,0,0,1-5.23-5.22V439.53c0-6.65-4.71-12.31-10.5-12.61a10.75,10.75,0,0,0-8,3,12,12,0,0,0-3.68,8.7h0a5.23,5.23,0,1,1-10.46,0h0V420.24c0-6.66-4.71-12.32-10.5-12.62a10.55,10.55,0,0,0-8,3,12.06,12.06,0,0,0-3.69,8.7V455h0a5.23,5.23,0,0,1-5.23,5.23h0a5.24,5.24,0,0,1-5.22-5.24v-.5a11.81,11.81,0,0,0-4.29-8.73,10.67,10.67,0,0,0-9-2.24c-5.05,1-8.87,6.23-8.87,12.13v80.14a5.23,5.23,0,0,1-5.23,5.23h0a5.23,5.23,0,0,1-5.23-5.23v-.51a16.07,16.07,0,0,0-5.7-12.11,11.49,11.49,0,0,0-9.9-2.33c-5.91,1.33-10.37,8.09-10.37,15.72V593a33.56,33.56,0,0,0,8.12,22.13l18.55,19.48a35.62,35.62,0,0,1,9.78,24.67v42a5.24,5.24,0,0,1-10.47,0v-42a25.19,25.19,0,0,0-6.89-17.45l-18.67-19.61A43.67,43.67,0,0,1,247,593V536.55c0-12.6,7.79-23.51,18.53-25.93a21.72,21.72,0,0,1,17.9,3.73V455.64c0-11,7.26-20.38,17.28-22.39A21.27,21.27,0,0,1,316.05,436V419.3A22.51,22.51,0,0,1,323,403a21,21,0,0,1,15.74-5.84c11.24.58,20.1,10.37,20.41,22.42a21,21,0,0,1,12.23-3.12c11.45.6,20.41,10.74,20.41,23.06v10.68A21.07,21.07,0,0,1,404,447.09c11.44.61,20.39,10.75,20.39,23.07v118a69.5,69.5,0,0,1-6.95,30.27l-9.82,20.17a59,59,0,0,0-5.9,25.69v36.94A5.23,5.23,0,0,1,396.53,706.5Z"/><path class="a69dac1a-fb9d-42fe-b575-40a15b00975a" d="M321.28,532a5.23,5.23,0,0,1-5.23-5.23V455a5.23,5.23,0,0,1,10.46,0v71.74A5.23,5.23,0,0,1,321.28,532Z"/><path class="a69dac1a-fb9d-42fe-b575-40a15b00975a" d="M386.56,532.17a5.24,5.24,0,0,1-5.24-5.23V469.23a5.24,5.24,0,0,1,10.47,0v57.71A5.23,5.23,0,0,1,386.56,532.17Z"/><path class="a69dac1a-fb9d-42fe-b575-40a15b00975a" d="M300.43,595.5a5.22,5.22,0,0,1-3.91-1.75l-7.29-8.19a23.49,23.49,0,0,1-5.82-15.66V535.78a5.24,5.24,0,0,1,10.47,0V569.9a13.15,13.15,0,0,0,3.17,8.7l7.29,8.19a5.24,5.24,0,0,1-3.91,8.71Z"/><path class="a69dac1a-fb9d-42fe-b575-40a15b00975a" d="M353.92,532.06h0a5.23,5.23,0,0,1-5.23-5.23V438.6a5.23,5.23,0,0,1,5.23-5.23h0a5.23,5.23,0,0,1,5.23,5.23v88.23A5.23,5.23,0,0,1,353.92,532.06Z"/><rect class="afb6fbc3-f97a-4f75-8f27-6e9fc843ed2a" x="277.62" y="729.4" width="127.06" height="150.72"/><rect class="aa7b953f-f75b-4c87-b8be-c889e906354a" x="309.02" y="729.4" width="95.67" height="150.72"/><rect class="afb6fbc3-f97a-4f75-8f27-6e9fc843ed2a" x="277.62" y="664.46" width="130.69" height="64.94"/><path class="a69dac1a-fb9d-42fe-b575-40a15b00975a" d="M404.68,885.35H277.62a5.23,5.23,0,0,1-5.23-5.23V729.4a5.24,5.24,0,0,1,5.23-5.24H404.68a5.24,5.24,0,0,1,5.23,5.24V880.12A5.23,5.23,0,0,1,404.68,885.35ZM282.85,874.88h116.6V734.63H282.85Z"/><path class="a69dac1a-fb9d-42fe-b575-40a15b00975a" d="M408.31,734.63H277.62a5.23,5.23,0,0,1-5.23-5.23V664.46a5.24,5.24,0,0,1,5.23-5.24H408.31a5.24,5.24,0,0,1,5.23,5.24V729.4A5.23,5.23,0,0,1,408.31,734.63ZM282.85,724.16H403.08V669.69H282.85Z"/><path class="baecfe38-3fc3-4be7-9795-8687746d3e37" d="M313.3,696.93a7.6,7.6,0,1,1-7.6-7.6A7.6,7.6,0,0,1,313.3,696.93Z"/><path class="baecfe38-3fc3-4be7-9795-8687746d3e37" d="M665.62,413.89c0-11.54-7.13-22.14-17.57-24.42-14.24-3.09-26.74,8.61-26.73,23.52h0V319c0-9.6-6.48-18.41-15.91-20.23a19.85,19.85,0,0,0-23.77,19.46h0V276.44a19.86,19.86,0,0,0-20.89-19.82c-10.73.54-18.8,10.17-18.8,20.92v21.52A19.85,19.85,0,0,0,521,279.24c-10.73.55-18.79,10.17-18.79,20.92V335a19.84,19.84,0,0,0-20.9-19.83c-10.73.55-18.78,10.18-18.78,20.92V474.44a72.85,72.85,0,0,0,7.81,32.8l11.94,23.64a72.77,72.77,0,0,1,7.82,32.81V607H621.3V557.76a35.15,35.15,0,0,1,10.14-24.69l22.71-23a44.3,44.3,0,0,0,11.47-30Z"/><path class="abcd9c95-62f5-4177-8956-c72851143ce2" d="M665.62,413.89c0-11.54-7.13-22.14-17.57-24.42-14.24-3.09-26.74,8.61-26.73,23.52h0v30.44a44.31,44.31,0,0,1-11.48,30l-22.7,23A35.11,35.11,0,0,0,577,521.13V607h44.3V557.76a35.15,35.15,0,0,1,10.14-24.69l22.71-23a44.3,44.3,0,0,0,11.47-30Z"/><path class="a69dac1a-fb9d-42fe-b575-40a15b00975a" d="M621.3,612.22a5.23,5.23,0,0,1-5.23-5.23V557.76a40.13,40.13,0,0,1,11.65-28.37l22.7-23a39.23,39.23,0,0,0,10-26.34V413.89c0-9.34-5.78-17.63-13.45-19.3a15.65,15.65,0,0,0-13.4,3.19,19.57,19.57,0,0,0-7,15.21H616.08c0-.27,0-.54,0-.81V319c0-7.32-5-13.81-11.67-15.09a14.62,14.62,0,0,0-17.55,14.31,5.24,5.24,0,1,1-10.47,0V276.44A14.63,14.63,0,0,0,561,261.84c-7.63.39-13.84,7.43-13.84,15.7v21.52h0a5.24,5.24,0,1,1-10.47,0h0a14.44,14.44,0,0,0-4.55-10.59,14.61,14.61,0,0,0-10.85-4c-7.62.39-13.82,7.43-13.82,15.69l0,34.83a5.24,5.24,0,0,1-5.23,5.22h0A5.23,5.23,0,0,1,497,335h0a14.6,14.6,0,0,0-15.4-14.59c-7.62.39-13.82,7.43-13.82,15.69V474.44A67.86,67.86,0,0,0,475,504.88L487,528.53a78.32,78.32,0,0,1,8.38,35.16V607a5.24,5.24,0,0,1-10.47,0v-43.3a67.77,67.77,0,0,0-7.25-30.45L465.69,509.6a78.44,78.44,0,0,1-8.37-35.16V336.06c0-14,10.43-25.46,23.74-26.14a24.84,24.84,0,0,1,16,4.66V300.16c0-14,10.44-25.46,23.76-26.14a24.89,24.89,0,0,1,15.93,4.65v-1.13c0-13.76,10.66-25.49,23.77-26.15A24.92,24.92,0,0,1,579,258.25a25.25,25.25,0,0,1,7.81,18.19V297.9a25.19,25.19,0,0,1,19.54-4.23c11.68,2.25,20.15,12.92,20.15,25.37V390l.44-.35a26,26,0,0,1,22.18-5.27c12.57,2.74,21.69,15.15,21.7,29.53v66.17A49.23,49.23,0,0,1,658,513.63l-22.82,23.11a29.72,29.72,0,0,0-8.63,21V607A5.24,5.24,0,0,1,621.3,612.22Z"/><path class="a69dac1a-fb9d-42fe-b575-40a15b00975a" d="M581.63,407.6a5.23,5.23,0,0,1-5.23-5.23v-84.1a5.23,5.23,0,0,1,10.46,0v84.1A5.23,5.23,0,0,1,581.63,407.6Z"/><path class="a69dac1a-fb9d-42fe-b575-40a15b00975a" d="M502.25,407.85a5.24,5.24,0,0,1-5.24-5.23V335a5.24,5.24,0,0,1,10.47,0v67.65A5.23,5.23,0,0,1,502.25,407.85Z"/><path class="a69dac1a-fb9d-42fe-b575-40a15b00975a" d="M607,482.09a5.23,5.23,0,0,1-3.84-8.78l8.87-9.6A15.91,15.91,0,0,0,616.08,453V413a5.23,5.23,0,0,1,5.23-5.23h0a5.23,5.23,0,0,1,5.23,5.23v40a26.16,26.16,0,0,1-6.85,17.82l-8.87,9.6A5.21,5.21,0,0,1,607,482.09Z"/><path class="a69dac1a-fb9d-42fe-b575-40a15b00975a" d="M541.94,407.73a5.24,5.24,0,0,1-5.24-5.23V299.06a5.24,5.24,0,0,1,10.47,0V402.5A5.23,5.23,0,0,1,541.94,407.73Z"/><rect class="f2a99d52-cae9-4524-b2cb-7e4ae8ddb537" x="480.21" y="646.29" width="150.1" height="233.82" transform="translate(1110.51 1526.41) rotate(180)"/><rect class="e126df2e-1c9b-4182-aba7-b1232de1ff14" x="511.6" y="646.29" width="118.71" height="233.82" transform="translate(1141.91 1526.41) rotate(180)"/><rect class="f2a99d52-cae9-4524-b2cb-7e4ae8ddb537" x="475.79" y="563.84" width="158.93" height="82.46" transform="translate(1110.51 1210.13) rotate(180)"/><path class="ad8cc819-7822-4e11-be1d-ce7917b14322" d="M630.31,885.35H480.21a5.24,5.24,0,0,1-5.24-5.23V646.29a5.24,5.24,0,0,1,5.24-5.23h150.1a5.23,5.23,0,0,1,0,10.46H485.44V874.88H625.08V677.69a5.23,5.23,0,1,1,10.46,0V880.12A5.23,5.23,0,0,1,630.31,885.35Z"/><path class="ad8cc819-7822-4e11-be1d-ce7917b14322" d="M634.72,651.52H475.79a5.23,5.23,0,0,1-5.23-5.23V563.84a5.24,5.24,0,0,1,5.23-5.24H634.72a5.24,5.24,0,0,1,5.23,5.24v82.45A5.23,5.23,0,0,1,634.72,651.52ZM481,641.06H629.49v-72H481Z"/><path class="baecfe38-3fc3-4be7-9795-8687746d3e37" d="M596.61,605.06a10.13,10.13,0,1,0,10.13-10.13A10.13,10.13,0,0,0,596.61,605.06Z"/><path class="baecfe38-3fc3-4be7-9795-8687746d3e37" d="M813.91,489.92a14.66,14.66,0,0,0-15.44,14.66l0-4.48V478.85c0-7.94-6-15.05-13.89-15.46A14.66,14.66,0,0,0,769.13,478v-15.9c0-7.95-6-15.07-13.9-15.47a14.69,14.69,0,0,0-15.43,14.65v30.91h0a14.68,14.68,0,0,0-17.57-14.39c-7,1.35-11.75,7.86-11.75,14.95v69.43h0c0-11-9.23-19.67-19.75-17.38-7.72,1.68-13,9.52-13,18v48.89A32.76,32.76,0,0,0,686.2,634L703,651a26,26,0,0,1,7.49,18.25v36.38h96.95v-32a53.86,53.86,0,0,1,5.77-24.24L822,631.88a53.74,53.74,0,0,0,5.78-24.24V505.38C827.79,497.44,821.84,490.33,813.91,489.92Z"/><path class="abcd9c95-62f5-4177-8956-c72851143ce2" d="M813.91,489.92a14.66,14.66,0,0,0-15.44,14.66l0,92.6a53.86,53.86,0,0,1-5.77,24.24l-8.82,17.47a53.71,53.71,0,0,0-5.78,24.24v42.46h29.34v-32a53.86,53.86,0,0,1,5.77-24.24L822,631.88a53.74,53.74,0,0,0,5.78-24.24V505.38C827.79,497.44,821.84,490.33,813.91,489.92Z"/><path class="a69dac1a-fb9d-42fe-b575-40a15b00975a" d="M807.42,710.82a5.24,5.24,0,0,1-5.24-5.23v-32a59.38,59.38,0,0,1,6.34-26.6l8.82-17.47a48.75,48.75,0,0,0,5.22-21.88V505.38c0-5.39-4-10-8.92-10.24a9.45,9.45,0,0,0-9.94,9.44,5.23,5.23,0,0,1-5.22,5.23h0a5.23,5.23,0,0,1-5.24-5.22V478.85c0-5.39-4-10-8.91-10.23a9.42,9.42,0,0,0-9.95,9.42h0a5.24,5.24,0,0,1-10.47,0h0V462.13c0-5.39-4-10-8.92-10.23a9.28,9.28,0,0,0-7,2.58,9.42,9.42,0,0,0-2.94,6.85v30.9h0a5.24,5.24,0,0,1-5.24,5.23h0a5.24,5.24,0,0,1-5.23-5.24v-.38A9.46,9.46,0,0,0,723.22,483c-4.29.83-7.52,5-7.52,9.81v69.43a5.23,5.23,0,0,1-5.23,5.23h0a5.23,5.23,0,0,1-5.23-5.23v-.46a13.06,13.06,0,0,0-4.66-9.72,10.22,10.22,0,0,0-8.75-2.08c-5.05,1.1-8.86,6.65-8.86,12.93v48.89a27.69,27.69,0,0,0,7.1,18.64l16.65,16.86a31,31,0,0,1,9,21.92v36.38a5.23,5.23,0,0,1-10.46,0V669.21a20.65,20.65,0,0,0-6-14.57l-16.78-17a37.83,37.83,0,0,1-10-25.87V562.9c0-11.26,7.19-21,17.11-23.16a20.76,20.76,0,0,1,15.63,2.79V492.8c0-9.85,6.73-18.3,16-20.08a20,20,0,0,1,13.34,2v-13.4a20,20,0,0,1,6.19-14.42,19.54,19.54,0,0,1,14.74-5.45c10.06.51,18,8.76,18.8,19.09a19.93,19.93,0,0,1,10.54-2.37c10.57.54,18.85,9.62,18.85,20.68V487a19.79,19.79,0,0,1,10.5-2.34c10.56.54,18.83,9.63,18.83,20.68V607.64a59.22,59.22,0,0,1-6.34,26.6l-8.82,17.47a48.77,48.77,0,0,0-5.21,21.88v32A5.23,5.23,0,0,1,807.42,710.82Z"/><path class="a69dac1a-fb9d-42fe-b575-40a15b00975a" d="M739.79,559.61a5.23,5.23,0,0,1-5.23-5.23V492.24a5.23,5.23,0,1,1,10.46,0v62.14A5.23,5.23,0,0,1,739.79,559.61Z"/><path class="a69dac1a-fb9d-42fe-b575-40a15b00975a" d="M798.45,559.8a5.23,5.23,0,0,1-5.23-5.23v-50a5.24,5.24,0,0,1,10.47,0v50A5.24,5.24,0,0,1,798.45,559.8Z"/><path class="a69dac1a-fb9d-42fe-b575-40a15b00975a" d="M721.06,614.66a5.21,5.21,0,0,1-3.85-1.68l-6.55-7.09a20.69,20.69,0,0,1-5.43-14.1V562.23a5.23,5.23,0,0,1,10.46,0v29.56a10.39,10.39,0,0,0,2.65,7l6.55,7.09a5.23,5.23,0,0,1-3.84,8.78Z"/><path class="a69dac1a-fb9d-42fe-b575-40a15b00975a" d="M769.12,559.71h0a5.23,5.23,0,0,1-5.23-5.23V478a5.24,5.24,0,0,1,5.24-5.23h0a5.23,5.23,0,0,1,5.23,5.23v76.44A5.24,5.24,0,0,1,769.12,559.71Z"/><rect class="f7cb38c5-3589-4180-9448-909b2135a86d" x="703.82" y="739.7" width="110.92" height="140.41"/><rect class="aab49e30-4c02-447a-8448-f2d38911e8c7" x="735.21" y="739.7" width="79.53" height="140.41"/><rect class="f7cb38c5-3589-4180-9448-909b2135a86d" x="700.56" y="673.7" width="117.45" height="66"/><path class="a69dac1a-fb9d-42fe-b575-40a15b00975a" d="M814.74,885.35H703.82a5.23,5.23,0,0,1-5.23-5.23V739.7a5.23,5.23,0,0,1,5.23-5.23H814.74A5.23,5.23,0,0,1,820,739.7V880.12A5.23,5.23,0,0,1,814.74,885.35ZM709.05,874.88H809.51V744.94H709.05Z"/><path class="a69dac1a-fb9d-42fe-b575-40a15b00975a" d="M818,744.94H700.56a5.24,5.24,0,0,1-5.23-5.24v-66a5.23,5.23,0,0,1,5.23-5.23H818a5.24,5.24,0,0,1,5.24,5.23v66A5.25,5.25,0,0,1,818,744.94ZM705.79,734.47h107V678.94h-107Z"/><path class="baecfe38-3fc3-4be7-9795-8687746d3e37" d="M733.9,706.7a7.6,7.6,0,1,1-7.6-7.6A7.6,7.6,0,0,1,733.9,706.7Z"/></g><path class="a69dac1a-fb9d-42fe-b575-40a15b00975a" d="M878.36,510.46a5.24,5.24,0,0,1-5.21-4.71C855.75,334.36,712.52,205.12,540,205.12a335.7,335.7,0,0,0-209.71,73.77,5.23,5.23,0,0,1-6.55-8.16A346.23,346.23,0,0,1,540,194.65c177.91,0,325.62,133.29,343.57,310a5.24,5.24,0,0,1-4.68,5.73Z"/><path class="a69dac1a-fb9d-42fe-b575-40a15b00975a" d="M540,885.35c-190.43,0-345.35-154.92-345.35-345.35,0-94.16,37.21-182.15,104.76-247.76a5.24,5.24,0,0,1,7.3,7.51C241.19,363.37,205.12,448.7,205.12,540c0,184.65,150.23,334.88,334.88,334.88S874.88,724.65,874.88,540a5.24,5.24,0,0,1,10.47,0C885.35,730.43,730.43,885.35,540,885.35Z"/></svg>