<svg id="a67f6c88-99a1-447d-bf16-e851763d9221" data-name="Capa 1" xmlns="http://www.w3.org/2000/svg" viewBox="0 0 1080 1080"><defs><style>.b5f0f8ad-67c2-41fb-9300-9e5644430bae{fill:#f6f6f6;}.a04e0ebd-f5a3-4aed-aa97-b84d3f3783a5{fill:#fff;}.f8c3b3d3-2b02-4110-bb6d-fa0cb14fff5c{fill:#989aa6;}.af9052df-cc38-4575-95cc-d0039c38848b{fill:#ededed;}.fbae714f-8015-49e7-9747-2dd6b22ddd53{fill:#282c3f;}.b6a10572-c1cf-4a9b-bb14-73e6c620cf8f{fill:#2fc8f2;}.a9f5dfe2-b66b-4589-800f-632b88e25fcc{fill:#2caae6;}.a66f0dec-b03a-48e5-a34b-76263f08ec79{fill:#52576a;}.e4e1d64e-2252-444f-a630-0444586d4306{fill:#30354c;}.bb5f3626-687c-4344-bf79-4c8c2535c912{fill:#a09cad;}.b635c1d7-0713-4462-938a-f64db407b254{fill:#b8b5c6;}.a9686555-de3c-4965-8954-a3d3eed95d68{fill:#34234d;}</style></defs><title>ICONS S2R</title><path class="b5f0f8ad-67c2-41fb-9300-9e5644430bae" d="M961.57,437.44c-16.92-69.3-121.79-91.23-167.9-139.3C746.1,248.55,727.85,143.63,661.84,124.3c-64-18.74-135.47,58.71-204.91,75.6s-168.62-19-216.78,27c-49.69,47.48-17.51,149-36.88,214.89C184.5,505.62,101.5,573.26,118.43,642.56s121.79,91.23,167.9,139.3c47.57,49.59,65.82,154.51,131.83,173.84,64,18.74,135.47-58.71,204.91-75.6s168.62,19,216.78-27c49.69-47.48,17.51-149,36.88-214.89C895.5,574.38,978.5,506.74,961.57,437.44Z"/><path class="a04e0ebd-f5a3-4aed-aa97-b84d3f3783a5" d="M137.21,733a15.72,15.72,0,0,1-2.07-7.83,15.89,15.89,0,0,1,26.6-11.77,28.67,28.67,0,1,1,56.61,9,23.85,23.85,0,0,1,5-.54,24.17,24.17,0,0,1,0,48.34H140.77A18.76,18.76,0,0,1,137.21,733Z"/><path class="f8c3b3d3-2b02-4110-bb6d-fa0cb14fff5c" d="M223.31,775.47H140.77a24,24,0,0,1-10.36-45.66,21.53,21.53,0,0,1-.5-4.6,21.13,21.13,0,0,1,28.46-19.84,33.91,33.91,0,0,1,65.71,11.3,29.4,29.4,0,0,1-.77,58.8Zm-72.25-60.94a10.69,10.69,0,0,0-10.69,10.68,10.55,10.55,0,0,0,1.39,5.25,5.23,5.23,0,0,1-3.57,7.72A13.53,13.53,0,0,0,140.77,765h82.54a18.93,18.93,0,1,0-3.88-37.45,5.29,5.29,0,0,1-4.74-1.38,5.23,5.23,0,0,1-1.49-4.7,23.44,23.44,0,1,0-46.27-7.36,5.23,5.23,0,0,1-8.71,3.2A10.65,10.65,0,0,0,151.06,714.53Z"/><path class="a04e0ebd-f5a3-4aed-aa97-b84d3f3783a5" d="M878.94,654.38a15.26,15.26,0,0,1,23.54-18.81,27.52,27.52,0,0,1,54.81,3.56,28.09,28.09,0,0,1-.48,5.06,23.19,23.19,0,1,1,4.76,45.88H882.36a18,18,0,0,1-3.42-35.69Z"/><path class="f8c3b3d3-2b02-4110-bb6d-fa0cb14fff5c" d="M961.57,695.3H882.36a23.24,23.24,0,0,1-10.18-44.14,20.48,20.48,0,0,1,20.05-24.8,20.31,20.31,0,0,1,6.9,1.2,32.75,32.75,0,0,1,63.39,10.9,28.43,28.43,0,0,1-.95,56.84Zm-69.34-58.48a10.05,10.05,0,0,0-10,10,9.9,9.9,0,0,0,1.3,4.93,5.24,5.24,0,0,1,.2,4.78,5.18,5.18,0,0,1-3.76,2.94,12.78,12.78,0,0,0,2.43,25.33h79.21a18,18,0,1,0-3.68-35.53,5.23,5.23,0,0,1-6.23-6.08,21.8,21.8,0,0,0,.4-4.1,22.29,22.29,0,0,0-44.39-2.89,5.23,5.23,0,0,1-8.71,3.2A10,10,0,0,0,892.23,636.82Z"/><path class="a04e0ebd-f5a3-4aed-aa97-b84d3f3783a5" d="M885.67,240.7a13.51,13.51,0,0,0-20.85-16.65,24.36,24.36,0,1,0-48.09,7.64,19.56,19.56,0,0,0-4.22-.46,20.54,20.54,0,1,0,0,41.07h70.13a15.94,15.94,0,0,0,3-31.6Z"/><path class="f8c3b3d3-2b02-4110-bb6d-fa0cb14fff5c" d="M882.64,277.53H812.51A25.76,25.76,0,0,1,811.09,226a29.59,29.59,0,0,1,57-9.84,18.75,18.75,0,0,1,24.52,17.85,18.3,18.3,0,0,1-.33,3.47,21.17,21.17,0,0,1-9.69,40Zm-70.13-41.07a15.31,15.31,0,0,0,0,30.61h70.13a10.71,10.71,0,0,0,2-21.23,5.24,5.24,0,0,1-3.56-7.72,8.2,8.2,0,0,0,1.07-4.07,8.27,8.27,0,0,0-13.85-6.13,5.23,5.23,0,0,1-8.7-3.2,19.14,19.14,0,0,0-38.11,2.48,20,20,0,0,0,.34,3.53,5.23,5.23,0,0,1-6.23,6.07A15.45,15.45,0,0,0,812.51,236.46Z"/><path class="a04e0ebd-f5a3-4aed-aa97-b84d3f3783a5" d="M384.4,171.63a17.92,17.92,0,0,1,27.65-22.09,32.31,32.31,0,1,1,63.8,10.13,27.23,27.23,0,1,1,5.59,53.88h-93a21.15,21.15,0,0,1-4-41.92Z"/><path class="f8c3b3d3-2b02-4110-bb6d-fa0cb14fff5c" d="M481.44,218.78h-93a26.38,26.38,0,0,1-10.89-50.42,23.15,23.15,0,0,1,31.13-27,37.55,37.55,0,0,1,73,12.41v.11a32.47,32.47,0,0,1-.21,64.94ZM400,150.1a12.69,12.69,0,0,0-11.06,19,5.23,5.23,0,0,1-3.56,7.72,15.92,15.92,0,0,0,3,31.55h93a22,22,0,1,0-4.5-43.53,5.23,5.23,0,0,1-6.24-6.08,27.08,27.08,0,1,0-53.46-8.5,5.23,5.23,0,0,1-8.71,3.2A12.69,12.69,0,0,0,400,150.1Z"/><path class="a04e0ebd-f5a3-4aed-aa97-b84d3f3783a5" d="M226.14,294.4A18.88,18.88,0,0,0,197,271.13a34,34,0,1,0-67.19,10.68,27.92,27.92,0,0,0-5.9-.64,28.69,28.69,0,0,0,0,57.38h98a22.28,22.28,0,0,0,4.23-44.15Z"/><path class="f8c3b3d3-2b02-4110-bb6d-fa0cb14fff5c" d="M221.91,343.79h-98a33.93,33.93,0,0,1,0-67.85H124v-.39a39.27,39.27,0,0,1,76.44-12.71,24.12,24.12,0,0,1,32.63,28.28,27.51,27.51,0,0,1-11.15,52.67Zm-98-57.38a23.46,23.46,0,0,0,0,46.91h98a17,17,0,0,0,3.24-33.78,5.24,5.24,0,0,1-3.57-7.72A13.64,13.64,0,0,0,200.53,275a5.23,5.23,0,0,1-8.7-3.2,28.81,28.81,0,1,0-56.87,9,5.23,5.23,0,0,1-6.23,6.08A22.83,22.83,0,0,0,123.92,286.41Z"/><path class="f8c3b3d3-2b02-4110-bb6d-fa0cb14fff5c" d="M984.77,963.84H95.23a5.24,5.24,0,0,1,0-10.47H984.77a5.24,5.24,0,0,1,0,10.47Z"/><path class="a04e0ebd-f5a3-4aed-aa97-b84d3f3783a5" d="M880.12,812.09H199.88V419.65a26.17,26.17,0,0,1,26.17-26.16H854a26.17,26.17,0,0,1,26.17,26.16Z"/><path class="af9052df-cc38-4575-95cc-d0039c38848b" d="M400.55,393.49V578a195.12,195.12,0,0,0,9.29,59.8c40.94,127.93,203.42,184.8,203.42,184.8s162.46-56.86,203.41-184.8A195.25,195.25,0,0,0,826,577.94V393.49Z"/><path class="fbae714f-8015-49e7-9747-2dd6b22ddd53" d="M880.12,733.6a5.24,5.24,0,0,1-5.24-5.23V419.65A21,21,0,0,0,854,398.72H226.05a21,21,0,0,0-20.93,20.93V545.23a5.24,5.24,0,1,1-10.47,0V419.65a31.43,31.43,0,0,1,31.4-31.39H854a31.43,31.43,0,0,1,31.4,31.39V728.37A5.23,5.23,0,0,1,880.12,733.6Z"/><path class="fbae714f-8015-49e7-9747-2dd6b22ddd53" d="M880.12,817.33H199.88a5.24,5.24,0,0,1-5.23-5.24V576.63a5.24,5.24,0,0,1,10.47,0V806.86H874.88V759.77a5.24,5.24,0,1,1,10.47,0v52.32A5.24,5.24,0,0,1,880.12,817.33Z"/><rect class="b6a10572-c1cf-4a9b-bb14-73e6c620cf8f" x="424.88" y="885.35" width="230.23" height="73.26"/><rect class="a9f5dfe2-b66b-4589-800f-632b88e25fcc" x="540" y="885.35" width="115.12" height="73.26"/><path class="fbae714f-8015-49e7-9747-2dd6b22ddd53" d="M655.12,963.84H424.88a5.24,5.24,0,0,1-5.23-5.24V885.35a5.23,5.23,0,0,1,5.23-5.23H655.12a5.23,5.23,0,0,1,5.23,5.23V958.6A5.24,5.24,0,0,1,655.12,963.84Zm-225-10.47H649.88V890.58H430.12Z"/><path class="a9f5dfe2-b66b-4589-800f-632b88e25fcc" d="M199.88,812.09H880.12a0,0,0,0,1,0,0v47.09A26.16,26.16,0,0,1,854,885.35H226a26.16,26.16,0,0,1-26.16-26.16V812.09A0,0,0,0,1,199.88,812.09Z"/><path class="b6a10572-c1cf-4a9b-bb14-73e6c620cf8f" d="M199.88,812.09H540a0,0,0,0,1,0,0v73.26a0,0,0,0,1,0,0H226a26.16,26.16,0,0,1-26.16-26.16V812.09A0,0,0,0,1,199.88,812.09Z"/><path class="fbae714f-8015-49e7-9747-2dd6b22ddd53" d="M854,890.58H383a5.23,5.23,0,1,1,0-10.46H854a21,21,0,0,0,20.93-20.93V817.33H205.12v41.86a21,21,0,0,0,20.93,20.93H351.63a5.23,5.23,0,0,1,0,10.46H226.05a31.43,31.43,0,0,1-31.4-31.39v-47.1a5.23,5.23,0,0,1,5.23-5.23H880.12a5.23,5.23,0,0,1,5.23,5.23v47.1A31.43,31.43,0,0,1,854,890.58Z"/><path class="fbae714f-8015-49e7-9747-2dd6b22ddd53" d="M770.23,963.84H309.77a5.24,5.24,0,1,1,0-10.47H770.23a5.24,5.24,0,1,1,0,10.47Z"/><path class="a04e0ebd-f5a3-4aed-aa97-b84d3f3783a5" d="M576.63,859.19H503.37a10.47,10.47,0,0,1,0-20.93h73.26a10.47,10.47,0,0,1,0,20.93Z"/><path class="a66f0dec-b03a-48e5-a34b-76263f08ec79" d="M540,278.37l-212.7,85.1V578a195.12,195.12,0,0,0,9.28,59.8C377.52,765.69,540,822.56,540,822.56s162.47-56.86,203.42-184.8a195.25,195.25,0,0,0,9.28-59.82V363.47Z"/><path class="e4e1d64e-2252-444f-a630-0444586d4306" d="M540,278.37V822.56s162.47-56.86,203.42-184.8a195.25,195.25,0,0,0,9.28-59.82V363.47Z"/><path class="fbae714f-8015-49e7-9747-2dd6b22ddd53" d="M540,827.79a5.37,5.37,0,0,1-1.73-.29c-6.73-2.36-165.41-59.21-206.67-188.15A201,201,0,0,1,322.06,578V363.46a5.23,5.23,0,0,1,3.29-4.85l212.71-85.09a5.11,5.11,0,0,1,3.88,0l212.71,85.09a5.23,5.23,0,0,1,3.29,4.85V577.94a201.19,201.19,0,0,1-9.54,61.41C707.13,768.29,548.46,825.14,541.73,827.5A5.41,5.41,0,0,1,540,827.79ZM332.53,367V578a190.49,190.49,0,0,0,9,58.2C379,753.08,522.55,810.4,540,817c17.45-6.58,161-63.9,198.43-180.82a190.66,190.66,0,0,0,9-58.22V367L540,284Z"/><path class="bb5f3626-687c-4344-bf79-4c8c2535c912" d="M691,561.17C691,698.63,540,754.5,540,754.5S389,698.63,389,561.19V406.65L540.67,347,691,406.65Z"/><path class="b635c1d7-0713-4462-938a-f64db407b254" d="M540,754.5S389,698.63,389,561.19V406.65L540.67,347Z"/><path class="fbae714f-8015-49e7-9747-2dd6b22ddd53" d="M540,759.73a5.18,5.18,0,0,1-1.82-.33c-1.54-.57-154.43-58.74-154.43-198.21V438.14a5.23,5.23,0,1,1,10.46,0V561.19C394.21,685.25,523.07,742,540,748.87c16.93-6.91,145.79-63.62,145.79-187.7v-8.34a5.23,5.23,0,1,1,10.46,0v8.34c0,139.49-152.89,197.66-154.43,198.23A5.18,5.18,0,0,1,540,759.73Z"/><path class="fbae714f-8015-49e7-9747-2dd6b22ddd53" d="M691,521.33a5.23,5.23,0,0,1-5.23-5.23V410.21L540.66,352.66,394.21,410.22v27.92a5.23,5.23,0,0,1-10.46,0V406.65a5.23,5.23,0,0,1,3.32-4.87l151.69-59.62a5.2,5.2,0,0,1,3.84,0L693,401.79a5.23,5.23,0,0,1,3.3,4.86V516.1A5.23,5.23,0,0,1,691,521.33Z"/><path class="a04e0ebd-f5a3-4aed-aa97-b84d3f3783a5" d="M454.92,350.69a10.64,10.64,0,1,1-10.64-10.63A10.64,10.64,0,0,1,454.92,350.69Z"/><path class="a04e0ebd-f5a3-4aed-aa97-b84d3f3783a5" d="M646.35,350.69a10.64,10.64,0,1,1-10.63-10.63A10.64,10.64,0,0,1,646.35,350.69Z"/><path class="a04e0ebd-f5a3-4aed-aa97-b84d3f3783a5" d="M733.56,461.3a10.64,10.64,0,1,1-10.64-10.64A10.63,10.63,0,0,1,733.56,461.3Z"/><path class="a04e0ebd-f5a3-4aed-aa97-b84d3f3783a5" d="M367.71,461.3a10.64,10.64,0,1,1-10.64-10.64A10.63,10.63,0,0,1,367.71,461.3Z"/><path class="a04e0ebd-f5a3-4aed-aa97-b84d3f3783a5" d="M733.56,586.23a10.64,10.64,0,1,1-10.64-10.64A10.63,10.63,0,0,1,733.56,586.23Z"/><path class="a04e0ebd-f5a3-4aed-aa97-b84d3f3783a5" d="M367.71,586.23a10.64,10.64,0,1,1-10.64-10.64A10.63,10.63,0,0,1,367.71,586.23Z"/><path class="a04e0ebd-f5a3-4aed-aa97-b84d3f3783a5" d="M672.58,709.12a10.64,10.64,0,1,1-10.64-10.63A10.64,10.64,0,0,1,672.58,709.12Z"/><path class="a04e0ebd-f5a3-4aed-aa97-b84d3f3783a5" d="M550.64,784.27A10.64,10.64,0,1,1,540,773.64,10.64,10.64,0,0,1,550.64,784.27Z"/><circle class="a04e0ebd-f5a3-4aed-aa97-b84d3f3783a5" cx="418.06" cy="709.12" r="10.64"/><path class="b6a10572-c1cf-4a9b-bb14-73e6c620cf8f" d="M492.52,535.7A29.39,29.39,0,0,0,451,577.26l68.67,68.67a29.3,29.3,0,0,0,20.78,8.61V583.59Z"/><path class="a9f5dfe2-b66b-4589-800f-632b88e25fcc" d="M705.84,459.73a29.38,29.38,0,0,0-41.56,0L540.41,583.59v70.95a29.3,29.3,0,0,0,20.78-8.61L705.84,501.28A29.37,29.37,0,0,0,705.84,459.73Z"/><path class="a9686555-de3c-4965-8954-a3d3eed95d68" d="M540.41,659.77a34.4,34.4,0,0,1-24.48-10.14L447.26,581a34.62,34.62,0,0,1,49-49l44.19,44.19L660.58,456a34.65,34.65,0,0,1,49,0h0a34.62,34.62,0,0,1,0,49L564.89,649.63A34.39,34.39,0,0,1,540.41,659.77ZM471.74,532.34a24.15,24.15,0,0,0-17.08,41.22l68.67,68.67a24.14,24.14,0,0,0,34.16,0L702.14,497.58a24.13,24.13,0,0,0,0-34.15h0a24.18,24.18,0,0,0-34.16,0L544.11,587.28a5.22,5.22,0,0,1-7.4,0L488.82,539.4A24.07,24.07,0,0,0,471.74,532.34Z"/></svg>