<svg id="b41db4cd-31a6-4177-8ec2-30ad0038c4c8" data-name="Capa 1" xmlns="http://www.w3.org/2000/svg" viewBox="0 0 1080 1080"><defs><style>.b05e208f-2bf8-4e9f-95be-67c61bd05d17{fill:#f6f6f6;}.aca26bbb-bc5f-492c-b891-fe87c1a3195f{fill:#ededed;}.a7172e61-96b5-4eee-bf33-8248cc6a438c{fill:#fff;}.bcf56a8e-9325-48f9-b6fa-df7a3a160d8d{fill:#989aa6;}.f6635329-ee07-495d-862d-8bf01eebb4d4{fill:#b8b5c6;}.e112a40e-a82e-4e38-88e9-20d786455dae{fill:#a09cad;}.b032fc1e-c44d-475d-b21e-4741b0e8f5e2{fill:#282c3f;}.e7203ad3-484c-4132-95e5-439a903ede4e{fill:#2fc8f2;}.f5094ba7-a93a-42e7-ab90-a5a6f89615a2{fill:#2caae6;}.b15ff788-198c-4f4d-babf-bc94f2ce4dc7{fill:#52576a;}.aed5aa7f-efdb-40b7-8c2d-4beac1af24a2{fill:#30354c;}</style></defs><title>ICONS S2R</title><path class="b05e208f-2bf8-4e9f-95be-67c61bd05d17" d="M878.67,419.5c-24-65.61,2.53-170.61-51.36-215.67-52.24-43.67-151.91-6.58-224.09-19.38s-150-81.37-214.29-58.37c-66.38,23.72-78.44,131.29-124,184.55-44.18,51.64-150.2,80.42-163.16,151.78s76.33,134.78,99.59,198.37c24,65.62-2.53,170.62,51.36,215.67,52.24,43.68,151.55,1,223.74,13.85s150.3,86.9,214.64,63.91c66.38-23.73,78.44-131.29,124-184.56C859.28,718,965.3,689.23,978.26,617.88S901.93,483.1,878.67,419.5Z"/><path class="aca26bbb-bc5f-492c-b891-fe87c1a3195f" d="M765,958.6H283.6l-83.72-83.72V351.63H765Z"/><path class="a7172e61-96b5-4eee-bf33-8248cc6a438c" d="M691.74,958.6H283.6l-83.72-83.72V351.63H691.74Z"/><path class="bcf56a8e-9325-48f9-b6fa-df7a3a160d8d" d="M984.77,963.84H95.23a5.24,5.24,0,0,1,0-10.47H984.77a5.24,5.24,0,0,1,0,10.47Z"/><rect class="f6635329-ee07-495d-862d-8bf01eebb4d4" x="246.98" y="560.93" width="470.93" height="235.47" rx="10.47"/><rect class="f6635329-ee07-495d-862d-8bf01eebb4d4" x="246.98" y="838.26" width="445.19" height="68.02" rx="10.47"/><rect class="f6635329-ee07-495d-862d-8bf01eebb4d4" x="246.98" y="403.95" width="470.93" height="115.12" rx="10.47"/><path class="e112a40e-a82e-4e38-88e9-20d786455dae" d="M707.44,801.63H504.3a5.24,5.24,0,0,1,0-10.47H707.44a5.23,5.23,0,0,0,5.23-5.23V571.4a5.24,5.24,0,0,0-5.23-5.24h-450a5.24,5.24,0,0,0-5.23,5.24V785.93a5.23,5.23,0,0,0,5.23,5.23H467.67a5.24,5.24,0,1,1,0,10.47H257.44a15.72,15.72,0,0,1-15.7-15.7V571.4a15.72,15.72,0,0,1,15.7-15.7h450a15.71,15.71,0,0,1,15.7,15.7V785.93A15.71,15.71,0,0,1,707.44,801.63Z"/><path class="e112a40e-a82e-4e38-88e9-20d786455dae" d="M681.28,911.51H257.44a15.72,15.72,0,0,1-15.7-15.7V848.72a15.72,15.72,0,0,1,15.7-15.7H681.28a15.71,15.71,0,0,1,15.7,15.7v47.09A15.71,15.71,0,0,1,681.28,911.51Zm-423.84-68a5.23,5.23,0,0,0-5.23,5.23v47.09a5.24,5.24,0,0,0,5.23,5.24H681.28a5.24,5.24,0,0,0,5.23-5.24V848.72a5.23,5.23,0,0,0-5.23-5.23Z"/><path class="e112a40e-a82e-4e38-88e9-20d786455dae" d="M707.44,524.3H368.25a5.23,5.23,0,0,1,0-10.46H707.44a5.24,5.24,0,0,0,5.23-5.24V414.42a5.23,5.23,0,0,0-5.23-5.23h-450a5.23,5.23,0,0,0-5.23,5.23V508.6a5.24,5.24,0,0,0,5.23,5.24h79.42a5.23,5.23,0,1,1,0,10.46H257.44a15.72,15.72,0,0,1-15.7-15.7V414.42a15.72,15.72,0,0,1,15.7-15.7h450a15.71,15.71,0,0,1,15.7,15.7V508.6A15.71,15.71,0,0,1,707.44,524.3Z"/><path class="b032fc1e-c44d-475d-b21e-4741b0e8f5e2" d="M362.5,963.84H283.6a5.17,5.17,0,0,1-3.69-1.54l-83.73-83.72a5.23,5.23,0,0,1-1.53-3.7V351.63a5.23,5.23,0,0,1,5.23-5.23H765a5.23,5.23,0,0,1,5.23,5.23v193.6a5.23,5.23,0,1,1-10.46,0V356.86H205.12V872.72l80.65,80.65H362.5a5.24,5.24,0,0,1,0,10.47Z"/><path class="b032fc1e-c44d-475d-b21e-4741b0e8f5e2" d="M765,963.84H393.9a5.24,5.24,0,1,1,0-10.47H759.77V649.88a5.23,5.23,0,0,1,10.46,0V958.6A5.24,5.24,0,0,1,765,963.84Z"/><rect class="e7203ad3-484c-4132-95e5-439a903ede4e" x="199.88" y="278.37" width="565.12" height="73.26"/><rect class="f5094ba7-a93a-42e7-ab90-a5a6f89615a2" x="691.74" y="278.37" width="73.26" height="73.26"/><path class="b032fc1e-c44d-475d-b21e-4741b0e8f5e2" d="M765,356.86H199.88a5.23,5.23,0,0,1-5.23-5.23V278.37a5.23,5.23,0,0,1,5.23-5.23h348a5.23,5.23,0,0,1,0,10.46H205.12v62.8H759.77V283.6H579.24a5.23,5.23,0,0,1,0-10.46H765a5.23,5.23,0,0,1,5.23,5.23v73.26A5.23,5.23,0,0,1,765,356.86Z"/><circle class="a7172e61-96b5-4eee-bf33-8248cc6a438c" cx="236.51" cy="315" r="9.16"/><circle class="a7172e61-96b5-4eee-bf33-8248cc6a438c" cx="273.14" cy="315" r="9.16"/><circle class="a7172e61-96b5-4eee-bf33-8248cc6a438c" cx="309.77" cy="315" r="9.16"/><polygon class="f5094ba7-a93a-42e7-ab90-a5a6f89615a2" points="199.88 874.88 283.61 958.61 283.61 874.88 199.88 874.88"/><path class="b032fc1e-c44d-475d-b21e-4741b0e8f5e2" d="M283.6,963.84a5.19,5.19,0,0,1-3.69-1.54l-83.73-83.72a5.23,5.23,0,0,1,3.7-8.93H283.6a5.23,5.23,0,0,1,5.24,5.23V958.6a5.24,5.24,0,0,1-5.24,5.24Zm-71.08-83.72L278.37,946V880.12Z"/><path class="b15ff788-198c-4f4d-babf-bc94f2ce4dc7" d="M813.63,440.58H569.86a66.49,66.49,0,0,1-66.49,66.49V794.86L691.74,916.74,880.12,794.86V507.07A66.49,66.49,0,0,1,813.63,440.58Z"/><path class="aed5aa7f-efdb-40b7-8c2d-4beac1af24a2" d="M813.63,440.58H691.74V916.74L880.12,794.86V507.07A66.49,66.49,0,0,1,813.63,440.58Z"/><path class="b032fc1e-c44d-475d-b21e-4741b0e8f5e2" d="M691.74,922a5.23,5.23,0,0,1-2.84-.84L500.53,799.25a5.23,5.23,0,0,1-2.39-4.39V507.07a5.24,5.24,0,0,1,5.23-5.24,61.31,61.31,0,0,0,61.25-61.25,5.23,5.23,0,0,1,5.24-5.23H813.63a5.23,5.23,0,0,1,5.23,5.23,61.32,61.32,0,0,0,61.26,61.25,5.24,5.24,0,0,1,5.23,5.24V794.86a5.23,5.23,0,0,1-2.39,4.39L694.59,921.14A5.23,5.23,0,0,1,691.74,922ZM508.6,792l183.14,118.5L874.88,792V512.11a71.82,71.82,0,0,1-66.29-66.3H574.9a71.82,71.82,0,0,1-66.3,66.3Z"/><path class="aca26bbb-bc5f-492c-b891-fe87c1a3195f" d="M833,543.93a114.24,114.24,0,0,1-56.25-56.26h-170a114.28,114.28,0,0,1-56.25,56.26V699.86L833,565.91Z"/><polygon class="aca26bbb-bc5f-492c-b891-fe87c1a3195f" points="550.47 770.89 691.74 858.5 833.02 770.89 833.02 614.89 550.47 748.85 550.47 770.89"/><path class="a7172e61-96b5-4eee-bf33-8248cc6a438c" d="M692.16,487.67H606.72a114.28,114.28,0,0,1-56.25,56.26V699.86l141.69-67.17Z"/><polygon class="a7172e61-96b5-4eee-bf33-8248cc6a438c" points="550.47 770.89 691.74 858.5 692.16 681.67 550.47 748.85 550.47 770.89"/><path class="b032fc1e-c44d-475d-b21e-4741b0e8f5e2" d="M550.47,705.09a5.24,5.24,0,0,1-5.24-5.23V543.93a5.24,5.24,0,0,1,3.06-4.76A108.76,108.76,0,0,0,602,485.5a5.22,5.22,0,0,1,4.76-3.06h170a5.22,5.22,0,0,1,4.76,3.06,108.76,108.76,0,0,0,53.67,53.67,5.24,5.24,0,0,1,3.06,4.76v22a5.25,5.25,0,0,1-3,4.73l-282.56,134A5.22,5.22,0,0,1,550.47,705.09Zm5.23-157.85V691.59l272.09-129V547.24a119.33,119.33,0,0,1-54.33-54.33H610A119.33,119.33,0,0,1,555.7,547.24Z"/><path class="b032fc1e-c44d-475d-b21e-4741b0e8f5e2" d="M691.74,863.73a5.22,5.22,0,0,1-2.76-.79l-141.27-87.6a5.25,5.25,0,0,1-2.48-4.45v-22a5.24,5.24,0,0,1,3-4.73l282.56-134a5.24,5.24,0,0,1,7.48,4.73v156a5.25,5.25,0,0,1-2.48,4.45L694.5,862.94A5.16,5.16,0,0,1,691.74,863.73ZM555.7,768l136,84.36,136-84.36V623.16l-272.09,129Z"/><path class="bcf56a8e-9325-48f9-b6fa-df7a3a160d8d" d="M984.77,393.49a5.22,5.22,0,0,1-3.7-1.53l-41.86-41.87a5.23,5.23,0,0,1,7.4-7.39l41.86,41.86a5.23,5.23,0,0,1-3.7,8.93Z"/><path class="bcf56a8e-9325-48f9-b6fa-df7a3a160d8d" d="M942.91,393.49a5.23,5.23,0,0,1-3.7-8.93l41.86-41.86a5.23,5.23,0,0,1,7.4,7.39L946.61,392A5.23,5.23,0,0,1,942.91,393.49Z"/><path class="bcf56a8e-9325-48f9-b6fa-df7a3a160d8d" d="M927.21,895.81a5.22,5.22,0,0,1-3.7-1.53l-41.86-41.86a5.23,5.23,0,0,1,7.4-7.4l41.86,41.86a5.23,5.23,0,0,1-3.7,8.93Z"/><path class="bcf56a8e-9325-48f9-b6fa-df7a3a160d8d" d="M885.35,895.81a5.23,5.23,0,0,1-3.7-8.93L923.51,845a5.23,5.23,0,0,1,7.4,7.4l-41.86,41.86A5.22,5.22,0,0,1,885.35,895.81Z"/><path class="bcf56a8e-9325-48f9-b6fa-df7a3a160d8d" d="M137.09,639.42a5.23,5.23,0,0,1-3.7-1.53L91.53,596a5.23,5.23,0,1,1,7.4-7.4l41.86,41.86a5.23,5.23,0,0,1-3.7,8.93Z"/><path class="bcf56a8e-9325-48f9-b6fa-df7a3a160d8d" d="M95.23,639.42a5.23,5.23,0,0,1-3.7-8.93l41.86-41.86a5.23,5.23,0,1,1,7.4,7.4L98.93,637.89A5.22,5.22,0,0,1,95.23,639.42Z"/><path class="bcf56a8e-9325-48f9-b6fa-df7a3a160d8d" d="M283.6,226.05a5.18,5.18,0,0,1-3.69-1.54L238,182.65a5.23,5.23,0,0,1,7.4-7.4l41.86,41.86a5.24,5.24,0,0,1-3.7,8.94Z"/><path class="bcf56a8e-9325-48f9-b6fa-df7a3a160d8d" d="M241.74,226.05a5.24,5.24,0,0,1-3.7-8.94l41.87-41.86a5.23,5.23,0,1,1,7.39,7.4l-41.86,41.86A5.19,5.19,0,0,1,241.74,226.05Z"/><path class="bcf56a8e-9325-48f9-b6fa-df7a3a160d8d" d="M649.88,168.49a5.23,5.23,0,0,1-3.7-1.53l-41.86-41.87a5.23,5.23,0,1,1,7.4-7.39l41.86,41.86a5.23,5.23,0,0,1-3.7,8.93Z"/><path class="bcf56a8e-9325-48f9-b6fa-df7a3a160d8d" d="M608,168.49a5.23,5.23,0,0,1-3.7-8.93l41.86-41.86a5.23,5.23,0,0,1,7.4,7.39L611.72,167A5.22,5.22,0,0,1,608,168.49Z"/></svg>