<?xml version="1.0" encoding="UTF-8"?>
<svg id="Capa_1" data-name="Capa 1" xmlns="http://www.w3.org/2000/svg" xmlns:xlink="http://www.w3.org/1999/xlink" viewBox="0 0 1080 1080">
  <defs>
    <style>
      .cls-1 {
        fill: none;
      }

      .cls-2 {
        clip-path: url(#clippath);
      }

      .cls-3 {
        fill: #66a8e3;
      }

      .cls-4 {
        fill: #ebebeb;
      }

      .cls-5 {
        fill: #fff;
      }

      .cls-6 {
        fill: #e4e4e4;
      }

      .cls-7 {
        fill: #9c9aaa;
      }

      .cls-8 {
        fill: #33284d;
      }

      .cls-9 {
        fill: #2d3041;
      }

      .cls-10 {
        fill: #545869;
      }

      .cls-11 {
        fill: #76c6ef;
      }
    </style>
    <clipPath id="clippath">
      <circle class="cls-1" cx="684.14" cy="-490.74" r="241.28"/>
    </clipPath>
  </defs>
  <g class="cls-2">
    <path class="cls-9" d="m830.75-399.79l-67.81-17.81h-157.58l-67.83,17.81c-25.74,6.76-43.68,30.02-43.68,56.63V30.86h380.59v-374.02c0-26.61-17.94-49.87-43.68-56.63Z"/>
    <path class="cls-9" d="m874.43,36.74h-380.58c-3.25,0-5.88-2.64-5.88-5.88v-374.01c0-29.26,19.77-54.89,48.07-62.33l67.83-17.81c.49-.13.99-.19,1.49-.19h157.58c.51,0,1.01.07,1.49.19l67.81,17.81c28.3,7.43,48.07,33.06,48.07,62.32V30.86c0,3.25-2.63,5.88-5.88,5.88Zm-374.7-11.77h368.81v-368.13c0-23.92-16.15-44.86-39.29-50.94l-67.08-17.61h-156.06l-67.1,17.61c-23.13,6.07-39.29,27.02-39.29,50.94V24.97Z"/>
    <path class="cls-8" d="m796.36,36.74c-3.25,0-5.88-2.64-5.88-5.88v-357.18c0-3.25,2.64-5.88,5.88-5.88s5.88,2.64,5.88,5.88V30.86c0,3.25-2.63,5.88-5.88,5.88Z"/>
    <path class="cls-8" d="m571.91,36.74c-3.25,0-5.88-2.64-5.88-5.88v-357.18c0-3.25,2.63-5.88,5.88-5.88s5.88,2.64,5.88,5.88V30.86c0,3.25-2.64,5.88-5.88,5.88Z"/>
  </g>
  <g>
    <path class="cls-6" d="m976.3,424.96c17.39,71.18-67.86,140.65-87.14,206.23-19.89,67.66,13.15,171.95-37.88,220.72-49.47,47.27-151.34,10.37-222.67,27.72-71.32,17.35-144.75,96.89-210.47,77.65-67.8-19.86-86.54-127.62-135.4-178.56-47.36-49.37-155.08-71.9-172.46-143.08-17.39-71.18,67.86-140.65,87.14-206.23,19.89-67.66-13.15-171.95,37.88-220.72,49.47-47.27,151.34-10.37,222.67-27.72,71.32-17.35,144.75-96.9,210.47-77.65,67.8,19.86,86.54,127.62,135.4,178.56,47.36,49.37,155.08,71.9,172.46,143.08Z"/>
    <circle class="cls-3" cx="543.29" cy="530.3" r="349.35"/>
    <path class="cls-11" d="m575.53,213.2c88.26,0,168.82,32.8,230.31,86.79-64.03-72.93-157.88-119.03-262.56-119.03-192.94,0-349.35,156.41-349.35,349.35,0,104.68,46.1,198.53,119.03,262.56-53.98-61.5-86.79-142.05-86.79-230.31,0-192.94,156.41-349.35,349.35-349.35Z"/>
    <path class="cls-9" d="m748.84,818.18c-1.66,0-3.3-.77-4.35-2.21-1.75-2.4-1.22-5.76,1.18-7.51,88.66-64.62,141.59-168.61,141.59-278.17,0-189.67-154.31-343.97-343.97-343.97-38.67,0-76.63,6.37-112.83,18.93-2.8.98-5.87-.51-6.84-3.31-.97-2.81.51-5.87,3.32-6.84,37.34-12.96,76.48-19.52,116.35-19.52,195.59,0,354.72,159.13,354.72,354.72,0,112.99-54.58,220.22-146.01,286.86-.96.69-2.06,1.03-3.16,1.03Z"/>
    <path class="cls-9" d="m543.29,885.02c-195.59,0-354.72-159.13-354.72-354.72,0-136.33,79.63-262.2,202.86-320.66,2.68-1.27,5.89-.13,7.16,2.55s.13,5.89-2.55,7.16c-119.5,56.69-196.72,178.75-196.72,310.95,0,189.67,154.31,343.97,343.97,343.97,61.23,0,121.34-16.29,173.84-47.1,2.56-1.51,5.86-.65,7.36,1.92,1.5,2.56.65,5.85-1.91,7.35-54.15,31.78-116.14,48.58-179.28,48.58Z"/>
    <path class="cls-5" d="m816.21,530.3c0-150.73-122.19-272.93-272.93-272.93s-272.93,122.19-272.93,272.93c0,55.58,16.93,107.03,45.5,150.12h454.86c28.57-43.09,45.5-94.54,45.5-150.12Z"/>
    <path class="cls-4" d="m543.29,257.37c-6.33,0-12.59.29-18.81.71,141.95,9.68,254.12,127.81,254.12,272.21,0,55.58-16.93,107.03-45.5,150.12h37.62c28.57-43.09,45.5-94.54,45.5-150.12,0-150.73-122.19-272.93-272.93-272.93Z"/>
    <path class="cls-9" d="m770.72,685.79h-291.92c-2.97,0-5.37-2.4-5.37-5.37s2.41-5.37,5.37-5.37h289.02c28.16-43.45,43.02-93.44,43.02-144.75,0-147.53-120.02-267.55-267.55-267.55s-267.55,120.02-267.55,267.55c0,51.3,14.87,101.29,43.03,144.75h127.78c2.97,0,5.37,2.4,5.37,5.37s-2.41,5.37-5.37,5.37h-130.69c-1.8,0-3.49-.9-4.48-2.4-30.35-45.78-46.39-98.72-46.39-153.09,0-153.46,124.85-278.3,278.3-278.3s278.3,124.84,278.3,278.3c0,54.38-16.04,107.31-46.39,153.09-.99,1.5-2.68,2.4-4.48,2.4Z"/>
    <path class="cls-5" d="m670.4,756.03c-4.43-12.52-16.34-21.5-30.37-21.5h-193.48c-14.03,0-25.94,8.98-30.37,21.5-1.19,3.36-1.87,6.98-1.87,10.75,0,17.81,14.44,32.25,32.25,32.25h193.48c17.81,0,32.25-14.44,32.25-32.25,0-3.77-.68-7.38-1.87-10.75Z"/>
    <path class="cls-4" d="m640.03,777.52h-193.48c-14.03,0-25.94-8.98-30.37-21.5-1.19,3.36-1.87,6.98-1.87,10.75,0,17.81,14.44,32.25,32.25,32.25h193.48c17.81,0,32.25-14.44,32.25-32.25,0-3.77-.68-7.38-1.87-10.75-4.43,12.52-16.34,21.5-30.37,21.5Z"/>
    <path class="cls-9" d="m640.03,804.4h-32.25c-2.97,0-5.37-2.4-5.37-5.37v-64.49c0-2.97,2.41-5.37,5.37-5.37h32.25c20.75,0,37.62,16.88,37.62,37.62s-16.88,37.62-37.62,37.62Zm-26.87-10.75h26.87c14.82,0,26.87-12.06,26.87-26.87s-12.06-26.87-26.87-26.87h-26.87v53.75Z"/>
    <path class="cls-9" d="m478.79,804.4h-32.25c-20.75,0-37.62-16.88-37.62-37.62s16.88-37.62,37.62-37.62h32.25c2.97,0,5.37,2.4,5.37,5.37v64.49c0,2.97-2.41,5.37-5.37,5.37Zm-32.25-64.49c-14.82,0-26.87,12.06-26.87,26.87s12.06,26.87,26.87,26.87h26.87v-53.75h-26.87Z"/>
    <path class="cls-9" d="m607.78,804.4h-64.49c-2.97,0-5.37-2.4-5.37-5.37v-64.49c0-2.97,2.41-5.37,5.37-5.37h64.49c2.97,0,5.37,2.4,5.37,5.37v64.49c0,2.97-2.41,5.37-5.37,5.37Zm-59.12-10.75h53.75v-53.75h-53.75v53.75Z"/>
    <path class="cls-9" d="m543.29,804.4h-64.49c-2.97,0-5.37-2.4-5.37-5.37v-64.49c0-2.97,2.41-5.37,5.37-5.37h64.49c2.97,0,5.37,2.4,5.37,5.37v64.49c0,2.97-2.41,5.37-5.37,5.37Zm-59.12-10.75h53.75v-53.75h-53.75v53.75Z"/>
    <path class="cls-4" d="m550.03,595.85c19.63,1.7,121.29-20.72,147.12-26.52,2.85-.64,4.11-3.97,2.42-6.36l-7.83-11.03c-34.46-14.14-117.27-36.16-134.66-37.67-22.53-1.94-42.37,14.74-44.31,37.26-1.95,22.53,14.74,42.37,37.26,44.31Z"/>
    <path class="cls-10" d="m537.3,570.96c22.37,3.24,154.43-19.02,154.43-19.02,0,0-120.33-58.77-142.71-62.01-22.38-3.24-43.14,12.28-46.38,34.66-3.24,22.37,12.28,43.14,34.66,46.38Z"/>
    <path class="cls-9" d="m543.01,576.63c-2.64,0-4.83-.11-6.47-.35-12.25-1.77-23.07-8.2-30.47-18.11-7.41-9.91-10.51-22.11-8.74-34.35,1.77-12.24,8.2-23.06,18.11-30.47,9.91-7.41,22.12-10.51,34.35-8.73,22.95,3.32,139.36,60.09,144.3,62.5,2.1,1.02,3.29,3.29,2.96,5.6-.34,2.31-2.12,4.14-4.43,4.53-5.04.85-115.45,19.39-149.62,19.39Zm.08-81.76c-7.62,0-15,2.44-21.21,7.08-7.61,5.69-12.55,14-13.91,23.4-1.36,9.4,1.02,18.76,6.71,26.37,5.69,7.61,14,12.55,23.4,13.91h0c15.45,2.19,92.42-9.21,136.05-16.25-39.85-19.12-110.45-51.91-125.87-54.15-1.73-.25-3.46-.37-5.17-.37Z"/>
    <path class="cls-4" d="m786.07,549.11h-40.94c-7.42,0-13.44-6.01-13.44-13.44s6.01-13.44,13.44-13.44h40.94c7.42,0,13.44,6.01,13.44,13.44s-6.02,13.44-13.44,13.44Z"/>
    <path class="cls-4" d="m689.17,414c-3.44,0-6.88-1.31-9.5-3.94-5.25-5.25-5.25-13.76,0-19l28.95-28.95c5.24-5.25,13.75-5.25,19,0,5.25,5.25,5.25,13.76,0,19l-28.95,28.95c-2.62,2.62-6.06,3.94-9.5,3.94Z"/>
    <path class="cls-4" d="m768.4,637.9c-1.71,0-3.45-.33-5.14-1.03l-37.82-15.67c-6.86-2.84-10.11-10.7-7.27-17.56,2.84-6.85,10.7-10.11,17.55-7.27l37.82,15.67c6.86,2.84,10.11,10.7,7.27,17.56-2.14,5.17-7.15,8.3-12.42,8.3Z"/>
    <path class="cls-4" d="m730.59,475.99c-5.27,0-10.28-3.12-12.42-8.3-2.84-6.86.41-14.72,7.27-17.56l37.82-15.67c6.85-2.85,14.72.41,17.55,7.27,2.84,6.86-.41,14.72-7.27,17.56l-37.82,15.67c-1.68.7-3.42,1.03-5.14,1.03Z"/>
    <path class="cls-4" d="m362.99,549.11h-40.94c-7.42,0-13.44-6.01-13.44-13.44s6.02-13.44,13.44-13.44h40.94c7.42,0,13.44,6.01,13.44,13.44s-6.01,13.44-13.44,13.44Z"/>
    <path class="cls-4" d="m377.53,475.99c-1.71,0-3.45-.33-5.14-1.03l-37.82-15.67c-6.86-2.84-10.11-10.7-7.27-17.56,2.84-6.85,10.7-10.11,17.55-7.27l37.82,15.67c6.86,2.84,10.11,10.7,7.27,17.56-2.14,5.17-7.15,8.3-12.42,8.3Z"/>
    <path class="cls-4" d="m339.72,637.9c-5.27,0-10.28-3.12-12.42-8.3-2.84-6.86.41-14.72,7.27-17.56l37.82-15.67c6.85-2.85,14.71.41,17.55,7.27,2.84,6.86-.41,14.72-7.27,17.56l-37.82,15.67c-1.68.7-3.42,1.03-5.14,1.03Z"/>
    <path class="cls-4" d="m554.06,358.04c-7.42,0-13.44-6.01-13.44-13.44v-40.94c0-7.42,6.01-13.44,13.44-13.44s13.44,6.02,13.44,13.44v40.94c0,7.42-6.02,13.44-13.44,13.44Z"/>
    <path class="cls-4" d="m418.96,414c-3.44,0-6.88-1.31-9.5-3.94l-28.95-28.95c-5.25-5.24-5.25-13.75,0-19,5.25-5.25,13.75-5.25,19,0l28.95,28.95c5.25,5.24,5.25,13.75,0,19-2.62,2.62-6.07,3.94-9.5,3.94Z"/>
    <path class="cls-4" d="m627.17,372.59c-1.71,0-3.46-.33-5.14-1.03-6.86-2.84-10.11-10.7-7.27-17.56l15.67-37.83c2.84-6.85,10.72-10.11,17.55-7.27,6.86,2.84,10.11,10.7,7.27,17.56l-15.67,37.83c-2.14,5.17-7.15,8.3-12.42,8.3Z"/>
    <path class="cls-4" d="m480.95,372.59c-5.27,0-10.28-3.12-12.42-8.3l-15.67-37.83c-2.84-6.86.41-14.72,7.27-17.56,6.84-2.85,14.72.41,17.55,7.27l15.67,37.83c2.84,6.86-.41,14.72-7.27,17.56-1.68.7-3.42,1.03-5.14,1.03Z"/>
    <path class="cls-10" d="m775.32,543.73h-40.94c-7.42,0-13.44-6.01-13.44-13.44s6.01-13.44,13.44-13.44h40.94c7.42,0,13.44,6.01,13.44,13.44s-6.02,13.44-13.44,13.44Z"/>
    <path class="cls-10" d="m678.42,408.62c-3.44,0-6.88-1.31-9.5-3.94-5.25-5.25-5.25-13.76,0-19l28.95-28.95c5.24-5.25,13.75-5.25,19,0,5.25,5.25,5.25,13.76,0,19l-28.95,28.95c-2.62,2.62-6.06,3.94-9.5,3.94Z"/>
    <path class="cls-10" d="m757.65,632.52c-1.71,0-3.45-.33-5.14-1.03l-37.82-15.67c-6.86-2.84-10.11-10.7-7.27-17.56,2.84-6.85,10.7-10.11,17.55-7.27l37.82,15.67c6.86,2.84,10.11,10.7,7.27,17.56-2.14,5.17-7.15,8.3-12.42,8.3Z"/>
    <path class="cls-10" d="m719.84,470.61c-5.27,0-10.28-3.12-12.42-8.3-2.84-6.86.41-14.72,7.27-17.56l37.82-15.67c6.85-2.84,14.71.41,17.55,7.27,2.84,6.86-.41,14.72-7.27,17.56l-37.82,15.67c-1.68.7-3.42,1.03-5.14,1.03Z"/>
    <path class="cls-7" d="m352.24,543.73h-40.94c-7.42,0-13.44-6.01-13.44-13.44s6.02-13.44,13.44-13.44h40.94c7.42,0,13.44,6.01,13.44,13.44s-6.01,13.44-13.44,13.44Z"/>
    <path class="cls-7" d="m366.78,470.61c-1.71,0-3.45-.33-5.14-1.03l-37.82-15.67c-6.86-2.84-10.11-10.7-7.27-17.56,2.84-6.85,10.7-10.11,17.55-7.27l37.82,15.67c6.86,2.84,10.11,10.7,7.27,17.56-2.14,5.17-7.15,8.3-12.42,8.3Z"/>
    <path class="cls-7" d="m328.97,632.52c-5.27,0-10.28-3.12-12.42-8.3-2.84-6.86.41-14.72,7.27-17.56l37.82-15.67c6.84-2.84,14.72.41,17.55,7.27,2.84,6.86-.41,14.72-7.27,17.56l-37.82,15.67c-1.68.7-3.42,1.03-5.14,1.03Z"/>
    <path class="cls-3" d="m543.31,352.66c-7.42,0-13.44-6.01-13.44-13.44v-40.94c0-7.42,6.01-13.44,13.44-13.44s13.44,6.02,13.44,13.44v40.94c0,7.42-6.02,13.44-13.44,13.44Z"/>
    <path class="cls-3" d="m408.21,408.62c-3.44,0-6.88-1.31-9.5-3.94l-28.95-28.95c-5.25-5.24-5.25-13.75,0-19,5.25-5.25,13.75-5.25,19,0l28.95,28.95c5.25,5.24,5.25,13.75,0,19-2.62,2.62-6.07,3.94-9.5,3.94Z"/>
    <path class="cls-3" d="m616.43,367.21c-1.71,0-3.46-.33-5.14-1.03-6.86-2.84-10.11-10.7-7.27-17.56l15.67-37.83c2.84-6.85,10.71-10.11,17.55-7.27,6.86,2.84,10.11,10.7,7.27,17.56l-15.67,37.83c-2.14,5.17-7.15,8.3-12.42,8.3Z"/>
    <path class="cls-3" d="m470.2,367.21c-5.27,0-10.28-3.12-12.42-8.3l-15.67-37.83c-2.84-6.86.41-14.72,7.27-17.56,6.84-2.84,14.72.41,17.55,7.27l15.67,37.83c2.84,6.86-.41,14.72-7.27,17.56-1.68.7-3.42,1.03-5.14,1.03Z"/>
    <circle class="cls-5" cx="543.29" cy="530.3" r="16.12"/>
    <g>
      <polygon class="cls-5" points="903.38 739.87 903.38 815.13 946.38 815.13 946.38 739.87 978.63 739.87 924.88 664.61 871.13 739.87 903.38 739.87"/>
      <path class="cls-7" d="m946.38,820.5h-43c-2.97,0-5.37-2.4-5.37-5.37v-69.88h-26.87c-2.01,0-3.86-1.12-4.78-2.92-.92-1.8-.76-3.95.4-5.58l53.75-75.25c2.02-2.82,6.73-2.82,8.75,0l53.75,75.25c1.17,1.64,1.32,3.79.4,5.58-.92,1.8-2.77,2.92-4.78,2.92h-26.87v69.88c0,2.97-2.41,5.37-5.37,5.37Zm-37.62-10.75h32.25v-69.88c0-2.97,2.41-5.37,5.37-5.37h21.8l-43.3-60.63-43.3,60.63h21.8c2.97,0,5.37,2.4,5.37,5.37v69.88Z"/>
      <polygon class="cls-5" points="118.7 686.12 118.7 761.37 161.69 761.37 161.69 686.12 193.94 686.12 140.19 610.86 86.45 686.12 118.7 686.12"/>
      <path class="cls-7" d="m161.69,766.74h-43c-2.97,0-5.37-2.4-5.37-5.37v-69.88h-26.87c-2.01,0-3.86-1.12-4.78-2.91-.92-1.8-.76-3.95.4-5.58l53.75-75.26c2.02-2.82,6.73-2.82,8.75,0l53.75,75.26c1.17,1.64,1.32,3.79.4,5.58-.92,1.79-2.77,2.91-4.78,2.91h-26.87v69.88c0,2.97-2.41,5.37-5.37,5.37Zm-37.62-10.75h32.25v-69.88c0-2.97,2.41-5.37,5.37-5.37h21.8l-43.3-60.63-43.3,60.63h21.8c2.97,0,5.37,2.4,5.37,5.37v69.88Z"/>
      <polygon class="cls-5" points="193.94 223.83 193.94 299.08 236.94 299.08 236.94 223.83 269.18 223.83 215.44 148.58 161.69 223.83 193.94 223.83"/>
      <path class="cls-7" d="m236.94,304.46h-43c-2.97,0-5.37-2.4-5.37-5.38v-69.88h-26.87c-2.01,0-3.86-1.12-4.78-2.91-.92-1.8-.76-3.95.4-5.58l53.75-75.25c2.02-2.82,6.73-2.82,8.75,0l53.75,75.25c1.17,1.64,1.32,3.79.4,5.58-.92,1.79-2.77,2.91-4.78,2.91h-26.87v69.88c0,2.98-2.41,5.38-5.37,5.38Zm-37.62-10.75h32.25v-69.88c0-2.97,2.41-5.37,5.37-5.37h21.8l-43.3-60.63-43.3,60.63h21.8c2.97,0,5.37,2.4,5.37,5.37v69.88Z"/>
      <polygon class="cls-5" points="210.06 842 210.06 917.26 253.06 917.26 253.06 842 285.31 842 231.56 766.74 177.82 842 210.06 842"/>
      <path class="cls-7" d="m253.06,922.63h-43c-2.97,0-5.37-2.4-5.37-5.37v-69.88h-26.87c-2.01,0-3.86-1.12-4.78-2.91-.92-1.8-.76-3.95.4-5.58l53.75-75.25c2.02-2.82,6.73-2.82,8.75,0l53.75,75.25c1.17,1.64,1.32,3.79.4,5.58-.92,1.79-2.77,2.91-4.78,2.91h-26.87v69.88c0,2.97-2.41,5.37-5.37,5.37Zm-37.62-10.75h32.25v-69.88c0-2.97,2.41-5.37,5.37-5.37h21.8l-43.3-60.63-43.3,60.63h21.8c2.97,0,5.37,2.4,5.37,5.37v69.88Z"/>
      <polygon class="cls-5" points="790.52 885.01 790.52 960.26 833.51 960.26 833.51 885.01 865.76 885.01 812.01 809.75 758.27 885.01 790.52 885.01"/>
      <path class="cls-7" d="m833.51,965.63h-43c-2.97,0-5.37-2.4-5.37-5.37v-69.88h-26.87c-2.01,0-3.86-1.12-4.78-2.91-.92-1.8-.76-3.95.4-5.59l53.75-75.25c2.02-2.82,6.73-2.82,8.75,0l53.75,75.25c1.17,1.64,1.32,3.79.4,5.59-.92,1.79-2.77,2.91-4.78,2.91h-26.87v69.88c0,2.97-2.41,5.37-5.37,5.37Zm-37.62-10.75h32.25v-69.88c0-2.97,2.41-5.38,5.37-5.38h21.8l-43.3-60.63-43.3,60.63h21.8c2.97,0,5.37,2.41,5.37,5.38v69.88Z"/>
      <polygon class="cls-5" points="812.01 175.45 812.01 250.71 855.01 250.71 855.01 175.45 887.26 175.45 833.51 100.2 779.77 175.45 812.01 175.45"/>
      <path class="cls-7" d="m855.01,256.08h-43c-2.97,0-5.37-2.4-5.37-5.37v-69.88h-26.87c-2.01,0-3.86-1.12-4.78-2.91-.92-1.79-.76-3.95.4-5.58l53.75-75.25c2.02-2.83,6.73-2.83,8.75,0l53.75,75.25c1.17,1.64,1.32,3.79.4,5.58-.92,1.79-2.77,2.91-4.78,2.91h-26.87v69.88c0,2.97-2.41,5.37-5.37,5.37Zm-37.62-10.75h32.25v-69.88c0-2.97,2.41-5.37,5.37-5.37h21.8l-43.3-60.63-43.3,60.63h21.8c2.97,0,5.37,2.4,5.37,5.37v69.88Z"/>
    </g>
  </g>
</svg>