<?xml version="1.0" encoding="UTF-8"?>
<svg id="Capa_1" data-name="Capa 1" xmlns="http://www.w3.org/2000/svg" xmlns:xlink="http://www.w3.org/1999/xlink" viewBox="0 0 1080 1080">
  <defs>
    <style>
      .cls-1 {
        fill: none;
      }

      .cls-2 {
        clip-path: url(#clippath);
      }

      .cls-3 {
        fill: #f6f6f6;
      }

      .cls-4 {
        fill: #66a8e3;
      }

      .cls-5 {
        fill: #fff;
      }

      .cls-6 {
        fill: #9c9aaa;
      }

      .cls-7 {
        fill: #33284d;
      }

      .cls-8 {
        fill: #2d3041;
      }

      .cls-9 {
        fill: #545869;
      }
    </style>
    <clipPath id="clippath">
      <circle class="cls-1" cx="563" cy="556.43" r="337.71"/>
    </clipPath>
  </defs>
  <path class="cls-3" d="m899.27,421.01c-23.83-65.17,2.52-169.46-51-214.22-51.87-43.38-150.47-1.04-222.15-13.76-71.68-12.72-149.24-86.32-213.13-63.48-65.91,23.57-77.88,130.41-123.15,183.32-43.87,51.29-149.15,79.88-162.01,150.75-12.86,70.87,75.79,133.87,98.89,197.04,23.83,65.17-2.52,169.46,51,214.22,51.87,43.38,150.47,1.04,222.15,13.76,71.68,12.72,149.24,86.32,213.13,63.48,65.91-23.57,77.89-130.41,123.15-183.32,43.87-51.29,149.15-79.88,162.01-150.75,12.86-70.87-75.79-133.87-98.89-197.04Z"/>
  <path class="cls-5" d="m1004.63,725.04l-7.38-17.82-21.99,3.27,3.27-21.99-17.82-7.38-13.23,17.86-13.23-17.86-17.82,7.38,3.27,21.99-21.98-3.27-7.38,17.82,17.86,13.23-17.86,13.24,7.38,17.82,21.99-3.27-3.28,21.98,17.82,7.38,13.24-17.86,13.23,17.86,17.82-7.38-3.27-21.99,21.98,3.27,7.38-17.82-17.86-13.23,17.86-13.24Z"/>
  <path class="cls-6" d="m960.71,800.62c-1.61,0-3.17-.75-4.18-2.1l-9.06-12.23-9.06,12.23c-1.42,1.92-3.98,2.61-6.17,1.71l-17.82-7.38c-2.2-.91-3.5-3.21-3.15-5.57l2.24-15.05-15.05,2.24c-2.32.34-4.65-.94-5.57-3.15l-7.38-17.82c-.91-2.2-.21-4.74,1.7-6.16l12.23-9.06-12.23-9.06c-1.92-1.42-2.62-3.96-1.71-6.16l7.38-17.82c.91-2.2,3.25-3.5,5.57-3.15l15.05,2.24-2.24-15.05c-.35-2.36.95-4.66,3.15-5.57l17.82-7.38c2.18-.91,4.74-.21,6.16,1.71l9.06,12.23,9.06-12.23c1.42-1.92,3.97-2.62,6.17-1.71l17.81,7.38c2.2.91,3.5,3.21,3.15,5.56l-2.24,15.05,15.05-2.24c2.32-.36,4.65.94,5.57,3.15l7.38,17.82c.91,2.2.21,4.74-1.7,6.16l-12.23,9.06,12.23,9.05c1.91,1.42,2.62,3.96,1.7,6.16l-7.38,17.82c-.91,2.21-3.24,3.5-5.57,3.15l-15.05-2.24,2.24,15.05c.35,2.36-.95,4.65-3.15,5.56l-17.82,7.38c-.64.27-1.32.4-1.99.4Zm-13.23-28.25h0c1.65,0,3.2.78,4.18,2.1l10.82,14.6,10.33-4.28-2.67-17.98c-.24-1.63.3-3.28,1.47-4.44,1.16-1.16,2.78-1.7,4.44-1.47l17.97,2.68,4.28-10.33-14.6-10.81c-1.32-.98-2.1-2.53-2.1-4.18s.78-3.19,2.1-4.17l14.6-10.82-4.28-10.33-17.98,2.68c-1.66.24-3.28-.3-4.44-1.47-1.16-1.16-1.71-2.81-1.47-4.44l2.67-17.98-10.32-4.27-10.82,14.6c-.98,1.32-2.53,2.1-4.18,2.1h0c-1.65,0-3.2-.78-4.18-2.1l-10.82-14.6-10.33,4.28,2.67,17.97c.24,1.63-.3,3.27-1.47,4.44-1.16,1.16-2.78,1.7-4.44,1.47l-17.97-2.68-4.28,10.32,14.6,10.82c1.32.98,2.11,2.53,2.11,4.18s-.78,3.19-2.1,4.18l-14.61,10.82,4.28,10.33,17.98-2.68c1.66-.24,3.28.3,4.44,1.47,1.17,1.16,1.71,2.81,1.47,4.44l-2.68,17.97,10.32,4.28,10.82-14.6c.98-1.32,2.53-2.1,4.18-2.1Z"/>
  <circle class="cls-6" cx="947.47" cy="738.28" r="18.18"/>
  <path class="cls-5" d="m833.17,169.11l-7.38-17.82-21.99,3.27,3.27-21.99-17.81-7.38-13.24,17.86-13.23-17.86-17.82,7.38,3.27,21.99-21.98-3.27-7.38,17.82,17.86,13.23-17.86,13.24,7.38,17.82,21.99-3.27-3.28,21.98,17.82,7.38,13.24-17.86,13.23,17.86,17.82-7.38-3.27-21.99,21.98,3.27,7.38-17.82-17.86-13.23,17.86-13.24Z"/>
  <path class="cls-6" d="m789.25,244.69c-1.61,0-3.17-.75-4.18-2.1l-9.06-12.23-9.06,12.23c-1.43,1.92-3.98,2.61-6.17,1.71l-17.82-7.39c-2.2-.91-3.5-3.21-3.15-5.57l2.24-15.05-15.05,2.24c-2.34.33-4.65-.95-5.57-3.15l-7.38-17.82c-.91-2.2-.21-4.74,1.7-6.16l12.23-9.06-12.23-9.06c-1.92-1.42-2.62-3.96-1.71-6.16l7.38-17.82c.91-2.21,3.23-3.49,5.57-3.15l15.05,2.24-2.24-15.05c-.35-2.36.95-4.66,3.15-5.57l17.82-7.38c2.19-.91,4.74-.22,6.16,1.71l9.06,12.23,9.06-12.23c1.42-1.92,3.97-2.62,6.17-1.71l17.81,7.38c2.2.91,3.5,3.21,3.15,5.56l-2.24,15.05,15.05-2.24c2.33-.34,4.65.94,5.57,3.15l7.38,17.82c.91,2.2.21,4.74-1.7,6.16l-12.23,9.06,12.23,9.05c1.91,1.42,2.62,3.96,1.7,6.16l-7.38,17.82c-.91,2.21-3.23,3.48-5.57,3.15l-15.05-2.24,2.24,15.05c.35,2.36-.95,4.65-3.15,5.56l-17.82,7.38c-.64.27-1.32.4-1.99.4Zm-13.23-28.25h0c1.65,0,3.2.78,4.18,2.1l10.82,14.6,10.33-4.28-2.67-17.98c-.24-1.63.3-3.27,1.47-4.44,1.16-1.16,2.78-1.7,4.44-1.47l17.97,2.68,4.28-10.33-14.6-10.82c-1.32-.98-2.1-2.53-2.1-4.18s.78-3.19,2.1-4.17l14.6-10.82-4.28-10.33-17.98,2.68c-1.66.24-3.28-.3-4.44-1.47-1.16-1.16-1.71-2.81-1.47-4.44l2.67-17.98-10.32-4.27-10.82,14.6c-.98,1.32-2.53,2.1-4.18,2.1h0c-1.65,0-3.2-.78-4.18-2.1l-10.82-14.6-10.33,4.28,2.67,17.97c.24,1.63-.3,3.27-1.47,4.44-1.16,1.16-2.78,1.7-4.44,1.47l-17.97-2.68-4.28,10.32,14.6,10.82c1.32.98,2.11,2.53,2.11,4.18s-.78,3.19-2.1,4.18l-14.61,10.82,4.28,10.33,17.98-2.68c1.66-.24,3.28.3,4.44,1.47,1.17,1.16,1.71,2.81,1.47,4.44l-2.68,17.97,10.32,4.28,10.82-14.6c.98-1.32,2.53-2.1,4.18-2.1Z"/>
  <circle class="cls-6" cx="776.02" cy="182.35" r="18.18"/>
  <path class="cls-5" d="m235.68,340.57l-7.38-17.82-21.99,3.27,3.27-21.99-17.81-7.38-13.24,17.86-13.23-17.86-17.82,7.38,3.27,21.99-21.98-3.27-7.38,17.82,17.86,13.23-17.86,13.24,7.38,17.82,21.99-3.27-3.28,21.98,17.82,7.39,13.24-17.86,13.23,17.86,17.82-7.38-3.27-21.99,21.98,3.27,7.38-17.82-17.86-13.23,17.86-13.24Z"/>
  <path class="cls-6" d="m191.76,416.15c-1.61,0-3.17-.75-4.18-2.1l-9.06-12.23-9.06,12.23c-1.43,1.92-3.98,2.61-6.17,1.71l-17.82-7.39c-2.2-.91-3.5-3.21-3.15-5.57l2.24-15.05-15.05,2.24c-2.34.34-4.65-.95-5.57-3.15l-7.38-17.82c-.91-2.2-.21-4.74,1.7-6.16l12.23-9.06-12.23-9.06c-1.92-1.42-2.62-3.96-1.71-6.16l7.38-17.82c.91-2.2,3.23-3.5,5.57-3.15l15.05,2.24-2.24-15.05c-.35-2.36.95-4.66,3.15-5.57l17.82-7.38c2.19-.91,4.74-.21,6.16,1.71l9.06,12.23,9.06-12.23c1.42-1.92,3.97-2.62,6.17-1.71l17.81,7.38c2.2.91,3.5,3.21,3.15,5.56l-2.24,15.05,15.05-2.24c2.33-.35,4.65.94,5.57,3.15l7.38,17.82c.91,2.2.21,4.74-1.7,6.16l-12.23,9.06,12.23,9.05c1.91,1.42,2.62,3.96,1.7,6.16l-7.38,17.82c-.91,2.2-3.23,3.5-5.57,3.15l-15.05-2.24,2.24,15.05c.35,2.36-.95,4.66-3.15,5.57l-17.82,7.38c-.64.27-1.32.4-1.99.4Zm-13.23-28.25h0c1.65,0,3.2.78,4.18,2.1l10.82,14.6,10.33-4.28-2.67-17.97c-.24-1.63.3-3.27,1.47-4.44,1.16-1.16,2.78-1.7,4.44-1.47l17.97,2.68,4.28-10.33-14.6-10.82c-1.32-.98-2.1-2.53-2.1-4.18s.78-3.19,2.1-4.17l14.6-10.82-4.28-10.33-17.98,2.68c-1.66.24-3.28-.3-4.44-1.47-1.16-1.16-1.71-2.81-1.47-4.44l2.67-17.98-10.32-4.27-10.82,14.6c-.98,1.32-2.53,2.1-4.18,2.1h0c-1.65,0-3.2-.78-4.18-2.1l-10.82-14.6-10.33,4.28,2.67,17.97c.24,1.63-.3,3.27-1.47,4.44-1.16,1.16-2.78,1.7-4.44,1.47l-17.97-2.68-4.28,10.32,14.6,10.82c1.32.98,2.11,2.53,2.11,4.18s-.78,3.19-2.1,4.18l-14.61,10.82,4.28,10.33,17.98-2.68c1.66-.24,3.28.3,4.44,1.47,1.17,1.16,1.71,2.81,1.47,4.44l-2.68,17.97,10.32,4.28,10.82-14.6c.98-1.32,2.53-2.1,4.18-2.1Z"/>
  <circle class="cls-6" cx="178.53" cy="353.8" r="18.18"/>
  <path class="cls-5" d="m287.63,808.17l-7.38-17.82-21.99,3.27,3.27-21.99-17.81-7.38-13.24,17.86-13.23-17.86-17.82,7.38,3.27,21.99-21.98-3.27-7.38,17.82,17.86,13.23-17.86,13.24,7.38,17.82,21.99-3.27-3.28,21.98,17.82,7.39,13.24-17.86,13.23,17.86,17.82-7.38-3.27-21.99,21.98,3.27,7.38-17.82-17.86-13.23,17.86-13.24Z"/>
  <path class="cls-6" d="m243.71,883.75c-1.61,0-3.17-.75-4.18-2.1l-9.06-12.23-9.06,12.23c-1.43,1.92-3.98,2.61-6.17,1.71l-17.82-7.39c-2.2-.91-3.5-3.21-3.15-5.57l2.24-15.05-15.05,2.24c-2.33.34-4.65-.95-5.57-3.15l-7.38-17.82c-.91-2.2-.21-4.74,1.7-6.16l12.23-9.06-12.23-9.06c-1.92-1.42-2.62-3.96-1.71-6.16l7.38-17.82c.91-2.2,3.24-3.5,5.57-3.15l15.05,2.24-2.24-15.05c-.35-2.36.95-4.66,3.15-5.57l17.82-7.38c2.19-.91,4.74-.21,6.16,1.71l9.06,12.23,9.06-12.23c1.42-1.92,3.97-2.61,6.17-1.71l17.81,7.38c2.2.91,3.5,3.21,3.15,5.56l-2.24,15.05,15.05-2.24c2.32-.35,4.65.94,5.57,3.15l7.38,17.82c.91,2.2.21,4.74-1.7,6.16l-12.23,9.06,12.23,9.05c1.91,1.42,2.62,3.96,1.7,6.16l-7.38,17.82c-.91,2.2-3.24,3.5-5.57,3.15l-15.05-2.24,2.24,15.05c.35,2.36-.95,4.66-3.15,5.57l-17.82,7.38c-.64.27-1.32.4-1.99.4Zm-13.23-28.25h0c1.65,0,3.2.78,4.18,2.1l10.82,14.6,10.33-4.28-2.67-17.97c-.24-1.63.3-3.27,1.47-4.44,1.16-1.16,2.78-1.7,4.44-1.47l17.97,2.68,4.28-10.33-14.6-10.82c-1.32-.98-2.1-2.53-2.1-4.18s.78-3.19,2.1-4.17l14.6-10.82-4.28-10.33-17.98,2.68c-1.66.24-3.28-.3-4.44-1.47-1.16-1.16-1.71-2.81-1.47-4.44l2.67-17.98-10.32-4.27-10.82,14.6c-.98,1.32-2.53,2.1-4.18,2.1h0c-1.65,0-3.2-.78-4.18-2.1l-10.82-14.6-10.33,4.28,2.67,17.97c.24,1.63-.3,3.28-1.47,4.44-1.16,1.16-2.78,1.7-4.44,1.47l-17.97-2.68-4.28,10.32,14.6,10.82c1.32.98,2.11,2.53,2.11,4.18s-.78,3.19-2.1,4.18l-14.61,10.82,4.28,10.33,17.98-2.68c1.66-.24,3.28.3,4.44,1.47,1.17,1.16,1.71,2.81,1.47,4.44l-2.68,17.97,10.32,4.28,10.82-14.6c.98-1.32,2.53-2.1,4.18-2.1Z"/>
  <circle class="cls-6" cx="230.48" cy="821.41" r="18.18"/>
  <path class="cls-5" d="m765.63,886.1l-7.38-17.82-21.99,3.27,3.27-21.99-17.81-7.38-13.24,17.86-13.23-17.86-17.82,7.38,3.27,21.99-21.98-3.27-7.38,17.82,17.86,13.23-17.86,13.24,7.38,17.82,21.99-3.27-3.28,21.98,17.82,7.39,13.24-17.86,13.23,17.86,17.82-7.38-3.27-21.99,21.98,3.27,7.38-17.82-17.86-13.23,17.86-13.24Z"/>
  <path class="cls-6" d="m721.71,961.69c-1.61,0-3.17-.75-4.18-2.1l-9.06-12.23-9.06,12.23c-1.43,1.92-3.98,2.61-6.17,1.71l-17.82-7.39c-2.2-.91-3.5-3.21-3.15-5.57l2.24-15.05-15.05,2.24c-2.33.34-4.65-.94-5.57-3.15l-7.38-17.82c-.91-2.2-.21-4.74,1.7-6.16l12.23-9.06-12.23-9.06c-1.92-1.42-2.62-3.96-1.71-6.16l7.38-17.82c.91-2.21,3.24-3.49,5.57-3.15l15.05,2.24-2.24-15.05c-.35-2.36.95-4.66,3.15-5.57l17.82-7.38c2.19-.91,4.74-.21,6.16,1.71l9.06,12.23,9.06-12.23c1.42-1.92,3.97-2.62,6.17-1.71l17.81,7.38c2.2.91,3.5,3.21,3.15,5.56l-2.24,15.05,15.05-2.24c2.31-.34,4.65.94,5.57,3.15l7.38,17.82c.91,2.2.21,4.74-1.7,6.16l-12.23,9.06,12.23,9.05c1.91,1.42,2.62,3.96,1.7,6.16l-7.38,17.82c-.91,2.21-3.25,3.49-5.57,3.15l-15.05-2.24,2.24,15.05c.35,2.36-.95,4.65-3.15,5.56l-17.82,7.38c-.64.27-1.32.4-1.99.4Zm-13.23-28.25h0c1.65,0,3.2.78,4.18,2.1l10.82,14.6,10.33-4.28-2.67-17.98c-.24-1.63.3-3.27,1.47-4.44,1.16-1.16,2.78-1.7,4.44-1.47l17.97,2.68,4.28-10.33-14.6-10.82c-1.32-.98-2.1-2.53-2.1-4.18s.78-3.19,2.1-4.17l14.6-10.82-4.28-10.33-17.98,2.68c-1.66.24-3.28-.3-4.44-1.47-1.16-1.16-1.71-2.81-1.47-4.44l2.67-17.98-10.32-4.27-10.82,14.6c-.98,1.32-2.53,2.1-4.18,2.1h0c-1.65,0-3.2-.78-4.18-2.1l-10.82-14.6-10.33,4.28,2.67,17.97c.24,1.63-.3,3.27-1.47,4.44-1.16,1.16-2.78,1.7-4.44,1.47l-17.97-2.68-4.28,10.32,14.6,10.82c1.32.98,2.11,2.53,2.11,4.18s-.78,3.19-2.1,4.18l-14.61,10.82,4.28,10.33,17.98-2.68c1.66-.24,3.28.3,4.44,1.47,1.17,1.16,1.71,2.81,1.47,4.44l-2.68,17.97,10.32,4.28,10.82-14.6c.98-1.32,2.53-2.1,4.18-2.1Z"/>
  <circle class="cls-6" cx="708.48" cy="899.34" r="18.18"/>
  <g class="cls-2">
    <path class="cls-6" d="m801.04,634.88l20.82-21c6.74-7.28,10.52-17.14,10.52-27.44v-66.01c0-10.54-6.54-20.24-16.11-22.31-13.05-2.83-24.52,7.87-24.52,21.49v-85.56c0-9.04-6.18-17.43-15.14-18.89-11.4-1.86-21.26,6.89-21.25,17.88h0v-27.14c0-10.97-9.79-19.69-21.16-17.91-9,1.41-15.23,9.84-15.23,18.91v8.59c0-10.99-9.79-19.69-21.17-17.91-8.99,1.41-15.22,9.83-15.22,18.9v26.28h-.02c.01-11.01-9.81-19.71-21.19-17.91-8.98,1.42-15.2,9.84-15.2,18.91v93.14c0,28.07,2.49,56.09,7.44,83.72l12.55,70.06h-32.9v265.81h173.11v-265.81h-14.63v-33.23c0-8.45,3.34-16.56,9.3-22.57Z"/>
    <rect class="cls-9" x="698.19" y="334.1" width="306.44" height="172.54"/>
    <path class="cls-8" d="m791.75,434.04c0-9.04-6.18-17.43-15.14-18.89-11.4-1.86-21.26,6.89-21.25,17.88h0v-27.14c0-10.97-9.79-19.69-21.16-17.91-9,1.41-15.23,9.84-15.23,18.91v8.59c0-10.99-9.79-19.69-21.17-17.91-8.99,1.41-15.22,9.83-15.22,18.9v26.28h-.02c.01-11.01-9.81-19.71-21.19-17.91-8.98,1.42-15.2,9.84-15.2,18.91v62.87h145.58v-72.59Z"/>
    <path class="cls-8" d="m816.27,498.11c-8.4-1.82-16.11,1.97-20.56,8.52h32.53c-2.85-4.26-6.98-7.44-11.97-8.52Z"/>
    <path class="cls-7" d="m1004.63,511.83h-306.44c-2.87,0-5.2-2.33-5.2-5.2v-94.54c0-2.87,2.32-5.2,5.2-5.2s5.2,2.33,5.2,5.2v89.34h296.05v-162.14h-296.05v31.24c0,2.87-2.32,5.2-5.2,5.2s-5.2-2.33-5.2-5.2v-36.44c0-2.87,2.32-5.2,5.2-5.2h306.44c2.87,0,5.2,2.33,5.2,5.2v172.54c0,2.87-2.32,5.2-5.2,5.2Z"/>
    <path class="cls-5" d="m770.97,690.68v-33.23c0-8.45,3.34-16.56,9.3-22.57l20.82-21c6.74-7.28,10.52-17.14,10.52-27.44v-66.01c0-10.54-6.54-20.24-16.11-22.31-13.05-2.83-24.52,7.87-24.52,21.49v-85.56c0-9.04-6.18-17.43-15.14-18.89-11.4-1.86-21.26,6.89-21.25,17.88h0v-27.14c0-10.97-9.79-19.69-21.16-17.91-9,1.41-15.23,9.84-15.23,18.91v8.59c0-10.99-9.79-19.69-21.17-17.91-8.99,1.41-15.22,9.83-15.22,18.9v26.28h-.02c.01-11.01-9.81-19.71-21.19-17.91-8.98,1.42-15.2,9.84-15.2,18.91v93.14c0,28.07,2.49,56.09,7.44,83.72l12.55,70.06h125.59Z"/>
    <path class="cls-6" d="m757.43,705.03c-1.27-8.04-7.01-14.66-14.61-17.72,4.23-5.15,6.04-11.89,4.98-18.56-1.76-11.14-12.12-19.55-24.1-19.55h-6.9c3.26-4.87,4.58-10.84,3.63-16.75-1.77-11.13-12.13-19.53-24.1-19.53h-93.45c-28.39,0-56.96,2.52-84.92,7.5l-74.58,13.27v134.71h38.54c7.16,0,13.91,2.76,19,7.77l21.2,20.87c8.31,7.65,19.34,11.86,31.04,11.86h66.24c13.37,0,24.92-8.47,27.46-20.15,1.59-7.27-.07-14.49-4.68-20.35h63.89c11.91,0,22.26-8.36,24.08-19.45.97-5.93-.34-11.93-3.62-16.83h7.78c6.87,0,13.36-3,17.81-8.21,4.43-5.19,6.36-12.08,5.28-18.89Zm-137.19,58.18h0Z"/>
    <path class="cls-7" d="m645.37,695.87c-2.47,0-4.66-1.77-5.11-4.28l-12.55-70.06c-4.99-27.87-7.52-56.35-7.52-84.64v-93.14c0-11.94,8.42-22.27,19.58-24.04,5.94-.94,11.93.38,16.82,3.64v-6.88c0-11.95,8.43-22.28,19.61-24.03,6.72-1.05,13.46.77,18.62,4.99,3.07-7.59,9.71-13.32,17.78-14.59,6.86-1.07,13.78.86,18.99,5.32,5.2,4.44,8.17,10.9,8.18,17.72v7.76c4.91-3.28,10.91-4.6,16.9-3.62,11.12,1.81,19.5,12.13,19.5,24.01v63.68c5.88-4.61,13.13-6.28,20.42-4.69,11.71,2.53,20.21,14.05,20.21,27.39v66.01c0,11.67-4.22,22.67-11.91,30.97l-20.94,21.13c-5.02,5.07-7.79,11.78-7.79,18.91v33.23c0,2.87-2.32,5.2-5.2,5.2s-5.2-2.33-5.2-5.2v-33.23c0-9.88,3.84-19.2,10.8-26.22l20.82-21c5.69-6.15,9.02-14.86,9.02-23.78v-66.02c0-8.34-5.16-15.75-12.02-17.23-4.29-.93-8.54.08-11.98,2.85-3.9,3.15-6.24,8.22-6.24,13.56,0,2.87-2.32,5.2-5.2,5.2s-5.2-2.33-5.2-5.2v-85.56c0-6.84-4.63-12.76-10.78-13.76-3.9-.64-7.7.4-10.66,2.92-2.9,2.47-4.56,6.05-4.56,9.83h0c0,2.87-2.32,5.2-5.2,5.2s-5.2-2.33-5.2-5.2c0-.23,0-.45,0-.68v-26.46c0-3.78-1.67-7.36-4.55-9.83-2.94-2.51-6.74-3.57-10.62-2.95-6.18.97-10.84,6.9-10.84,13.78v8.57s0,0,0,.01h0c0,2.88-2.32,5.21-5.2,5.21h0c-2.87,0-5.2-2.32-5.2-5.19h0c0-3.78-1.65-7.36-4.53-9.83-2.95-2.52-6.72-3.56-10.65-2.95-6.17.97-10.83,6.89-10.83,13.77v26.28c0,2.87-2.32,5.2-5.2,5.2-1.38,0-2.71-.55-3.68-1.52-.97-.97-1.53-2.3-1.53-3.68,0-3.78-1.65-7.36-4.53-9.83-2.95-2.52-6.73-3.57-10.65-2.95-6.16.97-10.81,6.9-10.81,13.77v93.14c0,27.68,2.48,55.54,7.36,82.81l12.55,70.06c.51,2.82-1.37,5.53-4.2,6.03-.31.06-.62.08-.92.08Z"/>
    <path class="cls-7" d="m734.59,504.01c-2.87,0-5.2-2.33-5.2-5.2v-65.77c0-2.87,2.32-5.2,5.2-5.2s5.2,2.33,5.2,5.2v65.77c0,2.87-2.32,5.2-5.2,5.2Z"/>
    <path class="cls-7" d="m661.79,515.32c-2.87,0-5.2-2.33-5.2-5.2v-67.36c0-2.87,2.32-5.2,5.2-5.2s5.2,2.33,5.2,5.2v67.36c0,2.87-2.32,5.2-5.2,5.2Z"/>
    <path class="cls-7" d="m757.83,583.17c-1.26,0-2.53-.46-3.53-1.39-2.11-1.95-2.23-5.24-.28-7.34l8.13-8.77c2.3-2.48,3.62-5.95,3.62-9.51v-36.55c0-2.87,2.32-5.2,5.2-5.2s5.2,2.33,5.2,5.2v36.55c0,6.24-2.27,12.13-6.39,16.58l-8.13,8.77c-1.03,1.11-2.41,1.66-3.81,1.66Z"/>
    <path class="cls-7" d="m698.19,509.67c-2.87,0-5.2-2.33-5.2-5.2v-88.98c0-2.87,2.32-5.2,5.2-5.2s5.2,2.33,5.2,5.2v88.98c0,2.87-2.32,5.2-5.2,5.2Z"/>
    <rect class="cls-4" x="612.48" y="690.68" width="173.11" height="265.81"/>
    <path class="cls-8" d="m785.59,961.69h-173.11c-2.87,0-5.2-2.33-5.2-5.2v-265.81c0-2.87,2.32-5.2,5.2-5.2h89.67c2.87,0,5.2,2.33,5.2,5.2s-2.32,5.2-5.2,5.2h-84.48v255.42h162.72v-255.42h-36.68c-2.87,0-5.2-2.33-5.2-5.2s2.32-5.2,5.2-5.2h41.87c2.87,0,5.2,2.33,5.2,5.2v265.81c0,2.87-2.32,5.2-5.2,5.2Z"/>
    <path class="cls-5" d="m427.81,763.21h33.34c8.48,0,16.62,3.33,22.64,9.26l21.08,20.75c7.3,6.72,17.2,10.49,27.53,10.49h66.24c10.58,0,20.31-6.52,22.39-16.06,2.84-13.02-7.9-24.44-21.56-24.44h85.84c9.07,0,17.48-6.17,18.95-15.09,1.86-11.36-6.91-21.19-17.95-21.18h0s27.24-.01,27.24-.01c11.01,0,19.76-9.75,17.97-21.1-1.42-8.96-9.87-15.17-18.98-15.17h-8.62c11.03,0,19.76-9.76,17.97-21.11-1.42-8.96-9.87-15.16-18.97-15.16h-26.37v-.02c11.05.01,19.78-9.77,17.98-21.11-1.43-8.95-9.87-15.15-18.97-15.15h-93.45c-28.17,0-56.28,2.48-84.01,7.42l-70.29,12.51v125.16Z"/>
    <path class="cls-6" d="m427.81,635.57v101.79c2.84-1.7,5.44-3.78,7.72-6.18,5.21,1.56,10.75,1.96,16.29,1.09,14.14-2.22,25.45-13.07,29.22-26.84,2.39.1,4.8-.05,7.21-.43,17.41-2.75,30.54-18.6,30.54-36.87v-45.8l-90.98,13.24Z"/>
    <path class="cls-8" d="m598.64,808.91h-66.24c-11.71,0-22.73-4.21-31.04-11.86l-21.2-20.87c-5.09-5.01-11.84-7.77-19-7.77h-33.34c-2.87,0-5.2-2.33-5.2-5.2s2.32-5.2,5.2-5.2h33.34c9.91,0,19.24,3.82,26.29,10.76l21.07,20.74c6.17,5.68,14.92,9,23.88,9h66.24c8.38,0,15.82-5.14,17.31-11.97.92-4.24-.08-8.46-2.82-11.87-3.16-3.92-8.27-6.27-13.66-6.27-2.87,0-5.2-2.33-5.2-5.2s2.32-5.2,5.2-5.2h85.84c6.88,0,12.82-4.61,13.82-10.73.64-3.87-.39-7.62-2.89-10.56-2.48-2.91-6.09-4.58-9.91-4.58h-.02c-1.8,0-3.47-.93-4.42-2.46-.95-1.53-1.03-3.45-.23-5.06.88-1.76,2.68-2.88,4.65-2.88h27.24c3.82,0,7.43-1.67,9.91-4.57,2.49-2.92,3.53-6.65,2.92-10.52-.97-6.15-6.92-10.79-13.84-10.79h-8.63c-2.87,0-5.2-2.32-5.2-5.19s2.32-5.2,5.2-5.2h0c3.83,0,7.44-1.66,9.91-4.56,2.5-2.92,3.53-6.66,2.92-10.54-.97-6.14-6.92-10.78-13.84-10.78h-26.37c-2.87,0-5.2-2.33-5.2-5.2,0-1.38.55-2.71,1.52-3.68s2.3-1.53,3.67-1.53h.02c3.83,0,7.44-1.66,9.91-4.56,2.5-2.92,3.53-6.67,2.92-10.54-.98-6.14-6.93-10.77-13.84-10.77h-93.45c-27.78,0-55.74,2.47-83.1,7.33l-70.29,12.51c-2.82.53-5.52-1.38-6.02-4.2-.5-2.83,1.38-5.52,4.21-6.03l70.29-12.51c27.95-4.97,56.52-7.49,84.92-7.49h93.45c11.97,0,22.33,8.39,24.1,19.52.94,5.91-.38,11.88-3.63,16.75h6.9c11.98,0,22.34,8.4,24.1,19.55,1.06,6.67-.76,13.41-4.98,18.56,7.6,3.06,13.34,9.68,14.61,17.72,1.08,6.81-.85,13.7-5.28,18.89-4.46,5.22-10.94,8.21-17.81,8.21h-7.78c3.28,4.9,4.59,10.9,3.62,16.83-1.82,11.09-12.17,19.45-24.08,19.45h-63.89c4.61,5.86,6.27,13.08,4.68,20.35-2.54,11.67-14.09,20.15-27.46,20.15Z"/>
    <path class="cls-8" d="m686.31,732.15h-66c-2.87,0-5.2-2.33-5.2-5.2s2.32-5.2,5.2-5.2h66c2.87,0,5.2,2.33,5.2,5.2s-2.32,5.2-5.2,5.2Z"/>
    <path class="cls-8" d="m676.56,659.6h-67.59c-2.87,0-5.2-2.33-5.2-5.2s2.32-5.2,5.2-5.2h67.59c2.87,0,5.2,2.33,5.2,5.2s-2.32,5.2-5.2,5.2Z"/>
    <path class="cls-8" d="m599.47,768.42h-36.68c-6.26,0-12.16-2.27-16.61-6.37l-8.8-8.1c-2.11-1.95-2.24-5.23-.3-7.34,1.94-2.11,5.23-2.24,7.34-.3l8.8,8.11c2.49,2.3,5.98,3.62,9.57,3.62h36.68c2.87,0,5.2,2.33,5.2,5.2s-2.33,5.2-5.2,5.2Z"/>
    <path class="cls-8" d="m614.64,695.87c-2.87,0-5.2-2.33-5.2-5.2s2.32-5.2,5.2-5.2h89.28c2.87,0,5.2,2.32,5.2,5.19s-2.32,5.2-5.2,5.2h-89.28Z"/>
    <rect class="cls-9" x="121.37" y="605.26" width="306.44" height="172.54"/>
    <path class="cls-8" d="m427.81,782.99H121.37c-2.87,0-5.2-2.33-5.2-5.2v-172.54c0-2.87,2.32-5.2,5.2-5.2h306.44c2.87,0,5.2,2.33,5.2,5.2v94.54c0,2.87-2.32,5.2-5.2,5.2s-5.2-2.33-5.2-5.2v-89.34H126.57v162.14h296.05v-31.24c0-2.87,2.32-5.2,5.2-5.2s5.2,2.33,5.2,5.2v36.44c0,2.87-2.32,5.2-5.2,5.2Z"/>
    <path class="cls-5" d="m355.03,421.21v33.23c0,8.45-3.34,16.56-9.3,22.57l-20.82,21c-6.74,7.28-10.53,17.14-10.52,27.44v66.01c0,10.54,6.54,20.24,16.11,22.31,13.05,2.83,24.52-7.87,24.52-21.49v85.55c0,9.04,6.18,17.43,15.14,18.89,11.4,1.86,21.26-6.89,21.25-17.88h0v27.14c0,10.97,9.79,19.69,21.16,17.91,9-1.41,15.23-9.84,15.23-18.91v-8.59c0,10.99,9.8,19.69,21.18,17.91,8.99-1.41,15.21-9.83,15.21-18.9v-26.28h.02c-.01,11.01,9.81,19.71,21.19,17.91,8.98-1.42,15.2-9.84,15.2-18.91v-93.14c0-28.07-2.49-56.09-7.44-83.72l-12.55-70.06h-125.59Z"/>
    <path class="cls-8" d="m409.67,729.32c-5.59,0-11-1.96-15.26-5.6-5.2-4.44-8.17-10.9-8.18-17.72v-7.76c-4.91,3.28-10.92,4.6-16.9,3.62-11.12-1.81-19.5-12.13-19.5-24.01v-63.68c-5.88,4.61-13.13,6.28-20.42,4.69-11.71-2.53-20.21-14.05-20.21-27.39v-66.01c0-11.68,4.23-22.67,11.91-30.97l20.94-21.13c5.02-5.07,7.79-11.78,7.79-18.91v-33.23c0-2.87,2.32-5.2,5.2-5.2s5.2,2.33,5.2,5.2v33.23c0,9.88-3.84,19.2-10.8,26.23l-20.82,21c-5.68,6.14-9.02,14.86-9.02,23.78v66.01c0,8.34,5.16,15.75,12.02,17.23,4.29.93,8.54-.08,11.98-2.85,3.9-3.15,6.24-8.22,6.24-13.56,0-2.87,2.32-5.2,5.2-5.2s5.2,2.33,5.2,5.2v85.56c0,6.84,4.63,12.76,10.78,13.76,3.89.63,7.7-.4,10.66-2.92,2.9-2.47,4.56-6.05,4.56-9.83h0c0-2.87,2.32-5.2,5.2-5.2s5.2,2.33,5.2,5.2c0,.23,0,.45,0,.68v26.46c0,3.78,1.67,7.36,4.55,9.83,2.94,2.51,6.7,3.55,10.62,2.95,6.18-.97,10.84-6.89,10.84-13.78v-8.57s0,0,0-.01h0c0-2.88,2.32-5.21,5.2-5.21h0c2.87,0,5.2,2.32,5.2,5.19h0c0,3.78,1.65,7.36,4.53,9.83,2.95,2.52,6.73,3.56,10.65,2.95,6.17-.97,10.82-6.89,10.82-13.77v-26.28c0-2.87,2.32-5.2,5.2-5.2,1.38,0,2.71.55,3.68,1.52.97.97,1.53,2.3,1.53,3.68,0,3.78,1.65,7.36,4.53,9.83,2.95,2.52,6.72,3.56,10.65,2.95,6.16-.97,10.81-6.9,10.81-13.77v-93.14c0-27.68-2.48-55.54-7.36-82.81l-12.55-70.06c-.51-2.82,1.37-5.53,4.2-6.03,2.83-.49,5.53,1.37,6.03,4.2l12.55,70.06c4.99,27.87,7.52,56.35,7.52,84.64v93.14c0,11.94-8.42,22.27-19.58,24.04-5.93.94-11.93-.38-16.82-3.64v6.88c0,11.95-8.43,22.28-19.6,24.03-6.72,1.06-13.46-.77-18.63-4.99-3.07,7.59-9.71,13.32-17.78,14.59-1.24.2-2.49.29-3.72.29Z"/>
    <path class="cls-8" d="m391.41,684.04c-2.87,0-5.2-2.33-5.2-5.2v-65.77c0-2.87,2.32-5.2,5.2-5.2s5.2,2.33,5.2,5.2v65.77c0,2.87-2.32,5.2-5.2,5.2Z"/>
    <path class="cls-8" d="m464.21,674.32c-2.87,0-5.2-2.33-5.2-5.2v-67.36c0-2.87,2.32-5.2,5.2-5.2s5.2,2.33,5.2,5.2v67.36c0,2.87-2.32,5.2-5.2,5.2Z"/>
    <path class="cls-8" d="m355.02,597.48c-2.87,0-5.2-2.33-5.2-5.2v-36.55c0-6.23,2.27-12.12,6.39-16.57l8.14-8.78c1.95-2.11,5.23-2.23,7.34-.28,2.11,1.95,2.23,5.24.28,7.34l-8.13,8.77c-2.3,2.49-3.62,5.96-3.62,9.51v36.55c0,2.87-2.32,5.2-5.2,5.2Z"/>
    <path class="cls-8" d="m427.81,701.59c-2.87,0-5.2-2.33-5.2-5.2v-88.98c0-2.87,2.32-5.2,5.2-5.2s5.2,2.33,5.2,5.2v88.98c0,2.87-2.32,5.2-5.2,5.2Z"/>
    <rect class="cls-4" x="340.41" y="125.2" width="173.11" height="296.01"/>
    <path class="cls-7" d="m513.52,426.41h-94.87c-2.87,0-5.2-2.33-5.2-5.2s2.32-5.2,5.2-5.2h89.67V130.39h-162.72v285.62h31.48c2.87,0,5.2,2.33,5.2,5.2s-2.32,5.2-5.2,5.2h-36.68c-2.87,0-5.2-2.33-5.2-5.2V125.2c0-2.87,2.32-5.2,5.2-5.2h173.11c2.87,0,5.2,2.33,5.2,5.2v296.01c0,2.87-2.32,5.2-5.2,5.2Z"/>
    <path class="cls-5" d="m640.59,424.85c11.38-1.8,21.2,6.91,21.19,17.91h.02v-26.28c0-9.07,6.23-17.49,15.22-18.9,11.38-1.79,21.18,6.91,21.18,17.91v-8.59s0-.02,0-.04v-58.19h-33.34c-8.48,0-16.62-3.33-22.64-9.27l-21.08-20.74c-7.3-6.72-17.2-10.49-27.53-10.49h-66.24c-10.58,0-20.31,6.51-22.39,16.06-2.84,13.02,7.9,24.44,21.56,24.44h-85.85c-9.07,0-17.48,6.17-18.95,15.09-1.86,11.36,6.91,21.19,17.95,21.18h0s-27.24,0-27.24,0c-11.02,0-19.76,9.75-17.97,21.1,1.42,8.96,9.87,15.17,18.98,15.17h8.62c-11.03,0-19.76,9.76-17.97,21.11,1.42,8.96,9.87,15.16,18.97,15.16h26.37v.02c-11.05-.01-19.78,9.77-17.98,21.11,1.43,8.95,9.87,15.15,18.97,15.15h93.45c27.32,0,54.59-2.38,81.51-7.03v-42.98c0-9.06,6.22-17.48,15.2-18.91Z"/>
    <path class="cls-8" d="m450.44,498.96c-11.97,0-22.33-8.39-24.1-19.53-.94-5.91.38-11.88,3.63-16.75h-6.9c-11.98,0-22.34-8.4-24.1-19.55-1.06-6.67.76-13.41,4.98-18.56-7.6-3.06-13.34-9.68-14.61-17.72-1.08-6.81.85-13.7,5.28-18.89,4.45-5.22,10.95-8.21,17.82-8.21h7.78c-3.28-4.9-4.59-10.9-3.62-16.83,1.83-11.09,12.17-19.44,24.08-19.44h63.9c-4.61-5.86-6.27-13.08-4.68-20.35,2.54-11.67,14.1-20.15,27.46-20.15h66.24c11.7,0,22.72,4.21,31.03,11.86l21.2,20.86c5.09,5.02,11.84,7.78,19,7.78h33.34c2.87,0,5.2,2.33,5.2,5.2s-2.32,5.2-5.2,5.2h-33.34c-9.9,0-19.24-3.82-26.29-10.76l-21.08-20.74c-6.17-5.68-14.92-9-23.87-9h-66.24c-8.38,0-15.83,5.14-17.32,11.97-.92,4.24.08,8.46,2.82,11.86,3.16,3.93,8.27,6.27,13.67,6.27,2.87,0,5.2,2.33,5.2,5.2s-2.32,5.2-5.2,5.2h-85.85c-6.87,0-12.81,4.61-13.82,10.73-.63,3.87.4,7.62,2.89,10.56,2.48,2.91,6.09,4.58,9.91,4.58h.02c2.87,0,5.2,2.34,5.2,5.21s-2.32,5.2-5.2,5.2h0c-.23,0-.46,0-.68,0h-26.55c-3.83.01-7.44,1.68-9.92,4.58-2.49,2.92-3.53,6.65-2.92,10.52.97,6.15,6.92,10.78,13.84,10.78h8.63c2.87,0,5.2,2.32,5.2,5.19s-2.32,5.2-5.2,5.2h0c-3.83,0-7.44,1.66-9.91,4.56-2.5,2.92-3.53,6.66-2.92,10.54.97,6.15,6.92,10.78,13.84,10.78h26.37c2.87,0,5.2,2.33,5.2,5.2,0,1.38-.55,2.71-1.52,3.68-.97.97-2.3,1.53-3.67,1.53h-.02c-3.83,0-7.44,1.66-9.91,4.56-2.5,2.92-3.53,6.67-2.92,10.54.98,6.14,6.93,10.77,13.84,10.77h93.45c25.32,0,50.98-2.1,76.31-6.23v-38.58c0-11.94,8.42-22.27,19.58-24.04,5.94-.94,11.93.38,16.82,3.64v-6.88c0-11.95,8.43-22.28,19.61-24.03,6.89-1.07,13.8.86,19.01,5.32,1.38,1.18,2.61,2.51,3.66,3.95,2.54.33,4.51,2.51,4.51,5.15,0,.07,0,.15,0,.22v8.38s0,0,0,.01h0c0,2.88-2.32,5.21-5.2,5.21h0c-2.87,0-5.2-2.32-5.2-5.19h0c0-3.79-1.65-7.36-4.53-9.83-2.95-2.52-6.71-3.56-10.65-2.95-6.17.97-10.83,6.89-10.83,13.77v26.28c0,2.87-2.32,5.2-5.2,5.2-1.38,0-2.71-.55-3.68-1.52-.97-.97-1.53-2.3-1.53-3.68,0-3.78-1.65-7.36-4.53-9.83-2.95-2.52-6.73-3.57-10.65-2.95-6.16.97-10.81,6.9-10.81,13.77v42.98c0,2.53-1.82,4.69-4.31,5.12-27.32,4.71-55.04,7.1-82.39,7.1h-93.45Z"/>
    <path class="cls-8" d="m505.68,390.13h-66c-2.87,0-5.2-2.33-5.2-5.2s2.32-5.2,5.2-5.2h66c2.87,0,5.2,2.33,5.2,5.2s-2.32,5.2-5.2,5.2Z"/>
    <path class="cls-8" d="m517.03,462.68h-67.59c-2.87,0-5.2-2.33-5.2-5.2s2.32-5.2,5.2-5.2h67.59c2.87,0,5.2,2.33,5.2,5.2s-2.32,5.2-5.2,5.2Z"/>
    <path class="cls-8" d="m585.11,366.96c-1.26,0-2.52-.45-3.52-1.37l-8.8-8.11c-2.49-2.3-5.98-3.62-9.57-3.62h-36.67c-2.87,0-5.2-2.33-5.2-5.2s2.33-5.2,5.2-5.2h36.67c6.26,0,12.16,2.27,16.61,6.37l8.8,8.1c2.11,1.95,2.24,5.23.3,7.34-1.02,1.11-2.42,1.68-3.82,1.68Z"/>
    <path class="cls-8" d="m422.07,426.41c-2.87,0-5.2-2.33-5.2-5.2s2.32-5.2,5.2-5.2h89.28c2.87,0,5.2,2.32,5.2,5.19s-2.32,5.2-5.2,5.2h-89.28Z"/>
    <path class="cls-7" d="m698.19,375.73c-2.87,0-5.2-2.33-5.2-5.2v-36.44c0-2.87,2.32-5.2,5.2-5.2s5.2,2.33,5.2,5.2v36.44c0,2.87-2.32,5.2-5.2,5.2Z"/>
    <path class="cls-7" d="m698.18,412.1c-2.87,0-5.2-2.33-5.2-5.2,0-11.95,8.43-22.29,19.61-24.04,6.86-1.07,13.78.86,18.99,5.32,5.2,4.44,8.17,10.9,8.18,17.72,0,2.87-2.32,5.2-5.2,5.2h0c-2.87,0-5.2-2.32-5.2-5.19,0-3.78-1.66-7.36-4.54-9.83-2.94-2.51-6.74-3.57-10.62-2.95-6.18.97-10.84,6.9-10.84,13.78,0,2.87-2.32,5.2-5.2,5.2Z"/>
  </g>
  <path class="cls-8" d="m563,899.34c-61.34,0-121.53-16.39-174.07-47.4-2.47-1.46-3.29-4.65-1.83-7.12,1.46-2.47,4.65-3.29,7.12-1.83,50.94,30.07,109.3,45.96,168.79,45.96,140.05,0,265.88-88.54,313.11-220.31.97-2.7,3.95-4.11,6.64-3.14,2.7.97,4.11,3.94,3.14,6.64-48.7,135.89-178.47,227.19-322.89,227.19Z"/>
  <path class="cls-8" d="m367.44,836.99c-1.04,0-2.1-.31-3.01-.96-90.38-64.3-144.34-168.83-144.34-279.6,0-189.08,153.83-342.91,342.91-342.91s342.91,153.83,342.91,342.91c0,30.39-3.98,60.54-11.82,89.6-.76,2.77-3.64,4.39-6.37,3.66-2.77-.75-4.41-3.6-3.66-6.37,7.61-28.17,11.47-57.41,11.47-86.89,0-183.35-149.17-332.52-332.52-332.52s-332.52,149.17-332.52,332.52c0,107.42,52.33,208.78,139.98,271.13,2.33,1.66,2.88,4.91,1.22,7.25-1.01,1.43-2.61,2.18-4.24,2.18Z"/>
</svg>