<svg id="a25d857d-658e-4c48-a9a2-c9c54b2d6e3c" data-name="Capa 1" xmlns="http://www.w3.org/2000/svg" viewBox="0 0 1080 1080"><defs><style>.b848b397-7afc-4d14-87f9-03235559fdb6{fill:#f6f6f6;}.b5eeb4a0-8af1-4856-a105-96d7673fe317{fill:#fff;}.b6241c07-74da-436b-99b0-2d705e81ccdf{fill:#989aa6;}.bd269434-f0d7-41ba-85c2-b03d30d1f9d6{fill:#b8b5c6;}.f204fe47-10dc-4c99-8e2c-06cfff7af5b5{fill:#a09cad;}.a836d06e-bbb2-4469-b4e1-5edba0a1e06c{fill:#282c3f;}.eaf1d635-97fc-480e-b7b9-59e81f9877a9{fill:#ededed;}.af7b93ac-2263-42e2-bf8b-8bdde5819a23{fill:#2fc8f2;}.ae3bea0c-aeee-431a-83fc-59b24fa6be32{fill:#2caae6;}.b3436afa-052a-4aad-b5a9-3112db791524{fill:#52576a;}.ab8f4faf-7845-4e2b-bc75-1d0e6fe81ee7{fill:#30354c;}</style></defs><title>ICONS S2R</title><path class="b848b397-7afc-4d14-87f9-03235559fdb6" d="M887.28,577.94c7.47-64.25,77.32-142.8,48.83-206.31S801,304.59,747.46,266.27c-55.18-39.55-91.08-136.93-159.16-144.44-66-7.28-122.87,78.75-188.12,106.49s-168.73,9.86-208.1,61.93c-40.62,53.71,8.36,145.54.64,211.81-7.47,64.25-77.32,142.8-48.83,206.31s135.16,67,188.65,105.36c55.18,39.55,91.08,136.93,159.16,144.44,66,7.28,122.87-78.75,188.12-106.49s168.73-9.86,208.1-61.93C928.54,736,879.56,644.21,887.28,577.94Z"/><path class="b5eeb4a0-8af1-4856-a105-96d7673fe317" d="M137.21,785.36a15.9,15.9,0,0,1,24.53-19.6,28.68,28.68,0,0,1,57.11,3.72,29.63,29.63,0,0,1-.5,5.28,23.19,23.19,0,0,1,5-.54,24.17,24.17,0,1,1,0,48.34H140.77a18.77,18.77,0,0,1-3.56-37.2Z"/><path class="b6241c07-74da-436b-99b0-2d705e81ccdf" d="M223.31,827.79H140.77a24,24,0,0,1-10.35-45.66,20.85,20.85,0,0,1-.51-4.6,21.18,21.18,0,0,1,21.15-21.15,20.89,20.89,0,0,1,7.32,1.32,33.9,33.9,0,0,1,65.7,11.3,29.4,29.4,0,0,1-.77,58.79Zm-72.25-60.94a10.7,10.7,0,0,0-10.69,10.68,10.58,10.58,0,0,0,1.39,5.26,5.23,5.23,0,0,1-3.57,7.71,13.54,13.54,0,0,0,2.58,26.83h82.54a18.93,18.93,0,1,0-3.87-37.46,5.2,5.2,0,0,1-4.74-1.36,5.26,5.26,0,0,1-1.5-4.71,23.44,23.44,0,1,0-46.28-7.36,5.23,5.23,0,0,1-8.7,3.19A10.67,10.67,0,0,0,151.06,766.85Z"/><path class="b5eeb4a0-8af1-4856-a105-96d7673fe317" d="M842.75,674.24A20.48,20.48,0,0,1,874.34,649a36.93,36.93,0,0,1,73.55,4.79,37.94,37.94,0,0,1-.64,6.79,30.51,30.51,0,0,1,6.39-.69,31.13,31.13,0,0,1,0,62.26H847.34a24.17,24.17,0,0,1-4.59-47.9Z"/><path class="b6241c07-74da-436b-99b0-2d705e81ccdf" d="M953.64,727.37H847.34a29.4,29.4,0,0,1-11.57-56.44,25.71,25.71,0,0,1,35.14-30.33,42.16,42.16,0,0,1,82.22,13.18c0,.29,0,.58,0,.88h.52a36.36,36.36,0,0,1,0,72.72Zm-93-78.48a15.25,15.25,0,0,0-13.29,22.77,5.23,5.23,0,0,1-3.57,7.72,18.94,18.94,0,0,0,3.61,37.53h106.3a25.89,25.89,0,1,0-5.31-51.22,5.24,5.24,0,0,1-6.23-6.07,31.69,31.69,0,1,0-62.57-10,5.23,5.23,0,0,1-3.38,4.24,5.3,5.3,0,0,1-5.33-1A15.16,15.16,0,0,0,860.59,648.89Z"/><path class="b5eeb4a0-8af1-4856-a105-96d7673fe317" d="M828.11,261.63A13.52,13.52,0,0,0,807.26,245a24.36,24.36,0,1,0-48.09,7.64,20.9,20.9,0,0,0-4.22-.45,20.54,20.54,0,0,0,0,41.07h70.13a15.94,15.94,0,0,0,3-31.6Z"/><path class="b6241c07-74da-436b-99b0-2d705e81ccdf" d="M825.08,298.46H755A25.76,25.76,0,0,1,753.53,247a29.6,29.6,0,0,1,57.06-9.84A18.77,18.77,0,0,1,835.1,255a18.37,18.37,0,0,1-.33,3.47,21.17,21.17,0,0,1-9.69,40ZM755,257.39A15.31,15.31,0,0,0,755,288h70.13a10.71,10.71,0,0,0,2-21.23,5.24,5.24,0,0,1-3.57-7.72,8.1,8.1,0,0,0,1.08-4.07,8.27,8.27,0,0,0-13.85-6.13,5.23,5.23,0,0,1-8.7-3.2A19.14,19.14,0,0,0,764,248.13a19.76,19.76,0,0,0,.34,3.52,5.23,5.23,0,0,1-6.22,6.08A15.78,15.78,0,0,0,755,257.39Z"/><path class="b5eeb4a0-8af1-4856-a105-96d7673fe317" d="M415.8,171.63a17.91,17.91,0,0,1,27.64-22.09,32.31,32.31,0,1,1,63.8,10.13,27.23,27.23,0,1,1,5.6,53.88h-93a21.15,21.15,0,0,1-4-41.92Z"/><path class="b6241c07-74da-436b-99b0-2d705e81ccdf" d="M512.84,218.78h-93a26.38,26.38,0,0,1-10.9-50.42,23.48,23.48,0,0,1-.67-5.55A23.14,23.14,0,0,1,440,141.32a37.55,37.55,0,0,1,73,12.41v.11a32.47,32.47,0,0,1-.2,64.94ZM431.4,150.1a12.73,12.73,0,0,0-12.7,12.71,12.55,12.55,0,0,0,1.65,6.24,5.23,5.23,0,0,1-3.57,7.72,15.91,15.91,0,0,0,3,31.54h93a22,22,0,1,0-4.52-43.52,5.24,5.24,0,0,1-6.23-6.07,26.83,26.83,0,0,0,.49-5,27.09,27.09,0,0,0-53.95-3.51,5.23,5.23,0,0,1-8.71,3.19A12.65,12.65,0,0,0,431.4,150.1Z"/><path class="b5eeb4a0-8af1-4856-a105-96d7673fe317" d="M226.13,378.12A18.87,18.87,0,0,0,197,354.86a34,34,0,1,0-67.19,10.67,27.92,27.92,0,0,0-5.9-.64,28.69,28.69,0,1,0,0,57.38h98a22.28,22.28,0,0,0,4.22-44.15Z"/><path class="b6241c07-74da-436b-99b0-2d705e81ccdf" d="M221.91,427.51h-98a33.93,33.93,0,1,1,.07-67.85v-.39a39.27,39.27,0,0,1,76.44-12.71,24.12,24.12,0,0,1,32.63,28.28,27.51,27.51,0,0,1-11.15,52.67Zm-98-57.38a23.46,23.46,0,0,0,0,46.91h98a17,17,0,0,0,3.24-33.78,5.22,5.22,0,0,1-3.56-7.72,13.64,13.64,0,0,0-21.06-16.81,5.23,5.23,0,0,1-8.71-3.2,28.8,28.8,0,1,0-56.86,9,5.23,5.23,0,0,1-6.22,6.09A23,23,0,0,0,123.92,370.13Z"/><path class="b6241c07-74da-436b-99b0-2d705e81ccdf" d="M984.77,963.84H95.23a5.24,5.24,0,0,1,0-10.47H984.77a5.24,5.24,0,0,1,0,10.47Z"/><polygon class="bd269434-f0d7-41ba-85c2-b03d30d1f9d6" points="540 278.37 199.88 556.65 540 834.92 880.12 556.65 540 278.37"/><polygon class="f204fe47-10dc-4c99-8e2c-06cfff7af5b5" points="601.1 328.37 229.04 580.51 540 834.92 880.12 556.65 601.1 328.37"/><path class="a836d06e-bbb2-4469-b4e1-5edba0a1e06c" d="M540,840.16a5.24,5.24,0,0,1-3.31-1.18L196.57,560.7a5.23,5.23,0,0,1,0-8.1L536.69,274.32a5.24,5.24,0,0,1,6.62,0L883.43,552.6a5.23,5.23,0,0,1,0,8.1L543.31,839A5.24,5.24,0,0,1,540,840.16ZM208.15,556.65,540,828.16,871.85,556.65,540,285.13Z"/><rect class="b5eeb4a0-8af1-4856-a105-96d7673fe317" x="304.53" y="362.09" width="470.93" height="596.51"/><polygon class="eaf1d635-97fc-480e-b7b9-59e81f9877a9" points="775.47 958.61 304.54 958.61 304.54 529.35 551.34 362.09 775.47 362.09 775.47 958.61"/><path class="a836d06e-bbb2-4469-b4e1-5edba0a1e06c" d="M775.47,963.84H304.53a5.23,5.23,0,0,1-5.23-5.24V362.09a5.23,5.23,0,0,1,5.23-5.23h52.92a5.24,5.24,0,1,1,0,10.47H309.77v586H770.23v-586H394.08a5.24,5.24,0,0,1,0-10.47H775.47a5.23,5.23,0,0,1,5.23,5.23V958.6A5.23,5.23,0,0,1,775.47,963.84Z"/><polygon class="af7b93ac-2263-42e2-bf8b-8bdde5819a23" points="540 834.92 199.88 556.65 199.88 958.61 880.12 958.61 880.12 556.65 540 834.92"/><polygon class="ae3bea0c-aeee-431a-83fc-59b24fa6be32" points="880.12 958.61 634.48 757.63 686.51 715.05 880.12 953.29 880.12 958.61"/><path class="a836d06e-bbb2-4469-b4e1-5edba0a1e06c" d="M880.12,963.84H199.88a5.23,5.23,0,0,1-5.23-5.24v-402a5.23,5.23,0,0,1,8.54-4L540,828.16,876.81,552.6a5.23,5.23,0,0,1,8.54,4V779.27a5.24,5.24,0,0,1-10.47,0V567.69L543.31,839a5.24,5.24,0,0,1-6.62,0L205.12,567.69V953.37H874.88V810.67a5.24,5.24,0,1,1,10.47,0V958.6A5.23,5.23,0,0,1,880.12,963.84Z"/><polygon class="ae3bea0c-aeee-431a-83fc-59b24fa6be32" points="540 680.33 880.12 958.61 199.88 958.61 540 680.33"/><polygon class="af7b93ac-2263-42e2-bf8b-8bdde5819a23" points="540 680.33 808.36 899.89 205.54 953.97 540 680.33"/><path class="a836d06e-bbb2-4469-b4e1-5edba0a1e06c" d="M880.12,963.84H199.88a5.24,5.24,0,0,1-3.31-9.29L321.4,852.43a5.23,5.23,0,0,1,6.62,8.1L214.54,953.37H865.46L540,687.09,354.36,839a5.24,5.24,0,1,1-6.63-8.11l189-154.59a5.22,5.22,0,0,1,6.62,0L883.43,954.55a5.24,5.24,0,0,1-3.31,9.29Z"/><path class="bd269434-f0d7-41ba-85c2-b03d30d1f9d6" d="M704.59,660.35c21.85,0,34.57-24.68,21.9-42.48L593.39,430.94a26.88,26.88,0,0,0-43.79,0L416.46,617.87c-12.68,17.79.05,42.48,21.9,42.48Z"/><path class="bd269434-f0d7-41ba-85c2-b03d30d1f9d6" d="M704.59,665.58H438.36a32.11,32.11,0,0,1-26.16-50.75L545.33,427.9a31.76,31.76,0,0,1,26.16-13.48h0a31.76,31.76,0,0,1,26.17,13.49L730.75,614.83a32.12,32.12,0,0,1-26.16,50.75Zm-133.1-240.7A21.42,21.42,0,0,0,553.85,434L420.72,620.9a21.66,21.66,0,0,0,17.64,34.22H704.59a21.65,21.65,0,0,0,17.63-34.21L589.13,434a21.43,21.43,0,0,0-17.64-9.1Z"/><path class="b3436afa-052a-4aad-b5a9-3112db791524" d="M562,415.25a26.88,26.88,0,0,0-43.8,0L385.06,602.17a26.77,26.77,0,0,0,1.76,33.39l224-151.78Z"/><path class="ab8f4faf-7845-4e2b-bc75-1d0e6fe81ee7" d="M610.79,483.78l-224,151.78A26.42,26.42,0,0,0,407,644.65H673.2c21.84,0,34.57-24.68,21.89-42.48Z"/><path class="a836d06e-bbb2-4469-b4e1-5edba0a1e06c" d="M673.19,649.88H407a32.12,32.12,0,0,1-26.16-50.75L513.93,412.21a31.78,31.78,0,0,1,26.16-13.49h0a31.77,31.77,0,0,1,26.16,13.49L699.35,599.14a32.11,32.11,0,0,1-26.16,50.74ZM540.1,409.19a21.4,21.4,0,0,0-17.64,9.09L389.32,605.2A21.66,21.66,0,0,0,407,639.42H673.19a21.65,21.65,0,0,0,17.64-34.21L557.74,418.28a21.42,21.42,0,0,0-17.64-9.09Z"/><circle class="eaf1d635-97fc-480e-b7b9-59e81f9877a9" cx="540.07" cy="593.4" r="20.93"/><path class="eaf1d635-97fc-480e-b7b9-59e81f9877a9" d="M524.8,542.05l.72,10a6,6,0,0,0,6,5.59h17.12a6,6,0,0,0,6-5.59l2.27-31.79Z"/><path class="b5eeb4a0-8af1-4856-a105-96d7673fe317" d="M560.85,465a6,6,0,0,0-6-6.44H525.29a6,6,0,0,0-6,6.44l5.51,77,32.1-21.75Z"/></svg>