<svg id="a141ace1-07c6-4de9-bb83-7c1e011dc0e0" data-name="Capa 1" xmlns="http://www.w3.org/2000/svg" viewBox="0 0 1080 1080"><defs><style>.b960f782-89c7-458f-bbe2-63d37bf65c23{fill:#f6f6f6;}.a3bde813-973f-4cfa-b4cc-90d44f399b9f{fill:#fff;}.a0792f22-9e98-473a-9e93-91b84b82f924{fill:#989aa6;}.b9204354-1f8f-4422-9701-7ebad1e2bbbe{fill:#2fc8f2;}.b4c25b05-406f-444a-96b6-232287620b23{fill:#00b5f4;}.a683dc21-a5dc-4328-8b5f-6d74d12ded9a{fill:#ededed;}.a95c1702-67d2-4813-ab4f-06a4f707988b{fill:#282c3f;}.ba3ad0ca-edb5-4595-83a2-a7f368cdc530{fill:#a09cad;}.fa33929c-4091-4418-b55f-9dc27631352b{fill:#b8b5c6;}.e0f4d152-f87e-488b-8acc-c56afa8b5222{fill:#2caae6;}.b74062b2-7dee-49af-968d-373eeae5a1b4{fill:#30354c;}.a7aba58b-7e87-457f-b4bf-39f9bd8bd9b6{fill:#52576a;}</style></defs><title>ICONS S2R</title><path class="b960f782-89c7-458f-bbe2-63d37bf65c23" d="M961.57,437.44c-16.92-69.3-121.79-91.23-167.9-139.3C746.1,248.55,727.85,143.63,661.84,124.3c-64-18.74-135.47,58.71-204.91,75.6s-168.62-19-216.78,27c-49.69,47.48-17.51,149-36.88,214.89C184.5,505.62,101.5,573.26,118.43,642.56s121.79,91.23,167.9,139.3c47.57,49.59,65.82,154.51,131.83,173.84,64,18.74,135.47-58.71,204.91-75.6s168.62,19,216.78-27c49.69-47.48,17.51-149,36.88-214.89C895.5,574.37,978.5,506.74,961.57,437.44Z"/><path class="a3bde813-973f-4cfa-b4cc-90d44f399b9f" d="M118.33,753.13a24.14,24.14,0,0,1,37.24-29.76A43.52,43.52,0,1,1,241.49,737,36.67,36.67,0,1,1,249,809.58H123.74a28.48,28.48,0,0,1-5.41-56.45Z"/><path class="a0792f22-9e98-473a-9e93-91b84b82f924" d="M249,814.82H123.74a33.72,33.72,0,0,1-12.5-65,29.37,29.37,0,0,1,40.85-35A48.76,48.76,0,0,1,247.49,729c0,.66,0,1.32,0,2A41.92,41.92,0,1,1,249,814.82Zm-109.67-92.5a18.9,18.9,0,0,0-16.47,28.23,5.25,5.25,0,0,1-3.57,7.72,23.25,23.25,0,0,0,4.42,46.08H249a31.44,31.44,0,1,0-6.46-62.21,5.22,5.22,0,0,1-6.22-6.08,38.28,38.28,0,1,0-75.59-12,5.23,5.23,0,0,1-8.71,3.2A18.85,18.85,0,0,0,139.36,722.32Z"/><path class="a3bde813-973f-4cfa-b4cc-90d44f399b9f" d="M792.77,311.77a13.82,13.82,0,0,1,21.33-17,24.93,24.93,0,1,1,49.21,7.82,20.42,20.42,0,0,1,4.32-.47,21,21,0,0,1,0,42H795.86a16.32,16.32,0,0,1-3.09-32.34Z"/><path class="a0792f22-9e98-473a-9e93-91b84b82f924" d="M867.63,349.34H795.86a21.55,21.55,0,0,1-9.77-40.76,19,19,0,0,1,18.72-22.68,19.26,19.26,0,0,1,6,1,30.16,30.16,0,0,1,58.19,10,26.25,26.25,0,0,1-1.33,52.46Zm-62.82-53a8.61,8.61,0,0,0-8.6,8.61,8.48,8.48,0,0,0,1.11,4.22,5.23,5.23,0,0,1-3.56,7.72,11.08,11.08,0,0,0,2.1,22h71.77a15.77,15.77,0,1,0-3.23-31.21,5.23,5.23,0,0,1-6.24-6.07,19.4,19.4,0,0,0,.36-3.63,19.7,19.7,0,0,0-39.23-2.56,5.23,5.23,0,0,1-8.7,3.2A8.64,8.64,0,0,0,804.81,296.36Z"/><path class="a3bde813-973f-4cfa-b4cc-90d44f399b9f" d="M965.33,605.34a20.31,20.31,0,0,0-31.33-25,36.62,36.62,0,1,0-72.29,11.48,30.86,30.86,0,1,0-6.34,61.06H960.78a24,24,0,0,0,4.55-47.5Z"/><path class="a0792f22-9e98-473a-9e93-91b84b82f924" d="M960.78,658.07H855.37a36.1,36.1,0,1,1,0-72.2h.47c0-.27,0-.55,0-.82a41.85,41.85,0,0,1,81.6-13.13A25.55,25.55,0,0,1,972.31,602a29.2,29.2,0,0,1-11.53,56ZM855.37,596.33a25.64,25.64,0,1,0,0,51.27H960.78a18.73,18.73,0,0,0,3.57-37.12,5.28,5.28,0,0,1-3.77-3,5.22,5.22,0,0,1,.2-4.77,15.07,15.07,0,0,0-23.26-18.58,5.24,5.24,0,0,1-8.71-3.2,31.38,31.38,0,1,0-62,9.84,5.22,5.22,0,0,1-6.23,6.08A25.94,25.94,0,0,0,855.37,596.33Z"/><path class="a3bde813-973f-4cfa-b4cc-90d44f399b9f" d="M429.17,179.93a20.88,20.88,0,0,1,32.22-25.74,37.65,37.65,0,0,1,75,4.88,38.38,38.38,0,0,1-.66,6.92,31.73,31.73,0,1,1,6.52,62.78H433.85a24.64,24.64,0,0,1-4.68-48.84Z"/><path class="a0792f22-9e98-473a-9e93-91b84b82f924" d="M542.24,234H433.85a29.88,29.88,0,0,1-11.67-57.39A26.11,26.11,0,0,1,458,145.77a42.88,42.88,0,0,1,83.66,13.3c0,.33,0,.66,0,1a37,37,0,1,1,.64,73.94Zm-94.88-80a15.66,15.66,0,0,0-13.64,23.37,5.24,5.24,0,0,1-3.56,7.72,19.4,19.4,0,0,0,3.69,38.46H542.24a26.49,26.49,0,1,0-5.43-52.42,5.23,5.23,0,0,1-6.24-6.07,32.15,32.15,0,0,0,.58-6,32.42,32.42,0,0,0-64.57-4.21,5.23,5.23,0,0,1-8.71,3.2A15.62,15.62,0,0,0,447.36,154Z"/><path class="a3bde813-973f-4cfa-b4cc-90d44f399b9f" d="M287,304.18a17.06,17.06,0,0,0-26.33-21,30.78,30.78,0,0,0-61.3,4,31.12,31.12,0,0,0,.54,5.66,25.3,25.3,0,0,0-5.33-.58,25.95,25.95,0,0,0,0,51.89h88.6A20.15,20.15,0,0,0,287,304.18Z"/><path class="a0792f22-9e98-473a-9e93-91b84b82f924" d="M283.17,349.34h-88.6a31.18,31.18,0,0,1-.44-62.35A36,36,0,0,1,264,275a22.31,22.31,0,0,1,30.4,20.79,21.72,21.72,0,0,1-.61,5.15,25.38,25.38,0,0,1-10.66,48.41Zm-88.6-51.88a20.71,20.71,0,1,0,0,41.41h88.6A14.91,14.91,0,0,0,286,309.32a5.23,5.23,0,0,1-3.56-7.72,11.62,11.62,0,0,0,1.54-5.82,11.83,11.83,0,0,0-19.8-8.76,5.23,5.23,0,0,1-8.71-3.2,25.55,25.55,0,0,0-50.88,3.32,25.17,25.17,0,0,0,.46,4.7,5.23,5.23,0,0,1-1.49,4.7,5.28,5.28,0,0,1-4.74,1.38A20.24,20.24,0,0,0,194.57,297.46Z"/><path class="a0792f22-9e98-473a-9e93-91b84b82f924" d="M984.77,963.84H95.23a5.24,5.24,0,0,1,0-10.47H984.77a5.24,5.24,0,0,1,0,10.47Z"/><rect class="b9204354-1f8f-4422-9701-7ebad1e2bbbe" x="199.88" y="393.49" width="680.23" height="565.12" rx="52.33"/><rect class="b4c25b05-406f-444a-96b6-232287620b23" x="199.88" y="487.67" width="680.23" height="470.93" rx="52.33"/><path class="a683dc21-a5dc-4328-8b5f-6d74d12ded9a" d="M785.93,393.49H294.07a94.19,94.19,0,0,1-94.19,94.18V864.42a94.19,94.19,0,0,1,94.19,94.18H785.93a94.19,94.19,0,0,1,94.19-94.18V487.67A94.19,94.19,0,0,1,785.93,393.49Z"/><path class="a3bde813-973f-4cfa-b4cc-90d44f399b9f" d="M785.93,393.49H294.07a94.19,94.19,0,0,1-94.19,94.18v314H880.12v-314A94.19,94.19,0,0,1,785.93,393.49Z"/><path class="a95c1702-67d2-4813-ab4f-06a4f707988b" d="M827.79,963.84H252.21a57.62,57.62,0,0,1-57.56-57.56V775.47a5.24,5.24,0,1,1,10.47,0V906.28a47.14,47.14,0,0,0,47.09,47.09H827.79a47.14,47.14,0,0,0,47.09-47.09V618.49a5.24,5.24,0,0,1,10.47,0V906.28A57.62,57.62,0,0,1,827.79,963.84Z"/><path class="a95c1702-67d2-4813-ab4f-06a4f707988b" d="M199.88,749.3a5.23,5.23,0,0,1-5.23-5.23V445.81a57.62,57.62,0,0,1,57.56-57.55H827.79a57.62,57.62,0,0,1,57.56,57.55V587.09a5.24,5.24,0,1,1-10.47,0V445.81a47.14,47.14,0,0,0-47.09-47.09H252.21a47.14,47.14,0,0,0-47.09,47.09V744.07A5.24,5.24,0,0,1,199.88,749.3Z"/><rect class="ba3ad0ca-edb5-4595-83a2-a7f368cdc530" x="393.49" y="278.37" width="293.02" height="41.86" rx="15.7"/><path class="fa33929c-4091-4418-b55f-9dc27631352b" d="M670.81,278.37H409.19a15.7,15.7,0,0,0-15.7,15.7h0A10.46,10.46,0,0,0,404,304.53h272.1a10.46,10.46,0,0,0,10.46-10.46h0A15.7,15.7,0,0,0,670.81,278.37Z"/><path class="a95c1702-67d2-4813-ab4f-06a4f707988b" d="M670.81,325.47H409.19a21,21,0,0,1-20.93-20.94V294.07a21,21,0,0,1,20.93-20.93H560.93a5.23,5.23,0,0,1,0,10.46H409.19a10.48,10.48,0,0,0-10.47,10.47v10.46A10.47,10.47,0,0,0,409.19,315H670.81a10.47,10.47,0,0,0,10.47-10.47V294.07a10.48,10.48,0,0,0-10.47-10.47H592.33a5.23,5.23,0,1,1,0-10.46h78.48a21,21,0,0,1,20.93,20.93v10.46A21,21,0,0,1,670.81,325.47Z"/><path class="fa33929c-4091-4418-b55f-9dc27631352b" d="M843.49,848.72a5.23,5.23,0,0,1-5.23-5.23V833a5.23,5.23,0,0,1,10.46,0v10.47A5.23,5.23,0,0,1,843.49,848.72Z"/><path class="fa33929c-4091-4418-b55f-9dc27631352b" d="M843.49,804.62a5.23,5.23,0,0,1-5.23-5.24V777a5.23,5.23,0,1,1,10.46,0v22.42A5.23,5.23,0,0,1,843.49,804.62Zm0-56.06a5.23,5.23,0,0,1-5.23-5.24V720.9a5.23,5.23,0,1,1,10.46,0v22.42A5.23,5.23,0,0,1,843.49,748.56Zm0-56.07a5.23,5.23,0,0,1-5.23-5.23V664.84a5.23,5.23,0,1,1,10.46,0v22.42A5.23,5.23,0,0,1,843.49,692.49Zm0-56.06a5.23,5.23,0,0,1-5.23-5.23V608.77a5.23,5.23,0,0,1,10.46,0V631.2A5.23,5.23,0,0,1,843.49,636.43Zm0-56.07a5.23,5.23,0,0,1-5.23-5.23V552.71a5.23,5.23,0,0,1,10.46,0v22.42A5.23,5.23,0,0,1,843.49,580.36Z"/><path class="fa33929c-4091-4418-b55f-9dc27631352b" d="M843.49,524.3a5.23,5.23,0,0,1-5.23-5.23V508.6a5.23,5.23,0,0,1,10.46,0v10.47A5.23,5.23,0,0,1,843.49,524.3Z"/><path class="fa33929c-4091-4418-b55f-9dc27631352b" d="M325.47,927.21H315a5.24,5.24,0,0,1,0-10.47h10.47a5.24,5.24,0,0,1,0,10.47Z"/><path class="fa33929c-4091-4418-b55f-9dc27631352b" d="M724.6,927.21h-20a5.24,5.24,0,0,1,0-10.47h20a5.24,5.24,0,0,1,0,10.47Zm-49.89,0h-20a5.24,5.24,0,0,1,0-10.47h20a5.24,5.24,0,0,1,0,10.47Zm-49.9,0H604.86a5.24,5.24,0,0,1,0-10.47h19.95a5.24,5.24,0,1,1,0,10.47Zm-49.89,0H555a5.24,5.24,0,1,1,0-10.47h19.95a5.24,5.24,0,1,1,0,10.47Zm-49.89,0h-20a5.24,5.24,0,0,1,0-10.47h20a5.24,5.24,0,0,1,0,10.47Zm-49.89,0h-20a5.24,5.24,0,0,1,0-10.47h20a5.24,5.24,0,0,1,0,10.47Zm-49.89,0h-20a5.24,5.24,0,0,1,0-10.47h20a5.24,5.24,0,0,1,0,10.47Zm-49.89,0h-20a5.24,5.24,0,0,1,0-10.47h20a5.24,5.24,0,0,1,0,10.47Z"/><path class="fa33929c-4091-4418-b55f-9dc27631352b" d="M765,927.21H754.53a5.24,5.24,0,0,1,0-10.47H765a5.24,5.24,0,0,1,0,10.47Z"/><path class="fa33929c-4091-4418-b55f-9dc27631352b" d="M236.51,524.3a5.23,5.23,0,0,1-5.23-5.23V508.6a5.23,5.23,0,0,1,10.46,0v10.47A5.23,5.23,0,0,1,236.51,524.3Z"/><path class="fa33929c-4091-4418-b55f-9dc27631352b" d="M236.51,804.62a5.23,5.23,0,0,1-5.23-5.24V777a5.23,5.23,0,0,1,10.46,0v22.42A5.23,5.23,0,0,1,236.51,804.62Zm0-56.06a5.23,5.23,0,0,1-5.23-5.24V720.9a5.23,5.23,0,1,1,10.46,0v22.42A5.23,5.23,0,0,1,236.51,748.56Zm0-56.07a5.23,5.23,0,0,1-5.23-5.23V664.84a5.23,5.23,0,1,1,10.46,0v22.42A5.23,5.23,0,0,1,236.51,692.49Zm0-56.06a5.23,5.23,0,0,1-5.23-5.23V608.77a5.23,5.23,0,0,1,10.46,0V631.2A5.23,5.23,0,0,1,236.51,636.43Zm0-56.06a5.23,5.23,0,0,1-5.23-5.23V552.71a5.23,5.23,0,0,1,10.46,0v22.43A5.23,5.23,0,0,1,236.51,580.37Z"/><path class="fa33929c-4091-4418-b55f-9dc27631352b" d="M236.51,848.72a5.23,5.23,0,0,1-5.23-5.23V833a5.23,5.23,0,0,1,10.46,0v10.47A5.23,5.23,0,0,1,236.51,848.72Z"/><path class="fa33929c-4091-4418-b55f-9dc27631352b" d="M765,435.35H754.53a5.24,5.24,0,0,1,0-10.47H765a5.24,5.24,0,0,1,0,10.47Z"/><path class="fa33929c-4091-4418-b55f-9dc27631352b" d="M724.6,435.35h-20a5.24,5.24,0,0,1,0-10.47h20a5.24,5.24,0,0,1,0,10.47Zm-49.89,0h-20a5.24,5.24,0,0,1,0-10.47h20a5.24,5.24,0,0,1,0,10.47Zm-49.89,0h-20a5.24,5.24,0,0,1,0-10.47h20a5.24,5.24,0,0,1,0,10.47Zm-49.89,0H555a5.24,5.24,0,0,1,0-10.47h20a5.24,5.24,0,0,1,0,10.47Zm-49.9,0H505.08a5.24,5.24,0,1,1,0-10.47H525a5.24,5.24,0,1,1,0,10.47Zm-49.89,0H455.19a5.24,5.24,0,1,1,0-10.47h19.95a5.24,5.24,0,0,1,0,10.47Zm-49.89,0h-20a5.24,5.24,0,0,1,0-10.47h20a5.24,5.24,0,0,1,0,10.47Zm-49.89,0h-20a5.24,5.24,0,0,1,0-10.47h20a5.24,5.24,0,0,1,0,10.47Z"/><path class="fa33929c-4091-4418-b55f-9dc27631352b" d="M325.47,435.35H315a5.24,5.24,0,0,1,0-10.47h10.47a5.24,5.24,0,0,1,0,10.47Z"/><path class="a95c1702-67d2-4813-ab4f-06a4f707988b" d="M199.88,492.91a5.24,5.24,0,0,1,0-10.47,89.06,89.06,0,0,0,89-88.95,5.23,5.23,0,0,1,10.46,0A99.53,99.53,0,0,1,199.88,492.91Z"/><path class="a95c1702-67d2-4813-ab4f-06a4f707988b" d="M880.12,492.91a99.53,99.53,0,0,1-99.42-99.42,5.23,5.23,0,0,1,10.46,0,89.06,89.06,0,0,0,89,88.95,5.24,5.24,0,0,1,0,10.47Z"/><path class="a95c1702-67d2-4813-ab4f-06a4f707988b" d="M785.93,963.84a5.23,5.23,0,0,1-5.23-5.24,99.53,99.53,0,0,1,99.42-99.41,5.23,5.23,0,1,1,0,10.46,89.06,89.06,0,0,0-89,89A5.23,5.23,0,0,1,785.93,963.84Z"/><path class="a95c1702-67d2-4813-ab4f-06a4f707988b" d="M294.07,963.84a5.23,5.23,0,0,1-5.23-5.24,89.06,89.06,0,0,0-89-89,5.23,5.23,0,0,1,0-10.46A99.53,99.53,0,0,1,299.3,958.6,5.23,5.23,0,0,1,294.07,963.84Z"/><rect class="e0f4d152-f87e-488b-8acc-c56afa8b5222" x="628.95" y="320.23" width="36.63" height="73.26"/><rect class="e0f4d152-f87e-488b-8acc-c56afa8b5222" x="414.42" y="320.23" width="36.63" height="73.26"/><path class="a95c1702-67d2-4813-ab4f-06a4f707988b" d="M665.58,398.72H629a5.23,5.23,0,0,1-5.23-5.23V320.23A5.23,5.23,0,0,1,629,315h36.63a5.23,5.23,0,0,1,5.23,5.23v73.26A5.23,5.23,0,0,1,665.58,398.72Zm-31.39-10.46h26.16V325.47H634.19Z"/><path class="a95c1702-67d2-4813-ab4f-06a4f707988b" d="M451.05,398.72H414.42a5.23,5.23,0,0,1-5.23-5.23V320.23a5.23,5.23,0,0,1,5.23-5.23h36.63a5.23,5.23,0,0,1,5.23,5.23v73.26A5.23,5.23,0,0,1,451.05,398.72Zm-31.4-10.46h26.16V325.47H419.65Z"/><rect class="b74062b2-7dee-49af-968d-373eeae5a1b4" x="676.05" y="393.49" width="62.79" height="565.12"/><path class="a95c1702-67d2-4813-ab4f-06a4f707988b" d="M738.84,963.84H676.05a5.24,5.24,0,0,1-5.24-5.24V393.49a5.24,5.24,0,0,1,5.24-5.23h62.79a5.23,5.23,0,0,1,5.23,5.23V958.6A5.23,5.23,0,0,1,738.84,963.84Zm-57.56-10.47H733.6V398.72H681.28Z"/><path class="a7aba58b-7e87-457f-b4bf-39f9bd8bd9b6" d="M738.84,393.49H676.05V801.63A31.39,31.39,0,0,0,707.44,833h0a31.39,31.39,0,0,0,31.4-31.39Z"/><rect class="b74062b2-7dee-49af-968d-373eeae5a1b4" x="341.16" y="393.49" width="62.79" height="565.12"/><path class="a7aba58b-7e87-457f-b4bf-39f9bd8bd9b6" d="M404,393.49H341.16V801.63A31.39,31.39,0,0,0,372.56,833h0A31.39,31.39,0,0,0,404,801.63Z"/><path class="a95c1702-67d2-4813-ab4f-06a4f707988b" d="M707.44,838.26a36.68,36.68,0,0,1-36.63-36.63V393.49a5.24,5.24,0,0,1,5.24-5.23h62.79a5.23,5.23,0,0,1,5.23,5.23V801.63A36.68,36.68,0,0,1,707.44,838.26ZM681.28,398.72V801.63a26.16,26.16,0,1,0,52.32,0V398.72Z"/><circle class="a3bde813-973f-4cfa-b4cc-90d44f399b9f" cx="707.44" cy="785.93" r="7.85"/><circle class="a3bde813-973f-4cfa-b4cc-90d44f399b9f" cx="707.44" cy="749.3" r="7.85"/><circle class="a3bde813-973f-4cfa-b4cc-90d44f399b9f" cx="707.44" cy="644.65" r="7.85"/><circle class="a3bde813-973f-4cfa-b4cc-90d44f399b9f" cx="707.44" cy="608.02" r="7.85"/><circle class="a3bde813-973f-4cfa-b4cc-90d44f399b9f" cx="707.44" cy="571.4" r="7.85"/><path class="a95c1702-67d2-4813-ab4f-06a4f707988b" d="M372.56,838.26a36.68,36.68,0,0,1-36.63-36.63V393.49a5.23,5.23,0,0,1,5.23-5.23H404a5.24,5.24,0,0,1,5.24,5.23V801.63A36.68,36.68,0,0,1,372.56,838.26ZM346.4,398.72V801.63a26.16,26.16,0,1,0,52.32,0V398.72Z"/><path class="a95c1702-67d2-4813-ab4f-06a4f707988b" d="M404,963.84H341.16a5.23,5.23,0,0,1-5.23-5.24V393.49a5.23,5.23,0,0,1,5.23-5.23H404a5.24,5.24,0,0,1,5.24,5.23V958.6A5.24,5.24,0,0,1,404,963.84ZM346.4,953.37h52.32V398.72H346.4Z"/><circle class="a3bde813-973f-4cfa-b4cc-90d44f399b9f" cx="372.56" cy="785.93" r="7.85"/><circle class="a3bde813-973f-4cfa-b4cc-90d44f399b9f" cx="372.56" cy="749.3" r="7.85"/><circle class="a3bde813-973f-4cfa-b4cc-90d44f399b9f" cx="372.56" cy="644.65" r="7.85"/><circle class="a3bde813-973f-4cfa-b4cc-90d44f399b9f" cx="372.56" cy="608.02" r="7.85"/><circle class="a3bde813-973f-4cfa-b4cc-90d44f399b9f" cx="372.56" cy="571.4" r="7.85"/><rect class="ba3ad0ca-edb5-4595-83a2-a7f368cdc530" x="665.58" y="676.05" width="83.72" height="41.86" rx="5.23"/><rect class="ba3ad0ca-edb5-4595-83a2-a7f368cdc530" x="330.7" y="676.05" width="83.72" height="41.86" rx="5.23"/><rect class="fa33929c-4091-4418-b55f-9dc27631352b" x="665.58" y="676.05" width="83.72" height="20.93" rx="5.23"/><rect class="fa33929c-4091-4418-b55f-9dc27631352b" x="330.7" y="676.05" width="83.72" height="20.93" rx="5.23"/><path class="a95c1702-67d2-4813-ab4f-06a4f707988b" d="M409.19,723.14H335.93a10.48,10.48,0,0,1-10.46-10.47V681.28a10.48,10.48,0,0,1,10.46-10.47h73.26a10.48,10.48,0,0,1,10.46,10.47v31.39A10.48,10.48,0,0,1,409.19,723.14Zm-73.26-41.86v31.39h73.26V681.28Z"/><path class="a95c1702-67d2-4813-ab4f-06a4f707988b" d="M744.07,723.14H670.81a10.48,10.48,0,0,1-10.46-10.47V681.28a10.48,10.48,0,0,1,10.46-10.47h73.26a10.48,10.48,0,0,1,10.46,10.47v31.39A10.48,10.48,0,0,1,744.07,723.14Zm-73.26-41.86v31.39h73.26V681.28Z"/></svg>