<svg id="b19c63fc-228a-4183-9760-3874f4336463" data-name="Capa 1" xmlns="http://www.w3.org/2000/svg" viewBox="0 0 1080 1080"><defs><style>.a41110e7-3b98-4f98-b0c7-617549e48f75{fill:#f6f6f6;}.b0e6f740-7ee7-434f-a83d-0a2e3efe6721{fill:#2caae6;}.b8a1046e-5b8f-42ce-8a0c-66f26b71358a{fill:#2fc8f2;}.b923ff51-4388-458c-a549-93cecbb188ae{fill:#ededed;}.e7392cf4-1992-41c3-ac4a-4f3dde8921a3{fill:#fff;}.e2bfc8d4-7c3f-4b41-975c-c1f1b754877a{fill:#34234d;}.a4661327-98dd-4644-b3eb-ac87c83bb864{fill:#a09cad;}.b168f05e-c1ef-4498-8bcb-d0a9f993deac{fill:#b8b5c6;}.f7e948b4-19d8-46da-b8bf-20ee576bebf8{fill:#52576a;}.b3ca06db-278e-41ae-adaa-92c4140fa76b{fill:#30354c;}.a568b1f3-f3fe-47bb-8641-ff35d0489b28{fill:#282c3f;}.a7aab0ed-2940-4cd1-a992-911759d3030f{fill:#989aa6;}</style></defs><title>ICONS S2R</title><path class="a41110e7-3b98-4f98-b0c7-617549e48f75" d="M872.67,397.65c-27.91-65.36-7.44-173.7-64.14-216.41-55-41.41-152.08,7.71-225.24-1.13s-155.86-79.69-219.06-52.56c-65.2,28-71,138.1-113.61,194.93-41.31,55.08-146,90.51-154.8,163.85s84.45,132.67,111.51,196c27.91,65.36,7.44,173.7,64.14,216.42,55,41.4,152.08-7.72,225.24,1.12s155.86,79.69,219.06,52.56c65.2-28,71-138.1,113.61-194.93,41.31-55.09,146-90.51,154.8-163.85S899.73,461,872.67,397.65Z"/><circle class="b0e6f740-7ee7-434f-a83d-0a2e3efe6721" cx="477.21" cy="602.79" r="277.33"/><path class="b8a1046e-5b8f-42ce-8a0c-66f26b71358a" d="M519.07,367.33a276.08,276.08,0,0,1,174,61.45A276.7,276.7,0,0,0,477.21,325.47c-153.17,0-277.33,124.16-277.33,277.32A276.71,276.71,0,0,0,303.2,818.66a276,276,0,0,1-61.46-174C241.74,491.49,365.9,367.33,519.07,367.33Z"/><path class="b923ff51-4388-458c-a549-93cecbb188ae" d="M630.82,742.76c1.71,11.9-13.16,6.17-26.17,18.54S588.3,780.78,572.77,773c-13.87-6.94,10.54-39.64,21.87-43.65S628.4,725.84,630.82,742.76Z"/><path class="e7392cf4-1992-41c3-ac4a-4f3dde8921a3" d="M380.55,404.44c-21.79-8.1-31.68-27.26-35.28-45.49A277.88,277.88,0,0,0,202.35,566.28c-.2,1.53-.41,3.06-.58,4.6-.27,2.33-.51,4.69-.72,7-.17,1.93-.31,3.87-.44,5.82-.15,2.19-.31,4.37-.41,6.57s-.13,4.7-.18,7.05c-.07,4.13-.07,8.28,0,12.44,0,1.23.05,2.46.09,3.68q.19,4.74.55,9.5c0,.52.07,1,.11,1.55q.85,10.72,2.55,21.55a277.31,277.31,0,0,0,20.4,69.26s.05.11.08.17q2.74,6.16,5.78,12.16c.19.39.39.77.59,1.16q2.83,5.53,5.89,10.92l.94,1.64q3,5.18,6.2,10.19l1.1,1.72c2.18,3.37,4.43,6.67,6.74,9.93.33.46.65.93,1,1.39,2.46,3.42,5,6.79,7.62,10.09l.54.68a277.87,277.87,0,0,0,42.5,42.68,276,276,0,0,1-61-173.42C241.74,542,297.6,452.38,380.55,404.44Z"/><path class="b923ff51-4388-458c-a549-93cecbb188ae" d="M370.05,805c72.79,11.57,107.43-136-66.18-134.63-45.5.37-51.23-62.08-7-67.57,15.24-1.89,46.78-7,55.37-49.2,7.43-36.46-43.48-56.65-31.58-84.49,13-30.49,118.8,9.76,118.81-38.35,0-26.45-31.42-19.08-52.6-24.33a57.32,57.32,0,0,1-6.3-2C297.6,452.38,241.74,542,241.74,644.65a276,276,0,0,0,61,173.42c5.74,4.66,11.63,9.15,17.73,13.34C331.18,815.54,347.48,801.4,370.05,805Z"/><path class="e7392cf4-1992-41c3-ac4a-4f3dde8921a3" d="M614,384a36,36,0,0,0,10.21-16.34,275.69,275.69,0,0,0-132.68-41.83C480.35,339.54,489.73,355,505,367.68q7-.35,14-.35A277,277,0,0,1,614,384Z"/><path class="b923ff51-4388-458c-a549-93cecbb188ae" d="M614,384a277,277,0,0,0-94.92-16.67q-7.07,0-14,.35a145.32,145.32,0,0,0,43.41,24.12C579,401.88,601.48,395.76,614,384Z"/><path class="b923ff51-4388-458c-a549-93cecbb188ae" d="M751.1,559.56a275.86,275.86,0,0,0-63.16-137A192,192,0,0,0,671,443c-13.17,18.12-31.1,17.35-54.09-6.56-28.88-30.06-92.36-24.48-106,12.82-11.47,31.4-.67,54.69,36.46,70.22,50.44,21.09,23.15,52.93-9.83,40.8s-49.59-24.22-76.88-2.55-22.58,58.59,10.09,63.87c23.21,3.76,35.16,36.44,26.07,46.65-12.9,11.4-31.07,57-6.78,83.9s42.64,7.94,49.51-7.81,7.16-26.22,19.61-47.2c9.28-15.66,41.54-22.59,41.54-22.59s26.53-9.53,8.09-58.71,71.59-40.77,58.76-4.2c-10,28.43-15.19,74.27,34.46,61.6,21.83-5.56,30.8,7.62,38.94,15.2A275.76,275.76,0,0,0,751.1,559.56Z"/><path class="e2bfc8d4-7c3f-4b41-975c-c1f1b754877a" d="M711.42,459.44A5.22,5.22,0,0,1,707,457,273,273,0,0,0,560.57,343.7a5.23,5.23,0,1,1,3.2-10A283.47,283.47,0,0,1,715.83,451.4a5.21,5.21,0,0,1-1.61,7.22A5.15,5.15,0,0,1,711.42,459.44Z"/><path class="e2bfc8d4-7c3f-4b41-975c-c1f1b754877a" d="M477.21,885.35c-155.8,0-282.56-126.76-282.56-282.56S321.41,320.23,477.21,320.23c4.83,0,9.73.13,14.58.37a5.23,5.23,0,0,1-.53,10.45c-4.67-.23-9.4-.35-14.05-.35-150,0-272.09,122.06-272.09,272.09S327.18,874.88,477.21,874.88a270.69,270.69,0,0,0,189.23-76.57,5.23,5.23,0,1,1,7.28,7.52A281.11,281.11,0,0,1,477.21,885.35Z"/><path class="a4661327-98dd-4644-b3eb-ac87c83bb864" d="M697,618.49h62.79V848.72a31.4,31.4,0,0,1-31.4,31.4h0A31.39,31.39,0,0,1,697,848.72Z"/><path class="b168f05e-c1ef-4498-8bcb-d0a9f993deac" d="M697,618.49H733.6V874.88a5.24,5.24,0,0,1-5.23,5.24h0A31.39,31.39,0,0,1,697,848.72Z"/><rect class="f7e948b4-19d8-46da-b8bf-20ee576bebf8" x="628.95" y="482.44" width="198.84" height="136.05"/><rect class="b3ca06db-278e-41ae-adaa-92c4140fa76b" x="686.51" y="482.44" width="141.28" height="136.05"/><path class="b168f05e-c1ef-4498-8bcb-d0a9f993deac" d="M581.86,451h15.7a31.4,31.4,0,0,1,31.4,31.4v136a31.4,31.4,0,0,1-31.4,31.4h-15.7a5.23,5.23,0,0,1-5.23-5.23V456.28a5.23,5.23,0,0,1,5.23-5.23Z"/><path class="a4661327-98dd-4644-b3eb-ac87c83bb864" d="M859.19,451h15.7a5.23,5.23,0,0,1,5.23,5.23V644.65a5.23,5.23,0,0,1-5.23,5.23h-15.7a31.4,31.4,0,0,1-31.4-31.4v-136a31.4,31.4,0,0,1,31.4-31.4Z"/><path class="a568b1f3-f3fe-47bb-8641-ff35d0489b28" d="M728.37,885.35a36.68,36.68,0,0,1-36.63-36.63V618.49a5.23,5.23,0,0,1,5.24-5.23h62.79a5.23,5.23,0,0,1,5.23,5.23V848.72A36.67,36.67,0,0,1,728.37,885.35ZM702.21,623.72v225a26.16,26.16,0,0,0,52.32,0v-225Z"/><path class="a568b1f3-f3fe-47bb-8641-ff35d0489b28" d="M827.79,623.72H629a5.23,5.23,0,0,1-5.23-5.23v-136a5.23,5.23,0,0,1,5.23-5.23H827.79a5.23,5.23,0,0,1,5.23,5.23V618.49A5.23,5.23,0,0,1,827.79,623.72Zm-193.6-10.46H822.56V487.67H634.19Z"/><path class="a568b1f3-f3fe-47bb-8641-ff35d0489b28" d="M597.56,655.12h-15.7a10.48,10.48,0,0,1-10.46-10.47V456.28a10.48,10.48,0,0,1,10.46-10.47h15.7a36.68,36.68,0,0,1,36.63,36.63V618.49A36.68,36.68,0,0,1,597.56,655.12Zm-15.7-198.84h0V644.65h15.7a26.2,26.2,0,0,0,26.16-26.16v-136a26.2,26.2,0,0,0-26.16-26.16Z"/><path class="a568b1f3-f3fe-47bb-8641-ff35d0489b28" d="M874.88,655.12H859.19a36.68,36.68,0,0,1-36.63-36.63v-136a36.67,36.67,0,0,1,36.63-36.63h15.69a10.49,10.49,0,0,1,10.47,10.47V644.65A10.49,10.49,0,0,1,874.88,655.12ZM859.19,456.28A26.2,26.2,0,0,0,833,482.44V618.49a26.2,26.2,0,0,0,26.17,26.16h15.69V456.28Z"/><path class="b3ca06db-278e-41ae-adaa-92c4140fa76b" d="M450.74,561.58A73.69,73.69,0,0,0,346.53,665.8l52.1,52.11,52.11-52.11A73.69,73.69,0,0,0,450.74,561.58Z"/><path class="a568b1f3-f3fe-47bb-8641-ff35d0489b28" d="M398.63,723.14a5.25,5.25,0,0,1-3.7-1.53l-52.1-52.11a78.92,78.92,0,1,1,111.61,0l-52.11,52.11A5.22,5.22,0,0,1,398.63,723.14Zm0-177.91a68.46,68.46,0,0,0-48.4,116.87l48.4,48.41L447,662.1a68.46,68.46,0,0,0-48.41-116.87Z"/><path class="e7392cf4-1992-41c3-ac4a-4f3dde8921a3" d="M401.38,664.79h-5.5a21.73,21.73,0,0,1-21.71-21.71,5.24,5.24,0,0,1,10.47,0,11.25,11.25,0,0,0,11.24,11.25h5.5a11.25,11.25,0,0,0,11.25-11.25v-5.49a11.26,11.26,0,0,0-11.25-11.25h-5.5a21.74,21.74,0,0,1-21.71-21.72v-5.49a21.74,21.74,0,0,1,21.71-21.72h5.5a21.74,21.74,0,0,1,21.72,21.72,5.24,5.24,0,0,1-10.47,0,11.25,11.25,0,0,0-11.25-11.25h-5.5a11.25,11.25,0,0,0-11.24,11.25v5.49a11.26,11.26,0,0,0,11.24,11.25h5.5a21.75,21.75,0,0,1,21.72,21.72v5.49A21.73,21.73,0,0,1,401.38,664.79Z"/><path class="e7392cf4-1992-41c3-ac4a-4f3dde8921a3" d="M398.63,587.88a5.23,5.23,0,0,1-5.23-5.23V566.16a5.24,5.24,0,0,1,10.47,0v16.49A5.23,5.23,0,0,1,398.63,587.88Z"/><path class="e7392cf4-1992-41c3-ac4a-4f3dde8921a3" d="M398.63,681.28a5.23,5.23,0,0,1-5.23-5.23V659.56a5.24,5.24,0,0,1,10.47,0v16.49A5.23,5.23,0,0,1,398.63,681.28Z"/><path class="b3ca06db-278e-41ae-adaa-92c4140fa76b" d="M625.67,221.47A73.69,73.69,0,1,0,521.45,325.68l52.11,52.11,52.11-52.11A73.68,73.68,0,0,0,625.67,221.47Z"/><path class="a568b1f3-f3fe-47bb-8641-ff35d0489b28" d="M573.56,383h0a5.23,5.23,0,0,1-3.7-1.53l-52.11-52.11a78.92,78.92,0,1,1,111.62,0l-52.11,52.11A5.23,5.23,0,0,1,573.56,383Zm0-177.87A68.43,68.43,0,0,0,525.15,322l48.41,48.41L622,322a68.43,68.43,0,0,0-48.41-116.83Z"/><path class="e7392cf4-1992-41c3-ac4a-4f3dde8921a3" d="M576.31,324.68h-5.5A21.74,21.74,0,0,1,549.1,303a5.23,5.23,0,1,1,10.46,0,11.27,11.27,0,0,0,11.25,11.25h5.5A11.27,11.27,0,0,0,587.56,303v-5.5a11.27,11.27,0,0,0-11.25-11.25h-5.5a21.74,21.74,0,0,1-21.71-21.71V259a21.74,21.74,0,0,1,21.71-21.71h5.5A21.74,21.74,0,0,1,598,259a5.23,5.23,0,0,1-10.46,0,11.27,11.27,0,0,0-11.25-11.25h-5.5A11.27,11.27,0,0,0,559.56,259v5.5a11.27,11.27,0,0,0,11.25,11.25h5.5A21.74,21.74,0,0,1,598,297.47V303A21.74,21.74,0,0,1,576.31,324.68Z"/><path class="e7392cf4-1992-41c3-ac4a-4f3dde8921a3" d="M573.56,247.76a5.23,5.23,0,0,1-5.24-5.23V226.05a5.24,5.24,0,1,1,10.47,0v16.48A5.23,5.23,0,0,1,573.56,247.76Z"/><path class="e7392cf4-1992-41c3-ac4a-4f3dde8921a3" d="M573.56,341.16a5.23,5.23,0,0,1-5.24-5.23V319.45a5.24,5.24,0,0,1,10.47,0v16.48A5.23,5.23,0,0,1,573.56,341.16Z"/><path class="b3ca06db-278e-41ae-adaa-92c4140fa76b" d="M324,326.12A73.69,73.69,0,0,0,219.76,430.33l52.11,52.11L324,430.33A73.68,73.68,0,0,0,324,326.12Z"/><path class="a568b1f3-f3fe-47bb-8641-ff35d0489b28" d="M271.87,487.67a5.23,5.23,0,0,1-3.7-1.53L216.06,434a78.92,78.92,0,1,1,111.61,0l-52.1,52.11A5.23,5.23,0,0,1,271.87,487.67Zm0-177.87a68.43,68.43,0,0,0-48.41,116.83L271.87,475l48.4-48.41a68.43,68.43,0,0,0-48.4-116.83Z"/><path class="e7392cf4-1992-41c3-ac4a-4f3dde8921a3" d="M274.61,429.33h-5.49a21.74,21.74,0,0,1-21.71-21.71,5.23,5.23,0,1,1,10.46,0,11.26,11.26,0,0,0,11.25,11.25h5.49a11.27,11.27,0,0,0,11.25-11.25v-5.5a11.27,11.27,0,0,0-11.25-11.25h-5.49a21.74,21.74,0,0,1-21.71-21.71v-5.5A21.74,21.74,0,0,1,269.12,342h5.49a21.74,21.74,0,0,1,21.72,21.71,5.24,5.24,0,0,1-10.47,0,11.27,11.27,0,0,0-11.25-11.25h-5.49a11.26,11.26,0,0,0-11.25,11.25v5.5a11.26,11.26,0,0,0,11.25,11.25h5.49a21.74,21.74,0,0,1,21.72,21.71v5.5A21.74,21.74,0,0,1,274.61,429.33Z"/><path class="e7392cf4-1992-41c3-ac4a-4f3dde8921a3" d="M271.87,352.41a5.23,5.23,0,0,1-5.24-5.23V330.7a5.24,5.24,0,0,1,10.47,0v16.48A5.23,5.23,0,0,1,271.87,352.41Z"/><path class="e7392cf4-1992-41c3-ac4a-4f3dde8921a3" d="M271.87,445.81a5.23,5.23,0,0,1-5.24-5.23V424.1a5.24,5.24,0,0,1,10.47,0v16.48A5.23,5.23,0,0,1,271.87,445.81Z"/><path class="a568b1f3-f3fe-47bb-8641-ff35d0489b28" d="M791.16,636.8a5.23,5.23,0,0,1-5.23-5.23V469.36a5.24,5.24,0,0,1,10.47,0V631.57A5.24,5.24,0,0,1,791.16,636.8Z"/><path class="a568b1f3-f3fe-47bb-8641-ff35d0489b28" d="M665.58,636.8a5.23,5.23,0,0,1-5.23-5.23V469.36a5.23,5.23,0,1,1,10.46,0V631.57A5.23,5.23,0,0,1,665.58,636.8Z"/><path class="a7aab0ed-2940-4cd1-a992-911759d3030f" d="M393.49,927.21a5.22,5.22,0,0,1-3.7-1.53L374.09,910a5.23,5.23,0,1,1,7.4-7.4l15.7,15.7a5.23,5.23,0,0,1-3.7,8.93Z"/><path class="a7aab0ed-2940-4cd1-a992-911759d3030f" d="M430.12,963.84a5.19,5.19,0,0,1-3.7-1.54l-15.7-15.69a5.23,5.23,0,0,1,7.4-7.4l15.7,15.7a5.24,5.24,0,0,1-3.7,8.93Z"/><path class="a7aab0ed-2940-4cd1-a992-911759d3030f" d="M377.79,963.84a5.24,5.24,0,0,1-3.7-8.93l15.7-15.7a5.23,5.23,0,0,1,7.4,7.4l-15.7,15.69A5.19,5.19,0,0,1,377.79,963.84Z"/><path class="a7aab0ed-2940-4cd1-a992-911759d3030f" d="M414.42,927.21a5.23,5.23,0,0,1-3.7-8.93l15.7-15.7a5.23,5.23,0,1,1,7.4,7.4l-15.7,15.7A5.22,5.22,0,0,1,414.42,927.21Z"/><path class="a7aab0ed-2940-4cd1-a992-911759d3030f" d="M948.14,744.07a5.22,5.22,0,0,1-3.7-1.53l-15.7-15.7a5.23,5.23,0,0,1,7.4-7.4l15.7,15.7a5.23,5.23,0,0,1-3.7,8.93Z"/><path class="a7aab0ed-2940-4cd1-a992-911759d3030f" d="M984.77,780.7a5.19,5.19,0,0,1-3.7-1.54l-15.7-15.69a5.23,5.23,0,1,1,7.4-7.4l15.7,15.7a5.24,5.24,0,0,1-3.7,8.93Z"/><path class="a7aab0ed-2940-4cd1-a992-911759d3030f" d="M932.44,780.7a5.24,5.24,0,0,1-3.7-8.93l15.7-15.7a5.23,5.23,0,1,1,7.4,7.4l-15.7,15.69A5.19,5.19,0,0,1,932.44,780.7Z"/><path class="a7aab0ed-2940-4cd1-a992-911759d3030f" d="M969.07,744.07a5.23,5.23,0,0,1-3.7-8.93l15.7-15.7a5.23,5.23,0,0,1,7.4,7.4l-15.7,15.7A5.22,5.22,0,0,1,969.07,744.07Z"/><path class="a7aab0ed-2940-4cd1-a992-911759d3030f" d="M759.77,283.6a5.22,5.22,0,0,1-3.7-1.53l-15.7-15.7a5.23,5.23,0,1,1,7.4-7.39l15.7,15.69a5.23,5.23,0,0,1-3.7,8.93Z"/><path class="a7aab0ed-2940-4cd1-a992-911759d3030f" d="M796.4,320.23a5.22,5.22,0,0,1-3.7-1.53L777,303a5.23,5.23,0,0,1,7.4-7.4l15.69,15.7a5.23,5.23,0,0,1-3.69,8.93Z"/><path class="a7aab0ed-2940-4cd1-a992-911759d3030f" d="M744.07,320.23a5.23,5.23,0,0,1-3.7-8.93l15.7-15.7a5.23,5.23,0,0,1,7.4,7.4l-15.7,15.7A5.22,5.22,0,0,1,744.07,320.23Z"/><path class="a7aab0ed-2940-4cd1-a992-911759d3030f" d="M780.7,283.6a5.23,5.23,0,0,1-3.7-8.93L792.7,259a5.23,5.23,0,0,1,7.39,7.39l-15.69,15.7A5.22,5.22,0,0,1,780.7,283.6Z"/><path class="a7aab0ed-2940-4cd1-a992-911759d3030f" d="M424.88,142.33a5.24,5.24,0,0,1-3.7-1.54l-15.69-15.7a5.23,5.23,0,0,1,7.4-7.39l15.69,15.69a5.24,5.24,0,0,1-3.7,8.94Z"/><path class="a7aab0ed-2940-4cd1-a992-911759d3030f" d="M461.51,179a5.22,5.22,0,0,1-3.7-1.53l-15.7-15.7a5.23,5.23,0,1,1,7.4-7.4l15.7,15.7a5.23,5.23,0,0,1-3.7,8.93Z"/><path class="a7aab0ed-2940-4cd1-a992-911759d3030f" d="M409.19,179a5.23,5.23,0,0,1-3.7-8.93l15.69-15.7a5.23,5.23,0,1,1,7.4,7.4l-15.69,15.7A5.23,5.23,0,0,1,409.19,179Z"/><path class="a7aab0ed-2940-4cd1-a992-911759d3030f" d="M445.81,142.33a5.24,5.24,0,0,1-3.7-8.94l15.7-15.69a5.23,5.23,0,0,1,7.4,7.39l-15.7,15.7A5.23,5.23,0,0,1,445.81,142.33Z"/><path class="a7aab0ed-2940-4cd1-a992-911759d3030f" d="M110.93,341.16a5.22,5.22,0,0,1-3.7-1.53l-15.7-15.7a5.23,5.23,0,0,1,7.4-7.4l15.7,15.7a5.23,5.23,0,0,1-3.7,8.93Z"/><path class="a7aab0ed-2940-4cd1-a992-911759d3030f" d="M147.56,377.79a5.22,5.22,0,0,1-3.7-1.53l-15.7-15.7a5.23,5.23,0,0,1,7.4-7.4l15.7,15.7a5.23,5.23,0,0,1-3.7,8.93Z"/><path class="a7aab0ed-2940-4cd1-a992-911759d3030f" d="M95.23,377.79a5.23,5.23,0,0,1-3.7-8.93l15.7-15.7a5.23,5.23,0,1,1,7.4,7.4l-15.7,15.7A5.22,5.22,0,0,1,95.23,377.79Z"/><path class="a7aab0ed-2940-4cd1-a992-911759d3030f" d="M131.86,341.16a5.23,5.23,0,0,1-3.7-8.93l15.7-15.7a5.23,5.23,0,0,1,7.4,7.4l-15.7,15.7A5.22,5.22,0,0,1,131.86,341.16Z"/><path class="a7aab0ed-2940-4cd1-a992-911759d3030f" d="M152.79,728.37a5.22,5.22,0,0,1-3.7-1.53l-15.7-15.7a5.23,5.23,0,0,1,7.4-7.4l15.7,15.7a5.23,5.23,0,0,1-3.7,8.93Z"/><path class="a7aab0ed-2940-4cd1-a992-911759d3030f" d="M189.42,765a5.22,5.22,0,0,1-3.7-1.53L170,747.77a5.23,5.23,0,1,1,7.4-7.4l15.7,15.7a5.23,5.23,0,0,1-3.7,8.93Z"/><path class="a7aab0ed-2940-4cd1-a992-911759d3030f" d="M137.09,765a5.23,5.23,0,0,1-3.7-8.93l15.7-15.7a5.23,5.23,0,1,1,7.4,7.4l-15.7,15.7A5.22,5.22,0,0,1,137.09,765Z"/><path class="a7aab0ed-2940-4cd1-a992-911759d3030f" d="M173.72,728.37a5.23,5.23,0,0,1-3.7-8.93l15.7-15.7a5.23,5.23,0,0,1,7.4,7.4l-15.7,15.7A5.22,5.22,0,0,1,173.72,728.37Z"/></svg>