<svg id="a58c63fa-f4f7-47f2-8a45-112541983d95" data-name="Capa 1" xmlns="http://www.w3.org/2000/svg" viewBox="0 0 1080 1080"><defs><style>.f1943248-0a6e-44f2-ad5a-3b858fdfda47{fill:#f6f6f6;}.bcf1e9ca-21d7-4e6f-824f-a761c274330b{fill:#989aa6;}.ece8c0cd-d9bc-4fe8-bd61-41d15b46ed8b{fill:#fff;}.ed17f7d3-a09d-4697-96f8-de5f9efc6a35{fill:#b8b5c6;}.b7f33e20-79fb-4699-9129-f094bf6844cd{fill:#282c3f;}.ef190a20-2974-4cea-9411-31dc7ac9b51b{fill:#2fc8f2;}.b31a1ba8-2651-4139-a136-6b9a2fe53c51{fill:#2caae6;}.f392d9f2-f027-4547-80d8-7215a45003e7{fill:#34234d;}.f953c492-af31-48c1-aa01-dbecf28d3f80{fill:#52576a;}.ef5ba683-5e81-488d-b3f2-4be9136ebd87{fill:#30354c;}.a1d472b1-5272-4019-a685-da604140012b{fill:#a09cad;}.a0d04695-96a5-46ae-979a-3ecfc7a2f7e7{fill:#ededed;}</style></defs><title>ICONS S2R</title><path class="f1943248-0a6e-44f2-ad5a-3b858fdfda47" d="M961.57,437.44c-16.92-69.3-121.79-91.23-167.9-139.3C746.1,248.55,727.85,143.63,661.84,124.3c-64-18.74-135.47,58.71-204.91,75.6s-168.62-19-216.78,27c-49.69,47.48-17.51,149-36.88,214.89C184.5,505.62,101.5,573.26,118.43,642.56s121.79,91.23,167.9,139.3c47.57,49.59,65.82,154.51,131.83,173.84,64,18.74,135.47-58.71,204.91-75.6s168.62,19,216.78-27c49.69-47.48,17.51-149,36.88-214.89C895.5,574.38,978.5,506.74,961.57,437.44Z"/><path class="bcf1e9ca-21d7-4e6f-824f-a761c274330b" d="M984.77,963.84H95.23a5.24,5.24,0,0,1,0-10.47H984.77a5.24,5.24,0,0,1,0,10.47Z"/><polygon class="f1943248-0a6e-44f2-ad5a-3b858fdfda47" points="880.12 451.05 540 278.37 199.88 451.05 199.88 958.61 880.12 958.61 880.12 451.05"/><polygon class="ece8c0cd-d9bc-4fe8-bd61-41d15b46ed8b" points="843.49 432.73 540 278.37 199.88 451.05 199.88 958.61 843.49 958.61 843.49 432.73"/><path class="ed17f7d3-a09d-4697-96f8-de5f9efc6a35" d="M377.79,581.86H765a62.79,62.79,0,0,1,62.79,62.79V843.49a0,0,0,0,1,0,0H315a0,0,0,0,1,0,0V644.65A62.79,62.79,0,0,1,377.79,581.86Z"/><path class="ed17f7d3-a09d-4697-96f8-de5f9efc6a35" d="M833,848.72H309.77V644.65a68.09,68.09,0,0,1,68-68H765a68.09,68.09,0,0,1,68,68ZM320.23,838.26H822.56V644.65A57.62,57.62,0,0,0,765,587.09H377.79a57.62,57.62,0,0,0-57.56,57.56Z"/><path class="ed17f7d3-a09d-4697-96f8-de5f9efc6a35" d="M833,843.49H309.77A10.46,10.46,0,0,0,299.3,854V958.6h36.63l34.54-115.11H772.33L806.86,958.6h36.63V854A10.46,10.46,0,0,0,833,843.49Z"/><path class="ed17f7d3-a09d-4697-96f8-de5f9efc6a35" d="M848.72,963.84H803L768.43,848.72H374.36L339.82,963.84H294.07V854a15.71,15.71,0,0,1,15.7-15.69H833A15.71,15.71,0,0,1,848.72,854Zm-38-10.47h27.51V854a5.24,5.24,0,0,0-5.24-5.23H779.36Zm-506.22,0H332l31.39-104.65H309.77a5.24,5.24,0,0,0-5.24,5.23Z"/><path class="b7f33e20-79fb-4699-9129-f094bf6844cd" d="M880.12,963.84H199.88a5.24,5.24,0,0,1-5.23-5.24V581.86a5.24,5.24,0,0,1,10.47,0V953.37H874.88V806.86a5.24,5.24,0,0,1,10.47,0V958.6A5.24,5.24,0,0,1,880.12,963.84Z"/><path class="b7f33e20-79fb-4699-9129-f094bf6844cd" d="M880.12,780.7a5.24,5.24,0,0,1-5.24-5.23V454.26L540,284.24l-334.88,170v96.21a5.24,5.24,0,0,1-10.47,0V451.05a5.24,5.24,0,0,1,2.87-4.67L537.63,273.71a5.21,5.21,0,0,1,4.74,0L882.48,446.38a5.24,5.24,0,0,1,2.87,4.67V775.47A5.23,5.23,0,0,1,880.12,780.7Z"/><polygon class="ef190a20-2974-4cea-9411-31dc7ac9b51b" points="323.56 487.67 540 377.79 756.44 487.67 323.56 487.67"/><polygon class="b31a1ba8-2651-4139-a136-6b9a2fe53c51" points="449.14 487.67 449.14 423.92 540 377.79 756.44 487.67 449.14 487.67"/><path class="f392d9f2-f027-4547-80d8-7215a45003e7" d="M756.44,492.91H323.56a5.23,5.23,0,0,1-2.37-9.9L537.63,373.13a5.21,5.21,0,0,1,4.74,0L758.81,483a5.23,5.23,0,0,1-2.37,9.9Zm-411-10.47H734.57L540,383.66Z"/><path class="f392d9f2-f027-4547-80d8-7215a45003e7" d="M540,492.91a5.24,5.24,0,0,1-5.23-5.24V377.79a5.23,5.23,0,1,1,10.46,0V487.67A5.24,5.24,0,0,1,540,492.91Z"/><path class="f953c492-af31-48c1-aa01-dbecf28d3f80" d="M346.4,581.86H733.6a62.79,62.79,0,0,1,62.79,62.79V843.49a0,0,0,0,1,0,0H283.6a0,0,0,0,1,0,0V644.65A62.79,62.79,0,0,1,346.4,581.86Z"/><path class="f953c492-af31-48c1-aa01-dbecf28d3f80" d="M801.63,843.49H278.37A10.46,10.46,0,0,0,267.91,854V958.6h36.62l15.7-52.32H759.77l15.7,52.32h36.62V854A10.46,10.46,0,0,0,801.63,843.49Z"/><path class="ef5ba683-5e81-488d-b3f2-4be9136ebd87" d="M383,581.86H733.6a62.79,62.79,0,0,1,62.79,62.79V843.49a0,0,0,0,1,0,0H320.23a0,0,0,0,1,0,0V644.65A62.79,62.79,0,0,1,383,581.86Z"/><path class="b7f33e20-79fb-4699-9129-f094bf6844cd" d="M796.4,848.72H283.6a5.23,5.23,0,0,1-5.23-5.23V644.65a68.1,68.1,0,0,1,68-68H733.6a68.1,68.1,0,0,1,68,68V843.49A5.23,5.23,0,0,1,796.4,848.72ZM288.84,838.26H791.16V644.65a57.62,57.62,0,0,0-57.56-57.56H346.4a57.62,57.62,0,0,0-57.56,57.56Z"/><path class="a1d472b1-5272-4019-a685-da604140012b" d="M341.16,759.77H738.84a20.93,20.93,0,0,1,20.93,20.93v62.79a0,0,0,0,1,0,0H320.23a0,0,0,0,1,0,0V780.7a20.93,20.93,0,0,1,20.93-20.93Z"/><path class="ed17f7d3-a09d-4697-96f8-de5f9efc6a35" d="M341.16,759.77H707.44a20.93,20.93,0,0,1,20.93,20.93v62.79a0,0,0,0,1,0,0H320.23a0,0,0,0,1,0,0V780.7A20.93,20.93,0,0,1,341.16,759.77Z"/><path class="b7f33e20-79fb-4699-9129-f094bf6844cd" d="M759.77,848.72H320.23a5.23,5.23,0,0,1-5.23-5.23V780.7a26.2,26.2,0,0,1,26.16-26.17H738.84A26.2,26.2,0,0,1,765,780.7v62.79A5.23,5.23,0,0,1,759.77,848.72Zm-434.3-10.46H754.53V780.7A15.71,15.71,0,0,0,738.84,765H341.16a15.71,15.71,0,0,0-15.69,15.7Z"/><path class="a0d04695-96a5-46ae-979a-3ecfc7a2f7e7" d="M581.86,697h78.49a41.86,41.86,0,0,1,41.86,41.86v20.93a0,0,0,0,1,0,0H540a0,0,0,0,1,0,0V738.84A41.86,41.86,0,0,1,581.86,697Z"/><path class="a0d04695-96a5-46ae-979a-3ecfc7a2f7e7" d="M419.65,697h78.49A41.86,41.86,0,0,1,540,738.84v20.93a0,0,0,0,1,0,0H377.79a0,0,0,0,1,0,0V738.84A41.86,41.86,0,0,1,419.65,697Z"/><path class="ece8c0cd-d9bc-4fe8-bd61-41d15b46ed8b" d="M581.86,697H629a41.86,41.86,0,0,1,41.86,41.86v20.93a0,0,0,0,1,0,0H540a0,0,0,0,1,0,0V738.84A41.86,41.86,0,0,1,581.86,697Z"/><path class="ece8c0cd-d9bc-4fe8-bd61-41d15b46ed8b" d="M419.65,697h47.09a41.86,41.86,0,0,1,41.86,41.86v20.93a0,0,0,0,1,0,0H377.79a0,0,0,0,1,0,0V738.84A41.86,41.86,0,0,1,419.65,697Z"/><path class="b7f33e20-79fb-4699-9129-f094bf6844cd" d="M702.21,765H540a5.23,5.23,0,0,1-5.23-5.23V738.84a47.15,47.15,0,0,1,47.09-47.1h78.49a47.15,47.15,0,0,1,47.09,47.1v20.93A5.23,5.23,0,0,1,702.21,765Zm-157-10.47H697V738.84a36.67,36.67,0,0,0-36.63-36.63H581.86a36.67,36.67,0,0,0-36.63,36.63Z"/><path class="b7f33e20-79fb-4699-9129-f094bf6844cd" d="M540,765H377.79a5.23,5.23,0,0,1-5.23-5.23V738.84a47.15,47.15,0,0,1,47.09-47.1h78.49a47.15,47.15,0,0,1,47.09,47.1v20.93A5.23,5.23,0,0,1,540,765ZM383,754.53H534.77V738.84a36.67,36.67,0,0,0-36.63-36.63H419.65A36.67,36.67,0,0,0,383,738.84Z"/><path class="ef5ba683-5e81-488d-b3f2-4be9136ebd87" d="M801.63,843.49H309.77A10.46,10.46,0,0,0,299.3,854V958.6h5.23l15.7-52.32H759.77l15.7,52.32h36.62V854A10.46,10.46,0,0,0,801.63,843.49Z"/><path class="b7f33e20-79fb-4699-9129-f094bf6844cd" d="M812.09,963.84H775.47a5.25,5.25,0,0,1-5-3.73l-14.58-48.6H597.56a5.23,5.23,0,1,1,0-10.46H759.77a5.22,5.22,0,0,1,5,3.72l14.58,48.6h27.5V854a5.24,5.24,0,0,0-5.23-5.23H278.37a5.24,5.24,0,0,0-5.23,5.23v99.42h27.5l14.58-48.6a5.22,5.22,0,0,1,5-3.72H566.16a5.23,5.23,0,1,1,0,10.46h-242l-14.58,48.6a5.25,5.25,0,0,1-5,3.73H267.91a5.25,5.25,0,0,1-5.24-5.24V854a15.72,15.72,0,0,1,15.7-15.69H801.63A15.72,15.72,0,0,1,817.33,854V958.6A5.25,5.25,0,0,1,812.09,963.84Z"/><path class="a1d472b1-5272-4019-a685-da604140012b" d="M477.21,152.79H424.88a5.23,5.23,0,0,1,0-10.46h52.33a5.23,5.23,0,1,1,0,10.46Z"/><path class="a1d472b1-5272-4019-a685-da604140012b" d="M451.05,179a5.24,5.24,0,0,1-5.24-5.23V121.4a5.24,5.24,0,1,1,10.47,0v52.32A5.23,5.23,0,0,1,451.05,179Z"/><path class="bcf1e9ca-21d7-4e6f-824f-a761c274330b" d="M880.12,294.07H827.79a5.24,5.24,0,0,1,0-10.47h52.33a5.24,5.24,0,0,1,0,10.47Z"/><path class="bcf1e9ca-21d7-4e6f-824f-a761c274330b" d="M854,320.23a5.23,5.23,0,0,1-5.23-5.23V262.67a5.24,5.24,0,0,1,10.47,0V315A5.24,5.24,0,0,1,854,320.23Z"/><path class="bcf1e9ca-21d7-4e6f-824f-a761c274330b" d="M179,791.16H137.09a5.23,5.23,0,0,1,0-10.46H179a5.23,5.23,0,1,1,0,10.46Z"/><path class="bcf1e9ca-21d7-4e6f-824f-a761c274330b" d="M158,812.09a5.23,5.23,0,0,1-5.23-5.23V765a5.24,5.24,0,0,1,10.47,0v41.86A5.24,5.24,0,0,1,158,812.09Z"/><path class="bcf1e9ca-21d7-4e6f-824f-a761c274330b" d="M665.58,247H623.72a5.24,5.24,0,0,1,0-10.47h41.86a5.24,5.24,0,0,1,0,10.47Z"/><path class="bcf1e9ca-21d7-4e6f-824f-a761c274330b" d="M644.65,267.91a5.24,5.24,0,0,1-5.23-5.24V220.81a5.23,5.23,0,0,1,10.46,0v41.86A5.24,5.24,0,0,1,644.65,267.91Z"/><path class="bcf1e9ca-21d7-4e6f-824f-a761c274330b" d="M325.47,315H283.6a5.24,5.24,0,0,1,0-10.47h41.87a5.24,5.24,0,0,1,0,10.47Z"/><path class="bcf1e9ca-21d7-4e6f-824f-a761c274330b" d="M304.53,335.93a5.23,5.23,0,0,1-5.23-5.23V288.84a5.24,5.24,0,1,1,10.47,0V330.7A5.24,5.24,0,0,1,304.53,335.93Z"/><path class="bcf1e9ca-21d7-4e6f-824f-a761c274330b" d="M147.56,487.67H95.23a5.23,5.23,0,1,1,0-10.46h52.33a5.23,5.23,0,0,1,0,10.46Z"/><path class="bcf1e9ca-21d7-4e6f-824f-a761c274330b" d="M121.4,513.84a5.25,5.25,0,0,1-5.24-5.24V456.28a5.24,5.24,0,0,1,10.47,0V508.6A5.24,5.24,0,0,1,121.4,513.84Z"/><path class="bcf1e9ca-21d7-4e6f-824f-a761c274330b" d="M984.77,629H932.44a5.23,5.23,0,0,1,0-10.46h52.33a5.23,5.23,0,0,1,0,10.46Z"/><path class="bcf1e9ca-21d7-4e6f-824f-a761c274330b" d="M958.6,655.12a5.24,5.24,0,0,1-5.23-5.24V597.56a5.24,5.24,0,0,1,10.47,0v52.32A5.25,5.25,0,0,1,958.6,655.12Z"/><path class="bcf1e9ca-21d7-4e6f-824f-a761c274330b" d="M942.91,895.81H901.05a5.23,5.23,0,1,1,0-10.46h41.86a5.23,5.23,0,1,1,0,10.46Z"/><path class="bcf1e9ca-21d7-4e6f-824f-a761c274330b" d="M922,916.74a5.24,5.24,0,0,1-5.24-5.23V869.65a5.24,5.24,0,0,1,10.47,0v41.86A5.23,5.23,0,0,1,922,916.74Z"/></svg>