<svg id="ef931f49-191c-4630-857d-47edf5fb2ab0" data-name="Capa 1" xmlns="http://www.w3.org/2000/svg" viewBox="0 0 1080 1080"><defs><style>.b7771726-3699-4e2d-a2eb-fb8796ae029d{fill:#989aa6;}.f258e4ef-dccb-43ea-8b1e-cc107819a0cd{fill:#f6f6f6;}.ba75ef14-8bcf-4b31-a0b1-d2b0c8a3caa6{fill:#fff;}.a92d88e8-75c7-4d73-a110-da341c70bd82{fill:#30354c;}.e743e3df-3834-4a7e-a325-72d4777aec3e{fill:#282c3f;}.fa88f365-19f5-41d2-8487-89a3f59a9c55{fill:#52576a;}.e8de0c68-e9c7-44d6-a06f-d236e376024b{fill:#ededed;}.f28cf6d1-9578-4c47-bd82-395083ef95f6{fill:#2caae6;}.bb4e955c-7152-453c-8fe8-7dad888a1968{fill:#2fc8f2;}.e33be9c2-603f-4a51-b0a2-b3a56d2a1a38{fill:#a09cad;}</style></defs><title>ICONOS S2R</title><path class="b7771726-3699-4e2d-a2eb-fb8796ae029d" d="M984.77,963.84H95.23a5.24,5.24,0,0,1,0-10.47H984.77a5.24,5.24,0,0,1,0,10.47Z"/><path class="f258e4ef-dccb-43ea-8b1e-cc107819a0cd" d="M961.57,437.44c-16.92-69.3-121.79-91.23-167.9-139.3C746.1,248.55,727.85,143.63,661.84,124.3c-64-18.74-135.47,58.71-204.91,75.6s-168.62-19-216.78,27c-49.69,47.48-17.51,149-36.88,214.89-18.78,63.85-101.77,131.49-84.84,200.79s121.79,91.23,167.9,139.3c47.57,49.59,65.82,154.51,131.83,173.84,64,18.74,135.47-58.71,204.91-75.6s168.62,19,216.78-27c49.69-47.48,17.51-149,36.88-214.89C895.51,574.37,978.5,506.74,961.57,437.44Z"/><path class="ba75ef14-8bcf-4b31-a0b1-d2b0c8a3caa6" d="M962.56,669.65a23,23,0,0,0,3-11.41,23.19,23.19,0,0,0-38.8-17.18,41.83,41.83,0,0,0-83.31,5.43,42.38,42.38,0,0,0,.74,7.69,34.53,34.53,0,0,0-7.24-.78,35.26,35.26,0,1,0,0,70.51h120.4a27.38,27.38,0,0,0,5.19-54.26Z"/><path class="b7771726-3699-4e2d-a2eb-fb8796ae029d" d="M957.37,729.14H837a40.53,40.53,0,0,1-40.49-40.49c0-22.76,19.1-41.3,41.79-40.46,0-.57,0-1.14,0-1.7a47.06,47.06,0,0,1,92-14,28.44,28.44,0,0,1,39.39,33.8,32.61,32.61,0,0,1-12.27,62.83ZM837,658.63a30,30,0,0,0,0,60h120.4a22.15,22.15,0,0,0,4.21-43.89,5.23,5.23,0,0,1-3.57-7.72,18,18,0,0,0-27.71-22.13,5.24,5.24,0,0,1-8.71-3.2,36.59,36.59,0,1,0-72.23,11.49,5.24,5.24,0,0,1-6.24,6.07A29.53,29.53,0,0,0,837,658.63Z"/><path class="ba75ef14-8bcf-4b31-a0b1-d2b0c8a3caa6" d="M233.69,554.1a20,20,0,0,0-30.8-24.61,36,36,0,0,0-71.71,4.67,36.87,36.87,0,0,0,.63,6.62,29.73,29.73,0,0,0-6.23-.67,30.35,30.35,0,1,0,0,60.69H229.22a23.56,23.56,0,0,0,4.47-46.7Z"/><path class="b7771726-3699-4e2d-a2eb-fb8796ae029d" d="M229.22,606H125.58a35.58,35.58,0,1,1,0-71.16H126v-.72a41.24,41.24,0,0,1,80.37-13,25.21,25.21,0,0,1,34.34,29.67A28.8,28.8,0,0,1,229.22,606ZM125.58,545.35a25.11,25.11,0,0,0,0,50.22H229.22a18.33,18.33,0,0,0,3.48-36.33,5.23,5.23,0,0,1-3.56-7.72,14.73,14.73,0,0,0-22.74-18.15,5.23,5.23,0,0,1-8.7-3.2A30.77,30.77,0,1,0,137,539.83a5.24,5.24,0,0,1-6.24,6.07A24.49,24.49,0,0,0,125.58,545.35Z"/><path class="ba75ef14-8bcf-4b31-a0b1-d2b0c8a3caa6" d="M748.53,162.66a14.72,14.72,0,0,0-22.71-18.15,26.54,26.54,0,1,0-52.4,8.33,21.66,21.66,0,0,0-4.59-.5,22.38,22.38,0,1,0,0,44.75h76.4a17.37,17.37,0,0,0,3.3-34.43Z"/><path class="b7771726-3699-4e2d-a2eb-fb8796ae029d" d="M745.23,202.32h-76.4a27.61,27.61,0,0,1-1.1-55.19,31.77,31.77,0,0,1,61.43-10.58,19.95,19.95,0,0,1,26.51,18.86,19.5,19.5,0,0,1-.41,4,22.6,22.6,0,0,1-10,42.87Zm-76.4-44.75a17.15,17.15,0,1,0,0,34.29h76.4a12.14,12.14,0,0,0,2.31-24.06,5.27,5.27,0,0,1-3.76-2.94,5.21,5.21,0,0,1,.2-4.78,9.34,9.34,0,0,0,1.23-4.67,9.48,9.48,0,0,0-15.87-7,5.23,5.23,0,0,1-8.7-3.2,21.31,21.31,0,1,0-42.07,6.69,5.24,5.24,0,0,1-6.24,6.07A17,17,0,0,0,668.83,157.57Z"/><path class="ba75ef14-8bcf-4b31-a0b1-d2b0c8a3caa6" d="M401.77,228.63A19.59,19.59,0,0,1,432,204.48a35.32,35.32,0,0,1,70.35,4.58,35.72,35.72,0,0,1-.62,6.5,29.25,29.25,0,0,1,6.11-.66,29.78,29.78,0,1,1,0,59.55H406.16a23.12,23.12,0,0,1-4.39-45.82Z"/><path class="b7771726-3699-4e2d-a2eb-fb8796ae029d" d="M507.84,279.68H406.16a28.35,28.35,0,0,1-11.34-54.34A25.15,25.15,0,0,1,394,219a24.82,24.82,0,0,1,34.58-22.84,40.56,40.56,0,0,1,79,12.91v.61h.26a35,35,0,1,1,0,70Zm-89-75.06a14.36,14.36,0,0,0-12.51,21.43,5.23,5.23,0,0,1-3.56,7.72,17.89,17.89,0,0,0,3.4,35.45H507.84a24.53,24.53,0,1,0-5-48.54,5.23,5.23,0,0,1-6.24-6.08,30.08,30.08,0,1,0-59.4-9.44,5.23,5.23,0,0,1-8.7,3.2A14.33,14.33,0,0,0,418.83,204.62Z"/><rect class="a92d88e8-75c7-4d73-a110-da341c70bd82" x="424.88" y="885.35" width="230.23" height="73.26"/><path class="e743e3df-3834-4a7e-a325-72d4777aec3e" d="M655.12,963.84H424.88a5.23,5.23,0,0,1-5.23-5.24V885.35a5.23,5.23,0,0,1,5.23-5.23H655.12a5.23,5.23,0,0,1,5.23,5.23V958.6A5.23,5.23,0,0,1,655.12,963.84Zm-225-10.47H649.88V890.58H430.12Z"/><path class="fa88f365-19f5-41d2-8487-89a3f59a9c55" d="M226,812.09H854a0,0,0,0,1,0,0v47.09a26.16,26.16,0,0,1-26.16,26.16H252.21A26.16,26.16,0,0,1,226,859.19V812.09A0,0,0,0,1,226,812.09Z"/><path class="e743e3df-3834-4a7e-a325-72d4777aec3e" d="M827.79,890.58h-68a5.23,5.23,0,1,1,0-10.46h68a21,21,0,0,0,20.93-20.93V817.33H231.28v41.86a21,21,0,0,0,20.93,20.93H728.37a5.23,5.23,0,0,1,0,10.46H252.21a31.43,31.43,0,0,1-31.4-31.39v-47.1a5.23,5.23,0,0,1,5.24-5.23H854a5.23,5.23,0,0,1,5.24,5.23v47.1A31.43,31.43,0,0,1,827.79,890.58Z"/><path class="ba75ef14-8bcf-4b31-a0b1-d2b0c8a3caa6" d="M252.21,424.88H827.79A26.16,26.16,0,0,1,854,451v361a0,0,0,0,1,0,0H226a0,0,0,0,1,0,0V451A26.16,26.16,0,0,1,252.21,424.88Z"/><polygon class="e8de0c68-e9c7-44d6-a06f-d236e376024b" points="806.86 812.09 681.28 812.09 681.28 424.88 770.23 424.88 806.86 812.09"/><path class="e743e3df-3834-4a7e-a325-72d4777aec3e" d="M854,817.33H226.05a5.23,5.23,0,0,1-5.24-5.24V738.84a5.24,5.24,0,1,1,10.47,0v68H848.72V451.05a21,21,0,0,0-20.93-20.93H252.21a21,21,0,0,0-20.93,20.93V707.44a5.24,5.24,0,0,1-10.47,0V451.05a31.43,31.43,0,0,1,31.4-31.4H827.79a31.43,31.43,0,0,1,31.4,31.4v361A5.23,5.23,0,0,1,854,817.33Z"/><path class="e743e3df-3834-4a7e-a325-72d4777aec3e" d="M744.07,963.84H335.93a5.24,5.24,0,0,1,0-10.47H744.07a5.24,5.24,0,0,1,0,10.47Z"/><path class="ba75ef14-8bcf-4b31-a0b1-d2b0c8a3caa6" d="M576.63,859.19H503.37a10.47,10.47,0,0,1,0-20.93h73.26a10.47,10.47,0,0,1,0,20.93Z"/><rect class="f28cf6d1-9578-4c47-bd82-395083ef95f6" x="325.47" y="393.49" width="429.07" height="418.6"/><polygon class="bb4e955c-7152-453c-8fe8-7dad888a1968" points="543.48 812.09 717.91 393.49 603.01 393.49 428.57 812.09 543.48 812.09"/><polygon class="bb4e955c-7152-453c-8fe8-7dad888a1968" points="342.14 812.09 516.58 393.49 473.73 393.49 325.46 749.31 325.46 812.09 342.14 812.09"/><path class="e743e3df-3834-4a7e-a325-72d4777aec3e" d="M754.53,817.33H325.47a5.23,5.23,0,0,1-5.24-5.24V393.49a5.23,5.23,0,0,1,5.24-5.23H754.53a5.23,5.23,0,0,1,5.24,5.23v52.32a5.24,5.24,0,1,1-10.47,0V398.72H330.7V806.86H749.3V602.79a5.24,5.24,0,0,1,10.47,0v209.3A5.23,5.23,0,0,1,754.53,817.33Z"/><rect class="ba75ef14-8bcf-4b31-a0b1-d2b0c8a3caa6" x="325.47" y="330.7" width="429.07" height="62.79"/><path class="e743e3df-3834-4a7e-a325-72d4777aec3e" d="M754.53,398.72H325.47a5.23,5.23,0,0,1-5.24-5.23V330.7a5.23,5.23,0,0,1,5.24-5.23H754.53a5.23,5.23,0,0,1,5.24,5.23v62.79A5.23,5.23,0,0,1,754.53,398.72ZM330.7,388.26H749.3V335.93H330.7Z"/><rect class="ba75ef14-8bcf-4b31-a0b1-d2b0c8a3caa6" x="364.71" y="435.35" width="167.44" height="167.44" rx="10.47"/><path class="ba75ef14-8bcf-4b31-a0b1-d2b0c8a3caa6" d="M521.69,608H375.17a15.71,15.71,0,0,1-15.69-15.69V445.81a15.71,15.71,0,0,1,15.69-15.69H521.69a15.71,15.71,0,0,1,15.69,15.69V592.33A15.71,15.71,0,0,1,521.69,608ZM375.17,440.58a5.24,5.24,0,0,0-5.23,5.23V592.33a5.24,5.24,0,0,0,5.23,5.23H521.69a5.24,5.24,0,0,0,5.23-5.23V445.81a5.24,5.24,0,0,0-5.23-5.23Z"/><path class="ba75ef14-8bcf-4b31-a0b1-d2b0c8a3caa6" d="M715.29,440.58H563.55a5.23,5.23,0,1,1,0-10.46H715.29a5.23,5.23,0,1,1,0,10.46Z"/><path class="ba75ef14-8bcf-4b31-a0b1-d2b0c8a3caa6" d="M715.29,482.44h-68a5.23,5.23,0,1,1,0-10.46h68a5.23,5.23,0,1,1,0,10.46Z"/><path class="ba75ef14-8bcf-4b31-a0b1-d2b0c8a3caa6" d="M615.87,482.44H563.55a5.23,5.23,0,1,1,0-10.46h52.32a5.23,5.23,0,1,1,0,10.46Z"/><path class="ba75ef14-8bcf-4b31-a0b1-d2b0c8a3caa6" d="M663,524.3H563.55a5.23,5.23,0,1,1,0-10.46H663a5.23,5.23,0,0,1,0,10.46Z"/><path class="ba75ef14-8bcf-4b31-a0b1-d2b0c8a3caa6" d="M715.29,566.16H563.55a5.23,5.23,0,1,1,0-10.46H715.29a5.23,5.23,0,1,1,0,10.46Z"/><path class="ba75ef14-8bcf-4b31-a0b1-d2b0c8a3caa6" d="M652.5,608h-89a5.23,5.23,0,1,1,0-10.46h89a5.23,5.23,0,0,1,0,10.46Z"/><path class="ba75ef14-8bcf-4b31-a0b1-d2b0c8a3caa6" d="M715.29,649.88H686a5.23,5.23,0,0,1,0-10.46h29.25a5.23,5.23,0,0,1,0,10.46Z"/><path class="ba75ef14-8bcf-4b31-a0b1-d2b0c8a3caa6" d="M572.63,649.88H495.52a5.23,5.23,0,1,1,0-10.46h77.11a5.23,5.23,0,0,1,0,10.46Z"/><path class="ba75ef14-8bcf-4b31-a0b1-d2b0c8a3caa6" d="M464.13,649.88H364.71a5.23,5.23,0,1,1,0-10.46h99.42a5.23,5.23,0,0,1,0,10.46Z"/><path class="ba75ef14-8bcf-4b31-a0b1-d2b0c8a3caa6" d="M545.23,733.6H469.36a5.23,5.23,0,0,1,0-10.46h75.87a5.23,5.23,0,1,1,0,10.46Z"/><path class="ba75ef14-8bcf-4b31-a0b1-d2b0c8a3caa6" d="M438,733.6H364.71a5.23,5.23,0,1,1,0-10.46H438a5.23,5.23,0,0,1,0,10.46Z"/><path class="ba75ef14-8bcf-4b31-a0b1-d2b0c8a3caa6" d="M715.29,691.74H644.18a5.23,5.23,0,1,1,0-10.46h71.11a5.23,5.23,0,0,1,0,10.46Z"/><path class="ba75ef14-8bcf-4b31-a0b1-d2b0c8a3caa6" d="M559.19,691.74H364.71a5.23,5.23,0,1,1,0-10.46H559.19a5.23,5.23,0,0,1,0,10.46Z"/><path class="a92d88e8-75c7-4d73-a110-da341c70bd82" d="M482.13,580.19a10.79,10.79,0,0,1-5.1-1.27L448.65,564l-28.81,14.91A10.94,10.94,0,0,1,404,567.38l5.41-31.59L386.28,513a10.95,10.95,0,0,1,6.07-18.67l31.72-4.61,14.55-29a10.94,10.94,0,0,1,19.62,0l14.19,28.75,32.08,4.87A10.95,10.95,0,0,1,510.58,513l-22.95,22.37,5.27,32a11,11,0,0,1-10.77,12.8Zm-33.7-115.11-14.62,29a10.9,10.9,0,0,1-8.23,6l-31.73,4.61-.26.82,23,22.37a11,11,0,0,1,3.15,9.68l-5.42,31.6,3.13,5.13L415,569.66l28.37-14.91a10.91,10.91,0,0,1,10.18,0l28.38,14.91.69-.5-5.42-31.6a11,11,0,0,1,3.16-9.69l22.94-22.36-.26-.82-31.72-4.61a10.92,10.92,0,0,1-8.25-6l-14.18-28.74h0A.43.43,0,0,0,448.43,465.08Z"/><circle class="b7771726-3699-4e2d-a2eb-fb8796ae029d" cx="356.86" cy="362.09" r="7.85"/><circle class="b7771726-3699-4e2d-a2eb-fb8796ae029d" cx="388.26" cy="362.09" r="7.85"/><circle class="b7771726-3699-4e2d-a2eb-fb8796ae029d" cx="419.65" cy="362.09" r="7.85"/><path class="a92d88e8-75c7-4d73-a110-da341c70bd82" d="M802.13,505.72l-34.24-34.24a16.15,16.15,0,0,0-22.84,0L727.91,488.6,785,545.68l17.12-17.12A16.15,16.15,0,0,0,802.13,505.72Z"/><path class="e743e3df-3834-4a7e-a325-72d4777aec3e" d="M785,550.92a5.23,5.23,0,0,1-3.7-1.53l-57.1-57.09a5.24,5.24,0,0,1,0-7.4l17.14-17.12a21.37,21.37,0,0,1,30.24,0L805.83,502a21.39,21.39,0,0,1,0,30.24L788.7,549.39A5.21,5.21,0,0,1,785,550.92Zm-49.7-62.32L785,538.29l13.42-13.43a10.91,10.91,0,0,0,0-15.44l-34.24-34.24a11.17,11.17,0,0,0-15.44,0Z"/><polygon class="e33be9c2-603f-4a51-b0a2-b3a56d2a1a38" points="573.78 642.74 545.23 728.37 630.86 699.83 573.78 642.74"/><path class="e743e3df-3834-4a7e-a325-72d4777aec3e" d="M545.23,733.6a5.22,5.22,0,0,1-5-6.88l28.54-85.64a5.23,5.23,0,0,1,8.67-2l57.08,57.09a5.22,5.22,0,0,1-2,8.66l-85.63,28.54A5,5,0,0,1,545.23,733.6Zm30.83-81.18L553.51,720.1l67.67-22.56Z"/><rect class="ba75ef14-8bcf-4b31-a0b1-d2b0c8a3caa6" x="570.4" y="553.84" width="217.98" height="80.74" transform="translate(-221.18 654.44) rotate(-45)"/><rect class="b7771726-3699-4e2d-a2eb-fb8796ae029d" x="559.93" y="578.51" width="218" height="10.46" transform="translate(-216.85 643.98) rotate(-45)"/><rect class="b7771726-3699-4e2d-a2eb-fb8796ae029d" x="580.86" y="599.44" width="218" height="10.46" transform="translate(-225.52 664.91) rotate(-45)"/><path class="e743e3df-3834-4a7e-a325-72d4777aec3e" d="M630.87,705.06a5.23,5.23,0,0,1-3.7-1.54l-57.09-57.09a5.2,5.2,0,0,1,0-7.39L724.21,484.9a5.24,5.24,0,0,1,7.4,0L788.7,542a5.21,5.21,0,0,1,0,7.4L634.57,703.52A5.23,5.23,0,0,1,630.87,705.06Zm-49.69-62.33,49.69,49.69L777.61,545.69,727.91,496Z"/></svg>