<?xml version="1.0" encoding="UTF-8"?>
<svg id="Capa_1" data-name="Capa 1" xmlns="http://www.w3.org/2000/svg" viewBox="0 0 1080 1080">
  <defs>
    <style>
      .cls-1 {
        fill: #fff;
      }

      .cls-2 {
        fill: #e4e4e4;
      }

      .cls-3 {
        fill: #9799a4;
      }

      .cls-4 {
        fill: #9c9aaa;
      }

      .cls-5 {
        fill: #65b3f0;
      }

      .cls-6 {
        fill: #33284d;
      }

      .cls-7 {
        fill: #2d3041;
      }

      .cls-8 {
        fill: #545869;
      }

      .cls-9 {
        fill: #76c6ef;
      }
    </style>
  </defs>
  <path class="cls-2" d="m992.57,546.04c-2.63,75.52-106.27,120.75-143.61,180.49-38.51,61.64-34.88,174.39-98.93,208.59-62.08,33.15-152.53-31.86-227.89-34.5-75.36-2.63-170.12,55.89-229.74,18.48-61.51-38.59-50.03-150.81-84.16-214.99-33.08-62.21-133.32-114.58-130.69-190.09,2.63-75.52,106.27-120.75,143.61-180.49,38.51-61.64,34.88-174.39,98.92-208.59,62.08-33.15,152.53,31.86,227.89,34.5,75.36,2.63,170.12-55.89,229.74-18.48,61.51,38.59,50.03,150.81,84.16,214.99,33.08,62.21,133.32,114.58,130.69,190.09Z"/>
  <path class="cls-5" d="m884.68,530.02c0,193.24-156.38,349.89-349.62,349.89s-348.94-156.65-348.94-349.89,155.7-349.89,348.94-349.89,349.62,156.65,349.62,349.89Z"/>
  <path class="cls-9" d="m450.54,445.5c136.54-136.54,284.93-209.55,331.61-163.2-63.29-63.13-150.62-102.17-247.08-102.17-193.24,0-348.94,156.65-348.94,349.89,0,96.46,38.08,183.79,101.21,247.08-46.35-46.68,26.66-195.07,163.2-331.61Z"/>
  <path class="cls-2" d="m285.84,775.36c15.77,15.98,32.99,30.44,51.46,43.1,13.53-20.02,34.48-39.85,62.56-33.33,69.5,16.12,82.47-136.25,9.49-131.88-59.49,3.56-12.69-59.51-73.03-41.45-7.13,2.13-13.78,3.2-19.95,3.47-41.71,71.91-55.3,132.2-30.52,160.08Z"/>
  <path class="cls-1" d="m303.79,541.58c18.67-5.14,68.24-19.71,80.49-72.61,12.98-56.02-61.77-72.49-46.76-107.62,16.44-38.47,149.9,12.32,149.9-48.38,0-33.38-39.65-24.07-66.37-30.69-33.12-8.21-47.5-34.77-52.46-59.9-97.97,53-165.58,150.55-180.31,261.58-.25,1.93-.52,3.86-.74,5.81-.34,2.95-.64,5.91-.9,8.88-.22,2.44-.39,4.89-.56,7.35-.19,2.76-.39,5.51-.52,8.29-.13,2.95-.17,5.92-.23,8.9-.1,5.21-.09,10.43.05,15.69.04,1.55.06,3.1.12,4.65.16,3.98.38,7.98.68,11.99.05.65.1,1.3.15,1.95.72,9.03,1.77,18.1,3.21,27.19,4.88,30.86,13.65,60.12,25.75,87.38.03.07.06.14.09.21,2.31,5.19,4.75,10.31,7.29,15.35.25.49.5.97.75,1.46,2.38,4.66,4.86,9.26,7.44,13.78.39.69.79,1.38,1.19,2.07,2.51,4.35,5.12,8.64,7.81,12.86.46.73.92,1.46,1.39,2.18,2.75,4.24,5.58,8.42,8.5,12.52.42.58.83,1.17,1.24,1.75,3.12,4.32,6.32,8.57,9.62,12.73.23.29.45.57.67.86,7.7,9.65,15.91,18.84,24.54,27.58-24.77-27.88-11.19-88.17,30.52-160.08-53.23,2.36-68.76-58.22-12.58-73.7Z"/>
  <path class="cls-2" d="m880.63,475.48c-10.48-66.33-38.98-125.31-79.69-172.81-6.94,7.2-14.1,15.71-21.41,25.77-16.62,22.85-51.25,23.97-70.13-13.38-7.26-14.37-17.68-25.41-29.68-32.79-34.49,13.31-74.18,35.79-115.76,65.85-6.84,31.11,2.47,66.08,55.49,69.96,68.79,5.03,33.3,73.63-8.31,58.32-41.61-15.33-62.56-30.56-97-3.22-34.46,27.36-28.49,73.92,12.73,80.58,29.29,4.75,44.35,45.98,32.89,58.87-16.27,14.38-39.21,71.9-8.56,105.85,30.64,33.93,53.81,10.02,62.48-9.86,8.67-19.9,9.03-33.08,24.73-59.55,11.72-19.76,52.41-28.49,52.41-28.49,0,0,33.47-12.03,10.21-74.08-23.3-62.05,57.66-51.76,75.53-9.89,14.89,34.96-20.51,92.46,42.09,82.33,28.05-4.55,38.85,9.6,49.13,19.18,16.57-50.84,21.76-106.2,12.84-162.63Z"/>
  <path class="cls-2" d="m728.87,706.61c2.15,15.02-16.6,7.8-33.02,23.4-16.24,15.42-20.62,24.58-40.22,14.77-17.5-8.75,13.3-50,27.6-55.07,14.3-5.06,42.59-4.45,45.65,16.9Z"/>
  <path class="cls-1" d="m565.33,342.61c-.52,1.82-.96,3.66-1.37,5.51,41.58-30.06,81.27-52.55,115.76-65.85-38.92-23.96-94.62-8.9-114.39,60.34Z"/>
  <path class="cls-7" d="m879.58,596.87c-.31,0-.63-.03-.94-.08-2.93-.52-4.88-3.31-4.36-6.24,3.52-19.84,5.3-40.2,5.3-60.52,0-189.97-154.55-344.51-344.51-344.51-35.03,0-69.57,5.24-102.67,15.56-2.84.87-5.86-.7-6.74-3.54-.89-2.84.7-5.86,3.54-6.74,34.14-10.65,69.76-16.04,105.88-16.04,195.9,0,355.28,159.38,355.28,355.28,0,20.94-1.84,41.94-5.46,62.4-.46,2.61-2.73,4.44-5.3,4.44Z"/>
  <path class="cls-7" d="m208.59,409.27c-.65,0-1.3-.12-1.94-.36-2.77-1.07-4.15-4.19-3.08-6.96,34.11-88.22,103.48-160.41,190.32-198.06,2.73-1.17,5.9.07,7.08,2.8,1.18,2.73-.07,5.9-2.8,7.08-84.22,36.5-151.49,106.51-184.56,192.05-.83,2.13-2.86,3.44-5.02,3.44Z"/>
  <path class="cls-7" d="m535.06,885.3c-195.9,0-355.28-159.38-355.28-355.28,0-33.04,4.53-65.77,13.48-97.26.81-2.85,3.78-4.53,6.65-3.71,2.86.81,4.52,3.79,3.71,6.65-8.67,30.54-13.07,62.27-13.07,94.32,0,189.97,154.55,344.51,344.51,344.51,149.82,0,281.53-95.66,327.75-238.05.92-2.82,3.95-4.38,6.78-3.46,2.83.92,4.38,3.95,3.46,6.78-47.66,146.83-183.49,245.49-337.99,245.49Z"/>
  <circle class="cls-1" cx="766.53" cy="320.09" r="64.6"/>
  <path class="cls-5" d="m798.08,341.65l-31.55-3.94-31.55,3.94c-8.82,1.1-15.43,8.6-15.43,17.48v5.2c11.78,12.51,28.44,20.35,46.98,20.35s35.2-7.85,46.98-20.35v-5.2c0-8.88-6.62-16.38-15.43-17.48Z"/>
  <path class="cls-7" d="m766.53,390.07c-38.59,0-69.98-31.39-69.98-69.98s31.39-69.98,69.98-69.98,69.98,31.39,69.98,69.98-31.39,69.98-69.98,69.98Zm0-129.19c-32.65,0-59.21,26.56-59.21,59.21s26.56,59.21,59.21,59.21,59.21-26.56,59.21-59.21-26.56-59.21-59.21-59.21Z"/>
  <path class="cls-2" d="m790.02,308.34c0,16.22-10.52,29.36-23.49,29.36s-23.49-13.14-23.49-29.36,10.52-23.49,23.49-23.49,23.49,7.28,23.49,23.49Z"/>
  <path class="cls-7" d="m766.53,343.09c-15.92,0-28.87-15.59-28.87-34.74,0-17.54,11.33-28.88,28.87-28.88s28.87,11.33,28.87,28.88c0,19.16-12.95,34.74-28.87,34.74Zm0-52.85c-6.76,0-18.11,2.36-18.11,18.11,0,13.22,8.12,23.98,18.11,23.98s18.11-10.76,18.11-23.98c0-15.75-11.34-18.11-18.11-18.11Z"/>
  <path class="cls-7" d="m766.53,390.07c-19.43,0-37.51-7.83-50.9-22.05-.94-1-1.46-2.32-1.46-3.69v-5.2c0-11.58,8.66-21.38,20.15-22.82l31.55-3.94c.44-.05.89-.05,1.33,0l31.55,3.94h0c11.49,1.44,20.15,11.25,20.15,22.82v5.2c0,1.37-.52,2.69-1.46,3.69-13.39,14.22-31.47,22.05-50.9,22.05Zm-41.6-27.92c11.17,11.08,25.86,17.16,41.6,17.16s30.42-6.08,41.6-17.16v-3.01c0-6.16-4.61-11.38-10.72-12.14l-30.88-3.86-30.88,3.86c-6.11.77-10.72,5.99-10.72,12.14v3.01Z"/>
  <circle class="cls-1" cx="352.04" cy="250.11" r="64.6"/>
  <path class="cls-5" d="m383.59,271.67l-31.55-3.94-31.55,3.94c-8.82,1.1-15.43,8.6-15.43,17.48v5.2c11.78,12.51,28.44,20.35,46.98,20.35s35.2-7.85,46.98-20.35v-5.2c0-8.88-6.62-16.38-15.43-17.48Z"/>
  <path class="cls-6" d="m352.04,320.09c-38.59,0-69.98-31.39-69.98-69.98s31.39-69.98,69.98-69.98,69.98,31.39,69.98,69.98-31.39,69.98-69.98,69.98Zm0-129.19c-32.65,0-59.21,26.56-59.21,59.21s26.56,59.21,59.21,59.21,59.21-26.56,59.21-59.21-26.56-59.21-59.21-59.21Z"/>
  <path class="cls-2" d="m375.53,238.36c0,16.22-10.52,29.36-23.49,29.36s-23.49-13.14-23.49-29.36,10.52-23.49,23.49-23.49,23.49,7.28,23.49,23.49Z"/>
  <path class="cls-7" d="m352.04,273.11c-15.92,0-28.87-15.59-28.87-34.74,0-17.54,11.33-28.88,28.87-28.88s28.87,11.33,28.87,28.88c0,19.16-12.95,34.74-28.87,34.74Zm0-52.85c-6.76,0-18.11,2.36-18.11,18.11,0,13.22,8.12,23.98,18.11,23.98s18.11-10.76,18.11-23.98c0-15.75-11.34-18.11-18.11-18.11Z"/>
  <path class="cls-7" d="m352.04,320.09c-19.43,0-37.51-7.83-50.9-22.05-.94-1-1.46-2.32-1.46-3.69v-5.2c0-11.58,8.66-21.38,20.15-22.82l31.55-3.94c.44-.05.89-.05,1.33,0l31.55,3.94h0c11.49,1.44,20.15,11.25,20.15,22.82v5.2c0,1.37-.52,2.69-1.46,3.69-13.39,14.22-31.47,22.05-50.9,22.05Zm-41.6-27.92c11.17,11.08,25.86,17.16,41.6,17.16s30.42-6.08,41.6-17.16v-3.01c0-6.16-4.61-11.38-10.72-12.14l-30.88-3.86-30.88,3.86c-6.11.77-10.72,5.99-10.72,12.14v3.01Z"/>
  <circle class="cls-1" cx="400.49" cy="454.66" r="64.6"/>
  <path class="cls-3" d="m432.03,476.22l-31.55-3.94-31.55,3.94c-8.82,1.1-15.43,8.6-15.43,17.48v5.2c11.78,12.51,28.44,20.35,46.98,20.35s35.2-7.85,46.98-20.35v-5.2c0-8.88-6.62-16.38-15.43-17.48Z"/>
  <path class="cls-6" d="m400.49,524.64c-38.59,0-69.98-31.39-69.98-69.98s31.39-69.98,69.98-69.98,69.98,31.39,69.98,69.98-31.39,69.98-69.98,69.98Zm0-129.19c-32.65,0-59.21,26.56-59.21,59.21s26.56,59.21,59.21,59.21,59.21-26.56,59.21-59.21-26.56-59.21-59.21-59.21Z"/>
  <path class="cls-2" d="m423.98,442.92c0,16.22-10.52,29.36-23.49,29.36s-23.49-13.14-23.49-29.36,10.52-23.49,23.49-23.49,23.49,7.28,23.49,23.49Z"/>
  <path class="cls-6" d="m400.49,477.66c-15.92,0-28.87-15.59-28.87-34.74,0-17.54,11.33-28.88,28.87-28.88s28.87,11.33,28.87,28.88c0,19.16-12.95,34.74-28.87,34.74Zm0-52.85c-6.76,0-18.11,2.36-18.11,18.11,0,13.22,8.12,23.98,18.11,23.98s18.11-10.76,18.11-23.98c0-15.75-11.34-18.11-18.11-18.11Z"/>
  <path class="cls-6" d="m400.49,524.64c-19.43,0-37.51-7.83-50.9-22.05-.94-1-1.46-2.32-1.46-3.69v-5.2c0-11.58,8.66-21.38,20.15-22.82l31.55-3.94c.44-.05.89-.05,1.33,0l31.55,3.94h0c11.49,1.44,20.15,11.25,20.15,22.82v5.2c0,1.37-.52,2.69-1.46,3.69-13.39,14.22-31.47,22.05-50.9,22.05Zm-41.6-27.92c11.17,11.08,25.86,17.16,41.6,17.16s30.42-6.08,41.6-17.16v-3.01c0-6.16-4.61-11.38-10.72-12.14l-30.88-3.86-30.88,3.86c-6.11.77-10.72,5.99-10.72,12.14v3.01Z"/>
  <circle class="cls-1" cx="330.51" cy="804.56" r="64.6"/>
  <path class="cls-8" d="m362.05,826.11l-31.55-3.94-31.55,3.94c-8.82,1.1-15.43,8.6-15.43,17.48v5.2c11.78,12.51,28.44,20.35,46.98,20.35s35.2-7.85,46.98-20.35v-5.2c0-8.88-6.62-16.38-15.43-17.48Z"/>
  <path class="cls-6" d="m330.51,874.54c-38.59,0-69.98-31.39-69.98-69.98s31.39-69.98,69.98-69.98,69.98,31.39,69.98,69.98-31.39,69.98-69.98,69.98Zm0-129.19c-32.65,0-59.21,26.56-59.21,59.21s26.56,59.21,59.21,59.21,59.21-26.56,59.21-59.21-26.56-59.21-59.21-59.21Z"/>
  <path class="cls-2" d="m354,792.81c0,16.22-10.52,29.36-23.49,29.36s-23.49-13.14-23.49-29.36,10.52-23.49,23.49-23.49,23.49,7.28,23.49,23.49Z"/>
  <path class="cls-6" d="m330.51,827.56c-15.92,0-28.87-15.59-28.87-34.74,0-17.54,11.33-28.88,28.87-28.88s28.87,11.33,28.87,28.88c0,19.16-12.95,34.74-28.87,34.74Zm0-52.85c-6.76,0-18.11,2.36-18.11,18.11,0,13.22,8.12,23.98,18.11,23.98s18.11-10.76,18.11-23.98c0-15.75-11.34-18.11-18.11-18.11Z"/>
  <path class="cls-6" d="m330.51,874.54c-19.43,0-37.51-7.83-50.9-22.05-.94-1-1.46-2.32-1.46-3.69v-5.2c0-11.58,8.66-21.38,20.15-22.82l31.55-3.94c.44-.05.89-.05,1.33,0l31.55,3.94h0c11.49,1.44,20.15,11.25,20.15,22.82v5.2c0,1.37-.52,2.69-1.46,3.69-13.39,14.22-31.47,22.05-50.9,22.05Zm-41.6-27.92c11.17,11.08,25.86,17.16,41.6,17.16s30.42-6.08,41.6-17.16v-3.01c0-6.16-4.61-11.38-10.72-12.14l-30.88-3.86-30.88,3.86c-6.11.77-10.72,5.99-10.72,12.14v3.01Z"/>
  <circle class="cls-1" cx="540.45" cy="605.39" r="64.6"/>
  <path class="cls-8" d="m571.99,626.94l-31.55-3.94-31.55,3.94c-8.82,1.1-15.43,8.6-15.43,17.48v5.2c11.78,12.51,28.44,20.35,46.98,20.35s35.2-7.85,46.98-20.35v-5.2c0-8.88-6.62-16.38-15.43-17.48Z"/>
  <path class="cls-7" d="m540.45,675.36c-38.59,0-69.98-31.39-69.98-69.98s31.39-69.98,69.98-69.98,69.98,31.39,69.98,69.98-31.39,69.98-69.98,69.98Zm0-129.19c-32.65,0-59.21,26.56-59.21,59.21s26.56,59.21,59.21,59.21,59.21-26.56,59.21-59.21-26.56-59.21-59.21-59.21Z"/>
  <path class="cls-2" d="m563.94,593.64c0,16.22-10.52,29.36-23.49,29.36s-23.49-13.14-23.49-29.36,10.52-23.49,23.49-23.49,23.49,7.28,23.49,23.49Z"/>
  <path class="cls-7" d="m540.45,628.38c-15.92,0-28.87-15.59-28.87-34.74,0-17.54,11.33-28.88,28.87-28.88s28.87,11.33,28.87,28.88c0,19.16-12.95,34.74-28.87,34.74Zm0-52.85c-6.76,0-18.11,2.36-18.11,18.11,0,13.22,8.12,23.98,18.11,23.98s18.11-10.76,18.11-23.98c0-15.75-11.34-18.11-18.11-18.11Z"/>
  <path class="cls-7" d="m540.45,675.36c-19.43,0-37.51-7.83-50.9-22.05-.94-1-1.46-2.32-1.46-3.69v-5.2c0-11.58,8.66-21.38,20.15-22.82l31.55-3.94c.44-.05.89-.05,1.33,0l31.55,3.94h0c11.49,1.44,20.15,11.25,20.15,22.82v5.2c0,1.37-.52,2.69-1.46,3.69-13.39,14.22-31.47,22.05-50.9,22.05Zm-41.6-27.92c11.17,11.08,25.86,17.16,41.6,17.16s30.42-6.08,41.6-17.16v-3.01c0-6.16-4.61-11.38-10.72-12.14l-30.88-3.86-30.88,3.86c-6.11.77-10.72,5.99-10.72,12.14v3.01Z"/>
  <circle class="cls-1" cx="814.98" cy="659.22" r="64.6"/>
  <path class="cls-3" d="m846.52,680.77l-31.55-3.94-31.55,3.94c-8.82,1.1-15.43,8.6-15.43,17.48v5.2c11.78,12.51,28.44,20.35,46.98,20.35s35.2-7.85,46.98-20.35v-5.2c0-8.88-6.62-16.38-15.43-17.48Z"/>
  <path class="cls-6" d="m814.98,729.19c-38.59,0-69.98-31.39-69.98-69.98s31.39-69.98,69.98-69.98,69.98,31.39,69.98,69.98-31.39,69.98-69.98,69.98Zm0-129.19c-32.65,0-59.21,26.56-59.21,59.21s26.56,59.21,59.21,59.21,59.21-26.56,59.21-59.21-26.56-59.21-59.21-59.21Z"/>
  <path class="cls-2" d="m838.47,647.47c0,16.22-10.52,29.36-23.49,29.36s-23.49-13.14-23.49-29.36,10.52-23.49,23.49-23.49,23.49,7.28,23.49,23.49Z"/>
  <path class="cls-6" d="m814.98,682.21c-15.92,0-28.87-15.59-28.87-34.74,0-17.54,11.33-28.88,28.87-28.88s28.87,11.33,28.87,28.88c0,19.16-12.95,34.74-28.87,34.74Zm0-52.85c-6.76,0-18.11,2.36-18.11,18.11,0,13.22,8.12,23.98,18.11,23.98s18.11-10.76,18.11-23.98c0-15.75-11.34-18.11-18.11-18.11Z"/>
  <path class="cls-6" d="m814.98,729.19c-19.43,0-37.51-7.83-50.9-22.05-.94-1-1.46-2.32-1.46-3.69v-5.2c0-11.58,8.66-21.38,20.15-22.82l31.55-3.94c.44-.05.89-.05,1.33,0l31.55,3.94h0c11.49,1.44,20.15,11.25,20.15,22.82v5.2c0,1.37-.52,2.69-1.46,3.69-13.39,14.22-31.47,22.05-50.9,22.05Zm-41.6-27.92c11.17,11.08,25.86,17.16,41.6,17.16s30.42-6.08,41.6-17.16v-3.01c0-6.16-4.61-11.38-10.72-12.14l-30.88-3.86-30.88,3.86c-6.11.77-10.72,5.99-10.72,12.14v3.01Z"/>
  <path class="cls-1" d="m532.19,825.08c-26.07,0-54.23-2.51-84.47-8.4-2.92-.57-4.82-3.4-4.26-6.31.57-2.92,3.39-4.84,6.31-4.25,199.77,38.89,306.28-73.11,307.33-74.24,2.02-2.19,5.42-2.32,7.61-.29,2.18,2.01,2.32,5.41.3,7.6-.93,1-81.36,85.9-232.83,85.9Z"/>
  <polygon class="cls-1" points="459.46 791.39 418.59 804.56 450.43 833.37 459.46 791.39"/>
  <path class="cls-8" d="m279.95,696.72c-1.91,0-3.76-1.01-4.73-2.81-109.98-202.04,19.93-356.79,21.26-358.33,1.94-2.24,5.34-2.5,7.59-.57,2.25,1.93,2.51,5.34.57,7.59-1.27,1.48-126.3,150.81-19.96,346.15,1.42,2.61.46,5.88-2.16,7.3-.82.45-1.7.66-2.57.66Z"/>
  <polygon class="cls-8" points="258.48 696.53 295.69 717.97 295.66 675.03 258.48 696.53"/>
  <path class="cls-1" d="m652.62,247.96c-.77,0-1.55-.16-2.3-.52-101.95-48.16-205.1-9.31-206.13-8.91-2.76,1.08-5.89-.31-6.96-3.08-1.07-2.78.3-5.89,3.07-6.97,4.37-1.7,108.37-40.97,214.62,9.21,2.69,1.27,3.84,4.48,2.57,7.16-.92,1.94-2.85,3.09-4.87,3.09Z"/>
  <polygon class="cls-1" points="636.81 259.1 679.72 257.49 656.87 221.13 636.81 259.1"/>
  <path class="cls-7" d="m729.73,716.02c-20.61,0-60.55-3.29-104.25-24.45-2.68-1.3-3.79-4.52-2.5-7.19,1.29-2.68,4.52-3.78,7.19-2.5,59.1,28.62,112.35,22.85,112.89,22.79,2.96-.35,5.62,1.77,5.97,4.72.35,2.95-1.76,5.63-4.71,5.97-.68.08-5.93.66-14.6.66Z"/>
  <polygon class="cls-7" points="643.89 670.61 600.96 671.46 623.16 708.21 643.89 670.61"/>
  <path class="cls-7" d="m508.5,402.87c-1.78,0-3.52-.88-4.55-2.5-1.59-2.51-.85-5.83,1.66-7.43,85.47-54.27,162.78-64.82,166.02-65.24,2.93-.41,5.65,1.69,6.03,4.64.39,2.94-1.69,5.65-4.64,6.03-.77.1-78.3,10.73-161.64,63.66-.9.57-1.9.84-2.88.84Z"/>
  <polygon class="cls-7" points="501.86 376.38 482.97 414.94 525.81 412.02 501.86 376.38"/>
  <path class="cls-8" d="m621.85,558.42c-1.76,0-3.49-.86-4.52-2.44-1.62-2.49-.92-5.82,1.57-7.45.55-.36,55.2-36.66,98.52-119.26,1.38-2.63,4.63-3.64,7.27-2.27,2.63,1.38,3.65,4.64,2.27,7.27-44.71,85.26-99.85,121.76-102.18,123.27-.9.59-1.92.87-2.93.87Z"/>
  <polygon class="cls-8" points="738.49 446.73 735.54 403.9 699.92 427.86 738.49 446.73"/>
  <path class="cls-4" d="m416.64,928.37c-1.38,0-2.75-.53-3.81-1.58l-16.15-16.15c-2.1-2.1-2.1-5.51,0-7.61,2.1-2.1,5.51-2.1,7.61,0l16.15,16.15c2.1,2.1,2.1,5.51,0,7.61-1.05,1.05-2.43,1.58-3.81,1.58Z"/>
  <path class="cls-4" d="m454.32,966.05c-1.38,0-2.75-.53-3.81-1.58l-16.15-16.15c-2.1-2.1-2.1-5.51,0-7.61,2.1-2.1,5.51-2.1,7.61,0l16.15,16.15c2.1,2.1,2.1,5.51,0,7.61-1.05,1.05-2.43,1.58-3.81,1.58Z"/>
  <path class="cls-4" d="m400.49,966.05c-1.38,0-2.75-.53-3.81-1.58-2.1-2.1-2.1-5.51,0-7.61l16.15-16.15c2.1-2.1,5.51-2.1,7.61,0,2.1,2.1,2.1,5.51,0,7.61l-16.15,16.15c-1.05,1.05-2.43,1.58-3.81,1.58Z"/>
  <path class="cls-4" d="m438.17,928.37c-1.38,0-2.75-.53-3.81-1.58-2.1-2.1-2.1-5.51,0-7.61l16.15-16.15c2.1-2.1,5.51-2.1,7.61,0,2.1,2.1,2.1,5.51,0,7.61l-16.15,16.15c-1.05,1.05-2.43,1.58-3.81,1.58Z"/>
  <path class="cls-4" d="m954.94,739.96c-1.38,0-2.75-.53-3.81-1.58l-16.15-16.15c-2.1-2.1-2.1-5.51,0-7.61,2.1-2.1,5.51-2.1,7.61,0l16.15,16.15c2.1,2.1,2.1,5.51,0,7.61-1.05,1.05-2.43,1.58-3.81,1.58Z"/>
  <path class="cls-4" d="m992.62,777.64c-1.38,0-2.75-.53-3.81-1.58l-16.15-16.15c-2.1-2.1-2.1-5.51,0-7.61,2.1-2.1,5.51-2.1,7.61,0l16.15,16.15c2.1,2.1,2.1,5.51,0,7.61-1.05,1.05-2.43,1.58-3.81,1.58Z"/>
  <path class="cls-4" d="m938.79,777.64c-1.38,0-2.75-.53-3.81-1.58-2.1-2.1-2.1-5.51,0-7.61l16.15-16.15c2.1-2.1,5.51-2.1,7.61,0,2.1,2.1,2.1,5.51,0,7.61l-16.15,16.15c-1.05,1.05-2.43,1.58-3.81,1.58Z"/>
  <path class="cls-4" d="m976.47,739.96c-1.38,0-2.75-.53-3.81-1.58-2.1-2.1-2.1-5.51,0-7.61l16.15-16.15c2.1-2.1,5.51-2.1,7.61,0,2.1,2.1,2.1,5.51,0,7.61l-16.15,16.15c-1.05,1.05-2.43,1.58-3.81,1.58Z"/>
  <path class="cls-4" d="m858.04,207.04c-1.38,0-2.75-.53-3.81-1.58l-16.15-16.15c-2.1-2.1-2.1-5.51,0-7.61,2.1-2.1,5.51-2.1,7.61,0l16.15,16.15c2.1,2.1,2.1,5.51,0,7.61-1.05,1.05-2.43,1.58-3.81,1.58Z"/>
  <path class="cls-4" d="m895.72,244.72c-1.38,0-2.75-.53-3.81-1.58l-16.15-16.15c-2.1-2.1-2.1-5.51,0-7.61,2.1-2.1,5.51-2.1,7.61,0l16.15,16.15c2.1,2.1,2.1,5.51,0,7.61-1.05,1.05-2.43,1.58-3.81,1.58Z"/>
  <path class="cls-4" d="m841.89,244.72c-1.38,0-2.75-.53-3.81-1.58-2.1-2.1-2.1-5.51,0-7.61l16.15-16.15c2.1-2.1,5.51-2.1,7.61,0,2.1,2.1,2.1,5.51,0,7.61l-16.15,16.15c-1.05,1.05-2.43,1.58-3.81,1.58Z"/>
  <path class="cls-4" d="m879.57,207.04c-1.38,0-2.75-.53-3.81-1.58-2.1-2.1-2.1-5.51,0-7.61l16.15-16.15c2.1-2.1,5.51-2.1,7.61,0,2.1,2.1,2.1,5.51,0,7.61l-16.15,16.15c-1.05,1.05-2.43,1.58-3.81,1.58Z"/>
  <path class="cls-4" d="m416.64,120.92c-1.38,0-2.75-.53-3.81-1.58l-16.15-16.15c-2.1-2.1-2.1-5.51,0-7.61,2.1-2.1,5.51-2.1,7.61,0l16.15,16.15c2.1,2.1,2.1,5.51,0,7.61-1.05,1.05-2.43,1.58-3.81,1.58Z"/>
  <path class="cls-4" d="m454.32,158.6c-1.38,0-2.75-.53-3.81-1.58l-16.15-16.15c-2.1-2.1-2.1-5.51,0-7.61,2.1-2.1,5.51-2.1,7.61,0l16.15,16.15c2.1,2.1,2.1,5.51,0,7.61-1.05,1.05-2.43,1.58-3.81,1.58Z"/>
  <path class="cls-4" d="m400.49,158.6c-1.38,0-2.75-.53-3.81-1.58-2.1-2.1-2.1-5.51,0-7.61l16.15-16.15c2.1-2.1,5.51-2.1,7.61,0,2.1,2.1,2.1,5.51,0,7.61l-16.15,16.15c-1.05,1.05-2.43,1.58-3.81,1.58Z"/>
  <path class="cls-4" d="m438.17,120.92c-1.38,0-2.75-.53-3.81-1.58-2.1-2.1-2.1-5.51,0-7.61l16.15-16.15c2.1-2.1,5.51-2.1,7.61,0,2.1,2.1,2.1,5.51,0,7.61l-16.15,16.15c-1.05,1.05-2.43,1.58-3.81,1.58Z"/>
  <path class="cls-4" d="m93.66,341.62c-1.38,0-2.75-.53-3.81-1.58l-16.15-16.15c-2.1-2.1-2.1-5.51,0-7.61,2.1-2.1,5.51-2.1,7.61,0l16.15,16.15c2.1,2.1,2.1,5.51,0,7.61-1.05,1.05-2.43,1.58-3.81,1.58Z"/>
  <path class="cls-4" d="m131.34,379.3c-1.38,0-2.75-.53-3.81-1.58l-16.15-16.15c-2.1-2.1-2.1-5.51,0-7.61,2.1-2.1,5.51-2.1,7.61,0l16.15,16.15c2.1,2.1,2.1,5.51,0,7.61-1.05,1.05-2.43,1.58-3.81,1.58Z"/>
  <path class="cls-4" d="m77.51,379.3c-1.38,0-2.75-.53-3.81-1.58-2.1-2.1-2.1-5.51,0-7.61l16.15-16.15c2.1-2.1,5.51-2.1,7.61,0,2.1,2.1,2.1,5.51,0,7.61l-16.15,16.15c-1.05,1.05-2.43,1.58-3.81,1.58Z"/>
  <path class="cls-4" d="m115.19,341.62c-1.38,0-2.75-.53-3.81-1.58-2.1-2.1-2.1-5.51,0-7.61l16.15-16.15c2.1-2.1,5.51-2.1,7.61,0,2.1,2.1,2.1,5.51,0,7.61l-16.15,16.15c-1.05,1.05-2.43,1.58-3.81,1.58Z"/>
  <path class="cls-4" d="m147.49,723.81c-1.38,0-2.75-.53-3.81-1.58l-16.15-16.15c-2.1-2.1-2.1-5.51,0-7.61,2.1-2.1,5.51-2.1,7.61,0l16.15,16.15c2.1,2.1,2.1,5.51,0,7.61-1.05,1.05-2.43,1.58-3.81,1.58Z"/>
  <path class="cls-4" d="m185.17,761.49c-1.38,0-2.75-.53-3.81-1.58l-16.15-16.15c-2.1-2.1-2.1-5.51,0-7.61,2.1-2.1,5.51-2.1,7.61,0l16.15,16.15c2.1,2.1,2.1,5.51,0,7.61-1.05,1.05-2.43,1.58-3.81,1.58Z"/>
  <path class="cls-4" d="m131.34,761.49c-1.38,0-2.75-.53-3.81-1.58-2.1-2.1-2.1-5.51,0-7.61l16.15-16.15c2.1-2.1,5.51-2.1,7.61,0,2.1,2.1,2.1,5.51,0,7.61l-16.15,16.15c-1.05,1.05-2.43,1.58-3.81,1.58Z"/>
  <path class="cls-4" d="m169.02,723.81c-1.38,0-2.75-.53-3.81-1.58-2.1-2.1-2.1-5.51,0-7.61l16.15-16.15c2.1-2.1,5.51-2.1,7.61,0,2.1,2.1,2.1,5.51,0,7.61l-16.15,16.15c-1.05,1.05-2.43,1.58-3.81,1.58Z"/>
</svg>