<svg width="71" height="71" viewBox="0 0 71 71" fill="none" xmlns="http://www.w3.org/2000/svg">
<path d="M16.0895 26.94C17.909 23.4771 17.2617 17.4414 20.5609 15.3503C23.7583 13.3215 28.872 16.4457 32.9236 16.2839C36.9752 16.1222 41.8265 12.5994 45.174 14.367C48.6305 16.1899 48.4658 22.257 50.554 25.5637C52.577 28.769 58.1655 31.1752 58.3268 35.2386C58.4881 39.302 53.1097 42.1458 51.3464 45.5028C49.5296 48.9656 50.1741 55.0014 46.875 57.0947C43.6775 59.1236 38.5644 55.9993 34.5122 56.1611C30.46 56.3228 25.6077 59.8461 22.259 58.078C18.8048 56.254 18.9706 50.1863 16.8818 46.8791C14.8577 43.6737 9.2703 41.267 9.10902 37.2042C8.94774 33.1414 14.3261 30.2942 16.0895 26.94Z" fill="#F6F6F6"/>
<path d="M51.3809 54.3906L13.7352 54.3906V29.876C13.7352 29.4936 13.8877 29.1269 14.1591 28.8565C14.4306 28.5861 14.7988 28.4342 15.1827 28.4342L49.9333 28.4342C50.3172 28.4342 50.6854 28.5861 50.9569 28.8565C51.2283 29.1269 51.3809 29.4936 51.3809 29.876V54.3906Z" fill="white"/>
<path d="M51.3835 35.9327C51.4216 35.9327 51.4593 35.9252 51.4944 35.9107C51.5296 35.8962 51.5615 35.8749 51.5884 35.8481C51.6153 35.8212 51.6366 35.7894 51.6511 35.7544C51.6656 35.7193 51.673 35.6818 51.6729 35.6439V29.879C51.6718 29.4205 51.4884 28.9811 51.1629 28.6568C50.8374 28.3325 50.3963 28.1498 49.936 28.1484H26.1888C26.1121 28.1484 26.0385 28.1788 25.9842 28.2329C25.9299 28.2869 25.8994 28.3602 25.8994 28.4367C25.8994 28.5131 25.9299 28.5864 25.9842 28.6405C26.0385 28.6946 26.1121 28.7249 26.1888 28.7249H49.9332C50.2403 28.7254 50.5347 28.8471 50.7518 29.0635C50.9689 29.2798 51.091 29.5731 51.0913 29.879V35.6439C51.0912 35.682 51.0988 35.7198 51.1135 35.755C51.1281 35.7902 51.1497 35.8222 51.1769 35.8491C51.2041 35.8759 51.2363 35.8971 51.2718 35.9115C51.3073 35.9258 51.3452 35.9331 51.3835 35.9327Z" fill="#282C3F"/>
<path d="M52.3875 45.584H46.631C46.5695 45.5842 46.5094 45.5662 46.4582 45.5322C46.4071 45.4983 46.3672 45.45 46.3437 45.3934C46.3201 45.3369 46.314 45.2746 46.326 45.2146C46.338 45.1546 46.3677 45.0995 46.4112 45.0563L47.4441 44.0275C47.5024 43.9695 47.5351 43.8908 47.5351 43.8087C47.5351 43.7266 47.5024 43.6479 47.4441 43.5899L41.5785 37.7478C41.5202 37.6897 41.4412 37.6571 41.3588 37.6571C41.2764 37.6571 41.1974 37.6897 41.1391 37.7478L38.6311 40.2451C38.5729 40.3031 38.4938 40.3358 38.4114 40.3358C38.329 40.3358 38.25 40.3031 38.1917 40.2451L32.6374 34.7153C32.579 34.6576 32.5 34.6251 32.4177 34.6251C32.3354 34.6251 32.2564 34.6576 32.198 34.7153L29.6552 37.2485C29.597 37.3064 29.518 37.3389 29.4358 37.3389C29.3535 37.3389 29.2746 37.3064 29.2163 37.2485L19.302 27.3716C19.2439 27.3136 19.2112 27.2351 19.2109 27.1533V23.0972L29.2135 33.0625C29.2423 33.0913 29.2765 33.114 29.3142 33.1296C29.3518 33.1451 29.3922 33.1531 29.433 33.1531C29.4737 33.1531 29.5141 33.1451 29.5517 33.1296C29.5894 33.114 29.6236 33.0913 29.6524 33.0625L32.1952 30.5299C32.2535 30.4719 32.3325 30.4393 32.4149 30.4393C32.4973 30.4393 32.5764 30.4719 32.6346 30.5299L38.1889 36.0614C38.2472 36.1194 38.3262 36.152 38.4086 36.152C38.491 36.152 38.57 36.1194 38.6283 36.0614L41.1363 33.564C41.1946 33.506 41.2736 33.4734 41.356 33.4734C41.4384 33.4734 41.5174 33.506 41.5757 33.564L49.5441 41.4983C49.6025 41.556 49.6815 41.5884 49.7638 41.5884C49.8461 41.5884 49.9251 41.556 49.9835 41.4983L50.9517 40.5362C50.9903 40.4978 51.0383 40.4701 51.0909 40.4561C51.1436 40.442 51.199 40.4419 51.2517 40.456C51.3043 40.47 51.3524 40.4975 51.391 40.5359C51.4296 40.5742 51.4573 40.622 51.4715 40.6744L52.6876 45.1967C52.6994 45.2424 52.7006 45.2902 52.691 45.3364C52.6815 45.3826 52.6615 45.4261 52.6325 45.4634C52.6036 45.5008 52.5665 45.531 52.524 45.5519C52.4816 45.5729 52.4349 45.5838 52.3875 45.584Z" fill="#EDEDED"/>
<path d="M13.7382 43.4311C13.7762 43.4311 13.8139 43.4237 13.849 43.4093C13.8842 43.3948 13.9161 43.3736 13.943 43.3468C13.9699 43.32 13.9912 43.2882 14.0057 43.2532C14.0202 43.2182 14.0277 43.1807 14.0276 43.1428V29.878C14.0278 29.5721 14.1498 29.2787 14.367 29.0623C14.5841 28.8459 14.8786 28.7242 15.1858 28.7239H21.2666C21.3433 28.7239 21.4169 28.6936 21.4712 28.6395C21.5255 28.5855 21.556 28.5122 21.556 28.4357C21.556 28.3593 21.5255 28.2859 21.4712 28.2319C21.4169 28.1778 21.3433 28.1475 21.2666 28.1475H15.1858C14.7253 28.1486 14.2841 28.3314 13.9585 28.6556C13.6329 28.9799 13.4494 29.4194 13.4482 29.878V43.1428C13.4482 43.1807 13.4557 43.2182 13.4703 43.2533C13.4849 43.2883 13.5063 43.3201 13.5332 43.3468C13.5601 43.3736 13.5921 43.3948 13.6273 43.4093C13.6625 43.4237 13.7002 43.4311 13.7382 43.4311Z" fill="#282C3F"/>
<path d="M13.7382 54.6786H51.3839C51.4219 54.6787 51.4596 54.6713 51.4948 54.6568C51.5299 54.6424 51.5618 54.6211 51.5887 54.5944C51.6156 54.5676 51.6369 54.5358 51.6514 54.5008C51.666 54.4658 51.6734 54.4283 51.6733 54.3904V37.3756C51.6733 37.2992 51.6428 37.2259 51.5886 37.1718C51.5343 37.1178 51.4607 37.0874 51.3839 37.0874C51.3072 37.0874 51.2336 37.1178 51.1793 37.1718C51.125 37.2259 51.0945 37.2992 51.0945 37.3756V54.1021H14.0276V44.8728C14.0243 44.7984 13.9924 44.7282 13.9384 44.6768C13.8844 44.6254 13.8126 44.5967 13.7379 44.5967C13.6632 44.5967 13.5914 44.6254 13.5375 44.6768C13.4835 44.7282 13.4515 44.7984 13.4483 44.8728V54.3876C13.4479 54.4257 13.4551 54.4635 13.4695 54.4989C13.4839 54.5342 13.5052 54.5663 13.5322 54.5934C13.5592 54.6205 13.5913 54.642 13.6266 54.6566C13.662 54.6712 13.6999 54.6787 13.7382 54.6786Z" fill="#282C3F"/>
<path d="M36.9694 54.0547H40.5889V49.2424H36.9694V54.0547Z" fill="#EDEDED"/>
<path d="M34.7311 54.3906H38.3506V48.3162H34.7311V54.3906Z" fill="#EDEDED"/>
<path d="M31.111 54.3906H34.7305V45.1618H31.111V54.3906Z" fill="#EDEDED"/>
<path d="M27.4919 54.3906H31.1113V42.0079H27.4919V54.3906Z" fill="#EDEDED"/>
<path d="M23.8727 54.3906H27.4922V45.1624H23.8727V54.3906Z" fill="#EDEDED"/>
<path d="M20.2526 54.3901H23.8721L23.8721 38.5099H20.2526V54.3901Z" fill="#EDEDED"/>
<path d="M16.6325 54.3901H20.252L20.252 35.356H16.6325L16.6325 54.3901Z" fill="#EDEDED"/>
<path d="M30.5315 56.9866H34.5854C34.739 56.9866 34.8864 56.9258 34.995 56.8176C35.1037 56.7094 35.1647 56.5626 35.1647 56.4096C35.1647 56.2565 35.1037 56.1098 34.995 56.0015C34.8864 55.8933 34.739 55.8325 34.5854 55.8325H30.5315C30.3779 55.8325 30.2305 55.8933 30.1218 56.0015C30.0132 56.1098 29.9521 56.2565 29.9521 56.4096C29.9521 56.5626 30.0132 56.7094 30.1218 56.8176C30.2305 56.9258 30.3779 56.9866 30.5315 56.9866Z" fill="white"/>
<path d="M52.5106 49.0093L45.5132 47.1427L47.0474 45.6147L40.8789 39.4709L37.9956 42.3422L32.1317 36.5023L29.2141 39.4082L19.2109 29.4451V25.3521L29.2141 35.3152L32.1317 32.4092L37.9956 38.2491L40.8789 35.3779L49.1024 43.5679L50.6365 42.0399L52.5106 49.0093Z" fill="#2FC8F2"/>
<path d="M52.5106 49.0093L40.8789 37.4521L37.9956 40.3233L32.1317 34.4835L29.2141 37.3894L19.2109 27.4263V25.3521L29.2141 35.3152L32.1317 32.4092L37.9956 38.2491L40.8789 35.3779L49.1024 43.5679L50.6365 42.0399L52.5106 49.0093Z" fill="#2CAAE6"/>
<path d="M19.211 25.0635C19.1724 25.0631 19.1342 25.0705 19.0986 25.0853C19.0457 25.1071 19.0004 25.144 18.9686 25.1915C18.9368 25.2389 18.9198 25.2947 18.9199 25.3517V29.4448C18.9199 29.4826 18.9274 29.5201 18.9419 29.5551C18.9565 29.5901 18.9778 29.6218 19.0048 29.6485L29.0074 39.6111C29.0617 39.6651 29.1354 39.6955 29.2122 39.6955C29.289 39.6955 29.3627 39.6651 29.417 39.6111L32.1295 36.9094L37.7911 42.5456C37.8179 42.5725 37.8498 42.5938 37.8849 42.6083C37.92 42.6229 37.9576 42.6304 37.9956 42.6304C38.0337 42.6304 38.0713 42.6229 38.1064 42.6083C38.1415 42.5938 38.1734 42.5725 38.2002 42.5456L40.879 39.8786L46.6383 45.6144L45.3088 46.9381C45.2728 46.9738 45.2469 47.0184 45.2337 47.0673C45.2206 47.1162 45.2206 47.1677 45.2337 47.2167C45.2469 47.2656 45.2727 47.3102 45.3087 47.3459C45.3447 47.3817 45.3895 47.4075 45.4386 47.4205L52.4359 49.2877C52.485 49.3008 52.5367 49.3008 52.5858 49.2877C52.6349 49.2747 52.6797 49.2489 52.7156 49.2131C52.7516 49.1773 52.7774 49.1327 52.7906 49.0838C52.8037 49.0349 52.8037 48.9834 52.7905 48.9345L50.9164 41.9652C50.9033 41.9163 50.8775 41.8716 50.8415 41.8358C50.8056 41.8 50.7608 41.7742 50.7117 41.7611C50.6626 41.748 50.6109 41.748 50.5618 41.7612C50.5127 41.7743 50.4679 41.8001 50.432 41.8359L49.1024 43.1601L41.0841 35.1738C41.0572 35.1469 41.0253 35.1256 40.9902 35.111C40.955 35.0965 40.9173 35.089 40.8793 35.089C40.8412 35.089 40.8035 35.0965 40.7683 35.111C40.7332 35.1256 40.7013 35.1469 40.6744 35.1738L37.9956 37.8413L35.5169 35.3725C35.4627 35.3184 35.3891 35.288 35.3123 35.2879C35.2355 35.2879 35.1619 35.3182 35.1075 35.3722C35.0532 35.4263 35.0227 35.4996 35.0226 35.5761C35.0226 35.6525 35.053 35.7259 35.1073 35.78L37.7911 38.4531C37.8454 38.5071 37.9189 38.5374 37.9956 38.5374C38.0724 38.5374 38.1459 38.5071 38.2002 38.4531L40.879 35.7856L48.8973 43.7719C48.9517 43.8259 49.0254 43.8563 49.1022 43.8563C49.179 43.8563 49.2526 43.8259 49.307 43.7719L50.4871 42.5965L52.1015 48.6015L46.073 46.9929L47.2531 45.8176C47.28 45.7908 47.3014 45.759 47.316 45.724C47.3305 45.689 47.338 45.6514 47.338 45.6136C47.338 45.5757 47.3305 45.5381 47.316 45.5031C47.3014 45.4681 47.28 45.4363 47.2531 45.4095L41.0841 39.2669C41.0572 39.24 41.0253 39.2187 40.9902 39.2041C40.955 39.1895 40.9173 39.182 40.8793 39.182C40.8412 39.182 40.8035 39.1895 40.7683 39.2041C40.7332 39.2187 40.7013 39.24 40.6744 39.2669L37.9956 41.9355L32.3363 36.2983C32.3095 36.2714 32.2777 36.2501 32.2425 36.2355C32.2074 36.2209 32.1698 36.2135 32.1318 36.2135C32.0937 36.2135 32.0561 36.2209 32.021 36.2355C31.9859 36.2501 31.954 36.2714 31.9272 36.2983L29.2142 38.9999L19.501 29.325V26.048L29.0096 35.5186C29.0365 35.5455 29.0684 35.5668 29.1035 35.5814C29.1387 35.596 29.1764 35.6035 29.2144 35.6035C29.2525 35.6035 29.2902 35.596 29.3254 35.5814C29.3605 35.5668 29.3924 35.5455 29.4193 35.5186L32.1318 32.817L33.867 34.5475C33.8939 34.5743 33.9259 34.5955 33.961 34.61C33.9961 34.6244 34.0338 34.6319 34.0718 34.6318C34.1098 34.6318 34.1474 34.6243 34.1826 34.6098C34.2177 34.5953 34.2496 34.574 34.2764 34.5473C34.3033 34.5205 34.3246 34.4887 34.3391 34.4537C34.3536 34.4187 34.3611 34.3812 34.3611 34.3433C34.361 34.3055 34.3535 34.268 34.339 34.233C34.3244 34.198 34.303 34.1663 34.2761 34.1395L32.3363 32.208C32.282 32.154 32.2085 32.1237 32.1318 32.1237C32.0551 32.1237 31.9815 32.154 31.9272 32.208L29.2142 34.9097L19.4161 25.148C19.3892 25.1212 19.3572 25.0999 19.322 25.0854C19.2868 25.0709 19.2491 25.0635 19.211 25.0635Z" fill="#282C3F"/>
<path d="M36.1686 54.3906H39.7881V48.7131H36.1686V54.3906Z" fill="#A09CAD"/>
<path d="M32.526 54.3906H36.1455V47.451H32.526V54.3906Z" fill="#A09CAD"/>
<path d="M28.9069 54.3906H32.5264V44.2965H28.9069V54.3906Z" fill="#A09CAD"/>
<path d="M25.2868 54.3906H28.9062V41.1426H25.2868V54.3906Z" fill="#A09CAD"/>
<path d="M21.6999 54.3906H25.3193L25.3193 37.6457H21.6999L21.6999 54.3906Z" fill="#A09CAD"/>
<path d="M18.0807 54.3901H21.7002L21.7002 34.4907H18.0807L18.0807 54.3901Z" fill="#A09CAD"/>
<path d="M36.1686 54.3906H39.7881V51.1696H36.1686V54.3906Z" fill="#B8B5C6"/>
<path d="M32.526 54.3906H36.1455V50.4537H32.526V54.3906Z" fill="#B8B5C6"/>
<path d="M28.9069 54.3906H32.5264V48.6644H28.9069V54.3906Z" fill="#B8B5C6"/>
<path d="M25.2868 54.3906H28.9062V46.875H25.2868V54.3906Z" fill="#B8B5C6"/>
<path d="M21.6999 54.3906H25.3193V44.8909H21.6999V54.3906Z" fill="#B8B5C6"/>
<path d="M18.0807 54.3901H21.7002V43.1005H18.0807V54.3901Z" fill="#B8B5C6"/>
<path d="M36.1689 54.6784H39.7883C39.8264 54.6785 39.864 54.6711 39.8992 54.6566C39.9343 54.6422 39.9663 54.6209 39.9931 54.5942C40.02 54.5674 40.0413 54.5356 40.0559 54.5006C40.0704 54.4656 40.0778 54.4281 40.0777 54.3902V48.7126C40.0778 48.6747 40.0704 48.6372 40.0559 48.6022C40.0414 48.5671 40.0201 48.5353 39.9932 48.5085C39.9663 48.4816 39.9344 48.4603 39.8992 48.4458C39.8641 48.4313 39.8264 48.4238 39.7883 48.4238H36.1689C36.092 48.4238 36.0182 48.4543 35.9638 48.5084C35.9095 48.5626 35.8789 48.636 35.8789 48.7126V54.3902C35.8789 54.4281 35.8864 54.4656 35.901 54.5006C35.9156 54.5356 35.9369 54.5674 35.9639 54.5942C35.9908 54.621 36.0228 54.6422 36.0579 54.6566C36.0931 54.6711 36.1308 54.6785 36.1689 54.6784ZM39.4984 54.1019H36.4583V49.0009H39.4984V54.1019Z" fill="#282C3F"/>
<path d="M32.5257 54.6788H36.1458C36.2225 54.6788 36.2961 54.6484 36.3504 54.5944C36.4047 54.5403 36.4352 54.467 36.4352 54.3906V47.4504C36.435 47.374 36.4045 47.3007 36.3502 47.2467C36.296 47.1927 36.2225 47.1623 36.1458 47.1621H32.5257C32.449 47.1623 32.3755 47.1927 32.3213 47.2467C32.267 47.3007 32.2365 47.374 32.2363 47.4504V54.3906C32.2363 54.467 32.2668 54.5403 32.3211 54.5944C32.3754 54.6484 32.449 54.6788 32.5257 54.6788ZM35.8558 54.1023H32.8157V47.7397H35.8558V54.1023Z" fill="#282C3F"/>
<path d="M28.9056 54.6789H32.5251C32.5631 54.679 32.6008 54.6716 32.636 54.6571C32.6712 54.6427 32.7032 54.6214 32.7301 54.5947C32.757 54.5679 32.7784 54.5361 32.793 54.5011C32.8075 54.4661 32.8151 54.4286 32.8151 54.3907V44.2965C32.8149 44.22 32.7843 44.1467 32.7299 44.0927C32.6756 44.0386 32.6019 44.0083 32.5251 44.0083H28.9056C28.8289 44.0084 28.7554 44.0389 28.7011 44.0929C28.6469 44.1469 28.6164 44.2201 28.6162 44.2965V54.3907C28.6162 54.4671 28.6467 54.5404 28.701 54.5945C28.7552 54.6485 28.8289 54.6789 28.9056 54.6789ZM32.2357 54.1024H29.1956V44.5876H32.2357V54.1024Z" fill="#282C3F"/>
<path d="M25.2865 54.679H28.9054C28.9823 54.679 29.056 54.6486 29.1104 54.5945C29.1648 54.5403 29.1953 54.4668 29.1953 54.3902V41.1422C29.1952 41.0658 29.1646 40.9924 29.1102 40.9384C29.0559 40.8844 28.9822 40.854 28.9054 40.854H25.2865C25.2098 40.8542 25.1362 40.8846 25.082 40.9386C25.0278 40.9926 24.9972 41.0658 24.9971 41.1422V54.3902C24.9971 54.4667 25.0275 54.5401 25.0818 54.5943C25.1361 54.6484 25.2097 54.6789 25.2865 54.679ZM28.6165 54.102H25.5764V41.4322H28.6165V54.102Z" fill="#282C3F"/>
<path d="M21.7005 54.6789H25.32C25.3581 54.6789 25.3957 54.6715 25.4309 54.657C25.466 54.6424 25.498 54.6212 25.5248 54.5943C25.5517 54.5675 25.573 54.5357 25.5875 54.5006C25.6021 54.4656 25.6095 54.428 25.6094 54.3901V37.6452C25.6094 37.5687 25.5789 37.4954 25.5246 37.4414C25.4704 37.3873 25.3968 37.3569 25.32 37.3569H21.7005C21.6238 37.3569 21.5502 37.3873 21.4959 37.4414C21.4416 37.4954 21.4111 37.5687 21.4111 37.6452V54.3901C21.4111 54.428 21.4185 54.4656 21.433 54.5006C21.4475 54.5357 21.4688 54.5675 21.4957 54.5943C21.5226 54.6212 21.5545 54.6424 21.5897 54.657C21.6248 54.6715 21.6625 54.6789 21.7005 54.6789ZM25.0284 54.1019H21.9899V37.9334H25.0284V54.1019Z" fill="#282C3F"/>
<path d="M18.0814 54.6784H21.7009C21.7389 54.6785 21.7766 54.6711 21.8117 54.6566C21.8469 54.6421 21.8788 54.6209 21.9057 54.5941C21.9326 54.5674 21.9539 54.5355 21.9684 54.5005C21.9829 54.4655 21.9903 54.428 21.9903 54.3901V34.4919C21.9903 34.4154 21.9598 34.3421 21.9055 34.288C21.8512 34.234 21.7776 34.2036 21.7009 34.2036H18.0814C18.0046 34.2036 17.931 34.234 17.8768 34.288C17.8225 34.3421 17.792 34.4154 17.792 34.4919V54.3901C17.7919 54.428 17.7994 54.4655 17.8139 54.5005C17.8284 54.5355 17.8497 54.5674 17.8766 54.5941C17.9035 54.6209 17.9354 54.6421 17.9706 54.6566C18.0057 54.6711 18.0434 54.6785 18.0814 54.6784ZM21.4115 54.1019H18.3708V34.779H21.4115V54.1019Z" fill="#282C3F"/>
<path d="M58.3985 21.6108H41.4385V33.4355H58.3985V21.6108Z" fill="#52576A"/>
<path d="M58.3987 33.4358H41.9473L42.4412 22.9364C42.4454 22.8516 42.4815 22.7714 42.5423 22.7117C42.603 22.6521 42.6841 22.6175 42.7694 22.6146L58.3987 22.1182V33.4358Z" fill="#30354C"/>
<path d="M48.9011 33.5959H41.4374C41.3952 33.5959 41.3547 33.5792 41.3249 33.5495C41.2951 33.5198 41.2783 33.4795 41.2783 33.4375V24.9894C41.2783 24.9474 41.2951 24.9072 41.3249 24.8774C41.3547 24.8477 41.3952 24.8311 41.4374 24.8311C41.4795 24.8311 41.52 24.8477 41.5498 24.8774C41.5796 24.9072 41.5964 24.9474 41.5964 24.9894V33.2769H48.9016C48.9438 33.2769 48.9843 33.2935 49.0141 33.3232C49.0439 33.353 49.0607 33.3932 49.0607 33.4353C49.0607 33.4773 49.0439 33.5175 49.0141 33.5473C48.9843 33.577 48.9438 33.5936 48.9016 33.5936L48.9011 33.5959Z" fill="#282C3F"/>
<path d="M58.3856 33.6073H49.9054C49.8632 33.6073 49.8227 33.5906 49.7929 33.5609C49.7631 33.5312 49.7463 33.4909 49.7463 33.4489C49.7463 33.4069 49.7631 33.3666 49.7929 33.3369C49.8227 33.3072 49.8632 33.2905 49.9054 33.2905H58.2266V21.7826H41.5847V23.9889C41.5847 24.0309 41.5679 24.0712 41.5381 24.1009C41.5083 24.1306 41.4678 24.1473 41.4256 24.1473C41.3835 24.1473 41.343 24.1306 41.3132 24.1009C41.2834 24.0712 41.2666 24.0309 41.2666 23.9889V21.6242C41.2666 21.5822 41.2834 21.5419 41.3132 21.5122C41.343 21.4825 41.3835 21.4658 41.4256 21.4658H58.3856C58.4278 21.4658 58.4683 21.4825 58.4981 21.5122C58.5279 21.5419 58.5447 21.5822 58.5447 21.6242V33.4489C58.5447 33.4909 58.5279 33.5312 58.4981 33.5609C58.4683 33.5906 58.4278 33.6073 58.3856 33.6073Z" fill="#282C3F"/>
<path d="M55.5985 31.9171H44.2371C44.2371 31.581 44.103 31.2587 43.8645 31.0211C43.6259 30.7835 43.3023 30.6499 42.9648 30.6499V24.3982C43.132 24.3982 43.2976 24.3655 43.4521 24.3017C43.6065 24.238 43.7468 24.1446 43.865 24.0268C43.9832 23.909 44.0769 23.7691 44.1407 23.6152C44.2046 23.4613 44.2373 23.2964 44.2371 23.1299H55.5985C55.5985 23.4658 55.7324 23.788 55.9709 24.0255C56.2094 24.263 56.5329 24.3965 56.8701 24.3965V30.6483C56.703 30.6483 56.5374 30.6812 56.383 30.745C56.2286 30.8089 56.0884 30.9024 55.9703 31.0202C55.8522 31.138 55.7586 31.2779 55.6948 31.4318C55.631 31.5857 55.5982 31.7506 55.5985 31.9171Z" fill="white"/>
<path d="M55.5864 32.0848H44.2234C44.2025 32.0849 44.1818 32.0808 44.1624 32.0729C44.1431 32.065 44.1255 32.0533 44.1108 32.0386C44.096 32.0239 44.0843 32.0064 44.0763 31.9871C44.0683 31.9679 44.0643 31.9472 44.0644 31.9264C44.0635 31.6333 43.9462 31.3525 43.7382 31.1452C43.5301 30.9379 43.2482 30.8209 42.954 30.8199C42.9331 30.8199 42.9124 30.8158 42.8931 30.8078C42.8738 30.7999 42.8563 30.7882 42.8415 30.7735C42.8267 30.7588 42.815 30.7413 42.807 30.7221C42.799 30.7029 42.7949 30.6823 42.7949 30.6615V24.4114C42.7949 24.3906 42.799 24.37 42.807 24.3508C42.815 24.3316 42.8267 24.3141 42.8415 24.2994C42.8563 24.2847 42.8738 24.273 42.8931 24.265C42.9124 24.2571 42.9331 24.253 42.954 24.253C43.2491 24.2525 43.5319 24.1356 43.7406 23.9278C43.9493 23.7199 44.0667 23.4382 44.0672 23.1442C44.0672 23.1022 44.0839 23.0619 44.1137 23.0322C44.1436 23.0025 44.184 22.9858 44.2262 22.9858H55.5864C55.6286 22.9858 55.6691 23.0025 55.6989 23.0322C55.7287 23.0619 55.7455 23.1022 55.7455 23.1442C55.7459 23.4382 55.8633 23.7199 56.072 23.9278C56.2807 24.1356 56.5636 24.2525 56.8587 24.253C56.9009 24.253 56.9413 24.2697 56.9711 24.2994C57.0009 24.3291 57.0177 24.3694 57.0177 24.4114V30.6615C57.0177 30.7035 57.0009 30.7438 56.9711 30.7735C56.9413 30.8032 56.9009 30.8199 56.8587 30.8199C56.5636 30.8202 56.2807 30.937 56.072 31.1448C55.8634 31.3525 55.7459 31.6342 55.7455 31.9281C55.7452 31.9699 55.7283 32.0098 55.6985 32.0392C55.6686 32.0685 55.6284 32.085 55.5864 32.0848ZM44.3734 31.7686H55.4364C55.4728 31.4474 55.6176 31.148 55.8471 30.9194C56.0766 30.6908 56.3771 30.5466 56.6996 30.5104V24.5608C56.3772 24.5245 56.0766 24.3802 55.8472 24.1517C55.6177 23.9231 55.4729 23.6238 55.4364 23.3026H44.3734C44.3369 23.6238 44.1921 23.9231 43.9626 24.1517C43.7332 24.3802 43.4326 24.5245 43.1102 24.5608V30.5121C43.4327 30.5483 43.7333 30.6925 43.9628 30.9211C44.1922 31.1497 44.337 31.4491 44.3734 31.7703V31.7686Z" fill="#282C3F"/>
<path d="M52.6323 27.5234C52.6323 29.3889 51.4174 30.9017 49.9187 30.9017C48.42 30.9017 47.2051 29.3906 47.2051 27.5234C47.2051 25.6563 48.42 24.1445 49.9187 24.1445C51.4174 24.1445 52.6323 25.6574 52.6323 27.5234Z" fill="#2CAAE6"/>
<path d="M49.9186 31.0602C48.3344 31.0602 47.0459 29.4735 47.0459 27.5235C47.0459 25.5736 48.3344 23.9868 49.9186 23.9868C51.5027 23.9868 52.7912 25.573 52.7912 27.5235C52.7912 29.4741 51.5027 31.0602 49.9186 31.0602ZM49.9186 24.303C48.5098 24.303 47.364 25.7482 47.364 27.5235C47.364 29.2989 48.5098 30.7418 49.9186 30.7418C51.3273 30.7418 52.4731 29.2972 52.4731 27.5219C52.4731 25.7465 51.3273 24.3053 49.9186 24.3053V24.303Z" fill="#2FC8F2"/>
<path d="M49.9183 29.6613C49.6021 29.661 49.299 29.5358 49.0755 29.3131C48.8519 29.0905 48.7262 28.7886 48.7259 28.4737C48.7243 28.4415 48.7293 28.4093 48.7406 28.3791C48.7519 28.349 48.7692 28.3214 48.7915 28.298C48.8138 28.2747 48.8406 28.2562 48.8703 28.2435C48.9001 28.2308 48.9321 28.2242 48.9644 28.2242C48.9967 28.2242 49.0288 28.2308 49.0585 28.2435C49.0882 28.2562 49.115 28.2747 49.1373 28.298C49.1596 28.3214 49.177 28.349 49.1882 28.3791C49.1995 28.4093 49.2045 28.4415 49.203 28.4737C49.2031 28.6145 49.2451 28.7522 49.3238 28.8693C49.4025 28.9864 49.5142 29.0777 49.6449 29.1315C49.7757 29.1854 49.9195 29.1994 50.0582 29.1718C50.1969 29.1443 50.3244 29.0764 50.4243 28.9767C50.5243 28.877 50.5924 28.7501 50.62 28.6119C50.6475 28.4737 50.6333 28.3305 50.5792 28.2003C50.525 28.0701 50.4333 27.9589 50.3157 27.8806C50.1981 27.8024 50.0598 27.7606 49.9183 27.7606C49.6825 27.7606 49.4519 27.6909 49.2558 27.5604C49.0597 27.4299 48.9069 27.2444 48.8166 27.0274C48.7264 26.8104 48.7028 26.5716 48.7488 26.3412C48.7948 26.1108 48.9084 25.8992 49.0751 25.7331C49.2419 25.567 49.4544 25.4539 49.6857 25.4081C49.917 25.3622 50.1567 25.3858 50.3746 25.4757C50.5925 25.5656 50.7788 25.7178 50.9098 25.9131C51.0408 26.1084 51.1108 26.338 51.1108 26.5729C51.1123 26.6051 51.1073 26.6373 51.096 26.6674C51.0848 26.6976 51.0674 26.7252 51.0451 26.7485C51.0228 26.7719 50.996 26.7904 50.9663 26.8031C50.9365 26.8158 50.9045 26.8223 50.8722 26.8223C50.8399 26.8223 50.8079 26.8158 50.7781 26.8031C50.7484 26.7904 50.7216 26.7719 50.6993 26.7485C50.677 26.7252 50.6597 26.6976 50.6484 26.6674C50.6371 26.6373 50.6321 26.6051 50.6337 26.5729C50.6337 26.432 50.5917 26.2943 50.5131 26.1771C50.4345 26.0599 50.3228 25.9686 50.1921 25.9147C50.0614 25.8607 49.9175 25.8466 49.7787 25.8741C49.64 25.9016 49.5125 25.9695 49.4125 26.0691C49.3124 26.1688 49.2443 26.2957 49.2167 26.4339C49.1891 26.5721 49.2033 26.7154 49.2574 26.8456C49.3116 26.9758 49.4032 27.0871 49.5209 27.1653C49.6385 27.2436 49.7768 27.2854 49.9183 27.2854C50.2302 27.2922 50.527 27.4203 50.7451 27.6423C50.9633 27.8644 51.0854 28.1627 51.0854 28.4734C51.0854 28.784 50.9633 29.0824 50.7451 29.3044C50.527 29.5265 50.2302 29.6546 49.9183 29.6613Z" fill="white"/>
<path d="M49.9185 30.2939C49.8552 30.2938 49.7946 30.2687 49.7498 30.2241C49.705 30.1795 49.6798 30.1191 49.6797 30.0561V29.4236C49.6827 29.3626 49.7091 29.305 49.7535 29.2629C49.7979 29.2208 49.8569 29.1973 49.9182 29.1973C49.9796 29.1973 50.0386 29.2208 50.083 29.2629C50.1274 29.305 50.1538 29.3626 50.1568 29.4236V30.0572C50.1565 30.12 50.1313 30.1801 50.0866 30.2245C50.042 30.2688 49.9816 30.2938 49.9185 30.2939Z" fill="white"/>
<path d="M49.9188 25.8605C49.8556 25.8605 49.7949 25.8355 49.7501 25.7911C49.7053 25.7466 49.6801 25.6862 49.68 25.6232V24.9896C49.6784 24.9575 49.6834 24.9253 49.6947 24.8951C49.706 24.8649 49.7233 24.8374 49.7456 24.814C49.7679 24.7907 49.7947 24.7721 49.8244 24.7595C49.8542 24.7468 49.8862 24.7402 49.9185 24.7402C49.9509 24.7402 49.9829 24.7468 50.0126 24.7595C50.0423 24.7721 50.0691 24.7907 50.0914 24.814C50.1137 24.8374 50.1311 24.8649 50.1423 24.8951C50.1536 24.9253 50.1586 24.9575 50.1571 24.9896V25.6232C50.1571 25.6544 50.1509 25.6852 50.1389 25.714C50.1269 25.7428 50.1094 25.769 50.0873 25.791C50.0651 25.8131 50.0389 25.8305 50.01 25.8425C49.9811 25.8544 49.9501 25.8605 49.9188 25.8605Z" fill="white"/>
<path d="M54.6783 28.5265C54.4792 28.5263 54.2845 28.4674 54.119 28.3572C53.9535 28.2469 53.8245 28.0902 53.7484 27.9069C53.6722 27.7236 53.6524 27.522 53.6913 27.3275C53.7302 27.1329 53.8262 26.9543 53.967 26.8141C54.1079 26.6739 54.2873 26.5784 54.4826 26.5397C54.678 26.5011 54.8804 26.521 55.0644 26.5969C55.2483 26.6728 55.4056 26.8014 55.5162 26.9663C55.6268 27.1312 55.6859 27.3251 55.6859 27.5235C55.6856 27.7895 55.5793 28.0445 55.3904 28.2326C55.2015 28.4206 54.9454 28.5263 54.6783 28.5265ZM54.6783 26.8373C54.5421 26.8374 54.4089 26.8777 54.2957 26.9532C54.1825 27.0287 54.0943 27.1359 54.0422 27.2613C53.9902 27.3867 53.9766 27.5246 54.0032 27.6577C54.0299 27.7908 54.0955 27.913 54.1919 28.0089C54.2883 28.1048 54.4111 28.1701 54.5447 28.1965C54.6783 28.223 54.8168 28.2093 54.9427 28.1574C55.0685 28.1054 55.1761 28.0175 55.2518 27.9046C55.3274 27.7918 55.3678 27.6592 55.3678 27.5235C55.3677 27.3414 55.295 27.1669 55.1657 27.0382C55.0364 26.9096 54.8611 26.8373 54.6783 26.8373Z" fill="#00B5F4"/>
<path d="M45.1808 28.5265C44.9817 28.5265 44.787 28.4676 44.6214 28.3574C44.4558 28.2472 44.3267 28.0906 44.2505 27.9073C44.1743 27.724 44.1543 27.5224 44.1932 27.3278C44.232 27.1333 44.3279 26.9545 44.4688 26.8143C44.6096 26.674 44.789 26.5785 44.9844 26.5398C45.1797 26.5011 45.3822 26.5209 45.5662 26.5969C45.7502 26.6728 45.9075 26.8013 46.0181 26.9663C46.1288 27.1312 46.1878 27.3251 46.1878 27.5235C46.1875 27.7894 46.0813 28.0443 45.8926 28.2324C45.7038 28.4204 45.4478 28.5262 45.1808 28.5265ZM45.1808 26.8373C45.0446 26.8373 44.9114 26.8775 44.7981 26.9529C44.6848 27.0283 44.5965 27.1355 44.5443 27.2609C44.4922 27.3863 44.4785 27.5242 44.5051 27.6574C44.5317 27.7905 44.5973 27.9127 44.6937 28.0087C44.79 28.1047 44.9128 28.17 45.0464 28.1965C45.1801 28.223 45.3186 28.2094 45.4445 28.1574C45.5704 28.1055 45.678 28.0175 45.7537 27.9047C45.8294 27.7919 45.8698 27.6592 45.8698 27.5235C45.8696 27.3415 45.797 27.1671 45.6678 27.0384C45.5387 26.9098 45.3635 26.8374 45.1808 26.8373Z" fill="#00B5F4"/>
<path d="M10.0594 23.2585V19.1582H12.4117V23.2585H14.1757L11.2356 27.3583L8.29492 23.2585H10.0594Z" fill="white"/>
<path d="M12.4121 18.8652H10.0598C9.98226 18.8652 9.90784 18.8958 9.85279 18.9502C9.79774 19.0046 9.76651 19.0785 9.76592 19.1557V22.9616H8.29531C8.24078 22.9614 8.18725 22.9762 8.14071 23.0045C8.09417 23.0329 8.05645 23.0735 8.03179 23.122C8.00712 23.1704 7.99647 23.2247 8.00103 23.2788C8.00559 23.333 8.02518 23.3848 8.05761 23.4284L10.9983 27.5282C11.0268 27.5642 11.0632 27.5933 11.1047 27.6133C11.1461 27.6333 11.1916 27.6437 11.2376 27.6437C11.2837 27.6437 11.3292 27.6333 11.3706 27.6133C11.4121 27.5933 11.4485 27.5642 11.477 27.5282L14.4171 23.4284C14.4487 23.3847 14.4676 23.3331 14.4716 23.2794C14.4756 23.2256 14.4646 23.1718 14.4398 23.1239C14.4151 23.076 14.3775 23.0359 14.3312 23.0079C14.285 22.98 14.2318 22.9653 14.1777 22.9656H12.706V19.1557C12.7054 19.0785 12.6742 19.0046 12.6191 18.9502C12.5641 18.8958 12.4897 18.8652 12.4121 18.8652ZM10.3537 19.4507H12.1182V23.2566C12.1182 23.3342 12.1492 23.4087 12.2043 23.4636C12.2594 23.5185 12.3342 23.5493 12.4121 23.5493H13.6046L11.236 26.8515L8.86681 23.5493H10.0598C10.1378 23.5493 10.2125 23.5185 10.2676 23.4636C10.3227 23.4087 10.3537 23.3342 10.3537 23.2566V19.4507Z" fill="#989AA6"/>
<path d="M12.2971 56.3889V52.2886H14.6494V56.3889H16.4139L13.4733 60.4887L10.5332 56.3889H12.2971Z" fill="white"/>
<path d="M14.6492 51.9956H12.2969C12.2189 51.9956 12.1442 52.0264 12.0891 52.0813C12.034 52.1362 12.003 52.2107 12.003 52.2883V56.0943H10.533C10.4788 56.094 10.4257 56.1087 10.3795 56.1366C10.3332 56.1646 10.2956 56.2047 10.2708 56.2526C10.2461 56.3005 10.2351 56.3543 10.2391 56.4081C10.2431 56.4618 10.262 56.5134 10.2936 56.5571L13.2337 60.6569C13.2622 60.6929 13.2986 60.722 13.34 60.742C13.3815 60.762 13.427 60.7724 13.473 60.7724C13.5191 60.7724 13.5646 60.762 13.606 60.742C13.6475 60.722 13.6839 60.6929 13.7124 60.6569L16.6553 56.5588C16.6868 56.5149 16.7055 56.4631 16.7094 56.4092C16.7132 56.3554 16.7019 56.3015 16.6769 56.2536C16.6519 56.2057 16.6141 56.1656 16.5676 56.1378C16.5212 56.11 16.4679 56.0955 16.4137 56.0959H14.9431V52.29C14.9433 52.2514 14.9359 52.2132 14.9212 52.1775C14.9065 52.1418 14.8849 52.1093 14.8576 52.0819C14.8303 52.0546 14.7978 52.0329 14.762 52.018C14.7263 52.0032 14.6879 51.9956 14.6492 51.9956ZM12.5908 52.581H14.3553V56.387C14.3553 56.4646 14.3863 56.5391 14.4414 56.594C14.4965 56.6489 14.5712 56.6797 14.6492 56.6797H15.8422L13.473 59.9819L11.1044 56.6797H12.2969C12.3748 56.6797 12.4496 56.6489 12.5047 56.594C12.5598 56.5391 12.5908 56.4646 12.5908 56.387V52.581Z" fill="#989AA6"/>
<path d="M43.5618 14.3927V10.293H45.9141V14.3927H47.6786L44.7379 18.4931L41.7979 14.3927H43.5618Z" fill="white"/>
<path d="M45.9143 10H43.562C43.5233 10 43.4851 10.0076 43.4494 10.0223C43.4137 10.0371 43.3813 10.0587 43.354 10.0859C43.3267 10.1132 43.305 10.1455 43.2903 10.1811C43.2756 10.2167 43.268 10.2548 43.2681 10.2933V14.0992H41.798C41.744 14.0992 41.691 14.114 41.6449 14.1419C41.5988 14.1699 41.5613 14.2101 41.5365 14.2579C41.5118 14.3057 41.5008 14.3594 41.5047 14.4131C41.5086 14.4667 41.5273 14.5183 41.5587 14.5621L44.4987 18.6624C44.5273 18.6984 44.5637 18.7275 44.6051 18.7475C44.6466 18.7675 44.6921 18.7779 44.7381 18.7779C44.7842 18.7779 44.8297 18.7675 44.8711 18.7475C44.9126 18.7275 44.949 18.6984 44.9775 18.6624L47.9182 14.5621C47.9496 14.5183 47.9682 14.4667 47.9721 14.4131C47.976 14.3594 47.965 14.3057 47.9403 14.2579C47.9156 14.2101 47.8781 14.1699 47.8319 14.1419C47.7858 14.114 47.7328 14.0992 47.6788 14.0992H46.2087V10.2933C46.2087 10.2548 46.2011 10.2166 46.1863 10.181C46.1715 10.1455 46.1498 10.1131 46.1225 10.0859C46.0951 10.0587 46.0627 10.0371 46.027 10.0223C45.9912 10.0076 45.9529 10 45.9143 10ZM43.8564 10.586H45.6204V14.3919C45.6204 14.4696 45.6513 14.544 45.7065 14.5989C45.7616 14.6538 45.8363 14.6847 45.9143 14.6847H47.1073L44.7381 17.9869L42.3695 14.6847H43.562C43.64 14.6847 43.7148 14.6538 43.77 14.5989C43.8252 14.5441 43.8563 14.4696 43.8564 14.3919V10.586Z" fill="#989AA6"/>
<path d="M50.469 55.8342V51.7305H52.8213V55.8342H54.5858L51.6452 59.9373L48.7051 55.8342H50.469Z" fill="white"/>
<path d="M52.8209 51.437H50.4686C50.43 51.437 50.3917 51.4446 50.356 51.4593C50.3203 51.4741 50.2879 51.4957 50.2606 51.5229C50.2333 51.5502 50.2117 51.5825 50.1969 51.6181C50.1822 51.6537 50.1747 51.6918 50.1747 51.7303V55.5407H48.7047C48.6506 55.5406 48.5975 55.5553 48.5513 55.5834C48.505 55.6114 48.4675 55.6516 48.4427 55.6995C48.418 55.7474 48.407 55.8012 48.411 55.855C48.4149 55.9087 48.4337 55.9603 48.4653 56.0041L51.4054 60.1078C51.434 60.1438 51.4703 60.1729 51.5118 60.1929C51.5532 60.2129 51.5987 60.2233 51.6448 60.2233C51.6908 60.2233 51.7363 60.2129 51.7778 60.1929C51.8192 60.1729 51.8556 60.1438 51.8842 60.1078L54.8248 56.0041C54.8562 55.9603 54.8748 55.9087 54.8787 55.855C54.8826 55.8014 54.8715 55.7477 54.8468 55.6998C54.8221 55.652 54.7846 55.6118 54.7385 55.5837C54.6924 55.5557 54.6395 55.5408 54.5854 55.5407H53.1148V51.7303C53.1149 51.6918 53.1073 51.6537 53.0926 51.6181C53.0779 51.5825 53.0562 51.5502 53.0289 51.5229C53.0016 51.4957 52.9692 51.4741 52.9335 51.4593C52.8978 51.4446 52.8596 51.437 52.8209 51.437ZM50.7653 52.0236H52.5298V55.834C52.5298 55.9117 52.5608 55.9862 52.6159 56.0412C52.671 56.0961 52.7457 56.1271 52.8237 56.1273H54.0167L51.6476 59.4328L49.2784 56.1273H50.4714C50.5494 56.1271 50.6242 56.0961 50.6793 56.0412C50.7344 55.9862 50.7653 55.9117 50.7653 55.834V52.0236Z" fill="#989AA6"/>
<path d="M58.2112 35.1164V31.0161H60.5635V35.1164H62.328L59.3874 39.2162L56.4473 35.1164H58.2112Z" fill="white"/>
<path d="M60.5642 30.7231H58.2119C58.134 30.7231 58.0592 30.754 58.0041 30.8089C57.949 30.8638 57.918 30.9382 57.918 31.0159V34.8218H56.448C56.3939 34.8215 56.3408 34.8362 56.2945 34.8642C56.2483 34.8921 56.2107 34.9323 56.1859 34.9802C56.1611 35.0281 56.1501 35.0819 56.1541 35.1356C56.1581 35.1893 56.177 35.2409 56.2086 35.2847L59.1487 39.3844C59.1773 39.4204 59.2136 39.4495 59.2551 39.4695C59.2965 39.4895 59.342 39.4999 59.3881 39.4999C59.4341 39.4999 59.4796 39.4895 59.5211 39.4695C59.5625 39.4495 59.5989 39.4204 59.6275 39.3844L62.5664 35.2863C62.5978 35.2426 62.6165 35.191 62.6204 35.1373C62.6243 35.0837 62.6133 35.03 62.5886 34.9821C62.5638 34.9343 62.5263 34.8942 62.4802 34.8662C62.434 34.8382 62.3811 34.8234 62.327 34.8235H60.8581V31.0175C60.8583 30.979 60.8509 30.9407 60.8362 30.905C60.8216 30.8693 60.8 30.8368 60.7726 30.8095C60.7453 30.7821 60.7129 30.7604 60.6771 30.7456C60.6413 30.7308 60.603 30.7231 60.5642 30.7231ZM58.5058 31.3086H60.2703V35.1145C60.2703 35.1921 60.3013 35.2666 60.3564 35.3215C60.4115 35.3764 60.4863 35.4072 60.5642 35.4072H61.7572L59.3881 38.7094L57.0195 35.4072H58.2119C58.2899 35.4072 58.3646 35.3764 58.4197 35.3215C58.4749 35.2666 58.5058 35.1921 58.5058 35.1145V31.3086Z" fill="#989AA6"/>
</svg>
