<svg width="71" height="71" viewBox="0 0 71 71" fill="none" xmlns="http://www.w3.org/2000/svg">
<path d="M55.4691 24.7899C53.3105 20.6642 54.0787 13.473 50.1637 10.979C46.3688 8.56175 40.3012 12.284 35.4933 12.0913C30.6854 11.8986 24.9293 7.70153 20.9562 9.8074C16.8565 11.98 17.0532 19.2098 14.5753 23.1502C12.1746 26.9691 5.54228 29.8359 5.35089 34.6771C5.15951 39.5184 11.5418 42.9066 13.6344 46.9063C15.7902 51.032 15.022 58.2232 18.9364 60.7198C22.7307 63.1371 28.7989 59.4148 33.6068 59.6075C38.4147 59.8003 44.1715 63.9967 48.1439 61.8908C52.2436 59.7182 52.0469 52.4884 54.5249 48.5487C56.9255 44.7297 63.5572 41.8623 63.7492 37.0217C63.9413 32.1812 57.5616 28.7889 55.4691 24.7899Z" fill="#F6F6F6"/>
<path d="M15.3083 26.5703H56.5415C56.9971 26.5703 57.434 26.7513 57.7562 27.0734C58.0783 27.3956 58.2593 27.8325 58.2593 28.2881V57.4956H13.5898V28.2881C13.5898 28.0624 13.6343 27.839 13.7207 27.6306C13.807 27.4221 13.9336 27.2327 14.0932 27.0732C14.2528 26.9137 14.4422 26.7872 14.6507 26.7009C14.8592 26.6146 15.0826 26.5702 15.3083 26.5703Z" fill="white"/>
<path d="M13.5905 35.5041C13.5454 35.5042 13.5007 35.4954 13.459 35.4781C13.4173 35.4609 13.3794 35.4356 13.3475 35.4037C13.3156 35.3718 13.2903 35.3339 13.273 35.2922C13.2558 35.2505 13.247 35.2058 13.2471 35.1607V28.2882C13.2487 27.742 13.4664 27.2185 13.8528 26.8323C14.2391 26.4461 14.7626 26.2285 15.3089 26.2271H43.4848C43.5759 26.2271 43.6633 26.2632 43.7277 26.3276C43.7921 26.392 43.8283 26.4794 43.8283 26.5705C43.8283 26.6616 43.7921 26.7489 43.7277 26.8133C43.6633 26.8777 43.5759 26.9139 43.4848 26.9139H15.3089C14.9448 26.9148 14.5959 27.0599 14.3386 27.3175C14.0812 27.5751 13.9364 27.9241 13.9359 28.2882V35.1607C13.936 35.206 13.9271 35.2508 13.9098 35.2927C13.8924 35.3345 13.8669 35.3725 13.8348 35.4044C13.8027 35.4364 13.7646 35.4616 13.7226 35.4787C13.6807 35.4958 13.6358 35.5045 13.5905 35.5041Z" fill="#282C3F"/>
<path d="M52.9593 26.5703H46.1282C46.0553 26.5703 45.984 26.592 45.9234 26.6325C45.8627 26.673 45.8155 26.7306 45.7875 26.798C45.7596 26.8653 45.7523 26.9395 45.7666 27.011C45.7808 27.0825 45.8159 27.1482 45.8675 27.1998L47.0931 28.4248C47.1623 28.4939 47.2011 28.5877 47.2011 28.6855C47.2011 28.7833 47.1623 28.8771 47.0931 28.9463L40.1327 35.9067C40.0635 35.9759 39.9697 36.0147 39.8719 36.0147C39.7741 36.0147 39.6803 35.9759 39.6112 35.9067L36.6351 32.9313C36.5658 32.8625 36.472 32.8238 36.3744 32.8238C36.2767 32.8238 36.183 32.8625 36.1136 32.9313L29.5226 39.5223C29.4533 39.5911 29.3596 39.6297 29.2619 39.6297C29.1642 39.6297 29.0705 39.5911 29.0011 39.5223L25.9837 36.5049C25.9495 36.4706 25.9089 36.4435 25.8642 36.425C25.8196 36.4065 25.7717 36.3969 25.7233 36.3969C25.6749 36.3969 25.627 36.4065 25.5824 36.425C25.5377 36.4435 25.4971 36.4706 25.4629 36.5049L13.6979 48.2692C13.6289 48.3385 13.5901 48.4322 13.5898 48.53V53.3619L25.4629 41.4921C25.4971 41.4579 25.5377 41.4308 25.5824 41.4123C25.627 41.3937 25.6749 41.3842 25.7233 41.3842C25.7717 41.3842 25.8196 41.3937 25.8642 41.4123C25.9089 41.4308 25.9495 41.4579 25.9837 41.4921L29.0011 44.5096C29.0703 44.5787 29.1641 44.6176 29.2619 44.6176C29.3597 44.6176 29.4534 44.5787 29.5226 44.5096L36.1136 37.9139C36.1828 37.8447 36.2766 37.8059 36.3744 37.8059C36.4722 37.8059 36.5659 37.8447 36.6351 37.9139L39.6085 40.8913C39.6777 40.9605 39.7715 40.9993 39.8693 40.9993C39.9671 40.9993 40.0608 40.9605 40.13 40.8913L49.5851 31.4389C49.6542 31.3698 49.748 31.3309 49.8458 31.3309C49.9436 31.3309 50.0374 31.3698 50.1066 31.4389L51.2555 32.5879C51.3013 32.6334 51.3583 32.6662 51.4207 32.6828C51.4831 32.6994 51.5488 32.6994 51.6112 32.6826C51.6736 32.6659 51.7305 32.633 51.7762 32.5874C51.8219 32.5417 51.8549 32.4849 51.8717 32.4225L53.3154 27.0344C53.3299 26.9798 53.3316 26.9226 53.3205 26.8672C53.3094 26.8118 53.2858 26.7597 53.2514 26.7149C53.217 26.67 53.1728 26.6337 53.1221 26.6086C53.0715 26.5836 53.0158 26.5705 52.9593 26.5703Z" fill="#EDEDED"/>
<path d="M58.2601 44.4386C58.169 44.4386 58.0816 44.4025 58.0171 44.3381C57.9526 44.2737 57.9162 44.1863 57.916 44.0952V28.2911C57.9166 28.1103 57.8814 27.931 57.8126 27.7638C57.7438 27.5965 57.6427 27.4444 57.515 27.3163C57.3874 27.1881 57.2357 27.0864 57.0687 27.0169C56.9017 26.9475 56.7226 26.9116 56.5417 26.9115H49.3258C49.2348 26.9115 49.1474 26.8753 49.083 26.8109C49.0186 26.7465 48.9824 26.6591 48.9824 26.568C48.9824 26.4769 49.0186 26.3896 49.083 26.3252C49.1474 26.2608 49.2348 26.2246 49.3258 26.2246H56.5417C57.088 26.226 57.6115 26.4436 57.9979 26.8298C58.3842 27.2161 58.602 27.7395 58.6036 28.2858V44.0899C58.6042 44.1354 58.5958 44.1806 58.5788 44.2228C58.5618 44.2651 58.5366 44.3035 58.5047 44.336C58.4727 44.3684 58.4347 44.3942 58.3927 44.4118C58.3507 44.4294 58.3057 44.4385 58.2601 44.4386Z" fill="#282C3F"/>
<path d="M58.2606 57.8391H13.5905C13.5454 57.8392 13.5007 57.8304 13.459 57.8131C13.4173 57.7959 13.3794 57.7706 13.3475 57.7387C13.3156 57.7068 13.2903 57.6689 13.273 57.6272C13.2558 57.5855 13.247 57.5408 13.2471 57.4957V37.2238C13.2471 37.1327 13.2833 37.0454 13.3477 36.981C13.4121 36.9166 13.4994 36.8804 13.5905 36.8804C13.6816 36.8804 13.7689 36.9166 13.8333 36.981C13.8977 37.0454 13.9339 37.1327 13.9339 37.2238V57.1522H57.9165V46.1561C57.9204 46.0675 57.9584 45.9839 58.0224 45.9226C58.0864 45.8613 58.1717 45.8271 58.2603 45.8271C58.3489 45.8271 58.4342 45.8613 58.4982 45.9226C58.5622 45.9839 58.6002 46.0675 58.6041 46.1561V57.4923C58.6045 57.5377 58.5959 57.5827 58.5789 57.6248C58.5618 57.6668 58.5366 57.7051 58.5047 57.7373C58.4727 57.7696 58.4347 57.7952 58.3928 57.8126C58.3509 57.8301 58.306 57.8391 58.2606 57.8391Z" fill="#282C3F"/>
<path d="M24.758 51.7622H20.4629V57.4957H24.758V51.7622Z" fill="#EDEDED"/>
<path d="M29.0529 45.7485H24.7578V57.4956H29.0529V45.7485Z" fill="#EDEDED"/>
<path d="M33.3478 50.2588H29.0527V57.496H33.3478V50.2588Z" fill="#EDEDED"/>
<path d="M37.6428 46.5005H33.3477V57.496H37.6428V46.5005Z" fill="#EDEDED"/>
<path d="M41.9377 42.7422H37.6426V57.4953H41.9377V42.7422Z" fill="#EDEDED"/>
<path d="M46.2336 46.5005H41.9385V57.4953H46.2336V46.5005Z" fill="#EDEDED"/>
<path d="M50.5285 38.5757H46.2334V57.4959H50.5285V38.5757Z" fill="#EDEDED"/>
<path d="M54.8244 34.8174H50.5293V57.4952H54.8244V34.8174Z" fill="#EDEDED"/>
<path d="M38.331 60.5866H33.5204C33.4284 60.5895 33.3367 60.5738 33.2508 60.5406C33.165 60.5073 33.0866 60.4572 33.0205 60.3931C32.9544 60.329 32.9018 60.2523 32.8659 60.1675C32.83 60.0827 32.8115 59.9915 32.8115 59.8994C32.8115 59.8073 32.83 59.7162 32.8659 59.6314C32.9018 59.5466 32.9544 59.4699 33.0205 59.4058C33.0866 59.3417 33.165 59.2915 33.2508 59.2583C33.3367 59.225 33.4284 59.2094 33.5204 59.2122H38.331C38.5096 59.2178 38.6789 59.2926 38.8033 59.4209C38.9276 59.5492 38.9971 59.7208 38.9971 59.8994C38.9971 60.0781 38.9276 60.2497 38.8033 60.3779C38.6789 60.5062 38.5096 60.581 38.331 60.5866Z" fill="white"/>
<path d="M53.1053 22.4902L44.8019 24.7148L46.6223 26.5346L39.3024 33.8545L35.8809 30.4336L28.9224 37.3914L25.4602 33.9292L13.5898 45.7996V50.6761L25.4602 38.8058L28.9224 42.268L35.8809 35.3102L39.3024 38.7311L49.061 28.9732L50.8814 30.7937L53.1053 22.4902Z" fill="#2FC8F2"/>
<path d="M53.1053 22.4902L39.3024 36.2598L35.8809 32.8389L28.9224 39.7967L25.4602 36.3345L13.5898 48.2055V50.6761L25.4602 38.8058L28.9224 42.268L35.8809 35.3102L39.3024 38.7311L49.061 28.9732L50.8814 30.7937L53.1053 22.4902Z" fill="#2CAAE6"/>
<path d="M13.5905 51.0197C13.5448 51.0201 13.4994 51.0113 13.4572 50.9937C13.3943 50.9677 13.3406 50.9237 13.3029 50.8672C13.2651 50.8107 13.245 50.7442 13.2451 50.6762V45.7997C13.2452 45.7086 13.2814 45.6213 13.3458 45.5569L25.2155 33.6872C25.28 33.6228 25.3675 33.5867 25.4586 33.5867C25.5497 33.5867 25.6371 33.6228 25.7017 33.6872L28.9205 36.906L35.6389 30.191C35.7033 30.1266 35.7906 30.0905 35.8816 30.0905C35.9726 30.0905 36.0599 30.1266 36.1243 30.191L39.3031 33.3691L46.1376 26.5347L44.5598 24.9576C44.5171 24.915 44.4864 24.8619 44.4708 24.8036C44.4552 24.7453 44.4551 24.684 44.4708 24.6257C44.4864 24.5674 44.5171 24.5143 44.5597 24.4717C44.6024 24.429 44.6556 24.3984 44.7139 24.3828L53.0173 22.1582C53.0756 22.1426 53.1369 22.1426 53.1952 22.1582C53.2535 22.1737 53.3066 22.2044 53.3493 22.2471C53.3919 22.2897 53.4226 22.3429 53.4382 22.4011C53.4538 22.4594 53.4538 22.5208 53.4381 22.579L51.2122 30.8825C51.1966 30.9408 51.166 30.9939 51.1234 31.0366C51.0807 31.0793 51.0276 31.11 50.9693 31.1256C50.911 31.1412 50.8497 31.1412 50.7914 31.1256C50.7331 31.1099 50.68 31.0792 50.6374 31.0365L49.0617 29.4588L39.5465 38.9739C39.5147 39.0059 39.4768 39.0314 39.4351 39.0487C39.3934 39.0661 39.3487 39.075 39.3035 39.075C39.2583 39.075 39.2136 39.0661 39.1719 39.0487C39.1301 39.0314 39.0923 39.0059 39.0604 38.9739L35.8816 35.7957L32.9408 38.7372C32.8765 38.8016 32.7891 38.8379 32.698 38.8379C32.6069 38.838 32.5195 38.8019 32.4551 38.7375C32.3906 38.6731 32.3543 38.5858 32.3543 38.4947C32.3542 38.4036 32.3903 38.3162 32.4547 38.2517L35.6395 35.0676C35.6713 35.0355 35.7091 35.0101 35.7508 34.9928C35.7925 34.9755 35.8371 34.9665 35.8823 34.9665C35.9274 34.9665 35.9721 34.9755 36.0137 34.9928C36.0554 35.0101 36.0932 35.0355 36.125 35.0676L39.3031 38.2477L48.8183 28.7299C48.8828 28.6656 48.9702 28.6294 49.0613 28.6294C49.1525 28.6294 49.2399 28.6656 49.3044 28.7299L50.7047 30.1303L52.6206 22.9771L45.4667 24.8923L46.8671 26.2926C46.899 26.3245 46.9244 26.3624 46.9417 26.4041C46.959 26.4458 46.9679 26.4906 46.9679 26.5357C46.9679 26.5809 46.959 26.6256 46.9417 26.6673C46.9244 26.709 46.899 26.7469 46.8671 26.7788L39.5465 34.098C39.482 34.1624 39.3946 34.1985 39.3035 34.1985C39.2123 34.1985 39.1249 34.1624 39.0604 34.098L35.8816 30.9198L29.1659 37.6342C29.1341 37.6662 29.0963 37.6916 29.0546 37.709C29.0129 37.7263 28.9683 37.7353 28.9231 37.7353C28.878 37.7353 28.8333 37.7263 28.7917 37.709C28.75 37.6916 28.7122 37.6662 28.6804 37.6342L25.4609 34.4154L13.936 45.9424V49.8467L25.2182 38.5631C25.25 38.5311 25.2879 38.5057 25.3296 38.4883C25.3713 38.471 25.4161 38.462 25.4613 38.462C25.5064 38.462 25.5512 38.471 25.5929 38.4883C25.6346 38.5057 25.6725 38.5311 25.7043 38.5631L28.9231 41.782L30.9823 39.7234C31.0143 39.6916 31.0521 39.6663 31.0938 39.649C31.1355 39.6318 31.1802 39.623 31.2253 39.623C31.2704 39.623 31.3151 39.6319 31.3567 39.6492C31.3984 39.6665 31.4363 39.6918 31.4681 39.7238C31.5 39.7557 31.5253 39.7936 31.5425 39.8353C31.5598 39.8769 31.5686 39.9216 31.5686 39.9667C31.5685 40.0118 31.5596 40.0565 31.5423 40.0982C31.525 40.1398 31.4997 40.1777 31.4678 40.2096L29.1659 42.5108C29.1015 42.5751 29.0142 42.6113 28.9231 42.6113C28.8321 42.6113 28.7448 42.5751 28.6804 42.5108L25.4609 39.292L13.8333 50.9176C13.8016 50.9499 13.7638 50.9755 13.7221 50.993C13.6805 51.0105 13.6357 51.0196 13.5905 51.0197Z" fill="#282C3F"/>
<path d="M23.0402 50.7314H18.7451V57.4958H23.0402V50.7314Z" fill="#A09CAD"/>
<path d="M27.3351 44.7178H23.04V57.4957H27.3351V44.7178Z" fill="#A09CAD"/>
<path d="M31.6301 49.2275H27.335V57.4957H31.6301V49.2275Z" fill="#A09CAD"/>
<path d="M35.925 45.4692H31.6299V57.4957H35.925V45.4692Z" fill="#A09CAD"/>
<path d="M40.2209 41.7109H35.9258V57.495H40.2209V41.7109Z" fill="#A09CAD"/>
<path d="M44.5158 45.4692H40.2207V57.495H44.5158V45.4692Z" fill="#A09CAD"/>
<path d="M48.8107 37.5449H44.5156V57.4954H48.8107V37.5449Z" fill="#A09CAD"/>
<path d="M53.1057 33.7861H48.8105V57.4949H53.1057V33.7861Z" fill="#A09CAD"/>
<path d="M23.0402 53.6582H18.7451V57.4959H23.0402V53.6582Z" fill="#B8B5C6"/>
<path d="M27.3351 50.2466H23.04V57.4958H27.3351V50.2466Z" fill="#B8B5C6"/>
<path d="M31.6301 52.8052H27.335V57.4957H31.6301V52.8052Z" fill="#B8B5C6"/>
<path d="M35.925 50.6733H31.6299V57.4958H35.925V50.6733Z" fill="#B8B5C6"/>
<path d="M40.2209 48.541H35.9258V57.4953H40.2209V48.541Z" fill="#B8B5C6"/>
<path d="M44.5158 50.6733H40.2207V57.4958H44.5158V50.6733Z" fill="#B8B5C6"/>
<path d="M48.8107 46.1768H44.5156V57.495H48.8107V46.1768Z" fill="#B8B5C6"/>
<path d="M53.1057 44.0449H48.8105V57.4957H53.1057V44.0449Z" fill="#B8B5C6"/>
<path d="M23.0406 57.8391H18.7455C18.7003 57.8392 18.6556 57.8304 18.6138 57.8132C18.5721 57.796 18.5341 57.7707 18.5022 57.7388C18.4702 57.7069 18.4449 57.669 18.4276 57.6273C18.4103 57.5856 18.4014 57.5409 18.4014 57.4957V50.7313C18.4014 50.64 18.4376 50.5525 18.5021 50.488C18.5667 50.4235 18.6542 50.3872 18.7455 50.3872H23.0406C23.1317 50.3874 23.2191 50.4237 23.2834 50.4882C23.3478 50.5527 23.384 50.6402 23.384 50.7313V57.4957C23.384 57.5868 23.3478 57.6741 23.2834 57.7385C23.219 57.8029 23.1316 57.8391 23.0406 57.8391ZM19.0889 57.1523H22.6965V51.0747H19.0889V57.1523Z" fill="#282C3F"/>
<path d="M27.3355 57.8394H23.0404C22.9952 57.8394 22.9505 57.8306 22.9088 57.8134C22.867 57.7962 22.8291 57.7709 22.7971 57.739C22.7652 57.7071 22.7398 57.6692 22.7225 57.6275C22.7052 57.5858 22.6963 57.5411 22.6963 57.4959V44.716C22.6963 44.6708 22.7052 44.6261 22.7225 44.5844C22.7398 44.5427 22.7652 44.5048 22.7971 44.4729C22.8291 44.441 22.867 44.4157 22.9088 44.3985C22.9505 44.3813 22.9952 44.3725 23.0404 44.3726H27.3355C27.4266 44.3726 27.5139 44.4087 27.5783 44.4731C27.6427 44.5376 27.6789 44.6249 27.6789 44.716V57.4959C27.6789 57.587 27.6427 57.6744 27.5783 57.7388C27.5139 57.8032 27.4266 57.8394 27.3355 57.8394ZM23.3838 57.1525H26.9914V45.0614H23.3838V57.1525Z" fill="#282C3F"/>
<path d="M31.6304 57.8394H27.3353C27.2901 57.8395 27.2454 57.8307 27.2037 57.8135C27.1619 57.7963 27.124 57.771 27.092 57.7391C27.0601 57.7072 27.0347 57.6693 27.0174 57.6276C27.0001 57.5859 26.9912 57.5412 26.9912 57.496V49.2272C26.9912 49.1821 27.0001 49.1373 27.0174 49.0956C27.0347 49.0539 27.0601 49.016 27.092 48.9841C27.124 48.9522 27.1619 48.927 27.2037 48.9097C27.2454 48.8925 27.2901 48.8837 27.3353 48.8838H31.6304C31.6755 48.8837 31.7202 48.8925 31.7619 48.9098C31.8036 48.927 31.8415 48.9523 31.8734 48.9842C31.9053 49.0161 31.9306 49.054 31.9479 49.0957C31.9651 49.1374 31.9739 49.1821 31.9738 49.2272V57.496C31.9739 57.5411 31.9651 57.5858 31.9479 57.6275C31.9306 57.6692 31.9053 57.7071 31.8734 57.739C31.8415 57.7709 31.8036 57.7962 31.7619 57.8135C31.7202 57.8307 31.6755 57.8395 31.6304 57.8394ZM27.6787 57.1526H31.287V49.572H27.6787V57.1526Z" fill="#282C3F"/>
<path d="M35.9256 57.8392H31.6305C31.5854 57.8393 31.5407 57.8305 31.499 57.8133C31.4573 57.796 31.4194 57.7708 31.3875 57.7389C31.3556 57.7069 31.3303 57.6691 31.3131 57.6273C31.2958 57.5856 31.287 57.5409 31.2871 57.4958V45.4694C31.287 45.4243 31.2958 45.3796 31.3131 45.3379C31.3303 45.2962 31.3556 45.2583 31.3875 45.2264C31.4194 45.1945 31.4573 45.1692 31.499 45.1519C31.5407 45.1347 31.5854 45.1259 31.6305 45.126H35.9256C35.9708 45.1259 36.0155 45.1347 36.0572 45.1519C36.0989 45.1692 36.1368 45.1945 36.1687 45.2264C36.2006 45.2583 36.2259 45.2962 36.2431 45.3379C36.2603 45.3796 36.2691 45.4243 36.2691 45.4694V57.4958C36.2691 57.5409 36.2603 57.5856 36.2431 57.6273C36.2259 57.6691 36.2006 57.7069 36.1687 57.7389C36.1368 57.7708 36.0989 57.796 36.0572 57.8133C36.0155 57.8305 35.9708 57.8393 35.9256 57.8392ZM31.974 57.1524H35.5822V45.8162H31.974V57.1524Z" fill="#282C3F"/>
<path d="M40.2206 57.8392H35.9255C35.8803 57.8392 35.8356 57.8303 35.7939 57.813C35.7522 57.7957 35.7143 57.7704 35.6824 57.7384C35.6505 57.7065 35.6252 57.6685 35.608 57.6268C35.5908 57.585 35.5819 57.5403 35.582 57.4952V41.7111C35.582 41.62 35.6182 41.5327 35.6826 41.4683C35.747 41.4039 35.8344 41.3677 35.9255 41.3677H40.2206C40.3116 41.3677 40.399 41.4039 40.4634 41.4683C40.5278 41.5327 40.564 41.62 40.564 41.7111V57.4952C40.5641 57.5403 40.5552 57.585 40.538 57.6268C40.5208 57.6685 40.4955 57.7065 40.4636 57.7384C40.4317 57.7704 40.3938 57.7957 40.3521 57.813C40.3104 57.8303 40.2657 57.8392 40.2206 57.8392ZM36.2689 57.1517H39.8758V42.0552H36.2689V57.1517Z" fill="#282C3F"/>
<path d="M44.5155 57.8392H40.2204C40.1752 57.8392 40.1305 57.8303 40.0888 57.813C40.0471 57.7957 40.0092 57.7704 39.9773 57.7384C39.9454 57.7065 39.9201 57.6685 39.9029 57.6268C39.8857 57.585 39.8769 57.5403 39.877 57.4952V45.4694C39.8769 45.4243 39.8857 45.3796 39.9029 45.3379C39.9201 45.2962 39.9454 45.2583 39.9773 45.2264C40.0092 45.1945 40.0471 45.1692 40.0888 45.1519C40.1306 45.1347 40.1752 45.1259 40.2204 45.126H44.5155C44.5606 45.1259 44.6053 45.1347 44.647 45.1519C44.6887 45.1692 44.7266 45.1945 44.7585 45.2264C44.7904 45.2583 44.8157 45.2962 44.8329 45.3379C44.8502 45.3796 44.859 45.4243 44.8589 45.4694V57.4952C44.859 57.5403 44.8502 57.585 44.833 57.6268C44.8157 57.6685 44.7904 57.7065 44.7586 57.7384C44.7267 57.7704 44.6888 57.7957 44.6471 57.813C44.6053 57.8303 44.5606 57.8392 44.5155 57.8392ZM40.5638 57.1517H44.1721V45.8155H40.5638V57.1517Z" fill="#282C3F"/>
<path d="M48.8111 57.8391H44.5153C44.4701 57.8391 44.4254 57.8302 44.3837 57.8129C44.342 57.7956 44.3041 57.7703 44.2722 57.7383C44.2403 57.7064 44.215 57.6684 44.1978 57.6267C44.1806 57.5849 44.1718 57.5402 44.1719 57.4951V37.5446C44.1718 37.4995 44.1806 37.4548 44.1978 37.4131C44.2151 37.3714 44.2404 37.3335 44.2723 37.3016C44.3042 37.2697 44.3421 37.2444 44.3838 37.2271C44.4255 37.2099 44.4702 37.2011 44.5153 37.2012H48.8111C48.8562 37.2011 48.9009 37.2099 48.9426 37.2271C48.9843 37.2444 49.0222 37.2697 49.0541 37.3016C49.086 37.3335 49.1113 37.3714 49.1285 37.4131C49.1458 37.4548 49.1546 37.4995 49.1545 37.5446V57.4951C49.1546 57.5402 49.1458 57.5849 49.1285 57.6267C49.1113 57.6684 49.086 57.7064 49.0541 57.7383C49.0222 57.7703 48.9844 57.7956 48.9426 57.8129C48.9009 57.8302 48.8562 57.8391 48.8111 57.8391ZM44.8594 57.1516H48.4676V37.888H44.8587L44.8594 57.1516Z" fill="#282C3F"/>
<path d="M53.1056 57.8386H48.8112C48.7661 57.8386 48.7214 57.8298 48.6797 57.8126C48.638 57.7954 48.6001 57.7701 48.5682 57.7382C48.5363 57.7063 48.511 57.6684 48.4937 57.6267C48.4765 57.585 48.4677 57.5403 48.4678 57.4951V33.7864C48.4685 33.6958 48.505 33.6092 48.5693 33.5455C48.6337 33.4818 48.7206 33.4461 48.8112 33.4463H53.1056C53.1508 33.4462 53.1955 33.455 53.2373 33.4722C53.279 33.4895 53.3169 33.5147 53.3489 33.5466C53.3809 33.5785 53.4062 33.6164 53.4235 33.6581C53.4408 33.6998 53.4497 33.7446 53.4497 33.7897V57.4951C53.4497 57.5403 53.4408 57.585 53.4235 57.6267C53.4062 57.6684 53.3809 57.7063 53.3489 57.7382C53.3169 57.7701 53.279 57.7954 53.2373 57.8126C53.1955 57.8298 53.1508 57.8386 53.1056 57.8386ZM49.154 57.1517H52.7622V34.1298H49.154V57.1517Z" fill="#282C3F"/>
<path d="M28.7093 10.077H25.9606C25.8695 10.077 25.7822 10.0408 25.7178 9.97639C25.6534 9.91199 25.6172 9.82464 25.6172 9.73356C25.6172 9.64248 25.6534 9.55513 25.7178 9.49072C25.7822 9.42632 25.8695 9.39014 25.9606 9.39014H28.7093C28.8004 9.39014 28.8877 9.42632 28.9522 9.49072C29.0166 9.55513 29.0527 9.64248 29.0527 9.73356C29.0527 9.82464 29.0166 9.91199 28.9522 9.97639C28.8877 10.0408 28.8004 10.077 28.7093 10.077Z" fill="#989AA6"/>
<path d="M27.3347 11.4514C27.2895 11.4514 27.2448 11.4426 27.203 11.4254C27.1613 11.4082 27.1233 11.3829 27.0914 11.351C27.0594 11.3191 27.0341 11.2812 27.0168 11.2395C26.9995 11.1978 26.9906 11.1531 26.9906 11.1079V8.35923C26.9885 8.31282 26.9959 8.26647 27.0123 8.22298C27.0286 8.17949 27.0536 8.13976 27.0857 8.1062C27.1178 8.07263 27.1564 8.04591 27.1992 8.02766C27.2419 8.00941 27.2879 8 27.3343 8C27.3808 8 27.4268 8.00941 27.4695 8.02766C27.5122 8.04591 27.5508 8.07263 27.5829 8.1062C27.615 8.13976 27.64 8.17949 27.6564 8.22298C27.6727 8.26647 27.6801 8.31282 27.6781 8.35923V11.1073C27.6782 11.1524 27.6693 11.1972 27.6521 11.2389C27.6349 11.2806 27.6096 11.3186 27.5777 11.3505C27.5458 11.3825 27.5079 11.4079 27.4662 11.4252C27.4245 11.4425 27.3798 11.4514 27.3347 11.4514Z" fill="#989AA6"/>
<path d="M35.5816 19.3548H32.1454C32.0989 19.3569 32.0526 19.3495 32.0091 19.3332C31.9656 19.3168 31.9259 19.2918 31.8923 19.2597C31.8588 19.2276 31.832 19.189 31.8138 19.1462C31.7955 19.1035 31.7861 19.0575 31.7861 19.0111C31.7861 18.9646 31.7955 18.9186 31.8138 18.8759C31.832 18.8332 31.8588 18.7946 31.8923 18.7625C31.9259 18.7304 31.9656 18.7054 32.0091 18.689C32.0526 18.6727 32.0989 18.6653 32.1454 18.6673H35.5816C35.6701 18.6712 35.7538 18.7091 35.815 18.7732C35.8763 18.8372 35.9105 18.9224 35.9105 19.0111C35.9105 19.0997 35.8763 19.1849 35.815 19.249C35.7538 19.313 35.6701 19.3509 35.5816 19.3548Z" fill="#989AA6"/>
<path d="M33.8639 21.0728C33.8188 21.0729 33.7741 21.064 33.7324 21.0468C33.6907 21.0296 33.6528 21.0043 33.6209 20.9724C33.589 20.9405 33.5637 20.9026 33.5465 20.8609C33.5292 20.8192 33.5204 20.7745 33.5205 20.7293V17.2931C33.5205 17.248 33.5294 17.2034 33.5467 17.1617C33.5639 17.12 33.5892 17.0822 33.6211 17.0503C33.653 17.0184 33.6908 16.9931 33.7325 16.9758C33.7742 16.9586 33.8188 16.9497 33.8639 16.9497C33.909 16.9497 33.9537 16.9586 33.9953 16.9758C34.037 16.9931 34.0749 17.0184 34.1068 17.0503C34.1387 17.0822 34.164 17.12 34.1812 17.1617C34.1985 17.2034 34.2074 17.248 34.2074 17.2931V20.7293C34.2074 20.7745 34.1986 20.8192 34.1814 20.8609C34.1642 20.9026 34.1389 20.9405 34.107 20.9724C34.0751 21.0043 34.0372 21.0296 33.9955 21.0468C33.9538 21.064 33.9091 21.0729 33.8639 21.0728Z" fill="#989AA6"/>
<path d="M56.8853 14.5443H54.1366C54.048 14.5404 53.9644 14.5025 53.9031 14.4384C53.8418 14.3744 53.8076 14.2892 53.8076 14.2005C53.8076 14.1119 53.8418 14.0267 53.9031 13.9626C53.9644 13.8986 54.048 13.8607 54.1366 13.8568H56.8853C56.9317 13.8547 56.978 13.8621 57.0215 13.8785C57.065 13.8948 57.1047 13.9198 57.1383 13.9519C57.1719 13.9841 57.1986 14.0226 57.2168 14.0654C57.2351 14.1081 57.2445 14.1541 57.2445 14.2005C57.2445 14.247 57.2351 14.293 57.2168 14.3357C57.1986 14.3784 57.1719 14.417 57.1383 14.4491C57.1047 14.4813 57.065 14.5063 57.0215 14.5226C56.978 14.539 56.9317 14.5463 56.8853 14.5443Z" fill="#989AA6"/>
<path d="M55.5104 15.9188C55.4193 15.9188 55.332 15.8826 55.2676 15.8182C55.2032 15.7538 55.167 15.6665 55.167 15.5754V12.826C55.1709 12.7375 55.2088 12.6538 55.2729 12.5926C55.3369 12.5313 55.4221 12.4971 55.5107 12.4971C55.5994 12.4971 55.6846 12.5313 55.7486 12.5926C55.8127 12.6538 55.8506 12.7375 55.8545 12.826V15.5754C55.8543 15.6665 55.818 15.7539 55.7535 15.8183C55.689 15.8826 55.6016 15.9188 55.5104 15.9188Z" fill="#989AA6"/>
<path d="M63.7573 35.8467H60.3211C60.2326 35.8428 60.149 35.8049 60.0877 35.7408C60.0264 35.6768 59.9922 35.5916 59.9922 35.5029C59.9922 35.4143 60.0264 35.3291 60.0877 35.265C60.149 35.201 60.2326 35.1631 60.3211 35.1592H63.7573C63.8459 35.1631 63.9295 35.201 63.9908 35.265C64.0521 35.3291 64.0863 35.4143 64.0863 35.5029C64.0863 35.5916 64.0521 35.6768 63.9908 35.7408C63.9295 35.8049 63.8459 35.8428 63.7573 35.8467Z" fill="#989AA6"/>
<path d="M64.6264 48.9963H61.5149C61.4625 48.9985 61.4101 48.99 61.361 48.9714C61.3119 48.9529 61.2671 48.9246 61.2292 48.8882C61.1913 48.8519 61.1612 48.8082 61.1406 48.7599C61.12 48.7117 61.1094 48.6597 61.1094 48.6072C61.1094 48.5547 61.12 48.5028 61.1406 48.4545C61.1612 48.4062 61.1913 48.3625 61.2292 48.3262C61.2671 48.2899 61.3119 48.2615 61.361 48.243C61.4101 48.2244 61.4625 48.2159 61.5149 48.2181H64.6264C64.7268 48.2223 64.8217 48.2651 64.8913 48.3376C64.9609 48.4101 64.9997 48.5067 64.9997 48.6072C64.9997 48.7077 64.9609 48.8043 64.8913 48.8768C64.8217 48.9493 64.7268 48.9921 64.6264 48.9963Z" fill="#989AA6"/>
<path d="M10.8413 59.5576H7.40512C7.31657 59.5537 7.23294 59.5158 7.17166 59.4518C7.11038 59.3877 7.07617 59.3025 7.07617 59.2139C7.07617 59.1252 7.11038 59.04 7.17166 58.976C7.23294 58.9119 7.31657 58.874 7.40512 58.8701H10.8413C10.9299 58.874 11.0135 58.9119 11.0748 58.976C11.1361 59.04 11.1703 59.1252 11.1703 59.2139C11.1703 59.3025 11.1361 59.3877 11.0748 59.4518C11.0135 59.5158 10.9299 59.5537 10.8413 59.5576Z" fill="#989AA6"/>
<path d="M9.12272 61.2756C9.03164 61.2756 8.94429 61.2394 8.87988 61.175C8.81548 61.1106 8.7793 61.0232 8.7793 60.9322V57.4959C8.7832 57.4074 8.82112 57.3238 8.88516 57.2625C8.9492 57.2012 9.03442 57.167 9.12305 57.167C9.21169 57.167 9.29691 57.2012 9.36095 57.2625C9.42499 57.3238 9.46291 57.4074 9.46681 57.4959V60.9322C9.46681 60.9773 9.4579 61.022 9.4406 61.0637C9.4233 61.1054 9.39795 61.1433 9.36599 61.1752C9.33403 61.2071 9.29609 61.2324 9.25435 61.2496C9.2126 61.2668 9.16787 61.2757 9.12272 61.2756Z" fill="#989AA6"/>
<path d="M8.09297 43.064H5.34359C5.25504 43.0601 5.17141 43.0222 5.11013 42.9581C5.04885 42.8941 5.01465 42.8089 5.01465 42.7202C5.01465 42.6316 5.04885 42.5464 5.11013 42.4823C5.17141 42.4183 5.25504 42.3804 5.34359 42.3765H8.09297C8.18152 42.3804 8.26514 42.4183 8.32643 42.4823C8.38771 42.5464 8.42191 42.6316 8.42191 42.7202C8.42191 42.8089 8.38771 42.8941 8.32643 42.9581C8.26514 43.0222 8.18152 43.0601 8.09297 43.064Z" fill="#989AA6"/>
<path d="M6.71745 44.4383C6.62642 44.4382 6.53917 44.4019 6.4748 44.3376C6.41044 44.2732 6.3742 44.1859 6.37402 44.0949V41.3455C6.37792 41.257 6.41585 41.1734 6.47989 41.1121C6.54393 41.0508 6.62914 41.0166 6.71778 41.0166C6.80641 41.0166 6.89163 41.0508 6.95567 41.1121C7.01971 41.1734 7.05763 41.257 7.06153 41.3455V44.0949C7.06136 44.1861 7.02503 44.2734 6.96052 44.3378C6.89601 44.4022 6.80859 44.4383 6.71745 44.4383Z" fill="#989AA6"/>
<path d="M9.46781 14.8875H5.34342C5.25234 14.8875 5.16499 14.8513 5.10059 14.7869C5.03618 14.7225 5 14.6352 5 14.5441C5 14.453 5.03618 14.3657 5.10059 14.3013C5.16499 14.2369 5.25234 14.2007 5.34342 14.2007H9.46781C9.5589 14.2007 9.64625 14.2369 9.71065 14.3013C9.77505 14.3657 9.81124 14.453 9.81124 14.5441C9.81124 14.6352 9.77505 14.7225 9.71065 14.7869C9.64625 14.8513 9.5589 14.8875 9.46781 14.8875Z" fill="#989AA6"/>
<path d="M7.40495 16.9492C7.31386 16.9492 7.22651 16.9131 7.16211 16.8487C7.09771 16.7843 7.06152 16.6969 7.06152 16.6058V12.4821C7.06152 12.391 7.09771 12.3037 7.16211 12.2393C7.22651 12.1749 7.31386 12.1387 7.40495 12.1387C7.49603 12.1387 7.58338 12.1749 7.64778 12.2393C7.71218 12.3037 7.74837 12.391 7.74837 12.4821V16.6058C7.74837 16.6969 7.71218 16.7843 7.64778 16.8487C7.58338 16.9131 7.49603 16.9492 7.40495 16.9492Z" fill="#989AA6"/>
<path d="M29.1234 31.4379H11.9844V20.0116L20.5539 14.2988L29.1234 20.0116V31.4379Z" fill="#989AA6"/>
<path d="M29.1225 31.4379H13.3018L13.9613 21.0006L20.553 15.9473L29.1225 20.0116V31.4379Z" fill="#30354C"/>
<path d="M29.1224 31.7679H11.9847C11.8975 31.7669 11.8142 31.7317 11.7527 31.67C11.6911 31.6083 11.6561 31.525 11.6553 31.4378V20.0116C11.6552 19.9573 11.6686 19.9039 11.6942 19.8561C11.7198 19.8083 11.7568 19.7675 11.802 19.7375L20.3702 14.0247C20.4243 13.9885 20.4878 13.9692 20.5529 13.9692C20.6179 13.9692 20.6815 13.9885 20.7356 14.0247L29.3051 19.7375C29.3503 19.7675 29.3873 19.8083 29.4129 19.8561C29.4385 19.9039 29.4519 19.9573 29.4518 20.0116V31.4378C29.451 31.525 29.416 31.6083 29.3544 31.67C29.2929 31.7317 29.2096 31.7669 29.1224 31.7679ZM12.3128 31.1084H28.793V20.1883L20.5529 14.6949L12.3128 20.1883V31.1084Z" fill="#282C3F"/>
<path d="M30.4414 21.2205C30.3763 21.2205 30.3127 21.2013 30.2586 21.1652L20.5535 14.6969L10.8483 21.1652C10.7755 21.2136 10.6865 21.2312 10.6008 21.214C10.515 21.1968 10.4397 21.1463 10.3912 21.0735C10.3427 21.0007 10.3252 20.9117 10.3424 20.826C10.3596 20.7402 10.4101 20.6648 10.4829 20.6164L20.3708 14.0247C20.4248 13.9885 20.4884 13.9692 20.5535 13.9692C20.6185 13.9692 20.6821 13.9885 20.7362 14.0247L30.6241 20.6164C30.6832 20.6555 30.7281 20.7126 30.7522 20.7793C30.7762 20.846 30.7781 20.9186 30.7576 20.9865C30.7371 21.0543 30.6952 21.1137 30.6383 21.1559C30.5813 21.1981 30.5122 21.2207 30.4414 21.2205Z" fill="#282C3F"/>
<path d="M15.6094 21.2205L20.5533 17.9243L25.4972 21.2205H15.6094Z" fill="#EDEDED"/>
<path d="M15.6094 21.2205L20.1145 18.2178L22.2011 21.2205H15.6094Z" fill="white"/>
<path d="M25.4975 21.5498H15.6096C15.539 21.5498 15.4701 21.5271 15.4134 21.485C15.3566 21.4428 15.3149 21.3835 15.2944 21.3159C15.2739 21.2482 15.2757 21.1758 15.2996 21.1092C15.3235 21.0427 15.3681 20.9856 15.4269 20.9464L20.3709 17.6502C20.4249 17.614 20.4885 17.5947 20.5536 17.5947C20.6186 17.5947 20.6822 17.614 20.7363 17.6502L25.6802 20.9464C25.739 20.9856 25.7837 21.0427 25.8075 21.1092C25.8314 21.1758 25.8332 21.2482 25.8128 21.3159C25.7923 21.3835 25.7506 21.4428 25.6938 21.485C25.637 21.5271 25.5682 21.5498 25.4975 21.5498ZM16.6986 20.891H24.4092L20.5536 18.3204L16.6986 20.891Z" fill="#282C3F"/>
<path d="M19.5644 23.1982H15.6094V31.4384H19.5644V23.1982Z" fill="#B8B5C6"/>
<path d="M19.5644 29.79L15.6094 30.4495V31.4378H19.5644V29.79Z" fill="#A09CAD"/>
<path d="M19.5647 31.7678H15.6097C15.5225 31.7667 15.4392 31.7316 15.3777 31.6699C15.3161 31.6082 15.2811 31.5249 15.2803 31.4377V23.1982C15.2802 23.1549 15.2886 23.112 15.3052 23.072C15.3217 23.0319 15.3459 22.9955 15.3765 22.9649C15.4071 22.9342 15.4435 22.9099 15.4835 22.8933C15.5235 22.8767 15.5664 22.8682 15.6097 22.8682H19.5647C19.652 22.869 19.7354 22.9041 19.7972 22.9658C19.8589 23.0275 19.8939 23.111 19.8948 23.1982V31.4377C19.8939 31.525 19.8589 31.6084 19.7972 31.6701C19.7354 31.7319 19.652 31.7669 19.5647 31.7678ZM15.9364 31.1083H19.2326V23.5277H15.9364V31.1083Z" fill="#282C3F"/>
<path d="M25.497 23.1982H21.542V27.8128H25.497V23.1982Z" fill="#EDEDED"/>
<path d="M24.5081 23.1978H21.542V27.8123H23.5198L24.5081 23.1978Z" fill="white"/>
<path d="M25.4973 28.1422H21.5423C21.499 28.1422 21.4561 28.1336 21.4161 28.117C21.3761 28.1004 21.3397 28.0761 21.3091 28.0455C21.2785 28.0148 21.2543 27.9784 21.2378 27.9384C21.2213 27.8983 21.2128 27.8554 21.2129 27.8121V23.1982C21.2128 23.1549 21.2213 23.112 21.2378 23.072C21.2543 23.0319 21.2785 22.9955 21.3091 22.9649C21.3397 22.9342 21.3761 22.9099 21.4161 22.8933C21.4561 22.8767 21.499 22.8682 21.5423 22.8682H25.4973C25.5846 22.869 25.6681 22.9041 25.7298 22.9658C25.7915 23.0275 25.8265 23.111 25.8274 23.1982V27.8121C25.8265 27.8994 25.7915 27.9828 25.7298 28.0445C25.6681 28.1063 25.5846 28.1413 25.4973 28.1422ZM21.8711 27.4827H25.1672V23.5277H21.8711V27.4827Z" fill="#282C3F"/>
<path d="M18.5765 27.4831C18.7584 27.4831 18.9059 27.3356 18.9059 27.1536C18.9059 26.9717 18.7584 26.8242 18.5765 26.8242C18.3946 26.8242 18.2471 26.9717 18.2471 27.1536C18.2471 27.3356 18.3946 27.4831 18.5765 27.4831Z" fill="#282C3F"/>
<path d="M30.1118 31.7679H10.9949C10.91 31.7641 10.8299 31.7277 10.7712 31.6663C10.7125 31.6048 10.6797 31.5231 10.6797 31.4382C10.6797 31.3532 10.7125 31.2715 10.7712 31.21C10.8299 31.1486 10.91 31.1122 10.9949 31.1084H30.1118C30.1967 31.1122 30.2769 31.1486 30.3356 31.21C30.3943 31.2715 30.4271 31.3532 30.4271 31.4382C30.4271 31.5231 30.3943 31.6048 30.3356 31.6663C30.2769 31.7277 30.1967 31.7641 30.1118 31.7679Z" fill="#282C3F"/>
</svg>
