<svg width="71" height="71" viewBox="0 0 71 71" fill="none" xmlns="http://www.w3.org/2000/svg">
<path d="M55.1418 34.5747C53.7976 31.1078 55.1124 25.4995 52.1926 23.1539C49.3638 20.8807 44.1023 23.2404 40.2388 22.6277C36.3753 22.015 32.1321 18.1475 28.7212 19.4312C25.2017 20.7551 24.6642 26.4884 22.2801 29.3619C19.9719 32.1493 14.3415 33.7798 13.7192 37.5862C13.0969 41.3926 17.9227 44.6813 19.2256 48.0435C20.5699 51.5099 19.2551 57.1182 22.1749 59.4638C25.0037 61.737 30.2652 59.3773 34.1287 59.9905C37.9922 60.6038 42.2342 64.4702 45.6463 63.187C49.1658 61.8632 49.7055 56.1315 52.0868 53.2558C54.3956 50.4667 60.0237 48.8356 60.646 45.0304C61.2684 41.2251 56.4448 37.9347 55.1418 34.5747Z" fill="#F6F6F6"/>
<path d="M39.3251 11.3233C39.4522 11.0984 39.495 10.8357 39.446 10.5822C39.3969 10.3286 39.2592 10.1008 39.0574 9.9396C38.8557 9.77837 38.6032 9.69425 38.345 9.70231C38.0869 9.71037 37.8401 9.81007 37.6488 9.98357C37.6156 9.72331 37.5306 9.47236 37.3986 9.2456C37.2666 9.01885 37.0904 8.82092 36.8805 8.66355C36.6706 8.50618 36.4312 8.39257 36.1765 8.32947C35.9218 8.26638 35.6571 8.25507 35.398 8.29623C35.1389 8.33739 34.8906 8.43017 34.6681 8.56908C34.4455 8.70798 34.2531 8.89017 34.1022 9.10485C33.9514 9.31952 33.8452 9.56231 33.79 9.81879C33.7348 10.0753 33.7316 10.3402 33.7808 10.598C33.5543 10.5502 33.3204 10.5505 33.0941 10.5989C32.8678 10.6473 32.6542 10.7427 32.4672 10.8789C32.2801 11.0152 32.1238 11.1892 32.0083 11.3898C31.8929 11.5903 31.8208 11.8129 31.7969 12.0431C31.773 12.2733 31.7977 12.5059 31.8695 12.7259C31.9413 12.9459 32.0585 13.1484 32.2135 13.3202C32.3686 13.492 32.558 13.6293 32.7695 13.7232C32.981 13.8171 33.2099 13.8654 33.4413 13.8652H39.0819C39.4009 13.8653 39.7086 13.7465 39.9448 13.5319C40.1809 13.3173 40.3286 13.0225 40.359 12.7048C40.3894 12.3872 40.3003 12.0696 40.1092 11.8142C39.918 11.5587 39.6384 11.3837 39.3251 11.3233Z" fill="white"/>
<path d="M39.3581 14.1416H33.7164C33.4606 14.1436 33.207 14.0948 32.9703 13.9979C32.7336 13.9009 32.5186 13.7579 32.3377 13.5771C32.1568 13.3963 32.0136 13.1813 31.9166 12.9446C31.8196 12.708 31.7706 12.4544 31.7725 12.1986C31.7744 11.9428 31.8272 11.69 31.9277 11.4548C32.0283 11.2196 32.1746 11.0068 32.3582 10.8287C32.5418 10.6506 32.759 10.5108 32.9971 10.4175C33.2352 10.3241 33.4895 10.279 33.7453 10.2849C33.7453 10.269 33.7453 10.2532 33.7453 10.2374C33.745 9.70533 33.9345 9.19065 34.2796 8.78574C34.6247 8.38083 35.1028 8.11221 35.6282 8.02812C36.1535 7.94403 36.6916 8.04997 37.1459 8.32693C37.6001 8.60388 37.9408 9.03371 38.1066 9.53922C38.3425 9.43536 38.6031 9.4005 38.858 9.43868C39.1129 9.47686 39.3518 9.58652 39.5469 9.75494C39.742 9.92336 39.8854 10.1436 39.9604 10.3902C40.0355 10.6368 40.0391 10.8997 39.9708 11.1482C40.3014 11.2892 40.5731 11.5401 40.74 11.8584C40.9068 12.1768 40.9586 12.543 40.8866 12.8951C40.8145 13.2472 40.623 13.5636 40.3445 13.7907C40.0659 14.0179 39.7175 14.1418 39.3581 14.1416ZM33.7164 10.8382C33.5359 10.8382 33.3571 10.8737 33.1903 10.9428C33.0235 11.0119 32.8719 11.1132 32.7443 11.2409C32.6166 11.3685 32.5154 11.5201 32.4463 11.6869C32.3772 11.8537 32.3416 12.0324 32.3416 12.213C32.3416 12.3935 32.3772 12.5723 32.4463 12.7391C32.5154 12.9059 32.6166 13.0574 32.7443 13.1851C32.8719 13.3127 33.0235 13.414 33.1903 13.4831C33.3571 13.5522 33.5359 13.5877 33.7164 13.5877H39.3569C39.6077 13.5888 39.8498 13.4961 40.0357 13.3279C40.2217 13.1597 40.338 12.928 40.362 12.6784C40.3859 12.4288 40.3157 12.1793 40.1652 11.9788C40.0146 11.7782 39.7946 11.6412 39.5482 11.5946C39.505 11.5864 39.4644 11.568 39.4298 11.541C39.3951 11.5139 39.3674 11.479 39.349 11.4391C39.3306 11.3992 39.322 11.3555 39.3238 11.3116C39.3257 11.2677 39.338 11.2249 39.3598 11.1867C39.4545 11.0191 39.4864 10.8232 39.4498 10.6342C39.4133 10.4452 39.3106 10.2754 39.1602 10.1552C39.0098 10.035 38.8215 9.97231 38.629 9.97835C38.4366 9.98439 38.2526 10.0588 38.11 10.1881C38.0726 10.2222 38.0265 10.2453 37.9768 10.255C37.9271 10.2647 37.8758 10.2605 37.8283 10.243C37.7808 10.2255 37.739 10.1953 37.7075 10.1557C37.676 10.1161 37.6559 10.0686 37.6495 10.0184C37.5952 9.59368 37.3811 9.20562 37.0506 8.93329C36.7202 8.66096 36.2984 8.52485 35.8711 8.55269C35.4438 8.58053 35.0433 8.77023 34.751 9.08313C34.4587 9.39604 34.2967 9.80861 34.298 10.2368C34.2982 10.3407 34.3082 10.4443 34.328 10.5463C34.3362 10.591 34.3333 10.637 34.3196 10.6804C34.3059 10.7237 34.2818 10.763 34.2493 10.7948C34.2169 10.8267 34.1771 10.8501 34.1335 10.863C34.0899 10.8758 34.0438 10.8778 33.9993 10.8687C33.9063 10.8486 33.8115 10.8384 33.7164 10.8382Z" fill="#989AA6"/>
<path d="M25.2607 31.1444C25.3393 31.0065 25.3803 30.8504 25.3795 30.6918C25.3799 30.5147 25.3288 30.3412 25.2325 30.1926C25.1362 30.044 24.9987 29.9266 24.8369 29.8547C24.6751 29.7828 24.4958 29.7594 24.3209 29.7875C24.1461 29.8156 23.9832 29.8939 23.852 30.0129C23.7945 29.6006 23.5832 29.2253 23.2605 28.9623C22.9378 28.6994 22.5276 28.5683 22.1122 28.5953C21.6968 28.6223 21.307 28.8054 21.0211 29.1079C20.7351 29.4104 20.5742 29.8099 20.5706 30.2261C20.5708 30.3279 20.5807 30.4295 20.6 30.5294C20.4098 30.4896 20.2132 30.4902 20.0232 30.5311C19.8332 30.572 19.6538 30.6524 19.4968 30.767C19.3398 30.8816 19.2086 31.0279 19.1117 31.1964C19.0148 31.3649 18.9543 31.5519 18.9342 31.7453C18.9141 31.9386 18.9348 32.134 18.995 32.3189C19.0552 32.5037 19.1535 32.6739 19.2836 32.8183C19.4137 32.9628 19.5726 33.0783 19.7502 33.1575C19.9277 33.2366 20.1199 33.2776 20.3143 33.2778H25.0598C25.328 33.2774 25.5863 33.1772 25.7846 32.9967C25.9829 32.8163 26.1068 32.5684 26.1323 32.3015C26.1578 32.0346 26.083 31.7678 25.9225 31.553C25.762 31.3383 25.5273 31.191 25.2641 31.1398L25.2607 31.1444Z" fill="white"/>
<path d="M25.0566 33.5606H20.3111C20.0923 33.562 19.8754 33.5202 19.6727 33.4377C19.4701 33.3552 19.2857 33.2336 19.13 33.0798C18.8156 32.7693 18.6375 32.3465 18.6348 31.9047C18.6321 31.4628 18.805 31.0379 19.1156 30.7235C19.4261 30.4092 19.8489 30.231 20.2908 30.2283C20.2893 29.7736 20.4491 29.333 20.7417 28.9848C21.0343 28.6367 21.4408 28.4034 21.889 28.3265C22.3372 28.2496 22.7982 28.334 23.1901 28.5647C23.582 28.7954 23.8795 29.1575 24.0298 29.5868C24.2325 29.5067 24.4533 29.4838 24.6681 29.5205C24.8829 29.5572 25.0836 29.6521 25.2482 29.7949C25.4129 29.9377 25.5352 30.123 25.6018 30.3305C25.6685 30.538 25.677 30.7598 25.6264 30.9717C25.9052 31.1024 26.1312 31.324 26.2675 31.6001C26.4039 31.8762 26.4423 32.1904 26.3765 32.4912C26.3107 32.792 26.1446 33.0615 25.9055 33.2555C25.6664 33.4495 25.3685 33.5565 25.0606 33.5589L25.0566 33.5606ZM20.3111 30.7816C20.016 30.7816 19.7329 30.8989 19.5242 31.1076C19.3155 31.3163 19.1983 31.5993 19.1983 31.8945C19.1983 32.1896 19.3155 32.4727 19.5242 32.6814C19.7329 32.8901 20.016 33.0073 20.3111 33.0073H25.0566C25.2561 33.0071 25.4482 32.9327 25.5957 32.7985C25.7433 32.6643 25.8355 32.48 25.8545 32.2815C25.8735 32.083 25.8179 31.8846 25.6985 31.7248C25.5792 31.5651 25.4046 31.4556 25.2088 31.4175C25.1657 31.4092 25.1252 31.3908 25.0907 31.3637C25.0561 31.3367 25.0285 31.3018 25.0101 31.2619C24.9916 31.222 24.983 31.1784 24.9848 31.1345C24.9866 31.0907 24.9988 31.0478 25.0204 31.0096C25.0959 30.8777 25.1217 30.7231 25.0932 30.5738C25.0648 30.4244 24.9839 30.2902 24.8652 30.1953C24.7465 30.1003 24.5978 30.0509 24.4458 30.0559C24.2939 30.0609 24.1488 30.1201 24.0366 30.2227C23.9991 30.2567 23.9531 30.2798 23.9034 30.2895C23.8537 30.2992 23.8023 30.2951 23.7548 30.2776C23.7073 30.2601 23.6656 30.2299 23.634 30.1903C23.6025 30.1507 23.5825 30.1032 23.5761 30.053C23.5523 29.8712 23.4924 29.696 23.3998 29.5378C23.3072 29.3796 23.1839 29.2416 23.037 29.1319C22.8902 29.0222 22.7228 28.943 22.5448 28.8991C22.3669 28.8552 22.1819 28.8474 22.0009 28.8762C21.8199 28.905 21.6464 28.9697 21.4909 29.0667C21.3353 29.1637 21.2008 29.2908 21.0952 29.4407C20.9896 29.5905 20.9151 29.76 20.8762 29.9391C20.8372 30.1182 20.8346 30.3033 20.8684 30.4835C20.8767 30.5282 20.8739 30.5743 20.8602 30.6177C20.8464 30.6611 20.8222 30.7004 20.7896 30.7322C20.7571 30.764 20.7172 30.7872 20.6735 30.7999C20.6298 30.8126 20.5836 30.8143 20.5391 30.8048C20.4642 30.7887 20.3878 30.7803 20.3111 30.7799V30.7816Z" fill="#989AA6"/>
<path d="M54.221 48.424C54.112 48.2321 54.075 48.0077 54.1167 47.791C54.1584 47.5742 54.276 47.3795 54.4484 47.2417C54.6208 47.104 54.8367 47.0322 55.0573 47.0393C55.2778 47.0465 55.4886 47.132 55.6518 47.2807C55.6813 47.0596 55.7547 46.8466 55.8678 46.6544C55.9809 46.4621 56.1313 46.2944 56.3101 46.1612C56.489 46.028 56.6927 45.9318 56.9093 45.8785C57.1258 45.8252 57.3509 45.8158 57.5712 45.8508C57.7914 45.8858 58.0025 45.9645 58.1919 46.0823C58.3813 46.2001 58.5452 46.3546 58.6739 46.5367C58.8027 46.7189 58.8937 46.9249 58.9416 47.1427C58.9895 47.3606 58.9934 47.5858 58.9529 47.8051C59.1462 47.7642 59.3459 47.7644 59.5391 47.8056C59.7323 47.8469 59.9146 47.9283 60.0743 48.0446C60.234 48.1608 60.3675 48.3094 60.466 48.4806C60.5646 48.6517 60.6261 48.8417 60.6465 49.0382C60.6669 49.2347 60.6458 49.4333 60.5845 49.6211C60.5232 49.8089 60.4232 49.9817 60.2908 50.1283C60.1584 50.2749 59.9967 50.392 59.8161 50.4721C59.6355 50.5522 59.4401 50.5934 59.2426 50.5931H54.4286C54.1559 50.594 53.8927 50.4929 53.6906 50.3098C53.4885 50.1267 53.362 49.8747 53.336 49.6032C53.31 49.3317 53.3864 49.0603 53.5501 48.8422C53.7138 48.6241 53.9531 48.4749 54.221 48.424Z" fill="white"/>
<path d="M59.2429 50.8726H54.429C54.1148 50.8741 53.8097 50.7678 53.5646 50.5713C53.3194 50.3749 53.1492 50.1002 53.0823 49.7933C53.0153 49.4864 53.0558 49.1658 53.197 48.8851C53.3381 48.6045 53.5713 48.3808 53.8576 48.2514C53.8054 48.0368 53.8132 47.8119 53.8802 47.6014C53.9472 47.3909 54.0708 47.2029 54.2375 47.0579C54.4042 46.913 54.6076 46.8166 54.8253 46.7795C55.0431 46.7423 55.2669 46.7657 55.4722 46.8472C55.6255 46.4137 55.9271 46.0484 56.3237 45.8157C56.7203 45.5831 57.1864 45.4982 57.6395 45.576C58.0927 45.6538 58.5038 45.8893 58.8001 46.2409C59.0964 46.5924 59.2589 47.0375 59.2588 47.4973C59.7008 47.5072 60.1212 47.6904 60.4296 48.0073C60.7379 48.3241 60.9094 48.7494 60.9073 49.1916C60.9051 49.6337 60.7295 50.0573 60.4181 50.3712C60.1067 50.685 59.6845 50.8641 59.2424 50.8697L59.2429 50.8726ZM55.0292 47.3185C54.8564 47.3187 54.6907 47.3874 54.5685 47.5096C54.4463 47.6318 54.3776 47.7974 54.3775 47.9703C54.3772 48.0825 54.4063 48.1929 54.4618 48.2905C54.4835 48.3287 54.4959 48.3715 54.4977 48.4154C54.4996 48.4593 54.491 48.503 54.4725 48.5429C54.4541 48.5828 54.4264 48.6177 54.3918 48.6448C54.3572 48.6718 54.3166 48.6902 54.2734 48.6984C54.074 48.7374 53.8964 48.8493 53.7749 49.0121C53.6535 49.1749 53.597 49.3771 53.6164 49.5793C53.6358 49.7815 53.7297 49.9693 53.8799 50.1061C54.0301 50.2428 54.2258 50.3188 54.429 50.3193H59.2429C59.4005 50.3179 59.5561 50.2836 59.6997 50.2186C59.8432 50.1537 59.9717 50.0594 60.0767 49.9419C60.1817 49.8244 60.2611 49.6863 60.3096 49.5364C60.3582 49.3865 60.3749 49.228 60.3586 49.0713C60.3424 48.9145 60.2936 48.7629 60.2154 48.6261C60.1372 48.4893 60.0312 48.3703 59.9043 48.2769C59.7775 48.1834 59.6325 48.1174 59.4786 48.0832C59.3248 48.049 59.1655 48.0474 59.011 48.0783C58.9665 48.0882 58.9202 48.0867 58.8764 48.0741C58.8326 48.0614 58.7927 48.038 58.7604 48.0059C58.7277 47.9741 58.7033 47.9348 58.6895 47.8914C58.6757 47.8479 58.6728 47.8018 58.6812 47.757C58.6976 47.6723 58.7059 47.5863 58.7061 47.5001C58.7059 47.1458 58.5709 46.8048 58.3286 46.5462C58.0862 46.2877 57.7547 46.1311 57.4011 46.108C57.0475 46.085 56.6983 46.1973 56.4245 46.4222C56.1507 46.6471 55.9726 46.9677 55.9265 47.3191C55.9201 47.3693 55.9001 47.4168 55.8685 47.4564C55.837 47.496 55.7952 47.5262 55.7478 47.5437C55.7003 47.5612 55.6489 47.5653 55.5992 47.5556C55.5495 47.546 55.5034 47.5228 55.466 47.4888C55.3471 47.3787 55.1913 47.3169 55.0292 47.3157V47.3185Z" fill="#989AA6"/>
<path d="M14.8687 41.1208C14.7212 40.8605 14.6713 40.5561 14.728 40.2622C14.7846 39.9684 14.9442 39.7044 15.1779 39.5176C15.4117 39.3308 15.7043 39.2334 16.0034 39.2429C16.3025 39.2524 16.5884 39.3682 16.8098 39.5695C16.8484 39.2683 16.947 38.9778 17.0999 38.7154C17.2528 38.453 17.4568 38.2239 17.6999 38.0419C17.943 37.8598 18.2201 37.7283 18.5149 37.6554C18.8097 37.5824 19.1162 37.5693 19.4161 37.617C19.7161 37.6646 20.0034 37.772 20.2611 37.9328C20.5187 38.0936 20.7415 38.3044 20.9161 38.5529C21.0908 38.8014 21.2138 39.0824 21.2778 39.3793C21.3418 39.6761 21.3456 39.9829 21.2889 40.2812C21.4181 40.2532 21.5499 40.239 21.6821 40.2388C22.1836 40.2474 22.6617 40.4527 23.0133 40.8104C23.3649 41.1682 23.562 41.6497 23.562 42.1513C23.562 42.6529 23.3649 43.1345 23.0133 43.4922C22.6617 43.8499 22.1836 44.0552 21.6821 44.0638H15.1505C14.7821 44.0625 14.4275 43.9243 14.1553 43.6761C13.8832 43.4279 13.713 43.0875 13.6777 42.7209C13.6425 42.3543 13.7447 41.9876 13.9646 41.6922C14.1845 41.3967 14.5063 41.1935 14.8676 41.1219L14.8687 41.1208Z" fill="white"/>
<path d="M21.6821 44.3401H15.1505C14.7421 44.3389 14.3469 44.196 14.0322 43.9357C13.7176 43.6754 13.5032 43.3139 13.4256 42.913C13.3481 42.5121 13.4122 42.0967 13.607 41.7378C13.8018 41.379 14.1152 41.0989 14.4936 40.9455C14.4076 40.6606 14.4063 40.3569 14.4898 40.0712C14.5733 39.7855 14.7381 39.5303 14.964 39.3366C15.19 39.1429 15.4674 39.0191 15.7624 38.9802C16.0575 38.9413 16.3575 38.9891 16.6259 39.1176C16.8055 38.5355 17.1879 38.037 17.7037 37.7128C18.2195 37.3885 18.8344 37.26 19.4369 37.3505C20.0393 37.441 20.5894 37.7446 20.9871 38.206C21.3849 38.6675 21.6039 39.2563 21.6045 39.8655C21.6045 39.8983 21.6045 39.9317 21.6045 39.9651C21.8958 39.9537 22.1863 40.0005 22.4592 40.1028C22.7321 40.2052 22.9818 40.3609 23.1937 40.5611C23.4056 40.7612 23.5754 41.0016 23.6932 41.2681C23.8109 41.5347 23.8743 41.8221 23.8795 42.1135C23.8848 42.4049 23.8318 42.6945 23.7237 42.9651C23.6156 43.2357 23.4545 43.4821 23.2499 43.6897C23.0454 43.8973 22.8014 44.0619 22.5324 44.174C22.2633 44.2861 21.9746 44.3433 21.6832 44.3423L21.6821 44.3401ZM15.9646 39.5182C15.7928 39.518 15.6241 39.563 15.4751 39.6484C15.3261 39.7339 15.2022 39.857 15.1156 40.0053C15.0291 40.1536 14.9829 40.322 14.9818 40.4938C14.9807 40.6655 15.0246 40.8346 15.1092 40.984C15.1309 41.0222 15.1432 41.065 15.1451 41.1089C15.147 41.1528 15.1383 41.1966 15.1199 41.2364C15.1015 41.2763 15.0738 41.3113 15.0392 41.3383C15.0045 41.3653 14.9639 41.3837 14.9208 41.3919C14.6252 41.4484 14.3615 41.6132 14.181 41.854C14.0006 42.0947 13.9165 42.3942 13.9453 42.6937C13.974 42.9932 14.1135 43.2711 14.3364 43.4732C14.5593 43.6753 14.8496 43.7869 15.1505 43.7862H21.6821C21.9111 43.7864 22.1377 43.7384 22.347 43.6455C22.5563 43.5525 22.7438 43.4166 22.8973 43.2466C23.0507 43.0765 23.1667 42.8761 23.2378 42.6584C23.3088 42.4406 23.3333 42.2103 23.3097 41.9825C23.2861 41.7547 23.2149 41.5343 23.1006 41.3358C22.9864 41.1373 22.8317 40.9649 22.6467 40.83C22.4616 40.6951 22.2502 40.6005 22.0262 40.5525C21.8023 40.5045 21.5707 40.504 21.3466 40.5512C21.302 40.5606 21.2559 40.5589 21.2122 40.5462C21.1685 40.5335 21.1285 40.5103 21.0959 40.4785C21.0633 40.4468 21.0391 40.4075 21.0252 40.3641C21.0114 40.3207 21.0085 40.2746 21.0167 40.2299C21.068 39.9672 21.0658 39.697 21.0103 39.4352C20.9548 39.1734 20.8471 38.9255 20.6937 38.7063C20.5403 38.487 20.3443 38.301 20.1173 38.1591C19.8904 38.0173 19.6373 37.9227 19.373 37.8808C19.1087 37.839 18.8386 37.8509 18.579 37.9157C18.3194 37.9805 18.0755 38.097 17.8619 38.2581C17.6483 38.4193 17.4693 38.6219 17.3357 38.8537C17.2021 39.0855 17.1165 39.3419 17.0842 39.6075C17.0778 39.6578 17.0577 39.7052 17.0262 39.7448C16.9947 39.7844 16.9529 39.8146 16.9054 39.8321C16.8579 39.8496 16.8066 39.8538 16.7569 39.8441C16.7072 39.8344 16.6611 39.8113 16.6237 39.7773C16.4439 39.6118 16.2089 39.5194 15.9646 39.5182Z" fill="#989AA6"/>
<path d="M11.2373 55.858L12.1934 55.1406L13.1495 55.858V63.7468H11.2373V55.858Z" fill="white"/>
<path d="M13.1486 63.9859H11.2364C11.205 63.986 11.1739 63.9799 11.1448 63.9679C11.1158 63.9559 11.0894 63.9384 11.0672 63.9162C11.045 63.894 11.0273 63.8677 11.0153 63.8387C11.0033 63.8097 10.9971 63.7786 10.9971 63.7472V55.8583C10.997 55.8212 11.0056 55.7846 11.0222 55.7514C11.0388 55.7181 11.0629 55.6893 11.0927 55.6671L12.0477 54.9497C12.089 54.9187 12.1394 54.9019 12.1911 54.9019C12.2428 54.9019 12.2932 54.9187 12.3345 54.9497L13.2923 55.6671C13.3221 55.6893 13.3463 55.7181 13.3629 55.7514C13.3795 55.7846 13.388 55.8212 13.3879 55.8583V63.7472C13.3879 63.7786 13.3817 63.8097 13.3697 63.8387C13.3577 63.8677 13.34 63.894 13.3178 63.9162C13.2956 63.9384 13.2692 63.9559 13.2402 63.9679C13.2111 63.9799 13.18 63.986 13.1486 63.9859ZM11.4751 63.5079H12.9093V55.9777L12.1925 55.4397L11.4751 55.9777V63.5079Z" fill="#989AA6"/>
<path d="M13.1494 55.858L14.1055 55.1406L15.0617 55.858V63.7468H13.1494V55.858Z" fill="white"/>
<path d="M15.0617 63.986H13.1495C13.0861 63.986 13.0253 63.9609 12.9804 63.9161C12.9356 63.8713 12.9103 63.8106 12.9102 63.7472V55.8584C12.9101 55.8213 12.9188 55.7847 12.9354 55.7515C12.952 55.7183 12.9761 55.6894 13.0058 55.6672L13.9619 54.9498C14.0033 54.9187 14.0538 54.9019 14.1056 54.9019C14.1574 54.9019 14.2078 54.9187 14.2493 54.9498L15.2054 55.6672C15.2351 55.6894 15.2592 55.7183 15.2758 55.7515C15.2924 55.7847 15.301 55.8213 15.301 55.8584V63.7472C15.301 63.7786 15.2948 63.8097 15.2828 63.8387C15.2708 63.8677 15.2531 63.8941 15.2309 63.9163C15.2087 63.9384 15.1823 63.956 15.1532 63.968C15.1242 63.9799 15.0931 63.9861 15.0617 63.986ZM13.3882 63.5079H14.8207V55.9778L14.1033 55.4397L13.386 55.9778L13.3882 63.5079Z" fill="#989AA6"/>
<path d="M15.0615 55.858L16.0176 55.1406L16.9738 55.858V63.7468H15.0615V55.858Z" fill="white"/>
<path d="M16.9738 63.9859H15.061C14.9977 63.9859 14.937 63.9608 14.8922 63.916C14.8474 63.8712 14.8223 63.8105 14.8223 63.7472V55.8583C14.8222 55.8212 14.8307 55.7846 14.8474 55.7514C14.864 55.7181 14.8881 55.6893 14.9179 55.6671L15.874 54.9497C15.9154 54.9187 15.9657 54.9019 16.0174 54.9019C16.0691 54.9019 16.1195 54.9187 16.1608 54.9497L17.117 55.6671C17.1467 55.6893 17.1709 55.7181 17.1875 55.7514C17.2041 55.7846 17.2127 55.8212 17.2126 55.8583V63.7472C17.2126 63.8105 17.1874 63.8712 17.1426 63.916C17.0979 63.9608 17.0371 63.9859 16.9738 63.9859ZM15.3003 63.5079H16.7345V55.9777L16.0171 55.4397L15.3003 55.9777V63.5079Z" fill="#989AA6"/>
<path d="M44.167 55.858L45.1231 55.1406L46.0792 55.858V63.7468H44.167V55.858Z" fill="white"/>
<path d="M46.0793 63.9859H44.167C44.1356 63.986 44.1045 63.9799 44.0755 63.9679C44.0465 63.9559 44.0201 63.9384 43.9979 63.9162C43.9756 63.894 43.958 63.8677 43.946 63.8387C43.9339 63.8097 43.9277 63.7786 43.9277 63.7472V55.8583C43.9277 55.8212 43.9363 55.7846 43.9529 55.7514C43.9695 55.7182 43.9936 55.6894 44.0233 55.6671L44.9795 54.9497C45.0208 54.9187 45.0712 54.9019 45.1229 54.9019C45.1746 54.9019 45.2249 54.9187 45.2663 54.9497L46.223 55.6671C46.2527 55.6894 46.2768 55.7182 46.2934 55.7514C46.31 55.7846 46.3186 55.8212 46.3186 55.8583V63.7472C46.3185 63.8105 46.2932 63.8713 46.2483 63.916C46.2034 63.9608 46.1427 63.9859 46.0793 63.9859ZM44.4058 63.5079H45.8405V55.9777L45.1232 55.4397L44.4058 55.9777V63.5079Z" fill="#989AA6"/>
<path d="M46.0791 55.858L47.0352 55.1406L47.9913 55.858V63.7468H46.0791V55.858Z" fill="white"/>
<path d="M47.9908 63.9859H46.0786C46.0153 63.9859 45.9545 63.9608 45.9098 63.916C45.865 63.8712 45.8398 63.8105 45.8398 63.7472V55.8583C45.8398 55.8213 45.8483 55.7847 45.8648 55.7515C45.8813 55.7183 45.9053 55.6894 45.9349 55.6671L46.8916 54.9497C46.9329 54.9187 46.9833 54.9019 47.035 54.9019C47.0867 54.9019 47.1371 54.9187 47.1784 54.9497L48.1345 55.6671C48.1642 55.6894 48.1883 55.7182 48.2049 55.7514C48.2215 55.7846 48.2302 55.8212 48.2301 55.8583V63.7472C48.2301 63.7786 48.224 63.8097 48.2119 63.8387C48.1999 63.8677 48.1823 63.894 48.16 63.9162C48.1378 63.9384 48.1114 63.9559 48.0824 63.9679C48.0533 63.9799 48.0222 63.986 47.9908 63.9859ZM46.3179 63.5079H47.7521V55.9777L47.0347 55.4397L46.3179 55.9777V63.5079Z" fill="#989AA6"/>
<path d="M47.9912 55.858L48.9479 55.1406L49.904 55.858V63.7468H47.9912V55.858Z" fill="white"/>
<path d="M49.9035 63.9859H47.9907C47.9593 63.9859 47.9283 63.9797 47.8993 63.9677C47.8704 63.9557 47.844 63.9382 47.8219 63.916C47.7997 63.8938 47.7821 63.8675 47.7701 63.8385C47.7581 63.8096 47.752 63.7785 47.752 63.7472V55.8583C47.7518 55.8212 47.7604 55.7846 47.777 55.7514C47.7936 55.7181 47.8178 55.6893 47.8476 55.6671L48.8037 54.9497C48.845 54.9187 48.8954 54.9019 48.9471 54.9019C48.9988 54.9019 49.0492 54.9187 49.0905 54.9497L50.0466 55.6671C50.0764 55.6893 50.1006 55.7181 50.1172 55.7514C50.1338 55.7846 50.1424 55.8212 50.1423 55.8583V63.7472C50.1423 63.8105 50.1171 63.8712 50.0723 63.916C50.0276 63.9608 49.9668 63.9859 49.9035 63.9859ZM48.23 63.5079H49.6642V55.9777L48.9474 55.4397L48.23 55.9777V63.5079Z" fill="#989AA6"/>
<path d="M16.9736 51.4788L30.5703 45.8179L44.1665 51.4788V63.7471H16.9736V51.4788Z" fill="#EDEDED"/>
<path d="M50.89 63.9857H10.2509C10.2186 63.9872 10.1862 63.9822 10.1559 63.9709C10.1255 63.9596 10.0977 63.9423 10.0743 63.9199C10.0508 63.8976 10.0321 63.8707 10.0193 63.8409C10.0066 63.8111 10 63.779 10 63.7466C10 63.7142 10.0066 63.6822 10.0193 63.6524C10.0321 63.6226 10.0508 63.5957 10.0743 63.5734C10.0977 63.551 10.1255 63.5337 10.1559 63.5224C10.1862 63.5111 10.2186 63.506 10.2509 63.5076H50.89C50.9514 63.5106 51.0093 63.5371 51.0517 63.5816C51.0941 63.6261 51.1177 63.6852 51.1177 63.7466C51.1177 63.8081 51.0941 63.8672 51.0517 63.9117C51.0093 63.9562 50.9514 63.9827 50.89 63.9857Z" fill="#989AA6"/>
<path d="M16.9736 52.6746L30.5703 47.0137L44.1665 52.6746V60.6392L16.9736 62.552V52.6746Z" fill="white"/>
<path d="M44.167 63.9864H24.3555C24.3231 63.988 24.2907 63.9829 24.2604 63.9716C24.23 63.9603 24.2022 63.943 24.1788 63.9206C24.1553 63.8983 24.1366 63.8714 24.1239 63.8416C24.1111 63.8118 24.1045 63.7798 24.1045 63.7473C24.1045 63.7149 24.1111 63.6829 24.1239 63.6531C24.1366 63.6233 24.1553 63.5964 24.1788 63.5741C24.2022 63.5517 24.23 63.5344 24.2604 63.5231C24.2907 63.5118 24.3231 63.5067 24.3555 63.5083H43.9305V51.6388L30.5736 46.0775L17.2162 51.6388V63.5083H22.9207C22.9531 63.5067 22.9854 63.5118 23.0158 63.5231C23.0462 63.5344 23.0739 63.5517 23.0974 63.5741C23.1209 63.5964 23.1396 63.6233 23.1523 63.6531C23.1651 63.6829 23.1717 63.7149 23.1717 63.7473C23.1717 63.7798 23.1651 63.8118 23.1523 63.8416C23.1396 63.8714 23.1209 63.8983 23.0974 63.9206C23.0739 63.943 23.0462 63.9603 23.0158 63.9716C22.9854 63.9829 22.9531 63.988 22.9207 63.9864H16.9747C16.9433 63.9865 16.9122 63.9803 16.8831 63.9684C16.8541 63.9564 16.8277 63.9388 16.8055 63.9167C16.7832 63.8945 16.7656 63.8681 16.7536 63.8391C16.7415 63.8101 16.7354 63.779 16.7354 63.7476V51.4793C16.7355 51.4321 16.7495 51.3861 16.7756 51.3468C16.8018 51.3076 16.839 51.2769 16.8824 51.2587L30.4786 45.5978C30.5077 45.5854 30.5389 45.5791 30.5705 45.5791C30.6021 45.5791 30.6334 45.5854 30.6625 45.5978L44.2586 51.2587C44.3022 51.2768 44.3393 51.3075 44.3655 51.3467C44.3917 51.386 44.4057 51.4321 44.4057 51.4793V63.7476C44.4057 63.811 44.3806 63.8717 44.3358 63.9165C44.291 63.9612 44.2303 63.9864 44.167 63.9864Z" fill="#282C3F"/>
<path d="M46.1065 52.5271C46.0749 52.5271 46.0435 52.5209 46.0143 52.509L30.5692 46.0775L15.1242 52.509C15.0949 52.5229 15.0631 52.5307 15.0308 52.5319C14.9984 52.5332 14.9661 52.5279 14.9358 52.5162C14.9056 52.5046 14.878 52.487 14.8547 52.4644C14.8315 52.4418 14.8131 52.4148 14.8006 52.3849C14.7882 52.3549 14.7819 52.3228 14.7822 52.2904C14.7826 52.258 14.7895 52.226 14.8025 52.1963C14.8156 52.1667 14.8345 52.14 14.8582 52.1179C14.8819 52.0958 14.9099 52.0787 14.9403 52.0677L30.4782 45.5978C30.5072 45.5854 30.5385 45.5791 30.5701 45.5791C30.6017 45.5791 30.6329 45.5854 30.662 45.5978L46.2004 52.0677C46.2515 52.0888 46.2937 52.127 46.3197 52.1758C46.3458 52.2245 46.3542 52.2808 46.3433 52.335C46.3325 52.3893 46.3032 52.4381 46.2604 52.4731C46.2176 52.5081 46.164 52.5272 46.1087 52.5271H46.1065Z" fill="#282C3F"/>
<path d="M33.4385 53.229H27.7012V63.7475H33.4385V53.229Z" fill="#A09CAD"/>
<path d="M33.4385 53.229H27.7012V61.7973L33.4385 61.3939V53.229Z" fill="#B8B5C6"/>
<path d="M33.4389 63.9863H27.7016C27.6383 63.9863 27.5776 63.9611 27.5328 63.9163C27.488 63.8716 27.4629 63.8108 27.4629 63.7475V53.2291C27.4628 53.1977 27.4689 53.1666 27.4809 53.1375C27.4929 53.1085 27.5104 53.0821 27.5326 53.0599C27.5548 53.0376 27.5811 53.02 27.6101 53.008C27.6391 52.9959 27.6702 52.9897 27.7016 52.9897H33.4389C33.5024 52.9897 33.5633 53.015 33.6081 53.0598C33.653 53.1047 33.6782 53.1656 33.6782 53.2291V63.7475C33.6781 63.8109 33.6528 63.8716 33.608 63.9164C33.5631 63.9611 33.5023 63.9863 33.4389 63.9863ZM27.941 63.5082H33.2024V53.4678H27.941V63.5082Z" fill="#282C3F"/>
<path d="M41.8056 53.229H36.0684V59.4444H41.8056V53.229Z" fill="#2CAAE6"/>
<path d="M25.0713 53.229H19.334V59.4444H25.0713V53.229Z" fill="#2CAAE6"/>
<path d="M21.0586 59.2305L21.914 59.6582L25.261 53.4428L24.4056 53.0151L21.0586 59.2305Z" fill="#2FC8F2"/>
<path d="M22.4671 53.1216L19.1201 59.3369L19.5478 59.5508L22.8948 53.3354L22.4671 53.1216Z" fill="#2FC8F2"/>
<path d="M41.139 53.0151L37.792 59.2305L38.6474 59.6582L41.9944 53.4428L41.139 53.0151Z" fill="#2FC8F2"/>
<path d="M39.2015 53.1216L35.8545 59.3369L36.2822 59.5508L39.6292 53.3354L39.2015 53.1216Z" fill="#2FC8F2"/>
<path d="M41.8063 59.6832H36.0679C36.0045 59.6832 35.9438 59.658 35.899 59.6132C35.8543 59.5685 35.8291 59.5077 35.8291 59.4444V53.2291C35.829 53.1977 35.8351 53.1666 35.8471 53.1375C35.8591 53.1085 35.8767 53.0821 35.8988 53.0599C35.921 53.0376 35.9474 53.02 35.9764 53.008C36.0054 52.9959 36.0365 52.9897 36.0679 52.9897H41.8063C41.8697 52.9897 41.9306 53.015 41.9755 53.0598C42.0204 53.1047 42.0456 53.1656 42.0456 53.2291V59.4444C42.0454 59.5078 42.0202 59.5685 41.9753 59.6133C41.9304 59.658 41.8696 59.6832 41.8063 59.6832ZM36.3083 59.2051H41.5698V53.4678H36.3083V59.2051Z" fill="#34234D"/>
<path d="M25.0717 59.6832H19.3345C19.2711 59.6832 19.2104 59.658 19.1656 59.6132C19.1209 59.5685 19.0957 59.5077 19.0957 59.4444V53.2291C19.0956 53.1977 19.1017 53.1666 19.1137 53.1375C19.1257 53.1085 19.1433 53.0821 19.1654 53.0599C19.1876 53.0376 19.214 53.02 19.243 53.008C19.272 52.9959 19.303 52.9897 19.3345 52.9897H25.0717C25.1352 52.9897 25.1961 53.015 25.241 53.0598C25.2858 53.1047 25.3111 53.1656 25.3111 53.2291V59.4444C25.3109 59.5078 25.2856 59.5685 25.2408 59.6133C25.1959 59.658 25.1351 59.6832 25.0717 59.6832ZM19.5726 59.2051H24.8341V53.4678H19.5726V59.2051Z" fill="#282C3F"/>
<path d="M33.917 53.4676H27.2236C27.1912 53.4692 27.1589 53.4642 27.1285 53.4529C27.0981 53.4416 27.0704 53.4242 27.0469 53.4019C27.0234 53.3795 27.0048 53.3526 26.992 53.3228C26.9792 53.293 26.9727 53.261 26.9727 53.2286C26.9727 53.1962 26.9792 53.1641 26.992 53.1343C27.0048 53.1045 27.0234 53.0776 27.0469 53.0553C27.0704 53.0329 27.0981 53.0156 27.1285 53.0043C27.1589 52.993 27.1912 52.988 27.2236 52.9895H33.917C33.9494 52.988 33.9817 52.993 34.0121 53.0043C34.0425 53.0156 34.0702 53.0329 34.0937 53.0553C34.1172 53.0776 34.1358 53.1045 34.1486 53.1343C34.1614 53.1641 34.168 53.1962 34.168 53.2286C34.168 53.261 34.1614 53.293 34.1486 53.3228C34.1358 53.3526 34.1172 53.3795 34.0937 53.4019C34.0702 53.4242 34.0425 53.4416 34.0121 53.4529C33.9817 53.4642 33.9494 53.4692 33.917 53.4676Z" fill="#282C3F"/>
<path d="M25.55 59.6834H18.8566C18.7952 59.6804 18.7373 59.6539 18.6949 59.6094C18.6525 59.5649 18.6289 59.5058 18.6289 59.4444C18.6289 59.3829 18.6525 59.3238 18.6949 59.2793C18.7373 59.2348 18.7952 59.2083 18.8566 59.2054H25.55C25.5824 59.2038 25.6147 59.2088 25.6451 59.2201C25.6755 59.2314 25.7032 59.2488 25.7267 59.2711C25.7502 59.2935 25.7688 59.3203 25.7816 59.3501C25.7944 59.3799 25.8009 59.412 25.8009 59.4444C25.8009 59.4768 25.7944 59.5089 25.7816 59.5387C25.7688 59.5684 25.7502 59.5953 25.7267 59.6177C25.7032 59.64 25.6755 59.6574 25.6451 59.6687C25.6147 59.68 25.5824 59.685 25.55 59.6834Z" fill="#34234D"/>
<path d="M42.2842 59.6834H35.5908C35.5584 59.685 35.5261 59.68 35.4957 59.6687C35.4653 59.6574 35.4376 59.64 35.4141 59.6177C35.3906 59.5953 35.372 59.5684 35.3592 59.5387C35.3464 59.5089 35.3398 59.4768 35.3398 59.4444C35.3398 59.412 35.3464 59.3799 35.3592 59.3501C35.372 59.3203 35.3906 59.2935 35.4141 59.2711C35.4376 59.2488 35.4653 59.2314 35.4957 59.2201C35.5261 59.2088 35.5584 59.2038 35.5908 59.2054H42.2842C42.3166 59.2038 42.3489 59.2088 42.3793 59.2201C42.4097 59.2314 42.4374 59.2488 42.4609 59.2711C42.4844 59.2935 42.503 59.3203 42.5158 59.3501C42.5286 59.3799 42.5351 59.412 42.5351 59.4444C42.5351 59.4768 42.5286 59.5089 42.5158 59.5387C42.503 59.5684 42.4844 59.5953 42.4609 59.6177C42.4374 59.64 42.4097 59.6574 42.3793 59.6687C42.3489 59.68 42.3166 59.685 42.2842 59.6834Z" fill="#34234D"/>
<path d="M32.2437 59.9219C32.5077 59.9219 32.7217 59.7079 32.7217 59.4439C32.7217 59.1799 32.5077 58.9658 32.2437 58.9658C31.9797 58.9658 31.7656 59.1799 31.7656 59.4439C31.7656 59.7079 31.9797 59.9219 32.2437 59.9219Z" fill="white"/>
<path d="M36.0686 43.1885H33.2002V46.9128L36.0686 48.1071V43.1885Z" fill="#A09CAD"/>
<path d="M36.0686 43.1885H33.2002V45.9567L36.0686 46.6729V43.1885Z" fill="#B8B5C6"/>
<path d="M36.0687 48.3465C36.0381 48.3457 36.0079 48.339 35.9799 48.3267L33.111 47.1324C33.0674 47.1143 33.0301 47.0836 33.004 47.0444C32.9778 47.0051 32.9638 46.9589 32.9639 46.9117V43.1885C32.9639 43.1251 32.9891 43.0642 33.034 43.0193C33.0788 42.9744 33.1397 42.9492 33.2032 42.9492H36.0715C36.135 42.9492 36.1959 42.9744 36.2408 43.0193C36.2856 43.0642 36.3109 43.1251 36.3109 43.1885C36.3109 43.252 36.2856 43.3129 36.2408 43.3578C36.1959 43.4026 36.135 43.4278 36.0715 43.4278H33.4391V46.7533L35.83 47.7485V44.6227C35.833 44.5613 35.8594 44.5034 35.9039 44.4611C35.9484 44.4187 36.0075 44.395 36.069 44.395C36.1305 44.395 36.1896 44.4187 36.2341 44.4611C36.2786 44.5034 36.305 44.5613 36.308 44.6227V48.1072C36.3079 48.1706 36.2826 48.2314 36.2378 48.2762C36.1929 48.3211 36.1321 48.3463 36.0687 48.3465Z" fill="#282C3F"/>
<path d="M31.2876 48.9257C31.5551 48.9256 31.8186 48.99 32.0559 49.1135C31.9352 48.8796 31.7609 48.6775 31.5473 48.5236C31.3337 48.3697 31.0868 48.2684 30.8267 48.2279C30.5666 48.1874 30.3006 48.2089 30.0503 48.2906C29.8001 48.3723 29.5726 48.5118 29.3865 48.698C29.2003 48.8841 29.0607 49.1116 28.9791 49.3618C28.8974 49.6121 28.8759 49.8781 28.9164 50.1382C28.9569 50.3983 29.0582 50.6452 29.2121 50.8588C29.3659 51.0724 29.5681 51.2467 29.802 51.3674C29.6697 51.1125 29.6053 50.8277 29.6151 50.5407C29.6248 50.2536 29.7084 49.9739 29.8577 49.7285C30.007 49.4831 30.217 49.2803 30.4675 49.1397C30.7179 48.9991 31.0004 48.9254 31.2876 48.9257Z" fill="#2FC8F2"/>
<path d="M32.2449 49.882C32.245 49.6145 32.1806 49.351 32.0571 49.1137C31.7419 48.9501 31.3827 48.8911 31.0317 48.9454C30.6807 48.9997 30.356 49.1643 30.1049 49.4154C29.8537 49.6666 29.6891 49.9912 29.6349 50.3422C29.5806 50.6932 29.6396 51.0524 29.8032 51.3677C30.0581 51.5 30.3429 51.5643 30.6299 51.5546C30.917 51.5448 31.1967 51.4613 31.4421 51.312C31.6875 51.1627 31.8903 50.9526 32.0309 50.7022C32.1715 50.4517 32.2452 50.1692 32.2449 49.882Z" fill="#2CAAE6"/>
<path d="M30.5704 51.7942C30.1922 51.7942 29.8225 51.6821 29.5081 51.4719C29.1936 51.2618 28.9485 50.9632 28.8038 50.6137C28.659 50.2643 28.6212 49.8798 28.6949 49.5089C28.7687 49.138 28.9509 48.7972 29.2183 48.5298C29.4857 48.2624 29.8264 48.0803 30.1974 48.0065C30.5683 47.9327 30.9528 47.9706 31.3022 48.1153C31.6516 48.26 31.9503 48.5051 32.1604 48.8196C32.3705 49.1341 32.4827 49.5038 32.4827 49.882C32.4821 50.3889 32.2804 50.875 31.9219 51.2335C31.5635 51.592 31.0774 51.7936 30.5704 51.7942ZM30.5704 48.4478C30.2868 48.4478 30.0095 48.5319 29.7737 48.6895C29.5378 48.8471 29.354 49.0711 29.2454 49.3331C29.1369 49.5952 29.1085 49.8836 29.1638 50.1618C29.2192 50.44 29.3558 50.6955 29.5563 50.8961C29.7569 51.0967 30.0124 51.2333 30.2906 51.2886C30.5689 51.3439 30.8572 51.3155 31.1193 51.207C31.3813 51.0984 31.6053 50.9146 31.7629 50.6788C31.9205 50.4429 32.0046 50.1656 32.0046 49.882C32.0042 49.5017 31.8529 49.1372 31.5841 48.8683C31.3152 48.5995 30.9507 48.4482 30.5704 48.4478Z" fill="#282C3F"/>
<path d="M48.2309 17.042L36.4141 26.7101L48.2309 36.3783L60.0472 26.7101L48.2309 17.042Z" fill="#B8B5C6"/>
<path d="M50.3531 18.7783L37.4268 27.5384L48.2304 36.3777L60.0467 26.7096L50.3531 18.7783Z" fill="#A09CAD"/>
<path d="M48.2305 36.5588C48.1892 36.5585 48.1492 36.5439 48.1174 36.5175L36.2988 26.8505C36.2778 26.8334 36.2608 26.8119 36.2491 26.7874C36.2375 26.7629 36.2314 26.7362 36.2314 26.7091C36.2314 26.682 36.2375 26.6552 36.2491 26.6307C36.2608 26.6063 36.2778 26.5847 36.2988 26.5676L48.1157 16.9006C48.1481 16.8743 48.1887 16.8599 48.2305 16.8599C48.2723 16.8599 48.3129 16.8743 48.3454 16.9006L60.1622 26.5688C60.1833 26.5858 60.2002 26.6074 60.2119 26.6319C60.2235 26.6563 60.2296 26.6831 60.2296 26.7102C60.2296 26.7373 60.2235 26.7641 60.2119 26.7885C60.2002 26.813 60.1833 26.8346 60.1622 26.8516L48.3454 36.5181C48.313 36.5446 48.2724 36.5591 48.2305 36.5588ZM36.7011 26.7096L48.2305 36.1424L59.76 26.7096L48.2305 17.2763L36.7011 26.7096Z" fill="#282C3F"/>
<path d="M56.4114 19.9502H40.0498V40.6748H56.4114V19.9502Z" fill="white"/>
<path d="M56.4114 40.6748H40.0498V25.761L48.6243 19.9502H56.4114V40.6748Z" fill="#EDEDED"/>
<path d="M56.4113 40.8582H40.0498C40.0016 40.8582 39.9554 40.839 39.9214 40.805C39.8873 40.7709 39.8682 40.7247 39.8682 40.6766V19.9497C39.8682 19.9015 39.8873 19.8553 39.9214 19.8213C39.9554 19.7872 40.0016 19.7681 40.0498 19.7681H41.8885C41.935 19.7707 41.9787 19.791 42.0107 19.8248C42.0427 19.8586 42.0605 19.9034 42.0605 19.95C42.0605 19.9965 42.0427 20.0413 42.0107 20.0751C41.9787 20.109 41.935 20.1293 41.8885 20.1318H40.2314V40.4921H56.2291V20.1318H43.1603C43.1138 20.1293 43.0701 20.109 43.0381 20.0751C43.0061 20.0413 42.9883 19.9965 42.9883 19.95C42.9883 19.9034 43.0061 19.8586 43.0381 19.8248C43.0701 19.791 43.1138 19.7707 43.1603 19.7681H56.4113C56.4595 19.7681 56.5057 19.7872 56.5397 19.8213C56.5738 19.8553 56.5929 19.9015 56.5929 19.9497V40.6743C56.5932 40.6983 56.5887 40.7222 56.5798 40.7445C56.5708 40.7668 56.5574 40.7871 56.5405 40.8042C56.5236 40.8213 56.5035 40.8349 56.4813 40.8441C56.4592 40.8534 56.4354 40.8582 56.4113 40.8582Z" fill="#282C3F"/>
<path d="M48.2309 36.3776L36.4141 26.7095V40.6745H60.0472V26.7095L48.2309 36.3776Z" fill="#2FC8F2"/>
<path d="M60.0465 40.6753L51.5127 33.6928L53.3203 32.2134L60.0465 40.4909V40.6753Z" fill="#2CAAE6"/>
<path d="M60.0462 40.8588H36.4136C36.3654 40.8588 36.3191 40.8397 36.285 40.8057C36.2509 40.7716 36.2316 40.7255 36.2314 40.6772V26.71C36.2315 26.6756 36.2414 26.6419 36.2598 26.6129C36.2782 26.5839 36.3045 26.5606 36.3355 26.5459C36.3666 26.5312 36.4012 26.5255 36.4354 26.5296C36.4695 26.5337 36.5018 26.5474 36.5285 26.5691L48.2299 36.1427L59.9314 26.5691C59.958 26.5474 59.9903 26.5337 60.0245 26.5296C60.0586 26.5255 60.0932 26.5312 60.1243 26.5459C60.1553 26.5606 60.1816 26.5839 60.2 26.6129C60.2184 26.6419 60.2283 26.6756 60.2284 26.71V34.4443C60.2258 34.4908 60.2055 34.5346 60.1717 34.5666C60.1378 34.5985 60.093 34.6164 60.0465 34.6164C59.9999 34.6164 59.9551 34.5985 59.9213 34.5666C59.8875 34.5346 59.8672 34.4908 59.8646 34.4443V27.0935L48.3448 36.5184C48.3124 36.545 48.2718 36.5595 48.2299 36.5595C48.188 36.5595 48.1474 36.545 48.1151 36.5184L36.5952 27.0935V40.4928H59.8646V35.5351C59.8672 35.4886 59.8875 35.4449 59.9213 35.4129C59.9551 35.3809 59.9999 35.3631 60.0465 35.3631C60.093 35.3631 60.1378 35.3809 60.1717 35.4129C60.2055 35.4449 60.2258 35.4886 60.2284 35.5351V40.675C60.2286 40.699 60.2241 40.7229 60.215 40.7452C60.2059 40.7675 60.1926 40.7878 60.1756 40.8049C60.1587 40.822 60.1385 40.8356 60.1163 40.8448C60.0941 40.8541 60.0703 40.8588 60.0462 40.8588Z" fill="#282C3F"/>
<path d="M48.2309 31.0068L60.0472 40.675H36.4141L48.2309 31.0068Z" fill="#2CAAE6"/>
<path d="M48.2303 31.0068L57.5539 38.6349L36.6104 40.5137L48.2303 31.0068Z" fill="#2FC8F2"/>
<path d="M60.0471 40.8585H36.4145C36.3771 40.8582 36.3408 40.8464 36.3104 40.8246C36.28 40.8029 36.257 40.7723 36.2446 40.737C36.2322 40.7018 36.2311 40.6635 36.2412 40.6275C36.2514 40.5916 36.2724 40.5596 36.3014 40.536L40.6384 36.9876C40.6759 36.9572 40.724 36.9429 40.7721 36.9478C40.8201 36.9528 40.8643 36.9767 40.8947 37.0142C40.9252 37.0517 40.9395 37.0998 40.9345 37.1479C40.9295 37.1959 40.9056 37.24 40.8681 37.2705L36.926 40.4953H59.5379L48.2308 31.2407L41.7812 36.5175C41.7627 36.5326 41.7413 36.5439 41.7184 36.5508C41.6954 36.5576 41.6713 36.5599 41.6475 36.5575C41.6237 36.555 41.6006 36.5479 41.5795 36.5365C41.5584 36.5252 41.5398 36.5097 41.5247 36.4912C41.5096 36.4726 41.4983 36.4512 41.4914 36.4283C41.4845 36.4053 41.4823 36.3813 41.4847 36.3574C41.4871 36.3336 41.4943 36.3105 41.5056 36.2894C41.517 36.2684 41.5324 36.2497 41.551 36.2346L48.1137 30.8634C48.1461 30.8368 48.1867 30.8223 48.2286 30.8223C48.2704 30.8223 48.311 30.8368 48.3434 30.8634L60.1625 40.5338C60.1915 40.5573 60.2125 40.5893 60.2227 40.6253C60.2329 40.6613 60.2317 40.6995 60.2193 40.7348C60.2069 40.77 60.184 40.8006 60.1535 40.8224C60.1231 40.8441 60.0868 40.8559 60.0494 40.8562L60.0471 40.8585Z" fill="#282C3F"/>
<path d="M50.734 25.7403C50.817 25.7401 50.8983 25.7172 50.9691 25.6739C51.0399 25.6307 51.0975 25.5688 51.1355 25.495C51.1735 25.4213 51.1905 25.3385 51.1847 25.2557C51.1788 25.173 51.1503 25.0934 51.1023 25.0257L48.8631 21.8802C48.8212 21.8218 48.766 21.7742 48.702 21.7414C48.6381 21.7085 48.5672 21.6914 48.4953 21.6914C48.4234 21.6914 48.3526 21.7085 48.2887 21.7414C48.2247 21.7742 48.1695 21.8218 48.1276 21.8802L45.8872 25.0257C45.8392 25.0934 45.8107 25.1731 45.8048 25.2559C45.799 25.3387 45.8161 25.4215 45.8541 25.4953C45.8922 25.5691 45.9499 25.6309 46.0208 25.6742C46.0917 25.7174 46.1731 25.7402 46.2561 25.7403H50.734Z" fill="#B8B5C6"/>
<path d="M50.7348 25.8282H46.2552C46.156 25.8282 46.0587 25.8009 45.974 25.7492C45.8892 25.6976 45.8204 25.6236 45.7749 25.5354C45.7294 25.4473 45.7091 25.3483 45.7162 25.2493C45.7233 25.1503 45.7575 25.0552 45.815 24.9744L48.0549 21.8289C48.1046 21.7585 48.1705 21.7011 48.2472 21.6617C48.3238 21.6223 48.4088 21.602 48.495 21.6026C48.5813 21.602 48.6664 21.6222 48.7431 21.6616C48.8199 21.701 48.8859 21.7584 48.9357 21.8289L51.175 24.9744C51.2325 25.0552 51.2667 25.1503 51.2738 25.2493C51.2809 25.3483 51.2606 25.4473 51.2151 25.5354C51.1696 25.6236 51.1008 25.6976 51.0161 25.7492C50.9313 25.8009 50.834 25.8282 50.7348 25.8282ZM48.495 21.7779C48.4369 21.7776 48.3797 21.7914 48.3281 21.818C48.2764 21.8446 48.232 21.8832 48.1986 21.9307L45.9582 25.074C45.9193 25.1285 45.8962 25.1927 45.8914 25.2595C45.8866 25.3263 45.9003 25.3931 45.931 25.4526C45.9617 25.5121 46.0082 25.562 46.0654 25.5968C46.1226 25.6316 46.1882 25.65 46.2552 25.6499H50.7348C50.8017 25.6498 50.8673 25.6313 50.9243 25.5965C50.9814 25.5616 51.0278 25.5117 51.0585 25.4523C51.0891 25.3929 51.1028 25.3261 51.0981 25.2594C51.0935 25.1927 51.0705 25.1286 51.0318 25.074L48.792 21.929C48.7586 21.8813 48.7141 21.8425 48.6624 21.8158C48.6106 21.7891 48.5532 21.7753 48.495 21.7757V21.7779Z" fill="#B8B5C6"/>
<path d="M48.3348 21.616C48.2929 21.5576 48.2377 21.51 48.1737 21.4772C48.1098 21.4444 48.0389 21.4272 47.9671 21.4272C47.8952 21.4272 47.8243 21.4444 47.7604 21.4772C47.6964 21.51 47.6412 21.5576 47.5993 21.616L45.3589 24.7616C45.2998 24.8449 45.2706 24.9457 45.276 25.0477C45.2815 25.1497 45.3213 25.2468 45.3889 25.3234L49.1574 22.7696L48.3348 21.616Z" fill="#52576A"/>
<path d="M49.1562 22.7695L45.3877 25.3233C45.4298 25.372 45.4819 25.4109 45.5405 25.4374C45.5991 25.4639 45.6628 25.4773 45.7271 25.4767H50.2068C50.2899 25.4768 50.3715 25.454 50.4426 25.4108C50.5137 25.3676 50.5715 25.3057 50.6096 25.2318C50.6478 25.1579 50.6649 25.0749 50.659 24.992C50.6531 24.909 50.6244 24.8293 50.5762 24.7615L49.1562 22.7695Z" fill="#30354C"/>
<path d="M50.2065 25.5638H45.7269C45.6277 25.5638 45.5304 25.5365 45.4456 25.4848C45.3609 25.4332 45.2921 25.3592 45.2466 25.2711C45.2011 25.1829 45.1808 25.0839 45.1879 24.9849C45.195 24.886 45.2292 24.7909 45.2867 24.71L47.5265 21.5662C47.5763 21.4958 47.6423 21.4385 47.7189 21.3991C47.7955 21.3597 47.8805 21.3394 47.9667 21.3399C48.0529 21.3393 48.1379 21.3596 48.2145 21.399C48.2912 21.4384 48.3572 21.4958 48.4068 21.5662L50.6461 24.7117C50.7036 24.7925 50.7378 24.8876 50.7449 24.9866C50.752 25.0856 50.7317 25.1846 50.6862 25.2728C50.6408 25.3609 50.5719 25.4349 50.4872 25.4865C50.4025 25.5382 50.3052 25.5655 50.2059 25.5655L50.2065 25.5638ZM47.9673 21.5135C47.909 21.5132 47.8516 21.527 47.7999 21.5537C47.7482 21.5804 47.7037 21.6192 47.6702 21.6669L45.4282 24.8119C45.3895 24.8664 45.3666 24.9306 45.3619 24.9973C45.3572 25.064 45.3709 25.1307 45.4015 25.1902C45.4322 25.2496 45.4786 25.2995 45.5357 25.3343C45.5927 25.3692 45.6583 25.3877 45.7252 25.3878H50.2048C50.2718 25.3879 50.3375 25.3695 50.3946 25.3347C50.4518 25.2999 50.4983 25.25 50.529 25.1905C50.5597 25.131 50.5734 25.0641 50.5686 24.9973C50.5638 24.9306 50.5407 24.8664 50.5018 24.8119L48.262 21.6669C48.2287 21.6192 48.1843 21.5804 48.1327 21.5537C48.081 21.527 48.0237 21.5132 47.9656 21.5135H47.9673Z" fill="#282C3F"/>
<path d="M47.9657 24.9662C48.1604 24.9662 48.3182 24.8084 48.3182 24.6137C48.3182 24.419 48.1604 24.2612 47.9657 24.2612C47.7711 24.2612 47.6133 24.419 47.6133 24.6137C47.6133 24.8084 47.7711 24.9662 47.9657 24.9662Z" fill="#EDEDED"/>
<path d="M47.709 23.7498L47.7209 23.9195C47.7228 23.9449 47.7343 23.9686 47.7529 23.986C47.7716 24.0034 47.7961 24.0132 47.8216 24.0134H48.1101C48.1356 24.0132 48.1601 24.0034 48.1787 23.986C48.1974 23.9686 48.2088 23.9449 48.2108 23.9195L48.2493 23.3843L47.709 23.7498Z" fill="#EDEDED"/>
<path d="M48.3157 22.4533C48.3166 22.4395 48.3147 22.4256 48.3101 22.4126C48.3054 22.3995 48.2982 22.3876 48.2888 22.3774C48.2793 22.3673 48.2679 22.3592 48.2552 22.3537C48.2425 22.3481 48.2288 22.3453 48.215 22.3452H47.7171C47.7033 22.3453 47.6896 22.3481 47.6769 22.3537C47.6642 22.3592 47.6528 22.3673 47.6434 22.3774C47.634 22.3876 47.6267 22.3995 47.6221 22.4126C47.6174 22.4256 47.6155 22.4395 47.6164 22.4533L47.7092 23.75L48.2495 23.3839L48.3157 22.4533Z" fill="white"/>
<path d="M49.3458 29.9275H49.0149C48.8178 29.9272 48.6289 29.8488 48.4895 29.7095C48.3502 29.5701 48.2718 29.3812 48.2715 29.1841V27.5316C48.2716 27.3344 48.35 27.1453 48.4893 27.0059C48.6287 26.8664 48.8177 26.7879 49.0149 26.7876H49.3458C49.543 26.7879 49.732 26.8664 49.8714 27.0059C50.0107 27.1453 50.0891 27.3344 50.0892 27.5316V29.1841C50.0889 29.3812 50.0105 29.5701 49.8712 29.7095C49.7318 29.8488 49.5429 29.9272 49.3458 29.9275ZM49.0149 27.2838C48.9492 27.2839 48.8863 27.3101 48.8398 27.3565C48.7934 27.4029 48.7672 27.4659 48.7671 27.5316V29.1841C48.7672 29.2498 48.7934 29.3127 48.8398 29.3592C48.8863 29.4056 48.9492 29.4318 49.0149 29.4319H49.3458C49.4115 29.4318 49.4745 29.4056 49.5209 29.3592C49.5673 29.3127 49.5935 29.2498 49.5936 29.1841V27.5316C49.5935 27.4659 49.5673 27.4029 49.5209 27.3565C49.4745 27.3101 49.4115 27.2839 49.3458 27.2838H49.0149Z" fill="#30354C"/>
<path d="M46.8668 29.9275H46.5364C46.3393 29.9272 46.1504 29.8488 46.011 29.7095C45.8717 29.5701 45.7933 29.3812 45.793 29.1841V27.5316C45.7931 27.3344 45.8715 27.1453 46.0108 27.0059C46.1502 26.8664 46.3392 26.7879 46.5364 26.7876H46.8668C47.064 26.7879 47.253 26.8664 47.3925 27.0058C47.532 27.1453 47.6104 27.3343 47.6107 27.5316V29.1841C47.6104 29.3813 47.5319 29.5703 47.3925 29.7097C47.253 29.849 47.0639 29.9274 46.8668 29.9275ZM46.5364 27.2838C46.4706 27.2838 46.4076 27.3099 46.3611 27.3563C46.3147 27.4028 46.2886 27.4658 46.2886 27.5316V29.1841C46.2892 29.2495 46.3155 29.312 46.3619 29.3581C46.4083 29.4042 46.471 29.4301 46.5364 29.4302H46.8668C46.9324 29.4301 46.9954 29.4039 47.0418 29.3575C47.0883 29.311 47.1144 29.2481 47.1146 29.1824V27.5316C47.1146 27.4658 47.0885 27.4028 47.042 27.3563C46.9955 27.3099 46.9325 27.2838 46.8668 27.2838H46.5364Z" fill="#30354C"/>
<path d="M44.8846 29.9275C44.8189 29.9275 44.7559 29.9014 44.7094 29.8549C44.6629 29.8085 44.6368 29.7454 44.6368 29.6797V27.2838H44.2238C44.1601 27.2807 44.0999 27.2532 44.0559 27.2071C44.0119 27.1609 43.9873 27.0995 43.9873 27.0357C43.9873 26.9719 44.0119 26.9105 44.0559 26.8643C44.0999 26.8181 44.1601 26.7906 44.2238 26.7876H44.8846C44.9504 26.7877 45.0134 26.814 45.0599 26.8605C45.1063 26.9071 45.1324 26.9702 45.1324 27.036V29.6797C45.1324 29.7454 45.1063 29.8085 45.0598 29.8549C45.0134 29.9014 44.9503 29.9275 44.8846 29.9275Z" fill="#30354C"/>
<path d="M51.7423 29.9275H51.4119C51.2148 29.9274 51.0257 29.849 50.8862 29.7097C50.7468 29.5703 50.6683 29.3813 50.668 29.1841C50.671 29.1204 50.6985 29.0602 50.7447 29.0162C50.7909 28.9722 50.8522 28.9476 50.9161 28.9476C50.9799 28.9476 51.0412 28.9722 51.0874 29.0162C51.1336 29.0602 51.1611 29.1204 51.1641 29.1841C51.1643 29.2498 51.1904 29.3127 51.2369 29.3592C51.2833 29.4056 51.3463 29.4318 51.4119 29.4319H51.7423C51.808 29.4318 51.8709 29.4056 51.9174 29.3592C51.9638 29.3127 51.99 29.2498 51.9901 29.1841V28.8537C51.9901 28.788 51.964 28.7249 51.9176 28.6783C51.8711 28.6317 51.8081 28.6055 51.7423 28.6054H51.4119C51.2148 28.6052 51.0257 28.5269 50.8862 28.3875C50.7468 28.2481 50.6683 28.0591 50.668 27.862V27.5316C50.6683 27.3343 50.7467 27.1453 50.8862 27.0058C51.0257 26.8664 51.2147 26.7879 51.4119 26.7876H51.7423C51.9395 26.7879 52.1285 26.8664 52.2679 27.0059C52.4072 27.1453 52.4856 27.3344 52.4857 27.5316C52.4857 27.5973 52.4596 27.6603 52.4131 27.7068C52.3667 27.7533 52.3037 27.7794 52.2379 27.7794C52.1722 27.7794 52.1092 27.7533 52.0627 27.7068C52.0162 27.6603 51.9901 27.5973 51.9901 27.5316C51.99 27.4659 51.9638 27.4029 51.9174 27.3565C51.8709 27.3101 51.808 27.2839 51.7423 27.2838H51.4119C51.3462 27.2838 51.2832 27.3099 51.2367 27.3563C51.1902 27.4028 51.1641 27.4658 51.1641 27.5316V27.862C51.1641 27.9277 51.1902 27.9907 51.2367 28.0372C51.2832 28.0837 51.3462 28.1098 51.4119 28.1098H51.7423C51.9395 28.1101 52.1285 28.1886 52.2679 28.328C52.4072 28.4675 52.4856 28.6566 52.4857 28.8537V29.1841C52.4854 29.3812 52.407 29.5701 52.2677 29.7095C52.1283 29.8488 51.9394 29.9272 51.7423 29.9275Z" fill="#30354C"/>
<path d="M51.5769 27.2838C51.5112 27.2837 51.4483 27.2575 51.4018 27.2111C51.3554 27.1647 51.3293 27.1017 51.3291 27.036V26.4573C51.3291 26.3916 51.3552 26.3285 51.4017 26.2821C51.4482 26.2356 51.5112 26.2095 51.5769 26.2095C51.6426 26.2095 51.7056 26.2356 51.7521 26.2821C51.7986 26.3285 51.8247 26.3916 51.8247 26.4573V27.036C51.8246 27.1017 51.7984 27.1647 51.752 27.2111C51.7055 27.2575 51.6426 27.2837 51.5769 27.2838Z" fill="#30354C"/>
<path d="M51.5769 30.5058C51.5112 30.5058 51.4482 30.4797 51.4017 30.4333C51.3552 30.3868 51.3291 30.3238 51.3291 30.258V29.6804C51.3291 29.6147 51.3552 29.5517 51.4017 29.5052C51.4482 29.4587 51.5112 29.4326 51.5769 29.4326C51.6426 29.4326 51.7056 29.4587 51.7521 29.5052C51.7986 29.5517 51.8247 29.6147 51.8247 29.6804V30.2586C51.8246 30.3242 51.7984 30.3871 51.7519 30.4335C51.7055 30.4798 51.6425 30.5058 51.5769 30.5058Z" fill="#30354C"/>
</svg>
