<svg width="71" height="71" viewBox="0 0 71 71" fill="none" xmlns="http://www.w3.org/2000/svg">
<path d="M55.0181 39.2056C55.6882 35.1566 60.287 30.3903 58.7127 26.2777C57.1384 22.1651 50.5095 21.6143 47.299 19.0216C43.9889 16.346 42.0621 10.0642 37.8459 9.37809C33.7593 8.7151 29.9445 13.9934 25.7928 15.5527C21.6411 17.1119 15.2539 15.6618 12.6364 18.842C9.93622 22.1226 12.6953 28.0926 12.0052 32.2701C11.3352 36.3198 6.73635 41.0854 8.31061 45.1987C9.88487 49.3119 16.5138 49.8614 19.7243 52.4547C23.0357 55.1298 24.9625 61.4129 29.1799 62.097C33.2671 62.7607 37.0819 57.4817 41.2336 55.9225C45.3853 54.3632 51.7725 55.8133 54.3901 52.6337C57.0871 49.3569 54.3281 43.3831 55.0181 39.2056Z" fill="#F6F6F6"/>
<path d="M39.2694 52.413H11.8419C11.7859 52.413 11.7322 52.3909 11.6927 52.3515C11.6531 52.3121 11.6309 52.2586 11.6309 52.2029C11.6309 52.1471 11.6531 52.0937 11.6927 52.0542C11.7322 52.0148 11.7859 51.9927 11.8419 51.9927H39.2694C39.3253 51.9927 39.379 52.0148 39.4186 52.0542C39.4582 52.0937 39.4804 52.1471 39.4804 52.2029C39.4804 52.2586 39.4582 52.3121 39.4186 52.3515C39.379 52.3909 39.3253 52.413 39.2694 52.413Z" fill="#282C3F"/>
<path d="M37.5803 52.2042H13.5293V37.422L25.5548 27.8745L37.5803 37.422V52.2042Z" fill="#EDEDED"/>
<path d="M35.2596 49.8927L13.5293 50.943V38.0525L25.5548 29.7661L35.2596 37.422V49.8927Z" fill="white"/>
<path d="M37.5807 47.7908C37.553 47.7909 37.5256 47.7855 37.5 47.775C37.4744 47.7645 37.4512 47.7491 37.4315 47.7296C37.4119 47.7102 37.3964 47.687 37.3858 47.6616C37.3752 47.6361 37.3697 47.6088 37.3697 47.5812V37.5235L25.5552 28.1432L13.7401 37.5235V40.4381C13.7417 40.4666 13.7374 40.4951 13.7275 40.5219C13.7176 40.5488 13.7023 40.5733 13.6826 40.594C13.6629 40.6148 13.6391 40.6313 13.6128 40.6426C13.5864 40.6539 13.5581 40.6597 13.5294 40.6597C13.5007 40.6597 13.4723 40.6539 13.446 40.6426C13.4196 40.6313 13.3959 40.6148 13.3762 40.594C13.3564 40.5733 13.3412 40.5488 13.3313 40.5219C13.3214 40.4951 13.3171 40.4666 13.3187 40.4381V37.4219C13.3186 37.3903 13.3258 37.3592 13.3395 37.3308C13.3533 37.3024 13.3734 37.2774 13.3982 37.2579L25.4212 27.7103C25.4586 27.6807 25.5049 27.6646 25.5527 27.6646C25.6005 27.6646 25.6468 27.6807 25.6842 27.7103L37.7122 37.2572C37.737 37.2769 37.7569 37.3019 37.7707 37.3302C37.7845 37.3586 37.7917 37.3897 37.7918 37.4213V47.5812C37.7918 47.6088 37.7863 47.6361 37.7757 47.6616C37.7651 47.687 37.7495 47.7102 37.7299 47.7296C37.7103 47.7491 37.687 47.7645 37.6614 47.775C37.6358 47.7855 37.6084 47.7909 37.5807 47.7908Z" fill="#282C3F"/>
<path d="M37.5807 52.4129H13.5297C13.4737 52.4129 13.4201 52.3908 13.3805 52.3513C13.3409 52.3119 13.3187 52.2585 13.3187 52.2027V41.6972C13.3171 41.6687 13.3214 41.6402 13.3313 41.6133C13.3412 41.5865 13.3564 41.562 13.3762 41.5413C13.3959 41.5205 13.4196 41.504 13.446 41.4927C13.4723 41.4814 13.5007 41.4756 13.5294 41.4756C13.5581 41.4756 13.5864 41.4814 13.6128 41.4927C13.6391 41.504 13.6629 41.5205 13.6826 41.5413C13.7023 41.562 13.7176 41.5865 13.7275 41.6133C13.7374 41.6402 13.7417 41.6687 13.7401 41.6972V51.9938H37.3697V48.8416C37.3697 48.7859 37.3919 48.7324 37.4315 48.693C37.4711 48.6536 37.5248 48.6314 37.5807 48.6314C37.6367 48.6314 37.6904 48.6536 37.7299 48.693C37.7695 48.7324 37.7918 48.7859 37.7918 48.8416V52.204C37.7914 52.2595 37.769 52.3126 37.7295 52.3518C37.69 52.3909 37.6365 52.4129 37.5807 52.4129Z" fill="#282C3F"/>
<path d="M11.8418 38.7622L25.5555 27.8743L39.2687 38.7622V35.774L25.5555 24.8862L11.8418 35.774V38.7622Z" fill="#52576A"/>
<path d="M11.8418 38.7623L25.5555 27.8745L39.2687 38.7623V36.1945L25.5555 26.1475L11.8418 37.455V38.7623Z" fill="#30354C"/>
<path d="M39.2694 38.9725C39.2215 38.9727 39.175 38.9564 39.1379 38.9263L25.5556 28.1433L11.9734 38.9263C11.9424 38.9512 11.905 38.9669 11.8655 38.9714C11.826 38.976 11.7859 38.9693 11.7501 38.9521C11.7142 38.9349 11.684 38.908 11.6629 38.8744C11.6418 38.8408 11.6307 38.8019 11.6309 38.7623V35.7742C11.6308 35.7426 11.638 35.7115 11.6517 35.6831C11.6655 35.6547 11.6856 35.6297 11.7104 35.6102L25.4241 24.7211C25.4615 24.6914 25.5079 24.6753 25.5556 24.6753C25.6034 24.6753 25.6498 24.6914 25.6871 24.7211L29.8388 28.0173C29.8611 28.0343 29.8797 28.0556 29.8936 28.0798C29.9075 28.1041 29.9164 28.1308 29.9198 28.1585C29.9232 28.1863 29.921 28.2144 29.9134 28.2412C29.9057 28.2681 29.8928 28.2932 29.8753 28.315C29.8579 28.3368 29.8362 28.355 29.8116 28.3684C29.787 28.3818 29.76 28.3902 29.7321 28.3931C29.7042 28.396 29.676 28.3933 29.6492 28.3852C29.6224 28.3771 29.5974 28.3638 29.5758 28.346L25.5556 25.1577L12.0529 35.8752V38.3257L25.4241 27.7105C25.4615 27.6808 25.5079 27.6647 25.5556 27.6647C25.6034 27.6647 25.6498 27.6808 25.6871 27.7105L39.0584 38.3257V35.8752L30.6798 29.2235C30.6576 29.2065 30.639 29.1853 30.6251 29.161C30.6112 29.1368 30.6023 29.11 30.5989 29.0823C30.5955 29.0546 30.5977 29.0265 30.6053 28.9996C30.6129 28.9728 30.6259 28.9477 30.6433 28.9258C30.6608 28.904 30.6825 28.8859 30.707 28.8725C30.7316 28.8591 30.7587 28.8507 30.7865 28.8478C30.8144 28.8449 30.8426 28.8476 30.8694 28.8557C30.8963 28.8637 30.9212 28.8771 30.9428 28.8949L39.4003 35.6102C39.4252 35.6297 39.4453 35.6546 39.4591 35.683C39.4729 35.7114 39.48 35.7426 39.4798 35.7742V38.7623C39.4793 38.8014 39.4679 38.8396 39.4469 38.8726C39.4259 38.9056 39.3961 38.9322 39.3608 38.9494C39.3324 38.9637 39.3012 38.9716 39.2694 38.9725Z" fill="#282C3F"/>
<path d="M32.3508 37.4658L21.2834 44.5759C21.0612 44.7157 20.869 44.898 20.7179 45.1122C20.5669 45.3264 20.4599 45.5682 20.4033 45.8238C20.3466 46.0794 20.3413 46.3437 20.3878 46.6013C20.4342 46.859 20.5314 47.1049 20.6739 47.3249C20.8163 47.5449 21.001 47.7346 21.2175 47.883C21.4339 48.0315 21.6777 48.1358 21.9349 48.1899C22.192 48.2439 22.4574 48.2467 22.7156 48.1981C22.9738 48.1494 23.2198 48.0503 23.4394 47.9064L32.3508 42.1828V37.4658Z" fill="#B8B5C6"/>
<path d="M26.1123 49.4721L16.6035 49.9374L20.9525 41.502L26.1123 49.4721Z" fill="#B8B5C6"/>
<path d="M32.3177 36.1875L20.2891 43.9138C19.8534 44.202 19.5493 44.6495 19.4424 45.1595C19.3355 45.6694 19.4345 46.2007 19.718 46.6385C20.0016 47.0762 20.4467 47.3852 20.9572 47.4984C21.4677 47.6117 22.0025 47.5202 22.4457 47.2437L32.3177 40.9026V36.1875Z" fill="#52576A"/>
<path d="M25.1182 48.812L15.6094 49.2773L19.9577 40.8418L25.1182 48.812Z" fill="#52576A"/>
<path d="M32.3514 36.0596L21.4599 43.1616L19.9577 40.8414L15.6094 49.2769L32.3514 38.4171V36.0596Z" fill="#30354C"/>
<path d="M48.6996 47.4608C48.6346 47.4601 48.5712 47.4405 48.5173 47.4042C48.4635 47.368 48.4214 47.3169 48.3965 47.2571C48.3716 47.1973 48.3648 47.1315 48.377 47.068C48.3893 47.0044 48.42 46.9458 48.4654 46.8994L49.4598 45.9065C49.5227 45.8484 49.6059 45.8168 49.6917 45.8184C49.7775 45.82 49.8594 45.8547 49.9201 45.9152C49.9808 45.9756 50.0156 46.0572 50.0173 46.1427C50.0189 46.2282 49.9872 46.311 49.9288 46.3737L48.9344 47.3641C48.8721 47.426 48.7876 47.4608 48.6996 47.4608Z" fill="#989AA6"/>
<path d="M46.3783 49.7722C46.3133 49.7716 46.2499 49.7519 46.196 49.7157C46.1422 49.6795 46.1002 49.6283 46.0752 49.5686C46.0503 49.5088 46.0435 49.443 46.0557 49.3794C46.068 49.3159 46.0987 49.2573 46.1441 49.2109L47.1385 48.2205C47.2014 48.1624 47.2846 48.1308 47.3704 48.1324C47.4562 48.134 47.5381 48.1687 47.5988 48.2291C47.6595 48.2896 47.6944 48.3712 47.696 48.4567C47.6976 48.5421 47.6659 48.6249 47.6075 48.6876L46.6131 49.6781C46.5504 49.7391 46.466 49.7729 46.3783 49.7722Z" fill="#989AA6"/>
<path d="M49.6947 49.7723C49.6067 49.7723 49.5222 49.7375 49.4599 49.6756L48.4655 48.6852C48.4071 48.6225 48.3754 48.5397 48.377 48.4542C48.3786 48.3687 48.4135 48.2872 48.4742 48.2267C48.5349 48.1662 48.6167 48.1316 48.7026 48.1299C48.7884 48.1283 48.8715 48.1599 48.9345 48.2181L49.9289 49.2085C49.9743 49.2548 50.005 49.3134 50.0172 49.377C50.0295 49.4406 50.0227 49.5063 49.9978 49.5661C49.9728 49.6259 49.9308 49.6771 49.8769 49.7133C49.8231 49.7495 49.7597 49.7691 49.6947 49.7698V49.7723Z" fill="#989AA6"/>
<path d="M47.3734 47.4608C47.2854 47.4608 47.2009 47.426 47.1386 47.3641L46.1442 46.3737C46.0858 46.311 46.0541 46.2282 46.0557 46.1427C46.0573 46.0572 46.0922 45.9756 46.1529 45.9152C46.2136 45.8547 46.2955 45.82 46.3813 45.8184C46.4671 45.8168 46.5503 45.8484 46.6132 45.9065L47.6076 46.897C47.653 46.9433 47.6837 47.0019 47.6959 47.0655C47.7082 47.1291 47.7014 47.1948 47.6765 47.2546C47.6515 47.3144 47.6095 47.3655 47.5556 47.4017C47.5018 47.438 47.4384 47.4576 47.3734 47.4583V47.4608Z" fill="#989AA6"/>
<path d="M7.65257 30.1249C7.58745 30.1245 7.52388 30.1051 7.46982 30.0689C7.41576 30.0327 7.37359 29.9815 7.3486 29.9216C7.32361 29.8617 7.3169 29.7958 7.32931 29.7321C7.34172 29.6684 7.3727 29.6098 7.41837 29.5636L8.41277 28.5725C8.47573 28.5144 8.55886 28.4828 8.64469 28.4844C8.73053 28.486 8.81241 28.5207 8.87311 28.5812C8.93382 28.6417 8.96864 28.7232 8.97026 28.8087C8.97188 28.8942 8.94017 28.977 8.8818 29.0397L7.88677 30.0282C7.85612 30.059 7.81963 30.0834 7.77942 30.1C7.73921 30.1166 7.69609 30.1251 7.65257 30.1249Z" fill="#989AA6"/>
<path d="M5.33144 32.4364C5.28792 32.4366 5.24479 32.4281 5.20457 32.4115C5.16436 32.3949 5.12787 32.3705 5.09725 32.3397C5.06642 32.3091 5.04197 32.2727 5.02528 32.2327C5.00859 32.1927 5 32.1498 5 32.1064C5 32.0631 5.00859 32.0202 5.02528 31.9801C5.04197 31.9401 5.06642 31.9038 5.09725 31.8732L6.09165 30.8821C6.1546 30.824 6.23773 30.7924 6.32357 30.794C6.40941 30.7956 6.49128 30.8303 6.55199 30.8908C6.6127 30.9512 6.64752 31.0328 6.64914 31.1183C6.65076 31.2038 6.61905 31.2866 6.56067 31.3493L5.56314 32.3397C5.53279 32.3702 5.4967 32.3944 5.45695 32.411C5.41719 32.4276 5.37455 32.4362 5.33144 32.4364Z" fill="#989AA6"/>
<path d="M8.64614 32.4359C8.60262 32.4361 8.5595 32.4276 8.51929 32.411C8.47908 32.3944 8.44259 32.37 8.41195 32.3393L7.41754 31.3488C7.35535 31.287 7.32037 31.203 7.32031 31.1155C7.32025 31.0279 7.35512 30.9439 7.41723 30.882C7.47934 30.82 7.56362 30.7852 7.65152 30.7852C7.73942 30.7851 7.82374 30.8198 7.88594 30.8817L8.88159 31.8727C8.9273 31.919 8.95829 31.9777 8.97068 32.0414C8.98307 32.1051 8.97631 32.1711 8.95124 32.231C8.92617 32.2909 8.88391 32.3422 8.82975 32.3783C8.7756 32.4144 8.71194 32.4338 8.64677 32.4341L8.64614 32.4359Z" fill="#989AA6"/>
<path d="M6.32613 30.1246C6.28261 30.1248 6.23949 30.1163 6.19928 30.0997C6.15907 30.0831 6.12258 30.0587 6.09193 30.0279L5.09753 29.0375C5.04189 28.9747 5.01231 28.8932 5.01479 28.8095C5.01727 28.7257 5.05163 28.6461 5.11089 28.5867C5.17015 28.5273 5.24988 28.4925 5.33392 28.4895C5.41795 28.4864 5.5 28.5154 5.56342 28.5703L6.55845 29.5614C6.60416 29.6077 6.63515 29.6663 6.64754 29.7301C6.65992 29.7938 6.65316 29.8598 6.62809 29.9197C6.60303 29.9796 6.56077 30.0308 6.50661 30.067C6.45245 30.1031 6.3888 30.1225 6.32363 30.1227L6.32613 30.1246Z" fill="#989AA6"/>
<path d="M33.0137 18.8582C32.9486 18.8577 32.8852 18.8381 32.8312 18.802C32.7772 18.7658 32.7351 18.7146 32.7101 18.6548C32.6851 18.595 32.6783 18.5292 32.6905 18.4656C32.7027 18.402 32.7334 18.3433 32.7788 18.2969L33.7739 17.3065C33.8361 17.2446 33.9204 17.2099 34.0083 17.21C34.0962 17.21 34.1805 17.2449 34.2426 17.3068C34.3047 17.3687 34.3396 17.4527 34.3395 17.5403C34.3394 17.6278 34.3045 17.7118 34.2423 17.7736L33.2479 18.7641C33.1853 18.825 33.1012 18.8589 33.0137 18.8582Z" fill="#989AA6"/>
<path d="M30.6934 21.1722C30.6283 21.1717 30.5649 21.1521 30.5109 21.1159C30.4569 21.0798 30.4148 21.0286 30.3898 20.9688C30.3648 20.909 30.3579 20.8432 30.3702 20.7796C30.3824 20.7159 30.4131 20.6573 30.4585 20.6109L31.4536 19.6205C31.5158 19.5586 31.6001 19.5239 31.688 19.5239C31.7759 19.524 31.8602 19.5588 31.9223 19.6208C31.9844 19.6827 32.0192 19.7667 32.0192 19.8542C32.0191 19.9418 31.9842 20.0257 31.922 20.0876L30.9276 21.078C30.865 21.1389 30.7808 21.1728 30.6934 21.1722Z" fill="#989AA6"/>
<path d="M34.0082 21.1722C33.9647 21.1723 33.9216 21.1637 33.8814 21.1472C33.8412 21.1306 33.8047 21.1062 33.774 21.0755L32.779 20.0851C32.7206 20.0224 32.6889 19.9396 32.6905 19.8541C32.6921 19.7686 32.7269 19.6871 32.7876 19.6266C32.8483 19.5661 32.9302 19.5315 33.0161 19.5298C33.1019 19.5282 33.185 19.5598 33.248 19.618L34.243 20.6084C34.2884 20.6547 34.3191 20.7133 34.3313 20.7769C34.3436 20.8405 34.3368 20.9062 34.3119 20.966C34.2869 21.0258 34.2449 21.077 34.191 21.1132C34.1372 21.1494 34.0738 21.169 34.0088 21.1697L34.0082 21.1722Z" fill="#989AA6"/>
<path d="M31.6879 18.8582C31.6444 18.8583 31.6013 18.8498 31.5611 18.8332C31.5209 18.8166 31.4844 18.7923 31.4537 18.7616L30.4586 17.7711C30.4003 17.7084 30.3686 17.6256 30.3702 17.5401C30.3718 17.4546 30.4066 17.3731 30.4673 17.3126C30.528 17.2522 30.6099 17.2175 30.6957 17.2159C30.7816 17.2143 30.8647 17.2458 30.9277 17.304L31.9221 18.2969C31.9674 18.3433 31.9982 18.4019 32.0104 18.4654C32.0226 18.529 32.0159 18.5948 31.9909 18.6545C31.966 18.7143 31.924 18.7655 31.8701 18.8017C31.8162 18.8379 31.7529 18.8576 31.6879 18.8582Z" fill="#989AA6"/>
<path d="M9.30992 51.5887C9.24493 51.588 9.18156 51.5684 9.12769 51.5322C9.07381 51.496 9.0318 51.4448 9.00685 51.385C8.98191 51.3252 8.97514 51.2595 8.98739 51.1959C8.99963 51.1323 9.03034 51.0737 9.07572 51.0274L10.072 50.0345C10.135 49.9763 10.2181 49.9447 10.3039 49.9463C10.3898 49.948 10.4716 49.9826 10.5323 50.0431C10.5931 50.1036 10.6279 50.1851 10.6295 50.2706C10.6311 50.3561 10.5994 50.4389 10.541 50.5016L9.54662 51.492C9.51553 51.5229 9.47861 51.5474 9.43798 51.5639C9.39735 51.5805 9.35383 51.589 9.30992 51.5887Z" fill="#989AA6"/>
<path d="M6.98863 53.9002C6.92364 53.8995 6.86027 53.8798 6.8064 53.8436C6.75252 53.8074 6.71051 53.7563 6.68557 53.6965C6.66062 53.6367 6.65385 53.5709 6.6661 53.5074C6.67834 53.4438 6.70906 53.3852 6.75443 53.3388L7.74884 52.3484C7.81179 52.2903 7.89492 52.2587 7.98076 52.2603C8.0666 52.2619 8.14847 52.2966 8.20918 52.3571C8.26988 52.4175 8.3047 52.4991 8.30632 52.5846C8.30794 52.6701 8.27623 52.7529 8.21786 52.8156L7.22283 53.8035C7.19212 53.8342 7.15562 53.8585 7.11542 53.8751C7.07523 53.8917 7.03214 53.9002 6.98863 53.9002Z" fill="#989AA6"/>
<path d="M10.3051 53.8997C10.217 53.8997 10.1326 53.865 10.0702 53.8031L9.07583 52.8126C9.01745 52.7499 8.98574 52.6671 8.98736 52.5816C8.98898 52.4962 9.0238 52.4146 9.08451 52.3541C9.14522 52.2937 9.22709 52.259 9.31293 52.2574C9.39877 52.2558 9.4819 52.2874 9.54485 52.3455L10.5393 53.3359C10.5846 53.3823 10.6153 53.4409 10.6276 53.5044C10.6398 53.568 10.6331 53.6338 10.6081 53.6936C10.5832 53.7533 10.5412 53.8045 10.4873 53.8407C10.4334 53.8769 10.37 53.8966 10.3051 53.8972V53.8997Z" fill="#989AA6"/>
<path d="M7.98298 51.5883C7.89515 51.5882 7.81093 51.5534 7.74879 51.4916L6.7525 50.5012C6.72171 50.4705 6.69727 50.4342 6.68059 50.3941C6.6639 50.3541 6.6553 50.3112 6.65527 50.2678C6.65524 50.2245 6.66379 50.1815 6.68042 50.1415C6.69705 50.1014 6.72143 50.065 6.75219 50.0343C6.78295 50.0037 6.81947 49.9793 6.85966 49.9627C6.89986 49.9461 6.94296 49.9375 6.98648 49.9375C7.07438 49.9374 7.1587 49.9722 7.2209 50.034L8.21593 51.0245C8.26134 51.0708 8.29207 51.1295 8.30429 51.1931C8.31651 51.2568 8.30969 51.3226 8.28467 51.3824C8.25965 51.4422 8.21754 51.4933 8.16357 51.5295C8.1096 51.5657 8.04615 51.5852 7.9811 51.5858L7.98298 51.5883Z" fill="#989AA6"/>
<path d="M47.7689 10.6424C47.7039 10.6417 47.6405 10.622 47.5867 10.5858C47.5328 10.5496 47.4908 10.4984 47.4658 10.4387C47.4409 10.3789 47.4341 10.3131 47.4464 10.2496C47.4586 10.186 47.4893 10.1274 47.5347 10.081L48.5291 9.09061C48.5921 9.03247 48.6752 9.00089 48.761 9.0025C48.8469 9.00411 48.9287 9.03879 48.9895 9.09926C49.0502 9.15972 49.085 9.24127 49.0866 9.32677C49.0882 9.41226 49.0565 9.49505 48.9981 9.55776L48.0037 10.5482C47.941 10.6092 47.8566 10.643 47.7689 10.6424Z" fill="#989AA6"/>
<path d="M45.4465 12.954C45.3814 12.9536 45.3178 12.9342 45.2638 12.898C45.2097 12.8618 45.1675 12.8106 45.1425 12.7507C45.1176 12.6908 45.1108 12.6249 45.1233 12.5612C45.1357 12.4976 45.1666 12.4389 45.2123 12.3927L46.2067 11.4016C46.2697 11.3435 46.3528 11.3119 46.4386 11.3135C46.5245 11.3151 46.6064 11.3498 46.6671 11.4103C46.7278 11.4708 46.7626 11.5523 46.7642 11.6378C46.7658 11.7233 46.7341 11.8061 46.6757 11.8688L45.6813 12.8592C45.6504 12.8896 45.6137 12.9137 45.5734 12.93C45.5331 12.9462 45.49 12.9544 45.4465 12.954Z" fill="#989AA6"/>
<path d="M48.7631 12.9539C48.7195 12.9541 48.6762 12.9456 48.6359 12.929C48.5956 12.9124 48.559 12.888 48.5282 12.8573L47.5338 11.8668C47.4755 11.8041 47.4438 11.7213 47.4454 11.6358C47.447 11.5504 47.4818 11.4688 47.5425 11.4083C47.6032 11.3479 47.6851 11.3132 47.7709 11.3116C47.8568 11.31 47.9399 11.3416 48.0029 11.3997L48.9973 12.3907C49.0429 12.437 49.0739 12.4956 49.0863 12.5593C49.0987 12.6229 49.092 12.6889 49.067 12.7487C49.042 12.8086 48.9999 12.8599 48.9458 12.896C48.8918 12.9322 48.8282 12.9517 48.7631 12.9521V12.9539Z" fill="#989AA6"/>
<path d="M46.4418 10.6424C46.3537 10.6424 46.2693 10.6077 46.207 10.5457L45.2125 9.55532C45.1542 9.49261 45.1225 9.40982 45.1241 9.32432C45.1257 9.23883 45.1605 9.15728 45.2212 9.09682C45.2819 9.03635 45.3638 9.00167 45.4496 9.00006C45.5355 8.99845 45.6186 9.03003 45.6816 9.08817L46.676 10.0786C46.7213 10.1249 46.7521 10.1835 46.7643 10.2471C46.7766 10.3107 46.7698 10.3764 46.7448 10.4362C46.7199 10.496 46.6779 10.5472 46.624 10.5834C46.5701 10.6196 46.5068 10.6393 46.4418 10.6399V10.6424Z" fill="#989AA6"/>
<path d="M62.7021 40.5193C62.6371 40.5187 62.5736 40.4991 62.5197 40.463C62.4657 40.4268 62.4236 40.3757 62.3986 40.3159C62.3736 40.2561 62.3667 40.1902 62.379 40.1266C62.3912 40.063 62.4219 40.0043 62.4673 39.9579L63.4623 38.9675C63.5248 38.9075 63.6085 38.8742 63.6953 38.875C63.7821 38.8758 63.8652 38.9105 63.9266 38.9716C63.988 39.0328 64.0228 39.1155 64.0236 39.202C64.0244 39.2885 63.991 39.3718 63.9307 39.434L62.9363 40.4251C62.8738 40.486 62.7896 40.5199 62.7021 40.5193Z" fill="#989AA6"/>
<path d="M60.3809 42.8308C60.3158 42.8302 60.2524 42.8107 60.1984 42.7745C60.1444 42.7383 60.1023 42.6872 60.0773 42.6274C60.0523 42.5676 60.0454 42.5018 60.0577 42.4381C60.0699 42.3745 60.1006 42.3158 60.146 42.2695L61.1411 41.279C61.2035 41.219 61.2872 41.1858 61.374 41.1865C61.4609 41.1873 61.5439 41.222 61.6053 41.2832C61.6667 41.3443 61.7015 41.427 61.7023 41.5135C61.7031 41.6 61.6698 41.6833 61.6095 41.7456L60.6151 42.7366C60.5525 42.7976 60.4683 42.8314 60.3809 42.8308Z" fill="#989AA6"/>
<path d="M63.6963 42.8308C63.6084 42.8308 63.5242 42.796 63.4621 42.7341L62.467 41.743C62.4049 41.6811 62.3701 41.5971 62.3701 41.5096C62.3702 41.422 62.4051 41.3381 62.4673 41.2762C62.5295 41.2143 62.6139 41.1796 62.7018 41.1797C62.7897 41.1797 62.8739 41.2146 62.9361 41.2765L63.9305 42.267C63.9758 42.3133 64.0066 42.3719 64.0188 42.4355C64.031 42.499 64.0243 42.5648 63.9993 42.6246C63.9744 42.6844 63.9324 42.7355 63.8785 42.7717C63.8246 42.808 63.7613 42.8276 63.6963 42.8283V42.8308Z" fill="#989AA6"/>
<path d="M61.3759 40.5192C61.3324 40.5193 61.2893 40.5108 61.2492 40.4942C61.209 40.4776 61.1725 40.4533 61.1417 40.4226L60.1467 39.4315C60.0846 39.3696 60.0497 39.2856 60.0498 39.198C60.0499 39.1105 60.0848 39.0266 60.147 38.9647C60.2092 38.9028 60.2936 38.8681 60.3815 38.8682C60.4694 38.8682 60.5536 38.9031 60.6157 38.965L61.6083 39.9554C61.6536 40.0018 61.6844 40.0604 61.6966 40.1239C61.7088 40.1875 61.7021 40.2533 61.6771 40.3131C61.6522 40.3728 61.6102 40.424 61.5563 40.4602C61.5024 40.4964 61.4391 40.5161 61.3741 40.5168L61.3759 40.5192Z" fill="#989AA6"/>
<path d="M64.8056 36.9035H40.9224C40.8755 36.9008 40.8314 36.8803 40.7992 36.8463C40.767 36.8123 40.749 36.7673 40.749 36.7205C40.749 36.6737 40.767 36.6287 40.7992 36.5947C40.8314 36.5606 40.8755 36.5401 40.9224 36.5374H64.8056C64.8306 36.536 64.8557 36.5396 64.8793 36.5482C64.9028 36.5567 64.9244 36.5699 64.9427 36.5871C64.9609 36.6042 64.9754 36.6249 64.9854 36.6478C64.9953 36.6708 65.0004 36.6955 65.0004 36.7205C65.0004 36.7455 64.9953 36.7702 64.9854 36.7931C64.9754 36.816 64.9609 36.8367 64.9427 36.8539C64.9244 36.871 64.9028 36.8842 64.8793 36.8928C64.8557 36.9013 64.8306 36.905 64.8056 36.9035Z" fill="#282C3F"/>
<path d="M63.3354 36.7203H42.3916V23.8485L52.8635 15.5347L63.3354 23.8485V36.7203Z" fill="#EDEDED"/>
<path d="M61.3147 34.7074L42.3916 35.6224V24.3972L52.8635 17.1816L61.3147 23.8483V34.7074Z" fill="white"/>
<path d="M63.3353 32.8778C63.2867 32.8778 63.24 32.8585 63.2056 32.8243C63.1712 32.79 63.1518 32.7435 63.1518 32.695V23.9365L52.8634 15.7661L42.575 23.9365V26.4737C42.575 26.5222 42.5556 26.5686 42.5212 26.6029C42.4868 26.6372 42.4401 26.6564 42.3915 26.6564C42.3428 26.6564 42.2962 26.6372 42.2617 26.6029C42.2273 26.5686 42.208 26.5222 42.208 26.4737V23.8479C42.208 23.8205 42.2142 23.7934 42.2261 23.7687C42.238 23.744 42.2554 23.7222 42.2769 23.7051L52.7488 15.3913C52.7813 15.3653 52.8217 15.3511 52.8634 15.3511C52.9051 15.3511 52.9455 15.3653 52.978 15.3913L63.4499 23.7051C63.4714 23.7222 63.4888 23.744 63.5007 23.7687C63.5126 23.7934 63.5188 23.8205 63.5188 23.8479V32.695C63.5188 32.719 63.514 32.7428 63.5048 32.765C63.4956 32.7871 63.4821 32.8073 63.4651 32.8243C63.448 32.8412 63.4278 32.8547 63.4055 32.8639C63.3833 32.873 63.3594 32.8778 63.3353 32.8778Z" fill="#282C3F"/>
<path d="M63.3353 36.9037H42.3915C42.3428 36.9036 42.2961 36.8842 42.2617 36.8498C42.2273 36.8154 42.208 36.7689 42.208 36.7204V27.5714C42.208 27.5229 42.2273 27.4765 42.2617 27.4422C42.2962 27.4079 42.3428 27.3887 42.3915 27.3887C42.4401 27.3887 42.4868 27.4079 42.5212 27.4422C42.5556 27.4765 42.575 27.5229 42.575 27.5714V36.5376H63.1518V33.7934C63.1518 33.7449 63.1712 33.6984 63.2056 33.6642C63.24 33.6299 63.2867 33.6106 63.3353 33.6106C63.384 33.6106 63.4306 33.6299 63.4651 33.6642C63.4995 33.6984 63.5188 33.7449 63.5188 33.7934V36.721C63.5186 36.7694 63.4992 36.8158 63.4649 36.85C63.4305 36.8843 63.3839 36.9036 63.3353 36.9037Z" fill="#282C3F"/>
<path d="M40.9219 25.0154L52.8635 15.5347L64.8051 25.0154V22.4134L52.8635 12.9326L40.9219 22.4134V25.0154Z" fill="#2FC8F2"/>
<path d="M40.9219 25.0154L52.8635 15.5346L64.8051 25.0154V22.7794L52.8635 14.0303L40.9219 23.8771V25.0154Z" fill="#2CAAE6"/>
<path d="M64.805 25.198C64.7634 25.1981 64.723 25.1843 64.6904 25.1587L52.8634 15.7683L41.0364 25.1574C41.0091 25.1784 40.9766 25.1916 40.9424 25.1954C40.9081 25.1993 40.8735 25.1937 40.8422 25.1793C40.811 25.1643 40.7847 25.1408 40.7663 25.1116C40.7479 25.0823 40.7382 25.0485 40.7383 25.014V22.4132C40.7382 22.3857 40.7443 22.3586 40.7562 22.3339C40.7682 22.3091 40.7856 22.2874 40.8072 22.2703L52.7488 12.7902C52.7813 12.7642 52.8217 12.75 52.8634 12.75C52.905 12.75 52.9455 12.7642 52.978 12.7902L56.5936 15.6592C56.6287 15.6904 56.6504 15.7338 56.6543 15.7805C56.6583 15.8272 56.6441 15.8736 56.6148 15.9102C56.5855 15.9468 56.5432 15.9709 56.4967 15.9774C56.4501 15.984 56.4028 15.9725 56.3644 15.9455L52.8634 13.1657L41.1052 22.5011V24.6354L52.7488 15.3916C52.7813 15.3656 52.8217 15.3514 52.8634 15.3514C52.905 15.3514 52.9455 15.3656 52.978 15.3916L64.6215 24.6354V22.5011L57.3257 16.7089C57.3059 16.6943 57.2893 16.6758 57.2768 16.6547C57.2643 16.6335 57.2562 16.6101 57.2531 16.5858C57.2499 16.5614 57.2516 16.5367 57.2582 16.5131C57.2648 16.4895 57.2762 16.4674 57.2915 16.4482C57.3069 16.429 57.3259 16.4131 57.3476 16.4015C57.3692 16.3898 57.393 16.3825 57.4175 16.3802C57.442 16.3779 57.4668 16.3805 57.4903 16.3879C57.5137 16.3953 57.5355 16.4073 57.5542 16.4232L64.9196 22.2703C64.9412 22.2874 64.9587 22.3091 64.9708 22.3338C64.9828 22.3586 64.9891 22.3857 64.9891 22.4132V25.0152C64.989 25.0498 64.9792 25.0836 64.9607 25.1129C64.9422 25.1421 64.9158 25.1656 64.8845 25.1805C64.8596 25.192 64.8324 25.198 64.805 25.198Z" fill="#282C3F"/>
<path d="M55.445 25.6665C55.3231 25.4783 55.1652 25.3158 54.9802 25.1883C54.7953 25.0608 54.5869 24.9709 54.367 24.9236C54.1472 24.8764 53.9201 24.8727 53.6989 24.9129C53.4776 24.953 53.2664 25.0362 53.0774 25.1576L45.4033 30.0848V34.145L54.9341 28.0266C55.1233 27.9052 55.2867 27.7478 55.4149 27.5634C55.543 27.379 55.6334 27.1713 55.6809 26.9521C55.7283 26.7329 55.7319 26.5065 55.6915 26.2859C55.651 26.0653 55.5673 25.8549 55.445 25.6665Z" fill="#B8B5C6"/>
<path d="M55.2195 30.6704L58.9642 23.4062L50.7754 23.8073L55.2195 30.6704Z" fill="#B8B5C6"/>
<path d="M54.5885 25.0952C54.4666 24.907 54.3087 24.7445 54.1237 24.617C53.9388 24.4895 53.7304 24.3996 53.5105 24.3524C53.2907 24.3051 53.0636 24.3014 52.8423 24.3416C52.6211 24.3817 52.4099 24.4649 52.2209 24.5863L45.374 28.9834V33.0442L54.0782 27.4541C54.4599 27.2086 54.7281 26.8223 54.8238 26.3799C54.9195 25.9376 54.8349 25.4755 54.5885 25.0952Z" fill="#2CAAE6"/>
<path d="M54.3634 30.1016L58.1081 22.8374L49.9199 23.2384L54.3634 30.1016Z" fill="#2CAAE6"/>
<path d="M45.374 28.9739V31.004L58.1078 22.8374L49.9196 23.2384L51.2127 25.2361L45.374 28.9739Z" fill="#2FC8F2"/>
<path d="M45.5 26.0493C47.1099 28.1173 47.9069 30.6992 47.7417 33.3108C47.5765 35.9224 46.4604 38.3842 44.6026 40.2346C42.7448 42.0849 40.2731 43.1966 37.651 43.3612C35.0289 43.5257 32.4366 42.7318 30.3604 41.1284C31.2985 42.3346 32.4837 43.328 33.8372 44.0426C35.1907 44.7572 36.6815 45.1766 38.2103 45.2729C39.7392 45.3692 41.2711 45.1402 42.7042 44.6011C44.1373 44.062 45.4387 43.2252 46.522 42.1463C47.6052 41.0674 48.4454 39.7712 48.9866 38.3438C49.5279 36.9164 49.7578 35.3906 49.6611 33.8679C49.5645 32.3452 49.1434 30.8604 48.4259 29.5123C47.7084 28.1642 46.711 26.9837 45.5 26.0493Z" fill="#EDEDED"/>
<path d="M47.7641 32.6338C47.7672 30.2492 46.9705 27.9317 45.5004 26.0495C43.4241 24.4461 40.8319 23.6521 38.2098 23.8167C35.5877 23.9812 33.116 25.0929 31.2582 26.9433C29.4004 28.7936 28.2842 31.2555 28.119 33.8671C27.9538 36.4787 28.7509 39.0606 30.3608 41.1286C31.9562 42.361 33.8667 43.1229 35.8752 43.3277C37.8837 43.5325 39.9096 43.1719 41.7225 42.287C43.5355 41.4021 45.0629 40.0284 46.131 38.3219C47.1991 36.6154 47.7652 34.6448 47.7647 32.6338H47.7641Z" fill="white"/>
<mask id="mask0_1943_2349" style="mask-type:luminance" maskUnits="userSpaceOnUse" x="28" y="23" width="22" height="23">
<path d="M38.8895 45.2956C44.8507 45.2956 49.6833 40.4824 49.6833 34.545C49.6833 28.6076 44.8507 23.7944 38.8895 23.7944C32.9282 23.7944 28.0957 28.6076 28.0957 34.545C28.0957 40.4824 32.9282 45.2956 38.8895 45.2956Z" fill="white"/>
</mask>
<g mask="url(#mask0_1943_2349)">
<path d="M28.8838 39.7524V49.4852H40.6094V42.7568C38.5773 43.4805 36.374 43.5811 34.284 43.0456C32.1939 42.5101 30.313 41.363 28.8838 39.7524Z" fill="#A09CAD"/>
<path d="M39.2637 36.27L37.1734 35.7236H32.3191L30.2295 36.27C29.8443 36.3708 29.5034 36.5957 29.26 36.9097C29.0165 37.2237 28.8843 37.609 28.8838 38.0057V39.7521C30.3127 41.363 32.1936 42.5104 34.2837 43.0463C36.3737 43.5821 38.5771 43.4818 40.6094 42.7583V38.0057C40.6088 37.6091 40.4765 37.2237 40.2331 36.9098C39.9897 36.5958 39.6488 36.3709 39.2637 36.27Z" fill="#B8B5C6"/>
<path d="M31.2891 49.7539C31.2176 49.7537 31.1492 49.7253 31.0987 49.675C31.0482 49.6246 31.0198 49.5563 31.0198 49.4851V38.5249C31.0181 38.4886 31.0238 38.4522 31.0365 38.4181C31.0493 38.384 31.0688 38.3529 31.094 38.3265C31.1192 38.3002 31.1496 38.2792 31.1831 38.2649C31.2167 38.2506 31.2529 38.2432 31.2894 38.2432C31.326 38.2432 31.3621 38.2506 31.3957 38.2649C31.4293 38.2792 31.4596 38.3002 31.4848 38.3265C31.51 38.3529 31.5296 38.384 31.5423 38.4181C31.5551 38.4522 31.5608 38.4886 31.559 38.5249V49.4851C31.559 49.5564 31.5306 49.6248 31.48 49.6752C31.4293 49.7256 31.3607 49.7539 31.2891 49.7539Z" fill="#282C3F"/>
<path d="M38.2035 49.7536C38.1319 49.7536 38.0633 49.7253 38.0126 49.6749C37.962 49.6245 37.9336 49.5561 37.9336 49.4848V38.5247C37.9336 38.4534 37.962 38.385 38.0126 38.3346C38.0633 38.2842 38.1319 38.2559 38.2035 38.2559C38.2751 38.2559 38.3437 38.2842 38.3943 38.3346C38.4449 38.385 38.4734 38.4534 38.4734 38.5247V49.4848C38.4734 49.5201 38.4664 49.5551 38.4528 49.5877C38.4393 49.6203 38.4194 49.65 38.3943 49.6749C38.3693 49.6999 38.3395 49.7197 38.3068 49.7332C38.274 49.7467 38.2389 49.7536 38.2035 49.7536Z" fill="#34234D"/>
<path d="M40.6091 49.7539H28.8835C28.8121 49.7537 28.7436 49.7253 28.6931 49.6749C28.6426 49.6245 28.6143 49.5563 28.6143 49.4851V38.006C28.6148 37.5499 28.7668 37.1069 29.0466 36.7459C29.3263 36.3849 29.7182 36.1262 30.161 36.0102L32.25 35.4638C32.2725 35.4581 32.2956 35.4552 32.3188 35.4551H37.1731C37.1964 35.4552 37.2195 35.4581 37.242 35.4638L39.3316 36.0102C39.7748 36.1259 40.1671 36.3845 40.4473 36.7455C40.7275 37.1065 40.88 37.5497 40.8809 38.006V49.4819C40.8813 49.5177 40.8745 49.5531 40.861 49.5862C40.8476 49.6193 40.8276 49.6494 40.8023 49.6747C40.777 49.7 40.7468 49.7201 40.7137 49.7337C40.6805 49.7473 40.645 49.7541 40.6091 49.7539ZM29.1534 49.2163H40.3392V38.006C40.3391 37.6683 40.2268 37.3401 40.0197 37.0727C39.8126 36.8053 39.5224 36.6137 39.1945 36.5278L37.1387 35.9902H32.3533L30.2981 36.5303C29.9706 36.6161 29.6807 36.8073 29.4737 37.0742C29.2666 37.3411 29.154 37.6687 29.1534 38.006V49.2163Z" fill="#282C3F"/>
<path d="M34.7442 37.3862C34.7442 37.3862 32.3321 36.7001 32.3164 35.7241C32.5726 35.5963 32.7961 35.4119 32.9698 35.1849C33.1435 34.9578 33.2627 34.6943 33.3183 34.4143C33.334 34.3307 33.3465 33.7987 33.3559 33.7183H36.1343C36.145 33.8106 36.1594 34.3563 36.1788 34.4548C36.2345 34.7279 36.3531 34.9844 36.5252 35.2041C36.6974 35.4238 36.9183 35.6007 37.1707 35.7209C37.1519 36.6964 34.7442 37.3862 34.7442 37.3862Z" fill="#E6E6E6"/>
<path d="M34.7446 37.655C34.7196 37.6549 34.6947 37.6514 34.6707 37.6444C34.2323 37.5197 32.0651 36.8479 32.0469 35.7284C32.046 35.6782 32.0593 35.6287 32.0852 35.5856C32.1111 35.5425 32.1486 35.5075 32.1934 35.4845C32.4126 35.3754 32.604 35.2179 32.7531 35.0242C32.9021 34.8304 33.005 34.6055 33.0538 34.3663C33.0601 34.3232 33.0689 34.1062 33.0739 33.9758C33.0789 33.8455 33.0845 33.7264 33.0889 33.6883C33.0966 33.6229 33.1281 33.5625 33.1775 33.5187C33.2269 33.4749 33.2908 33.4507 33.3569 33.4507H36.1354C36.2016 33.4509 36.2654 33.4752 36.3148 33.5191C36.3642 33.563 36.3957 33.6234 36.4034 33.6889C36.4078 33.7282 36.4134 33.8442 36.419 33.9765C36.4247 34.1087 36.4366 34.3557 36.4447 34.4062C36.4921 34.6385 36.5933 34.8566 36.7401 35.0431C36.887 35.2297 37.0755 35.3795 37.2907 35.4808C37.3372 35.5036 37.3762 35.5393 37.4029 35.5835C37.4297 35.6277 37.4431 35.6787 37.4416 35.7303C37.4166 36.8448 35.2499 37.5203 34.8191 37.6444C34.7949 37.6513 34.7698 37.6549 34.7446 37.655ZM32.6155 35.8619C32.8128 36.3446 33.9092 36.8598 34.7446 37.1093C35.5737 36.8598 36.6651 36.3484 36.8693 35.8675C36.6243 35.7204 36.4129 35.5239 36.2486 35.2906C36.0844 35.0573 35.971 34.7924 35.9156 34.5128C35.8951 34.3445 35.8834 34.1753 35.8805 34.0058V33.9933H33.6143C33.6143 33.9933 33.6143 33.9989 33.6143 34.002C33.6127 34.1585 33.603 34.3149 33.5855 34.4704C33.528 34.7556 33.4127 35.026 33.2467 35.2653C33.0806 35.5045 32.8674 35.7075 32.6199 35.8619H32.6155Z" fill="#282C3F"/>
<path d="M32.1332 31.131C32.3969 31.0749 32.7463 31.4204 32.8358 31.8246C32.9254 32.2287 32.7839 32.6017 32.5227 32.6578C32.2616 32.7139 31.9366 32.4408 31.8477 32.0341C31.7588 31.6275 31.869 31.1865 32.1332 31.131Z" fill="white"/>
<path d="M37.3594 31.131C37.0958 31.0749 36.7463 31.4204 36.6568 31.8246C36.5672 32.2287 36.7088 32.6017 36.9699 32.6578C37.231 32.7139 37.5554 32.4408 37.6449 32.0341C37.7345 31.6275 37.6243 31.1865 37.3594 31.131Z" fill="white"/>
<path d="M34.7466 34.984C36.113 34.984 37.2207 33.6009 37.2207 31.8948C37.2207 30.1887 36.113 28.8057 34.7466 28.8057C33.3802 28.8057 32.2725 30.1887 32.2725 31.8948C32.2725 33.6009 33.3802 34.984 34.7466 34.984Z" fill="white"/>
<path d="M34.7438 35.253C33.519 35.253 32.4538 34.2689 32.1138 32.8431C31.8583 32.7065 31.6529 32.4252 31.5796 32.0947C31.502 31.7429 31.5496 31.3762 31.7049 31.1373C31.7454 31.07 31.7991 31.0116 31.8628 30.9654C31.9265 30.9192 31.9988 30.8863 32.0756 30.8685C32.0962 30.8641 32.1171 30.861 32.1382 30.8591C32.5008 29.4795 33.5446 28.5371 34.7469 28.5371C35.9492 28.5371 36.9925 29.4795 37.355 30.8591C37.3761 30.8609 37.397 30.864 37.4177 30.8685C37.4944 30.8863 37.5667 30.9192 37.6304 30.9654C37.6941 31.0116 37.7478 31.07 37.7884 31.1373C37.943 31.3762 37.9906 31.7429 37.9136 32.0947C37.8403 32.4258 37.635 32.7071 37.3788 32.8431C37.0357 34.2689 35.9711 35.253 34.7438 35.253ZM32.1895 31.3949C32.1325 31.4223 32.0411 31.6755 32.1088 31.9799C32.1582 32.2057 32.3054 32.3597 32.4187 32.3897C32.4673 32.4027 32.5113 32.429 32.5457 32.4656C32.5801 32.5022 32.6036 32.5476 32.6135 32.5967C32.8639 33.8441 33.7406 34.7173 34.7463 34.7173C35.752 34.7173 36.6249 33.8441 36.8785 32.5967C36.8884 32.5476 36.9119 32.5022 36.9463 32.4656C36.9807 32.429 37.0247 32.4027 37.0733 32.3897C37.1866 32.3597 37.3338 32.2057 37.3864 31.9799C37.454 31.6743 37.3619 31.4186 37.3049 31.3949C37.289 31.3961 37.2734 31.4005 37.2592 31.408C37.2221 31.4246 37.1816 31.4327 37.1409 31.4315C37.1002 31.4303 37.0602 31.42 37.0241 31.4013C36.9879 31.3826 36.9565 31.3559 36.9322 31.3234C36.9078 31.2908 36.8912 31.2532 36.8835 31.2134C36.6374 29.9548 35.7564 29.0754 34.7476 29.0754C33.7387 29.0754 32.8571 29.9548 32.611 31.2134C32.6034 31.2533 32.5868 31.291 32.5625 31.3236C32.5382 31.3562 32.5068 31.3829 32.4706 31.4016C32.4344 31.4204 32.3944 31.4307 32.3536 31.4318C32.3129 31.4329 32.2724 31.4247 32.2352 31.408C32.2209 31.401 32.2054 31.3966 32.1895 31.3949Z" fill="#282C3F"/>
<path d="M48.0655 37.1989L46.8838 36.8901C46.0966 38.7065 44.8216 40.2713 43.1991 41.4124C41.5765 42.5535 39.6694 43.2267 37.6875 43.3578V50.4137H49.4112V38.9377C49.4114 38.5405 49.2795 38.1544 49.036 37.8398C48.7925 37.5252 48.4512 37.2998 48.0655 37.1989Z" fill="#00B5F4"/>
<path d="M46.8838 36.89L45.9765 36.6523H41.1216L39.0319 37.1987C38.6466 37.2999 38.3057 37.5253 38.0625 37.8398C37.8193 38.1542 37.6875 38.54 37.6875 38.9369V43.3577C39.6694 43.2265 41.5765 42.5533 43.1991 41.4122C44.8216 40.2711 46.0966 38.7063 46.8838 36.89Z" fill="#2FC8F2"/>
<path d="M47.0062 50.6824C46.9346 50.6824 46.866 50.654 46.8154 50.6036C46.7648 50.5532 46.7363 50.4848 46.7363 50.4135V39.4534C46.7363 39.3821 46.7648 39.3137 46.8154 39.2633C46.866 39.2129 46.9346 39.1846 47.0062 39.1846C47.0778 39.1846 47.1464 39.2129 47.1971 39.2633C47.2477 39.3137 47.2761 39.3821 47.2761 39.4534V50.4135C47.2761 50.4488 47.2691 50.4838 47.2556 50.5164C47.242 50.549 47.2221 50.5787 47.1971 50.6036C47.172 50.6286 47.1422 50.6484 47.1095 50.6619C47.0768 50.6754 47.0417 50.6824 47.0062 50.6824Z" fill="#282C3F"/>
<path d="M40.0912 50.6824C40.0196 50.6824 39.951 50.654 39.9003 50.6036C39.8497 50.5532 39.8213 50.4848 39.8213 50.4135V39.4534C39.8213 39.3821 39.8497 39.3137 39.9003 39.2633C39.951 39.2129 40.0196 39.1846 40.0912 39.1846C40.1628 39.1846 40.2314 39.2129 40.282 39.2633C40.3326 39.3137 40.3611 39.3821 40.3611 39.4534V50.4135C40.3611 50.4848 40.3326 50.5532 40.282 50.6036C40.2314 50.654 40.1628 50.6824 40.0912 50.6824Z" fill="#282C3F"/>
<path d="M49.4106 50.6825H37.6869C37.6153 50.6825 37.5467 50.6542 37.496 50.6038C37.4454 50.5534 37.417 50.485 37.417 50.4137V38.9378C37.4175 38.4817 37.5695 38.0387 37.8493 37.6777C38.1291 37.3167 38.5209 37.058 38.9637 36.9419L41.054 36.395C41.0762 36.3892 41.0992 36.3863 41.1222 36.3862H45.9771C46.0002 36.3863 46.0231 36.3892 46.0454 36.395L48.135 36.9413C48.5777 37.0575 48.9694 37.3163 49.2491 37.6772C49.5289 38.0382 49.681 38.4812 49.6817 38.9371V50.4131C49.6818 50.4486 49.6748 50.4837 49.6612 50.5165C49.6476 50.5492 49.6276 50.579 49.6024 50.604C49.5772 50.6291 49.5473 50.6489 49.5144 50.6624C49.4815 50.6758 49.4462 50.6827 49.4106 50.6825ZM37.9555 50.1449H49.1407V38.9365C49.1405 38.599 49.0282 38.271 48.8212 38.0037C48.6143 37.7365 48.3243 37.5449 47.9966 37.459L45.9408 36.9214H41.156L39.0996 37.459C38.7718 37.5449 38.4817 37.7366 38.2748 38.004C38.0678 38.2714 37.9556 38.5995 37.9555 38.9371V50.1449Z" fill="#282C3F"/>
<path d="M43.5486 38.3178C43.5486 38.3178 45.9607 37.6318 45.9764 36.6557C45.7201 36.5279 45.4966 36.3435 45.323 36.1165C45.1493 35.8895 45.0301 35.6259 44.9744 35.3459C44.9588 35.2624 44.9463 34.7304 44.9369 34.6499H42.1584C42.1478 34.7422 42.1334 35.2879 42.114 35.3865C42.0581 35.6595 41.9395 35.9159 41.7674 36.1356C41.5953 36.3553 41.3744 36.5322 41.1221 36.6526C41.1427 37.6262 43.5486 38.3178 43.5486 38.3178Z" fill="#E6E6E6"/>
<path d="M43.5487 38.5836C43.5235 38.5835 43.4984 38.5799 43.4742 38.573C43.0409 38.4482 40.8767 37.7734 40.8517 36.6589C40.8501 36.6072 40.8635 36.5562 40.8903 36.512C40.917 36.4678 40.956 36.4321 41.0026 36.4094C41.218 36.308 41.4066 36.158 41.5535 35.9712C41.7004 35.7844 41.8014 35.5661 41.8486 35.3335C41.8567 35.2842 41.868 35.0391 41.8736 34.9075C41.8793 34.7759 41.8855 34.658 41.8899 34.6169C41.8977 34.5516 41.9293 34.4914 41.9787 34.4477C42.0281 34.404 42.0919 34.3799 42.1579 34.3799H44.9364C45.0026 34.3799 45.0665 34.4042 45.116 34.4481C45.1654 34.4921 45.1969 34.5526 45.2044 34.6181C45.2088 34.6537 45.2138 34.7716 45.2194 34.9038C45.2251 35.036 45.2332 35.2531 45.2395 35.2986C45.2889 35.5372 45.392 35.7616 45.541 35.9549C45.69 36.1481 45.8811 36.3052 46.0999 36.4144C46.1447 36.4372 46.1822 36.4721 46.2081 36.5151C46.2341 36.5581 46.2473 36.6075 46.2464 36.6576C46.2282 37.7803 44.0578 38.4501 43.6226 38.5736C43.5986 38.5804 43.5737 38.5837 43.5487 38.5836ZM41.4247 36.793C41.6282 37.2744 42.7196 37.7859 43.5487 38.0347C44.3822 37.7853 45.4787 37.2738 45.6778 36.7873C45.4295 36.6325 45.2157 36.4287 45.0493 36.1886C44.8829 35.9485 44.7676 35.677 44.7103 35.3909C44.699 35.3285 44.6928 35.1938 44.6815 34.9212V34.9138H42.4153C42.4153 34.9188 42.4153 34.9237 42.4153 34.9287C42.4124 35.0974 42.4009 35.2658 42.3809 35.4333C42.3258 35.7139 42.2123 35.98 42.0476 36.2142C41.8829 36.4484 41.6707 36.6456 41.4247 36.793Z" fill="#282C3F"/>
<path d="M46.1621 32.0597C45.8985 32.0036 45.5491 32.3491 45.4595 32.7533C45.37 33.1574 45.5115 33.5304 45.7726 33.5865C46.0337 33.6427 46.3581 33.3695 46.4477 32.9628C46.5372 32.5562 46.4257 32.1152 46.1621 32.0597Z" fill="white"/>
<path d="M40.9352 32.0597C41.1988 32.0036 41.5482 32.3491 41.6378 32.7533C41.7273 33.1574 41.5858 33.5304 41.3247 33.5865C41.0635 33.6427 40.7392 33.3695 40.6496 32.9628C40.5601 32.5562 40.6715 32.1152 40.9352 32.0597Z" fill="white"/>
<path d="M43.5483 29.7344C42.182 29.7344 41.0742 31.1171 41.0742 32.8235C41.0742 34.53 42.182 35.9127 43.5483 35.9127C44.9147 35.9127 46.0224 34.5293 46.0224 32.8235C46.0224 31.1177 44.9147 29.7344 43.5483 29.7344Z" fill="white"/>
<path d="M43.5485 36.1816C42.3236 36.1816 41.2591 35.1981 40.9184 33.7717C40.663 33.6351 40.4576 33.3538 40.3843 33.0232C40.3067 32.6715 40.3542 32.3047 40.5095 32.0659C40.5502 31.9985 40.604 31.9401 40.6678 31.8939C40.7316 31.8477 40.804 31.8148 40.8809 31.7971C40.9015 31.7926 40.9224 31.7895 40.9435 31.7877C41.3061 30.4087 42.3506 29.4663 43.5522 29.4663C44.7539 29.4663 45.7978 30.4087 46.161 31.7877C46.182 31.7895 46.2029 31.7926 46.2236 31.7971C46.3004 31.8148 46.3729 31.8477 46.4367 31.8939C46.5005 31.9401 46.5543 31.9985 46.5949 32.0659C46.749 32.3047 46.7966 32.6715 46.7202 33.0239C46.6891 33.1791 46.6253 33.3261 46.5332 33.455C46.441 33.584 46.3225 33.6921 46.1854 33.7723C45.8379 35.1993 44.7733 36.1816 43.5485 36.1816ZM40.9923 32.3222C40.9366 32.3471 40.8446 32.6016 40.9122 32.9072C40.9623 33.1336 41.1094 33.2871 41.2222 33.3176C41.2708 33.3304 41.315 33.3565 41.3495 33.393C41.384 33.4295 41.4076 33.4749 41.4175 33.5241C41.668 34.7714 42.5447 35.6446 43.5497 35.6446C44.5548 35.6446 45.4283 34.7714 45.6788 33.5241C45.6887 33.4749 45.7122 33.4294 45.7468 33.3929C45.7813 33.3564 45.8255 33.3303 45.8742 33.3176C45.9869 33.2871 46.1341 33.1336 46.1873 32.9072C46.2549 32.6029 46.1635 32.3496 46.1065 32.3222C46.0904 32.3238 46.0747 32.3283 46.0602 32.3353C46.023 32.3518 45.9826 32.3598 45.942 32.3586C45.9013 32.3574 45.8615 32.3471 45.8254 32.3285C45.7893 32.3098 45.7579 32.2833 45.7335 32.2509C45.7091 32.2185 45.6923 32.1811 45.6844 32.1413C45.4384 30.8821 44.5573 30.0033 43.5485 30.0033C42.5397 30.0033 41.6586 30.8821 41.4125 32.1432C41.4047 32.183 41.388 32.2205 41.3637 32.253C41.3393 32.2855 41.3079 32.3121 41.2718 32.3308C41.2357 32.3495 41.1958 32.3598 41.1551 32.361C41.1144 32.3623 41.074 32.3543 41.0368 32.3378C41.0232 32.3297 41.0081 32.3244 40.9923 32.3222Z" fill="#282C3F"/>
<path d="M32.2778 31.2699C32.2778 31.2699 31.6635 30.8333 32.0085 29.594C32.3767 28.2718 33.574 28.4763 33.574 28.4763C33.574 28.4763 34.663 27.3506 36.3042 28.263C37.9455 29.1755 37.0801 31.2699 37.0801 31.2699C37.0801 31.2699 36.3787 30.1603 34.7387 30.1603C33.1995 30.1578 32.2778 31.2699 32.2778 31.2699Z" fill="#30354C"/>
<path d="M37.0796 31.5363C37.034 31.5364 36.9892 31.525 36.9492 31.5032C36.9092 31.4814 36.8755 31.4499 36.851 31.4116C36.826 31.3723 36.1985 30.4274 34.7382 30.4274C33.3518 30.4274 32.4933 31.4297 32.4839 31.4403C32.4402 31.4921 32.3785 31.5256 32.3111 31.5342C32.2438 31.5429 32.1756 31.5261 32.1201 31.4871C32.0881 31.4646 31.3555 30.9257 31.7443 29.5205C32.0574 28.391 32.9517 28.1578 33.4827 28.1946C33.8196 27.9202 34.9317 27.1923 36.4327 28.0268C37.8974 28.8376 37.6569 30.5696 37.325 31.3704C37.3062 31.416 37.2751 31.4555 37.2352 31.4846C37.1954 31.5137 37.1482 31.5314 37.099 31.5357L37.0796 31.5363ZM33.385 28.7297C33.1001 28.7297 32.502 28.8332 32.271 29.6652C32.0963 30.2921 32.1933 30.6669 32.2985 30.8665C32.6811 30.5153 33.5309 29.891 34.7407 29.891C35.8616 29.891 36.5811 30.3669 36.9656 30.728C37.1034 30.1243 37.176 29.0528 36.176 28.4971C34.7451 27.7019 33.8096 28.6218 33.7707 28.663C33.74 28.694 33.7022 28.7173 33.6606 28.7309C33.619 28.7445 33.5747 28.7479 33.5315 28.7409C33.4822 28.7332 33.4324 28.7292 33.3825 28.7291L33.385 28.7297Z" fill="#282C3F"/>
<path d="M41.044 32.3477C41.0315 30.7342 42.2276 29.4064 43.7148 29.4014C46.1745 29.3933 46.9084 31.1577 46.7036 32.7132C46.4989 34.2687 46.8871 35.0514 46.8871 35.0514C46.105 35.0514 45.9747 34.2406 45.8457 33.4922C45.7136 32.3234 44.1487 32.7126 43.7574 31.5438C43.366 32.7126 41.4104 32.3097 41.4104 33.4922C41.2488 33.2552 41.0722 33.0712 41.044 32.3471V32.3477Z" fill="#2CAAE6"/>
<path d="M39.4535 32.7134C38.6657 30.9389 39.5474 29.4271 40.9977 28.839C41.5099 28.6305 42.0708 28.57 42.6159 28.6645C43.1611 28.7591 43.6685 29.0048 44.0798 29.3735C42.0065 29.2837 40.7879 31.0662 41.0434 32.7009C41.4097 35.0516 44.165 36.2042 42.5832 37.779C42.1924 38.1688 41.0177 38.558 41.0177 38.558C41.5137 37.9779 41.7416 37.832 41.4091 37.3892C41.0177 37.779 40.2356 37.779 40.2356 37.779C40.7196 37.1291 40.9244 37.2595 40.627 36.6102C40.3978 36.7923 40.2512 37.1154 39.8442 36.9994C39.8442 36.9994 40.2412 34.4878 39.4528 32.7134H39.4535Z" fill="#2CAAE6"/>
<path d="M42.2171 28.6226C41.7987 28.6093 41.3822 28.6839 40.9947 28.8415C39.5432 29.4303 38.6665 30.939 39.4543 32.7134C40.242 34.4878 39.8456 36.9994 39.8456 36.9994C40.2301 37.1086 40.3835 36.8323 40.5908 36.6464C40.6616 35.8138 40.7035 34.181 40.1387 32.9086C39.3509 31.1342 40.2282 29.6249 41.6791 29.0361C42.1832 28.8354 42.733 28.7765 43.2684 28.8658C42.9358 28.7215 42.5795 28.6391 42.2171 28.6226ZM41.3122 36.8048C41.1206 36.9576 40.9916 37.209 40.7136 37.219C40.6334 37.3437 40.4668 37.4684 40.2364 37.7803C40.2364 37.7803 41.0191 37.7803 41.4105 37.3905C41.4844 37.2576 41.4612 37.1292 41.3122 36.8048ZM42.0949 37.5838C41.9422 37.736 41.7343 37.8196 41.5314 37.8763C41.4687 38.0541 41.2909 38.2393 41.0185 38.558C41.0185 38.558 41.7405 38.3167 42.2408 38.0223C42.2697 37.8932 42.2277 37.7616 42.0949 37.5838Z" fill="#2FC8F2"/>
<path d="M39.4545 32.7132C38.6668 30.9388 39.5478 29.4269 40.9987 28.8388C41.5109 28.6304 42.0716 28.57 42.6167 28.6646C43.1617 28.7591 43.669 29.0047 44.0803 29.3733C42.0069 29.2835 40.7883 31.066 41.0432 32.7007C41.4101 35.0514 44.1648 36.204 42.5843 37.7788C42.1929 38.1686 41.0188 38.5578 41.0188 38.5578C41.5147 37.9778 41.742 37.8318 41.4101 37.389C41.0188 37.7788 40.2367 37.7788 40.2367 37.7788C40.7207 37.1289 40.9255 37.2593 40.628 36.61C40.3988 36.7921 40.2523 37.1152 39.8453 36.9992C39.8453 36.9992 40.2417 34.4876 39.4545 32.7132Z" stroke="#282C3F" stroke-width="6" stroke-linecap="round" stroke-linejoin="round"/>
<path d="M43.7328 29.3989C42.2449 29.4039 41.0432 30.7318 41.0558 32.3459C41.0839 33.07 41.2605 33.254 41.4221 33.4904C41.4221 33.3313 41.8366 32.8199 41.8986 32.7107C41.8485 32.5548 41.8128 32.7388 41.8009 32.4432C41.789 30.8297 42.5993 29.5012 44.0872 29.4962C44.3701 29.4933 44.6526 29.5179 44.9307 29.5698C44.5429 29.4502 44.1386 29.3925 43.7328 29.3989Z" fill="#2FC8F2"/>
<path d="M43.7198 29.3989C43.6055 29.3995 43.4912 29.4077 43.3779 29.4233C45.4845 29.616 46.3593 31.2526 46.1651 32.7108C46.1254 32.9974 46.1045 33.2864 46.1025 33.5758C46.2278 34.3018 46.132 35.049 46.8853 35.049C46.8853 35.049 46.4939 34.2694 46.7018 32.7108C46.9097 31.1521 46.1795 29.3933 43.7198 29.3989Z" fill="#2FC8F2"/>
<path d="M41.044 32.3477C41.0321 30.7342 42.2276 29.407 43.7154 29.4014C46.1745 29.3933 46.909 31.1577 46.703 32.7132C46.497 34.2687 46.8871 35.0514 46.8871 35.0514C46.1043 35.0514 45.9747 34.2406 45.8451 33.4922C45.7136 32.3228 44.1487 32.7126 43.758 31.5438C43.3666 32.7126 41.4104 32.3103 41.4104 33.4922C41.2488 33.2558 41.0722 33.0718 41.044 32.3477Z" stroke="#282C3F" stroke-width="6" stroke-linecap="round" stroke-linejoin="round"/>
</g>
<path d="M38.8892 45.5638C32.7888 45.5638 27.8262 40.6211 27.8262 34.545C27.8283 32.0417 28.6839 29.6133 30.2527 27.6576C30.2983 27.6048 30.3628 27.5718 30.4324 27.5654C30.502 27.5591 30.5714 27.5799 30.626 27.6234C30.6805 27.667 30.7159 27.7299 30.7248 27.799C30.7337 27.8681 30.7153 27.9379 30.6735 27.9937C29.1717 29.8478 28.3566 32.1603 28.3653 34.5425C28.3653 40.3223 33.0862 45.0243 38.8892 45.0243C44.6922 45.0243 49.4131 40.3223 49.4131 34.5425C49.4131 28.7628 44.6922 24.0632 38.8892 24.0632C36.3304 24.0623 33.8591 24.9907 31.9384 26.6746C31.912 26.6992 31.8809 26.7182 31.847 26.7306C31.8131 26.743 31.777 26.7485 31.7409 26.7467C31.7049 26.7449 31.6695 26.736 31.637 26.7204C31.6044 26.7047 31.5754 26.6828 31.5515 26.6557C31.5276 26.6287 31.5095 26.5972 31.4981 26.5631C31.4867 26.5289 31.4823 26.4928 31.4851 26.457C31.488 26.4211 31.498 26.3862 31.5147 26.3542C31.5313 26.3223 31.5543 26.294 31.5821 26.2711C33.6015 24.5014 36.1994 23.5257 38.8892 23.5269C44.9896 23.5269 49.9523 28.4696 49.9523 34.5457C49.9523 40.6217 44.9896 45.5638 38.8892 45.5638Z" fill="#282C3F"/>
<path d="M17.267 15.0214C17.2235 15.0216 17.1803 15.0131 17.1401 14.9965C17.0999 14.9799 17.0634 14.9555 17.0328 14.9247C17.002 14.8941 16.9775 14.8578 16.9608 14.8177C16.9441 14.7777 16.9355 14.7348 16.9355 14.6914C16.9355 14.6481 16.9441 14.6052 16.9608 14.5652C16.9775 14.5251 17.002 14.4888 17.0328 14.4582L18.0247 13.4671C18.0869 13.4053 18.1712 13.3705 18.2591 13.3706C18.347 13.3707 18.4313 13.4055 18.4934 13.4674C18.5555 13.5294 18.5904 13.6134 18.5903 13.7009C18.5903 13.7885 18.5553 13.8724 18.4931 13.9343L17.4987 14.9247C17.4683 14.9552 17.4322 14.9794 17.3925 14.996C17.3527 15.0126 17.3101 15.0212 17.267 15.0214Z" fill="#989AA6"/>
<path d="M14.9462 17.3329C14.881 17.3326 14.8173 17.3132 14.7632 17.2771C14.709 17.241 14.6668 17.1898 14.6417 17.1299C14.6166 17.0699 14.6099 17.004 14.6222 16.9403C14.6346 16.8765 14.6656 16.8179 14.7113 16.7716L15.7076 15.7787C15.7698 15.7168 15.8541 15.6821 15.942 15.6821C16.0299 15.6822 16.1142 15.717 16.1763 15.779C16.2384 15.8409 16.2733 15.9249 16.2732 16.0125C16.2732 16.1 16.2382 16.1839 16.176 16.2458L15.1804 17.2369C15.1497 17.2675 15.1131 17.2918 15.0729 17.3083C15.0327 17.3248 14.9896 17.3331 14.9462 17.3329Z" fill="#989AA6"/>
<path d="M18.261 17.3328C18.2171 17.3333 18.1735 17.3251 18.1328 17.3086C18.0922 17.2921 18.0552 17.2677 18.0242 17.2367L17.0298 16.2463C16.999 16.2157 16.9746 16.1793 16.9579 16.1392C16.9412 16.0992 16.9326 16.0563 16.9326 16.0129C16.9326 15.9696 16.9411 15.9267 16.9578 15.8866C16.9744 15.8465 16.9988 15.8101 17.0295 15.7795C17.0603 15.7488 17.0968 15.7244 17.137 15.7078C17.1772 15.6912 17.2203 15.6826 17.2638 15.6826C17.3073 15.6826 17.3505 15.6911 17.3907 15.7077C17.4309 15.7242 17.4674 15.7485 17.4982 15.7791L18.4926 16.7702C18.5235 16.8008 18.5479 16.8371 18.5646 16.8772C18.5813 16.9172 18.5899 16.9601 18.5899 17.0035C18.5899 17.0468 18.5813 17.0897 18.5646 17.1297C18.5479 17.1698 18.5235 17.2061 18.4926 17.2367C18.4623 17.2671 18.4262 17.2912 18.3864 17.3077C18.3466 17.3242 18.304 17.3327 18.261 17.3328Z" fill="#989AA6"/>
<path d="M15.9408 15.0213C15.8973 15.0215 15.8542 15.013 15.8139 14.9964C15.7737 14.9798 15.7372 14.9554 15.7066 14.9246L14.7116 13.9342C14.6532 13.8715 14.6215 13.7887 14.6231 13.7032C14.6247 13.6177 14.6595 13.5362 14.7203 13.4757C14.781 13.4153 14.8628 13.3806 14.9487 13.379C15.0345 13.3774 15.1176 13.4089 15.1806 13.4671L16.175 14.4581C16.2058 14.4887 16.2303 14.5251 16.247 14.5651C16.2637 14.6051 16.2722 14.648 16.2722 14.6914C16.2722 14.7347 16.2637 14.7776 16.247 14.8177C16.2303 14.8577 16.2058 14.8941 16.175 14.9246C16.1444 14.9555 16.1079 14.9799 16.0677 14.9965C16.0275 15.0131 15.9843 15.0215 15.9408 15.0213Z" fill="#989AA6"/>
<path d="M38.2435 58.2004C38.1785 58.1997 38.1152 58.1801 38.0613 58.1439C38.0074 58.1077 37.9654 58.0565 37.9404 57.9967C37.9155 57.9369 37.9087 57.8712 37.921 57.8076C37.9332 57.744 37.9639 57.6854 38.0093 57.6391L39.0018 56.6462C39.064 56.5842 39.1482 56.5494 39.2361 56.5493C39.324 56.5493 39.4084 56.584 39.4705 56.6458C39.5327 56.7077 39.5677 56.7916 39.5678 56.8792C39.5678 56.9667 39.533 57.0507 39.4709 57.1127L38.4758 58.1037C38.4143 58.1653 38.3307 58.2 38.2435 58.2004Z" fill="#989AA6"/>
<path d="M35.9232 60.5114C35.8582 60.5108 35.7948 60.4911 35.741 60.4549C35.6871 60.4187 35.6451 60.3675 35.6201 60.3077C35.5952 60.248 35.5884 60.1822 35.6007 60.1186C35.6129 60.0551 35.6436 59.9965 35.689 59.9501L36.6853 58.9572C36.7474 58.8952 36.8317 58.8604 36.9196 58.8604C37.0075 58.8603 37.0918 58.895 37.154 58.9569C37.2162 59.0187 37.2512 59.1027 37.2512 59.1902C37.2513 59.2778 37.2164 59.3618 37.1543 59.4237L36.1574 60.4148C36.0953 60.4766 36.0111 60.5114 35.9232 60.5114Z" fill="#989AA6"/>
<path d="M39.2384 60.5115C39.1946 60.5117 39.1512 60.5033 39.1106 60.4867C39.0701 60.4701 39.0333 60.4457 39.0023 60.4148L38.0079 59.4238C37.9476 59.3615 37.9143 59.2782 37.9151 59.1917C37.9158 59.1053 37.9507 59.0225 38.0121 58.9614C38.0735 58.9002 38.1565 58.8655 38.2433 58.8648C38.3302 58.864 38.4138 58.8972 38.4763 58.9573L39.4713 59.9477C39.5168 59.9941 39.5475 60.0527 39.5597 60.1164C39.5719 60.18 39.5651 60.2458 39.5401 60.3056C39.5151 60.3654 39.473 60.4166 39.419 60.4527C39.365 60.4889 39.3016 60.5085 39.2365 60.509L39.2384 60.5115Z" fill="#989AA6"/>
<path d="M36.9172 58.2005C36.8293 58.2004 36.7451 58.1657 36.683 58.1038L35.6886 57.1127C35.6283 57.0505 35.5949 56.9672 35.5957 56.8807C35.5965 56.7942 35.6313 56.7115 35.6927 56.6503C35.7541 56.5892 35.8372 56.5545 35.924 56.5537C36.0108 56.553 36.0945 56.5862 36.157 56.6462L37.152 57.6366C37.1974 57.683 37.2281 57.7417 37.2404 57.8053C37.2526 57.869 37.2458 57.9348 37.2208 57.9946C37.1957 58.0544 37.1536 58.1055 37.0997 58.1417C37.0457 58.1779 36.9822 58.1974 36.9172 58.198V58.2005Z" fill="#989AA6"/>
</svg>
