<svg width="71" height="71" viewBox="0 0 71 71" fill="none" xmlns="http://www.w3.org/2000/svg">
<path d="M56.469 26.3577C54.7406 22.3263 56.0083 15.6438 52.497 13.0095C49.0909 10.4553 43.079 13.485 38.5483 12.9398C34.0177 12.3945 28.8963 8.0245 24.9824 9.69788C20.9447 11.4249 20.5855 18.2159 17.9468 21.7212C15.3885 25.1185 8.90531 27.3039 8.36035 31.8275C7.81538 36.3511 13.5902 40.0106 15.2659 43.9168C16.9943 47.9482 15.7267 54.6307 19.238 57.2656C22.644 59.8192 28.656 56.7895 33.1866 57.3347C37.7173 57.88 42.8387 62.25 46.7526 60.5766C50.7902 58.8496 51.1494 52.0586 53.7882 48.5533C56.3464 45.1554 62.8297 42.9706 63.3746 38.447C63.9196 33.9234 58.1448 30.2651 56.469 26.3577Z" fill="#F6F6F6"/>
<path d="M63.4114 61.2806H8.324C8.24047 61.2769 8.16157 61.2413 8.10376 61.1812C8.04594 61.121 8.01367 61.0409 8.01367 60.9577C8.01367 60.8744 8.04594 60.7943 8.10376 60.7342C8.16157 60.674 8.24047 60.6384 8.324 60.6348H63.4114C63.4949 60.6384 63.5738 60.674 63.6316 60.7342C63.6894 60.7943 63.7217 60.8744 63.7217 60.9577C63.7217 61.0409 63.6894 61.121 63.6316 61.1812C63.5738 61.2413 63.4949 61.2769 63.4114 61.2806Z" fill="#989AA6"/>
<path d="M56.9303 61.2806H14.8045C14.7209 61.2769 14.642 61.2413 14.5842 61.1812C14.5264 61.121 14.4941 61.0409 14.4941 60.9577C14.4941 60.8744 14.5264 60.7943 14.5842 60.7342C14.642 60.674 14.7209 60.6384 14.8045 60.6348H56.9303C57.0138 60.6384 57.0927 60.674 57.1506 60.7342C57.2084 60.7943 57.2406 60.8744 57.2406 60.9577C57.2406 61.0409 57.2084 61.121 57.1506 61.1812C57.0927 61.2413 57.0138 61.2769 56.9303 61.2806Z" fill="#282C3F"/>
<path d="M54.3387 60.9576H17.3975V38.2537L35.8681 23.5898L54.3387 38.2537V60.9576Z" fill="#EDEDED"/>
<path d="M50.7741 57.4075L17.3975 59.0211V39.2223L35.8681 26.4946L50.7741 38.254V57.4075Z" fill="white"/>
<path d="M54.3381 54.1799C54.2955 54.1799 54.2533 54.1717 54.214 54.1555C54.1746 54.1393 54.1388 54.1156 54.1087 54.0856C54.0785 54.0556 54.0546 54.02 54.0383 53.9809C54.022 53.9417 54.0136 53.8997 54.0136 53.8573V38.407L35.8675 24.0028L17.7226 38.407V42.8813C17.719 42.9645 17.6832 43.0431 17.6228 43.1006C17.5624 43.1582 17.482 43.1904 17.3984 43.1904C17.3148 43.1904 17.2344 43.1582 17.174 43.1006C17.1136 43.0431 17.0779 42.9645 17.0742 42.8813V38.254C17.0746 38.2054 17.0859 38.1575 17.1073 38.1139C17.1288 38.0702 17.1598 38.0319 17.1981 38.0018L35.6656 23.3379C35.723 23.2924 35.7941 23.2676 35.8675 23.2676C35.9408 23.2676 36.012 23.2924 36.0694 23.3379L54.54 38.0018C54.5783 38.0319 54.6093 38.0702 54.6307 38.1139C54.6522 38.1575 54.6635 38.2054 54.6638 38.254V53.8591C54.6636 53.9015 54.655 53.9434 54.6385 53.9824C54.622 54.0215 54.5979 54.0569 54.5677 54.0867C54.5374 54.1165 54.5016 54.14 54.4622 54.156C54.4228 54.172 54.3806 54.1801 54.3381 54.1799Z" fill="#282C3F"/>
<path d="M54.3384 61.2803H17.3971C17.3545 61.2803 17.3124 61.2719 17.273 61.2557C17.2337 61.2394 17.198 61.2156 17.1679 61.1856C17.1378 61.1556 17.114 61.1199 17.0977 61.0807C17.0815 61.0415 17.0732 60.9995 17.0732 60.9571V44.8216C17.0732 44.7358 17.1075 44.6535 17.1684 44.5928C17.2293 44.5321 17.3119 44.498 17.3981 44.498C17.4842 44.498 17.5668 44.5321 17.6277 44.5928C17.6886 44.6535 17.7229 44.7358 17.7229 44.8216V60.6345H54.0126V55.7932C54.0163 55.71 54.052 55.6315 54.1124 55.5739C54.1728 55.5163 54.2532 55.4841 54.3368 55.4841C54.4204 55.4841 54.5008 55.5163 54.5612 55.5739C54.6216 55.6315 54.6573 55.71 54.661 55.7932V60.9571C54.6612 61.0425 54.6273 61.1246 54.5668 61.1852C54.5063 61.2458 54.4241 61.28 54.3384 61.2803Z" fill="#282C3F"/>
<path d="M14.8047 40.3122L35.8676 23.5901L56.9305 40.3122V35.7226L35.8676 19.0005L14.8047 35.7226V40.3122Z" fill="#2FC8F2"/>
<path d="M14.8047 40.3125L35.8676 23.5904L56.9305 40.3125V36.3687L35.8676 20.9375L14.8047 38.3054V40.3125Z" fill="#2CAAE6"/>
<path d="M56.9302 40.6352C56.8568 40.6352 56.7856 40.6104 56.7283 40.5648L35.8673 24.0031L15.0062 40.5661C14.9586 40.6042 14.9012 40.6281 14.8405 40.635C14.7798 40.6419 14.7184 40.6316 14.6634 40.6052C14.6084 40.5788 14.562 40.5374 14.5297 40.4858C14.4973 40.4343 14.4802 40.3746 14.4805 40.3138V35.7229C14.4808 35.6743 14.4921 35.6264 14.5135 35.5827C14.535 35.5391 14.566 35.5008 14.6043 35.4707L35.6654 18.7486C35.7227 18.703 35.7939 18.6782 35.8673 18.6782C35.9406 18.6782 36.0118 18.703 36.0692 18.7486L42.4477 23.8119C42.5149 23.8653 42.558 23.9431 42.5676 24.0282C42.5772 24.1133 42.5524 24.1986 42.4988 24.2655C42.4452 24.3325 42.3671 24.3754 42.2817 24.3849C42.1962 24.3945 42.1105 24.3698 42.0433 24.3164L35.8673 19.4135L15.1289 35.8784V39.6409L35.6654 23.3382C35.7227 23.2926 35.7939 23.2678 35.8673 23.2678C35.9406 23.2678 36.0118 23.2926 36.0692 23.3382L56.6057 39.6409V35.8784L43.7377 25.6623C43.7044 25.6359 43.6766 25.6032 43.656 25.5661C43.6354 25.529 43.6223 25.4883 43.6175 25.4461C43.6127 25.404 43.6163 25.3613 43.628 25.3206C43.6398 25.2798 43.6595 25.2418 43.686 25.2086C43.7125 25.1755 43.7453 25.1478 43.7825 25.1273C43.8198 25.1067 43.8607 25.0937 43.903 25.0889C43.9453 25.0841 43.9881 25.0877 44.029 25.0994C44.07 25.1111 44.1082 25.1307 44.1415 25.1571L57.1321 35.4707C57.1704 35.5008 57.2014 35.5391 57.2229 35.5827C57.2443 35.6264 57.2556 35.6743 57.2559 35.7229V40.3126C57.256 40.355 57.2477 40.3969 57.2314 40.4361C57.2152 40.4753 57.1913 40.5109 57.1613 40.5409C57.1312 40.5708 57.0954 40.5946 57.0561 40.6108C57.0168 40.627 56.9746 40.6352 56.9321 40.6352H56.9302Z" fill="#282C3F"/>
<path d="M61.143 43.2119C61.1004 43.2119 61.0583 43.2036 61.019 43.1874C60.9797 43.1712 60.9439 43.1475 60.9139 43.1175L59.9416 42.1491C59.8808 42.0886 59.8467 42.0065 59.8467 41.9209C59.8467 41.8353 59.8808 41.7532 59.9416 41.6927C60.0024 41.6321 60.0848 41.5981 60.1707 41.5981C60.2567 41.5981 60.3391 41.6321 60.3999 41.6927L61.3721 42.6611C61.4175 42.7062 61.4483 42.7637 61.4609 42.8263C61.4734 42.8889 61.467 42.9538 61.4424 43.0127C61.4179 43.0717 61.3764 43.1221 61.3231 43.1576C61.2697 43.193 61.2071 43.2119 61.143 43.2119Z" fill="#989AA6"/>
<path d="M63.4115 45.4711C63.369 45.4712 63.3269 45.4629 63.2875 45.4467C63.2482 45.4305 63.2125 45.4067 63.1824 45.3768L62.2101 44.4084C62.1801 44.3784 62.1562 44.3428 62.1399 44.3037C62.1236 44.2645 62.1152 44.2225 62.1152 44.1802C62.1152 44.1378 62.1236 44.0958 62.1399 44.0567C62.1562 44.0175 62.1801 43.9819 62.2101 43.952C62.2402 43.922 62.276 43.8982 62.3153 43.882C62.3546 43.8658 62.3967 43.8574 62.4393 43.8574C62.4818 43.8574 62.524 43.8658 62.5633 43.882C62.6026 43.8982 62.6383 43.922 62.6684 43.952L63.6407 44.9203C63.686 44.9654 63.7169 45.0229 63.7294 45.0856C63.7419 45.1482 63.7355 45.2131 63.711 45.272C63.6865 45.331 63.6449 45.3814 63.5916 45.4168C63.5383 45.4523 63.4756 45.4712 63.4115 45.4711Z" fill="#989AA6"/>
<path d="M60.1708 45.4711C60.1067 45.4712 60.044 45.4523 59.9907 45.4168C59.9374 45.3814 59.8959 45.331 59.8713 45.272C59.8468 45.2131 59.8404 45.1482 59.8529 45.0856C59.8654 45.0229 59.8963 44.9654 59.9417 44.9203L60.9139 43.952C60.944 43.922 60.9797 43.8982 61.0191 43.882C61.0584 43.8658 61.1005 43.8574 61.1431 43.8574C61.1856 43.8574 61.2278 43.8658 61.2671 43.882C61.3064 43.8982 61.3421 43.922 61.3722 43.952C61.4023 43.9819 61.4262 44.0175 61.4424 44.0567C61.4587 44.0958 61.4671 44.1378 61.4671 44.1802C61.4671 44.2225 61.4587 44.2645 61.4424 44.3037C61.4262 44.3428 61.4023 44.3784 61.3722 44.4084L60.3999 45.3768C60.3698 45.4067 60.3341 45.4305 60.2948 45.4467C60.2555 45.4629 60.2133 45.4712 60.1708 45.4711Z" fill="#989AA6"/>
<path d="M62.4393 43.2119C62.3753 43.2119 62.3126 43.193 62.2593 43.1576C62.206 43.1221 62.1644 43.0717 62.1399 43.0127C62.1154 42.9538 62.109 42.8889 62.1215 42.8263C62.134 42.7637 62.1649 42.7062 62.2102 42.6611L63.1825 41.6927C63.2432 41.6321 63.3257 41.5981 63.4116 41.5981C63.4976 41.5981 63.58 41.6321 63.6407 41.6927C63.7015 41.7532 63.7357 41.8353 63.7357 41.9209C63.7357 42.0065 63.7015 42.0886 63.6407 42.1491L62.6685 43.1175C62.6384 43.1475 62.6027 43.1712 62.5634 43.1874C62.524 43.2036 62.4819 43.2119 62.4393 43.2119Z" fill="#989AA6"/>
<path d="M43.6449 15.5703C43.6024 15.5702 43.5602 15.5618 43.5209 15.5455C43.4816 15.5292 43.4459 15.5053 43.4158 15.4753L42.4435 14.5075C42.3828 14.447 42.3486 14.3649 42.3486 14.2793C42.3486 14.1937 42.3828 14.1116 42.4435 14.0511C42.5043 13.9905 42.5867 13.9565 42.6727 13.9565C42.7586 13.9565 42.841 13.9905 42.9018 14.0511L43.8741 15.0188C43.9193 15.064 43.9501 15.1216 43.9626 15.1842C43.9751 15.2468 43.9686 15.3117 43.9441 15.3706C43.9196 15.4296 43.8781 15.4801 43.8249 15.5156C43.7716 15.5511 43.709 15.5701 43.6449 15.5703Z" fill="#989AA6"/>
<path d="M45.9135 17.829C45.871 17.8291 45.8288 17.8208 45.7895 17.8046C45.7502 17.7884 45.7144 17.7647 45.6844 17.7347L44.7121 16.7663C44.682 16.7363 44.6581 16.7007 44.6419 16.6616C44.6256 16.6224 44.6172 16.5805 44.6172 16.5381C44.6172 16.4957 44.6256 16.4537 44.6419 16.4146C44.6581 16.3754 44.682 16.3398 44.7121 16.3099C44.7422 16.2799 44.7779 16.2561 44.8172 16.2399C44.8565 16.2237 44.8987 16.2153 44.9412 16.2153C44.9838 16.2153 45.0259 16.2237 45.0652 16.2399C45.1046 16.2561 45.1403 16.2799 45.1704 16.3099L46.1426 17.2782C46.188 17.3234 46.2189 17.3809 46.2314 17.4435C46.2439 17.5061 46.2375 17.571 46.2129 17.6299C46.1884 17.6889 46.1469 17.7393 46.0936 17.7748C46.0403 17.8102 45.9776 17.8291 45.9135 17.829Z" fill="#989AA6"/>
<path d="M42.6727 17.829C42.6087 17.8291 42.546 17.8102 42.4927 17.7748C42.4394 17.7393 42.3978 17.6889 42.3733 17.6299C42.3488 17.571 42.3424 17.5061 42.3549 17.4435C42.3674 17.3809 42.3983 17.3234 42.4436 17.2782L43.4159 16.3099C43.4766 16.2493 43.5591 16.2153 43.645 16.2153C43.731 16.2153 43.8134 16.2493 43.8741 16.3099C43.9349 16.3704 43.9691 16.4525 43.9691 16.5381C43.9691 16.6237 43.9349 16.7058 43.8741 16.7663L42.9019 17.7347C42.8718 17.7647 42.8361 17.7884 42.7968 17.8046C42.7574 17.8208 42.7153 17.8291 42.6727 17.829Z" fill="#989AA6"/>
<path d="M44.941 15.5703C44.877 15.5701 44.8143 15.5511 44.7611 15.5156C44.7079 15.4801 44.6664 15.4296 44.6419 15.3706C44.6173 15.3117 44.6109 15.2468 44.6234 15.1842C44.6359 15.1216 44.6667 15.064 44.7119 15.0188L45.6842 14.0511C45.7143 14.0211 45.75 13.9973 45.7893 13.9811C45.8286 13.9649 45.8708 13.9565 45.9133 13.9565C45.9559 13.9565 45.998 13.9649 46.0373 13.9811C46.0766 13.9973 46.1124 14.0211 46.1424 14.0511C46.1725 14.081 46.1964 14.1166 46.2127 14.1558C46.229 14.1949 46.2374 14.2369 46.2374 14.2793C46.2374 14.3217 46.229 14.3636 46.2127 14.4028C46.1964 14.442 46.1725 14.4775 46.1424 14.5075L45.1702 15.4753C45.1401 15.5053 45.1044 15.5292 45.0651 15.5455C45.0258 15.5618 44.9836 15.5702 44.941 15.5703Z" fill="#989AA6"/>
<path d="M54.3383 22.8791C54.2957 22.8792 54.2535 22.8708 54.2142 22.8545C54.1748 22.8382 54.1391 22.8143 54.1092 22.7841L53.1369 21.8151C53.0761 21.7546 53.042 21.6725 53.042 21.5869C53.042 21.5013 53.0761 21.4192 53.1369 21.3587C53.1977 21.2982 53.2801 21.2642 53.366 21.2642C53.452 21.2642 53.5344 21.2982 53.5952 21.3587L54.5674 22.3271C54.6125 22.3723 54.6431 22.4298 54.6554 22.4923C54.6678 22.5548 54.6613 22.6195 54.6368 22.6784C54.6123 22.7372 54.571 22.7876 54.5178 22.8231C54.4647 22.8586 54.4023 22.8776 54.3383 22.8779V22.8791Z" fill="#989AA6"/>
<path d="M56.6066 25.1383C56.5206 25.1382 56.4382 25.104 56.3775 25.0433L55.4058 24.075C55.347 24.0141 55.3146 23.9326 55.3154 23.8481C55.3163 23.7636 55.3504 23.6828 55.4104 23.6231C55.4705 23.5634 55.5516 23.5296 55.6365 23.5288C55.7213 23.5281 55.803 23.5605 55.8641 23.6192L56.8357 24.5869C56.881 24.6321 56.9118 24.6896 56.9243 24.7523C56.9367 24.8149 56.9303 24.8797 56.9058 24.9387C56.8813 24.9977 56.8398 25.0481 56.7866 25.0837C56.7333 25.1192 56.6707 25.1382 56.6066 25.1383Z" fill="#989AA6"/>
<path d="M53.3658 25.1382C53.3018 25.1381 53.2391 25.1191 53.1859 25.0835C53.1327 25.048 53.0912 24.9976 53.0667 24.9386C53.0421 24.8796 53.0357 24.8147 53.0482 24.7521C53.0607 24.6895 53.0915 24.632 53.1367 24.5868L54.109 23.619C54.1388 23.5881 54.1745 23.5634 54.2141 23.5465C54.2536 23.5295 54.2961 23.5205 54.3392 23.52C54.3822 23.5196 54.4249 23.5277 54.4648 23.5439C54.5046 23.5601 54.5409 23.584 54.5713 23.6143C54.6018 23.6446 54.6259 23.6807 54.6422 23.7204C54.6585 23.7601 54.6667 23.8026 54.6663 23.8455C54.666 23.8883 54.657 23.9307 54.64 23.9701C54.623 24.0095 54.5982 24.0451 54.5672 24.0749L53.595 25.0432C53.5649 25.0733 53.5292 25.0972 53.4899 25.1135C53.4506 25.1298 53.4084 25.1382 53.3658 25.1382Z" fill="#989AA6"/>
<path d="M55.6348 22.8793C55.5708 22.8791 55.5083 22.86 55.4552 22.8245C55.4021 22.789 55.3607 22.7387 55.3362 22.6799C55.3118 22.621 55.3053 22.5563 55.3176 22.4937C55.33 22.4312 55.3606 22.3738 55.4056 22.3285L56.3773 21.3602C56.438 21.2996 56.5205 21.2656 56.6064 21.2656C56.6924 21.2656 56.7748 21.2996 56.8355 21.3602C56.8963 21.4207 56.9305 21.5028 56.9305 21.5884C56.9305 21.674 56.8963 21.7561 56.8355 21.8166L55.8639 22.7844C55.8339 22.8144 55.7982 22.8383 55.7588 22.8546C55.7195 22.8709 55.6774 22.8793 55.6348 22.8793Z" fill="#989AA6"/>
<path d="M25.6603 10.6095C25.6178 10.6094 25.5758 10.601 25.5366 10.5847C25.4974 10.5684 25.4618 10.5446 25.4318 10.5145L24.4595 9.54616C24.4007 9.48525 24.3683 9.40379 24.3692 9.3193C24.37 9.23481 24.4041 9.15404 24.4642 9.09433C24.5242 9.03462 24.6053 9.00076 24.6902 9.00001C24.775 8.99927 24.8567 9.0317 24.9178 9.09034L25.8895 10.0581C25.9347 10.1033 25.9655 10.1608 25.978 10.2234C25.9904 10.2861 25.984 10.3509 25.9595 10.4099C25.935 10.4689 25.8935 10.5193 25.8403 10.5549C25.787 10.5904 25.7244 10.6094 25.6603 10.6095Z" fill="#989AA6"/>
<path d="M27.9291 12.8713C27.8866 12.8714 27.8444 12.8631 27.8051 12.8469C27.7658 12.8307 27.73 12.8069 27.7 12.7769L26.7283 11.8086C26.6973 11.7788 26.6725 11.7433 26.6554 11.7039C26.6384 11.6645 26.6294 11.6222 26.6289 11.5793C26.6285 11.5364 26.6366 11.4939 26.6529 11.4542C26.6692 11.4145 26.6932 11.3784 26.7236 11.3481C26.754 11.3177 26.7902 11.2937 26.8301 11.2775C26.8699 11.2612 26.9126 11.2531 26.9556 11.2534C26.9987 11.2538 27.0412 11.2627 27.0808 11.2797C27.1203 11.2966 27.1561 11.3212 27.186 11.3521L28.1582 12.3162C28.2036 12.3613 28.2345 12.4188 28.247 12.4814C28.2595 12.544 28.2531 12.6089 28.2285 12.6679C28.204 12.7269 28.1625 12.7772 28.1092 12.8127C28.0559 12.8481 27.9932 12.867 27.9291 12.867V12.8713Z" fill="#989AA6"/>
<path d="M24.6884 12.8713C24.6243 12.8713 24.5616 12.8525 24.5083 12.817C24.455 12.7816 24.4135 12.7312 24.3889 12.6722C24.3644 12.6132 24.358 12.5483 24.3705 12.4857C24.383 12.4231 24.4139 12.3656 24.4592 12.3205L25.4315 11.3521C25.4614 11.3212 25.4971 11.2966 25.5367 11.2797C25.5762 11.2627 25.6188 11.2538 25.6618 11.2534C25.7049 11.2531 25.7476 11.2612 25.7874 11.2775C25.8272 11.2937 25.8634 11.3177 25.8939 11.3481C25.9243 11.3784 25.9483 11.4145 25.9646 11.4542C25.9808 11.4939 25.989 11.5364 25.9885 11.5793C25.9881 11.6222 25.9791 11.6645 25.962 11.7039C25.945 11.7433 25.9202 11.7788 25.8892 11.8086L24.9175 12.7769C24.8874 12.8069 24.8517 12.8306 24.8124 12.8468C24.773 12.863 24.7309 12.8713 24.6884 12.8713Z" fill="#989AA6"/>
<path d="M26.956 10.6095C26.892 10.6093 26.8295 10.5902 26.7763 10.5546C26.7232 10.519 26.6818 10.4686 26.6574 10.4096C26.6329 10.3507 26.6266 10.2858 26.639 10.2233C26.6515 10.1607 26.6823 10.1033 26.7275 10.0581L27.6992 9.09034C27.7603 9.0317 27.842 8.99927 27.9268 9.00001C28.0117 9.00076 28.0928 9.03462 28.1528 9.09433C28.2129 9.15404 28.247 9.23481 28.2478 9.3193C28.2487 9.40379 28.2162 9.48525 28.1575 9.54616L27.1852 10.5145C27.1551 10.5446 27.1194 10.5685 27.0801 10.5848C27.0408 10.6011 26.9986 10.6095 26.956 10.6095Z" fill="#989AA6"/>
<path d="M9.29631 51.1243C9.25376 51.1244 9.21162 51.1161 9.1723 51.0999C9.13298 51.0837 9.09726 51.0599 9.06718 51.0299L8.09491 50.0646C8.03414 50.0041 8 49.922 8 49.8364C8 49.7508 8.03414 49.6687 8.09491 49.6082C8.15568 49.5477 8.2381 49.5137 8.32404 49.5137C8.40999 49.5137 8.49241 49.5477 8.55318 49.6082L9.52544 50.5766C9.57079 50.6217 9.60167 50.6792 9.61419 50.7418C9.6267 50.8044 9.62029 50.8693 9.59575 50.9283C9.57122 50.9873 9.52967 51.0376 9.47637 51.0731C9.42307 51.1085 9.3604 51.1274 9.29631 51.1274V51.1243Z" fill="#989AA6"/>
<path d="M11.5649 53.3837C11.5223 53.3838 11.4802 53.3755 11.4409 53.3593C11.4015 53.3431 11.3658 53.3193 11.3357 53.2894L10.3635 52.321C10.3027 52.2605 10.2686 52.1784 10.2686 52.0928C10.2686 52.0072 10.3027 51.9251 10.3635 51.8646C10.4242 51.804 10.5067 51.77 10.5926 51.77C10.6785 51.77 10.761 51.804 10.8217 51.8646L11.794 52.8329C11.8393 52.878 11.8702 52.9355 11.8827 52.9981C11.8953 53.0608 11.8888 53.1257 11.8643 53.1846C11.8398 53.2436 11.7982 53.294 11.7449 53.3294C11.6916 53.3649 11.629 53.3838 11.5649 53.3837Z" fill="#989AA6"/>
<path d="M8.32411 53.3837C8.26002 53.3838 8.19736 53.3649 8.14405 53.3294C8.09075 53.294 8.0492 53.2436 8.02467 53.1846C8.00013 53.1257 7.99372 53.0608 8.00624 52.9981C8.01875 52.9355 8.04963 52.878 8.09498 52.8329L9.06724 51.8646C9.09734 51.8346 9.13306 51.8108 9.17237 51.7946C9.21169 51.7784 9.25382 51.77 9.29638 51.77C9.33893 51.77 9.38107 51.7784 9.42038 51.7946C9.4597 51.8108 9.49542 51.8346 9.52551 51.8646C9.5556 51.8945 9.57947 51.9301 9.59575 51.9693C9.61204 52.0084 9.62042 52.0504 9.62042 52.0928C9.62042 52.1352 9.61204 52.1771 9.59575 52.2163C9.57947 52.2554 9.5556 52.291 9.52551 52.321L8.55324 53.2894C8.52317 53.3193 8.48744 53.3431 8.44812 53.3593C8.4088 53.3755 8.36666 53.3838 8.32411 53.3837Z" fill="#989AA6"/>
<path d="M10.5927 51.1245C10.5286 51.1245 10.4659 51.1056 10.4126 51.0702C10.3593 51.0347 10.3178 50.9843 10.2932 50.9253C10.2687 50.8664 10.2623 50.8015 10.2748 50.7389C10.2873 50.6763 10.3182 50.6188 10.3635 50.5737L11.3358 49.6053C11.3966 49.5447 11.479 49.5107 11.5649 49.5107C11.6509 49.5107 11.7333 49.5447 11.7941 49.6053C11.8548 49.6658 11.889 49.7479 11.889 49.8335C11.889 49.9191 11.8548 50.0012 11.7941 50.0617L10.8218 51.0301C10.7917 51.0601 10.756 51.0838 10.7167 51.1C10.6774 51.1162 10.6352 51.1245 10.5927 51.1245Z" fill="#989AA6"/>
<path d="M17.769 25.8985C17.7264 25.8986 17.6842 25.8902 17.6448 25.8739C17.6055 25.8576 17.5698 25.8337 17.5398 25.8035L16.5676 24.8376C16.5068 24.7771 16.4727 24.695 16.4727 24.6094C16.4727 24.5238 16.5068 24.4417 16.5676 24.3812C16.6283 24.3206 16.7108 24.2866 16.7967 24.2866C16.8826 24.2866 16.9651 24.3206 17.0258 24.3812L17.9981 25.3495C18.0431 25.3948 18.0738 25.4522 18.0861 25.5147C18.0985 25.5772 18.092 25.642 18.0675 25.7008C18.043 25.7597 18.0016 25.81 17.9485 25.8455C17.8954 25.881 17.8329 25.9001 17.769 25.9003V25.8985Z" fill="#989AA6"/>
<path d="M20.037 28.1574C19.9944 28.1573 19.9523 28.1489 19.913 28.1326C19.8736 28.1163 19.8379 28.0925 19.8079 28.0624L18.8375 27.094C18.7787 27.0331 18.7462 26.9516 18.7471 26.8672C18.748 26.7827 18.7821 26.7019 18.8421 26.6422C18.9021 26.5825 18.9833 26.5486 19.0681 26.5479C19.1529 26.5471 19.2347 26.5796 19.2957 26.6382L20.268 27.606C20.3133 27.6512 20.3441 27.7087 20.3565 27.7713C20.369 27.8339 20.3626 27.8988 20.3381 27.9578C20.3136 28.0167 20.2721 28.0672 20.2188 28.1027C20.1656 28.1382 20.103 28.1572 20.0389 28.1574H20.037Z" fill="#989AA6"/>
<path d="M16.7936 28.1573C16.7295 28.1571 16.6669 28.1381 16.6136 28.1026C16.5604 28.0671 16.5189 28.0166 16.4944 27.9577C16.4699 27.8987 16.4635 27.8338 16.4759 27.7712C16.4884 27.7086 16.5192 27.651 16.5644 27.6058L17.5367 26.6381C17.5666 26.6072 17.6023 26.5825 17.6418 26.5655C17.6813 26.5485 17.7239 26.5395 17.7669 26.5391C17.81 26.5386 17.8527 26.5468 17.8925 26.563C17.9324 26.5791 17.9686 26.6031 17.9991 26.6334C18.0295 26.6637 18.0536 26.6997 18.0699 26.7394C18.0862 26.7791 18.0944 26.8216 18.0941 26.8645C18.0937 26.9074 18.0847 26.9497 18.0677 26.9891C18.0507 27.0285 18.026 27.0641 17.995 27.0939L17.0227 28.0623C16.9927 28.0923 16.957 28.1162 16.9176 28.1325C16.8783 28.1488 16.8362 28.1572 16.7936 28.1573Z" fill="#989AA6"/>
<path d="M19.0645 25.8984C19.0005 25.8981 18.938 25.8791 18.8849 25.8436C18.8318 25.8081 18.7904 25.7577 18.7659 25.6989C18.7414 25.64 18.735 25.5753 18.7473 25.5128C18.7597 25.4503 18.7903 25.3928 18.8353 25.3476L19.8076 24.3792C19.8377 24.3492 19.8734 24.3255 19.9127 24.3092C19.952 24.293 19.9942 24.2847 20.0367 24.2847C20.0793 24.2847 20.1214 24.293 20.1607 24.3092C20.2 24.3255 20.2358 24.3492 20.2659 24.3792C20.2959 24.4092 20.3198 24.4447 20.3361 24.4839C20.3524 24.5231 20.3608 24.565 20.3608 24.6074C20.3608 24.6498 20.3524 24.6918 20.3361 24.7309C20.3198 24.7701 20.2959 24.8057 20.2659 24.8356L19.2936 25.8034C19.2636 25.8336 19.2279 25.8575 19.1886 25.8738C19.1493 25.8901 19.1071 25.8985 19.0645 25.8984Z" fill="#989AA6"/>
<path d="M29.7139 35.5728V37.5342H36.6058V35.5728H29.7139Z" fill="#B8B5C6"/>
<path d="M29.7139 46.3603V48.3218H36.6058V46.3603H29.7139Z" fill="#989AA6"/>
<path d="M37.5908 44.644V39.2507H39.0678C39.1984 39.2507 39.3236 39.3024 39.4159 39.3943C39.5083 39.4863 39.5601 39.611 39.5601 39.7411V44.1537C39.5601 44.2837 39.5083 44.4085 39.4159 44.5004C39.3236 44.5924 39.1984 44.644 39.0678 44.644H37.5908Z" fill="#989AA6"/>
<path d="M37.5908 42.6826V39.2501H39.0678C39.1984 39.2501 39.3236 39.3018 39.4159 39.3937C39.5083 39.4857 39.5601 39.6104 39.5601 39.7405V42.1923C39.5601 42.3223 39.5083 42.447 39.4159 42.539C39.3236 42.631 39.1984 42.6826 39.0678 42.6826H37.5908Z" fill="#B8B5C6"/>
<path d="M36.6055 37.7791H29.7135C29.6478 37.7791 29.5848 37.7531 29.5384 37.7068C29.4919 37.6606 29.4658 37.5978 29.4658 37.5324V35.5709C29.4658 35.5055 29.4919 35.4428 29.5384 35.3965C29.5848 35.3502 29.6478 35.3242 29.7135 35.3242H36.6055C36.6712 35.3242 36.7342 35.3502 36.7806 35.3965C36.8271 35.4428 36.8532 35.5055 36.8532 35.5709V37.5324C36.8532 37.5978 36.8271 37.6606 36.7806 37.7068C36.7342 37.7531 36.6712 37.7791 36.6055 37.7791ZM29.96 37.2856H36.3627V35.8164H29.96V37.2856Z" fill="#282C3F"/>
<path d="M36.6055 48.5662H29.7135C29.6478 48.5662 29.5848 48.5402 29.5384 48.4939C29.4919 48.4477 29.4658 48.3849 29.4658 48.3195V46.358C29.4658 46.2926 29.4919 46.2299 29.5384 46.1836C29.5848 46.1373 29.6478 46.1113 29.7135 46.1113H36.6055C36.6712 46.1113 36.7342 46.1373 36.7806 46.1836C36.8271 46.2299 36.8532 46.2926 36.8532 46.358V48.3195C36.8532 48.3849 36.8271 48.4477 36.7806 48.4939C36.7342 48.5402 36.6712 48.5662 36.6055 48.5662ZM29.96 48.0728H36.3627V46.6048H29.96V48.0728Z" fill="#282C3F"/>
<path d="M24.5449 58.6182V58.3714C24.5449 57.8512 24.7524 57.3523 25.1217 56.9845C25.491 56.6167 25.9919 56.41 26.5142 56.41H39.8064C40.065 56.41 40.3211 56.4607 40.5601 56.5593C40.799 56.6579 41.0161 56.8024 41.1989 56.9845C41.3818 57.1666 41.5269 57.3829 41.6258 57.6208C41.7248 57.8588 41.7757 58.1139 41.7757 58.3714V58.6182H24.5449Z" fill="#30354C"/>
<path d="M27.0068 56.4116V56.1649C27.0068 55.6447 27.2143 55.1458 27.5836 54.778C27.9529 54.4101 28.4538 54.2035 28.9761 54.2035H37.3451C37.8674 54.2035 38.3683 54.4101 38.7376 54.778C39.1069 55.1458 39.3144 55.6447 39.3144 56.1649V56.4116H27.0068Z" fill="#52576A"/>
<path d="M33.8983 56.6565H30.945C30.8793 56.6565 30.8163 56.6305 30.7698 56.5843C30.7234 56.538 30.6973 56.4752 30.6973 56.4098C30.6973 56.3444 30.7234 56.2816 30.7698 56.2353C30.8163 56.1891 30.8793 56.1631 30.945 56.1631H33.8983C33.964 56.1631 34.027 56.1891 34.0735 56.2353C34.1199 56.2816 34.146 56.3444 34.146 56.4098C34.146 56.4752 34.1199 56.538 34.0735 56.5843C34.027 56.6305 33.964 56.6565 33.8983 56.6565Z" fill="#282C3F"/>
<path d="M41.7748 58.8632H24.5446C24.4789 58.8632 24.4159 58.8372 24.3694 58.7909C24.323 58.7446 24.2969 58.6819 24.2969 58.6164V58.3697C24.2984 57.7846 24.5329 57.2239 24.949 56.8108C25.3652 56.3977 25.9289 56.166 26.5164 56.1665H29.2239C29.2896 56.1665 29.3526 56.1925 29.399 56.2388C29.4455 56.285 29.4716 56.3478 29.4716 56.4132C29.4716 56.4787 29.4455 56.5414 29.399 56.5877C29.3526 56.634 29.2896 56.6599 29.2239 56.6599H26.5164C26.0596 56.6604 25.6217 56.8414 25.2987 57.1631C24.9757 57.4848 24.794 57.9209 24.7935 58.3759H41.5289C41.5284 57.9209 41.3468 57.4848 41.0238 57.1631C40.7008 56.8414 40.2629 56.6604 39.8061 56.6599H38.3291C38.2634 56.6599 38.2004 56.634 38.154 56.5877C38.1075 56.5414 38.0814 56.4787 38.0814 56.4132C38.0814 56.3478 38.1075 56.285 38.154 56.2388C38.2004 56.1925 38.2634 56.1665 38.3291 56.1665H39.8061C40.3934 56.1672 40.9564 56.3998 41.3717 56.8134C41.787 57.2271 42.0206 57.7879 42.0213 58.3728V58.6195C42.0204 58.6842 41.9942 58.746 41.9481 58.7916C41.902 58.8371 41.8397 58.8628 41.7748 58.8632Z" fill="#282C3F"/>
<path d="M39.3144 56.6568C39.2487 56.6568 39.1857 56.6308 39.1392 56.5845C39.0927 56.5382 39.0667 56.4755 39.0667 56.4101V56.1633C39.0662 55.7084 38.8845 55.2722 38.5615 54.9505C38.2385 54.6288 37.8006 54.4479 37.3438 54.4474H28.9761C28.5193 54.4479 28.0813 54.6288 27.7582 54.9505C27.4351 55.2722 27.2533 55.7083 27.2527 56.1633V56.4101C27.2566 56.4446 27.2531 56.4795 27.2425 56.5126C27.2319 56.5457 27.2144 56.5761 27.1912 56.602C27.1679 56.6279 27.1395 56.6486 27.1077 56.6628C27.0758 56.677 27.0414 56.6843 27.0065 56.6843C26.9716 56.6843 26.9372 56.677 26.9053 56.6628C26.8735 56.6486 26.8451 56.6279 26.8218 56.602C26.7986 56.5761 26.7811 56.5457 26.7705 56.5126C26.7599 56.4795 26.7564 56.4446 26.7603 56.4101V56.1633C26.761 55.5783 26.9947 55.0174 27.4101 54.6037C27.8255 54.1901 28.3887 53.9575 28.9761 53.957H37.3451C37.9323 53.9577 38.4954 54.1903 38.9107 54.604C39.326 55.0176 39.5596 55.5784 39.5602 56.1633V56.4101C39.5602 56.4752 39.5344 56.5376 39.4883 56.5839C39.4423 56.6301 39.3797 56.6563 39.3144 56.6568Z" fill="#282C3F"/>
<path d="M27.499 49.3025C27.499 49.0424 27.6028 48.7929 27.7874 48.609C27.9721 48.4251 28.2225 48.3218 28.4837 48.3218H37.8348C38.0959 48.3218 38.3464 48.4251 38.531 48.609C38.7157 48.7929 38.8194 49.0424 38.8194 49.3025C38.8194 49.4313 38.794 49.5588 38.7445 49.6777C38.695 49.7967 38.6224 49.9047 38.531 49.9957C38.4396 50.0868 38.331 50.1589 38.2116 50.2082C38.0921 50.2574 37.9641 50.2827 37.8348 50.2826H28.4837C28.3544 50.2827 28.2264 50.2574 28.1069 50.2082C27.9875 50.1589 27.8789 50.0868 27.7875 49.9957C27.696 49.9047 27.6235 49.7967 27.574 49.6777C27.5245 49.5588 27.499 49.4313 27.499 49.3025Z" fill="#2CAAE6"/>
<path d="M27.499 34.592C27.499 34.3319 27.6028 34.0825 27.7874 33.8986C27.9721 33.7147 28.2225 33.6113 28.4837 33.6113H37.8348C38.0959 33.6113 38.3464 33.7147 38.531 33.8986C38.7157 34.0825 38.8194 34.3319 38.8194 34.592C38.8194 34.8521 38.7157 35.1016 38.531 35.2855C38.3464 35.4694 38.0959 35.5728 37.8348 35.5728H28.4837C28.2225 35.5728 27.9721 35.4694 27.7874 35.2855C27.6028 35.1016 27.499 34.8521 27.499 34.592Z" fill="#2FC8F2"/>
<path d="M39.5596 43.6635V40.231H49.6538C50.1108 40.231 50.5491 40.4117 50.8723 40.7335C51.1955 41.0553 51.3771 41.4917 51.3773 41.9469C51.3773 42.4022 51.1957 42.8388 50.8725 43.1607C50.5493 43.4826 50.1109 43.6635 49.6538 43.6635H39.5596Z" fill="#2FC8F2"/>
<path d="M39.5596 43.6635V41.4565H50.8825C51.0128 41.4574 51.1375 41.5093 51.2297 41.6011C51.3219 41.6928 51.374 41.8171 51.3748 41.9469C51.3748 42.1723 51.3302 42.3955 51.2436 42.6038C51.157 42.8121 51.03 43.0013 50.87 43.1607C50.71 43.3201 50.52 43.4465 50.3109 43.5328C50.1018 43.6191 49.8777 43.6635 49.6513 43.6635H39.5596Z" fill="#2CAAE6"/>
<path d="M49.6515 43.9083H39.5573C39.4916 43.9083 39.4286 43.8823 39.3821 43.836C39.3357 43.7898 39.3096 43.727 39.3096 43.6616V40.2309C39.3096 40.1655 39.3357 40.1027 39.3821 40.0565C39.4286 40.0102 39.4916 39.9842 39.5573 39.9842H49.6515C49.913 39.9796 50.1729 40.0269 50.4158 40.1234C50.6588 40.2198 50.88 40.3636 51.0666 40.5461C51.2531 40.7287 51.4013 40.9465 51.5025 41.1867C51.6037 41.4269 51.6558 41.6848 51.6558 41.9453C51.6558 42.2058 51.6037 42.4637 51.5025 42.704C51.4013 42.9442 51.2531 43.1619 51.0666 43.3445C50.88 43.5271 50.6588 43.6708 50.4158 43.7673C50.1729 43.8637 49.913 43.9111 49.6515 43.9064V43.9083ZM39.805 43.4148H49.6515C49.848 43.4189 50.0433 43.3838 50.226 43.3117C50.4086 43.2395 50.575 43.1319 50.7154 42.9949C50.8558 42.8579 50.9673 42.6944 51.0434 42.514C51.1195 42.3336 51.1588 42.1398 51.1588 41.9441C51.1588 41.7484 51.1195 41.5546 51.0434 41.3742C50.9673 41.1937 50.8558 41.0303 50.7154 40.8933C50.575 40.7563 50.4086 40.6486 50.226 40.5765C50.0433 40.5044 49.848 40.4693 49.6515 40.4733H39.805V43.4148Z" fill="#282C3F"/>
<path d="M39.0675 44.8889H37.5905C37.5248 44.8889 37.4618 44.863 37.4153 44.8167C37.3689 44.7704 37.3428 44.7077 37.3428 44.6422V39.2501C37.3428 39.1847 37.3689 39.1219 37.4153 39.0757C37.4618 39.0294 37.5248 39.0034 37.5905 39.0034H39.0675C39.2632 39.0036 39.451 39.0811 39.5895 39.2189C39.728 39.3567 39.8059 39.5436 39.8063 39.7386V44.1519C39.8063 44.2486 39.7873 44.3444 39.7502 44.4337C39.7131 44.5231 39.6587 44.6044 39.5901 44.6728C39.5215 44.7412 39.4401 44.7956 39.3504 44.8326C39.2607 44.8697 39.1646 44.8889 39.0675 44.8889ZM37.837 44.3955H39.0675C39.1332 44.3955 39.1962 44.3695 39.2426 44.3232C39.2891 44.277 39.3152 44.2142 39.3152 44.1488V39.7405C39.3152 39.6751 39.2891 39.6123 39.2426 39.566C39.1962 39.5198 39.1332 39.4938 39.0675 39.4938H37.837V44.3955Z" fill="#282C3F"/>
<path d="M28.7295 38.0244V45.8695C28.7295 46.1403 28.9499 46.3599 29.2218 46.3599H37.0984C37.3703 46.3599 37.5908 46.1403 37.5908 45.8695V38.0244C37.5908 37.7536 37.3703 37.534 37.0984 37.534H29.2218C28.9499 37.534 28.7295 37.7536 28.7295 38.0244Z" fill="#2FC8F2"/>
<path d="M28.7295 39.7403V45.8695C28.7295 46.1403 28.9499 46.3599 29.2218 46.3599H37.0984C37.3703 46.3599 37.5908 46.1403 37.5908 45.8695V39.7403C37.5908 39.4695 37.3703 39.25 37.0984 39.25H29.2218C28.9499 39.25 28.7295 39.4695 28.7295 39.7403Z" fill="#2CAAE6"/>
<path d="M37.0982 46.6047H29.2216C29.026 46.6046 28.8384 46.5272 28.7 46.3894C28.5616 46.2517 28.4837 46.065 28.4834 45.8701V38.0244C28.4836 37.8294 28.5614 37.6424 28.6997 37.5045C28.8381 37.3666 29.0258 37.2889 29.2216 37.2886H37.0982C37.2941 37.2887 37.4819 37.3663 37.6204 37.5043C37.7589 37.6422 37.8368 37.8293 37.837 38.0244V45.8701C37.8367 46.0651 37.7587 46.2519 37.6202 46.3897C37.4816 46.5274 37.2939 46.6047 37.0982 46.6047ZM29.2216 37.7789C29.1559 37.7789 29.0929 37.8049 29.0464 37.8512C29 37.8975 28.9739 37.9602 28.9739 38.0257V45.8701C28.9739 45.9356 29 45.9983 29.0464 46.0446C29.0929 46.0909 29.1559 46.1169 29.2216 46.1169H37.0982C37.1639 46.1169 37.2269 46.0909 37.2733 46.0446C37.3198 45.9983 37.3459 45.9356 37.3459 45.8701V38.0244C37.3459 37.959 37.3198 37.8962 37.2733 37.85C37.2269 37.8037 37.1639 37.7777 37.0982 37.7777L29.2216 37.7789Z" fill="#282C3F"/>
<path d="M37.8374 50.5278H28.4863C28.3223 50.5314 28.1593 50.5024 28.0067 50.4425C27.8542 50.3825 27.7152 50.2928 27.5979 50.1786C27.4807 50.0644 27.3875 49.928 27.3239 49.7775C27.2603 49.6269 27.2275 49.4652 27.2275 49.3019C27.2275 49.1385 27.2603 48.9768 27.3239 48.8263C27.3875 48.6757 27.4807 48.5394 27.5979 48.4252C27.7152 48.311 27.8542 48.2212 28.0067 48.1613C28.1593 48.1013 28.3223 48.0723 28.4863 48.076H37.8374C38.159 48.0832 38.4651 48.2155 38.69 48.4446C38.915 48.6737 39.0409 48.9814 39.0409 49.3019C39.0409 49.6223 38.915 49.93 38.69 50.1592C38.4651 50.3883 38.159 50.5206 37.8374 50.5278ZM28.4863 48.5664C28.3875 48.5635 28.2891 48.5804 28.197 48.6161C28.105 48.6518 28.021 48.7055 27.9501 48.7741C27.8792 48.8427 27.8229 48.9247 27.7844 49.0154C27.7459 49.106 27.7261 49.2035 27.7261 49.3019C27.7261 49.4003 27.7459 49.4977 27.7844 49.5884C27.8229 49.6791 27.8792 49.7611 27.9501 49.8297C28.021 49.8983 28.105 49.952 28.197 49.9877C28.2891 50.0234 28.3875 50.0403 28.4863 50.0374H37.8374C38.0295 50.0319 38.212 49.952 38.3459 49.8146C38.4799 49.6773 38.5548 49.4934 38.5548 49.3019C38.5548 49.1104 38.4799 48.9265 38.3459 48.7892C38.212 48.6518 38.0295 48.5719 37.8374 48.5664H28.4863Z" fill="#282C3F"/>
<path d="M37.8374 35.8164H28.4863C28.3223 35.82 28.1593 35.791 28.0067 35.7311C27.8542 35.6711 27.7152 35.5814 27.5979 35.4672C27.4807 35.353 27.3875 35.2166 27.3239 35.0661C27.2603 34.9155 27.2275 34.7538 27.2275 34.5905C27.2275 34.4271 27.2603 34.2654 27.3239 34.1149C27.3875 33.9643 27.4807 33.8279 27.5979 33.7137C27.7152 33.5995 27.8542 33.5098 28.0067 33.4499C28.1593 33.3899 28.3223 33.3609 28.4863 33.3646H37.8374C38.159 33.3718 38.4651 33.5041 38.69 33.7332C38.915 33.9623 39.0409 34.27 39.0409 34.5905C39.0409 34.9109 38.915 35.2186 38.69 35.4477C38.4651 35.6769 38.159 35.8092 37.8374 35.8164ZM28.4863 33.8549C28.3875 33.8521 28.2891 33.869 28.197 33.9047C28.105 33.9404 28.021 33.9941 27.9501 34.0627C27.8792 34.1312 27.8229 34.2133 27.7844 34.304C27.7459 34.3946 27.7261 34.492 27.7261 34.5905C27.7261 34.6889 27.7459 34.7863 27.7844 34.877C27.8229 34.9676 27.8792 35.0497 27.9501 35.1183C28.021 35.1868 28.105 35.2406 28.197 35.2762C28.2891 35.3119 28.3875 35.3288 28.4863 35.326H37.8374C38.0295 35.3205 38.212 35.2405 38.3459 35.1032C38.4799 34.9659 38.5548 34.7819 38.5548 34.5905C38.5548 34.399 38.4799 34.2151 38.3459 34.0777C38.212 33.9404 38.0295 33.8605 37.8374 33.8549H28.4863Z" fill="#282C3F"/>
<path d="M24.2985 52.7341H22.3292C22.1987 52.7341 22.0734 52.6825 21.9811 52.5905C21.8888 52.4985 21.8369 52.3738 21.8369 52.2438C21.8369 52.1137 21.8888 51.989 21.9811 51.897C22.0734 51.8051 22.1987 51.7534 22.3292 51.7534H24.2985C24.4291 51.7534 24.5543 51.8051 24.6467 51.897C24.739 51.989 24.7909 52.1137 24.7909 52.2438C24.7909 52.3738 24.739 52.4985 24.6467 52.5905C24.5543 52.6825 24.4291 52.7341 24.2985 52.7341Z" fill="#2CAAE6"/>
<path d="M25.5294 51.5082C25.4648 51.5082 25.4008 51.4955 25.341 51.4709C25.2813 51.4462 25.2271 51.4101 25.1814 51.3645L23.7044 49.8934C23.6179 49.8004 23.5709 49.6775 23.5733 49.5507C23.5758 49.4239 23.6275 49.3029 23.7176 49.2133C23.8077 49.1236 23.9292 49.0722 24.0565 49.0699C24.1838 49.0676 24.3071 49.1145 24.4005 49.2008L25.8775 50.6718C25.9448 50.741 25.9904 50.8282 26.0085 50.9228C26.0267 51.0174 26.0166 51.1153 25.9796 51.2043C25.9426 51.2933 25.8803 51.3695 25.8003 51.4236C25.7203 51.4778 25.6261 51.5074 25.5294 51.5088V51.5082Z" fill="#2CAAE6"/>
<path d="M24.0527 55.4305C23.9553 55.4304 23.8602 55.4017 23.7793 55.3478C23.6983 55.2939 23.6353 55.2173 23.598 55.1277C23.5608 55.0382 23.551 54.9396 23.57 54.8445C23.589 54.7494 23.6358 54.662 23.7047 54.5935L25.1816 53.123C25.2746 53.0346 25.3987 52.9859 25.5273 52.9873C25.6559 52.9888 25.7788 53.0404 25.8698 53.1309C25.9607 53.2215 26.0124 53.3439 26.0139 53.472C26.0154 53.6001 25.9665 53.7237 25.8777 53.8163L24.4007 55.2874C24.3551 55.3329 24.3008 55.369 24.2411 55.3936C24.1813 55.4181 24.1173 55.4307 24.0527 55.4305Z" fill="#2CAAE6"/>
<path d="M43.9909 52.7341H42.0216C41.8911 52.7341 41.7658 52.6825 41.6735 52.5905C41.5812 52.4985 41.5293 52.3738 41.5293 52.2438C41.5293 52.1137 41.5812 51.989 41.6735 51.897C41.7658 51.8051 41.8911 51.7534 42.0216 51.7534H43.9909C44.1215 51.7534 44.2467 51.8051 44.3391 51.897C44.4314 51.989 44.4833 52.1137 44.4833 52.2438C44.4833 52.3738 44.4314 52.4985 44.3391 52.5905C44.2467 52.6825 44.1215 52.7341 43.9909 52.7341Z" fill="#2CAAE6"/>
<path d="M42.2669 55.4305C42.2023 55.4306 42.1383 55.418 42.0786 55.3935C42.0189 55.3689 41.9646 55.3329 41.9189 55.2874L40.4419 53.8163C40.3531 53.7237 40.3042 53.6001 40.3057 53.472C40.3072 53.3439 40.3589 53.2215 40.4499 53.1309C40.5408 53.0404 40.6637 52.9888 40.7923 52.9873C40.9209 52.9859 41.045 53.0346 41.138 53.123L42.6174 54.5935C42.6864 54.6622 42.7333 54.7498 42.7522 54.8451C42.7711 54.9404 42.7612 55.0392 42.7236 55.1289C42.6861 55.2186 42.6226 55.2951 42.5413 55.3488C42.46 55.4025 42.3645 55.4309 42.2669 55.4305Z" fill="#2CAAE6"/>
<path d="M40.7906 51.5082C40.6939 51.5067 40.5998 51.4771 40.5198 51.423C40.4398 51.3688 40.3774 51.2926 40.3404 51.2036C40.3034 51.1146 40.2934 51.0168 40.3115 50.9221C40.3297 50.8275 40.3753 50.7403 40.4426 50.6712L41.9196 49.2007C42.0118 49.1084 42.137 49.0564 42.2678 49.0562C42.3985 49.0559 42.5239 49.1073 42.6166 49.1992C42.7092 49.291 42.7614 49.4158 42.7617 49.5459C42.762 49.6761 42.7103 49.8011 42.6181 49.8934L41.1411 51.3644C41.0952 51.4104 41.0406 51.4467 40.9804 51.4714C40.9202 51.4961 40.8557 51.5086 40.7906 51.5082Z" fill="#2CAAE6"/>
</svg>
