<svg width="21" height="24" viewBox="0 0 21 24" fill="none" xmlns="http://www.w3.org/2000/svg">
<path d="M10.4912 0.0017588C10.3842 0.00267878 10.2784 0.0250638 10.1799 0.0676356C10.0814 0.110207 9.99205 0.172132 9.91702 0.249874C9.842 0.327616 9.78274 0.419652 9.74262 0.520728C9.70251 0.621803 9.68233 0.729938 9.68324 0.838958V16.4652C9.67542 16.9522 9.52651 17.426 9.25523 17.827C8.98395 18.228 8.60239 18.5385 8.15848 18.7193C7.71457 18.9001 7.22811 18.9433 6.76021 18.8433C6.29231 18.7434 5.86383 18.5048 5.52859 18.1576C5.19336 17.8103 4.96632 17.3699 4.87599 16.8916C4.78567 16.4134 4.83609 15.9185 5.02092 15.4694C5.20576 15.0202 5.51676 14.6367 5.91486 14.367C6.31296 14.0973 6.7804 13.9535 7.25848 13.9536C7.36549 13.9527 7.47128 13.9303 7.5698 13.8877C7.66832 13.8452 7.75764 13.7832 7.83267 13.7055C7.90769 13.6278 7.96696 13.5357 8.00707 13.4346C8.04718 13.3336 8.06736 13.2254 8.06645 13.1164V9.7685C8.06736 9.65948 8.04718 9.55134 8.00707 9.45027C7.96696 9.34919 7.90769 9.25715 7.83267 9.17941C7.75764 9.10167 7.66832 9.03974 7.5698 8.99717C7.47128 8.9546 7.36549 8.93222 7.25848 8.9313C5.32101 8.96823 3.47515 9.77826 2.11779 11.1872C0.760435 12.5962 0 14.4915 0 16.4656C0 18.4398 0.760435 20.3351 2.11779 21.7441C3.47515 23.153 5.32101 23.9631 7.25848 24C9.20372 23.9833 11.0628 23.1803 12.4271 21.7675C13.7913 20.3547 14.549 18.4478 14.5336 16.4661V10.0112C16.2165 11.1297 18.1827 11.7244 20.192 11.7225C20.299 11.7216 20.4048 11.6992 20.5033 11.6567C20.6018 11.6141 20.6912 11.5522 20.7662 11.4744C20.8412 11.3967 20.9005 11.3047 20.9406 11.2036C20.9807 11.1025 21.0009 10.9944 21 10.8853V7.53567C21.0009 7.42665 20.9807 7.31852 20.9406 7.21744C20.9005 7.11637 20.8412 7.02433 20.7662 6.94659C20.6912 6.86885 20.6018 6.80692 20.5033 6.76435C20.4048 6.72178 20.299 6.69939 20.192 6.69847C19.4426 6.69226 18.7018 6.53572 18.0118 6.23779C17.3218 5.93985 16.6962 5.50636 16.1707 4.96208C15.6451 4.41779 15.23 3.77337 14.949 3.06562C14.6679 2.35786 14.5265 1.60064 14.5328 0.837199C14.5337 0.728179 14.5135 0.620045 14.4734 0.518969C14.4333 0.417894 14.374 0.325857 14.299 0.248115C14.224 0.170374 14.1346 0.108449 14.0361 0.0658768C13.9376 0.023305 13.8318 0.000919981 13.7248 0L10.4912 0.0017588Z" fill="#40FF62"/>
</svg>
