<svg width="23" height="23" viewBox="0 0 23 23" fill="none" xmlns="http://www.w3.org/2000/svg">
<path d="M23 11.4269C22.9997 9.24299 22.3698 7.10485 21.1847 5.26565C19.9996 3.42644 18.3091 1.96319 16.3132 1.04913C14.3173 0.135065 12.0996 -0.19153 9.92272 0.108008C7.74584 0.407545 5.70091 1.32067 4.03002 2.73928C2.35913 4.15789 1.13226 6.02258 0.49465 8.11259C-0.142957 10.2026 -0.164596 12.4304 0.432294 14.5322C1.02918 16.6341 2.21961 18.522 3.86263 19.9724C5.50565 21.4228 7.53247 22.3749 9.70313 22.7162V14.7335H6.7854V11.4269H9.70564V8.90619C9.70564 6.04163 11.4221 4.45992 14.0491 4.45992C14.9115 4.4718 15.7719 4.54637 16.6234 4.68302V7.49847H15.1708C14.9237 7.46589 14.6724 7.48896 14.4355 7.56597C14.1986 7.64298 13.9822 7.77196 13.8022 7.94335C13.6223 8.11475 13.4834 8.32417 13.3959 8.55612C13.3085 8.78806 13.2746 9.03659 13.2969 9.2833V11.4269H16.486L15.9759 14.7335H13.2952V22.7195C16.001 22.294 18.4652 20.9228 20.2443 18.8527C22.0234 16.7825 23.0005 14.1493 23 11.4269Z" fill="#40FF62"/>
</svg>
