<svg width="23" height="23" viewBox="0 0 23 23" fill="none" xmlns="http://www.w3.org/2000/svg">
<g clip-path="url(#clip0_284_364)">
<path d="M17.6406 3.97895C17.3678 3.97966 17.1012 4.06123 16.8747 4.21334C16.6482 4.36546 16.4718 4.5813 16.3679 4.8336C16.2639 5.0859 16.2371 5.36334 16.2908 5.63087C16.3445 5.89841 16.4762 6.14404 16.6694 6.33673C16.8626 6.52943 17.1086 6.66054 17.3763 6.71351C17.6439 6.76648 17.9213 6.73894 18.1733 6.63435C18.4254 6.52977 18.6407 6.35283 18.7923 6.1259C18.9438 5.89898 19.0247 5.63223 19.0247 5.35936C19.0247 5.17778 18.9888 4.99798 18.9192 4.83027C18.8496 4.66255 18.7476 4.51022 18.6191 4.38199C18.4905 4.25375 18.3379 4.15215 18.17 4.08299C18.0021 4.01383 17.8222 3.97847 17.6406 3.97895ZM22.9306 6.76232C22.9082 5.80795 22.7294 4.86371 22.4013 3.96723C22.1088 3.20013 21.6536 2.50555 21.0669 1.93132C20.4972 1.34186 19.8011 0.88957 19.031 0.608609C18.1369 0.270465 17.1916 0.0875067 16.2359 0.0676232C15.0187 4.03066e-08 14.6283 0 11.5005 0C8.37265 0 7.98405 -8.73309e-08 6.76232 0.0694264C5.80662 0.0893099 4.86133 0.272269 3.96723 0.610412C3.19894 0.894013 2.50369 1.34561 1.93222 1.93222C1.34288 2.50162 0.890593 3.19747 0.609511 3.96723C0.271367 4.86133 0.0884083 5.80662 0.0685248 6.76232C-2.01533e-08 7.98134 0 8.37175 0 11.5005C0 14.6292 -8.73309e-08 15.0169 0.0694264 16.2386C0.0893099 17.1943 0.272269 18.1396 0.610412 19.0337C0.891374 19.8038 1.34367 20.4999 1.93312 21.0696C2.50442 21.6558 3.19935 22.107 3.96723 22.3905C4.86133 22.7286 5.80662 22.9116 6.76232 22.9315C7.98134 23.0009 8.37265 23.0009 11.5005 23.0009C14.6283 23.0009 15.0169 23.0009 16.2386 22.9315C17.1943 22.9116 18.1396 22.7286 19.0337 22.3905C19.8038 22.1095 20.4999 21.6572 21.0696 21.0678C21.6589 20.4957 22.1145 19.8005 22.404 19.0319C22.7321 18.1354 22.9109 17.1911 22.9333 16.2368C22.9333 15.0178 23.0027 14.6264 23.0027 11.4986C23.0027 8.37085 23 7.98134 22.9306 6.76232ZM20.8568 16.1006C20.8483 16.8305 20.716 17.5537 20.4655 18.2393C20.2819 18.74 19.9868 19.1923 19.6026 19.562C19.2296 19.9423 18.7782 20.2367 18.2799 20.4249C17.5943 20.6754 16.8711 20.8077 16.1412 20.8162C14.9916 20.8739 14.566 20.8856 11.5428 20.8856C8.51962 20.8856 8.09314 20.8856 6.94445 20.8162C6.18666 20.829 5.43235 20.711 4.71469 20.4673C4.23927 20.2691 3.80963 19.9754 3.45239 19.6044C3.0706 19.2349 2.77931 18.7823 2.60124 18.2817C2.32057 17.5862 2.1649 16.8466 2.1414 16.097C2.1414 14.9474 2.07197 14.5219 2.07197 11.4986C2.07197 8.47544 2.07197 8.04896 2.1414 6.90027C2.14648 6.15411 2.28259 5.41465 2.54353 4.71559C2.74644 4.23112 3.05729 3.79938 3.45239 3.45329C3.80093 3.05821 4.2318 2.7443 4.71469 2.53362C5.41555 2.28059 6.15426 2.14828 6.89937 2.1423C8.04896 2.1423 8.47454 2.07288 11.4977 2.07288C14.521 2.07288 14.9474 2.07288 16.0961 2.1423C16.826 2.15081 17.5492 2.28312 18.2348 2.53362C18.7575 2.72736 19.2266 3.04258 19.6035 3.45329C19.9802 3.80567 20.2748 4.23663 20.4664 4.71559C20.7221 5.41574 20.8544 6.15491 20.8577 6.90027C20.9154 8.04986 20.9271 8.47544 20.9271 11.4986C20.9271 14.5219 20.9181 14.9501 20.8613 16.0997L20.8568 16.1006ZM11.5005 5.6001C10.1391 5.60555 8.82164 6.08261 7.77241 6.95008C6.72318 7.81755 6.00698 9.02181 5.74572 10.3579C5.48447 11.694 5.6943 13.0793 6.3395 14.2781C6.9847 15.4769 8.02539 16.4151 9.28445 16.9329C10.5435 17.4508 11.9431 17.5163 13.2451 17.1184C14.547 16.7204 15.6708 15.8836 16.4252 14.7503C17.1795 13.617 17.5179 12.2574 17.3826 10.9027C17.2473 9.54805 16.6468 8.28214 15.6832 7.32044C15.1334 6.77266 14.481 6.33873 13.7632 6.04353C13.0455 5.74832 12.2765 5.59764 11.5005 5.6001ZM11.5005 15.3288C10.743 15.3292 10.0024 15.1049 9.37244 14.6843C8.74246 14.2637 8.25137 13.6657 7.96129 12.966C7.67121 12.2663 7.59517 11.4962 7.7428 10.7533C7.89042 10.0103 8.25507 9.32784 8.79062 8.79216C9.32618 8.25648 10.0086 7.89167 10.7515 7.74387C11.4944 7.59608 12.2645 7.67193 12.9643 7.96185C13.6641 8.25176 14.2622 8.74271 14.6829 9.37259C15.1036 10.0025 15.3281 10.743 15.3279 11.5005C15.3274 12.5154 14.924 13.4887 14.2064 14.2064C13.4887 14.924 12.5154 15.3283 11.5005 15.3288Z" fill="#40FF62"/>
</g>
<defs>
<clipPath id="clip0_284_364">
<rect width="23" height="23" fill="white"/>
</clipPath>
</defs>
</svg>
