<svg width="24" height="23" viewBox="0 0 24 23" fill="none" xmlns="http://www.w3.org/2000/svg">
<path d="M5.22459 22.0088V7.16535H0.294114V22.0088H5.22459ZM2.76016 5.1378C3.11391 5.16874 3.47024 5.12601 3.80668 5.01229C4.14311 4.89858 4.45236 4.71635 4.71491 4.47709C4.97747 4.23784 5.18764 3.94674 5.33219 3.62216C5.47673 3.29758 5.55251 2.94655 5.55474 2.59121C5.55697 2.23586 5.48561 1.88391 5.34516 1.55753C5.20471 1.23116 4.99821 0.937442 4.73868 0.6949C4.47915 0.452357 4.17222 0.26625 3.83724 0.148311C3.50226 0.0303724 3.1465 -0.0168405 2.79238 0.00964908C2.44019 -0.0209665 2.08547 0.0214591 1.75041 0.134273C1.41535 0.247087 1.10715 0.427863 0.845083 0.665297C0.583018 0.902732 0.372724 1.19172 0.22735 1.51418C0.0819755 1.83665 0.00464821 2.18566 0.000203179 2.5394C-0.00424185 2.89313 0.064291 3.24398 0.201516 3.57C0.338742 3.89602 0.541708 4.19021 0.797724 4.43416C1.05374 4.67811 1.3573 4.86659 1.68942 4.9878C2.02154 5.10901 2.37508 5.16035 2.72793 5.1386L2.76016 5.1378ZM7.95326 22.0088H12.8837V13.7196C12.8644 13.312 12.919 12.9042 13.0449 12.516C13.2294 11.9911 13.5715 11.5361 14.0243 11.2132C14.4771 10.8902 15.0185 10.7151 15.5745 10.7118C17.3582 10.7118 18.072 12.0726 18.072 14.0679V22.0088H23.0017V13.4979C23.0017 8.93896 20.5695 6.81708 17.326 6.81708C16.4223 6.78118 15.5263 6.9955 14.7366 7.43645C13.9468 7.8774 13.294 8.52788 12.8499 9.31626H12.8829V7.16535H7.95326C8.01771 8.55844 7.95326 22.0088 7.95326 22.0088Z" fill="#40FF62"/>
</svg>
