<svg width="71" height="71" viewBox="0 0 71 71" fill="none" xmlns="http://www.w3.org/2000/svg">
<path d="M53.6719 24.3463C52.1502 20.7834 53.2662 14.8762 50.1749 12.5476C47.1763 10.2905 41.8835 12.968 37.8948 12.486C33.9062 12.0041 29.3973 8.14185 25.9517 9.62044C22.397 11.147 22.0807 17.1497 19.7576 20.248C17.5054 23.251 11.7977 25.1827 11.3179 29.1812C10.8382 33.1797 15.9222 36.4149 17.3975 39.8671C18.9191 43.4305 17.8031 49.3372 20.8944 51.6663C23.893 53.9235 29.1858 51.2454 33.1745 51.7274C37.1632 52.2093 41.672 56.0721 45.1177 54.593C48.6724 53.0664 48.9886 47.0637 51.3117 43.9659C53.5639 40.9624 59.2716 39.0308 59.7514 35.0328C60.2312 31.0348 55.1472 27.7996 53.6719 24.3463Z" fill="#F6F6F6"/>
<path d="M51.7958 54.9303H19.2734V34.862L35.5346 21.9004L51.7958 34.862V54.9303Z" fill="#EDEDED"/>
<path d="M48.6576 51.7917L19.2734 53.2179V35.7175L35.5346 24.4673L48.6576 34.8615V51.7917Z" fill="white"/>
<path d="M51.7956 48.9386C51.7581 48.9387 51.721 48.9313 51.6863 48.917C51.6517 48.9027 51.6202 48.8818 51.5937 48.8553C51.5671 48.8288 51.5461 48.7973 51.5317 48.7627C51.5173 48.7281 51.5099 48.6909 51.5099 48.6535V34.9989L35.5345 22.2646L19.5601 34.9989V38.9538C19.5569 39.0273 19.5254 39.0968 19.4722 39.1477C19.419 39.1986 19.3483 39.227 19.2747 39.227C19.2011 39.227 19.1303 39.1986 19.0771 39.1477C19.0239 39.0968 18.9925 39.0273 18.9893 38.9538V34.8615C18.9896 34.8185 18.9995 34.7762 19.0184 34.7376C19.0373 34.699 19.0646 34.6651 19.0983 34.6385L35.3567 21.6769C35.4072 21.6367 35.4699 21.6147 35.5345 21.6147C35.599 21.6147 35.6617 21.6367 35.7122 21.6769L51.9734 34.6385C52.0071 34.6651 52.0344 34.699 52.0533 34.7376C52.0721 34.7762 52.0821 34.8185 52.0824 34.8615V48.6551C52.0822 48.6925 52.0746 48.7296 52.0601 48.7641C52.0455 48.7986 52.0244 48.8299 51.9977 48.8562C51.9711 48.8826 51.9396 48.9034 51.9049 48.9175C51.8702 48.9317 51.8331 48.9388 51.7956 48.9386Z" fill="#34234D"/>
<path d="M51.7957 55.215H19.2734C19.1978 55.215 19.1253 55.185 19.0718 55.1315C19.0183 55.078 18.9883 55.0055 18.9883 54.9299V40.6658C18.9915 40.5922 19.023 40.5228 19.0761 40.4719C19.1293 40.421 19.2001 40.3926 19.2737 40.3926C19.3473 40.3926 19.4181 40.421 19.4712 40.4719C19.5244 40.5228 19.5559 40.5922 19.5591 40.6658V54.6442H51.509V50.3649C51.5122 50.2914 51.5437 50.2219 51.5968 50.171C51.65 50.1201 51.7208 50.0917 51.7944 50.0917C51.868 50.0917 51.9388 50.1201 51.9919 50.171C52.0451 50.2219 52.0766 50.2914 52.0798 50.3649V54.9299C52.0798 55.0053 52.0499 55.0777 51.9967 55.1311C51.9434 55.1846 51.8712 55.2147 51.7957 55.215Z" fill="#282C3F"/>
<path d="M16.9912 36.681L35.5346 21.9001L54.078 36.681V32.6247L35.5346 17.8433L16.9912 32.6247V36.681Z" fill="#2FC8F2"/>
<path d="M16.9912 36.681L35.5346 21.9001L54.078 36.681V33.195L35.5346 19.5552L16.9912 34.9069V36.681Z" fill="#00B5F4"/>
<path d="M54.0779 36.9673C54.0134 36.9673 53.9507 36.9454 53.9002 36.9051L35.5346 22.2648L17.1689 36.904C17.127 36.9377 17.0764 36.9588 17.023 36.9649C16.9696 36.9711 16.9156 36.9619 16.8671 36.9386C16.8187 36.9153 16.7779 36.8787 16.7494 36.8331C16.7209 36.7875 16.7058 36.7348 16.7061 36.681V32.6248C16.7063 32.5817 16.7163 32.5393 16.7351 32.5006C16.754 32.4619 16.7813 32.4279 16.8151 32.4012L35.3568 17.6203C35.4073 17.58 35.47 17.5581 35.5346 17.5581C35.5991 17.5581 35.6618 17.58 35.7123 17.6203L41.3279 22.0958C41.3572 22.1192 41.3815 22.1481 41.3997 22.1809C41.4178 22.2137 41.4292 22.2498 41.4334 22.287C41.4376 22.3242 41.4344 22.3619 41.424 22.3979C41.4136 22.4339 41.3962 22.4675 41.3729 22.4968C41.3495 22.5261 41.3206 22.5505 41.2878 22.5686C41.255 22.5867 41.2189 22.5982 41.1817 22.6024C41.1444 22.6065 41.1067 22.6033 41.0707 22.593C41.0347 22.5826 41.0011 22.5652 40.9719 22.5418L35.5346 18.208L17.2769 32.7616V36.0873L35.3568 21.6771C35.4073 21.6369 35.47 21.6149 35.5346 21.6149C35.5991 21.6149 35.6618 21.6369 35.7123 21.6771L53.7923 36.089V32.7632L42.4635 23.7314C42.4342 23.7081 42.4098 23.6792 42.3917 23.6464C42.3736 23.6137 42.3621 23.5777 42.3579 23.5404C42.3537 23.5032 42.3569 23.4656 42.3672 23.4296C42.3776 23.3936 42.3949 23.36 42.4183 23.3307C42.4416 23.3014 42.4705 23.277 42.5033 23.2589C42.536 23.2408 42.5721 23.2293 42.6093 23.2251C42.6465 23.2209 42.6841 23.2241 42.7201 23.2344C42.7561 23.2448 42.7897 23.2621 42.819 23.2855L54.2557 32.4012C54.2894 32.4279 54.3168 32.4619 54.3356 32.5006C54.3545 32.5393 54.3644 32.5817 54.3647 32.6248V36.681C54.3648 36.7185 54.3575 36.7556 54.3432 36.7902C54.3289 36.8249 54.3079 36.8563 54.2814 36.8828C54.2549 36.9093 54.2234 36.9303 54.1888 36.9446C54.1542 36.9589 54.117 36.9663 54.0796 36.9662L54.0779 36.9673Z" fill="#34234D"/>
<path d="M57.7858 39.2443C57.7483 39.2443 57.7112 39.237 57.6766 39.2227C57.642 39.2083 57.6105 39.1873 57.5841 39.1608L56.7281 38.3049C56.7016 38.2784 56.6806 38.2469 56.6662 38.2123C56.6519 38.1777 56.6445 38.1406 56.6445 38.1032C56.6445 38.0657 56.6519 38.0286 56.6662 37.994C56.6806 37.9594 56.7016 37.9279 56.7281 37.9014C56.7546 37.8749 56.786 37.8539 56.8206 37.8396C56.8553 37.8253 56.8923 37.8179 56.9298 37.8179C56.9673 37.8179 57.0044 37.8253 57.039 37.8396C57.0736 37.8539 57.105 37.8749 57.1315 37.9014L57.9875 38.7574C58.0274 38.7973 58.0546 38.8481 58.0656 38.9034C58.0766 38.9588 58.071 39.0161 58.0494 39.0683C58.0278 39.1204 57.9912 39.1649 57.9443 39.1963C57.8974 39.2276 57.8422 39.2443 57.7858 39.2443Z" fill="#989AA6"/>
<path d="M59.7828 41.2413C59.7454 41.2414 59.7083 41.234 59.6737 41.2197C59.6391 41.2054 59.6076 41.1844 59.5811 41.1579L58.7252 40.3019C58.6717 40.2484 58.6416 40.1759 58.6416 40.1002C58.6416 40.0246 58.6717 39.952 58.7252 39.8985C58.7787 39.845 58.8512 39.8149 58.9269 39.8149C59.0025 39.8149 59.0751 39.845 59.1286 39.8985L59.9846 40.7545C60.0245 40.7943 60.0517 40.8452 60.0627 40.9005C60.0737 40.9558 60.0681 41.0132 60.0465 41.0653C60.0249 41.1175 59.9883 41.162 59.9414 41.1933C59.8944 41.2247 59.8393 41.2414 59.7828 41.2413Z" fill="#989AA6"/>
<path d="M56.9299 41.2413C56.8734 41.2414 56.8183 41.2247 56.7714 41.1933C56.7244 41.162 56.6878 41.1175 56.6662 41.0653C56.6447 41.0132 56.639 40.9558 56.65 40.9005C56.661 40.8452 56.6882 40.7943 56.7281 40.7545L57.5841 39.8985C57.6376 39.845 57.7102 39.8149 57.7858 39.8149C57.8615 39.8149 57.9341 39.845 57.9876 39.8985C58.0411 39.952 58.0711 40.0246 58.0711 40.1002C58.0711 40.1759 58.0411 40.2484 57.9876 40.3019L57.1316 41.1579C57.1051 41.1844 57.0737 41.2054 57.039 41.2197C57.0044 41.234 56.9673 41.2414 56.9299 41.2413Z" fill="#989AA6"/>
<path d="M58.9269 39.2443C58.8705 39.2443 58.8154 39.2276 58.7684 39.1963C58.7215 39.1649 58.6849 39.1204 58.6633 39.0683C58.6417 39.0161 58.6361 38.9588 58.6471 38.9034C58.6581 38.8481 58.6853 38.7973 58.7252 38.7574L59.5812 37.9014C59.6077 37.8749 59.6391 37.8539 59.6737 37.8396C59.7083 37.8253 59.7454 37.8179 59.7829 37.8179C59.8204 37.8179 59.8575 37.8253 59.8921 37.8396C59.9267 37.8539 59.9581 37.8749 59.9846 37.9014C60.0111 37.9279 60.0321 37.9594 60.0465 37.994C60.0608 38.0286 60.0682 38.0657 60.0682 38.1032C60.0682 38.1406 60.0608 38.1777 60.0465 38.2123C60.0321 38.2469 60.0111 38.2784 59.9846 38.3049L59.1287 39.1608C59.1022 39.1873 59.0707 39.2083 59.0361 39.2227C59.0015 39.237 58.9644 39.2443 58.9269 39.2443Z" fill="#989AA6"/>
<path d="M42.3805 14.8112C42.343 14.8112 42.3058 14.8038 42.2712 14.7894C42.2366 14.775 42.2052 14.7539 42.1788 14.7272L41.3228 13.8718C41.2693 13.8183 41.2393 13.7457 41.2393 13.67C41.2393 13.5944 41.2693 13.5218 41.3228 13.4683C41.3763 13.4148 41.4489 13.3848 41.5245 13.3848C41.6002 13.3848 41.6728 13.4148 41.7263 13.4683L42.5822 14.3237C42.6221 14.3637 42.6492 14.4145 42.6602 14.4699C42.6711 14.5252 42.6655 14.5826 42.6439 14.6347C42.6223 14.6868 42.5858 14.7314 42.5389 14.7628C42.492 14.7942 42.4369 14.811 42.3805 14.8112Z" fill="#989AA6"/>
<path d="M44.3775 16.8079C44.3401 16.808 44.303 16.8007 44.2683 16.7863C44.2337 16.772 44.2023 16.751 44.1758 16.7245L43.3198 15.868C43.2681 15.8142 43.2395 15.7422 43.2402 15.6675C43.241 15.5928 43.271 15.5214 43.3239 15.4686C43.3767 15.4159 43.4482 15.3859 43.5229 15.3853C43.5975 15.3846 43.6695 15.4133 43.7233 15.4651L44.5792 16.3205C44.6192 16.3604 44.6463 16.4112 44.6574 16.4666C44.6684 16.5219 44.6627 16.5793 44.6411 16.6314C44.6195 16.6835 44.583 16.7281 44.536 16.7594C44.4891 16.7907 44.4339 16.8074 44.3775 16.8074V16.8079Z" fill="#989AA6"/>
<path d="M41.5246 16.8079C41.4682 16.8079 41.413 16.7912 41.3661 16.7599C41.3192 16.7286 41.2826 16.684 41.261 16.6319C41.2394 16.5798 41.2337 16.5224 41.2447 16.4671C41.2558 16.4117 41.283 16.3609 41.3229 16.321L42.1788 15.4656C42.2326 15.4138 42.3046 15.3851 42.3793 15.3858C42.4539 15.3864 42.5254 15.4163 42.5782 15.4691C42.6311 15.5219 42.6611 15.5933 42.6619 15.668C42.6626 15.7427 42.6341 15.8147 42.5823 15.8685L41.7263 16.7245C41.6998 16.751 41.6684 16.772 41.6338 16.7863C41.5992 16.8006 41.5621 16.8079 41.5246 16.8079Z" fill="#989AA6"/>
<path d="M43.5224 14.8116C43.4849 14.8117 43.4478 14.8043 43.4131 14.7899C43.3785 14.7754 43.3471 14.7543 43.3207 14.7276C43.2673 14.6741 43.2373 14.6015 43.2373 14.5259C43.2373 14.4503 43.2673 14.3777 43.3207 14.3242L44.1767 13.4693C44.2032 13.4428 44.2346 13.4218 44.2692 13.4075C44.3038 13.3931 44.3409 13.3857 44.3784 13.3857C44.4159 13.3857 44.4529 13.3931 44.4876 13.4075C44.5222 13.4218 44.5536 13.4428 44.5801 13.4693C44.6066 13.4958 44.6276 13.5272 44.642 13.5619C44.6563 13.5965 44.6637 13.6336 44.6637 13.671C44.6637 13.7085 44.6563 13.7456 44.642 13.7802C44.6276 13.8148 44.6066 13.8463 44.5801 13.8727L43.7241 14.7282C43.6977 14.7547 43.6663 14.7758 43.6317 14.7901C43.597 14.8044 43.5599 14.8117 43.5224 14.8116Z" fill="#989AA6"/>
<path d="M51.7955 21.2716C51.758 21.2717 51.7209 21.2643 51.6863 21.2499C51.6516 21.2355 51.6202 21.2143 51.5938 21.1876L50.7379 20.3322C50.6844 20.2787 50.6543 20.2062 50.6543 20.1305C50.6543 20.0548 50.6844 19.9823 50.7379 19.9288C50.7914 19.8753 50.8639 19.8452 50.9396 19.8452C51.0152 19.8452 51.0878 19.8753 51.1413 19.9288L51.9973 20.7847C52.0369 20.8247 52.0639 20.8755 52.0747 20.9308C52.0856 20.986 52.0799 21.0433 52.0584 21.0953C52.0368 21.1473 52.0004 21.1918 51.9536 21.2232C51.9068 21.2545 51.8519 21.2714 51.7955 21.2716Z" fill="#989AA6"/>
<path d="M53.7921 23.2687C53.7546 23.2687 53.7174 23.2613 53.6828 23.2469C53.6482 23.2325 53.6167 23.2114 53.5903 23.1847L52.7349 22.3293C52.6814 22.2758 52.6514 22.2032 52.6514 22.1276C52.6514 22.0519 52.6814 21.9793 52.7349 21.9258C52.7884 21.8723 52.861 21.8423 52.9366 21.8423C53.0123 21.8423 53.0849 21.8723 53.1384 21.9258L53.9938 22.7813C54.0336 22.8212 54.0607 22.8721 54.0717 22.9274C54.0827 22.9828 54.077 23.0401 54.0555 23.0922C54.0339 23.1444 53.9974 23.1889 53.9505 23.2203C53.9036 23.2517 53.8485 23.2686 53.7921 23.2687Z" fill="#989AA6"/>
<path d="M50.9394 23.2687C50.883 23.2686 50.8279 23.2517 50.781 23.2203C50.7341 23.1889 50.6976 23.1444 50.676 23.0922C50.6544 23.0401 50.6488 22.9828 50.6598 22.9274C50.6707 22.8721 50.6978 22.8212 50.7377 22.7813L51.5937 21.9258C51.6472 21.8723 51.7197 21.8423 51.7954 21.8423C51.871 21.8423 51.9436 21.8723 51.9971 21.9258C52.0506 21.9793 52.0807 22.0519 52.0807 22.1276C52.0807 22.2032 52.0506 22.2758 51.9971 22.3293L51.1411 23.1847C51.1148 23.2114 51.0833 23.2325 51.0487 23.2469C51.0141 23.2614 50.9769 23.2687 50.9394 23.2687Z" fill="#989AA6"/>
<path d="M52.9369 21.2716C52.8806 21.2714 52.8256 21.2545 52.7789 21.2232C52.7321 21.1918 52.6957 21.1473 52.6741 21.0953C52.6525 21.0433 52.6468 20.986 52.6577 20.9308C52.6686 20.8755 52.6955 20.8247 52.7352 20.7847L53.5906 19.9288C53.6441 19.8753 53.7167 19.8452 53.7923 19.8452C53.868 19.8452 53.9406 19.8753 53.9941 19.9288C54.0476 19.9823 54.0776 20.0548 54.0776 20.1305C54.0776 20.2062 54.0476 20.2787 53.9941 20.3322L53.1386 21.1876C53.1122 21.2142 53.0808 21.2353 53.0462 21.2498C53.0115 21.2642 52.9744 21.2716 52.9369 21.2716Z" fill="#989AA6"/>
<path d="M26.5479 10.4262C26.5105 10.4262 26.4734 10.4188 26.4389 10.4044C26.4044 10.39 26.373 10.3688 26.3467 10.3422L25.4908 9.48896C25.4373 9.43546 25.4072 9.3629 25.4072 9.28723C25.4072 9.21157 25.4373 9.13901 25.4908 9.08551C25.5443 9.03201 25.6168 9.00195 25.6925 9.00195C25.7682 9.00195 25.8407 9.03201 25.8942 9.08551L26.7497 9.94093C26.7895 9.98088 26.8166 10.0317 26.8276 10.0871C26.8386 10.1424 26.8329 10.1998 26.8113 10.2519C26.7898 10.304 26.7532 10.3486 26.7063 10.38C26.6595 10.4114 26.6043 10.4282 26.5479 10.4283V10.4262Z" fill="#989AA6"/>
<path d="M28.5451 12.4227C28.5076 12.4228 28.4705 12.4155 28.4359 12.4012C28.4013 12.3868 28.3698 12.3658 28.3433 12.3393L27.4879 11.4834C27.4606 11.4571 27.4388 11.4256 27.4238 11.3909C27.4087 11.3561 27.4008 11.3186 27.4004 11.2807C27.4 11.2428 27.4072 11.2052 27.4215 11.1701C27.4358 11.135 27.457 11.1031 27.4838 11.0763C27.5106 11.0495 27.5424 11.0283 27.5775 11.0139C27.6126 10.9996 27.6501 10.9924 27.688 10.9927C27.7259 10.993 27.7634 11.0009 27.7982 11.0159C27.833 11.0309 27.8645 11.0526 27.8908 11.0799L28.7468 11.9359C28.7867 11.9758 28.8139 12.0266 28.8249 12.0819C28.8359 12.1373 28.8303 12.1946 28.8087 12.2468C28.7871 12.2989 28.7505 12.3434 28.7036 12.3748C28.6566 12.4061 28.6015 12.4228 28.5451 12.4227Z" fill="#989AA6"/>
<path d="M25.6926 12.4227C25.6361 12.4228 25.581 12.4061 25.534 12.3748C25.4871 12.3434 25.4505 12.2989 25.4289 12.2468C25.4073 12.1946 25.4017 12.1373 25.4127 12.0819C25.4237 12.0266 25.4509 11.9758 25.4908 11.9359L26.3468 11.0799C26.3731 11.0526 26.4046 11.0309 26.4394 11.0159C26.4742 11.0009 26.5117 10.993 26.5496 10.9927C26.5875 10.9924 26.6251 10.9996 26.6601 11.0139C26.6952 11.0283 26.7271 11.0495 26.7539 11.0763C26.7806 11.1031 26.8018 11.135 26.8161 11.1701C26.8304 11.2052 26.8376 11.2428 26.8372 11.2807C26.8368 11.3186 26.8289 11.3561 26.8139 11.3909C26.7988 11.4256 26.777 11.4571 26.7497 11.4834L25.8943 12.3393C25.8678 12.3658 25.8363 12.3868 25.8017 12.4011C25.7671 12.4154 25.73 12.4228 25.6926 12.4227Z" fill="#989AA6"/>
<path d="M27.6889 10.4264C27.6325 10.4262 27.5774 10.4093 27.5307 10.3778C27.4839 10.3464 27.4474 10.3018 27.4259 10.2497C27.4044 10.1976 27.3988 10.1403 27.4098 10.085C27.4208 10.0297 27.4479 9.9789 27.4877 9.93898L28.3431 9.08356C28.3966 9.03006 28.4692 9 28.5448 9C28.6205 9 28.6931 9.03006 28.7466 9.08356C28.8001 9.13706 28.8301 9.20962 28.8301 9.28528C28.8301 9.36094 28.8001 9.43351 28.7466 9.48701L27.8906 10.3424C27.8642 10.3691 27.8328 10.3902 27.7982 10.4047C27.7635 10.4191 27.7264 10.4265 27.6889 10.4264Z" fill="#989AA6"/>
<path d="M12.1412 46.236C12.1038 46.236 12.0667 46.2287 12.0321 46.2144C11.9975 46.2 11.966 46.179 11.9395 46.1525L11.0836 45.2966C11.0301 45.2431 11 45.1705 11 45.0949C11 45.0192 11.0301 44.9466 11.0836 44.8931C11.1371 44.8396 11.2096 44.8096 11.2853 44.8096C11.3609 44.8096 11.4335 44.8396 11.487 44.8931L12.343 45.7491C12.3829 45.789 12.4101 45.8398 12.4211 45.8951C12.4321 45.9505 12.4265 46.0078 12.4049 46.06C12.3833 46.1121 12.3467 46.1566 12.2998 46.188C12.2528 46.2193 12.1977 46.236 12.1412 46.236Z" fill="#989AA6"/>
<path d="M14.1383 48.235C14.1009 48.235 14.0638 48.2277 14.0291 48.2134C13.9945 48.1991 13.9631 48.1781 13.9366 48.1516L13.0806 47.2956C13.0541 47.2691 13.0331 47.2377 13.0188 47.203C13.0044 47.1684 12.9971 47.1313 12.9971 47.0939C12.9971 47.0564 13.0044 47.0193 13.0188 46.9847C13.0331 46.9501 13.0541 46.9186 13.0806 46.8922C13.1341 46.8387 13.2067 46.8086 13.2824 46.8086C13.3198 46.8086 13.3569 46.816 13.3915 46.8303C13.4261 46.8446 13.4576 46.8657 13.4841 46.8922L14.34 47.7481C14.38 47.788 14.4071 47.8388 14.4182 47.8942C14.4292 47.9495 14.4235 48.0069 14.4019 48.059C14.3803 48.1111 14.3438 48.1557 14.2968 48.187C14.2499 48.2183 14.1947 48.235 14.1383 48.235Z" fill="#989AA6"/>
<path d="M11.2853 48.235C11.2289 48.235 11.1737 48.2183 11.1268 48.187C11.0799 48.1557 11.0433 48.1111 11.0217 48.059C11.0001 48.0069 10.9945 47.9495 11.0055 47.8942C11.0165 47.8388 11.0437 47.788 11.0836 47.7481L11.9396 46.8922C11.9931 46.8387 12.0656 46.8086 12.1413 46.8086C12.217 46.8086 12.2895 46.8387 12.343 46.8922C12.3965 46.9457 12.4266 47.0182 12.4266 47.0939C12.4266 47.1695 12.3965 47.2421 12.343 47.2956L11.4871 48.1516C11.4606 48.1781 11.4291 48.1991 11.3945 48.2134C11.3599 48.2277 11.3228 48.235 11.2853 48.235Z" fill="#989AA6"/>
<path d="M13.2824 46.236C13.226 46.236 13.1708 46.2193 13.1239 46.188C13.077 46.1566 13.0404 46.1121 13.0188 46.06C12.9972 46.0078 12.9915 45.9505 13.0026 45.8951C13.0136 45.8398 13.0408 45.789 13.0807 45.7491L13.9367 44.8931C13.9902 44.8396 14.0627 44.8096 14.1384 44.8096C14.214 44.8096 14.2866 44.8396 14.3401 44.8931C14.3936 44.9466 14.4237 45.0192 14.4237 45.0949C14.4237 45.1705 14.3936 45.2431 14.3401 45.2966L13.4841 46.1525C13.4577 46.179 13.4262 46.2 13.3916 46.2144C13.357 46.2287 13.3199 46.236 13.2824 46.236Z" fill="#989AA6"/>
<path d="M19.6002 23.9401C19.5628 23.9401 19.5257 23.9328 19.4911 23.9185C19.4564 23.9041 19.425 23.8831 19.3985 23.8566L18.5425 23.0007C18.5161 22.9742 18.495 22.9427 18.4807 22.9081C18.4664 22.8735 18.459 22.8364 18.459 22.799C18.459 22.7615 18.4664 22.7244 18.4807 22.6898C18.495 22.6552 18.5161 22.6237 18.5425 22.5972C18.569 22.5707 18.6005 22.5497 18.6351 22.5354C18.6697 22.5211 18.7068 22.5137 18.7443 22.5137C18.7817 22.5137 18.8188 22.5211 18.8534 22.5354C18.888 22.5497 18.9195 22.5707 18.946 22.5972L19.802 23.4532C19.8419 23.4931 19.8691 23.5439 19.8801 23.5992C19.8911 23.6546 19.8855 23.7119 19.8639 23.7641C19.8423 23.8162 19.8057 23.8607 19.7588 23.8921C19.7118 23.9234 19.6567 23.9401 19.6002 23.9401Z" fill="#989AA6"/>
<path d="M21.5976 25.9371C21.5601 25.9372 21.523 25.9298 21.4883 25.9154C21.4537 25.901 21.4223 25.8798 21.3959 25.8532L20.5416 24.9977C20.4881 24.9442 20.458 24.8717 20.458 24.796C20.458 24.7204 20.4881 24.6478 20.5416 24.5943C20.5951 24.5408 20.6676 24.5107 20.7433 24.5107C20.819 24.5107 20.8915 24.5408 20.945 24.5943L21.801 25.4497C21.8408 25.4897 21.8679 25.5405 21.8789 25.5959C21.8899 25.6512 21.8842 25.7086 21.8627 25.7607C21.8411 25.8128 21.8046 25.8574 21.7577 25.8888C21.7108 25.9202 21.6557 25.937 21.5993 25.9371H21.5976Z" fill="#989AA6"/>
<path d="M18.7421 25.9371C18.7046 25.9372 18.6675 25.9298 18.6329 25.9154C18.5982 25.901 18.5668 25.8798 18.5404 25.8532C18.487 25.7996 18.457 25.7271 18.457 25.6514C18.457 25.5758 18.487 25.5033 18.5404 25.4497L19.3964 24.5943C19.4229 24.5678 19.4543 24.5468 19.4889 24.5325C19.5235 24.5181 19.5606 24.5107 19.5981 24.5107C19.6356 24.5107 19.6727 24.5181 19.7073 24.5325C19.7419 24.5468 19.7733 24.5678 19.7998 24.5943C19.8263 24.6208 19.8473 24.6522 19.8617 24.6869C19.876 24.7215 19.8834 24.7586 19.8834 24.796C19.8834 24.8335 19.876 24.8706 19.8617 24.9052C19.8473 24.9398 19.8263 24.9713 19.7998 24.9977L18.9439 25.8532C18.9175 25.8798 18.8861 25.901 18.8514 25.9154C18.8168 25.9298 18.7797 25.9372 18.7421 25.9371Z" fill="#989AA6"/>
<path d="M20.7414 23.9401C20.685 23.9401 20.6298 23.9234 20.5829 23.8921C20.5359 23.8607 20.4994 23.8162 20.4778 23.7641C20.4562 23.7119 20.4505 23.6546 20.4615 23.5992C20.4726 23.5439 20.4998 23.4931 20.5397 23.4532L21.3956 22.5972C21.4491 22.5437 21.5217 22.5137 21.5974 22.5137C21.673 22.5137 21.7456 22.5437 21.7991 22.5972C21.8526 22.6507 21.8826 22.7233 21.8826 22.799C21.8826 22.8746 21.8526 22.9472 21.7991 23.0007L20.9431 23.8566C20.9166 23.8831 20.8852 23.9041 20.8506 23.9185C20.816 23.9328 20.7789 23.9401 20.7414 23.9401Z" fill="#989AA6"/>
<path d="M22.1877 50.2539C22.1313 50.254 22.0761 50.2373 22.0292 50.2059C21.9822 50.1746 21.9457 50.1301 21.9241 50.0779C21.9025 50.0258 21.8968 49.9684 21.9078 49.9131C21.9189 49.8578 21.946 49.8069 21.986 49.7671L35.3941 36.3589C35.4206 36.3325 35.452 36.3114 35.4866 36.2971C35.5212 36.2828 35.5583 36.2754 35.5958 36.2754C35.6333 36.2754 35.6704 36.2828 35.705 36.2971C35.7396 36.3114 35.771 36.3325 35.7975 36.3589C35.824 36.3854 35.845 36.4169 35.8594 36.4515C35.8737 36.4861 35.8811 36.5232 35.8811 36.5607C35.8811 36.5981 35.8737 36.6352 35.8594 36.6698C35.845 36.7045 35.824 36.7359 35.7975 36.7624L22.3894 50.1705C22.3629 50.197 22.3315 50.218 22.2969 50.2323C22.2622 50.2466 22.2251 50.254 22.1877 50.2539Z" fill="#282C3F"/>
<path d="M49.0037 50.2536C48.9663 50.2536 48.9292 50.2463 48.8946 50.232C48.8599 50.2176 48.8285 50.1966 48.802 50.1702L42.7857 44.155C42.7322 44.1015 42.7021 44.0289 42.7021 43.9533C42.7021 43.8776 42.7322 43.805 42.7857 43.7515C42.8392 43.698 42.9118 43.668 42.9874 43.668C43.0631 43.668 43.1357 43.698 43.1892 43.7515L49.2054 49.7667C49.2454 49.8066 49.2726 49.8574 49.2836 49.9128C49.2946 49.9681 49.2889 50.0255 49.2673 50.0776C49.2457 50.1297 49.2092 50.1743 49.1622 50.2056C49.1153 50.2369 49.0601 50.2536 49.0037 50.2536Z" fill="#282C3F"/>
<path d="M35.5955 51.3951C35.5569 51.3939 35.5188 51.3851 35.4835 51.3692C35.4483 51.3533 35.4165 51.3306 35.39 51.3024C35.3635 51.2742 35.3429 51.241 35.3292 51.2049C35.3155 51.1687 35.3092 51.1301 35.3104 51.0915V28.0207C35.3074 27.9814 35.3126 27.942 35.3256 27.9047C35.3386 27.8675 35.3591 27.8334 35.3859 27.8045C35.4127 27.7756 35.4452 27.7526 35.4813 27.7368C35.5174 27.721 35.5564 27.7129 35.5958 27.7129C35.6352 27.7129 35.6742 27.721 35.7103 27.7368C35.7464 27.7526 35.7789 27.7756 35.8057 27.8045C35.8325 27.8334 35.853 27.8675 35.866 27.9047C35.879 27.942 35.8842 27.9814 35.8812 28.0207V51.0915C35.8836 51.1696 35.8548 51.2455 35.8012 51.3024C35.7477 51.3594 35.6737 51.3927 35.5955 51.3951Z" fill="#282C3F"/>
<path d="M35.5957 45.4042C40.4799 45.4042 44.4394 41.4447 44.4394 36.5605C44.4394 31.6763 40.4799 27.7168 35.5957 27.7168C30.7114 27.7168 26.752 31.6763 26.752 36.5605C26.752 41.4447 30.7114 45.4042 35.5957 45.4042Z" fill="white"/>
<path d="M31.5625 44.4297C32.8555 45.093 34.2922 45.4273 35.7452 45.403C37.1983 45.3786 38.6229 44.9964 39.893 44.2902C41.1631 43.584 42.2395 42.5755 43.0269 41.3541C43.8144 40.1327 44.2885 38.736 44.4074 37.2876C40.3997 41.4093 35.7038 43.4549 31.5625 44.4297Z" fill="#E6E6E6"/>
<mask id="mask0_1943_2349" style="mask-type:luminance" maskUnits="userSpaceOnUse" x="26" y="27" width="19" height="19">
<path d="M35.5947 45.4042C40.4789 45.4042 44.4384 41.4447 44.4384 36.5605C44.4384 31.6763 40.4789 27.7168 35.5947 27.7168C30.7104 27.7168 26.751 31.6763 26.751 36.5605C26.751 41.4447 30.7104 45.4042 35.5947 45.4042Z" fill="white"/>
</mask>
<g mask="url(#mask0_1943_2349)">
<path d="M40.9689 40.4218L38.4833 39.7676H32.7075L30.2214 40.4218C29.7627 40.5423 29.3568 40.8113 29.0671 41.1868C28.7774 41.5623 28.6202 42.0231 28.6201 42.4974V56.2065H42.5702V42.4974C42.5701 42.0231 42.4129 41.5623 42.1232 41.1868C41.8335 40.8113 41.4276 40.5423 40.9689 40.4218Z" fill="#B8B5C6"/>
<path d="M28.6202 56.2064H42.5703V42.4973C42.5702 42.0231 42.413 41.5622 42.1233 41.1867C41.8336 40.8112 41.4277 40.5422 40.969 40.4217L40.7771 40.3716C36.6614 43.2432 32.2469 44.4829 28.6191 44.9742L28.6202 56.2064Z" fill="#A09CAD"/>
<path d="M42.5702 56.4915H28.6201C28.5445 56.4915 28.472 56.4615 28.4185 56.408C28.365 56.3546 28.335 56.282 28.335 56.2064V42.4973C28.3352 41.9602 28.5132 41.4382 28.8414 41.0129C29.1695 40.5876 29.6293 40.2829 30.1488 40.1464L32.6355 39.4922C32.659 39.4858 32.6832 39.4827 32.7075 39.4829H38.4833C38.5078 39.4827 38.5322 39.4859 38.5558 39.4922L41.0414 40.1464C41.561 40.2831 42.0207 40.5879 42.3488 41.0132C42.6769 41.4386 42.855 41.9607 42.8553 42.4979V56.2064C42.8553 56.2439 42.8479 56.2809 42.8336 56.3155C42.8193 56.3501 42.7983 56.3816 42.7718 56.408C42.7453 56.4345 42.7139 56.4555 42.6793 56.4698C42.6447 56.4842 42.6076 56.4915 42.5702 56.4915ZM28.9052 55.9213H42.2845V42.4973C42.2841 42.0863 42.1477 41.687 41.8966 41.3615C41.6455 41.0361 41.2939 40.8029 40.8964 40.6982L38.4468 40.0548H32.7445L30.2939 40.6982C29.8963 40.8028 29.5445 41.0359 29.2933 41.3614C29.0421 41.6868 28.9057 42.0862 28.9052 42.4973V55.9213Z" fill="#282C3F"/>
<path d="M35.5944 41.7541C35.5944 41.7541 38.4644 40.9363 38.484 39.769C38.1793 39.6165 37.9134 39.3964 37.7067 39.1255C37.4999 38.8546 37.3578 38.5401 37.2911 38.2059C37.2725 38.1062 37.2578 37.471 37.2464 37.3745H33.9414C33.9288 37.4836 33.9108 38.1378 33.8868 38.2545C33.8205 38.5805 33.6794 38.8868 33.4747 39.1491C33.27 39.4115 33.0072 39.6227 32.707 39.7663C32.7327 40.9319 35.5944 41.7541 35.5944 41.7541Z" fill="#E6E6E6"/>
<path d="M35.5945 42.0373C35.5679 42.0374 35.5415 42.0337 35.516 42.0264C35.2025 41.9364 32.4514 41.1077 32.422 39.7736C32.4207 39.7192 32.435 39.6655 32.4632 39.619C32.4914 39.5724 32.5323 39.5349 32.5812 39.5108C32.8421 39.3874 33.0707 39.205 33.2488 38.9778C33.4269 38.7507 33.5497 38.4852 33.6072 38.2023C33.617 38.1445 33.6296 37.8594 33.6377 37.6893C33.6443 37.5306 33.6514 37.3911 33.6568 37.3447C33.6649 37.2753 33.6981 37.2112 33.7503 37.1646C33.8024 37.1181 33.8699 37.0924 33.9398 37.0923H37.2453C37.3153 37.0922 37.3829 37.1179 37.4352 37.1645C37.4875 37.211 37.5208 37.2752 37.5288 37.3447C37.5338 37.3872 37.5403 37.5284 37.5463 37.6866C37.5523 37.8447 37.5632 38.1058 37.5708 38.1592C37.6306 38.4498 37.7555 38.7229 37.9361 38.9582C38.1166 39.1936 38.3481 39.3849 38.6133 39.5179C38.6606 39.5422 38.7003 39.5793 38.7277 39.625C38.7552 39.6706 38.7694 39.723 38.7686 39.7763C38.7468 41.117 35.9881 41.9418 35.673 42.0313C35.6472 42.037 35.6208 42.039 35.5945 42.0373ZM33.0255 39.9213C33.2616 40.5685 34.7701 41.2075 35.5972 41.4572C36.4265 41.208 37.9416 40.5685 38.1711 39.9192C37.8739 39.7373 37.6174 39.496 37.418 39.2103C37.2185 38.9246 37.0803 38.6007 37.012 38.259C36.9989 38.1871 36.9913 38.0284 36.9782 37.7062V37.6604H34.2135C34.2135 37.6773 34.2135 37.6953 34.2135 37.7149C34.1993 38.0295 34.1895 38.2263 34.1731 38.3114C34.1069 38.6457 33.9703 38.9622 33.7725 39.2398C33.5746 39.5173 33.32 39.7497 33.0255 39.9213Z" fill="#282C3F"/>
<path d="M38.7037 34.2826C38.3896 34.2155 37.9742 34.6282 37.8679 35.1113C37.7615 35.5943 37.9295 36.0381 38.243 36.1063C38.5564 36.1744 38.9397 35.8473 39.046 35.3642C39.1523 34.8812 39.0171 34.3496 38.7037 34.2826Z" fill="white"/>
<path d="M32.4867 34.2826C32.8007 34.2155 33.2161 34.6282 33.3224 35.1113C33.4288 35.5943 33.2608 36.0381 32.9468 36.1063C32.6328 36.1744 32.2506 35.8473 32.1443 35.3642C32.038 34.8812 32.1726 34.3496 32.4867 34.2826Z" fill="white"/>
<path d="M35.5945 31.5054C33.9692 31.5054 32.6504 33.1573 32.6504 35.1953C32.6504 37.2333 33.9687 38.8852 35.5945 38.8852C37.2203 38.8852 38.5386 37.2333 38.5386 35.1953C38.5386 33.1573 37.2203 31.5054 35.5945 31.5054Z" fill="white"/>
<path d="M35.5952 39.1704C34.151 39.1704 32.8949 37.9993 32.4974 36.3037C32.1954 36.1489 31.9522 35.8174 31.8655 35.4254C31.7745 35.0143 31.8295 34.5863 32.0084 34.3088C32.054 34.2324 32.1146 34.1659 32.1866 34.1135C32.2585 34.061 32.3403 34.0236 32.4271 34.0035C32.4578 33.9969 32.4889 33.9927 32.5203 33.991C32.9417 32.3461 34.175 31.2197 35.5952 31.2197C37.0155 31.2197 38.2493 32.3461 38.6707 33.991C38.7021 33.9927 38.7332 33.9969 38.7639 34.0035C38.8507 34.0237 38.9324 34.0611 39.0044 34.1136C39.0763 34.166 39.1369 34.2324 39.1827 34.3088C39.3615 34.5863 39.4166 35.0143 39.3255 35.4254C39.2394 35.8174 38.9984 36.1489 38.6936 36.3037C38.2962 37.9993 37.04 39.1704 35.5952 39.1704ZM32.5547 34.5607H32.5459C32.5301 34.5634 32.5083 34.5853 32.4881 34.6152C32.4102 34.7357 32.3567 35.0012 32.4227 35.3006C32.486 35.5873 32.6691 35.7776 32.8174 35.8174C32.8687 35.831 32.9151 35.8586 32.9516 35.8971C32.988 35.9356 33.0129 35.9835 33.0235 36.0355C33.3256 37.543 34.3833 38.5979 35.5952 38.5979C36.8072 38.5979 37.8655 37.5446 38.1675 36.0355C38.1781 35.9835 38.203 35.9356 38.2394 35.897C38.2758 35.8585 38.3223 35.8309 38.3736 35.8174C38.5219 35.7776 38.7051 35.5873 38.7683 35.3006C38.8343 35.0012 38.7808 34.7357 38.7029 34.6152C38.6827 34.5836 38.6609 34.5607 38.6451 34.5607C38.6182 34.5588 38.5913 34.5646 38.5677 34.5776C38.5286 34.5952 38.486 34.6037 38.4431 34.6025C38.4002 34.6012 38.3582 34.5903 38.3202 34.5705C38.2822 34.5506 38.2492 34.5224 38.2235 34.4881C38.1979 34.4538 38.1802 34.4141 38.1719 34.3721C37.8758 32.8515 36.8165 31.7895 35.5952 31.7895C34.374 31.7895 33.3152 32.8515 33.0192 34.3721C33.0108 34.4141 32.9932 34.4538 32.9675 34.4881C32.9418 34.5224 32.9088 34.5506 32.8709 34.5705C32.8328 34.5903 32.7908 34.6012 32.7479 34.6025C32.7051 34.6037 32.6625 34.5952 32.6233 34.5776C32.6017 34.5678 32.5784 34.5621 32.5547 34.5607Z" fill="#282C3F"/>
<path d="M32.7387 34.3189C32.7387 34.3189 32.0076 33.7982 32.4181 32.3174C32.8543 30.7364 34.2821 30.9822 34.2821 30.9822C34.2821 30.9822 35.5775 29.6378 37.5304 30.7271C39.4834 31.8164 38.4518 34.3189 38.4518 34.3189C38.4518 34.3189 38.1018 33.0856 36.6625 32.6173C36.6625 32.6173 36.1037 33.1985 34.4152 33.2372C33.0849 33.2672 32.7387 34.3189 32.7387 34.3189Z" fill="#30354C"/>
<path d="M38.4513 34.6039H38.4344C38.3752 34.6005 38.3185 34.5787 38.2723 34.5415C38.2261 34.5044 38.1926 34.4538 38.1765 34.3967C38.1645 34.3553 37.8663 33.3816 36.7175 32.94C36.4395 33.1379 35.758 33.4922 34.4211 33.5228C33.3198 33.5479 33.0205 34.3749 33.0085 34.4104C32.9941 34.4524 32.97 34.4905 32.9383 34.5217C32.9065 34.5528 32.868 34.5762 32.8257 34.5899C32.7834 34.6036 32.7385 34.6072 32.6945 34.6006C32.6506 34.5939 32.6087 34.5772 32.5724 34.5516C32.5358 34.5254 31.6831 33.8973 32.1422 32.2416C32.5129 30.9053 33.5695 30.6398 34.1873 30.6839C34.5689 30.3699 35.8828 29.4845 37.6684 30.4784C39.3885 31.4385 39.1044 33.4819 38.7141 34.4284C38.6925 34.4803 38.656 34.5246 38.6092 34.5559C38.5625 34.5871 38.5075 34.6038 38.4513 34.6039ZM34.0515 31.2504C33.702 31.2504 32.9736 31.3785 32.6923 32.3953C32.4977 33.0981 32.5833 33.5402 32.7005 33.7987C32.9611 33.4355 33.4747 32.9749 34.4081 32.953C35.9275 32.9182 36.4547 32.4231 36.4597 32.4182C36.4973 32.3816 36.544 32.3558 36.5951 32.3434C36.6461 32.331 36.6995 32.3326 36.7497 32.3479C37.411 32.5542 37.9839 32.9766 38.3766 33.5473C38.52 32.8004 38.5292 31.614 37.3909 30.9794C35.6626 30.0144 34.5329 31.1359 34.486 31.1839C34.4537 31.2171 34.4138 31.2419 34.3697 31.2563C34.3256 31.2706 34.2787 31.274 34.2331 31.2662C34.173 31.2564 34.1123 31.2511 34.0515 31.2504Z" fill="#282C3F"/>
<path d="M39.708 56.4918C39.6324 56.4918 39.5598 56.4617 39.5064 56.4083C39.4529 56.3548 39.4229 56.2823 39.4229 56.2066V43.1147C39.4229 43.0391 39.4529 42.9666 39.5064 42.9131C39.5598 42.8596 39.6324 42.8296 39.708 42.8296C39.7836 42.8296 39.8561 42.8596 39.9096 42.9131C39.9631 42.9666 39.9931 43.0391 39.9931 43.1147V56.2066C39.9931 56.2823 39.9631 56.3548 39.9096 56.4083C39.8561 56.4617 39.7836 56.4918 39.708 56.4918Z" fill="#282C3F"/>
<path d="M31.482 56.4916C31.4445 56.4916 31.4073 56.4843 31.3727 56.47C31.338 56.4557 31.3065 56.4347 31.28 56.4082C31.2535 56.3818 31.2324 56.3503 31.218 56.3157C31.2037 56.281 31.1963 56.2439 31.1963 56.2064V43.1145C31.1995 43.041 31.231 42.9715 31.2842 42.9206C31.3373 42.8697 31.4081 42.8413 31.4817 42.8413C31.5553 42.8413 31.6261 42.8697 31.6793 42.9206C31.7324 42.9715 31.7639 43.041 31.7671 43.1145V56.2064C31.7671 56.2821 31.7371 56.3546 31.6836 56.4081C31.6301 56.4615 31.5576 56.4916 31.482 56.4916Z" fill="#282C3F"/>
</g>
<path d="M35.5956 45.6905C30.5623 45.6905 26.4668 41.5949 26.4668 36.5616C26.4668 31.5283 30.5623 27.4312 35.5956 27.4312C36.2604 27.4305 36.9232 27.502 37.5725 27.6443C37.6464 27.6607 37.7108 27.7057 37.7515 27.7695C37.7922 27.8333 37.8059 27.9106 37.7895 27.9845C37.7732 28.0584 37.7282 28.1228 37.6644 28.1635C37.6006 28.2042 37.5232 28.2179 37.4493 28.2015C36.8405 28.0675 36.219 28.0001 35.5956 28.0003C30.8769 28.0003 27.036 31.8397 27.036 36.56C27.036 41.2804 30.8753 45.1197 35.5956 45.1197C40.316 45.1197 44.1553 41.2804 44.1553 36.56C44.1534 34.9114 43.6765 33.2982 42.7815 31.9137C41.8865 30.5291 40.6114 29.4319 39.1089 28.7533C39.0425 28.7205 38.9915 28.6633 38.9665 28.5936C38.9415 28.5239 38.9445 28.4473 38.9749 28.3798C39.0053 28.3123 39.0606 28.2592 39.1294 28.2318C39.1981 28.2043 39.2748 28.2046 39.3434 28.2326C40.9459 28.9566 42.3059 30.1271 43.2605 31.604C44.2151 33.0808 44.724 34.8015 44.7261 36.56C44.725 41.5938 40.6295 45.6905 35.5956 45.6905Z" fill="#282C3F"/>
<path d="M53.5676 58.87C56.1517 58.87 58.2465 56.7752 58.2465 54.1911C58.2465 51.607 56.1517 49.5122 53.5676 49.5122C50.9835 49.5122 48.8887 51.607 48.8887 54.1911C48.8887 56.7752 50.9835 58.87 53.5676 58.87Z" fill="white"/>
<path d="M51.4346 58.3548C52.1186 58.7055 52.8785 58.8823 53.6471 58.8693C54.4157 58.8564 55.1693 58.6543 55.8411 58.2808C56.513 57.9073 57.0824 57.3739 57.4991 56.7279C57.9158 56.082 58.1668 55.3432 58.23 54.5771C56.1097 56.758 53.6252 57.838 51.4346 58.3548Z" fill="#E6E6E6"/>
<mask id="mask1_1943_2349" style="mask-type:luminance" maskUnits="userSpaceOnUse" x="48" y="49" width="11" height="10">
<path d="M53.5676 58.87C56.1517 58.87 58.2465 56.7752 58.2465 54.1911C58.2465 51.607 56.1517 49.5122 53.5676 49.5122C50.9835 49.5122 48.8887 51.607 48.8887 54.1911C48.8887 56.7752 50.9835 58.87 53.5676 58.87Z" fill="white"/>
</mask>
<g mask="url(#mask1_1943_2349)">
<path d="M56.4108 56.2343L55.0958 55.8887H52.0427L50.7271 56.2343C50.4845 56.2981 50.2698 56.4405 50.1165 56.6391C49.9633 56.8377 49.8801 57.0815 49.8799 57.3324V64.5835H57.2581V57.3324C57.2579 57.0815 57.1747 56.8377 57.0214 56.6391C56.8682 56.4405 56.6535 56.2981 56.4108 56.2343Z" fill="#B8B5C6"/>
<path d="M49.8776 64.5849H57.258V57.3337C57.2578 57.0829 57.1746 56.8391 57.0213 56.6404C56.8681 56.4418 56.6534 56.2995 56.4108 56.2357L56.3093 56.209C54.1318 57.7285 51.7962 58.3843 49.876 58.6438L49.8776 64.5849Z" fill="#A09CAD"/>
<path d="M57.258 64.7361H49.8776C49.8375 64.7361 49.7991 64.7202 49.7708 64.6919C49.7425 64.6636 49.7266 64.6251 49.7266 64.5851V57.3339C49.7267 57.0497 49.821 56.7735 49.9947 56.5485C50.1684 56.3235 50.4117 56.1624 50.6867 56.0903L52.0017 55.7447C52.0143 55.7414 52.0273 55.7397 52.0404 55.7397H55.0935C55.1066 55.7397 55.1196 55.7414 55.1322 55.7447L56.4467 56.0898C56.7216 56.162 56.9648 56.3233 57.1384 56.5484C57.312 56.7734 57.4062 57.0497 57.4063 57.3339V64.5851C57.4064 64.6247 57.3909 64.6628 57.3632 64.6911C57.3354 64.7193 57.2976 64.7355 57.258 64.7361ZM50.0286 64.4341H57.1069V57.3323C57.1069 57.1148 57.0348 56.9034 56.9019 56.7312C56.7691 56.559 56.5829 56.4356 56.3726 56.3804L55.0766 56.0396H52.0595L50.763 56.3804C50.5526 56.4356 50.3665 56.559 50.2336 56.7312C50.1008 56.9034 50.0287 57.1148 50.0286 57.3323V64.4341Z" fill="#282C3F"/>
<path d="M53.5674 56.9392C53.5674 56.9392 55.0858 56.5063 55.0939 55.8886C54.9327 55.808 54.7921 55.6917 54.6827 55.5484C54.5734 55.4052 54.4983 55.2388 54.4631 55.062C54.4533 55.0075 54.4452 54.6728 54.4392 54.6221H52.6907C52.6842 54.6799 52.6749 55.025 52.6629 55.0871C52.6277 55.2597 52.553 55.4218 52.4446 55.5606C52.3362 55.6993 52.197 55.8111 52.0381 55.8869C52.0534 56.5041 53.5674 56.9392 53.5674 56.9392Z" fill="#E6E6E6"/>
<path d="M53.5673 57.0902C53.5531 57.0903 53.539 57.0885 53.5253 57.0848C53.3617 57.0373 51.9044 56.5985 51.8897 55.893C51.889 55.8642 51.8965 55.8358 51.9114 55.8112C51.9263 55.7866 51.9479 55.7667 51.9737 55.7539C52.1123 55.6889 52.2339 55.5923 52.3286 55.4719C52.4232 55.3515 52.4884 55.2106 52.5189 55.0604C52.5243 55.0299 52.5309 54.8794 52.5347 54.7878C52.5385 54.6962 52.5423 54.6303 52.545 54.6057C52.5492 54.5689 52.5668 54.5349 52.5945 54.5103C52.6221 54.4856 52.6579 54.4721 52.695 54.4722H54.4434C54.4804 54.4722 54.5162 54.4858 54.5438 54.5104C54.5714 54.5351 54.5891 54.569 54.5933 54.6057C54.5961 54.6286 54.5993 54.7028 54.6026 54.7867C54.6059 54.8707 54.6113 55.0086 54.6157 55.037C54.6472 55.1907 54.7133 55.3353 54.8088 55.4598C54.9044 55.5843 55.027 55.6854 55.1674 55.7556C55.1925 55.7685 55.2134 55.7881 55.2279 55.8123C55.2423 55.8365 55.2497 55.8642 55.2492 55.8924C55.2378 56.6012 53.7772 57.0373 53.6136 57.0853C53.5985 57.0894 53.5829 57.091 53.5673 57.0902ZM52.2075 55.9693C52.3319 56.3117 53.1311 56.6497 53.5678 56.7816C54.004 56.6502 54.8092 56.3117 54.9308 55.9682C54.7734 55.8722 54.6375 55.7446 54.532 55.5934C54.4264 55.4422 54.3533 55.2708 54.3175 55.0899C54.3104 55.0523 54.3066 54.9678 54.2995 54.7977C54.2995 54.7895 54.2995 54.7813 54.2995 54.7731H52.8373V54.8009C52.8355 54.9064 52.8284 55.0118 52.816 55.1166C52.7809 55.2938 52.7085 55.4614 52.6036 55.6085C52.4987 55.7555 52.3637 55.8785 52.2075 55.9693Z" fill="#282C3F"/>
<path d="M55.2129 52.9867C55.0493 52.9513 54.8269 53.1699 54.7707 53.4229C54.7146 53.6758 54.8035 53.9135 54.9697 53.9495C55.136 53.9855 55.3378 53.8121 55.3945 53.5564C55.4512 53.3007 55.3797 53.0216 55.2129 52.9867Z" fill="white"/>
<path d="M51.9233 52.9867C52.0869 52.9513 52.3093 53.1699 52.3655 53.4229C52.4216 53.6758 52.3328 53.9135 52.1665 53.9495C52.0002 53.9855 51.7985 53.8121 51.7418 53.5564C51.6851 53.3007 51.757 53.0216 51.9233 52.9867Z" fill="white"/>
<path d="M53.5678 51.5171C52.7081 51.5171 52.0107 52.3894 52.0107 53.4689C52.0107 54.5484 52.7081 55.4213 53.5678 55.4213C54.4276 55.4213 55.1255 54.549 55.1255 53.4689C55.1255 52.3889 54.4282 51.5171 53.5678 51.5171Z" fill="white"/>
<path d="M53.5681 55.5727C52.8049 55.5727 52.1397 54.9533 51.9293 54.0559C51.8435 54.007 51.7693 53.9402 51.7116 53.86C51.654 53.7799 51.6142 53.6883 51.5951 53.5914C51.5471 53.3733 51.576 53.1471 51.6708 53.0004C51.6948 52.9596 51.7268 52.9241 51.7648 52.896C51.8028 52.8679 51.8462 52.8478 51.8922 52.8368C51.9084 52.8336 51.9248 52.8314 51.9413 52.8303C52.1643 51.958 52.8169 51.3643 53.5681 51.3643C54.3194 51.3643 54.9726 51.9602 55.195 52.8325C55.2117 52.8336 55.2283 52.8357 55.2446 52.839C55.2907 52.8499 55.334 52.8701 55.372 52.8982C55.4101 52.9263 55.442 52.9618 55.466 53.0026C55.5609 53.1492 55.5898 53.376 55.5418 53.5936C55.5226 53.6904 55.4829 53.7821 55.4252 53.8622C55.3675 53.9423 55.2933 54.0092 55.2076 54.0581C54.9982 54.9533 54.3325 55.5727 53.5681 55.5727ZM51.9598 53.134H51.9549C51.9418 53.1403 51.9311 53.1506 51.9244 53.1634C51.87 53.2763 51.8578 53.4049 51.89 53.526C51.9233 53.6775 52.0203 53.7784 52.0988 53.7986C52.126 53.8058 52.1506 53.8206 52.1699 53.8411C52.1892 53.8616 52.2023 53.8871 52.2079 53.9147C52.3676 54.7123 52.927 55.2695 53.5681 55.2695C54.2093 55.2695 54.7676 54.7123 54.9312 53.9147C54.9367 53.8871 54.9498 53.8616 54.9691 53.8411C54.9884 53.8206 55.013 53.8058 55.0402 53.7986C55.1187 53.7779 55.2157 53.677 55.249 53.526C55.2812 53.4049 55.269 53.2763 55.2147 53.1634C55.2079 53.1506 55.1972 53.1403 55.1841 53.134C55.1699 53.133 55.1558 53.136 55.1432 53.1427C55.1225 53.152 55.1 53.1565 55.0773 53.1558C55.0546 53.1551 55.0323 53.1493 55.0122 53.1389C54.992 53.1284 54.9745 53.1135 54.961 53.0952C54.9474 53.077 54.9381 53.056 54.9339 53.0337C54.7769 52.2289 54.2164 51.6674 53.5709 51.6674C52.9254 51.6674 52.3649 52.2289 52.2079 53.0337C52.2036 53.056 52.1943 53.077 52.1808 53.0952C52.1672 53.1135 52.1497 53.1284 52.1296 53.1389C52.1094 53.1493 52.0872 53.1551 52.0645 53.1558C52.0418 53.1565 52.0192 53.152 51.9985 53.1427C51.9864 53.1371 51.9732 53.1341 51.9598 53.134Z" fill="#282C3F"/>
<path d="M52.0572 53.0057C52.0572 53.0057 51.6701 52.7331 51.8876 51.9464C52.1188 51.1112 52.8734 51.2377 52.8734 51.2377C52.8734 51.2377 53.5587 50.5289 54.5924 51.1024C55.6261 51.676 55.0792 53.003 55.0792 53.003C55.0027 52.7895 54.8772 52.5969 54.7128 52.4406C54.5485 52.2843 54.3498 52.1686 54.1328 52.1029C54.1328 52.1029 53.8373 52.4098 52.9437 52.43C52.2404 52.4507 52.0572 53.0057 52.0572 53.0057Z" fill="#40DC62"/>
<path d="M55.0788 53.1563H55.0701C55.0389 53.1545 55.009 53.143 54.9846 53.1235C54.9602 53.104 54.9424 53.0773 54.9338 53.0473C54.8694 52.8701 54.7669 52.7092 54.6335 52.576C54.5001 52.4428 54.3391 52.3405 54.1618 52.2764C54.0146 52.3811 53.6542 52.5686 52.9471 52.585C52.3643 52.598 52.2062 53.0358 52.1996 53.0544C52.1919 53.0765 52.1791 53.0966 52.1623 53.113C52.1456 53.1295 52.1252 53.1418 52.1029 53.149C52.0805 53.1562 52.0568 53.1582 52.0336 53.1547C52.0104 53.1513 51.9883 53.1425 51.969 53.1291C51.9499 53.1154 51.4985 52.7823 51.7417 51.9067C51.9379 51.198 52.4968 51.0595 52.8239 51.0829C53.0245 50.9194 53.7207 50.4478 54.665 50.9739C55.575 51.4815 55.425 52.5626 55.2184 53.0631C55.207 53.0907 55.1876 53.1143 55.1628 53.1309C55.1379 53.1475 55.1087 53.1563 55.0788 53.1563ZM52.7514 51.3822C52.5665 51.3822 52.1811 51.4499 52.0322 51.9874C51.9292 52.3587 51.975 52.5937 52.0366 52.7294C52.1745 52.5375 52.4461 52.2933 52.94 52.2824C53.7442 52.2638 54.0228 52.0021 54.0255 51.9994C54.0453 51.9796 54.0701 51.9654 54.0972 51.9585C54.1244 51.9516 54.1529 51.9522 54.1798 51.9602C54.5295 52.0688 54.8325 52.292 55.0401 52.5937C55.1159 52.1984 55.1208 51.5709 54.5189 51.235C53.6041 50.7247 53.0065 51.3179 52.982 51.3441C52.9647 51.3615 52.9435 51.3745 52.9202 51.3821C52.8969 51.3897 52.8721 51.3916 52.8479 51.3877C52.8159 51.3833 52.7836 51.3814 52.7514 51.3822Z" fill="#282C3F"/>
<path d="M55.7438 64.7363C55.7037 64.7363 55.6653 64.7204 55.637 64.6921C55.6087 64.6638 55.5928 64.6254 55.5928 64.5853V57.6613C55.5928 57.6212 55.6087 57.5828 55.637 57.5545C55.6653 57.5262 55.7037 57.5103 55.7438 57.5103C55.7838 57.5103 55.8223 57.5262 55.8506 57.5545C55.8789 57.5828 55.8948 57.6212 55.8948 57.6613V64.5853C55.8948 64.6254 55.8789 64.6638 55.8506 64.6921C55.8223 64.7204 55.7838 64.7363 55.7438 64.7363Z" fill="#282C3F"/>
<path d="M51.3913 64.7363C51.3512 64.7363 51.3128 64.7204 51.2845 64.6921C51.2561 64.6638 51.2402 64.6254 51.2402 64.5853V57.6613C51.2402 57.6212 51.2561 57.5828 51.2845 57.5545C51.3128 57.5262 51.3512 57.5103 51.3913 57.5103C51.4313 57.5103 51.4697 57.5262 51.498 57.5545C51.5264 57.5828 51.5423 57.6212 51.5423 57.6613V64.5853C51.5423 64.6254 51.5264 64.6638 51.498 64.6921C51.4697 64.7204 51.4313 64.7363 51.3913 64.7363Z" fill="#282C3F"/>
</g>
<path d="M53.5676 59.0212C52.8893 59.0204 52.2188 58.8768 51.5997 58.5996C50.9806 58.3225 50.4268 57.9181 49.9744 57.4127C49.522 56.9073 49.1811 56.3123 48.9739 55.6664C48.7668 55.0205 48.698 54.3382 48.772 53.664C48.8461 52.9897 49.0613 52.3386 49.4037 51.7531C49.7461 51.1676 50.208 50.6607 50.7594 50.2656C51.3107 49.8704 51.939 49.5958 52.6035 49.4596C53.268 49.3235 53.9537 49.3288 54.616 49.4753C54.6551 49.4839 54.6892 49.5078 54.7107 49.5416C54.7323 49.5754 54.7395 49.6163 54.7308 49.6555C54.7221 49.6946 54.6983 49.7286 54.6645 49.7502C54.6307 49.7717 54.5897 49.7789 54.5506 49.7702C53.418 49.5192 52.2322 49.7127 51.2382 50.3108C50.2442 50.9089 49.5179 51.866 49.2092 52.9842C48.9006 54.1025 49.0332 55.2966 49.5797 56.3199C50.1262 57.3432 51.0449 58.1176 52.1459 58.483C53.247 58.8484 54.4463 58.777 55.4962 58.2835C56.5461 57.79 57.3664 56.9122 57.7876 55.8313C58.2088 54.7503 58.1989 53.5489 57.7597 52.4752C57.3206 51.4014 56.4858 50.5373 55.4278 50.0614C55.3966 50.042 55.3735 50.0119 55.3629 49.9768C55.3522 49.9416 55.3548 49.9038 55.37 49.8703C55.3852 49.8369 55.4121 49.8102 55.4457 49.7952C55.4792 49.7802 55.517 49.7779 55.5521 49.7888C56.5597 50.2424 57.3812 51.0277 57.8798 52.0137C58.3784 52.9997 58.5239 54.1269 58.292 55.2072C58.0601 56.2875 57.4649 57.2557 56.6055 57.9503C55.7462 58.6448 54.6747 59.0238 53.5698 59.0239L53.5676 59.0212Z" fill="#282C3F"/>
<path d="M17.5002 58.87C20.0843 58.87 22.1791 56.7752 22.1791 54.1911C22.1791 51.607 20.0843 49.5122 17.5002 49.5122C14.9161 49.5122 12.8213 51.607 12.8213 54.1911C12.8213 56.7752 14.9161 58.87 17.5002 58.87Z" fill="white"/>
<path d="M15.3672 58.3548C16.0512 58.7055 16.8111 58.8823 17.5797 58.8693C18.3483 58.8564 19.1019 58.6543 19.7737 58.2808C20.4456 57.9073 21.0151 57.3739 21.4317 56.7279C21.8484 56.082 22.0994 55.3432 22.1626 54.5771C20.0423 56.758 17.5578 57.838 15.3672 58.3548Z" fill="#E6E6E6"/>
<mask id="mask2_1943_2349" style="mask-type:luminance" maskUnits="userSpaceOnUse" x="12" y="49" width="11" height="10">
<path d="M17.5002 58.87C20.0843 58.87 22.1791 56.7752 22.1791 54.1911C22.1791 51.607 20.0843 49.5122 17.5002 49.5122C14.9161 49.5122 12.8213 51.607 12.8213 54.1911C12.8213 56.7752 14.9161 58.87 17.5002 58.87Z" fill="white"/>
</mask>
<g mask="url(#mask2_1943_2349)">
<path d="M20.3425 56.2348L19.0275 55.8892H15.9743L14.6588 56.2348C14.4161 56.2986 14.2014 56.4409 14.0482 56.6396C13.8949 56.8382 13.8117 57.082 13.8115 57.3329V64.584H21.1897V57.3329C21.1895 57.082 21.1063 56.8382 20.9531 56.6396C20.7998 56.4409 20.5851 56.2986 20.3425 56.2348Z" fill="#B8B5C6"/>
<path d="M13.8102 64.5854H21.1906V57.3342C21.1904 57.0833 21.1072 56.8396 20.954 56.6409C20.8007 56.4423 20.586 56.3 20.3434 56.2362L20.242 56.2095C18.0644 57.7289 15.7288 58.3848 13.8086 58.6443L13.8102 64.5854Z" fill="#A09CAD"/>
<path d="M21.19 64.7366H13.8097C13.7898 64.7366 13.7702 64.7327 13.7519 64.7251C13.7337 64.7175 13.717 64.7064 13.7031 64.6923C13.6891 64.6783 13.678 64.6616 13.6705 64.6433C13.6629 64.625 13.6591 64.6054 13.6592 64.5856V57.3344C13.6592 57.0502 13.7533 56.774 13.9269 56.549C14.1006 56.324 14.3438 56.1629 14.6187 56.0908L15.9338 55.7451C15.9464 55.7419 15.9594 55.7402 15.9725 55.7402H19.0256C19.0387 55.7402 19.0517 55.7419 19.0643 55.7451L20.3788 56.0903C20.6537 56.1625 20.897 56.3237 21.0707 56.5488C21.2444 56.7739 21.3387 57.0501 21.3389 57.3344V64.5856C21.3389 64.6252 21.3233 64.6633 21.2954 64.6916C21.2676 64.7199 21.2297 64.736 21.19 64.7366ZM13.9607 64.4346H21.039V57.3328C21.0389 57.1153 20.9668 56.9039 20.834 56.7317C20.7011 56.5595 20.515 56.4361 20.3046 56.3808L19.0087 56.0401H15.9916L14.6951 56.3808C14.4847 56.4361 14.2986 56.5595 14.1657 56.7317C14.0329 56.9039 13.9608 57.1153 13.9607 57.3328V64.4346Z" fill="#282C3F"/>
<path d="M17.5 56.9392C17.5 56.9392 19.0178 56.5063 19.0266 55.8886C18.8653 55.808 18.7247 55.6917 18.6153 55.5484C18.506 55.4052 18.4309 55.2388 18.3958 55.062C18.3859 55.0075 18.3778 54.6728 18.3723 54.6221H16.6233C16.6168 54.6799 16.6075 55.025 16.5955 55.0871C16.5604 55.2597 16.4856 55.4218 16.3772 55.5606C16.2688 55.6993 16.1296 55.8111 15.9707 55.8869C15.986 56.5041 17.5 56.9392 17.5 56.9392Z" fill="#E6E6E6"/>
<path d="M17.4999 57.0903C17.4857 57.0902 17.4716 57.0882 17.4579 57.0843C17.2944 57.0368 15.837 56.598 15.8223 55.8925C15.8216 55.8637 15.8291 55.8353 15.844 55.8107C15.8589 55.7861 15.8805 55.7662 15.9063 55.7534C16.045 55.6884 16.1665 55.5918 16.2612 55.4714C16.3559 55.351 16.421 55.2101 16.4515 55.06C16.4569 55.0294 16.4635 54.8789 16.4673 54.7874C16.4711 54.6958 16.4749 54.6298 16.4776 54.6053C16.4818 54.5684 16.4994 54.5344 16.5271 54.5098C16.5547 54.4852 16.5905 54.4716 16.6276 54.4717H18.376C18.413 54.4718 18.4485 54.4855 18.4761 54.5101C18.5036 54.5347 18.5212 54.5686 18.5254 54.6053C18.5254 54.6282 18.5314 54.7023 18.5352 54.7863C18.539 54.8702 18.5434 55.0082 18.5478 55.0365C18.5793 55.1903 18.6453 55.3348 18.7409 55.4593C18.8365 55.5838 18.9591 55.6849 19.0995 55.7551C19.1246 55.768 19.1455 55.7877 19.1599 55.8118C19.1744 55.836 19.1818 55.8638 19.1813 55.8919C19.1698 56.6007 17.7093 57.0369 17.5457 57.0848C17.5308 57.089 17.5153 57.0909 17.4999 57.0903ZM16.1396 55.9693C16.2639 56.3117 17.0632 56.6498 17.4999 56.7817C17.9361 56.6503 18.7413 56.3117 18.8629 55.9683C18.7056 55.8722 18.57 55.7445 18.4646 55.5933C18.3592 55.4421 18.2864 55.2707 18.2506 55.0899C18.2435 55.0523 18.2397 54.9678 18.2326 54.7977C18.2326 54.7895 18.2326 54.7814 18.2326 54.7732H16.7699C16.7699 54.7824 16.7699 54.7917 16.7699 54.801C16.7622 54.9645 16.7568 55.0736 16.7481 55.1167C16.713 55.2938 16.6406 55.4615 16.5356 55.6085C16.4307 55.7555 16.2957 55.8785 16.1396 55.9693Z" fill="#282C3F"/>
<path d="M19.1445 52.9867C18.981 52.9513 18.7585 53.1699 18.7024 53.4229C18.6462 53.6758 18.7351 53.9135 18.9014 53.9495C19.0677 53.9855 19.2694 53.8121 19.3261 53.5564C19.3828 53.3007 19.3108 53.0216 19.1445 52.9867Z" fill="white"/>
<path d="M15.855 52.9867C16.0186 52.9513 16.241 53.1699 16.2972 53.4229C16.3534 53.6758 16.2645 53.9135 16.0982 53.9495C15.9319 53.9855 15.7302 53.8121 15.6735 53.5564C15.6168 53.3007 15.6882 53.0216 15.855 52.9867Z" fill="white"/>
<path d="M17.5 51.5176C16.6397 51.5176 15.9424 52.3899 15.9424 53.4694C15.9424 54.5489 16.6397 55.4218 17.5 55.4218C18.3603 55.4218 19.0571 54.5494 19.0571 53.4694C19.0571 52.3894 18.3598 51.5176 17.5 51.5176Z" fill="white"/>
<path d="M17.5003 55.5727C16.7371 55.5727 16.0714 54.9533 15.8609 54.0559C15.7752 54.007 15.7009 53.9402 15.6433 53.86C15.5856 53.7799 15.5459 53.6883 15.5267 53.5914C15.4787 53.3733 15.5076 53.1471 15.6025 53.0004C15.6264 52.9596 15.6584 52.9241 15.6964 52.896C15.7345 52.8679 15.7778 52.8478 15.8238 52.8368C15.8402 52.8336 15.8568 52.8314 15.8735 52.8303C16.0959 51.958 16.7485 51.3643 17.5003 51.3643C18.2522 51.3643 18.9053 51.9602 19.1272 52.8325C19.1437 52.8336 19.1601 52.8358 19.1763 52.839C19.2223 52.8499 19.2656 52.8701 19.3037 52.8982C19.3417 52.9263 19.3737 52.9618 19.3976 53.0026C19.4925 53.1492 19.5214 53.376 19.4734 53.5936C19.4543 53.6904 19.4145 53.7821 19.3569 53.8622C19.2992 53.9423 19.225 54.0092 19.1392 54.0581C18.9288 54.9533 18.2647 55.5727 17.5003 55.5727ZM15.8914 53.134H15.8865C15.8735 53.1403 15.8628 53.1506 15.856 53.1634C15.8016 53.2763 15.7894 53.4049 15.8217 53.526C15.8549 53.6775 15.952 53.7784 16.0305 53.7986C16.0577 53.8058 16.0823 53.8206 16.1015 53.8411C16.1208 53.8616 16.134 53.8871 16.1395 53.9147C16.2993 54.7123 16.8586 55.2695 17.5025 55.2695C18.1464 55.2695 18.702 54.7123 18.8655 53.9147C18.8711 53.8871 18.8842 53.8616 18.9035 53.8411C18.9227 53.8206 18.9474 53.8058 18.9746 53.7986C19.0531 53.7779 19.1501 53.677 19.1834 53.526C19.2156 53.4049 19.2034 53.2763 19.149 53.1634C19.1423 53.1506 19.1316 53.1403 19.1185 53.134C19.1043 53.133 19.0901 53.136 19.0776 53.1427C19.0569 53.152 19.0343 53.1565 19.0116 53.1558C18.9889 53.1551 18.9667 53.1493 18.9465 53.1389C18.9264 53.1284 18.9089 53.1135 18.8953 53.0952C18.8818 53.077 18.8725 53.056 18.8682 53.0337C18.7112 52.2289 18.1508 51.6674 17.5052 51.6674C16.8597 51.6674 16.2987 52.2289 16.1422 53.0337C16.138 53.056 16.1287 53.077 16.1152 53.0952C16.1016 53.1135 16.0841 53.1284 16.064 53.1389C16.0438 53.1493 16.0216 53.1551 15.9989 53.1558C15.9762 53.1565 15.9536 53.152 15.9329 53.1427C15.9199 53.1366 15.9057 53.1337 15.8914 53.134Z" fill="#282C3F"/>
<path d="M15.9888 53.0057C15.9888 53.0057 15.6017 52.7331 15.8193 51.9464C16.051 51.1112 16.805 51.2377 16.805 51.2377C16.805 51.2377 17.4903 50.5289 18.524 51.1024C19.5577 51.676 19.0109 53.003 19.0109 53.003C18.9343 52.7895 18.8088 52.5969 18.6445 52.4406C18.4801 52.2843 18.2815 52.1686 18.0644 52.1029C18.0644 52.1029 17.7689 52.4098 16.8753 52.43C16.172 52.4507 15.9888 53.0057 15.9888 53.0057Z" fill="#2CAAE6"/>
<path d="M19.0112 53.1563H19.0025C18.9713 53.1545 18.9414 53.143 18.917 53.1235C18.8926 53.104 18.8748 53.0773 18.8662 53.0473C18.8018 52.8701 18.6993 52.7092 18.5659 52.576C18.4325 52.4428 18.2715 52.3405 18.0942 52.2764C17.947 52.3811 17.5866 52.5686 16.8795 52.585C16.2967 52.598 16.1386 53.0358 16.132 53.0544C16.1243 53.0765 16.1115 53.0966 16.0948 53.113C16.078 53.1295 16.0576 53.1418 16.0353 53.149C16.0129 53.1562 15.9892 53.1582 15.966 53.1547C15.9428 53.1513 15.9207 53.1425 15.9014 53.1291C15.8823 53.1154 15.4314 52.7823 15.6741 51.9067C15.8703 51.198 16.4292 51.0595 16.7563 51.0829C16.9569 50.9194 17.6531 50.4478 18.5974 50.9739C19.5079 51.4815 19.3574 52.5626 19.1508 53.0631C19.1394 53.0907 19.12 53.1143 19.0952 53.1309C19.0703 53.1475 19.0411 53.1563 19.0112 53.1563ZM16.6838 51.3822C16.4989 51.3822 16.1135 51.4499 15.9647 51.9874C15.8616 52.3587 15.9074 52.5937 15.969 52.7294C16.1069 52.5375 16.379 52.2933 16.8724 52.2824C17.6766 52.2638 17.9552 52.0021 17.9579 51.9994C17.9779 51.98 18.0027 51.9664 18.0297 51.9599C18.0568 51.9533 18.0851 51.9542 18.1117 51.9623C18.4614 52.071 18.7644 52.2942 18.972 52.5959C19.0478 52.2006 19.0527 51.5731 18.4508 51.2372C17.5359 50.7269 16.9384 51.3201 16.9138 51.3463C16.8966 51.3637 16.8754 51.3767 16.8521 51.3843C16.8287 51.3919 16.8039 51.3938 16.7797 51.3899C16.748 51.3847 16.7159 51.3822 16.6838 51.3822Z" fill="#282C3F"/>
<path d="M19.6764 64.7363C19.6364 64.7363 19.5979 64.7204 19.5696 64.6921C19.5413 64.6638 19.5254 64.6254 19.5254 64.5853V57.6613C19.5254 57.6212 19.5413 57.5828 19.5696 57.5545C19.5979 57.5262 19.6364 57.5103 19.6764 57.5103C19.7165 57.5103 19.7549 57.5262 19.7832 57.5545C19.8115 57.5828 19.8274 57.6212 19.8274 57.6613V64.5853C19.8274 64.6254 19.8115 64.6638 19.7832 64.6921C19.7549 64.7204 19.7165 64.7363 19.6764 64.7363Z" fill="#282C3F"/>
<path d="M15.3239 64.7363C15.2838 64.7363 15.2454 64.7204 15.2171 64.6921C15.1888 64.6638 15.1729 64.6254 15.1729 64.5853V57.6613C15.1729 57.6212 15.1888 57.5828 15.2171 57.5545C15.2454 57.5262 15.2838 57.5103 15.3239 57.5103C15.3639 57.5103 15.4023 57.5262 15.4307 57.5545C15.459 57.5828 15.4749 57.6212 15.4749 57.6613V64.5853C15.4749 64.6254 15.459 64.6638 15.4307 64.6921C15.4023 64.7204 15.3639 64.7363 15.3239 64.7363Z" fill="#282C3F"/>
</g>
<path d="M17.501 59.0212C16.8226 59.0208 16.1519 58.8775 15.5325 58.6006C14.9132 58.3237 14.3591 57.9195 13.9064 57.4142C13.4537 56.9089 13.1125 56.3139 12.9051 55.668C12.6977 55.0221 12.6287 54.3397 12.7025 53.6653C12.7764 52.9909 12.9915 52.3397 13.3339 51.754C13.6762 51.1683 14.1381 50.6613 14.6895 50.266C15.2408 49.8707 15.8693 49.596 16.5339 49.4597C17.1984 49.3235 17.8843 49.3288 18.5467 49.4753C18.5858 49.4839 18.6199 49.5078 18.6414 49.5416C18.6629 49.5754 18.6701 49.6163 18.6615 49.6555C18.6528 49.6946 18.6289 49.7286 18.5951 49.7502C18.5613 49.7717 18.5204 49.7789 18.4813 49.7702C17.3487 49.5192 16.1629 49.7127 15.1689 50.3108C14.1749 50.9089 13.4485 51.866 13.1399 52.9842C12.8312 54.1025 12.9639 55.2966 13.5104 56.3199C14.0569 57.3432 14.9756 58.1176 16.0766 58.483C17.1776 58.8484 18.377 58.777 19.4269 58.2835C20.4768 57.79 21.2971 56.9122 21.7183 55.8313C22.1395 54.7503 22.1295 53.5489 21.6904 52.4752C21.2512 51.4014 20.4165 50.5373 19.3585 50.0614C19.3273 50.042 19.3042 50.0119 19.2935 49.9768C19.2829 49.9416 19.2854 49.9038 19.3007 49.8704C19.3159 49.8369 19.3428 49.8102 19.3763 49.7952C19.4099 49.7802 19.4477 49.7779 19.4828 49.7888C20.4903 50.2423 21.3118 51.0276 21.8104 52.0136C22.3091 52.9996 22.4546 54.1267 22.2228 55.207C21.9909 56.2872 21.3958 57.2554 20.5365 57.95C19.6773 58.6446 18.6059 59.0236 17.501 59.0239V59.0212Z" fill="#282C3F"/>
<path d="M35.5949 62.7123C38.179 62.7123 40.2738 60.6175 40.2738 58.0334C40.2738 55.4493 38.179 53.3545 35.5949 53.3545C33.0108 53.3545 30.916 55.4493 30.916 58.0334C30.916 60.6175 33.0108 62.7123 35.5949 62.7123Z" fill="white"/>
<path d="M33.4629 62.1973C34.147 62.548 34.9071 62.7247 35.6758 62.7117C36.4445 62.6987 37.1982 62.4964 37.8701 62.1227C38.542 61.7491 39.1114 61.2155 39.5279 60.5693C39.9445 59.9231 40.1953 59.1842 40.2583 58.418C38.1374 60.5993 35.653 61.6799 33.4629 62.1973Z" fill="#E6E6E6"/>
<mask id="mask3_1943_2349" style="mask-type:luminance" maskUnits="userSpaceOnUse" x="30" y="53" width="11" height="10">
<path d="M35.5949 62.7123C38.179 62.7123 40.2738 60.6175 40.2738 58.0334C40.2738 55.4493 38.179 53.3545 35.5949 53.3545C33.0108 53.3545 30.916 55.4493 30.916 58.0334C30.916 60.6175 33.0108 62.7123 35.5949 62.7123Z" fill="white"/>
</mask>
<g mask="url(#mask3_1943_2349)">
<path d="M38.4384 60.0766L37.1234 59.731H34.0703L32.7536 60.0766C32.5107 60.1399 32.2957 60.282 32.1422 60.4806C31.9887 60.6792 31.9054 60.9231 31.9053 61.1741V68.4253H39.2857V61.1741C39.2855 60.9233 39.2024 60.6795 39.0491 60.481C38.8958 60.2824 38.6811 60.1402 38.4384 60.0766Z" fill="#B8B5C6"/>
<path d="M31.905 68.4252H39.2853V61.1741C39.2853 60.9231 39.2022 60.6793 39.0489 60.4806C38.8956 60.2819 38.6808 60.1397 38.4381 60.076L38.3367 60.0493C36.1592 61.5688 33.8235 62.2241 31.9033 62.4842L31.905 68.4252Z" fill="#A09CAD"/>
<path d="M39.2853 68.5776H31.9049C31.8649 68.5776 31.8265 68.5617 31.7981 68.5334C31.7698 68.5051 31.7539 68.4667 31.7539 68.4266V61.1738C31.7541 60.8895 31.8484 60.6133 32.0221 60.3882C32.1957 60.1632 32.439 60.0019 32.714 59.9297L34.029 59.5846C34.0416 59.5808 34.0546 59.579 34.0677 59.5791H37.1209C37.134 59.579 37.147 59.5808 37.1596 59.5846L38.4779 59.9302C38.7528 60.0025 38.996 60.1637 39.1696 60.3888C39.3432 60.6139 39.4374 60.8901 39.4374 61.1744V68.4255C39.4376 68.4456 39.4339 68.4654 39.4263 68.484C39.4187 68.5026 39.4075 68.5194 39.3934 68.5336C39.3792 68.5478 39.3623 68.5589 39.3438 68.5665C39.3252 68.5741 39.3053 68.5779 39.2853 68.5776ZM32.0559 68.2762H39.1321V61.1738C39.132 60.9563 39.0598 60.7449 38.927 60.5726C38.7942 60.4003 38.6081 60.2768 38.3977 60.2214L37.104 59.8817H34.0868L32.7903 60.2224C32.5801 60.2777 32.394 60.401 32.2612 60.5731C32.1283 60.7452 32.0562 60.9564 32.0559 61.1738V68.2762Z" fill="#282C3F"/>
<path d="M35.5947 60.7815C35.5947 60.7815 37.1131 60.3486 37.1213 59.7309C36.9601 59.6503 36.8195 59.5339 36.7102 59.3906C36.6008 59.2474 36.5257 59.0811 36.4905 58.9043C36.4807 58.8498 36.4725 58.5151 36.4665 58.4644H34.718C34.7115 58.5227 34.7022 58.8673 34.6897 58.93C34.6548 59.1025 34.5802 59.2646 34.4718 59.4034C34.3635 59.5423 34.2244 59.654 34.0654 59.7298C34.0807 60.3464 35.5947 60.7815 35.5947 60.7815Z" fill="#E6E6E6"/>
<path d="M35.595 60.932C35.581 60.9321 35.5671 60.9303 35.5536 60.9266C35.39 60.8786 33.9322 60.4403 33.918 59.7342C33.9175 59.7055 33.9252 59.6772 33.9402 59.6527C33.9551 59.6282 33.9767 59.6084 34.0025 59.5957C34.1412 59.5307 34.2627 59.4341 34.3574 59.3137C34.4521 59.1933 34.5172 59.0524 34.5477 58.9022C34.5531 58.8717 34.5597 58.7207 34.5635 58.6296C34.5673 58.5386 34.5706 58.4721 34.5739 58.447C34.5782 58.4103 34.5958 58.3764 34.6235 58.3519C34.6511 58.3273 34.6868 58.3139 34.7238 58.314H36.4723C36.5093 58.314 36.545 58.3276 36.5726 58.3522C36.6003 58.3769 36.6179 58.4108 36.6222 58.4475C36.6249 58.4699 36.6282 58.5446 36.6315 58.6285C36.6347 58.7125 36.6402 58.8499 36.6445 58.8783C36.6759 59.032 36.7419 59.1767 36.8373 59.3013C36.9328 59.4258 37.0554 59.5271 37.1957 59.5974C37.2209 59.6102 37.242 59.6298 37.2566 59.654C37.2711 59.6782 37.2786 59.706 37.2781 59.7342C37.2666 60.443 35.806 60.8791 35.6425 60.9271C35.627 60.9312 35.611 60.9329 35.595 60.932ZM34.232 59.8116C34.3569 60.154 35.1589 60.492 35.595 60.624C36.0312 60.492 36.8365 60.154 36.958 59.8105C36.8006 59.7145 36.6649 59.5869 36.5593 59.4357C36.4537 59.2845 36.3806 59.1131 36.3447 58.9322C36.3376 58.8941 36.3332 58.8101 36.3267 58.64C36.3267 58.6318 36.3267 58.6236 36.3267 58.6155H34.8645V58.6433C34.8627 58.7488 34.8556 58.8541 34.8432 58.9589C34.808 59.136 34.7355 59.3035 34.6306 59.4505C34.5257 59.5974 34.3908 59.7203 34.2348 59.8111L34.232 59.8116Z" fill="#282C3F"/>
<path d="M37.2402 56.8284C37.0767 56.7935 36.8542 57.0116 36.7981 57.2673C36.7419 57.523 36.8308 57.758 36.9965 57.7934C37.1623 57.8288 37.3651 57.6566 37.4218 57.4009C37.4785 57.1452 37.4065 56.8638 37.2402 56.8284Z" fill="white"/>
<path d="M33.9532 56.8284C34.1195 56.7935 34.3392 57.0116 34.3959 57.2673C34.4526 57.523 34.3632 57.758 34.1969 57.7934C34.0306 57.8288 33.8283 57.6566 33.7722 57.4009C33.716 57.1452 33.7847 56.8638 33.9532 56.8284Z" fill="white"/>
<path d="M35.5952 55.3589C34.7354 55.3589 34.0381 56.2312 34.0381 57.3113C34.0381 58.3913 34.7354 59.2658 35.5952 59.2658C36.455 59.2658 37.1528 58.3935 37.1528 57.3134C37.1528 56.2334 36.4555 55.3589 35.5952 55.3589Z" fill="white"/>
<path d="M35.5955 59.4149C34.8322 59.4149 34.1671 58.7951 33.9566 57.8982C33.8709 57.8493 33.7967 57.7825 33.739 57.7023C33.6813 57.6222 33.6416 57.5306 33.6224 57.4337C33.5744 57.2156 33.6033 56.9894 33.6977 56.8427C33.7217 56.8019 33.7538 56.7663 33.7919 56.7382C33.83 56.7101 33.8735 56.69 33.9196 56.6791C33.9357 56.6753 33.9521 56.6732 33.9686 56.6726C34.1916 55.8003 34.8442 55.2065 35.5955 55.2065C36.3468 55.2065 36.9999 55.8041 37.2246 56.6748C37.2413 56.6753 37.2579 56.6775 37.2742 56.6813C37.3203 56.6921 37.3636 56.7122 37.4017 56.7403C37.4397 56.7684 37.4717 56.804 37.4955 56.8449C37.5904 56.9915 37.6193 57.2183 37.5713 57.4359C37.5522 57.5327 37.5124 57.6243 37.4548 57.7045C37.3971 57.7846 37.3229 57.8514 37.2371 57.9004C37.0245 58.7951 36.3599 59.4149 35.5955 59.4149ZM33.9872 56.9763H33.9823C33.969 56.9825 33.9582 56.9931 33.9517 57.0063C33.8973 57.1191 33.885 57.2477 33.9168 57.3688C33.9506 57.5204 34.0477 57.6212 34.1262 57.6414C34.1533 57.6488 34.1779 57.6636 34.1971 57.6841C34.2164 57.7046 34.2296 57.73 34.2352 57.7575C34.395 58.5552 34.9544 59.1124 35.5982 59.1124C36.2421 59.1124 36.7977 58.5552 36.9612 57.7575C36.9668 57.7299 36.9799 57.7044 36.9992 57.6839C37.0185 57.6634 37.0431 57.6487 37.0703 57.6414C37.1488 57.6207 37.2458 57.5198 37.2791 57.3688C37.3113 57.2477 37.2991 57.1191 37.2447 57.0063C37.2338 56.9894 37.2224 56.9779 37.2142 56.9763C37.2 56.9756 37.1858 56.9788 37.1733 56.9855C37.1526 56.9949 37.1299 56.9994 37.1072 56.9987C37.0844 56.9981 37.0621 56.9923 37.0419 56.9817C37.0219 56.9711 37.0045 56.9561 36.9909 56.9379C36.9773 56.9197 36.9679 56.8987 36.9634 56.8765C36.8069 56.0723 36.2465 55.5102 35.6004 55.5102C34.9544 55.5102 34.3944 56.0723 34.2374 56.8765C34.2331 56.8988 34.2238 56.9199 34.2102 56.9381C34.1966 56.9563 34.1791 56.9712 34.1589 56.9817C34.1388 56.9923 34.1166 56.9981 34.0939 56.9988C34.0712 56.9994 34.0487 56.9949 34.0281 56.9855C34.0153 56.9794 34.0013 56.9763 33.9872 56.9763Z" fill="#282C3F"/>
<path d="M34.0838 56.8473C34.0838 56.8473 33.6967 56.5747 33.9137 55.7885C34.1454 54.9533 34.9 55.0797 34.9 55.0797C34.9 55.0797 35.5853 54.371 36.6185 54.9451C37.6516 55.5192 37.1059 56.8451 37.1059 56.8451C37.0292 56.6317 36.9037 56.4391 36.7394 56.2828C36.575 56.1265 36.3764 56.0108 36.1594 55.945C36.1594 55.945 35.8639 56.2525 34.9703 56.2721C34.267 56.2912 34.0838 56.8473 34.0838 56.8473Z" fill="#30354C"/>
<path d="M37.1063 56.9984H37.0976C37.0664 56.9965 37.0365 56.985 37.0121 56.9655C36.9877 56.946 36.97 56.9194 36.9613 56.8894C36.8969 56.7119 36.7943 56.5508 36.6607 56.4175C36.5271 56.2842 36.3657 56.1819 36.1882 56.1179C36.041 56.2226 35.6806 56.4102 34.9729 56.426C34.3906 56.4396 34.2325 56.8774 34.226 56.8959C34.2183 56.9181 34.2055 56.9382 34.1887 56.9546C34.1719 56.971 34.1516 56.9833 34.1292 56.9906C34.1069 56.9978 34.0832 56.9997 34.06 56.9963C34.0367 56.9928 34.0146 56.984 33.9954 56.9706C33.9763 56.957 33.5249 56.6239 33.768 55.7483C33.9638 55.0395 34.5231 54.901 34.8497 54.9245C35.0509 54.7609 35.7466 54.2888 36.6914 54.8154C37.6013 55.3236 37.4514 56.4047 37.2448 56.9052C37.2334 56.9326 37.2142 56.9561 37.1896 56.9727C37.165 56.9893 37.136 56.9982 37.1063 56.9984ZM34.7788 55.2243C34.594 55.2243 34.2085 55.2919 34.0597 55.829C33.9567 56.2008 34.0025 56.4358 34.0641 56.5715C34.202 56.3796 34.4735 56.1354 34.9675 56.1245C35.7711 56.1059 36.0502 55.8437 36.053 55.841C36.0729 55.8217 36.0976 55.8082 36.1245 55.8016C36.1515 55.7951 36.1796 55.7959 36.2062 55.8039C36.5561 55.9128 36.8592 56.1361 37.067 56.438C37.1428 56.0427 37.1477 55.4152 36.5458 55.0793C35.631 54.569 35.0334 55.1622 35.0084 55.1884C34.9912 55.2058 34.9701 55.2188 34.9469 55.2264C34.9236 55.2339 34.8989 55.2356 34.8748 55.2314C34.843 55.2266 34.8109 55.2242 34.7788 55.2243Z" fill="#282C3F"/>
<path d="M37.7692 68.5778C37.7291 68.5778 37.6907 68.5619 37.6624 68.5336C37.6341 68.5053 37.6182 68.4669 37.6182 68.4268V61.5011C37.6182 61.4611 37.6341 61.4227 37.6624 61.3943C37.6907 61.366 37.7291 61.3501 37.7692 61.3501C37.8092 61.3501 37.8477 61.366 37.876 61.3943C37.9043 61.4227 37.9202 61.4611 37.9202 61.5011V68.4252C37.9204 68.4451 37.9167 68.465 37.9092 68.4835C37.9017 68.502 37.8906 68.5188 37.8766 68.533C37.8625 68.5472 37.8458 68.5585 37.8274 68.5662C37.8089 68.5739 37.7892 68.5778 37.7692 68.5778Z" fill="#282C3F"/>
<path d="M33.4186 68.5778C33.3785 68.5778 33.3401 68.5619 33.3118 68.5336C33.2835 68.5053 33.2676 68.4669 33.2676 68.4268V61.5011C33.2676 61.4611 33.2835 61.4227 33.3118 61.3943C33.3401 61.366 33.3785 61.3501 33.4186 61.3501C33.4587 61.3501 33.4971 61.366 33.5254 61.3943C33.5537 61.4227 33.5696 61.4611 33.5696 61.5011V68.4252C33.5698 68.4451 33.5661 68.465 33.5586 68.4835C33.5511 68.502 33.54 68.5188 33.526 68.533C33.5119 68.5472 33.4952 68.5585 33.4768 68.5662C33.4583 68.5739 33.4386 68.5778 33.4186 68.5778Z" fill="#282C3F"/>
</g>
<path d="M35.5952 62.8645C34.9168 62.864 34.2461 62.7206 33.6268 62.4437C33.0075 62.1668 32.4535 61.7625 32.0009 61.2572C31.5482 60.7519 31.2071 60.1569 30.9997 59.5109C30.7924 58.865 30.7234 58.1827 30.7973 57.5083C30.8712 56.834 31.0864 56.1827 31.4287 55.5971C31.7711 55.0114 32.233 54.5044 32.7843 54.1091C33.3356 53.7139 33.9641 53.4392 34.6286 53.303C35.2932 53.1667 35.979 53.172 36.6414 53.3185C36.6805 53.3272 36.7146 53.3511 36.7361 53.3849C36.7577 53.4187 36.7649 53.4596 36.7562 53.4987C36.7475 53.5378 36.7237 53.5719 36.6899 53.5934C36.6561 53.6149 36.6151 53.6222 36.576 53.6135C35.4434 53.3624 34.2576 53.5559 33.2636 54.1541C32.2696 54.7522 31.5433 55.7092 31.2346 56.8275C30.926 57.9458 31.0586 59.1399 31.6051 60.1632C32.1516 61.1865 33.0703 61.9608 34.1713 62.3262C35.2724 62.6916 36.4717 62.6202 37.5216 62.1268C38.5715 61.6333 39.3918 60.7554 39.813 59.6745C40.2342 58.5936 40.2243 57.3922 39.7851 56.3184C39.346 55.2447 38.5112 54.3806 37.4532 53.9046C37.422 53.8853 37.3989 53.8552 37.3883 53.82C37.3776 53.7849 37.3802 53.747 37.3954 53.7136C37.4106 53.6802 37.4375 53.6535 37.4711 53.6384C37.5046 53.6234 37.5424 53.6211 37.5775 53.632C38.5835 54.0866 39.4034 54.8719 39.9008 55.8573C40.3982 56.8427 40.5431 57.9688 40.3113 59.0481C40.0796 60.1273 39.4852 61.0946 38.6271 61.789C37.7691 62.4834 36.699 62.8629 35.5952 62.8645Z" fill="#282C3F"/>
</svg>
