<svg width="71" height="71" viewBox="0 0 71 71" fill="none" xmlns="http://www.w3.org/2000/svg">
<path d="M59.9545 27.4098C58.9853 23.4416 52.9792 22.1855 50.339 19.4325C47.6147 16.5919 46.5671 10.5835 42.79 9.47638C39.1256 8.40312 35.0318 12.8381 31.0554 13.8056C27.0791 14.7731 21.399 12.716 18.6402 15.351C15.7949 18.07 17.6376 23.8845 16.5282 27.6569C15.4532 31.3131 10.7003 35.1867 11.6696 39.1549C12.6388 43.1231 18.6449 44.3798 21.2851 47.1322C24.01 49.9722 25.0552 55.9794 28.8347 57.0894C32.4991 58.1621 36.5929 53.7277 40.5693 52.7602C44.5457 51.7927 50.2257 53.8504 52.9839 51.2149C55.8292 48.494 53.9871 42.6796 55.0971 38.9071C56.171 35.2504 60.9238 31.3774 59.9545 27.4098Z" fill="#F6F6F6"/>
<path d="M11.6647 45.4871C11.5031 45.2011 11.4486 44.8669 11.511 44.5444C11.5735 44.2219 11.7487 43.9321 12.0054 43.7271C12.262 43.522 12.5833 43.4151 12.9117 43.4254C13.24 43.4358 13.554 43.5627 13.7972 43.7835C13.8749 43.152 14.1911 42.574 14.6811 42.1681C15.1711 41.7623 15.7978 41.5592 16.4328 41.6005C17.0677 41.6418 17.6628 41.9244 18.0961 42.3903C18.5295 42.8563 18.7681 43.4703 18.7633 44.1066C18.7627 44.2605 18.7481 44.414 18.7195 44.5652C18.8613 44.5344 19.0061 44.5188 19.1512 44.5185C19.6913 44.544 20.2008 44.7764 20.574 45.1676C20.9472 45.5589 21.1554 46.0788 21.1554 46.6194C21.1554 47.1601 20.9472 47.68 20.574 48.0712C20.2008 48.4624 19.6913 48.6949 19.1512 48.7204H11.9744C11.5683 48.7209 11.1765 48.57 10.8758 48.2971C10.5751 48.0242 10.387 47.6489 10.3483 47.2447C10.3095 46.8404 10.423 46.4363 10.6665 46.1112C10.9099 45.7862 11.2659 45.5637 11.6647 45.4871Z" fill="white"/>
<path d="M19.1496 49.0199H11.9744C11.5235 49.0237 11.0854 48.8693 10.7366 48.5835C10.3877 48.2977 10.15 47.8987 10.0649 47.4558C9.97981 47.0129 10.0527 46.5542 10.2708 46.1595C10.4889 45.7648 10.8385 45.459 11.2587 45.2954C11.1638 44.983 11.1619 44.6497 11.2531 44.3363C11.3444 44.0228 11.525 43.7427 11.7728 43.5301C12.0206 43.3176 12.325 43.1818 12.6487 43.1393C12.9724 43.0968 13.3014 43.1494 13.5957 43.2908C13.7907 42.6501 14.2095 42.1007 14.7757 41.7431C15.342 41.3854 16.0179 41.2431 16.6803 41.3423C17.3427 41.4415 17.9473 41.7754 18.384 42.2833C18.8207 42.7911 19.0602 43.439 19.059 44.1087C19.059 44.1467 19.059 44.1847 19.059 44.2256C19.3779 44.2134 19.6961 44.2649 19.9949 44.3772C20.2937 44.4894 20.5671 44.6601 20.7991 44.8792C21.0311 45.0984 21.2171 45.3616 21.3462 45.6535C21.4753 45.9454 21.5449 46.2601 21.5509 46.5792C21.557 46.8983 21.4993 47.2154 21.3813 47.512C21.2633 47.8086 21.0874 48.0786 20.8638 48.3064C20.6402 48.5341 20.3734 48.715 20.0791 48.8384C19.7847 48.9618 19.4687 49.0253 19.1496 49.0252V49.0199ZM12.8689 43.7231C12.6795 43.7228 12.4933 43.7722 12.329 43.8664C12.1647 43.9606 12.0279 44.0962 11.9325 44.2598C11.837 44.4234 11.7862 44.6092 11.785 44.7986C11.7839 44.988 11.8325 45.1744 11.9259 45.3392C11.9493 45.3806 11.9625 45.427 11.9644 45.4746C11.9663 45.5221 11.9569 45.5695 11.9369 45.6126C11.9169 45.6558 11.887 45.6937 11.8495 45.723C11.8121 45.7524 11.7682 45.7724 11.7215 45.7814C11.396 45.844 11.1056 46.0257 10.907 46.291C10.7084 46.5563 10.6158 46.8861 10.6475 47.216C10.6791 47.5459 10.8326 47.8522 11.078 48.0749C11.3234 48.2976 11.643 48.4209 11.9744 48.4205H19.1496C19.4013 48.4198 19.6501 48.3664 19.8799 48.2636C20.1097 48.1608 20.3154 48.011 20.4837 47.8238C20.652 47.6366 20.7792 47.4162 20.8571 47.1768C20.9349 46.9374 20.9618 46.6844 20.9358 46.434C20.9098 46.1836 20.8316 45.9414 20.7062 45.7231C20.5809 45.5048 20.4111 45.3152 20.208 45.1666C20.0048 45.018 19.7727 44.9136 19.5267 44.8602C19.2807 44.8068 19.0262 44.8056 18.7797 44.8566C18.7313 44.867 18.681 44.8652 18.6334 44.8514C18.5858 44.8376 18.5423 44.8122 18.507 44.7774C18.4717 44.7426 18.4455 44.6997 18.4309 44.6523C18.4163 44.6049 18.4137 44.5547 18.4233 44.506C18.4789 44.2174 18.4758 43.9206 18.4143 43.6331C18.3528 43.3457 18.2342 43.0736 18.0654 42.8329C17.8967 42.5923 17.6813 42.388 17.432 42.2323C17.1828 42.0765 16.9047 41.9725 16.6144 41.9263C16.3242 41.8802 16.0276 41.8928 15.7423 41.9636C15.457 42.0344 15.1889 42.1618 14.9538 42.3382C14.7188 42.5147 14.5216 42.7366 14.374 42.9907C14.2264 43.2449 14.1314 43.5262 14.0947 43.8178C14.0875 43.8721 14.0656 43.9233 14.0314 43.966C13.9972 44.0088 13.952 44.0413 13.9006 44.0602C13.8492 44.0791 13.7937 44.0836 13.7399 44.0732C13.6862 44.0628 13.6363 44.0379 13.5957 44.0012C13.3965 43.8213 13.1374 43.7222 12.8689 43.7231Z" fill="#989AA6"/>
<path d="M50.2871 20.2121C50.1943 20.0482 50.1629 19.8567 50.1986 19.6718C50.2343 19.4869 50.3347 19.3208 50.4819 19.2033C50.629 19.0858 50.8132 19.0245 51.0014 19.0306C51.1896 19.0367 51.3695 19.1096 51.5088 19.2364C51.5327 19.0466 51.5945 18.8635 51.6905 18.698C51.7866 18.5326 51.9149 18.3881 52.0679 18.2732C52.2209 18.1584 52.3954 18.0754 52.5811 18.0293C52.7668 17.9832 52.9598 17.975 53.1488 18.005C53.3377 18.035 53.5187 18.1027 53.681 18.204C53.8433 18.3054 53.9835 18.4383 54.0934 18.5949C54.2033 18.7515 54.2805 18.9287 54.3206 19.1157C54.3606 19.3028 54.3627 19.496 54.3266 19.6839C54.4078 19.6666 54.4907 19.6577 54.5737 19.6576C54.734 19.6541 54.8933 19.6826 55.0424 19.7415C55.1915 19.8004 55.3273 19.8884 55.4418 20.0005C55.5564 20.1126 55.6475 20.2464 55.7096 20.3942C55.7718 20.5419 55.8038 20.7006 55.8038 20.8609C55.8038 21.0212 55.7718 21.1798 55.7096 21.3276C55.6475 21.4753 55.5564 21.6092 55.4418 21.7212C55.3273 21.8333 55.1915 21.9214 55.0424 21.9803C54.8933 22.0392 54.734 22.0677 54.5737 22.0641H50.4641C50.2323 22.0629 50.0092 21.9756 49.8381 21.8192C49.667 21.6627 49.5602 21.4482 49.5383 21.2174C49.5165 20.9866 49.5812 20.7559 49.7199 20.5701C49.8586 20.3844 50.0614 20.2567 50.2889 20.2121H50.2871Z" fill="white"/>
<path d="M54.5739 22.3636H50.4643C50.1869 22.3638 49.9176 22.2705 49.6997 22.0989C49.4819 21.9272 49.3282 21.6871 49.2635 21.4174C49.1988 21.1477 49.2269 20.864 49.3432 20.6122C49.4595 20.3604 49.6573 20.1552 49.9046 20.0295C49.8915 19.9612 49.8849 19.8917 49.8847 19.8221C49.885 19.5326 50.0002 19.2551 50.2049 19.0504C50.4096 18.8456 50.6872 18.7305 50.9767 18.7302C51.0928 18.7304 51.2081 18.7489 51.3185 18.7851C51.465 18.4172 51.7336 18.1109 52.0791 17.9174C52.4246 17.7239 52.8261 17.6551 53.2164 17.7224C53.6066 17.7897 53.9619 17.9891 54.2226 18.2871C54.4834 18.5851 54.6338 18.9637 54.6487 19.3594C55.0389 19.3811 55.4054 19.554 55.6703 19.8413C55.9353 20.1287 56.0779 20.5079 56.0679 20.8986C56.058 21.2894 55.8962 21.6609 55.617 21.9343C55.3378 22.2078 54.963 22.3618 54.5721 22.3636H54.5739ZM50.9767 19.3296C50.8461 19.3298 50.7209 19.3817 50.6286 19.474C50.5363 19.5664 50.4843 19.6916 50.4842 19.8221C50.484 19.9069 50.5059 19.9903 50.5479 20.064C50.5712 20.1054 50.5844 20.1518 50.5864 20.1993C50.5883 20.2468 50.5789 20.2941 50.559 20.3373C50.5391 20.3805 50.5092 20.4183 50.4718 20.4477C50.4345 20.4771 50.3906 20.4972 50.344 20.5063C50.1885 20.5357 50.0497 20.6222 49.9547 20.7487C49.8597 20.8752 49.8154 21.0326 49.8305 21.1901C49.8456 21.3476 49.9189 21.4938 50.0362 21.6C50.1534 21.7062 50.3061 21.7647 50.4643 21.7642H54.5739C54.7004 21.7643 54.8256 21.7379 54.9412 21.6866C55.0569 21.6352 55.1605 21.5602 55.2453 21.4663C55.3301 21.3724 55.3942 21.2617 55.4335 21.1414C55.4728 21.0212 55.4864 20.894 55.4734 20.7681C55.4604 20.6423 55.4211 20.5205 55.358 20.4108C55.295 20.3011 55.2096 20.2059 55.1074 20.1313C55.0051 20.0567 54.8884 20.0044 54.7647 19.9779C54.641 19.9513 54.5131 19.951 54.3893 19.977C54.3411 19.9873 54.291 19.9856 54.2436 19.972C54.1962 19.9584 54.1529 19.9333 54.1176 19.8988C54.0823 19.8644 54.056 19.8218 54.0411 19.7748C54.0262 19.7278 54.0232 19.6778 54.0323 19.6293C54.0453 19.5608 54.0519 19.4911 54.0522 19.4213C54.0515 19.1353 53.9422 18.8602 53.7464 18.6517C53.5506 18.4432 53.2829 18.3169 52.9975 18.2983C52.7121 18.2796 52.4302 18.3701 52.209 18.5514C51.9877 18.7327 51.8436 18.9912 51.8057 19.2747C51.7987 19.329 51.7769 19.3802 51.7427 19.423C51.7086 19.4657 51.6634 19.4983 51.6121 19.5172C51.5607 19.5361 51.5052 19.5406 51.4515 19.5302C51.3978 19.5198 51.3479 19.4949 51.3074 19.4582C51.2171 19.3755 51.0991 19.3297 50.9767 19.3296Z" fill="#989AA6"/>
<path d="M60.1693 37.0238C60.3066 36.7831 60.3534 36.5014 60.3014 36.2293C60.2493 35.9572 60.1018 35.7126 59.8854 35.5396C59.669 35.3666 59.3979 35.2766 59.121 35.2857C58.8442 35.2948 58.5796 35.4026 58.3751 35.5895C58.3392 35.3112 58.2479 35.043 58.1065 34.8007C57.9651 34.5584 57.7765 34.3469 57.5519 34.1788C57.3273 34.0107 57.0712 33.8894 56.7989 33.8221C56.5266 33.7547 56.2435 33.7427 55.9664 33.7867C55.6893 33.8308 55.4239 33.9299 55.1859 34.0784C54.9478 34.2268 54.742 34.4216 54.5805 34.651C54.4191 34.8805 54.3054 35.14 54.246 35.4142C54.1867 35.6884 54.183 35.9717 54.2351 36.2473C54.1159 36.2215 53.9943 36.2084 53.8723 36.2082C53.6375 36.2039 53.4042 36.2465 53.186 36.3334C52.9678 36.4203 52.7691 36.5498 52.6015 36.7144C52.4339 36.879 52.3008 37.0753 52.2099 37.2918C52.1191 37.5084 52.0723 37.7409 52.0723 37.9758C52.0723 38.2107 52.1191 38.4432 52.2099 38.6598C52.3008 38.8764 52.4339 39.0727 52.6015 39.2372C52.7691 39.4018 52.9678 39.5313 53.186 39.6182C53.4042 39.7052 53.6375 39.7477 53.8723 39.7435H59.9088C60.2505 39.744 60.5801 39.6171 60.8332 39.3875C61.0862 39.1578 61.2445 38.8421 61.2771 38.5019C61.3097 38.1618 61.2142 37.8217 61.0093 37.5482C60.8045 37.2747 60.5049 37.0875 60.1693 37.0232V37.0238Z" fill="white"/>
<path d="M59.9087 40.0436H53.87C53.5956 40.0482 53.323 39.9981 53.0681 39.8963C52.8133 39.7945 52.5812 39.6429 52.3855 39.4505C52.1898 39.2581 52.0344 39.0286 51.9283 38.7755C51.8222 38.5224 51.7676 38.2507 51.7676 37.9762C51.7676 37.7018 51.8222 37.4301 51.9283 37.177C52.0344 36.9238 52.1898 36.6944 52.3855 36.502C52.5812 36.3095 52.8133 36.158 53.0681 36.0562C53.323 35.9543 53.5956 35.9043 53.87 35.9089H53.8969C53.8969 35.8931 53.8969 35.8773 53.8969 35.8621C53.8936 35.2905 54.0949 34.7366 54.4643 34.3004C54.8338 33.8641 55.3471 33.5744 55.9115 33.4836C56.4758 33.3927 57.0541 33.5067 57.5418 33.8049C58.0295 34.1031 58.3945 34.5659 58.5708 35.1096C58.8236 34.9983 59.1028 34.9609 59.3761 35.0018C59.6493 35.0428 59.9053 35.1603 60.1143 35.3409C60.3234 35.5215 60.477 35.7576 60.5573 36.022C60.6375 36.2863 60.6412 36.568 60.5678 36.8343C60.922 36.986 61.213 37.2553 61.3915 37.5968C61.57 37.9383 61.6251 38.331 61.5475 38.7084C61.4698 39.0858 61.2642 39.4249 60.9654 39.6682C60.6666 39.9114 60.2929 40.0441 59.9076 40.0436H59.9087ZM53.87 36.5077C53.4804 36.5077 53.1068 36.6625 52.8314 36.9379C52.5559 37.2134 52.4012 37.587 52.4012 37.9765C52.4012 38.3661 52.5559 38.7397 52.8314 39.0151C53.1068 39.2906 53.4804 39.4453 53.87 39.4453H59.9087C60.1757 39.4457 60.4333 39.3464 60.631 39.167C60.8288 38.9876 60.9525 38.7408 60.978 38.4751C61.0034 38.2093 60.9289 37.9435 60.7689 37.7298C60.6088 37.516 60.3748 37.3696 60.1126 37.3193C60.066 37.3101 60.0221 37.29 59.9847 37.2607C59.9474 37.2313 59.9175 37.1934 59.8976 37.1503C59.8777 37.1071 59.8683 37.0598 59.8702 37.0123C59.8722 36.9648 59.8854 36.9184 59.9087 36.877C60.0104 36.6983 60.045 36.4892 60.0063 36.2874C59.9675 36.0855 59.858 35.9041 59.6973 35.7758C59.5367 35.6475 59.3356 35.5808 59.1301 35.5876C58.9247 35.5944 58.7284 35.6744 58.5767 35.8131C58.5361 35.85 58.4862 35.875 58.4324 35.8855C58.3786 35.896 58.323 35.8916 58.2715 35.8727C58.2201 35.8537 58.1748 35.8211 58.1407 35.7782C58.1065 35.7354 58.0847 35.684 58.0777 35.6296C58.0195 35.1761 57.7907 34.7618 57.4378 34.4711C57.0848 34.1804 56.6344 34.0351 56.1781 34.0649C55.7218 34.0947 55.2941 34.2973 54.9819 34.6314C54.6698 34.9655 54.4967 35.4061 54.498 35.8633C54.4985 35.9743 54.509 36.085 54.5296 36.194C54.5392 36.2426 54.5366 36.2929 54.522 36.3402C54.5074 36.3876 54.4813 36.4306 54.4459 36.4654C54.4106 36.5001 54.3672 36.5256 54.3196 36.5394C54.272 36.5532 54.2217 36.555 54.1732 36.5445C54.0737 36.5214 53.9721 36.5091 53.87 36.5077Z" fill="#989AA6"/>
<path d="M29.4656 12.6618C29.3257 12.4143 29.2785 12.1251 29.3325 11.846C29.3864 11.5669 29.5381 11.3161 29.7602 11.1387C29.9823 10.9612 30.2603 10.8687 30.5445 10.8777C30.8286 10.8867 31.1002 10.9966 31.3107 11.1877C31.3472 10.9013 31.4408 10.6251 31.586 10.3756C31.7313 10.126 31.9252 9.90822 32.1562 9.73504C32.3872 9.56186 32.6507 9.43685 32.931 9.36744C33.2112 9.29802 33.5026 9.2856 33.7877 9.33093C34.0729 9.37626 34.346 9.4784 34.5909 9.6313C34.8359 9.7842 35.0476 9.98474 35.2135 10.221C35.3795 10.4573 35.4962 10.7245 35.557 11.0068C35.6177 11.2891 35.621 11.5807 35.5669 11.8643C35.6896 11.8377 35.8147 11.8242 35.9402 11.824C36.4223 11.824 36.8846 12.0154 37.2255 12.3563C37.5663 12.6972 37.7578 13.1595 37.7578 13.6415C37.7578 14.1236 37.5663 14.5859 37.2255 14.9268C36.8846 15.2676 36.4223 15.4591 35.9402 15.4591H29.7332C29.3822 15.459 29.0439 15.3281 28.7842 15.0919C28.5245 14.8558 28.3621 14.5314 28.3287 14.182C28.2953 13.8326 28.3932 13.4833 28.6034 13.2022C28.8136 12.9211 29.121 12.7284 29.4656 12.6618Z" fill="white"/>
<path d="M35.9403 15.7589H29.7332C29.3387 15.7587 28.9563 15.6223 28.6508 15.3726C28.3453 15.1229 28.1354 14.7753 28.0568 14.3887C27.9782 14.002 28.0355 13.6001 28.2193 13.2509C28.403 12.9017 28.7017 12.6267 29.0649 12.4725C28.9888 12.1993 28.992 11.9101 29.0742 11.6386C29.1563 11.3672 29.3139 11.1247 29.5287 10.9394C29.7435 10.7542 30.0065 10.6339 30.287 10.5925C30.5676 10.5511 30.8541 10.5904 31.1132 10.7057C31.2919 10.1475 31.6646 9.67162 32.1637 9.3643C32.6629 9.05698 33.2555 8.93849 33.8345 9.03027C34.4134 9.12206 34.9403 9.41805 35.32 9.86468C35.6996 10.3113 35.9068 10.8791 35.904 11.4652C35.904 11.4839 35.904 11.5032 35.904 11.5237C36.1821 11.5213 36.4579 11.5737 36.7157 11.6779C36.9735 11.7821 37.2082 11.9361 37.4065 12.131C37.6048 12.3259 37.7627 12.558 37.8714 12.814C37.98 13.07 38.0371 13.3448 38.0395 13.6229C38.0418 13.9009 37.9894 14.1767 37.8852 14.4345C37.781 14.6923 37.627 14.927 37.4321 15.1253C37.2372 15.3236 37.0051 15.4816 36.7491 15.5902C36.4932 15.6988 36.2183 15.7559 35.9403 15.7583V15.7589ZM30.5068 11.176C30.35 11.176 30.196 11.2171 30.06 11.2952C29.9241 11.3733 29.811 11.4857 29.732 11.6211C29.653 11.7565 29.611 11.9103 29.6099 12.067C29.6089 12.2238 29.649 12.3781 29.7262 12.5145C29.7496 12.556 29.7628 12.6023 29.7647 12.6498C29.7666 12.6974 29.7572 12.7447 29.7372 12.7878C29.7172 12.831 29.6873 12.8687 29.6498 12.898C29.6123 12.9273 29.5684 12.9473 29.5217 12.9562C29.2466 13.0046 28.9998 13.155 28.8306 13.3773C28.6615 13.5996 28.5823 13.8775 28.609 14.1556C28.6357 14.4337 28.7663 14.6915 28.9747 14.8775C29.183 15.0636 29.4539 15.1643 29.7332 15.1594H35.9403C36.1543 15.1617 36.3663 15.1187 36.5626 15.0332C36.7588 14.9478 36.9347 14.8219 37.0789 14.6637C37.2231 14.5055 37.3322 14.3186 37.3991 14.1154C37.466 13.9121 37.4892 13.6969 37.4671 13.484C37.4451 13.2712 37.3783 13.0653 37.2712 12.8801C37.1641 12.6948 37.019 12.5343 36.8455 12.409C36.672 12.2837 36.474 12.1965 36.2644 12.153C36.0548 12.1096 35.8384 12.111 35.6294 12.157C35.5809 12.1675 35.5306 12.1658 35.4829 12.1521C35.4352 12.1383 35.3917 12.1129 35.3563 12.0781C35.3209 12.0433 35.2947 12.0003 35.28 11.9529C35.2654 11.9054 35.2628 11.8551 35.2725 11.8064C35.3241 11.5603 35.3252 11.3062 35.2756 11.0596C35.2261 10.8131 35.1269 10.5791 34.9842 10.372C34.8414 10.1649 34.6581 9.98902 34.4453 9.85495C34.2325 9.72087 33.9947 9.63145 33.7463 9.59209C33.4979 9.55274 33.2441 9.56428 33.0002 9.62601C32.7564 9.68775 32.5277 9.79839 32.328 9.95122C32.1282 10.1041 31.9616 10.2959 31.8383 10.5151C31.7149 10.7343 31.6374 10.9762 31.6104 11.2263C31.6035 11.2806 31.5819 11.3321 31.5477 11.375C31.5136 11.4178 31.4684 11.4505 31.417 11.4695C31.3656 11.4884 31.3099 11.4928 31.2562 11.4823C31.2024 11.4718 31.1525 11.4467 31.1121 11.4097C30.9467 11.2588 30.7307 11.1754 30.5068 11.176Z" fill="#989AA6"/>
<path d="M21.3231 19.778C21.4375 19.5758 21.4761 19.3394 21.4319 19.1113C21.3878 18.8832 21.2639 18.6783 21.0824 18.5333C20.9009 18.3882 20.6736 18.3126 20.4414 18.32C20.2092 18.3273 19.9872 18.4171 19.8152 18.5733C19.7611 18.126 19.5377 17.7164 19.191 17.4287C18.8442 17.141 18.4005 16.9969 17.9509 17.0262C17.5013 17.0554 17.08 17.2557 16.7734 17.5859C16.4669 17.9161 16.2985 18.3512 16.3027 18.8017C16.3031 18.9106 16.3136 19.0191 16.3343 19.126C16.2339 19.1042 16.1314 19.093 16.0287 19.0927C15.6347 19.0927 15.2568 19.2492 14.9781 19.5279C14.6995 19.8065 14.543 20.1844 14.543 20.5784C14.543 20.9725 14.6995 21.3504 14.9781 21.629C15.2568 21.9076 15.6347 22.0642 16.0287 22.0642H21.1023C21.3896 22.0649 21.6669 21.9583 21.8797 21.7654C22.0926 21.5724 22.2258 21.3069 22.2532 21.0209C22.2806 20.7349 22.2003 20.4489 22.0279 20.219C21.8556 19.9891 21.6036 19.8319 21.3214 19.778H21.3231Z" fill="white"/>
<path d="M21.104 22.3638H16.0304C15.562 22.3594 15.1141 22.1711 14.7833 21.8396C14.4524 21.508 14.2651 21.0597 14.2618 20.5913C14.2584 20.1229 14.4392 19.672 14.7653 19.3357C15.0913 18.9993 15.5364 18.8046 16.0047 18.7935C16.0066 18.3084 16.1794 17.8396 16.4928 17.4694C16.8061 17.0991 17.2399 16.8511 17.718 16.769C18.196 16.6869 18.6877 16.7759 19.1066 17.0204C19.5255 17.2649 19.8449 17.6492 20.0085 18.1058C20.2022 18.0305 20.4113 18.0035 20.6177 18.0272C20.8241 18.0509 21.0216 18.1246 21.1931 18.2419C21.3646 18.3592 21.5049 18.5166 21.6019 18.7003C21.6989 18.8841 21.7496 19.0887 21.7496 19.2965C21.7497 19.3959 21.7379 19.495 21.7145 19.5916C22.0153 19.7304 22.2597 19.968 22.407 20.2647C22.5543 20.5615 22.5958 20.8997 22.5245 21.2233C22.4533 21.5469 22.2735 21.8364 22.0152 22.0438C21.7568 22.2513 21.4353 22.3642 21.104 22.3638ZM16.0304 19.3923C15.7158 19.3923 15.4142 19.5173 15.1918 19.7397C14.9693 19.9621 14.8444 20.2638 14.8444 20.5784C14.8444 20.8929 14.9693 21.1946 15.1918 21.417C15.4142 21.6394 15.7158 21.7644 16.0304 21.7644H21.104C21.3179 21.7665 21.5248 21.6883 21.6838 21.5453C21.8428 21.4022 21.9424 21.2047 21.9628 20.9918C21.9832 20.7788 21.923 20.566 21.794 20.3953C21.6651 20.2247 21.4768 20.1086 21.2664 20.0701C21.2197 20.0611 21.1758 20.0412 21.1383 20.0119C21.1008 19.9826 21.0709 19.9448 21.0509 19.9016C21.031 19.8584 21.0217 19.8111 21.0237 19.7636C21.0257 19.7161 21.039 19.6697 21.0625 19.6284C21.1415 19.488 21.1679 19.3242 21.1371 19.1662C21.1064 19.0081 21.0204 18.8662 20.8946 18.7657C20.7687 18.6652 20.6113 18.6128 20.4503 18.6178C20.2894 18.6228 20.1355 18.6849 20.0161 18.7929C19.9756 18.8296 19.9258 18.8545 19.8721 18.865C19.8185 18.8754 19.763 18.871 19.7116 18.8522C19.6603 18.8333 19.6151 18.8008 19.5809 18.7581C19.5468 18.7155 19.5249 18.6642 19.5178 18.61C19.4876 18.4205 19.4204 18.2387 19.32 18.075C19.2196 17.9114 19.0879 17.7692 18.9326 17.6565C18.7772 17.5437 18.6011 17.4627 18.4144 17.418C18.2277 17.3733 18.0341 17.3658 17.8445 17.396C17.6549 17.4261 17.4731 17.4933 17.3095 17.5937C17.1459 17.6941 17.0036 17.8258 16.8909 17.9812C16.7782 18.1366 16.6971 18.3126 16.6524 18.4993C16.6077 18.686 16.6003 18.8797 16.6304 19.0693C16.6401 19.1179 16.6375 19.1683 16.6228 19.2157C16.6082 19.2631 16.582 19.3062 16.5466 19.3409C16.5112 19.3757 16.4677 19.4011 16.42 19.4149C16.3723 19.4287 16.3219 19.4303 16.2734 19.4198C16.1936 19.4025 16.1121 19.3933 16.0304 19.3923Z" fill="#989AA6"/>
<path d="M61.2828 57.5532H10.3442C10.3038 57.555 10.2634 57.5486 10.2255 57.5344C10.1876 57.5201 10.153 57.4984 10.1238 57.4704C10.0945 57.4424 10.0712 57.4088 10.0553 57.3716C10.0394 57.3343 10.0312 57.2943 10.0312 57.2538C10.0312 57.2133 10.0394 57.1733 10.0553 57.1361C10.0712 57.0989 10.0945 57.0652 10.1238 57.0373C10.153 57.0093 10.1876 56.9875 10.2255 56.9733C10.2634 56.959 10.3038 56.9526 10.3442 56.9544H61.2845C61.325 56.9526 61.3654 56.959 61.4032 56.9733C61.4411 56.9875 61.4757 57.0093 61.505 57.0373C61.5342 57.0652 61.5575 57.0989 61.5734 57.1361C61.5893 57.1733 61.5975 57.2133 61.5975 57.2538C61.5975 57.2943 61.5893 57.3343 61.5734 57.3716C61.5575 57.4088 61.5342 57.4424 61.505 57.4704C61.4757 57.4984 61.4411 57.5201 61.4032 57.5344C61.3654 57.5486 61.325 57.555 61.2845 57.5532H61.2828Z" fill="#989AA6"/>
<path d="M52.2929 24.8921H19.3316C17.6766 24.8921 16.335 26.2337 16.335 27.8887V54.2574C16.335 55.9124 17.6766 57.254 19.3316 57.254H52.2929C53.9479 57.254 55.2895 55.9124 55.2895 54.2574V27.8887C55.2895 26.2337 53.9479 24.8921 52.2929 24.8921Z" fill="#2FC8F2"/>
<path d="M52.2929 30.2852H19.3316C17.6766 30.2852 16.335 31.6268 16.335 33.2818V54.2573C16.335 55.9123 17.6766 57.2539 19.3316 57.2539H52.2929C53.9479 57.2539 55.2895 55.9123 55.2895 54.2573V33.2818C55.2895 31.6268 53.9479 30.2852 52.2929 30.2852Z" fill="#00B5F4"/>
<path d="M49.8969 24.8921H21.7287C21.7287 26.3226 21.1604 27.6945 20.1489 28.706C19.1374 29.7176 17.7655 30.2858 16.335 30.2858V51.8609C17.7655 51.8609 19.1374 52.4291 20.1489 53.4406C21.1604 54.4522 21.7287 55.8241 21.7287 57.2546H49.8969C49.8969 56.5463 50.0363 55.8449 50.3073 55.1905C50.5783 54.5362 50.9755 53.9415 51.4764 53.4407C51.9772 52.9398 52.5717 52.5425 53.2261 52.2714C53.8805 52.0004 54.5818 51.8609 55.2901 51.8609V30.2858C54.5818 30.2858 53.8805 30.1463 53.2261 29.8753C52.5717 29.6042 51.9772 29.2069 51.4764 28.706C50.9755 28.2052 50.5783 27.6105 50.3073 26.9561C50.0363 26.3017 49.8969 25.6004 49.8969 24.8921Z" fill="#EDEDED"/>
<path d="M49.8969 24.8921H21.7287C21.7287 26.3226 21.1604 27.6945 20.1489 28.706C19.1374 29.7176 17.7655 30.2858 16.335 30.2858V48.2677H55.2889V30.2858C53.8587 30.2855 52.4871 29.7171 51.4759 28.7056C50.4648 27.6941 49.8968 26.3223 49.8969 24.8921Z" fill="white"/>
<path d="M52.2925 57.5535H19.3312C18.4574 57.5526 17.6196 57.2051 17.0018 56.5872C16.3839 55.9693 16.0364 55.1316 16.0354 54.2578V46.7666C16.0337 46.7262 16.0401 46.6858 16.0543 46.6479C16.0686 46.61 16.0903 46.5754 16.1183 46.5462C16.1463 46.5169 16.1799 46.4936 16.2171 46.4777C16.2543 46.4618 16.2944 46.4536 16.3349 46.4536C16.3753 46.4536 16.4154 46.4618 16.4526 46.4777C16.4898 46.4936 16.5235 46.5169 16.5514 46.5462C16.5794 46.5754 16.6012 46.61 16.6154 46.6479C16.6297 46.6858 16.6361 46.7262 16.6343 46.7666V54.2578C16.6352 54.9728 16.9197 55.6582 17.4252 56.1637C17.9308 56.6693 18.6162 56.9537 19.3312 56.9547H52.2925C53.0075 56.9537 53.6929 56.6693 54.1985 56.1637C54.7041 55.6582 54.9885 54.9728 54.9894 54.2578V37.7768C54.9876 37.7364 54.9941 37.696 55.0083 37.6581C55.0225 37.6202 55.0443 37.5856 55.0723 37.5564C55.1003 37.5271 55.1339 37.5039 55.1711 37.488C55.2083 37.4721 55.2484 37.4639 55.2888 37.4639C55.3293 37.4639 55.3694 37.4721 55.4066 37.488C55.4438 37.5039 55.4774 37.5271 55.5054 37.5564C55.5334 37.5856 55.5552 37.6202 55.5694 37.6581C55.5836 37.696 55.5901 37.7364 55.5883 37.7768V54.2578C55.5873 55.1316 55.2398 55.9693 54.622 56.5872C54.0041 57.2051 53.1663 57.5526 52.2925 57.5535Z" fill="#282C3F"/>
<path d="M16.3349 45.2681C16.2955 45.2682 16.2565 45.2605 16.2201 45.2455C16.1837 45.2305 16.1506 45.2084 16.1228 45.1805C16.0949 45.1527 16.0728 45.1196 16.0578 45.0832C16.0428 45.0468 16.0351 45.0078 16.0352 44.9684V27.8886C16.0361 27.0147 16.3836 26.1769 17.0014 25.559C17.6193 24.941 18.457 24.5934 19.3309 24.5923H52.2923C53.1661 24.5934 54.0038 24.941 54.6217 25.559C55.2396 26.1769 55.5871 27.0147 55.588 27.8886V35.9792C55.5898 36.0197 55.5833 36.06 55.5691 36.0979C55.5549 36.1358 55.5331 36.1704 55.5051 36.1997C55.4771 36.2289 55.4435 36.2522 55.4063 36.2681C55.3691 36.284 55.329 36.2922 55.2886 36.2922C55.2481 36.2922 55.208 36.284 55.1708 36.2681C55.1336 36.2522 55.1 36.2289 55.072 36.1997C55.044 36.1704 55.0223 36.1358 55.008 36.0979C54.9938 36.06 54.9873 36.0197 54.9891 35.9792V27.8886C54.9887 27.1733 54.7044 26.4875 54.1988 25.9815C53.6932 25.4756 53.0075 25.1909 52.2923 25.19H19.3309C18.6159 25.1909 17.9305 25.4753 17.4249 25.9809C16.9194 26.4865 16.6349 27.1719 16.634 27.8868V44.9684C16.6341 45.0078 16.6264 45.0467 16.6114 45.0831C16.5964 45.1194 16.5744 45.1525 16.5466 45.1803C16.5188 45.2082 16.4858 45.2302 16.4495 45.2453C16.4132 45.2604 16.3742 45.2681 16.3349 45.2681Z" fill="#282C3F"/>
<path d="M43.3028 18.2998H28.321C27.8244 18.2998 27.4219 18.7024 27.4219 19.199V19.7978C27.4219 20.2944 27.8244 20.697 28.321 20.697H43.3028C43.7994 20.697 44.202 20.2944 44.202 19.7978V19.199C44.202 18.7024 43.7994 18.2998 43.3028 18.2998Z" fill="#A09CAD"/>
<path d="M43.3034 18.2998H28.321C28.0827 18.2998 27.854 18.3945 27.6854 18.563C27.5168 18.7315 27.422 18.96 27.4219 19.1984C27.4219 19.3574 27.485 19.5098 27.5974 19.6222C27.7099 19.7347 27.8623 19.7978 28.0213 19.7978H43.6031C43.7621 19.7978 43.9146 19.7347 44.027 19.6222C44.1394 19.5098 44.2026 19.3574 44.2026 19.1984C44.2024 18.96 44.1076 18.7315 43.939 18.563C43.7704 18.3945 43.5418 18.2998 43.3034 18.2998Z" fill="#B8B5C6"/>
<path d="M43.3033 20.9971H28.3209C28.0031 20.9966 27.6985 20.8702 27.4737 20.6454C27.249 20.4207 27.1225 20.116 27.1221 19.7982V19.1988C27.1225 18.881 27.249 18.5764 27.4738 18.3518C27.6985 18.1271 28.0032 18.0008 28.3209 18.0005H37.011C37.0905 18.0005 37.1667 18.0321 37.2229 18.0883C37.2791 18.1445 37.3107 18.2207 37.3107 18.3002C37.3107 18.3797 37.2791 18.4559 37.2229 18.5121C37.1667 18.5683 37.0905 18.5999 37.011 18.5999H28.3209C28.1621 18.6001 28.0098 18.6632 27.8975 18.7755C27.7851 18.8877 27.7218 19.0399 27.7215 19.1988V19.7982C27.7214 19.8771 27.7367 19.9552 27.7668 20.0281C27.7968 20.1009 27.841 20.1672 27.8966 20.223C27.9523 20.2789 28.0184 20.3232 28.0912 20.3534C28.164 20.3837 28.2421 20.3993 28.3209 20.3994H43.3033C43.4623 20.3992 43.6146 20.336 43.727 20.2237C43.8394 20.1113 43.9026 19.9589 43.9028 19.8V19.1988C43.9025 19.0399 43.8392 18.8877 43.7268 18.7755C43.6145 18.6632 43.4622 18.6001 43.3033 18.5999H38.8087C38.7292 18.5999 38.653 18.5683 38.5968 18.5121C38.5406 18.4559 38.509 18.3797 38.509 18.3002C38.509 18.2207 38.5406 18.1445 38.5968 18.0883C38.653 18.0321 38.7292 18.0005 38.8087 18.0005H43.3033C43.6211 18.0008 43.9258 18.1271 44.1505 18.3518C44.3753 18.5764 44.5017 18.881 44.5022 19.1988V19.7982C44.5017 20.116 44.3753 20.4207 44.1505 20.6454C43.9258 20.8702 43.6211 20.9966 43.3033 20.9971Z" fill="#282C3F"/>
<path d="M53.1913 50.9616C53.1118 50.9616 53.0356 50.93 52.9794 50.8738C52.9232 50.8176 52.8916 50.7413 52.8916 50.6618V50.0624C52.8916 49.9829 52.9232 49.9067 52.9794 49.8505C53.0356 49.7943 53.1118 49.7627 53.1913 49.7627C53.2708 49.7627 53.347 49.7943 53.4033 49.8505C53.4595 49.9067 53.491 49.9829 53.491 50.0624V50.663C53.4907 50.7423 53.459 50.8182 53.4028 50.8742C53.3467 50.9302 53.2706 50.9616 53.1913 50.9616Z" fill="#B8B5C6"/>
<path d="M53.1913 48.4355C53.1118 48.4355 53.0356 48.4039 52.9794 48.3477C52.9232 48.2915 52.8916 48.2153 52.8916 48.1358V46.8504C52.8916 46.7709 52.9232 46.6947 52.9794 46.6385C53.0356 46.5823 53.1118 46.5507 53.1913 46.5507C53.2708 46.5507 53.347 46.5823 53.4033 46.6385C53.4595 46.6947 53.491 46.7709 53.491 46.8504V48.1358C53.491 48.2153 53.4595 48.2915 53.4033 48.3477C53.347 48.4039 53.2708 48.4355 53.1913 48.4355ZM53.1913 45.2221C53.1118 45.2221 53.0356 45.1906 52.9794 45.1343C52.9232 45.0781 52.8916 45.0019 52.8916 44.9224V43.6371C52.8916 43.5576 52.9232 43.4813 52.9794 43.4251C53.0356 43.3689 53.1118 43.3374 53.1913 43.3374C53.2708 43.3374 53.347 43.3689 53.4033 43.4251C53.4595 43.4813 53.491 43.5576 53.491 43.6371V44.9224C53.4914 44.962 53.484 45.0013 53.4691 45.038C53.4542 45.0747 53.4322 45.1081 53.4043 45.1362C53.3764 45.1644 53.3433 45.1867 53.3067 45.202C53.2701 45.2172 53.2309 45.2251 53.1913 45.2251V45.2221ZM53.1913 42.0117C53.1118 42.0117 53.0356 41.9801 52.9794 41.9239C52.9232 41.8677 52.8916 41.7915 52.8916 41.712V40.4266C52.8916 40.3472 52.9232 40.2709 52.9794 40.2147C53.0356 40.1585 53.1118 40.1269 53.1913 40.1269C53.2708 40.1269 53.347 40.1585 53.4033 40.2147C53.4595 40.2709 53.491 40.3472 53.491 40.4266V41.712C53.4916 41.7517 53.4842 41.7911 53.4694 41.8279C53.4546 41.8648 53.4326 41.8983 53.4047 41.9266C53.3768 41.9548 53.3436 41.9773 53.307 41.9926C53.2703 42.0079 53.231 42.0158 53.1913 42.0158V42.0117ZM53.1913 38.7984C53.1118 38.7984 53.0356 38.7668 52.9794 38.7106C52.9232 38.6544 52.8916 38.5781 52.8916 38.4986V37.2133C52.8916 37.1338 52.9232 37.0576 52.9794 37.0014C53.0356 36.9452 53.1118 36.9136 53.1913 36.9136C53.2708 36.9136 53.347 36.9452 53.4033 37.0014C53.4595 37.0576 53.491 37.1338 53.491 37.2133V38.4986C53.4916 38.5383 53.4842 38.5778 53.4694 38.6146C53.4546 38.6514 53.4326 38.685 53.4047 38.7132C53.3768 38.7415 53.3436 38.7639 53.307 38.7792C53.2703 38.7946 53.231 38.8024 53.1913 38.8024V38.7984ZM53.1913 35.585C53.1118 35.585 53.0356 35.5534 52.9794 35.4972C52.9232 35.441 52.8916 35.3648 52.8916 35.2853V34.0116C52.8916 33.9321 52.9232 33.8559 52.9794 33.7997C53.0356 33.7435 53.1118 33.7119 53.1913 33.7119C53.2708 33.7119 53.347 33.7435 53.4033 33.7997C53.4595 33.8559 53.491 33.9321 53.491 34.0116V35.297C53.4901 35.3759 53.4581 35.4512 53.402 35.5066C53.3459 35.5621 53.2702 35.5932 53.1913 35.5932V35.585Z" fill="#B8B5C6"/>
<path d="M53.1913 32.3833C53.1118 32.3833 53.0356 32.3518 52.9794 32.2956C52.9232 32.2394 52.8916 32.1631 52.8916 32.0836V31.4848C52.8916 31.4053 52.9232 31.3291 52.9794 31.2728C53.0356 31.2166 53.1118 31.1851 53.1913 31.1851C53.2708 31.1851 53.347 31.2166 53.4033 31.2728C53.4595 31.3291 53.491 31.4053 53.491 31.4848V32.0842C53.4909 32.1636 53.4592 32.2397 53.403 32.2958C53.3469 32.3519 53.2707 32.3833 53.1913 32.3833Z" fill="#B8B5C6"/>
<path d="M23.5266 55.4536H22.9272C22.8868 55.4554 22.8464 55.449 22.8085 55.4348C22.7706 55.4205 22.736 55.3988 22.7068 55.3708C22.6775 55.3428 22.6543 55.3092 22.6384 55.272C22.6225 55.2347 22.6143 55.1947 22.6143 55.1542C22.6143 55.1137 22.6225 55.0737 22.6384 55.0365C22.6543 54.9992 22.6775 54.9656 22.7068 54.9376C22.736 54.9097 22.7706 54.8879 22.8085 54.8737C22.8464 54.8594 22.8868 54.853 22.9272 54.8548H23.5266C23.5671 54.853 23.6075 54.8594 23.6453 54.8737C23.6832 54.8879 23.7178 54.9097 23.7471 54.9376C23.7763 54.9656 23.7996 54.9992 23.8155 55.0365C23.8314 55.0737 23.8396 55.1137 23.8396 55.1542C23.8396 55.1947 23.8314 55.2347 23.8155 55.272C23.7996 55.3092 23.7763 55.3428 23.7471 55.3708C23.7178 55.3988 23.6832 55.4205 23.6453 55.4348C23.6075 55.449 23.5671 55.4554 23.5266 55.4536Z" fill="#B8B5C6"/>
<path d="M46.3832 55.4536H45.2404C45.1999 55.4554 45.1596 55.449 45.1217 55.4348C45.0838 55.4205 45.0492 55.3988 45.0199 55.3708C44.9907 55.3428 44.9674 55.3092 44.9515 55.272C44.9356 55.2347 44.9274 55.1947 44.9274 55.1542C44.9274 55.1137 44.9356 55.0737 44.9515 55.0365C44.9674 54.9992 44.9907 54.9656 45.0199 54.9376C45.0492 54.9097 45.0838 54.8879 45.1217 54.8737C45.1596 54.8594 45.1999 54.853 45.2404 54.8548H46.3832C46.4236 54.853 46.464 54.8594 46.5019 54.8737C46.5397 54.8879 46.5743 54.9097 46.6036 54.9376C46.6328 54.9656 46.6561 54.9992 46.672 55.0365C46.6879 55.0737 46.6961 55.1137 46.6961 55.1542C46.6961 55.1947 46.6879 55.2347 46.672 55.272C46.6561 55.3092 46.6328 55.3428 46.6036 55.3708C46.5743 55.3988 46.5397 55.4205 46.5019 55.4348C46.464 55.449 46.4236 55.4554 46.3832 55.4536ZM43.5285 55.4536H42.3834C42.343 55.4554 42.3026 55.449 42.2647 55.4348C42.2268 55.4205 42.1922 55.3988 42.163 55.3708C42.1337 55.3428 42.1105 55.3092 42.0946 55.272C42.0787 55.2347 42.0705 55.1947 42.0705 55.1542C42.0705 55.1137 42.0787 55.0737 42.0946 55.0365C42.1105 54.9992 42.1337 54.9656 42.163 54.9376C42.1922 54.9097 42.2268 54.8879 42.2647 54.8737C42.3026 54.8594 42.343 54.853 42.3834 54.8548H43.5285C43.569 54.853 43.6093 54.8594 43.6472 54.8737C43.6851 54.8879 43.7197 54.9097 43.749 54.9376C43.7782 54.9656 43.8015 54.9992 43.8174 55.0365C43.8333 55.0737 43.8415 55.1137 43.8415 55.1542C43.8415 55.1947 43.8333 55.2347 43.8174 55.272C43.8015 55.3092 43.7782 55.3428 43.749 55.3708C43.7197 55.3988 43.6851 55.4205 43.6472 55.4348C43.6093 55.449 43.569 55.4554 43.5285 55.4536ZM40.671 55.4536H39.5259C39.4854 55.4554 39.4451 55.449 39.4072 55.4348C39.3693 55.4205 39.3347 55.3988 39.3054 55.3708C39.2762 55.3428 39.2529 55.3092 39.237 55.272C39.2211 55.2347 39.2129 55.1947 39.2129 55.1542C39.2129 55.1137 39.2211 55.0737 39.237 55.0365C39.2529 54.9992 39.2762 54.9656 39.3054 54.9376C39.3347 54.9097 39.3693 54.8879 39.4072 54.8737C39.4451 54.8594 39.4854 54.853 39.5259 54.8548H40.6687C40.7091 54.853 40.7495 54.8594 40.7874 54.8737C40.8252 54.8879 40.8598 54.9097 40.8891 54.9376C40.9183 54.9656 40.9416 54.9992 40.9575 55.0365C40.9734 55.0737 40.9816 55.1137 40.9816 55.1542C40.9816 55.1947 40.9734 55.2347 40.9575 55.272C40.9416 55.3092 40.9183 55.3428 40.8891 55.3708C40.8598 55.3988 40.8252 55.4205 40.7874 55.4348C40.7495 55.449 40.7091 55.4554 40.6687 55.4536H40.671ZM37.814 55.4536H36.6689C36.6285 55.4554 36.5881 55.449 36.5502 55.4348C36.5123 55.4205 36.4777 55.3988 36.4485 55.3708C36.4192 55.3428 36.396 55.3092 36.3801 55.272C36.3642 55.2347 36.356 55.1947 36.356 55.1542C36.356 55.1137 36.3642 55.0737 36.3801 55.0365C36.396 54.9992 36.4192 54.9656 36.4485 54.9376C36.4777 54.9097 36.5123 54.8879 36.5502 54.8737C36.5881 54.8594 36.6285 54.853 36.6689 54.8548H37.8117C37.8521 54.853 37.8925 54.8594 37.9304 54.8737C37.9683 54.8879 38.0029 54.9097 38.0321 54.9376C38.0614 54.9656 38.0846 54.9992 38.1005 55.0365C38.1164 55.0737 38.1246 55.1137 38.1246 55.1542C38.1246 55.1947 38.1164 55.2347 38.1005 55.272C38.0846 55.3092 38.0614 55.3428 38.0321 55.3708C38.0029 55.3988 37.9683 55.4205 37.9304 55.4348C37.8925 55.449 37.8521 55.4554 37.8117 55.4536H37.814ZM34.9571 55.4536H33.812C33.7715 55.4554 33.7311 55.449 33.6933 55.4348C33.6554 55.4205 33.6208 55.3988 33.5915 55.3708C33.5623 55.3428 33.539 55.3092 33.5231 55.272C33.5072 55.2347 33.499 55.1947 33.499 55.1542C33.499 55.1137 33.5072 55.0737 33.5231 55.0365C33.539 54.9992 33.5623 54.9656 33.5915 54.9376C33.6208 54.9097 33.6554 54.8879 33.6933 54.8737C33.7311 54.8594 33.7715 54.853 33.812 54.8548H34.9547C34.9952 54.853 35.0355 54.8594 35.0734 54.8737C35.1113 54.8879 35.1459 54.9097 35.1752 54.9376C35.2044 54.9656 35.2277 54.9992 35.2436 55.0365C35.2595 55.0737 35.2677 55.1137 35.2677 55.1542C35.2677 55.1947 35.2595 55.2347 35.2436 55.272C35.2277 55.3092 35.2044 55.3428 35.1752 55.3708C35.1459 55.3988 35.1113 55.4205 35.0734 55.4348C35.0355 55.449 34.9952 55.4554 34.9547 55.4536H34.9571ZM32.1001 55.4536H30.9544C30.8773 55.4502 30.8044 55.4172 30.7511 55.3614C30.6977 55.3056 30.6679 55.2314 30.6679 55.1542C30.6679 55.077 30.6977 55.0028 30.7511 54.947C30.8044 54.8912 30.8773 54.8582 30.9544 54.8548H32.0978C32.1749 54.8582 32.2477 54.8912 32.3011 54.947C32.3545 55.0028 32.3843 55.077 32.3843 55.1542C32.3843 55.2314 32.3545 55.3056 32.3011 55.3614C32.2477 55.4172 32.1749 55.4502 32.0978 55.4536H32.1001ZM29.2426 55.4536H28.0974C28.057 55.4554 28.0166 55.449 27.9788 55.4348C27.9409 55.4205 27.9063 55.3988 27.877 55.3708C27.8478 55.3428 27.8245 55.3092 27.8086 55.272C27.7927 55.2347 27.7845 55.1947 27.7845 55.1542C27.7845 55.1137 27.7927 55.0737 27.8086 55.0365C27.8245 54.9992 27.8478 54.9656 27.877 54.9376C27.9063 54.9097 27.9409 54.8879 27.9788 54.8737C28.0166 54.8594 28.057 54.853 28.0974 54.8548H29.2402C29.2807 54.853 29.321 54.8594 29.3589 54.8737C29.3968 54.8879 29.4314 54.9097 29.4607 54.9376C29.4899 54.9656 29.5132 54.9992 29.5291 55.0365C29.545 55.0737 29.5532 55.1137 29.5532 55.1542C29.5532 55.1947 29.545 55.2347 29.5291 55.272C29.5132 55.3092 29.4899 55.3428 29.4607 55.3708C29.4314 55.3988 29.3968 55.4205 29.3589 55.4348C29.321 55.449 29.2807 55.4554 29.2402 55.4536H29.2426ZM26.3856 55.4536H25.2417C25.2012 55.4554 25.1608 55.449 25.123 55.4348C25.0851 55.4205 25.0505 55.3988 25.0212 55.3708C24.992 55.3428 24.9687 55.3092 24.9528 55.272C24.9369 55.2347 24.9287 55.1947 24.9287 55.1542C24.9287 55.1137 24.9369 55.0737 24.9528 55.0365C24.9687 54.9992 24.992 54.9656 25.0212 54.9376C25.0505 54.9097 25.0851 54.8879 25.123 54.8737C25.1608 54.8594 25.2012 54.853 25.2417 54.8548H26.3844C26.4249 54.853 26.4653 54.8594 26.5031 54.8737C26.541 54.8879 26.5756 54.9097 26.6049 54.9376C26.6341 54.9656 26.6574 54.9992 26.6733 55.0365C26.6892 55.0737 26.6974 55.1137 26.6974 55.1542C26.6974 55.1947 26.6892 55.2347 26.6733 55.272C26.6574 55.3092 26.6341 55.3428 26.6049 55.3708C26.5756 55.3988 26.541 55.4205 26.5031 55.4348C26.4653 55.449 26.4249 55.4554 26.3844 55.4536H26.3856Z" fill="#B8B5C6"/>
<path d="M48.6966 55.4536H48.0971C48.0567 55.4554 48.0163 55.449 47.9784 55.4348C47.9405 55.4205 47.9059 55.3988 47.8767 55.3708C47.8475 55.3428 47.8242 55.3092 47.8083 55.272C47.7924 55.2347 47.7842 55.1947 47.7842 55.1542C47.7842 55.1137 47.7924 55.0737 47.8083 55.0365C47.8242 54.9992 47.8475 54.9656 47.8767 54.9376C47.9059 54.9097 47.9405 54.8879 47.9784 54.8737C48.0163 54.8594 48.0567 54.853 48.0971 54.8548H48.6966C48.737 54.853 48.7774 54.8594 48.8153 54.8737C48.8531 54.8879 48.8877 54.9097 48.917 54.9376C48.9462 54.9656 48.9695 54.9992 48.9854 55.0365C49.0013 55.0737 49.0095 55.1137 49.0095 55.1542C49.0095 55.1947 49.0013 55.2347 48.9854 55.272C48.9695 55.3092 48.9462 55.3428 48.917 55.3708C48.8877 55.3988 48.8531 55.4205 48.8153 55.4348C48.7774 55.449 48.737 55.4554 48.6966 55.4536Z" fill="#B8B5C6"/>
<path d="M18.4325 32.3833C18.353 32.3833 18.2768 32.3518 18.2206 32.2956C18.1644 32.2394 18.1328 32.1631 18.1328 32.0836V31.4848C18.1328 31.4053 18.1644 31.3291 18.2206 31.2728C18.2768 31.2166 18.353 31.1851 18.4325 31.1851C18.512 31.1851 18.5883 31.2166 18.6445 31.2728C18.7007 31.3291 18.7322 31.4053 18.7322 31.4848V32.0842C18.7321 32.1636 18.7004 32.2397 18.6443 32.2958C18.5881 32.3519 18.5119 32.3833 18.4325 32.3833Z" fill="#B8B5C6"/>
<path d="M18.4325 48.4355C18.353 48.4355 18.2768 48.4039 18.2206 48.3477C18.1644 48.2915 18.1328 48.2153 18.1328 48.1358V46.8504C18.1328 46.7709 18.1644 46.6947 18.2206 46.6385C18.2768 46.5823 18.353 46.5507 18.4325 46.5507C18.512 46.5507 18.5883 46.5823 18.6445 46.6385C18.7007 46.6947 18.7322 46.7709 18.7322 46.8504V48.1358C18.7322 48.2153 18.7007 48.2915 18.6445 48.3477C18.5883 48.4039 18.512 48.4355 18.4325 48.4355ZM18.4325 45.2221C18.353 45.2221 18.2768 45.1906 18.2206 45.1343C18.1644 45.0781 18.1328 45.0019 18.1328 44.9224V43.6371C18.1328 43.5576 18.1644 43.4813 18.2206 43.4251C18.2768 43.3689 18.353 43.3374 18.4325 43.3374C18.512 43.3374 18.5883 43.3689 18.6445 43.4251C18.7007 43.4813 18.7322 43.5576 18.7322 43.6371V44.9224C18.7326 44.962 18.7252 45.0013 18.7103 45.038C18.6954 45.0747 18.6734 45.1081 18.6455 45.1362C18.6176 45.1644 18.5845 45.1867 18.5479 45.202C18.5114 45.2172 18.4721 45.2251 18.4325 45.2251V45.2221ZM18.4325 42.0117C18.353 42.0117 18.2768 41.9801 18.2206 41.9239C18.1644 41.8677 18.1328 41.7915 18.1328 41.712V40.4266C18.1328 40.3472 18.1644 40.2709 18.2206 40.2147C18.2768 40.1585 18.353 40.1269 18.4325 40.1269C18.512 40.1269 18.5883 40.1585 18.6445 40.2147C18.7007 40.2709 18.7322 40.3472 18.7322 40.4266V41.712C18.7328 41.7517 18.7254 41.7911 18.7106 41.8279C18.6958 41.8648 18.6738 41.8983 18.6459 41.9266C18.618 41.9548 18.5848 41.9773 18.5482 41.9926C18.5115 42.0079 18.4722 42.0158 18.4325 42.0158V42.0117ZM18.4325 38.7984C18.353 38.7984 18.2768 38.7668 18.2206 38.7106C18.1644 38.6544 18.1328 38.5781 18.1328 38.4986V37.2133C18.1328 37.1338 18.1644 37.0576 18.2206 37.0014C18.2768 36.9452 18.353 36.9136 18.4325 36.9136C18.512 36.9136 18.5883 36.9452 18.6445 37.0014C18.7007 37.0576 18.7322 37.1338 18.7322 37.2133V38.4986C18.7328 38.5383 18.7254 38.5778 18.7106 38.6146C18.6958 38.6514 18.6738 38.685 18.6459 38.7132C18.618 38.7415 18.5848 38.7639 18.5482 38.7792C18.5115 38.7946 18.4722 38.8024 18.4325 38.8024V38.7984ZM18.4325 35.5879C18.353 35.5879 18.2768 35.5563 18.2206 35.5001C18.1644 35.4439 18.1328 35.3677 18.1328 35.2882V34.0116C18.1328 33.9321 18.1644 33.8559 18.2206 33.7997C18.2768 33.7435 18.353 33.7119 18.4325 33.7119C18.512 33.7119 18.5883 33.7435 18.6445 33.7997C18.7007 33.8559 18.7322 33.9321 18.7322 34.0116V35.297C18.7315 35.376 18.6996 35.4514 18.6434 35.507C18.5873 35.5626 18.5115 35.5938 18.4325 35.5938V35.5879Z" fill="#B8B5C6"/>
<path d="M18.4325 50.9616C18.353 50.9616 18.2768 50.93 18.2206 50.8738C18.1644 50.8176 18.1328 50.7413 18.1328 50.6618V50.0624C18.1328 49.9829 18.1644 49.9067 18.2206 49.8505C18.2768 49.7943 18.353 49.7627 18.4325 49.7627C18.512 49.7627 18.5883 49.7943 18.6445 49.8505C18.7007 49.9067 18.7322 49.9829 18.7322 50.0624V50.663C18.7319 50.7423 18.7002 50.8182 18.6441 50.8742C18.5879 50.9302 18.5118 50.9616 18.4325 50.9616Z" fill="#B8B5C6"/>
<path d="M48.697 27.2889H48.0976C48.0181 27.2889 47.9418 27.2573 47.8856 27.2011C47.8294 27.1449 47.7979 27.0687 47.7979 26.9892C47.7979 26.9097 47.8294 26.8334 47.8856 26.7772C47.9418 26.721 48.0181 26.6895 48.0976 26.6895H48.697C48.7765 26.6895 48.8527 26.721 48.9089 26.7772C48.9651 26.8334 48.9967 26.9097 48.9967 26.9892C48.9967 27.0687 48.9651 27.1449 48.9089 27.2011C48.8527 27.2573 48.7765 27.2889 48.697 27.2889Z" fill="#B8B5C6"/>
<path d="M46.3836 27.2889H45.2408C45.1613 27.2889 45.0851 27.2573 45.0289 27.2011C44.9727 27.1449 44.9411 27.0687 44.9411 26.9892C44.9411 26.9097 44.9727 26.8334 45.0289 26.7772C45.0851 26.721 45.1613 26.6895 45.2408 26.6895H46.3836C46.4631 26.6895 46.5393 26.721 46.5955 26.7772C46.6517 26.8334 46.6833 26.9097 46.6833 26.9892C46.6833 27.0687 46.6517 27.1449 46.5955 27.2011C46.5393 27.2573 46.4631 27.2889 46.3836 27.2889ZM43.5266 27.2889H42.3839C42.3044 27.2889 42.2281 27.2573 42.1719 27.2011C42.1157 27.1449 42.0841 27.0687 42.0841 26.9892C42.0841 26.9097 42.1157 26.8334 42.1719 26.7772C42.2281 26.721 42.3044 26.6895 42.3839 26.6895H43.529C43.6085 26.6895 43.6847 26.721 43.7409 26.7772C43.7971 26.8334 43.8287 26.9097 43.8287 26.9892C43.8287 27.0687 43.7971 27.1449 43.7409 27.2011C43.6847 27.2573 43.6085 27.2889 43.529 27.2889H43.5266ZM40.6697 27.2889H39.5263C39.4468 27.2889 39.3706 27.2573 39.3144 27.2011C39.2582 27.1449 39.2266 27.0687 39.2266 26.9892C39.2266 26.9097 39.2582 26.8334 39.3144 26.7772C39.3706 26.721 39.4468 26.6895 39.5263 26.6895H40.6697C40.7492 26.6895 40.8254 26.721 40.8816 26.7772C40.9378 26.8334 40.9694 26.9097 40.9694 26.9892C40.9694 27.0687 40.9378 27.1449 40.8816 27.2011C40.8254 27.2573 40.7492 27.2889 40.6697 27.2889ZM37.8121 27.2889H36.6694C36.5899 27.2889 36.5136 27.2573 36.4574 27.2011C36.4012 27.1449 36.3696 27.0687 36.3696 26.9892C36.3696 26.9097 36.4012 26.8334 36.4574 26.7772C36.5136 26.721 36.5899 26.6895 36.6694 26.6895H37.8121C37.8916 26.6895 37.9679 26.721 38.0241 26.7772C38.0803 26.8334 38.1119 26.9097 38.1119 26.9892C38.1119 27.0687 38.0803 27.1449 38.0241 27.2011C37.9679 27.2573 37.8916 27.2889 37.8121 27.2889ZM34.9552 27.2889H33.8124C33.7329 27.2889 33.6567 27.2573 33.6005 27.2011C33.5443 27.1449 33.5127 27.0687 33.5127 26.9892C33.5127 26.9097 33.5443 26.8334 33.6005 26.7772C33.6567 26.721 33.7329 26.6895 33.8124 26.6895H34.9552C35.0347 26.6895 35.1109 26.721 35.1671 26.7772C35.2233 26.8334 35.2549 26.9097 35.2549 26.9892C35.2549 27.0687 35.2233 27.1449 35.1671 27.2011C35.1109 27.2573 35.0347 27.2889 34.9552 27.2889ZM32.0982 27.2889H30.9554C30.8759 27.2889 30.7997 27.2573 30.7435 27.2011C30.6873 27.1449 30.6557 27.0687 30.6557 26.9892C30.6557 26.9097 30.6873 26.8334 30.7435 26.7772C30.7997 26.721 30.8759 26.6895 30.9554 26.6895H32.0982C32.1777 26.6895 32.2539 26.721 32.3102 26.7772C32.3664 26.8334 32.3979 26.9097 32.3979 26.9892C32.3979 27.0687 32.3664 27.1449 32.3102 27.2011C32.2539 27.2573 32.1777 27.2889 32.0982 27.2889ZM29.2407 27.2889H28.0979C28.0184 27.2889 27.9422 27.2573 27.886 27.2011C27.8298 27.1449 27.7982 27.0687 27.7982 26.9892C27.7982 26.9097 27.8298 26.8334 27.886 26.7772C27.9422 26.721 28.0184 26.6895 28.0979 26.6895H29.2407C29.3202 26.6895 29.3964 26.721 29.4526 26.7772C29.5088 26.8334 29.5404 26.9097 29.5404 26.9892C29.5404 27.0687 29.5088 27.1449 29.4526 27.2011C29.3964 27.2573 29.3202 27.2889 29.2407 27.2889ZM26.3837 27.2889H25.2421C25.1626 27.2889 25.0864 27.2573 25.0302 27.2011C24.974 27.1449 24.9424 27.0687 24.9424 26.9892C24.9424 26.9097 24.974 26.8334 25.0302 26.7772C25.0864 26.721 25.1626 26.6895 25.2421 26.6895H26.3849C26.4644 26.6895 26.5406 26.721 26.5968 26.7772C26.653 26.8334 26.6846 26.9097 26.6846 26.9892C26.6846 27.0687 26.653 27.1449 26.5968 27.2011C26.5406 27.2573 26.4644 27.2889 26.3849 27.2889H26.3837Z" fill="#B8B5C6"/>
<path d="M23.5271 27.2889H22.9276C22.8482 27.2889 22.7719 27.2573 22.7157 27.2011C22.6595 27.1449 22.6279 27.0687 22.6279 26.9892C22.6279 26.9097 22.6595 26.8334 22.7157 26.7772C22.7719 26.721 22.8482 26.6895 22.9276 26.6895H23.5271C23.6066 26.6895 23.6828 26.721 23.739 26.7772C23.7952 26.8334 23.8268 26.9097 23.8268 26.9892C23.8268 27.0687 23.7952 27.1449 23.739 27.2011C23.6828 27.2573 23.6066 27.2889 23.5271 27.2889Z" fill="#B8B5C6"/>
<path d="M16.3349 30.5855C16.2554 30.5855 16.1791 30.5539 16.1229 30.4977C16.0667 30.4415 16.0352 30.3653 16.0352 30.2858C16.0352 30.2063 16.0667 30.1301 16.1229 30.0739C16.1791 30.0177 16.2554 29.9861 16.3349 29.9861C17.6854 29.9845 18.9802 29.4474 19.9352 28.4924C20.8902 27.5374 21.4274 26.2426 21.4289 24.892C21.4271 24.8516 21.4335 24.8112 21.4478 24.7734C21.462 24.7355 21.4838 24.7009 21.5118 24.6716C21.5398 24.6424 21.5734 24.6191 21.6106 24.6032C21.6478 24.5873 21.6879 24.5791 21.7283 24.5791C21.7688 24.5791 21.8089 24.5873 21.8461 24.6032C21.8833 24.6191 21.9169 24.6424 21.9449 24.6716C21.9729 24.7009 21.9946 24.7355 22.0089 24.7734C22.0231 24.8112 22.0295 24.8516 22.0278 24.892C22.0261 26.4014 21.4257 27.8485 20.3585 28.9159C19.2913 29.9832 17.8443 30.5837 16.3349 30.5855Z" fill="#282C3F"/>
<path d="M55.2889 30.5855C53.7795 30.5837 52.3325 29.9832 51.2652 28.9159C50.198 27.8485 49.5977 26.4014 49.596 24.892C49.5942 24.8516 49.6006 24.8112 49.6149 24.7734C49.6291 24.7355 49.6509 24.7009 49.6789 24.6716C49.7068 24.6424 49.7405 24.6191 49.7777 24.6032C49.8149 24.5873 49.8549 24.5791 49.8954 24.5791C49.9359 24.5791 49.9759 24.5873 50.0132 24.6032C50.0504 24.6191 50.084 24.6424 50.112 24.6716C50.14 24.7009 50.1617 24.7355 50.176 24.7734C50.1902 24.8112 50.1966 24.8516 50.1948 24.892C50.1964 26.2426 50.7336 27.5374 51.6886 28.4924C52.6435 29.4474 53.9383 29.9845 55.2889 29.9861C55.3684 29.9861 55.4446 30.0177 55.5008 30.0739C55.557 30.1301 55.5886 30.2063 55.5886 30.2858C55.5886 30.3653 55.557 30.4415 55.5008 30.4977C55.4446 30.5539 55.3684 30.5855 55.2889 30.5855Z" fill="#282C3F"/>
<path d="M49.8974 57.5536C49.858 57.5537 49.8191 57.546 49.7827 57.531C49.7464 57.516 49.7133 57.494 49.6855 57.4662C49.6576 57.4384 49.6356 57.4054 49.6205 57.3691C49.6054 57.3328 49.5977 57.2938 49.5977 57.2545C49.5992 55.7451 50.1995 54.2979 51.2667 53.2305C52.334 52.1631 53.7811 51.5627 55.2905 51.561C55.37 51.561 55.4463 51.5926 55.5025 51.6488C55.5587 51.705 55.5903 51.7813 55.5903 51.8608C55.5903 51.9402 55.5587 52.0165 55.5025 52.0727C55.4463 52.1289 55.37 52.1605 55.2905 52.1605C53.94 52.162 52.6452 52.6992 51.6902 53.6542C50.7352 54.6092 50.1981 55.904 50.1965 57.2545C50.1965 57.3338 50.165 57.4099 50.1089 57.466C50.0528 57.5221 49.9767 57.5536 49.8974 57.5536Z" fill="#282C3F"/>
<path d="M21.7286 57.5536C21.6893 57.5537 21.6503 57.546 21.614 57.531C21.5776 57.516 21.5446 57.494 21.5167 57.4662C21.4889 57.4384 21.4668 57.4054 21.4517 57.3691C21.4367 57.3328 21.4289 57.2938 21.4289 57.2545C21.4274 55.904 20.8902 54.6092 19.9352 53.6542C18.9802 52.6992 17.6854 52.162 16.3349 52.1605C16.2554 52.1605 16.1791 52.1289 16.1229 52.0727C16.0667 52.0165 16.0352 51.9402 16.0352 51.8608C16.0352 51.7813 16.0667 51.705 16.1229 51.6488C16.1791 51.5926 16.2554 51.561 16.3349 51.561C17.8444 51.5626 19.2917 52.1629 20.3591 53.2303C21.4265 54.2977 22.0268 55.745 22.0283 57.2545C22.0283 57.2938 22.0206 57.3328 22.0055 57.3691C21.9904 57.4054 21.9684 57.4384 21.9405 57.4662C21.9127 57.494 21.8796 57.516 21.8433 57.531C21.8069 57.546 21.768 57.5537 21.7286 57.5536Z" fill="#282C3F"/>
<path d="M43.0037 20.6968H40.9062V24.8917H43.0037V20.6968Z" fill="#2CAAE6"/>
<path d="M30.7176 20.6968H28.6201V24.8917H30.7176V20.6968Z" fill="#2CAAE6"/>
<path d="M43.0038 25.1895H40.9064C40.8275 25.1891 40.752 25.1575 40.6962 25.1018C40.6404 25.046 40.6089 24.9705 40.6084 24.8916V20.6967C40.6084 20.6172 40.64 20.541 40.6962 20.4848C40.7524 20.4285 40.8286 20.397 40.9081 20.397H43.0038C43.0833 20.397 43.1595 20.4285 43.2157 20.4848C43.2719 20.541 43.3035 20.6172 43.3035 20.6967V24.8916C43.3031 24.9708 43.2713 25.0465 43.2151 25.1024C43.159 25.1582 43.083 25.1895 43.0038 25.1895ZM41.2061 24.5901H42.7041V20.9964H41.2067L41.2061 24.5901Z" fill="#282C3F"/>
<path d="M30.7175 25.1895H28.62C28.5405 25.1895 28.4643 25.158 28.4081 25.1018C28.3519 25.0455 28.3203 24.9693 28.3203 24.8898V20.6967C28.3203 20.6172 28.3519 20.541 28.4081 20.4848C28.4643 20.4285 28.5405 20.397 28.62 20.397H30.7175C30.797 20.397 30.8732 20.4285 30.9294 20.4848C30.9856 20.541 31.0172 20.6172 31.0172 20.6967V24.8916C31.0167 24.9708 30.9849 25.0465 30.9288 25.1024C30.8726 25.1582 30.7967 25.1895 30.7175 25.1895ZM28.9221 24.5919H30.4178V20.9964H28.9221V24.5919Z" fill="#282C3F"/>
<path d="M47.1986 24.8921H43.6025V57.254H47.1986V24.8921Z" fill="#30354C"/>
<path d="M47.1995 57.5537H43.6034C43.524 57.5537 43.4479 57.5222 43.3917 57.4661C43.3355 57.41 43.3039 57.3339 43.3037 57.2545V24.892C43.3037 24.8125 43.3353 24.7363 43.3915 24.6801C43.4477 24.6239 43.5239 24.5923 43.6034 24.5923H47.1995C47.2788 24.5924 47.3549 24.6241 47.411 24.6803C47.4671 24.7365 47.4986 24.8126 47.4986 24.892V57.2545C47.4986 57.3339 47.4671 57.4099 47.411 57.466C47.3549 57.5221 47.2788 57.5537 47.1995 57.5537ZM43.9031 56.9548H46.8997V25.19H43.9031V56.9548Z" fill="#282C3F"/>
<path d="M47.1986 24.8921H43.6025V48.2677C43.6033 48.7436 43.7927 49.1998 44.1293 49.5362C44.4658 49.8727 44.922 50.0619 45.3979 50.0625C45.634 50.0629 45.8678 50.0168 46.0861 49.9268C46.3044 49.8368 46.5028 49.7047 46.67 49.5381C46.8372 49.3714 46.9699 49.1734 47.0606 48.9555C47.1513 48.7375 47.1982 48.5038 47.1986 48.2677V24.8921Z" fill="#52576A"/>
<path d="M28.0208 24.8921H24.4248V57.254H28.0208V24.8921Z" fill="#30354C"/>
<path d="M28.021 24.8921H24.4238V48.2677C24.4238 48.5039 24.4703 48.7377 24.5607 48.9558C24.6511 49.174 24.7836 49.3722 24.9506 49.5391C25.1176 49.7061 25.3158 49.8385 25.534 49.9288C25.7522 50.0191 25.986 50.0655 26.2221 50.0655C26.4583 50.0656 26.6922 50.0192 26.9105 49.929C27.1287 49.8387 27.327 49.7063 27.4941 49.5393C27.6611 49.3724 27.7937 49.1742 27.8841 48.956C27.9745 48.7378 28.021 48.5039 28.021 48.2677V24.8921Z" fill="#52576A"/>
<path d="M45.3982 50.3622C44.8421 50.3616 44.309 50.1404 43.9158 49.7472C43.5226 49.354 43.3014 48.8208 43.3008 48.2647V24.892C43.3008 24.8125 43.3324 24.7363 43.3886 24.6801C43.4448 24.6239 43.521 24.5923 43.6005 24.5923H47.1965C47.2759 24.5924 47.352 24.6241 47.4081 24.6803C47.4642 24.7365 47.4957 24.8126 47.4957 24.892V48.2677C47.4944 48.8233 47.273 49.3558 46.8798 49.7484C46.4866 50.141 45.9539 50.3617 45.3982 50.3622ZM43.9026 25.19V48.2677C43.8986 48.4669 43.9345 48.6649 44.008 48.8502C44.0815 49.0354 44.1913 49.2041 44.3308 49.3464C44.4703 49.4887 44.6368 49.6017 44.8205 49.6789C45.0043 49.7561 45.2016 49.7958 45.4009 49.7958C45.6001 49.7958 45.7974 49.7561 45.9812 49.6789C46.1649 49.6017 46.3314 49.4887 46.4709 49.3464C46.6104 49.2041 46.7202 49.0354 46.7937 48.8502C46.8672 48.6649 46.9031 48.4669 46.8991 48.2677V25.19H43.9026Z" fill="#282C3F"/>
<path d="M45.4005 47.8146C45.6486 47.8146 45.8497 47.6134 45.8497 47.3653C45.8497 47.1172 45.6486 46.916 45.4005 46.916C45.1523 46.916 44.9512 47.1172 44.9512 47.3653C44.9512 47.6134 45.1523 47.8146 45.4005 47.8146Z" fill="white"/>
<path d="M45.4005 45.7169C45.6486 45.7169 45.8497 45.5158 45.8497 45.2676C45.8497 45.0195 45.6486 44.8184 45.4005 44.8184C45.1523 44.8184 44.9512 45.0195 44.9512 45.2676C44.9512 45.5158 45.1523 45.7169 45.4005 45.7169Z" fill="white"/>
<path d="M45.4005 39.7247C45.6486 39.7247 45.8497 39.5236 45.8497 39.2755C45.8497 39.0273 45.6486 38.8262 45.4005 38.8262C45.1523 38.8262 44.9512 39.0273 44.9512 39.2755C44.9512 39.5236 45.1523 39.7247 45.4005 39.7247Z" fill="white"/>
<path d="M45.4005 37.6271C45.6486 37.6271 45.8497 37.4259 45.8497 37.1778C45.8497 36.9297 45.6486 36.7285 45.4005 36.7285C45.1523 36.7285 44.9512 36.9297 44.9512 37.1778C44.9512 37.4259 45.1523 37.6271 45.4005 37.6271Z" fill="white"/>
<path d="M45.4005 35.5289C45.6486 35.5289 45.8497 35.3278 45.8497 35.0797C45.8497 34.8315 45.6486 34.6304 45.4005 34.6304C45.1523 34.6304 44.9512 34.8315 44.9512 35.0797C44.9512 35.3278 45.1523 35.5289 45.4005 35.5289Z" fill="white"/>
<path d="M26.2234 50.3622C25.6678 50.3617 25.135 50.141 24.7418 49.7484C24.3487 49.3558 24.1272 48.8233 24.126 48.2677V24.892C24.126 24.8126 24.1575 24.7365 24.2136 24.6803C24.2696 24.6241 24.3457 24.5924 24.4251 24.5923H28.0211C28.1006 24.5923 28.1769 24.6239 28.2331 24.6801C28.2893 24.7363 28.3209 24.8125 28.3209 24.892V48.2677C28.3195 48.8232 28.0979 49.3556 27.7048 49.7482C27.3117 50.1408 26.779 50.3616 26.2234 50.3622ZM24.7248 25.19V48.2677C24.7209 48.4669 24.7567 48.6649 24.8303 48.8502C24.9038 49.0354 25.0135 49.2041 25.1531 49.3464C25.2926 49.4887 25.4591 49.6017 25.6428 49.6789C25.8266 49.7561 26.0238 49.7958 26.2231 49.7958C26.4224 49.7958 26.6197 49.7561 26.8034 49.6789C26.9872 49.6017 27.1537 49.4887 27.2932 49.3464C27.4327 49.2041 27.5425 49.0354 27.616 48.8502C27.6895 48.6649 27.7254 48.4669 27.7214 48.2677V25.19H24.7248Z" fill="#282C3F"/>
<path d="M28.0213 57.5537H24.4241C24.3448 57.5537 24.2687 57.5221 24.2126 57.466C24.1565 57.4099 24.125 57.3339 24.125 57.2545V24.892C24.125 24.8126 24.1565 24.7365 24.2126 24.6803C24.2687 24.6241 24.3447 24.5924 24.4241 24.5923H28.0202C28.0997 24.5923 28.1759 24.6239 28.2321 24.6801C28.2883 24.7363 28.3199 24.8125 28.3199 24.892V57.2545C28.3197 57.3337 28.2882 57.4096 28.2323 57.4657C28.1764 57.5217 28.1005 57.5533 28.0213 57.5537ZM24.725 56.9548H27.7216V25.19H24.725V56.9548Z" fill="#282C3F"/>
<path d="M26.2237 47.8146C26.4718 47.8146 26.673 47.6134 26.673 47.3653C26.673 47.1172 26.4718 46.916 26.2237 46.916C25.9756 46.916 25.7744 47.1172 25.7744 47.3653C25.7744 47.6134 25.9756 47.8146 26.2237 47.8146Z" fill="white"/>
<path d="M26.2237 45.7169C26.4718 45.7169 26.673 45.5158 26.673 45.2676C26.673 45.0195 26.4718 44.8184 26.2237 44.8184C25.9756 44.8184 25.7744 45.0195 25.7744 45.2676C25.7744 45.5158 25.9756 45.7169 26.2237 45.7169Z" fill="white"/>
<path d="M26.2237 39.7247C26.4718 39.7247 26.673 39.5236 26.673 39.2755C26.673 39.0273 26.4718 38.8262 26.2237 38.8262C25.9756 38.8262 25.7744 39.0273 25.7744 39.2755C25.7744 39.5236 25.9756 39.7247 26.2237 39.7247Z" fill="white"/>
<path d="M26.2237 37.6271C26.4718 37.6271 26.673 37.4259 26.673 37.1778C26.673 36.9297 26.4718 36.7285 26.2237 36.7285C25.9756 36.7285 25.7744 36.9297 25.7744 37.1778C25.7744 37.4259 25.9756 37.6271 26.2237 37.6271Z" fill="white"/>
<path d="M26.2237 35.5289C26.4718 35.5289 26.673 35.3278 26.673 35.0797C26.673 34.8315 26.4718 34.6304 26.2237 34.6304C25.9756 34.6304 25.7744 34.8315 25.7744 35.0797C25.7744 35.3278 25.9756 35.5289 26.2237 35.5289Z" fill="white"/>
<path d="M47.4985 41.0732H43.3036C43.1381 41.0732 43.0039 41.2074 43.0039 41.373V43.1707C43.0039 43.3362 43.1381 43.4704 43.3036 43.4704H47.4985C47.664 43.4704 47.7982 43.3362 47.7982 43.1707V41.373C47.7982 41.2074 47.664 41.0732 47.4985 41.0732Z" fill="#A09CAD"/>
<path d="M28.3208 41.0732H24.1259C23.9604 41.0732 23.8262 41.2074 23.8262 41.373V43.1707C23.8262 43.3362 23.9604 43.4704 24.1259 43.4704H28.3208C28.4863 43.4704 28.6205 43.3362 28.6205 43.1707V41.373C28.6205 41.2074 28.4863 41.0732 28.3208 41.0732Z" fill="#A09CAD"/>
<path d="M47.4985 41.0732H43.3036C43.1381 41.0732 43.0039 41.2074 43.0039 41.373V41.9724C43.0039 42.1379 43.1381 42.2721 43.3036 42.2721H47.4985C47.664 42.2721 47.7982 42.1379 47.7982 41.9724V41.373C47.7982 41.2074 47.664 41.0732 47.4985 41.0732Z" fill="#B8B5C6"/>
<path d="M28.3208 41.0732H24.1259C23.9604 41.0732 23.8262 41.2074 23.8262 41.373V41.9724C23.8262 42.1379 23.9604 42.2721 24.1259 42.2721H28.3208C28.4863 42.2721 28.6205 42.1379 28.6205 41.9724V41.373C28.6205 41.2074 28.4863 41.0732 28.3208 41.0732Z" fill="#B8B5C6"/>
<path d="M28.3207 43.7688H24.1258C23.9669 43.7686 23.8145 43.7054 23.7021 43.593C23.5897 43.4806 23.5265 43.3283 23.5264 43.1693V41.3734C23.5265 41.2144 23.5897 41.0621 23.7021 40.9497C23.8145 40.8373 23.9669 40.7741 24.1258 40.7739H28.3207C28.3996 40.7737 28.4777 40.789 28.5507 40.819C28.6237 40.8491 28.69 40.8932 28.7459 40.9488C28.8018 41.0045 28.8462 41.0707 28.8764 41.1435C28.9067 41.2164 28.9224 41.2945 28.9225 41.3734V43.1711C28.9218 43.3301 28.8581 43.4824 28.7453 43.5945C28.6324 43.7065 28.4797 43.7692 28.3207 43.7688ZM24.1258 41.3734V43.1711H28.3207V41.3734H24.1258Z" fill="#282C3F"/>
<path d="M47.4984 43.7688H43.3035C43.1446 43.7686 42.9922 43.7054 42.8798 43.593C42.7675 43.4806 42.7043 43.3283 42.7041 43.1693V41.3734C42.7043 41.2144 42.7675 41.062 42.8798 40.9497C42.9922 40.8373 43.1446 40.7741 43.3035 40.7739H47.4984C47.6574 40.7741 47.8097 40.8373 47.9221 40.9497C48.0345 41.062 48.0977 41.2144 48.0979 41.3734V43.1711C48.0972 43.3297 48.0338 43.4816 47.9215 43.5936C47.8092 43.7057 47.657 43.7686 47.4984 43.7688ZM43.3035 41.3734V43.1711H47.4984V41.3734H43.3035Z" fill="#282C3F"/>
<path d="M27.0673 34.9302H13.1073C13.1073 35.4302 13.0088 35.9252 12.8175 36.3872C12.6261 36.8491 12.3457 37.2688 11.9921 37.6223C11.6385 37.9758 11.2188 38.2562 10.7568 38.4475C10.2949 38.6388 9.79979 38.7372 9.2998 38.7371V53.7195L20.0873 60.7001L30.8742 53.7195V38.7371C29.8646 38.7371 28.8963 38.336 28.1823 37.6221C27.4684 36.9082 27.0673 35.9398 27.0673 34.9302Z" fill="#52576A"/>
<path d="M27.0669 34.9302H20.0869V60.7001L30.8738 53.7195V38.7371C29.8642 38.7371 28.8959 38.336 28.1819 37.6221C27.468 36.9082 27.0669 35.9398 27.0669 34.9302Z" fill="#30354C"/>
<path d="M28.1774 40.847C26.7523 40.1937 25.6091 39.0506 24.9558 37.6255H15.2176C14.564 39.0503 13.4209 40.1934 11.9961 40.847V48.5789L28.1797 41.8069L28.1774 40.847Z" fill="#EDEDED"/>
<path d="M11.9961 52.347L20.0867 57.3639L28.1774 52.347V44.6128L11.9961 51.3848V52.347Z" fill="#EDEDED"/>
<path d="M20.1107 37.6274H15.2176C14.5638 39.0518 13.4207 40.1945 11.9961 40.8478V48.5797L20.1107 45.1841V37.6274Z" fill="white"/>
<path d="M11.9961 52.3471L20.0867 57.3641L20.1107 47.9893L11.9961 51.3849V52.3471Z" fill="white"/>
<path d="M20.8422 52.9089H19.6434C18.9282 52.9083 18.2425 52.624 17.7366 52.1184C17.2308 51.6128 16.9462 50.9272 16.9453 50.212C16.9453 49.9736 17.04 49.7449 17.2087 49.5762C17.3773 49.4076 17.606 49.3129 17.8445 49.3129C18.0829 49.3129 18.3116 49.4076 18.4803 49.5762C18.6489 49.7449 18.7436 49.9736 18.7436 50.212C18.7439 50.4503 18.8387 50.6786 19.0071 50.8471C19.1756 51.0155 19.404 51.1103 19.6422 51.1106H20.8422C21.0805 51.1103 21.3089 51.0155 21.4775 50.8471C21.646 50.6787 21.7409 50.4503 21.7414 50.212V49.0132C21.7409 48.7749 21.646 48.5465 21.4775 48.3781C21.3089 48.2097 21.0805 48.1149 20.8422 48.1146H19.6434C18.9282 48.114 18.2425 47.8297 17.7366 47.3241C17.2308 46.8185 16.9462 46.1329 16.9453 45.4177V44.2189C16.9462 43.5039 17.2307 42.8185 17.7362 42.3129C18.2418 41.8073 18.9272 41.5229 19.6422 41.522H20.8422C21.5572 41.5229 22.2426 41.8073 22.7482 42.3129C23.2537 42.8185 23.5382 43.5039 23.5391 44.2189C23.5422 44.3388 23.5212 44.4582 23.4774 44.5699C23.4336 44.6816 23.3679 44.7835 23.2841 44.8694C23.2003 44.9553 23.1002 45.0236 22.9896 45.0703C22.879 45.1169 22.7603 45.1409 22.6402 45.1409C22.5202 45.1409 22.4014 45.1169 22.2909 45.0703C22.1803 45.0236 22.0802 44.9553 21.9964 44.8694C21.9126 44.7835 21.8469 44.6816 21.8031 44.5699C21.7593 44.4582 21.7383 44.3388 21.7414 44.2189C21.7409 43.9806 21.646 43.7522 21.4775 43.5838C21.3089 43.4153 21.0805 43.3206 20.8422 43.3203H19.6434C19.4051 43.3206 19.1768 43.4154 19.0083 43.5838C18.8399 43.7523 18.7451 43.9806 18.7448 44.2189V45.4177C18.7451 45.6559 18.8399 45.8843 19.0083 46.0528C19.1768 46.2212 19.4051 46.316 19.6434 46.3163H20.8422C21.5572 46.3172 22.2426 46.6016 22.7482 47.1072C23.2537 47.6128 23.5382 48.2982 23.5391 49.0132V50.212C23.5382 50.927 23.2537 51.6124 22.7482 52.118C22.2426 52.6236 21.5572 52.908 20.8422 52.9089Z" fill="#2CAAE6"/>
<path d="M20.2436 43.3209C20.1255 43.3209 20.0086 43.2976 19.8996 43.2525C19.7905 43.2073 19.6914 43.141 19.608 43.0575C19.5245 42.974 19.4584 42.8749 19.4133 42.7658C19.3681 42.6567 19.3449 42.5398 19.345 42.4218V40.322C19.342 40.202 19.3629 40.0826 19.4067 39.9709C19.4505 39.8592 19.5163 39.7573 19.6 39.6714C19.6838 39.5855 19.7839 39.5172 19.8945 39.4706C20.0051 39.4239 20.1239 39.3999 20.2439 39.3999C20.3639 39.3999 20.4827 39.4239 20.5933 39.4706C20.7038 39.5172 20.804 39.5855 20.8877 39.6714C20.9715 39.7573 21.0372 39.8592 21.081 39.9709C21.1248 40.0826 21.1458 40.202 21.1427 40.322V42.4194C21.143 42.5377 21.12 42.6549 21.075 42.7642C21.0299 42.8736 20.9637 42.973 20.8802 43.0567C20.7967 43.1405 20.6975 43.2069 20.5882 43.2522C20.479 43.2976 20.3619 43.3209 20.2436 43.3209Z" fill="#2CAAE6"/>
<path d="M20.2436 55.0067C20.0056 55.0067 19.7773 54.9122 19.6088 54.7441C19.4404 54.576 19.3455 54.3479 19.345 54.1098V52.0124C19.342 51.8924 19.3629 51.7731 19.4067 51.6613C19.4505 51.5496 19.5163 51.4478 19.6 51.3618C19.6838 51.2759 19.7839 51.2076 19.8945 51.161C20.0051 51.1144 20.1239 51.0903 20.2439 51.0903C20.3639 51.0903 20.4827 51.1144 20.5933 51.161C20.7038 51.2076 20.804 51.2759 20.8877 51.3618C20.9715 51.4478 21.0372 51.5496 21.081 51.6613C21.1248 51.7731 21.1458 51.8924 21.1427 52.0124V54.1098C21.1421 54.3479 21.0471 54.576 20.8786 54.7441C20.71 54.9122 20.4817 55.0067 20.2436 55.0067Z" fill="#2CAAE6"/>
<path d="M20.0872 60.9998C20.0294 60.9997 19.9727 60.9828 19.9242 60.9513L9.13671 53.9713C9.09472 53.9442 9.0602 53.907 9.03631 53.8632C9.01243 53.8193 8.99994 53.7701 9 53.7201V44.2191C9 44.1396 9.03158 44.0634 9.08779 44.0072C9.14399 43.951 9.22023 43.9194 9.29972 43.9194C9.37921 43.9194 9.45544 43.951 9.51165 44.0072C9.56786 44.0634 9.59944 44.1396 9.59944 44.2191V53.5571L20.0872 60.3431L30.575 53.5571V39.0263C29.592 38.9533 28.668 38.5298 27.971 37.8328C27.274 37.1358 26.8504 36.2117 26.7774 35.2287H13.3982C13.3253 36.2118 12.9018 37.1359 12.2048 37.8329C11.5078 38.5299 10.5836 38.9534 9.6006 39.0263V42.4214C9.6006 42.5009 9.56903 42.5771 9.51282 42.6333C9.45661 42.6895 9.38038 42.7211 9.30089 42.7211C9.2214 42.7211 9.14516 42.6895 9.08895 42.6333C9.03275 42.5771 9.00117 42.5009 9.00117 42.4214V38.7377C9.00117 38.6582 9.03275 38.582 9.08895 38.5258C9.14516 38.4696 9.2214 38.438 9.30089 38.438C10.23 38.4361 11.1206 38.0662 11.7776 37.4092C12.4346 36.7522 12.8045 35.8617 12.8064 34.9325C12.8064 34.853 12.8379 34.7768 12.8941 34.7206C12.9504 34.6644 13.0266 34.6328 13.1061 34.6328H27.0672C27.1467 34.6328 27.2229 34.6644 27.2791 34.7206C27.3353 34.7768 27.3669 34.853 27.3669 34.9325C27.3686 35.8617 27.7385 36.7524 28.3955 37.4094C29.0526 38.0664 29.9432 38.4363 30.8724 38.438C30.9118 38.4379 30.9508 38.4456 30.9872 38.4607C31.0236 38.4757 31.0566 38.4978 31.0845 38.5256C31.1123 38.5535 31.1344 38.5865 31.1495 38.6229C31.1645 38.6593 31.1722 38.6983 31.1721 38.7377V53.7201C31.1722 53.7701 31.1597 53.8193 31.1358 53.8632C31.1119 53.907 31.0774 53.9442 31.0354 53.9713L20.2496 60.9513C20.2014 60.9829 20.1449 60.9998 20.0872 60.9998Z" fill="#282C3F"/>
<path d="M11.997 48.8791C11.9175 48.8791 11.8413 48.8476 11.7851 48.7914C11.7288 48.7351 11.6973 48.6589 11.6973 48.5794V40.8475C11.6973 40.79 11.7138 40.7338 11.7449 40.6854C11.776 40.637 11.8203 40.5986 11.8725 40.5747C13.2331 39.9524 14.3244 38.8614 14.9468 37.501C14.9706 37.4487 15.0089 37.4044 15.0572 37.3733C15.1055 37.3422 15.1617 37.3257 15.2191 37.3257H24.9567C25.0141 37.3258 25.0702 37.3424 25.1185 37.3735C25.1667 37.4045 25.2051 37.4488 25.229 37.501C25.8512 38.8614 26.9423 39.9524 28.3027 40.5747C28.355 40.5986 28.3993 40.637 28.4303 40.6854C28.4614 40.7338 28.4779 40.79 28.478 40.8475V41.8063C28.478 41.8653 28.4606 41.923 28.4279 41.9721C28.3953 42.0213 28.3489 42.0597 28.2945 42.0826L12.1109 48.8546C12.0749 48.8702 12.0362 48.8786 11.997 48.8791ZM12.2967 41.038V48.1295L27.8785 41.607V41.0368C26.5268 40.3712 25.4329 39.2777 24.7668 37.9263H15.4078C14.7421 39.2781 13.6484 40.372 12.2967 41.038Z" fill="#282C3F"/>
<path d="M20.0876 57.6635C20.0317 57.6637 19.9768 57.6481 19.9293 57.6185L11.8392 52.6016C11.7958 52.5748 11.76 52.5373 11.7351 52.4927C11.7103 52.4481 11.6972 52.3979 11.6973 52.3469V51.3846C11.6972 51.3256 11.7147 51.2678 11.7474 51.2186C11.7802 51.1694 11.8268 51.131 11.8813 51.1083L28.0649 44.3357C28.1105 44.3167 28.1601 44.3091 28.2093 44.3139C28.2585 44.3186 28.3057 44.3354 28.3468 44.3628C28.3879 44.3902 28.4217 44.4274 28.4449 44.471C28.4682 44.5146 28.4804 44.5632 28.4803 44.6127V52.3469C28.4805 52.3979 28.4675 52.4481 28.4428 52.4927C28.418 52.5373 28.3823 52.5748 28.3389 52.6016L20.2454 57.6185C20.198 57.6481 20.1434 57.6636 20.0876 57.6635ZM12.2967 52.1816L20.0876 57.0127L27.8785 52.1816V45.0625L12.2967 51.5839V52.1816Z" fill="#282C3F"/>
<path d="M20.0869 45.5186L20.1108 47.6639L17.2907 48.8441L16.9033 46.8506L20.0869 45.5186Z" fill="#52576A"/>
<path d="M20.1109 47.6637L20.0869 45.5183L23.7548 43.9829L23.822 46.1101L20.1109 47.6637Z" fill="#30354C"/>
</svg>
