<svg width="71" height="71" viewBox="0 0 71 71" fill="none" xmlns="http://www.w3.org/2000/svg">
<path d="M57.178 25.6858C55.3174 21.3459 56.682 14.1522 52.902 11.3163C49.2354 8.56671 42.7635 11.8283 37.8862 11.2413C33.0089 10.6543 27.4956 5.94992 23.2823 7.75133C18.9357 9.61051 18.549 16.9211 15.7084 20.6946C12.9544 24.3518 5.97516 26.7044 5.3885 31.5741C4.80184 36.4438 11.0184 40.3833 12.8224 44.5884C14.6831 48.9282 13.3184 56.1219 17.0984 58.9585C20.765 61.7075 27.237 58.4459 32.1142 59.0329C36.9915 59.6199 42.5048 64.3243 46.7181 62.5228C51.0647 60.6637 51.4514 53.3531 54.292 49.5796C57.046 45.9217 64.0253 43.5698 64.6119 38.7001C65.1986 33.8303 58.982 29.8922 57.178 25.6858Z" fill="#F6F6F6"/>
<path d="M64.6508 63.2802H5.34872C5.2588 63.2762 5.17387 63.2379 5.11163 63.1732C5.04939 63.1084 5.01465 63.0222 5.01465 62.9326C5.01465 62.8429 5.04939 62.7567 5.11163 62.692C5.17387 62.6272 5.2588 62.5889 5.34872 62.585H64.6508C64.7407 62.5889 64.8257 62.6272 64.8879 62.692C64.9502 62.7567 64.9849 62.8429 64.9849 62.9326C64.9849 63.0222 64.9502 63.1084 64.8879 63.1732C64.8257 63.2379 64.7407 63.2762 64.6508 63.2802Z" fill="#989AA6"/>
<path d="M57.6742 63.2802H12.3253C12.2354 63.2762 12.1504 63.2379 12.0882 63.1732C12.026 63.1084 11.9912 63.0222 11.9912 62.9326C11.9912 62.8429 12.026 62.7567 12.0882 62.692C12.1504 62.6272 12.2354 62.5889 12.3253 62.585H57.6742C57.7641 62.5889 57.849 62.6272 57.9113 62.692C57.9735 62.7567 58.0083 62.8429 58.0083 62.9326C58.0083 63.0222 57.9735 63.1084 57.9113 63.1732C57.849 63.2379 57.7641 63.2762 57.6742 63.2802Z" fill="#282C3F"/>
<path d="M54.8838 62.9333H15.1162V38.4923L35 22.7065L54.8838 38.4923V62.9333Z" fill="#EDEDED"/>
<path d="M51.0465 59.111L15.1162 60.8481V39.5345L35 25.833L51.0465 38.492V59.111Z" fill="white"/>
<path d="M54.8835 55.6368C54.8377 55.6369 54.7922 55.6279 54.7499 55.6105C54.7075 55.5931 54.669 55.5675 54.6365 55.5353C54.6041 55.503 54.5783 55.4647 54.5608 55.4225C54.5432 55.3804 54.5342 55.3352 54.5342 55.2895V38.6571L34.9997 23.1509L15.4665 38.6571V43.4737C15.4626 43.5633 15.4241 43.6479 15.3591 43.7099C15.2941 43.7719 15.2076 43.8065 15.1176 43.8065C15.0275 43.8065 14.941 43.7719 14.876 43.7099C14.811 43.6479 14.7725 43.5633 14.7686 43.4737V38.4925C14.7689 38.4401 14.7811 38.3886 14.8042 38.3416C14.8273 38.2945 14.8607 38.2533 14.9019 38.2209L34.7824 22.4351C34.8441 22.3861 34.9207 22.3594 34.9997 22.3594C35.0787 22.3594 35.1553 22.3861 35.217 22.4351L55.1008 38.2209C55.1421 38.2533 55.1755 38.2945 55.1985 38.3416C55.2216 38.3886 55.2338 38.4401 55.2342 38.4925V55.2915C55.2339 55.3371 55.2246 55.3822 55.2069 55.4242C55.1891 55.4663 55.1632 55.5044 55.1306 55.5365C55.0981 55.5685 55.0595 55.5939 55.0171 55.6111C54.9747 55.6283 54.9293 55.637 54.8835 55.6368Z" fill="#282C3F"/>
<path d="M54.8839 63.2806H15.1162C15.0704 63.2806 15.025 63.2716 14.9827 63.2541C14.9403 63.2366 14.9018 63.211 14.8695 63.1787C14.8371 63.1464 14.8114 63.108 14.7939 63.0658C14.7764 63.0236 14.7675 62.9784 14.7676 62.9327V45.5626C14.7676 45.4703 14.8044 45.3817 14.87 45.3164C14.9356 45.251 15.0245 45.2144 15.1172 45.2144C15.21 45.2144 15.2989 45.251 15.3645 45.3164C15.4301 45.3817 15.4669 45.4703 15.4669 45.5626V62.5854H54.5332V57.3737C54.5371 57.2842 54.5756 57.1996 54.6406 57.1376C54.7056 57.0756 54.7922 57.041 54.8822 57.041C54.9722 57.041 55.0587 57.0756 55.1237 57.1376C55.1888 57.1996 55.2273 57.2842 55.2312 57.3737V62.9327C55.2314 63.0247 55.1949 63.113 55.1298 63.1782C55.0647 63.2434 54.9762 63.2803 54.8839 63.2806Z" fill="#282C3F"/>
<path d="M12.3252 40.7079L34.9996 22.7064L57.6741 40.7079V35.7672L34.9996 17.7656L12.3252 35.7672V40.7079Z" fill="#2FC8F2"/>
<path d="M12.3252 40.708L34.9996 22.7064L57.6741 40.708V36.4624L34.9996 19.8506L12.3252 38.5473V40.708Z" fill="#2CAAE6"/>
<path d="M57.6741 41.0553C57.5952 41.0554 57.5185 41.0287 57.4568 40.9796L34.9997 23.1507L12.5426 40.981C12.4913 41.022 12.4295 41.0477 12.3642 41.0551C12.2988 41.0626 12.2328 41.0515 12.1735 41.023C12.1143 40.9946 12.0644 40.9501 12.0295 40.8946C11.9947 40.8391 11.9763 40.7749 11.9766 40.7094V35.7673C11.9769 35.7149 11.9891 35.6634 12.0121 35.6163C12.0352 35.5693 12.0686 35.5281 12.1099 35.4957L34.7823 17.4942C34.8441 17.4452 34.9207 17.4185 34.9997 17.4185C35.0786 17.4185 35.1553 17.4452 35.217 17.4942L42.0836 22.9449C42.1559 23.0024 42.2023 23.0862 42.2127 23.1777C42.223 23.2693 42.1963 23.3612 42.1386 23.4333C42.0809 23.5053 41.9968 23.5515 41.9048 23.5618C41.8129 23.5721 41.7206 23.5455 41.6483 23.488L34.9997 18.21L12.6746 35.9346V39.985L34.7823 22.435C34.8441 22.3859 34.9207 22.3592 34.9997 22.3592C35.0786 22.3592 35.1553 22.3859 35.217 22.435L57.3248 39.985V35.9346L43.4723 24.9369C43.4364 24.9085 43.4065 24.8733 43.3843 24.8333C43.3621 24.7934 43.348 24.7495 43.3429 24.7042C43.3377 24.6588 43.3416 24.6129 43.3542 24.569C43.3669 24.5252 43.3881 24.4842 43.4166 24.4485C43.4451 24.4128 43.4805 24.383 43.5205 24.3609C43.5606 24.3388 43.6047 24.3248 43.6502 24.3196C43.6958 24.3145 43.7419 24.3183 43.7859 24.3309C43.83 24.3435 43.8711 24.3646 43.9069 24.3931L57.8915 35.4957C57.9327 35.5281 57.9661 35.5693 57.9892 35.6163C58.0123 35.6634 58.0245 35.7149 58.0248 35.7673V40.7081C58.0249 40.7537 58.0159 40.7989 57.9984 40.8411C57.9809 40.8832 57.9553 40.9215 57.9229 40.9538C57.8905 40.9861 57.852 41.0116 57.8097 41.0291C57.7673 41.0465 57.7219 41.0554 57.6761 41.0553H57.6741Z" fill="#282C3F"/>
<path d="M62.209 43.8295C62.1632 43.8295 62.1178 43.8206 62.0755 43.8032C62.0331 43.7857 61.9947 43.7601 61.9623 43.7279L60.9156 42.6854C60.8502 42.6202 60.8135 42.5319 60.8135 42.4397C60.8135 42.3476 60.8502 42.2592 60.9156 42.194C60.9811 42.1289 61.0698 42.0923 61.1623 42.0923C61.2548 42.0923 61.3436 42.1289 61.409 42.194L62.4556 43.2365C62.5044 43.2851 62.5377 43.347 62.5512 43.4144C62.5646 43.4818 62.5577 43.5516 62.5313 43.6151C62.5049 43.6786 62.4602 43.7329 62.4028 43.771C62.3454 43.8092 62.278 43.8295 62.209 43.8295Z" fill="#989AA6"/>
<path d="M64.6514 46.2616C64.6055 46.2617 64.5602 46.2527 64.5179 46.2353C64.4755 46.2179 64.4371 46.1923 64.4047 46.16L63.358 45.1175C63.3256 45.0853 63.2999 45.047 63.2824 45.0048C63.2649 44.9627 63.2559 44.9175 63.2559 44.8719C63.2559 44.8262 63.2649 44.781 63.2824 44.7389C63.2999 44.6967 63.3256 44.6584 63.358 44.6262C63.3904 44.5939 63.4289 44.5683 63.4712 44.5509C63.5135 44.5334 63.5589 44.5244 63.6047 44.5244C63.6505 44.5244 63.6959 44.5334 63.7382 44.5509C63.7805 44.5683 63.819 44.5939 63.8514 44.6262L64.898 45.6686C64.9468 45.7172 64.9801 45.7791 64.9935 45.8465C65.007 45.9139 65.0001 45.9838 64.9737 46.0473C64.9473 46.1107 64.9026 46.165 64.8452 46.2031C64.7878 46.2413 64.7203 46.2616 64.6514 46.2616Z" fill="#989AA6"/>
<path d="M61.1624 46.2616C61.0934 46.2616 61.0259 46.2413 60.9686 46.2031C60.9112 46.165 60.8664 46.1107 60.84 46.0473C60.8136 45.9838 60.8067 45.9139 60.8202 45.8465C60.8337 45.7791 60.8669 45.7172 60.9157 45.6686L61.9624 44.6262C61.9948 44.5939 62.0332 44.5683 62.0755 44.5509C62.1179 44.5334 62.1632 44.5244 62.209 44.5244C62.2549 44.5244 62.3002 44.5334 62.3425 44.5509C62.3849 44.5683 62.4233 44.5939 62.4557 44.6262C62.4881 44.6584 62.5138 44.6967 62.5313 44.7389C62.5489 44.781 62.5579 44.8262 62.5579 44.8719C62.5579 44.9175 62.5489 44.9627 62.5313 45.0048C62.5138 45.047 62.4881 45.0853 62.4557 45.1175L61.4091 46.16C61.3767 46.1923 61.3382 46.2179 61.2959 46.2353C61.2536 46.2527 61.2082 46.2617 61.1624 46.2616Z" fill="#989AA6"/>
<path d="M63.6038 43.8295C63.5348 43.8295 63.4673 43.8092 63.41 43.771C63.3526 43.7329 63.3078 43.6786 63.2814 43.6151C63.255 43.5516 63.2481 43.4818 63.2616 43.4144C63.2751 43.347 63.3083 43.2851 63.3571 43.2365L64.4038 42.194C64.4692 42.1289 64.5579 42.0923 64.6504 42.0923C64.743 42.0923 64.8317 42.1289 64.8971 42.194C64.9625 42.2592 64.9993 42.3476 64.9993 42.4397C64.9993 42.5319 64.9625 42.6202 64.8971 42.6854L63.8505 43.7279C63.8181 43.7601 63.7796 43.7857 63.7373 43.8032C63.695 43.8206 63.6496 43.8295 63.6038 43.8295Z" fill="#989AA6"/>
<path d="M43.3721 14.0731C43.3262 14.0731 43.2808 14.064 43.2385 14.0465C43.1962 14.0289 43.1577 14.0032 43.1254 13.9709L42.0787 12.9291C42.0133 12.8639 41.9766 12.7755 41.9766 12.6834C41.9766 12.5912 42.0133 12.5029 42.0787 12.4377C42.1442 12.3725 42.2329 12.3359 42.3254 12.3359C42.4179 12.3359 42.5066 12.3725 42.5721 12.4377L43.6187 13.4795C43.6674 13.5282 43.7006 13.5901 43.714 13.6575C43.7274 13.7249 43.7205 13.7947 43.6941 13.8582C43.6678 13.9217 43.6231 13.976 43.5658 14.0143C43.5084 14.0525 43.441 14.073 43.3721 14.0731Z" fill="#989AA6"/>
<path d="M45.8144 16.5048C45.7686 16.5048 45.7233 16.4959 45.6809 16.4785C45.6386 16.461 45.6002 16.4354 45.5678 16.4032L44.5211 15.3607C44.4887 15.3284 44.463 15.2901 44.4455 15.248C44.428 15.2058 44.4189 15.1606 44.4189 15.115C44.4189 15.0694 44.428 15.0242 44.4455 14.9821C44.463 14.9399 44.4887 14.9016 44.5211 14.8693C44.5535 14.8371 44.592 14.8115 44.6343 14.794C44.6766 14.7766 44.722 14.7676 44.7678 14.7676C44.8136 14.7676 44.859 14.7766 44.9013 14.794C44.9436 14.8115 44.9821 14.8371 45.0144 14.8693L46.0611 15.9118C46.1099 15.9604 46.1432 16.0223 46.1566 16.0897C46.1701 16.1571 46.1632 16.2269 46.1368 16.2904C46.1104 16.3539 46.0657 16.4082 46.0083 16.4463C45.9509 16.4845 45.8834 16.5048 45.8144 16.5048Z" fill="#989AA6"/>
<path d="M42.3255 16.5048C42.2565 16.5048 42.189 16.4845 42.1316 16.4463C42.0743 16.4082 42.0295 16.3539 42.0031 16.2904C41.9767 16.2269 41.9698 16.1571 41.9833 16.0897C41.9967 16.0223 42.03 15.9604 42.0788 15.9118L43.1255 14.8693C43.1909 14.8042 43.2796 14.7676 43.3721 14.7676C43.4646 14.7676 43.5534 14.8042 43.6188 14.8693C43.6842 14.9345 43.721 15.0229 43.721 15.115C43.721 15.2072 43.6842 15.2955 43.6188 15.3607L42.5721 16.4032C42.5398 16.4354 42.5013 16.461 42.459 16.4785C42.4166 16.4959 42.3713 16.5048 42.3255 16.5048Z" fill="#989AA6"/>
<path d="M44.7676 14.0731C44.6986 14.073 44.6312 14.0525 44.5739 14.0143C44.5165 13.976 44.4719 13.9217 44.4455 13.8582C44.4191 13.7947 44.4122 13.7249 44.4256 13.6575C44.439 13.5901 44.4722 13.5282 44.5209 13.4795L45.5676 12.4377C45.6 12.4054 45.6384 12.3798 45.6807 12.3624C45.7231 12.3449 45.7684 12.3359 45.8142 12.3359C45.86 12.3359 45.9054 12.3449 45.9477 12.3624C45.9901 12.3798 46.0285 12.4054 46.0609 12.4377C46.0933 12.47 46.119 12.5083 46.1365 12.5504C46.1541 12.5926 46.1631 12.6378 46.1631 12.6834C46.1631 12.729 46.1541 12.7742 46.1365 12.8163C46.119 12.8585 46.0933 12.8968 46.0609 12.9291L45.0142 13.9709C44.9819 14.0032 44.9435 14.0289 44.9011 14.0465C44.8588 14.064 44.8134 14.0731 44.7676 14.0731Z" fill="#989AA6"/>
<path d="M54.8838 21.9407C54.8379 21.9407 54.7925 21.9318 54.7501 21.9142C54.7078 21.8966 54.6694 21.8709 54.6371 21.8384L53.5905 20.7953C53.525 20.7301 53.4883 20.6417 53.4883 20.5496C53.4883 20.4574 53.525 20.3691 53.5905 20.3039C53.6559 20.2388 53.7446 20.2021 53.8371 20.2021C53.9296 20.2021 54.0184 20.2388 54.0838 20.3039L55.1304 21.3464C55.1789 21.3951 55.2119 21.4569 55.2252 21.5242C55.2385 21.5915 55.2315 21.6612 55.2051 21.7246C55.1788 21.7879 55.1342 21.8421 55.077 21.8803C55.0199 21.9185 54.9526 21.9391 54.8838 21.9393V21.9407Z" fill="#989AA6"/>
<path d="M57.3255 24.3733C57.2329 24.3731 57.1442 24.3363 57.0789 24.271L56.0329 23.2286C55.9696 23.163 55.9346 23.0753 55.9356 22.9844C55.9365 22.8934 55.9732 22.8064 56.0378 22.7422C56.1025 22.6779 56.1898 22.6414 56.2811 22.6406C56.3725 22.6398 56.4604 22.6748 56.5262 22.7379L57.5722 23.7797C57.6209 23.8283 57.6541 23.8903 57.6675 23.9577C57.6809 24.0251 57.674 24.0949 57.6476 24.1584C57.6212 24.2219 57.5765 24.2762 57.5192 24.3144C57.4619 24.3527 57.3945 24.3732 57.3255 24.3733Z" fill="#989AA6"/>
<path d="M53.8369 24.3729C53.7679 24.3727 53.7005 24.3522 53.6432 24.314C53.5859 24.2758 53.5412 24.2215 53.5148 24.158C53.4885 24.0945 53.4815 24.0246 53.495 23.9572C53.5084 23.8898 53.5415 23.8279 53.5902 23.7793L54.6369 22.7375C54.669 22.7042 54.7075 22.6776 54.75 22.6593C54.7926 22.641 54.8384 22.6313 54.8847 22.6309C54.931 22.6304 54.977 22.6391 55.0199 22.6566C55.0628 22.674 55.1018 22.6998 55.1346 22.7324C55.1674 22.765 55.1934 22.8038 55.2109 22.8465C55.2285 22.8893 55.2373 22.935 55.2369 22.9812C55.2365 23.0273 55.2268 23.073 55.2085 23.1154C55.1902 23.1578 55.1636 23.1961 55.1302 23.2281L54.0836 24.2706C54.0512 24.303 54.0128 24.3287 53.9705 24.3462C53.9281 24.3638 53.8828 24.3728 53.8369 24.3729Z" fill="#989AA6"/>
<path d="M56.2786 21.9408C56.2098 21.9405 56.1425 21.92 56.0854 21.8818C56.0282 21.8436 55.9836 21.7894 55.9573 21.726C55.9309 21.6627 55.9239 21.593 55.9372 21.5257C55.9505 21.4584 55.9835 21.3965 56.032 21.3478L57.078 20.3054C57.1434 20.2402 57.2321 20.2036 57.3246 20.2036C57.4171 20.2036 57.5059 20.2402 57.5713 20.3054C57.6367 20.3705 57.6735 20.4589 57.6735 20.5511C57.6735 20.6432 57.6367 20.7316 57.5713 20.7967L56.5253 21.8385C56.493 21.8709 56.4545 21.8966 56.4122 21.9142C56.3699 21.9317 56.3245 21.9408 56.2786 21.9408Z" fill="#989AA6"/>
<path d="M24.0111 8.73267C23.9653 8.73256 23.9201 8.72348 23.8778 8.70593C23.8356 8.68839 23.7973 8.66272 23.7651 8.63042L22.7184 7.58795C22.6551 7.52237 22.6202 7.43469 22.6211 7.34373C22.622 7.25278 22.6588 7.16582 22.7234 7.10155C22.788 7.03727 22.8754 7.00082 22.9667 7.00001C23.058 6.99921 23.146 7.03413 23.2117 7.09725L24.2577 8.13906C24.3064 8.18772 24.3396 8.24965 24.353 8.31705C24.3664 8.38445 24.3595 8.4543 24.3331 8.51779C24.3068 8.58128 24.2621 8.63557 24.2048 8.67381C24.1475 8.71205 24.0801 8.73253 24.0111 8.73267Z" fill="#989AA6"/>
<path d="M26.4534 11.1675C26.4076 11.1675 26.3622 11.1586 26.3199 11.1411C26.2776 11.1237 26.2391 11.0981 26.2067 11.0659L25.1607 10.0234C25.1273 9.9914 25.1007 9.9531 25.0823 9.91072C25.0639 9.86834 25.0542 9.82274 25.0537 9.77658C25.0533 9.73043 25.062 9.68464 25.0795 9.6419C25.097 9.59916 25.1229 9.56032 25.1557 9.52766C25.1884 9.495 25.2274 9.46917 25.2703 9.45168C25.3131 9.43419 25.3591 9.42539 25.4055 9.42579C25.4518 9.4262 25.4976 9.43581 25.5402 9.45405C25.5827 9.47229 25.6212 9.4988 25.6534 9.53203L26.7 10.5699C26.7489 10.6184 26.7821 10.6803 26.7956 10.7477C26.8091 10.8151 26.8021 10.885 26.7757 10.9485C26.7493 11.0119 26.7046 11.0662 26.6472 11.1044C26.5898 11.1425 26.5224 11.1629 26.4534 11.1628V11.1675Z" fill="#989AA6"/>
<path d="M22.9651 11.1675C22.8961 11.1675 22.8287 11.1472 22.7713 11.109C22.7139 11.0708 22.6692 11.0166 22.6428 10.9531C22.6164 10.8896 22.6095 10.8198 22.6229 10.7524C22.6364 10.685 22.6696 10.6231 22.7185 10.5745L23.7651 9.53203C23.7973 9.4988 23.8358 9.47229 23.8783 9.45405C23.9209 9.43581 23.9667 9.4262 24.0131 9.42579C24.0594 9.42539 24.1054 9.43419 24.1482 9.45168C24.1911 9.46917 24.2301 9.495 24.2628 9.52766C24.2956 9.56032 24.3215 9.59916 24.339 9.6419C24.3565 9.68464 24.3652 9.73043 24.3648 9.77658C24.3643 9.82274 24.3546 9.86834 24.3362 9.91072C24.3179 9.9531 24.2912 9.9914 24.2578 10.0234L23.2118 11.0659C23.1794 11.0981 23.1409 11.1237 23.0986 11.1411C23.0563 11.1585 23.0109 11.1675 22.9651 11.1675Z" fill="#989AA6"/>
<path d="M25.4066 8.73267C25.3376 8.7324 25.2703 8.71183 25.2131 8.67354C25.1559 8.63525 25.1113 8.58095 25.085 8.51749C25.0587 8.45402 25.0519 8.38423 25.0653 8.31689C25.0787 8.24955 25.1119 8.18768 25.1606 8.13906L26.2066 7.09725C26.2723 7.03413 26.3603 6.99921 26.4516 7.00001C26.5429 7.00082 26.6303 7.03727 26.6949 7.10155C26.7595 7.16582 26.7963 7.25278 26.7972 7.34373C26.7981 7.43469 26.7632 7.52237 26.6999 7.58795L25.6532 8.63042C25.6209 8.66277 25.5824 8.68846 25.5401 8.70601C25.4978 8.72356 25.4524 8.73262 25.4066 8.73267Z" fill="#989AA6"/>
<path d="M6.39549 52.3471C6.34969 52.3472 6.30432 52.3383 6.26199 52.3208C6.21966 52.3034 6.18121 52.2778 6.14883 52.2456L5.10217 51.2064C5.03675 51.1412 5 51.0529 5 50.9607C5 50.8686 5.03675 50.7802 5.10217 50.715C5.16759 50.6499 5.25632 50.6133 5.34884 50.6133C5.44135 50.6133 5.53008 50.6499 5.5955 50.715L6.64216 51.7575C6.69097 51.8061 6.72421 51.868 6.73769 51.9354C6.75116 52.0028 6.74426 52.0726 6.71785 52.1361C6.69144 52.1996 6.64671 52.2539 6.58933 52.292C6.53195 52.3302 6.46449 52.3505 6.39549 52.3505V52.3471Z" fill="#989AA6"/>
<path d="M8.83788 54.7792C8.79207 54.7792 8.7467 54.7703 8.70438 54.7529C8.66205 54.7354 8.62359 54.7099 8.59121 54.6776L7.54455 53.6351C7.47914 53.57 7.44238 53.4816 7.44238 53.3894C7.44238 53.2973 7.47914 53.2089 7.54455 53.1438C7.60997 53.0786 7.6987 53.042 7.79122 53.042C7.88374 53.042 7.97246 53.0786 8.03788 53.1438L9.08454 54.1862C9.13335 54.2348 9.1666 54.2967 9.18007 54.3641C9.19354 54.4315 9.18664 54.5013 9.16023 54.5648C9.13382 54.6283 9.08909 54.6826 9.03171 54.7207C8.97433 54.7589 8.90687 54.7792 8.83788 54.7792Z" fill="#989AA6"/>
<path d="M5.34891 54.7792C5.27991 54.7792 5.21246 54.7589 5.15507 54.7207C5.09769 54.6826 5.05296 54.6283 5.02655 54.5648C5.00014 54.5013 4.99324 54.4315 5.00671 54.3641C5.02019 54.2967 5.05343 54.2348 5.10224 54.1862L6.1489 53.1438C6.18129 53.1115 6.21975 53.0859 6.26207 53.0684C6.30439 53.051 6.34975 53.042 6.39556 53.042C6.44137 53.042 6.48674 53.051 6.52906 53.0684C6.57138 53.0859 6.60984 53.1115 6.64223 53.1438C6.67462 53.176 6.70032 53.2143 6.71785 53.2565C6.73538 53.2986 6.7444 53.3438 6.7444 53.3894C6.7444 53.4351 6.73538 53.4802 6.71785 53.5224C6.70032 53.5645 6.67462 53.6028 6.64223 53.6351L5.59557 54.6776C5.56319 54.7099 5.52474 54.7354 5.48241 54.7529C5.44008 54.7703 5.39471 54.7792 5.34891 54.7792Z" fill="#989AA6"/>
<path d="M7.79129 52.347C7.7223 52.3471 7.65484 52.3268 7.59746 52.2886C7.54007 52.2504 7.49535 52.1962 7.46894 52.1327C7.44253 52.0692 7.43562 51.9994 7.4491 51.932C7.46257 51.8646 7.49582 51.8027 7.54463 51.7541L8.59128 50.7116C8.6567 50.6465 8.74543 50.6099 8.83795 50.6099C8.93046 50.6099 9.01919 50.6465 9.08461 50.7116C9.15003 50.7768 9.18678 50.8652 9.18678 50.9573C9.18678 51.0495 9.15003 51.1378 9.08461 51.203L8.03795 52.2455C8.00558 52.2777 7.96712 52.3033 7.92479 52.3207C7.88246 52.3382 7.8371 52.3471 7.79129 52.347Z" fill="#989AA6"/>
<path d="M15.5166 25.1908C15.4707 25.1908 15.4253 25.1819 15.3829 25.1643C15.3406 25.1467 15.3022 25.121 15.2699 25.0885L14.2233 24.0487C14.1578 23.9835 14.1211 23.8952 14.1211 23.803C14.1211 23.7109 14.1578 23.6225 14.2233 23.5573C14.2887 23.4922 14.3774 23.4556 14.4699 23.4556C14.5624 23.4556 14.6512 23.4922 14.7166 23.5573L15.7633 24.5998C15.8117 24.6485 15.8447 24.7104 15.858 24.7777C15.8713 24.8449 15.8643 24.9146 15.838 24.978C15.8116 25.0414 15.767 25.0955 15.7099 25.1337C15.6527 25.172 15.5854 25.1925 15.5166 25.1927V25.1908Z" fill="#989AA6"/>
<path d="M17.958 27.6233C17.9121 27.6232 17.8667 27.6142 17.8244 27.5966C17.7821 27.5791 17.7437 27.5534 17.7113 27.521L16.6667 26.4786C16.6034 26.413 16.5684 26.3253 16.5694 26.2344C16.5703 26.1434 16.607 26.0564 16.6716 25.9922C16.7362 25.9279 16.8236 25.8914 16.9149 25.8906C17.0062 25.8898 17.0942 25.9248 17.16 25.9879L18.2066 27.0297C18.2554 27.0783 18.2885 27.1403 18.3019 27.2077C18.3154 27.2751 18.3084 27.3449 18.2821 27.4084C18.2557 27.4719 18.211 27.5262 18.1537 27.5644C18.0964 27.6027 18.029 27.6232 17.96 27.6233H17.958Z" fill="#989AA6"/>
<path d="M14.4668 27.6234C14.3978 27.6232 14.3304 27.6027 14.2731 27.5645C14.2158 27.5263 14.1711 27.472 14.1447 27.4085C14.1183 27.345 14.1114 27.2751 14.1248 27.2077C14.1383 27.1403 14.1714 27.0784 14.2201 27.0297L15.2668 25.9879C15.2989 25.9547 15.3374 25.9281 15.3799 25.9098C15.4225 25.8915 15.4682 25.8818 15.5146 25.8814C15.5609 25.8809 15.6069 25.8896 15.6498 25.9071C15.6927 25.9245 15.7317 25.9503 15.7645 25.9829C15.7973 26.0155 15.8232 26.0543 15.8408 26.097C15.8584 26.1397 15.8672 26.1855 15.8668 26.2317C15.8664 26.2778 15.8567 26.3235 15.8384 26.3659C15.8201 26.4083 15.7935 26.4466 15.7601 26.4786L14.7135 27.5211C14.6811 27.5535 14.6427 27.5791 14.6004 27.5967C14.558 27.6142 14.5126 27.6233 14.4668 27.6234Z" fill="#989AA6"/>
<path d="M16.9114 25.1908C16.8426 25.1905 16.7754 25.17 16.7182 25.1318C16.661 25.0936 16.6164 25.0394 16.5901 24.976C16.5637 24.9127 16.5568 24.843 16.57 24.7757C16.5833 24.7084 16.6163 24.6465 16.6648 24.5978L17.7114 23.5554C17.7438 23.5231 17.7823 23.4975 17.8246 23.4801C17.8669 23.4626 17.9123 23.4536 17.9581 23.4536C18.0039 23.4536 18.0493 23.4626 18.0916 23.4801C18.1339 23.4975 18.1724 23.5231 18.2048 23.5554C18.2372 23.5876 18.2629 23.6259 18.2804 23.6681C18.2979 23.7102 18.3069 23.7554 18.3069 23.8011C18.3069 23.8467 18.2979 23.8919 18.2804 23.934C18.2629 23.9762 18.2372 24.0145 18.2048 24.0467L17.1581 25.0885C17.1259 25.121 17.0874 25.1468 17.0451 25.1643C17.0027 25.1819 16.9573 25.1909 16.9114 25.1908Z" fill="#989AA6"/>
<path d="M35.0002 57.6749C41.329 57.6749 46.4595 52.565 46.4595 46.2615C46.4595 39.9581 41.329 34.8481 35.0002 34.8481C28.6715 34.8481 23.541 39.9581 23.541 46.2615C23.541 52.565 28.6715 57.6749 35.0002 57.6749Z" fill="#30354C"/>
<path d="M35.0002 37.5114C40.8762 37.5114 45.7168 41.9177 46.3795 47.5928C46.4318 47.151 46.4585 46.7065 46.4595 46.2615C46.4595 43.2345 45.2522 40.3315 43.1031 38.191C40.9541 36.0506 38.0394 34.8481 35.0002 34.8481C31.9611 34.8481 29.0464 36.0506 26.8973 38.191C24.7483 40.3315 23.541 43.2345 23.541 46.2615C23.542 46.7065 23.5687 47.151 23.621 47.5928C24.2837 41.9177 29.1243 37.5114 35.0002 37.5114Z" fill="#52576A"/>
<path d="M35.0004 58.0555C28.4711 58.0555 23.1592 52.7648 23.1592 46.2616C23.1592 39.7585 28.4711 34.4678 35.0004 34.4678C41.5297 34.4678 46.8416 39.7585 46.8416 46.2616C46.8416 52.7648 41.5297 58.0555 35.0004 58.0555ZM35.0004 35.2287C28.8925 35.2287 23.9232 40.1781 23.9232 46.2616C23.9232 52.3451 28.8925 57.2945 35.0004 57.2945C41.1083 57.2945 46.0776 52.3451 46.0776 46.2616C46.0776 40.1781 41.1083 35.2287 35.0004 35.2287Z" fill="#282C3F"/>
<path d="M41.4935 44.3592H36.9103V39.7936C36.9101 39.6927 36.8698 39.596 36.7982 39.5247C36.7266 39.4534 36.6295 39.4133 36.5283 39.4131H33.4723C33.371 39.4133 33.274 39.4534 33.2024 39.5247C33.1308 39.596 33.0905 39.6927 33.0903 39.7936V44.3592H28.507C28.4568 44.3591 28.4071 44.3689 28.3607 44.388C28.3143 44.407 28.2722 44.4351 28.2367 44.4704C28.2012 44.5058 28.1731 44.5477 28.1539 44.5939C28.1347 44.6401 28.1249 44.6897 28.125 44.7396V47.7834C28.125 47.8334 28.1349 47.8828 28.1541 47.929C28.1733 47.9751 28.2014 48.0171 28.2369 48.0524C28.2724 48.0877 28.3145 48.1158 28.3608 48.1349C28.4072 48.154 28.4568 48.1639 28.507 48.1639H33.0903V52.7288C33.0905 52.8297 33.1308 52.9263 33.2024 52.9977C33.274 53.069 33.371 53.1091 33.4723 53.1093H36.5283C36.6295 53.1091 36.7266 53.069 36.7982 52.9977C36.8698 52.9263 36.9101 52.8297 36.9103 52.7288V48.1639H41.4935C41.5437 48.1639 41.5934 48.154 41.6397 48.1349C41.6861 48.1158 41.7282 48.0877 41.7637 48.0524C41.7991 48.0171 41.8273 47.9751 41.8465 47.929C41.8657 47.8828 41.8755 47.8334 41.8755 47.7834V44.7396C41.8756 44.6897 41.8658 44.6401 41.8466 44.5939C41.8275 44.5477 41.7993 44.5058 41.7638 44.4704C41.7284 44.4351 41.6862 44.407 41.6398 44.388C41.5934 44.3689 41.5437 44.3591 41.4935 44.3592Z" fill="#EDEDED"/>
<path d="M41.4935 44.3592H36.9103V39.7936C36.9101 39.6927 36.8698 39.596 36.7982 39.5247C36.7266 39.4534 36.6295 39.4133 36.5283 39.4131H33.4723C33.371 39.4133 33.274 39.4534 33.2024 39.5247C33.1308 39.596 33.0905 39.6927 33.0903 39.7936V44.3592H28.507C28.4568 44.3591 28.4071 44.3689 28.3607 44.388C28.3143 44.407 28.2722 44.4351 28.2367 44.4704C28.2012 44.5058 28.1731 44.5477 28.1539 44.5939C28.1347 44.6401 28.1249 44.6897 28.125 44.7396V46.642H41.8755V44.7396C41.8756 44.6897 41.8658 44.6401 41.8466 44.5939C41.8275 44.5477 41.7993 44.5058 41.7638 44.4704C41.7284 44.4351 41.6862 44.407 41.6398 44.388C41.5934 44.3689 41.5437 44.3591 41.4935 44.3592Z" fill="white"/>
<path d="M36.5281 53.4901H33.4721C33.2695 53.4899 33.0753 53.4097 32.9321 53.2671C32.7888 53.1244 32.7083 52.9309 32.7081 52.7292V48.546H28.5081C28.3056 48.5457 28.1115 48.4654 27.9683 48.3228C27.8251 48.1801 27.7445 47.9868 27.7441 47.7851V44.74C27.7443 44.5383 27.8249 44.3448 27.9681 44.2021C28.1113 44.0595 28.3056 43.9793 28.5081 43.9791H32.7081V39.7959C32.7084 39.5943 32.7891 39.401 32.9323 39.2585C33.0755 39.116 33.2696 39.0358 33.4721 39.0356H36.5281C36.7305 39.0358 36.9246 39.116 37.0678 39.2585C37.2111 39.401 37.2917 39.5943 37.292 39.7959V43.9791H41.492C41.6946 43.9793 41.8888 44.0595 42.032 44.2021C42.1753 44.3448 42.2558 44.5383 42.256 44.74V47.7838C42.2557 47.9855 42.175 48.1788 42.0318 48.3214C41.8886 48.4641 41.6945 48.5443 41.492 48.5447H37.292V52.7279C37.2921 52.8279 37.2724 52.9269 37.2341 53.0194C37.1958 53.1118 37.1395 53.1958 37.0686 53.2666C36.9976 53.3374 36.9134 53.3935 36.8206 53.4319C36.7279 53.4702 36.6285 53.49 36.5281 53.4901ZM28.5068 44.74V47.7838H33.0901C33.1403 47.7837 33.19 47.7935 33.2364 47.8125C33.2828 47.8316 33.3249 47.8597 33.3604 47.895C33.3959 47.9304 33.424 47.9723 33.4432 48.0185C33.4624 48.0647 33.4722 48.1142 33.4721 48.1642V52.7292H36.5281V48.1642C36.528 48.1142 36.5378 48.0647 36.557 48.0185C36.5761 47.9723 36.6043 47.9304 36.6397 47.895C36.6752 47.8597 36.7174 47.8316 36.7638 47.8125C36.8102 47.7935 36.8599 47.7837 36.9101 47.7838H41.4933V44.74H36.9101C36.8599 44.7401 36.8102 44.7303 36.7638 44.7112C36.7174 44.6921 36.6752 44.6641 36.6397 44.6288C36.6043 44.5934 36.5761 44.5514 36.557 44.5052C36.5378 44.459 36.528 44.4095 36.5281 44.3595V39.7939H33.4721V44.3595C33.4722 44.4095 33.4624 44.459 33.4432 44.5052C33.424 44.5514 33.3959 44.5934 33.3604 44.6288C33.3249 44.6641 33.2828 44.6921 33.2364 44.7112C33.19 44.7303 33.1403 44.7401 33.0901 44.74H28.5068Z" fill="#282C3F"/>
</svg>
