<svg width="71" height="71" viewBox="0 0 71 71" fill="none" xmlns="http://www.w3.org/2000/svg">
<path d="M52.7558 28.8167C51.2153 25.4242 52.217 19.7481 49.1625 17.5629C46.2014 15.4444 41.0686 18.089 37.1625 17.6859C33.2564 17.2827 28.7964 13.6482 25.4525 15.1183C22.0025 16.6332 21.7858 22.3917 19.5636 25.3957C17.4092 28.3075 11.8631 30.243 11.4525 34.0819C11.042 37.9207 16.0597 40.9417 17.5553 44.2299C19.0958 47.6224 18.0942 53.2984 21.1486 55.4863C24.1097 57.6048 29.2425 54.9602 33.1486 55.3628C37.0547 55.7654 41.5147 59.4005 44.8586 57.9304C48.3086 56.4155 48.5253 50.657 50.7475 47.6535C52.902 44.7417 58.4481 42.8057 58.8586 38.9674C59.2692 35.1291 54.2486 32.1048 52.7558 28.8167Z" fill="#F6F6F6"/>
<path d="M59.7096 58.5639H10.2885C10.2117 58.5639 10.1381 58.5339 10.0838 58.4805C10.0295 58.4271 9.99902 58.3547 9.99902 58.2792C9.99902 58.2038 10.0295 58.1314 10.0838 58.078C10.1381 58.0246 10.2117 57.9946 10.2885 57.9946H59.7096C59.7864 57.9946 59.86 58.0246 59.9143 58.078C59.9685 58.1314 59.999 58.2038 59.999 58.2792C59.999 58.3547 59.9685 58.4271 59.9143 58.4805C59.86 58.5339 59.7864 58.5639 59.7096 58.5639Z" fill="#A09CAD"/>
<path d="M49.2073 44.3078L45.7256 35.5031C45.4776 34.8756 45.0426 34.3363 44.4775 33.9561C43.9124 33.5759 43.2437 33.3725 42.559 33.3726H41.1768V44.3078H49.2073Z" fill="#2CAAE6"/>
<path d="M44.6945 34.116L43.8884 33.6401L41.1768 44.3082H42.1034L44.6945 34.116Z" fill="#2FC8F2"/>
<path d="M46.9507 38.603L45.6312 35.2886L43.3379 44.3079H45.5001L46.9507 38.603Z" fill="#2FC8F2"/>
<path d="M49.2087 44.5923H41.1781C41.1401 44.5923 41.1025 44.5849 41.0674 44.5706C41.0322 44.5563 41.0003 44.5354 40.9734 44.5089C40.9466 44.4825 40.9253 44.4511 40.9107 44.4166C40.8962 44.3821 40.8887 44.3451 40.8887 44.3077V33.373C40.8887 33.2975 40.9192 33.2251 40.9734 33.1718C41.0277 33.1184 41.1014 33.0884 41.1781 33.0884H42.5603C43.304 33.0856 44.031 33.3052 44.6448 33.7181C45.2586 34.131 45.7302 34.7177 45.997 35.4003L49.4787 44.2044C49.4956 44.2476 49.5016 44.2942 49.4962 44.3401C49.4907 44.3861 49.474 44.43 49.4474 44.4682C49.4209 44.5064 49.3852 44.5376 49.3436 44.5593C49.302 44.5809 49.2557 44.5922 49.2087 44.5923ZM41.4676 44.0214H48.7853L45.457 35.6085C45.2323 35.033 44.8349 34.5384 44.3175 34.1903C43.8001 33.8423 43.1872 33.6572 42.5603 33.6598H41.4676V44.0214Z" fill="#34234D"/>
<path d="M42.3359 23.559H37.7025C37.6258 23.559 37.5521 23.529 37.4979 23.4756C37.4436 23.4222 37.4131 23.3499 37.4131 23.2744C37.4131 23.1989 37.4436 23.1265 37.4979 23.0731C37.5521 23.0197 37.6258 22.9897 37.7025 22.9897H42.3359C42.4126 22.9897 42.4862 23.0197 42.5405 23.0731C42.5948 23.1265 42.6253 23.1989 42.6253 23.2744C42.6253 23.3499 42.5948 23.4222 42.5405 23.4756C42.4862 23.529 42.4126 23.559 42.3359 23.559Z" fill="#989AA6"/>
<path d="M38.4746 25.458H32.2968C32.2222 25.4548 32.1517 25.4233 32.1 25.3703C32.0484 25.3172 32.0195 25.2465 32.0195 25.1731C32.0195 25.0996 32.0484 25.029 32.1 24.9759C32.1517 24.9228 32.2222 24.8914 32.2968 24.8882H38.4746C38.5493 24.8914 38.6198 24.9228 38.6714 24.9759C38.7231 25.029 38.7519 25.0996 38.7519 25.1731C38.7519 25.2465 38.7231 25.3172 38.6714 25.3703C38.6198 25.4233 38.5493 25.4548 38.4746 25.458Z" fill="#989AA6"/>
<path d="M39.8645 27.3554H36.7773C36.7027 27.3522 36.6322 27.3208 36.5805 27.2677C36.5288 27.2146 36.5 27.144 36.5 27.0705C36.5 26.9971 36.5288 26.9264 36.5805 26.8734C36.6322 26.8203 36.7027 26.7889 36.7773 26.7856H39.8662C39.9408 26.7889 40.0113 26.8203 40.063 26.8734C40.1147 26.9264 40.1435 26.9971 40.1435 27.0705C40.1435 27.144 40.1147 27.2146 40.063 27.2677C40.0113 27.3208 39.9408 27.3522 39.8662 27.3554H39.8645Z" fill="#989AA6"/>
<path d="M16.4662 35.4799H10.2885C10.2117 35.4799 10.1381 35.4499 10.0838 35.3965C10.0295 35.3431 9.99902 35.2708 9.99902 35.1953C9.99902 35.1198 10.0295 35.0474 10.0838 34.994C10.1381 34.9406 10.2117 34.9106 10.2885 34.9106H16.4662C16.543 34.9106 16.6166 34.9406 16.6709 34.994C16.7252 35.0474 16.7557 35.1198 16.7557 35.1953C16.7557 35.2708 16.7252 35.3431 16.6709 35.3965C16.6166 35.4499 16.543 35.4799 16.4662 35.4799Z" fill="#989AA6"/>
<path d="M17.8573 37.3789H13.8418C13.7671 37.3757 13.6966 37.3442 13.645 37.2912C13.5933 37.2381 13.5645 37.1674 13.5645 37.094C13.5645 37.0205 13.5933 36.9499 13.645 36.8968C13.6966 36.8437 13.7671 36.8123 13.8418 36.8091H17.8573C17.932 36.8123 18.0025 36.8437 18.0541 36.8968C18.1058 36.9499 18.1346 37.0205 18.1346 37.094C18.1346 37.1674 18.1058 37.2381 18.0541 37.2912C18.0025 37.3442 17.932 37.3757 17.8573 37.3789Z" fill="#989AA6"/>
<path d="M56.544 38.4799H51.2929C51.2183 38.4767 51.1478 38.4453 51.0961 38.3922C51.0445 38.3392 51.0156 38.2685 51.0156 38.195C51.0156 38.1216 51.0445 38.0509 51.0961 37.9979C51.1478 37.9448 51.2183 37.9134 51.2929 37.9102H56.544C56.6187 37.9134 56.6892 37.9448 56.7409 37.9979C56.7925 38.0509 56.8214 38.1216 56.8214 38.195C56.8214 38.2685 56.7925 38.3392 56.7409 38.3922C56.6892 38.4453 56.6187 38.4767 56.544 38.4799Z" fill="#989AA6"/>
<path d="M58.8596 40.3784H54.5351C54.4605 40.3752 54.39 40.3437 54.3383 40.2907C54.2867 40.2376 54.2578 40.167 54.2578 40.0935C54.2578 40.02 54.2867 39.9494 54.3383 39.8963C54.39 39.8432 54.4605 39.8118 54.5351 39.8086H58.8596C58.9342 39.8118 59.0047 39.8432 59.0564 39.8963C59.108 39.9494 59.1369 40.02 59.1369 40.0935C59.1369 40.167 59.108 40.2376 59.0564 40.2907C59.0047 40.3437 58.9342 40.3752 58.8596 40.3784Z" fill="#989AA6"/>
<path d="M50.5788 45.0753L49.2066 44.3072H41.176V33.3726H36.8516V55.2413H52.296V47.9789C52.2959 47.3889 52.137 46.8095 51.8353 46.2995C51.5337 45.7895 51.1002 45.3672 50.5788 45.0753Z" fill="#EDEDED"/>
<path d="M36.8537 49.167H17.7031V55.2413H36.8537V49.167Z" fill="#EDEDED"/>
<path d="M50.5788 45.0753L49.2066 44.3072H41.176V33.3726H36.8516V53.4173H52.296V47.9789C52.2959 47.3889 52.137 46.8095 51.8353 46.2995C51.5337 45.7895 51.1002 45.3672 50.5788 45.0753Z" fill="white"/>
<path d="M36.8537 49.167H17.7031V53.4194H36.8537V49.167Z" fill="white"/>
<path d="M52.2966 48.2559H48.4722C48.4198 48.2558 48.3682 48.2689 48.3223 48.2939C48.2765 48.3189 48.2378 48.3549 48.21 48.3986C48.1823 48.4423 48.1662 48.4923 48.1635 48.5438C48.1608 48.5953 48.1714 48.6466 48.1944 48.6929L49.0355 50.3476C49.0871 50.4489 49.1665 50.534 49.2647 50.5933C49.3628 50.6525 49.4759 50.6836 49.5911 50.6831H52.2978L52.2966 48.2559Z" fill="#2FC8F2"/>
<path d="M52.296 50.9702H49.5893C49.4208 50.9711 49.2555 50.9254 49.112 50.8385C48.9685 50.7516 48.8527 50.6269 48.7776 50.4786L47.936 48.8238C47.8905 48.7341 47.869 48.6344 47.8737 48.5342C47.8783 48.434 47.9089 48.3367 47.9626 48.2514C48.0162 48.1661 48.0911 48.0956 48.1802 48.0468C48.2692 47.9979 48.3695 47.9722 48.4715 47.9722H52.296C52.3727 47.9722 52.4464 48.0022 52.5006 48.0555C52.5549 48.1089 52.5854 48.1813 52.5854 48.2568V50.6862C52.5853 50.7616 52.5547 50.8338 52.5004 50.8871C52.4462 50.9403 52.3726 50.9702 52.296 50.9702ZM48.4715 48.5403L48.4543 48.5682L49.2954 50.2224C49.3225 50.2762 49.3644 50.3215 49.4163 50.3531C49.4683 50.3847 49.5282 50.4013 49.5893 50.401H52.0065V48.5403H48.4715Z" fill="#2CAAE6"/>
<path d="M52.2954 55.5264H36.851C36.7742 55.5264 36.7006 55.4964 36.6463 55.443C36.592 55.3897 36.5615 55.3173 36.5615 55.2418V33.373C36.5615 33.2975 36.592 33.2251 36.6463 33.1717C36.7006 33.1184 36.7742 33.0884 36.851 33.0884C36.9277 33.0884 37.0014 33.1184 37.0556 33.1717C37.1099 33.2251 37.1404 33.2975 37.1404 33.373V54.9572H52.006V47.9793C52.0053 47.4399 51.8598 46.9101 51.5841 46.4437C51.3084 45.9773 50.9123 45.5908 50.436 45.3232L49.1299 44.5923H41.176C41.138 44.5923 41.1003 44.5849 41.0652 44.5706C41.0301 44.5563 40.9982 44.5354 40.9713 44.5089C40.9444 44.4825 40.9231 44.4511 40.9086 44.4166C40.894 44.3821 40.8865 44.345 40.8865 44.3077V33.6576H38.7049C38.6281 33.6576 38.5545 33.6276 38.5002 33.5743C38.4459 33.5209 38.4154 33.4485 38.4154 33.373C38.4154 33.2975 38.4459 33.2251 38.5002 33.1717C38.5545 33.1184 38.6281 33.0884 38.7049 33.0884H41.176C41.2527 33.0884 41.3264 33.1184 41.3806 33.1717C41.4349 33.2251 41.4654 33.2975 41.4654 33.373V44.0214H49.2065C49.2568 44.0214 49.3063 44.0344 49.3499 44.0591L50.7204 44.8283C51.2857 45.1456 51.7557 45.6041 52.0828 46.1574C52.4099 46.7108 52.5826 47.3393 52.5832 47.9793V55.2418C52.5832 55.317 52.5529 55.3891 52.499 55.4425C52.4451 55.4958 52.3719 55.526 52.2954 55.5264Z" fill="#282C3F"/>
<path d="M36.8521 55.5269H31.2921C31.2153 55.5269 31.1417 55.4969 31.0874 55.4435C31.0332 55.3901 31.0027 55.3177 31.0027 55.2422C31.0027 55.1668 31.0332 55.0944 31.0874 55.041C31.1417 54.9876 31.2153 54.9576 31.2921 54.9576H36.5627V49.4521H17.991V54.9576H29.4388C29.5155 54.9576 29.5892 54.9876 29.6434 55.041C29.6977 55.0944 29.7282 55.1668 29.7282 55.2422C29.7282 55.3177 29.6977 55.3901 29.6434 55.4435C29.5892 55.4969 29.5155 55.5269 29.4388 55.5269H17.7016C17.6248 55.5269 17.5512 55.4969 17.4969 55.4435C17.4426 55.3901 17.4121 55.3177 17.4121 55.2422V49.1674C17.4121 49.0919 17.4426 49.0196 17.4969 48.9662C17.5512 48.9128 17.6248 48.8828 17.7016 48.8828H36.8521C36.9289 48.8828 37.0025 48.9128 37.0568 48.9662C37.1111 49.0196 37.1416 49.0919 37.1416 49.1674V55.2422C37.1416 55.3177 37.1111 55.3901 37.0568 55.4435C37.0025 55.4969 36.9289 55.5269 36.8521 55.5269Z" fill="#282C3F"/>
<path d="M53.5325 55.2415H49.208L50.4436 52.2041H53.5325V55.2415Z" fill="#30354C"/>
<path d="M16.4668 55.2415H20.7912L19.5557 52.2041H16.4668V55.2415Z" fill="#30354C"/>
<path d="M53.5319 55.5266H49.2074C49.1601 55.5265 49.1135 55.515 49.0718 55.4932C49.03 55.4713 48.9943 55.4398 48.9678 55.4013C48.9413 55.3627 48.9248 55.3184 48.9197 55.2722C48.9146 55.226 48.921 55.1792 48.9385 55.136L50.1741 52.0991C50.1956 52.0463 50.2327 52.001 50.2806 51.969C50.3285 51.9371 50.3851 51.92 50.443 51.9199H53.5319C53.5699 51.9199 53.6075 51.9273 53.6426 51.9416C53.6777 51.9559 53.7096 51.9769 53.7365 52.0033C53.7634 52.0297 53.7847 52.0611 53.7993 52.0956C53.8138 52.1302 53.8213 52.1672 53.8213 52.2045V55.2419C53.8213 55.3174 53.7908 55.3898 53.7365 55.4432C53.6822 55.4966 53.6086 55.5266 53.5319 55.5266ZM49.6352 54.9573H53.2424V52.4892H50.6391L49.6352 54.9573Z" fill="#282C3F"/>
<path d="M20.7906 55.5266H16.4662C16.3894 55.5266 16.3158 55.4966 16.2615 55.4432C16.2073 55.3898 16.1768 55.3174 16.1768 55.2419V52.2045C16.1768 52.1291 16.2073 52.0567 16.2615 52.0033C16.3158 51.9499 16.3894 51.9199 16.4662 51.9199H19.5545C19.6124 51.92 19.669 51.9371 19.7169 51.969C19.7648 52.001 19.8019 52.0463 19.8234 52.0991L21.059 55.136C21.0765 55.1792 21.0829 55.226 21.0778 55.2722C21.0727 55.3184 21.0562 55.3627 21.0297 55.4013C21.0032 55.4398 20.9675 55.4713 20.9257 55.4932C20.884 55.515 20.8374 55.5265 20.7901 55.5266H20.7906ZM16.7556 54.9573H20.3629L19.359 52.4892H16.7556V54.9573Z" fill="#282C3F"/>
<path d="M47.3545 55.2419C47.3544 54.6412 47.1732 54.054 46.8337 53.5545C46.4942 53.0551 46.0117 52.6659 45.4472 52.4361C44.8827 52.2063 44.2617 52.1462 43.6625 52.2635C43.0633 52.3809 42.513 52.6702 42.0811 53.0951C41.6492 53.52 41.3551 54.0612 41.236 54.6505C41.1169 55.2397 41.1782 55.8504 41.4121 56.4054C41.646 56.9603 42.042 57.4346 42.55 57.7683C43.058 58.102 43.6553 58.28 44.2662 58.2799C44.6719 58.2799 45.0735 58.2013 45.4483 58.0486C45.8231 57.8959 46.1636 57.6721 46.4504 57.39C46.7372 57.1079 46.9646 56.773 47.1198 56.4044C47.2749 56.0359 47.3547 55.6408 47.3545 55.2419Z" fill="#2FC8F2"/>
<path d="M29.4395 55.2415C29.4395 54.6408 29.2583 54.0535 28.9189 53.554C28.5795 53.0545 28.0971 52.6652 27.5327 52.4353C26.9683 52.2054 26.3472 52.1453 25.748 52.2625C25.1488 52.3797 24.5984 52.669 24.1664 53.0937C23.7344 53.5185 23.4403 54.0597 23.3211 54.6489C23.2019 55.2381 23.2631 55.8489 23.4968 56.4039C23.7306 56.9589 24.1265 57.4333 24.6345 57.767C25.1425 58.1008 25.7397 58.2789 26.3506 58.2789C27.1698 58.2789 27.9555 57.9589 28.5348 57.3893C29.1141 56.8197 29.4395 56.0471 29.4395 55.2415Z" fill="#2FC8F2"/>
<path d="M44.2656 58.2793C45.9716 58.2793 47.3545 57.2593 47.3545 56.0012C47.3545 54.7431 45.9716 53.7231 44.2656 53.7231C42.5597 53.7231 41.1768 54.7431 41.1768 56.0012C41.1768 57.2593 42.5597 58.2793 44.2656 58.2793Z" fill="#2CAAE6"/>
<path d="M44.2667 56.3811C44.9065 56.3811 45.4251 55.8711 45.4251 55.2421C45.4251 54.613 44.9065 54.103 44.2667 54.103C43.627 54.103 43.1084 54.613 43.1084 55.2421C43.1084 55.8711 43.627 56.3811 44.2667 56.3811Z" fill="white"/>
<path d="M26.3506 58.2793C28.0566 58.2793 29.4395 57.2593 29.4395 56.0012C29.4395 54.7431 28.0566 53.7231 26.3506 53.7231C24.6447 53.7231 23.2617 54.7431 23.2617 56.0012C23.2617 57.2593 24.6447 58.2793 26.3506 58.2793Z" fill="#2CAAE6"/>
<path d="M26.3497 56.3811C26.9895 56.3811 27.5081 55.8711 27.5081 55.2421C27.5081 54.613 26.9895 54.103 26.3497 54.103C25.71 54.103 25.1914 54.613 25.1914 55.2421C25.1914 55.8711 25.71 56.3811 26.3497 56.3811Z" fill="white"/>
<path d="M44.2656 58.564C43.5974 58.5641 42.9442 58.3693 42.3886 58.0044C41.8329 57.6394 41.3998 57.1206 41.144 56.5136C40.8883 55.9066 40.8213 55.2386 40.9516 54.5942C41.0819 53.9497 41.4036 53.3578 41.876 52.8931C42.3485 52.4285 42.9504 52.112 43.6058 51.9838C44.2611 51.8556 44.9404 51.9213 45.5578 52.1727C46.1751 52.4242 46.7028 52.85 47.074 53.3963C47.4452 53.9426 47.6434 54.5849 47.6434 55.242C47.6425 56.1226 47.2864 56.967 46.6531 57.5898C46.0199 58.2126 45.1612 58.563 44.2656 58.564ZM44.2656 52.4897C43.7119 52.4896 43.1706 52.651 42.7101 52.9534C42.2497 53.2558 41.8908 53.6858 41.6788 54.1888C41.4669 54.6918 41.4114 55.2454 41.5194 55.7794C41.6274 56.3134 41.894 56.804 42.2855 57.189C42.6771 57.574 43.176 57.8362 43.719 57.9424C44.2621 58.0486 44.8251 57.9941 45.3366 57.7856C45.8482 57.5772 46.2854 57.2243 46.5929 56.7715C46.9005 56.3187 47.0646 55.7864 47.0645 55.242C47.0638 54.5122 46.7687 53.8125 46.2439 53.2964C45.7192 52.7804 45.0077 52.49 44.2656 52.4892V52.4897Z" fill="#282C3F"/>
<path d="M26.35 58.564C25.6818 58.564 25.0287 58.3691 24.4731 58.0041C23.9175 57.6391 23.4845 57.1203 23.2288 56.5132C22.9731 55.9062 22.9062 55.2383 23.0366 54.5939C23.1669 53.9494 23.4887 53.3575 23.9612 52.8929C24.4336 52.4283 25.0356 52.1119 25.6909 51.9838C26.3463 51.8556 27.0255 51.9214 27.6428 52.1728C28.2602 52.4242 28.7878 52.85 29.159 53.3963C29.5302 53.9426 29.7283 54.5849 29.7283 55.242C29.7273 56.1227 29.3711 56.9671 28.7377 57.5899C28.1044 58.2126 27.2457 58.563 26.35 58.564ZM26.35 52.4897C25.7963 52.4897 25.255 52.6512 24.7947 52.9537C24.3343 53.2562 23.9755 53.6861 23.7636 54.1892C23.5517 54.6922 23.4963 55.2457 23.6044 55.7797C23.7125 56.3137 23.9791 56.8042 24.3707 57.1892C24.7623 57.5742 25.2611 57.8363 25.8042 57.9425C26.3473 58.0486 26.9102 57.994 27.4217 57.7856C27.9332 57.5771 28.3704 57.2242 28.6779 56.7715C28.9855 56.3187 29.1496 55.7864 29.1495 55.242C29.1487 54.5121 28.8535 53.8123 28.3287 53.2962C27.8039 52.7801 27.0922 52.4899 26.35 52.4892V52.4897Z" fill="#282C3F"/>
<path d="M58.3621 30.8091C58.5273 30.5224 58.5831 30.1872 58.5196 29.8637C58.4561 29.5401 58.2775 29.2495 58.0156 29.0438C57.7538 28.8381 57.4261 28.731 57.0911 28.7415C56.7562 28.7521 56.4361 28.8797 56.1882 29.1014C56.1457 28.7692 56.0357 28.4488 55.8648 28.1593C55.6939 27.8697 55.4655 27.6169 55.1932 27.4159C54.9209 27.2148 54.6103 27.0697 54.2798 26.9891C53.9494 26.9084 53.6058 26.8939 53.2695 26.9465C52.9333 26.999 52.6112 27.1175 52.3224 27.2949C52.0336 27.4722 51.7841 27.7049 51.5886 27.979C51.3931 28.2531 51.2556 28.5631 51.1843 28.8905C51.1131 29.2179 51.1095 29.556 51.1738 29.8848C51.0292 29.8538 50.8817 29.8381 50.7338 29.8378C50.4497 29.8333 50.1675 29.8844 49.9037 29.9882C49.6399 30.092 49.3997 30.2464 49.1971 30.4424C48.9946 30.6384 48.8338 30.872 48.724 31.1297C48.6142 31.3875 48.5576 31.6641 48.5576 31.9435C48.5576 32.2229 48.6142 32.4995 48.724 32.7572C48.8338 33.015 48.9946 33.2486 49.1971 33.4446C49.3997 33.6406 49.6399 33.795 49.9037 33.8988C50.1675 34.0026 50.4497 34.0537 50.7338 34.0492H58.0466C58.4607 34.0502 58.8603 33.8992 59.1671 33.6257C59.4739 33.3521 59.6658 32.9759 59.7053 32.5705C59.7448 32.1651 59.629 31.7599 59.3805 31.4341C59.1321 31.1083 58.7689 30.8854 58.3621 30.8091Z" fill="white"/>
<path d="M58.0455 34.3344H50.7327C50.4093 34.3338 50.0893 34.2698 49.7914 34.146C49.4936 34.0223 49.2238 33.8414 48.9979 33.6138C48.772 33.3863 48.5946 33.1167 48.476 32.8209C48.3574 32.5251 48.3 32.209 48.3072 31.8911C48.3145 31.5732 48.3861 31.2599 48.518 30.9696C48.6499 30.6793 48.8393 30.4177 49.0753 30.2003C49.3113 29.9829 49.589 29.814 49.8922 29.7034C50.1954 29.5929 50.5179 29.5429 50.841 29.5565C50.841 29.5128 50.841 29.4691 50.841 29.4254C50.8408 28.7568 51.0853 28.1105 51.53 27.6047C51.9746 27.0988 52.5895 26.7673 53.2623 26.6708C53.9351 26.5742 54.6207 26.7191 55.1938 27.0788C55.7669 27.4386 56.1891 27.9892 56.3832 28.63C56.6814 28.4845 57.0165 28.4285 57.3469 28.4688C57.6772 28.5091 57.9882 28.6439 58.2413 28.8566C58.4943 29.0693 58.6782 29.3504 58.7701 29.665C58.862 29.9796 58.8579 30.3138 58.7582 30.6261C59.1824 30.7887 59.5354 31.092 59.7563 31.4835C59.9771 31.8749 60.0519 32.33 59.9677 32.7699C59.8834 33.2098 59.6455 33.607 59.295 33.8927C58.9445 34.1784 58.5035 34.3346 58.0482 34.3344H58.0455ZM50.7327 30.123C50.4868 30.1188 50.2425 30.1628 50.0141 30.2525C49.7856 30.3421 49.5777 30.4756 49.4023 30.6451C49.2269 30.8146 49.0876 31.0168 48.9925 31.2398C48.8974 31.4628 48.8484 31.7022 48.8484 31.9441C48.8484 32.1859 48.8974 32.4253 48.9925 32.6484C49.0876 32.8714 49.2269 33.0736 49.4023 33.2431C49.5777 33.4126 49.7856 33.5461 50.0141 33.6357C50.2425 33.7253 50.4868 33.7694 50.7327 33.7652H58.0455C58.3875 33.7659 58.7176 33.6412 58.971 33.4152C59.2245 33.1893 59.383 32.8785 59.4157 32.5437C59.4483 32.2088 59.3528 31.8741 59.1476 31.6049C58.9425 31.3357 58.6426 31.1515 58.3066 31.0883C58.2614 31.0798 58.219 31.0609 58.1827 31.0331C58.1465 31.0053 58.1175 30.9694 58.0982 30.9284C58.0789 30.8874 58.0698 30.8425 58.0716 30.7973C58.0734 30.7522 58.0862 30.7081 58.1088 30.6688C58.2403 30.441 58.2849 30.1747 58.2345 29.9175C58.1842 29.6604 58.0423 29.4293 57.8342 29.2659C57.6261 29.1024 57.3656 29.0173 57.0995 29.0258C56.8333 29.0343 56.5789 29.1359 56.3821 29.3123C56.343 29.3473 56.2948 29.371 56.2429 29.381C56.1909 29.3909 56.1372 29.3867 56.0876 29.3687C56.0379 29.3508 55.9942 29.3198 55.9612 29.2791C55.9282 29.2384 55.9072 29.1896 55.9005 29.138C55.8592 28.8466 55.7592 28.5663 55.6064 28.3133C55.4537 28.0603 55.2511 27.8398 55.0107 27.6648C54.7702 27.4897 54.4967 27.3635 54.206 27.2936C53.9154 27.2237 53.6135 27.2115 53.318 27.2577C53.0225 27.3039 52.7394 27.4076 52.4851 27.5627C52.2309 27.7178 52.0106 27.9212 51.8372 28.1609C51.6638 28.4007 51.5408 28.6721 51.4754 28.9592C51.4099 29.2463 51.4033 29.5433 51.456 29.8329C51.4642 29.8788 51.4609 29.9259 51.4462 29.9702C51.4316 30.0145 51.4061 30.0546 51.3721 30.0869C51.338 30.1193 51.2964 30.1429 51.2509 30.1558C51.2054 30.1687 51.1573 30.1703 51.111 30.1607C50.9866 30.1353 50.8598 30.1226 50.7327 30.123Z" fill="#989AA6"/>
<path d="M38.1999 16.602C38.0345 16.3154 37.9785 15.9802 38.0419 15.6566C38.1053 15.333 38.284 15.0423 38.5458 14.8366C38.8076 14.6309 39.1355 14.5238 39.4705 14.5345C39.8054 14.5451 40.1255 14.6729 40.3732 14.8949C40.4146 14.5618 40.5238 14.2403 40.6942 13.9496C40.8647 13.6589 41.0931 13.4049 41.3656 13.2029C41.6381 13.0009 41.9492 12.855 42.2803 12.7738C42.6115 12.6927 42.9558 12.678 43.2929 12.7306C43.6299 12.7832 43.9527 12.9021 44.242 13.0801C44.5313 13.2581 44.7811 13.4917 44.9766 13.7667C45.1721 14.0418 45.3092 14.3528 45.3797 14.6811C45.4502 15.0095 45.4528 15.3484 45.3871 15.6777C45.6805 15.6172 45.9834 15.618 46.2764 15.6799C46.5694 15.7419 46.8459 15.8637 47.088 16.0374C47.3301 16.2111 47.5325 16.4328 47.6819 16.6883C47.8313 16.9437 47.9245 17.2272 47.9555 17.5203C47.9865 17.8134 47.9545 18.1097 47.8616 18.3899C47.7688 18.6701 47.6172 18.928 47.4165 19.1469C47.2159 19.3658 46.9707 19.5409 46.697 19.6607C46.4232 19.7806 46.1268 19.8426 45.8271 19.8427H38.5155C38.1017 19.8429 37.7027 19.6915 37.3964 19.418C37.0902 19.1445 36.8986 18.7685 36.8591 18.3635C36.8197 17.9584 36.9352 17.5535 37.1832 17.2278C37.4311 16.9021 37.7936 16.679 38.1999 16.602Z" fill="white"/>
<path d="M45.8299 20.128H38.5172C38.0619 20.1284 37.6208 19.9722 37.2702 19.6866C36.9196 19.4009 36.6815 19.0038 36.5972 18.5638C36.5129 18.1238 36.5877 17.6687 36.8085 17.2772C37.0293 16.8857 37.3824 16.5824 37.8066 16.4198C37.7069 16.1075 37.7028 15.7732 37.7947 15.4586C37.8866 15.144 38.0705 14.8629 38.3236 14.6503C38.5766 14.4376 38.8876 14.3027 39.218 14.2624C39.5483 14.2221 39.8834 14.2782 40.1816 14.4236C40.3775 13.7849 40.8001 13.2366 41.3726 12.8786C41.945 12.5206 42.6292 12.3767 43.3005 12.4731C43.9718 12.5694 44.5856 12.8997 45.0301 13.4037C45.4746 13.9077 45.7202 14.5519 45.7222 15.219C45.7222 15.2624 45.7211 15.3061 45.7188 15.3501C46.0418 15.3366 46.3642 15.3865 46.6673 15.497C46.9704 15.6075 47.248 15.7763 47.4839 15.9935C47.7198 16.2108 47.9093 16.4722 48.0413 16.7623C48.1732 17.0525 48.245 17.3656 48.2524 17.6834C48.2598 18.0011 48.2026 18.3172 48.0843 18.6129C47.966 18.9087 47.7889 19.1783 47.5633 19.406C47.3377 19.6336 47.0682 19.8147 46.7706 19.9387C46.473 20.0627 46.1532 20.1271 45.8299 20.128ZM39.4283 14.8191C39.2325 14.819 39.0401 14.8693 38.8702 14.9651C38.7004 15.061 38.5591 15.1989 38.4604 15.3652C38.3618 15.5315 38.3092 15.7203 38.3079 15.9129C38.3067 16.1054 38.3568 16.2949 38.4533 16.4624C38.476 16.5017 38.4889 16.5458 38.4908 16.591C38.4927 16.6362 38.4837 16.6812 38.4644 16.7223C38.4451 16.7633 38.4162 16.7993 38.3799 16.8271C38.3437 16.855 38.3012 16.874 38.2561 16.8825C37.9201 16.9457 37.6201 17.1299 37.415 17.3991C37.2099 17.6682 37.1143 18.003 37.1469 18.3378C37.1796 18.6727 37.3382 18.9835 37.5916 19.2094C37.845 19.4353 38.1751 19.5601 38.5172 19.5593H45.8299C46.0892 19.5594 46.3455 19.506 46.5824 19.4025C46.8193 19.2989 47.0315 19.1476 47.2051 18.9583C47.3787 18.769 47.51 18.546 47.5904 18.3037C47.6708 18.0613 47.6986 17.8051 47.6719 17.5515C47.6451 17.298 47.5646 17.0528 47.4353 16.8318C47.3061 16.6108 47.1311 16.4189 46.9217 16.2687C46.7123 16.1184 46.4732 16.0131 46.2197 15.9595C45.9663 15.9059 45.7042 15.9053 45.4505 15.9576C45.4039 15.9675 45.3555 15.966 45.3096 15.953C45.2638 15.9401 45.2219 15.9162 45.1877 15.8835C45.1536 15.8507 45.1282 15.8102 45.1138 15.7655C45.0995 15.7207 45.0966 15.6732 45.1055 15.6271C45.1585 15.3374 45.1521 15.0401 45.0868 14.7528C45.0215 14.4655 44.8985 14.1939 44.7251 13.9539C44.5517 13.7139 44.3314 13.5104 44.077 13.3551C43.8226 13.1999 43.5392 13.0962 43.2436 13.05C42.9479 13.0038 42.6458 13.0161 42.355 13.0861C42.0642 13.1562 41.7906 13.2826 41.5501 13.4579C41.3096 13.6332 41.1071 13.854 40.9544 14.1072C40.8018 14.3605 40.702 14.6411 40.6611 14.9328C40.6542 14.9843 40.6331 15.033 40.6001 15.0736C40.5671 15.1142 40.5234 15.1452 40.4737 15.1631C40.4241 15.181 40.3704 15.1852 40.3185 15.1752C40.2666 15.1652 40.2185 15.1415 40.1794 15.1065C39.974 14.9223 39.7062 14.8199 39.4283 14.8191Z" fill="#989AA6"/>
<path d="M17.8935 24.4065C18.0222 24.1835 18.0659 23.9225 18.0165 23.6706C17.9672 23.4188 17.8281 23.1924 17.6242 23.0324C17.4204 22.8723 17.1652 22.7889 16.9045 22.7973C16.6438 22.8056 16.3946 22.9052 16.2018 23.078C16.1378 22.5875 15.886 22.1394 15.4979 21.825C15.1097 21.5105 14.6143 21.3534 14.1124 21.3854C13.6105 21.4175 13.14 21.6365 12.7965 21.9977C12.453 22.3589 12.2624 22.8353 12.2635 23.3298C12.2638 23.4497 12.2755 23.5693 12.2985 23.6871C12.0698 23.6391 11.8334 23.639 11.6047 23.6868C11.376 23.7345 11.1601 23.8291 10.9709 23.9642C10.7818 24.0994 10.6237 24.2722 10.5069 24.4714C10.3901 24.6706 10.3173 24.8917 10.2931 25.1204C10.2689 25.3491 10.294 25.5802 10.3666 25.7988C10.4392 26.0174 10.5577 26.2184 10.7145 26.389C10.8713 26.5596 11.0629 26.6958 11.2767 26.7888C11.4905 26.8818 11.7219 26.9295 11.9557 26.9288H17.6479C17.9695 26.9283 18.2795 26.8101 18.5173 26.5972C18.7551 26.3844 18.9039 26.092 18.9345 25.7772C18.9652 25.4624 18.8755 25.1477 18.6831 24.8943C18.4906 24.6409 18.2092 24.467 17.8935 24.4065Z" fill="white"/>
<path d="M17.647 27.212H11.9548C11.436 27.2096 10.9394 27.0047 10.5743 26.6422C10.2092 26.2798 10.0054 25.7896 10.0078 25.2795C10.0103 24.7693 10.2187 24.281 10.5872 23.922C10.9558 23.5629 11.4543 23.3626 11.9731 23.365V23.3284C11.9733 22.7993 12.1648 22.2875 12.5134 21.8845C12.8621 21.4815 13.3451 21.2136 13.8761 21.1286C14.4072 21.0436 14.9517 21.1471 15.4123 21.4206C15.8729 21.6941 16.2196 22.1197 16.3903 22.6215C16.6295 22.5197 16.893 22.4864 17.1506 22.5252C17.4082 22.5641 17.6494 22.6735 17.8466 22.841C18.0438 23.0085 18.189 23.2273 18.2655 23.4723C18.3421 23.7172 18.3468 23.9784 18.2792 24.2259C18.6132 24.3686 18.887 24.62 19.0545 24.9378C19.222 25.2557 19.2731 25.6206 19.199 25.9712C19.125 26.3217 18.9304 26.6365 18.6481 26.8625C18.3657 27.0885 18.0128 27.2119 17.6487 27.212H17.647ZM11.9548 23.9342C11.5895 23.9342 11.2392 24.0769 10.9809 24.3309C10.7227 24.5848 10.5776 24.9293 10.5776 25.2885C10.5776 25.6477 10.7227 25.9921 10.9809 26.2461C11.2392 26.5001 11.5895 26.6428 11.9548 26.6428H17.647C17.8972 26.6433 18.1387 26.5521 18.3241 26.3868C18.5095 26.2215 18.6255 25.9941 18.6493 25.7491C18.6731 25.5042 18.6031 25.2593 18.453 25.0624C18.3028 24.8656 18.0834 24.7309 17.8376 24.6848C17.7925 24.6763 17.7501 24.6573 17.7139 24.6295C17.6777 24.6016 17.6488 24.5658 17.6296 24.5248C17.6103 24.4838 17.6012 24.4389 17.6031 24.3937C17.605 24.3486 17.6177 24.3046 17.6403 24.2653C17.7093 24.1463 17.7455 24.0116 17.7453 23.8747C17.7454 23.7209 17.7 23.5704 17.6147 23.4415C17.5295 23.3126 17.4079 23.2109 17.2649 23.1486C17.122 23.0863 16.9636 23.0663 16.8093 23.0908C16.6549 23.1153 16.5111 23.1835 16.3953 23.2869C16.3562 23.3218 16.3081 23.3456 16.2562 23.3556C16.2043 23.3655 16.1506 23.3613 16.101 23.3434C16.0514 23.3255 16.0077 23.2946 15.9746 23.254C15.9416 23.2134 15.9205 23.1647 15.9137 23.1131C15.8821 22.8951 15.8067 22.6855 15.692 22.4964C15.5772 22.3073 15.4253 22.1426 15.2452 22.0118C15.065 21.8811 14.8602 21.7868 14.6426 21.7347C14.4251 21.6825 14.1991 21.6734 13.978 21.708C13.7568 21.7425 13.5449 21.82 13.3545 21.9359C13.1641 22.0517 12.999 22.2037 12.8689 22.383C12.7388 22.5622 12.6463 22.7651 12.5968 22.9798C12.5472 23.1946 12.5417 23.4169 12.5803 23.6337C12.5891 23.6798 12.5861 23.7273 12.5717 23.7719C12.5573 23.8166 12.5319 23.8571 12.4978 23.8898C12.4636 23.9225 12.4218 23.9464 12.376 23.9594C12.3303 23.9724 12.2819 23.974 12.2353 23.9643C12.1431 23.9448 12.0491 23.9347 11.9548 23.9342Z" fill="#989AA6"/>
<path d="M43.5226 45.978H41.3026C41.0627 45.978 40.8682 46.1693 40.8682 46.4052V46.462C40.8682 46.698 41.0627 46.8892 41.3026 46.8892H43.5226C43.7625 46.8892 43.9571 46.698 43.9571 46.462V46.4052C43.9571 46.1693 43.7625 45.978 43.5226 45.978Z" fill="#A09CAD"/>
<path d="M33.9556 37.8218H17.8945V48.4713H33.9556V37.8218Z" fill="#B8B5C6"/>
<path d="M33.9557 37.8218H20.4307V48.4713H33.9557V37.8218Z" fill="#989AA6"/>
<path d="M24.8718 43.7617H22.3296C22.0979 43.7617 21.9102 43.9464 21.9102 44.1742V45.8071C21.9102 46.0348 22.0979 46.2195 22.3296 46.2195H24.8718C25.1035 46.2195 25.2913 46.0348 25.2913 45.8071V44.1742C25.2913 43.9464 25.1035 43.7617 24.8718 43.7617Z" fill="white"/>
<path d="M24.8718 40.0752H22.3296C22.0979 40.0752 21.9102 40.2599 21.9102 40.4876V42.1205C21.9102 42.3483 22.0979 42.533 22.3296 42.533H24.8718C25.1035 42.533 25.2913 42.3483 25.2913 42.1205V40.4876C25.2913 40.2599 25.1035 40.0752 24.8718 40.0752Z" fill="white"/>
<path d="M29.5212 43.7617H26.979C26.7474 43.7617 26.5596 43.9464 26.5596 44.1742V45.8071C26.5596 46.0348 26.7474 46.2195 26.979 46.2195H29.5212C29.7529 46.2195 29.9407 46.0348 29.9407 45.8071V44.1742C29.9407 43.9464 29.7529 43.7617 29.5212 43.7617Z" fill="white"/>
<path d="M29.5212 40.0757H26.979C26.7474 40.0757 26.5596 40.2603 26.5596 40.4881V42.121C26.5596 42.3488 26.7474 42.5335 26.979 42.5335H29.5212C29.7529 42.5335 29.9407 42.3488 29.9407 42.121V40.4881C29.9407 40.2603 29.7529 40.0757 29.5212 40.0757Z" fill="white"/>
<path d="M33.955 48.8837H17.8939C17.8388 48.8842 17.7842 48.8739 17.7331 48.8535C17.682 48.8332 17.6356 48.8031 17.5963 48.765C17.5571 48.727 17.5259 48.6817 17.5045 48.6317C17.4831 48.5818 17.472 48.5282 17.4717 48.474V37.8223C17.472 37.7682 17.4833 37.7146 17.5047 37.6647C17.5261 37.6148 17.5573 37.5695 17.5965 37.5315C17.6357 37.4934 17.6821 37.4633 17.7332 37.443C17.7842 37.4226 17.8388 37.4122 17.8939 37.4126H33.955C34.0663 37.4119 34.1733 37.4546 34.2526 37.5314C34.3319 37.6083 34.3769 37.7129 34.3778 37.8223V48.4718C34.3777 48.5262 34.3667 48.5801 34.3454 48.6303C34.3241 48.6805 34.2929 48.726 34.2536 48.7643C34.2143 48.8026 34.1677 48.8328 34.1164 48.8533C34.0652 48.8738 34.0103 48.8842 33.955 48.8837ZM18.3167 48.0643H33.5322V38.231H18.3167V48.0643Z" fill="#282C3F"/>
<path d="M15.7812 37.8217L25.9251 29.6294L36.069 37.8217H15.7812Z" fill="#52576A"/>
<path d="M19.1631 37.8222L27.6159 30.9951L36.0692 37.8222H19.1631Z" fill="#30354C"/>
<path d="M21.9725 35.5505L25.8153 32.447C25.8465 32.4213 25.8858 32.4072 25.9264 32.4072C25.9671 32.4072 26.0064 32.4213 26.0375 32.447L29.8809 35.5505C29.9095 35.5718 29.9305 35.6015 29.9406 35.6354C29.9506 35.6692 29.9494 35.7054 29.9369 35.7385C29.9244 35.7715 29.9014 35.7998 29.8713 35.819C29.8412 35.8381 29.8056 35.8473 29.7698 35.845H22.0825C22.0468 35.847 22.0114 35.8377 21.9815 35.8184C21.9516 35.7991 21.9288 35.7709 21.9165 35.7379C21.9041 35.7049 21.9029 35.6688 21.913 35.6351C21.9231 35.6014 21.944 35.5717 21.9725 35.5505Z" fill="white"/>
<path d="M36.0684 38.2306H15.7807C15.6943 38.231 15.6099 38.2053 15.5389 38.1571C15.4678 38.1088 15.4136 38.0402 15.3834 37.9607C15.354 37.8814 15.3504 37.7952 15.3731 37.7138C15.3958 37.6325 15.4437 37.5601 15.5101 37.5067L25.654 29.3123C25.7303 29.2508 25.8259 29.2173 25.9245 29.2173C26.0232 29.2173 26.1188 29.2508 26.1951 29.3123L36.339 37.5067C36.4055 37.56 36.4535 37.6324 36.4762 37.7138C36.4989 37.7951 36.4952 37.8815 36.4657 37.9607C36.4355 38.0402 36.3813 38.1088 36.3102 38.1571C36.2392 38.2053 36.1548 38.231 36.0684 38.2306ZM16.9484 37.4111H34.9007L25.9245 30.1628L16.9484 37.4111Z" fill="#282C3F"/>
</svg>
