<svg width="71" height="71" viewBox="0 0 71 71" fill="none" xmlns="http://www.w3.org/2000/svg">
<path d="M56.8633 29.6819C55.9854 26.0886 50.5472 24.9515 48.1563 22.4589C45.6892 19.8876 44.7429 14.4473 41.3202 13.445C38.0022 12.4733 34.2953 16.4887 30.6963 17.365C27.0972 18.2413 21.9525 16.3798 19.4548 18.765C16.8783 21.2269 18.5463 26.4909 17.5425 29.9075C16.5666 33.2172 12.2629 36.7244 13.1408 40.3178C14.0186 43.9111 19.4569 45.0482 21.8477 47.5407C24.3143 50.112 25.2606 55.5523 28.6834 56.5546C32.0019 57.5263 35.7088 53.5104 39.3094 52.6346C42.91 51.7589 48.0537 53.6198 50.5514 51.2346C53.1279 48.7727 50.8262 43.9427 52.066 40.0346C53.2736 36.2292 57.7412 33.2752 56.8633 29.6819Z" fill="#F6F6F6"/>
<path d="M46.3354 21.4937C49.0073 24.6661 50.4702 28.6818 50.4649 32.8295C50.4649 42.5704 42.5699 50.4654 32.829 50.4654C28.6813 50.4707 24.6656 49.0078 21.4932 46.3359C24.7282 50.1864 29.5769 52.6359 34.9995 52.6359C44.7394 52.6359 52.6354 44.7399 52.6354 35C52.6354 29.5774 50.1859 24.7287 46.3354 21.4937Z" fill="#EDEDED"/>
<path d="M50.4655 32.8296C50.4708 28.6819 49.0079 24.6662 46.336 21.4938C43.1635 18.8218 39.1478 17.359 35.0001 17.3643C25.2603 17.3643 17.3643 25.2603 17.3643 35.0001C17.359 39.1478 18.8218 43.1635 21.4938 46.336C24.6662 49.0079 28.6819 50.4708 32.8296 50.4655C42.5705 50.4655 50.4655 42.5705 50.4655 32.8296Z" fill="white"/>
<path d="M32.5022 51.4027L33.4563 50.4517C33.2489 50.459 33.0415 50.4678 32.8294 50.4678C31.1838 50.4682 29.5463 50.238 27.9646 49.7839C27.3383 49.9537 26.6804 49.9706 26.0461 49.8331C25.2686 49.6693 24.5557 49.2823 23.9949 48.7194C23.8733 48.596 23.7596 48.4653 23.6542 48.3279C23.4817 48.1044 23.3326 47.8637 23.2093 47.6097C22.6161 47.2235 22.0466 46.8021 21.5039 46.3477C21.5158 46.3611 21.5262 46.3757 21.5381 46.3891C21.6418 46.5125 21.7507 46.6303 21.8575 46.7521C21.9644 46.874 22.0649 46.9854 22.1686 47.0985C22.2843 47.2208 22.4051 47.3391 22.5244 47.4614C22.6281 47.5651 22.7318 47.6688 22.8381 47.7725C22.963 47.8918 23.0932 48.0069 23.2218 48.1225C23.3286 48.2185 23.4338 48.316 23.5427 48.4093C23.6765 48.5234 23.8139 48.6328 23.9508 48.7432C24.0607 48.8319 24.1701 48.9221 24.2821 49.0077C24.4221 49.1155 24.5663 49.2182 24.7099 49.3219C24.824 49.4043 24.9381 49.4878 25.0547 49.5677C25.1999 49.6672 25.3487 49.7621 25.497 49.8575C25.6173 49.9342 25.7366 50.0131 25.86 50.0862C26.0093 50.1769 26.1618 50.263 26.3137 50.3496C26.4402 50.4217 26.5662 50.4937 26.6943 50.5622C26.8462 50.6436 27.0007 50.7208 27.1558 50.7981C27.289 50.864 27.4218 50.9308 27.5566 50.9941C27.7121 51.0657 27.8677 51.1336 28.0232 51.2015C28.1638 51.2617 28.3038 51.3223 28.4463 51.3794C28.6019 51.4416 28.7575 51.5002 28.9161 51.5583C29.0639 51.6101 29.2112 51.6661 29.3605 51.7138C29.5098 51.7615 29.6742 51.8175 29.8318 51.8637C29.9895 51.9098 30.1429 51.958 30.2985 52.0016C30.4541 52.0451 30.6096 52.084 30.7678 52.1229C30.9259 52.1618 31.0944 52.2017 31.2593 52.2375C31.3272 52.252 31.3962 52.2645 31.4641 52.2785C31.7138 52.1021 31.9532 51.9117 32.1812 51.7081C32.2917 51.607 32.3985 51.5069 32.5022 51.4027Z" fill="#A09CAD"/>
<path d="M35.0002 52.9072C27.4874 52.9072 20.7202 48.1643 18.1608 41.1047C18.1486 41.0712 18.1432 41.0356 18.1448 41C18.1464 40.9644 18.155 40.9295 18.1701 40.8972C18.1852 40.8649 18.2065 40.8359 18.2328 40.8119C18.2591 40.7878 18.2899 40.7692 18.3234 40.7571C18.3569 40.7449 18.3924 40.7395 18.428 40.7411C18.4636 40.7426 18.4986 40.7512 18.5309 40.7663C18.5631 40.7814 18.5921 40.8027 18.6162 40.829C18.6402 40.8553 18.6589 40.8861 18.671 40.9196C21.1558 47.7651 27.715 52.3643 35.0002 52.3643C44.5752 52.3643 52.3644 44.5752 52.3644 35.0002C52.3645 33.8247 52.2464 32.6521 52.0118 31.5002C51.9974 31.4297 52.0116 31.3564 52.0513 31.2964C52.091 31.2364 52.1528 31.1946 52.2233 31.1803C52.2938 31.1659 52.3671 31.1801 52.4271 31.2198C52.4871 31.2595 52.5289 31.3214 52.5432 31.3918C52.7852 32.5794 52.9068 33.7883 52.9062 35.0002C52.9072 44.8743 44.8744 52.9072 35.0002 52.9072Z" fill="#282C3F"/>
<path d="M17.7503 38.9613C17.6881 38.9611 17.628 38.9397 17.5798 38.9005C17.5316 38.8613 17.4982 38.8069 17.4853 38.7461C17.224 37.5145 17.0925 36.2589 17.0928 34.9998C17.0928 25.1257 25.1257 17.0928 34.9998 17.0928C42.5624 17.0928 49.3446 21.8777 51.8765 28.9995C51.9007 29.0673 51.8969 29.1419 51.866 29.2069C51.8352 29.2719 51.7797 29.322 51.7119 29.3461C51.6441 29.3703 51.5695 29.3665 51.5045 29.3356C51.4395 29.3047 51.3894 29.2493 51.3653 29.1815C48.9101 22.2754 42.3332 17.6357 34.9998 17.6357C25.4248 17.6357 17.6357 25.4248 17.6357 34.9998C17.635 36.2211 17.7626 37.439 18.0163 38.6336C18.0311 38.7038 18.0176 38.7769 17.9788 38.8372C17.9399 38.8975 17.8789 38.9401 17.8088 38.9556C17.7895 38.9594 17.7699 38.9613 17.7503 38.9613Z" fill="#282C3F"/>
<path d="M55.6194 24.1471C56.968 24.1471 58.0611 23.0539 58.0611 21.7054C58.0611 20.3569 56.968 19.2637 55.6194 19.2637C54.2709 19.2637 53.1777 20.3569 53.1777 21.7054C53.1777 23.0539 54.2709 24.1471 55.6194 24.1471Z" fill="white"/>
<path d="M55.6205 24.4189C55.5486 24.4189 55.4796 24.3903 55.4287 24.3394C55.3779 24.2886 55.3493 24.2196 55.3493 24.1477C55.3486 23.5722 55.1197 23.0205 54.7128 22.6136C54.3059 22.2067 53.7542 21.9778 53.1788 21.9772C53.1088 21.9741 53.0428 21.9442 52.9944 21.8936C52.946 21.843 52.9189 21.7757 52.9189 21.7057C52.9189 21.6357 52.946 21.5684 52.9944 21.5178C53.0428 21.4673 53.1088 21.4373 53.1788 21.4343C53.7542 21.4336 54.3059 21.2047 54.7128 20.7978C55.1197 20.3909 55.3486 19.8392 55.3493 19.2637C55.3524 19.1938 55.3823 19.1277 55.4329 19.0793C55.4834 19.0309 55.5507 19.0039 55.6207 19.0039C55.6908 19.0039 55.7581 19.0309 55.8086 19.0793C55.8592 19.1277 55.8891 19.1938 55.8922 19.2637C55.8929 19.8392 56.1218 20.3909 56.5287 20.7978C56.9356 21.2047 57.4873 21.4336 58.0627 21.4343C58.1326 21.4373 58.1987 21.4673 58.2471 21.5178C58.2955 21.5684 58.3225 21.6357 58.3225 21.7057C58.3225 21.7757 58.2955 21.843 58.2471 21.8936C58.1987 21.9442 58.1326 21.9741 58.0627 21.9772C57.4873 21.9778 56.9356 22.2067 56.5287 22.6136C56.1218 23.0205 55.8929 23.5722 55.8922 24.1477C55.8922 24.1833 55.8852 24.2186 55.8715 24.2516C55.8578 24.2845 55.8378 24.3144 55.8126 24.3396C55.7873 24.3648 55.7574 24.3848 55.7244 24.3984C55.6915 24.412 55.6561 24.4189 55.6205 24.4189ZM54.361 21.7054C54.9099 21.9728 55.3534 22.4164 55.6205 22.9654C55.8883 22.4162 56.3325 21.9726 56.882 21.7054C56.333 21.4384 55.8894 20.9949 55.622 20.446C55.3547 20.9952 54.9106 21.4388 54.361 21.7054Z" fill="#989AA6"/>
<path d="M18.9925 22.2482C20.341 22.2482 21.4342 21.155 21.4342 19.8064C21.4342 18.4579 20.341 17.3647 18.9925 17.3647C17.644 17.3647 16.5508 18.4579 16.5508 19.8064C16.5508 21.155 17.644 22.2482 18.9925 22.2482Z" fill="white"/>
<path d="M18.9929 22.5196C18.9209 22.5196 18.852 22.491 18.8011 22.4401C18.7502 22.3893 18.7217 22.3203 18.7217 22.2484C18.721 21.6729 18.4921 21.1212 18.0852 20.7143C17.6783 20.3074 17.1266 20.0785 16.5511 20.0779C16.5145 20.0795 16.4779 20.0736 16.4436 20.0607C16.4093 20.0478 16.3779 20.028 16.3514 20.0027C16.3249 19.9773 16.3038 19.9469 16.2894 19.9131C16.275 19.8794 16.2676 19.8431 16.2676 19.8064C16.2676 19.7697 16.275 19.7334 16.2894 19.6997C16.3038 19.666 16.3249 19.6355 16.3514 19.6101C16.3779 19.5848 16.4093 19.565 16.4436 19.5521C16.4779 19.5392 16.5145 19.5334 16.5511 19.535C17.1266 19.5344 17.6784 19.3056 18.0853 18.8986C18.4923 18.4917 18.7211 17.9399 18.7217 17.3644C18.7217 17.2925 18.7502 17.2235 18.8011 17.1727C18.852 17.1218 18.9209 17.0933 18.9929 17.0933C19.0648 17.0933 19.1338 17.1218 19.1846 17.1727C19.2355 17.2235 19.264 17.2925 19.264 17.3644C19.2646 17.9399 19.4934 18.4917 19.9004 18.8986C20.3073 19.3056 20.8591 19.5344 21.4346 19.535C21.5045 19.538 21.5706 19.568 21.619 19.6185C21.6674 19.6691 21.6944 19.7364 21.6944 19.8064C21.6944 19.8764 21.6674 19.9437 21.619 19.9943C21.5706 20.0449 21.5045 20.0748 21.4346 20.0779C20.8591 20.0785 20.3074 20.3074 19.9005 20.7143C19.4936 21.1212 19.2647 21.6729 19.264 22.2484C19.264 22.3203 19.2355 22.3893 19.1846 22.4401C19.1338 22.491 19.0648 22.5196 18.9929 22.5196ZM17.7339 19.8077C18.2827 20.075 18.7261 20.5184 18.9934 21.0672C19.2602 20.5183 19.7035 20.0747 20.2523 19.8077C19.7034 19.5404 19.2599 19.0968 18.9929 18.5477C18.7256 19.0965 18.2824 19.54 17.7339 19.8077Z" fill="#989AA6"/>
<path d="M50.194 52.907C51.3927 52.907 52.3645 51.9352 52.3645 50.7364C52.3645 49.5377 51.3927 48.5659 50.194 48.5659C48.9952 48.5659 48.0234 49.5377 48.0234 50.7364C48.0234 51.9352 48.9952 52.907 50.194 52.907Z" fill="white"/>
<path d="M50.1927 53.1782C50.1208 53.1782 50.0518 53.1496 50.0009 53.0988C49.9501 53.0479 49.9215 52.9789 49.9215 52.907C49.9209 52.4035 49.7207 51.9207 49.3646 51.5646C49.0085 51.2085 48.5257 51.0082 48.0222 51.0077C47.9502 51.0077 47.8813 50.9791 47.8304 50.9283C47.7795 50.8774 47.751 50.8084 47.751 50.7365C47.751 50.6646 47.7795 50.5956 47.8304 50.5448C47.8813 50.4939 47.9502 50.4653 48.0222 50.4653C48.5257 50.4646 49.0084 50.2643 49.3644 49.9083C49.7205 49.5522 49.9208 49.0695 49.9215 48.566C49.9246 48.4961 49.9545 48.43 50.0051 48.3816C50.0556 48.3332 50.1229 48.3062 50.1929 48.3062C50.2629 48.3062 50.3303 48.3332 50.3808 48.3816C50.4314 48.43 50.4613 48.4961 50.4644 48.566C50.4649 49.0695 50.6651 49.5522 51.0211 49.9082C51.3771 50.2643 51.8597 50.4646 52.3632 50.4653C52.4351 50.4653 52.5041 50.4939 52.555 50.5448C52.6058 50.5956 52.6344 50.6646 52.6344 50.7365C52.6344 50.8084 52.6058 50.8774 52.555 50.9283C52.5041 50.9791 52.4351 51.0077 52.3632 51.0077C51.8597 51.0084 51.3771 51.2087 51.0211 51.5648C50.6651 51.9208 50.4649 52.4035 50.4644 52.907C50.4644 52.9427 50.4574 52.978 50.4437 53.0109C50.43 53.0439 50.41 53.0738 50.3848 53.099C50.3595 53.1242 50.3296 53.1441 50.2966 53.1577C50.2637 53.1713 50.2283 53.1783 50.1927 53.1782ZM49.1406 50.7365C49.5915 50.9702 49.959 51.3377 50.1927 51.7886C50.4264 51.3375 50.7941 50.97 51.2453 50.7365C50.794 50.503 50.4262 50.1352 50.1927 49.6839C49.9595 50.1349 49.5923 50.5026 49.1416 50.7365H49.1406Z" fill="#989AA6"/>
<path d="M40.6982 17.0931C41.7471 17.0931 42.5975 16.2427 42.5975 15.1938C42.5975 14.1448 41.7471 13.2944 40.6982 13.2944C39.6492 13.2944 38.7988 14.1448 38.7988 15.1938C38.7988 16.2427 39.6492 17.0931 40.6982 17.0931Z" fill="white"/>
<path d="M40.697 17.3641C40.6251 17.3641 40.5561 17.3356 40.5053 17.2847C40.4544 17.2338 40.4259 17.1649 40.4259 17.0929C40.4254 16.6614 40.2538 16.2476 39.9487 15.9425C39.6435 15.6373 39.2298 15.4657 38.7982 15.4653C38.7616 15.4669 38.725 15.4611 38.6907 15.4482C38.6563 15.4352 38.625 15.4155 38.5985 15.3901C38.572 15.3648 38.5509 15.3343 38.5365 15.3006C38.5221 15.2669 38.5146 15.2306 38.5146 15.1939C38.5146 15.1572 38.5221 15.1209 38.5365 15.0872C38.5509 15.0534 38.572 15.023 38.5985 14.9976C38.625 14.9722 38.6563 14.9525 38.6907 14.9396C38.725 14.9267 38.7616 14.9208 38.7982 14.9224C39.2298 14.922 39.6435 14.7504 39.9487 14.4453C40.2538 14.1401 40.4254 13.7263 40.4259 13.2948C40.4242 13.2582 40.4301 13.2216 40.443 13.1872C40.4559 13.1529 40.4757 13.1215 40.501 13.0951C40.5264 13.0686 40.5568 13.0475 40.5906 13.0331C40.6243 13.0187 40.6606 13.0112 40.6973 13.0112C40.734 13.0112 40.7703 13.0187 40.804 13.0331C40.8377 13.0475 40.8682 13.0686 40.8936 13.0951C40.9189 13.1215 40.9387 13.1529 40.9516 13.1872C40.9645 13.2216 40.9703 13.2582 40.9687 13.2948C40.9691 13.7263 41.1408 14.1401 41.4459 14.4453C41.7511 14.7504 42.1648 14.922 42.5964 14.9224C42.6663 14.9255 42.7324 14.9554 42.7808 15.006C42.8292 15.0566 42.8562 15.1239 42.8562 15.1939C42.8562 15.2639 42.8292 15.3312 42.7808 15.3818C42.7324 15.4323 42.6663 15.4623 42.5964 15.4653C42.1648 15.4657 41.7511 15.6373 41.4459 15.9425C41.1408 16.2476 40.9691 16.6614 40.9687 17.0929C40.9687 17.1286 40.9617 17.1639 40.948 17.1968C40.9344 17.2298 40.9144 17.2597 40.8891 17.2849C40.8639 17.3101 40.8339 17.33 40.801 17.3436C40.768 17.3572 40.7327 17.3642 40.697 17.3641ZM39.8482 15.1926C40.2048 15.391 40.4989 15.6852 40.697 16.0419C40.8956 15.6853 41.1897 15.3911 41.5464 15.1926C41.1896 14.9944 40.8954 14.7004 40.697 14.3438C40.499 14.7005 40.2049 14.9945 39.8482 15.1926Z" fill="#989AA6"/>
<path d="M13.8378 39.0702C14.8868 39.0702 15.7371 38.2198 15.7371 37.1708C15.7371 36.1218 14.8868 35.2715 13.8378 35.2715C12.7888 35.2715 11.9385 36.1218 11.9385 37.1708C11.9385 38.2198 12.7888 39.0702 13.8378 39.0702Z" fill="white"/>
<path d="M13.8375 39.341C13.8019 39.341 13.7666 39.334 13.7337 39.3204C13.7008 39.3068 13.6709 39.2868 13.6458 39.2616C13.6206 39.2364 13.6006 39.2065 13.587 39.1736C13.5733 39.1407 13.5663 39.1055 13.5663 39.0699C13.5658 38.6382 13.3941 38.2244 13.0888 37.9192C12.7836 37.614 12.3698 37.4423 11.9382 37.4417C11.8663 37.4417 11.7973 37.4131 11.7464 37.3623C11.6956 37.3114 11.667 37.2424 11.667 37.1705C11.667 37.0986 11.6956 37.0296 11.7464 36.9788C11.7973 36.9279 11.8663 36.8993 11.9382 36.8993C12.3698 36.8988 12.7836 36.7271 13.0888 36.4219C13.3941 36.1166 13.5658 35.7028 13.5663 35.2712C13.5663 35.1993 13.5949 35.1303 13.6458 35.0794C13.6966 35.0286 13.7656 35 13.8375 35C13.9094 35 13.9784 35.0286 14.0293 35.0794C14.0801 35.1303 14.1087 35.1993 14.1087 35.2712C14.1092 35.7028 14.281 36.1166 14.5862 36.4219C14.8914 36.7271 15.3052 36.8988 15.7368 36.8993C15.8088 36.8993 15.8777 36.9279 15.9286 36.9788C15.9795 37.0296 16.008 37.0986 16.008 37.1705C16.008 37.2424 15.9795 37.3114 15.9286 37.3623C15.8777 37.4131 15.8088 37.4417 15.7368 37.4417C15.3052 37.4423 14.8914 37.614 14.5862 37.9192C14.281 38.2244 14.1092 38.6382 14.1087 39.0699C14.1087 39.1055 14.1017 39.1407 14.0881 39.1736C14.0744 39.2065 14.0544 39.2364 14.0293 39.2616C14.0041 39.2868 13.9742 39.3068 13.9413 39.3204C13.9084 39.334 13.8731 39.341 13.8375 39.341ZM12.9882 37.1705C13.3453 37.3684 13.6396 37.6627 13.8375 38.0199C14.0354 37.6627 14.3297 37.3684 14.6868 37.1705C14.3297 36.9726 14.0354 36.6783 13.8375 36.3212C13.6396 36.6783 13.3453 36.9726 12.9882 37.1705Z" fill="#989AA6"/>
<path d="M28.7597 56.7059C29.8087 56.7059 30.659 55.8555 30.659 54.8066C30.659 53.7576 29.8087 52.9072 28.7597 52.9072C27.7107 52.9072 26.8604 53.7576 26.8604 54.8066C26.8604 55.8555 27.7107 56.7059 28.7597 56.7059Z" fill="white"/>
<path d="M28.7588 56.9768C28.7232 56.9768 28.6879 56.9697 28.6549 56.9561C28.622 56.9424 28.5921 56.9224 28.5669 56.8972C28.5417 56.8719 28.5217 56.842 28.5081 56.809C28.4946 56.7761 28.4876 56.7407 28.4877 56.7051C28.4871 56.2733 28.3152 55.8594 28.0098 55.5542C27.7043 55.2491 27.2902 55.0776 26.8585 55.0774C26.7885 55.0744 26.7225 55.0445 26.6741 54.9939C26.6257 54.9433 26.5986 54.876 26.5986 54.806C26.5986 54.736 26.6257 54.6687 26.6741 54.6181C26.7225 54.5675 26.7885 54.5376 26.8585 54.5346C27.2901 54.5341 27.7039 54.3625 28.0091 54.0574C28.3143 53.7523 28.4861 53.3385 28.4866 52.9069C28.4866 52.835 28.5152 52.766 28.566 52.7152C28.6169 52.6643 28.6859 52.6357 28.7578 52.6357C28.8297 52.6357 28.8987 52.6643 28.9496 52.7152C29.0004 52.766 29.029 52.835 29.029 52.9069C29.0295 53.3385 29.2013 53.7523 29.5065 54.0574C29.8117 54.3625 30.2255 54.5341 30.6571 54.5346C30.7271 54.5376 30.7931 54.5675 30.8415 54.6181C30.89 54.6687 30.917 54.736 30.917 54.806C30.917 54.876 30.89 54.9433 30.8415 54.9939C30.7931 55.0445 30.7271 55.0744 30.6571 55.0774C30.2255 55.0779 29.8117 55.2495 29.5065 55.5546C29.2013 55.8597 29.0295 56.2735 29.029 56.7051C29.0291 56.7769 29.0008 56.8459 28.9501 56.8968C28.8995 56.9477 28.8307 56.9765 28.7588 56.9768ZM27.9095 54.8073C28.2665 55.0052 28.5608 55.2993 28.7588 55.6561C28.9567 55.2996 29.2503 55.0056 29.6066 54.8073C29.2498 54.6089 28.9556 54.3147 28.7573 53.958C28.5595 54.3146 28.2658 54.6089 27.9095 54.8073Z" fill="#989AA6"/>
<path d="M37.4216 31.9004C38.0132 32.6569 38.3076 33.6038 38.2491 34.5625C38.1907 35.5211 37.7835 36.4252 37.1043 37.1043C36.4252 37.7834 35.521 38.1905 34.5624 38.2489C33.6037 38.3072 32.6569 38.0128 31.9004 37.4211C32.2432 37.8604 32.6754 38.2218 33.1684 38.4815C33.6614 38.7412 34.2039 38.8932 34.7601 38.9274C35.3162 38.9616 35.8733 38.8772 36.3944 38.6799C36.9155 38.4826 37.3888 38.1768 37.7828 37.7828C38.1768 37.3888 38.4826 36.9156 38.68 36.3945C38.8774 35.8735 38.9618 35.3164 38.9276 34.7602C38.8935 34.2041 38.7415 33.6615 38.4819 33.1685C38.2223 32.6754 37.8608 32.2432 37.4216 31.9004Z" fill="#2FC8F2"/>
<path d="M38.2557 34.322C38.2568 33.4441 37.963 32.5914 37.4215 31.9005C36.665 31.3088 35.7181 31.0143 34.7595 31.0727C33.8008 31.131 32.8967 31.5382 32.2175 32.2172C31.5384 32.8963 31.1312 33.8004 31.0727 34.7591C31.0143 35.7177 31.3086 36.6646 31.9003 37.4212C32.481 37.8752 33.1777 38.1569 33.9108 38.2342C34.6439 38.3114 35.384 38.181 36.0466 37.8579C36.7092 37.5348 37.2677 37.0319 37.6583 36.4068C38.0489 35.7816 38.2559 35.0592 38.2557 34.322Z" fill="#2CAAE6"/>
<path d="M47.2687 31.561C47.8599 32.3176 48.154 33.2643 48.0954 34.2226C48.0368 35.181 47.6297 36.0848 46.9508 36.7638C46.2719 37.4427 45.368 37.8498 44.4096 37.9084C43.4513 37.967 42.5046 37.6729 41.748 37.0817C42.0908 37.5212 42.523 37.8829 43.016 38.1427C43.5091 38.4026 44.0517 38.5547 44.608 38.589C45.1643 38.6233 45.7215 38.539 46.2427 38.3417C46.7639 38.1443 47.2373 37.8385 47.6314 37.4444C48.0255 37.0503 48.3313 36.5769 48.5287 36.0557C48.726 35.5345 48.8103 34.9772 48.776 34.421C48.7417 33.8647 48.5896 33.322 48.3298 32.829C48.0699 32.3359 47.7082 31.9037 47.2687 31.561Z" fill="#2FC8F2"/>
<path d="M48.1045 33.9826C48.1054 33.1047 47.8114 32.2519 47.2697 31.5611C46.5132 30.9699 45.5665 30.6758 44.6081 30.7344C43.6498 30.7929 42.7459 31.2001 42.067 31.879C41.3881 32.5579 40.9809 33.4618 40.9224 34.4201C40.8638 35.3785 41.1578 36.3252 41.7491 37.0817C42.3298 37.5358 43.0265 37.8175 43.7596 37.8947C44.4927 37.972 45.2328 37.8416 45.8954 37.5185C46.558 37.1954 47.1165 36.6925 47.5071 36.0673C47.8977 35.4421 48.1047 34.7197 48.1045 33.9826Z" fill="#2CAAE6"/>
<path d="M27.3356 31.9785C27.9273 32.7351 28.2216 33.682 28.1632 34.6406C28.1047 35.5992 27.6976 36.5034 27.0184 37.1824C26.3393 37.8615 25.4351 38.2686 24.4765 38.327C23.5178 38.3853 22.571 38.0909 21.8145 37.4992C22.1572 37.9385 22.5894 38.2999 23.0824 38.5596C23.5754 38.8193 24.118 38.9713 24.6741 39.0055C25.2303 39.0397 25.7874 38.9553 26.3085 38.758C26.8296 38.5607 27.3028 38.2549 27.6969 37.8609C28.0909 37.467 28.3967 36.9938 28.5941 36.4727C28.7914 35.9516 28.8758 35.3945 28.8417 34.8383C28.8075 34.2822 28.6556 33.7396 28.396 33.2466C28.1363 32.7536 27.7749 32.3213 27.3356 31.9785Z" fill="#2FC8F2"/>
<path d="M28.1698 34.3996C28.1708 33.5219 27.877 32.6693 27.3355 31.9786C26.579 31.3869 25.6322 31.0925 24.6735 31.1508C23.7149 31.2092 22.8107 31.6163 22.1316 32.2954C21.4524 32.9745 21.0452 33.8786 20.9868 34.8372C20.9283 35.7958 21.2227 36.7427 21.8143 37.4993C22.3951 37.9534 23.0918 38.2351 23.825 38.3123C24.5582 38.3895 25.2983 38.2591 25.9609 37.9359C26.6235 37.6127 27.182 37.1098 27.5725 36.4845C27.9631 35.8593 28.1701 35.1368 28.1698 34.3996Z" fill="#2CAAE6"/>
</svg>
