<svg width="71" height="71" viewBox="0 0 71 71" fill="none" xmlns="http://www.w3.org/2000/svg">
<path d="M57.65 26.8716C55.9545 22.4812 57.6133 15.3787 53.9301 12.4067C50.3604 9.52716 43.7252 12.5166 38.8528 11.7404C33.9805 10.9643 28.6292 6.06698 24.3278 7.69428C19.8876 9.36845 19.2073 16.629 16.2032 20.2707C13.2918 23.7998 6.19032 25.8651 5.4046 30.6854C4.61889 35.5056 10.7065 39.6703 12.3506 43.9254C14.0461 48.3157 12.3873 55.4182 16.0704 58.3902C19.6402 61.2698 26.2754 58.2804 31.1478 59.0599C36.0201 59.8394 41.3701 64.73 45.6715 63.1027C50.1116 61.4285 50.792 54.168 53.7961 50.5263C56.7075 46.9972 63.8089 44.9326 64.5947 40.1116C65.3804 35.2907 59.2941 31.1267 57.65 26.8716Z" fill="#F6F6F6"/>
<path d="M35.0001 58.1751C47.5291 58.1751 57.6858 47.9776 57.6858 35.3984C57.6858 22.8191 47.5291 12.6216 35.0001 12.6216C22.4712 12.6216 12.3145 22.8191 12.3145 35.3984C12.3145 47.9776 22.4712 58.1751 35.0001 58.1751Z" fill="white"/>
<path d="M34.9995 12.6216C34.5326 12.6216 34.0657 12.641 33.6035 12.6691C45.4813 13.3937 54.8932 23.2901 54.8932 35.3984C54.8932 47.5066 45.4813 57.403 33.6035 58.1276C34.0657 58.1564 34.5306 58.1751 34.9995 58.1751C47.5283 58.1751 57.6852 47.9774 57.6852 35.3984C57.6852 22.8193 47.5283 12.6216 34.9995 12.6216Z" fill="#EDEDED"/>
<mask id="mask0_1943_2349" style="mask-type:luminance" maskUnits="userSpaceOnUse" x="12" y="12" width="46" height="47">
<path d="M35.0001 58.1751C47.5291 58.1751 57.6858 47.9776 57.6858 35.3984C57.6858 22.8191 47.5291 12.6216 35.0001 12.6216C22.4712 12.6216 12.3145 22.8191 12.3145 35.3984C12.3145 47.9776 22.4712 58.1751 35.0001 58.1751Z" fill="white"/>
</mask>
<g mask="url(#mask0_1943_2349)">
<path d="M59.1666 43.9542L57.4698 39.1976L54.8112 36.9428L53.107 33.5482L51.4656 28.7032L49.0284 25.7272L47.465 21.7172L44.7503 17.876L45.2472 21.2096L44.2107 23.4456L44.729 26.0299L42.8567 29.8396L43.4497 32.2725L42.137 34.8059L43.0008 37.8067L42.101 41.9901L37.999 52.2179H60.017L59.1666 43.9542Z" fill="#989AA6"/>
<path d="M43.0005 37.8067L42.1367 34.8059L43.4494 32.2725L42.8564 29.8396L44.7287 26.0299L44.2104 23.4456L45.2469 21.2096L44.75 17.876L43.1446 22.3755L40.8208 25.8785L38.3636 28.1654L36.6761 32.5484L34.5811 36.6803L32.6788 38.6263L31.5256 44.8998L29.0664 52.2179H37.9987L42.1007 41.9901L43.0005 37.8067Z" fill="#B8B5C6"/>
<path d="M18.3782 42.5854L20.5512 40.7538L19.1672 37.9017L20.7093 34.3813L20.3932 31.7796L21.8459 29.4203L21.0802 27.0899L22.3054 23.8755L19.7655 26.739L18.8424 30.7416L15.877 33.6714L15.6215 36.995L13.0116 41.3759L11.5215 45.1274L8.82422 52.2179H15.2533L18.8117 44.6185L18.3782 42.5854Z" fill="#B8B5C6"/>
<path d="M33.3384 44.9312L30.9292 41.6545L30.0094 37.2983L26.9826 34.5353L26.5598 30.7992L23.8318 27.0899L22.305 23.8755L21.0798 27.0899L21.8455 29.4203L20.3928 31.7796L20.7089 34.3813L19.1668 37.9017L20.5508 40.7538L18.3778 42.5854L18.8113 44.6185L15.2529 52.2179H34.8671L33.3384 44.9312Z" fill="#989AA6"/>
</g>
<path d="M35.0005 58.5258C26.1962 58.5258 18.2923 53.6078 14.3671 45.6909C14.3466 45.6498 14.3343 45.605 14.331 45.5592C14.3277 45.5133 14.3334 45.4672 14.3478 45.4236C14.3623 45.3799 14.3851 45.3395 14.4151 45.3048C14.4451 45.27 14.4816 45.2414 14.5225 45.2208C14.5635 45.2002 14.6081 45.1879 14.6537 45.1846C14.6994 45.1812 14.7453 45.187 14.7888 45.2015C14.8323 45.216 14.8725 45.2389 14.9072 45.269C14.9418 45.2991 14.9702 45.3357 14.9907 45.3769C18.7973 53.0539 26.463 57.8227 35.0005 57.8227C47.3164 57.8227 57.3366 47.7629 57.3366 35.3968C57.3375 33.5161 57.1038 31.6428 56.641 29.8204C56.618 29.7304 56.6317 29.6349 56.6789 29.555C56.7261 29.475 56.8031 29.4172 56.8927 29.3942C56.9824 29.3712 57.0775 29.3849 57.1572 29.4323C57.2368 29.4797 57.2944 29.557 57.3173 29.647C57.7949 31.5266 58.036 33.459 58.035 35.3988C58.035 48.1513 47.7019 58.5258 35.0005 58.5258Z" fill="#282C3F"/>
<path d="M13.796 43.8631C13.7252 43.8631 13.6561 43.8415 13.5979 43.8012C13.5396 43.7609 13.495 43.7038 13.4698 43.6374C11.6514 38.8345 11.4758 33.5607 12.9706 28.6466C14.4654 23.7324 17.5457 19.4571 21.7265 16.4937C21.8022 16.4462 21.8932 16.4296 21.9807 16.4474C22.0682 16.4652 22.1456 16.5161 22.1969 16.5895C22.2482 16.6629 22.2695 16.7532 22.2565 16.8419C22.2434 16.9306 22.1969 17.0109 22.1267 17.0663C18.0731 19.9403 15.0868 24.0863 13.6378 28.8515C12.1888 33.6167 12.3594 38.7305 14.1228 43.3876C14.143 43.4407 14.1501 43.4979 14.1434 43.5543C14.1367 43.6107 14.1164 43.6647 14.0843 43.7115C14.0522 43.7583 14.0092 43.7965 13.9591 43.823C13.909 43.8494 13.8532 43.8631 13.7966 43.8631H13.796Z" fill="#282C3F"/>
<path d="M56.3692 28.085C56.2971 28.0849 56.2269 28.0624 56.1681 28.0207C56.1092 27.979 56.0646 27.9201 56.0403 27.852C52.8755 18.9521 44.418 12.9726 35.0001 12.9726C31.1102 12.971 27.2874 13.9894 23.9101 15.9272C23.8298 15.9734 23.7345 15.9856 23.6452 15.9613C23.5558 15.9369 23.4798 15.8779 23.4338 15.7973C23.3878 15.7167 23.3756 15.621 23.3999 15.5313C23.4242 15.4416 23.4829 15.3653 23.5632 15.3191C27.0461 13.3206 30.9885 12.2701 35.0001 12.2715C44.7122 12.2715 53.4317 18.4385 56.698 27.6163C56.729 27.7038 56.7242 27.8002 56.6845 27.8842C56.6449 27.9682 56.5737 28.033 56.4865 28.0643C56.4489 28.078 56.4092 28.0851 56.3692 28.085Z" fill="#282C3F"/>
<path d="M40.7429 17.3624C40.8243 17.2159 40.8513 17.0452 40.8191 16.8806C40.7868 16.7161 40.6974 16.5684 40.5668 16.4638C40.4361 16.3593 40.2728 16.3047 40.1058 16.3098C39.9388 16.315 39.7791 16.3794 39.6551 16.4918C39.6342 16.3216 39.5795 16.1574 39.494 16.0089C39.4086 15.8604 39.2942 15.7308 39.1577 15.6277C39.0213 15.5245 38.8655 15.4501 38.6998 15.4088C38.534 15.3674 38.3617 15.36 38.193 15.387C38.0244 15.414 37.8629 15.4749 37.7182 15.5659C37.5735 15.657 37.4485 15.7764 37.3508 15.917C37.253 16.0576 37.1845 16.2166 37.1493 16.3844C37.1141 16.5522 37.1129 16.7253 37.1458 16.8936C37.0735 16.8783 36.9997 16.8705 36.9257 16.8702C36.7828 16.8666 36.6405 16.8918 36.5074 16.9442C36.3743 16.9967 36.253 17.0753 36.1506 17.1756C36.0482 17.2758 35.9669 17.3957 35.9113 17.528C35.8558 17.6603 35.8271 17.8024 35.8271 17.946C35.8271 18.0896 35.8558 18.2317 35.9113 18.364C35.9669 18.4963 36.0482 18.6161 36.1506 18.7164C36.253 18.8166 36.3743 18.8953 36.5074 18.9478C36.6405 19.0002 36.7828 19.0254 36.9257 19.0218H40.5855C40.7927 19.0223 40.9927 18.9451 41.1462 18.8053C41.2997 18.6655 41.3957 18.4732 41.4154 18.2661C41.4351 18.059 41.377 17.8519 41.2527 17.6855C41.1283 17.5191 40.9465 17.4053 40.7429 17.3664V17.3624Z" fill="#989AA6"/>
<path d="M24.4118 17.92C24.3632 17.834 24.338 17.7367 24.3386 17.6379C24.3393 17.539 24.3657 17.4421 24.4153 17.3567C24.4649 17.2713 24.536 17.2004 24.6214 17.1512C24.7068 17.102 24.8035 17.0762 24.902 17.0762C25.0417 17.0764 25.1764 17.1289 25.2795 17.2236C25.3131 16.9671 25.4427 16.733 25.6419 16.569C25.8411 16.4049 26.0951 16.3231 26.3522 16.3401C26.6093 16.3572 26.8503 16.4718 27.0263 16.6607C27.2023 16.8497 27.3001 17.0988 27.2998 17.3575C27.2995 17.4204 27.2937 17.4831 27.2825 17.545C27.3401 17.5324 27.3989 17.5259 27.4579 17.5256C27.5702 17.5256 27.6814 17.5478 27.7851 17.5909C27.8889 17.6341 27.9831 17.6973 28.0625 17.7771C28.1419 17.8568 28.2049 17.9514 28.2479 18.0556C28.2909 18.1597 28.313 18.2714 28.313 18.3841C28.313 18.4969 28.2909 18.6085 28.2479 18.7127C28.2049 18.8168 28.1419 18.9115 28.0625 18.9912C27.9831 19.0709 27.8889 19.1341 27.7851 19.1773C27.6814 19.2204 27.5702 19.2426 27.4579 19.2426H24.5378C24.3707 19.2456 24.2087 19.1852 24.084 19.0735C23.9593 18.9618 23.8812 18.8069 23.8653 18.6399C23.8494 18.4729 23.8968 18.306 23.9981 18.1725C24.0994 18.0391 24.2471 17.9489 24.4118 17.92Z" fill="#989AA6"/>
<path d="M38.4834 16.5315C38.5773 16.3662 38.6093 16.1727 38.5736 15.9859C38.538 15.7991 38.437 15.6311 38.289 15.5124C38.141 15.3937 37.9556 15.3319 37.7662 15.3383C37.5768 15.3446 37.396 15.4187 37.2562 15.547C37.2316 15.356 37.1691 15.1719 37.0724 15.0055C36.9757 14.8392 36.8468 14.694 36.6932 14.5786C36.5396 14.4632 36.3645 14.3799 36.1783 14.3336C35.9921 14.2874 35.7985 14.2791 35.609 14.3093C35.4196 14.3395 35.2381 14.4076 35.0753 14.5095C34.9125 14.6114 34.7717 14.745 34.6613 14.9025C34.5509 15.06 34.473 15.2382 34.4324 15.4264C34.3918 15.6146 34.3892 15.8091 34.4248 15.9984C34.2591 15.9633 34.0879 15.9636 33.9223 15.9992C33.7567 16.0348 33.6004 16.1049 33.4636 16.2051C33.3267 16.3052 33.2123 16.4331 33.1279 16.5805C33.0434 16.7278 32.9907 16.8914 32.9733 17.0605C32.9558 17.2296 32.9739 17.4005 33.0264 17.5622C33.079 17.7238 33.1647 17.8725 33.2782 17.9988C33.3917 18.125 33.5303 18.2258 33.685 18.2948C33.8398 18.3638 34.0073 18.3993 34.1767 18.3992H38.3053C38.5391 18.3997 38.7646 18.3126 38.9378 18.1549C39.1109 17.9972 39.2192 17.7804 39.2415 17.5467C39.2638 17.3131 39.1984 17.0796 39.0582 16.8918C38.918 16.704 38.713 16.5755 38.4834 16.5315Z" fill="#B8B5C6"/>
<path d="M36.2216 24.9919C36.3248 24.8048 36.3586 24.5871 36.317 24.3773C36.2754 24.1676 36.1612 23.9794 35.9946 23.8462C35.828 23.7129 35.6198 23.6433 35.4069 23.6495C35.194 23.6557 34.9902 23.7375 34.8316 23.8803C34.8046 23.6633 34.7343 23.454 34.6251 23.2648C34.5158 23.0756 34.3698 22.9104 34.1956 22.7791C34.0215 22.6477 33.8228 22.5529 33.6114 22.5002C33.4 22.4475 33.1803 22.438 32.9652 22.4724C32.7501 22.5067 32.544 22.5841 32.3593 22.7C32.1746 22.8159 32.015 22.9679 31.89 23.147C31.765 23.3261 31.6772 23.5286 31.6317 23.7424C31.5863 23.9563 31.5841 24.1772 31.6254 24.3919C31.5329 24.3718 31.4386 24.3614 31.3439 24.3611C30.9808 24.3611 30.6325 24.5059 30.3757 24.7638C30.1189 25.0216 29.9746 25.3713 29.9746 25.7359C29.9746 26.1005 30.1189 26.4502 30.3757 26.7081C30.6325 26.9659 30.9808 27.1107 31.3439 27.1107H36.0202C36.2845 27.1103 36.5391 27.0111 36.7345 26.8324C36.9298 26.6537 37.0519 26.4083 37.0769 26.1442C37.1018 25.8801 37.028 25.6161 36.8696 25.4036C36.7112 25.1912 36.4798 25.0456 36.2203 24.9953L36.2216 24.9919Z" fill="#989AA6"/>
<path d="M28.373 24.2621C28.2677 24.0749 28.2323 23.8562 28.273 23.6452C28.3137 23.4342 28.4279 23.2446 28.5952 23.1104C28.7624 22.9763 28.9718 22.9063 29.1858 22.913C29.3998 22.9197 29.6044 23.0027 29.763 23.1471C29.7914 22.9312 29.8626 22.7232 29.9723 22.5354C30.0821 22.3476 30.2282 22.1838 30.402 22.0536C30.5758 21.9234 30.7739 21.8295 30.9844 21.7774C31.195 21.7253 31.4138 21.716 31.628 21.7502C31.8422 21.7844 32.0474 21.8612 32.2315 21.9763C32.4156 22.0914 32.5749 22.2423 32.7 22.4202C32.825 22.5981 32.9133 22.7993 32.9597 23.0121C33.0061 23.2248 33.0095 23.4446 32.9699 23.6587C33.0621 23.6385 33.1563 23.6282 33.2507 23.6279C33.6139 23.6279 33.9621 23.7728 34.2189 24.0306C34.4757 24.2884 34.62 24.6381 34.62 25.0027C34.62 25.3674 34.4757 25.7171 34.2189 25.9749C33.9621 26.2327 33.6139 26.3776 33.2507 26.3776H28.5751C28.3108 26.3771 28.0562 26.2779 27.8608 26.0992C27.6655 25.9205 27.5434 25.6752 27.5184 25.411C27.4935 25.1469 27.5673 24.8829 27.7257 24.6705C27.8841 24.4581 28.1155 24.3125 28.375 24.2621H28.373Z" fill="#B8B5C6"/>
<path d="M50.2881 52.2183H19.7119C23.8886 56.0505 29.342 58.1755 35 58.1755C40.658 58.1755 46.1114 56.0505 50.2881 52.2183Z" fill="white"/>
<path d="M28.7179 29.792H25.2275V37.5012H28.7179V29.792Z" fill="#2FC8F2"/>
<path d="M28.7175 29.792H26.9727V37.5012H28.7175V29.792Z" fill="#2CAAE6"/>
<path d="M28.7174 37.8516H25.2277C25.1352 37.8516 25.0465 37.8147 24.9811 37.749C24.9157 37.6833 24.8789 37.5943 24.8789 37.5014V29.7921C24.8789 29.6992 24.9157 29.6102 24.9811 29.5445C25.0465 29.4788 25.1352 29.4419 25.2277 29.4419H28.7174C28.81 29.4419 28.8988 29.4788 28.9643 29.5444C29.0299 29.6101 29.0668 29.6992 29.0669 29.7921V37.5014C29.0668 37.5943 29.0299 37.6834 28.9643 37.7491C28.8988 37.8147 28.81 37.8516 28.7174 37.8516ZM25.5766 37.1505H28.3686V30.1424H25.5766V37.1505Z" fill="#282C3F"/>
<path d="M45.47 48.7144H24.5298C23.7588 48.7144 23.1338 49.3419 23.1338 50.116V50.8171C23.1338 51.5912 23.7588 52.2187 24.5298 52.2187H45.47C46.241 52.2187 46.866 51.5912 46.866 50.8171V50.116C46.866 49.3419 46.241 48.7144 45.47 48.7144Z" fill="#52576A"/>
<path d="M45.4713 45.9126H24.5278C24.1576 45.9126 23.8025 46.0603 23.5407 46.3231C23.2789 46.586 23.1318 46.9425 23.1318 47.3142C23.1322 47.6857 23.2794 48.0419 23.5412 48.3044C23.803 48.567 24.1578 48.7145 24.5278 48.7145H45.4713C45.8416 48.7145 46.1967 48.5668 46.4585 48.304C46.7203 48.0411 46.8673 47.6846 46.8673 47.3129C46.867 46.9414 46.7198 46.5852 46.458 46.3226C46.1962 46.0601 45.8414 45.9126 45.4713 45.9126Z" fill="#52576A"/>
<path d="M45.4713 43.1079H24.5278C24.1576 43.1079 23.8025 43.2556 23.5407 43.5184C23.2789 43.7813 23.1318 44.1378 23.1318 44.5095C23.1317 44.6937 23.1676 44.8761 23.2377 45.0463C23.3078 45.2165 23.4106 45.3712 23.5402 45.5015C23.6699 45.6318 23.8238 45.7351 23.9933 45.8057C24.1628 45.8762 24.3444 45.9125 24.5278 45.9125H45.4713C45.8416 45.9125 46.1967 45.7648 46.4585 45.502C46.7203 45.2391 46.8674 44.8826 46.8674 44.5109C46.8675 44.3267 46.8315 44.1443 46.7615 43.9741C46.6914 43.8039 46.5886 43.6492 46.4589 43.5189C46.3293 43.3886 46.1753 43.2853 46.0059 43.2147C45.8364 43.1442 45.6548 43.1079 45.4713 43.1079Z" fill="#52576A"/>
<path d="M45.4713 40.3047H24.5278C24.1576 40.3047 23.8025 40.4524 23.5407 40.7152C23.2789 40.9781 23.1318 41.3346 23.1318 41.7063C23.132 42.078 23.2791 42.4344 23.5409 42.6972C23.8027 42.96 24.1577 43.1077 24.5278 43.1079H45.4713C45.8415 43.1077 46.1965 42.96 46.4583 42.6972C46.72 42.4344 46.8672 42.078 46.8673 41.7063C46.8673 41.5222 46.8312 41.34 46.7611 41.1699C46.6909 40.9999 46.5881 40.8454 46.4585 40.7152C46.3288 40.5851 46.1749 40.4818 46.0056 40.4114C45.8362 40.3409 45.6547 40.3047 45.4713 40.3047Z" fill="#52576A"/>
<path d="M45.4713 37.5015H24.5278C24.1576 37.5015 23.8025 37.6491 23.5407 37.912C23.2789 38.1748 23.1318 38.5313 23.1318 38.9031C23.132 39.2748 23.2791 39.6312 23.5409 39.894C23.8027 40.1568 24.1577 40.3045 24.5278 40.3047H45.4713C45.8415 40.3045 46.1965 40.1568 46.4583 39.894C46.72 39.6312 46.8672 39.2748 46.8673 38.9031C46.8673 38.5313 46.7203 38.1748 46.4585 37.912C46.1967 37.6491 45.8416 37.5015 45.4713 37.5015Z" fill="#52576A"/>
<path d="M42.9772 34.6973H27.0228L23.0342 37.5005H46.9658L42.9772 34.6973Z" fill="#52576A"/>
<path d="M38.9883 31.894H31.0111L27.0225 34.6973H42.9769L38.9883 31.894Z" fill="#52576A"/>
<path d="M35.0003 29.0908L38.9889 31.8941H31.0117L35.0003 29.0908Z" fill="#52576A"/>
<path d="M45.4705 48.7144H28.02C27.249 48.7144 26.624 49.3419 26.624 50.116V50.8171C26.624 51.5912 27.249 52.2187 28.02 52.2187H45.4705C46.2415 52.2187 46.8665 51.5912 46.8665 50.8171V50.116C46.8665 49.3419 46.2415 48.7144 45.4705 48.7144Z" fill="#30354C"/>
<path d="M45.4718 45.9126H28.02C27.8367 45.9126 27.6552 45.9489 27.4858 46.0193C27.3164 46.0897 27.1625 46.193 27.0329 46.3231C26.9033 46.4533 26.8004 46.6078 26.7303 46.7778C26.6601 46.9479 26.624 47.1302 26.624 47.3142C26.624 47.4983 26.6601 47.6805 26.7303 47.8506C26.8004 48.0206 26.9033 48.1752 27.0329 48.3053C27.1625 48.4355 27.3164 48.5387 27.4858 48.6091C27.6552 48.6796 27.8367 48.7158 28.02 48.7158H45.4718C45.8421 48.7158 46.1972 48.5682 46.459 48.3053C46.7208 48.0425 46.8678 47.6859 46.8678 47.3142C46.8678 46.9425 46.7208 46.586 46.459 46.3231C46.1972 46.0603 45.8421 45.9126 45.4718 45.9126Z" fill="#30354C"/>
<path d="M45.4718 43.1079H28.02C27.8367 43.1079 27.6552 43.1442 27.4858 43.2146C27.3164 43.285 27.1625 43.3883 27.0329 43.5184C26.9033 43.6486 26.8004 43.8031 26.7303 43.9731C26.6601 44.1432 26.624 44.3255 26.624 44.5095C26.6238 44.6937 26.6598 44.8761 26.7299 45.0463C26.8 45.2165 26.9028 45.3712 27.0324 45.5015C27.1621 45.6318 27.316 45.7351 27.4855 45.8057C27.655 45.8762 27.8366 45.9125 28.02 45.9125H45.4718C45.8421 45.9125 46.1972 45.7648 46.459 45.502C46.7208 45.2391 46.8678 44.8826 46.8678 44.5109C46.868 44.3267 46.832 44.1443 46.762 43.9741C46.6919 43.8039 46.5891 43.6492 46.4594 43.5189C46.3298 43.3886 46.1758 43.2853 46.0064 43.2147C45.8369 43.1442 45.6553 43.1079 45.4718 43.1079Z" fill="#30354C"/>
<path d="M45.4718 40.3047H28.02C27.6498 40.3047 27.2947 40.4524 27.0329 40.7152C26.7711 40.9781 26.624 41.3346 26.624 41.7063C26.6242 42.078 26.7713 42.4344 27.0331 42.6972C27.2949 42.96 27.6498 43.1077 28.02 43.1079H45.4718C45.842 43.1077 46.197 42.96 46.4588 42.6972C46.7205 42.4344 46.8677 42.078 46.8678 41.7063C46.8678 41.3346 46.7208 40.9781 46.459 40.7152C46.1972 40.4524 45.8421 40.3047 45.4718 40.3047Z" fill="#30354C"/>
<path d="M45.4718 37.5015H28.02C27.6498 37.5015 27.2947 37.6491 27.0329 37.912C26.7711 38.1748 26.624 38.5313 26.624 38.9031C26.6242 39.2748 26.7713 39.6312 27.0331 39.894C27.2949 40.1568 27.6498 40.3045 28.02 40.3047H45.4718C45.842 40.3045 46.197 40.1568 46.4588 39.894C46.7205 39.6312 46.8677 39.2748 46.8678 38.9031C46.8678 38.5313 46.7208 38.1748 46.459 37.912C46.1972 37.6491 45.8421 37.5015 45.4718 37.5015Z" fill="#30354C"/>
<path d="M42.9776 34.6973H31.2113L27.2227 37.5005H46.9662L42.9776 34.6973Z" fill="#30354C"/>
<path d="M38.9887 31.894H35.1995L31.2109 34.6973H42.9773L38.9887 31.894Z" fill="#30354C"/>
<path d="M37.0935 30.563L38.9884 31.8943H35.1992L37.0935 30.563Z" fill="#30354C"/>
<path d="M45.4715 52.5293H24.528C24.0655 52.5288 23.622 52.344 23.2948 52.0156C22.9677 51.6872 22.7837 51.2419 22.7832 50.7774V50.1158C22.7837 49.6513 22.9677 49.2059 23.2948 48.8774C23.6219 48.5489 24.0654 48.364 24.528 48.3633H45.4715C45.9342 48.364 46.3777 48.5489 46.7048 48.8774C47.0319 49.2059 47.2159 49.6513 47.2164 50.1158V50.7774C47.2159 51.2419 47.0319 51.6872 46.7048 52.0156C46.3776 52.344 45.9341 52.5288 45.4715 52.5293ZM24.528 49.0644C24.2505 49.0648 23.9844 49.1757 23.7882 49.3728C23.592 49.5699 23.4817 49.8371 23.4815 50.1158V50.7774C23.4817 51.0561 23.592 51.3233 23.7882 51.5204C23.9844 51.7176 24.2505 51.8285 24.528 51.8288H45.4715C45.7491 51.8285 46.0152 51.7176 46.2114 51.5204C46.4076 51.3233 46.5179 51.0561 46.5181 50.7774V50.1158C46.5179 49.8371 46.4076 49.5699 46.2114 49.3728C46.0152 49.1757 45.7491 49.0648 45.4715 49.0644H24.528Z" fill="#282C3F"/>
<path d="M45.4713 49.0644H24.5278C24.0709 49.0555 23.6356 48.8669 23.3156 48.5393C22.9957 48.2117 22.8164 47.7711 22.8164 47.3123C22.8164 46.8534 22.9957 46.4128 23.3156 46.0852C23.6356 45.7576 24.0709 45.569 24.5278 45.5601H45.4713C45.9282 45.569 46.3634 45.7576 46.6834 46.0852C47.0034 46.4128 47.1827 46.8534 47.1827 47.3123C47.1827 47.7711 47.0034 48.2117 46.6834 48.5393C46.3634 48.8669 45.9282 49.0555 45.4713 49.0644ZM24.5278 46.2612C24.2547 46.2681 23.9952 46.3819 23.8045 46.5783C23.6138 46.7746 23.5071 47.038 23.5071 47.3123C23.5071 47.5865 23.6138 47.8499 23.8045 48.0462C23.9952 48.2426 24.2547 48.3564 24.5278 48.3633H45.4713C45.7444 48.3564 46.0039 48.2426 46.1946 48.0462C46.3853 47.8499 46.492 47.5865 46.492 47.3123C46.492 47.038 46.3853 46.7746 46.1946 46.5783C46.0039 46.3819 45.7444 46.2681 45.4713 46.2612H24.5278Z" fill="#282C3F"/>
<path d="M45.4713 46.2612H24.5278C24.0709 46.2522 23.6356 46.0637 23.3156 45.7361C22.9957 45.4085 22.8164 44.9679 22.8164 44.509C22.8164 44.0502 22.9957 43.6096 23.3156 43.282C23.6356 42.9544 24.0709 42.7658 24.5278 42.7568H45.4713C45.9282 42.7658 46.3634 42.9544 46.6834 43.282C47.0034 43.6096 47.1827 44.0502 47.1827 44.509C47.1827 44.9679 47.0034 45.4085 46.6834 45.7361C46.3634 46.0637 45.9282 46.2522 45.4713 46.2612ZM24.5278 43.458C24.2547 43.4649 23.9952 43.5787 23.8045 43.775C23.6138 43.9714 23.5071 44.2348 23.5071 44.509C23.5071 44.7833 23.6138 45.0467 23.8045 45.243C23.9952 45.4394 24.2547 45.5531 24.5278 45.5601H45.4713C45.7444 45.5531 46.0039 45.4394 46.1946 45.243C46.3853 45.0467 46.492 44.7833 46.492 44.509C46.492 44.2348 46.3853 43.9714 46.1946 43.775C46.0039 43.5787 45.7444 43.4649 45.4713 43.458H24.5278Z" fill="#282C3F"/>
<path d="M45.4716 43.4579H24.5281C24.065 43.4579 23.621 43.2732 23.2936 42.9445C22.9662 42.6157 22.7822 42.1699 22.7822 41.705C22.7822 41.2401 22.9662 40.7943 23.2936 40.4656C23.621 40.1368 24.065 39.9521 24.5281 39.9521H45.4716C45.9285 39.9611 46.3637 40.1497 46.6837 40.4773C47.0037 40.8049 47.183 41.2455 47.183 41.7043C47.183 42.1632 47.0037 42.6038 46.6837 42.9314C46.3637 43.259 45.9285 43.4476 45.4716 43.4565V43.4579ZM24.5281 40.6546C24.255 40.6616 23.9954 40.7753 23.8048 40.9717C23.6141 41.168 23.5073 41.4314 23.5073 41.7057C23.5073 41.9799 23.6141 42.2433 23.8048 42.4397C23.9954 42.636 24.255 42.7498 24.5281 42.7567H45.4716C45.7446 42.7498 46.0042 42.636 46.1949 42.4397C46.3856 42.2433 46.4923 41.9799 46.4923 41.7057C46.4923 41.4314 46.3856 41.168 46.1949 40.9717C46.0042 40.7753 45.7446 40.6616 45.4716 40.6546H24.5281Z" fill="#282C3F"/>
<path d="M45.4713 40.6548H24.5278C24.0709 40.6458 23.6356 40.4573 23.3156 40.1296C22.9957 39.802 22.8164 39.3614 22.8164 38.9026C22.8164 38.4437 22.9957 38.0032 23.3156 37.6755C23.6356 37.3479 24.0709 37.1594 24.5278 37.1504H45.4713C45.9282 37.1594 46.3634 37.3479 46.6834 37.6755C47.0034 38.0032 47.1827 38.4437 47.1827 38.9026C47.1827 39.3614 47.0034 39.802 46.6834 40.1296C46.3634 40.4573 45.9282 40.6458 45.4713 40.6548ZM24.5278 37.8515C24.2583 37.8634 24.0037 37.9792 23.8171 38.1749C23.6305 38.3706 23.5264 38.631 23.5264 38.9019C23.5264 39.1728 23.6305 39.4332 23.8171 39.6289C24.0037 39.8246 24.2583 39.9404 24.5278 39.9523H45.4713C45.7444 39.9454 46.0039 39.8316 46.1946 39.6352C46.3853 39.4389 46.492 39.1755 46.492 38.9012C46.492 38.627 46.3853 38.3636 46.1946 38.1672C46.0039 37.9709 45.7444 37.8571 45.4713 37.8502L24.5278 37.8515Z" fill="#282C3F"/>
<path d="M46.9656 37.8515H23.034C22.9597 37.8516 22.8873 37.8279 22.8273 37.7838C22.7674 37.7398 22.723 37.6776 22.7007 37.6065C22.6784 37.5354 22.6792 37.4589 22.7032 37.3883C22.7272 37.3177 22.7729 37.2566 22.8339 37.214L26.8225 34.4107C26.8807 34.3681 26.9506 34.3447 27.0226 34.3438H42.977C43.049 34.3447 43.1189 34.3681 43.1771 34.4107L47.1657 37.214C47.2266 37.2566 47.2724 37.3177 47.2964 37.3883C47.3203 37.4589 47.3212 37.5354 47.2989 37.6065C47.2765 37.6776 47.2322 37.7398 47.1722 37.7838C47.1123 37.8279 47.0399 37.8516 46.9656 37.8515ZM24.1412 37.1503H45.8584L42.8703 35.0482H27.1326L24.1412 37.1503Z" fill="#282C3F"/>
<path d="M42.9776 35.0483H27.0232C26.9489 35.0484 26.8765 35.0247 26.8166 34.9807C26.7567 34.9366 26.7123 34.8745 26.69 34.8034C26.6676 34.7322 26.6685 34.6558 26.6925 34.5852C26.7164 34.5145 26.7622 34.4535 26.8231 34.4108L30.8117 31.6076C30.8703 31.5662 30.9402 31.5439 31.0118 31.5439H38.989C39.0607 31.5439 39.1306 31.5662 39.1891 31.6076L43.1777 34.4108C43.2387 34.4535 43.2845 34.5145 43.3084 34.5852C43.3324 34.6558 43.3332 34.7322 43.3109 34.8034C43.2886 34.8745 43.2442 34.9366 43.1843 34.9807C43.1243 35.0247 43.0519 35.0484 42.9776 35.0483ZM28.1304 34.3472H41.8704L38.879 32.2451H31.1219L28.1304 34.3472Z" fill="#282C3F"/>
<path d="M48.9605 39.2534C48.8889 39.2533 48.819 39.2311 48.7604 39.1897L35.0004 29.5191L21.2404 39.1897C21.2029 39.2161 21.1605 39.2348 21.1158 39.2448C21.0711 39.2547 21.0248 39.2557 20.9797 39.2478C20.8886 39.2316 20.8076 39.1798 20.7545 39.1037C20.7014 39.0276 20.6806 38.9334 20.6967 38.8419C20.7128 38.7505 20.7644 38.6691 20.8402 38.6158L34.8003 28.8045C34.8588 28.763 34.9287 28.7407 35.0004 28.7407C35.0721 28.7407 35.142 28.763 35.2005 28.8045L49.1606 38.6132C49.2215 38.6558 49.2673 38.7169 49.2913 38.7875C49.3152 38.8581 49.3161 38.9346 49.2938 39.0057C49.2715 39.0769 49.2271 39.139 49.1671 39.183C49.1072 39.2271 49.0348 39.2508 48.9605 39.2507V39.2534Z" fill="#282C3F"/>
<path d="M38.9887 32.2453H31.0115C30.9372 32.2454 30.8648 32.2217 30.8049 32.1776C30.7449 32.1336 30.7006 32.0715 30.6782 32.0003C30.6559 31.9292 30.6568 31.8527 30.6807 31.7821C30.7047 31.7115 30.7505 31.6504 30.8114 31.6078L34.8 28.8045C34.8586 28.763 34.9285 28.7407 35.0001 28.7407C35.0718 28.7407 35.1417 28.763 35.2002 28.8045L39.1888 31.6078C39.2498 31.6504 39.2955 31.7115 39.3195 31.7821C39.3434 31.8527 39.3443 31.9292 39.322 32.0003C39.2997 32.0715 39.2553 32.1336 39.1954 32.1776C39.1354 32.2217 39.063 32.2454 38.9887 32.2453ZM32.1187 31.5441H37.8815L35.0001 29.5191L32.1187 31.5441Z" fill="#282C3F"/>
<path d="M41.2819 37.5015H28.7178V52.2188H41.2819V37.5015Z" fill="#2FC8F2"/>
<path d="M41.2826 37.5015H31.8594V52.2188H41.2826V37.5015Z" fill="#00B5F4"/>
<path d="M41.2827 45.2098H28.718C28.6255 45.2098 28.5367 45.1729 28.4713 45.1072C28.4059 45.0415 28.3691 44.9524 28.3691 44.8595C28.3691 44.7666 28.4059 44.6775 28.4713 44.6119C28.5367 44.5462 28.6255 44.5093 28.718 44.5093H41.2827C41.3753 44.5093 41.464 44.5462 41.5294 44.6119C41.5948 44.6775 41.6316 44.7666 41.6316 44.8595C41.6316 44.9524 41.5948 45.0415 41.5294 45.1072C41.464 45.1729 41.3753 45.2098 41.2827 45.2098Z" fill="white"/>
<path d="M41.2828 41.5307H28.718C28.6281 41.5268 28.5431 41.4881 28.4808 41.4228C28.4185 41.3575 28.3838 41.2706 28.3838 41.1802C28.3838 41.0898 28.4185 41.0028 28.4808 40.9375C28.5431 40.8722 28.6281 40.8335 28.718 40.8296H41.2828C41.3728 40.8335 41.4577 40.8722 41.52 40.9375C41.5823 41.0028 41.617 41.0898 41.617 41.1802C41.617 41.2706 41.5823 41.3575 41.52 41.4228C41.4577 41.4881 41.3728 41.5268 41.2828 41.5307Z" fill="white"/>
<path d="M41.2827 48.889H28.718C28.6255 48.889 28.5367 48.8521 28.4713 48.7864C28.4059 48.7207 28.3691 48.6316 28.3691 48.5387C28.3691 48.4458 28.4059 48.3567 28.4713 48.2911C28.5367 48.2254 28.6255 48.1885 28.718 48.1885H41.2827C41.3753 48.1885 41.464 48.2254 41.5294 48.2911C41.5948 48.3567 41.6316 48.4458 41.6316 48.5387C41.6316 48.6316 41.5948 48.7207 41.5294 48.7864C41.464 48.8521 41.3753 48.889 41.2827 48.889Z" fill="white"/>
<path d="M38.1412 52.569C38.0486 52.5689 37.9599 52.5318 37.8945 52.466C37.8291 52.4002 37.7923 52.3111 37.7923 52.2181V37.5015C37.7903 37.4542 37.7978 37.4069 37.8144 37.3626C37.831 37.3182 37.8564 37.2777 37.889 37.2435C37.9216 37.2093 37.9608 37.1821 38.0042 37.1635C38.0476 37.1448 38.0943 37.1353 38.1415 37.1353C38.1887 37.1353 38.2354 37.1448 38.2788 37.1635C38.3222 37.1821 38.3613 37.2093 38.394 37.2435C38.4266 37.2777 38.452 37.3182 38.4686 37.3626C38.4852 37.4069 38.4927 37.4542 38.4907 37.5015V52.2181C38.4905 52.3111 38.4536 52.4003 38.3881 52.4661C38.3226 52.5318 38.2338 52.5689 38.1412 52.569Z" fill="white"/>
<path d="M31.8586 52.569C31.766 52.5689 31.6772 52.5318 31.6117 52.4661C31.5462 52.4003 31.5093 52.3111 31.5091 52.2181V37.5015C31.5071 37.4542 31.5146 37.4069 31.5312 37.3626C31.5478 37.3182 31.5732 37.2777 31.6058 37.2435C31.6384 37.2093 31.6776 37.1821 31.721 37.1635C31.7644 37.1448 31.8111 37.1353 31.8583 37.1353C31.9055 37.1353 31.9522 37.1448 31.9956 37.1635C32.0389 37.1821 32.0781 37.2093 32.1108 37.2435C32.1434 37.2777 32.1688 37.3182 32.1854 37.3626C32.202 37.4069 32.2095 37.4542 32.2075 37.5015V52.2181C32.2075 52.3111 32.1707 52.4002 32.1053 52.466C32.0399 52.5318 31.9512 52.5689 31.8586 52.569Z" fill="white"/>
<path d="M41.2827 52.5689H28.718C28.6254 52.5687 28.5367 52.5316 28.4713 52.4658C28.4059 52.4 28.3691 52.3109 28.3691 52.2179V37.5013C28.3691 37.4553 28.378 37.4096 28.3955 37.3671C28.413 37.3245 28.4387 37.2858 28.4711 37.2532C28.5035 37.2206 28.542 37.1948 28.5843 37.1771C28.6267 37.1595 28.6721 37.1504 28.718 37.1504H41.2827C41.3286 37.1504 41.374 37.1595 41.4164 37.1771C41.4588 37.1948 41.4972 37.2206 41.5296 37.2532C41.562 37.2858 41.5877 37.3245 41.6052 37.3671C41.6227 37.4096 41.6317 37.4553 41.6316 37.5013V52.2179C41.6316 52.3109 41.5948 52.4 41.5294 52.4658C41.464 52.5316 41.3753 52.5687 41.2827 52.5689ZM29.0675 51.8677H40.9366V37.8515H29.0675V51.8677Z" fill="#282C3F"/>
<path d="M35.0002 52.5692C34.9076 52.569 34.8189 52.5319 34.7535 52.4661C34.6881 52.4004 34.6514 52.3112 34.6514 52.2182V37.5016C34.6514 37.4087 34.6881 37.3196 34.7535 37.254C34.819 37.1883 34.9077 37.1514 35.0002 37.1514C35.0927 37.1514 35.1814 37.1883 35.2469 37.254C35.3123 37.3196 35.349 37.4087 35.349 37.5016V52.2182C35.349 52.3112 35.3123 52.4004 35.2469 52.4661C35.1815 52.5319 35.0928 52.569 35.0002 52.5692Z" fill="#282C3F"/>
<path d="M29.4162 30.1424H24.5285C24.436 30.1424 24.3473 30.1055 24.2819 30.0398C24.2164 29.9741 24.1797 29.885 24.1797 29.7921C24.1797 29.6992 24.2164 29.6102 24.2819 29.5445C24.3473 29.4788 24.436 29.4419 24.5285 29.4419H29.4149C29.5074 29.4419 29.5961 29.4788 29.6616 29.5445C29.727 29.6102 29.7637 29.6992 29.7637 29.7921C29.7637 29.885 29.727 29.9741 29.6616 30.0398C29.5961 30.1055 29.5074 30.1424 29.4149 30.1424H29.4162Z" fill="#282C3F"/>
<path d="M26.9725 29.091C26.88 29.091 26.7913 29.0541 26.7259 28.9884C26.6605 28.9228 26.6237 28.8337 26.6237 28.7408C26.6234 28.5556 26.5501 28.378 26.4199 28.2468C26.2897 28.1156 26.1132 28.0414 25.9287 28.0403H22.4357C22.0654 28.0403 21.7103 27.8926 21.4485 27.6298C21.1867 27.3669 21.0397 27.0104 21.0397 26.6387C21.0397 26.267 21.1867 25.9105 21.4485 25.6476C21.7103 25.3847 22.0654 25.2371 22.4357 25.2371H23.8317C24.0131 25.2314 24.1852 25.1551 24.3115 25.0243C24.4378 24.8935 24.5084 24.7185 24.5084 24.5363C24.5084 24.3541 24.4378 24.179 24.3115 24.0482C24.1852 23.9174 24.0131 23.8411 23.8317 23.8355H20.3413C19.9711 23.8355 19.616 23.6878 19.3542 23.4249C19.0924 23.1621 18.9453 22.8056 18.9453 22.4338C18.9453 22.0621 19.0924 21.7056 19.3542 21.4428C19.616 21.1799 19.9711 21.0322 20.3413 21.0322H22.7845C22.877 21.0322 22.9658 21.0691 23.0312 21.1348C23.0966 21.2005 23.1333 21.2896 23.1333 21.3825C23.1333 21.4754 23.0966 21.5644 23.0312 21.6301C22.9658 21.6958 22.877 21.7327 22.7845 21.7327H20.3413C20.1599 21.7383 19.9879 21.8146 19.8615 21.9454C19.7352 22.0763 19.6646 22.2513 19.6646 22.4335C19.6646 22.6157 19.7352 22.7908 19.8615 22.9216C19.9879 23.0524 20.1599 23.1287 20.3413 23.1343H23.8317C24.2019 23.1343 24.557 23.282 24.8188 23.5448C25.0806 23.8077 25.2277 24.1642 25.2277 24.5359C25.2277 24.9077 25.0806 25.2642 24.8188 25.527C24.557 25.7899 24.2019 25.9376 23.8317 25.9376H22.4357C22.3422 25.9347 22.2491 25.9506 22.1619 25.9845C22.0747 26.0185 21.9951 26.0696 21.928 26.135C21.8608 26.2003 21.8075 26.2786 21.771 26.365C21.7345 26.4515 21.7158 26.5445 21.7158 26.6384C21.7158 26.7323 21.7345 26.8252 21.771 26.9117C21.8075 26.9981 21.8608 27.0764 21.928 27.1417C21.9951 27.2071 22.0747 27.2583 22.1619 27.2922C22.2491 27.3261 22.3422 27.3421 22.4357 27.3392H25.9287C26.2986 27.3404 26.6529 27.4885 26.9145 27.7511C27.176 28.0136 27.3235 28.3694 27.3247 28.7408C27.3247 28.7871 27.3156 28.8329 27.2978 28.8756C27.2801 28.9183 27.2541 28.9571 27.2214 28.9896C27.1886 29.0222 27.1498 29.0479 27.1071 29.0653C27.0644 29.0827 27.0186 29.0915 26.9725 29.091Z" fill="#282C3F"/>
<path d="M51.7517 48.0131C51.1611 48.0134 50.5905 48.2287 50.1458 48.619C49.7011 49.0093 49.4124 49.5483 49.3332 50.136C49.2092 50.1228 49.0845 50.1161 48.9597 50.1159C48.46 50.1157 47.9661 50.2236 47.5117 50.4323C47.0573 50.641 46.6531 50.9456 46.3264 51.3253C45.8189 51.1324 45.2616 51.1155 44.7433 51.2773C44.2251 51.439 43.7756 51.7702 43.4664 52.218H27.58C27.3889 51.9423 27.1435 51.709 26.8589 51.5326C26.5742 51.3562 26.2565 51.2404 25.9255 51.1924C25.5944 51.1444 25.2571 51.1653 24.9344 51.2537C24.6117 51.3421 24.3105 51.4962 24.0496 51.7063C23.7226 51.3177 23.3151 51.0053 22.8554 50.7911C22.3958 50.5769 21.8951 50.466 21.3883 50.4661C21.2613 50.4665 21.1344 50.4736 21.0082 50.4875C21.0281 50.3646 21.0386 50.2404 21.0395 50.1159C21.0397 49.5943 20.8743 49.0862 20.5672 48.6655C20.2601 48.2448 19.8273 47.9334 19.3319 47.7765C18.8364 47.6197 18.304 47.6256 17.8121 47.7934C17.3202 47.9612 16.8944 48.2821 16.5967 48.7096C18.8763 51.8825 21.9286 54.4151 25.4616 56.0652H25.4663C25.8283 56.234 26.1951 56.3934 26.5669 56.5434H26.5702C26.7036 56.5969 26.837 56.6431 26.9704 56.694C26.9867 56.1578 27.1778 55.6418 27.5144 55.2251C27.8511 54.8085 28.3146 54.5143 28.8338 54.3877C29.3531 54.2611 29.8993 54.3091 30.3888 54.5243C30.8782 54.7395 31.2838 55.11 31.5433 55.579C31.8447 55.2474 32.2211 54.9935 32.6409 54.8386C33.0606 54.6838 33.5113 54.6326 33.9548 54.6894C34.3984 54.7462 34.8219 54.9093 35.1894 55.165C35.557 55.4206 35.8579 55.7613 36.0668 56.1583C36.522 55.7543 37.0846 55.4923 37.6858 55.4043C38.2869 55.3163 38.9006 55.4061 39.4518 55.6627C39.6811 55.2074 40.0463 54.8353 40.4963 54.5982C40.9464 54.3611 41.4589 54.271 41.9624 54.3403C42.4659 54.4095 42.9353 54.6348 43.3052 54.9848C43.6752 55.3347 43.9271 55.7917 44.026 56.2922C44.2674 56.1864 44.5076 56.0793 44.7443 55.9654H44.755C48.2093 54.3074 51.1915 51.8017 53.4259 48.6801C52.9735 48.2508 52.3743 48.012 51.7517 48.0131Z" fill="white"/>
<path d="M51.7518 48.0132C51.1612 48.0135 50.5906 48.2288 50.1459 48.6191C49.7012 49.0094 49.4125 49.5484 49.3333 50.136C49.2093 50.1229 49.0846 50.1162 48.9598 50.1159C48.4601 50.1158 47.9662 50.2237 47.5118 50.4324C47.0574 50.6411 46.6532 50.9457 46.3265 51.3254H46.3225C44.4591 53.2403 42.2745 54.8109 39.8687 55.9655H39.8574C38.7568 56.4925 37.6157 56.9294 36.4451 57.272L36.3284 57.3048C35.9949 57.4019 35.6507 57.4897 35.3065 57.5727L35.0744 57.6263C34.7676 57.6933 34.4574 57.7569 34.146 57.8131C34.0419 57.8319 33.9379 57.852 33.8331 57.8694C33.5423 57.9176 33.2482 57.9578 32.9534 57.9953C32.834 58.01 32.7159 58.0274 32.5959 58.0408C32.5799 58.0408 32.5639 58.0408 32.5479 58.0448H32.5565C32.8473 58.077 33.1415 58.0984 33.4356 58.1185C33.549 58.1265 33.6604 58.1386 33.7738 58.1446C34.18 58.166 34.5882 58.1788 34.999 58.1788C35.4099 58.1788 35.8308 58.1654 36.243 58.1426C36.3577 58.1366 36.4711 58.1245 36.5851 58.1172C36.886 58.0957 37.1854 58.073 37.4822 58.0401C37.6016 58.0267 37.7204 58.0093 37.8391 57.9946C38.1339 57.9571 38.428 57.9169 38.7188 57.8687C38.8242 57.8513 38.9276 57.8312 39.0323 57.8125C39.3438 57.7562 39.654 57.6946 39.9608 57.6256L40.1929 57.572C40.5364 57.4903 40.8772 57.4026 41.2147 57.3042L41.3314 57.2714C42.502 56.9287 43.6432 56.4918 44.7438 55.9648H44.7544C48.2087 54.3068 51.1909 51.8011 53.4253 48.6795C52.973 48.2506 52.374 48.0121 51.7518 48.0132Z" fill="#EDEDED"/>
<path d="M19.0416 51.5757C18.9809 51.5087 18.9202 51.4485 18.8555 51.3882C18.9168 51.4511 18.9789 51.5134 19.0416 51.5757Z" fill="white"/>
<path d="M34.9995 58.5258C34.5993 58.5258 34.1911 58.5144 33.7562 58.4916C33.6855 58.4876 33.6162 58.4816 33.5468 58.4755L33.4134 58.4648C33.1153 58.4447 32.8131 58.4226 32.521 58.3905C32.4436 58.3818 32.3669 58.3717 32.2895 58.3617L32.1561 58.3443C31.866 58.3081 31.5758 58.2706 31.289 58.2237L31.0889 58.1882L30.9602 58.1648C30.6594 58.1112 30.3599 58.0543 30.0651 57.9894L29.7983 57.9271C29.4808 57.8527 29.166 57.7744 28.8539 57.6873L28.6631 57.6318C28.3103 57.53 27.9701 57.4242 27.6519 57.3157L27.5426 57.2788C27.1504 57.1449 26.7915 57.011 26.446 56.8703H26.44C26.0832 56.727 25.7257 56.5717 25.3728 56.4089C25.3542 56.4023 25.3359 56.3947 25.3181 56.3862C21.7303 54.71 18.6302 52.1386 16.3138 48.9174C16.2717 48.858 16.249 48.787 16.249 48.7141C16.249 48.6412 16.2717 48.5702 16.3138 48.5109C16.6541 48.0225 17.1407 47.6559 17.7028 47.4643C18.2649 47.2726 18.8732 47.2659 19.4394 47.4451C20.0055 47.6243 20.5 47.9801 20.851 48.4608C21.2019 48.9415 21.3911 49.5221 21.3909 50.1181C22.4072 50.118 23.382 50.5231 24.1009 51.2444C24.5433 50.9646 25.056 50.8168 25.5789 50.8185C25.9972 50.819 26.4099 50.9137 26.7869 51.0956C27.1638 51.2776 27.4952 51.5422 27.7567 51.8699H43.2975C43.6418 51.4437 44.1021 51.1273 44.6224 50.9594C45.1428 50.7915 45.7005 50.7793 46.2276 50.9244C46.5957 50.5484 47.0364 50.252 47.5228 50.0532C48.0091 49.8545 48.5307 49.7576 49.0557 49.7685C49.1764 49.2972 49.4174 48.8656 49.755 48.5164C50.0926 48.1672 50.515 47.9124 50.9806 47.7771C51.4463 47.6419 51.939 47.6309 52.4101 47.7453C52.8812 47.8596 53.3145 48.0953 53.6672 48.4292C53.729 48.4873 53.7677 48.5661 53.7759 48.6507C53.7841 48.7354 53.7614 48.8202 53.7119 48.8892C51.4415 52.0571 48.4138 54.6007 44.9076 56.2857C44.8863 56.2959 44.8639 56.3037 44.8409 56.3092C43.7399 56.8323 42.5993 57.2672 41.43 57.6097L41.3099 57.6438C40.9837 57.7369 40.6429 57.826 40.2741 57.9117L40.0379 57.9659C39.7265 58.0329 39.4116 58.0999 39.0955 58.1561L39.0014 58.1735L38.7773 58.213C38.4819 58.2619 38.183 58.3028 37.8842 58.3409L37.7608 58.357C37.6808 58.3677 37.6014 58.3784 37.5207 58.3871C37.2199 58.42 36.9158 58.4441 36.6103 58.4655L36.4769 58.4762C36.4069 58.4816 36.3368 58.4876 36.2654 58.4916C35.8192 58.5137 35.4064 58.5258 34.9995 58.5258ZM26.7202 56.2254C27.063 56.3594 27.3991 56.4873 27.7653 56.6139L27.8727 56.65C28.1802 56.7545 28.5097 56.8569 28.8512 56.9561L29.0433 57.0103C29.3454 57.094 29.6509 57.1703 29.9577 57.242L30.2192 57.3029C30.506 57.3659 30.7948 57.4208 31.0863 57.473L31.2197 57.4971C31.281 57.5085 31.3424 57.5199 31.4038 57.5293C31.6819 57.5748 31.9627 57.6117 32.2442 57.6472L32.3776 57.6646C32.4489 57.6746 32.5196 57.684 32.591 57.6914C32.8785 57.7222 33.1679 57.7436 33.4581 57.7637L33.6035 57.7751C33.6662 57.7811 33.7282 57.7864 33.7916 57.7891C34.6011 57.835 35.4126 57.835 36.2221 57.7891C36.2888 57.7858 36.3495 57.7804 36.4129 57.7751L36.5603 57.763C36.8551 57.7429 37.1499 57.7202 37.4427 57.688C37.5181 57.6793 37.5921 57.6693 37.6661 57.6599L37.7942 57.6431C38.0843 57.6063 38.3738 57.5668 38.6613 57.5192C38.7326 57.5072 38.8027 57.4938 38.874 57.4811L38.9694 57.4637C39.2762 57.4081 39.5811 57.3478 39.8839 57.2795L40.1126 57.2266C40.4715 57.1416 40.801 57.0558 41.1178 56.9648L41.2332 56.9319C42.3857 56.5947 43.5092 56.1647 44.5928 55.6462C44.6141 55.6359 44.6365 55.6281 44.6595 55.6227C47.9358 54.0364 50.7795 51.6752 52.9462 48.7419C52.5963 48.4954 52.1791 48.3633 51.7516 48.3635C51.2458 48.3652 50.7576 48.5502 50.3769 48.8845C49.9961 49.2188 49.7484 49.6799 49.6793 50.183C49.6673 50.2735 49.6205 50.3558 49.549 50.4122C49.4775 50.4686 49.3869 50.4948 49.2964 50.485C48.7925 50.4296 48.2828 50.4982 47.8112 50.6849C47.3396 50.8716 46.9204 51.1707 46.5898 51.5565C46.543 51.6103 46.4809 51.6485 46.412 51.6661C46.343 51.6837 46.2703 51.6798 46.2036 51.655C45.7681 51.494 45.2918 51.4817 44.8487 51.6201C44.4055 51.7585 44.0202 52.0398 43.7524 52.4204C43.7202 52.4666 43.6774 52.5044 43.6276 52.5305C43.5778 52.5567 43.5225 52.5703 43.4663 52.5704H27.5799C27.5237 52.5703 27.4684 52.5567 27.4185 52.5305C27.3687 52.5044 27.3259 52.4666 27.2938 52.4204C27.1007 52.1426 26.8438 51.9156 26.5449 51.7587C26.2459 51.6018 25.9136 51.5196 25.5763 51.519C25.1002 51.5175 24.6382 51.6809 24.2683 51.9818C24.1973 52.0388 24.1069 52.0659 24.0164 52.0571C23.9258 52.0484 23.8422 52.0045 23.7834 51.9349C23.4891 51.585 23.1224 51.3037 22.7087 51.1108C22.295 50.9179 21.8444 50.8179 21.3882 50.8179C21.2737 50.8186 21.1593 50.8251 21.0454 50.8373C20.9923 50.8434 20.9385 50.837 20.8882 50.8186C20.838 50.8003 20.7927 50.7704 20.7559 50.7315C20.7191 50.6926 20.6916 50.6458 20.6755 50.5946C20.6594 50.5434 20.6552 50.4892 20.6632 50.4362C20.6805 50.3308 20.6897 50.2242 20.6906 50.1174C20.691 49.6913 20.5623 49.2751 20.3217 48.9241C20.081 48.5731 19.7397 48.3038 19.3431 48.1521C18.9465 48.0004 18.5133 47.9734 18.101 48.0747C17.6887 48.176 17.3169 48.4007 17.0348 48.7191C19.2534 51.7294 22.1842 54.137 25.5623 55.7245C25.5807 55.7314 25.5987 55.7392 25.6163 55.748C25.9718 55.9134 26.3366 56.0721 26.6995 56.2167L26.7202 56.2254Z" fill="#34234D"/>
<path d="M26.9767 57.0458C26.9347 57.0458 26.8931 57.0381 26.854 57.023L26.7039 56.9681C26.6165 56.9366 26.5291 56.9052 26.4431 56.8703H26.4371C26.0802 56.727 25.7227 56.5717 25.3699 56.4089C25.3513 56.4023 25.333 56.3947 25.3152 56.3862C21.7274 54.71 18.6273 52.1386 16.3108 48.9174C16.2687 48.858 16.2461 48.787 16.2461 48.7141C16.2461 48.6412 16.2687 48.5702 16.3108 48.5109C16.6512 48.0225 17.1378 47.6559 17.6999 47.4643C18.262 47.2726 18.8703 47.2659 19.4364 47.4451C20.0026 47.6243 20.4971 47.9801 20.848 48.4608C21.199 48.9415 21.3881 49.5221 21.388 50.1181C22.4043 50.118 23.3791 50.5231 24.0979 51.2445C24.5404 50.9646 25.053 50.8168 25.576 50.8185C25.9942 50.819 26.407 50.9137 26.7839 51.0956C27.1608 51.2776 27.4922 51.5422 27.7537 51.8699H43.2946C43.6388 51.4437 44.0992 51.1273 44.6195 50.9594C45.1398 50.7915 45.6976 50.7793 46.2247 50.9244C46.5928 50.5484 47.0335 50.252 47.5198 50.0532C48.0061 49.8545 48.5278 49.7576 49.0527 49.7685C49.1734 49.2972 49.4145 48.8656 49.7521 48.5164C50.0896 48.1672 50.5121 47.9124 50.9777 47.7771C51.4433 47.6419 51.936 47.6309 52.4072 47.7453C52.8783 47.8596 53.3116 48.0953 53.6643 48.4292C53.7261 48.4873 53.7647 48.5661 53.773 48.6507C53.7812 48.7354 53.7584 48.8202 53.709 48.8892C51.4386 52.0571 48.4109 54.6007 44.9047 56.2857C44.8833 56.2958 44.861 56.3036 44.838 56.3092C44.6146 56.415 44.3891 56.5161 44.1624 56.6145C44.1146 56.6351 44.0629 56.6446 44.0109 56.6424C43.959 56.6403 43.9083 56.6264 43.8624 56.6019C43.8165 56.5775 43.7767 56.543 43.7458 56.501C43.715 56.459 43.6939 56.4106 43.6841 56.3594C43.5983 55.9313 43.3818 55.5407 43.0647 55.2419C42.7476 54.943 42.3456 54.7508 41.9147 54.6919C41.4837 54.633 41.0452 54.7103 40.6601 54.9131C40.2749 55.1159 39.9623 55.4342 39.7656 55.8236C39.7244 55.9043 39.6539 55.9659 39.5686 55.9956C39.4834 56.0253 39.39 56.0208 39.308 55.983C38.8174 55.759 38.2729 55.6813 37.7396 55.7594C37.2062 55.8374 36.7064 56.0677 36.2999 56.423C36.2605 56.4583 36.2135 56.484 36.1626 56.4982C36.1117 56.5124 36.0583 56.5146 36.0064 56.5047C35.9546 56.4953 35.9056 56.4742 35.863 56.443C35.8205 56.4117 35.7856 56.3713 35.7609 56.3246C35.578 55.9778 35.3148 55.6803 34.9935 55.4571C34.6721 55.2338 34.3021 55.0914 33.9144 55.0418C33.5268 54.9921 33.1329 55.0368 32.7661 55.1719C32.3992 55.3071 32.0701 55.5287 31.8064 55.8183C31.7693 55.8594 31.7229 55.891 31.6711 55.9104C31.6194 55.9297 31.5637 55.9363 31.5089 55.9295C31.4535 55.9235 31.4004 55.9043 31.3539 55.8734C31.3075 55.8425 31.2691 55.8009 31.2421 55.752C31.0197 55.3501 30.6722 55.0325 30.2528 54.8481C29.8333 54.6636 29.3652 54.6225 28.9202 54.7309C28.4753 54.8393 28.078 55.0913 27.7894 55.4483C27.5009 55.8053 27.337 56.2474 27.3228 56.7069C27.3197 56.7978 27.2817 56.884 27.2166 56.9473C27.1516 57.0106 27.0646 57.0462 26.974 57.0465L26.9767 57.0458ZM25.5627 55.7245C25.5811 55.7314 25.5991 55.7392 25.6167 55.748C25.9662 55.9107 26.325 56.0667 26.6839 56.2114C26.7905 55.6877 27.0442 55.2055 27.4148 54.8219C27.7855 54.4382 28.2578 54.1689 28.7759 54.046C29.294 53.923 29.8363 53.9513 30.3389 54.1277C30.8415 54.3041 31.2833 54.6212 31.6123 55.0415C31.9443 54.7662 32.3293 54.5626 32.7433 54.4433C33.1572 54.3241 33.5911 54.2917 34.018 54.3483C34.445 54.4048 34.8557 54.5491 35.2247 54.772C35.5936 54.995 35.9128 55.2919 36.1625 55.6442C36.6173 55.3316 37.139 55.1308 37.6854 55.058C38.2319 54.9852 38.7877 55.0424 39.308 55.225C39.593 54.7932 39.9916 54.4492 40.4596 54.2313C40.9276 54.0133 41.4466 53.9298 41.959 53.9901C42.4714 54.0503 42.9571 54.2521 43.3622 54.5728C43.7673 54.8935 44.0759 55.3207 44.2537 55.8069C44.3684 55.7547 44.4832 55.7018 44.5966 55.6469C44.6181 55.6372 44.6404 55.6296 44.6633 55.6241C47.9385 54.0369 50.781 51.6752 52.9466 48.7419C52.5967 48.4954 52.1795 48.3633 51.752 48.3635C51.2462 48.3652 50.758 48.5502 50.3773 48.8845C49.9965 49.2188 49.7488 49.6799 49.6797 50.183C49.6677 50.2735 49.6209 50.3558 49.5494 50.4122C49.4779 50.4686 49.3873 50.4948 49.2968 50.485C48.7929 50.4296 48.2832 50.4982 47.8116 50.6849C47.34 50.8716 46.9208 51.1707 46.5902 51.5565C46.5434 51.6103 46.4813 51.6485 46.4124 51.6661C46.3434 51.6837 46.2707 51.6798 46.204 51.655C45.7685 51.494 45.2922 51.4817 44.8491 51.6201C44.4059 51.7585 44.0206 52.0398 43.7528 52.4204C43.7206 52.4666 43.6778 52.5044 43.628 52.5305C43.5782 52.5567 43.5229 52.5703 43.4667 52.5704H27.5803C27.5241 52.5703 27.4688 52.5567 27.419 52.5305C27.3691 52.5044 27.3263 52.4666 27.2942 52.4204C27.1011 52.1426 26.8442 51.9156 26.5453 51.7587C26.2463 51.6018 25.914 51.5196 25.5767 51.519C25.1006 51.5175 24.6386 51.6809 24.2687 51.9818C24.1977 52.0388 24.1073 52.0659 24.0168 52.0571C23.9262 52.0484 23.8427 52.0045 23.7838 51.9349C23.4895 51.585 23.1228 51.3037 22.7091 51.1108C22.2954 50.9179 21.8448 50.8179 21.3886 50.8179C21.2741 50.8186 21.1597 50.8251 21.0458 50.8373C20.9927 50.8434 20.9389 50.837 20.8886 50.8186C20.8384 50.8003 20.7931 50.7704 20.7563 50.7315C20.7195 50.6926 20.692 50.6458 20.6759 50.5946C20.6599 50.5434 20.6556 50.4892 20.6636 50.4362C20.6809 50.3308 20.6901 50.2242 20.691 50.1174C20.6914 49.6913 20.5627 49.2751 20.3221 48.9241C20.0814 48.5731 19.7401 48.3038 19.3435 48.1521C18.9469 48.0004 18.5137 47.9734 18.1014 48.0747C17.6891 48.176 17.3173 48.4007 17.0352 48.7191C19.2538 51.7294 22.1846 54.137 25.5627 55.7245Z" fill="#282C3F"/>
<path d="M41.631 54.3208C41.18 54.3209 40.7379 54.4465 40.3536 54.6835C39.9693 54.9205 39.6579 55.2597 39.454 55.6635C38.9026 55.4063 38.2886 55.3162 37.687 55.4041C37.0854 55.492 36.5224 55.7541 36.067 56.1584C35.8579 55.7622 35.557 55.4223 35.1898 55.1672C34.8225 54.9121 34.3996 54.7494 33.9566 54.6927C33.5136 54.636 33.0636 54.6869 32.6443 54.8413C32.225 54.9957 31.8489 55.249 31.5474 55.5798C31.2876 55.1118 30.8821 54.7422 30.3931 54.5277C29.9041 54.3131 29.3585 54.2654 28.84 54.3918C28.3214 54.5182 27.8584 54.8118 27.5218 55.2277C27.1853 55.6435 26.9937 56.1586 26.9766 56.6941C27.2013 56.7792 27.4248 56.8669 27.6522 56.9459L27.7603 56.9821C28.0884 57.0932 28.4202 57.1968 28.7554 57.2928L28.9502 57.3484C29.257 57.4341 29.5672 57.5111 29.8793 57.5841C29.968 57.6042 30.0561 57.6263 30.1461 57.6457C30.4376 57.7093 30.7311 57.7656 31.0265 57.8185C31.1339 57.8372 31.2406 57.858 31.3494 57.8761C31.6315 57.9223 31.917 57.9598 32.2024 57.9953C32.3212 58.01 32.4392 58.0274 32.5586 58.0401C32.8494 58.0723 33.1436 58.0937 33.4377 58.1138C33.5511 58.1218 33.6625 58.1339 33.7759 58.1399C34.1821 58.1614 34.5903 58.1741 35.0011 58.1741C35.412 58.1741 35.8329 58.1607 36.2451 58.1379C36.3598 58.1319 36.4732 58.1198 36.5872 58.1125C36.888 58.091 37.1875 58.0683 37.4843 58.0355C37.6037 58.0221 37.7224 58.0046 37.8412 57.9899C38.136 57.9524 38.4301 57.9122 38.7209 57.864C38.8263 57.8466 38.9297 57.8265 39.0344 57.8078C39.3459 57.7515 39.656 57.6899 39.9629 57.6209L40.195 57.5674C40.5385 57.4857 40.8793 57.3979 41.2168 57.2995L41.3335 57.2667C42.2506 56.999 43.1499 56.6736 44.0262 56.2923C43.9152 55.7365 43.616 55.2364 43.1794 54.877C42.7427 54.5176 42.1956 54.321 41.631 54.3208Z" fill="#2CAAE6"/>
<path d="M35.0005 58.5255C34.6003 58.5255 34.1921 58.5141 33.7572 58.4913C33.6865 58.4873 33.6171 58.4813 33.5478 58.4752L33.4144 58.4645C33.1162 58.4444 32.8141 58.4223 32.5219 58.3902C32.4446 58.3815 32.3679 58.3714 32.2905 58.3614L32.1571 58.344C31.867 58.3078 31.5768 58.2703 31.29 58.2235L31.0899 58.188L30.9612 58.1645C30.6604 58.1109 30.3609 58.054 30.0661 57.9891L29.7993 57.9268C29.4818 57.8525 29.167 57.7741 28.8548 57.687L28.6641 57.6315C28.3112 57.5297 27.9711 57.4239 27.6529 57.3154L27.5435 57.2785C27.3641 57.2163 27.1887 57.1493 27.0099 57.0823L26.8545 57.0227C26.7864 56.9969 26.7281 56.9504 26.6877 56.8896C26.6472 56.8289 26.6268 56.7569 26.6291 56.6839C26.6471 56.1091 26.8408 55.5539 27.184 55.0935C27.5272 54.6331 28.0031 54.2899 28.5473 54.1105C29.0914 53.9311 29.6774 53.9242 30.2256 54.0907C30.7738 54.2572 31.2576 54.589 31.6115 55.0412C31.9436 54.7659 32.3286 54.5623 32.7425 54.4431C33.1564 54.3238 33.5904 54.2914 34.0173 54.348C34.4442 54.4045 34.855 54.5488 35.2239 54.7717C35.5929 54.9947 35.9121 55.2916 36.1617 55.6439C36.6166 55.3313 37.1383 55.1305 37.6847 55.0577C38.2311 54.9849 38.7869 55.0421 39.3072 55.2247C39.6126 54.7626 40.0476 54.4018 40.5572 54.1881C41.0669 53.9743 41.6282 53.9172 42.1702 54.0239C42.7122 54.1306 43.2105 54.3963 43.602 54.7874C43.9936 55.1785 44.2607 55.6775 44.3697 56.2211C44.3853 56.2997 44.3736 56.3812 44.3365 56.4521C44.2995 56.523 44.2394 56.5791 44.1663 56.6109C43.2765 57.0002 42.3631 57.3326 41.4316 57.606L41.3115 57.6402C40.9854 57.7339 40.6446 57.8223 40.2757 57.908L40.0396 57.9623C39.7281 58.0292 39.4133 58.0962 39.0971 58.1525L39.0031 58.1699L38.779 58.2094C38.4835 58.2583 38.1847 58.2991 37.8859 58.3373L37.7625 58.3534C37.6824 58.3641 37.6031 58.3748 37.5224 58.3835C37.2216 58.4163 36.9174 58.4404 36.6119 58.4619L36.4785 58.4726C36.4085 58.4779 36.3385 58.4839 36.2671 58.488C35.8202 58.5134 35.4073 58.5255 35.0005 58.5255ZM27.3474 56.4616C27.4868 56.5145 27.6256 56.5667 27.7663 56.6156L27.8737 56.6517C28.1812 56.7562 28.5107 56.8587 28.8522 56.9578L29.0443 57.012C29.3464 57.0957 29.6519 57.1721 29.9587 57.2437L30.2202 57.3047C30.507 57.3676 30.7958 57.4225 31.0872 57.4748L31.2206 57.4989C31.282 57.5103 31.3434 57.5216 31.4047 57.531C31.6829 57.5765 31.9637 57.6134 32.2451 57.6489L32.3785 57.6663C32.4499 57.6763 32.5206 57.6857 32.592 57.6931C32.8795 57.7239 33.1689 57.7453 33.4591 57.7654L33.6045 57.7768C33.6672 57.7828 33.7292 57.7882 33.7926 57.7908C34.6021 57.8367 35.4135 57.8367 36.2231 57.7908C36.2898 57.7875 36.3505 57.7821 36.4138 57.7768L36.5612 57.7647C36.856 57.7446 37.1509 57.7219 37.4437 57.6897C37.519 57.681 37.5931 57.671 37.6671 57.6616L37.7952 57.6449C38.0853 57.608 38.3748 57.5685 38.6623 57.521C38.7336 57.5089 38.8037 57.4955 38.8744 57.4828L38.9704 57.4654C39.2772 57.4098 39.582 57.3495 39.8848 57.2812L40.1136 57.2283C40.4725 57.1433 40.802 57.0576 41.1188 56.9665L41.2342 56.9337C42.0412 56.6971 42.8342 56.4147 43.6093 56.0879C43.4751 55.6981 43.2296 55.3566 42.9034 55.106C42.5772 54.8554 42.1847 54.7067 41.7749 54.6785C41.3651 54.6503 40.9561 54.7438 40.5989 54.9474C40.2417 55.151 39.9521 55.4556 39.7661 55.8234C39.725 55.904 39.6545 55.9656 39.5692 55.9953C39.484 56.025 39.3906 56.0205 39.3086 55.9827C38.8179 55.7587 38.2735 55.6811 37.7401 55.7591C37.2068 55.8371 36.707 56.0674 36.3004 56.4227C36.261 56.458 36.2141 56.4838 36.1632 56.4979C36.1123 56.5121 36.0589 56.5143 36.007 56.5044C35.9552 56.495 35.9061 56.4739 35.8636 56.4427C35.8211 56.4115 35.7862 56.371 35.7615 56.3243C35.5786 55.9775 35.3154 55.68 34.9941 55.4568C34.6727 55.2335 34.3026 55.0911 33.915 55.0415C33.5273 54.9919 33.1335 55.0365 32.7666 55.1716C32.3998 55.3068 32.0706 55.5284 31.8069 55.818C31.7699 55.8591 31.7235 55.8907 31.6717 55.9101C31.6199 55.9294 31.5643 55.936 31.5095 55.9292C31.4541 55.9232 31.4009 55.904 31.3545 55.8731C31.3081 55.8422 31.2697 55.8006 31.2427 55.7517C31.0303 55.3683 30.7037 55.0613 30.3087 54.8738C29.9138 54.6862 29.4702 54.6275 29.0404 54.7059C28.6105 54.7842 28.2158 54.9957 27.9117 55.3107C27.6076 55.6257 27.4094 56.0284 27.3448 56.4622L27.3474 56.4616Z" fill="#282C3F"/>
<path d="M61.8741 44.5093C63.416 44.5093 64.6661 43.2542 64.6661 41.7061C64.6661 40.1579 63.416 38.9028 61.8741 38.9028C60.3321 38.9028 59.082 40.1579 59.082 41.7061C59.082 43.2542 60.3321 44.5093 61.8741 44.5093Z" fill="white"/>
<path d="M61.8736 44.8596C61.781 44.8596 61.6922 44.8227 61.6267 44.757C61.5612 44.6914 61.5243 44.6023 61.5241 44.5093C61.5234 43.8591 61.2658 43.2357 60.8079 42.7758C60.3501 42.316 59.7292 42.0572 59.0816 42.0563C59.0344 42.0584 58.9874 42.0509 58.9432 42.0342C58.899 42.0175 58.8587 41.992 58.8246 41.9592C58.7905 41.9265 58.7634 41.8871 58.7449 41.8436C58.7264 41.8 58.7168 41.7531 58.7168 41.7058C58.7168 41.6584 58.7264 41.6115 58.7449 41.5679C58.7634 41.5244 58.7905 41.485 58.8246 41.4523C58.8587 41.4195 58.899 41.394 58.9432 41.3773C58.9874 41.3606 59.0344 41.3531 59.0816 41.3552C59.7291 41.3545 60.35 41.0959 60.8079 40.6361C61.2658 40.1764 61.5234 39.553 61.5241 38.9029C61.522 38.8555 61.5295 38.8083 61.5461 38.7639C61.5628 38.7196 61.5882 38.6791 61.6208 38.6449C61.6534 38.6107 61.6926 38.5834 61.736 38.5648C61.7794 38.5462 61.8261 38.5366 61.8733 38.5366C61.9204 38.5366 61.9671 38.5462 62.0105 38.5648C62.0539 38.5834 62.0931 38.6107 62.1257 38.6449C62.1584 38.6791 62.1837 38.7196 62.2004 38.7639C62.217 38.8083 62.2245 38.8555 62.2224 38.9029C62.2224 39.5537 62.4797 40.1779 62.9379 40.6383C63.396 41.0988 64.0174 41.3578 64.6656 41.3585C64.7556 41.3625 64.8405 41.4011 64.9028 41.4665C64.9651 41.5318 64.9998 41.6187 64.9998 41.7091C64.9998 41.7995 64.9651 41.8864 64.9028 41.9517C64.8405 42.0171 64.7556 42.0557 64.6656 42.0597C64.0179 42.0604 63.3968 42.3191 62.9388 42.7789C62.4808 43.2388 62.2231 43.8623 62.2224 44.5127C62.2215 44.605 62.1844 44.6932 62.1191 44.7582C62.0538 44.8231 61.9655 44.8596 61.8736 44.8596ZM60.5196 41.7061C61.0998 42.0078 61.5728 42.4825 61.8736 43.0648C62.1742 42.4823 62.6472 42.0076 63.2276 41.7061C62.6472 41.4043 62.1742 40.9294 61.8736 40.3467C61.5728 40.9293 61.0999 41.4041 60.5196 41.7061Z" fill="#989AA6"/>
<path d="M45.4707 63.4307C47.0127 63.4307 48.2628 62.1756 48.2628 60.6275C48.2628 59.0793 47.0127 57.8242 45.4707 57.8242C43.9287 57.8242 42.6787 59.0793 42.6787 60.6275C42.6787 62.1756 43.9287 63.4307 45.4707 63.4307Z" fill="white"/>
<path d="M45.4716 63.7819C45.4257 63.7819 45.3803 63.7728 45.3379 63.7551C45.2954 63.7375 45.2569 63.7117 45.2245 63.6791C45.192 63.6465 45.1663 63.6078 45.1487 63.5652C45.1311 63.5227 45.1221 63.477 45.1221 63.4309C45.121 62.7808 44.8631 62.1576 44.405 61.6981C43.9468 61.2386 43.3258 60.9803 42.6782 60.98C42.6311 60.982 42.584 60.9745 42.5399 60.9578C42.4957 60.9411 42.4554 60.9156 42.4213 60.8829C42.3872 60.8501 42.3601 60.8108 42.3416 60.7672C42.323 60.7236 42.3135 60.6768 42.3135 60.6294C42.3135 60.582 42.323 60.5351 42.3416 60.4916C42.3601 60.448 42.3872 60.4087 42.4213 60.3759C42.4554 60.3431 42.4957 60.3176 42.5399 60.301C42.584 60.2843 42.6311 60.2767 42.6782 60.2788C43.3259 60.2779 43.9467 60.0192 44.4046 59.5593C44.8625 59.0995 45.1201 58.4761 45.1208 57.8258C45.1247 57.7355 45.1632 57.6502 45.2283 57.5877C45.2933 57.5251 45.3799 57.4902 45.4699 57.4902C45.56 57.4902 45.6466 57.5251 45.7116 57.5877C45.7767 57.6502 45.8152 57.7355 45.8191 57.8258C45.8198 58.4762 46.0774 59.0997 46.5355 59.5596C46.9935 60.0194 47.6145 60.2781 48.2623 60.2788C48.3523 60.2828 48.4372 60.3214 48.4995 60.3867C48.5618 60.452 48.5965 60.539 48.5965 60.6294C48.5965 60.7198 48.5618 60.8067 48.4995 60.872C48.4372 60.9373 48.3523 60.976 48.2623 60.98C47.6146 60.9807 46.9937 61.2392 46.5357 61.699C46.0777 62.1587 45.82 62.782 45.8191 63.4323C45.8189 63.5248 45.7823 63.6135 45.7172 63.679C45.6521 63.7445 45.5638 63.7815 45.4716 63.7819ZM44.1176 60.6277C44.6975 60.929 45.1704 61.4029 45.4716 61.9845C45.7722 61.4017 46.2452 60.9268 46.8256 60.625C46.2456 60.3242 45.7727 59.8505 45.4716 59.269C45.1704 59.8515 44.697 60.3262 44.1163 60.6277H44.1176Z" fill="#989AA6"/>
<path d="M58.0342 18.9292C59.5762 18.9292 60.8262 17.6742 60.8262 16.126C60.8262 14.5778 59.5762 13.3228 58.0342 13.3228C56.4922 13.3228 55.2422 14.5778 55.2422 16.126C55.2422 17.6742 56.4922 18.9292 58.0342 18.9292Z" fill="white"/>
<path d="M58.0344 19.2796C57.9419 19.2796 57.8532 19.2427 57.7877 19.177C57.7223 19.1113 57.6856 19.0223 57.6856 18.9294C57.6849 18.279 57.4272 17.6555 56.9692 17.1956C56.5112 16.7357 55.8901 16.4771 55.2424 16.4764C55.1499 16.4764 55.0611 16.4395 54.9957 16.3738C54.9303 16.3081 54.8936 16.219 54.8936 16.1261C54.8936 16.0332 54.9303 15.9442 54.9957 15.8785C55.0611 15.8128 55.1499 15.7759 55.2424 15.7759C55.8901 15.7752 56.5112 15.5165 56.9692 15.0566C57.4272 14.5968 57.6849 13.9733 57.6856 13.3229C57.6856 13.23 57.7223 13.1409 57.7877 13.0752C57.8532 13.0096 57.9419 12.9727 58.0344 12.9727C58.1269 12.9727 58.2157 13.0096 58.2811 13.0752C58.3465 13.1409 58.3832 13.23 58.3832 13.3229C58.3836 13.9735 58.6411 14.5973 59.0991 15.0575C59.5572 15.5177 60.1784 15.7765 60.8264 15.7772C60.8722 15.7772 60.9176 15.7863 60.9599 15.8039C61.0022 15.8215 61.0407 15.8473 61.0731 15.8798C61.1055 15.9123 61.1312 15.9509 61.1487 15.9934C61.1662 16.0359 61.1753 16.0815 61.1753 16.1275C61.1753 16.1735 61.1662 16.219 61.1487 16.2615C61.1312 16.304 61.1055 16.3426 61.0731 16.3751C61.0407 16.4076 61.0022 16.4334 60.9599 16.451C60.9176 16.4686 60.8722 16.4777 60.8264 16.4777C60.1787 16.4784 59.5577 16.7371 59.0996 17.197C58.6416 17.6568 58.384 18.2803 58.3832 18.9307C58.3829 19.0234 58.346 19.1121 58.2806 19.1775C58.2152 19.2429 58.1267 19.2796 58.0344 19.2796ZM56.6804 16.1261C57.2609 16.4277 57.734 16.9027 58.0344 17.4856C58.3348 16.9027 58.8079 16.4277 59.3884 16.1261C58.8079 15.8245 58.3348 15.3496 58.0344 14.7667C57.734 15.3496 57.2609 15.8245 56.6804 16.1261Z" fill="#989AA6"/>
<path d="M24.8789 12.9727C26.4209 12.9727 27.671 11.7176 27.671 10.1694C27.671 8.62126 26.4209 7.36621 24.8789 7.36621C23.3369 7.36621 22.0869 8.62126 22.0869 10.1694C22.0869 11.7176 23.3369 12.9727 24.8789 12.9727Z" fill="white"/>
<path d="M24.8794 13.3229C24.7869 13.3229 24.6981 13.2861 24.6325 13.2204C24.567 13.1547 24.5301 13.0657 24.5299 12.9727C24.5292 12.3225 24.2717 11.699 23.8138 11.2392C23.3559 10.7793 22.7351 10.5206 22.0874 10.5197C22.0403 10.5218 21.9932 10.5142 21.9491 10.4976C21.9049 10.4809 21.8646 10.4554 21.8305 10.4226C21.7964 10.3899 21.7693 10.3505 21.7507 10.307C21.7322 10.2634 21.7227 10.2165 21.7227 10.1691C21.7227 10.1218 21.7322 10.0749 21.7507 10.0313C21.7693 9.98775 21.7964 9.9484 21.8305 9.91564C21.8646 9.88289 21.9049 9.8574 21.9491 9.84071C21.9932 9.82403 22.0403 9.81649 22.0874 9.81856C22.7348 9.8175 23.3553 9.55874 23.8129 9.09903C24.2705 8.63933 24.5279 8.01618 24.5286 7.36623C24.5265 7.31891 24.5341 7.27165 24.5507 7.22731C24.5673 7.18298 24.5927 7.14248 24.6253 7.10826C24.6579 7.07404 24.6971 7.0468 24.7405 7.0282C24.7839 7.00959 24.8306 7 24.8778 7C24.925 7 24.9717 7.00959 25.015 7.0282C25.0584 7.0468 25.0976 7.07404 25.1303 7.10826C25.1629 7.14248 25.1883 7.18298 25.2049 7.22731C25.2215 7.27165 25.229 7.31891 25.2269 7.36623C25.2282 8.01647 25.4862 8.63968 25.9445 9.09915C26.4028 9.55863 27.0238 9.81687 27.6715 9.81722C27.7614 9.82117 27.8464 9.85983 27.9087 9.92514C27.9709 9.99046 28.0057 10.0774 28.0057 10.1678C28.0057 10.2582 27.9709 10.3451 27.9087 10.4104C27.8464 10.4758 27.7614 10.5144 27.6715 10.5184C27.0237 10.5191 26.4027 10.7777 25.9447 11.2376C25.4866 11.6975 25.229 12.321 25.2283 12.9714C25.2285 13.0175 25.2196 13.0632 25.2021 13.1058C25.1847 13.1485 25.159 13.1872 25.1266 13.2199C25.0942 13.2525 25.0557 13.2785 25.0132 13.2961C24.9708 13.3138 24.9254 13.3229 24.8794 13.3229ZM23.5281 10.1695C24.1082 10.4714 24.5811 10.946 24.8821 11.5282C25.1827 10.9457 25.6558 10.471 26.2361 10.1695C25.6558 9.86749 25.1829 9.39263 24.8821 8.81004C24.581 9.39234 24.1081 9.8671 23.5281 10.1695Z" fill="#989AA6"/>
<path d="M8.12601 29.4419C9.668 29.4419 10.918 28.1869 10.918 26.6387C10.918 25.0905 9.668 23.8354 8.12601 23.8354C6.58401 23.8354 5.33398 25.0905 5.33398 26.6387C5.33398 28.1869 6.58401 29.4419 8.12601 29.4419Z" fill="white"/>
<path d="M8.12626 29.7922C8.03374 29.7922 7.94501 29.7553 7.8796 29.6896C7.81418 29.6239 7.77742 29.5348 7.77742 29.4419C7.77672 28.7916 7.51908 28.1681 7.06105 27.7082C6.60302 27.2483 5.98199 26.9897 5.33424 26.9889C5.24427 26.985 5.1593 26.9463 5.09703 26.881C5.03476 26.8157 5 26.7288 5 26.6384C5 26.548 5.03476 26.461 5.09703 26.3957C5.1593 26.3304 5.24427 26.2917 5.33424 26.2878C5.98188 26.2871 6.6028 26.0285 7.06082 25.5688C7.51883 25.1091 7.77654 24.4857 7.77742 23.8355C7.77536 23.7881 7.78287 23.7409 7.79949 23.6966C7.8161 23.6522 7.84149 23.6117 7.87412 23.5775C7.90674 23.5433 7.94593 23.516 7.98933 23.4974C8.03272 23.4788 8.07941 23.4692 8.12659 23.4692C8.17378 23.4692 8.22047 23.4788 8.26386 23.4974C8.30725 23.516 8.34644 23.5433 8.37907 23.5775C8.4117 23.6117 8.43708 23.6522 8.4537 23.6966C8.47032 23.7409 8.47782 23.7881 8.47576 23.8355C8.47568 24.158 8.53888 24.4773 8.66176 24.7753C8.78465 25.0733 8.9648 25.344 9.19194 25.5721C9.41908 25.8001 9.68874 25.981 9.98552 26.1044C10.2823 26.2278 10.6004 26.2912 10.9216 26.2911C10.9688 26.2891 11.0158 26.2966 11.06 26.3133C11.1041 26.33 11.1445 26.3555 11.1786 26.3882C11.2126 26.421 11.2398 26.4603 11.2583 26.5039C11.2768 26.5475 11.2864 26.5943 11.2864 26.6417C11.2864 26.6891 11.2768 26.736 11.2583 26.7795C11.2398 26.8231 11.2126 26.8625 11.1786 26.8952C11.1445 26.928 11.1041 26.9535 11.06 26.9701C11.0158 26.9868 10.9688 26.9944 10.9216 26.9923C10.274 26.9932 9.65312 27.2519 9.19523 27.7118C8.73735 28.1716 8.4798 28.795 8.4791 29.4453C8.47804 29.5382 8.4403 29.627 8.37414 29.692C8.30799 29.757 8.21884 29.7931 8.12626 29.7922ZM6.77227 26.6387C7.35279 26.9403 7.82585 27.4153 8.12626 27.9981C8.42685 27.4154 8.89986 26.9405 9.48025 26.6387C8.90015 26.3365 8.42724 25.8617 8.12626 25.2793C7.82549 25.8619 7.35253 26.3367 6.77227 26.6387Z" fill="#989AA6"/>
<path d="M12.6641 55.021C14.2061 55.021 15.4561 53.766 15.4561 52.2178C15.4561 50.6696 14.2061 49.4146 12.6641 49.4146C11.1221 49.4146 9.87207 50.6696 9.87207 52.2178C9.87207 53.766 11.1221 55.021 12.6641 55.021Z" fill="white"/>
<path d="M12.6636 55.3721C12.5709 55.3721 12.482 55.3351 12.4165 55.2693C12.3509 55.2035 12.3141 55.1142 12.3141 55.0212C12.3134 54.371 12.0559 53.7476 11.5979 53.2879C11.14 52.8281 10.5192 52.5695 9.8716 52.5688C9.82447 52.5709 9.7774 52.5634 9.73324 52.5467C9.68908 52.53 9.64874 52.5045 9.61466 52.4717C9.58058 52.439 9.55345 52.3996 9.53492 52.3561C9.51639 52.3125 9.50684 52.2656 9.50684 52.2182C9.50684 52.1709 9.51639 52.124 9.53492 52.0804C9.55345 52.0369 9.58058 51.9975 9.61466 51.9648C9.64874 51.932 9.68908 51.9065 9.73324 51.8898C9.7774 51.8731 9.82447 51.8656 9.8716 51.8677C10.5192 51.8668 11.1401 51.608 11.598 51.1482C12.0559 50.6883 12.3134 50.0649 12.3141 49.4147C12.3181 49.3244 12.3566 49.239 12.4216 49.1765C12.4867 49.114 12.5732 49.0791 12.6633 49.0791C12.7533 49.0791 12.8399 49.114 12.905 49.1765C12.97 49.239 13.0085 49.3244 13.0125 49.4147C13.0132 50.0653 13.271 50.689 13.7293 51.1489C14.1876 51.6088 14.809 51.8673 15.457 51.8677C15.5469 51.8716 15.6319 51.9103 15.6942 51.9756C15.7565 52.0409 15.7912 52.1278 15.7912 52.2182C15.7912 52.3087 15.7565 52.3956 15.6942 52.4609C15.6319 52.5262 15.5469 52.5649 15.457 52.5688C14.8093 52.5692 14.1883 52.8274 13.73 53.2869C13.2717 53.7464 13.0137 54.3696 13.0125 55.0198C13.0127 55.066 13.0039 55.1117 12.9865 55.1545C12.9691 55.1972 12.9434 55.236 12.911 55.2688C12.8786 55.3015 12.84 55.3275 12.7976 55.3452C12.7551 55.3629 12.7096 55.3721 12.6636 55.3721ZM11.3096 52.2179C11.8899 52.5199 12.3629 52.9948 12.6636 53.5773C12.964 52.9945 13.4371 52.5195 14.0176 52.2179C13.4373 51.9164 12.9643 51.4417 12.6636 50.8592C12.3626 51.4414 11.8897 51.916 11.3096 52.2179Z" fill="#989AA6"/>
</svg>
