<svg width="71" height="71" viewBox="0 0 71 71" fill="none" xmlns="http://www.w3.org/2000/svg">
<g clip-path="url(#clip0_1943_2349)">
<path d="M57.6582 32.765C56.0649 28.6539 57.6232 22.0026 54.1631 19.2219C50.8085 16.5261 44.5731 19.325 39.9952 18.5982C35.4173 17.8714 30.389 13.2857 26.3457 14.8073C22.1741 16.377 21.5345 23.1709 18.712 26.5838C15.9762 29.8903 9.30344 31.8224 8.5654 36.3361C7.82736 40.8498 13.547 44.7503 15.0918 48.735C16.6851 52.8461 15.1267 59.4974 18.5869 62.2775C21.9408 64.9739 28.1769 62.175 32.7541 62.9018C37.3314 63.6286 42.3603 68.2143 46.4043 66.6927C50.5759 65.1224 51.2155 58.3291 54.0374 54.9162C56.7738 51.6097 63.4466 49.6776 64.1846 45.1639C64.9226 40.6502 59.2024 36.7497 57.6582 32.765Z" fill="#F6F6F6"/>
<path d="M56.9488 20.3159C57.0653 20.1118 57.1264 19.8809 57.126 19.646C57.1264 19.382 57.05 19.1235 56.9059 18.9022C56.7619 18.6808 56.5565 18.506 56.3147 18.3992C56.073 18.2925 55.8054 18.2582 55.5445 18.3007C55.2837 18.3432 55.0408 18.4606 54.8456 18.6386C54.7652 18.0201 54.4522 17.4553 53.97 17.059C53.4878 16.6627 52.8727 16.4647 52.2496 16.5052C51.6265 16.5456 51.0422 16.8216 50.6155 17.2769C50.1887 17.7322 49.9515 18.3327 49.952 18.9564C49.9524 19.1079 49.9669 19.2591 49.9955 19.4078C49.7118 19.3484 49.4187 19.3491 49.1353 19.4099C48.8519 19.4708 48.5844 19.5904 48.3502 19.761C48.116 19.9317 47.9203 20.1496 47.7758 20.4006C47.6312 20.6516 47.541 20.9302 47.5111 21.2182C47.4811 21.5062 47.5121 21.7973 47.6019 22.0727C47.6917 22.348 47.8384 22.6014 48.0325 22.8165C48.2266 23.0316 48.4637 23.2036 48.7286 23.3214C48.9934 23.4391 49.2801 23.5 49.57 23.5H56.6438C57.0435 23.4994 57.4287 23.3502 57.7242 23.0814C58.0198 22.8127 58.2046 22.4436 58.2427 22.0462C58.2808 21.6487 58.1693 21.2514 57.9301 20.9315C57.691 20.6116 57.3411 20.3922 56.9488 20.3159Z" fill="white"/>
<path d="M56.5726 23.7494H49.6123C49.2998 23.7471 48.9908 23.6839 48.7029 23.5634C48.4151 23.4429 48.1541 23.2674 47.9347 23.0471C47.7153 22.8267 47.542 22.5657 47.4245 22.279C47.307 21.9923 47.2478 21.6854 47.2501 21.3761C47.2524 21.0667 47.3162 20.7608 47.4379 20.4758C47.5596 20.1908 47.7368 19.9324 47.9595 19.7152C48.1821 19.498 48.4457 19.3264 48.7353 19.2101C49.0249 19.0938 49.3348 19.0351 49.6473 19.0374C49.6473 19.0182 49.6473 18.9989 49.6473 18.9797C49.6479 18.3304 49.882 17.7025 50.3078 17.2086C50.7335 16.7147 51.323 16.387 51.9706 16.2844C52.6182 16.1817 53.2816 16.3108 53.8418 16.6484C54.402 16.986 54.8225 17.5101 55.0278 18.1267C55.284 18.0159 55.5641 17.9699 55.8428 17.9929C56.1214 18.0159 56.3899 18.1072 56.624 18.2585C56.8582 18.4099 57.0506 18.6165 57.184 18.8598C57.3174 19.1031 57.3875 19.3754 57.3881 19.6522C57.3883 19.8008 57.368 19.9487 57.3278 20.0919C57.7366 20.2636 58.0727 20.5701 58.2792 20.9592C58.4857 21.3484 58.55 21.7963 58.461 22.2269C58.372 22.6576 58.1353 23.0446 57.791 23.3222C57.4467 23.5998 57.016 23.7509 56.572 23.75L56.5726 23.7494ZM49.6123 19.7132C49.168 19.7218 48.7449 19.9026 48.4338 20.2167C48.1226 20.5308 47.9483 20.9531 47.9483 21.3931C47.9483 21.833 48.1226 22.2554 48.4338 22.5695C48.7449 22.8836 49.168 23.0643 49.6123 23.0729H56.5726C56.8817 23.0737 57.18 22.9602 57.409 22.7547C57.638 22.5492 57.7813 22.2665 57.8109 21.9619C57.8404 21.6573 57.754 21.3527 57.5686 21.1078C57.3832 20.863 57.1122 20.6954 56.8086 20.638C56.7553 20.6279 56.7053 20.6053 56.6626 20.5722C56.6199 20.5391 56.5858 20.4965 56.5631 20.4478C56.5403 20.399 56.5296 20.3457 56.5319 20.292C56.5341 20.2384 56.5492 20.1861 56.5759 20.1394C56.6926 19.9346 56.7319 19.6954 56.6867 19.4645C56.6415 19.2337 56.5148 19.0263 56.3292 18.8796C56.1436 18.7328 55.9113 18.6563 55.6739 18.6637C55.4365 18.6711 55.2095 18.762 55.0337 18.92C54.9874 18.9614 54.9306 18.9894 54.8694 19.0011C54.8082 19.0129 54.7449 19.0078 54.6864 18.9864C54.6279 18.9651 54.5764 18.9283 54.5375 18.88C54.4986 18.8318 54.4738 18.7739 54.4658 18.7127C54.4071 18.1872 54.1461 17.7043 53.7368 17.3646C53.3276 17.0248 52.8019 16.8544 52.2689 16.8888C51.736 16.9232 51.237 17.1598 50.8759 17.5492C50.5147 17.9387 50.3191 18.4511 50.3299 18.9797C50.3301 19.1065 50.3424 19.2331 50.3669 19.3577C50.3772 19.4124 50.3737 19.4688 50.3567 19.5219C50.3397 19.5749 50.3097 19.623 50.2695 19.6619C50.2292 19.7007 50.1799 19.7291 50.1258 19.7446C50.0718 19.76 50.0148 19.762 49.9598 19.7504C49.8456 19.7262 49.7291 19.7137 49.6123 19.7132Z" fill="#989AA6"/>
<path d="M21.0997 21.9113C21.2414 21.6601 21.2896 21.3663 21.2356 21.0825C21.1815 20.7988 21.0289 20.5438 20.805 20.3634C20.5812 20.183 20.3008 20.0891 20.0144 20.0984C19.728 20.1078 19.4543 20.2199 19.2425 20.4145C19.206 20.1235 19.1119 19.8429 18.9657 19.5893C18.8195 19.3356 18.6243 19.1142 18.3916 18.9382C18.1589 18.7621 17.8934 18.635 17.6111 18.5644C17.3287 18.4938 17.0351 18.4811 16.7477 18.5271C16.4604 18.5731 16.1851 18.6769 15.9383 18.8322C15.6916 18.9876 15.4782 19.1913 15.3111 19.4314C15.1439 19.6715 15.0264 19.943 14.9653 20.2298C14.9043 20.5166 14.901 20.8129 14.9558 21.1009C14.8323 21.074 14.7063 21.0604 14.5799 21.0603C14.0946 21.0603 13.6291 21.2547 13.286 21.6006C12.9428 21.9466 12.75 22.4159 12.75 22.9051C12.75 23.3944 12.9428 23.8637 13.286 24.2097C13.6291 24.5556 14.0946 24.75 14.5799 24.75H20.8305C21.1837 24.7496 21.5241 24.6167 21.7853 24.3771C22.0466 24.1374 22.2099 23.8083 22.2435 23.4539C22.2772 23.0994 22.1786 22.745 21.9672 22.4598C21.7557 22.1746 21.4465 21.9791 21.0997 21.9113Z" fill="white"/>
<path d="M20.757 25H14.6554C14.0872 25.0034 13.5409 24.7812 13.1367 24.3821C12.7325 23.9831 12.5035 23.44 12.5 22.8722C12.4966 22.3045 12.719 21.7586 13.1183 21.3547C13.5177 20.9508 14.0612 20.7219 14.6294 20.7185C14.6307 20.1359 14.8377 19.5724 15.2139 19.1273C15.5902 18.6823 16.1116 18.3842 16.6863 18.2857C17.2609 18.1871 17.852 18.2944 18.3552 18.5886C18.8585 18.8828 19.2417 19.345 19.4373 19.8939C19.698 19.7921 19.9816 19.7636 20.2574 19.8114C20.5332 19.8592 20.7906 19.9816 21.0018 20.1653C21.2129 20.3489 21.3697 20.5868 21.4551 20.8532C21.5405 21.1196 21.5513 21.4042 21.4863 21.6763C21.8473 21.8424 22.1406 22.1269 22.3176 22.4825C22.4946 22.838 22.5447 23.2433 22.4595 23.6313C22.3744 24.0192 22.1592 24.3664 21.8495 24.6153C21.5399 24.8642 21.1544 24.9999 20.757 25ZM14.6554 21.4295C14.276 21.4295 13.912 21.5802 13.6437 21.8483C13.3754 22.1164 13.2246 22.48 13.2246 22.8592C13.2246 23.2384 13.3754 23.602 13.6437 23.8702C13.912 24.1383 14.276 24.2889 14.6554 24.2889H20.757C21.0133 24.2886 21.2603 24.193 21.4499 24.0207C21.6395 23.8483 21.7581 23.6116 21.7826 23.3566C21.8071 23.1017 21.7357 22.8468 21.5824 22.6415C21.429 22.4363 21.2047 22.2955 20.9531 22.2465C20.8976 22.2358 20.8455 22.2121 20.801 22.1773C20.7566 22.1424 20.721 22.0976 20.6973 22.0463C20.6736 21.9951 20.6625 21.9389 20.6648 21.8825C20.6671 21.8261 20.6828 21.7711 20.7106 21.7219C20.8053 21.5524 20.8366 21.3547 20.799 21.1643C20.7614 20.9738 20.6572 20.8028 20.5052 20.682C20.3531 20.5611 20.163 20.4982 19.9688 20.5044C19.7746 20.5106 19.5889 20.5856 19.4449 20.7159C19.3968 20.7596 19.3376 20.7893 19.2738 20.8017C19.21 20.8141 19.144 20.8088 19.0831 20.7864C19.0221 20.764 18.9684 20.7253 18.9279 20.6745C18.8874 20.6237 18.8615 20.5628 18.8533 20.4984C18.8227 20.2649 18.7456 20.0399 18.6265 19.8366C18.5075 19.6334 18.3488 19.4561 18.16 19.3152C17.9712 19.1742 17.756 19.0726 17.5272 19.0161C17.2984 18.9597 17.0606 18.9497 16.8279 18.9867C16.5951 19.0237 16.3721 19.1069 16.1721 19.2314C15.9721 19.356 15.7991 19.5193 15.6633 19.7118C15.5275 19.9043 15.4318 20.122 15.3816 20.3521C15.3315 20.5822 15.3281 20.82 15.3715 21.0515C15.3823 21.109 15.3787 21.1682 15.3611 21.224C15.3434 21.2798 15.3123 21.3303 15.2704 21.3712C15.2285 21.412 15.1772 21.4419 15.1209 21.4582C15.0647 21.4745 15.0053 21.4766 14.9481 21.4644C14.852 21.4427 14.7539 21.431 14.6554 21.4295Z" fill="#989AA6"/>
<path d="M57.7861 36.8145C57.6899 36.6433 57.6573 36.4431 57.6942 36.2498C57.7311 36.0565 57.8352 35.8829 57.9876 35.76C58.14 35.6372 58.3308 35.5731 58.5258 35.5795C58.7207 35.5858 58.9071 35.6621 59.0513 35.7946C59.0774 35.5973 59.1423 35.4073 59.2423 35.2357C59.3423 35.0641 59.4753 34.9145 59.6334 34.7955C59.7916 34.6766 59.9718 34.5908 60.1633 34.5433C60.3549 34.4957 60.5539 34.4872 60.7487 34.5185C60.9435 34.5497 61.1302 34.6199 61.2977 34.7251C61.4652 34.8302 61.6101 34.9681 61.724 35.1306C61.8378 35.2932 61.9183 35.477 61.9607 35.6714C62.003 35.8658 62.0064 36.0668 61.9706 36.2625C62.0541 36.244 62.1394 36.2346 62.225 36.2343C62.3911 36.2305 62.5562 36.2602 62.7107 36.3217C62.8653 36.3832 63.006 36.4753 63.1248 36.5924C63.2436 36.7096 63.3379 36.8495 63.4024 37.004C63.4668 37.1585 63.5 37.3244 63.5 37.492C63.5 37.6596 63.4668 37.8255 63.4024 37.98C63.3379 38.1344 63.2436 38.2744 63.1248 38.3915C63.006 38.5087 62.8653 38.6007 62.7107 38.6622C62.5562 38.7237 62.3911 38.7535 62.225 38.7497H57.9699C57.7289 38.7503 57.4963 38.6601 57.3177 38.4967C57.1391 38.3334 57.0274 38.1087 57.0044 37.8666C56.9814 37.6245 57.0488 37.3824 57.1934 37.1878C57.338 36.9933 57.5493 36.8601 57.7861 36.8145Z" fill="white"/>
<path d="M62.2447 39H57.9696C57.6914 39.0004 57.4214 38.9051 57.2046 38.7299C56.9878 38.5547 56.8373 38.3102 56.778 38.0371C56.7187 37.764 56.7543 37.4787 56.8787 37.2287C57.0032 36.9787 57.2092 36.7791 57.4623 36.6631C57.4158 36.4715 57.4227 36.2709 57.4822 36.083C57.5417 35.8951 57.6515 35.7273 57.7995 35.5979C57.9475 35.4686 58.1281 35.3826 58.3215 35.3494C58.5149 35.3162 58.7137 35.3372 58.896 35.4099C59.0321 35.0231 59.2998 34.6971 59.6519 34.4894C60.004 34.2817 60.4178 34.2058 60.8202 34.2749C61.2227 34.344 61.5879 34.5538 61.8513 34.8672C62.1147 35.1806 62.2595 35.5775 62.26 35.9877C62.6572 35.9897 63.0373 36.1502 63.3167 36.4339C63.5962 36.7176 63.752 37.1011 63.75 37.5003C63.7479 37.8994 63.5882 38.2813 63.3059 38.5621C63.0236 38.8429 62.6419 38.9995 62.2447 38.9974V39ZM58.5024 35.8285C58.349 35.8285 58.2019 35.8897 58.0933 35.9986C57.9848 36.1076 57.9237 36.2553 57.9236 36.4095C57.9235 36.5099 57.9495 36.6086 57.999 36.6958C58.0181 36.73 58.0289 36.7682 58.0304 36.8074C58.0319 36.8466 58.0242 36.8855 58.0078 36.9211C57.9913 36.9567 57.9667 36.9878 57.936 37.0119C57.9052 37.036 57.8692 37.0525 57.8309 37.0598C57.6537 37.0946 57.4957 37.1943 57.3877 37.3397C57.2797 37.4851 57.2295 37.6657 57.2468 37.8463C57.2641 38.0269 57.3477 38.1945 57.4813 38.3166C57.615 38.4386 57.789 38.5062 57.9696 38.5063H62.2447C62.3854 38.5062 62.5245 38.4764 62.653 38.4188C62.7816 38.3613 62.8967 38.2773 62.9909 38.1723C63.0851 38.0672 63.1563 37.9435 63.1999 37.8091C63.2435 37.6746 63.2586 37.5325 63.2441 37.3919C63.2297 37.2512 63.186 37.1152 63.1159 36.9926C63.0458 36.87 62.9509 36.7635 62.8373 36.68C62.7238 36.5966 62.594 36.538 62.4565 36.5081C62.3189 36.4782 62.1767 36.4776 62.0389 36.5064C61.9993 36.515 61.9583 36.5136 61.9194 36.5023C61.8805 36.491 61.8449 36.4703 61.816 36.4418C61.787 36.4134 61.7655 36.3783 61.7533 36.3394C61.7412 36.3006 61.7387 36.2594 61.7463 36.2195C61.7775 36.0556 61.7756 35.8871 61.7407 35.724C61.7058 35.5609 61.6387 35.4065 61.5433 35.27C61.4479 35.1334 61.3261 35.0175 61.1853 34.9292C61.0445 34.8408 60.8874 34.7818 60.7234 34.7556C60.5595 34.7294 60.3919 34.7366 60.2308 34.7767C60.0696 34.8168 59.9181 34.889 59.7853 34.9891C59.6524 35.0891 59.541 35.215 59.4575 35.3592C59.374 35.5034 59.3201 35.663 59.2992 35.8285C59.2934 35.8732 59.2755 35.9155 59.2475 35.9508C59.2195 35.986 59.1825 36.0129 59.1403 36.0285C59.0982 36.0442 59.0526 36.0479 59.0086 36.0393C58.9645 36.0308 58.9236 36.0102 58.8903 35.98C58.7843 35.8826 58.646 35.8286 58.5024 35.8285Z" fill="#989AA6"/>
<path d="M11.3069 38.5252C11.1757 38.2839 11.1312 38.0014 11.1812 37.7288C11.2313 37.4561 11.3727 37.2111 11.58 37.0378C11.7873 36.8645 12.0468 36.7744 12.3119 36.7837C12.5771 36.7929 12.8303 36.9009 13.0262 37.0882C13.0904 36.5572 13.3457 36.0719 13.74 35.7311C14.1343 35.3904 14.6379 35.2199 15.1481 35.2544C15.6584 35.2889 16.1369 35.5258 16.486 35.9168C16.8351 36.3079 17.0286 36.8236 17.027 37.3588C17.0268 37.4885 17.0149 37.618 16.9913 37.7454C17.1058 37.7194 17.2226 37.7062 17.3397 37.706C17.7829 37.715 18.2052 37.9057 18.5156 38.237C18.8261 38.5683 19 39.0139 19 39.478C19 39.9421 18.8261 40.3877 18.5156 40.719C18.2052 41.0504 17.7829 41.241 17.3397 41.25H11.5578C11.2322 41.2483 10.9187 41.1202 10.6782 40.8904C10.4377 40.6606 10.2873 40.3455 10.2561 40.0063C10.2248 39.667 10.315 39.3277 10.5092 39.054C10.7033 38.7804 10.9876 38.592 11.3069 38.5252Z" fill="white"/>
<path d="M17.2656 41.5H11.3527C10.9809 41.502 10.6201 41.3712 10.3327 41.13C10.0452 40.8889 9.84936 40.5526 9.77889 40.1794C9.70842 39.8063 9.7678 39.4197 9.94675 39.0865C10.1257 38.7534 10.413 38.4946 10.7588 38.3551C10.6811 38.0915 10.68 37.8105 10.7556 37.5463C10.8313 37.2821 10.9804 37.046 11.1849 36.8668C11.3894 36.6877 11.6404 36.5731 11.9075 36.5371C12.1745 36.501 12.446 36.5451 12.689 36.6639C12.8511 36.1245 13.1972 35.6625 13.6644 35.362C14.1316 35.0614 14.6888 34.9423 15.2347 35.0262C15.7806 35.1101 16.2789 35.3915 16.639 35.8192C16.999 36.2469 17.1969 36.7925 17.1966 37.3567C17.1966 37.3873 17.1966 37.418 17.1966 37.4486C17.4597 37.4388 17.7221 37.4828 17.9684 37.5778C18.2147 37.6729 18.44 37.8171 18.6311 38.0022C18.8223 38.1873 18.9754 38.4094 19.0816 38.6556C19.1878 38.9019 19.245 39.1673 19.2497 39.4363C19.2544 39.7054 19.2066 39.9727 19.1091 40.2227C19.0116 40.4726 18.8663 40.7002 18.6818 40.8922C18.4973 41.0841 18.2772 41.2366 18.0343 41.3406C17.7915 41.4446 17.5308 41.4981 17.2676 41.498L17.2656 41.5ZM12.0899 37.0406C11.9344 37.0402 11.7815 37.0816 11.6466 37.1606C11.5116 37.2396 11.3994 37.3534 11.321 37.4907C11.2427 37.628 11.201 37.784 11.2002 37.9429C11.1993 38.1018 11.2394 38.2582 11.3163 38.3964C11.3358 38.4318 11.3467 38.4715 11.3483 38.5122C11.3499 38.5528 11.3419 38.5932 11.3252 38.6302C11.3085 38.6671 11.2834 38.6994 11.2521 38.7245C11.2208 38.7496 11.1841 38.7667 11.145 38.7744C10.8776 38.8268 10.639 38.9792 10.4757 39.2019C10.3125 39.4246 10.2364 39.7016 10.2624 39.9786C10.2884 40.2556 10.4145 40.5127 10.6162 40.6997C10.8178 40.8866 11.0805 40.99 11.3527 40.9895H17.2656C17.4722 40.9884 17.6764 40.9432 17.8648 40.8567C18.0533 40.7701 18.222 40.6442 18.36 40.487C18.498 40.3298 18.6023 40.1449 18.6661 39.944C18.7299 39.7432 18.7519 39.5309 18.7306 39.3208C18.7094 39.1107 18.6453 38.9075 18.5425 38.7243C18.4398 38.5411 18.3006 38.3819 18.134 38.2569C17.9675 38.132 17.7771 38.0441 17.5753 37.9989C17.3735 37.9536 17.1646 37.9521 16.9621 37.9944C16.9218 38.0032 16.8799 38.0017 16.8403 37.99C16.8006 37.9783 16.7644 37.9568 16.7348 37.9274C16.7052 37.8979 16.6832 37.8615 16.6707 37.8213C16.6583 37.7811 16.6557 37.7383 16.6633 37.6968C16.6847 37.5848 16.6958 37.4709 16.6965 37.3567C16.6971 36.8883 16.5232 36.4372 16.2101 36.0951C15.8969 35.753 15.4681 35.5456 15.0108 35.5151C14.5534 35.4846 14.1018 35.6332 13.7479 35.9308C13.3939 36.2284 13.1641 36.6526 13.1051 37.1171C13.0992 37.1635 13.081 37.2074 13.0525 37.2439C13.0239 37.2805 12.9862 37.3084 12.9432 37.3245C12.9003 37.3407 12.8538 37.3446 12.8089 37.3357C12.764 37.3268 12.7223 37.3056 12.6883 37.2742C12.5246 37.1222 12.3111 37.0384 12.0899 37.0392V37.0406Z" fill="#989AA6"/>
<path d="M11.5 54.2709L12.875 53.25L14.25 54.2709V65.5H11.5V54.2709Z" fill="white"/>
<path d="M14.1502 65.75H11.3505C11.2576 65.75 11.1686 65.7147 11.1029 65.6518C11.0372 65.5889 11.0002 65.5036 11 65.4146V54.3421C11.0001 54.29 11.0128 54.2387 11.0372 54.1921C11.0615 54.1456 11.0969 54.1052 11.1405 54.074L12.5403 53.0673C12.6008 53.0236 12.6746 53 12.7503 53C12.8261 53 12.8998 53.0236 12.9603 53.0673L14.3602 54.074C14.4037 54.1052 14.4389 54.1457 14.4632 54.1922C14.4875 54.2387 14.5001 54.29 14.5 54.3421V65.4146C14.5 65.5036 14.4631 65.5889 14.3975 65.6518C14.3319 65.7147 14.243 65.75 14.1502 65.75ZM11.7003 65.0786H13.8004V54.5101L12.7503 53.7554L11.7003 54.5101V65.0786Z" fill="#989AA6"/>
<path d="M14.25 54.2709L15.5 53.25L16.75 54.2709V65.5H14.25V54.2709Z" fill="white"/>
<path d="M16.9001 65.75H14.0999C14.0071 65.75 13.9181 65.7147 13.8525 65.6518C13.7869 65.5889 13.75 65.5036 13.75 65.4146V54.3421C13.7499 54.29 13.7625 54.2387 13.7868 54.1922C13.8111 54.1457 13.8463 54.1052 13.8898 54.074L15.2899 53.0673C15.3505 53.0236 15.4242 53 15.5 53C15.5758 53 15.6495 53.0236 15.7101 53.0673L17.1102 54.074C17.1537 54.1052 17.1889 54.1457 17.2132 54.1922C17.2375 54.2387 17.2501 54.29 17.25 54.3421V65.4146C17.25 65.4587 17.2409 65.5023 17.2234 65.543C17.2058 65.5837 17.18 65.6206 17.1475 65.6518C17.115 65.6829 17.0765 65.7076 17.034 65.7245C16.9916 65.7413 16.9461 65.75 16.9001 65.75ZM14.4497 65.0786H16.5503V54.5101L15.5 53.7554L14.4497 54.5101V65.0786Z" fill="#989AA6"/>
<path d="M55.5 54.2709L56.875 53.25L58.25 54.2709V65.5H55.5V54.2709Z" fill="white"/>
<path d="M58.1501 65.75H55.3499C55.2571 65.75 55.1681 65.7147 55.1025 65.6518C55.0369 65.5889 55 65.5036 55 65.4146V54.3421C54.9999 54.29 55.0125 54.2387 55.0368 54.1922C55.0611 54.1457 55.0963 54.1052 55.1398 54.074L56.5399 53.0673C56.6005 53.0236 56.6742 53 56.75 53C56.8258 53 56.8995 53.0236 56.9601 53.0673L58.3602 54.074C58.4037 54.1052 58.4389 54.1457 58.4632 54.1922C58.4875 54.2387 58.5001 54.29 58.5 54.3421V65.4146C58.5 65.5036 58.4631 65.5889 58.3975 65.6518C58.3319 65.7147 58.2429 65.75 58.1501 65.75ZM55.6997 65.0786H57.8003V54.5101L56.75 53.7554L55.6997 54.5101V65.0786Z" fill="#989AA6"/>
<path d="M58.25 54.2709L59.625 53.25L61 54.2709V65.5H58.25V54.2709Z" fill="white"/>
<path d="M60.8995 65.75H58.0998C58.007 65.75 57.9181 65.7147 57.8525 65.6518C57.7869 65.5889 57.75 65.5036 57.75 65.4146V54.3421C57.7499 54.29 57.7625 54.2387 57.7868 54.1922C57.8111 54.1457 57.8463 54.1052 57.8898 54.074L59.2897 53.0673C59.3502 53.0236 59.4239 53 59.4997 53C59.5754 53 59.6492 53.0236 59.7097 53.0673L61.1095 54.074C61.1531 54.1052 61.1885 54.1456 61.2128 54.1921C61.2372 54.2387 61.2499 54.29 61.25 54.3421V65.4146C61.2498 65.5036 61.2128 65.5889 61.1471 65.6518C61.0814 65.7147 60.9924 65.75 60.8995 65.75ZM58.4496 65.0786H60.5497V54.5101L59.4997 53.7554L58.4496 54.5101V65.0786Z" fill="#989AA6"/>
<path d="M16.75 48.0514L36.125 40L55.5 48.0514V65.5H16.75V48.0514Z" fill="#EDEDED"/>
<path d="M64.9255 65.75H7.32449C7.23715 65.7458 7.15465 65.7044 7.0942 65.6346C7.03374 65.5647 7 65.4717 7 65.375C7 65.2783 7.03374 65.1853 7.0942 65.1154C7.15465 65.0456 7.23715 65.0042 7.32449 65H64.9255C65.0129 65.0042 65.0953 65.0456 65.1558 65.1154C65.2163 65.1853 65.25 65.2783 65.25 65.375C65.25 65.4717 65.2163 65.5647 65.1558 65.6346C65.0953 65.7044 65.0129 65.7458 64.9255 65.75Z" fill="#989AA6"/>
<path d="M16.75 49.7651L36.125 41.75L55.5 49.7651V61.0423L16.75 63.75V49.7651Z" fill="white"/>
<path d="M55.4117 65.75H27.3117C27.2242 65.7462 27.1417 65.7089 27.0812 65.646C27.0207 65.5831 26.9869 65.4993 26.9869 65.4122C26.9869 65.3251 27.0207 65.2413 27.0812 65.1784C27.1417 65.1154 27.2242 65.0782 27.3117 65.0744H55.0728V48.3093L36.1253 40.4533L17.1779 48.3093V65.0744H25.2741C25.3616 65.0782 25.4441 65.1154 25.5046 65.1784C25.5651 65.2413 25.5989 65.3251 25.5989 65.4122C25.5989 65.4993 25.5651 65.5831 25.5046 65.646C25.4441 65.7089 25.3616 65.7462 25.2741 65.75H16.8389C16.749 65.75 16.6628 65.7144 16.5993 65.6511C16.5357 65.5879 16.5 65.502 16.5 65.4125V48.0841C16.4999 48.0174 16.5197 47.9521 16.5568 47.8967C16.594 47.8412 16.6468 47.7979 16.7087 47.7724L35.9957 39.7764C36.0367 39.759 36.0808 39.75 36.1253 39.75C36.1699 39.75 36.214 39.759 36.2549 39.7764L55.5413 47.7724C55.6032 47.7979 55.656 47.8412 55.6932 47.8967C55.7303 47.9521 55.7501 48.0174 55.75 48.0841V65.4125C55.75 65.5019 55.7144 65.5876 55.651 65.6509C55.5875 65.7142 55.5015 65.7498 55.4117 65.75Z" fill="#282C3F"/>
<path d="M58.1602 49.5C58.1156 49.5003 58.0715 49.4916 58.0306 49.4743L36.1199 40.4487L14.2093 49.4743C14.1268 49.5053 14.0355 49.5033 13.9546 49.4687C13.8736 49.4341 13.8095 49.3697 13.7758 49.2892C13.7421 49.2086 13.7414 49.1182 13.7739 49.0371C13.8065 48.9561 13.8696 48.8908 13.95 48.855L35.9903 39.7762C36.0313 39.7589 36.0754 39.75 36.1199 39.75C36.1645 39.75 36.2085 39.7589 36.2495 39.7762L58.2911 48.855C58.3634 48.8848 58.4231 48.9384 58.46 49.0068C58.497 49.0751 58.5088 49.154 58.4935 49.2301C58.4782 49.3061 58.4368 49.3745 58.3763 49.4237C58.3157 49.473 58.2398 49.4999 58.1615 49.5H58.1602Z" fill="#282C3F"/>
<path d="M40.25 50.5H32V65.5H40.25V50.5Z" fill="#A09CAD"/>
<path d="M40.25 50.5H32V62.75L40.25 62.1733V50.5Z" fill="#B8B5C6"/>
<path d="M40.1648 65.75H32.0864C31.9972 65.75 31.9116 65.7145 31.8485 65.6514C31.7854 65.5882 31.75 65.5025 31.75 65.4132V50.5868C31.75 50.4975 31.7854 50.4118 31.8485 50.3486C31.9116 50.2855 31.9972 50.25 32.0864 50.25H40.1648C40.2539 50.2503 40.3391 50.286 40.4019 50.3491C40.4647 50.4122 40.5 50.4977 40.5 50.5868V65.4132C40.5 65.5023 40.4647 65.5878 40.4019 65.6509C40.3391 65.714 40.2539 65.7497 40.1648 65.75ZM32.4229 65.0758H39.8284V50.9242H32.4229V65.0758Z" fill="#282C3F"/>
<path d="M52 50.5H44V59.25H52V50.5Z" fill="#2CAAE6"/>
<path d="M28.25 50.5H20.25V59.25H28.25V50.5Z" fill="#2CAAE6"/>
<path d="M22.75 59.1385L23.9711 59.75L28.75 50.8622L27.5289 50.25L22.75 59.1385Z" fill="#2FC8F2"/>
<path d="M24.6546 50.5L20 59.2007L20.5948 59.5L25.25 50.7999L24.6546 50.5Z" fill="#2FC8F2"/>
<path d="M51.0797 50.25L46.5 59.1385L47.6703 59.75L52.25 50.8622L51.0797 50.25Z" fill="#2FC8F2"/>
<path d="M48.4052 50.5L43.75 59.2007L44.3448 59.5L49 50.7999L48.4052 50.5Z" fill="#2FC8F2"/>
<path d="M52.1636 59.75H44.0864C43.9972 59.75 43.9116 59.7143 43.8485 59.6507C43.7854 59.5871 43.75 59.5008 43.75 59.4109V50.5891C43.75 50.4992 43.7854 50.4129 43.8485 50.3493C43.9116 50.2857 43.9972 50.25 44.0864 50.25H52.1636C52.2528 50.25 52.3384 50.2857 52.4015 50.3493C52.4646 50.4129 52.5 50.4992 52.5 50.5891V59.4141C52.4992 59.5035 52.4633 59.5889 52.4003 59.6518C52.3374 59.7147 52.2523 59.75 52.1636 59.75ZM44.4228 59.0718H51.8272V50.9289H44.4228V59.0718Z" fill="#34234D"/>
<path d="M28.4136 59.75H20.3364C20.2922 59.75 20.2485 59.7412 20.2077 59.7242C20.1668 59.7071 20.1298 59.6822 20.0985 59.6507C20.0673 59.6192 20.0425 59.5818 20.0256 59.5407C20.0087 59.4995 20 59.4554 20 59.4109V50.5891C20 50.5446 20.0087 50.5005 20.0256 50.4593C20.0425 50.4182 20.0673 50.3808 20.0985 50.3493C20.1298 50.3178 20.1668 50.2929 20.2077 50.2758C20.2485 50.2588 20.2922 50.25 20.3364 50.25H28.4136C28.5028 50.25 28.5884 50.2857 28.6515 50.3493C28.7146 50.4129 28.75 50.4992 28.75 50.5891V59.4141C28.7492 59.5035 28.7133 59.5889 28.6503 59.6518C28.5873 59.7147 28.5023 59.75 28.4136 59.75ZM20.6728 59.0718H28.0772V50.9289H20.6728V59.0718Z" fill="#282C3F"/>
<path d="M40.9219 51H31.3281C31.2398 50.9958 31.1564 50.9544 31.0953 50.8846C31.0341 50.8147 31 50.7217 31 50.625C31 50.5283 31.0341 50.4353 31.0953 50.3654C31.1564 50.2956 31.2398 50.2542 31.3281 50.25H40.9219C41.0102 50.2542 41.0936 50.2956 41.1547 50.3654C41.2159 50.4353 41.25 50.5283 41.25 50.625C41.25 50.7217 41.2159 50.8147 41.1547 50.8846C41.0936 50.9544 41.0102 50.9958 40.9219 51Z" fill="#282C3F"/>
<path d="M29.1585 59.75H19.5915C19.5009 59.75 19.4141 59.7105 19.35 59.6402C19.286 59.5698 19.25 59.4745 19.25 59.375C19.25 59.2755 19.286 59.1802 19.35 59.1098C19.4141 59.0395 19.5009 59 19.5915 59H29.1585C29.2491 59 29.3359 59.0395 29.4 59.1098C29.464 59.1802 29.5 59.2755 29.5 59.375C29.5 59.4745 29.464 59.5698 29.4 59.6402C29.3359 59.7105 29.2491 59.75 29.1585 59.75Z" fill="#34234D"/>
<path d="M52.6668 59.75H43.3332C43.2448 59.75 43.1601 59.7105 43.0976 59.6402C43.0351 59.5698 43 59.4745 43 59.375C43 59.2755 43.0351 59.1802 43.0976 59.1098C43.1601 59.0395 43.2448 59 43.3332 59H52.6668C52.7552 59 52.8399 59.0395 52.9024 59.1098C52.9649 59.1802 53 59.2755 53 59.375C53 59.4745 52.9649 59.5698 52.9024 59.6402C52.8399 59.7105 52.7552 59.75 52.6668 59.75Z" fill="#34234D"/>
<path d="M38.5 60C38.9142 60 39.25 59.7202 39.25 59.375C39.25 59.0298 38.9142 58.75 38.5 58.75C38.0858 58.75 37.75 59.0298 37.75 59.375C37.75 59.7202 38.0858 60 38.5 60Z" fill="white"/>
<path d="M44 36.25H40V41.5504L44 43.25V36.25Z" fill="#A09CAD"/>
<path d="M44 36.25H40V40.2221L44 41.25V36.25Z" fill="#B8B5C6"/>
<path d="M43.9108 43.4975C43.8662 43.4973 43.8221 43.4884 43.7811 43.4714L39.7088 41.812C39.647 41.7868 39.5941 41.7442 39.557 41.6896C39.5198 41.635 39.5 41.5709 39.5 41.5053V36.3327C39.5 36.2445 39.5357 36.16 39.5993 36.0977C39.6629 36.0353 39.7492 36.0002 39.8392 36H43.9115C43.9989 36.0037 44.0816 36.0404 44.1421 36.1023C44.2027 36.1642 44.2365 36.2466 44.2365 36.3323C44.2365 36.4181 44.2027 36.5005 44.1421 36.5624C44.0816 36.6243 43.9989 36.6609 43.9115 36.6647H40.1777V41.2863L43.5716 42.6722V38.3254C43.5716 38.2374 43.6074 38.1529 43.671 38.0906C43.7346 38.0284 43.8208 37.9934 43.9108 37.9934C44.0008 37.9934 44.087 38.0284 44.1507 38.0906C44.2143 38.1529 44.25 38.2374 44.25 38.3254V43.1673C44.25 43.2555 44.2143 43.34 44.1507 43.4023C44.0871 43.4647 44.0008 43.4998 43.9108 43.5V43.4975Z" fill="#282C3F"/>
<path d="M37.1558 44.5216C37.5368 44.5212 37.9122 44.613 38.25 44.7891C38.0779 44.456 37.8297 44.1683 37.5254 43.9492C37.2212 43.7301 36.8695 43.5859 36.4991 43.5283C36.1286 43.4707 35.7498 43.5013 35.3934 43.6177C35.037 43.734 34.7131 43.9328 34.4479 44.1979C34.1828 44.4631 33.984 44.787 33.8677 45.1434C33.7513 45.4998 33.7207 45.8786 33.7783 46.2491C33.8359 46.6195 33.9801 46.9712 34.1992 47.2754C34.4183 47.5797 34.706 47.8279 35.0391 48C34.8507 47.6368 34.759 47.2311 34.7729 46.8222C34.7869 46.4132 34.9059 46.0147 35.1187 45.6652C35.3314 45.3156 35.6306 45.0267 35.9874 44.8264C36.3442 44.6261 36.7466 44.5211 37.1558 44.5216Z" fill="#2FC8F2"/>
<path d="M38.5 45.8636C38.5001 45.482 38.4081 45.1061 38.2316 44.7678C37.7821 44.5346 37.27 44.4506 36.7695 44.528C36.2691 44.6054 35.8063 44.8401 35.4482 45.1982C35.0901 45.5562 34.8554 46.019 34.778 46.5195C34.7006 47.0199 34.7846 47.532 35.0179 47.9814C35.3814 48.1704 35.7874 48.2624 36.1969 48.2487C36.6063 48.2349 37.0053 48.1159 37.3553 47.903C37.7053 47.6901 37.9945 47.3906 38.195 47.0334C38.3956 46.6761 38.5006 46.2732 38.5 45.8636Z" fill="#2CAAE6"/>
<path d="M36.25 48.5C35.7061 48.5 35.1744 48.3387 34.7222 48.0365C34.2699 47.7344 33.9175 47.3049 33.7093 46.8024C33.5012 46.2999 33.4467 45.747 33.5528 45.2135C33.659 44.6801 33.9209 44.1901 34.3055 43.8055C34.6901 43.4209 35.1801 43.159 35.7135 43.0528C36.2469 42.9467 36.7999 43.0012 37.3024 43.2093C37.8049 43.4175 38.2344 43.77 38.5365 44.2222C38.8387 44.6744 39 45.2061 39 45.75C38.9991 46.4791 38.7091 47.178 38.1936 47.6936C37.678 48.2091 36.9791 48.4991 36.25 48.5ZM36.25 43.6872C35.842 43.6872 35.4432 43.8082 35.104 44.0348C34.7647 44.2615 34.5003 44.5837 34.3442 44.9606C34.1881 45.3375 34.1472 45.7523 34.2268 46.1524C34.3064 46.5526 34.5029 46.9201 34.7914 47.2086C35.0799 47.4971 35.4474 47.6936 35.8476 47.7732C36.2477 47.8528 36.6625 47.8119 37.0394 47.6558C37.4163 47.4997 37.7385 47.2353 37.9652 46.896C38.1918 46.5568 38.3128 46.158 38.3128 45.75C38.3121 45.2031 38.0946 44.6788 37.7079 44.2921C37.3212 43.9054 36.7969 43.6879 36.25 43.6872Z" fill="#282C3F"/>
<path d="M40.6329 27.5206C40.7695 27.2789 40.8155 26.9966 40.7628 26.7241C40.7101 26.4517 40.562 26.2069 40.3452 26.0337C40.1283 25.8604 39.8568 25.7701 39.5794 25.7788C39.3019 25.7875 39.0367 25.8947 38.8311 26.0812C38.7614 25.5512 38.4927 25.0676 38.0796 24.7284C37.6664 24.3892 37.1397 24.2197 36.6062 24.2544C36.0727 24.2892 35.5723 24.5254 35.2066 24.9153C34.8409 25.3052 34.6372 25.8195 34.6367 26.354C34.6372 26.4833 34.6496 26.6123 34.674 26.7392C34.5541 26.7135 34.4319 26.7003 34.3092 26.7001C34.0733 26.6956 33.8388 26.7382 33.6195 26.8254C33.4002 26.9125 33.2005 27.0426 33.032 27.2078C32.8636 27.3731 32.7297 27.5702 32.6384 27.7878C32.5471 28.0053 32.5 28.2389 32.5 28.4749C32.5 28.7108 32.5471 28.9444 32.6384 29.162C32.7297 29.3795 32.8636 29.5767 33.032 29.742C33.2005 29.9072 33.4002 30.0372 33.6195 30.1244C33.8388 30.2116 34.0733 30.2542 34.3092 30.2497H40.3716C40.7145 30.2496 41.045 30.1218 41.2987 29.8912C41.5524 29.6606 41.7111 29.3438 41.7437 29.0026C41.7764 28.6613 41.6807 28.3201 41.4753 28.0457C41.2699 27.7712 40.9696 27.583 40.6329 27.518V27.5206Z" fill="white"/>
<path d="M40.3356 30.4999H34.3232C34.0505 30.5023 33.7801 30.4487 33.5276 30.3423C33.2752 30.2359 33.0458 30.0788 32.8529 29.8801C32.6599 29.6814 32.5073 29.4451 32.4038 29.1849C32.3003 28.9248 32.248 28.646 32.2501 28.3649C32.2521 28.0837 32.3084 27.8058 32.4156 27.5473C32.5228 27.2887 32.6789 27.0548 32.8747 26.8591C33.0705 26.6634 33.3021 26.5098 33.556 26.4072C33.8099 26.3047 34.0811 26.2553 34.3538 26.2618C34.3538 26.2441 34.3538 26.227 34.3538 26.2093C34.3534 25.6245 34.5552 25.0588 34.9231 24.6136C35.291 24.1685 35.8008 23.8733 36.3608 23.7809C36.9209 23.6885 37.4946 23.805 37.9788 24.1096C38.4631 24.4141 38.8261 24.8867 39.0027 25.4425C39.254 25.3278 39.5318 25.2891 39.8037 25.3308C40.0756 25.3725 40.3304 25.493 40.5385 25.6781C40.7466 25.8632 40.8995 26.1054 40.9793 26.3766C41.0592 26.6478 41.0627 26.9367 40.9896 27.2099C41.3421 27.3648 41.6318 27.6405 41.8098 27.9903C41.9878 28.3402 42.0431 28.7427 41.9663 29.1297C41.8895 29.5167 41.6854 29.8645 41.3884 30.1142C41.0915 30.3639 40.72 30.5002 40.3368 30.4999H40.3356ZM34.3232 26.8698C33.9347 26.8698 33.5622 27.0289 33.2875 27.3121C33.0128 27.5953 32.8585 27.9794 32.8585 28.3799C32.8585 28.7804 33.0128 29.1645 33.2875 29.4477C33.5622 29.7309 33.9347 29.89 34.3232 29.89H40.3356C40.6021 29.8897 40.859 29.7871 41.0561 29.6022C41.2533 29.4174 41.3766 29.1634 41.402 28.8899C41.4275 28.6164 41.3532 28.3429 41.1937 28.1227C41.0342 27.9026 40.801 27.7515 40.5393 27.699C40.4933 27.69 40.4501 27.6698 40.4132 27.64C40.3762 27.6103 40.3467 27.5719 40.327 27.5281C40.3074 27.4843 40.2981 27.4362 40.3 27.388C40.302 27.3397 40.315 27.2926 40.3381 27.2506C40.439 27.0664 40.473 26.8512 40.434 26.6435C40.395 26.4358 40.2855 26.2492 40.1252 26.1171C39.9648 25.9851 39.7641 25.9162 39.559 25.9229C39.3539 25.9296 39.1578 26.0113 39.0058 26.1535C38.966 26.191 38.917 26.2165 38.8641 26.2272C38.8112 26.2379 38.7565 26.2335 38.7059 26.2143C38.6553 26.1951 38.6107 26.162 38.5772 26.1185C38.5436 26.075 38.5223 26.0228 38.5155 25.9677C38.4562 25.5022 38.2273 25.0773 37.8754 24.7793C37.5235 24.4814 37.0748 24.3325 36.6203 24.363C36.1659 24.3935 35.7397 24.601 35.4282 24.9435C35.1167 25.286 34.9432 25.7378 34.9428 26.2073C34.943 26.3217 34.9537 26.4358 34.9747 26.5481C34.9836 26.5973 34.9807 26.6479 34.9662 26.6956C34.9516 26.7434 34.9259 26.7866 34.8913 26.8217C34.8567 26.8567 34.8142 26.8824 34.7677 26.8966C34.7211 26.9107 34.6719 26.9128 34.6244 26.9026C34.5254 26.8808 34.4245 26.8698 34.3232 26.8698Z" fill="#989AA6"/>
</g>
<defs>
<clipPath id="clip0_1943_2349">
<rect width="60" height="60" fill="white" transform="translate(11 7)"/>
</clipPath>
</defs>
</svg>
