<svg width="203" height="205" viewBox="0 0 203 205" fill="none" xmlns="http://www.w3.org/2000/svg">
<circle cx="0.85847" cy="0.85847" r="0.85847" transform="matrix(-0.930126 -0.367241 -0.367241 0.930126 48.8552 9.91748)" fill="#30354C"/>
<circle cx="0.85847" cy="0.85847" r="0.85847" transform="matrix(-0.930126 -0.367241 -0.367241 0.930126 147.059 39.0874)" fill="#30354C"/>
<circle cx="59.7187" cy="15.1303" r="2.07541" transform="rotate(21.5456 59.7187 15.1303)" stroke="#40FF62"/>
<circle cx="57.6709" cy="2.78438" r="2.14618" transform="rotate(21.5456 57.6709 2.78438)" fill="#2CAAE6"/>
<circle cx="152.767" cy="27.5056" r="2.14618" transform="rotate(21.5456 152.767 27.5056)" fill="#2CAAE6"/>
<path fill-rule="evenodd" clip-rule="evenodd" d="M41.8859 25.236C45.354 26.6549 46.9666 30.81 45.4981 34.5698C46.993 30.824 51.0039 28.8914 54.5038 30.218C51.0417 28.7958 49.433 24.6444 50.9003 20.8877C49.4042 24.6366 45.3878 26.5692 41.8859 25.236Z" fill="#FD6036"/>
<path fill-rule="evenodd" clip-rule="evenodd" d="M157.839 46.1652C161.308 47.5841 162.92 51.7397 161.451 55.4996C162.947 51.7504 166.964 49.8175 170.466 51.1508C166.998 49.732 165.385 45.5767 166.854 41.8169C165.358 45.5658 161.341 47.4984 157.839 46.1652Z" fill="#3E20F5"/>
<path fill-rule="evenodd" clip-rule="evenodd" d="M138.108 14.9051C139.681 15.5325 140.418 17.4037 139.764 19.1007C140.443 17.4231 142.245 16.5603 143.817 17.1591C142.256 16.5213 141.53 14.6536 142.188 12.9621C141.509 14.6548 139.688 15.5226 138.108 14.9051Z" fill="#CCFF00"/>
<path d="M159.295 124.406C159.295 167.536 124.332 202.5 81.202 202.5C38.0722 202.5 3.10864 167.536 3.10864 124.406C3.10864 81.2766 38.0722 46.313 81.202 46.313C124.332 46.313 159.295 81.2766 159.295 124.406Z" stroke="#30354C" stroke-width="5"/>
<mask id="mask0_284_415" style="mask-type:alpha" maskUnits="userSpaceOnUse" x="0" y="4" width="203" height="201">
<path d="M81.202 205C125.713 205 202.092 166.211 202.092 121.7C202.092 77.1898 133.231 4.11816 88.7201 4.11816C44.2096 4.11816 0.608643 79.8963 0.608643 124.407C0.608643 168.917 36.6915 205 81.202 205Z" fill="#30354C"/>
</mask>
<g mask="url(#mask0_284_415)">
<path d="M27.1201 211.621L61.0675 202.525C64.6159 201.574 66.7217 197.927 65.7709 194.378L43.9321 112.875C42.9813 109.327 39.334 107.221 35.7857 108.172L1.83828 117.268C-1.71011 118.219 -3.81582 121.866 -2.86503 125.414L18.9737 206.918C19.9245 210.466 23.5718 212.572 27.1201 211.621Z" fill="#30354C"/>
<path d="M174.482 70.9443C173.606 67.6742 171.466 64.8862 168.534 63.1935C165.603 61.5008 162.118 61.0421 158.848 61.9183L104.392 76.5099C104.647 70.0907 103.809 62.6652 101.752 54.987C96.2483 34.4488 84.0933 19.8597 74.6025 22.4027C71.5333 23.2251 69.1172 25.7549 67.441 29.4845C66.8163 30.8635 66.6868 32.4158 67.0742 33.8793L72.2924 53.3536C72.9568 55.8341 72.7925 58.4637 71.8244 60.8421L60.6721 88.2172L49.5415 115.565L50.0587 117.495L69.8844 191.485L169.605 164.765C172.876 163.889 175.664 161.749 177.357 158.817C179.05 155.885 179.509 152.4 178.633 149.129C177.756 145.859 175.617 143.071 172.684 141.378C169.752 139.685 166.267 139.226 162.997 140.102L168.586 138.605C171.857 137.728 174.645 135.589 176.338 132.656C178.031 129.724 178.49 126.239 177.614 122.969C176.737 119.698 174.598 116.91 171.665 115.217C168.733 113.524 165.248 113.065 161.978 113.942L167.013 112.592C168.633 112.158 170.151 111.41 171.481 110.389C172.811 109.368 173.927 108.095 174.765 106.643C175.604 105.191 176.148 103.588 176.366 101.926C176.585 100.264 176.474 98.5745 176.04 96.955C175.166 93.6917 173.033 90.9082 170.11 89.2143C167.187 87.5205 163.712 87.0545 160.446 87.9185L165.455 86.5761C168.724 85.6988 171.511 83.5595 173.204 80.6284C174.896 77.6973 175.356 74.2141 174.482 70.9443Z" fill="#40FF62"/>
</g>
<path fill-rule="evenodd" clip-rule="evenodd" d="M172.388 26.5739L169.665 29.3971L165.922 28.7452L165.834 28.7014L165.834 28.7015L165.93 28.7491L168.772 31.4812L168.125 35.2269L170.848 32.4037L174.591 33.0556L174.647 33.0837L174.647 33.0836L174.583 33.0516L171.741 30.3196L172.388 26.5739Z" fill="#8800BD"/>
</svg>
