<svg width="71" height="71" viewBox="0 0 71 71" fill="none" xmlns="http://www.w3.org/2000/svg">
<g clip-path="url(#clip0_1943_2349)">
<path d="M66.8613 32.0077C65.7878 27.62 59.1374 26.2324 56.2136 23.1893C53.1966 20.05 52.0394 13.4074 47.8538 12.1837C43.7956 10.998 39.2631 15.9003 34.8594 16.9702C30.4556 18.04 24.1667 15.7674 21.1123 18.6794C17.9615 21.6852 20.0014 28.1119 18.7738 32.2831C17.5829 36.3239 12.32 40.6052 13.3935 44.9923C14.467 49.3793 21.1174 50.7683 24.0412 53.8107C27.0575 56.9506 28.2147 63.5926 32.4004 64.8163C36.4585 66.002 40.9917 61.0997 45.3948 60.0305C49.7979 58.9612 56.0881 61.2333 59.1425 58.3212C62.2933 55.3161 59.4786 49.4186 60.9947 44.6473C62.4715 40.0013 67.9348 36.3948 66.8613 32.0077Z" fill="#F6F6F6"/>
<path d="M41.4215 15.8169C41.5841 15.5353 41.6389 15.2062 41.5762 14.8886C41.5135 14.571 41.3374 14.2856 41.0793 14.0837C40.8213 13.8818 40.4982 13.7765 40.1681 13.7868C39.838 13.797 39.5224 13.9221 39.278 14.1396C39.2351 13.814 39.126 13.5002 38.9571 13.2167C38.7881 12.9332 38.5629 12.6858 38.2946 12.4892C38.0263 12.2925 37.7204 12.1505 37.3951 12.0717C37.0698 11.9929 36.7316 11.9789 36.4007 12.0304C36.0697 12.0819 35.7527 12.198 35.4683 12.3717C35.184 12.5454 34.9381 12.7732 34.7453 13.0417C34.5524 13.3101 34.4166 13.6138 34.3457 13.9346C34.2748 14.2554 34.2704 14.5869 34.3327 14.9094C34.19 14.8792 34.0444 14.8637 33.8984 14.8633C33.618 14.8586 33.3395 14.9086 33.0791 15.0103C32.8187 15.1121 32.5815 15.2637 32.3815 15.4562C32.1815 15.6488 32.0227 15.8784 31.9143 16.1317C31.8058 16.385 31.75 16.6569 31.75 16.9315C31.75 17.2062 31.8058 17.4781 31.9143 17.7314C32.0227 17.9847 32.1815 18.2143 32.3815 18.4068C32.5815 18.5993 32.8187 18.7509 33.0791 18.8527C33.3395 18.9545 33.618 19.0045 33.8984 18.9997H41.1074C41.5156 19.0005 41.9095 18.8521 42.2119 18.5834C42.5143 18.3148 42.7035 17.9453 42.7425 17.5473C42.7815 17.1492 42.6674 16.7512 42.4226 16.4312C42.1778 16.1112 41.8199 15.8921 41.419 15.8169H41.4215Z" fill="white"/>
<path d="M41.0402 19.5H33.9157C33.275 19.5 32.6606 19.2362 32.2075 18.7666C31.7545 18.2971 31.5 17.6602 31.5 16.9961C31.5 16.3321 31.7545 15.6952 32.2075 15.2257C32.6606 14.7561 33.275 14.4923 33.9157 14.4923H33.9735C33.9735 14.4643 33.9735 14.4363 33.9735 14.4083C33.9732 13.7147 34.2122 13.0438 34.6474 12.5168C35.0825 11.9898 35.6851 11.6415 36.3464 11.5347C37.0076 11.4279 37.6839 11.5697 38.2531 11.9344C38.8223 12.2992 39.2469 12.8629 39.4503 13.5237C39.6716 13.4183 39.9124 13.3639 40.156 13.3642C40.6073 13.3652 41.0398 13.5517 41.3587 13.8827C41.6776 14.2137 41.8568 14.6622 41.8571 15.13C41.8583 15.2936 41.8372 15.4565 41.7943 15.614C42.2122 15.7925 42.5572 16.1161 42.7702 16.5293C42.9831 16.9425 43.0509 17.4197 42.9617 17.879C42.8726 18.3383 42.6322 18.7511 42.2816 19.0469C41.931 19.3426 41.4922 19.5028 41.0402 19.5ZM33.9157 15.1736C33.449 15.1736 33.0014 15.3658 32.6715 15.7078C32.3415 16.0498 32.1561 16.5137 32.1561 16.9974C32.1561 17.4811 32.3415 17.945 32.6715 18.2871C33.0014 18.6291 33.449 18.8212 33.9157 18.8212H41.0402C41.3652 18.828 41.6808 18.7074 41.9238 18.4835C42.1669 18.2597 42.3195 17.949 42.3512 17.6136C42.383 17.2783 42.2915 16.9428 42.0951 16.6743C41.8986 16.4057 41.6117 16.2239 41.2916 16.165C41.2403 16.1549 41.1921 16.1322 41.151 16.0989C41.1098 16.0656 41.077 16.0226 41.0551 15.9735C41.0332 15.9244 41.023 15.8706 41.0252 15.8166C41.0274 15.7625 41.042 15.7098 41.0678 15.6628C41.1902 15.4388 41.2316 15.1768 41.1845 14.924C41.1373 14.6712 41.0048 14.4441 40.8107 14.2834C40.6165 14.1228 40.3735 14.0391 40.1252 14.0474C39.8769 14.0557 39.6396 14.1555 39.4559 14.3288C39.4116 14.3723 39.3565 14.4021 39.2967 14.4149C39.237 14.4278 39.1749 14.4231 39.1176 14.4015C39.0603 14.3798 39.0099 14.3421 38.972 14.2924C38.9342 14.2428 38.9105 14.1832 38.9035 14.1204C38.8668 13.8251 38.7732 13.5404 38.6284 13.2832C38.4836 13.0261 38.2905 12.8017 38.0604 12.6233C37.8304 12.4449 37.5682 12.3162 37.2893 12.2448C37.0104 12.1734 36.7205 12.1607 36.4368 12.2075C36.1531 12.2544 35.8814 12.3597 35.6377 12.5174C35.394 12.6751 35.1833 12.8819 35.0181 13.1255C34.8529 13.3691 34.7366 13.6446 34.676 13.9356C34.6154 14.2267 34.6118 14.5274 34.6654 14.82C34.6752 14.8751 34.6717 14.9318 34.6552 14.9852C34.6388 15.0386 34.6099 15.0869 34.5711 15.126C34.5323 15.165 34.4849 15.1935 34.4329 15.209C34.381 15.2245 34.3261 15.2264 34.2733 15.2147C34.1558 15.1882 34.0359 15.1744 33.9157 15.1736Z" fill="#989AA6"/>
<path d="M54.3744 21.6633C54.2349 21.4121 54.1869 21.1176 54.2391 20.8331C54.2914 20.5485 54.4404 20.2927 54.6593 20.112C54.8781 19.9313 55.1522 19.8377 55.432 19.848C55.7118 19.8583 55.9788 19.972 56.1846 20.1684C56.2194 19.8771 56.3104 19.596 56.4524 19.342C56.5944 19.0879 56.7844 18.866 57.011 18.6895C57.2377 18.513 57.4964 18.3855 57.7717 18.3146C58.047 18.2438 58.3333 18.231 58.6135 18.2771C58.8936 18.3232 59.162 18.4271 59.4025 18.5828C59.643 18.7384 59.8507 18.9426 60.0133 19.1831C60.1759 19.4236 60.29 19.6955 60.3489 19.9826C60.4077 20.2697 60.41 20.5661 60.3558 20.8541C60.5998 20.8015 60.8519 20.8025 61.0956 20.857C61.3393 20.9116 61.5692 21.0184 61.7704 21.1707C61.9717 21.3229 62.1398 21.5172 62.2639 21.741C62.3879 21.9647 62.4652 22.2129 62.4907 22.4694C62.5162 22.726 62.4893 22.9853 62.4118 23.2304C62.3343 23.4755 62.2078 23.7011 62.0407 23.8925C61.8736 24.0839 61.6695 24.2369 61.4416 24.3416C61.2137 24.4462 60.9671 24.5002 60.7178 24.5H54.6366C54.292 24.501 53.9594 24.3689 53.7041 24.1295C53.4488 23.8901 53.2891 23.5607 53.2563 23.2059C53.2235 22.851 53.3199 22.4963 53.5268 22.2112C53.7336 21.9261 54.0359 21.7311 54.3744 21.6645V21.6633Z" fill="white"/>
<path d="M60.7881 24.7497H54.515C54.1106 24.75 53.7183 24.6141 53.404 24.3649C53.0896 24.1157 52.8723 23.7683 52.7884 23.3809C52.7045 22.9935 52.7591 22.5896 52.9431 22.2369C53.127 21.8842 53.4292 21.6041 53.799 21.4436C53.7273 21.171 53.7346 20.8843 53.8202 20.6156C53.9058 20.3469 54.0662 20.1069 54.2834 19.9226C54.5006 19.7382 54.766 19.6169 55.0498 19.5721C55.3335 19.5273 55.6244 19.561 55.8898 19.6692C56.0822 19.1164 56.4689 18.6485 56.9808 18.3489C57.4928 18.0493 58.0968 17.9375 58.6851 18.0335C59.2734 18.1294 59.8077 18.4269 60.1929 18.8728C60.5781 19.3187 60.789 19.8841 60.7881 20.4681V20.4915C61.0767 20.4866 61.3635 20.5381 61.6316 20.6429C61.8998 20.7477 62.1439 20.9037 62.3498 21.1019C62.5557 21.3001 62.7192 21.5365 62.8309 21.7972C62.9425 22.058 63 22.3378 63 22.6206C63 22.9033 62.9425 23.1832 62.8309 23.4439C62.7192 23.7047 62.5557 23.941 62.3498 24.1392C62.1439 24.3374 61.8998 24.4934 61.6316 24.5983C61.3635 24.7031 61.0767 24.7545 60.7881 24.7497ZM55.2961 20.2134C55.0647 20.2135 54.8428 20.3036 54.6791 20.4638C54.5154 20.624 54.4233 20.8412 54.4229 21.0678C54.4227 21.2151 54.4617 21.3598 54.5362 21.4878C54.5627 21.5334 54.5776 21.5846 54.5798 21.637C54.5821 21.6894 54.5715 21.7416 54.549 21.7892C54.5266 21.8369 54.4928 21.8786 54.4506 21.9109C54.4084 21.9433 54.359 21.9653 54.3064 21.9752C54.0404 22.0257 53.8033 22.1715 53.6412 22.384C53.479 22.5965 53.4035 22.8605 53.4294 23.1245C53.4553 23.3886 53.5807 23.6337 53.7812 23.8121C53.9817 23.9905 54.2428 24.0894 54.5137 24.0895H60.7881C61.186 24.0895 61.5676 23.9347 61.849 23.6592C62.1303 23.3836 62.2884 23.0099 62.2884 22.6203C62.2884 22.2306 62.1303 21.8569 61.849 21.5814C61.5676 21.3058 61.186 21.151 60.7881 21.151C60.6846 21.1513 60.5814 21.1623 60.4803 21.1838C60.426 21.195 60.3698 21.193 60.3165 21.1778C60.2633 21.1626 60.2147 21.1348 60.175 21.0968C60.1354 21.0588 60.106 21.0118 60.0894 20.96C60.0727 20.9082 60.0694 20.8532 60.0798 20.7998C60.1244 20.5631 60.1203 20.3201 60.0676 20.085C60.0149 19.85 59.9147 19.6276 59.7729 19.431C59.6311 19.2345 59.4505 19.0677 59.2419 18.9404C59.0333 18.8132 58.8007 18.7282 58.558 18.6903C58.3153 18.6525 58.0673 18.6625 57.8287 18.72C57.59 18.7774 57.3655 18.881 57.1683 19.0247C56.9711 19.1684 56.8053 19.3492 56.6806 19.5566C56.5559 19.764 56.4749 19.9938 56.4422 20.2323C56.4343 20.292 56.4098 20.3485 56.3715 20.3956C56.3331 20.4426 56.2823 20.4785 56.2245 20.4993C56.1668 20.5201 56.1044 20.525 56.044 20.5135C55.9836 20.502 55.9276 20.4745 55.882 20.4341C55.7218 20.2921 55.5134 20.2135 55.2974 20.2134H55.2961Z" fill="#989AA6"/>
<path d="M12.9948 28.1773C12.8428 27.9055 12.7914 27.5878 12.85 27.2812C12.9086 26.9746 13.0733 26.6991 13.3146 26.5042C13.5558 26.3093 13.8578 26.2078 14.1664 26.2177C14.475 26.2277 14.77 26.3485 14.9985 26.5586C15.0393 26.245 15.1418 25.943 15.3 25.6702C15.4581 25.3974 15.6687 25.1594 15.9193 24.9702C16.1698 24.7811 16.4553 24.6446 16.7589 24.5689C17.0624 24.4932 17.3779 24.4797 17.6867 24.5293C17.9955 24.5789 18.2913 24.6906 18.5567 24.8577C18.8222 25.0249 19.0518 25.2441 19.2321 25.5025C19.4124 25.7608 19.5397 26.0531 19.6064 26.3621C19.6732 26.671 19.6782 26.9903 19.6209 27.3012C19.7541 27.2721 19.8899 27.2573 20.0261 27.257C20.5496 27.257 21.0517 27.4673 21.4219 27.8417C21.792 28.2162 22 28.724 22 29.2535C22 29.783 21.792 30.2908 21.4219 30.6652C21.0517 31.0397 20.5496 31.25 20.0261 31.25H13.2858C12.9041 31.2508 12.5358 31.1075 12.2531 30.8482C11.9703 30.5888 11.7934 30.232 11.757 29.8477C11.7206 29.4634 11.8273 29.0791 12.0562 28.7702C12.2852 28.4612 12.6199 28.2498 12.9948 28.1773Z" fill="white"/>
<path d="M20.1748 31.5H13.3809C12.9477 31.5004 12.5277 31.3542 12.192 31.0861C11.8562 30.818 11.6253 30.4445 11.5383 30.0288C11.4513 29.6131 11.5136 29.1808 11.7146 28.8049C11.9156 28.429 12.243 28.1327 12.6414 27.9661C12.559 27.6727 12.5633 27.3623 12.6537 27.0712C12.7441 26.78 12.9169 26.5199 13.1521 26.3211C13.3873 26.1223 13.6752 25.9929 13.9825 25.9479C14.2897 25.9029 14.6037 25.9442 14.888 26.067C15.0878 25.4702 15.4983 24.9627 16.0458 24.6358C16.5932 24.3089 17.2417 24.1839 17.8748 24.2833C18.5079 24.3827 19.084 24.7 19.4997 25.1782C19.9155 25.6564 20.1435 26.2642 20.1429 26.8923C20.1429 26.9104 20.1429 26.9286 20.1429 26.9468H20.1761C20.7925 26.9468 21.3835 27.1866 21.8194 27.6136C22.2552 28.0405 22.5 28.6196 22.5 29.2234C22.5 29.8272 22.2552 30.4062 21.8194 30.8332C21.3835 31.2601 20.7925 31.5 20.1761 31.5H20.1748ZM14.2277 26.5842C14.0572 26.5838 13.8895 26.6272 13.7415 26.7102C13.5934 26.7933 13.4703 26.9129 13.3843 27.0572C13.2984 27.2016 13.2526 27.3655 13.2517 27.5326C13.2508 27.6997 13.2946 27.8641 13.379 28.0093C13.4052 28.0546 13.42 28.1054 13.4222 28.1575C13.4244 28.2095 13.414 28.2614 13.3917 28.3087C13.3694 28.356 13.3359 28.3974 13.294 28.4295C13.2521 28.4616 13.203 28.4835 13.1508 28.4933C12.855 28.549 12.5911 28.7107 12.4106 28.9469C12.2301 29.1831 12.146 29.4768 12.1747 29.7705C12.2035 30.0642 12.3431 30.3369 12.5661 30.5351C12.7892 30.7334 13.0797 30.843 13.3809 30.8426H20.1748C20.4065 30.8426 20.6355 30.795 20.8472 30.7029C21.0588 30.6107 21.2483 30.476 21.4035 30.3075C21.5586 30.139 21.6759 29.9405 21.7478 29.7248C21.8196 29.5091 21.8444 29.281 21.8206 29.0553C21.7967 28.8296 21.7248 28.6113 21.6094 28.4146C21.4939 28.2179 21.3376 28.0471 21.1505 27.9133C20.9635 27.7795 20.7498 27.6857 20.5234 27.638C20.2969 27.5902 20.0628 27.5896 19.8361 27.6361C19.7823 27.6475 19.7264 27.6456 19.6735 27.6307C19.6206 27.6158 19.5723 27.5883 19.5328 27.5507C19.4934 27.5131 19.464 27.4665 19.4473 27.4151C19.4307 27.3637 19.4272 27.3091 19.4373 27.2561C19.4887 26.9949 19.4859 26.7262 19.4291 26.4661C19.3724 26.2059 19.2628 25.9596 19.107 25.7418C18.9511 25.5239 18.7521 25.339 18.5219 25.1981C18.2916 25.0571 18.0348 24.9629 17.7666 24.9211C17.4984 24.8793 17.2244 24.8908 16.9609 24.9548C16.6973 25.0189 16.4496 25.1342 16.2325 25.2939C16.0153 25.4536 15.8331 25.6544 15.6968 25.8845C15.5605 26.1146 15.4728 26.3691 15.4389 26.6331C15.4309 26.6924 15.4065 26.7484 15.3683 26.7951C15.3302 26.8418 15.2797 26.8774 15.2224 26.8981C15.165 26.9187 15.103 26.9236 15.0431 26.9122C14.9831 26.9008 14.9275 26.8736 14.8822 26.8334C14.7035 26.6732 14.47 26.5843 14.2277 26.5842Z" fill="#989AA6"/>
<path d="M38.25 62.25H11.25V43.9882L24.7503 34.25L38.25 43.9882V62.25Z" fill="#F7F7F7"/>
<path d="M11.25 62.25V43.9882L24.852 34.25L31.75 39.1889L11.25 62.25Z" fill="white"/>
<path d="M38.5 60.5H11.25V62.25H38.5V60.5Z" fill="#989AA6"/>
<path d="M12.3348 54.3672H10.832V56.0383H10.8581L12.3348 54.3672Z" fill="#B8B5C6"/>
<path d="M38.2624 62.5H11.2376C11.2064 62.5 11.1755 62.4939 11.1467 62.4819C11.1178 62.47 11.0916 62.4525 11.0696 62.4304C11.0475 62.4084 11.03 62.3822 11.0181 62.3534C11.0061 62.3246 11 62.2937 11 62.2625V45.7375C11 45.6745 11.025 45.6141 11.0696 45.5696C11.1141 45.525 11.1746 45.5 11.2376 45.5C11.3006 45.5 11.361 45.525 11.4055 45.5696C11.4501 45.6141 11.4751 45.6745 11.4751 45.7375V62.025H38.0249V50.6232C38.0249 50.5602 38.0499 50.4998 38.0945 50.4552C38.139 50.4107 38.1994 50.3857 38.2624 50.3857C38.3254 50.3857 38.3859 50.4107 38.4304 50.4552C38.475 50.4998 38.5 50.5602 38.5 50.6232V62.2625C38.5 62.3255 38.475 62.3859 38.4304 62.4304C38.3859 62.475 38.3254 62.5 38.2624 62.5Z" fill="#282C3F"/>
<path d="M38.2624 49.5C38.1994 49.5 38.139 49.4748 38.0944 49.4299C38.0499 49.385 38.0249 49.3242 38.0249 49.2607V44.162L24.7502 34.533L11.3764 44.234C11.3252 44.271 11.2615 44.286 11.1993 44.2758C11.1371 44.2655 11.0814 44.2308 11.0447 44.1792C11.0079 44.1277 10.9929 44.0635 11.0031 44.0008C11.0133 43.9382 11.0478 43.8822 11.099 43.8451L24.6112 34.0449C24.6517 34.0157 24.7001 34 24.7499 34C24.7996 34 24.8481 34.0157 24.8886 34.0449L38.4008 43.8451C38.4315 43.8673 38.4565 43.8965 38.4738 43.9304C38.491 43.9643 38.5 44.0018 38.5 44.0399V49.2582C38.5003 49.2898 38.4944 49.3212 38.4826 49.3505C38.4708 49.3799 38.4534 49.4065 38.4313 49.429C38.4092 49.4515 38.3829 49.4694 38.3539 49.4815C38.3249 49.4937 38.2938 49.5 38.2624 49.5Z" fill="#282C3F"/>
<path d="M24.6993 31.25L9.5 43.5799V46.5L24.6993 34.1695L38.25 45.3561V42.436L24.6993 31.25Z" fill="#52576A"/>
<path d="M31.9489 37.25L30.5 39.046L38.25 45.5V42.5611L31.9489 37.25Z" fill="#30354C"/>
<path d="M38.291 45.5459C38.2465 45.5456 38.2034 45.5297 38.1694 45.5009L24.7297 34.446L9.58056 46.705C9.55088 46.7305 9.51393 46.746 9.47494 46.7493C9.43596 46.7526 9.39693 46.7436 9.3634 46.7234C9.32783 46.7009 9.2987 46.6696 9.27883 46.6325C9.25897 46.5954 9.24906 46.5538 9.25007 46.5117V43.5965C9.25019 43.5605 9.258 43.5249 9.27295 43.4921C9.28791 43.4593 9.30968 43.4301 9.33681 43.4064L20.5328 34.3991C20.5543 34.3805 20.5797 34.367 20.6072 34.3595C20.6346 34.3521 20.6634 34.3509 20.6913 34.3561C20.7193 34.3613 20.7457 34.3727 20.7687 34.3894C20.7916 34.4062 20.8105 34.4279 20.824 34.4529C20.8564 34.5051 20.8694 34.5671 20.8607 34.6279C20.852 34.6887 20.8222 34.7446 20.7765 34.7856L9.66729 43.7214V46.0466L24.6088 33.9586C24.6429 33.9302 24.6859 33.9146 24.7303 33.9146C24.7748 33.9146 24.8178 33.9302 24.8519 33.9586L38.084 44.8424V42.5173L24.7297 31.5339L21.9275 33.8388C21.906 33.8574 21.8806 33.8709 21.8532 33.8783C21.8257 33.8858 21.797 33.8869 21.769 33.8818C21.7411 33.8766 21.7146 33.8652 21.6917 33.8485C21.6687 33.8317 21.6498 33.81 21.6363 33.785C21.6037 33.7328 21.5906 33.6708 21.5993 33.6099C21.608 33.549 21.6379 33.4932 21.6838 33.4522L24.6081 31.044C24.6423 31.0156 24.6853 31 24.7297 31C24.7741 31 24.8171 31.0156 24.8513 31.044L38.4132 42.1979C38.4403 42.2216 38.4621 42.2508 38.477 42.2836C38.492 42.3163 38.4998 42.3519 38.4999 42.388V45.3032C38.5009 45.3453 38.491 45.3869 38.4712 45.424C38.4513 45.4611 38.4222 45.4924 38.3866 45.5148C38.3581 45.5336 38.3251 45.5443 38.291 45.5459Z" fill="#282C3F"/>
<path d="M24.8728 52.25C24.1769 52.2507 23.5098 52.527 23.018 53.0181C22.5262 53.5093 22.25 54.1752 22.25 54.8695V62.25H27.5V54.8695C27.5 54.5254 27.432 54.1846 27.3 53.8666C27.1679 53.5487 26.9744 53.2598 26.7304 53.0166C26.4864 52.7733 26.1968 52.5804 25.878 52.4489C25.5593 52.3173 25.2177 52.2498 24.8728 52.25Z" fill="#30354C"/>
<path d="M27.5076 62.5H22.2398C22.1763 62.5 22.1154 62.4749 22.0705 62.4304C22.0256 62.3858 22.0003 62.3254 22.0003 62.2623V54.895C21.9946 54.5168 22.0648 54.1414 22.2067 53.7904C22.3486 53.4394 22.5595 53.1199 22.827 52.8505C23.0945 52.5812 23.4133 52.3672 23.7649 52.2212C24.1165 52.0752 24.4938 52 24.875 52C25.2562 52 25.6335 52.0752 25.9851 52.2212C26.3367 52.3672 26.6555 52.5812 26.923 52.8505C27.1905 53.1199 27.4014 53.4394 27.5433 53.7904C27.6852 54.1414 27.7554 54.5168 27.7497 54.895V62.2623C27.7497 62.2938 27.7434 62.3249 27.7312 62.3539C27.719 62.3829 27.7011 62.4092 27.6786 62.4313C27.6561 62.4534 27.6294 62.4708 27.6 62.4826C27.5707 62.4944 27.5393 62.5003 27.5076 62.5ZM22.4749 62.0247H27.2662V54.895C27.2713 54.5796 27.2132 54.2663 27.0951 53.9734C26.9771 53.6805 26.8015 53.4139 26.5785 53.189C26.3555 52.9642 26.0897 52.7856 25.7964 52.6637C25.5032 52.5418 25.1885 52.479 24.8705 52.479C24.5526 52.479 24.2379 52.5418 23.9446 52.6637C23.6514 52.7856 23.3856 52.9642 23.1626 53.189C22.9396 53.4139 22.764 53.6805 22.6459 53.9734C22.5279 54.2663 22.4697 54.5796 22.4749 54.895V62.0247Z" fill="#282C3F"/>
<path d="M33.1247 52.25C32.4285 52.2502 31.7609 52.5289 31.2687 53.0248C30.7765 53.5208 30.5 54.1933 30.5 54.8946V58.5H35.75V54.8946C35.75 54.1932 35.4734 53.5205 34.9811 53.0246C34.4887 52.5286 33.821 52.25 33.1247 52.25Z" fill="#2CAAE6"/>
<path d="M16.375 52.25C16.0302 52.25 15.6888 52.3184 15.3703 52.4513C15.0518 52.5842 14.7624 52.779 14.5186 53.0246C14.2749 53.2702 14.0815 53.5617 13.9496 53.8826C13.8178 54.2035 13.7499 54.5473 13.75 54.8946V58.5H19V54.8946C19 54.1933 18.7235 53.5208 18.2312 53.0248C17.7389 52.5289 17.0713 52.2502 16.375 52.25Z" fill="#2FC8F2"/>
<path d="M18.7234 53.75L14.5 58.5H19V54.9204C19.0006 54.5142 18.9059 54.1135 18.7234 53.75Z" fill="#2CAAE6"/>
<path d="M33.1247 43.75C32.4286 43.75 31.761 44.0286 31.2688 44.5245C30.7765 45.0204 30.5 45.6929 30.5 46.3942V50H35.75V46.3942C35.75 46.0469 35.6821 45.703 35.5501 45.3822C35.4182 45.0613 35.2248 44.7698 34.981 44.5242C34.7372 44.2787 34.4478 44.0839 34.1293 43.9511C33.8108 43.8182 33.4694 43.7499 33.1247 43.75Z" fill="#2CAAE6"/>
<path d="M16.375 43.75C16.0303 43.7499 15.6889 43.8183 15.3704 43.9511C15.0518 44.084 14.7624 44.2787 14.5187 44.5243C14.2749 44.7698 14.0815 45.0614 13.9496 45.3822C13.8178 45.7031 13.7499 46.047 13.75 46.3942V50H19V46.3942C19 45.6929 18.7234 45.0204 18.2312 44.5245C17.7389 44.0286 17.0712 43.75 16.375 43.75Z" fill="#2FC8F2"/>
<path d="M24.8728 43.75C24.177 43.7505 23.5099 44.0293 23.0181 44.5252C22.5263 45.021 22.25 45.6933 22.25 46.3942V50H27.5V46.3942C27.5 46.0468 27.432 45.7027 27.3 45.3817C27.1679 45.0608 26.9743 44.7691 26.7304 44.5236C26.4864 44.278 26.1967 44.0833 25.878 43.9505C25.5592 43.8178 25.2177 43.7497 24.8728 43.75Z" fill="#2FC8F2"/>
<path d="M26.9009 44.75L22.25 50H27.5V46.4179C27.5 45.8091 27.2882 45.2194 26.9009 44.75Z" fill="#2CAAE6"/>
<path d="M35.7601 58.75H30.4898C30.4263 58.75 30.3654 58.7248 30.3205 58.6798C30.2756 58.6349 30.2503 58.574 30.2503 58.5105V54.9177C30.2446 54.5366 30.3148 54.1582 30.4567 53.8044C30.5986 53.4507 30.8095 53.1287 31.077 52.8572C31.3445 52.5857 31.6633 52.3701 32.0149 52.223C32.3665 52.0758 32.7438 52 33.125 52C33.5062 52 33.8835 52.0758 34.2351 52.223C34.5867 52.3701 34.9055 52.5857 35.173 52.8572C35.4405 53.1287 35.6514 53.4507 35.7933 53.8044C35.9352 54.1582 36.0054 54.5366 35.9997 54.9177V58.5105C35.9997 58.574 35.9744 58.6349 35.9295 58.6798C35.8846 58.7248 35.8237 58.75 35.7601 58.75ZM30.7275 58.271H35.5187V54.9177C35.5239 54.5998 35.4658 54.2841 35.3477 53.9889C35.2296 53.6937 35.054 53.425 34.831 53.1984C34.6081 52.9717 34.3422 52.7918 34.049 52.6689C33.7558 52.546 33.441 52.4828 33.1231 52.4828C32.8052 52.4828 32.4904 52.546 32.1972 52.6689C31.904 52.7918 31.6381 52.9717 31.4151 53.1984C31.1922 53.425 31.0165 53.6937 30.8985 53.9889C30.7804 54.2841 30.7223 54.5998 30.7275 54.9177V58.271Z" fill="#282C3F"/>
<path d="M19.0104 58.75H13.7396C13.676 58.75 13.6151 58.7246 13.5702 58.6794C13.5252 58.6342 13.5 58.5729 13.5 58.5089V54.8929C13.5 54.1256 13.8029 53.3898 14.3421 52.8473C14.8812 52.3048 15.6125 52 16.375 52C17.1375 52 17.8688 52.3048 18.4079 52.8473C18.9471 53.3898 19.25 54.1256 19.25 54.8929V58.5089C19.25 58.5729 19.2248 58.6342 19.1798 58.6794C19.1349 58.7246 19.074 58.75 19.0104 58.75ZM13.9766 58.2679H18.7683V54.8929C18.7683 54.5763 18.7063 54.2628 18.5859 53.9703C18.4655 53.6778 18.289 53.4121 18.0666 53.1882C17.8441 52.9644 17.58 52.7868 17.2893 52.6656C16.9986 52.5445 16.6871 52.4821 16.3725 52.4821C16.0578 52.4821 15.7463 52.5445 15.4556 52.6656C15.1649 52.7868 14.9008 52.9644 14.6783 53.1882C14.4559 53.4121 14.2794 53.6778 14.159 53.9703C14.0386 54.2628 13.9766 54.5763 13.9766 54.8929V58.2679Z" fill="#282C3F"/>
<path d="M19.5089 58.75H13.2411C13.2094 58.75 13.1781 58.7435 13.1488 58.731C13.1196 58.7184 13.093 58.7 13.0706 58.6768C13.0482 58.6536 13.0305 58.626 13.0184 58.5957C13.0062 58.5653 13 58.5328 13 58.5C13 58.4672 13.0062 58.4347 13.0184 58.4043C13.0305 58.374 13.0482 58.3464 13.0706 58.3232C13.093 58.3 13.1196 58.2816 13.1488 58.269C13.1781 58.2565 13.2094 58.25 13.2411 58.25H19.5089C19.5406 58.25 19.5719 58.2565 19.6012 58.269C19.6304 58.2816 19.657 58.3 19.6794 58.3232C19.7018 58.3464 19.7195 58.374 19.7316 58.4043C19.7438 58.4347 19.75 58.4672 19.75 58.5C19.75 58.5328 19.7438 58.5653 19.7316 58.5957C19.7195 58.626 19.7018 58.6536 19.6794 58.6768C19.657 58.7 19.6304 58.7184 19.6012 58.731C19.5719 58.7435 19.5406 58.75 19.5089 58.75Z" fill="#282C3F"/>
<path d="M36.259 58.75H29.991C29.9594 58.75 29.928 58.7435 29.8988 58.731C29.8696 58.7184 29.843 58.7 29.8206 58.6768C29.7982 58.6536 29.7805 58.626 29.7683 58.5957C29.7562 58.5653 29.75 58.5328 29.75 58.5C29.75 58.4672 29.7562 58.4347 29.7683 58.4043C29.7805 58.374 29.7982 58.3464 29.8206 58.3232C29.843 58.3 29.8696 58.2816 29.8988 58.269C29.928 58.2565 29.9594 58.25 29.991 58.25H36.259C36.3229 58.25 36.3842 58.2763 36.4294 58.3232C36.4746 58.3701 36.5 58.4337 36.5 58.5C36.5 58.5663 36.4746 58.6299 36.4294 58.6768C36.3842 58.7237 36.3229 58.75 36.259 58.75Z" fill="#282C3F"/>
<path d="M35.7604 50.25H30.4896C30.426 50.25 30.3651 50.2244 30.3202 50.1789C30.2752 50.1335 30.25 50.0717 30.25 50.0074V46.3685C30.2612 45.6038 30.5691 44.8743 31.107 44.3376C31.645 43.8009 32.3698 43.5 33.125 43.5C33.8802 43.5 34.605 43.8009 35.143 44.3376C35.6809 44.8743 35.9888 45.6038 36 46.3685V50.0074C36 50.0717 35.9748 50.1335 35.9298 50.1789C35.8849 50.2244 35.824 50.25 35.7604 50.25ZM30.7272 49.7648H35.519V46.3685C35.5087 45.7318 35.2518 45.1248 34.8036 44.6782C34.3554 44.2317 33.7518 43.9814 33.1231 43.9814C32.4943 43.9814 31.8908 44.2317 31.4426 44.6782C30.9944 45.1248 30.7375 45.7318 30.7272 46.3685V49.7648Z" fill="#282C3F"/>
<path d="M19.0104 50.25H13.7396C13.676 50.25 13.6151 50.2246 13.5702 50.1794C13.5252 50.1342 13.5 50.0729 13.5 50.0089V46.3929C13.5 45.6256 13.8029 44.8898 14.3421 44.3473C14.8812 43.8048 15.6125 43.5 16.375 43.5C17.1375 43.5 17.8688 43.8048 18.4079 44.3473C18.9471 44.8898 19.25 45.6256 19.25 46.3929V50.0089C19.25 50.0406 19.2438 50.0719 19.2318 50.1012C19.2197 50.1304 19.2021 50.157 19.1798 50.1794C19.1576 50.2018 19.1312 50.2195 19.1021 50.2317C19.073 50.2438 19.0419 50.25 19.0104 50.25ZM13.9766 49.7679H18.7683V46.3929C18.7683 45.7535 18.5159 45.1403 18.0666 44.6882C17.6173 44.2361 17.0079 43.9821 16.3725 43.9821C15.737 43.9821 15.1276 44.2361 14.6783 44.6882C14.229 45.1403 13.9766 45.7535 13.9766 46.3929V49.7679Z" fill="#282C3F"/>
<path d="M19.5089 50.25H13.2411C13.2094 50.25 13.1781 50.2435 13.1488 50.231C13.1196 50.2184 13.093 50.2 13.0706 50.1768C13.0482 50.1536 13.0305 50.126 13.0184 50.0957C13.0062 50.0653 13 50.0328 13 50C13 49.9672 13.0062 49.9347 13.0184 49.9043C13.0305 49.874 13.0482 49.8464 13.0706 49.8232C13.093 49.8 13.1196 49.7816 13.1488 49.769C13.1781 49.7565 13.2094 49.75 13.2411 49.75H19.5089C19.5406 49.75 19.5719 49.7565 19.6012 49.769C19.6304 49.7816 19.657 49.8 19.6794 49.8232C19.7018 49.8464 19.7195 49.874 19.7316 49.9043C19.7438 49.9347 19.75 49.9672 19.75 50C19.75 50.0328 19.7438 50.0653 19.7316 50.0957C19.7195 50.126 19.7018 50.1536 19.6794 50.1768C19.657 50.2 19.6304 50.2184 19.6012 50.231C19.5719 50.2435 19.5406 50.25 19.5089 50.25Z" fill="#282C3F"/>
<path d="M36.259 50.25H29.991C29.9271 50.25 29.8658 50.2237 29.8206 50.1768C29.7754 50.1299 29.75 50.0663 29.75 50C29.75 49.9337 29.7754 49.8701 29.8206 49.8232C29.8658 49.7763 29.9271 49.75 29.991 49.75H36.259C36.2906 49.75 36.322 49.7565 36.3512 49.769C36.3804 49.7816 36.407 49.8 36.4294 49.8232C36.4518 49.8464 36.4695 49.874 36.4817 49.9043C36.4938 49.9347 36.5 49.9672 36.5 50C36.5 50.0328 36.4938 50.0653 36.4817 50.0957C36.4695 50.126 36.4518 50.1536 36.4294 50.1768C36.407 50.2 36.3804 50.2184 36.3512 50.231C36.322 50.2435 36.2906 50.25 36.259 50.25Z" fill="#282C3F"/>
<path d="M27.5079 50.25H22.2396C22.176 50.25 22.1151 50.2244 22.0702 50.1789C22.0252 50.1334 22 50.0717 22 50.0074V46.3685C22.0112 45.6038 22.3191 44.8743 22.857 44.3376C23.395 43.8009 24.1198 43.5 24.875 43.5C25.6302 43.5 26.355 43.8009 26.893 44.3376C27.4309 44.8743 27.7388 45.6038 27.75 46.3685V50.0074C27.75 50.0395 27.7437 50.0712 27.7315 50.1008C27.7193 50.1304 27.7015 50.1573 27.6789 50.1799C27.6564 50.2024 27.6297 50.2202 27.6004 50.2323C27.571 50.2443 27.5396 50.2503 27.5079 50.25ZM22.4747 49.7648H27.2664V46.3685C27.2562 45.7318 26.9992 45.1248 26.551 44.6782C26.1028 44.2317 25.4993 43.9814 24.8705 43.9814C24.2418 43.9814 23.6382 44.2317 23.19 44.6782C22.7418 45.1248 22.4849 45.7318 22.4747 46.3685V49.7648Z" fill="#282C3F"/>
<path d="M28.009 50.25H21.741C21.7094 50.25 21.678 50.2435 21.6488 50.231C21.6196 50.2184 21.593 50.2 21.5706 50.1768C21.5482 50.1536 21.5305 50.126 21.5183 50.0957C21.5062 50.0653 21.5 50.0328 21.5 50C21.5 49.9672 21.5062 49.9347 21.5183 49.9043C21.5305 49.874 21.5482 49.8464 21.5706 49.8232C21.593 49.8 21.6196 49.7816 21.6488 49.769C21.678 49.7565 21.7094 49.75 21.741 49.75H28.009C28.0406 49.75 28.072 49.7565 28.1012 49.769C28.1304 49.7816 28.157 49.8 28.1794 49.8232C28.2018 49.8464 28.2195 49.874 28.2317 49.9043C28.2438 49.9347 28.25 49.9672 28.25 50C28.25 50.0328 28.2438 50.0653 28.2317 50.0957C28.2195 50.126 28.2018 50.1536 28.1794 50.1768C28.157 50.2 28.1304 50.2184 28.1012 50.231C28.072 50.2435 28.0406 50.25 28.009 50.25Z" fill="#282C3F"/>
<path d="M26.375 58.25C26.5821 58.25 26.75 58.1381 26.75 58C26.75 57.8619 26.5821 57.75 26.375 57.75C26.1679 57.75 26 57.8619 26 58C26 58.1381 26.1679 58.25 26.375 58.25Z" fill="white"/>
<path d="M24.875 41.25C25.9105 41.25 26.75 40.4105 26.75 39.375C26.75 38.3395 25.9105 37.5 24.875 37.5C23.8395 37.5 23 38.3395 23 39.375C23 40.4105 23.8395 41.25 24.875 41.25Z" fill="#2FC8F2"/>
<path d="M24.875 41.5C24.4547 41.5 24.0439 41.3754 23.6944 41.1419C23.345 40.9084 23.0726 40.5765 22.9118 40.1882C22.7509 39.7999 22.7088 39.3726 22.7908 38.9604C22.8728 38.5482 23.0752 38.1696 23.3724 37.8724C23.6696 37.5752 24.0482 37.3728 24.4604 37.2908C24.8726 37.2088 25.2999 37.2509 25.6882 37.4118C26.0765 37.5726 26.4084 37.845 26.6419 38.1944C26.8754 38.5439 27 38.9547 27 39.375C26.9993 39.9384 26.7752 40.4785 26.3769 40.8769C25.9785 41.2752 25.4384 41.4993 24.875 41.5ZM24.875 37.7222C24.5481 37.7222 24.2286 37.8192 23.9568 38.0008C23.685 38.1824 23.4731 38.4405 23.348 38.7425C23.2229 39.0445 23.1902 39.3768 23.254 39.6974C23.3178 40.0181 23.4752 40.3125 23.7063 40.5437C23.9375 40.7748 24.232 40.9323 24.5526 40.996C24.8732 41.0598 25.2055 41.0271 25.5075 40.902C25.8095 40.7769 26.0676 40.565 26.2492 40.2932C26.4308 40.0214 26.5278 39.7019 26.5278 39.375C26.5271 38.9369 26.3528 38.5169 26.043 38.207C25.7331 37.8972 25.3131 37.7229 24.875 37.7222Z" fill="#282C3F"/>
<path d="M66.25 62.25H39.25V43.9875L52.75 34.25L66.25 43.9875V62.25Z" fill="#F7F7F7"/>
<path d="M39.25 62.25V43.9875L52.8518 34.25L59.75 39.1889L39.25 62.25Z" fill="white"/>
<path d="M66.25 60.5H39.25V62.25H66.25V60.5Z" fill="#989AA6"/>
<path d="M41 60.5H39.25V62.25H39.2804L41 60.5Z" fill="#B8B5C6"/>
<path d="M66.2593 62.5H39.2375C39.1745 62.5 39.1141 62.475 39.0696 62.4304C39.025 62.3859 39 62.3254 39 62.2625V45.7375C39 45.6745 39.025 45.6141 39.0696 45.5696C39.1141 45.525 39.1745 45.5 39.2375 45.5C39.3006 45.5 39.361 45.525 39.4055 45.5696C39.4501 45.6141 39.4751 45.6745 39.4751 45.7375V62.0249H66.0249V50.6232C66.0249 50.5602 66.0499 50.4998 66.0945 50.4552C66.139 50.4107 66.1995 50.3857 66.2625 50.3857C66.3255 50.3857 66.3859 50.4107 66.4304 50.4552C66.475 50.4998 66.5 50.5602 66.5 50.6232V62.2625C66.5 62.2939 66.4938 62.3251 66.4816 62.3541C66.4695 62.3831 66.4517 62.4094 66.4293 62.4315C66.4069 62.4536 66.3804 62.4711 66.3512 62.4828C66.322 62.4946 66.2908 62.5004 66.2593 62.5Z" fill="#282C3F"/>
<path d="M66.2624 49.5C66.1994 49.5 66.139 49.4748 66.0944 49.4299C66.0499 49.385 66.0248 49.3242 66.0248 49.2607V44.1622L52.7501 34.5334L39.3769 44.2341C39.3515 44.2525 39.3228 44.2657 39.2924 44.2729C39.262 44.2801 39.2305 44.2812 39.1997 44.2762C39.1688 44.2711 39.1393 44.26 39.1127 44.2434C39.0862 44.2269 39.0631 44.2052 39.0448 44.1797C39.0266 44.1542 39.0135 44.1253 39.0063 44.0946C38.9992 44.064 38.9981 44.0323 39.0031 44.0012C39.0081 43.9702 39.0191 43.9404 39.0356 43.9137C39.052 43.8869 39.0735 43.8637 39.0989 43.8453L52.6118 34.0453C52.6521 34.0159 52.7006 34 52.7505 34C52.8003 34 52.8488 34.0159 52.8891 34.0453L66.4014 43.8453C66.4314 43.8672 66.456 43.8959 66.4731 43.929C66.4902 43.9622 66.4994 43.9988 66.5 44.0362V49.2575C66.5004 49.2892 66.4946 49.3207 66.4828 49.3501C66.4711 49.3795 66.4536 49.4062 66.4315 49.4288C66.4094 49.4514 66.3831 49.4693 66.3541 49.4815C66.325 49.4937 66.2939 49.5 66.2624 49.5Z" fill="#282C3F"/>
<path d="M52.7497 31.25L39.25 42.5502V45.5L52.7497 34.1998L66.25 45.5V42.5502L52.7497 31.25Z" fill="#52576A"/>
<path d="M59.944 37.25L58.5 39.0052L68 46.75V43.8781L59.944 37.25Z" fill="#30354C"/>
<path d="M68.0406 47C67.9959 46.9997 67.9528 46.9838 67.9187 46.955L52.8002 34.4461L39.3313 45.4978C39.3013 45.5228 39.2643 45.538 39.2254 45.5413C39.1864 45.5446 39.1474 45.5358 39.1136 45.5162C39.078 45.4938 39.0488 45.4625 39.0289 45.4254C39.009 45.3883 38.9991 45.3467 39.0001 45.3046V42.3934C38.9997 42.3569 39.0073 42.3207 39.0223 42.2873C39.0373 42.254 39.0594 42.2242 39.087 42.2002L48.5942 34.3986C48.6158 34.3801 48.6413 34.3666 48.6688 34.3592C48.6963 34.3518 48.7252 34.3507 48.7532 34.3559C48.7812 34.3612 48.8077 34.3726 48.8307 34.3894C48.8536 34.4062 48.8726 34.428 48.886 34.4531C48.9184 34.5053 48.9315 34.5672 48.9228 34.628C48.9141 34.6888 48.8842 34.7447 48.8384 34.7857L39.4182 42.5151V44.8396L52.679 33.9589C52.7128 33.9298 52.7561 33.9137 52.8008 33.9137C52.8455 33.9137 52.8888 33.9298 52.9226 33.9589L67.8331 46.2968V43.9722L52.8002 31.5349L49.9919 33.8392C49.9703 33.8577 49.9448 33.8712 49.9173 33.8786C49.8898 33.886 49.8609 33.8871 49.8329 33.8818C49.8049 33.8766 49.7784 33.8652 49.7554 33.8484C49.7324 33.8315 49.7135 33.8098 49.7001 33.7847C49.6674 33.7327 49.6543 33.6708 49.663 33.61C49.6717 33.5492 49.7017 33.4935 49.7477 33.4527L52.6783 31.0452C52.7122 31.016 52.7554 31 52.8002 31C52.8449 31 52.8881 31.016 52.922 31.0452L68.163 43.6529C68.1906 43.677 68.2127 43.7067 68.2277 43.74C68.2427 43.7734 68.2503 43.8096 68.2499 43.8462V46.7573C68.2509 46.7994 68.241 46.841 68.2211 46.8781C68.2012 46.9152 68.172 46.9465 68.1364 46.969C68.1078 46.9877 68.0747 46.9984 68.0406 47Z" fill="#282C3F"/>
<path d="M52.875 52.25C52.53 52.25 52.1884 52.3178 51.8697 52.4497C51.551 52.5815 51.2615 52.7746 51.0177 53.0182C50.7739 53.2617 50.5806 53.5508 50.4489 53.8689C50.3172 54.187 50.2496 54.5279 50.25 54.872V62.25H55.5V54.872C55.5004 54.5279 55.4328 54.187 55.3011 53.8689C55.1694 53.5508 54.9761 53.2617 54.7323 53.0182C54.4885 52.7746 54.199 52.5815 53.8803 52.4497C53.5616 52.3178 53.22 52.25 52.875 52.25Z" fill="#30354C"/>
<path d="M55.5086 62.5H50.2395C50.176 62.5 50.1151 62.4748 50.0702 62.4301C50.0252 62.3853 50 62.3246 50 62.2613V54.865C50 54.1052 50.3029 53.3764 50.8421 52.8391C51.3812 52.3018 52.1125 52 52.875 52C53.6375 52 54.3688 52.3018 54.9079 52.8391C55.4471 53.3764 55.75 54.1052 55.75 54.865V62.2613C55.75 62.2928 55.7437 62.324 55.7316 62.3531C55.7194 62.3822 55.7016 62.4086 55.6792 62.4308C55.6567 62.453 55.6301 62.4705 55.6008 62.4824C55.5715 62.4943 55.5402 62.5002 55.5086 62.5ZM50.4765 62.0226H55.2665V54.865C55.2665 54.232 55.0142 53.6249 54.565 53.1774C54.1159 52.7298 53.5067 52.4783 52.8715 52.4783C52.2363 52.4783 51.6271 52.7298 51.178 53.1774C50.7288 53.6249 50.4765 54.232 50.4765 54.865V62.0226Z" fill="#282C3F"/>
<path d="M61.125 52.25C60.78 52.25 60.4384 52.3185 60.1197 52.4515C59.801 52.5845 59.5115 52.7794 59.2677 53.0251C59.0239 53.2709 58.8306 53.5626 58.6989 53.8835C58.5672 54.2045 58.4996 54.5485 58.5 54.8958V58.5H63.75V54.8958C63.7504 54.5485 63.6828 54.2045 63.5511 53.8835C63.4194 53.5626 63.2261 53.2709 62.9823 53.0251C62.7385 52.7794 62.449 52.5845 62.1303 52.4515C61.8116 52.3185 61.47 52.25 61.125 52.25Z" fill="#2CAAE6"/>
<path d="M44.3747 52.25C44.0297 52.25 43.6882 52.3185 43.3695 52.4515C43.0509 52.5845 42.7614 52.7794 42.5176 53.0251C42.2739 53.2709 42.0806 53.5626 41.9489 53.8835C41.8172 54.2045 41.7496 54.5485 41.75 54.8958V58.5H47V54.8958C47.0003 54.5485 46.9327 54.2045 46.8009 53.8835C46.6691 53.5625 46.4758 53.2708 46.232 53.0251C45.9881 52.7794 45.6986 52.5844 45.3799 52.4514C45.0613 52.3185 44.7197 52.25 44.3747 52.25Z" fill="#2FC8F2"/>
<path d="M46.7235 53.75L42.5 58.5H47V54.9229C47.001 54.5159 46.9063 54.1142 46.7235 53.75Z" fill="#2CAAE6"/>
<path d="M61.125 43.75C60.4288 43.7502 59.7611 44.0288 59.2688 44.5247C58.7765 45.0206 58.5 45.6931 58.5 46.3943V50H63.75V46.395C63.7501 46.0477 63.6823 45.7038 63.5504 45.383C63.4185 45.0621 63.2252 44.7706 62.9814 44.525C62.7377 44.2794 62.4483 44.0845 62.1297 43.9515C61.8112 43.8186 61.4698 43.7501 61.125 43.75Z" fill="#2CAAE6"/>
<path d="M44.3747 43.75C43.6785 43.7502 43.0109 44.0288 42.5187 44.5247C42.0265 45.0206 41.75 45.6931 41.75 46.3943V50H47V46.395C47.0001 46.0477 46.9322 45.7037 46.8003 45.3828C46.6684 45.0619 46.4751 44.7703 46.2313 44.5247C45.9875 44.2791 45.6981 44.0843 45.3795 43.9514C45.0609 43.8184 44.7195 43.75 44.3747 43.75Z" fill="#2FC8F2"/>
<path d="M52.875 43.75C52.1787 43.7502 51.5111 44.0288 51.0188 44.5247C50.5265 45.0206 50.25 45.6931 50.25 46.3943V50H55.5V46.395C55.5002 46.0477 55.4324 45.7038 55.3005 45.3829C55.1687 45.062 54.9754 44.7704 54.7316 44.5248C54.4878 44.2791 54.1984 44.0843 53.8798 43.9514C53.5613 43.8184 53.2198 43.75 52.875 43.75Z" fill="#2FC8F2"/>
<path d="M54.9034 44.75L50.25 50H55.5V46.4183C55.5013 45.8097 55.2903 45.2196 54.9034 44.75Z" fill="#2CAAE6"/>
<path d="M63.7604 58.75H58.4896C58.426 58.75 58.3651 58.7246 58.3202 58.6794C58.2752 58.6341 58.25 58.5728 58.25 58.5088V54.894C58.25 54.1264 58.5529 53.3903 59.0921 52.8476C59.6312 52.3049 60.3625 52 61.125 52C61.8875 52 62.6188 52.3049 63.1579 52.8476C63.6971 53.3903 64 54.1264 64 54.894V58.512C63.9992 58.5754 63.9735 58.636 63.9287 58.6805C63.8839 58.725 63.8234 58.75 63.7604 58.75ZM58.7266 58.2677H63.5183V54.894C63.5183 54.2544 63.2659 53.6409 62.8166 53.1887C62.3673 52.7364 61.7579 52.4823 61.1224 52.4823C60.487 52.4823 59.8776 52.7364 59.4283 53.1887C58.979 53.6409 58.7266 54.2544 58.7266 54.894V58.2677Z" fill="#282C3F"/>
<path d="M47.0104 58.75H41.7396C41.676 58.75 41.6151 58.7244 41.5702 58.6789C41.5252 58.6334 41.5 58.5717 41.5 58.5073V54.8696C41.5112 54.1046 41.8191 53.3748 42.357 52.8379C42.895 52.301 43.6198 52 44.375 52C45.1302 52 45.855 52.301 46.393 52.8379C46.9309 53.3748 47.2388 54.1046 47.25 54.8696V58.5105C47.2492 58.5743 47.2236 58.6352 47.1787 58.6801C47.1339 58.7249 47.0734 58.75 47.0104 58.75ZM41.9772 58.2646H46.769V54.8696C46.7587 54.2327 46.5018 53.6254 46.0536 53.1787C45.6054 52.732 45.0018 52.4816 44.3731 52.4816C43.7443 52.4816 43.1408 52.732 42.6926 53.1787C42.2444 53.6254 41.9875 54.2327 41.9772 54.8696V58.2646Z" fill="#282C3F"/>
<path d="M47.509 58.75H41.241C41.1771 58.75 41.1158 58.7237 41.0706 58.6768C41.0254 58.6299 41 58.5663 41 58.5C41 58.4337 41.0254 58.3701 41.0706 58.3232C41.1158 58.2763 41.1771 58.25 41.241 58.25H47.509C47.5729 58.25 47.6342 58.2763 47.6794 58.3232C47.7246 58.3701 47.75 58.4337 47.75 58.5C47.75 58.5663 47.7246 58.6299 47.6794 58.6768C47.6342 58.7237 47.5729 58.75 47.509 58.75Z" fill="#282C3F"/>
<path d="M64.2589 58.75H57.9911C57.9271 58.75 57.8658 58.7237 57.8206 58.6768C57.7754 58.6299 57.75 58.5663 57.75 58.5C57.75 58.4337 57.7754 58.3701 57.8206 58.3232C57.8658 58.2763 57.9271 58.25 57.9911 58.25H64.2589C64.3229 58.25 64.3842 58.2763 64.4294 58.3232C64.4746 58.3701 64.5 58.4337 64.5 58.5C64.5 58.5663 64.4746 58.6299 64.4294 58.6768C64.3842 58.7237 64.3229 58.75 64.2589 58.75Z" fill="#282C3F"/>
<path d="M63.7604 50.25H58.4896C58.426 50.25 58.3651 50.2246 58.3202 50.1794C58.2752 50.1342 58.25 50.0729 58.25 50.0089V46.3929C58.25 45.6256 58.5529 44.8898 59.0921 44.3473C59.6312 43.8048 60.3625 43.5 61.125 43.5C61.8875 43.5 62.6188 43.8048 63.1579 44.3473C63.6971 44.8898 64 45.6256 64 46.3929V50.0096C63.9998 50.0734 63.9745 50.1345 63.9296 50.1796C63.8847 50.2247 63.8238 50.25 63.7604 50.25ZM58.7266 49.7679H63.5183V46.3929C63.5183 45.7535 63.2659 45.1403 62.8166 44.6882C62.3673 44.2361 61.7579 43.9821 61.1224 43.9821C60.487 43.9821 59.8776 44.2361 59.4283 44.6882C58.979 45.1403 58.7266 45.7535 58.7266 46.3929V49.7679Z" fill="#282C3F"/>
<path d="M47.0101 50.25H41.7398C41.6763 50.25 41.6154 50.2248 41.5705 50.1798C41.5256 50.1349 41.5003 50.074 41.5003 50.0105V46.4177C41.4946 46.0366 41.5648 45.6582 41.7067 45.3044C41.8486 44.9507 42.0595 44.6287 42.327 44.3572C42.5945 44.0857 42.9133 43.8701 43.2649 43.7229C43.6165 43.5758 43.9938 43.5 44.375 43.5C44.7562 43.5 45.1335 43.5758 45.4851 43.7229C45.8367 43.8701 46.1555 44.0857 46.423 44.3572C46.6905 44.6287 46.9014 44.9507 47.0433 45.3044C47.1852 45.6582 47.2554 46.0366 47.2497 46.4177V50.0111C47.2495 50.0745 47.2242 50.1353 47.1793 50.1801C47.1344 50.2249 47.0736 50.25 47.0101 50.25ZM41.9775 49.771H46.7687V46.4177C46.7739 46.0998 46.7158 45.7841 46.5977 45.4889C46.4796 45.1937 46.304 44.925 46.081 44.6984C45.8581 44.4717 45.5922 44.2918 45.299 44.1689C45.0058 44.046 44.691 43.9828 44.3731 43.9828C44.0552 43.9828 43.7404 44.046 43.4472 44.1689C43.154 44.2918 42.8881 44.4717 42.6651 44.6984C42.4422 44.925 42.2665 45.1937 42.1485 45.4889C42.0304 45.7841 41.9723 46.0998 41.9775 46.4177V49.771Z" fill="#282C3F"/>
<path d="M47.509 50.25H41.241C41.1771 50.25 41.1158 50.2237 41.0706 50.1768C41.0254 50.1299 41 50.0663 41 50C41 49.9337 41.0254 49.8701 41.0706 49.8232C41.1158 49.7763 41.1771 49.75 41.241 49.75H47.509C47.5729 49.75 47.6342 49.7763 47.6794 49.8232C47.7246 49.8701 47.75 49.9337 47.75 50C47.75 50.0663 47.7246 50.1299 47.6794 50.1768C47.6342 50.2237 47.5729 50.25 47.509 50.25Z" fill="#282C3F"/>
<path d="M64.2589 50.25H57.9911C57.9271 50.25 57.8658 50.2237 57.8206 50.1768C57.7754 50.1299 57.75 50.0663 57.75 50C57.75 49.9337 57.7754 49.8701 57.8206 49.8232C57.8658 49.7763 57.9271 49.75 57.9911 49.75H64.2589C64.3229 49.75 64.3842 49.7763 64.4294 49.8232C64.4746 49.8701 64.5 49.9337 64.5 50C64.5 50.0663 64.4746 50.1299 64.4294 50.1768C64.3842 50.2237 64.3229 50.25 64.2589 50.25Z" fill="#282C3F"/>
<path d="M55.5104 50.25H50.2396C50.176 50.25 50.1151 50.2246 50.0702 50.1794C50.0252 50.1342 50 50.0729 50 50.0089V46.3929C50 45.6256 50.3029 44.8898 50.8421 44.3473C51.3812 43.8048 52.1125 43.5 52.875 43.5C53.6375 43.5 54.3688 43.8048 54.9079 44.3473C55.4471 44.8898 55.75 45.6256 55.75 46.3929V50.0096C55.7498 50.0734 55.7245 50.1345 55.6796 50.1796C55.6347 50.2247 55.5739 50.25 55.5104 50.25ZM50.4766 49.7679H55.2683V46.3929C55.2683 45.7535 55.0159 45.1403 54.5666 44.6882C54.1173 44.2361 53.5079 43.9821 52.8725 43.9821C52.237 43.9821 51.6276 44.2361 51.1783 44.6882C50.729 45.1403 50.4766 45.7535 50.4766 46.3929V49.7679Z" fill="#282C3F"/>
<path d="M55.766 50.25H49.7321C49.6706 50.25 49.6115 50.2237 49.568 50.1768C49.5245 50.1299 49.5 50.0663 49.5 50C49.5 49.9337 49.5245 49.8701 49.568 49.8232C49.6115 49.7763 49.6706 49.75 49.7321 49.75H55.7679C55.8294 49.75 55.8885 49.7763 55.932 49.8232C55.9755 49.8701 56 49.9337 56 50C56 50.0663 55.9755 50.1299 55.932 50.1768C55.8885 50.2237 55.8294 50.25 55.7679 50.25H55.766Z" fill="#282C3F"/>
<path d="M54.375 58.25C54.5821 58.25 54.75 58.1381 54.75 58C54.75 57.8619 54.5821 57.75 54.375 57.75C54.1679 57.75 54 57.8619 54 58C54 58.1381 54.1679 58.25 54.375 58.25Z" fill="white"/>
<path d="M52.875 41.25C53.9105 41.25 54.75 40.4105 54.75 39.375C54.75 38.3395 53.9105 37.5 52.875 37.5C51.8395 37.5 51 38.3395 51 39.375C51 40.4105 51.8395 41.25 52.875 41.25Z" fill="#2FC8F2"/>
<path d="M52.875 41.5C52.4547 41.5 52.0439 41.3754 51.6944 41.1419C51.345 40.9084 51.0726 40.5765 50.9118 40.1882C50.7509 39.7999 50.7088 39.3726 50.7908 38.9604C50.8728 38.5482 51.0752 38.1696 51.3724 37.8724C51.6696 37.5752 52.0482 37.3728 52.4604 37.2908C52.8726 37.2088 53.2999 37.2509 53.6882 37.4118C54.0765 37.5726 54.4084 37.845 54.6419 38.1944C54.8754 38.5439 55 38.9547 55 39.375C54.9993 39.9384 54.7752 40.4785 54.3769 40.8769C53.9785 41.2752 53.4384 41.4993 52.875 41.5ZM52.875 37.7222C52.5481 37.7222 52.2286 37.8192 51.9568 38.0008C51.685 38.1824 51.4731 38.4405 51.348 38.7425C51.2229 39.0445 51.1902 39.3768 51.254 39.6974C51.3178 40.0181 51.4752 40.3125 51.7063 40.5437C51.9375 40.7748 52.232 40.9322 52.5526 40.996C52.8732 41.0598 53.2055 41.0271 53.5075 40.902C53.8095 40.7769 54.0676 40.565 54.2492 40.2932C54.4308 40.0214 54.5278 39.7019 54.5278 39.375C54.5273 38.9368 54.353 38.5167 54.0431 38.2069C53.7333 37.897 53.3132 37.7227 52.875 37.7222Z" fill="#282C3F"/>
<path d="M69.1476 62.9993H8.60244C8.55721 63.0024 8.51188 62.9951 8.46926 62.9777C8.42663 62.9604 8.3876 62.9333 8.35459 62.8982C8.32157 62.8632 8.29525 62.8208 8.27727 62.7738C8.25928 62.7268 8.25 62.6762 8.25 62.625C8.25 62.5738 8.25928 62.5231 8.27727 62.4762C8.29525 62.4292 8.32157 62.3868 8.35459 62.3518C8.3876 62.3167 8.42663 62.2897 8.46926 62.2723C8.51188 62.2549 8.55721 62.2476 8.60244 62.2507H69.1476C69.1928 62.2476 69.2381 62.2549 69.2807 62.2723C69.3234 62.2897 69.3624 62.3167 69.3954 62.3518C69.4284 62.3868 69.4547 62.4292 69.4727 62.4762C69.4907 62.5231 69.5 62.5738 69.5 62.625C69.5 62.6762 69.4907 62.7268 69.4727 62.7738C69.4547 62.8208 69.4284 62.8632 69.3954 62.8982C69.3624 62.9333 69.3234 62.9604 69.2807 62.9777C69.2381 62.9951 69.1928 63.0024 69.1476 62.9993Z" fill="#989AA6"/>
</g>
<defs>
<clipPath id="clip0_1943_2349">
<rect width="60" height="60" fill="white" transform="translate(5 5)"/>
</clipPath>
</defs>
</svg>
