<svg width="202" height="201" viewBox="0 0 202 201" fill="none" xmlns="http://www.w3.org/2000/svg">
<circle cx="0.628125" cy="0.628125" r="0.628125" transform="matrix(-0.844004 -0.536337 -0.536337 0.844004 45.8213 124.79)" fill="#30354C"/>
<circle cx="0.628125" cy="0.628125" r="0.628125" transform="matrix(-0.844004 -0.536337 -0.536337 0.844004 112.35 159.322)" fill="#30354C"/>
<circle cx="52.9069" cy="130.037" r="1.63437" transform="rotate(32.4346 52.9069 130.037)" stroke="#FF5F68" stroke-width="0.5"/>
<circle cx="53.1418" cy="120.883" r="1.57031" transform="rotate(32.4346 53.1418 120.883)" fill="#2CAAE6"/>
<circle cx="98.9016" cy="167.993" r="1.57031" transform="rotate(32.4346 98.9016 167.993)" fill="#2CAAE6"/>
<path fill-rule="evenodd" clip-rule="evenodd" d="M38.7005 134.837C40.9984 136.34 41.5783 139.559 39.9899 142.058L39.99 142.058L39.9901 142.058C41.5785 139.558 44.7383 138.717 47.0755 140.158C44.7777 138.655 44.1978 135.437 45.7862 132.937L45.7866 132.936C45.7866 132.936 45.7866 132.936 45.7866 132.936C45.7864 132.937 45.7862 132.937 45.786 132.937C44.1976 135.437 41.0377 136.279 38.7005 134.837Z" fill="#FD6036"/>
<path fill-rule="evenodd" clip-rule="evenodd" d="M119.125 165.904C121.419 167.409 121.997 170.625 120.41 173.122L120.41 173.122C122.001 170.62 125.167 169.779 127.505 171.229C125.207 169.733 124.619 166.525 126.191 164.025C124.599 166.505 121.455 167.338 119.125 165.904Z" fill="#3E20F5"/>
<path fill-rule="evenodd" clip-rule="evenodd" d="M106.172 172.881L106.172 172.881L106.172 172.881C107.216 173.544 107.492 174.983 106.8 176.111C107.523 175.012 108.93 174.649 109.971 175.295C108.933 174.62 108.67 173.168 109.386 172.041C109.386 172.041 109.386 172.041 109.386 172.041C108.665 173.175 107.226 173.551 106.172 172.881Z" fill="#CCFF00"/>
<path d="M72.4758 67.0605C88.0691 40.052 122.605 30.7982 149.613 46.3916C176.622 61.9849 185.875 96.5205 170.282 123.529C154.689 150.537 120.153 159.791 93.1447 144.198C66.1362 128.605 56.8825 94.0689 72.4758 67.0605Z" stroke="#30354C" stroke-width="5"/>
<mask id="mask0_301_391" style="mask-type:alpha" maskUnits="userSpaceOnUse" x="37" y="31" width="144" height="143">
<path d="M150.863 44.2264C122.659 27.9427 60.0703 24.579 43.7866 52.7832C27.5029 80.9874 44.4047 152.482 72.6089 168.765C100.813 185.049 156.164 152.983 172.447 124.779C188.731 96.5746 179.067 60.5101 150.863 44.2264Z" fill="#30354C"/>
</mask>
<g mask="url(#mask0_301_391)">
<path d="M187.554 59.817L162.716 53.1615C160.119 52.4658 157.451 54.0066 156.755 56.6028L140.776 116.237C140.08 118.833 141.621 121.502 144.217 122.198L169.056 128.853C171.652 129.549 174.321 128.008 175.017 125.412L190.996 65.7775C191.691 63.1813 190.15 60.5126 187.554 59.817Z" fill="#30354C"/>
<path d="M42.7131 95.0464C42.072 97.439 42.4076 99.9884 43.6461 102.134C44.8846 104.279 46.9246 105.844 49.3172 106.485L89.162 117.162C86.6516 121.136 84.4663 126.147 82.961 131.765C78.9344 146.793 81.2992 160.484 88.2434 162.345C90.4891 162.946 92.9456 162.227 95.3721 160.477C96.2724 159.832 96.9224 158.896 97.2123 157.827L101.03 143.578C101.517 141.763 102.583 140.157 104.066 139.004L121.148 125.737L138.206 112.481L138.584 111.068L153.09 56.9312L80.1264 37.3806C77.7334 36.7394 75.1838 37.0751 73.0383 38.3138C70.8928 39.5524 69.3273 41.5927 68.6861 43.9856C68.0449 46.3786 68.3806 48.9283 69.6193 51.0737C70.858 53.2192 72.8982 54.7848 75.2912 55.426L71.2015 54.3301C68.8086 53.6889 66.2589 54.0246 64.1134 55.2633C61.9679 56.502 60.4024 58.5422 59.7612 60.9352C59.12 63.3282 59.4557 65.8778 60.6944 68.0233C61.9331 70.1688 63.9733 71.7343 66.3663 72.3755L62.6821 71.3883C61.4971 71.0708 60.2612 70.9898 59.0449 71.15C57.8286 71.3102 56.6558 71.7084 55.5934 72.3218C54.5311 72.9353 53.5999 73.752 52.8532 74.7254C52.1065 75.6987 51.5588 76.8096 51.2415 77.9946C50.6017 80.3823 50.9345 82.9262 52.1671 85.0689C53.3996 87.2116 55.4313 88.7783 57.8169 89.4257L54.1515 88.4435C51.7591 87.8035 49.2105 88.1395 47.0657 89.3776C44.9209 90.6157 43.3554 92.6546 42.7131 95.0464Z" fill="#FF5F68"/>
</g>
<path fill-rule="evenodd" clip-rule="evenodd" d="M79.2628 164.981L77.2708 167.046L74.5332 166.569L74.5377 166.572L76.617 168.571L76.1439 171.311L76.1117 171.376L76.1119 171.376L76.1442 171.311L78.1365 169.245L80.8733 169.722L80.869 169.72L78.7898 167.721L79.2628 164.981Z" fill="#8800BD"/>
</svg>
