<svg id="a97aa23f-c988-402c-97c6-1f2a96f990bc" data-name="Capa 1" xmlns="http://www.w3.org/2000/svg" viewBox="0 0 1080 1080"><defs><style>.abb4f484-b960-449b-9d9a-e3b3b2b2dc7a{fill:#f6f6f6;}.e3d2d013-0170-44b2-9160-82050aa903d2{fill:#fff;}.bcd3ac03-4d1e-466f-a684-b711d2476081{fill:#989aa6;}.b714d587-6fe7-40fd-910a-7a01f077a6a4{fill:#2fc8f2;}.fe7816b6-b2f3-4471-b152-57708d7aed34{fill:#2caae6;}.a2a7d574-f712-4fda-b846-e8f8282f0c8d{fill:#282c3f;}.b9cc830d-b5c0-4d9a-9062-0a9b6818c112{fill:#e6e6e6;}.bcb48d2a-e40d-45e0-b28f-de2cd64fe56e{fill:#30354c;}.f6238702-b944-4c1b-b1b2-ca28895d26f1{fill:#52576a;}.e30a26ce-4eeb-4736-ba57-248c2d029c59{fill:#00b5f4;}</style></defs><title>ICONOS S2R</title><path class="abb4f484-b960-449b-9d9a-e3b3b2b2dc7a" d="M984.4,582.94c-7,74.19-110.51,112.56-150.34,169.16-41.1,58.39-44.15,169.61-108.5,199.48-62.37,28.95-146.61-40.43-219.81-47.5S336.89,949,281,908.62C223.42,867,241.16,757.18,211.69,692,183.13,628.75,88.62,571.25,95.6,497.06S206.11,384.5,245.94,327.9c41.1-58.39,44.15-169.61,108.5-199.48,62.37-28.95,146.61,40.43,219.81,47.5S743.11,131,799,171.38C856.58,213,838.84,322.82,868.31,388,896.87,451.25,991.38,508.75,984.4,582.94Z"/><polygon class="e3d2d013-0170-44b2-9160-82050aa903d2" points="126.63 733.61 126.63 806.86 168.49 806.86 168.49 733.61 199.88 733.61 147.56 660.35 95.23 733.61 126.63 733.61"/><path class="bcd3ac03-4d1e-466f-a684-b711d2476081" d="M168.49,812.09H126.63a5.23,5.23,0,0,1-5.23-5.23v-68H95.23A5.24,5.24,0,0,1,91,730.56l52.33-73.25a5.43,5.43,0,0,1,8.52,0l52.32,73.25a5.23,5.23,0,0,1-4.26,8.28H173.72v68A5.23,5.23,0,0,1,168.49,812.09Zm-36.63-10.46h31.4v-68a5.23,5.23,0,0,1,5.23-5.24h21.22l-42.15-59-42.16,59h21.23a5.23,5.23,0,0,1,5.23,5.24Z"/><polygon class="bcd3ac03-4d1e-466f-a684-b711d2476081" points="199.88 649.88 362.09 492.91 456.28 519.07 566.16 388.26 649.88 430.12 817.33 309.77 817.33 958.61 199.88 958.61 199.88 649.88"/><polygon class="b714d587-6fe7-40fd-910a-7a01f077a6a4" points="199.88 649.88 362.09 529.53 461.51 555.7 566.16 424.88 655.12 471.98 817.33 309.77 817.33 958.61 199.88 958.61 199.88 649.88"/><polygon class="fe7816b6-b2f3-4471-b152-57708d7aed34" points="199.88 691.75 362.09 587.09 461.51 597.56 566.16 492.91 655.12 524.3 817.33 388.26 817.33 958.61 199.88 958.61 199.88 691.75"/><path class="a2a7d574-f712-4fda-b846-e8f8282f0c8d" d="M817.33,963.84H199.88a5.23,5.23,0,0,1-5.23-5.23V649.88a5.25,5.25,0,0,1,2.12-4.2L359,525.34a5.11,5.11,0,0,1,4.44-.86l96.13,25.29L562.08,421.61a5.24,5.24,0,0,1,6.53-1.35l85.54,45.28L813.63,306.07a5.23,5.23,0,0,1,8.93,3.7V563a5.24,5.24,0,1,1-10.47,0V322.4L658.82,475.68a5.23,5.23,0,0,1-6.15.92l-85.13-45.06L465.6,559a5.23,5.23,0,0,1-5.42,1.79l-97-25.53L205.12,652.52V953.37h607v-359a5.24,5.24,0,0,1,10.47,0V958.61A5.23,5.23,0,0,1,817.33,963.84Z"/><path class="bcd3ac03-4d1e-466f-a684-b711d2476081" d="M984.77,963.84H95.23a5.24,5.24,0,0,1,0-10.47H984.77a5.24,5.24,0,0,1,0,10.47Z"/><path class="a2a7d574-f712-4fda-b846-e8f8282f0c8d" d="M199.88,503.37a5.23,5.23,0,0,1-5.23-5.23V309.77a5.24,5.24,0,0,1,10.47,0V498.14A5.24,5.24,0,0,1,199.88,503.37Z"/><path class="a2a7d574-f712-4fda-b846-e8f8282f0c8d" d="M880.12,963.84H199.88a5.23,5.23,0,0,1-5.23-5.23V529.54a5.24,5.24,0,1,1,10.47,0V953.37h675a5.24,5.24,0,0,1,0,10.47Z"/><polygon class="b9cc830d-b5c0-4d9a-9062-0a9b6818c112" points="199.88 827.79 320.67 734.91 424.88 775.47 508.61 655.12 618.49 691.75 712.67 560.93 859.19 607.75 859.19 958.61 199.88 958.61 199.88 827.79"/><polygon class="e3d2d013-0170-44b2-9160-82050aa903d2" points="199.88 827.79 320.67 734.91 424.88 775.47 508.61 655.12 618.49 691.75 712.67 560.93 859.19 607.75 859.19 880.12 199.88 937.67 199.88 827.79"/><rect class="bcd3ac03-4d1e-466f-a684-b711d2476081" x="495.52" y="691.74" width="26.16" height="266.86"/><rect class="bcd3ac03-4d1e-466f-a684-b711d2476081" x="699.59" y="597.56" width="26.16" height="361.05"/><path class="a2a7d574-f712-4fda-b846-e8f8282f0c8d" d="M859.19,963.84H199.88a5.23,5.23,0,0,1-5.23-5.23V827.79a5.21,5.21,0,0,1,2-4.15l120.78-92.88a5.24,5.24,0,0,1,5.09-.73l30.95,12.05a5.23,5.23,0,1,1-3.79,9.75l-28.21-11-116.4,89.51v123H854V611.57L714.7,567.07l-92,127.73a5.19,5.19,0,0,1-5.9,1.91L510.66,661.32,429.18,778.46a5.25,5.25,0,0,1-6.19,1.88L378.51,763a5.23,5.23,0,1,1,3.8-9.75l40.63,15.81,81.37-117a5.21,5.21,0,0,1,5.95-2l106.23,35.4,91.94-127.68a5.2,5.2,0,0,1,5.84-1.93l146.51,46.81a5.23,5.23,0,0,1,3.64,5V958.61A5.23,5.23,0,0,1,859.19,963.84Z"/><circle class="bcb48d2a-e40d-45e0-b28f-de2cd64fe56e" cx="712.67" cy="560.93" r="36.63"/><circle class="bcb48d2a-e40d-45e0-b28f-de2cd64fe56e" cx="508.6" cy="655.12" r="36.63"/><circle class="bcb48d2a-e40d-45e0-b28f-de2cd64fe56e" cx="362.09" cy="529.54" r="36.63"/><circle class="bcb48d2a-e40d-45e0-b28f-de2cd64fe56e" cx="566.16" cy="424.88" r="36.63"/><path class="f6238702-b944-4c1b-b1b2-ca28895d26f1" d="M728.37,540a36.46,36.46,0,0,1,16.82,4.11,36.61,36.61,0,1,0-49.34,49.34A36.6,36.6,0,0,1,728.37,540Z"/><path class="f6238702-b944-4c1b-b1b2-ca28895d26f1" d="M524.3,634.19a36.34,36.34,0,0,1,16.82,4.11,36.61,36.61,0,1,0-49.33,49.33,36.58,36.58,0,0,1,32.51-53.44Z"/><path class="f6238702-b944-4c1b-b1b2-ca28895d26f1" d="M377.79,508.61a36.34,36.34,0,0,1,16.82,4.11,36.61,36.61,0,1,0-49.34,49.33,36.59,36.59,0,0,1,32.52-53.44Z"/><path class="f6238702-b944-4c1b-b1b2-ca28895d26f1" d="M581.86,404a36.34,36.34,0,0,1,16.82,4.12,36.62,36.62,0,1,0-49.34,49.33A36.6,36.6,0,0,1,581.86,404Z"/><path class="a2a7d574-f712-4fda-b846-e8f8282f0c8d" d="M712.67,602.79a41.86,41.86,0,1,1,41.86-41.86A41.91,41.91,0,0,1,712.67,602.79Zm0-73.25a31.4,31.4,0,1,0,31.4,31.39A31.42,31.42,0,0,0,712.67,529.54Z"/><path class="a2a7d574-f712-4fda-b846-e8f8282f0c8d" d="M508.6,697a41.86,41.86,0,1,1,41.87-41.86A41.91,41.91,0,0,1,508.6,697Zm0-73.26a31.4,31.4,0,1,0,31.4,31.4A31.43,31.43,0,0,0,508.6,623.72Z"/><path class="a2a7d574-f712-4fda-b846-e8f8282f0c8d" d="M362.09,571.4A41.86,41.86,0,1,1,404,529.54,41.91,41.91,0,0,1,362.09,571.4Zm0-73.26a31.4,31.4,0,1,0,31.4,31.4A31.43,31.43,0,0,0,362.09,498.14Z"/><path class="a2a7d574-f712-4fda-b846-e8f8282f0c8d" d="M566.16,466.74A41.86,41.86,0,1,1,608,424.88,41.9,41.9,0,0,1,566.16,466.74Zm0-73.25a31.4,31.4,0,1,0,31.4,31.39A31.42,31.42,0,0,0,566.16,393.49Z"/><polygon class="e3d2d013-0170-44b2-9160-82050aa903d2" points="257.44 262.68 257.44 335.93 299.3 335.93 299.3 262.68 330.7 262.68 278.37 189.42 226.05 262.68 257.44 262.68"/><path class="bcd3ac03-4d1e-466f-a684-b711d2476081" d="M299.3,341.16H257.44a5.23,5.23,0,0,1-5.23-5.23v-68H226.05a5.23,5.23,0,0,1-4.26-8.28l52.32-73.25a5.43,5.43,0,0,1,8.52,0L335,259.63a5.24,5.24,0,0,1-4.26,8.28H304.53v68A5.23,5.23,0,0,1,299.3,341.16ZM262.67,330.7h31.4v-68a5.23,5.23,0,0,1,5.23-5.24h21.23l-42.16-59-42.15,59h21.22a5.23,5.23,0,0,1,5.23,5.24Z"/><polygon class="e3d2d013-0170-44b2-9160-82050aa903d2" points="445.81 315 445.81 388.26 487.67 388.26 487.67 315 519.07 315 466.74 241.75 414.42 315 445.81 315"/><path class="bcd3ac03-4d1e-466f-a684-b711d2476081" d="M487.67,393.49H445.81a5.23,5.23,0,0,1-5.23-5.23v-68H414.42a5.23,5.23,0,0,1-4.26-8.27l52.32-73.26a5.44,5.44,0,0,1,8.52,0L523.33,312a5.23,5.23,0,0,1-4.26,8.27H492.91v68A5.24,5.24,0,0,1,487.67,393.49ZM451.05,383h31.39V315a5.23,5.23,0,0,1,5.23-5.23H508.9l-42.16-59-42.15,59h21.22a5.24,5.24,0,0,1,5.24,5.23Z"/><polygon class="e3d2d013-0170-44b2-9160-82050aa903d2" points="623.72 194.59 623.72 267.9 665.58 267.9 665.58 194.59 696.98 194.59 644.65 121.27 592.33 194.59 623.72 194.59"/><path class="bcd3ac03-4d1e-466f-a684-b711d2476081" d="M665.58,273.14H623.72a5.23,5.23,0,0,1-5.23-5.24V199.82H592.33a5.22,5.22,0,0,1-4.26-8.27l52.32-73.32a5.42,5.42,0,0,1,8.52,0l52.33,73.32a5.23,5.23,0,0,1-4.26,8.27H670.81V267.9A5.23,5.23,0,0,1,665.58,273.14ZM629,262.66h31.4V194.59a5.23,5.23,0,0,1,5.23-5.24h21.23l-42.16-59.07-42.16,59.07h21.23a5.23,5.23,0,0,1,5.23,5.24Z"/><polygon class="e3d2d013-0170-44b2-9160-82050aa903d2" points="911.51 466.75 911.51 540 953.37 540 953.37 466.75 984.77 466.75 932.44 393.49 880.12 466.75 911.51 466.75"/><path class="bcd3ac03-4d1e-466f-a684-b711d2476081" d="M953.37,545.23H911.51a5.23,5.23,0,0,1-5.23-5.23V472H880.12a5.23,5.23,0,0,1-4.26-8.28l52.32-73.25a5.43,5.43,0,0,1,8.52,0L989,463.7a5.24,5.24,0,0,1-4.26,8.28H958.6v68A5.23,5.23,0,0,1,953.37,545.23Zm-36.63-10.46h31.4v-68a5.23,5.23,0,0,1,5.23-5.23H974.6l-42.16-59-42.15,59h21.22a5.23,5.23,0,0,1,5.23,5.23Z"/><path class="e30a26ce-4eeb-4736-ba57-248c2d029c59" d="M472,833H414.42a5.23,5.23,0,0,1,0-10.46H472A5.23,5.23,0,0,1,472,833Z"/><path class="e30a26ce-4eeb-4736-ba57-248c2d029c59" d="M388.26,833H346.4a5.23,5.23,0,1,1,0-10.46h41.86a5.23,5.23,0,0,1,0,10.46Z"/><path class="e30a26ce-4eeb-4736-ba57-248c2d029c59" d="M472,864.42H346.4a5.24,5.24,0,1,1,0-10.47H472a5.24,5.24,0,0,1,0,10.47Z"/><path class="e30a26ce-4eeb-4736-ba57-248c2d029c59" d="M414.42,895.81h-68a5.23,5.23,0,1,1,0-10.46h68a5.23,5.23,0,0,1,0,10.46Z"/><path class="e30a26ce-4eeb-4736-ba57-248c2d029c59" d="M676.05,770.23H608a5.23,5.23,0,0,1,0-10.46h68a5.23,5.23,0,0,1,0,10.46Z"/><path class="e30a26ce-4eeb-4736-ba57-248c2d029c59" d="M581.86,770.23H550.47a5.23,5.23,0,1,1,0-10.46h31.39a5.23,5.23,0,1,1,0,10.46Z"/><path class="e30a26ce-4eeb-4736-ba57-248c2d029c59" d="M618.49,801.63h-68a5.24,5.24,0,1,1,0-10.47h68a5.24,5.24,0,0,1,0,10.47Z"/><path class="e30a26ce-4eeb-4736-ba57-248c2d029c59" d="M644.65,833H550.47a5.23,5.23,0,1,1,0-10.46h94.18a5.23,5.23,0,1,1,0,10.46Z"/></svg>