<svg id="bb703188-36da-440d-8f84-99ca42384d2f" data-name="Capa 1" xmlns="http://www.w3.org/2000/svg" viewBox="0 0 1080 1080"><defs><style>.b7b5bd5c-bbb8-44ef-a3b3-3f9a0bc2de6e{fill:#f6f6f6;}.bded883a-5ef6-463c-ac29-7172ac0cfc99{fill:#989aa6;}.f8cc9288-3fea-46e0-bdcf-f71500a078de{fill:#b8b5c6;}.b0907fb6-a31b-42f8-a032-0399d1ae2dd0{fill:#fff;}.a02bbb5e-3498-4e3f-af0b-ef9efeb4d0e1{fill:#34234d;}.a4f3e2f0-7bf9-4545-8e6d-5b42bc53b286{fill:#282c3f;}.e0727f70-83f4-4770-a1d7-6141878ebf72{fill:#30354c;}.a36a546c-ab0f-432c-973c-b9e836e9581d{fill:#52576a;}.ac5e8142-3b15-46de-8cb0-f83bb2d69fe7{fill:#2caae6;}.b1677e9c-89c8-4e0e-a0cf-d28a2b049b10{fill:#2fc8f2;}</style></defs><title>ICONS S2R</title><path class="b7b5bd5c-bbb8-44ef-a3b3-3f9a0bc2de6e" d="M879.44,594.94c10.56-64.16,83.15-139.68,58.33-204.86s-129.49-73.89-180.15-115c-52.26-42.39-82.67-142-149.21-152.8-64.5-10.51-124.71,73.15-190.23,97.84s-166.34,1.73-207.65,52.12c-42.61,52,.93,146.6-10,212.8C190,549.22,117.41,624.74,142.23,689.92s129.49,73.89,180.15,115c52.26,42.39,82.67,142,149.21,152.8,64.5,10.51,124.71-73.15,190.23-97.84s166.34-1.73,207.65-52.12C912.08,755.75,868.54,661.14,879.44,594.94Z"/><path class="bded883a-5ef6-463c-ac29-7172ac0cfc99" d="M984.77,963.84H95.23a5.24,5.24,0,0,1,0-10.47H984.77a5.24,5.24,0,0,1,0,10.47Z"/><path class="f8cc9288-3fea-46e0-bdcf-f71500a078de" d="M241.74,341.16H775.47A41.86,41.86,0,0,1,817.33,383V812.09a0,0,0,0,1,0,0H199.88a0,0,0,0,1,0,0V383A41.86,41.86,0,0,1,241.74,341.16Z"/><rect class="b0907fb6-a31b-42f8-a032-0399d1ae2dd0" x="199.88" y="398.72" width="617.44" height="413.37"/><path class="a02bbb5e-3498-4e3f-af0b-ef9efeb4d0e1" d="M199.88,472a5.24,5.24,0,0,1-5.23-5.24V383a47.15,47.15,0,0,1,47.09-47.09H524.3a5.24,5.24,0,0,1,0,10.47H241.74A36.66,36.66,0,0,0,205.12,383v83.72A5.24,5.24,0,0,1,199.88,472Z"/><path class="a4f3e2f0-7bf9-4545-8e6d-5b42bc53b286" d="M817.33,817.33H199.88a5.24,5.24,0,0,1-5.23-5.24v-314a5.24,5.24,0,0,1,10.47,0V806.86h607V383a36.66,36.66,0,0,0-36.62-36.62H555.7a5.24,5.24,0,0,1,0-10.47H775.47A47.15,47.15,0,0,1,822.56,383V812.09A5.24,5.24,0,0,1,817.33,817.33Z"/><rect class="e0727f70-83f4-4770-a1d7-6141878ebf72" x="409.19" y="885.35" width="198.84" height="73.26"/><path class="a4f3e2f0-7bf9-4545-8e6d-5b42bc53b286" d="M608,963.84H409.19A5.24,5.24,0,0,1,404,958.6V885.35a5.23,5.23,0,0,1,5.24-5.23H608a5.23,5.23,0,0,1,5.24,5.23V958.6A5.24,5.24,0,0,1,608,963.84Zm-193.6-10.47H602.79V890.58H414.42Z"/><path class="a36a546c-ab0f-432c-973c-b9e836e9581d" d="M199.88,812.09H817.33a0,0,0,0,1,0,0v31.4a41.86,41.86,0,0,1-41.86,41.86H241.74a41.86,41.86,0,0,1-41.86-41.86v-31.4A0,0,0,0,1,199.88,812.09Z"/><path class="a4f3e2f0-7bf9-4545-8e6d-5b42bc53b286" d="M775.47,890.58H676.05a5.23,5.23,0,1,1,0-10.46h99.42a36.67,36.67,0,0,0,36.62-36.63V817.33h-607v41.86a21,21,0,0,0,20.93,20.93h418.6a5.23,5.23,0,0,1,0,10.46H226.05a31.43,31.43,0,0,1-31.4-31.39v-47.1a5.23,5.23,0,0,1,5.23-5.23H817.33a5.23,5.23,0,0,1,5.23,5.23v31.4A47.15,47.15,0,0,1,775.47,890.58Z"/><path class="a4f3e2f0-7bf9-4545-8e6d-5b42bc53b286" d="M707.44,963.84H309.77a5.24,5.24,0,0,1,0-10.47H707.44a5.24,5.24,0,0,1,0,10.47Z"/><path class="b0907fb6-a31b-42f8-a032-0399d1ae2dd0" d="M540,859.19H477.21a10.47,10.47,0,1,1,0-20.93H540a10.47,10.47,0,1,1,0,20.93Z"/><rect class="a36a546c-ab0f-432c-973c-b9e836e9581d" x="555.7" y="278.37" width="324.42" height="460.46" rx="41.86"/><rect class="e0727f70-83f4-4770-a1d7-6141878ebf72" x="555.7" y="330.7" width="324.42" height="408.14" rx="41.86"/><rect class="f8cc9288-3fea-46e0-bdcf-f71500a078de" x="555.7" y="330.7" width="324.42" height="355.81" rx="41.86"/><rect class="b0907fb6-a31b-42f8-a032-0399d1ae2dd0" x="555.7" y="330.7" width="324.42" height="355.81" rx="41.86"/><path class="a4f3e2f0-7bf9-4545-8e6d-5b42bc53b286" d="M838.26,691.74H597.56a47.14,47.14,0,0,1-47.09-47.09V372.56a47.14,47.14,0,0,1,47.09-47.09h240.7a47.14,47.14,0,0,1,47.09,47.09V644.65A47.14,47.14,0,0,1,838.26,691.74ZM597.56,335.93a36.67,36.67,0,0,0-36.63,36.63V644.65a36.67,36.67,0,0,0,36.63,36.63h240.7a36.67,36.67,0,0,0,36.62-36.63V372.56a36.67,36.67,0,0,0-36.62-36.63Z"/><path class="f8cc9288-3fea-46e0-bdcf-f71500a078de" d="M364.05,737.79A31.4,31.4,0,0,1,347,680L725.13,436.17a31.4,31.4,0,0,1,34,52.77L381,732.78A31.3,31.3,0,0,1,364.05,737.79Z"/><polygon class="f8cc9288-3fea-46e0-bdcf-f71500a078de" points="423.22 757.63 273.14 765 341.78 631.34 423.22 757.63"/><polygon class="f8cc9288-3fea-46e0-bdcf-f71500a078de" points="764.39 537.62 833.02 403.95 682.95 411.33 764.39 537.62"/><path class="ac5e8142-3b15-46de-8cb0-f83bb2d69fe7" d="M348.35,727.33a31.4,31.4,0,0,1-17-57.78L709.43,425.71a31.4,31.4,0,0,1,34,52.77L365.34,722.32A31.3,31.3,0,0,1,348.35,727.33Z"/><polygon class="ac5e8142-3b15-46de-8cb0-f83bb2d69fe7" points="407.52 747.17 257.44 754.53 326.08 620.87 407.52 747.17"/><polygon class="ac5e8142-3b15-46de-8cb0-f83bb2d69fe7" points="748.69 527.16 817.33 393.49 667.25 400.87 748.69 527.16"/><polygon class="b1677e9c-89c8-4e0e-a0cf-d28a2b049b10" points="817.33 393.49 667.25 400.87 690.95 437.62 349.78 657.63 326.08 620.87 257.44 754.53 817.33 393.49"/><rect class="b0907fb6-a31b-42f8-a032-0399d1ae2dd0" x="524.3" y="456.28" width="62.79" height="209.3"/><path class="a4f3e2f0-7bf9-4545-8e6d-5b42bc53b286" d="M838.26,744.07H597.56A47.14,47.14,0,0,1,550.47,697V320.23a47.14,47.14,0,0,1,47.09-47.09h240.7a47.15,47.15,0,0,1,47.09,47.09V697A47.15,47.15,0,0,1,838.26,744.07ZM597.56,283.6a36.68,36.68,0,0,0-36.63,36.63V697a36.67,36.67,0,0,0,36.63,36.62h240.7A36.66,36.66,0,0,0,874.88,697V320.23a36.67,36.67,0,0,0-36.62-36.63Z"/><circle class="b0907fb6-a31b-42f8-a032-0399d1ae2dd0" cx="717.91" cy="712.67" r="10.47"/><circle class="b0907fb6-a31b-42f8-a032-0399d1ae2dd0" cx="796.4" cy="712.67" r="10.47"/><circle class="b0907fb6-a31b-42f8-a032-0399d1ae2dd0" cx="785.93" cy="304.54" r="10.47"/><circle class="b0907fb6-a31b-42f8-a032-0399d1ae2dd0" cx="639.42" cy="712.67" r="10.47"/><path class="b0907fb6-a31b-42f8-a032-0399d1ae2dd0" d="M754.53,312.38H681.28a7.85,7.85,0,1,1,0-15.69h73.25a7.85,7.85,0,1,1,0,15.69Z"/><circle class="b0907fb6-a31b-42f8-a032-0399d1ae2dd0" cx="241.74" cy="372.56" r="7.85"/><circle class="b0907fb6-a31b-42f8-a032-0399d1ae2dd0" cx="278.37" cy="372.56" r="7.85"/><circle class="b0907fb6-a31b-42f8-a032-0399d1ae2dd0" cx="315" cy="372.56" r="7.85"/><path class="bded883a-5ef6-463c-ac29-7172ac0cfc99" d="M880.12,885.35a5.23,5.23,0,0,1-3.7-8.93l15.69-15.7a5.23,5.23,0,0,1,7.4,7.4l-15.69,15.7A5.23,5.23,0,0,1,880.12,885.35Z"/><path class="bded883a-5ef6-463c-ac29-7172ac0cfc99" d="M843.49,922a5.24,5.24,0,0,1-3.7-8.94l15.7-15.69a5.23,5.23,0,1,1,7.4,7.4l-15.7,15.69A5.19,5.19,0,0,1,843.49,922Z"/><path class="bded883a-5ef6-463c-ac29-7172ac0cfc99" d="M895.81,922a5.2,5.2,0,0,1-3.7-1.54l-15.69-15.69a5.23,5.23,0,1,1,7.4-7.4L899.51,913a5.24,5.24,0,0,1-3.7,8.94Z"/><path class="bded883a-5ef6-463c-ac29-7172ac0cfc99" d="M859.19,885.35a5.22,5.22,0,0,1-3.7-1.53l-15.7-15.7a5.23,5.23,0,0,1,7.4-7.4l15.7,15.7a5.23,5.23,0,0,1-3.7,8.93Z"/><path class="bded883a-5ef6-463c-ac29-7172ac0cfc99" d="M131.86,451.05a5.19,5.19,0,0,1-3.7-1.54,5.24,5.24,0,0,1,0-7.4l15.7-15.69a5.23,5.23,0,0,1,7.4,7.4l-15.7,15.69A5.19,5.19,0,0,1,131.86,451.05Z"/><path class="bded883a-5ef6-463c-ac29-7172ac0cfc99" d="M95.23,487.67a5.23,5.23,0,0,1-3.7-8.93l15.7-15.7a5.23,5.23,0,1,1,7.4,7.4l-15.7,15.7A5.22,5.22,0,0,1,95.23,487.67Z"/><path class="bded883a-5ef6-463c-ac29-7172ac0cfc99" d="M147.56,487.67a5.22,5.22,0,0,1-3.7-1.53l-15.7-15.7a5.23,5.23,0,0,1,7.4-7.4l15.7,15.7a5.23,5.23,0,0,1-3.7,8.93Z"/><path class="bded883a-5ef6-463c-ac29-7172ac0cfc99" d="M110.93,451.05a5.19,5.19,0,0,1-3.7-1.54l-15.7-15.69a5.23,5.23,0,0,1,7.4-7.4l15.7,15.69a5.24,5.24,0,0,1,0,7.4A5.19,5.19,0,0,1,110.93,451.05Z"/><path class="bded883a-5ef6-463c-ac29-7172ac0cfc99" d="M278.37,210.35a5.23,5.23,0,0,1-3.7-8.93l15.7-15.7a5.23,5.23,0,0,1,7.4,7.4l-15.7,15.7A5.22,5.22,0,0,1,278.37,210.35Z"/><path class="bded883a-5ef6-463c-ac29-7172ac0cfc99" d="M241.74,247A5.24,5.24,0,0,1,238,238l15.7-15.69a5.23,5.23,0,0,1,7.4,7.4l-15.7,15.69A5.19,5.19,0,0,1,241.74,247Z"/><path class="bded883a-5ef6-463c-ac29-7172ac0cfc99" d="M294.07,247a5.19,5.19,0,0,1-3.7-1.54l-15.7-15.69a5.23,5.23,0,0,1,7.4-7.4L297.77,238a5.24,5.24,0,0,1,0,7.4A5.19,5.19,0,0,1,294.07,247Z"/><path class="bded883a-5ef6-463c-ac29-7172ac0cfc99" d="M257.44,210.35a5.22,5.22,0,0,1-3.7-1.53L238,193.12a5.23,5.23,0,0,1,7.4-7.4l15.7,15.7a5.23,5.23,0,0,1-3.7,8.93Z"/><path class="bded883a-5ef6-463c-ac29-7172ac0cfc99" d="M158,791.16a5.23,5.23,0,0,1-3.7-8.93l15.7-15.7a5.23,5.23,0,0,1,7.4,7.4l-15.7,15.7A5.22,5.22,0,0,1,158,791.16Z"/><path class="bded883a-5ef6-463c-ac29-7172ac0cfc99" d="M121.4,827.79a5.23,5.23,0,0,1-3.7-8.93l15.69-15.7a5.23,5.23,0,1,1,7.4,7.4l-15.7,15.7A5.21,5.21,0,0,1,121.4,827.79Z"/><path class="bded883a-5ef6-463c-ac29-7172ac0cfc99" d="M173.72,827.79a5.22,5.22,0,0,1-3.7-1.53l-15.7-15.7a5.23,5.23,0,1,1,7.4-7.4l15.7,15.7a5.23,5.23,0,0,1-3.7,8.93Z"/><path class="bded883a-5ef6-463c-ac29-7172ac0cfc99" d="M137.09,791.16a5.23,5.23,0,0,1-3.7-1.53l-15.69-15.7a5.23,5.23,0,0,1,7.39-7.4l15.7,15.7a5.23,5.23,0,0,1-3.7,8.93Z"/><path class="bded883a-5ef6-463c-ac29-7172ac0cfc99" d="M765,142.33a5.24,5.24,0,0,1-3.7-8.94L777,117.7a5.23,5.23,0,1,1,7.4,7.39l-15.7,15.7A5.23,5.23,0,0,1,765,142.33Z"/><path class="bded883a-5ef6-463c-ac29-7172ac0cfc99" d="M728.37,179a5.23,5.23,0,0,1-3.7-8.93l15.7-15.7a5.23,5.23,0,0,1,7.4,7.4l-15.7,15.7A5.22,5.22,0,0,1,728.37,179Z"/><path class="bded883a-5ef6-463c-ac29-7172ac0cfc99" d="M780.7,179a5.22,5.22,0,0,1-3.7-1.53l-15.7-15.7a5.23,5.23,0,1,1,7.4-7.4L784.4,170a5.23,5.23,0,0,1-3.7,8.93Z"/><path class="bded883a-5ef6-463c-ac29-7172ac0cfc99" d="M744.07,142.33a5.23,5.23,0,0,1-3.7-1.54l-15.7-15.7a5.23,5.23,0,0,1,7.4-7.39l15.7,15.69a5.24,5.24,0,0,1-3.7,8.94Z"/><path class="bded883a-5ef6-463c-ac29-7172ac0cfc99" d="M456.28,267.91a5.24,5.24,0,0,1-3.7-8.93l15.7-15.7a5.23,5.23,0,1,1,7.4,7.4L460,266.37A5.19,5.19,0,0,1,456.28,267.91Z"/><path class="bded883a-5ef6-463c-ac29-7172ac0cfc99" d="M419.65,304.54a5.24,5.24,0,0,1-3.7-8.94l15.7-15.69a5.23,5.23,0,1,1,7.4,7.39L423.35,303A5.23,5.23,0,0,1,419.65,304.54Z"/><path class="bded883a-5ef6-463c-ac29-7172ac0cfc99" d="M472,304.54a5.23,5.23,0,0,1-3.7-1.54l-15.7-15.7a5.23,5.23,0,1,1,7.4-7.39l15.7,15.69a5.24,5.24,0,0,1-3.7,8.94Z"/><path class="bded883a-5ef6-463c-ac29-7172ac0cfc99" d="M435.35,267.91a5.19,5.19,0,0,1-3.7-1.54L416,250.68a5.23,5.23,0,1,1,7.4-7.4l15.7,15.7a5.24,5.24,0,0,1-3.7,8.93Z"/><path class="bded883a-5ef6-463c-ac29-7172ac0cfc99" d="M969.07,587.09a5.23,5.23,0,0,1-3.7-8.93l15.7-15.7a5.23,5.23,0,0,1,7.4,7.4l-15.7,15.7A5.22,5.22,0,0,1,969.07,587.09Z"/><path class="bded883a-5ef6-463c-ac29-7172ac0cfc99" d="M932.44,623.72a5.23,5.23,0,0,1-3.7-8.93l15.7-15.7a5.23,5.23,0,1,1,7.4,7.4l-15.7,15.7A5.22,5.22,0,0,1,932.44,623.72Z"/><path class="bded883a-5ef6-463c-ac29-7172ac0cfc99" d="M984.77,623.72a5.22,5.22,0,0,1-3.7-1.53l-15.7-15.7a5.23,5.23,0,1,1,7.4-7.4l15.7,15.7a5.23,5.23,0,0,1-3.7,8.93Z"/><path class="bded883a-5ef6-463c-ac29-7172ac0cfc99" d="M948.14,587.09a5.22,5.22,0,0,1-3.7-1.53l-15.7-15.7a5.23,5.23,0,0,1,7.4-7.4l15.7,15.7a5.23,5.23,0,0,1-3.7,8.93Z"/></svg>