<svg id="e3444a3d-fad2-4891-aba8-726b756231b7" data-name="Capa 1" xmlns="http://www.w3.org/2000/svg" viewBox="0 0 1080 1080"><defs><style>.b560506f-7383-48b2-9a13-08c54ecc97f9{fill:#f6f6f6;}.a89e2ea1-d118-40a8-aeab-002e62f8ab6c{fill:#fff;}.bceb09cc-a329-411d-858f-c0b7db2dce3a{fill:#989aa6;}.e8a1fe93-4d45-4776-bc20-95d083943513{fill:#282c3f;}.e5aa09ce-6fff-4c9d-a5f9-e8d99d35dcfe{fill:#52576a;}.b9edf80d-4ea0-408d-850d-4cb26e7bd015{fill:#30354c;}.fa1d2096-8fbd-457f-8f9e-cb06fd938a92{fill:#ededed;}.a2b32d93-b9a8-4f9a-93eb-06afb55bda78{fill:#b8b5c6;}.e231793a-6d8e-46c1-ac73-2404c8d7f535{fill:none;}.abcaf3e9-3080-4a07-8419-7dca2b2f2ad8{fill:#34234d;}.ae5c1744-dbed-475d-9c5d-ca57441000a9{fill:#2fc8f2;}.a1610f66-4966-4a3c-ae33-8e92fc9a86be{fill:#2caae6;}.f9c7bcf1-5bde-4870-bf06-09fded5e291e{fill:#a09cad;}</style></defs><title>ICONS S2R</title><path class="b560506f-7383-48b2-9a13-08c54ecc97f9" d="M878.67,419.32c-24-65.64,2.53-170.67-51.36-215.74-52.24-43.69-151.55-1.05-223.74-13.86s-150.3-86.93-214.64-63.93c-66.38,23.74-78.44,131.34-124,184.62-44.18,51.66-150.2,80.45-163.16,151.83s76.33,134.82,99.59,198.44c24,65.64-2.53,170.67,51.36,215.74,52.24,43.69,151.55,1.05,223.74,13.86s150.3,86.93,214.64,63.93c66.38-23.74,78.44-131.34,124-184.62,44.18-51.66,150.2-80.45,163.16-151.83S901.93,482.94,878.67,419.32Z"/><path class="a89e2ea1-d118-40a8-aeab-002e62f8ab6c" d="M248.63,468a17.33,17.33,0,0,0-26.75-21.37,31.27,31.27,0,1,0-61.73,9.81,25.5,25.5,0,0,0-5.42-.59,26.36,26.36,0,0,0,0,52.71h90A20.47,20.47,0,0,0,248.63,468Z"/><path class="bceb09cc-a329-411d-858f-c0b7db2dce3a" d="M244.75,513.84h-90a31.59,31.59,0,0,1-.37-63.18,36.5,36.5,0,0,1,70.9-12.17,22.58,22.58,0,0,1,30.85,21,22.3,22.3,0,0,1-.63,5.28,25.7,25.7,0,0,1-10.73,49.05Zm-90-52.72a21.13,21.13,0,0,0,0,42.25h90a15.23,15.23,0,0,0,2.89-30.19,5.23,5.23,0,0,1-3.57-7.72,11.86,11.86,0,0,0,1.58-5.95,12.11,12.11,0,0,0-20.26-9,5.23,5.23,0,0,1-8.7-3.2,26,26,0,1,0-51.4,8.18,5.23,5.23,0,0,1-6.23,6.07A21,21,0,0,0,154.73,461.12Z"/><path class="a89e2ea1-d118-40a8-aeab-002e62f8ab6c" d="M745.12,168.35a16.75,16.75,0,0,0-25.85-20.65,30.21,30.21,0,0,0-60.16,3.92,30.71,30.71,0,0,0,.53,5.55,24.92,24.92,0,0,0-5.22-.56,25.46,25.46,0,1,0,0,50.92h87a19.77,19.77,0,0,0,3.75-39.18Z"/><path class="bceb09cc-a329-411d-858f-c0b7db2dce3a" d="M741.37,212.76h-87a30.69,30.69,0,0,1-.54-61.38,35.44,35.44,0,0,1,68.77-11.81A22,22,0,0,1,752,165.1a25,25,0,0,1-10.58,47.66Zm-87-50.92a20.23,20.23,0,1,0,0,40.46h87a14.54,14.54,0,0,0,2.76-28.81,5.25,5.25,0,0,1-3.57-7.72,11.42,11.42,0,0,0,1.5-5.67,11.51,11.51,0,0,0-19.27-8.52,5.24,5.24,0,0,1-8.71-3.21,25,25,0,1,0-49.29,7.85,5.23,5.23,0,0,1-6.24,6.07A19.7,19.7,0,0,0,654.42,161.84Z"/><path class="a89e2ea1-d118-40a8-aeab-002e62f8ab6c" d="M841.18,368a15.87,15.87,0,0,1,24.5-19.56,28.62,28.62,0,1,1,56.5,9,23.75,23.75,0,0,1,5-.53,24.13,24.13,0,1,1,0,48.25H844.74A18.73,18.73,0,0,1,841.18,368Z"/><path class="bceb09cc-a329-411d-858f-c0b7db2dce3a" d="M927.14,410.39h-82.4A24,24,0,0,1,834.4,364.8a20.74,20.74,0,0,1-.51-4.58,21.12,21.12,0,0,1,28.42-19.82,33.86,33.86,0,0,1,65.6,11.28,29.36,29.36,0,0,1-.77,58.71ZM855,349.56a10.66,10.66,0,0,0-10.65,10.66,10.47,10.47,0,0,0,1.38,5.24,5.22,5.22,0,0,1-3.57,7.71,13.5,13.5,0,0,0,2.57,26.76h82.4a18.89,18.89,0,1,0-3.88-37.37,5.27,5.27,0,0,1-4.74-1.38,5.21,5.21,0,0,1-1.48-4.71,23.75,23.75,0,0,0,.41-4.29,23.39,23.39,0,0,0-46.59-3,5.23,5.23,0,0,1-8.71,3.2A10.58,10.58,0,0,0,855,349.56Z"/><path class="a89e2ea1-d118-40a8-aeab-002e62f8ab6c" d="M964.83,680.88a20.83,20.83,0,0,0-32.15-25.68A37.56,37.56,0,1,0,858.52,667a31.06,31.06,0,0,0-6.51-.7,31.67,31.67,0,0,0,0,63.33H960.16a24.59,24.59,0,0,0,4.67-48.73Z"/><path class="bceb09cc-a329-411d-858f-c0b7db2dce3a" d="M960.16,734.85H852A36.91,36.91,0,0,1,852,661h.62c0-.33,0-.66,0-1a42.81,42.81,0,0,1,83.5-13.29,26.06,26.06,0,0,1,35.7,30.79,29.82,29.82,0,0,1-11.66,57.28ZM852,671.51a26.44,26.44,0,0,0,0,52.87H960.16A19.36,19.36,0,0,0,963.84,686a5.23,5.23,0,0,1-3.56-7.72,15.43,15.43,0,0,0,2-7.67,15.59,15.59,0,0,0-26.1-11.56,5.23,5.23,0,0,1-8.71-3.2,32.34,32.34,0,0,0-64.4,4.2,31.86,31.86,0,0,0,.58,5.95,5.24,5.24,0,0,1-6.24,6.08A26.2,26.2,0,0,0,852,671.51Z"/><path class="a89e2ea1-d118-40a8-aeab-002e62f8ab6c" d="M353.19,248.86a20.28,20.28,0,0,1-2.67-10.08,20.49,20.49,0,0,1,34.27-15.18,36.94,36.94,0,1,1,72.93,11.59,30.68,30.68,0,0,1,6.4-.69,31.14,31.14,0,0,1,0,62.28H357.77a24.18,24.18,0,0,1-4.58-47.92Z"/><path class="bceb09cc-a329-411d-858f-c0b7db2dce3a" d="M464.12,302H357.77a29.41,29.41,0,0,1-11.56-56.46,25.35,25.35,0,0,1-.92-6.77,25.73,25.73,0,0,1,36.07-23.57,42.18,42.18,0,0,1,82.25,13.18c0,.3,0,.59,0,.88h.52a36.37,36.37,0,1,1,0,72.74ZM371,223.5a15.28,15.28,0,0,0-13.3,22.78,5.22,5.22,0,0,1-3.56,7.72,18.95,18.95,0,0,0,3.6,37.55H464.12a25.9,25.9,0,1,0-5.31-51.24,5.24,5.24,0,0,1-6.23-6.09,31.23,31.23,0,0,0,.56-5.83A31.71,31.71,0,0,0,390,224.28a5.24,5.24,0,0,1-8.7,3.2A15.22,15.22,0,0,0,371,223.5Z"/><path class="a89e2ea1-d118-40a8-aeab-002e62f8ab6c" d="M116.48,812a22.2,22.2,0,0,1,34.26-27.37,40,40,0,0,1,79.74,5.19,40.65,40.65,0,0,1-.7,7.37,32.92,32.92,0,0,1,6.93-.75,33.75,33.75,0,0,1,0,67.5H121.46a26.21,26.21,0,0,1-5-51.94Z"/><path class="bceb09cc-a329-411d-858f-c0b7db2dce3a" d="M236.71,869.18H121.46a31.44,31.44,0,0,1-12-60.5,27.45,27.45,0,0,1,37.84-32.54,45.27,45.27,0,0,1,88.43,13.69c0,.47,0,.93,0,1.4a39,39,0,1,1,1,77.95ZM135.82,784.09A17,17,0,0,0,121,809.43a5.23,5.23,0,0,1-3.57,7.72,21,21,0,0,0,4,41.56H236.71a28.55,28.55,0,0,0,28.52-28.51c0-17.63-16.18-31.79-34.36-27.88a5.29,5.29,0,0,1-4.74-1.37,5.23,5.23,0,0,1-1.5-4.71,34.8,34.8,0,1,0-68.7-10.93,5.23,5.23,0,0,1-8.7,3.21A17,17,0,0,0,135.82,784.09Z"/><rect class="a89e2ea1-d118-40a8-aeab-002e62f8ab6c" x="199.88" y="351.63" width="680.23" height="606.98"/><path class="bceb09cc-a329-411d-858f-c0b7db2dce3a" d="M984.77,963.84H95.23a5.24,5.24,0,0,1,0-10.47H984.77a5.24,5.24,0,0,1,0,10.47Z"/><path class="e8a1fe93-4d45-4776-bc20-95d083943513" d="M414.83,963.84H199.88a5.24,5.24,0,0,1-5.23-5.24v-607a5.23,5.23,0,0,1,5.23-5.23H880.12a5.23,5.23,0,0,1,5.23,5.23V775.47a5.24,5.24,0,0,1-10.47,0V356.86H205.12V953.37H414.83a5.24,5.24,0,0,1,0,10.47Z"/><path class="e8a1fe93-4d45-4776-bc20-95d083943513" d="M880.12,963.84H446.22a5.24,5.24,0,0,1,0-10.47H874.88V806.86a5.24,5.24,0,0,1,10.47,0V958.6A5.24,5.24,0,0,1,880.12,963.84Z"/><rect class="e5aa09ce-6fff-4c9d-a5f9-e8d99d35dcfe" x="199.88" y="278.37" width="680.23" height="73.26"/><rect class="b9edf80d-4ea0-408d-850d-4cb26e7bd015" x="199.88" y="304.53" width="680.23" height="47.09"/><path class="e8a1fe93-4d45-4776-bc20-95d083943513" d="M880.12,356.86H199.88a5.23,5.23,0,0,1-5.23-5.23V278.37a5.23,5.23,0,0,1,5.23-5.23H594.94a5.23,5.23,0,0,1,0,10.46H205.12v62.8H874.88V283.6H626.34a5.23,5.23,0,1,1,0-10.46H880.12a5.23,5.23,0,0,1,5.23,5.23v73.26A5.23,5.23,0,0,1,880.12,356.86Z"/><circle class="a89e2ea1-d118-40a8-aeab-002e62f8ab6c" cx="236.51" cy="315" r="7.85"/><circle class="a89e2ea1-d118-40a8-aeab-002e62f8ab6c" cx="273.14" cy="315" r="7.85"/><circle class="a89e2ea1-d118-40a8-aeab-002e62f8ab6c" cx="309.77" cy="315" r="7.85"/><path class="fa1d2096-8fbd-457f-8f9e-cb06fd938a92" d="M801.63,685.9V624.34l-81.51-9.59a183.54,183.54,0,0,0-24.25-58.4l50.89-64.47-43.52-43.53-64.48,50.9A183.26,183.26,0,0,0,580.37,475l-9.59-81.51H509.22L499.63,475a183.26,183.26,0,0,0-58.39,24.25l-64.48-50.9-43.52,43.53,50.89,64.47a183.54,183.54,0,0,0-24.25,58.4l-81.51,9.59V685.9l81.51,9.58a183.54,183.54,0,0,0,24.25,58.4l-50.89,64.47,43.52,43.53L441.24,811a183.26,183.26,0,0,0,58.39,24.25l9.59,81.51h61.56l9.59-81.51A183.26,183.26,0,0,0,638.76,811l64.48,50.9,43.52-43.53-50.89-64.47a183.54,183.54,0,0,0,24.25-58.4Z"/><circle class="a89e2ea1-d118-40a8-aeab-002e62f8ab6c" cx="540" cy="655.12" r="99.42"/><path class="a2b32d93-b9a8-4f9a-93eb-06afb55bda78" d="M765,717.91H649.88a52.33,52.33,0,0,1-52.32-52.33h0a52.32,52.32,0,0,1,52.32-52.32H765a52.32,52.32,0,0,1,52.33,52.32h0A52.33,52.33,0,0,1,765,717.91Z"/><path class="a2b32d93-b9a8-4f9a-93eb-06afb55bda78" d="M765,723.14H649.88a57.56,57.56,0,0,1,0-115.12H765a57.56,57.56,0,0,1,0,115.12ZM649.88,618.49a47.09,47.09,0,0,0,0,94.18H765a47.09,47.09,0,1,0,0-94.18Z"/><path class="e231793a-6d8e-46c1-ac73-2404c8d7f535" d="M754.53,707.44H639.42a52.32,52.32,0,0,1-52.33-52.32h0a52.33,52.33,0,0,1,52.33-52.33H754.53a52.33,52.33,0,0,1,52.33,52.33h0A52.32,52.32,0,0,1,754.53,707.44Z"/><path class="e5aa09ce-6fff-4c9d-a5f9-e8d99d35dcfe" d="M754.53,707.44H639.42a52.32,52.32,0,0,1-52.33-52.32h0a52.33,52.33,0,0,1,52.33-52.33H754.53a52.33,52.33,0,0,1,52.33,52.33h0A52.32,52.32,0,0,1,754.53,707.44Z"/><path class="b9edf80d-4ea0-408d-850d-4cb26e7bd015" d="M765,707.44H649.88A41.86,41.86,0,0,1,608,665.58h0a41.86,41.86,0,0,1,41.86-41.86H765a41.86,41.86,0,0,1,41.86,41.86h0A41.86,41.86,0,0,1,765,707.44Z"/><circle class="a89e2ea1-d118-40a8-aeab-002e62f8ab6c" cx="754.53" cy="655.12" r="31.4"/><path class="e8a1fe93-4d45-4776-bc20-95d083943513" d="M754.53,712.67H639.42a57.56,57.56,0,1,1,0-115.11H754.53a57.56,57.56,0,1,1,0,115.11ZM639.42,608a47.1,47.1,0,0,0,0,94.19H754.53a47.1,47.1,0,1,0,0-94.19Z"/><path class="a2b32d93-b9a8-4f9a-93eb-06afb55bda78" d="M765,895.81H649.88a52.32,52.32,0,0,1-52.32-52.32h0a52.33,52.33,0,0,1,52.32-52.33H765a52.33,52.33,0,0,1,52.33,52.33h0A52.32,52.32,0,0,1,765,895.81Z"/><path class="a2b32d93-b9a8-4f9a-93eb-06afb55bda78" d="M765,901.05H649.88a57.56,57.56,0,0,1,0-115.12H765a57.56,57.56,0,0,1,0,115.12ZM649.88,796.4a47.09,47.09,0,0,0,0,94.18H765a47.09,47.09,0,0,0,0-94.18Z"/><path class="abcaf3e9-3080-4a07-8419-7dca2b2f2ad8" d="M754.53,890.58H639.42a57.56,57.56,0,1,1,0-115.11H754.53a57.56,57.56,0,1,1,0,115.11ZM639.42,785.93a47.1,47.1,0,0,0,0,94.19H754.53a47.1,47.1,0,1,0,0-94.19Z"/><path class="ae5c1744-dbed-475d-9c5d-ca57441000a9" d="M754.53,885.35H639.42A52.33,52.33,0,0,1,587.09,833h0a52.32,52.32,0,0,1,52.33-52.32H754.53A52.32,52.32,0,0,1,806.86,833h0A52.33,52.33,0,0,1,754.53,885.35Z"/><path class="a1610f66-4966-4a3c-ae33-8e92fc9a86be" d="M765,885.35H649.88A41.86,41.86,0,0,1,608,843.49h0a41.86,41.86,0,0,1,41.86-41.86H765a41.86,41.86,0,0,1,41.86,41.86h0A41.86,41.86,0,0,1,765,885.35Z"/><path class="e8a1fe93-4d45-4776-bc20-95d083943513" d="M754.53,890.58H639.42a57.56,57.56,0,1,1,0-115.11H754.53a57.56,57.56,0,1,1,0,115.11ZM639.42,785.93a47.1,47.1,0,0,0,0,94.19H754.53a47.1,47.1,0,1,0,0-94.19Z"/><circle class="a89e2ea1-d118-40a8-aeab-002e62f8ab6c" cx="639.42" cy="833.02" r="31.4"/><path class="a2b32d93-b9a8-4f9a-93eb-06afb55bda78" d="M765,540H649.88a52.33,52.33,0,0,1-52.32-52.33h0a52.33,52.33,0,0,1,52.32-52.32H765a52.33,52.33,0,0,1,52.33,52.32h0A52.33,52.33,0,0,1,765,540Z"/><path class="a2b32d93-b9a8-4f9a-93eb-06afb55bda78" d="M765,545.23H649.88a57.56,57.56,0,0,1,0-115.11H765a57.56,57.56,0,1,1,0,115.11ZM649.88,440.58a47.1,47.1,0,0,0,0,94.19H765a47.1,47.1,0,0,0,0-94.19Z"/><path class="abcaf3e9-3080-4a07-8419-7dca2b2f2ad8" d="M754.53,534.77H639.42a57.56,57.56,0,1,1,0-115.12H754.53a57.56,57.56,0,1,1,0,115.12ZM639.42,430.12a47.09,47.09,0,1,0,0,94.18H754.53a47.09,47.09,0,1,0,0-94.18Z"/><path class="ae5c1744-dbed-475d-9c5d-ca57441000a9" d="M754.53,529.53H639.42a52.32,52.32,0,0,1-52.33-52.32h0a52.33,52.33,0,0,1,52.33-52.33H754.53a52.33,52.33,0,0,1,52.33,52.33h0A52.32,52.32,0,0,1,754.53,529.53Z"/><path class="a1610f66-4966-4a3c-ae33-8e92fc9a86be" d="M765,529.53H649.88A41.86,41.86,0,0,1,608,487.67h0a41.86,41.86,0,0,1,41.86-41.86H765a41.86,41.86,0,0,1,41.86,41.86h0A41.86,41.86,0,0,1,765,529.53Z"/><path class="e8a1fe93-4d45-4776-bc20-95d083943513" d="M754.53,534.77H639.42a57.56,57.56,0,1,1,0-115.12H754.53a57.56,57.56,0,1,1,0,115.12ZM639.42,430.12a47.09,47.09,0,1,0,0,94.18H754.53a47.09,47.09,0,1,0,0-94.18Z"/><circle class="a89e2ea1-d118-40a8-aeab-002e62f8ab6c" cx="639.42" cy="477.21" r="31.4"/><path class="a1610f66-4966-4a3c-ae33-8e92fc9a86be" d="M430.12,623.72H267.91a10.47,10.47,0,1,1,0-20.93H430.12a10.47,10.47,0,0,1,0,20.93Z"/><path class="f9c7bcf1-5bde-4870-bf06-09fded5e291e" d="M508.6,668.2H367.33a7.85,7.85,0,1,1,0-15.7H508.6a7.85,7.85,0,0,1,0,15.7Z"/><path class="f9c7bcf1-5bde-4870-bf06-09fded5e291e" d="M330.7,668.2H267.91a7.85,7.85,0,0,1,0-15.7H330.7a7.85,7.85,0,0,1,0,15.7Z"/><path class="f9c7bcf1-5bde-4870-bf06-09fded5e291e" d="M466.74,704.83H409.19a7.85,7.85,0,0,1,0-15.7h57.55a7.85,7.85,0,0,1,0,15.7Z"/><path class="f9c7bcf1-5bde-4870-bf06-09fded5e291e" d="M372.56,704.83H267.91a7.85,7.85,0,1,1,0-15.7H372.56a7.85,7.85,0,0,1,0,15.7Z"/><path class="a1610f66-4966-4a3c-ae33-8e92fc9a86be" d="M461.51,801.63H367.33a10.47,10.47,0,1,1,0-20.93h94.18a10.47,10.47,0,1,1,0,20.93Z"/><path class="a1610f66-4966-4a3c-ae33-8e92fc9a86be" d="M325.47,801.63H267.91a10.47,10.47,0,1,1,0-20.93h57.56a10.47,10.47,0,0,1,0,20.93Z"/><path class="f9c7bcf1-5bde-4870-bf06-09fded5e291e" d="M508.6,846.1H430.12a7.85,7.85,0,1,1,0-15.69H508.6a7.85,7.85,0,1,1,0,15.69Z"/><path class="f9c7bcf1-5bde-4870-bf06-09fded5e291e" d="M393.49,846.1H267.91a7.85,7.85,0,1,1,0-15.69H393.49a7.85,7.85,0,1,1,0,15.69Z"/><path class="f9c7bcf1-5bde-4870-bf06-09fded5e291e" d="M508.6,882.73H377.79a7.85,7.85,0,0,1,0-15.7H508.6a7.85,7.85,0,0,1,0,15.7Z"/><path class="f9c7bcf1-5bde-4870-bf06-09fded5e291e" d="M341.16,882.73H267.91a7.85,7.85,0,0,1,0-15.7h73.25a7.85,7.85,0,0,1,0,15.7Z"/><path class="a1610f66-4966-4a3c-ae33-8e92fc9a86be" d="M461.51,445.81H383a10.47,10.47,0,0,1,0-20.93h78.49a10.47,10.47,0,1,1,0,20.93Z"/><path class="a1610f66-4966-4a3c-ae33-8e92fc9a86be" d="M341.16,445.81H267.91a10.47,10.47,0,1,1,0-20.93h73.25a10.47,10.47,0,1,1,0,20.93Z"/><path class="f9c7bcf1-5bde-4870-bf06-09fded5e291e" d="M508.6,490.29H424.88a7.85,7.85,0,0,1,0-15.7H508.6a7.85,7.85,0,1,1,0,15.7Z"/><path class="f9c7bcf1-5bde-4870-bf06-09fded5e291e" d="M388.26,490.29H267.91a7.85,7.85,0,0,1,0-15.7H388.26a7.85,7.85,0,0,1,0,15.7Z"/><path class="f9c7bcf1-5bde-4870-bf06-09fded5e291e" d="M456.28,526.92H372.56a7.85,7.85,0,0,1,0-15.7h83.72a7.85,7.85,0,1,1,0,15.7Z"/><path class="f9c7bcf1-5bde-4870-bf06-09fded5e291e" d="M335.93,526.92h-68a7.85,7.85,0,0,1,0-15.7h68a7.85,7.85,0,0,1,0,15.7Z"/></svg>