<svg id="a8a51e59-17ee-4a08-b571-20d67414cc8f" data-name="Capa 1" xmlns="http://www.w3.org/2000/svg" viewBox="0 0 1080 1080"><defs><style>.eed83fc0-491e-4c6e-b01f-afb3664388a6{fill:#f6f6f6;}.a8f0699b-be2b-4446-a610-8f5497ae1004{fill:#fff;}.b6378c0b-629e-4d27-9323-ad7a310a6a93{fill:#f7f7f7;}.a447173a-9d76-4d0e-a50e-75f7053d793d{fill:#282c3f;}.ab797aca-3372-49cc-8de4-10c3f22f97c2{fill:#30354c;}.a967a1d1-3e4b-4b11-b7bd-5d453231a75a{fill:#52576a;}.f17bf669-360b-47f0-8886-54108e555ad2{fill:#2fc8f2;}.e2fa4c15-f2be-4f2d-a3b7-792eb0fec9e7{fill:#2caae6;}.a873586d-f8c0-4368-adc5-04ba06e09356{fill:#ededed;}.bceee869-5813-4d50-9344-d496cf19d8dc{fill:#b8b5c6;}.ac9f1a5c-8bc8-470f-8873-4d8375301467{fill:#a09cad;}.b5f745d6-3956-4d2b-b012-9537b5c8b5d1{fill:#34234d;}.bd53699b-889c-4bb1-9b5c-2c3918599589{fill:#989aa6;}</style></defs><title>ICONS S2R</title><path class="eed83fc0-491e-4c6e-b01f-afb3664388a6" d="M879.59,412.67c-25.42-65.56-.55-171.62-55.77-216-53.52-43-153,1.64-226.05-9.95S444.49,102,380,126.3c-66.57,25-76.77,133.42-121.8,187.8-43.66,52.7-150.13,83.54-161.9,155.52s79.48,134.17,104.13,197.71c25.42,65.56.55,171.62,55.77,216,53.52,43,153-1.64,226.05,10S635.51,978,700,953.7c66.57-25,76.77-133.42,121.8-187.8,43.66-52.7,150.13-83.53,161.9-155.52S904.24,476.21,879.59,412.67Z"/><rect class="a8f0699b-be2b-4446-a610-8f5497ae1004" x="199.88" y="273.14" width="680.23" height="565.12"/><polygon class="b6378c0b-629e-4d27-9323-ad7a310a6a93" points="619.19 273.14 421.65 838.26 625.02 838.26 822.56 273.14 619.19 273.14"/><polygon class="b6378c0b-629e-4d27-9323-ad7a310a6a93" points="226.05 838.26 313.31 838.26 510.85 273.14 420.47 273.14 226.05 838.26"/><path class="a447173a-9d76-4d0e-a50e-75f7053d793d" d="M199.88,744.07a5.23,5.23,0,0,1-5.23-5.23V273.14a5.23,5.23,0,0,1,5.23-5.23H880.12a5.23,5.23,0,0,1,5.23,5.23V461.51a5.24,5.24,0,0,1-10.47,0V278.37H205.12V738.84A5.24,5.24,0,0,1,199.88,744.07Z"/><path class="a447173a-9d76-4d0e-a50e-75f7053d793d" d="M666,843.49H199.88a5.23,5.23,0,0,1-5.23-5.23v-68a5.24,5.24,0,0,1,10.47,0V833H666a5.24,5.24,0,0,1,0,10.47Z"/><path class="a447173a-9d76-4d0e-a50e-75f7053d793d" d="M880.12,843.49H834.06a5.24,5.24,0,0,1,0-10.47h40.82V492.91a5.24,5.24,0,1,1,10.47,0V838.26A5.23,5.23,0,0,1,880.12,843.49Z"/><rect class="ab797aca-3372-49cc-8de4-10c3f22f97c2" x="199.88" y="199.88" width="680.23" height="73.26"/><polygon class="a967a1d1-3e4b-4b11-b7bd-5d453231a75a" points="848.16 199.88 644.79 199.88 619.19 273.14 822.56 273.14 848.16 199.88"/><polygon class="a967a1d1-3e4b-4b11-b7bd-5d453231a75a" points="445.67 199.88 420.47 273.14 510.85 273.14 536.45 199.88 445.67 199.88"/><path class="a447173a-9d76-4d0e-a50e-75f7053d793d" d="M880.12,278.37H199.88a5.23,5.23,0,0,1-5.23-5.23V199.88a5.23,5.23,0,0,1,5.23-5.23h259a5.24,5.24,0,0,1,0,10.47H205.12v62.79H874.88V205.12H490.29a5.24,5.24,0,0,1,0-10.47H880.12a5.23,5.23,0,0,1,5.23,5.23v73.26A5.23,5.23,0,0,1,880.12,278.37Z"/><circle class="a8f0699b-be2b-4446-a610-8f5497ae1004" cx="236.51" cy="236.51" r="7.85"/><circle class="a8f0699b-be2b-4446-a610-8f5497ae1004" cx="273.14" cy="236.51" r="7.85"/><circle class="a8f0699b-be2b-4446-a610-8f5497ae1004" cx="309.77" cy="236.51" r="7.85"/><path class="ab797aca-3372-49cc-8de4-10c3f22f97c2" d="M766.92,880.12a39.81,39.81,0,0,1-28.24-11.7L400,529.69a39.94,39.94,0,0,1,56.49-56.48L795.16,811.94a39.94,39.94,0,0,1-28.24,68.18Z"/><rect class="a967a1d1-3e4b-4b11-b7bd-5d453231a75a" x="714.78" y="817.51" width="79.88" height="20.93" transform="translate(-364.42 776.18) rotate(-45)"/><rect class="a967a1d1-3e4b-4b11-b7bd-5d453231a75a" x="678.16" y="780.89" width="79.88" height="20.93" transform="translate(-349.24 739.55) rotate(-45)"/><path class="a447173a-9d76-4d0e-a50e-75f7053d793d" d="M766.92,885.35A44.9,44.9,0,0,1,735,872.12L396.25,533.39a45.17,45.17,0,0,1,63.88-63.89L798.86,808.24a45.17,45.17,0,0,1-31.94,77.11ZM598,720.35,742.38,864.72a34.7,34.7,0,1,0,49.08-49.08L452.74,476.91A34.71,34.71,0,0,0,403.65,526Z"/><path class="f17bf669-360b-47f0-8886-54108e555ad2" d="M344.77,720.19a213.58,213.58,0,0,1-50-137.68C294.72,464,390.77,368,509.26,368a213.64,213.64,0,0,1,137.68,50,214.07,214.07,0,0,0-164.5-76.86c-118.48,0-214.53,96-214.53,214.54A214,214,0,0,0,344.77,720.19Z"/><path class="e2fa4c15-f2be-4f2d-a3b7-792eb0fec9e7" d="M294.72,582.51a213.58,213.58,0,0,0,50,137.68,213.6,213.6,0,0,0,137.67,50C600.93,770.23,697,674.18,697,555.7a213.62,213.62,0,0,0-50-137.68,213.64,213.64,0,0,0-137.68-50C390.77,368,294.72,464,294.72,582.51Z"/><path class="a447173a-9d76-4d0e-a50e-75f7053d793d" d="M482.44,775.47c-121.18,0-219.77-98.59-219.77-219.77s98.59-219.77,219.77-219.77S702.21,434.52,702.21,555.7,603.62,775.47,482.44,775.47Zm0-429.07c-115.41,0-209.3,93.89-209.3,209.3S367,765,482.44,765s209.3-93.89,209.3-209.3S597.85,346.4,482.44,346.4Z"/><path class="a873586d-f8c0-4368-adc5-04ba06e09356" d="M585.49,423.78a167.39,167.39,0,0,1-235,235,167.4,167.4,0,1,0,235-235Z"/><path class="a8f0699b-be2b-4446-a610-8f5497ae1004" d="M621,526.83a166.6,166.6,0,0,0-35.53-103.05,167.39,167.39,0,0,0-235,235A167.4,167.4,0,0,0,621,526.83Z"/><rect class="bceee869-5813-4d50-9344-d496cf19d8dc" x="383.02" y="524.3" width="198.84" height="136.05"/><rect class="ac9f1a5c-8bc8-470f-8873-4d8375301467" x="414.42" y="524.3" width="167.44" height="136.05"/><rect class="a8f0699b-be2b-4446-a610-8f5497ae1004" x="432.73" y="600.17" width="41.86" height="31.4" rx="5.23"/><rect class="a8f0699b-be2b-4446-a610-8f5497ae1004" x="432.73" y="553.08" width="41.86" height="31.4" rx="5.23"/><rect class="a8f0699b-be2b-4446-a610-8f5497ae1004" x="490.29" y="600.17" width="41.86" height="31.4" rx="5.23"/><rect class="a8f0699b-be2b-4446-a610-8f5497ae1004" x="490.29" y="553.08" width="41.86" height="31.4" rx="5.23"/><path class="b5f745d6-3956-4d2b-b012-9537b5c8b5d1" d="M581.86,665.58H383a5.23,5.23,0,0,1-5.23-5.23V524.3a5.23,5.23,0,0,1,5.23-5.23H581.86a5.23,5.23,0,0,1,5.23,5.23V660.35A5.23,5.23,0,0,1,581.86,665.58Zm-193.6-10.46H576.63V529.53H388.26Z"/><polygon class="a967a1d1-3e4b-4b11-b7bd-5d453231a75a" points="356.86 524.3 482.44 419.65 608.02 524.3 356.86 524.3"/><polygon class="ab797aca-3372-49cc-8de4-10c3f22f97c2" points="398.72 524.3 503.37 437.09 608.02 524.3 398.72 524.3"/><path class="a8f0699b-be2b-4446-a610-8f5497ae1004" d="M433.5,495.28l47.58-39.65a2.13,2.13,0,0,1,2.73,0l47.57,39.65A2.13,2.13,0,0,1,530,499H434.87A2.13,2.13,0,0,1,433.5,495.28Z"/><path class="b5f745d6-3956-4d2b-b012-9537b5c8b5d1" d="M608,529.53H356.86a5.23,5.23,0,0,1-3.35-9.25L479.09,415.63a5.23,5.23,0,0,1,6.7,0L611.37,520.28a5.23,5.23,0,0,1-3.35,9.25ZM371.31,519.07H593.57L482.44,426.46Z"/><path class="bd53699b-889c-4bb1-9b5c-2c3918599589" d="M984.77,439.9a5.19,5.19,0,0,1-3.7-1.54L939.21,396.5a5.23,5.23,0,0,1,7.4-7.4L988.47,431a5.24,5.24,0,0,1-3.7,8.94Z"/><path class="bd53699b-889c-4bb1-9b5c-2c3918599589" d="M942.91,439.9a5.24,5.24,0,0,1-3.7-8.94l41.86-41.86a5.23,5.23,0,0,1,7.4,7.4l-41.86,41.86A5.2,5.2,0,0,1,942.91,439.9Z"/><path class="bd53699b-889c-4bb1-9b5c-2c3918599589" d="M942.91,765a5.22,5.22,0,0,1-3.7-1.53l-31.4-31.4a5.23,5.23,0,0,1,7.4-7.4l31.4,31.4a5.23,5.23,0,0,1-3.7,8.93Z"/><path class="bd53699b-889c-4bb1-9b5c-2c3918599589" d="M911.51,765a5.23,5.23,0,0,1-3.7-8.93l31.4-31.4a5.23,5.23,0,1,1,7.4,7.4l-31.4,31.4A5.22,5.22,0,0,1,911.51,765Z"/><path class="bd53699b-889c-4bb1-9b5c-2c3918599589" d="M440.58,963.84a5.19,5.19,0,0,1-3.7-1.54L395,920.44a5.23,5.23,0,0,1,7.4-7.4l41.86,41.87a5.24,5.24,0,0,1-3.7,8.93Z"/><path class="bd53699b-889c-4bb1-9b5c-2c3918599589" d="M398.72,963.84a5.24,5.24,0,0,1-3.7-8.93L436.88,913a5.23,5.23,0,0,1,7.4,7.4L402.42,962.3A5.19,5.19,0,0,1,398.72,963.84Z"/><path class="bd53699b-889c-4bb1-9b5c-2c3918599589" d="M137.09,325.47a5.24,5.24,0,0,1-3.7-1.54L91.53,282.07a5.23,5.23,0,0,1,7.4-7.4l41.86,41.86a5.24,5.24,0,0,1-3.7,8.94Z"/><path class="bd53699b-889c-4bb1-9b5c-2c3918599589" d="M95.23,325.47a5.24,5.24,0,0,1-3.7-8.94l41.86-41.86a5.23,5.23,0,0,1,7.4,7.4L98.93,323.93A5.23,5.23,0,0,1,95.23,325.47Z"/><path class="bd53699b-889c-4bb1-9b5c-2c3918599589" d="M168.49,681.28a5.22,5.22,0,0,1-3.7-1.53l-31.4-31.4a5.23,5.23,0,0,1,7.4-7.4l31.4,31.4a5.23,5.23,0,0,1-3.7,8.93Z"/><path class="bd53699b-889c-4bb1-9b5c-2c3918599589" d="M137.09,681.28a5.23,5.23,0,0,1-3.7-8.93l31.4-31.4a5.23,5.23,0,0,1,7.4,7.4l-31.4,31.4A5.22,5.22,0,0,1,137.09,681.28Z"/><path class="bd53699b-889c-4bb1-9b5c-2c3918599589" d="M613.26,906.28a5.22,5.22,0,0,1-3.7-1.53l-31.4-31.4a5.23,5.23,0,0,1,7.4-7.4l31.4,31.4a5.23,5.23,0,0,1-3.7,8.93Z"/><path class="bd53699b-889c-4bb1-9b5c-2c3918599589" d="M581.86,906.28a5.23,5.23,0,0,1-3.7-8.93l31.4-31.4a5.23,5.23,0,0,1,7.4,7.4l-31.4,31.4A5.22,5.22,0,0,1,581.86,906.28Z"/><path class="bd53699b-889c-4bb1-9b5c-2c3918599589" d="M702.21,158a5.22,5.22,0,0,1-3.7-1.53l-31.4-31.4a5.23,5.23,0,1,1,7.4-7.39l31.4,31.39a5.23,5.23,0,0,1-3.7,8.93Z"/><path class="bd53699b-889c-4bb1-9b5c-2c3918599589" d="M670.81,158a5.23,5.23,0,0,1-3.7-8.93l31.4-31.39a5.23,5.23,0,1,1,7.4,7.39l-31.4,31.4A5.22,5.22,0,0,1,670.81,158Z"/></svg>