<svg id="b01e5217-6e76-4a18-ad2d-9e5b32fdc435" data-name="Capa 1" xmlns="http://www.w3.org/2000/svg" viewBox="0 0 1080 1080"><defs><style>.e0295416-6049-4210-a688-27e81f6a3fc8{fill:#f6f6f6;}.ba0f7286-274f-4394-83b8-b1f9377613e4{fill:#2fc8f2;}.bc7d3b57-7027-429b-834d-f603fb1a684e{fill:#2caae6;}.ab736677-02bf-41a8-a6e5-7530e196bf6a{fill:#282c3f;}.b707a916-ffb6-411b-b01e-9d589a487201{fill:#ededed;}.a3f2118d-ab72-43fd-85a2-1caba4f5d446{fill:#fff;}.e6fbaa62-5f2f-4301-a69b-fa304b0ae50b{fill:#30354c;}.b76933e4-94e0-428e-8ae6-53f35a18f638{fill:#52576a;}.b2b661a3-5f77-4267-86c3-c3221f862075{fill:#989aa6;}</style></defs><title>ICONOS S2R</title><path class="e0295416-6049-4210-a688-27e81f6a3fc8" d="M885.64,424.66c-23.2-65.77,4.87-169.15-48.33-215.73-65.47-57.33-153.71-8.82-226.72-22.78s-151-82.32-216.62-60.49c-67.75,22.53-81.85,128-129,180.27-45.73,50.7-153.78,77.61-168.16,148.48S171.86,590,194.36,653.72c23.2,65.77-5.55,169.94,48.33,215.73,52.23,44.39,148.43,11.94,221.44,25.9S620.36,976.09,686,954.26c67.75-22.53,81.85-129.5,129-181.81,45.73-50.7,153.78-77.61,168.16-148.48S908.14,488.41,885.64,424.66Z"/><path class="ba0f7286-274f-4394-83b8-b1f9377613e4" d="M440.58,377.79V775.47a20.94,20.94,0,0,0,20.93,20.93h209.3l136.05,83.72L785.93,796.4h73.26a20.94,20.94,0,0,0,20.93-20.93V377.79a20.94,20.94,0,0,0-20.93-20.93H461.51A20.93,20.93,0,0,0,440.58,377.79Z"/><path class="bc7d3b57-7027-429b-834d-f603fb1a684e" d="M440.58,409.19V775.47a20.94,20.94,0,0,0,20.93,20.93h209.3l136.05,83.72L785.93,796.4h73.26a20.94,20.94,0,0,0,20.93-20.93V409.19a20.94,20.94,0,0,0-20.93-20.93H461.51A20.93,20.93,0,0,0,440.58,409.19Z"/><path class="ab736677-02bf-41a8-a6e5-7530e196bf6a" d="M440.58,644.65a5.23,5.23,0,0,1-5.23-5.23V377.79a26.2,26.2,0,0,1,26.16-26.16H859.19a26.2,26.2,0,0,1,26.16,26.16V486.63a5.24,5.24,0,0,1-10.47,0V377.79a15.71,15.71,0,0,0-15.69-15.7H461.51a15.72,15.72,0,0,0-15.7,15.7V639.42A5.23,5.23,0,0,1,440.58,644.65Z"/><path class="ab736677-02bf-41a8-a6e5-7530e196bf6a" d="M806.86,885.35a5.2,5.2,0,0,1-2.74-.78L669.33,801.63H461.51a26.2,26.2,0,0,1-26.16-26.16V670.81a5.23,5.23,0,0,1,10.46,0V775.47a15.72,15.72,0,0,0,15.7,15.69h209.3a5.25,5.25,0,0,1,2.75.78l125.11,77-17.82-71.27a5.25,5.25,0,0,1,5.08-6.5h73.26a15.71,15.71,0,0,0,15.69-15.69V518a5.24,5.24,0,0,1,10.47,0V775.47a26.2,26.2,0,0,1-26.16,26.16H792.63l19.3,77.22a5.23,5.23,0,0,1-5.07,6.5Z"/><path class="b707a916-ffb6-411b-b01e-9d589a487201" d="M199.88,220.81V618.49a20.94,20.94,0,0,0,20.93,20.93h73.26l-20.93,83.72,136.05-83.72h209.3a20.93,20.93,0,0,0,20.93-20.93V220.81a20.94,20.94,0,0,0-20.93-20.93H220.81A20.94,20.94,0,0,0,199.88,220.81Z"/><rect class="a3f2118d-ab72-43fd-85a2-1caba4f5d446" x="199.88" y="199.88" width="439.53" height="402.91" rx="20.93"/><path class="ab736677-02bf-41a8-a6e5-7530e196bf6a" d="M273.14,728.37a5.23,5.23,0,0,1-5.07-6.5l19.3-77.22H220.81a26.2,26.2,0,0,1-26.16-26.16V220.81a26.2,26.2,0,0,1,26.16-26.16H355.26a5.24,5.24,0,0,1,0,10.47H220.81a15.71,15.71,0,0,0-15.69,15.69V618.49a15.72,15.72,0,0,0,15.69,15.7h73.26a5.24,5.24,0,0,1,5.08,6.5L281.33,712l125.11-77a5.33,5.33,0,0,1,2.75-.77h209.3a15.73,15.73,0,0,0,15.7-15.7V220.81a15.72,15.72,0,0,0-15.7-15.69H386.65a5.24,5.24,0,0,1,0-10.47H618.49a26.2,26.2,0,0,1,26.16,26.16V618.49a26.2,26.2,0,0,1-26.16,26.16H410.67l-134.79,83A5.19,5.19,0,0,1,273.14,728.37Z"/><path class="b707a916-ffb6-411b-b01e-9d589a487201" d="M462.92,310.37,495.81,377a13.21,13.21,0,0,0,10,7.24l73.53,10.69a13.25,13.25,0,0,1,7.34,22.59l-53.21,51.86a13.26,13.26,0,0,0-3.81,11.73l12.56,73.23a13.24,13.24,0,0,1-19.21,14l-65.77-34.58a13.24,13.24,0,0,0-12.33,0L379.12,568.3a13.25,13.25,0,0,1-19.22-14l12.56-73.23a13.26,13.26,0,0,0-3.81-11.73l-53.21-51.86a13.25,13.25,0,0,1,7.35-22.59l73.53-10.69a13.22,13.22,0,0,0,10-7.24l32.88-66.63A13.24,13.24,0,0,1,462.92,310.37Z"/><path class="e6fbaa62-5f2f-4301-a69b-fa304b0ae50b" d="M431.53,289.44l32.88,66.63a13.22,13.22,0,0,0,10,7.24L547.91,374a13.25,13.25,0,0,1,7.34,22.59L502,448.45a13.25,13.25,0,0,0-3.8,11.73l12.56,73.23a13.25,13.25,0,0,1-19.22,14l-65.77-34.58a13.22,13.22,0,0,0-12.32,0l-65.77,34.58a13.24,13.24,0,0,1-19.21-14l12.56-73.23a13.28,13.28,0,0,0-3.81-11.73l-53.21-51.86A13.25,13.25,0,0,1,291.39,374l73.53-10.69a13.22,13.22,0,0,0,10-7.24l32.89-66.63A13.24,13.24,0,0,1,431.53,289.44Z"/><path class="b76933e4-94e0-428e-8ae6-53f35a18f638" d="M312.32,400.16l73.53-10.68a13.26,13.26,0,0,0,10-7.25l32.89-66.63a13.05,13.05,0,0,1,12.1-7.35l-9.28-18.81a13.24,13.24,0,0,0-23.75,0l-32.89,66.63a13.22,13.22,0,0,1-10,7.24L291.39,374a13.25,13.25,0,0,0-7.34,22.59l17,16.54A13.18,13.18,0,0,1,312.32,400.16Z"/><path class="ab736677-02bf-41a8-a6e5-7530e196bf6a" d="M341.54,554.14a18.5,18.5,0,0,1-18.19-21.62l12.56-73.23a8,8,0,0,0-2.3-7.09L280.4,400.34a18.48,18.48,0,0,1,10.24-31.52l73.53-10.68a8,8,0,0,0,6-4.38l32.88-66.63a18.48,18.48,0,0,1,33.14,0l32.89,66.63a8,8,0,0,0,6,4.38l73.54,10.68a18.48,18.48,0,0,1,10.23,31.52L505.7,452.2a8,8,0,0,0-2.31,7.09L516,532.52A18.48,18.48,0,0,1,489.15,552l-65.77-34.58a8.06,8.06,0,0,0-7.46,0L350.16,552A18.55,18.55,0,0,1,341.54,554.14Zm78.11-266.85a7.86,7.86,0,0,0-7.18,4.46l-32.89,66.64a18.46,18.46,0,0,1-13.91,10.1l-73.53,10.69a8,8,0,0,0-4.44,13.66l53.21,51.87a18.45,18.45,0,0,1,5.31,16.35l-12.56,73.23a8,8,0,0,0,11.63,8.45l65.76-34.58a18.48,18.48,0,0,1,17.2,0L494,542.74a8,8,0,0,0,11.62-8.45l-12.56-73.23a18.47,18.47,0,0,1,5.31-16.35l53.21-51.87a8,8,0,0,0-4.44-13.66l-73.53-10.69a18.46,18.46,0,0,1-13.91-10.1l-32.89-66.64h0A7.86,7.86,0,0,0,419.65,287.29Z"/><path class="a3f2118d-ab72-43fd-85a2-1caba4f5d446" d="M833,620.58h-157a10.47,10.47,0,1,1,0-20.93H833a10.47,10.47,0,1,1,0,20.93Z"/><path class="a3f2118d-ab72-43fd-85a2-1caba4f5d446" d="M833,687.56H738.84a10.47,10.47,0,1,1,0-20.93H833a10.47,10.47,0,1,1,0,20.93Z"/><path class="a3f2118d-ab72-43fd-85a2-1caba4f5d446" d="M686.51,687.56H487.67a10.47,10.47,0,0,1,0-20.93H686.51a10.47,10.47,0,1,1,0,20.93Z"/><path class="a3f2118d-ab72-43fd-85a2-1caba4f5d446" d="M759.77,754.53H639.42a10.47,10.47,0,1,1,0-20.93H759.77a10.47,10.47,0,0,1,0,20.93Z"/><path class="a3f2118d-ab72-43fd-85a2-1caba4f5d446" d="M592.33,754.53H487.67a10.47,10.47,0,0,1,0-20.93H592.33a10.47,10.47,0,0,1,0,20.93Z"/><path class="a3f2118d-ab72-43fd-85a2-1caba4f5d446" d="M796.4,553.6H676.05a10.47,10.47,0,1,1,0-20.93H796.4a10.47,10.47,0,0,1,0,20.93Z"/><path class="a3f2118d-ab72-43fd-85a2-1caba4f5d446" d="M833,486.63H770.23a10.47,10.47,0,0,1,0-20.93H833a10.47,10.47,0,1,1,0,20.93Z"/><path class="a3f2118d-ab72-43fd-85a2-1caba4f5d446" d="M723.14,486.63H676.05a10.47,10.47,0,1,1,0-20.93h47.09a10.47,10.47,0,0,1,0,20.93Z"/><path class="a3f2118d-ab72-43fd-85a2-1caba4f5d446" d="M833,419.65h-157a10.47,10.47,0,1,1,0-20.93H833a10.47,10.47,0,1,1,0,20.93Z"/><path class="b2b661a3-5f77-4267-86c3-c3221f862075" d="M215.58,759.77H158a5.24,5.24,0,0,1,0-10.47h57.56a5.24,5.24,0,0,1,0,10.47Z"/><path class="b2b661a3-5f77-4267-86c3-c3221f862075" d="M131.86,759.77H95.23a5.24,5.24,0,0,1,0-10.47h36.63a5.24,5.24,0,0,1,0,10.47Z"/><path class="b2b661a3-5f77-4267-86c3-c3221f862075" d="M241.74,791.16H189.42a5.23,5.23,0,0,1,0-10.46h52.32a5.23,5.23,0,1,1,0,10.46Z"/><path class="b2b661a3-5f77-4267-86c3-c3221f862075" d="M163.26,791.16h-68a5.23,5.23,0,0,1,0-10.46h68a5.23,5.23,0,1,1,0,10.46Z"/><path class="b2b661a3-5f77-4267-86c3-c3221f862075" d="M142.33,822.56H95.23a5.24,5.24,0,0,1,0-10.47h47.1a5.24,5.24,0,0,1,0,10.47Z"/><path class="b2b661a3-5f77-4267-86c3-c3221f862075" d="M532.15,901.05h-68a5.24,5.24,0,0,1,0-10.47h68a5.24,5.24,0,0,1,0,10.47Z"/><path class="b2b661a3-5f77-4267-86c3-c3221f862075" d="M438,901.05H380.41a5.24,5.24,0,1,1,0-10.47H438a5.24,5.24,0,0,1,0,10.47Z"/><path class="b2b661a3-5f77-4267-86c3-c3221f862075" d="M532.15,932.44H380.41a5.23,5.23,0,1,1,0-10.46H532.15a5.23,5.23,0,1,1,0,10.46Z"/><path class="b2b661a3-5f77-4267-86c3-c3221f862075" d="M464.13,963.84H380.41a5.24,5.24,0,1,1,0-10.47h83.72a5.24,5.24,0,0,1,0,10.47Z"/><path class="b2b661a3-5f77-4267-86c3-c3221f862075" d="M796.4,126.63H744.07a5.24,5.24,0,0,1,0-10.47H796.4a5.24,5.24,0,0,1,0,10.47Z"/><path class="b2b661a3-5f77-4267-86c3-c3221f862075" d="M717.91,126.63H676.05a5.24,5.24,0,1,1,0-10.47h41.86a5.24,5.24,0,0,1,0,10.47Z"/><path class="b2b661a3-5f77-4267-86c3-c3221f862075" d="M822.56,158H676.05a5.23,5.23,0,1,1,0-10.46H822.56a5.23,5.23,0,1,1,0,10.46Z"/><path class="b2b661a3-5f77-4267-86c3-c3221f862075" d="M759.77,189.42H676.05a5.24,5.24,0,1,1,0-10.47h83.72a5.24,5.24,0,0,1,0,10.47Z"/><path class="b2b661a3-5f77-4267-86c3-c3221f862075" d="M984.77,257.44H911.51a5.23,5.23,0,0,1,0-10.46h73.26a5.23,5.23,0,1,1,0,10.46Z"/><path class="b2b661a3-5f77-4267-86c3-c3221f862075" d="M885.35,257.44H843.49a5.23,5.23,0,0,1,0-10.46h41.86a5.23,5.23,0,1,1,0,10.46Z"/><path class="b2b661a3-5f77-4267-86c3-c3221f862075" d="M927.21,288.84H843.49a5.24,5.24,0,0,1,0-10.47h83.72a5.24,5.24,0,0,1,0,10.47Z"/><path class="b2b661a3-5f77-4267-86c3-c3221f862075" d="M953.37,320.23H843.49a5.23,5.23,0,0,1,0-10.46H953.37a5.23,5.23,0,0,1,0,10.46Z"/></svg>