<svg width="413" height="147" viewBox="0 0 413 147" fill="none" xmlns="http://www.w3.org/2000/svg">
<rect y="83.998" width="413" height="63" fill="white"/>
<rect y="83.998" width="413" height="63" fill="white"/>
<rect y="83.998" width="413" height="63" fill="white"/>
<path d="M26.1991 115.417C26.1991 112.807 26.7818 110.477 27.9471 108.425C29.1378 106.347 30.7465 104.739 32.7731 103.599C34.8251 102.433 37.1178 101.851 39.6511 101.851C42.6151 101.851 45.2118 102.611 47.4411 104.131C49.6705 105.651 51.2285 107.753 52.1151 110.439H45.9971C45.3891 109.172 44.5278 108.222 43.4131 107.589C42.3238 106.955 41.0571 106.639 39.6131 106.639C38.0678 106.639 36.6871 107.006 35.4711 107.741C34.2805 108.45 33.3431 109.463 32.6591 110.781C32.0005 112.098 31.6711 113.643 31.6711 115.417C31.6711 117.165 32.0005 118.71 32.6591 120.053C33.3431 121.37 34.2805 122.396 35.4711 123.131C36.6871 123.84 38.0678 124.195 39.6131 124.195C41.0571 124.195 42.3238 123.878 43.4131 123.245C44.5278 122.586 45.3891 121.623 45.9971 120.357H52.1151C51.2285 123.067 49.6705 125.183 47.4411 126.703C45.2371 128.197 42.6405 128.945 39.6511 128.945C37.1178 128.945 34.8251 128.375 32.7731 127.235C30.7465 126.069 29.1378 124.461 27.9471 122.409C26.7818 120.357 26.1991 118.026 26.1991 115.417ZM61.9791 106.487V113.137H70.9091V117.355H61.9791V124.385H72.0491V128.717H56.6591V102.155H72.0491V106.487H61.9791ZM89.1957 128.983C86.7131 128.983 84.4331 128.4 82.3557 127.235C80.2784 126.069 78.6317 124.461 77.4157 122.409C76.1997 120.331 75.5917 117.988 75.5917 115.379C75.5917 112.795 76.1997 110.477 77.4157 108.425C78.6317 106.347 80.2784 104.726 82.3557 103.561C84.4331 102.395 86.7131 101.813 89.1957 101.813C91.7037 101.813 93.9837 102.395 96.0357 103.561C98.1131 104.726 99.7471 106.347 100.938 108.425C102.154 110.477 102.762 112.795 102.762 115.379C102.762 117.988 102.154 120.331 100.938 122.409C99.7471 124.461 98.1131 126.069 96.0357 127.235C93.9584 128.4 91.6784 128.983 89.1957 128.983ZM89.1957 124.233C90.7917 124.233 92.1977 123.878 93.4137 123.169C94.6297 122.434 95.5797 121.395 96.2637 120.053C96.9477 118.71 97.2897 117.152 97.2897 115.379C97.2897 113.605 96.9477 112.06 96.2637 110.743C95.5797 109.4 94.6297 108.374 93.4137 107.665C92.1977 106.955 90.7917 106.601 89.1957 106.601C87.5997 106.601 86.1811 106.955 84.9397 107.665C83.7237 108.374 82.7737 109.4 82.0897 110.743C81.4057 112.06 81.0637 113.605 81.0637 115.379C81.0637 117.152 81.4057 118.71 82.0897 120.053C82.7737 121.395 83.7237 122.434 84.9397 123.169C86.1811 123.878 87.5997 124.233 89.1957 124.233ZM136.18 128.717L133.292 125.867C130.835 128.071 127.833 129.173 124.286 129.173C122.336 129.173 120.613 128.843 119.118 128.185C117.649 127.501 116.509 126.551 115.698 125.335C114.888 124.093 114.482 122.662 114.482 121.041C114.482 119.293 114.976 117.722 115.964 116.329C116.952 114.935 118.409 113.808 120.334 112.947C119.65 112.111 119.156 111.313 118.852 110.553C118.548 109.767 118.396 108.931 118.396 108.045C118.396 106.829 118.713 105.739 119.346 104.777C119.98 103.789 120.879 103.016 122.044 102.459C123.235 101.901 124.616 101.623 126.186 101.623C127.782 101.623 129.15 101.927 130.29 102.535C131.43 103.143 132.279 103.953 132.836 104.967C133.394 105.98 133.634 107.107 133.558 108.349H128.39C128.416 107.513 128.213 106.879 127.782 106.449C127.352 105.993 126.769 105.765 126.034 105.765C125.325 105.765 124.73 105.98 124.248 106.411C123.792 106.816 123.564 107.348 123.564 108.007C123.564 108.64 123.754 109.273 124.134 109.907C124.514 110.515 125.135 111.275 125.996 112.187L132.684 118.799C132.735 118.748 132.773 118.697 132.798 118.647C132.824 118.596 132.849 118.545 132.874 118.495L135.04 114.885H140.588L137.928 119.559C137.422 120.547 136.877 121.484 136.294 122.371L142.716 128.717H136.18ZM124.438 124.765C126.516 124.765 128.352 124.03 129.948 122.561L123.412 116.101C120.955 117.19 119.726 118.735 119.726 120.737C119.726 121.877 120.157 122.839 121.018 123.625C121.88 124.385 123.02 124.765 124.438 124.765ZM153.113 115.417C153.113 112.807 153.696 110.477 154.861 108.425C156.052 106.347 157.661 104.739 159.687 103.599C161.739 102.433 164.032 101.851 166.565 101.851C169.529 101.851 172.126 102.611 174.355 104.131C176.585 105.651 178.143 107.753 179.029 110.439H172.911C172.303 109.172 171.442 108.222 170.327 107.589C169.238 106.955 167.971 106.639 166.527 106.639C164.982 106.639 163.601 107.006 162.385 107.741C161.195 108.45 160.257 109.463 159.573 110.781C158.915 112.098 158.585 113.643 158.585 115.417C158.585 117.165 158.915 118.71 159.573 120.053C160.257 121.37 161.195 122.396 162.385 123.131C163.601 123.84 164.982 124.195 166.527 124.195C167.971 124.195 169.238 123.878 170.327 123.245C171.442 122.586 172.303 121.623 172.911 120.357H179.029C178.143 123.067 176.585 125.183 174.355 126.703C172.151 128.197 169.555 128.945 166.565 128.945C164.032 128.945 161.739 128.375 159.687 127.235C157.661 126.069 156.052 124.461 154.861 122.409C153.696 120.357 153.113 118.026 153.113 115.417ZM192.921 129.059C190.895 129.059 189.071 128.615 187.449 127.729C185.828 126.817 184.549 125.537 183.611 123.891C182.699 122.244 182.243 120.344 182.243 118.191C182.243 116.037 182.712 114.137 183.649 112.491C184.612 110.844 185.917 109.577 187.563 108.691C189.21 107.779 191.047 107.323 193.073 107.323C195.1 107.323 196.937 107.779 198.583 108.691C200.23 109.577 201.522 110.844 202.459 112.491C203.422 114.137 203.903 116.037 203.903 118.191C203.903 120.344 203.409 122.244 202.421 123.891C201.459 125.537 200.141 126.817 198.469 127.729C196.823 128.615 194.973 129.059 192.921 129.059ZM192.921 124.423C193.884 124.423 194.783 124.195 195.619 123.739C196.481 123.257 197.165 122.548 197.671 121.611C198.178 120.673 198.431 119.533 198.431 118.191C198.431 116.189 197.899 114.657 196.835 113.593C195.797 112.503 194.517 111.959 192.997 111.959C191.477 111.959 190.198 112.503 189.159 113.593C188.146 114.657 187.639 116.189 187.639 118.191C187.639 120.192 188.133 121.737 189.121 122.827C190.135 123.891 191.401 124.423 192.921 124.423ZM223.994 112.909V117.393H207.882V112.909H223.994ZM246.338 102.193V106.487H235.28V113.289H243.754V117.507H235.28V128.717H229.96V102.193H246.338ZM259.458 129.059C257.432 129.059 255.608 128.615 253.986 127.729C252.365 126.817 251.086 125.537 250.148 123.891C249.236 122.244 248.78 120.344 248.78 118.191C248.78 116.037 249.249 114.137 250.186 112.491C251.149 110.844 252.454 109.577 254.1 108.691C255.747 107.779 257.584 107.323 259.61 107.323C261.637 107.323 263.474 107.779 265.12 108.691C266.767 109.577 268.059 110.844 268.996 112.491C269.959 114.137 270.44 116.037 270.44 118.191C270.44 120.344 269.946 122.244 268.958 123.891C267.996 125.537 266.678 126.817 265.006 127.729C263.36 128.615 261.51 129.059 259.458 129.059ZM259.458 124.423C260.421 124.423 261.32 124.195 262.156 123.739C263.018 123.257 263.702 122.548 264.208 121.611C264.715 120.673 264.968 119.533 264.968 118.191C264.968 116.189 264.436 114.657 263.372 113.593C262.334 112.503 261.054 111.959 259.534 111.959C258.014 111.959 256.735 112.503 255.696 113.593C254.683 114.657 254.176 116.189 254.176 118.191C254.176 120.192 254.67 121.737 255.658 122.827C256.672 123.891 257.938 124.423 259.458 124.423ZM294.217 107.665V128.717H288.859V126.057C288.175 126.969 287.275 127.691 286.161 128.223C285.071 128.729 283.881 128.983 282.589 128.983C280.942 128.983 279.485 128.641 278.219 127.957C276.952 127.247 275.951 126.221 275.217 124.879C274.507 123.511 274.153 121.889 274.153 120.015V107.665H279.473V119.255C279.473 120.927 279.891 122.219 280.727 123.131C281.563 124.017 282.703 124.461 284.147 124.461C285.616 124.461 286.769 124.017 287.605 123.131C288.441 122.219 288.859 120.927 288.859 119.255V107.665H294.217ZM311.132 107.361C313.64 107.361 315.666 108.159 317.212 109.755C318.757 111.325 319.53 113.529 319.53 116.367V128.717H314.21V117.089C314.21 115.417 313.792 114.137 312.956 113.251C312.12 112.339 310.98 111.883 309.536 111.883C308.066 111.883 306.901 112.339 306.04 113.251C305.204 114.137 304.786 115.417 304.786 117.089V128.717H299.466V107.665H304.786V110.287C305.495 109.375 306.394 108.665 307.484 108.159C308.598 107.627 309.814 107.361 311.132 107.361ZM323.221 118.115C323.221 115.987 323.639 114.099 324.475 112.453C325.336 110.806 326.501 109.539 327.971 108.653C329.44 107.766 331.074 107.323 332.873 107.323C334.241 107.323 335.545 107.627 336.787 108.235C338.028 108.817 339.016 109.603 339.751 110.591V100.597H345.147V128.717H339.751V125.601C339.092 126.639 338.167 127.475 336.977 128.109C335.786 128.742 334.405 129.059 332.835 129.059C331.061 129.059 329.44 128.603 327.971 127.691C326.501 126.779 325.336 125.499 324.475 123.853C323.639 122.181 323.221 120.268 323.221 118.115ZM339.789 118.191C339.789 116.899 339.535 115.797 339.029 114.885C338.522 113.947 337.838 113.238 336.977 112.757C336.115 112.25 335.191 111.997 334.203 111.997C333.215 111.997 332.303 112.237 331.467 112.719C330.631 113.2 329.947 113.909 329.415 114.847C328.908 115.759 328.655 116.848 328.655 118.115C328.655 119.381 328.908 120.496 329.415 121.459C329.947 122.396 330.631 123.118 331.467 123.625C332.328 124.131 333.24 124.385 334.203 124.385C335.191 124.385 336.115 124.144 336.977 123.663C337.838 123.156 338.522 122.447 339.029 121.535C339.535 120.597 339.789 119.483 339.789 118.191ZM369.913 117.735C369.913 118.495 369.862 119.179 369.761 119.787H354.371C354.497 121.307 355.029 122.497 355.967 123.359C356.904 124.22 358.057 124.651 359.425 124.651C361.401 124.651 362.807 123.802 363.643 122.105H369.381C368.773 124.131 367.607 125.803 365.885 127.121C364.162 128.413 362.047 129.059 359.539 129.059C357.512 129.059 355.688 128.615 354.067 127.729C352.471 126.817 351.217 125.537 350.305 123.891C349.418 122.244 348.975 120.344 348.975 118.191C348.975 116.012 349.418 114.099 350.305 112.453C351.191 110.806 352.433 109.539 354.029 108.653C355.625 107.766 357.461 107.323 359.539 107.323C361.54 107.323 363.326 107.753 364.897 108.615C366.493 109.476 367.721 110.705 368.583 112.301C369.469 113.871 369.913 115.683 369.913 117.735ZM364.403 116.215C364.377 114.847 363.883 113.757 362.921 112.947C361.958 112.111 360.78 111.693 359.387 111.693C358.069 111.693 356.955 112.098 356.043 112.909C355.156 113.694 354.611 114.796 354.409 116.215H364.403ZM379.116 110.933C379.8 109.818 380.686 108.944 381.776 108.311C382.89 107.677 384.157 107.361 385.576 107.361V112.947H384.17C382.498 112.947 381.231 113.339 380.37 114.125C379.534 114.91 379.116 116.278 379.116 118.229V128.717H373.796V107.665H379.116V110.933Z" fill="#1F262E"/>
<rect width="347.68" height="63.1597" transform="matrix(0.99956 -0.0296641 0.0290106 0.999579 10.276 25.2429)" fill="#40FF62"/>
<rect width="347.68" height="63.1597" transform="matrix(0.99956 -0.0296641 0.0290106 0.999579 10.276 25.2429)" fill="#40FF62"/>
<rect width="347.68" height="63.1597" transform="matrix(0.99956 -0.0296641 0.0290106 0.999579 10.276 25.2429)" fill="#1E93FF"/>
<path d="M68.3532 67.6073L58.6833 68.2899L57.4532 72.9762L50.8467 73.4425L58.4093 46.8701L65.7171 46.3542L76.9038 71.6031L70.2234 72.0747L68.3532 67.6073ZM66.3885 62.8498L62.5141 53.5907L60.0034 63.3006L66.3885 62.8498ZM84.1581 43.6429L86.0683 70.9562L79.757 71.4017L77.8468 44.0884L84.1581 43.6429ZM109.312 58.6328C109.354 59.2234 109.36 59.8411 109.331 60.4861L95.0472 61.4944C95.2351 62.767 95.7099 63.7226 96.4716 64.3612C97.2563 64.9735 98.1776 65.2423 99.2356 65.1676C100.81 65.0564 101.859 64.3148 102.381 62.9426L109.098 62.4684C108.849 63.8461 108.306 65.1084 107.472 66.2553C106.662 67.4006 105.601 68.3285 104.291 69.0392C102.981 69.7499 101.489 70.1643 99.8159 70.2824C97.7982 70.4249 95.9719 70.121 94.3369 69.371C92.702 68.6209 91.3857 67.4774 90.388 65.9405C89.3904 64.4036 88.8167 62.5648 88.667 60.424C88.5172 58.2833 88.817 56.3828 89.5664 54.7225C90.3403 53.0606 91.4845 51.7434 92.9991 50.771C94.5136 49.7986 96.292 49.2403 98.3342 49.0962C100.327 48.9555 102.128 49.2487 103.737 49.9759C105.345 50.7031 106.635 51.8114 107.604 53.3008C108.598 54.7885 109.168 56.5659 109.312 58.6328ZM102.737 57.4278C102.661 56.3451 102.232 55.5099 101.449 54.9223C100.666 54.3346 99.7213 54.0799 98.614 54.158C97.556 54.2327 96.6794 54.6037 95.9843 55.271C95.3137 55.9365 94.9319 56.8413 94.8389 57.9854L102.737 57.4278ZM125.565 68.168L121.216 62.7258L118.294 68.6813L111.466 69.1633L117.521 58.1646L109.841 48.5806L116.927 48.0804L121.274 53.4857L124.198 47.5671L131.026 47.0851L124.85 57.944L132.651 67.6678L125.565 68.168ZM158.713 61.2286L149.043 61.9112L147.813 66.5974L141.207 67.0638L148.769 40.4913L156.077 39.9754L167.264 65.2244L160.584 65.696L158.713 61.2286ZM156.749 56.4711L152.874 47.2119L150.364 56.9218L156.749 56.4711ZM175.228 47.4144C175.887 46.2303 176.748 45.2794 177.81 44.5614C178.871 43.8189 180.078 43.3999 181.431 43.3043L181.899 49.985L180.164 50.1075C178.589 50.2186 177.432 50.6465 176.693 51.3911C175.952 52.111 175.641 53.3199 175.76 55.0178L176.428 64.5774L170.117 65.023L168.677 44.4273L174.988 43.9817L175.228 47.4144ZM192.267 42.4652C193.719 42.3627 195.007 42.5685 196.131 43.0827C197.28 43.5951 198.183 44.3103 198.84 45.2282L198.636 42.3123L204.948 41.8668L206.385 62.4256C206.518 64.3203 206.256 66.0574 205.6 67.6368C204.97 69.2392 203.912 70.5503 202.426 71.5701C200.964 72.5883 199.089 73.1781 196.8 73.3396C193.749 73.555 191.226 73.0037 189.23 71.6856C187.235 70.3922 186.017 68.5247 185.574 66.0832L191.811 65.6429C192.063 66.4164 192.574 66.9985 193.343 67.3893C194.114 67.8048 195.041 67.9742 196.123 67.8978C197.427 67.8058 198.434 67.3514 199.143 66.5348C199.879 65.741 200.189 64.5198 200.074 62.8711L199.87 59.9553C199.322 60.9583 198.528 61.8057 197.489 62.4973C196.447 63.1642 195.201 63.549 193.749 63.6515C192.051 63.7713 190.483 63.4493 189.045 62.6853C187.605 61.8967 186.424 60.7314 185.5 59.1893C184.599 57.6208 184.074 55.7785 183.926 53.6624C183.778 51.5462 184.042 49.6606 184.718 48.0056C185.418 46.3488 186.427 45.0412 187.744 44.0827C189.062 43.1242 190.57 42.5851 192.267 42.4652ZM199.357 52.6102C199.246 51.0354 198.717 49.824 197.767 48.9761C196.842 48.1264 195.752 47.7459 194.497 47.8345C193.243 47.9231 192.204 48.4539 191.382 49.4268C190.583 50.3735 190.238 51.6342 190.348 53.209C190.458 54.7838 190.977 56.0084 191.903 56.8826C192.853 57.7305 193.955 58.1102 195.21 58.0216C196.465 57.933 197.491 57.4031 198.289 56.4319C199.111 55.4589 199.467 54.185 199.357 52.6102ZM229.85 40.1089L231.29 60.7046L224.979 61.1501L224.783 58.345C224.207 59.3006 223.385 60.1004 222.317 60.7446C221.272 61.3623 220.086 61.7181 218.757 61.8119C217.182 61.9231 215.768 61.6767 214.514 61.0728C213.259 60.4444 212.252 59.4892 211.495 58.2073C210.738 56.9255 210.296 55.3864 210.171 53.5901L209.329 41.5575L215.603 41.1146L216.386 52.2983C216.482 53.6763 216.914 54.7215 217.68 55.4339C218.447 56.1463 219.434 56.46 220.639 56.3749C221.87 56.288 222.815 55.838 223.475 55.0248C224.135 54.2117 224.417 53.1161 224.321 51.7381L223.539 40.5544L229.85 40.1089ZM254.494 48.3841C254.535 48.9746 254.541 49.5924 254.512 50.2374L240.229 51.2457C240.417 52.5183 240.892 53.4739 241.653 54.1125C242.438 54.7248 243.359 54.9936 244.417 54.9189C245.992 54.8077 247.041 54.066 247.563 52.6939L254.28 52.2197C254.03 53.5973 253.488 54.8597 252.653 56.0066C251.843 57.1518 250.783 58.0798 249.473 58.7905C248.162 59.5012 246.671 59.9156 244.998 60.0337C242.98 60.1761 241.154 59.8723 239.519 59.1223C237.884 58.3722 236.567 57.2287 235.57 55.6918C234.572 54.1549 233.998 52.3161 233.849 50.1753C233.699 48.0345 233.999 46.134 234.748 44.4738C235.522 42.8119 236.666 41.4947 238.181 40.5223C239.695 39.5499 241.474 38.9916 243.516 38.8475C245.509 38.7068 247.31 39 248.918 39.7272C250.527 40.4544 251.816 41.5627 252.786 43.0521C253.78 44.5398 254.349 46.3171 254.494 48.3841ZM247.919 47.1791C247.843 46.0964 247.414 45.2612 246.631 44.6736C245.848 44.0859 244.903 43.8312 243.796 43.9093C242.738 43.984 241.861 44.355 241.166 45.0223C240.495 45.6878 240.114 46.5926 240.021 47.7367L247.919 47.1791ZM262.968 31.0203L264.878 58.3336L258.567 58.7791L256.657 31.4658L262.968 31.0203ZM273.853 30.2519L275.763 57.5652L269.452 58.0107L267.542 30.6974L273.853 30.2519ZM299.007 45.2418C299.049 45.8323 299.055 46.4501 299.026 47.0951L284.742 48.1034C284.93 49.376 285.405 50.3316 286.167 50.9702C286.951 51.5825 287.873 51.8513 288.931 51.7766C290.505 51.6654 291.554 50.9237 292.076 49.5516L298.793 49.0774C298.543 50.455 298.001 51.7174 297.167 52.8643C296.356 54.0095 295.296 54.9375 293.986 55.6482C292.676 56.3589 291.184 56.7733 289.511 56.8914C287.493 57.0338 285.667 56.73 284.032 55.98C282.397 55.2299 281.081 54.0864 280.083 52.5495C279.085 51.0126 278.512 49.1738 278.362 47.033C278.212 44.8922 278.512 42.9917 279.261 41.3315C280.035 39.6696 281.179 38.3524 282.694 37.38C284.209 36.4076 285.987 35.8493 288.029 35.7052C290.022 35.5645 291.823 35.8577 293.432 36.5849C295.04 37.3121 296.329 38.4204 297.299 39.9098C298.293 41.3975 298.863 43.1748 299.007 45.2418ZM292.432 44.0368C292.356 42.9541 291.927 42.1189 291.144 41.5313C290.361 40.9436 289.416 40.6889 288.309 40.767C287.251 40.8417 286.374 41.2127 285.679 41.88C285.009 42.5455 284.627 43.4503 284.534 44.5944L292.432 44.0368ZM311.479 55.3406C309.683 55.4674 308.062 55.2727 306.616 54.7566C305.171 54.2404 304.005 53.482 303.119 52.4812C302.231 51.4558 301.692 50.2822 301.501 48.9604L307.738 48.5201C307.862 49.2285 308.234 49.7833 308.856 50.1845C309.477 50.5858 310.219 50.756 311.08 50.6952C311.867 50.6396 312.46 50.4494 312.857 50.1246C313.278 49.7735 313.471 49.3518 313.437 48.8597C313.395 48.2691 313.058 47.8602 312.424 47.633C311.788 47.3811 310.769 47.1316 309.367 46.8844C307.866 46.6441 306.611 46.3741 305.601 46.0745C304.589 45.7503 303.698 45.2074 302.928 44.4457C302.156 43.6595 301.721 42.5651 301.623 41.1625C301.54 39.9814 301.785 38.8884 302.358 37.8836C302.953 36.8524 303.859 36.0096 305.074 35.355C306.314 34.6988 307.807 34.309 309.554 34.1856C312.138 34.0033 314.213 34.4997 315.778 35.6751C317.369 36.8486 318.349 38.4857 318.718 40.5862L312.887 40.9979C312.738 40.2912 312.379 39.7479 311.808 39.3678C311.262 38.9859 310.559 38.8254 309.698 38.8862C308.959 38.9383 308.404 39.1259 308.031 39.449C307.656 39.7474 307.486 40.1427 307.52 40.6349C307.562 41.2254 307.9 41.6466 308.536 41.8985C309.196 42.1486 310.201 42.3744 311.551 42.5759C313.104 42.8619 314.374 43.1679 315.361 43.4939C316.346 43.7952 317.226 44.3513 318 45.1622C318.796 45.9467 319.257 47.0517 319.381 48.4771C319.466 49.6828 319.197 50.7899 318.575 51.7981C317.976 52.7801 317.056 53.5869 315.814 54.2186C314.597 54.8485 313.152 55.2225 311.479 55.3406Z" fill="white"/>
</svg>
