<svg width="362" height="144" viewBox="0 0 362 144" fill="none" xmlns="http://www.w3.org/2000/svg">
<rect x="0.414062" y="80.4958" width="253.869" height="62.8665" fill="white"/>
<rect x="0.414062" y="80.4958" width="253.869" height="62.8665" fill="white"/>
<rect x="0.414062" y="80.4958" width="253.869" height="62.8665" fill="white"/>
<path d="M66.752 98.9054V103.199H55.694V110.001H64.168V114.219H55.694V125.429H50.374V98.9054H66.752ZM79.8723 125.771C77.8457 125.771 76.0217 125.328 74.4003 124.441C72.779 123.529 71.4997 122.25 70.5623 120.603C69.6503 118.957 69.1943 117.057 69.1943 114.903C69.1943 112.75 69.663 110.85 70.6003 109.203C71.563 107.557 72.8677 106.29 74.5143 105.403C76.161 104.491 77.9977 104.035 80.0243 104.035C82.051 104.035 83.8877 104.491 85.5343 105.403C87.181 106.29 88.473 107.557 89.4103 109.203C90.373 110.85 90.8543 112.75 90.8543 114.903C90.8543 117.057 90.3603 118.957 89.3723 120.603C88.4097 122.25 87.0923 123.529 85.4203 124.441C83.7737 125.328 81.9243 125.771 79.8723 125.771ZM79.8723 121.135C80.835 121.135 81.7343 120.907 82.5703 120.451C83.4317 119.97 84.1157 119.261 84.6223 118.323C85.129 117.386 85.3823 116.246 85.3823 114.903C85.3823 112.902 84.8503 111.369 83.7863 110.305C82.7477 109.216 81.4683 108.671 79.9483 108.671C78.4283 108.671 77.149 109.216 76.1103 110.305C75.097 111.369 74.5903 112.902 74.5903 114.903C74.5903 116.905 75.0843 118.45 76.0723 119.539C77.0857 120.603 78.3523 121.135 79.8723 121.135ZM114.631 104.377V125.429H109.273V122.769C108.589 123.681 107.689 124.403 106.575 124.935C105.485 125.442 104.295 125.695 103.003 125.695C101.356 125.695 99.8994 125.353 98.6328 124.669C97.3661 123.96 96.3654 122.934 95.6308 121.591C94.9214 120.223 94.5668 118.602 94.5668 116.727V104.377H99.8868V115.967C99.8868 117.639 100.305 118.931 101.141 119.843C101.977 120.73 103.117 121.173 104.561 121.173C106.03 121.173 107.183 120.73 108.019 119.843C108.855 118.931 109.273 117.639 109.273 115.967V104.377H114.631ZM131.546 104.073C134.054 104.073 136.08 104.871 137.626 106.467C139.171 108.038 139.944 110.242 139.944 113.079V125.429H134.624V113.801C134.624 112.129 134.206 110.85 133.37 109.963C132.534 109.051 131.394 108.595 129.95 108.595C128.48 108.595 127.315 109.051 126.454 109.963C125.618 110.85 125.2 112.129 125.2 113.801V125.429H119.88V104.377H125.2V106.999C125.909 106.087 126.808 105.378 127.898 104.871C129.012 104.339 130.228 104.073 131.546 104.073ZM143.635 114.827C143.635 112.699 144.053 110.812 144.889 109.165C145.75 107.519 146.916 106.252 148.385 105.365C149.854 104.479 151.488 104.035 153.287 104.035C154.655 104.035 155.96 104.339 157.201 104.947C158.442 105.53 159.43 106.315 160.165 107.303V97.3094H165.561V125.429H160.165V122.313C159.506 123.352 158.582 124.188 157.391 124.821C156.2 125.455 154.82 125.771 153.249 125.771C151.476 125.771 149.854 125.315 148.385 124.403C146.916 123.491 145.75 122.212 144.889 120.565C144.053 118.893 143.635 116.981 143.635 114.827ZM160.203 114.903C160.203 113.611 159.95 112.509 159.443 111.597C158.936 110.66 158.252 109.951 157.391 109.469C156.53 108.963 155.605 108.709 154.617 108.709C153.629 108.709 152.717 108.95 151.881 109.431C151.045 109.913 150.361 110.622 149.829 111.559C149.322 112.471 149.069 113.561 149.069 114.827C149.069 116.094 149.322 117.209 149.829 118.171C150.361 119.109 151.045 119.831 151.881 120.337C152.742 120.844 153.654 121.097 154.617 121.097C155.605 121.097 156.53 120.857 157.391 120.375C158.252 119.869 158.936 119.159 159.443 118.247C159.95 117.31 160.203 116.195 160.203 114.903ZM190.327 114.447C190.327 115.207 190.276 115.891 190.175 116.499H174.785C174.911 118.019 175.443 119.21 176.381 120.071C177.318 120.933 178.471 121.363 179.839 121.363C181.815 121.363 183.221 120.515 184.057 118.817H189.795C189.187 120.844 188.021 122.516 186.299 123.833C184.576 125.125 182.461 125.771 179.953 125.771C177.926 125.771 176.102 125.328 174.481 124.441C172.885 123.529 171.631 122.25 170.719 120.603C169.832 118.957 169.389 117.057 169.389 114.903C169.389 112.725 169.832 110.812 170.719 109.165C171.605 107.519 172.847 106.252 174.443 105.365C176.039 104.479 177.875 104.035 179.953 104.035C181.954 104.035 183.74 104.466 185.311 105.327C186.907 106.189 188.135 107.417 188.997 109.013C189.883 110.584 190.327 112.395 190.327 114.447ZM184.817 112.927C184.791 111.559 184.297 110.47 183.335 109.659C182.372 108.823 181.194 108.405 179.801 108.405C178.483 108.405 177.369 108.811 176.457 109.621C175.57 110.407 175.025 111.509 174.823 112.927H184.817ZM199.53 107.645C200.214 106.531 201.101 105.657 202.19 105.023C203.305 104.39 204.571 104.073 205.99 104.073V109.659H204.584C202.912 109.659 201.645 110.052 200.784 110.837C199.948 111.623 199.53 112.991 199.53 114.941V125.429H194.21V104.377H199.53V107.645Z" fill="#1F262E"/>
<rect x="9.81476" y="25.1104" width="347.195" height="62.8665" transform="rotate(-2.6082 9.81476 25.1104)" fill="#40FF62"/>
<rect x="9.81476" y="25.1104" width="347.195" height="62.8665" transform="rotate(-2.6082 9.81476 25.1104)" fill="#40FF62"/>
<rect x="9.81476" y="25.1104" width="347.195" height="62.8665" transform="rotate(-2.6082 9.81476 25.1104)" fill="#1E93FF"/>
<path d="M62.93 43.8158C65.7351 43.6187 68.2255 44.0024 70.4011 44.967C72.5767 45.9315 74.3041 47.3847 75.5834 49.3264C76.8861 51.2412 77.6298 53.5126 77.8145 56.1408C77.9974 58.7437 77.5786 61.0969 76.5582 63.2002C75.5631 65.3018 74.0432 66.9832 71.9985 68.2442C69.9792 69.5035 67.5796 70.2308 64.7997 70.4262L54.8303 71.1266L52.9606 44.5163L62.93 43.8158ZM63.9886 64.8453C66.4399 64.6731 68.3008 63.8693 69.5713 62.4341C70.8418 60.9988 71.391 59.0556 71.2188 56.6043C71.0465 54.153 70.2301 52.293 68.7696 51.0242C67.3091 49.7554 65.3532 49.2072 62.9019 49.3794L59.8315 49.5952L60.9182 65.061L63.9886 64.8453ZM80.3372 58.6682C80.1845 56.4949 80.4548 54.5585 81.148 52.8591C81.8666 51.1579 82.9024 49.8153 84.2554 48.8314C85.6084 47.8475 87.1568 47.2943 88.9005 47.1717C90.3915 47.067 91.7142 47.2788 92.8688 47.8072C94.0486 48.3338 94.9764 49.0686 95.6521 50.0115L95.4417 47.0169L101.924 46.5614L103.41 67.7133L96.9279 68.1687L96.7175 65.1741C96.155 66.2041 95.3264 67.0623 94.2318 67.7487C93.1625 68.4333 91.8824 68.828 90.3914 68.9328C88.673 69.0535 87.0751 68.7214 85.5978 67.9363C84.1187 67.126 82.9044 65.9288 81.9551 64.3448C81.0292 62.7337 80.4899 60.8415 80.3372 58.6682ZM96.1848 57.5928C96.0712 55.9755 95.5266 54.7312 94.5512 53.8601C93.601 52.9873 92.4815 52.5961 91.1927 52.6867C89.9038 52.7772 88.8374 53.322 87.9933 54.3209C87.1728 55.2928 86.8193 56.5874 86.933 58.2048C87.0466 59.8221 87.5794 61.0799 88.5314 61.978C89.5068 62.8491 90.6389 63.2394 91.9278 63.1489C93.2166 63.0583 94.2704 62.5144 95.0892 61.5173C95.9332 60.5183 96.2985 59.2102 96.1848 57.5928ZM119.485 45.0989C121.962 44.9249 123.99 45.5951 125.569 47.1095C127.172 48.5968 128.072 50.743 128.269 53.5481L129.138 65.9056L122.693 66.3584L121.886 54.8727C121.787 53.4575 121.343 52.384 120.555 51.6521C119.767 50.9202 118.754 50.5977 117.516 50.6847C116.278 50.7717 115.32 51.2327 114.642 52.0676C113.964 52.9025 113.675 54.0275 113.774 55.4427L114.581 66.9284L108.099 67.3838L106.613 46.2319L113.095 45.7765L113.292 48.5816C113.884 47.6004 114.717 46.8054 115.791 46.1966C116.864 45.5625 118.096 45.1966 119.485 45.0989ZM135.261 42.0096C134.124 42.0895 133.166 41.8267 132.387 41.2211C131.631 40.5885 131.219 39.7795 131.15 38.7939C131.079 37.783 131.374 36.9242 132.035 36.2175C132.72 35.4837 133.631 35.0768 134.768 34.9969C135.88 34.9188 136.814 35.196 137.57 35.8286C138.349 36.4342 138.774 37.2424 138.845 38.2532C138.914 39.2388 138.606 40.0985 137.921 40.8323C137.26 41.539 136.373 41.9315 135.261 42.0096ZM138.638 43.9818L140.124 65.1337L133.642 65.5891L132.156 44.4373L138.638 43.9818ZM163.993 52.4856C164.036 53.0921 164.042 53.7265 164.013 54.3889L149.343 55.4196C149.536 56.7266 150.024 57.7082 150.807 58.3642C151.613 58.9933 152.559 59.2696 153.646 59.1933C155.263 59.0797 156.34 58.3183 156.876 56.9093L163.775 56.4246C163.519 57.8393 162.962 59.1355 162.105 60.3131C161.273 61.489 160.185 62.4416 158.839 63.1711C157.494 63.9005 155.962 64.3256 154.243 64.4463C152.171 64.5919 150.295 64.2793 148.616 63.5085C146.936 62.7376 145.584 61.5628 144.559 59.9841C143.534 58.4054 142.944 56.5168 142.789 54.3182C142.635 52.1197 142.942 50.168 143.711 48.4632C144.506 46.7567 145.68 45.4043 147.236 44.4062C148.791 43.4081 150.617 42.8353 152.715 42.688C154.762 42.5441 156.611 42.8459 158.264 43.5933C159.916 44.3406 161.241 45.4792 162.237 47.0092C163.259 48.5373 163.844 50.3628 163.993 52.4856ZM157.24 51.2459C157.162 50.1339 156.72 49.2761 155.916 48.6723C155.112 48.0685 154.141 47.8066 153.004 47.8865C151.917 47.9628 151.017 48.3435 150.303 49.0286C149.615 49.7119 149.223 50.6409 149.128 51.8158L157.24 51.2459ZM172.691 34.6561L174.662 62.7069L168.18 63.1624L166.209 35.1115L172.691 34.6561ZM202.82 60.7284L193.049 49.606L193.874 61.357L187.392 61.8124L185.522 35.2021L192.004 34.7466L192.825 46.4218L200.875 34.1234L208.494 33.588L199.099 47.3523L210.743 60.1718L202.82 60.7284ZM211.789 49.4321C211.636 47.2587 211.906 45.3224 212.599 43.6229C213.318 41.9217 214.354 40.5792 215.707 39.5952C217.06 38.6113 218.608 38.0581 220.352 37.9356C221.843 37.8308 223.166 38.0426 224.32 38.571C225.5 39.0976 226.428 39.8324 227.103 40.7753L226.893 37.7807L233.375 37.3253L234.861 58.4771L228.379 58.9326L228.169 55.938C227.606 56.9679 226.778 57.8261 225.683 58.5125C224.614 59.1971 223.334 59.5918 221.843 59.6966C220.124 59.8173 218.526 59.4852 217.049 58.7001C215.57 57.8898 214.356 56.6926 213.406 55.1086C212.481 53.4975 211.941 51.6054 211.789 49.4321ZM227.636 48.3566C227.522 46.7393 226.978 45.4951 226.002 44.624C225.052 43.7511 223.933 43.3599 222.644 43.4505C221.355 43.541 220.289 44.0858 219.445 45.0847C218.624 46.0566 218.271 47.3513 218.384 48.9686C218.498 50.586 219.031 51.8437 219.983 52.7419C220.958 53.613 222.09 54.0032 223.379 53.9127C224.668 53.8221 225.722 53.2783 226.54 52.2811C227.385 51.2821 227.75 49.974 227.636 48.3566ZM250.953 51.8229L251.34 57.3193L248.042 57.551C245.692 57.7162 243.819 57.2763 242.425 56.2314C241.03 55.1613 240.24 53.3248 240.057 50.7218L239.466 42.3066L236.889 42.4877L236.51 37.105L239.088 36.9239L238.726 31.7686L245.208 31.3131L245.57 36.4684L249.816 36.1701L250.194 41.5528L245.948 41.8511L246.545 50.3422C246.589 50.974 246.773 51.4182 247.096 51.6749C247.418 51.9316 247.934 52.035 248.641 51.9853L250.953 51.8229ZM266.353 50.7408L266.739 56.2373L263.441 56.469C261.091 56.6341 259.219 56.1943 257.825 55.1494C256.429 54.0793 255.64 52.2427 255.457 49.6398L254.866 41.2246L252.288 41.4057L251.91 36.023L254.488 35.8418L254.125 30.6866L260.607 30.2311L260.97 35.3864L265.215 35.0881L265.593 40.4708L261.348 40.7691L261.944 49.2602C261.989 49.892 262.172 50.3362 262.495 50.5929C262.818 50.8495 263.333 50.953 264.041 50.9033L266.353 50.7408ZM268.315 45.4603C268.162 43.287 268.433 41.3506 269.126 39.6512C269.845 37.95 270.88 36.6074 272.233 35.6235C273.586 34.6396 275.135 34.0864 276.878 33.9638C278.369 33.8591 279.692 34.0709 280.847 34.5993C282.027 35.1259 282.954 35.8606 283.63 36.8036L283.42 33.809L289.902 33.3535L291.388 54.5054L284.906 54.9608L284.695 51.9662C284.133 52.9962 283.304 53.8544 282.21 54.5408C281.14 55.2254 279.86 55.6201 278.369 55.7249C276.651 55.8456 275.053 55.5134 273.576 54.7284C272.097 53.9181 270.882 52.7209 269.933 51.1369C269.007 49.5258 268.468 47.6336 268.315 45.4603ZM284.163 44.3849C284.049 42.7676 283.505 41.5233 282.529 40.6522C281.579 39.7793 280.459 39.3882 279.171 39.4787C277.882 39.5693 276.815 40.1141 275.971 41.113C275.151 42.0849 274.797 43.3795 274.911 44.9969C275.025 46.6142 275.557 47.872 276.509 48.7701C277.485 49.6412 278.617 50.0315 279.906 49.9409C281.195 49.8504 282.248 49.3065 283.067 48.3094C283.911 47.3104 284.276 46.0023 284.163 44.3849ZM307.463 31.891C309.94 31.717 311.968 32.3872 313.547 33.9016C315.15 35.3889 316.05 37.5351 316.247 40.3402L317.115 52.6977L310.671 53.1505L309.864 41.6648C309.765 40.2496 309.321 39.1761 308.533 38.4442C307.745 37.7122 306.732 37.3898 305.494 37.4768C304.256 37.5638 303.298 38.0248 302.62 38.8597C301.942 39.6945 301.653 40.8196 301.752 42.2348L302.559 53.7204L296.077 54.1759L294.591 33.024L301.073 32.5686L301.27 35.3737C301.862 34.3925 302.695 33.5975 303.769 32.9887C304.842 32.3546 306.073 31.9887 307.463 31.891Z" fill="white"/>
</svg>
