<svg width="188" height="95" viewBox="0 0 188 95" fill="none" xmlns="http://www.w3.org/2000/svg">
<rect x="27.1094" y="50.8479" width="131.679" height="44.0037" transform="rotate(-2.20792 27.1094 50.8479)" fill="#40FF62"/>
<path d="M57.0709 68.5119C57.1101 69.5278 56.9129 70.4695 56.4793 71.3368C56.0451 72.1875 55.355 72.8896 54.4089 73.4431C53.4629 73.9967 52.2737 74.301 50.8414 74.3563L48.1934 74.4584L48.4361 80.7537L44.1643 80.9184L43.4882 63.3814L50.408 63.1146C51.807 63.0607 52.9988 63.2566 53.9833 63.7023C54.9679 64.148 55.718 64.7863 56.2338 65.617C56.7495 66.4478 57.0285 67.4127 57.0709 68.5119ZM50.3857 70.9713C51.2018 70.9398 51.8023 70.7249 52.1872 70.3264C52.5721 69.928 52.7511 69.379 52.7241 68.6795C52.6972 67.98 52.4765 67.4465 52.062 67.0788C51.6475 66.7112 51.0322 66.5431 50.2162 66.5746L47.8929 66.6641L48.0624 71.0609L50.3857 70.9713ZM63.5773 68.5363C64.0474 67.7509 64.6488 67.1273 65.3815 66.6654C66.1136 66.1868 66.9377 65.9299 67.8537 65.8946L68.028 70.4162L66.8539 70.4615C65.788 70.5026 64.9976 70.7665 64.4826 71.2534C63.967 71.7236 63.7314 72.5333 63.7757 73.6825L64.0251 80.1526L59.7533 80.3173L59.2159 66.3777L63.4877 66.213L63.5773 68.5363ZM76.7917 79.8606C75.4261 79.9132 74.1824 79.6693 73.0608 79.1288C71.9558 78.5876 71.066 77.788 70.3914 76.7298C69.7334 75.6711 69.3765 74.4172 69.3206 72.9683C69.2654 71.536 69.5334 70.2664 70.1245 69.1595C70.715 68.0359 71.5486 67.1615 72.6253 66.5362C73.702 65.9109 74.9232 65.572 76.2888 65.5193C77.6545 65.4667 78.8981 65.7106 80.0198 66.2511C81.1415 66.7916 82.0399 67.5993 82.7151 68.6741C83.3897 69.7322 83.7547 70.9774 83.8099 72.4097C83.8651 73.8419 83.5891 75.1202 82.982 76.2444C82.3909 77.3513 81.5486 78.2178 80.4553 78.8437C79.3786 79.469 78.1574 79.8079 76.7917 79.8606ZM76.6492 76.1633C77.4652 76.1319 78.1448 75.8054 78.688 75.1841C79.2477 74.562 79.5061 73.6931 79.4631 72.5773C79.4201 71.4614 79.1039 70.6146 78.5145 70.0369C77.9418 69.4586 77.2474 69.1851 76.4314 69.2166C75.5987 69.2487 74.9191 69.5751 74.3926 70.1958C73.8655 70.7999 73.6237 71.6682 73.6674 72.8007C73.7104 73.9165 74.01 74.764 74.566 75.343C75.1387 75.9213 75.8331 76.1948 76.6492 76.1633ZM85.2268 72.355C85.1709 70.9061 85.4136 69.6292 85.9547 68.5242C86.5126 67.4185 87.3048 66.554 88.3316 65.9307C89.375 65.3067 90.5795 64.9683 91.9452 64.9157C93.6939 64.8483 95.1688 65.2501 96.3699 66.1211C97.5877 66.9915 98.4119 68.2524 98.8425 69.9037L94.2958 70.079C93.8717 69.0279 93.11 68.5235 92.0108 68.5659C91.2281 68.596 90.6154 68.9282 90.1729 69.5624C89.7297 70.1799 89.5299 71.055 89.5736 72.1875C89.6172 73.3199 89.8841 74.1853 90.3742 74.7835C90.8636 75.3651 91.4997 75.6408 92.2825 75.6106C93.3816 75.5683 94.1022 75.0067 94.4442 73.9261L98.9908 73.7508C98.6873 75.3971 97.9623 76.7093 96.8158 77.6875C95.6693 78.6658 94.2301 79.1883 92.498 79.255C91.1324 79.3077 89.9054 79.0631 88.817 78.5213C87.7453 77.9789 86.8888 77.1779 86.2475 76.1185C85.6229 75.0585 85.2827 73.804 85.2268 72.355ZM114.333 71.0077C114.349 71.4074 114.34 71.8247 114.306 72.2597L104.639 72.6324C104.739 73.4958 105.039 74.1514 105.54 74.5991C106.057 75.0295 106.674 75.2309 107.39 75.2033C108.456 75.1622 109.179 74.684 109.561 73.7686L114.108 73.5933C113.91 74.5183 113.517 75.359 112.929 76.1156C112.358 76.8715 111.622 77.4753 110.722 77.9269C109.822 78.3786 108.806 78.6263 107.673 78.67C106.308 78.7226 105.081 78.478 103.992 77.9362C102.904 77.3944 102.039 76.5938 101.398 75.5344C100.757 74.475 100.408 73.2208 100.352 71.7719C100.296 70.323 100.539 69.046 101.08 67.941C101.638 66.8354 102.439 65.9705 103.482 65.3465C104.525 64.7225 105.738 64.3839 107.121 64.3306C108.47 64.2786 109.68 64.5155 110.751 65.0413C111.822 65.5671 112.669 66.3433 113.292 67.3701C113.932 68.3962 114.279 69.6087 114.333 71.0077ZM109.918 70.0521C109.89 69.3193 109.618 68.746 109.101 68.3323C108.585 67.9185 107.952 67.7261 107.203 67.755C106.486 67.7826 105.887 68.0142 105.403 68.4498C104.936 68.8848 104.659 69.4876 104.572 70.2582L109.918 70.0521ZM122.543 78.0967C121.327 78.1435 120.236 77.9771 119.271 77.5973C118.306 77.2176 117.534 76.6802 116.957 75.9853C116.379 75.2737 116.04 74.4695 115.938 73.5727L120.16 73.41C120.229 73.891 120.469 74.2737 120.88 74.5581C121.291 74.8425 121.788 74.9734 122.371 74.9509C122.904 74.9304 123.308 74.8147 123.584 74.604C123.875 74.3759 124.015 74.0953 124.002 73.7622C123.986 73.3625 123.767 73.0791 123.344 72.912C122.919 72.7282 122.237 72.5377 121.295 72.3405C120.287 72.1458 119.445 71.9365 118.769 71.7123C118.092 71.4715 117.502 71.0857 116.998 70.5547C116.493 70.0071 116.223 69.2586 116.186 68.3093C116.155 67.5099 116.344 66.7771 116.752 66.1109C117.176 65.4274 117.805 64.8777 118.64 64.4619C119.491 64.0455 120.508 63.8145 121.69 63.7689C123.439 63.7015 124.829 64.0815 125.862 64.909C126.911 65.7359 127.539 66.8625 127.744 68.289L123.797 68.4412C123.711 67.9608 123.48 67.5861 123.103 67.3171C122.742 67.0475 122.27 66.9239 121.687 66.9463C121.188 66.9656 120.809 67.0803 120.55 67.2904C120.29 67.4839 120.167 67.7472 120.18 68.0803C120.195 68.48 120.415 68.7717 120.839 68.9555C121.28 69.1387 121.954 69.3128 122.861 69.478C123.904 69.7047 124.755 69.9387 125.415 70.1801C126.074 70.4049 126.656 70.7994 127.162 71.3637C127.683 71.9107 127.971 72.6669 128.025 73.6322C128.056 74.4482 127.851 75.19 127.41 75.8575C126.985 76.5077 126.346 77.0327 125.494 77.4325C124.659 77.8316 123.675 78.053 122.543 78.0967ZM136.473 77.5596C135.257 77.6065 134.166 77.44 133.201 77.0603C132.236 76.6805 131.464 76.1432 130.887 75.4482C130.309 74.7366 129.97 73.9324 129.869 73.0357L134.09 72.8729C134.159 73.354 134.399 73.7367 134.81 74.021C135.221 74.3054 135.719 74.4363 136.301 74.4139C136.834 74.3933 137.239 74.2777 137.514 74.0669C137.805 73.8388 137.945 73.5583 137.932 73.2252C137.916 72.8255 137.697 72.542 137.274 72.3749C136.85 72.1911 136.167 72.0006 135.225 71.8034C134.217 71.6088 133.375 71.3994 132.699 71.1753C132.023 70.9345 131.432 70.5486 130.928 70.0176C130.423 69.47 130.153 68.7215 130.116 67.7722C130.085 66.9728 130.274 66.24 130.682 65.5738C131.106 64.8903 131.735 64.3407 132.57 63.9249C133.421 63.5084 134.438 63.2774 135.62 63.2318C137.369 63.1644 138.76 63.5444 139.792 64.3719C140.841 65.1988 141.469 66.3255 141.674 67.752L137.727 67.9041C137.641 67.4237 137.41 67.049 137.033 66.78C136.672 66.5104 136.2 66.3868 135.618 66.4093C135.118 66.4285 134.739 66.5432 134.48 66.7534C134.221 66.9468 134.097 67.2101 134.11 67.5432C134.126 67.9429 134.345 68.2346 134.769 68.4184C135.21 68.6016 135.884 68.7758 136.791 68.9409C137.834 69.1676 138.685 69.4016 139.345 69.6431C140.004 69.8678 140.586 70.2624 141.092 70.8267C141.613 71.3736 141.901 72.1298 141.955 73.0951C141.986 73.9111 141.781 74.6529 141.34 75.3204C140.915 75.9706 140.276 76.4956 139.424 76.8954C138.589 77.2945 137.605 77.5159 136.473 77.5596Z" fill="#2A3139"/>
<rect x="0.5625" y="13.4709" width="184.364" height="40" transform="rotate(-4.16567 0.5625 13.4709)" fill="#40FF62"/>
<rect x="0.5625" y="13.4709" width="184.364" height="40" transform="rotate(-4.16567 0.5625 13.4709)" fill="#40FF62"/>
<rect x="0.5625" y="13.4709" width="184.364" height="40" transform="rotate(-4.16567 0.5625 13.4709)" fill="#1F262E"/>
<path d="M32.0088 24.1457L33.2837 41.6493L29.02 41.9598L28.4951 34.7539L21.8627 35.237L22.3875 42.4429L18.1238 42.7534L16.849 25.2498L21.1127 24.9393L21.6121 31.7961L28.2445 31.313L27.7451 24.4562L32.0088 24.1457ZM35.0054 34.5054C34.9013 33.0758 35.0758 31.8014 35.5291 30.6822C35.9989 29.5618 36.6781 28.6768 37.5666 28.0272C38.4551 27.3776 39.4728 27.011 40.6198 26.9275C41.6005 26.8561 42.4711 26.9932 43.2316 27.3389C44.0086 27.6833 44.6202 28.1652 45.0664 28.7844L44.9229 26.8146L49.1866 26.5041L50.2 40.4172L45.9363 40.7278L45.7928 38.758C45.4245 39.4365 44.8808 40.0025 44.1618 40.4559C43.4595 40.9082 42.618 41.17 41.6372 41.2414C40.5069 41.3237 39.4551 41.1079 38.4819 40.5939C37.5074 40.0633 36.7066 39.2777 36.0793 38.2372C35.4675 37.1789 35.1095 35.9349 35.0054 34.5054ZM45.4296 33.7712C45.3521 32.7073 44.9918 31.8897 44.3486 31.3182C43.722 30.7456 42.9848 30.4901 42.1371 30.5519C41.2893 30.6136 40.5886 30.9738 40.035 31.6324C39.4968 32.2732 39.2664 33.1255 39.3439 34.1894C39.4214 35.2532 39.774 36.0798 40.4018 36.6691C41.045 37.2405 41.7905 37.4954 42.6383 37.4336C43.486 37.3719 44.1784 37.0123 44.7154 36.3549C45.269 35.6963 45.5071 34.835 45.4296 33.7712ZM58.9591 39.9798C57.7457 40.0682 56.6501 39.9391 55.6723 39.5925C54.6945 39.246 53.9054 38.7353 53.3048 38.0605C52.7029 37.369 52.3361 36.5769 52.2042 35.6841L56.4181 35.3772C56.503 35.8557 56.7559 36.2299 57.1766 36.5001C57.5974 36.7702 58.0986 36.8841 58.6804 36.8418C59.2124 36.803 59.6123 36.6736 59.8804 36.4536C60.1639 36.2157 60.2935 35.9305 60.2693 35.5981C60.2402 35.1991 60.0113 34.9234 59.5824 34.7708C59.1523 34.6016 58.4633 34.4345 57.5155 34.2696C56.5012 34.1095 55.6525 33.929 54.9695 33.7281C54.2852 33.5106 53.682 33.1451 53.16 32.6316C52.6368 32.1016 52.3407 31.3628 52.2717 30.4153C52.2136 29.6174 52.377 28.8786 52.762 28.1988C53.1624 27.5013 53.7725 26.9304 54.5924 26.4864C55.4289 26.0411 56.4373 25.7755 57.6175 25.6895C59.3629 25.5624 60.7657 25.8947 61.8261 26.6864C62.903 27.477 63.5683 28.5815 63.822 30.0002L59.8825 30.2871C59.7809 29.8099 59.5369 29.4433 59.1507 29.1874C58.781 28.9302 58.3053 28.8228 57.7235 28.8652C57.2248 28.9015 56.8497 29.0291 56.5983 29.2479C56.3457 29.4502 56.2315 29.7175 56.2557 30.05C56.2847 30.4489 56.5143 30.733 56.9444 30.9022C57.3911 31.0702 58.0705 31.2212 58.9827 31.3553C60.0327 31.5462 60.8915 31.751 61.5591 31.9698C62.2256 32.1719 62.821 32.5463 63.3454 33.093C63.8853 33.6218 64.1986 34.3677 64.2855 35.3306C64.3448 36.1451 64.1653 36.8935 63.7471 37.5757C63.3443 38.24 62.724 38.7865 61.8863 39.2152C61.0652 39.6426 60.0895 39.8975 58.9591 39.9798ZM72.8627 38.9672C71.6493 39.0555 70.5537 38.9265 69.5759 38.5799C68.5981 38.2333 67.809 37.7227 67.2084 37.0478C66.6065 36.3564 66.2397 35.5643 66.1078 34.6715L70.3217 34.3646C70.4067 34.843 70.6595 35.2173 71.0802 35.4875C71.501 35.7576 72.0022 35.8715 72.584 35.8291C73.116 35.7904 73.5159 35.661 73.784 35.4409C74.0675 35.203 74.1971 34.9179 74.1729 34.5854C74.1438 34.1865 73.9149 33.9107 73.486 33.7581C73.0559 33.5889 72.3669 33.4219 71.4191 33.2569C70.4048 33.0969 69.5561 32.9164 68.8731 32.7155C68.1888 32.4979 67.5856 32.1324 67.0636 31.619C66.5404 31.0889 66.2443 30.3502 66.1753 29.4027C66.1172 28.6048 66.2806 27.866 66.6656 27.1862C67.066 26.4886 67.6761 25.9178 68.496 25.4737C69.3325 25.0284 70.3409 24.7628 71.5211 24.6769C73.2665 24.5497 74.6693 24.8821 75.7297 25.6738C76.8066 26.4643 77.4719 27.5689 77.7256 28.9876L73.7861 29.2745C73.6845 28.7973 73.4405 28.4307 73.0543 28.1747C72.6846 27.9176 72.2089 27.8102 71.6271 27.8526C71.1284 27.8889 70.7533 28.0165 70.5019 28.2353C70.2493 28.4375 70.1351 28.7049 70.1593 29.0373C70.1883 29.4363 70.4179 29.7203 70.848 29.8895C71.2947 30.0575 71.9741 30.2086 72.8863 30.3427C73.9363 30.5336 74.7951 30.7384 75.4627 30.9571C76.1292 31.1593 76.7246 31.5337 77.249 32.0803C77.7889 32.6092 78.1022 33.3551 78.1891 34.318C78.2484 35.1325 78.0689 35.8808 77.6507 36.563C77.2479 37.2274 76.6276 37.7739 75.7899 38.2025C74.9688 38.63 73.9931 38.8848 72.8627 38.9672ZM84.0116 19.4056L85.3555 37.8568L81.0918 38.1673L79.7479 19.7162L84.0116 19.4056ZM101.038 29.4955C101.067 29.8944 101.072 30.3118 101.054 30.7477L91.4042 31.4504C91.5336 32.31 91.8563 32.9549 92.3723 33.3852C92.9036 33.7977 93.5267 33.9779 94.2415 33.9259C95.3053 33.8484 96.0123 33.3457 96.3625 32.4178L100.901 32.0873C100.734 33.0185 100.37 33.8722 99.8087 34.6484C99.2635 35.4234 98.549 36.0519 97.665 36.5341C96.781 37.0162 95.7738 37.2985 94.6435 37.3808C93.2804 37.4801 92.0458 37.2776 90.9396 36.7733C89.8334 36.2689 88.9417 35.4983 88.2646 34.4615C87.5875 33.4246 87.1963 32.183 87.0909 30.7369C86.9856 29.2907 87.1845 28.0062 87.6876 26.8834C88.2073 25.7593 88.9779 24.8676 89.9994 24.2084C91.0209 23.5491 92.2214 23.1692 93.6011 23.0687C94.9475 22.9707 96.165 23.1661 97.2533 23.655C98.3417 24.1439 99.215 24.8907 99.873 25.8956C100.548 26.8992 100.936 28.0992 101.038 29.4955ZM96.5924 28.6913C96.5392 27.9599 96.2475 27.3963 95.7173 27.0004C95.1871 26.6045 94.5481 26.4338 93.8 26.4883C93.0853 26.5404 92.4937 26.7923 92.0253 27.2442C91.5735 27.6949 91.3172 28.3068 91.2566 29.0799L96.5924 28.6913ZM113.765 25.2096L114.023 28.7503L103.052 29.5493L102.794 26.0087L113.765 25.2096ZM128.394 17.1257L128.642 20.5416L121.511 21.061L121.78 24.7512L127.116 24.3626L127.357 27.6788L122.022 28.0674L122.537 35.1487L118.274 35.4592L116.999 17.9556L128.394 17.1257ZM135.329 22.5613C135.772 21.7603 136.351 21.1165 137.068 20.6298C137.783 20.1265 138.598 19.8416 139.512 19.775L139.841 24.2881L138.669 24.3734C137.605 24.4509 136.824 24.7417 136.326 25.2459C135.827 25.7334 135.619 26.5507 135.703 27.6977L136.173 34.1556L131.909 34.4661L130.896 20.5529L135.16 20.2424L135.329 22.5613ZM155.167 25.5531C155.196 25.9521 155.201 26.3694 155.183 26.8053L145.533 27.5081C145.663 28.3676 145.985 29.0125 146.501 29.4429C147.033 29.8553 147.656 30.0356 148.371 29.9835C149.434 29.906 150.141 29.4033 150.492 28.4754L155.03 28.1449C154.863 29.0761 154.5 29.9298 153.938 30.706C153.393 31.481 152.678 32.1096 151.794 32.5917C150.91 33.0739 149.903 33.3561 148.773 33.4384C147.41 33.5377 146.175 33.3352 145.069 32.8309C143.962 32.3266 143.071 31.556 142.394 30.5191C141.717 29.4822 141.325 28.2407 141.22 26.7945C141.115 25.3483 141.314 24.0638 141.817 22.941C142.336 21.8169 143.107 20.9253 144.128 20.266C145.15 19.6067 146.351 19.2268 147.73 19.1263C149.077 19.0283 150.294 19.2237 151.382 19.7126C152.471 20.2015 153.344 20.9484 154.002 21.9532C154.677 22.9568 155.065 24.1568 155.167 25.5531ZM150.722 24.7489C150.668 24.0175 150.377 23.4539 149.846 23.058C149.316 22.6621 148.677 22.4914 147.929 22.5459C147.214 22.598 146.623 22.85 146.154 23.3018C145.703 23.7525 145.446 24.3644 145.386 25.1375L150.722 24.7489ZM170.531 24.4341C170.56 24.833 170.566 25.2504 170.547 25.6862L160.898 26.389C161.027 27.2486 161.35 27.8935 161.866 28.3238C162.397 28.7363 163.02 28.9165 163.735 28.8645C164.799 28.787 165.506 28.2843 165.856 27.3564L170.394 27.0259C170.228 27.9571 169.864 28.8108 169.302 29.587C168.757 30.3619 168.043 30.9905 167.159 31.4727C166.275 31.9548 165.267 32.2371 164.137 32.3194C162.774 32.4187 161.539 32.2161 160.433 31.7118C159.327 31.2075 158.435 30.4369 157.758 29.4C157.081 28.3631 156.69 27.1216 156.585 25.6754C156.479 24.2293 156.678 22.9448 157.181 21.8219C157.701 20.6979 158.472 19.8062 159.493 19.1469C160.515 18.4877 161.715 18.1078 163.095 18.0073C164.441 17.9092 165.659 18.1046 166.747 18.5935C167.835 19.0824 168.709 19.8293 169.367 20.8342C170.041 21.8378 170.43 23.0378 170.531 24.4341ZM166.086 23.6299C166.033 22.8985 165.741 22.3348 165.211 21.939C164.681 21.5431 164.042 21.3724 163.294 21.4269C162.579 21.4789 161.987 21.7309 161.519 22.1828C161.067 22.6335 160.811 23.2454 160.75 24.0185L166.086 23.6299Z" fill="white"/>
</svg>
