<svg width="224" height="100" viewBox="0 0 224 100" fill="none" xmlns="http://www.w3.org/2000/svg">
<rect x="0.304688" y="55.5352" width="221.319" height="44" transform="rotate(-2.20792 0.304688 55.5352)" fill="#40FF62"/>
<path d="M21.0911 70.6598L21.2279 74.2072L26.9486 73.9866L27.0758 77.2841L21.355 77.5047L21.5033 81.3519L27.9735 81.1024L28.1055 84.5249L17.3635 84.939L16.6873 67.402L27.4294 66.9879L27.5613 70.4103L21.0911 70.6598ZM48.1224 69.6426C49.8544 69.5759 51.2486 70.0475 52.305 71.0575C53.378 72.067 53.9505 73.5043 54.0224 75.3696L54.3364 83.5135L50.0896 83.6773L49.7977 76.1079C49.763 75.2086 49.4949 74.5267 48.9933 74.0624C48.5077 73.5807 47.8486 73.3559 47.0159 73.388C46.1832 73.4201 45.5349 73.6953 45.0712 74.2136C44.6235 74.7145 44.417 75.4147 44.4517 76.314L44.7435 83.8834L40.4967 84.0471L40.2048 76.4777C40.1702 75.5784 39.902 74.8966 39.4004 74.4322C38.9149 73.9506 38.2557 73.7258 37.423 73.7579C36.5903 73.79 35.9421 74.0652 35.4784 74.5834C35.0307 75.0844 34.8241 75.7845 34.8588 76.6839L35.1506 84.2532L30.8788 84.4179L30.3414 70.4783L34.6132 70.3136L34.6806 72.0623C35.0912 71.4627 35.6398 70.9829 36.3264 70.6228C37.0124 70.2461 37.7967 70.0407 38.6794 70.0067C39.7286 69.9663 40.6699 70.1551 41.5033 70.5733C42.3534 70.9909 43.0276 71.607 43.526 72.4218C43.9795 71.6371 44.6133 70.9872 45.4273 70.4721C46.2414 69.957 47.1398 69.6805 48.1224 69.6426ZM61.1345 71.2675C61.5258 70.602 62.0802 70.0552 62.7975 69.6272C63.5149 69.1993 64.3649 68.9664 65.3475 68.9285C66.4967 68.8842 67.5488 69.1355 68.5039 69.6824C69.459 70.2294 70.2239 71.0339 70.7986 72.0958C71.3899 73.1572 71.7132 74.404 71.7684 75.8362C71.8236 77.2685 71.5976 78.5448 71.0904 79.6652C70.5992 80.7683 69.8989 81.6376 68.9893 82.2731C68.0792 82.8919 67.0495 83.2235 65.9004 83.2678C64.9344 83.3051 64.069 83.1383 63.3042 82.7675C62.556 82.396 61.9615 81.9019 61.5207 81.2851L61.852 89.8787L57.5802 90.0434L56.7866 69.4587L61.0584 69.294L61.1345 71.2675ZM67.4216 76.0038C67.3805 74.938 67.0487 74.1168 66.426 73.5404C65.8193 72.9466 65.083 72.6665 64.217 72.6998C63.3676 72.7326 62.655 73.0686 62.0792 73.708C61.5201 74.3466 61.2611 75.1989 61.3021 76.2648C61.3432 77.3307 61.6671 78.1605 62.2738 78.7542C62.8971 79.3473 63.6334 79.6275 64.4828 79.5947C65.3322 79.562 66.0447 79.2259 66.6205 78.5866C67.1957 77.9306 67.4627 77.0697 67.4216 76.0038ZM80.6322 82.6999C79.2665 82.7525 78.0229 82.5086 76.9012 81.9681C75.7962 81.4269 74.9064 80.6272 74.2318 79.5691C73.5739 78.5103 73.217 77.2565 73.1611 75.8076C73.1059 74.3753 73.3738 73.1057 73.965 71.9988C74.5555 70.8752 75.389 70.0008 76.4658 69.3755C77.5425 68.7502 78.7637 68.4112 80.1293 68.3586C81.495 68.3059 82.7386 68.5499 83.8603 69.0904C84.9819 69.6309 85.8804 70.4386 86.5556 71.5133C87.2302 72.5715 87.5951 73.8167 87.6503 75.2489C87.7056 76.6812 87.4296 77.9595 86.8225 79.0837C86.2313 80.1906 85.3891 81.057 84.2957 81.683C83.219 82.3082 81.9978 82.6472 80.6322 82.6999ZM80.4896 79.0026C81.3057 78.9711 81.9853 78.6447 82.5284 78.0233C83.0882 77.4013 83.3466 76.5324 83.3036 75.4165C83.2606 74.3007 82.9444 73.4539 82.355 72.8762C81.7823 72.2978 81.0879 72.0244 80.2718 72.0558C79.4391 72.0879 78.7595 72.4144 78.2331 73.0351C77.7059 73.6392 77.4642 74.5075 77.5079 75.64C77.5509 76.7558 77.8504 77.6032 78.4065 78.1822C78.9792 78.7606 79.6736 79.0341 80.4896 79.0026ZM109.658 67.4203L106.423 81.5053L101.702 81.6874L99.1548 72.7289L97.2301 81.8598L92.5336 82.0409L88.199 68.2476L92.4708 68.0829L94.8286 77.9744L96.7926 67.9163L101.314 67.742L104.07 77.5681L105.636 67.5753L109.658 67.4203ZM124.687 73.5958C124.703 73.9955 124.694 74.4129 124.661 74.8478L114.993 75.2205C115.093 76.084 115.393 76.7396 115.894 77.1873C116.411 77.6177 117.028 77.8191 117.744 77.7914C118.81 77.7504 119.534 77.2721 119.915 76.3567L124.462 76.1814C124.264 77.1064 123.871 77.9472 123.283 78.7037C122.712 79.4596 121.976 80.0634 121.076 80.5151C120.176 80.9668 119.16 81.2144 118.028 81.2581C116.662 81.3107 115.435 81.0662 114.347 80.5244C113.258 79.9826 112.393 79.1819 111.752 78.1225C111.111 77.0631 110.762 75.8089 110.706 74.36C110.651 72.9111 110.893 71.6341 111.434 70.5291C111.992 69.4235 112.793 68.5587 113.836 67.9347C114.88 67.3107 116.092 66.972 117.475 66.9187C118.824 66.8667 120.034 67.1036 121.105 67.6294C122.176 68.1552 123.023 68.9315 123.646 69.9582C124.286 70.9843 124.633 72.1969 124.687 73.5958ZM120.272 72.6402C120.244 71.9074 119.972 71.3342 119.455 70.9204C118.939 70.5067 118.306 70.3142 117.557 70.3431C116.841 70.3707 116.241 70.6024 115.757 71.038C115.29 71.473 115.013 72.0757 114.926 72.8463L120.272 72.6402ZM131.042 68.9225C131.512 68.1372 132.114 67.5135 132.847 67.0516C133.579 66.5731 134.403 66.3161 135.319 66.2808L135.493 70.8025L134.319 70.8477C133.253 70.8888 132.463 71.1528 131.948 71.6397C131.432 72.1099 131.196 72.9196 131.241 74.0687L131.49 80.5389L127.218 80.7036L126.681 66.764L130.953 66.5993L131.042 68.9225ZM155.147 65.5163C156.879 65.4496 158.274 65.9212 159.33 66.9312C160.403 67.9407 160.975 69.378 161.047 71.2433L161.361 79.3872L157.115 79.551L156.823 71.9816C156.788 71.0823 156.52 70.4004 156.018 69.9361C155.533 69.4544 154.874 69.2296 154.041 69.2617C153.208 69.2938 152.56 69.569 152.096 70.0873C151.649 70.5882 151.442 71.2884 151.477 72.1877L151.769 79.7571L147.522 79.9208L147.23 72.3514C147.195 71.4521 146.927 70.7703 146.425 70.3059C145.94 69.8243 145.281 69.5995 144.448 69.6316C143.615 69.6637 142.967 69.9389 142.503 70.4571C142.056 70.9581 141.849 71.6582 141.884 72.5575L142.176 80.1269L137.904 80.2916L137.366 66.352L141.638 66.1873L141.706 67.936C142.116 67.3364 142.665 66.8566 143.351 66.4965C144.037 66.1198 144.822 65.9144 145.704 65.8804C146.754 65.8399 147.695 66.0288 148.528 66.447C149.378 66.8646 150.053 67.4807 150.551 68.2955C151.004 67.5108 151.638 66.8609 152.452 66.3458C153.266 65.8307 154.165 65.5542 155.147 65.5163ZM177.212 71.5708C177.227 71.9705 177.218 72.3878 177.185 72.8227L167.517 73.1955C167.617 74.0589 167.918 74.7145 168.419 75.1622C168.936 75.5926 169.552 75.794 170.268 75.7664C171.334 75.7253 172.058 75.2471 172.44 74.3317L176.986 74.1564C176.788 75.0814 176.396 75.9221 175.808 76.6787C175.236 77.4346 174.501 78.0384 173.601 78.49C172.701 78.9417 171.685 79.1894 170.552 79.233C169.186 79.2857 167.959 79.0411 166.871 78.4993C165.783 77.9575 164.918 77.1569 164.277 76.0975C163.635 75.0381 163.287 73.7839 163.231 72.335C163.175 70.886 163.418 69.6091 163.959 68.5041C164.517 67.3984 165.317 66.5336 166.361 65.9096C167.404 65.2856 168.617 64.947 169.999 64.8937C171.348 64.8417 172.558 65.0786 173.629 65.6044C174.7 66.1302 175.548 66.9064 176.171 67.9332C176.811 68.9593 177.158 70.1718 177.212 71.5708ZM172.797 70.6152C172.769 69.8824 172.496 69.3091 171.98 68.8953C171.464 68.4816 170.831 68.2892 170.081 68.3181C169.365 68.3457 168.765 68.5773 168.282 69.0129C167.815 69.4479 167.538 70.0507 167.451 70.8213L172.797 70.6152ZM187.693 64.2615C189.325 64.1986 190.645 64.6815 191.652 65.7101C192.675 66.7214 193.222 68.1514 193.294 70L193.608 78.144L189.361 78.3077L189.069 70.7383C189.033 69.8057 188.763 69.0906 188.261 68.5929C187.758 68.0952 187.098 67.8621 186.282 67.8936C185.466 67.9251 184.827 68.2082 184.363 68.7431C183.9 69.278 183.687 70.0118 183.723 70.9445L184.015 78.5138L179.743 78.6785L179.205 64.7389L183.477 64.5742L183.548 66.4228C183.958 65.7899 184.522 65.2845 185.241 64.9065C185.96 64.5118 186.777 64.2969 187.693 64.2615ZM204.206 74.1077L204.345 77.73L202.172 77.8138C200.623 77.8735 199.401 77.5453 198.506 76.8293C197.611 76.0966 197.13 74.8725 197.064 73.1571L196.85 67.6113L195.151 67.6768L195.014 64.1294L196.713 64.0639L196.582 60.6664L200.854 60.5017L200.985 63.8992L203.783 63.7913L203.92 67.3387L201.122 67.4466L201.337 73.0424C201.353 73.4588 201.465 73.7547 201.672 73.9302C201.879 74.1057 202.215 74.1844 202.682 74.1664L204.206 74.1077Z" fill="#2A3139"/>
<rect x="15.8203" y="14.5898" width="189.822" height="41.8442" transform="rotate(-4.16567 15.8203 14.5898)" fill="#40FF62"/>
<rect x="15.8203" y="14.5898" width="189.822" height="41.8442" transform="rotate(-4.16567 15.8203 14.5898)" fill="#40FF62"/>
<rect x="15.8203" y="14.5898" width="189.822" height="41.8442" transform="rotate(-4.16567 15.8203 14.5898)" fill="#1F262E"/>
<path d="M47.2776 25.3032L48.5525 42.8069L44.2887 43.1174L43.7639 35.9115L37.1315 36.3946L37.6563 43.6005L33.3926 43.911L32.1178 26.4074L36.3815 26.0968L36.8809 32.9537L43.5133 32.4706L43.0139 25.6138L47.2776 25.3032ZM57.9782 42.3209C56.6151 42.4202 55.3639 42.2189 54.2244 41.717C53.1016 41.2139 52.185 40.4451 51.4746 39.4106C50.7809 38.375 50.3813 37.134 50.276 35.6879C50.1719 34.2583 50.3963 32.9803 50.9493 31.8538C51.501 30.7107 52.3043 29.8083 53.359 29.1466C54.4137 28.4849 55.6226 28.1045 56.9857 28.0052C58.3487 27.9059 59.6 28.1072 60.7394 28.6091C61.8789 29.111 62.8044 29.8875 63.516 30.9386C64.2264 31.973 64.6336 33.205 64.7377 34.6346C64.8418 36.0641 64.6097 37.3511 64.0413 38.4954C63.4883 39.6219 62.6762 40.5165 61.6049 41.1795C60.5501 41.8411 59.3412 42.2216 57.9782 42.3209ZM57.7094 38.6307C58.5239 38.5714 59.192 38.2219 59.7136 37.5823C60.2518 36.9415 60.4803 36.0643 60.3992 34.9506C60.3181 33.8369 59.9731 33.0014 59.3644 32.4441C58.7723 31.8857 58.0689 31.6361 57.2544 31.6954C56.4233 31.7559 55.7553 32.1054 55.2503 32.7438C54.7441 33.3655 54.5322 34.2416 54.6145 35.3719C54.6956 36.4856 55.0239 37.3223 55.5995 37.882C56.1916 38.4404 56.8949 38.69 57.7094 38.6307ZM84.2351 26.0707C85.9638 25.9448 87.3734 26.3685 88.4636 27.3419C89.5705 28.314 90.1917 29.731 90.3273 31.5927L90.9193 39.7212L86.6806 40.0299L86.1303 32.4749C86.0649 31.5773 85.7737 30.905 85.2565 30.4581C84.7547 29.9933 84.0883 29.7912 83.2572 29.8517C82.426 29.9122 81.7876 30.2094 81.3419 30.7432C80.9115 31.2591 80.7291 31.9659 80.7944 32.8635L81.3447 40.4185L77.1059 40.7273L76.5557 33.1723C76.4903 32.2746 76.199 31.6024 75.6819 31.1554C75.1801 30.6906 74.5137 30.4885 73.6825 30.549C72.8514 30.6096 72.213 30.9067 71.7672 31.4405C71.3369 31.9565 71.1544 32.6633 71.2198 33.5609L71.7701 41.1159L67.5064 41.4264L66.493 27.5133L70.7567 27.2027L70.8838 28.9481C71.2737 28.3348 71.8055 27.8366 72.4795 27.4533C73.1522 27.0533 73.9291 26.8213 74.8101 26.7571C75.8573 26.6808 76.8045 26.8375 77.6517 27.2269C78.5155 27.6152 79.2104 28.208 79.7364 29.0052C80.1627 28.2055 80.7739 27.5343 81.57 26.9917C82.366 26.4491 83.2544 26.1421 84.2351 26.0707ZM106.494 31.3678C106.523 31.7667 106.528 32.1841 106.51 32.6199L96.8601 33.3227C96.9895 34.1823 97.3122 34.8272 97.8282 35.2575C98.3596 35.67 98.9826 35.8502 99.6974 35.7982C100.761 35.7207 101.468 35.218 101.818 34.2901L106.356 33.9596C106.19 34.8908 105.826 35.7445 105.265 36.5207C104.719 37.2957 104.005 37.9242 103.121 38.4064C102.237 38.8885 101.23 39.1708 100.099 39.2531C98.7364 39.3524 97.5017 39.1499 96.3955 38.6455C95.2893 38.1412 94.3976 37.3706 93.7205 36.3338C93.0434 35.2969 92.6522 34.0553 92.5469 32.6092C92.4415 31.163 92.6404 29.8785 93.1435 28.7556C93.6632 27.6316 94.4338 26.7399 95.4553 26.0806C96.4768 25.4214 97.6774 25.0415 99.057 24.941C100.403 24.8429 101.621 25.0384 102.709 25.5273C103.798 26.0162 104.671 26.763 105.329 27.7679C106.004 28.7715 106.392 29.9715 106.494 31.3678ZM102.048 30.5636C101.995 29.8322 101.703 29.2685 101.173 28.8727C100.643 28.4768 100.004 28.3061 99.256 28.3606C98.5412 28.4126 97.9496 28.6646 97.4812 29.1165C97.0294 29.5672 96.7732 30.1791 96.7125 30.9522L102.048 30.5636ZM117.787 23.6019L118.045 27.1425L123.755 26.7266L123.995 30.0179L118.285 30.4338L118.565 34.2736L125.023 33.8033L125.271 37.2192L114.55 38.0001L113.275 20.4965L123.996 19.7156L124.245 23.1315L117.787 23.6019ZM126.687 30.1477C126.586 28.768 126.779 27.5174 127.266 26.3958C127.769 25.2729 128.481 24.3772 129.401 23.7085C130.337 23.0221 131.379 22.6371 132.526 22.5535C133.407 22.4894 134.208 22.5898 134.929 22.8548C135.649 23.1031 136.245 23.4858 136.717 24.0029L136.601 22.4071L140.864 22.0966L142.361 42.6422L138.097 42.9527L137.487 34.5749C137.047 35.1918 136.491 35.7002 135.818 36.1001C135.162 36.4988 134.394 36.7303 133.513 36.7944C132.382 36.8768 131.313 36.6538 130.306 36.1256C129.298 35.5974 128.464 34.8143 127.803 33.7762C127.159 32.7369 126.787 31.5274 126.687 30.1477ZM137.107 29.3637C137.053 28.6157 136.858 28.0032 136.522 27.5263C136.202 27.0316 135.8 26.6765 135.317 26.4611C134.832 26.229 134.332 26.1318 133.817 26.1693C133.318 26.2056 132.846 26.3737 132.399 26.6736C131.952 26.9568 131.598 27.367 131.336 27.9041C131.074 28.4412 130.971 29.0837 131.025 29.8317C131.08 30.5798 131.275 31.2005 131.612 31.694C131.948 32.1709 132.358 32.5254 132.843 32.7575C133.326 32.9729 133.817 33.0625 134.316 33.0261C134.815 32.9898 135.288 32.83 135.735 32.5468C136.198 32.2457 136.551 31.8272 136.797 31.2914C137.058 30.7543 137.162 30.1117 137.107 29.3637ZM157.688 20.8713L158.701 34.7844L154.437 35.095L154.299 33.2C153.912 33.8465 153.358 34.3882 152.638 34.825C151.933 35.2439 151.132 35.4861 150.234 35.5515C149.17 35.629 148.214 35.4647 147.366 35.0586C146.516 34.6358 145.834 33.992 145.32 33.1271C144.806 32.2621 144.505 31.2229 144.416 30.0095L143.824 21.881L148.063 21.5723L148.613 29.1273C148.681 30.0581 148.975 30.7637 149.494 31.2439C150.014 31.724 150.681 31.9345 151.496 31.8752C152.327 31.8146 152.965 31.5092 153.409 30.9587C153.854 30.4083 154.042 29.6677 153.974 28.7368L153.424 21.1818L157.688 20.8713ZM162.789 19.0459C162.041 19.1004 161.41 18.9291 160.897 18.532C160.399 18.1171 160.126 17.5855 160.079 16.9372C160.03 16.2723 160.223 15.7068 160.657 15.2407C161.106 14.7568 161.705 14.4876 162.453 14.4331C163.185 14.3798 163.799 14.5607 164.297 14.9756C164.811 15.3727 165.092 15.9036 165.14 16.5686C165.188 17.2168 164.987 17.7829 164.537 18.2669C164.103 18.7329 163.521 18.9926 162.789 19.0459ZM165.014 20.3377L166.027 34.2508L161.764 34.5614L160.75 20.6482L165.014 20.3377ZM176.608 29.8456L176.872 33.461L174.702 33.619C173.156 33.7316 171.924 33.4454 171.005 32.7603C170.085 32.0586 169.563 30.8517 169.438 29.1396L169.035 23.6042L167.339 23.7277L167.081 20.1871L168.777 20.0636L168.53 16.6726L172.794 16.3621L173.041 19.7531L175.833 19.5497L176.091 23.0903L173.299 23.2937L173.705 28.8789C173.736 29.2945 173.857 29.5864 174.07 29.7547C174.283 29.9231 174.622 29.9903 175.087 29.9564L176.608 29.8456ZM192.446 18.3398L185.213 39.496L180.625 39.8302L183.301 32.5165L176.662 19.4893L181.425 19.1425L185.275 27.6101L187.833 18.6757L192.446 18.3398Z" fill="white"/>
</svg>
