<svg width="245" height="97" viewBox="0 0 245 97" fill="none" xmlns="http://www.w3.org/2000/svg">
<rect x="34.6797" y="52.6367" width="174.544" height="44" transform="rotate(-2.20792 34.6797 52.6367)" fill="#40FF62"/>
<path d="M73.8954 63.4415L74.0273 66.864L66.8826 67.1394L67.0252 70.8367L72.3712 70.6306L72.4993 73.9531L67.1533 74.1592L67.4268 81.2539L63.155 81.4186L62.4789 63.8817L73.8954 63.4415ZM80.3758 62.2409L81.0885 80.7272L76.8167 80.8919L76.104 62.4056L80.3758 62.2409ZM97.0471 72.9066C97.0626 73.3063 97.0536 73.7236 97.0204 74.1585L87.3525 74.5313C87.4525 75.3947 87.753 76.0503 88.254 76.498C88.7709 76.9284 89.3875 77.1298 90.1036 77.1022C91.1695 77.0611 91.8933 76.5829 92.275 75.6675L96.8216 75.4922C96.6237 76.4172 96.2308 77.2579 95.6429 78.0145C95.0716 78.7704 94.336 79.3742 93.436 79.8258C92.5361 80.2775 91.5199 80.5252 90.3874 80.5688C89.0217 80.6215 87.7947 80.3769 86.7064 79.8351C85.6181 79.2933 84.7532 78.4927 84.1119 77.4333C83.4706 76.3739 83.1221 75.1197 83.0662 73.6708C83.0103 72.2219 83.253 70.9449 83.7942 69.8399C84.352 68.7342 85.1526 67.8694 86.196 67.2454C87.2394 66.6214 88.4522 66.2828 89.8346 66.2295C91.1835 66.1775 92.3936 66.4144 93.4646 66.9402C94.5357 67.466 95.3829 68.2422 96.0062 69.269C96.6462 70.2951 96.9932 71.5076 97.0471 72.9066ZM92.6321 71.951C92.6038 71.2182 92.3315 70.6449 91.8152 70.2312C91.2989 69.8174 90.666 69.625 89.9165 69.6539C89.2004 69.6815 88.6006 69.9131 88.117 70.3487C87.6501 70.7837 87.3731 71.3865 87.286 72.1571L92.6321 71.951ZM107.822 79.6965L105 75.9274L102.901 79.8863L98.2791 80.0644L102.601 72.7675L97.6168 66.1296L102.413 65.9447L105.235 69.6888L107.335 65.7549L111.956 65.5768L107.555 72.7767L112.618 79.5116L107.822 79.6965ZM115.82 63.9767C115.07 64.0056 114.446 63.8129 113.946 63.3985C113.462 62.9668 113.208 62.4262 113.183 61.7767C113.157 61.1105 113.369 60.5519 113.819 60.1009C114.284 59.6326 114.892 59.3841 115.641 59.3552C116.374 59.3269 116.982 59.5286 117.466 59.9603C117.966 60.3747 118.228 60.915 118.254 61.5812C118.279 62.2307 118.059 62.7896 117.593 63.2579C117.144 63.7089 116.552 63.9485 115.82 63.9767ZM117.999 65.3438L118.536 79.2834L114.264 79.4481L113.727 65.5085L117.999 65.3438ZM125.443 67.0333C125.817 66.3683 126.372 65.8216 127.106 65.393C127.84 64.9644 128.69 64.7315 129.656 64.6942C130.805 64.6499 131.857 64.9012 132.812 65.4482C133.767 65.9951 134.532 66.7996 135.107 67.8616C135.698 68.9229 136.021 70.1697 136.076 71.602C136.132 73.0342 135.906 74.3106 135.398 75.4309C134.907 76.534 134.207 77.4033 133.297 78.0388C132.387 78.6577 131.358 78.9893 130.208 79.0336C129.226 79.0714 128.361 78.913 127.613 78.5582C126.865 78.1867 126.27 77.6843 125.829 77.0508L125.904 78.9994L121.632 79.1641L120.919 60.6778L125.191 60.5131L125.443 67.0333ZM131.73 71.7696C131.689 70.7037 131.357 69.8825 130.734 69.3061C130.127 68.7124 129.391 68.4322 128.525 68.4656C127.676 68.4983 126.963 68.8344 126.387 69.4737C125.828 70.1124 125.569 70.9646 125.61 72.0305C125.651 73.0964 125.975 73.9262 126.582 74.5199C127.205 75.113 127.941 75.3932 128.791 75.3605C129.64 75.3277 130.353 74.9917 130.929 74.3523C131.504 73.6964 131.771 72.8354 131.73 71.7696ZM140.142 63.039C139.393 63.0679 138.768 62.8751 138.269 62.4607C137.785 62.029 137.531 61.4884 137.506 60.8389C137.48 60.1728 137.692 59.6142 138.142 59.1632C138.607 58.6949 139.215 58.4463 139.964 58.4174C140.697 58.3892 141.305 58.5909 141.789 59.0226C142.288 59.437 142.551 59.9772 142.577 60.6434C142.602 61.2929 142.382 61.8518 141.916 62.3201C141.466 62.7711 140.875 63.0107 140.142 63.039ZM142.322 64.406L142.859 78.3457L138.587 78.5104L138.05 64.5707L142.322 64.406ZM149.514 59.5754L150.227 78.0616L145.955 78.2263L145.242 59.7401L149.514 59.5754ZM154.877 62.4709C154.128 62.4998 153.503 62.307 153.004 61.8926C152.52 61.4609 152.266 60.9203 152.241 60.2708C152.215 59.6046 152.427 59.0461 152.877 58.5951C153.342 58.1268 153.95 57.8782 154.699 57.8493C155.432 57.821 156.04 58.0228 156.524 58.4545C157.024 58.8688 157.286 59.4091 157.312 60.0753C157.337 60.7248 157.117 61.2837 156.651 61.752C156.201 62.203 155.61 62.4426 154.877 62.4709ZM157.057 63.8379L157.594 77.7776L153.322 77.9423L152.785 64.0026L157.057 63.8379ZM168.32 73.7364L168.459 77.3587L166.286 77.4425C164.737 77.5022 163.515 77.174 162.62 76.458C161.725 75.7253 161.244 74.5012 161.178 72.7858L160.964 67.2399L159.265 67.3054L159.128 63.7581L160.827 63.6926L160.696 60.2951L164.968 60.1304L165.099 63.5279L167.897 63.42L168.034 66.9674L165.236 67.0752L165.451 72.6711C165.467 73.0874 165.579 73.3834 165.786 73.5588C165.993 73.7343 166.329 73.8131 166.796 73.7951L168.32 73.7364ZM184.541 62.7783L176.59 83.6751L171.993 83.8523L174.917 76.6343L168.727 63.388L173.499 63.204L177.058 71.7983L179.919 62.9565L184.541 62.7783Z" fill="#2A3139"/>
<rect x="0.382812" y="17.5569" width="241.668" height="40" transform="rotate(-4.16567 0.382812 17.5569)" fill="#40FF62"/>
<rect x="0.382812" y="17.5569" width="241.668" height="40" transform="rotate(-4.16567 0.382812 17.5569)" fill="#40FF62"/>
<rect x="0.382812" y="17.5569" width="241.668" height="40" transform="rotate(-4.16567 0.382812 17.5569)" fill="#1F262E"/>
<path d="M33.4997 25.1405L34.7745 42.6442L30.5108 42.9547L29.986 35.7488L23.3536 36.2319L23.8784 43.4378L19.6147 43.7483L18.3399 26.2447L22.6036 25.9341L23.103 32.791L29.7354 32.3079L29.236 25.4511L33.4997 25.1405ZM44.2003 42.1582C42.8372 42.2575 41.586 42.0562 40.4465 41.5543C39.3236 41.0512 38.407 40.2824 37.6967 39.2479C37.003 38.2123 36.6034 36.9713 36.4981 35.5252C36.394 34.0956 36.6184 32.8176 37.1714 31.6911C37.7231 30.548 38.5264 29.6456 39.5811 28.9839C40.6358 28.3222 41.8447 27.9418 43.2078 27.8425C44.5708 27.7432 45.8221 27.9445 46.9615 28.4464C48.101 28.9483 49.0265 29.7248 49.7381 30.7759C50.4484 31.8103 50.8557 33.0423 50.9598 34.4719C51.0639 35.9014 50.8318 37.1884 50.2634 38.3327C49.7104 39.4591 48.8983 40.3538 47.8269 41.0167C46.7722 41.6784 45.5633 42.0589 44.2003 42.1582ZM43.9315 38.468C44.746 38.4087 45.4141 38.0592 45.9357 37.4196C46.4739 36.7788 46.7024 35.9016 46.6213 34.7879C46.5402 33.6742 46.1952 32.8387 45.5865 32.2814C44.9944 31.723 44.291 31.4734 43.4765 31.5327C42.6454 31.5932 41.9773 31.9427 41.4724 32.5811C40.9662 33.2028 40.7543 34.0788 40.8366 35.2092C40.9177 36.3229 41.246 37.1596 41.8215 37.7193C42.4137 38.2777 43.117 38.5273 43.9315 38.468ZM70.4572 25.908C72.1859 25.782 73.5954 26.2058 74.6857 27.1792C75.7926 28.1513 76.4138 29.5683 76.5494 31.43L77.1414 39.5585L72.9027 39.8672L72.3524 32.3122C72.287 31.4146 71.9958 30.7423 71.4786 30.2954C70.9768 29.8306 70.3104 29.6284 69.4793 29.689C68.6481 29.7495 68.0097 30.0467 67.564 30.5805C67.1336 31.0964 66.9512 31.8032 67.0165 32.7008L67.5668 40.2558L63.328 40.5645L62.7778 33.0096C62.7124 32.1119 62.4211 31.4396 61.9039 30.9927C61.4022 30.5279 60.7358 30.3258 59.9046 30.3863C59.0735 30.4469 58.4351 30.744 57.9893 31.2778C57.559 31.7938 57.3765 32.5006 57.4419 33.3982L57.9921 40.9532L53.7284 41.2637L52.7151 27.3506L56.9788 27.04L57.1059 28.7854C57.4957 28.1721 58.0276 27.6738 58.7016 27.2905C59.3743 26.8906 60.1512 26.6586 61.0322 26.5944C62.0794 26.5181 63.0266 26.6747 63.8738 27.0642C64.7376 27.4525 65.4325 28.0453 65.9585 28.8425C66.3848 28.0427 66.996 27.3716 67.7921 26.829C68.5881 26.2864 69.4765 25.9794 70.4572 25.908ZM92.7156 31.2051C92.7447 31.604 92.75 32.0214 92.7316 32.4572L83.0822 33.16C83.2116 34.0196 83.5343 34.6645 84.0503 35.0948C84.5816 35.5073 85.2047 35.6875 85.9195 35.6355C86.9833 35.558 87.6904 35.0553 88.0405 34.1274L92.5785 33.7969C92.4124 34.7281 92.0484 35.5818 91.4867 36.358C90.9415 37.133 90.227 37.7615 89.343 38.2437C88.459 38.7258 87.4519 39.0081 86.3215 39.0904C84.9585 39.1897 83.7238 38.9871 82.6176 38.4828C81.5114 37.9785 80.6197 37.2079 79.9426 36.171C79.2655 35.1342 78.8743 33.8926 78.7689 32.4465C78.6636 31.0003 78.8625 29.7158 79.3656 28.5929C79.8853 27.4689 80.6559 26.5772 81.6774 25.9179C82.6989 25.2587 83.8994 24.8788 85.2791 24.7783C86.6256 24.6802 87.843 24.8756 88.9314 25.3645C90.0198 25.8534 90.893 26.6003 91.551 27.6052C92.2257 28.6088 92.6139 29.8088 92.7156 31.2051ZM88.2705 30.4009C88.2172 29.6695 87.9255 29.1058 87.3953 28.71C86.8652 28.3141 86.2261 28.1434 85.4781 28.1979C84.7633 28.2499 84.1717 28.5019 83.7033 28.9538C83.2515 29.4045 82.9953 30.0164 82.9346 30.7895L88.2705 30.4009ZM101.836 37.9604C100.473 38.0597 99.2214 37.8584 98.0819 37.3565C96.9591 36.8534 96.0425 36.0846 95.3321 35.0502C94.6384 34.0145 94.2389 32.7736 94.1335 31.3274C94.0294 29.8979 94.2538 28.6199 94.8068 27.4934C95.3586 26.3503 96.1618 25.4479 97.2165 24.7862C98.2712 24.1245 99.4801 23.744 100.843 23.6447C102.206 23.5454 103.457 23.7468 104.597 24.2486C105.736 24.7505 106.662 25.527 107.374 26.5781C108.084 27.6126 108.491 28.8446 108.595 30.2741C108.699 31.7037 108.467 32.9906 107.899 34.1349C107.346 35.2614 106.534 36.1561 105.462 36.819C104.408 37.4807 103.199 37.8612 101.836 37.9604ZM101.567 34.2702C102.381 34.2109 103.049 33.8614 103.571 33.2219C104.109 32.5811 104.338 31.7038 104.257 30.5901C104.176 29.4764 103.831 28.6409 103.222 28.0837C102.63 27.5252 101.926 27.2756 101.112 27.3349C100.281 27.3955 99.6128 27.7449 99.1078 28.3833C98.6016 29.005 98.3897 29.8811 98.472 31.0114C98.5531 32.1251 98.8815 32.9618 99.457 33.5215C100.049 34.08 100.752 34.3295 101.567 34.2702ZM130.323 21.6982L127.571 35.8855L122.858 36.2288L120.007 27.3625L118.395 36.5538L113.708 36.8952L108.904 23.2581L113.168 22.9476L115.862 32.7528L117.482 22.6334L121.995 22.3047L125.084 32.031L126.308 21.9906L130.323 21.6982ZM140.415 20.8127C142.044 20.6941 143.38 21.1316 144.421 22.1252C145.478 23.101 146.074 24.5114 146.208 26.3565L146.8 34.485L142.561 34.7937L142.011 27.2387C141.943 26.3079 141.65 25.6023 141.13 25.1222C140.611 24.642 139.944 24.4315 139.129 24.4909C138.315 24.5502 137.685 24.855 137.24 25.4055C136.796 25.9559 136.608 26.6965 136.675 27.6274L137.226 35.1824L132.962 35.4929L131.949 21.5798L136.212 21.2692L136.347 23.1143C136.734 22.4678 137.281 21.9434 137.987 21.541C138.691 21.1221 139.501 20.8793 140.415 20.8127ZM162.355 26.133C162.384 26.532 162.39 26.9493 162.371 27.3852L152.722 28.088C152.851 28.9475 153.174 29.5924 153.69 30.0227C154.221 30.4352 154.844 30.6155 155.559 30.5634C156.623 30.4859 157.33 29.9832 157.68 29.0553L162.218 28.7248C162.052 29.656 161.688 30.5097 161.126 31.2859C160.581 32.0609 159.867 32.6894 158.983 33.1716C158.099 33.6538 157.092 33.936 155.961 34.0183C154.598 34.1176 153.364 33.9151 152.257 33.4108C151.151 32.9065 150.259 32.1359 149.582 31.099C148.905 30.0621 148.514 28.8206 148.409 27.3744C148.303 25.9282 148.502 24.6437 149.005 23.5209C149.525 22.3968 150.296 21.5051 151.317 20.8459C152.339 20.1866 153.539 19.8067 154.919 19.7062C156.265 19.6082 157.483 19.8036 158.571 20.2925C159.66 20.7814 160.533 21.5282 161.191 22.5331C161.865 23.5367 162.254 24.7367 162.355 26.133ZM157.91 25.3288C157.857 24.5974 157.565 24.0338 157.035 23.6379C156.505 23.242 155.866 23.0713 155.118 23.1258C154.403 23.1779 153.811 23.4298 153.343 23.8817C152.891 24.3324 152.635 24.9443 152.574 25.7174L157.91 25.3288ZM168.547 21.2453C168.99 20.4444 169.57 19.8006 170.286 19.3139C171.002 18.8106 171.816 18.5257 172.731 18.4591L173.059 22.9721L171.887 23.0575C170.824 23.135 170.043 23.4258 169.545 23.93C169.045 24.4175 168.838 25.2348 168.921 26.3817L169.391 32.8396L165.128 33.1502L164.114 19.237L168.378 18.9265L168.547 21.2453ZM181.467 32.1606C180.254 32.249 179.158 32.1199 178.181 31.7734C177.203 31.4268 176.414 30.9161 175.813 30.2413C175.211 29.5499 174.844 28.7577 174.712 27.865L178.926 27.5581C179.011 28.0365 179.264 28.4108 179.685 28.6809C180.106 28.9511 180.607 29.065 181.189 29.0226C181.721 28.9838 182.121 28.8545 182.389 28.6344C182.672 28.3965 182.802 28.1113 182.778 27.7789C182.748 27.3799 182.519 27.1042 182.091 26.9516C181.661 26.7824 180.972 26.6153 180.024 26.4504C179.009 26.2903 178.161 26.1098 177.478 25.9089C176.793 25.6914 176.19 25.3259 175.668 24.8125C175.145 24.2824 174.849 23.5436 174.78 22.5961C174.722 21.7983 174.885 21.0594 175.27 20.3797C175.671 19.6821 176.281 19.1113 177.101 18.6672C177.937 18.2219 178.946 17.9563 180.126 17.8703C181.871 17.7432 183.274 18.0755 184.334 18.8673C185.411 19.6578 186.077 20.7624 186.33 22.181L182.391 22.468C182.289 21.9907 182.045 21.6242 181.659 21.3682C181.289 21.1111 180.814 21.0037 180.232 21.046C179.733 21.0824 179.358 21.2099 179.107 21.4288C178.854 21.631 178.74 21.8983 178.764 22.2308C178.793 22.6297 179.023 22.9138 179.453 23.083C179.899 23.251 180.579 23.402 181.491 23.5361C182.541 23.727 183.4 23.9319 184.067 24.1506C184.734 24.3527 185.329 24.7271 185.854 25.2738C186.394 25.8027 186.707 26.5485 186.794 27.5114C186.853 28.326 186.674 29.0743 186.255 29.7565C185.853 30.4208 185.232 30.9673 184.395 31.396C183.573 31.8234 182.598 32.0783 181.467 32.1606ZM197.225 16.6751C198.82 16.5589 200.139 16.9976 201.181 17.9912C202.221 18.9682 202.808 20.3793 202.943 22.2244L203.535 30.3529L199.296 30.6616L198.746 23.1066C198.678 22.1757 198.384 21.4702 197.865 20.99C197.345 20.5098 196.678 20.2994 195.864 20.3587C195.049 20.418 194.419 20.7229 193.975 21.2733C193.53 21.8237 193.342 22.5644 193.41 23.4952L193.96 31.0502L189.696 31.3608L188.353 12.9096L192.616 12.5991L193.083 19.0071C193.47 18.3606 194.025 17.8273 194.746 17.4071C195.468 16.9869 196.294 16.7429 197.225 16.6751ZM207.523 14.6216C206.775 14.6761 206.144 14.5048 205.631 14.1077C205.133 13.6928 204.86 13.1612 204.813 12.5129C204.764 11.848 204.957 11.2825 205.391 10.8164C205.841 10.3325 206.439 10.0633 207.187 10.0088C207.919 9.95553 208.533 10.1364 209.032 10.5513C209.545 10.9483 209.826 11.4793 209.875 12.1442C209.922 12.7925 209.721 13.3586 209.271 13.8425C208.837 14.3086 208.255 14.5683 207.523 14.6216ZM209.748 15.9134L210.761 29.8265L206.498 30.1371L205.484 16.2239L209.748 15.9134ZM217.245 17.3476C217.613 16.669 218.149 16.1037 218.851 15.6514C219.553 15.1992 220.395 14.9374 221.376 14.866C222.523 14.7824 223.583 14.9977 224.556 15.5117C225.529 16.0257 226.321 16.8035 226.932 17.8453C227.559 18.8858 227.925 20.1208 228.029 21.5504C228.133 22.9799 227.951 24.2632 227.482 25.4002C227.029 26.5195 226.359 27.4122 225.471 28.0784C224.583 28.728 223.565 29.0945 222.418 29.1781C221.454 29.2483 220.583 29.1112 219.806 28.7667C219.046 28.421 218.435 27.9475 217.973 27.3461L218.598 35.9234L214.334 36.2339L212.838 15.6883L217.102 15.3778L217.245 17.3476ZM223.69 21.8663C223.613 20.8025 223.253 19.9932 222.611 19.4383C221.984 18.8657 221.239 18.6108 220.375 18.6738C219.527 18.7355 218.826 19.0957 218.273 19.7543C217.736 20.4117 217.506 21.2724 217.583 22.3362C217.661 23.4 218.013 24.2183 218.639 24.791C219.283 25.3624 220.028 25.6173 220.876 25.5555C221.724 25.4938 222.424 25.1336 222.978 24.475C223.53 23.7997 223.768 22.9302 223.69 21.8663Z" fill="white"/>
</svg>
