<svg width="351" height="139" viewBox="0 0 351 139" fill="none" xmlns="http://www.w3.org/2000/svg">
<rect x="15" y="71.636" width="279.744" height="57.711" fill="#1E93FF"/>
<path d="M62.512 92.884C64.272 92.884 65.816 93.228 67.144 93.916C68.488 94.604 69.52 95.588 70.24 96.868C70.976 98.132 71.344 99.604 71.344 101.284C71.344 102.964 70.976 104.436 70.24 105.7C69.52 106.948 68.488 107.916 67.144 108.604C65.816 109.292 64.272 109.636 62.512 109.636H56.656V92.884H62.512ZM62.392 106.78C64.152 106.78 65.512 106.3 66.472 105.34C67.432 104.38 67.912 103.028 67.912 101.284C67.912 99.54 67.432 98.18 66.472 97.204C65.512 96.212 64.152 95.716 62.392 95.716H60.016V106.78H62.392ZM79.7631 109.852C78.4831 109.852 77.3311 109.572 76.3071 109.012C75.2831 108.436 74.4751 107.628 73.8831 106.588C73.3071 105.548 73.0191 104.348 73.0191 102.988C73.0191 101.628 73.3151 100.428 73.9071 99.388C74.5151 98.348 75.3391 97.548 76.3791 96.988C77.4191 96.412 78.5791 96.124 79.8591 96.124C81.1391 96.124 82.2991 96.412 83.3391 96.988C84.3791 97.548 85.1951 98.348 85.7871 99.388C86.3951 100.428 86.6991 101.628 86.6991 102.988C86.6991 104.348 86.3871 105.548 85.7631 106.588C85.1551 107.628 84.3231 108.436 83.2671 109.012C82.2271 109.572 81.0591 109.852 79.7631 109.852ZM79.7631 106.924C80.3711 106.924 80.9391 106.78 81.4671 106.492C82.0111 106.188 82.4431 105.74 82.7631 105.148C83.0831 104.556 83.2431 103.836 83.2431 102.988C83.2431 101.724 82.9071 100.756 82.2351 100.084C81.5791 99.396 80.7711 99.052 79.8111 99.052C78.8511 99.052 78.0431 99.396 77.3871 100.084C76.7471 100.756 76.4271 101.724 76.4271 102.988C76.4271 104.252 76.7391 105.228 77.3631 105.916C78.0031 106.588 78.8031 106.924 79.7631 106.924ZM88.2998 102.988C88.2998 101.612 88.5798 100.412 89.1398 99.388C89.6998 98.348 90.4758 97.548 91.4678 96.988C92.4598 96.412 93.5958 96.124 94.8758 96.124C96.5238 96.124 97.8838 96.54 98.9558 97.372C100.044 98.188 100.772 99.34 101.14 100.828H97.5158C97.3238 100.252 96.9958 99.804 96.5318 99.484C96.0838 99.148 95.5238 98.98 94.8518 98.98C93.8918 98.98 93.1318 99.332 92.5718 100.036C92.0118 100.724 91.7318 101.708 91.7318 102.988C91.7318 104.252 92.0118 105.236 92.5718 105.94C93.1318 106.628 93.8918 106.972 94.8518 106.972C96.2118 106.972 97.0998 106.364 97.5158 105.148H101.14C100.772 106.588 100.044 107.732 98.9558 108.58C97.8678 109.428 96.5078 109.852 94.8758 109.852C93.5958 109.852 92.4598 109.572 91.4678 109.012C90.4758 108.436 89.6998 107.636 89.1398 106.612C88.5798 105.572 88.2998 104.364 88.2998 102.988ZM116.153 96.34V109.636H112.769V107.956C112.337 108.532 111.769 108.988 111.065 109.324C110.377 109.644 109.625 109.804 108.809 109.804C107.769 109.804 106.849 109.588 106.049 109.156C105.249 108.708 104.617 108.06 104.153 107.212C103.705 106.348 103.481 105.324 103.481 104.14V96.34H106.841V103.66C106.841 104.716 107.105 105.532 107.633 106.108C108.161 106.668 108.881 106.948 109.793 106.948C110.721 106.948 111.449 106.668 111.977 106.108C112.505 105.532 112.769 104.716 112.769 103.66V96.34H116.153ZM135.981 96.148C137.613 96.148 138.925 96.652 139.917 97.66C140.925 98.652 141.429 100.044 141.429 101.836V109.636H138.069V102.292C138.069 101.252 137.805 100.46 137.277 99.916C136.749 99.356 136.029 99.076 135.117 99.076C134.205 99.076 133.477 99.356 132.933 99.916C132.405 100.46 132.141 101.252 132.141 102.292V109.636H128.781V102.292C128.781 101.252 128.517 100.46 127.989 99.916C127.461 99.356 126.741 99.076 125.829 99.076C124.901 99.076 124.165 99.356 123.621 99.916C123.093 100.46 122.829 101.252 122.829 102.292V109.636H119.469V96.34H122.829V97.948C123.261 97.388 123.813 96.948 124.485 96.628C125.173 96.308 125.925 96.148 126.741 96.148C127.781 96.148 128.709 96.372 129.525 96.82C130.341 97.252 130.973 97.876 131.421 98.692C131.853 97.924 132.477 97.308 133.293 96.844C134.125 96.38 135.021 96.148 135.981 96.148ZM156.977 102.7C156.977 103.18 156.945 103.612 156.881 103.996H147.161C147.241 104.956 147.577 105.708 148.169 106.252C148.761 106.796 149.489 107.068 150.353 107.068C151.601 107.068 152.489 106.532 153.017 105.46H156.641C156.257 106.74 155.521 107.796 154.433 108.628C153.345 109.444 152.009 109.852 150.425 109.852C149.145 109.852 147.993 109.572 146.969 109.012C145.961 108.436 145.169 107.628 144.593 106.588C144.033 105.548 143.753 104.348 143.753 102.988C143.753 101.612 144.033 100.404 144.593 99.364C145.153 98.324 145.937 97.524 146.945 96.964C147.953 96.404 149.113 96.124 150.425 96.124C151.689 96.124 152.817 96.396 153.809 96.94C154.817 97.484 155.593 98.26 156.137 99.268C156.697 100.26 156.977 101.404 156.977 102.7ZM153.497 101.74C153.481 100.876 153.169 100.188 152.561 99.676C151.953 99.148 151.209 98.884 150.329 98.884C149.497 98.884 148.793 99.14 148.217 99.652C147.657 100.148 147.313 100.844 147.185 101.74H153.497ZM166.797 96.148C168.381 96.148 169.661 96.652 170.637 97.66C171.613 98.652 172.101 100.044 172.101 101.836V109.636H168.741V102.292C168.741 101.236 168.477 100.428 167.949 99.868C167.421 99.292 166.701 99.004 165.789 99.004C164.861 99.004 164.125 99.292 163.581 99.868C163.053 100.428 162.789 101.236 162.789 102.292V109.636H159.429V96.34H162.789V97.996C163.237 97.42 163.805 96.972 164.493 96.652C165.197 96.316 165.965 96.148 166.797 96.148ZM179.209 99.1V105.532C179.209 105.98 179.313 106.308 179.521 106.516C179.745 106.708 180.113 106.804 180.625 106.804H182.185V109.636H180.073C177.241 109.636 175.825 108.26 175.825 105.508V99.1H174.241V96.34H175.825V93.052H179.209V96.34H182.185V99.1H179.209ZM183.737 102.94C183.737 101.596 184.001 100.404 184.529 99.364C185.073 98.324 185.801 97.524 186.713 96.964C187.641 96.404 188.673 96.124 189.809 96.124C190.801 96.124 191.665 96.324 192.401 96.724C193.153 97.124 193.753 97.628 194.201 98.236V96.34H197.585V109.636H194.201V107.692C193.769 108.316 193.169 108.836 192.401 109.252C191.649 109.652 190.777 109.852 189.785 109.852C188.665 109.852 187.641 109.564 186.713 108.988C185.801 108.412 185.073 107.604 184.529 106.564C184.001 105.508 183.737 104.3 183.737 102.94ZM194.201 102.988C194.201 102.172 194.041 101.476 193.721 100.9C193.401 100.308 192.969 99.86 192.425 99.556C191.881 99.236 191.297 99.076 190.673 99.076C190.049 99.076 189.473 99.228 188.945 99.532C188.417 99.836 187.985 100.284 187.649 100.876C187.329 101.452 187.169 102.14 187.169 102.94C187.169 103.74 187.329 104.444 187.649 105.052C187.985 105.644 188.417 106.1 188.945 106.42C189.489 106.74 190.065 106.9 190.673 106.9C191.297 106.9 191.881 106.748 192.425 106.444C192.969 106.124 193.401 105.676 193.721 105.1C194.041 104.508 194.201 103.804 194.201 102.988ZM204.779 99.1V105.532C204.779 105.98 204.883 106.308 205.091 106.516C205.315 106.708 205.683 106.804 206.195 106.804H207.755V109.636H205.643C202.811 109.636 201.395 108.26 201.395 105.508V99.1H199.811V96.34H201.395V93.052H204.779V96.34H207.755V99.1H204.779ZM211.876 94.756C211.284 94.756 210.788 94.572 210.388 94.204C210.004 93.82 209.812 93.348 209.812 92.788C209.812 92.228 210.004 91.764 210.388 91.396C210.788 91.012 211.284 90.82 211.876 90.82C212.468 90.82 212.956 91.012 213.34 91.396C213.74 91.764 213.94 92.228 213.94 92.788C213.94 93.348 213.74 93.82 213.34 94.204C212.956 94.572 212.468 94.756 211.876 94.756ZM213.532 96.34V109.636H210.172V96.34H213.532ZM222.755 109.852C221.475 109.852 220.323 109.572 219.299 109.012C218.275 108.436 217.467 107.628 216.875 106.588C216.299 105.548 216.011 104.348 216.011 102.988C216.011 101.628 216.307 100.428 216.899 99.388C217.507 98.348 218.331 97.548 219.371 96.988C220.411 96.412 221.571 96.124 222.851 96.124C224.131 96.124 225.291 96.412 226.331 96.988C227.371 97.548 228.187 98.348 228.779 99.388C229.387 100.428 229.691 101.628 229.691 102.988C229.691 104.348 229.379 105.548 228.755 106.588C228.147 107.628 227.315 108.436 226.259 109.012C225.219 109.572 224.051 109.852 222.755 109.852ZM222.755 106.924C223.363 106.924 223.931 106.78 224.459 106.492C225.003 106.188 225.435 105.74 225.755 105.148C226.075 104.556 226.235 103.836 226.235 102.988C226.235 101.724 225.899 100.756 225.227 100.084C224.571 99.396 223.763 99.052 222.803 99.052C221.843 99.052 221.035 99.396 220.379 100.084C219.739 100.756 219.419 101.724 219.419 102.988C219.419 104.252 219.731 105.228 220.355 105.916C220.995 106.588 221.795 106.924 222.755 106.924ZM239.524 96.148C241.108 96.148 242.388 96.652 243.364 97.66C244.34 98.652 244.828 100.044 244.828 101.836V109.636H241.468V102.292C241.468 101.236 241.204 100.428 240.676 99.868C240.148 99.292 239.428 99.004 238.516 99.004C237.588 99.004 236.852 99.292 236.308 99.868C235.78 100.428 235.516 101.236 235.516 102.292V109.636H232.156V96.34H235.516V97.996C235.964 97.42 236.532 96.972 237.22 96.652C237.924 96.316 238.692 96.148 239.524 96.148ZM249.511 109.804C248.903 109.804 248.399 109.62 247.999 109.252C247.615 108.868 247.423 108.396 247.423 107.836C247.423 107.276 247.615 106.812 247.999 106.444C248.399 106.06 248.903 105.868 249.511 105.868C250.103 105.868 250.591 106.06 250.975 106.444C251.359 106.812 251.551 107.276 251.551 107.836C251.551 108.396 251.359 108.868 250.975 109.252C250.591 109.62 250.103 109.804 249.511 109.804ZM249.511 99.868C248.903 99.868 248.399 99.684 247.999 99.316C247.615 98.932 247.423 98.46 247.423 97.9C247.423 97.34 247.615 96.876 247.999 96.508C248.399 96.124 248.903 95.932 249.511 95.932C250.103 95.932 250.591 96.124 250.975 96.508C251.359 96.876 251.551 97.34 251.551 97.9C251.551 98.46 251.359 98.932 250.975 99.316C250.591 99.684 250.103 99.868 249.511 99.868Z" fill="white"/>
<rect x="48.0879" y="22.145" width="279.744" height="57.711" transform="rotate(-2.25299 48.0879 22.145)" fill="#40FF62"/>
<path d="M79.7819 57.155C78.6146 57.1963 77.5522 57.0337 76.5947 56.6673C75.6531 56.3003 74.8972 55.7507 74.327 55.0183C73.7568 54.286 73.4456 53.4085 73.3935 52.3857L76.9912 52.2585C77.0635 52.9444 77.3226 53.4796 77.7684 53.8641C78.2303 54.248 78.8449 54.4264 79.6125 54.3993C80.396 54.3716 81.0051 54.166 81.4398 53.7824C81.874 53.3828 82.0803 52.8792 82.0589 52.2716C82.0413 51.7759 81.875 51.3735 81.5599 51.0644C81.2448 50.7554 80.8523 50.5211 80.3824 50.3616C79.9279 50.1855 79.2969 49.9997 78.4895 49.8041C77.3909 49.5227 76.4924 49.2423 75.7941 48.9628C75.1112 48.6667 74.5109 48.2156 73.9932 47.6095C73.4909 46.9869 73.2211 46.1479 73.1838 45.0925C73.1487 44.1012 73.3661 43.2289 73.8358 42.4759C74.3055 41.7228 74.9813 41.1386 75.8631 40.7232C76.7445 40.2918 77.7608 40.0558 78.912 40.0151C80.639 39.954 82.0531 40.3283 83.1543 41.1379C84.271 41.931 84.9119 43.0771 85.077 44.5762L81.3833 44.7067C81.3309 44.1322 81.0664 43.6693 80.5897 43.3179C80.1284 42.9499 79.522 42.7792 78.7705 42.8058C78.1149 42.829 77.5932 43.0155 77.2053 43.3654C76.8334 43.7148 76.6588 44.2093 76.6814 44.8489C76.6972 45.2966 76.8544 45.6673 77.1529 45.9609C77.4669 46.238 77.8432 46.4648 78.2817 46.6415C78.7356 46.8015 79.3666 46.9874 80.1745 47.199C81.2732 47.4803 82.1719 47.7688 82.8708 48.0643C83.5696 48.3598 84.1782 48.8186 84.6965 49.4407C85.2148 50.0627 85.4923 50.8935 85.5291 51.9328C85.5607 52.8283 85.3582 53.6679 84.9216 54.4518C84.485 55.2357 83.8272 55.8754 82.9482 56.3707C82.0686 56.8501 81.0131 57.1115 79.7819 57.155ZM100.686 42.9439L101.156 56.2316L97.7737 56.3511L97.7144 54.6722C97.303 55.2631 96.7515 55.7389 96.0598 56.0995C95.3835 56.4436 94.6376 56.6301 93.8221 56.6589C92.7828 56.6956 91.8557 56.5122 91.041 56.1088C90.2256 55.6893 89.5712 55.064 89.0775 54.2329C88.5993 53.3853 88.3392 52.3698 88.2974 51.1866L88.022 43.3915L91.3799 43.2728L91.6384 50.5882C91.6757 51.6436 91.9683 52.4497 92.5163 53.0067C93.0638 53.5477 93.7932 53.8021 94.7047 53.7699C95.6321 53.7371 96.3497 53.4316 96.8576 52.8533C97.365 52.259 97.6 51.4342 97.5627 50.3789L97.3042 43.0634L100.686 42.9439ZM107.426 44.651C107.835 43.9961 108.408 43.4555 109.146 43.0292C109.899 42.6024 110.763 42.3717 111.739 42.3372C112.874 42.2971 113.907 42.5408 114.838 43.0682C115.786 43.5951 116.541 44.3689 117.106 45.3896C117.686 46.3937 118 47.5754 118.048 48.9345C118.096 50.2937 117.866 51.5105 117.36 52.5851C116.869 53.6431 116.17 54.4763 115.263 55.0847C114.372 55.6926 113.359 56.0165 112.224 56.0567C111.232 56.0917 110.354 55.9306 109.589 55.5734C108.839 55.1996 108.229 54.7089 107.76 54.1011L107.827 55.9959L104.469 56.1146L103.842 38.3656L107.199 38.247L107.426 44.651ZM114.618 49.0557C114.59 48.2562 114.397 47.5746 114.041 47.0108C113.7 46.4305 113.253 45.998 112.699 45.7134C112.16 45.4283 111.579 45.2967 110.956 45.3187C110.348 45.3402 109.778 45.5205 109.246 45.8595C108.729 46.1819 108.313 46.6449 107.998 47.2484C107.699 47.8513 107.564 48.5525 107.592 49.352C107.62 50.1515 107.805 50.8415 108.145 51.4218C108.502 52.0016 108.95 52.442 109.489 52.7432C110.043 53.0278 110.624 53.1593 111.232 53.1379C111.855 53.1158 112.425 52.9356 112.942 52.5971C113.474 52.2581 113.89 51.7872 114.189 51.1842C114.504 50.5807 114.647 49.8712 114.618 49.0557ZM136.75 41.4774C138.381 41.4198 139.71 41.8771 140.737 42.8495C141.779 43.8052 142.332 45.1786 142.395 46.9695L142.671 54.7646L139.313 54.8833L139.053 47.5438C139.017 46.5045 138.725 45.7223 138.178 45.1973C137.63 44.6563 136.901 44.4019 135.99 44.4341C135.078 44.4663 134.36 44.7718 133.837 45.3507C133.328 45.913 133.092 46.7138 133.129 47.7532L133.388 55.0926L130.03 55.2113L129.771 47.8719C129.734 46.8325 129.443 46.0503 128.896 45.5253C128.348 44.9843 127.619 44.7299 126.707 44.7621C125.78 44.7949 125.054 45.1007 124.53 45.6796C124.022 46.2419 123.786 47.0427 123.823 48.082L124.082 55.4215L120.724 55.5401L120.255 42.2524L123.613 42.1338L123.669 43.7408C124.081 43.1659 124.617 42.7066 125.278 42.3631C125.954 42.019 126.7 41.8325 127.515 41.8037C128.555 41.767 129.49 41.9581 130.321 42.377C131.152 42.7799 131.806 43.3812 132.282 44.1809C132.687 43.3981 133.289 42.7604 134.088 42.2679C134.903 41.7748 135.79 41.5113 136.75 41.4774ZM147.034 39.7211C146.443 39.742 145.941 39.5756 145.528 39.222C145.131 38.8518 144.922 38.3869 144.902 37.8272C144.882 37.2676 145.058 36.7971 145.429 36.4157C145.815 36.0179 146.304 35.8085 146.895 35.7876C147.487 35.7666 147.982 35.9413 148.379 36.3115C148.792 36.6651 149.008 37.1218 149.028 37.6814C149.047 38.2411 148.864 38.7199 148.478 39.1177C148.107 39.4991 147.626 39.7002 147.034 39.7211ZM148.745 41.2456L149.215 54.5333L145.857 54.652L145.387 41.3643L148.745 41.2456ZM156.07 43.7485L156.297 50.1765C156.313 50.6242 156.428 50.9483 156.644 51.1489C156.874 51.3328 157.245 51.4158 157.757 51.3977L159.316 51.3426L159.416 54.1728L157.306 54.2474C154.475 54.3474 153.012 53.0223 152.914 50.272L152.688 43.868L151.105 43.924L151.008 41.1657L152.591 41.1097L152.474 37.8238L155.856 37.7043L155.972 40.9902L158.947 40.8851L159.044 43.6434L156.07 43.7485ZM165.369 43.4199L165.596 49.8479C165.612 50.2956 165.727 50.6197 165.943 50.8203C166.173 51.0042 166.544 51.0872 167.056 51.0691L168.615 51.014L168.715 53.8442L166.604 53.9188C163.774 54.0188 162.31 52.6937 162.213 49.9434L161.987 43.5394L160.404 43.5954L160.306 40.8371L161.889 40.7811L161.773 37.4952L165.155 37.3757L165.271 40.6616L168.246 40.5565L168.343 43.3148L165.369 43.4199ZM172.308 38.828C171.716 38.8489 171.214 38.6825 170.801 38.3289C170.404 37.9587 170.195 37.4938 170.175 36.9341C170.156 36.3745 170.331 35.904 170.702 35.5226C171.088 35.1248 171.577 34.9154 172.169 34.8945C172.76 34.8735 173.255 35.0482 173.652 35.4184C174.065 35.772 174.281 36.2287 174.301 36.7883C174.321 37.348 174.137 37.8268 173.751 38.2246C173.381 38.606 172.899 38.8071 172.308 38.828ZM174.019 40.3525L174.488 53.6402L171.13 53.7589L170.661 40.4712L174.019 40.3525ZM184.693 39.7832C186.276 39.7273 187.573 40.1857 188.584 41.1587C189.594 42.1156 190.131 43.4895 190.194 45.2803L190.47 53.0755L187.112 53.1941L186.853 45.8547C186.815 44.7994 186.523 44.0012 185.975 43.4602C185.427 42.9032 184.698 42.6408 183.786 42.673C182.859 42.7058 182.134 43.0196 181.61 43.6145C181.102 44.1928 180.867 45.0096 180.904 46.0649L181.164 53.4043L177.806 53.523L177.336 40.2353L180.694 40.1166L180.753 41.7716C181.18 41.1801 181.732 40.7124 182.408 40.3683C183.1 40.0076 183.861 39.8126 184.693 39.7832ZM198.391 39.2751C199.382 39.2401 200.261 39.4092 201.026 39.7824C201.791 40.1396 202.401 40.6224 202.854 41.2307L202.788 39.3359L206.169 39.2164L206.642 52.6C206.686 53.8313 206.477 54.9353 206.015 55.9123C205.554 56.9052 204.837 57.699 203.866 58.2937C202.895 58.9043 201.706 59.2345 200.298 59.2843C198.412 59.3509 196.845 58.966 195.599 58.1295C194.368 57.2924 193.646 56.1172 193.433 54.6038L196.767 54.486C196.964 55.0874 197.357 55.5538 197.945 55.8852C198.55 56.2321 199.268 56.3908 200.099 56.3615C201.075 56.327 201.856 56.0032 202.442 55.3901C203.03 54.793 203.302 53.9028 203.26 52.7195L203.188 50.6568C202.778 51.2957 202.197 51.8366 201.444 52.2794C200.707 52.7217 199.851 52.9601 198.875 52.9946C197.756 53.0341 196.723 52.7825 195.775 52.2396C194.827 51.6967 194.063 50.9152 193.483 49.8951C192.918 48.8584 192.611 47.6605 192.563 46.3013C192.516 44.9582 192.737 43.7576 193.228 42.6996C193.735 41.641 194.435 40.8158 195.326 40.224C196.234 39.6315 197.255 39.3153 198.391 39.2751ZM203.022 45.9798C202.993 45.1643 202.809 44.4743 202.469 43.91C202.128 43.3297 201.681 42.8972 201.126 42.6126C200.571 42.312 199.982 42.1728 199.358 42.1948C198.735 42.2168 198.164 42.3891 197.648 42.7115C197.131 43.034 196.715 43.497 196.4 44.1005C196.1 44.6874 195.965 45.3806 195.993 46.1801C196.021 46.9796 196.206 47.6775 196.547 48.2739C196.904 48.8536 197.352 49.2941 197.891 49.5952C198.446 49.8958 199.027 50.0354 199.635 50.0139C200.258 49.9919 200.837 49.8193 201.369 49.4963C201.902 49.1573 202.318 48.6943 202.617 48.1074C202.916 47.5045 203.051 46.7952 203.022 45.9798ZM218.595 40.8426C219.002 40.1238 219.542 39.5523 220.215 39.1283C220.905 38.7037 221.697 38.4756 222.593 38.4439L222.717 41.9697L221.83 42.0011C220.775 42.0384 219.984 42.3145 219.458 42.8294C218.948 43.3437 218.714 44.2165 218.758 45.4477L218.992 52.0676L215.634 52.1862L215.164 38.8985L218.522 38.7799L218.595 40.8426ZM237.438 44.4754C237.455 44.9551 237.438 45.388 237.388 45.774L227.674 46.1173C227.788 47.0738 228.15 47.8135 228.761 48.3362C229.372 48.859 230.109 49.1051 230.973 49.0746C232.22 49.0305 233.088 48.4635 233.578 47.3735L237.2 47.2455C236.861 48.5383 236.163 49.6196 235.105 50.4895C234.047 51.3435 232.726 51.7984 231.143 51.8543C229.864 51.8995 228.702 51.6604 227.659 51.1369C226.632 50.5969 225.812 49.8173 225.199 48.7983C224.603 47.7787 224.281 46.5894 224.233 45.2302C224.184 43.8551 224.421 42.638 224.944 41.5788C225.467 40.5197 226.222 39.6925 227.21 39.0973C228.197 38.502 229.347 38.1812 230.658 38.1349C231.921 38.0903 233.058 38.3222 234.069 38.8309C235.095 39.3389 235.898 40.087 236.477 41.0752C237.072 42.0468 237.392 43.1802 237.438 44.4754ZM233.926 43.6389C233.88 42.776 233.544 42.0994 232.918 41.6092C232.292 41.103 231.539 40.8655 230.66 40.8966C229.828 40.9259 229.134 41.2066 228.576 41.7387C228.034 42.2541 227.715 42.9618 227.618 43.8618L233.926 43.6389ZM239.035 44.6831C238.988 43.356 239.218 42.1711 239.726 41.1285C240.249 40.0694 240.972 39.2353 241.895 38.6264C242.818 38.0174 243.847 37.6928 244.982 37.6527C245.926 37.6194 246.764 37.7739 247.496 38.1162C248.244 38.442 248.852 38.8768 249.32 39.4206L249.259 37.6937L252.64 37.5742L253.334 57.194L249.952 57.3135L249.664 49.1586C249.236 49.75 248.654 50.2509 247.916 50.6612C247.178 51.0716 246.337 51.2934 245.394 51.3267C244.274 51.3663 243.233 51.1149 242.269 50.5726C241.321 50.0137 240.556 49.2242 239.976 48.2041C239.396 47.184 239.082 46.0103 239.035 44.6831ZM249.493 44.3376C249.464 43.5221 249.272 42.8245 248.915 42.2447C248.558 41.6649 248.103 41.2327 247.548 40.9482C247.01 40.663 246.437 40.5311 245.829 40.5526C245.238 40.5735 244.675 40.7455 244.143 41.0685C243.626 41.391 243.21 41.8539 242.895 42.4574C242.579 43.0449 242.436 43.7464 242.465 44.5619C242.494 45.3774 242.687 46.083 243.044 46.6788C243.401 47.2586 243.848 47.691 244.387 47.9762C244.941 48.2608 245.514 48.3926 246.106 48.3717C246.713 48.3503 247.276 48.1783 247.792 47.8558C248.325 47.5328 248.749 47.0696 249.064 46.4661C249.379 45.8626 249.522 45.1531 249.493 44.3376ZM268.464 37.015L268.934 50.3027L265.552 50.4223L265.492 48.7433C265.081 49.3342 264.53 49.81 263.838 50.1706C263.162 50.5147 262.416 50.7012 261.6 50.73C260.561 50.7667 259.634 50.5834 258.819 50.1799C258.004 49.7604 257.349 49.1351 256.856 48.304C256.377 47.4564 256.117 46.441 256.076 45.2577L255.8 37.4626L259.158 37.3439L259.416 44.6593C259.454 45.7147 259.746 46.5208 260.294 47.0778C260.842 47.6188 261.571 47.8732 262.483 47.841C263.41 47.8083 264.128 47.5027 264.636 46.9244C265.143 46.3301 265.378 45.5053 265.341 44.45L265.082 37.1346L268.464 37.015ZM273.424 35.2548C272.833 35.2757 272.33 35.1093 271.918 34.7557C271.52 34.3855 271.312 33.9205 271.292 33.3609C271.272 32.8012 271.448 32.3308 271.819 31.9494C272.205 31.5515 272.694 31.3421 273.285 31.3212C273.877 31.3003 274.371 31.475 274.769 31.8452C275.181 32.1988 275.398 32.6555 275.417 33.2151C275.437 33.7748 275.254 34.2535 274.868 34.6514C274.497 35.0327 274.016 35.2339 273.424 35.2548ZM275.135 36.7793L275.605 50.067L272.247 50.1857L271.777 36.898L275.135 36.7793ZM281.884 38.6061C282.29 37.8873 282.831 37.3159 283.504 36.8918C284.193 36.4672 284.986 36.2391 285.881 36.2074L286.006 39.7332L285.119 39.7646C284.063 39.8019 283.272 40.078 282.746 40.5929C282.236 41.1072 282.003 41.98 282.046 43.2112L282.28 49.8311L278.922 49.9498L278.453 36.6621L281.811 36.5434L281.884 38.6061ZM300.727 42.2389C300.744 42.7186 300.727 43.1515 300.677 43.5375L290.963 43.8808C291.077 44.8374 291.439 45.577 292.05 46.0998C292.661 46.6225 293.398 46.8686 294.261 46.8381C295.508 46.7941 296.377 46.227 296.867 45.1371L300.488 45.0091C300.15 46.3018 299.452 47.3832 298.394 48.2531C297.335 49.107 296.014 49.5619 294.431 49.6179C293.152 49.6631 291.991 49.4239 290.948 48.9004C289.92 48.3604 289.1 47.5809 288.488 46.5619C287.891 45.5423 287.569 44.3529 287.521 42.9938C287.473 41.6186 287.71 40.4015 288.233 39.3424C288.756 38.2832 289.511 37.456 290.498 36.8608C291.486 36.2655 292.635 35.9448 293.947 35.8984C295.21 35.8538 296.347 36.0858 297.357 36.5944C298.384 37.1025 299.187 37.8506 299.766 38.8387C300.361 39.8103 300.681 40.9437 300.727 42.2389ZM297.215 41.4024C297.169 40.5395 296.832 39.863 296.207 39.3728C295.58 38.8666 294.828 38.629 293.948 38.6601C293.117 38.6895 292.422 38.9702 291.865 39.5022C291.322 40.0177 291.003 40.7254 290.907 41.6253L297.215 41.4024ZM302.323 42.4227C302.275 41.0795 302.497 39.8789 302.988 38.8209C303.495 37.7624 304.202 36.9369 305.11 36.3445C306.017 35.752 307.039 35.4358 308.174 35.3956C309.038 35.3651 309.868 35.5279 310.665 35.884C311.462 36.2241 312.103 36.6977 312.588 37.3049L312.366 30.9969L315.771 30.8765L316.399 48.6255L312.993 48.7458L312.923 46.779C312.531 47.4493 311.966 47.9976 311.228 48.4239C310.491 48.8502 309.626 49.0809 308.635 49.1159C307.516 49.1555 306.482 48.9038 305.534 48.361C304.587 47.8181 303.823 47.0366 303.242 46.0164C302.677 44.9798 302.371 43.7818 302.323 42.4227ZM312.782 42.1011C312.753 41.2856 312.569 40.5957 312.228 40.0314C311.888 39.451 311.44 39.0186 310.886 38.734C310.331 38.4334 309.742 38.2941 309.118 38.3161C308.494 38.3382 307.924 38.5104 307.407 38.8329C306.89 39.1553 306.474 39.6183 306.159 40.2218C305.86 40.8088 305.724 41.502 305.753 42.3015C305.781 43.101 305.966 43.7989 306.307 44.3952C306.664 44.975 307.111 45.4154 307.65 45.7166C308.205 46.0172 308.787 46.1567 309.394 46.1353C310.018 46.1132 310.596 45.9407 311.129 45.6177C311.661 45.2787 312.077 44.8157 312.377 44.2287C312.676 43.6258 312.811 42.9166 312.782 42.1011Z" fill="#1F262E"/>
</svg>
