<svg width="351" height="127" viewBox="0 0 351 127" fill="none" xmlns="http://www.w3.org/2000/svg">
<rect x="15" y="65.1599" width="279.744" height="57.711" fill="#1E93FF"/>
<path d="M55.792 96.4639C55.792 95.1199 56.056 93.9279 56.584 92.8879C57.128 91.8479 57.856 91.0479 58.768 90.4879C59.696 89.9279 60.728 89.6479 61.864 89.6479C62.856 89.6479 63.72 89.8479 64.456 90.2479C65.208 90.6479 65.808 91.1519 66.256 91.7599V89.8639H69.64V103.16H66.256V101.216C65.824 101.84 65.224 102.36 64.456 102.776C63.704 103.176 62.832 103.376 61.84 103.376C60.72 103.376 59.696 103.088 58.768 102.512C57.856 101.936 57.128 101.128 56.584 100.088C56.056 99.0319 55.792 97.8239 55.792 96.4639ZM66.256 96.5119C66.256 95.6959 66.096 94.9999 65.776 94.4239C65.456 93.8319 65.024 93.3839 64.48 93.0799C63.936 92.7599 63.352 92.5999 62.728 92.5999C62.104 92.5999 61.528 92.7519 61 93.0559C60.472 93.3599 60.04 93.8079 59.704 94.3999C59.384 94.9759 59.224 95.6639 59.224 96.4639C59.224 97.2639 59.384 97.9679 59.704 98.5759C60.04 99.1679 60.472 99.6239 61 99.9439C61.544 100.264 62.12 100.424 62.728 100.424C63.352 100.424 63.936 100.272 64.48 99.9679C65.024 99.6479 65.456 99.1999 65.776 98.6239C66.096 98.0319 66.256 97.3279 66.256 96.5119ZM80.2896 89.6719C81.8736 89.6719 83.1536 90.1759 84.1296 91.1839C85.1056 92.1759 85.5936 93.5679 85.5936 95.3599V103.16H82.2336V95.8159C82.2336 94.7599 81.9696 93.9519 81.4416 93.3919C80.9136 92.8159 80.1936 92.5279 79.2816 92.5279C78.3536 92.5279 77.6176 92.8159 77.0736 93.3919C76.5456 93.9519 76.2816 94.7599 76.2816 95.8159V103.16H72.9216V89.8639H76.2816V91.5199C76.7296 90.9439 77.2976 90.4959 77.9856 90.1759C78.6896 89.8399 79.4576 89.6719 80.2896 89.6719ZM87.9248 96.4639C87.9248 95.1199 88.1888 93.9279 88.7168 92.8879C89.2608 91.8479 89.9968 91.0479 90.9248 90.4879C91.8528 89.9279 92.8848 89.6479 94.0208 89.6479C94.8848 89.6479 95.7088 89.8399 96.4928 90.2239C97.2768 90.5919 97.9008 91.0879 98.3648 91.7119V85.3999H101.773V103.16H98.3648V101.192C97.9488 101.848 97.3648 102.376 96.6128 102.776C95.8608 103.176 94.9888 103.376 93.9968 103.376C92.8768 103.376 91.8528 103.088 90.9248 102.512C89.9968 101.936 89.2608 101.128 88.7168 100.088C88.1888 99.0319 87.9248 97.8239 87.9248 96.4639ZM98.3888 96.5119C98.3888 95.6959 98.2288 94.9999 97.9088 94.4239C97.5888 93.8319 97.1568 93.3839 96.6128 93.0799C96.0688 92.7599 95.4848 92.5999 94.8608 92.5999C94.2368 92.5999 93.6608 92.7519 93.1328 93.0559C92.6048 93.3599 92.1728 93.8079 91.8368 94.3999C91.5168 94.9759 91.3568 95.6639 91.3568 96.4639C91.3568 97.2639 91.5168 97.9679 91.8368 98.5759C92.1728 99.1679 92.6048 99.6239 93.1328 99.9439C93.6768 100.264 94.2528 100.424 94.8608 100.424C95.4848 100.424 96.0688 100.272 96.6128 99.9679C97.1568 99.6479 97.5888 99.1999 97.9088 98.6239C98.2288 98.0319 98.3888 97.3279 98.3888 96.5119ZM122.989 91.5919C122.989 92.4879 122.773 93.3279 122.341 94.1119C121.925 94.8959 121.261 95.5279 120.349 96.0079C119.453 96.4879 118.317 96.7279 116.941 96.7279H114.133V103.16H110.773V86.4079H116.941C118.237 86.4079 119.341 86.6319 120.253 87.0799C121.165 87.5279 121.845 88.1439 122.293 88.9279C122.757 89.7119 122.989 90.5999 122.989 91.5919ZM116.797 94.0159C117.725 94.0159 118.413 93.8079 118.861 93.3919C119.309 92.9599 119.533 92.3599 119.533 91.5919C119.533 89.9599 118.621 89.1439 116.797 89.1439H114.133V94.0159H116.797ZM131.159 103.328C129.991 103.328 128.935 103.128 127.991 102.728C127.063 102.328 126.327 101.752 125.783 101C125.239 100.248 124.959 99.3599 124.943 98.3359H128.543C128.591 99.0239 128.831 99.5679 129.263 99.9679C129.711 100.368 130.319 100.568 131.087 100.568C131.871 100.568 132.487 100.384 132.935 100.016C133.383 99.6319 133.607 99.1359 133.607 98.5279C133.607 98.0319 133.455 97.6239 133.151 97.3039C132.847 96.9839 132.463 96.7359 131.999 96.5599C131.551 96.3679 130.927 96.1599 130.127 95.9359C129.039 95.6159 128.151 95.3039 127.463 94.9999C126.791 94.6799 126.207 94.2079 125.711 93.5839C125.231 92.9439 124.991 92.0959 124.991 91.0399C124.991 90.0479 125.239 89.1839 125.735 88.4479C126.231 87.7119 126.927 87.1519 127.823 86.7679C128.719 86.3679 129.743 86.1679 130.895 86.1679C132.623 86.1679 134.023 86.5919 135.095 87.4399C136.183 88.2719 136.783 89.4399 136.895 90.9439H133.199C133.167 90.3679 132.919 89.8959 132.455 89.5279C132.007 89.1439 131.407 88.9519 130.655 88.9519C129.999 88.9519 129.471 89.1199 129.071 89.4559C128.687 89.7919 128.495 90.2799 128.495 90.9199C128.495 91.3679 128.639 91.7439 128.927 92.0479C129.231 92.3359 129.599 92.5759 130.031 92.7679C130.479 92.9439 131.103 93.1519 131.903 93.3919C132.991 93.7119 133.879 94.0319 134.567 94.3519C135.255 94.6719 135.847 95.1519 136.343 95.7919C136.839 96.4319 137.087 97.2719 137.087 98.3119C137.087 99.2079 136.855 100.04 136.391 100.808C135.927 101.576 135.247 102.192 134.351 102.656C133.455 103.104 132.391 103.328 131.159 103.328ZM150.272 99.9679H143.6L142.496 103.16H138.968L144.992 86.3839H148.904L154.928 103.16H151.376L150.272 99.9679ZM149.36 97.2799L146.936 90.2719L144.512 97.2799H149.36ZM167.986 103.376C166.898 103.376 165.922 103.184 165.058 102.8C164.194 102.4 163.506 101.864 162.994 101.192C162.498 100.52 162.226 99.7759 162.178 98.9599H165.562C165.626 99.4719 165.874 99.8959 166.306 100.232C166.754 100.568 167.306 100.736 167.962 100.736C168.602 100.736 169.098 100.608 169.45 100.352C169.818 100.096 170.002 99.7679 170.002 99.3679C170.002 98.9359 169.778 98.6159 169.33 98.4079C168.898 98.1839 168.202 97.9439 167.242 97.6879C166.25 97.4479 165.434 97.1999 164.794 96.9439C164.17 96.6879 163.626 96.2959 163.162 95.7679C162.714 95.2399 162.49 94.5279 162.49 93.6319C162.49 92.8959 162.698 92.2239 163.114 91.6159C163.546 91.0079 164.154 90.5279 164.938 90.1759C165.738 89.8239 166.674 89.6479 167.746 89.6479C169.33 89.6479 170.594 90.0479 171.538 90.8479C172.482 91.6319 173.002 92.6959 173.098 94.0399H169.882C169.834 93.5119 169.61 93.0959 169.21 92.7919C168.826 92.4719 168.306 92.3119 167.65 92.3119C167.042 92.3119 166.57 92.4239 166.234 92.6479C165.914 92.8719 165.754 93.1839 165.754 93.5839C165.754 94.0319 165.978 94.3759 166.426 94.6159C166.874 94.8399 167.57 95.0719 168.514 95.3119C169.474 95.5519 170.266 95.7999 170.89 96.0559C171.514 96.3119 172.05 96.7119 172.498 97.2559C172.962 97.7839 173.202 98.4879 173.218 99.3679C173.218 100.136 173.002 100.824 172.57 101.432C172.154 102.04 171.546 102.52 170.746 102.872C169.962 103.208 169.042 103.376 167.986 103.376ZM177.68 88.2799C177.088 88.2799 176.592 88.0959 176.192 87.7279C175.808 87.3439 175.616 86.8719 175.616 86.3119C175.616 85.7519 175.808 85.2879 176.192 84.9199C176.592 84.5359 177.088 84.3439 177.68 84.3439C178.272 84.3439 178.76 84.5359 179.144 84.9199C179.544 85.2879 179.744 85.7519 179.744 86.3119C179.744 86.8719 179.544 87.3439 179.144 87.7279C178.76 88.0959 178.272 88.2799 177.68 88.2799ZM179.336 89.8639V103.16H175.976V89.8639H179.336ZM187.864 89.6479C188.856 89.6479 189.728 89.8479 190.48 90.2479C191.232 90.6319 191.824 91.1359 192.256 91.7599V89.8639H195.64V103.256C195.64 104.488 195.392 105.584 194.896 106.544C194.4 107.52 193.656 108.288 192.664 108.848C191.672 109.424 190.472 109.712 189.064 109.712C187.176 109.712 185.624 109.272 184.408 108.392C183.208 107.512 182.528 106.312 182.368 104.792H185.704C185.88 105.4 186.256 105.88 186.832 106.232C187.424 106.6 188.136 106.784 188.968 106.784C189.944 106.784 190.736 106.488 191.344 105.896C191.952 105.32 192.256 104.44 192.256 103.256V101.192C191.824 101.816 191.224 102.336 190.456 102.752C189.704 103.168 188.84 103.376 187.864 103.376C186.744 103.376 185.72 103.088 184.792 102.512C183.864 101.936 183.128 101.128 182.584 100.088C182.056 99.0319 181.792 97.8239 181.792 96.4639C181.792 95.1199 182.056 93.9279 182.584 92.8879C183.128 91.8479 183.856 91.0479 184.768 90.4879C185.696 89.9279 186.728 89.6479 187.864 89.6479ZM192.256 96.5119C192.256 95.6959 192.096 94.9999 191.776 94.4239C191.456 93.8319 191.024 93.3839 190.48 93.0799C189.936 92.7599 189.352 92.5999 188.728 92.5999C188.104 92.5999 187.528 92.7519 187 93.0559C186.472 93.3599 186.04 93.8079 185.704 94.3999C185.384 94.9759 185.224 95.6639 185.224 96.4639C185.224 97.2639 185.384 97.9679 185.704 98.5759C186.04 99.1679 186.472 99.6239 187 99.9439C187.544 100.264 188.12 100.424 188.728 100.424C189.352 100.424 189.936 100.272 190.48 99.9679C191.024 99.6479 191.456 99.1999 191.776 98.6239C192.096 98.0319 192.256 97.3279 192.256 96.5119ZM206.29 89.6719C207.874 89.6719 209.154 90.1759 210.13 91.1839C211.106 92.1759 211.594 93.5679 211.594 95.3599V103.16H208.234V95.8159C208.234 94.7599 207.97 93.9519 207.442 93.3919C206.914 92.8159 206.194 92.5279 205.282 92.5279C204.354 92.5279 203.618 92.8159 203.074 93.3919C202.546 93.9519 202.282 94.7599 202.282 95.8159V103.16H198.922V89.8639H202.282V91.5199C202.73 90.9439 203.298 90.4959 203.986 90.1759C204.69 89.8399 205.458 89.6719 206.29 89.6719ZM216.493 88.2799C215.901 88.2799 215.405 88.0959 215.005 87.7279C214.621 87.3439 214.429 86.8719 214.429 86.3119C214.429 85.7519 214.621 85.2879 215.005 84.9199C215.405 84.5359 215.901 84.3439 216.493 84.3439C217.085 84.3439 217.573 84.5359 217.957 84.9199C218.357 85.2879 218.557 85.7519 218.557 86.3119C218.557 86.8719 218.357 87.3439 217.957 87.7279C217.573 88.0959 217.085 88.2799 216.493 88.2799ZM218.149 89.8639V103.16H214.789V89.8639H218.149ZM228.837 89.6719C230.421 89.6719 231.701 90.1759 232.677 91.1839C233.653 92.1759 234.141 93.5679 234.141 95.3599V103.16H230.781V95.8159C230.781 94.7599 230.517 93.9519 229.989 93.3919C229.461 92.8159 228.741 92.5279 227.829 92.5279C226.901 92.5279 226.165 92.8159 225.621 93.3919C225.093 93.9519 224.829 94.7599 224.829 95.8159V103.16H221.469V89.8639H224.829V91.5199C225.277 90.9439 225.845 90.4959 226.533 90.1759C227.237 89.8399 228.005 89.6719 228.837 89.6719ZM242.544 89.6479C243.536 89.6479 244.408 89.8479 245.16 90.2479C245.912 90.6319 246.504 91.1359 246.936 91.7599V89.8639H250.32V103.256C250.32 104.488 250.072 105.584 249.576 106.544C249.08 107.52 248.336 108.288 247.344 108.848C246.352 109.424 245.152 109.712 243.744 109.712C241.856 109.712 240.304 109.272 239.088 108.392C237.888 107.512 237.208 106.312 237.048 104.792H240.384C240.56 105.4 240.936 105.88 241.512 106.232C242.104 106.6 242.816 106.784 243.648 106.784C244.624 106.784 245.416 106.488 246.024 105.896C246.632 105.32 246.936 104.44 246.936 103.256V101.192C246.504 101.816 245.904 102.336 245.136 102.752C244.384 103.168 243.52 103.376 242.544 103.376C241.424 103.376 240.4 103.088 239.472 102.512C238.544 101.936 237.808 101.128 237.264 100.088C236.736 99.0319 236.472 97.8239 236.472 96.4639C236.472 95.1199 236.736 93.9279 237.264 92.8879C237.808 91.8479 238.536 91.0479 239.448 90.4879C240.376 89.9279 241.408 89.6479 242.544 89.6479ZM246.936 96.5119C246.936 95.6959 246.776 94.9999 246.456 94.4239C246.136 93.8319 245.704 93.3839 245.16 93.0799C244.616 92.7599 244.032 92.5999 243.408 92.5999C242.784 92.5999 242.208 92.7519 241.68 93.0559C241.152 93.3599 240.72 93.8079 240.384 94.3999C240.064 94.9759 239.904 95.6639 239.904 96.4639C239.904 97.2639 240.064 97.9679 240.384 98.5759C240.72 99.1679 241.152 99.6239 241.68 99.9439C242.224 100.264 242.8 100.424 243.408 100.424C244.032 100.424 244.616 100.272 245.16 99.9679C245.704 99.6479 246.136 99.1999 246.456 98.6239C246.776 98.0319 246.936 97.3279 246.936 96.5119ZM255.089 103.328C254.481 103.328 253.977 103.144 253.577 102.776C253.193 102.392 253.001 101.92 253.001 101.36C253.001 100.8 253.193 100.336 253.577 99.9679C253.977 99.5839 254.481 99.3919 255.089 99.3919C255.681 99.3919 256.169 99.5839 256.553 99.9679C256.937 100.336 257.129 100.8 257.129 101.36C257.129 101.92 256.937 102.392 256.553 102.776C256.169 103.144 255.681 103.328 255.089 103.328ZM255.089 93.3919C254.481 93.3919 253.977 93.2079 253.577 92.8399C253.193 92.4559 253.001 91.9839 253.001 91.4239C253.001 90.8639 253.193 90.3999 253.577 90.0319C253.977 89.6479 254.481 89.4559 255.089 89.4559C255.681 89.4559 256.169 89.6479 256.553 90.0319C256.937 90.3999 257.129 90.8639 257.129 91.4239C257.129 91.9839 256.937 92.4559 256.553 92.8399C256.169 93.2079 255.681 93.3919 255.089 93.3919Z" fill="white"/>
<rect x="48.001" y="16.1599" width="279.744" height="57.711" transform="rotate(-2.25299 48.001 16.1599)" fill="#40FF62"/>
<path d="M82.8643 39.1041C82.8933 39.9249 82.7226 40.7014 82.3522 41.4336C81.9965 42.1653 81.4087 42.7658 80.5888 43.235C79.7835 43.7038 78.7506 43.9604 77.49 44.0049L74.9176 44.0959L75.1258 49.9882L72.0478 50.0969L71.5055 34.7505L77.1559 34.5509C78.3432 34.5089 79.3618 34.6784 80.2118 35.0592C81.0618 35.4401 81.7047 35.9824 82.1405 36.6861C82.5909 37.3893 82.8322 38.1953 82.8643 39.1041ZM77.2703 41.5252C78.1204 41.4951 78.744 41.2823 79.1409 40.8867C79.5373 40.4764 79.7231 39.9195 79.6983 39.216C79.6454 37.7209 78.7835 37.0029 77.1126 37.0619L74.6721 37.1482L74.8298 41.6114L77.2703 41.5252ZM88.1387 39.2259C88.5116 38.567 89.0068 38.0432 89.6241 37.6545C90.2561 37.2652 90.9825 37.0561 91.8033 37.0271L91.9175 40.2591L91.104 40.2878C90.1366 40.322 89.4118 40.5751 88.9295 41.0471C88.4618 41.5186 88.2479 42.3186 88.2878 43.4473L88.5023 49.5155L85.4242 49.6243L84.9938 37.4439L88.0718 37.3351L88.1387 39.2259ZM99.7288 49.3169C98.5562 49.3583 97.4918 49.1391 96.5356 48.6592C95.5788 48.1647 94.8125 47.4507 94.2365 46.5171C93.6751 45.583 93.3725 44.493 93.3284 43.2471C93.2844 42.0012 93.5167 40.8923 94.0254 39.9204C94.5487 38.948 95.2777 38.1885 96.2123 37.6418C97.1464 37.0805 98.1997 36.7791 99.3723 36.7376C100.545 36.6962 101.617 36.9225 102.588 37.4165C103.559 37.8958 104.333 38.6023 104.909 39.5359C105.499 40.4689 105.817 41.5584 105.861 42.8043C105.905 44.0502 105.658 45.1596 105.12 46.1325C104.596 47.1049 103.86 47.8721 102.912 48.4339C101.977 48.9806 100.916 49.2749 99.7288 49.3169ZM99.634 46.6346C100.191 46.6149 100.707 46.4646 101.181 46.1836C101.67 45.8875 102.051 45.4631 102.325 44.9105C102.599 44.3578 102.722 43.693 102.695 42.9162C102.654 41.7582 102.315 40.8823 101.677 40.2884C101.054 39.6794 100.303 39.3904 99.4231 39.4215C98.5437 39.4526 97.8146 39.7939 97.2359 40.4454C96.6714 41.0817 96.4096 41.9789 96.4505 43.1368C96.4914 44.2948 96.8088 45.1788 97.4027 45.7888C98.0108 46.3837 98.7545 46.6656 99.634 46.6346ZM111.044 38.2844C111.42 37.7134 111.946 37.2326 112.622 36.8418C113.312 36.4358 114.104 36.2171 114.998 36.1855C116.039 36.1487 116.986 36.372 117.839 36.8555C118.708 37.3385 119.4 38.0478 119.918 38.9835C120.449 39.9039 120.737 40.9871 120.781 42.233C120.825 43.4789 120.615 44.5943 120.151 45.5793C119.701 46.5492 119.06 47.3129 118.229 47.8707C117.412 48.4278 116.483 48.7248 115.442 48.7616C114.548 48.7932 113.75 48.638 113.048 48.2959C112.361 47.9533 111.795 47.511 111.35 46.969L111.617 54.5103L108.539 54.6191L107.903 36.6343L110.981 36.5255L111.044 38.2844ZM117.637 42.3441C117.611 41.6112 117.435 40.9864 117.108 40.4696C116.796 39.9376 116.386 39.5412 115.878 39.2803C115.384 39.0189 114.852 38.8983 114.28 38.9185C113.723 38.9382 113.2 39.1034 112.712 39.4142C112.239 39.7098 111.857 40.1342 111.569 40.6874C111.295 41.2401 111.171 41.8828 111.197 42.6157C111.222 43.3486 111.392 43.981 111.704 44.513C112.031 45.0444 112.441 45.4482 112.935 45.7242C113.444 45.9851 113.976 46.1057 114.533 46.086C115.105 46.0658 115.627 45.9006 116.101 45.5904C116.589 45.2796 116.97 44.8479 117.244 44.2952C117.532 43.742 117.663 43.0916 117.637 42.3441ZM134.333 41.534C134.349 41.9737 134.333 42.3705 134.287 42.7243L125.383 43.039C125.487 43.9159 125.819 44.5939 126.379 45.0731C126.939 45.5523 127.615 45.7779 128.406 45.7499C129.549 45.7095 130.346 45.1897 130.795 44.1906L134.115 44.0733C133.804 45.2583 133.164 46.2495 132.194 47.0469C131.224 47.8297 130.013 48.2467 128.562 48.298C127.39 48.3394 126.325 48.1202 125.369 47.6403C124.427 47.1453 123.675 46.4307 123.114 45.4966C122.567 44.562 122.272 43.4718 122.228 42.2259C122.183 40.9653 122.401 39.8496 122.88 38.8788C123.359 37.9079 124.052 37.1497 124.957 36.604C125.862 36.0584 126.916 35.7643 128.118 35.7218C129.276 35.6809 130.318 35.8936 131.244 36.3598C132.185 36.8255 132.921 37.5113 133.452 38.4171C133.997 39.3078 134.291 40.3467 134.333 41.534ZM131.114 40.7672C131.071 39.9762 130.763 39.356 130.19 38.9066C129.616 38.4426 128.925 38.2249 128.119 38.2534C127.357 38.2803 126.72 38.5376 126.209 39.0253C125.712 39.4978 125.42 40.1465 125.331 40.9715L131.114 40.7672ZM139.519 37.4103C139.892 36.7513 140.387 36.2275 141.004 35.8388C141.636 35.4496 142.363 35.2405 143.183 35.2115L143.298 38.4434L142.484 38.4722C141.517 38.5064 140.792 38.7595 140.31 39.2315C139.842 39.7029 139.628 40.503 139.668 41.6316L139.882 47.6998L136.804 47.8086L136.374 35.6282L139.452 35.5194L139.519 37.4103ZM148.936 37.7159L149.144 43.6082C149.159 44.0186 149.265 44.3157 149.462 44.4995C149.673 44.6682 150.013 44.7442 150.482 44.7276L151.912 44.6771L152.003 47.2715L150.068 47.3399C147.474 47.4316 146.132 46.2168 146.043 43.6958L145.836 37.8254L144.385 37.8767L144.295 35.3483L145.746 35.297L145.64 32.2849L148.74 32.1753L148.847 35.1874L151.573 35.0911L151.662 37.6195L148.936 37.7159ZM165.439 34.6011L158.532 52.8084L155.256 52.9242L157.68 46.7627L152.38 35.0626L155.831 34.9406L159.276 43.3382L162.164 34.7169L165.439 34.6011ZM171.76 40.4315C171.716 39.2003 171.92 38.0998 172.37 37.1299C172.834 36.1596 173.475 35.4031 174.293 34.8606C175.125 34.3175 176.061 34.0276 177.102 33.9909C178.01 33.9587 178.808 34.114 179.496 34.4566C180.197 34.7987 180.763 35.241 181.194 35.7835L181.132 34.0465L184.232 33.937L184.663 46.1174L181.563 46.2269L181.5 44.4461C181.124 45.0317 180.591 45.5275 179.901 45.9334C179.225 46.3242 178.433 46.5357 177.524 46.5678C176.498 46.604 175.551 46.3734 174.682 45.8757C173.828 45.3776 173.135 44.6609 172.603 43.7258C172.085 42.7755 171.804 41.6774 171.76 40.4315ZM181.347 40.1367C181.321 39.3892 181.152 38.7568 180.84 38.2395C180.528 37.7075 180.118 37.3111 179.609 37.0502C179.101 36.7747 178.56 36.647 177.989 36.6672C177.417 36.6874 176.894 36.8453 176.421 37.1409C175.947 37.4365 175.565 37.8609 175.277 38.4141C175.002 38.9521 174.878 39.5875 174.904 40.3204C174.93 41.0533 175.099 41.693 175.412 42.2397C175.739 42.7711 176.149 43.1749 176.644 43.4509C177.152 43.7265 177.685 43.8544 178.242 43.8347C178.814 43.8145 179.344 43.6564 179.832 43.3603C180.32 43.0495 180.702 42.6251 180.976 42.0871C181.25 41.5344 181.374 40.8843 181.347 40.1367ZM192.337 46.0443C191.34 46.0795 190.44 45.9353 189.636 45.6114C188.832 45.273 188.184 44.8042 187.693 44.2052C187.217 43.6056 186.944 42.9329 186.873 42.1869L189.973 42.0773C190.049 42.5443 190.29 42.9247 190.696 43.2185C191.118 43.5118 191.629 43.6478 192.23 43.6266C192.816 43.6059 193.266 43.4726 193.58 43.2267C193.909 42.9802 194.067 42.6738 194.054 42.3074C194.04 41.9116 193.825 41.6257 193.407 41.4497C193.004 41.2584 192.359 41.0611 191.471 40.8577C190.555 40.6699 189.799 40.4691 189.205 40.2553C188.625 40.041 188.114 39.6995 187.672 39.2308C187.244 38.7616 187.016 38.1166 186.987 37.2958C186.963 36.6216 187.132 35.9992 187.493 35.4288C187.869 34.8578 188.411 34.3984 189.117 34.0505C189.839 33.7022 190.691 33.5106 191.673 33.4759C193.124 33.4247 194.295 33.7502 195.185 34.4525C196.076 35.1402 196.586 36.0981 196.718 37.3262L193.772 37.4303C193.711 36.9481 193.492 36.5743 193.116 36.3088C192.754 36.028 192.272 35.8983 191.671 35.9195C191.114 35.9392 190.685 36.0571 190.385 36.2732C190.099 36.4887 189.962 36.7797 189.975 37.1462C189.99 37.5566 190.206 37.8645 190.624 38.0698C191.042 38.2605 191.687 38.4505 192.56 38.6398C193.447 38.8286 194.18 39.0302 194.76 39.2445C195.34 39.4588 195.844 39.8079 196.272 40.2918C196.715 40.7604 196.957 41.3976 197 42.2032C197.025 42.9068 196.85 43.5441 196.473 44.115C196.112 44.6855 195.571 45.1449 194.849 45.4933C194.142 45.8265 193.304 46.0101 192.337 46.0443ZM204.318 45.621C203.321 45.6562 202.421 45.5119 201.617 45.1881C200.812 44.8496 200.165 44.3808 199.674 43.7818C199.198 43.1822 198.925 42.5095 198.854 41.7635L201.954 41.6539C202.029 42.1209 202.27 42.5013 202.677 42.7951C203.098 43.0884 203.609 43.2245 204.21 43.2032C204.797 43.1825 205.247 43.0492 205.561 42.8033C205.89 42.5569 206.048 42.2504 206.035 41.884C206.021 41.4882 205.805 41.2023 205.388 41.0263C204.985 40.8351 204.34 40.6377 203.452 40.4343C202.536 40.2465 201.78 40.0458 201.185 39.832C200.606 39.6176 200.094 39.2761 199.652 38.8075C199.225 38.3383 198.997 37.6933 198.968 36.8724C198.944 36.1982 199.113 35.5758 199.474 35.0054C199.85 34.4344 200.391 33.975 201.098 33.6272C201.82 33.2788 202.672 33.0873 203.654 33.0526C205.105 33.0013 206.276 33.3268 207.166 34.0291C208.056 34.7168 208.567 35.6747 208.699 36.9028L205.753 37.0069C205.691 36.5248 205.473 36.1509 205.097 35.8854C204.734 35.6047 204.253 35.4749 203.652 35.4962C203.095 35.5158 202.666 35.6337 202.366 35.8498C202.08 36.0654 201.943 36.3564 201.956 36.7228C201.971 37.1332 202.187 37.4411 202.605 37.6465C203.023 37.8372 203.668 38.0272 204.54 38.2165C205.428 38.4053 206.161 38.6068 206.741 38.8211C207.321 39.0354 207.825 39.3845 208.253 39.8684C208.695 40.3371 208.938 40.9742 208.981 41.7799C209.006 42.4834 208.83 43.1207 208.454 43.6917C208.093 44.2621 207.551 44.7215 206.83 45.0699C206.123 45.4031 205.285 45.5868 204.318 45.621ZM222.729 38.4103C222.745 38.85 222.729 39.2468 222.683 39.6006L213.779 39.9153C213.883 40.7921 214.215 41.4702 214.775 41.9494C215.335 42.4286 216.011 42.6542 216.802 42.6262C217.945 42.5858 218.742 42.066 219.191 41.0669L222.511 40.9496C222.2 42.1346 221.56 43.1258 220.59 43.9232C219.62 44.706 218.409 45.123 216.958 45.1743C215.786 45.2157 214.721 44.9965 213.765 44.5166C212.823 44.0216 212.071 43.307 211.51 42.3729C210.963 41.4383 210.668 40.3481 210.624 39.1022C210.579 37.8416 210.797 36.7259 211.276 35.7551C211.755 34.7842 212.448 34.0259 213.353 33.4803C214.258 32.9347 215.312 32.6406 216.514 32.5981C217.672 32.5572 218.714 32.7699 219.64 33.2361C220.581 33.7018 221.317 34.3876 221.848 35.2934C222.393 36.184 222.687 37.223 222.729 38.4103ZM219.51 37.6435C219.467 36.8525 219.159 36.2323 218.586 35.7829C218.012 35.3189 217.321 35.1012 216.515 35.1296C215.753 35.1566 215.116 35.4139 214.605 35.9016C214.108 36.3741 213.816 37.0228 213.727 37.8478L219.51 37.6435ZM229.868 44.7181C228.872 44.7533 227.971 44.609 227.167 44.2852C226.363 43.9467 225.715 43.478 225.224 42.8789C224.748 42.2794 224.475 41.6066 224.405 40.8606L227.505 40.7511C227.58 41.218 227.821 41.5984 228.227 41.8922C228.649 42.1855 229.16 42.3216 229.761 42.3003C230.347 42.2796 230.797 42.1463 231.112 41.9004C231.44 41.654 231.598 41.3475 231.585 40.9811C231.571 40.5853 231.356 40.2994 230.939 40.1234C230.536 39.9322 229.89 39.7348 229.003 39.5314C228.086 39.3436 227.33 39.1429 226.736 38.9291C226.156 38.7147 225.645 38.3733 225.203 37.9046C224.775 37.4354 224.547 36.7904 224.518 35.9695C224.494 35.2953 224.663 34.673 225.024 34.1025C225.4 33.5315 225.942 33.0721 226.649 32.7243C227.37 32.3759 228.222 32.1844 229.204 32.1497C230.655 32.0984 231.826 32.4239 232.717 33.1262C233.607 33.8139 234.118 34.7718 234.249 35.9999L231.303 36.104C231.242 35.6219 231.023 35.248 230.647 34.9825C230.285 34.7018 229.803 34.572 229.202 34.5933C228.645 34.6129 228.217 34.7308 227.916 34.9469C227.63 35.1625 227.494 35.4535 227.507 35.8199C227.521 36.2303 227.737 36.5382 228.156 36.7436C228.573 36.9343 229.218 37.1243 230.091 37.3136C230.978 37.5024 231.712 37.7039 232.292 37.9182C232.872 38.1326 233.376 38.4816 233.804 38.9655C234.246 39.4342 234.488 40.0713 234.532 40.877C234.556 41.5805 234.381 42.2178 234.005 42.7888C233.643 43.3592 233.102 43.8186 232.38 44.167C231.673 44.5002 230.836 44.6839 229.868 44.7181ZM241.849 44.2947C240.852 44.3299 239.952 44.1856 239.148 43.8618C238.344 43.5233 237.696 43.0546 237.205 42.4555C236.729 41.856 236.456 41.1832 236.385 40.4372L239.486 40.3277C239.561 40.7946 239.802 41.175 240.208 41.4689C240.63 41.7622 241.141 41.8982 241.742 41.877C242.328 41.8563 242.778 41.7229 243.092 41.477C243.421 41.2306 243.579 40.9242 243.566 40.5577C243.552 40.162 243.337 39.8761 242.92 39.7C242.517 39.5088 241.871 39.3115 240.983 39.108C240.067 38.9203 239.311 38.7195 238.717 38.5057C238.137 38.2914 237.626 37.9499 237.184 37.4812C236.756 37.012 236.528 36.367 236.499 35.5462C236.475 34.8719 236.644 34.2496 237.005 33.6791C237.381 33.1082 237.923 32.6487 238.63 32.3009C239.351 31.9525 240.203 31.761 241.185 31.7263C242.636 31.675 243.807 32.0005 244.698 32.7029C245.588 33.3905 246.098 34.3484 246.23 35.5765L243.284 35.6806C243.223 35.1985 243.004 34.8247 242.628 34.5591C242.266 34.2784 241.784 34.1487 241.183 34.1699C240.626 34.1896 240.197 34.3075 239.897 34.5235C239.611 34.7391 239.474 35.0301 239.487 35.3965C239.502 35.8069 239.718 36.1148 240.136 36.3202C240.554 36.5109 241.199 36.7009 242.072 36.8902C242.959 37.079 243.693 37.2805 244.272 37.4949C244.852 37.7092 245.356 38.0583 245.784 38.5421C246.227 39.0108 246.469 39.648 246.512 40.4536C246.537 41.1572 246.362 41.7944 245.986 42.3654C245.624 42.9359 245.083 43.3953 244.361 43.7436C243.654 44.0768 242.817 44.2605 241.849 44.2947ZM263.852 30.9473C265.347 30.8945 266.565 31.3137 267.506 32.205C268.462 33.0812 268.969 34.3401 269.027 35.9817L269.279 43.1272L266.201 43.236L265.963 36.5082C265.93 35.5555 265.662 34.8385 265.161 34.3572C264.659 33.8613 263.991 33.6281 263.155 33.6576C262.32 33.6871 261.662 33.9672 261.181 34.4978C260.715 35.0133 260.499 35.7474 260.533 36.7001L260.771 43.4279L257.693 43.5367L257.455 36.8089C257.421 35.8562 257.154 35.1392 256.652 34.6579C256.15 34.162 255.482 33.9288 254.646 33.9583C253.796 33.9883 253.131 34.2687 252.651 34.7993C252.185 35.3147 251.968 36.0488 252.002 37.0016L252.24 43.7294L249.162 43.8381L248.731 31.6577L251.809 31.549L251.862 33.0221C252.239 32.4951 252.731 32.0741 253.336 31.7592C253.956 31.4438 254.639 31.2729 255.387 31.2464C256.34 31.2128 257.197 31.3879 257.959 31.7719C258.721 32.1413 259.32 32.6925 259.757 33.4255C260.128 32.7079 260.679 32.1234 261.412 31.6719C262.159 31.2199 262.972 30.9784 263.852 30.9473ZM283.299 36.2699C283.314 36.7096 283.299 37.1064 283.253 37.4602L274.348 37.7749C274.453 38.6518 274.785 39.3298 275.345 39.809C275.905 40.2882 276.58 40.5138 277.372 40.4858C278.515 40.4454 279.311 39.9256 279.76 38.9265L283.08 38.8092C282.77 39.9942 282.13 40.9854 281.16 41.7828C280.19 42.5656 278.979 42.9826 277.528 43.0339C276.355 43.0753 275.291 42.8561 274.335 42.3762C273.393 41.8812 272.641 41.1666 272.08 40.2325C271.533 39.2979 271.237 38.2077 271.193 36.9618C271.149 35.7012 271.366 34.5855 271.846 33.6147C272.325 32.6438 273.017 31.8856 273.923 31.3399C274.828 30.7943 275.882 30.5002 277.083 30.4577C278.241 30.4168 279.284 30.6295 280.21 31.0957C281.151 31.5614 281.887 32.2472 282.418 33.153C282.963 34.0437 283.257 35.0826 283.299 36.2699ZM280.079 35.5031C280.037 34.7121 279.729 34.0919 279.155 33.6426C278.581 33.1785 277.891 32.9608 277.085 32.9893C276.323 33.0162 275.686 33.2735 275.175 33.7612C274.678 34.2337 274.385 34.8824 274.297 35.7074L280.079 35.5031ZM292.083 29.9497C293.534 29.8984 294.723 30.3187 295.65 31.2105C296.576 32.0877 297.068 33.3471 297.126 34.9887L297.379 42.1343L294.301 42.2431L294.063 35.5152C294.029 34.5479 293.761 33.8162 293.259 33.3203C292.756 32.8097 292.087 32.5692 291.252 32.5987C290.402 32.6287 289.737 32.9164 289.257 33.4617C288.792 33.9918 288.576 34.7405 288.61 35.7079L288.848 42.4357L285.77 42.5445L285.339 30.3641L288.417 30.2553L288.471 31.7724C288.863 31.2302 289.369 30.8014 289.989 30.486C290.623 30.1554 291.321 29.9766 292.083 29.9497ZM303.548 32.2522L303.757 38.1445C303.771 38.555 303.877 38.8521 304.074 39.0359C304.286 39.2045 304.626 39.2806 305.095 39.264L306.524 39.2135L306.616 41.8079L304.681 41.8762C302.087 41.9679 300.745 40.7532 300.656 38.2321L300.448 32.3618L298.997 32.4131L298.908 29.8846L300.359 29.8334L300.253 26.8212L303.353 26.7117L303.459 29.7238L306.185 29.6275L306.275 32.1559L303.548 32.2522Z" fill="#1F262E"/>
</svg>
