<svg width="351" height="124" viewBox="0 0 351 124" fill="none" xmlns="http://www.w3.org/2000/svg">
<rect x="27.0469" y="59.6522" width="303" height="58" fill="#1E93FF"/>
<path d="M44.6409 89.6303C44.6409 88.6223 44.8389 87.7283 45.2349 86.9483C45.6429 86.1683 46.1889 85.5683 46.8729 85.1483C47.5689 84.7283 48.3429 84.5183 49.1949 84.5183C49.9389 84.5183 50.5869 84.6683 51.1389 84.9683C51.7029 85.2683 52.1529 85.6463 52.4889 86.1023V84.6803H55.0269V94.6523H52.4889V93.1943C52.1649 93.6623 51.7149 94.0523 51.1389 94.3643C50.5749 94.6643 49.9209 94.8143 49.1769 94.8143C48.3369 94.8143 47.5689 94.5983 46.8729 94.1663C46.1889 93.7343 45.6429 93.1283 45.2349 92.3483C44.8389 91.5563 44.6409 90.6503 44.6409 89.6303ZM52.4889 89.6663C52.4889 89.0543 52.3689 88.5323 52.1289 88.1003C51.8889 87.6563 51.5649 87.3203 51.1569 87.0923C50.7489 86.8523 50.3109 86.7323 49.8429 86.7323C49.3749 86.7323 48.9429 86.8463 48.5469 87.0743C48.1509 87.3023 47.8269 87.6383 47.5749 88.0823C47.3349 88.5143 47.2149 89.0303 47.2149 89.6303C47.2149 90.2303 47.3349 90.7583 47.5749 91.2143C47.8269 91.6583 48.1509 92.0003 48.5469 92.2403C48.9549 92.4803 49.3869 92.6003 49.8429 92.6003C50.3109 92.6003 50.7489 92.4863 51.1569 92.2583C51.5649 92.0183 51.8889 91.6823 52.1289 91.2503C52.3689 90.8063 52.4889 90.2783 52.4889 89.6663ZM63.0141 84.5363C64.2021 84.5363 65.1621 84.9143 65.8941 85.6703C66.6261 86.4143 66.9921 87.4583 66.9921 88.8023V94.6523H64.4721V89.1443C64.4721 88.3523 64.2741 87.7463 63.8781 87.3263C63.4821 86.8943 62.9421 86.6783 62.2581 86.6783C61.5621 86.6783 61.0101 86.8943 60.6021 87.3263C60.2061 87.7463 60.0081 88.3523 60.0081 89.1443V94.6523H57.4881V84.6803H60.0081V85.9223C60.3441 85.4903 60.7701 85.1543 61.2861 84.9143C61.8141 84.6623 62.3901 84.5363 63.0141 84.5363ZM68.7405 89.6303C68.7405 88.6223 68.9385 87.7283 69.3345 86.9483C69.7425 86.1683 70.2945 85.5683 70.9905 85.1483C71.6865 84.7283 72.4605 84.5183 73.3125 84.5183C73.9605 84.5183 74.5785 84.6623 75.1665 84.9503C75.7545 85.2263 76.2225 85.5983 76.5705 86.0663V81.3323H79.1265V94.6523H76.5705V93.1763C76.2585 93.6683 75.8205 94.0643 75.2565 94.3643C74.6925 94.6643 74.0385 94.8143 73.2945 94.8143C72.4545 94.8143 71.6865 94.5983 70.9905 94.1663C70.2945 93.7343 69.7425 93.1283 69.3345 92.3483C68.9385 91.5563 68.7405 90.6503 68.7405 89.6303ZM76.5885 89.6663C76.5885 89.0543 76.4685 88.5323 76.2285 88.1003C75.9885 87.6563 75.6645 87.3203 75.2565 87.0923C74.8485 86.8523 74.4105 86.7323 73.9425 86.7323C73.4745 86.7323 73.0425 86.8463 72.6465 87.0743C72.2505 87.3023 71.9265 87.6383 71.6745 88.0823C71.4345 88.5143 71.3145 89.0303 71.3145 89.6303C71.3145 90.2303 71.4345 90.7583 71.6745 91.2143C71.9265 91.6583 72.2505 92.0003 72.6465 92.2403C73.0545 92.4803 73.4865 92.6003 73.9425 92.6003C74.4105 92.6003 74.8485 92.4863 75.2565 92.2583C75.6645 92.0183 75.9885 91.6823 76.2285 91.2503C76.4685 90.8063 76.5885 90.2783 76.5885 89.6663ZM89.6928 94.8143C88.8768 94.8143 88.1448 94.6703 87.4968 94.3823C86.8488 94.0823 86.3328 93.6803 85.9488 93.1763C85.5768 92.6723 85.3728 92.1143 85.3368 91.5023H87.8748C87.9228 91.8863 88.1088 92.2043 88.4328 92.4563C88.7688 92.7083 89.1828 92.8343 89.6748 92.8343C90.1548 92.8343 90.5268 92.7383 90.7908 92.5463C91.0668 92.3543 91.2048 92.1083 91.2048 91.8083C91.2048 91.4843 91.0368 91.2443 90.7008 91.0883C90.3768 90.9203 89.8548 90.7403 89.1348 90.5483C88.3908 90.3683 87.7788 90.1823 87.2988 89.9903C86.8308 89.7983 86.4228 89.5043 86.0748 89.1083C85.7388 88.7123 85.5708 88.1783 85.5708 87.5063C85.5708 86.9543 85.7268 86.4503 86.0388 85.9943C86.3628 85.5383 86.8188 85.1783 87.4068 84.9143C88.0068 84.6503 88.7088 84.5183 89.5128 84.5183C90.7008 84.5183 91.6488 84.8183 92.3568 85.4183C93.0648 86.0063 93.4548 86.8043 93.5268 87.8123H91.1148C91.0788 87.4163 90.9108 87.1043 90.6108 86.8763C90.3228 86.6363 89.9328 86.5163 89.4408 86.5163C88.9848 86.5163 88.6308 86.6003 88.3788 86.7683C88.1388 86.9363 88.0188 87.1703 88.0188 87.4703C88.0188 87.8063 88.1868 88.0643 88.5228 88.2443C88.8588 88.4123 89.3808 88.5863 90.0888 88.7663C90.8088 88.9463 91.4028 89.1323 91.8708 89.3243C92.3388 89.5163 92.7408 89.8163 93.0768 90.2243C93.4248 90.6203 93.6048 91.1483 93.6168 91.8083C93.6168 92.3843 93.4548 92.9003 93.1308 93.3563C92.8188 93.8123 92.3628 94.1723 91.7628 94.4363C91.1748 94.6883 90.4848 94.8143 89.6928 94.8143ZM96.9634 83.4923C96.5194 83.4923 96.1474 83.3543 95.8474 83.0783C95.5594 82.7903 95.4154 82.4363 95.4154 82.0163C95.4154 81.5963 95.5594 81.2483 95.8474 80.9723C96.1474 80.6843 96.5194 80.5403 96.9634 80.5403C97.4074 80.5403 97.7734 80.6843 98.0614 80.9723C98.3614 81.2483 98.5114 81.5963 98.5114 82.0163C98.5114 82.4363 98.3614 82.7903 98.0614 83.0783C97.7734 83.3543 97.4074 83.4923 96.9634 83.4923ZM98.2054 84.6803V94.6523H95.6854V84.6803H98.2054ZM104.601 84.5183C105.345 84.5183 105.999 84.6683 106.563 84.9683C107.127 85.2563 107.571 85.6343 107.895 86.1023V84.6803H110.433V94.7243C110.433 95.6483 110.247 96.4703 109.875 97.1903C109.503 97.9223 108.945 98.4983 108.201 98.9183C107.457 99.3503 106.557 99.5663 105.501 99.5663C104.085 99.5663 102.921 99.2363 102.009 98.5763C101.109 97.9163 100.599 97.0163 100.479 95.8763H102.981C103.113 96.3323 103.395 96.6923 103.827 96.9563C104.271 97.2323 104.805 97.3703 105.429 97.3703C106.161 97.3703 106.755 97.1483 107.211 96.7043C107.667 96.2723 107.895 95.6123 107.895 94.7243V93.1763C107.571 93.6443 107.121 94.0343 106.545 94.3463C105.981 94.6583 105.333 94.8143 104.601 94.8143C103.761 94.8143 102.993 94.5983 102.297 94.1663C101.601 93.7343 101.049 93.1283 100.641 92.3483C100.245 91.5563 100.047 90.6503 100.047 89.6303C100.047 88.6223 100.245 87.7283 100.641 86.9483C101.049 86.1683 101.595 85.5683 102.279 85.1483C102.975 84.7283 103.749 84.5183 104.601 84.5183ZM107.895 89.6663C107.895 89.0543 107.775 88.5323 107.535 88.1003C107.295 87.6563 106.971 87.3203 106.563 87.0923C106.155 86.8523 105.717 86.7323 105.249 86.7323C104.781 86.7323 104.349 86.8463 103.953 87.0743C103.557 87.3023 103.233 87.6383 102.981 88.0823C102.741 88.5143 102.621 89.0303 102.621 89.6303C102.621 90.2303 102.741 90.7583 102.981 91.2143C103.233 91.6583 103.557 92.0003 103.953 92.2403C104.361 92.4803 104.793 92.6003 105.249 92.6003C105.717 92.6003 106.155 92.4863 106.563 92.2583C106.971 92.0183 107.295 91.6823 107.535 91.2503C107.775 90.8063 107.895 90.2783 107.895 89.6663ZM118.42 84.5363C119.608 84.5363 120.568 84.9143 121.3 85.6703C122.032 86.4143 122.398 87.4583 122.398 88.8023V94.6523H119.878V89.1443C119.878 88.3523 119.68 87.7463 119.284 87.3263C118.888 86.8943 118.348 86.6783 117.664 86.6783C116.968 86.6783 116.416 86.8943 116.008 87.3263C115.612 87.7463 115.414 88.3523 115.414 89.1443V94.6523H112.894V84.6803H115.414V85.9223C115.75 85.4903 116.176 85.1543 116.692 84.9143C117.22 84.6623 117.796 84.5363 118.42 84.5363ZM128.436 89.6303C128.436 88.6223 128.634 87.7283 129.03 86.9483C129.438 86.1683 129.984 85.5683 130.668 85.1483C131.364 84.7283 132.138 84.5183 132.99 84.5183C133.734 84.5183 134.382 84.6683 134.934 84.9683C135.498 85.2683 135.948 85.6463 136.284 86.1023V84.6803H138.822V94.6523H136.284V93.1943C135.96 93.6623 135.51 94.0523 134.934 94.3643C134.37 94.6643 133.716 94.8143 132.972 94.8143C132.132 94.8143 131.364 94.5983 130.668 94.1663C129.984 93.7343 129.438 93.1283 129.03 92.3483C128.634 91.5563 128.436 90.6503 128.436 89.6303ZM136.284 89.6663C136.284 89.0543 136.164 88.5323 135.924 88.1003C135.684 87.6563 135.36 87.3203 134.952 87.0923C134.544 86.8523 134.106 86.7323 133.638 86.7323C133.17 86.7323 132.738 86.8463 132.342 87.0743C131.946 87.3023 131.622 87.6383 131.37 88.0823C131.13 88.5143 131.01 89.0303 131.01 89.6303C131.01 90.2303 131.13 90.7583 131.37 91.2143C131.622 91.6583 131.946 92.0003 132.342 92.2403C132.75 92.4803 133.182 92.6003 133.638 92.6003C134.106 92.6003 134.544 92.4863 134.952 92.2583C135.36 92.0183 135.684 91.6823 135.924 91.2503C136.164 90.8063 136.284 90.2783 136.284 89.6663ZM148.092 81.3323V94.6523H145.572V81.3323H148.092ZM159.852 89.4503C159.852 89.8103 159.828 90.1343 159.78 90.4223H152.49C152.55 91.1423 152.802 91.7063 153.246 92.1143C153.69 92.5223 154.236 92.7263 154.884 92.7263C155.82 92.7263 156.486 92.3243 156.882 91.5203H159.6C159.312 92.4803 158.76 93.2723 157.944 93.8963C157.128 94.5083 156.126 94.8143 154.938 94.8143C153.978 94.8143 153.114 94.6043 152.346 94.1843C151.59 93.7523 150.996 93.1463 150.564 92.3663C150.144 91.5863 149.934 90.6863 149.934 89.6663C149.934 88.6343 150.144 87.7283 150.564 86.9483C150.984 86.1683 151.572 85.5683 152.328 85.1483C153.084 84.7283 153.954 84.5183 154.938 84.5183C155.886 84.5183 156.732 84.7223 157.476 85.1303C158.232 85.5383 158.814 86.1203 159.222 86.8763C159.642 87.6203 159.852 88.4783 159.852 89.4503ZM157.242 88.7303C157.23 88.0823 156.996 87.5663 156.54 87.1823C156.084 86.7863 155.526 86.5883 154.866 86.5883C154.242 86.5883 153.714 86.7803 153.282 87.1643C152.862 87.5363 152.604 88.0583 152.508 88.7303H157.242ZM161.043 89.6303C161.043 88.6223 161.241 87.7283 161.637 86.9483C162.045 86.1683 162.591 85.5683 163.275 85.1483C163.971 84.7283 164.745 84.5183 165.597 84.5183C166.341 84.5183 166.989 84.6683 167.541 84.9683C168.105 85.2683 168.555 85.6463 168.891 86.1023V84.6803H171.429V94.6523H168.891V93.1943C168.567 93.6623 168.117 94.0523 167.541 94.3643C166.977 94.6643 166.323 94.8143 165.579 94.8143C164.739 94.8143 163.971 94.5983 163.275 94.1663C162.591 93.7343 162.045 93.1283 161.637 92.3483C161.241 91.5563 161.043 90.6503 161.043 89.6303ZM168.891 89.6663C168.891 89.0543 168.771 88.5323 168.531 88.1003C168.291 87.6563 167.967 87.3203 167.559 87.0923C167.151 86.8523 166.713 86.7323 166.245 86.7323C165.777 86.7323 165.345 86.8463 164.949 87.0743C164.553 87.3023 164.229 87.6383 163.977 88.0823C163.737 88.5143 163.617 89.0303 163.617 89.6303C163.617 90.2303 163.737 90.7583 163.977 91.2143C164.229 91.6583 164.553 92.0003 164.949 92.2403C165.357 92.4803 165.789 92.6003 166.245 92.6003C166.713 92.6003 167.151 92.4863 167.559 92.2583C167.967 92.0183 168.291 91.6823 168.531 91.2503C168.771 90.8063 168.891 90.2783 168.891 89.6663ZM177.706 94.8143C176.89 94.8143 176.158 94.6703 175.51 94.3823C174.862 94.0823 174.346 93.6803 173.962 93.1763C173.59 92.6723 173.386 92.1143 173.35 91.5023H175.888C175.936 91.8863 176.122 92.2043 176.446 92.4563C176.782 92.7083 177.196 92.8343 177.688 92.8343C178.168 92.8343 178.54 92.7383 178.804 92.5463C179.08 92.3543 179.218 92.1083 179.218 91.8083C179.218 91.4843 179.05 91.2443 178.714 91.0883C178.39 90.9203 177.868 90.7403 177.148 90.5483C176.404 90.3683 175.792 90.1823 175.312 89.9903C174.844 89.7983 174.436 89.5043 174.088 89.1083C173.752 88.7123 173.584 88.1783 173.584 87.5063C173.584 86.9543 173.74 86.4503 174.052 85.9943C174.376 85.5383 174.832 85.1783 175.42 84.9143C176.02 84.6503 176.722 84.5183 177.526 84.5183C178.714 84.5183 179.662 84.8183 180.37 85.4183C181.078 86.0063 181.468 86.8043 181.54 87.8123H179.128C179.092 87.4163 178.924 87.1043 178.624 86.8763C178.336 86.6363 177.946 86.5163 177.454 86.5163C176.998 86.5163 176.644 86.6003 176.392 86.7683C176.152 86.9363 176.032 87.1703 176.032 87.4703C176.032 87.8063 176.2 88.0643 176.536 88.2443C176.872 88.4123 177.394 88.5863 178.102 88.7663C178.822 88.9463 179.416 89.1323 179.884 89.3243C180.352 89.5163 180.754 89.8163 181.09 90.2243C181.438 90.6203 181.618 91.1483 181.63 91.8083C181.63 92.3843 181.468 92.9003 181.144 93.3563C180.832 93.8123 180.376 94.1723 179.776 94.4363C179.188 94.6883 178.498 94.8143 177.706 94.8143ZM192.969 89.4503C192.969 89.8103 192.945 90.1343 192.897 90.4223H185.607C185.667 91.1423 185.919 91.7063 186.363 92.1143C186.807 92.5223 187.353 92.7263 188.001 92.7263C188.937 92.7263 189.603 92.3243 189.999 91.5203H192.717C192.429 92.4803 191.877 93.2723 191.061 93.8963C190.245 94.5083 189.243 94.8143 188.055 94.8143C187.095 94.8143 186.231 94.6043 185.463 94.1843C184.707 93.7523 184.113 93.1463 183.681 92.3663C183.261 91.5863 183.051 90.6863 183.051 89.6663C183.051 88.6343 183.261 87.7283 183.681 86.9483C184.101 86.1683 184.689 85.5683 185.445 85.1483C186.201 84.7283 187.071 84.5183 188.055 84.5183C189.003 84.5183 189.849 84.7223 190.593 85.1303C191.349 85.5383 191.931 86.1203 192.339 86.8763C192.759 87.6203 192.969 88.4783 192.969 89.4503ZM190.359 88.7303C190.347 88.0823 190.113 87.5663 189.657 87.1823C189.201 86.7863 188.643 86.5883 187.983 86.5883C187.359 86.5883 186.831 86.7803 186.399 87.1643C185.979 87.5363 185.721 88.0583 185.625 88.7303H190.359ZM198.449 89.6303C198.449 88.6223 198.647 87.7283 199.043 86.9483C199.451 86.1683 199.997 85.5683 200.681 85.1483C201.377 84.7283 202.151 84.5183 203.003 84.5183C203.747 84.5183 204.395 84.6683 204.947 84.9683C205.511 85.2683 205.961 85.6463 206.297 86.1023V84.6803H208.835V94.6523H206.297V93.1943C205.973 93.6623 205.523 94.0523 204.947 94.3643C204.383 94.6643 203.729 94.8143 202.985 94.8143C202.145 94.8143 201.377 94.5983 200.681 94.1663C199.997 93.7343 199.451 93.1283 199.043 92.3483C198.647 91.5563 198.449 90.6503 198.449 89.6303ZM206.297 89.6663C206.297 89.0543 206.177 88.5323 205.937 88.1003C205.697 87.6563 205.373 87.3203 204.965 87.0923C204.557 86.8523 204.119 86.7323 203.651 86.7323C203.183 86.7323 202.751 86.8463 202.355 87.0743C201.959 87.3023 201.635 87.6383 201.383 88.0823C201.143 88.5143 201.023 89.0303 201.023 89.6303C201.023 90.2303 201.143 90.7583 201.383 91.2143C201.635 91.6583 201.959 92.0003 202.355 92.2403C202.763 92.4803 203.195 92.6003 203.651 92.6003C204.119 92.6003 204.557 92.4863 204.965 92.2583C205.373 92.0183 205.697 91.6823 205.937 91.2503C206.177 90.8063 206.297 90.2783 206.297 89.6663ZM215.203 84.5183C215.947 84.5183 216.601 84.6683 217.165 84.9683C217.729 85.2563 218.173 85.6343 218.497 86.1023V84.6803H221.035V94.7243C221.035 95.6483 220.849 96.4703 220.477 97.1903C220.105 97.9223 219.547 98.4983 218.803 98.9183C218.059 99.3503 217.159 99.5663 216.103 99.5663C214.687 99.5663 213.523 99.2363 212.611 98.5763C211.711 97.9163 211.201 97.0163 211.081 95.8763H213.583C213.715 96.3323 213.997 96.6923 214.429 96.9563C214.873 97.2323 215.407 97.3703 216.031 97.3703C216.763 97.3703 217.357 97.1483 217.813 96.7043C218.269 96.2723 218.497 95.6123 218.497 94.7243V93.1763C218.173 93.6443 217.723 94.0343 217.147 94.3463C216.583 94.6583 215.935 94.8143 215.203 94.8143C214.363 94.8143 213.595 94.5983 212.899 94.1663C212.203 93.7343 211.651 93.1283 211.243 92.3483C210.847 91.5563 210.649 90.6503 210.649 89.6303C210.649 88.6223 210.847 87.7283 211.243 86.9483C211.651 86.1683 212.197 85.5683 212.881 85.1483C213.577 84.7283 214.351 84.5183 215.203 84.5183ZM218.497 89.6663C218.497 89.0543 218.377 88.5323 218.137 88.1003C217.897 87.6563 217.573 87.3203 217.165 87.0923C216.757 86.8523 216.319 86.7323 215.851 86.7323C215.383 86.7323 214.951 86.8463 214.555 87.0743C214.159 87.3023 213.835 87.6383 213.583 88.0823C213.343 88.5143 213.223 89.0303 213.223 89.6303C213.223 90.2303 213.343 90.7583 213.583 91.2143C213.835 91.6583 214.159 92.0003 214.555 92.2403C214.963 92.4803 215.395 92.6003 215.851 92.6003C216.319 92.6003 216.757 92.4863 217.165 92.2583C217.573 92.0183 217.897 91.6823 218.137 91.2503C218.377 90.8063 218.497 90.2783 218.497 89.6663ZM226.016 86.2283C226.34 85.7003 226.76 85.2863 227.276 84.9863C227.804 84.6863 228.404 84.5363 229.076 84.5363V87.1823H228.41C227.618 87.1823 227.018 87.3683 226.61 87.7403C226.214 88.1123 226.016 88.7603 226.016 89.6843V94.6523H223.496V84.6803H226.016V86.2283ZM240.043 89.4503C240.043 89.8103 240.019 90.1343 239.971 90.4223H232.681C232.741 91.1423 232.993 91.7063 233.437 92.1143C233.881 92.5223 234.427 92.7263 235.075 92.7263C236.011 92.7263 236.677 92.3243 237.073 91.5203H239.791C239.503 92.4803 238.951 93.2723 238.135 93.8963C237.319 94.5083 236.317 94.8143 235.129 94.8143C234.169 94.8143 233.305 94.6043 232.537 94.1843C231.781 93.7523 231.187 93.1463 230.755 92.3663C230.335 91.5863 230.125 90.6863 230.125 89.6663C230.125 88.6343 230.335 87.7283 230.755 86.9483C231.175 86.1683 231.763 85.5683 232.519 85.1483C233.275 84.7283 234.145 84.5183 235.129 84.5183C236.077 84.5183 236.923 84.7223 237.667 85.1303C238.423 85.5383 239.005 86.1203 239.413 86.8763C239.833 87.6203 240.043 88.4783 240.043 89.4503ZM237.433 88.7303C237.421 88.0823 237.187 87.5663 236.731 87.1823C236.275 86.7863 235.717 86.5883 235.057 86.5883C234.433 86.5883 233.905 86.7803 233.473 87.1643C233.053 87.5363 232.795 88.0583 232.699 88.7303H237.433ZM251.153 89.4503C251.153 89.8103 251.129 90.1343 251.081 90.4223H243.791C243.851 91.1423 244.103 91.7063 244.547 92.1143C244.991 92.5223 245.537 92.7263 246.185 92.7263C247.121 92.7263 247.787 92.3243 248.183 91.5203H250.901C250.613 92.4803 250.061 93.2723 249.245 93.8963C248.429 94.5083 247.427 94.8143 246.239 94.8143C245.279 94.8143 244.415 94.6043 243.647 94.1843C242.891 93.7523 242.297 93.1463 241.865 92.3663C241.445 91.5863 241.235 90.6863 241.235 89.6663C241.235 88.6343 241.445 87.7283 241.865 86.9483C242.285 86.1683 242.873 85.5683 243.629 85.1483C244.385 84.7283 245.255 84.5183 246.239 84.5183C247.187 84.5183 248.033 84.7223 248.777 85.1303C249.533 85.5383 250.115 86.1203 250.523 86.8763C250.943 87.6203 251.153 88.4783 251.153 89.4503ZM248.543 88.7303C248.531 88.0823 248.297 87.5663 247.841 87.1823C247.385 86.7863 246.827 86.5883 246.167 86.5883C245.543 86.5883 245.015 86.7803 244.583 87.1643C244.163 87.5363 243.905 88.0583 243.809 88.7303H248.543ZM265.376 84.5363C266.6 84.5363 267.584 84.9143 268.328 85.6703C269.084 86.4143 269.462 87.4583 269.462 88.8023V94.6523H266.942V89.1443C266.942 88.3643 266.744 87.7703 266.348 87.3623C265.952 86.9423 265.412 86.7323 264.728 86.7323C264.044 86.7323 263.498 86.9423 263.09 87.3623C262.694 87.7703 262.496 88.3643 262.496 89.1443V94.6523H259.976V89.1443C259.976 88.3643 259.778 87.7703 259.382 87.3623C258.986 86.9423 258.446 86.7323 257.762 86.7323C257.066 86.7323 256.514 86.9423 256.106 87.3623C255.71 87.7703 255.512 88.3643 255.512 89.1443V94.6523H252.992V84.6803H255.512V85.8863C255.836 85.4663 256.25 85.1363 256.754 84.8963C257.27 84.6563 257.834 84.5363 258.446 84.5363C259.226 84.5363 259.922 84.7043 260.534 85.0403C261.146 85.3643 261.62 85.8323 261.956 86.4443C262.28 85.8683 262.748 85.4063 263.36 85.0583C263.984 84.7103 264.656 84.5363 265.376 84.5363ZM281.123 89.4503C281.123 89.8103 281.099 90.1343 281.051 90.4223H273.761C273.821 91.1423 274.073 91.7063 274.517 92.1143C274.961 92.5223 275.507 92.7263 276.155 92.7263C277.091 92.7263 277.757 92.3243 278.153 91.5203H280.871C280.583 92.4803 280.031 93.2723 279.215 93.8963C278.399 94.5083 277.397 94.8143 276.209 94.8143C275.249 94.8143 274.385 94.6043 273.617 94.1843C272.861 93.7523 272.267 93.1463 271.835 92.3663C271.415 91.5863 271.205 90.6863 271.205 89.6663C271.205 88.6343 271.415 87.7283 271.835 86.9483C272.255 86.1683 272.843 85.5683 273.599 85.1483C274.355 84.7283 275.225 84.5183 276.209 84.5183C277.157 84.5183 278.003 84.7223 278.747 85.1303C279.503 85.5383 280.085 86.1203 280.493 86.8763C280.913 87.6203 281.123 88.4783 281.123 89.4503ZM278.513 88.7303C278.501 88.0823 278.267 87.5663 277.811 87.1823C277.355 86.7863 276.797 86.5883 276.137 86.5883C275.513 86.5883 274.985 86.7803 274.553 87.1643C274.133 87.5363 273.875 88.0583 273.779 88.7303H278.513ZM288.489 84.5363C289.677 84.5363 290.637 84.9143 291.369 85.6703C292.101 86.4143 292.467 87.4583 292.467 88.8023V94.6523H289.947V89.1443C289.947 88.3523 289.749 87.7463 289.353 87.3263C288.957 86.8943 288.417 86.6783 287.733 86.6783C287.037 86.6783 286.485 86.8943 286.077 87.3263C285.681 87.7463 285.483 88.3523 285.483 89.1443V94.6523H282.963V84.6803H285.483V85.9223C285.819 85.4903 286.245 85.1543 286.761 84.9143C287.289 84.6623 287.865 84.5363 288.489 84.5363ZM297.797 86.7503V91.5743C297.797 91.9103 297.875 92.1563 298.031 92.3123C298.199 92.4563 298.475 92.5283 298.859 92.5283H300.029V94.6523H298.445C296.321 94.6523 295.259 93.6203 295.259 91.5563V86.7503H294.071V84.6803H295.259V82.2143H297.797V84.6803H300.029V86.7503H297.797ZM302.958 94.7783C302.502 94.7783 302.124 94.6403 301.824 94.3643C301.536 94.0763 301.392 93.7223 301.392 93.3023C301.392 92.8823 301.536 92.5343 301.824 92.2583C302.124 91.9703 302.502 91.8263 302.958 91.8263C303.402 91.8263 303.768 91.9703 304.056 92.2583C304.344 92.5343 304.488 92.8823 304.488 93.3023C304.488 93.7223 304.344 94.0763 304.056 94.3643C303.768 94.6403 303.402 94.7783 302.958 94.7783ZM302.958 87.3263C302.502 87.3263 302.124 87.1883 301.824 86.9123C301.536 86.6243 301.392 86.2703 301.392 85.8503C301.392 85.4303 301.536 85.0823 301.824 84.8063C302.124 84.5183 302.502 84.3743 302.958 84.3743C303.402 84.3743 303.768 84.5183 304.056 84.8063C304.344 85.0823 304.488 85.4303 304.488 85.8503C304.488 86.2703 304.344 86.6243 304.056 86.9123C303.768 87.1883 303.402 87.3263 302.958 87.3263Z" fill="white"/>
<rect x="65.0781" y="2.31567" width="248.847" height="57.711" transform="rotate(2.28277 65.0781 2.31567)" fill="#40FF62"/>
<path d="M93.2809 28.9702C92.9575 28.3101 92.4955 27.798 91.8949 27.434C91.2943 27.07 90.5837 26.87 89.7632 26.834C88.8547 26.7941 88.0398 26.9639 87.3185 27.3433C86.5972 27.7227 86.022 28.2847 85.5929 29.0293C85.1639 29.7739 84.9275 30.6444 84.8838 31.6407C84.8388 32.6664 84.9974 33.5689 85.3596 34.3482C85.7365 35.1281 86.2749 35.739 86.9748 36.1808C87.6748 36.6225 88.501 36.8643 89.4534 36.9061C90.6256 36.9575 91.5989 36.6919 92.3732 36.1093C93.1481 35.512 93.6772 34.6617 93.9605 33.5584L88.6856 33.327L88.7887 30.9753L97.0967 31.3397L96.9791 34.0211C96.7271 35.0818 96.2441 36.0515 95.5302 36.9304C94.8163 37.8093 93.9124 38.5037 92.8183 39.0136C91.7395 39.5094 90.5408 39.7285 89.2221 39.6706C87.7421 39.6057 86.4159 39.2172 85.2433 38.5051C84.086 37.779 83.1891 36.8074 82.5525 35.5904C81.9305 34.3739 81.6526 33.0111 81.7189 31.5019C81.7851 29.9927 82.1812 28.6594 82.9073 27.5021C83.6487 26.3308 84.6273 25.4415 85.843 24.8342C87.0741 24.2129 88.4223 23.9344 89.8876 23.9987C91.6166 24.0746 93.0998 24.5654 94.3373 25.4711C95.5754 26.3623 96.4028 27.5804 96.8195 29.1254L93.2809 28.9702ZM110.597 34.1121C110.578 34.5516 110.531 34.946 110.457 35.2951L101.556 34.9046C101.59 35.7869 101.868 36.4891 102.388 37.0111C102.908 37.533 103.564 37.8114 104.355 37.8461C105.498 37.8962 106.333 37.441 106.86 36.4805L110.178 36.6261C109.775 37.7829 109.059 38.7204 108.029 39.4386C107 40.1422 105.76 40.4622 104.309 40.3985C103.137 40.3471 102.093 40.0444 101.178 39.4904C100.278 38.9224 99.5854 38.1507 99.0996 37.1751C98.6286 36.2002 98.4204 35.09 98.475 33.8445C98.5303 32.5844 98.8352 31.4894 99.3899 30.5595C99.9445 29.6295 100.695 28.9284 101.64 28.4561C102.586 27.9837 103.659 27.7739 104.861 27.8266C106.018 27.8774 107.041 28.1718 107.927 28.7098C108.828 29.2485 109.508 29.9904 109.966 30.9353C110.439 31.8663 110.649 32.9252 110.597 34.1121ZM107.449 33.0931C107.469 32.3012 107.211 31.6586 106.674 31.1653C106.139 30.6573 105.468 30.3857 104.662 30.3503C103.9 30.3169 103.245 30.5231 102.697 30.9688C102.164 31.4005 101.821 32.0241 101.668 32.8395L107.449 33.0931ZM116.57 31.0709L116.312 36.9613C116.294 37.3715 116.376 37.6761 116.558 37.8749C116.755 38.0597 117.088 38.1624 117.557 38.183L118.986 38.2457L118.872 40.8392L116.938 40.7543C114.345 40.6406 113.103 39.3236 113.214 36.8033L113.471 30.935L112.02 30.8713L112.131 28.3438L113.582 28.4074L113.714 25.3963L116.813 25.5322L116.681 28.5433L119.406 28.6629L119.295 31.1905L116.57 31.0709ZM125.798 35.0432C125.854 33.7831 126.158 32.6954 126.712 31.7801C127.267 30.8502 128.01 30.1487 128.941 29.6757C129.872 29.1881 130.924 28.97 132.096 29.0214C133.606 29.0876 134.834 29.5232 135.783 30.3282C136.746 31.1192 137.367 32.2034 137.644 33.5809L134.325 33.4353C134.172 32.9001 133.89 32.4767 133.478 32.165C133.081 31.8393 132.575 31.6629 131.96 31.6359C131.08 31.5974 130.37 31.8892 129.829 32.5114C129.289 33.119 128.993 34.0089 128.941 35.1811C128.891 36.3386 129.107 37.251 129.592 37.9182C130.077 38.5708 130.759 38.9163 131.639 38.9549C132.884 39.0095 133.722 38.4884 134.151 37.3915L137.47 37.5371C137.075 38.8411 136.363 39.8595 135.332 40.5924C134.302 41.3252 133.039 41.6589 131.545 41.5933C130.373 41.5419 129.344 41.2398 128.458 40.6871C127.572 40.1198 126.894 39.356 126.422 38.3957C125.951 37.4208 125.743 36.3033 125.798 35.0432ZM139.022 35.5792C139.076 34.3484 139.366 33.2674 139.891 32.3362C140.431 31.4056 141.13 30.7023 141.987 30.2261C142.86 29.7505 143.816 29.5355 144.856 29.5812C145.765 29.621 146.548 29.8389 147.206 30.2348C147.879 30.6313 148.408 31.117 148.794 31.6918L148.87 29.9554L151.969 30.0914L151.435 42.2677L148.336 42.1317L148.414 40.3514C147.993 40.9055 147.423 41.3576 146.703 41.7078C145.998 42.0439 145.191 42.192 144.283 42.1521C143.257 42.1071 142.331 41.8023 141.504 41.2375C140.692 40.6733 140.058 39.9041 139.602 38.9299C139.161 37.9416 138.967 36.8247 139.022 35.5792ZM148.603 36.0436C148.636 35.2963 148.517 34.6525 148.247 34.1121C147.978 33.5571 147.6 33.1295 147.114 32.8293C146.629 32.5144 146.101 32.3444 145.529 32.3193C144.958 32.2942 144.424 32.4103 143.928 32.6675C143.433 32.9247 143.019 33.3176 142.687 33.8462C142.371 34.3609 142.197 34.9845 142.165 35.7171C142.133 36.4498 142.251 37.1009 142.52 37.6705C142.804 38.2262 143.181 38.6611 143.652 38.9754C144.137 39.2903 144.658 39.46 145.215 39.4844C145.786 39.5095 146.327 39.3937 146.838 39.1372C147.349 38.866 147.762 38.4731 148.078 37.9584C148.395 37.4292 148.57 36.7909 148.603 36.0436ZM159.091 42.8017C158.094 42.758 157.208 42.543 156.433 42.1566C155.657 41.7556 155.049 41.2371 154.607 40.6011C154.18 39.9658 153.961 39.2735 153.949 38.5243L157.048 38.6602C157.086 39.1317 157.297 39.53 157.679 39.855C158.075 40.1807 158.574 40.3567 159.175 40.3831C159.761 40.4088 160.22 40.3115 160.553 40.0912C160.9 39.8716 161.082 39.5786 161.098 39.2123C161.115 38.8166 160.923 38.5146 160.521 38.3061C160.135 38.0836 159.507 37.8359 158.638 37.5629C157.739 37.3032 157.002 37.0433 156.426 36.7832C155.865 36.5237 155.382 36.1428 154.979 35.6406C154.59 35.1391 154.413 34.4781 154.449 33.6575C154.479 32.9835 154.696 32.3765 155.102 31.8364C155.522 31.2969 156.098 30.8818 156.83 30.5909C157.577 30.3007 158.441 30.1771 159.423 30.2202C160.873 30.2838 162.015 30.7009 162.847 31.4715C163.68 32.2274 164.114 33.2227 164.147 34.4573L161.202 34.3281C161.18 33.8427 160.991 33.4527 160.637 33.1582C160.298 32.8498 159.828 32.6823 159.228 32.656C158.671 32.6316 158.234 32.7152 157.917 32.9068C157.615 33.0991 157.456 33.3784 157.44 33.7447C157.422 34.155 157.614 34.479 158.014 34.7168C158.415 34.9399 159.043 35.1803 159.898 35.4381C160.768 35.6964 161.483 35.9553 162.044 36.2149C162.606 36.4744 163.08 36.8622 163.469 37.3784C163.872 37.8806 164.064 38.5349 164.043 39.3415C164.012 40.0448 163.787 40.6662 163.367 41.2056C162.962 41.7457 162.385 42.1609 161.639 42.4511C160.907 42.7273 160.058 42.8442 159.091 42.8017ZM173.816 30.8736C174.739 30.9141 175.551 31.1553 176.251 31.597C176.951 32.0242 177.482 32.642 177.843 33.4506C178.219 34.2452 178.383 35.192 178.335 36.2909L178.022 43.434L174.945 43.299L175.24 36.5735C175.282 35.6064 175.073 34.8559 174.612 34.3218C174.151 33.7731 173.504 33.4804 172.668 33.4438C171.818 33.4065 171.133 33.6407 170.612 34.1463C170.106 34.638 169.831 35.3673 169.789 36.3344L169.494 43.0599L166.417 42.9249L167.13 26.6606L170.207 26.7956L169.961 32.4002C170.38 31.89 170.926 31.5029 171.598 31.2388C172.271 30.96 173.01 30.8383 173.816 30.8736ZM185.663 37.6253C185.717 36.3945 186.006 35.3135 186.532 34.3823C187.072 33.4517 187.77 32.7483 188.628 32.2721C189.5 31.7966 190.457 31.5816 191.497 31.6273C192.406 31.6671 193.189 31.885 193.847 32.2809C194.519 32.6774 195.049 33.1631 195.434 33.7379L195.511 32.0015L198.61 32.1375L198.075 44.3138L194.976 44.1778L195.055 42.3975C194.634 42.9516 194.063 43.4037 193.343 43.7538C192.639 44.0899 191.832 44.2381 190.924 44.1982C189.898 44.1532 188.972 43.8483 188.145 43.2836C187.333 42.7194 186.699 41.9502 186.242 40.976C185.801 39.9877 185.608 38.8708 185.663 37.6253ZM195.244 38.0897C195.276 37.3424 195.158 36.6986 194.888 36.1582C194.619 35.6032 194.241 35.1756 193.755 34.8753C193.27 34.5604 192.741 34.3904 192.17 34.3654C191.598 34.3403 191.065 34.4564 190.569 34.7136C190.073 34.9707 189.66 35.3637 189.328 35.8923C189.012 36.4069 188.838 37.0306 188.806 37.7632C188.773 38.4958 188.892 39.147 189.16 39.7166C189.444 40.2723 189.822 40.7072 190.292 41.0215C190.778 41.3364 191.299 41.5061 191.855 41.5305C192.427 41.5556 192.968 41.4398 193.478 41.1833C193.989 40.9121 194.403 40.5192 194.719 40.0045C195.036 39.4752 195.211 38.837 195.244 38.0897ZM205.087 34.954L204.828 40.8444C204.81 41.2547 204.892 41.5592 205.074 41.7581C205.272 41.9429 205.605 42.0456 206.074 42.0662L207.502 42.1288L207.389 44.7223L205.455 44.6375C202.861 44.5237 201.62 43.2067 201.73 40.6865L201.988 34.8181L200.537 34.7545L200.648 32.2269L202.098 32.2905L202.231 29.2794L205.33 29.4154L205.197 32.4265L207.923 32.546L207.812 35.0736L205.087 34.954ZM214.315 38.9263C214.37 37.6662 214.675 36.5785 215.229 35.6632C215.783 34.7333 216.526 34.0319 217.457 33.5589C218.389 33.0712 219.441 32.8531 220.613 32.9045C222.122 32.9708 223.351 33.4064 224.299 34.2114C225.263 35.0024 225.883 36.0866 226.16 37.4641L222.841 37.3185C222.689 36.7833 222.406 36.3598 221.994 36.0481C221.598 35.7224 221.091 35.5461 220.476 35.5191C219.597 35.4805 218.887 35.7723 218.346 36.3945C217.805 37.0021 217.509 37.892 217.458 39.0642C217.407 40.2217 217.624 41.1341 218.108 41.8013C218.594 42.4539 219.276 42.7995 220.155 42.838C221.4 42.8927 222.238 42.3715 222.668 41.2747L225.987 41.4203C225.592 42.7242 224.879 43.7426 223.849 44.4755C222.818 45.2084 221.556 45.542 220.061 45.4765C218.889 45.425 217.86 45.123 216.974 44.5703C216.089 44.0029 215.41 43.2391 214.938 42.2789C214.467 41.304 214.26 40.1864 214.315 38.9263ZM231.851 29.4998L231.138 45.7642L228.061 45.6292L228.774 29.3648L231.851 29.4998ZM239.576 46.3325C238.404 46.2811 237.36 45.9784 236.445 45.4244C235.53 44.8558 234.823 44.0834 234.322 43.1072C233.837 42.1316 233.621 41.0211 233.676 39.7757C233.73 38.5302 234.05 37.4431 234.633 36.5145C235.232 35.5865 236.019 34.887 236.994 34.4159C237.969 33.9302 239.043 33.7131 240.215 33.7645C241.388 33.8159 242.438 34.1263 243.368 34.6955C244.298 35.2502 245.013 36.0156 245.513 36.9918C246.028 37.9686 246.258 39.0798 246.204 40.3252C246.149 41.5707 245.815 42.6571 245.202 43.5845C244.603 44.5125 243.809 45.219 242.819 45.7041C241.844 46.1751 240.763 46.3846 239.576 46.3325ZM239.694 43.6511C240.25 43.6756 240.776 43.5665 241.271 43.324C241.782 43.0674 242.195 42.6745 242.512 42.1452C242.829 41.6159 243.005 40.963 243.039 40.1864C243.089 39.0288 242.821 38.1289 242.232 37.4865C241.659 36.83 240.933 36.4826 240.054 36.444C239.175 36.4054 238.421 36.688 237.792 37.2917C237.179 37.8814 236.847 38.755 236.797 39.9126C236.746 41.0701 236.992 41.9765 237.536 42.6316C238.095 43.2727 238.814 43.6126 239.694 43.6511ZM252.844 46.9146C251.848 46.8709 250.962 46.6559 250.186 46.2695C249.411 45.8685 248.802 45.35 248.361 44.714C247.933 44.0787 247.714 43.3864 247.703 42.6372L250.802 42.7731C250.84 43.2446 251.05 43.6428 251.432 43.9679C251.829 44.2936 252.328 44.4696 252.929 44.496C253.515 44.5217 253.974 44.4244 254.307 44.2041C254.654 43.9844 254.836 43.6915 254.852 43.3251C254.869 42.9295 254.677 42.6275 254.275 42.419C253.888 42.1965 253.261 41.9488 252.392 41.6757C251.493 41.4161 250.756 41.1562 250.18 40.8961C249.619 40.6365 249.136 40.2557 248.732 39.7535C248.343 39.252 248.167 38.5909 248.203 37.7704C248.232 37.0964 248.45 36.4893 248.855 35.9492C249.275 35.4098 249.851 34.9947 250.583 34.7038C251.33 34.4136 252.194 34.29 253.176 34.3331C254.627 34.3967 255.768 34.8138 256.601 35.5844C257.434 36.3403 257.867 37.3355 257.901 38.5702L254.956 38.441C254.933 37.9556 254.745 37.5656 254.391 37.2711C254.052 36.9626 253.582 36.7952 252.981 36.7689C252.424 36.7444 251.988 36.828 251.671 37.0197C251.369 37.212 251.21 37.4913 251.194 37.8576C251.176 38.2678 251.367 38.5919 251.768 38.8297C252.169 39.0528 252.797 39.2932 253.652 39.5509C254.521 39.8093 255.237 40.0682 255.798 40.3277C256.359 40.5872 256.834 40.9751 257.222 41.4913C257.626 41.9935 257.818 42.6478 257.797 43.4543C257.766 44.1577 257.541 44.7791 257.121 45.3185C256.715 45.8586 256.139 46.2737 255.392 46.564C254.661 46.8402 253.812 46.9571 252.844 46.9146ZM262.329 33.4794C261.787 33.4556 261.34 33.2672 260.988 32.9141C260.652 32.547 260.495 32.107 260.518 31.5942C260.54 31.0813 260.735 30.6641 261.101 30.3426C261.483 30.007 261.945 29.8511 262.487 29.8748C263.029 29.8986 263.468 30.0941 263.804 30.4611C264.156 30.8142 264.32 31.2472 264.298 31.76C264.275 32.2729 264.073 32.6971 263.692 33.0327C263.325 33.3543 262.871 33.5032 262.329 33.4794ZM263.782 34.9965L263.247 47.1728L260.17 47.0378L260.705 34.8615L263.782 34.9965ZM273.577 35.2501C275.028 35.3137 276.18 35.8267 277.033 36.789C277.887 37.7367 278.278 39.031 278.206 40.6721L277.892 47.8153L274.815 47.6803L275.11 40.9547C275.153 39.9877 274.944 39.2371 274.482 38.7031C274.022 38.1544 273.374 37.8617 272.539 37.825C271.689 37.7878 271.004 38.0219 270.482 38.5276C269.976 39.0192 269.702 39.7486 269.66 40.7156L269.365 47.4412L266.288 47.3062L266.822 35.1299L269.899 35.2649L269.832 36.7814C270.266 36.2719 270.804 35.8845 271.447 35.619C272.105 35.3396 272.815 35.2166 273.577 35.2501ZM286.131 35.7788C287.039 35.8186 287.83 36.0368 288.502 36.4333C289.176 36.8152 289.697 37.3005 290.068 37.8893L290.144 36.153L293.243 36.289L292.705 48.5532C292.656 49.6814 292.385 50.6752 291.892 51.5344C291.398 52.4083 290.686 53.0817 289.755 53.5547C288.824 54.0423 287.713 54.2579 286.424 54.2013C284.695 54.1255 283.291 53.6602 282.213 52.8054C281.149 51.9513 280.575 50.825 280.489 49.4266L283.544 49.5606C283.681 50.1245 284.006 50.5792 284.519 50.9247C285.047 51.2855 285.691 51.4826 286.453 51.516C287.347 51.5552 288.084 51.316 288.665 50.7983C289.245 50.2952 289.559 49.5015 289.606 48.4172L289.689 46.527C289.268 47.0811 288.698 47.5332 287.978 47.8834C287.273 48.2341 286.473 48.3899 285.579 48.3507C284.554 48.3057 283.627 48.0008 282.801 47.436C281.974 46.8712 281.332 46.1017 280.876 45.1274C280.435 44.1392 280.242 43.0223 280.296 41.7768C280.35 40.546 280.64 39.465 281.165 38.5338C281.705 37.6032 282.404 36.8998 283.262 36.4236C284.134 35.9481 285.09 35.7331 286.131 35.7788ZM289.877 42.2412C289.91 41.4939 289.791 40.8501 289.521 40.3097C289.252 39.7547 288.875 39.3271 288.389 39.0268C287.903 38.7119 287.375 38.5419 286.803 38.5169C286.232 38.4918 285.698 38.6079 285.203 38.865C284.707 39.1222 284.293 39.5151 283.962 40.0438C283.646 40.5584 283.471 41.1821 283.439 41.9147C283.407 42.6473 283.525 43.2985 283.794 43.8681C284.078 44.4238 284.455 44.8587 284.926 45.173C285.411 45.4879 285.932 45.6576 286.489 45.682C287.061 45.707 287.601 45.5913 288.112 45.3348C288.623 45.0636 289.037 44.6707 289.353 44.156C289.67 43.6267 289.844 42.9884 289.877 42.2412Z" fill="#1F262E"/>
</svg>
