<svg width="351" height="111" viewBox="0 0 351 111" fill="none" xmlns="http://www.w3.org/2000/svg">
<rect x="58" y="4.35181" width="171" height="57" fill="#40FF62"/>
<path d="M108.055 24.652L108.044 27.364L103.58 27.3461L103.524 41.386L100.164 41.3726L100.22 27.3327L95.7562 27.3149L95.767 24.6029L108.055 24.652ZM112.203 26.5406C111.611 26.5383 111.116 26.3523 110.717 25.9827C110.335 25.5971 110.145 25.1244 110.147 24.5644C110.149 24.0044 110.343 23.5412 110.728 23.1747C111.13 22.7923 111.627 22.6023 112.219 22.6047C112.811 22.607 113.298 22.801 113.68 23.1865C114.079 23.5561 114.277 24.0209 114.275 24.5809C114.273 25.1409 114.071 25.6121 113.669 25.9945C113.284 26.3609 112.795 26.543 112.203 26.5406ZM113.853 28.1312L113.799 41.4271L110.439 41.4137L110.493 28.1178L113.853 28.1312ZM133.685 28.0185C135.317 28.0251 136.627 28.5343 137.615 29.5463C138.619 30.5423 139.117 31.9363 139.11 33.7283L139.079 41.5282L135.719 41.5148L135.748 34.1708C135.752 33.1308 135.492 32.3378 134.966 31.7917C134.44 31.2296 133.721 30.9467 132.809 30.9431C131.897 30.9394 131.168 31.2165 130.622 31.7743C130.092 32.3162 129.825 33.1071 129.82 34.1471L129.791 41.4911L126.431 41.4776L126.46 34.1337C126.465 33.0937 126.204 32.3007 125.678 31.7545C125.152 31.1924 124.433 30.9096 123.521 30.9059C122.593 30.9022 121.856 31.1793 121.31 31.7371C120.78 32.279 120.513 33.0699 120.508 34.1099L120.479 41.4538L117.119 41.4404L117.172 28.1445L120.532 28.1579L120.526 29.7659C120.96 29.2077 121.514 28.7699 122.187 28.4526C122.876 28.1353 123.629 27.9783 124.445 27.9816C125.485 27.9857 126.412 28.2135 127.226 28.6647C128.041 29.1 128.67 29.7265 129.115 30.5443C129.55 29.778 130.176 29.1645 130.994 28.7038C131.828 28.2431 132.725 28.0147 133.685 28.0185ZM154.655 34.6545C154.653 35.1345 154.619 35.5663 154.554 35.9501L144.834 35.9112C144.91 36.8715 145.243 37.6248 145.833 38.1712C146.423 38.7176 147.15 38.9925 148.014 38.9959C149.262 39.0009 150.152 38.4685 150.684 37.3986L154.308 37.4131C153.919 38.6915 153.179 39.7446 152.087 40.5722C150.996 41.3839 149.658 41.7865 148.074 41.7802C146.794 41.7751 145.644 41.4905 144.622 40.9264C143.616 40.3464 142.827 39.5352 142.256 38.4929C141.7 37.4507 141.424 36.2496 141.43 34.8896C141.435 33.5136 141.72 32.3067 142.284 31.269C142.849 30.2312 143.636 29.4343 144.646 28.8784C145.656 28.3224 146.817 28.0471 148.129 28.0523C149.393 28.0574 150.52 28.3339 151.51 28.8818C152.516 29.4299 153.289 30.209 153.829 31.2191C154.385 32.2134 154.66 33.3585 154.655 34.6545ZM151.179 33.6805C151.166 32.8165 150.857 32.1272 150.251 31.6128C149.645 31.0824 148.902 30.8154 148.022 30.8119C147.19 30.8086 146.485 31.0618 145.907 31.5714C145.345 32.0652 144.998 32.7598 144.867 33.6553L151.179 33.6805ZM174.265 24.9168L174.254 27.6288L169.791 27.6109L169.734 41.6508L166.374 41.6374L166.431 27.5975L161.967 27.5796L161.977 24.8677L174.265 24.9168ZM182.553 41.9181C181.273 41.913 180.122 41.6284 179.1 41.0643C178.079 40.4842 177.274 39.6729 176.686 38.6306C176.114 37.5883 175.831 36.3872 175.836 35.0272C175.842 33.6672 176.143 32.4684 176.739 31.4307C177.351 30.3932 178.178 29.5965 179.22 29.0406C180.263 28.4688 181.424 28.1855 182.704 28.1906C183.984 28.1957 185.143 28.4883 186.18 29.0685C187.218 29.6326 188.031 30.4359 188.619 31.4783C189.223 32.5207 189.522 33.7219 189.516 35.0819C189.511 36.4419 189.194 37.6406 188.566 38.6781C187.954 39.7157 187.119 40.5203 186.06 41.0921C185.018 41.6479 183.849 41.9233 182.553 41.9181ZM182.565 38.9901C183.173 38.9925 183.741 38.8508 184.27 38.5649C184.816 38.2631 185.249 37.8168 185.572 37.2261C185.894 36.6354 186.057 35.916 186.06 35.0681C186.065 33.8041 185.733 32.8347 185.064 32.16C184.411 31.4694 183.604 31.1222 182.644 31.1184C181.684 31.1145 180.875 31.4553 180.216 32.1407C179.573 32.8101 179.249 33.7768 179.244 35.0408C179.239 36.3048 179.547 37.282 180.169 37.9725C180.806 38.6471 181.605 38.9863 182.565 38.9901Z" fill="#1F262E"/>
<rect x="134" y="50.0671" width="123.825" height="57.711" transform="rotate(-4.5 134 50.0671)" fill="#1E93FF"/>
<path d="M181.969 65.8689L183.283 82.5693L179.934 82.8329L179.079 71.9705L175.459 83.185L172.923 83.3846L167.57 72.8762L168.425 83.7386L165.076 84.0022L163.761 67.3019L167.565 67.0025L173.854 79.0021L178.189 66.1664L181.969 65.8689ZM198.373 74.4243C198.41 74.9028 198.412 75.336 198.379 75.7238L188.689 76.4864C188.844 77.4372 189.238 78.1605 189.87 78.6564C190.503 79.1522 191.25 79.3663 192.112 79.2985C193.356 79.2006 194.199 78.5966 194.641 77.4864L198.254 77.2021C197.972 78.5083 197.321 79.6188 196.302 80.5336C195.281 81.4324 193.981 81.944 192.402 82.0683C191.126 82.1687 189.955 81.9799 188.891 81.502C187.841 81.0069 186.988 80.2635 186.332 79.2719C185.692 78.279 185.319 77.1047 185.212 75.7489C185.104 74.3771 185.288 73.1509 185.765 72.0702C186.242 70.9894 186.961 70.1304 187.922 69.493C188.882 68.8557 190.017 68.4855 191.325 68.3826C192.585 68.2834 193.731 68.4661 194.762 68.9306C195.81 69.3938 196.645 70.1065 197.266 71.0687C197.902 72.0137 198.271 73.1322 198.373 74.4243ZM194.828 73.7402C194.744 72.8802 194.379 72.2188 193.733 71.756C193.085 71.2774 192.323 71.0726 191.446 71.1416C190.616 71.2069 189.935 71.5173 189.4 72.0729C188.881 72.6114 188.593 73.3322 188.535 74.2355L194.828 73.7402ZM213.139 73.2621C213.177 73.7406 213.179 74.1738 213.145 74.5616L203.455 75.3242C203.61 76.275 204.004 76.9983 204.637 77.4942C205.27 77.9901 206.017 78.2041 206.879 78.1363C208.123 78.0384 208.966 77.4344 209.408 76.3243L213.021 76.0399C212.739 77.3461 212.088 78.4566 211.068 79.3714C210.048 80.2702 208.748 80.7818 207.169 80.9061C205.893 81.0065 204.722 80.8178 203.658 80.3398C202.607 79.8447 201.755 79.1013 201.099 78.1097C200.459 77.1169 200.086 75.9425 199.979 74.5867C199.871 73.215 200.055 71.9887 200.532 70.908C201.009 69.8273 201.727 68.9682 202.688 68.3309C203.649 67.6935 204.784 67.3233 206.092 67.2204C207.352 67.1212 208.498 67.3039 209.529 67.7684C210.577 68.2316 211.411 68.9443 212.033 69.9066C212.669 70.8516 213.038 71.9701 213.139 73.2621ZM209.595 72.5781C209.511 71.718 209.146 71.0566 208.5 70.5939C207.852 70.1152 207.09 69.9104 206.213 69.9794C205.383 70.0447 204.701 70.3552 204.167 70.9108C203.648 71.4492 203.36 72.17 203.302 73.0733L209.595 72.5781ZM219.202 69.1738L219.707 75.586C219.742 76.0326 219.871 76.3514 220.095 76.5425C220.333 76.7163 220.708 76.7831 221.218 76.743L222.773 76.6206L222.995 79.4438L220.89 79.6096C218.067 79.8317 216.547 78.5711 216.331 75.8276L215.828 69.4393L214.249 69.5636L214.033 66.8121L215.612 66.6878L215.354 63.41L218.727 63.1445L218.985 66.4223L221.952 66.1888L222.169 68.9403L219.202 69.1738ZM226.901 79.305C226.295 79.3527 225.778 79.2088 225.351 78.8733C224.938 78.5206 224.709 78.0651 224.665 77.5069C224.621 76.9486 224.776 76.471 225.13 76.074C225.499 75.6598 225.986 75.4288 226.592 75.3811C227.183 75.3347 227.684 75.4878 228.097 75.8405C228.509 76.1772 228.737 76.6247 228.78 77.183C228.824 77.7413 228.67 78.2269 228.317 78.6398C227.963 79.0368 227.491 79.2585 226.901 79.305ZM226.122 69.3996C225.515 69.4473 224.999 69.3034 224.571 68.9679C224.158 68.6152 223.93 68.1598 223.886 67.6015C223.842 67.0432 223.997 66.5656 224.351 66.1686C224.719 65.7544 225.207 65.5234 225.813 65.4757C226.403 65.4293 226.905 65.5824 227.317 65.9351C227.729 66.2718 227.957 66.7193 228.001 67.2776C228.045 67.8359 227.89 68.3215 227.538 68.7344C227.184 69.1314 226.712 69.3532 226.122 69.3996Z" fill="white"/>
</svg>
