<svg width="351" height="134" viewBox="0 0 351 134" fill="none" xmlns="http://www.w3.org/2000/svg">
<rect x="32" y="70.8967" width="303" height="58" fill="#1E93FF"/>
<path d="M70.608 92.2387V106.897H67.668V100.66H61.389V106.897H58.449V92.2387H61.389V98.2657H67.668V92.2387H70.608ZM78.6677 107.086C77.5477 107.086 76.5397 106.841 75.6437 106.351C74.7477 105.847 74.0407 105.14 73.5227 104.23C73.0187 103.32 72.7667 102.27 72.7667 101.08C72.7667 99.8897 73.0257 98.8397 73.5437 97.9297C74.0757 97.0197 74.7967 96.3197 75.7067 95.8297C76.6167 95.3257 77.6317 95.0737 78.7517 95.0737C79.8717 95.0737 80.8867 95.3257 81.7967 95.8297C82.7067 96.3197 83.4207 97.0197 83.9387 97.9297C84.4707 98.8397 84.7367 99.8897 84.7367 101.08C84.7367 102.27 84.4637 103.32 83.9177 104.23C83.3857 105.14 82.6577 105.847 81.7337 106.351C80.8237 106.841 79.8017 107.086 78.6677 107.086ZM78.6677 104.524C79.1997 104.524 79.6967 104.398 80.1587 104.146C80.6347 103.88 81.0127 103.488 81.2927 102.97C81.5727 102.452 81.7127 101.822 81.7127 101.08C81.7127 99.9737 81.4187 99.1267 80.8307 98.5387C80.2567 97.9367 79.5497 97.6357 78.7097 97.6357C77.8697 97.6357 77.1627 97.9367 76.5887 98.5387C76.0287 99.1267 75.7487 99.9737 75.7487 101.08C75.7487 102.186 76.0217 103.04 76.5677 103.642C77.1277 104.23 77.8277 104.524 78.6677 104.524ZM101.341 95.0947C102.769 95.0947 103.917 95.5357 104.785 96.4177C105.667 97.2857 106.108 98.5037 106.108 100.072V106.897H103.168V100.471C103.168 99.5607 102.937 98.8677 102.475 98.3917C102.013 97.9017 101.383 97.6567 100.585 97.6567C99.7873 97.6567 99.1503 97.9017 98.6743 98.3917C98.2123 98.8677 97.9813 99.5607 97.9813 100.471V106.897H95.0413V100.471C95.0413 99.5607 94.8103 98.8677 94.3483 98.3917C93.8863 97.9017 93.2563 97.6567 92.4583 97.6567C91.6463 97.6567 91.0023 97.9017 90.5263 98.3917C90.0643 98.8677 89.8333 99.5607 89.8333 100.471V106.897H86.8933V95.2627H89.8333V96.6697C90.2113 96.1797 90.6943 95.7947 91.2823 95.5147C91.8843 95.2347 92.5423 95.0947 93.2563 95.0947C94.1663 95.0947 94.9783 95.2907 95.6923 95.6827C96.4063 96.0607 96.9593 96.6067 97.3513 97.3207C97.7293 96.6487 98.2753 96.1097 98.9893 95.7037C99.7173 95.2977 100.501 95.0947 101.341 95.0947ZM119.713 100.828C119.713 101.248 119.685 101.626 119.629 101.962H111.124C111.194 102.802 111.488 103.46 112.006 103.936C112.524 104.412 113.161 104.65 113.917 104.65C115.009 104.65 115.786 104.181 116.248 103.243H119.419C119.083 104.363 118.439 105.287 117.487 106.015C116.535 106.729 115.366 107.086 113.98 107.086C112.86 107.086 111.852 106.841 110.956 106.351C110.074 105.847 109.381 105.14 108.877 104.23C108.387 103.32 108.142 102.27 108.142 101.08C108.142 99.8757 108.387 98.8187 108.877 97.9087C109.367 96.9987 110.053 96.2987 110.935 95.8087C111.817 95.3187 112.832 95.0737 113.98 95.0737C115.086 95.0737 116.073 95.3117 116.941 95.7877C117.823 96.2637 118.502 96.9427 118.978 97.8247C119.468 98.6927 119.713 99.6937 119.713 100.828ZM116.668 99.9877C116.654 99.2317 116.381 98.6297 115.849 98.1817C115.317 97.7197 114.666 97.4887 113.896 97.4887C113.168 97.4887 112.552 97.7127 112.048 98.1607C111.558 98.5947 111.257 99.2037 111.145 99.9877H116.668ZM130.805 98.1607V100.639H121.901V98.1607H130.805ZM142.418 99.3787C143.244 99.5327 143.923 99.9457 144.455 100.618C144.987 101.29 145.253 102.06 145.253 102.928C145.253 103.712 145.057 104.405 144.665 105.007C144.287 105.595 143.734 106.057 143.006 106.393C142.278 106.729 141.417 106.897 140.423 106.897H134.102V92.2387H140.15C141.144 92.2387 141.998 92.3997 142.712 92.7217C143.44 93.0437 143.986 93.4917 144.35 94.0657C144.728 94.6397 144.917 95.2907 144.917 96.0187C144.917 96.8727 144.686 97.5867 144.224 98.1607C143.776 98.7347 143.174 99.1407 142.418 99.3787ZM137.042 98.2867H139.73C140.43 98.2867 140.969 98.1327 141.347 97.8247C141.725 97.5027 141.914 97.0477 141.914 96.4597C141.914 95.8717 141.725 95.4167 141.347 95.0947C140.969 94.7727 140.43 94.6117 139.73 94.6117H137.042V98.2867ZM140.003 104.503C140.717 104.503 141.27 104.335 141.662 103.999C142.068 103.663 142.271 103.187 142.271 102.571C142.271 101.941 142.061 101.451 141.641 101.101C141.221 100.737 140.654 100.555 139.94 100.555H137.042V104.503H140.003ZM158.579 95.2627V106.897H155.618V105.427C155.24 105.931 154.743 106.33 154.127 106.624C153.525 106.904 152.867 107.044 152.153 107.044C151.243 107.044 150.438 106.855 149.738 106.477C149.038 106.085 148.485 105.518 148.079 104.776C147.687 104.02 147.491 103.124 147.491 102.088V95.2627H150.431V101.668C150.431 102.592 150.662 103.306 151.124 103.81C151.586 104.3 152.216 104.545 153.014 104.545C153.826 104.545 154.463 104.3 154.925 103.81C155.387 103.306 155.618 102.592 155.618 101.668V95.2627H158.579ZM172.61 95.2627L165.407 112.399H162.278L164.798 106.603L160.136 95.2627H163.433L166.436 103.39L169.481 95.2627H172.61ZM175.686 93.8767C175.168 93.8767 174.734 93.7157 174.384 93.3937C174.048 93.0577 173.88 92.6447 173.88 92.1547C173.88 91.6647 174.048 91.2587 174.384 90.9367C174.734 90.6007 175.168 90.4327 175.686 90.4327C176.204 90.4327 176.631 90.6007 176.967 90.9367C177.317 91.2587 177.492 91.6647 177.492 92.1547C177.492 92.6447 177.317 93.0577 176.967 93.3937C176.631 93.7157 176.204 93.8767 175.686 93.8767ZM177.135 95.2627V106.897H174.195V95.2627H177.135ZM186.487 95.0947C187.873 95.0947 188.993 95.5357 189.847 96.4177C190.701 97.2857 191.128 98.5037 191.128 100.072V106.897H188.188V100.471C188.188 99.5467 187.957 98.8397 187.495 98.3497C187.033 97.8457 186.403 97.5937 185.605 97.5937C184.793 97.5937 184.149 97.8457 183.673 98.3497C183.211 98.8397 182.98 99.5467 182.98 100.471V106.897H180.04V95.2627H182.98V96.7117C183.372 96.2077 183.869 95.8157 184.471 95.5357C185.087 95.2417 185.759 95.0947 186.487 95.0947ZM198.481 95.0737C199.349 95.0737 200.112 95.2487 200.77 95.5987C201.428 95.9347 201.946 96.3757 202.324 96.9217V95.2627H205.285V106.981C205.285 108.059 205.068 109.018 204.634 109.858C204.2 110.712 203.549 111.384 202.681 111.874C201.813 112.378 200.763 112.63 199.531 112.63C197.879 112.63 196.521 112.245 195.457 111.475C194.407 110.705 193.812 109.655 193.672 108.325H196.591C196.745 108.857 197.074 109.277 197.578 109.585C198.096 109.907 198.719 110.068 199.447 110.068C200.301 110.068 200.994 109.809 201.526 109.291C202.058 108.787 202.324 108.017 202.324 106.981V105.175C201.946 105.721 201.421 106.176 200.749 106.54C200.091 106.904 199.335 107.086 198.481 107.086C197.501 107.086 196.605 106.834 195.793 106.33C194.981 105.826 194.337 105.119 193.861 104.209C193.399 103.285 193.168 102.228 193.168 101.038C193.168 99.8617 193.399 98.8187 193.861 97.9087C194.337 96.9987 194.974 96.2987 195.772 95.8087C196.584 95.3187 197.487 95.0737 198.481 95.0737ZM202.324 101.08C202.324 100.366 202.184 99.7567 201.904 99.2527C201.624 98.7347 201.246 98.3427 200.77 98.0767C200.294 97.7967 199.783 97.6567 199.237 97.6567C198.691 97.6567 198.187 97.7897 197.725 98.0557C197.263 98.3217 196.885 98.7137 196.591 99.2317C196.311 99.7357 196.171 100.338 196.171 101.038C196.171 101.738 196.311 102.354 196.591 102.886C196.885 103.404 197.263 103.803 197.725 104.083C198.201 104.363 198.705 104.503 199.237 104.503C199.783 104.503 200.294 104.37 200.77 104.104C201.246 103.824 201.624 103.432 201.904 102.928C202.184 102.41 202.324 101.794 202.324 101.08ZM214.651 93.8767C214.133 93.8767 213.699 93.7157 213.349 93.3937C213.013 93.0577 212.845 92.6447 212.845 92.1547C212.845 91.6647 213.013 91.2587 213.349 90.9367C213.699 90.6007 214.133 90.4327 214.651 90.4327C215.169 90.4327 215.596 90.6007 215.932 90.9367C216.282 91.2587 216.457 91.6647 216.457 92.1547C216.457 92.6447 216.282 93.0577 215.932 93.3937C215.596 93.7157 215.169 93.8767 214.651 93.8767ZM216.1 95.2627V106.897H213.16V95.2627H216.1ZM225.452 95.0947C226.838 95.0947 227.958 95.5357 228.812 96.4177C229.666 97.2857 230.093 98.5037 230.093 100.072V106.897H227.153V100.471C227.153 99.5467 226.922 98.8397 226.46 98.3497C225.998 97.8457 225.368 97.5937 224.57 97.5937C223.758 97.5937 223.114 97.8457 222.638 98.3497C222.176 98.8397 221.945 99.5467 221.945 100.471V106.897H219.005V95.2627H221.945V96.7117C222.337 96.2077 222.834 95.8157 223.436 95.5357C224.052 95.2417 224.724 95.0947 225.452 95.0947ZM237.739 104.188L240.679 95.2627H243.808L239.503 106.897H235.933L231.649 95.2627H234.799L237.739 104.188ZM256.275 100.828C256.275 101.248 256.247 101.626 256.191 101.962H247.686C247.756 102.802 248.05 103.46 248.568 103.936C249.086 104.412 249.723 104.65 250.479 104.65C251.571 104.65 252.348 104.181 252.81 103.243H255.981C255.645 104.363 255.001 105.287 254.049 106.015C253.097 106.729 251.928 107.086 250.542 107.086C249.422 107.086 248.414 106.841 247.518 106.351C246.636 105.847 245.943 105.14 245.439 104.23C244.949 103.32 244.704 102.27 244.704 101.08C244.704 99.8757 244.949 98.8187 245.439 97.9087C245.929 96.9987 246.615 96.2987 247.497 95.8087C248.379 95.3187 249.394 95.0737 250.542 95.0737C251.648 95.0737 252.635 95.3117 253.503 95.7877C254.385 96.2637 255.064 96.9427 255.54 97.8247C256.03 98.6927 256.275 99.6937 256.275 100.828ZM253.23 99.9877C253.216 99.2317 252.943 98.6297 252.411 98.1817C251.879 97.7197 251.228 97.4887 250.458 97.4887C249.73 97.4887 249.114 97.7127 248.61 98.1607C248.12 98.5947 247.819 99.2037 247.707 99.9877H253.23ZM262.873 107.086C261.921 107.086 261.067 106.918 260.311 106.582C259.555 106.232 258.953 105.763 258.505 105.175C258.071 104.587 257.833 103.936 257.791 103.222H260.752C260.808 103.67 261.025 104.041 261.403 104.335C261.795 104.629 262.278 104.776 262.852 104.776C263.412 104.776 263.846 104.664 264.154 104.44C264.476 104.216 264.637 103.929 264.637 103.579C264.637 103.201 264.441 102.921 264.049 102.739C263.671 102.543 263.062 102.333 262.222 102.109C261.354 101.899 260.64 101.682 260.08 101.458C259.534 101.234 259.058 100.891 258.652 100.429C258.26 99.9667 258.064 99.3437 258.064 98.5597C258.064 97.9157 258.246 97.3277 258.61 96.7957C258.988 96.2637 259.52 95.8437 260.206 95.5357C260.906 95.2277 261.725 95.0737 262.663 95.0737C264.049 95.0737 265.155 95.4237 265.981 96.1237C266.807 96.8097 267.262 97.7407 267.346 98.9167H264.532C264.49 98.4547 264.294 98.0907 263.944 97.8247C263.608 97.5447 263.153 97.4047 262.579 97.4047C262.047 97.4047 261.634 97.5027 261.34 97.6987C261.06 97.8947 260.92 98.1677 260.92 98.5177C260.92 98.9097 261.116 99.2107 261.508 99.4207C261.9 99.6167 262.509 99.8197 263.335 100.03C264.175 100.24 264.868 100.457 265.414 100.681C265.96 100.905 266.429 101.255 266.821 101.731C267.227 102.193 267.437 102.809 267.451 103.579C267.451 104.251 267.262 104.853 266.884 105.385C266.52 105.917 265.988 106.337 265.288 106.645C264.602 106.939 263.797 107.086 262.873 107.086ZM273.287 97.6777V103.306C273.287 103.698 273.378 103.985 273.56 104.167C273.756 104.335 274.078 104.419 274.526 104.419H275.891V106.897H274.043C271.565 106.897 270.326 105.693 270.326 103.285V97.6777H268.94V95.2627H270.326V92.3857H273.287V95.2627H275.891V97.6777H273.287ZM283.172 107.086C282.052 107.086 281.044 106.841 280.148 106.351C279.252 105.847 278.545 105.14 278.027 104.23C277.523 103.32 277.271 102.27 277.271 101.08C277.271 99.8897 277.53 98.8397 278.048 97.9297C278.58 97.0197 279.301 96.3197 280.211 95.8297C281.121 95.3257 282.136 95.0737 283.256 95.0737C284.376 95.0737 285.391 95.3257 286.301 95.8297C287.211 96.3197 287.925 97.0197 288.443 97.9297C288.975 98.8397 289.241 99.8897 289.241 101.08C289.241 102.27 288.968 103.32 288.422 104.23C287.89 105.14 287.162 105.847 286.238 106.351C285.328 106.841 284.306 107.086 283.172 107.086ZM283.172 104.524C283.704 104.524 284.201 104.398 284.663 104.146C285.139 103.88 285.517 103.488 285.797 102.97C286.077 102.452 286.217 101.822 286.217 101.08C286.217 99.9737 285.923 99.1267 285.335 98.5387C284.761 97.9367 284.054 97.6357 283.214 97.6357C282.374 97.6357 281.667 97.9367 281.093 98.5387C280.533 99.1267 280.253 99.9737 280.253 101.08C280.253 102.186 280.526 103.04 281.072 103.642C281.632 104.23 282.332 104.524 283.172 104.524ZM294.337 97.0687C294.715 96.4527 295.205 95.9697 295.807 95.6197C296.423 95.2697 297.123 95.0947 297.907 95.0947V98.1817H297.13C296.206 98.1817 295.506 98.3987 295.03 98.8327C294.568 99.2667 294.337 100.023 294.337 101.101V106.897H291.397V95.2627H294.337V97.0687ZM304.339 107.086C303.387 107.086 302.533 106.918 301.777 106.582C301.021 106.232 300.419 105.763 299.971 105.175C299.537 104.587 299.299 103.936 299.257 103.222H302.218C302.274 103.67 302.491 104.041 302.869 104.335C303.261 104.629 303.744 104.776 304.318 104.776C304.878 104.776 305.312 104.664 305.62 104.44C305.942 104.216 306.103 103.929 306.103 103.579C306.103 103.201 305.907 102.921 305.515 102.739C305.137 102.543 304.528 102.333 303.688 102.109C302.82 101.899 302.106 101.682 301.546 101.458C301 101.234 300.524 100.891 300.118 100.429C299.726 99.9667 299.53 99.3437 299.53 98.5597C299.53 97.9157 299.712 97.3277 300.076 96.7957C300.454 96.2637 300.986 95.8437 301.672 95.5357C302.372 95.2277 303.191 95.0737 304.129 95.0737C305.515 95.0737 306.621 95.4237 307.447 96.1237C308.273 96.8097 308.728 97.7407 308.812 98.9167H305.998C305.956 98.4547 305.76 98.0907 305.41 97.8247C305.074 97.5447 304.619 97.4047 304.045 97.4047C303.513 97.4047 303.1 97.5027 302.806 97.6987C302.526 97.8947 302.386 98.1677 302.386 98.5177C302.386 98.9097 302.582 99.2107 302.974 99.4207C303.366 99.6167 303.975 99.8197 304.801 100.03C305.641 100.24 306.334 100.457 306.88 100.681C307.426 100.905 307.895 101.255 308.287 101.731C308.693 102.193 308.903 102.809 308.917 103.579C308.917 104.251 308.728 104.853 308.35 105.385C307.986 105.917 307.454 106.337 306.754 106.645C306.068 106.939 305.263 107.086 304.339 107.086ZM312.633 107.044C312.101 107.044 311.66 106.883 311.31 106.561C310.974 106.225 310.806 105.812 310.806 105.322C310.806 104.832 310.974 104.426 311.31 104.104C311.66 103.768 312.101 103.6 312.633 103.6C313.151 103.6 313.578 103.768 313.914 104.104C314.25 104.426 314.418 104.832 314.418 105.322C314.418 105.812 314.25 106.225 313.914 106.561C313.578 106.883 313.151 107.044 312.633 107.044ZM312.633 98.3497C312.101 98.3497 311.66 98.1887 311.31 97.8667C310.974 97.5307 310.806 97.1177 310.806 96.6277C310.806 96.1377 310.974 95.7317 311.31 95.4097C311.66 95.0737 312.101 94.9057 312.633 94.9057C313.151 94.9057 313.578 95.0737 313.914 95.4097C314.25 95.7317 314.418 96.1377 314.418 96.6277C314.418 97.1177 314.25 97.5307 313.914 97.8667C313.578 98.1887 313.151 98.3497 312.633 98.3497Z" fill="white"/>
<rect x="45.8018" y="13.8965" width="279.744" height="57.711" transform="rotate(2.78277 45.8018 13.8965)" fill="#40FF62"/>
<path d="M95.9486 41.234C95.631 40.5711 95.1735 40.055 94.576 39.6858C93.9786 39.3165 93.2698 39.1103 92.4496 39.0672C91.5415 39.0194 90.7252 39.1821 90.0006 39.5552C89.276 39.9283 88.6959 40.4852 88.2604 41.226C87.8249 41.9668 87.5809 42.8352 87.5285 43.8312C87.4745 44.8564 87.6253 45.7603 87.9806 46.5427C88.3507 47.3259 88.8837 47.9414 89.5798 48.3893C90.2759 48.8371 91.1 49.0861 92.052 49.1362C93.2237 49.1978 94.1992 48.9407 94.9786 48.3649C95.7587 47.7744 96.2952 46.9288 96.5881 45.828L91.3154 45.5505L91.4391 43.1998L99.7436 43.6367L99.6026 46.317C99.3412 47.3754 98.8498 48.3409 98.1283 49.2136C97.4068 50.0862 96.4968 50.7727 95.3983 51.273C94.3153 51.7594 93.1147 51.9679 91.7965 51.8986C90.3172 51.8207 88.9944 51.4207 87.8281 50.6984C86.6772 49.9623 85.7887 48.9829 85.1628 47.7603C84.5515 46.5385 84.2855 45.1733 84.3649 43.6647C84.4442 42.1561 84.852 40.8264 85.5882 39.6755C86.3397 38.5107 87.326 37.63 88.5471 37.0333C89.7835 36.4228 91.1341 36.156 92.5987 36.2331C94.327 36.324 95.8059 36.8278 97.0354 37.7443C98.2658 38.6462 99.0825 39.8715 99.4857 41.4201L95.9486 41.234ZM113.219 46.5268C113.196 46.9662 113.146 47.3601 113.069 47.7085L104.171 47.2403C104.198 48.123 104.469 48.8276 104.985 49.354C105.501 49.8805 106.154 50.1646 106.945 50.2062C108.087 50.2663 108.926 49.8184 109.461 48.8625L112.779 49.0371C112.365 50.1903 111.641 51.1215 110.605 51.8307C109.57 52.5253 108.327 52.8344 106.877 52.7581C105.705 52.6965 104.664 52.3847 103.754 51.8228C102.859 51.2469 102.173 50.4691 101.695 49.4894C101.233 48.5104 101.034 47.3984 101.1 46.1535C101.166 44.8939 101.481 43.8016 102.043 42.8765C102.606 41.9515 103.362 41.2569 104.312 40.7928C105.262 40.3288 106.337 40.1283 107.538 40.1915C108.695 40.2524 109.715 40.5557 110.596 41.1015C111.493 41.648 112.166 42.3957 112.615 43.3447C113.08 44.2797 113.281 45.3404 113.219 46.5268ZM110.08 45.4804C110.107 44.6887 109.854 44.0439 109.322 43.5459C108.791 43.0333 108.123 42.7558 107.317 42.7134C106.556 42.6733 105.899 42.8738 105.347 43.3147C104.81 43.7418 104.462 44.3623 104.302 45.1764L110.08 45.4804ZM119.219 43.5379L118.909 49.4257C118.887 49.8358 118.967 50.1411 119.147 50.3415C119.343 50.5281 119.675 50.6337 120.144 50.6583L121.572 50.7335L121.435 53.3259L119.502 53.2242C116.91 53.0877 115.68 51.76 115.812 49.2408L116.121 43.3749L114.671 43.2986L114.804 40.7721L116.254 40.8484L116.412 37.8385L119.51 38.0015L119.351 41.0114L122.076 41.1547L121.943 43.6812L119.219 43.5379ZM144.647 42.1661C146.141 42.2447 147.318 42.7693 148.177 43.7398C149.052 44.6964 149.447 45.9949 149.36 47.6353L148.985 54.7754L145.909 54.6136L146.263 47.8909C146.313 46.9389 146.109 46.2012 145.652 45.6777C145.196 45.1397 144.55 44.8487 143.715 44.8048C142.88 44.7608 142.201 44.9821 141.676 45.4685C141.166 45.9411 140.886 46.6533 140.836 47.6054L140.482 54.3281L137.407 54.1662L137.76 47.4435C137.81 46.4915 137.607 45.7538 137.15 45.2304C136.693 44.6923 136.048 44.4013 135.213 44.3574C134.364 44.3127 133.676 44.5336 133.151 45.02C132.642 45.4926 132.362 46.2048 132.312 47.1568L131.958 53.8796L128.882 53.7177L129.523 41.5466L132.599 41.7084L132.521 43.1804C132.944 42.6885 133.47 42.3123 134.101 42.0518C134.746 41.792 135.442 41.6817 136.189 41.721C137.141 41.7711 137.98 42.0209 138.705 42.4703C139.431 42.905 139.98 43.5067 140.35 44.2752C140.783 43.593 141.384 43.0592 142.153 42.6737C142.937 42.2891 143.768 42.1199 144.647 42.1661ZM151.435 48.7579C151.5 47.5276 151.799 46.4491 152.332 45.5225C152.88 44.5967 153.585 43.8995 154.447 43.4308C155.323 42.9628 156.282 42.7562 157.322 42.8109C158.23 42.8587 159.011 43.0834 159.665 43.485C160.335 43.8874 160.859 44.3777 161.24 44.9558L161.332 43.2202L164.429 43.3832L163.789 55.5544L160.691 55.3914L160.785 53.6118C160.359 54.1622 159.785 54.6093 159.062 54.9532C158.354 55.2831 157.546 55.4242 156.638 55.3764C155.613 55.3225 154.69 55.0095 153.868 54.4375C153.061 53.8663 152.433 53.0916 151.985 52.1134C151.553 51.1213 151.369 50.0028 151.435 48.7579ZM161.011 49.3058C161.051 48.5588 160.938 47.914 160.673 47.3713C160.408 46.814 160.034 46.3831 159.551 46.0786C159.068 45.7595 158.542 45.5849 157.97 45.5548C157.399 45.5248 156.864 45.6362 156.367 45.889C155.869 46.1419 155.452 46.5312 155.115 47.0569C154.795 47.5687 154.615 48.1908 154.577 48.9232C154.538 49.6555 154.651 50.3076 154.914 50.8796C155.193 51.4377 155.567 51.8759 156.035 52.1943C156.517 52.5134 157.037 52.6876 157.593 52.7169C158.165 52.747 158.707 52.6359 159.219 52.3839C159.733 52.1171 160.15 51.7279 160.47 51.216C160.792 50.6895 160.972 50.0528 161.011 49.3058ZM170.881 46.2562L170.572 52.144C170.55 52.5541 170.629 52.8594 170.81 53.0598C171.006 53.2464 171.338 53.352 171.807 53.3766L173.235 53.4518L173.098 56.0442L171.165 55.9425C168.572 55.806 167.343 54.4783 167.475 51.9591L167.784 46.0932L166.334 46.0169L166.467 43.4904L167.917 43.5667L168.075 40.5568L171.173 40.7198L171.014 43.7297L173.739 43.873L173.606 46.3995L170.881 46.2562ZM174.84 50.0334C174.906 48.7738 175.22 47.6888 175.782 46.7784C176.345 45.8534 177.094 45.1584 178.029 44.6936C178.965 44.2141 180.018 44.0051 181.19 44.0668C182.699 44.1462 183.923 44.5925 184.865 45.4057C185.821 46.2051 186.432 47.2947 186.698 48.6745L183.38 48.5C183.232 47.9635 182.953 47.5376 182.544 47.2223C182.15 46.8932 181.646 46.7124 181.03 46.68C180.152 46.6338 179.439 46.9194 178.893 47.5369C178.347 48.1397 178.043 49.027 177.981 50.1987C177.921 51.3557 178.129 52.27 178.608 52.9414C179.088 53.5982 179.767 53.9497 180.646 53.9959C181.89 54.0614 182.733 53.5476 183.172 52.4545L186.489 52.6291C186.083 53.9295 185.362 54.9417 184.325 55.6655C183.288 56.3894 182.023 56.712 180.529 56.6334C179.357 56.5718 178.331 56.2607 177.45 55.7003C176.569 55.1253 175.897 54.3556 175.434 53.3912C174.972 52.4123 174.773 51.293 174.84 50.0334ZM196.031 44.8697C196.953 44.9182 197.763 45.1664 198.459 45.6143C199.156 46.0475 199.681 46.67 200.035 47.4817C200.404 48.2795 200.56 49.2277 200.502 50.3262L200.126 57.4663L197.051 57.3045L197.404 50.5818C197.455 49.6151 197.253 48.8627 196.796 48.3247C196.341 47.772 195.695 47.4737 194.861 47.4297C194.011 47.385 193.323 47.6132 192.798 48.1143C192.287 48.6015 192.007 49.3284 191.956 50.2951L191.602 57.0178L188.527 56.856L189.382 40.5984L192.458 40.7603L192.163 46.3625C192.586 45.8561 193.135 45.4737 193.809 45.2155C194.485 44.9426 195.225 44.8273 196.031 44.8697ZM214.7 51.8663C214.677 52.3057 214.627 52.6996 214.549 53.048L205.652 52.5799C205.679 53.4625 205.95 54.1671 206.466 54.6936C206.982 55.2201 207.635 55.5041 208.426 55.5457C209.568 55.6058 210.407 55.1579 210.942 54.2021L214.259 54.3766C213.846 55.5298 213.122 56.461 212.085 57.1703C211.05 57.8648 209.808 58.174 208.358 58.0977C207.186 58.036 206.145 57.7242 205.234 57.1623C204.339 56.5864 203.653 55.8087 203.176 54.8289C202.714 53.8499 202.515 52.7379 202.581 51.493C202.647 50.2334 202.961 49.1411 203.524 48.216C204.087 47.291 204.843 46.5964 205.793 46.1324C206.742 45.6683 207.818 45.4679 209.019 45.531C210.176 45.5919 211.195 45.8952 212.077 46.441C212.974 46.9875 213.647 47.7353 214.096 48.6842C214.561 49.6192 214.762 50.6799 214.7 51.8663ZM211.56 50.8199C211.587 50.0282 211.335 49.3834 210.803 48.8854C210.272 48.3728 209.604 48.0953 208.798 48.0529C208.036 48.0129 207.38 48.2133 206.828 48.6542C206.291 49.0813 205.943 49.7018 205.782 50.5159L211.56 50.8199ZM216.142 52.1625C216.207 50.9322 216.506 49.8538 217.04 48.9272C217.588 48.0014 218.3 47.3045 219.176 46.8366C220.053 46.3686 221.011 46.162 222.051 46.2167C222.842 46.2584 223.587 46.4738 224.286 46.8631C224.986 47.2377 225.533 47.7218 225.928 48.3154L226.232 42.5373L229.352 42.7015L228.496 58.959L225.377 58.7949L225.471 56.9934C225.059 57.5738 224.499 58.029 223.791 58.359C223.084 58.6889 222.276 58.83 221.368 58.7822C220.342 58.7283 219.419 58.4153 218.597 57.8433C217.775 57.2714 217.141 56.4963 216.693 55.5181C216.26 54.526 216.077 53.4074 216.142 52.1625ZM225.719 52.7104C225.758 51.9635 225.645 51.3186 225.38 50.776C225.116 50.2186 224.742 49.7877 224.258 49.4832C223.776 49.1641 223.249 48.9895 222.678 48.9595C222.106 48.9294 221.572 49.0408 221.074 49.2937C220.576 49.5465 220.159 49.9358 219.823 50.4615C219.502 50.9734 219.323 51.5955 219.284 52.3278C219.245 53.0601 219.358 53.7123 219.622 54.2842C219.901 54.8423 220.274 55.2806 220.742 55.5989C221.225 55.9181 221.744 56.0923 222.301 56.1216C222.872 56.1516 223.414 56.0406 223.927 55.7885C224.44 55.5218 224.857 55.1325 225.178 54.6206C225.499 54.0941 225.679 53.4574 225.719 52.7104ZM254.248 48.1091L250.049 60.093L246.731 59.9185L244.96 51.2995L242.294 59.685L238.954 59.5093L236.014 47.1497L239.133 47.3138L240.798 56.6983L243.615 47.5496L246.867 47.7207L248.665 57.0901L251.304 47.9542L254.248 48.1091ZM257.549 46.8288C257.007 46.8002 256.562 46.6079 256.213 46.2518C255.88 45.8818 255.727 45.4405 255.754 44.9278C255.781 44.4152 255.979 43.9997 256.348 43.6813C256.733 43.3491 257.196 43.1972 257.738 43.2257C258.28 43.2543 258.718 43.4535 259.051 43.8235C259.399 44.1797 259.56 44.614 259.533 45.1267C259.506 45.6393 259.3 46.0617 258.915 46.394C258.546 46.7123 258.091 46.8573 257.549 46.8288ZM258.988 48.3585L258.348 60.5297L255.272 60.3678L255.912 48.1967L258.988 48.3585ZM265.475 51.2333L265.165 57.1212C265.144 57.5313 265.223 57.8365 265.404 58.037C265.599 58.2235 265.932 58.3291 266.4 58.3538L267.828 58.4289L267.692 61.0213L265.759 60.9196C263.166 60.7832 261.936 59.4554 262.069 56.9362L262.377 51.0703L260.927 50.994L261.06 48.4675L262.51 48.5438L262.669 45.534L265.766 45.697L265.608 48.7068L268.332 48.8502L268.199 51.3767L265.475 51.2333ZM277.408 49.1515C278.331 49.2 279.14 49.4482 279.837 49.8961C280.533 50.3293 281.059 50.9518 281.413 51.7635C281.782 52.5613 281.938 53.5095 281.88 54.6079L281.504 61.7481L278.428 61.5862L278.782 54.8635C278.833 53.8969 278.63 53.1445 278.174 52.6065C277.718 52.0538 277.073 51.7554 276.238 51.7115C275.389 51.6668 274.701 51.895 274.175 52.3961C273.665 52.8833 273.385 53.6102 273.334 54.5769L272.98 61.2996L269.904 61.1377L270.76 44.8802L273.835 45.042L273.541 50.6443C273.964 50.1378 274.513 49.7555 275.187 49.4972C275.862 49.2243 276.603 49.1091 277.408 49.1515Z" fill="#1F262E"/>
</svg>
