<svg width="222" height="95" viewBox="0 0 222 95" fill="none" xmlns="http://www.w3.org/2000/svg">
<rect x="23.5312" y="50.5759" width="195.938" height="44" transform="rotate(-2.20792 23.5312 50.5759)" fill="#40FF62"/>
<path d="M41.7199 69.953C41.6531 68.221 41.9684 66.666 42.6659 65.2881C43.3626 63.8936 44.3628 62.7959 45.6662 61.9951C46.9857 61.177 48.4948 60.7352 50.1935 60.6697C52.2753 60.5894 54.0785 61.0703 55.6031 62.1124C57.1277 63.1544 58.1764 64.6151 58.7493 66.4944L54.0528 66.6755C53.6748 65.9562 53.1536 65.4175 52.4893 65.0595C51.8417 64.7009 51.1099 64.5373 50.2938 64.5687C48.9781 64.6195 47.9299 65.1185 47.1492 66.066C46.3684 67.0134 46.0076 68.2533 46.0666 69.7855C46.1257 71.3177 46.5809 72.526 47.4323 73.4105C48.2837 74.2951 49.3672 74.712 50.6829 74.6612C51.499 74.6298 52.2161 74.4103 52.8342 74.0029C53.4689 73.5948 53.947 73.0176 54.2685 72.2713L58.965 72.0902C58.5386 74.0081 57.6054 75.5452 56.1656 76.7015C54.7251 77.8412 52.964 78.4512 50.8822 78.5314C49.1834 78.5969 47.6451 78.281 46.2672 77.5835C44.9053 76.8688 43.8237 75.8514 43.0222 74.5313C42.2208 73.2112 41.7867 71.6851 41.7199 69.953ZM68.1652 77.9401C66.7995 77.9928 65.5559 77.7489 64.4342 77.2083C63.3292 76.6672 62.4394 75.8675 61.7648 74.8094C61.1069 73.7506 60.75 72.4968 60.6941 71.0479C60.6389 69.6156 60.9068 68.346 61.498 67.2391C62.0885 66.1155 62.9221 65.241 63.9988 64.6158C65.0755 63.9905 66.2967 63.6515 67.6623 63.5989C69.028 63.5462 70.2716 63.7902 71.3933 64.3307C72.5149 64.8712 73.4134 65.6789 74.0886 66.7536C74.7632 67.8118 75.1281 69.057 75.1833 70.4892C75.2386 71.9215 74.9626 73.1997 74.3555 74.324C73.7643 75.4309 72.9221 76.2973 71.8287 76.9232C70.752 77.5485 69.5308 77.8875 68.1652 77.9401ZM68.0226 74.2429C68.8387 74.2114 69.5183 73.885 70.0614 73.2636C70.6212 72.6416 70.8796 71.7727 70.8366 70.6568C70.7936 69.541 70.4774 68.6942 69.888 68.1165C69.3153 67.5381 68.6209 67.2647 67.8049 67.2961C66.9721 67.3282 66.2925 67.6547 65.7661 68.2754C65.2389 68.8795 64.9972 69.7478 65.0409 70.8803C65.0839 71.9961 65.3834 72.8435 65.9395 73.4225C66.5122 74.0009 67.2066 74.2744 68.0226 74.2429ZM85.6688 62.9547C87.3009 62.8918 88.6205 63.3746 89.6276 64.4032C90.6506 65.4146 91.1978 66.8446 91.2691 68.6932L91.5831 76.8371L87.3362 77.0009L87.0444 69.4315C87.0084 68.4988 86.739 67.7837 86.2361 67.286C85.7332 66.7884 85.0738 66.5553 84.2577 66.5867C83.4416 66.6182 82.8021 66.9014 82.339 67.4363C81.8759 67.9712 81.6624 68.705 81.6983 69.6376L81.9902 77.207L77.7184 77.3717L77.1809 63.432L81.4527 63.2673L81.524 65.116C81.9333 64.4831 82.4975 63.9776 83.2169 63.5996C83.9355 63.205 84.7528 62.99 85.6688 62.9547ZM102.502 62.3057C104.134 62.2428 105.454 62.7256 106.461 63.7542C107.484 64.7656 108.031 66.1956 108.102 68.0442L108.416 76.1881L104.169 76.3519L103.878 68.7825C103.842 67.8499 103.572 67.1347 103.069 66.637C102.566 66.1394 101.907 65.9063 101.091 65.9377C100.275 65.9692 99.6353 66.2524 99.1722 66.7873C98.7091 67.3222 98.4956 68.056 98.5315 68.9886L98.8234 76.558L94.5515 76.7227L94.0141 62.783L98.2859 62.6183L98.3572 64.467C98.7665 63.8341 99.3307 63.3286 100.05 62.9506C100.769 62.556 101.586 62.341 102.502 62.3057ZM124.248 68.3724C124.263 68.7721 124.254 69.1894 124.221 69.6244L114.553 69.9971C114.653 70.8606 114.953 71.5161 115.454 71.9638C115.971 72.3942 116.588 72.5956 117.304 72.568C118.37 72.5269 119.094 72.0487 119.475 71.1333L124.022 70.958C123.824 71.883 123.431 72.7238 122.843 73.4803C122.272 74.2362 121.536 74.84 120.636 75.2917C119.737 75.7433 118.72 75.991 117.588 76.0347C116.222 76.0873 114.995 75.8428 113.907 75.3009C112.818 74.7591 111.954 73.9585 111.312 72.8991C110.671 71.8397 110.323 70.5855 110.267 69.1366C110.211 67.6877 110.453 66.4107 110.995 65.3057C111.552 64.2001 112.353 63.3353 113.396 62.7113C114.44 62.0873 115.653 61.7486 117.035 61.6953C118.384 61.6433 119.594 61.8802 120.665 62.406C121.736 62.9318 122.583 63.7081 123.207 64.7348C123.847 65.7609 124.194 66.9735 124.248 68.3724ZM119.833 67.4168C119.804 66.684 119.532 66.1107 119.016 65.697C118.499 65.2832 117.866 65.0908 117.117 65.1197C116.401 65.1473 115.801 65.3789 115.317 65.8146C114.851 66.2495 114.574 66.8523 114.486 67.6229L119.833 67.4168ZM125.66 68.5431C125.605 67.0942 125.847 65.8172 126.388 64.7122C126.946 63.6066 127.739 62.7421 128.765 62.1187C129.809 61.4947 131.013 61.1564 132.379 61.1038C134.128 61.0363 135.602 61.4381 136.804 62.3092C138.021 63.1796 138.846 64.4404 139.276 66.0917L134.73 66.267C134.305 65.2159 133.544 64.7116 132.445 64.7539C131.662 64.7841 131.049 65.1163 130.607 65.7505C130.163 66.368 129.964 67.243 130.007 68.3755C130.051 69.508 130.318 70.3734 130.808 70.9716C131.297 71.5532 131.933 71.8289 132.716 71.7987C133.815 71.7563 134.536 71.1948 134.878 70.1142L139.424 69.9389C139.121 71.5851 138.396 72.8974 137.25 73.8756C136.103 74.8538 134.664 75.3763 132.932 75.4431C131.566 75.4958 130.339 75.2512 129.251 74.7094C128.179 74.1669 127.323 73.366 126.681 72.3066C126.057 71.2465 125.716 69.992 125.66 68.5431ZM149.534 70.9752L149.673 74.5975L147.5 74.6813C145.951 74.741 144.729 74.4128 143.834 73.6968C142.939 72.9641 142.458 71.74 142.392 70.0246L142.178 64.4787L140.479 64.5442L140.342 60.9969L142.041 60.9314L141.91 57.5339L146.182 57.3692L146.313 60.7667L149.111 60.6588L149.248 64.2062L146.45 64.314L146.665 69.9099C146.682 70.3262 146.793 70.6222 147 70.7977C147.207 70.9732 147.543 71.0519 148.01 71.0339L149.534 70.9752ZM153.608 59.0343C152.858 59.0632 152.234 58.8705 151.734 58.4561C151.251 58.0244 150.996 57.4838 150.971 56.8343C150.945 56.1681 151.157 55.6095 151.607 55.1586C152.073 54.6903 152.68 54.4417 153.43 54.4128C154.162 54.3845 154.771 54.5862 155.254 55.0179C155.754 55.4323 156.017 55.9726 156.042 56.6388C156.067 57.2883 155.847 57.8472 155.381 58.3155C154.932 58.7665 154.341 59.0061 153.608 59.0343ZM155.787 60.4014L156.325 74.341L152.053 74.5057L151.515 60.5661L155.787 60.4014ZM165.773 74.1769C164.408 74.2296 163.164 73.9856 162.042 73.4451C160.937 72.9039 160.048 72.1043 159.373 71.0462C158.715 69.9874 158.358 68.7335 158.302 67.2846C158.247 65.8523 158.515 64.5827 159.106 63.4758C159.697 62.3522 160.53 61.4778 161.607 60.8525C162.684 60.2272 163.905 59.8883 165.27 59.8356C166.636 59.783 167.88 60.0269 169.001 60.5674C170.123 61.108 171.022 61.9156 171.697 62.9904C172.371 64.0485 172.736 65.2937 172.791 66.726C172.847 68.1583 172.571 69.4365 171.964 70.5607C171.372 71.6677 170.53 72.5341 169.437 73.16C168.36 73.7853 167.139 74.1243 165.773 74.1769ZM165.631 70.4797C166.447 70.4482 167.126 70.1218 167.67 69.5004C168.229 68.8783 168.488 68.0094 168.445 66.8936C168.402 65.7777 168.086 64.931 167.496 64.3532C166.923 63.7749 166.229 63.5014 165.413 63.5329C164.58 63.565 163.901 63.8914 163.374 64.5122C162.847 65.1162 162.605 65.9845 162.649 67.117C162.692 68.2329 162.992 69.0803 163.548 69.6593C164.12 70.2377 164.815 70.5111 165.631 70.4797ZM183.277 59.1914C184.909 59.1285 186.229 59.6114 187.236 60.64C188.259 61.6513 188.806 63.0813 188.877 64.9299L189.191 73.0739L184.944 73.2376L184.653 65.6682C184.617 64.7356 184.347 64.0205 183.844 63.5228C183.341 63.0251 182.682 62.792 181.866 62.8235C181.05 62.855 180.41 63.1381 179.947 63.673C179.484 64.2079 179.271 64.9417 179.306 65.8744L179.598 73.4437L175.326 73.6084L174.789 59.6688L179.061 59.5041L179.132 61.3527C179.541 60.7198 180.106 60.2144 180.825 59.8364C181.544 59.4417 182.361 59.2267 183.277 59.1914ZM197.838 72.9407C196.622 72.9875 195.532 72.8211 194.567 72.4413C193.601 72.0616 192.83 71.5242 192.253 70.8293C191.675 70.1177 191.335 69.3135 191.234 68.4167L195.456 68.254C195.524 68.735 195.764 69.1177 196.176 69.4021C196.587 69.6864 197.084 69.8174 197.667 69.7949C198.2 69.7744 198.604 69.6587 198.879 69.448C199.171 69.2199 199.31 68.9393 199.297 68.6062C199.282 68.2065 199.062 67.9231 198.639 67.756C198.215 67.5722 197.532 67.3817 196.59 67.1845C195.582 66.9898 194.74 66.7804 194.064 66.5563C193.388 66.3155 192.798 65.9296 192.294 65.3987C191.789 64.851 191.518 64.1026 191.481 63.1533C191.451 62.3539 191.639 61.6211 192.047 60.9549C192.471 60.2714 193.1 59.7217 193.935 59.3059C194.786 58.8895 195.803 58.6585 196.986 58.6129C198.734 58.5454 200.125 58.9255 201.158 59.753C202.207 60.5798 202.834 61.7065 203.039 63.133L199.092 63.2852C199.007 62.8048 198.776 62.4301 198.398 62.1611C198.038 61.8914 197.566 61.7679 196.983 61.7903C196.483 61.8096 196.104 61.9243 195.845 62.1344C195.586 62.3279 195.463 62.5912 195.476 62.9242C195.491 63.3239 195.711 63.6157 196.135 63.7995C196.575 63.9827 197.249 64.1568 198.156 64.322C199.199 64.5487 200.051 64.7827 200.71 65.0241C201.369 65.2489 201.952 65.6434 202.457 66.2077C202.979 66.7547 203.266 67.5108 203.32 68.4761C203.352 69.2922 203.147 70.034 202.706 70.7015C202.28 71.3517 201.642 71.8767 200.79 72.2765C199.955 72.6756 198.971 72.897 197.838 72.9407Z" fill="#2A3139"/>
<rect x="0.0703125" y="14.6228" width="201.288" height="40" transform="rotate(-4.16567 0.0703125 14.6228)" fill="#40FF62"/>
<rect x="0.0703125" y="14.6228" width="201.288" height="40" transform="rotate(-4.16567 0.0703125 14.6228)" fill="#40FF62"/>
<rect x="0.0703125" y="14.6228" width="201.288" height="40" transform="rotate(-4.16567 0.0703125 14.6228)" fill="#1F262E"/>
<path d="M30.2173 40.3806L26.0957 34.0382L25.0734 34.1127L25.5547 40.7202L21.291 41.0307L20.0161 23.5271L27.1722 23.0059C28.5518 22.9054 29.7413 23.0611 30.7405 23.4729C31.7564 23.8835 32.5362 24.4952 33.08 25.3078C33.6226 26.1038 33.9314 27.0172 34.0065 28.0478C34.0912 29.2114 33.8344 30.2745 33.2361 31.2372C32.6544 32.1986 31.7375 32.9171 30.4854 33.3927L35.0296 40.0301L30.2173 40.3806ZM24.8537 31.0957L27.4967 30.9032C28.2779 30.8463 28.8458 30.6127 29.2003 30.2026C29.5714 29.7912 29.7315 29.2364 29.6807 28.5383C29.6322 27.8734 29.3946 27.3643 28.9678 27.011C28.5577 26.6566 27.962 26.5078 27.1807 26.5647L24.5377 26.7572L24.8537 31.0957ZM50.1487 31.7099C50.1778 32.1088 50.1831 32.5262 50.1647 32.962L40.5153 33.6648C40.6447 34.5243 40.9674 35.1693 41.4834 35.5996C42.0147 36.0121 42.6378 36.1923 43.3526 36.1402C44.4164 36.0628 45.1234 35.5601 45.4736 34.6322L50.0116 34.3017C49.8455 35.2329 49.4815 36.0866 48.9198 36.8627C48.3746 37.6377 47.6601 38.2663 46.7761 38.7484C45.8921 39.2306 44.885 39.5128 43.7546 39.5952C42.3916 39.6944 41.1569 39.4919 40.0507 38.9876C38.9445 38.4833 38.0528 37.7127 37.3757 36.6758C36.6986 35.6389 36.3074 34.3974 36.202 32.9512C36.0967 31.5051 36.2956 30.2206 36.7987 29.0977C37.3184 27.9737 38.089 27.082 39.1105 26.4227C40.132 25.7634 41.3325 25.3836 42.7122 25.2831C44.0587 25.185 45.2761 25.3804 46.3645 25.8693C47.4528 26.3582 48.3261 27.1051 48.9841 28.1099C49.6588 29.1136 50.047 30.3136 50.1487 31.7099ZM45.7035 30.9056C45.6503 30.1742 45.3586 29.6106 44.8284 29.2147C44.2983 28.8189 43.6592 28.6482 42.9111 28.7027C42.1964 28.7547 41.6048 29.0067 41.1364 29.4586C40.6846 29.9092 40.4283 30.5211 40.3677 31.2943L45.7035 30.9056ZM51.5648 31.8073C51.4607 30.3777 51.6352 29.1033 52.0885 27.9841C52.5583 26.8637 53.2375 25.9787 54.126 25.3291C55.0145 24.6795 56.0322 24.3129 57.1792 24.2294C58.1599 24.158 59.0305 24.2951 59.791 24.6408C60.568 24.9852 61.1796 25.4671 61.6258 26.0863L61.4823 24.1165L65.746 23.806L66.7594 37.7191L62.4957 38.0297L62.3522 36.0599C61.9839 36.7384 61.4402 37.3044 60.7212 37.7578C60.0189 38.2101 59.1774 38.4719 58.1966 38.5433C57.0663 38.6256 56.0145 38.4098 55.0413 37.8958C54.0668 37.3652 53.266 36.5796 52.6387 35.5391C52.0269 34.4807 51.6689 33.2368 51.5648 31.8073ZM61.989 31.0731C61.9115 30.0092 61.5512 29.1916 60.908 28.6201C60.2814 28.0475 59.5442 27.792 58.6965 27.8538C57.8487 27.9155 57.148 28.2757 56.5944 28.9343C56.0562 29.5751 55.8258 30.4274 55.9033 31.4913C55.9808 32.5551 56.3334 33.3817 56.9612 33.971C57.6044 34.5424 58.3499 34.7973 59.1977 34.7355C60.0454 34.6738 60.7378 34.3142 61.2748 33.6568C61.8284 32.9982 62.0665 32.1369 61.989 31.0731ZM72.7638 18.7328L74.1077 37.1839L69.844 37.4945L68.5001 19.0433L72.7638 18.7328ZM85.4703 18.7599L86.7451 36.2635L82.4814 36.574L81.2066 19.0704L85.4703 18.7599ZM97.2883 21.3583C98.9173 21.2396 100.253 21.6771 101.294 22.6707C102.351 23.6465 102.947 25.057 103.081 26.9021L103.673 35.0306L99.4345 35.3393L98.8843 27.7843C98.8165 26.8534 98.5228 26.1479 98.0032 25.6677C97.4836 25.1875 96.8166 24.9771 96.0021 25.0364C95.1876 25.0957 94.558 25.4006 94.1135 25.951C93.669 26.5014 93.4806 27.2421 93.5484 28.1729L94.0987 35.7279L89.835 36.0385L88.8216 22.1253L93.0853 21.8148L93.2197 23.6599C93.6071 23.0134 94.1538 22.4889 94.8598 22.0866C95.5645 21.6676 96.374 21.4249 97.2883 21.3583ZM112.604 30.3695L114.898 20.2261L119.436 19.8956L115.513 34.1683L110.252 34.5515L104.301 20.9979L108.864 20.6656L112.604 30.3695ZM134.836 25.5418C134.866 25.9407 134.871 26.3581 134.852 26.7939L125.203 27.4967C125.332 28.3563 125.655 29.0012 126.171 29.4315C126.703 29.844 127.326 30.0242 128.04 29.9722C129.104 29.8947 129.811 29.392 130.161 28.4641L134.699 28.1336C134.533 29.0648 134.169 29.9185 133.608 30.6947C133.062 31.4697 132.348 32.0982 131.464 32.5804C130.58 33.0625 129.573 33.3448 128.442 33.4271C127.079 33.5264 125.845 33.3239 124.738 32.8195C123.632 32.3152 122.741 31.5446 122.063 30.5078C121.386 29.4709 120.995 28.2293 120.89 26.7832C120.784 25.337 120.983 24.0525 121.486 22.9296C122.006 21.8056 122.777 20.9139 123.798 20.2547C124.82 19.5954 126.02 19.2155 127.4 19.115C128.746 19.0169 129.964 19.2124 131.052 19.7013C132.141 20.1902 133.014 20.937 133.672 21.9419C134.347 22.9455 134.735 24.1455 134.836 25.5418ZM130.391 24.7376C130.338 24.0062 130.046 23.4425 129.516 23.0467C128.986 22.6508 128.347 22.4801 127.599 22.5346C126.884 22.5867 126.293 22.8386 125.824 23.2905C125.372 23.7412 125.116 24.3531 125.055 25.1262L130.391 24.7376ZM143.283 32.3462C142.07 32.4346 140.974 32.3055 139.997 31.9589C139.019 31.6124 138.23 31.1017 137.629 30.4269C137.027 29.7354 136.66 28.9433 136.528 28.0505L140.742 27.7436C140.827 28.222 141.08 28.5963 141.501 28.8665C141.922 29.1366 142.423 29.2505 143.005 29.2081C143.537 29.1694 143.937 29.04 144.205 28.8199C144.488 28.5821 144.618 28.2969 144.594 27.9644C144.564 27.5655 144.335 27.2897 143.907 27.1372C143.477 26.9679 142.788 26.8009 141.84 26.636C140.825 26.4759 139.977 26.2954 139.294 26.0945C138.609 25.8769 138.006 25.5115 137.484 24.998C136.961 24.468 136.665 23.7292 136.596 22.7817C136.538 21.9838 136.701 21.245 137.086 20.5652C137.487 19.8676 138.097 19.2968 138.917 18.8527C139.753 18.4075 140.762 18.1418 141.942 18.0559C143.687 17.9288 145.09 18.2611 146.15 19.0528C147.227 19.8433 147.893 20.9479 148.146 22.3666L144.207 22.6535C144.105 22.1763 143.861 21.8097 143.475 21.5538C143.105 21.2966 142.63 21.1892 142.048 21.2316C141.549 21.2679 141.174 21.3955 140.923 21.6143C140.67 21.8165 140.556 22.0839 140.58 22.4163C140.609 22.8153 140.839 23.0994 141.269 23.2686C141.715 23.4366 142.395 23.5876 143.307 23.7217C144.357 23.9126 145.216 24.1174 145.883 24.3362C146.55 24.5383 147.145 24.9127 147.67 25.4594C148.21 25.9882 148.523 26.7341 148.61 27.697C148.669 28.5115 148.49 29.2599 148.071 29.942C147.669 30.6064 147.048 31.1529 146.211 31.5815C145.389 32.009 144.414 32.2639 143.283 32.3462ZM159.004 27.3661L159.267 30.9815L157.098 31.1395C155.552 31.2521 154.319 30.9659 153.4 30.2808C152.48 29.5791 151.958 28.3722 151.833 26.6601L151.43 21.1248L149.735 21.2482L149.477 17.7076L151.172 17.5841L150.925 14.1931L155.189 13.8826L155.436 17.2736L158.229 17.0702L158.486 20.6108L155.694 20.8142L156.101 26.3994C156.131 26.815 156.252 27.1069 156.465 27.2753C156.678 27.4436 157.017 27.5108 157.483 27.4769L159.004 27.3661ZM167.99 30.5468C166.627 30.646 165.375 30.4447 164.236 29.9428C163.113 29.4397 162.196 28.671 161.486 27.6365C160.792 26.6008 160.393 25.3599 160.287 23.9137C160.183 22.4842 160.408 21.2062 160.961 20.0797C161.512 18.9366 162.316 18.0342 163.37 17.3725C164.425 16.7108 165.634 16.3303 166.997 16.231C168.36 16.1318 169.611 16.3331 170.751 16.835C171.89 17.3368 172.816 18.1133 173.527 19.1644C174.238 20.1989 174.645 21.4309 174.749 22.8604C174.853 24.29 174.621 25.5769 174.053 26.7212C173.5 27.8477 172.688 28.7424 171.616 29.4053C170.562 30.067 169.353 30.4475 167.99 30.5468ZM167.721 26.8565C168.535 26.7972 169.203 26.4478 169.725 25.8082C170.263 25.1674 170.492 24.2901 170.411 23.1764C170.329 22.0627 169.985 21.2272 169.376 20.67C168.784 20.1115 168.08 19.8619 167.266 19.9213C166.435 19.9818 165.767 20.3312 165.262 20.9696C164.756 21.5914 164.544 22.4674 164.626 23.5977C164.707 24.7115 165.035 25.5482 165.611 26.1078C166.203 26.6663 166.906 26.9159 167.721 26.8565ZM180.937 17.7474C181.38 16.9465 181.96 16.3027 182.676 15.816C183.392 15.3127 184.206 15.0278 185.121 14.9612L185.449 19.4742L184.277 19.5596C183.214 19.6371 182.433 19.9279 181.935 20.4321C181.435 20.9196 181.228 21.7369 181.311 22.8838L181.781 29.3417L177.518 29.6523L176.504 15.7391L180.768 15.4286L180.937 17.7474Z" fill="white"/>
</svg>
