<svg width="351" height="130" viewBox="0 0 351 130" fill="none" xmlns="http://www.w3.org/2000/svg">
<rect x="28.168" y="68.4353" width="303" height="58" fill="#1E93FF"/>
<path d="M50.828 98.8554C50.828 97.7354 51.048 96.7421 51.488 95.8754C51.9413 95.0088 52.548 94.3421 53.308 93.8754C54.0813 93.4088 54.9413 93.1754 55.888 93.1754C56.7146 93.1754 57.4346 93.3421 58.048 93.6754C58.6746 94.0088 59.1746 94.4288 59.548 94.9354V93.3554H62.368V104.435H59.548V102.815C59.188 103.335 58.688 103.769 58.048 104.115C57.4213 104.449 56.6946 104.615 55.868 104.615C54.9346 104.615 54.0813 104.375 53.308 103.895C52.548 103.415 51.9413 102.742 51.488 101.875C51.048 100.995 50.828 99.9888 50.828 98.8554ZM59.548 98.8954C59.548 98.2154 59.4146 97.6354 59.148 97.1554C58.8813 96.6621 58.5213 96.2888 58.068 96.0354C57.6146 95.7688 57.128 95.6354 56.608 95.6354C56.088 95.6354 55.608 95.7621 55.168 96.0154C54.728 96.2688 54.368 96.6421 54.088 97.1354C53.8213 97.6154 53.688 98.1888 53.688 98.8554C53.688 99.5221 53.8213 100.109 54.088 100.615C54.368 101.109 54.728 101.489 55.168 101.755C55.6213 102.022 56.1013 102.155 56.608 102.155C57.128 102.155 57.6146 102.029 58.068 101.775C58.5213 101.509 58.8813 101.135 59.148 100.655C59.4146 100.162 59.548 99.5754 59.548 98.8954ZM71.2427 93.1954C72.5627 93.1954 73.6293 93.6154 74.4427 94.4554C75.256 95.2821 75.6627 96.4421 75.6627 97.9354V104.435H72.8627V98.3154C72.8627 97.4354 72.6427 96.7621 72.2027 96.2954C71.7627 95.8154 71.1627 95.5754 70.4027 95.5754C69.6293 95.5754 69.016 95.8154 68.5627 96.2954C68.1227 96.7621 67.9027 97.4354 67.9027 98.3154V104.435H65.1027V93.3554H67.9027V94.7354C68.276 94.2554 68.7493 93.8821 69.3227 93.6154C69.9093 93.3354 70.5493 93.1954 71.2427 93.1954ZM77.6053 98.8554C77.6053 97.7354 77.8253 96.7421 78.2653 95.8754C78.7186 95.0088 79.332 94.3421 80.1053 93.8754C80.8786 93.4088 81.7386 93.1754 82.6853 93.1754C83.4053 93.1754 84.092 93.3354 84.7453 93.6554C85.3986 93.9621 85.9186 94.3754 86.3053 94.8954V89.6354H89.1453V104.435H86.3053V102.795C85.9586 103.342 85.472 103.782 84.8453 104.115C84.2186 104.449 83.492 104.615 82.6653 104.615C81.732 104.615 80.8786 104.375 80.1053 103.895C79.332 103.415 78.7186 102.742 78.2653 101.875C77.8253 100.995 77.6053 99.9888 77.6053 98.8554ZM86.3253 98.8954C86.3253 98.2154 86.192 97.6354 85.9253 97.1554C85.6586 96.6621 85.2986 96.2888 84.8453 96.0354C84.392 95.7688 83.9053 95.6354 83.3853 95.6354C82.8653 95.6354 82.3853 95.7621 81.9453 96.0154C81.5053 96.2688 81.1453 96.6421 80.8653 97.1354C80.5986 97.6154 80.4653 98.1888 80.4653 98.8554C80.4653 99.5221 80.5986 100.109 80.8653 100.615C81.1453 101.109 81.5053 101.489 81.9453 101.755C82.3986 102.022 82.8786 102.155 83.3853 102.155C83.9053 102.155 84.392 102.029 84.8453 101.775C85.2986 101.509 85.6586 101.135 85.9253 100.655C86.192 100.162 86.3253 99.5754 86.3253 98.8954ZM95.9256 98.8954C95.9256 97.7488 96.159 96.7488 96.6256 95.8954C97.0923 95.0288 97.739 94.3621 98.5656 93.8954C99.3923 93.4154 100.339 93.1754 101.406 93.1754C102.779 93.1754 103.912 93.5221 104.806 94.2154C105.712 94.8954 106.319 95.8554 106.626 97.0954H103.606C103.446 96.6154 103.172 96.2421 102.786 95.9754C102.412 95.6954 101.946 95.5554 101.386 95.5554C100.586 95.5554 99.9523 95.8488 99.4856 96.4354C99.019 97.0088 98.7856 97.8288 98.7856 98.8954C98.7856 99.9488 99.019 100.769 99.4856 101.355C99.9523 101.929 100.586 102.215 101.386 102.215C102.519 102.215 103.259 101.709 103.606 100.695H106.626C106.319 101.895 105.712 102.849 104.806 103.555C103.899 104.262 102.766 104.615 101.406 104.615C100.339 104.615 99.3923 104.382 98.5656 103.915C97.739 103.435 97.0923 102.769 96.6256 101.915C96.159 101.049 95.9256 100.042 95.9256 98.8954ZM114.917 93.1954C115.757 93.1954 116.504 93.3821 117.157 93.7554C117.81 94.1154 118.317 94.6554 118.677 95.3754C119.05 96.0821 119.237 96.9354 119.237 97.9354V104.435H116.437V98.3154C116.437 97.4354 116.217 96.7621 115.777 96.2954C115.337 95.8154 114.737 95.5754 113.977 95.5754C113.204 95.5754 112.59 95.8154 112.137 96.2954C111.697 96.7621 111.477 97.4354 111.477 98.3154V104.435H108.677V89.6354H111.477V94.7354C111.837 94.2554 112.317 93.8821 112.917 93.6154C113.517 93.3354 114.184 93.1954 114.917 93.1954ZM126.82 104.615C125.753 104.615 124.793 104.382 123.94 103.915C123.086 103.435 122.413 102.762 121.92 101.895C121.44 101.029 121.2 100.029 121.2 98.8954C121.2 97.7621 121.446 96.7621 121.94 95.8954C122.446 95.0288 123.133 94.3621 124 93.8954C124.866 93.4154 125.833 93.1754 126.9 93.1754C127.966 93.1754 128.933 93.4154 129.8 93.8954C130.666 94.3621 131.346 95.0288 131.84 95.8954C132.346 96.7621 132.6 97.7621 132.6 98.8954C132.6 100.029 132.34 101.029 131.82 101.895C131.313 102.762 130.62 103.435 129.74 103.915C128.873 104.382 127.9 104.615 126.82 104.615ZM126.82 102.175C127.326 102.175 127.8 102.055 128.24 101.815C128.693 101.562 129.053 101.189 129.32 100.695C129.586 100.202 129.72 99.6021 129.72 98.8954C129.72 97.8421 129.44 97.0354 128.88 96.4754C128.333 95.9021 127.66 95.6154 126.86 95.6154C126.06 95.6154 125.386 95.9021 124.84 96.4754C124.306 97.0354 124.04 97.8421 124.04 98.8954C124.04 99.9488 124.3 100.762 124.82 101.335C125.353 101.895 126.02 102.175 126.82 102.175ZM139.573 104.615C138.507 104.615 137.547 104.382 136.693 103.915C135.84 103.435 135.167 102.762 134.673 101.895C134.193 101.029 133.953 100.029 133.953 98.8954C133.953 97.7621 134.2 96.7621 134.693 95.8954C135.2 95.0288 135.887 94.3621 136.753 93.8954C137.62 93.4154 138.587 93.1754 139.653 93.1754C140.72 93.1754 141.687 93.4154 142.553 93.8954C143.42 94.3621 144.1 95.0288 144.593 95.8954C145.1 96.7621 145.353 97.7621 145.353 98.8954C145.353 100.029 145.093 101.029 144.573 101.895C144.067 102.762 143.373 103.435 142.493 103.915C141.627 104.382 140.653 104.615 139.573 104.615ZM139.573 102.175C140.08 102.175 140.553 102.055 140.993 101.815C141.447 101.562 141.807 101.189 142.073 100.695C142.34 100.202 142.473 99.6021 142.473 98.8954C142.473 97.8421 142.193 97.0354 141.633 96.4754C141.087 95.9021 140.413 95.6154 139.613 95.6154C138.813 95.6154 138.14 95.9021 137.593 96.4754C137.06 97.0354 136.793 97.8421 136.793 98.8954C136.793 99.9488 137.053 100.762 137.573 101.335C138.107 101.895 138.773 102.175 139.573 102.175ZM151.647 104.615C150.741 104.615 149.927 104.455 149.207 104.135C148.487 103.802 147.914 103.355 147.487 102.795C147.074 102.235 146.847 101.615 146.807 100.935H149.627C149.681 101.362 149.887 101.715 150.247 101.995C150.621 102.275 151.081 102.415 151.627 102.415C152.161 102.415 152.574 102.309 152.867 102.095C153.174 101.882 153.327 101.609 153.327 101.275C153.327 100.915 153.141 100.649 152.767 100.475C152.407 100.289 151.827 100.089 151.027 99.8754C150.201 99.6754 149.521 99.4688 148.987 99.2554C148.467 99.0421 148.014 98.7154 147.627 98.2754C147.254 97.8354 147.067 97.2421 147.067 96.4954C147.067 95.8821 147.241 95.3221 147.587 94.8154C147.947 94.3088 148.454 93.9088 149.107 93.6154C149.774 93.3221 150.554 93.1754 151.447 93.1754C152.767 93.1754 153.821 93.5088 154.607 94.1754C155.394 94.8288 155.827 95.7154 155.907 96.8354H153.227C153.187 96.3954 153.001 96.0488 152.667 95.7954C152.347 95.5288 151.914 95.3954 151.367 95.3954C150.861 95.3954 150.467 95.4888 150.187 95.6754C149.921 95.8621 149.787 96.1221 149.787 96.4554C149.787 96.8288 149.974 97.1154 150.347 97.3154C150.721 97.5021 151.301 97.6954 152.087 97.8954C152.887 98.0954 153.547 98.3021 154.067 98.5154C154.587 98.7288 155.034 99.0621 155.407 99.5154C155.794 99.9554 155.994 100.542 156.007 101.275C156.007 101.915 155.827 102.489 155.467 102.995C155.121 103.502 154.614 103.902 153.947 104.195C153.294 104.475 152.527 104.615 151.647 104.615ZM168.606 98.6554C168.606 99.0554 168.579 99.4154 168.526 99.7354H160.426C160.492 100.535 160.772 101.162 161.266 101.615C161.759 102.069 162.366 102.295 163.086 102.295C164.126 102.295 164.866 101.849 165.306 100.955H168.326C168.006 102.022 167.392 102.902 166.486 103.595C165.579 104.275 164.466 104.615 163.146 104.615C162.079 104.615 161.119 104.382 160.266 103.915C159.426 103.435 158.766 102.762 158.286 101.895C157.819 101.029 157.586 100.029 157.586 98.8954C157.586 97.7488 157.819 96.7421 158.286 95.8754C158.752 95.0088 159.406 94.3421 160.246 93.8754C161.086 93.4088 162.052 93.1754 163.146 93.1754C164.199 93.1754 165.139 93.4021 165.966 93.8554C166.806 94.3088 167.452 94.9554 167.906 95.7954C168.372 96.6221 168.606 97.5754 168.606 98.6554ZM165.706 97.8554C165.692 97.1354 165.432 96.5621 164.926 96.1354C164.419 95.6954 163.799 95.4754 163.066 95.4754C162.372 95.4754 161.786 95.6888 161.306 96.1154C160.839 96.5288 160.552 97.1088 160.446 97.8554H165.706ZM186.015 93.3554L179.155 109.675H176.175L178.575 104.155L174.135 93.3554H177.275L180.135 101.095L183.035 93.3554H186.015ZM192.445 104.615C191.378 104.615 190.418 104.382 189.565 103.915C188.711 103.435 188.038 102.762 187.545 101.895C187.065 101.029 186.825 100.029 186.825 98.8954C186.825 97.7621 187.071 96.7621 187.565 95.8954C188.071 95.0288 188.758 94.3621 189.625 93.8954C190.491 93.4154 191.458 93.1754 192.525 93.1754C193.591 93.1754 194.558 93.4154 195.425 93.8954C196.291 94.3621 196.971 95.0288 197.465 95.8954C197.971 96.7621 198.225 97.7621 198.225 98.8954C198.225 100.029 197.965 101.029 197.445 101.895C196.938 102.762 196.245 103.435 195.365 103.915C194.498 104.382 193.525 104.615 192.445 104.615ZM192.445 102.175C192.951 102.175 193.425 102.055 193.865 101.815C194.318 101.562 194.678 101.189 194.945 100.695C195.211 100.202 195.345 99.6021 195.345 98.8954C195.345 97.8421 195.065 97.0354 194.505 96.4754C193.958 95.9021 193.285 95.6154 192.485 95.6154C191.685 95.6154 191.011 95.9021 190.465 96.4754C189.931 97.0354 189.665 97.8421 189.665 98.8954C189.665 99.9488 189.925 100.762 190.445 101.335C190.978 101.895 191.645 102.175 192.445 102.175ZM210.738 93.3554V104.435H207.918V103.035C207.558 103.515 207.085 103.895 206.498 104.175C205.925 104.442 205.298 104.575 204.618 104.575C203.752 104.575 202.985 104.395 202.318 104.035C201.652 103.662 201.125 103.122 200.738 102.415C200.365 101.695 200.178 100.842 200.178 99.8554V93.3554H202.978V99.4554C202.978 100.335 203.198 101.015 203.638 101.495C204.078 101.962 204.678 102.195 205.438 102.195C206.212 102.195 206.818 101.962 207.258 101.495C207.698 101.015 207.918 100.335 207.918 99.4554V93.3554H210.738ZM216.301 95.0754C216.661 94.4888 217.128 94.0288 217.701 93.6954C218.288 93.3621 218.954 93.1954 219.701 93.1954V96.1354H218.961C218.081 96.1354 217.414 96.3421 216.961 96.7554C216.521 97.1688 216.301 97.8888 216.301 98.9154V104.435H213.501V93.3554H216.301V95.0754ZM231.433 95.6554H229.493V104.435H226.653V95.6554H225.393V93.3554H226.653V92.7954C226.653 91.4354 227.039 90.4354 227.813 89.7954C228.586 89.1554 229.753 88.8554 231.313 88.8954V91.2554C230.633 91.2421 230.159 91.3554 229.893 91.5954C229.626 91.8354 229.493 92.2688 229.493 92.8954V93.3554H231.433V95.6554ZM232.527 98.8554C232.527 97.7354 232.747 96.7421 233.187 95.8754C233.641 95.0088 234.247 94.3421 235.007 93.8754C235.781 93.4088 236.641 93.1754 237.587 93.1754C238.414 93.1754 239.134 93.3421 239.747 93.6754C240.374 94.0088 240.874 94.4288 241.247 94.9354V93.3554H244.067V104.435H241.247V102.815C240.887 103.335 240.387 103.769 239.747 104.115C239.121 104.449 238.394 104.615 237.567 104.615C236.634 104.615 235.781 104.375 235.007 103.895C234.247 103.415 233.641 102.742 233.187 101.875C232.747 100.995 232.527 99.9888 232.527 98.8554ZM241.247 98.8954C241.247 98.2154 241.114 97.6354 240.847 97.1554C240.581 96.6621 240.221 96.2888 239.767 96.0354C239.314 95.7688 238.827 95.6354 238.307 95.6354C237.787 95.6354 237.307 95.7621 236.867 96.0154C236.427 96.2688 236.067 96.6421 235.787 97.1354C235.521 97.6154 235.387 98.1888 235.387 98.8554C235.387 99.5221 235.521 100.109 235.787 100.615C236.067 101.109 236.427 101.489 236.867 101.755C237.321 102.022 237.801 102.155 238.307 102.155C238.827 102.155 239.314 102.029 239.767 101.775C240.221 101.509 240.581 101.135 240.847 100.655C241.114 100.162 241.247 99.5754 241.247 98.8954ZM251.422 101.855L254.222 93.3554H257.202L253.102 104.435H249.702L245.622 93.3554H248.622L251.422 101.855ZM263.695 104.615C262.628 104.615 261.668 104.382 260.815 103.915C259.961 103.435 259.288 102.762 258.795 101.895C258.315 101.029 258.075 100.029 258.075 98.8954C258.075 97.7621 258.321 96.7621 258.815 95.8954C259.321 95.0288 260.008 94.3621 260.875 93.8954C261.741 93.4154 262.708 93.1754 263.775 93.1754C264.841 93.1754 265.808 93.4154 266.675 93.8954C267.541 94.3621 268.221 95.0288 268.715 95.8954C269.221 96.7621 269.475 97.7621 269.475 98.8954C269.475 100.029 269.215 101.029 268.695 101.895C268.188 102.762 267.495 103.435 266.615 103.915C265.748 104.382 264.775 104.615 263.695 104.615ZM263.695 102.175C264.201 102.175 264.675 102.055 265.115 101.815C265.568 101.562 265.928 101.189 266.195 100.695C266.461 100.202 266.595 99.6021 266.595 98.8954C266.595 97.8421 266.315 97.0354 265.755 96.4754C265.208 95.9021 264.535 95.6154 263.735 95.6154C262.935 95.6154 262.261 95.9021 261.715 96.4754C261.181 97.0354 260.915 97.8421 260.915 98.8954C260.915 99.9488 261.175 100.762 261.695 101.335C262.228 101.895 262.895 102.175 263.695 102.175ZM274.328 95.0754C274.688 94.4888 275.155 94.0288 275.728 93.6954C276.315 93.3621 276.982 93.1954 277.728 93.1954V96.1354H276.988C276.108 96.1354 275.442 96.3421 274.988 96.7554C274.548 97.1688 274.328 97.8888 274.328 98.9154V104.435H271.528V93.3554H274.328V95.0754ZM281.034 92.0354C280.541 92.0354 280.128 91.8821 279.794 91.5754C279.474 91.2554 279.314 90.8621 279.314 90.3954C279.314 89.9288 279.474 89.5421 279.794 89.2354C280.128 88.9154 280.541 88.7554 281.034 88.7554C281.528 88.7554 281.934 88.9154 282.254 89.2354C282.588 89.5421 282.754 89.9288 282.754 90.3954C282.754 90.8621 282.588 91.2554 282.254 91.5754C281.934 91.8821 281.528 92.0354 281.034 92.0354ZM282.414 93.3554V104.435H279.614V93.3554H282.414ZM288.441 95.6554V101.015C288.441 101.389 288.527 101.662 288.701 101.835C288.887 101.995 289.194 102.075 289.621 102.075H290.921V104.435H289.161C286.801 104.435 285.621 103.289 285.621 100.995V95.6554H284.301V93.3554H285.621V90.6154H288.441V93.3554H290.921V95.6554H288.441ZM303.235 98.6554C303.235 99.0554 303.208 99.4154 303.155 99.7354H295.055C295.121 100.535 295.401 101.162 295.895 101.615C296.388 102.069 296.995 102.295 297.715 102.295C298.755 102.295 299.495 101.849 299.935 100.955H302.955C302.635 102.022 302.021 102.902 301.115 103.595C300.208 104.275 299.095 104.615 297.775 104.615C296.708 104.615 295.748 104.382 294.895 103.915C294.055 103.435 293.395 102.762 292.915 101.895C292.448 101.029 292.215 100.029 292.215 98.8954C292.215 97.7488 292.448 96.7421 292.915 95.8754C293.381 95.0088 294.035 94.3421 294.875 93.8754C295.715 93.4088 296.681 93.1754 297.775 93.1754C298.828 93.1754 299.768 93.4021 300.595 93.8554C301.435 94.3088 302.081 94.9554 302.535 95.7954C303.001 96.6221 303.235 97.5754 303.235 98.6554ZM300.335 97.8554C300.321 97.1354 300.061 96.5621 299.555 96.1354C299.048 95.6954 298.428 95.4754 297.695 95.4754C297.001 95.4754 296.415 95.6888 295.935 96.1154C295.468 96.5288 295.181 97.1088 295.075 97.8554H300.335ZM306.518 104.575C306.012 104.575 305.592 104.422 305.258 104.115C304.938 103.795 304.778 103.402 304.778 102.935C304.778 102.469 304.938 102.082 305.258 101.775C305.592 101.455 306.012 101.295 306.518 101.295C307.012 101.295 307.418 101.455 307.738 101.775C308.058 102.082 308.218 102.469 308.218 102.935C308.218 103.402 308.058 103.795 307.738 104.115C307.418 104.422 307.012 104.575 306.518 104.575ZM306.518 96.2954C306.012 96.2954 305.592 96.1421 305.258 95.8354C304.938 95.5154 304.778 95.1221 304.778 94.6554C304.778 94.1888 304.938 93.8021 305.258 93.4954C305.592 93.1754 306.012 93.0154 306.518 93.0154C307.012 93.0154 307.418 93.1754 307.738 93.4954C308.058 93.8021 308.218 94.1888 308.218 94.6554C308.218 95.1221 308.058 95.5154 307.738 95.8354C307.418 96.1421 307.012 96.2954 306.518 96.2954Z" fill="white"/>
<rect x="34.168" y="26.4353" width="248.847" height="57.711" transform="rotate(-5.21723 34.168 26.4353)" fill="#40FF62"/>
<path d="M66.8745 59.5579L62.979 53.8911L61.5325 54.0174L62.0528 59.9787L58.9845 60.2465L57.6493 44.9487L63.3914 44.4475C64.5749 44.3442 65.6016 44.4681 66.4714 44.8191C67.34 45.1555 68.01 45.6638 68.4816 46.3441C68.9666 47.0084 69.2473 47.7789 69.3238 48.6556C69.4118 49.6638 69.1993 50.6025 68.6862 51.4717C68.1719 52.3263 67.351 52.9574 66.2235 53.365L70.425 59.248L66.8745 59.5579ZM61.3316 51.7161L63.8959 51.4923C64.7287 51.4196 65.3325 51.1682 65.7072 50.738C66.0806 50.2931 66.236 49.7128 66.1735 48.9968C66.1123 48.2955 65.8606 47.7727 65.4183 47.4285C64.9748 47.0698 64.3366 46.9267 63.5037 46.9994L60.9395 47.2232L61.3316 51.7161ZM83.7591 51.702C83.7974 52.1404 83.8026 52.5374 83.7747 52.8932L74.8985 53.6679C75.048 54.5382 75.4148 55.1981 75.9988 55.6477C76.5828 56.0973 77.2692 56.2877 78.0582 56.2188C79.1979 56.1193 79.9661 55.5591 80.3628 54.5381L83.6723 54.2492C83.4236 55.4487 82.8357 56.4717 81.9084 57.3182C80.9799 58.1501 79.7924 58.6292 78.3459 58.7554C77.177 58.8574 76.1027 58.6936 75.1229 58.2638C74.1565 57.8181 73.3689 57.1434 72.76 56.2396C72.1657 55.3345 71.8144 54.261 71.706 53.019C71.5963 51.7625 71.7557 50.637 72.1842 49.6426C72.6127 48.6483 73.2649 47.8552 74.1408 47.2635C75.0166 46.6718 76.0536 46.3236 77.2517 46.2191C78.406 46.1183 79.4578 46.2768 80.407 46.6945C81.3709 47.111 82.1414 47.7577 82.7185 48.6349C83.3089 49.4961 83.6558 50.5185 83.7591 51.702ZM80.5047 51.1027C80.4212 50.315 80.0814 49.7116 79.4854 49.2925C78.8881 48.8588 78.1876 48.677 77.384 48.7471C76.6243 48.8134 76.0018 49.1033 75.5166 49.6168C75.0447 50.1144 74.7861 50.7774 74.7406 51.6058L80.5047 51.1027ZM91.3675 54.5713L93.6229 44.989L96.8885 44.7039L93.4553 57.2379L89.7295 57.5631L84.1987 45.8115L87.4862 45.5246L91.3675 54.5713ZM100.042 42.9712C99.5011 43.0184 99.0335 42.8899 98.6389 42.5857C98.2576 42.2657 98.0446 41.8499 98 41.3385C97.9554 40.8272 98.0937 40.3881 98.415 40.0215C98.7497 39.6389 99.1874 39.4241 99.728 39.3769C100.269 39.3297 100.73 39.4661 101.111 39.7862C101.505 40.0904 101.725 40.4981 101.77 41.0095C101.814 41.5209 101.669 41.9679 101.335 42.3504C101.013 42.7171 100.582 42.924 100.042 42.9712ZM101.68 44.2857L102.74 56.4276L99.6716 56.6954L98.6119 44.5535L101.68 44.2857ZM116.506 48.8439C116.544 49.2823 116.549 49.6793 116.521 50.0351L107.645 50.8098C107.795 51.6801 108.161 52.34 108.745 52.7896C109.329 53.2392 110.016 53.4296 110.805 53.3607C111.945 53.2612 112.713 52.701 113.109 51.68L116.419 51.3911C116.17 52.5906 115.582 53.6136 114.655 54.4601C113.727 55.292 112.539 55.7711 111.092 55.8973C109.924 55.9993 108.849 55.8354 107.87 55.4057C106.903 54.96 106.115 54.2853 105.507 53.3815C104.912 52.4764 104.561 51.4029 104.453 50.1609C104.343 48.9044 104.502 47.7789 104.931 46.7845C105.359 45.7902 106.011 44.9971 106.887 44.4054C107.763 43.8137 108.8 43.4655 109.998 43.361C111.153 43.2602 112.204 43.4187 113.154 43.8364C114.117 44.2529 114.888 44.8996 115.465 45.7768C116.056 46.638 116.402 47.6604 116.506 48.8439ZM113.251 48.2446C113.168 47.4569 112.828 46.8535 112.232 46.4344C111.635 46.0007 110.934 45.8189 110.131 45.889C109.371 45.9553 108.748 46.2452 108.263 46.7587C107.791 47.2563 107.533 47.9193 107.487 48.7477L113.251 48.2446ZM135.07 41.3714L132.58 53.8232L129.27 54.112L126.316 45.8235L124.843 54.4984L121.512 54.7892L116.88 42.9591L119.992 42.6875L122.947 51.7489L124.463 42.2973L127.706 42.0142L130.791 51.0421L132.134 41.6278L135.07 41.3714ZM141.694 46.9105C141.584 45.654 141.744 44.5358 142.174 43.5561C142.602 42.5617 143.247 41.7693 144.109 41.1789C144.969 40.5738 145.983 40.2202 147.152 40.1182C148.657 39.9869 149.932 40.2584 150.977 40.9327C152.036 41.5912 152.792 42.5851 153.247 43.9146L149.938 44.2035C149.716 43.6928 149.381 43.3098 148.932 43.0546C148.496 42.7834 147.971 42.6747 147.358 42.7282C146.481 42.8047 145.815 43.1868 145.36 43.8743C144.903 44.5472 144.726 45.4681 144.828 46.637C144.929 47.7913 145.263 48.6675 145.83 49.2658C146.396 49.8494 147.118 50.103 147.995 50.0265C149.237 49.9181 149.999 49.2921 150.282 48.1485L153.591 47.8596C153.37 49.204 152.796 50.3067 151.871 51.1678C150.945 52.0289 149.736 52.5245 148.246 52.6546C147.077 52.7566 146.017 52.5914 145.067 52.1591C144.115 51.7122 143.343 51.0435 142.75 50.153C142.155 49.2479 141.803 48.1671 141.694 46.9105ZM154.874 45.716C154.767 44.4886 154.913 43.3791 155.312 42.3873C155.726 41.3942 156.327 40.6056 157.116 40.0215C157.918 39.4362 158.839 39.0982 159.876 39.0077C160.782 38.9286 161.587 39.0424 162.291 39.349C163.009 39.6543 163.597 40.0668 164.055 40.5863L163.904 38.8549L166.994 38.5852L168.054 50.727L164.964 50.9967L164.809 49.2215C164.464 49.8257 163.957 50.3484 163.289 50.7895C162.634 51.2147 161.854 51.4669 160.948 51.5459C159.925 51.6352 158.967 51.4538 158.074 51.0018C157.195 50.5485 156.466 49.8686 155.886 48.9623C155.32 48.04 154.983 46.9579 154.874 45.716ZM164.434 44.9258C164.369 44.1806 164.167 43.5578 163.829 43.0573C163.49 42.5422 163.059 42.1675 162.538 41.9333C162.016 41.6844 161.47 41.5848 160.9 41.6346C160.33 41.6843 159.816 41.869 159.359 42.1887C158.901 42.5084 158.542 42.9519 158.282 43.5193C158.036 44.0708 157.945 44.7119 158.008 45.4424C158.072 46.173 158.274 46.8031 158.615 47.3328C158.969 47.8467 159.4 48.2287 159.908 48.4788C160.43 48.7277 160.969 48.8279 161.524 48.7794C162.094 48.7297 162.615 48.5443 163.087 48.2234C163.559 47.8878 163.917 47.4442 164.164 46.8927C164.409 46.3266 164.499 45.671 164.434 44.9258ZM175.714 50.2572C174.721 50.3439 173.814 50.2463 172.994 49.9645C172.174 49.6681 171.503 49.2335 170.981 48.6606C170.475 48.0865 170.167 47.4288 170.058 46.6874L173.149 46.4177C173.248 46.8802 173.508 47.2476 173.929 47.52C174.365 47.7911 174.883 47.9005 175.482 47.8482C176.066 47.7972 176.509 47.6408 176.81 47.379C177.126 47.1159 177.268 46.8017 177.236 46.4364C177.201 46.0419 176.971 45.7675 176.546 45.6133C176.133 45.4432 175.478 45.2795 174.581 45.1222C173.656 44.9821 172.891 44.8207 172.287 44.6379C171.696 44.4539 171.168 44.1392 170.703 43.6941C170.251 43.2476 169.99 42.6153 169.919 41.797C169.86 41.1249 169.996 40.4947 170.328 39.9063C170.674 39.3166 171.191 38.8299 171.879 38.4459C172.581 38.0607 173.422 37.8254 174.401 37.74C175.847 37.6137 177.034 37.8782 177.959 38.5336C178.884 39.1743 179.444 40.1045 179.638 41.3241L176.701 41.5805C176.616 41.1021 176.378 40.7401 175.988 40.4944C175.612 40.2327 175.125 40.1281 174.526 40.1804C173.97 40.2288 173.548 40.3687 173.259 40.6C172.985 40.8301 172.864 41.1278 172.895 41.4931C172.931 41.9022 173.163 42.1985 173.591 42.3819C174.018 42.5508 174.672 42.7071 175.554 42.8511C176.449 42.9937 177.192 43.1571 177.783 43.3411C178.373 43.5252 178.894 43.8477 179.347 44.3088C179.813 44.754 180.088 45.3777 180.173 46.1801C180.234 46.8814 180.091 47.5269 179.745 48.1166C179.414 48.7049 178.897 49.1917 178.194 49.5769C177.505 49.9463 176.679 50.173 175.714 50.2572ZM188.756 36.5091C189.677 36.4287 190.513 36.5619 191.265 36.9085C192.015 37.2405 192.622 37.7838 193.085 38.5384C193.562 39.2771 193.848 40.1943 193.944 41.2902L194.566 48.4131L191.497 48.6809L190.912 41.9744C190.828 41.01 190.522 40.2932 189.995 39.8239C189.467 39.34 188.787 39.1344 187.954 39.2071C187.107 39.281 186.457 39.6027 186.007 40.1721C185.569 40.7255 185.392 41.4844 185.477 42.4488L186.062 49.1553L182.994 49.4231L181.578 33.2047L184.646 32.9369L185.134 38.5257C185.483 37.9653 185.973 37.5102 186.605 37.1606C187.236 36.7964 187.953 36.5792 188.756 36.5091ZM208.114 47.4293C206.946 47.5313 205.871 47.3674 204.891 46.9377C203.91 46.4933 203.108 45.8198 202.485 44.9173C201.876 44.0135 201.517 42.9406 201.409 41.6986C201.3 40.4567 201.475 39.3373 201.933 38.3404C202.405 37.3422 203.094 36.5459 203.999 35.9517C204.903 35.3428 205.939 34.9873 207.108 34.8853C208.277 34.7833 209.359 34.9538 210.355 35.3969C211.349 35.8254 212.158 36.491 212.781 37.3935C213.42 38.2948 213.793 39.3664 213.901 40.6083C214.01 41.8502 213.82 42.971 213.333 43.9704C212.861 44.9686 212.166 45.7728 211.247 46.3829C210.342 46.9772 209.298 47.326 208.114 47.4293ZM207.881 44.7555C208.436 44.707 208.943 44.5302 209.403 44.2251C209.875 43.9042 210.234 43.4606 210.479 42.8945C210.724 42.3284 210.813 41.6581 210.745 40.8838C210.645 39.7295 210.261 38.8723 209.593 38.3122C208.939 37.7362 208.174 37.4864 207.297 37.563C206.421 37.6395 205.71 38.018 205.166 38.6986C204.635 39.3633 204.42 40.2727 204.521 41.427C204.622 42.5813 204.984 43.4477 205.609 44.0262C206.247 44.5889 207.004 44.832 207.881 44.7555ZM221.409 36.3755L219.283 36.561L220.123 46.1825L217.011 46.4541L216.171 36.8327L214.79 36.9532L214.57 34.4328L215.951 34.3122L215.897 33.6986C215.767 32.2082 216.095 31.0754 216.882 30.3001C217.668 29.5248 218.918 29.0845 220.631 28.9791L220.857 31.5653C220.11 31.6157 219.602 31.7852 219.333 32.0737C219.064 32.3622 218.959 32.8498 219.019 33.5365L219.063 34.0406L221.189 33.8551L221.409 36.3755ZM228.964 35.7161L226.838 35.9016L227.678 45.523L224.566 45.7947L223.726 36.1732L222.345 36.2938L222.125 33.7733L223.506 33.6528L223.453 33.0392C223.323 31.5488 223.651 30.416 224.437 29.6407C225.223 28.8654 226.473 28.4251 228.186 28.3197L228.412 30.9059C227.665 30.9563 227.158 31.1258 226.888 31.4143C226.619 31.7028 226.514 32.1904 226.574 32.8771L226.618 33.3812L228.744 33.1956L228.964 35.7161ZM242.527 37.8449C242.565 38.2832 242.57 38.6803 242.542 39.036L233.666 39.8108C233.816 40.681 234.182 41.341 234.766 41.7906C235.35 42.2402 236.037 42.4305 236.826 42.3617C237.965 42.2622 238.734 41.702 239.13 40.6809L242.44 40.3921C242.191 41.5916 241.603 42.6146 240.676 43.4611C239.747 44.293 238.56 44.772 237.113 44.8983C235.945 45.0003 234.87 44.8364 233.89 44.4066C232.924 43.961 232.136 43.2863 231.528 42.3824C230.933 41.4773 230.582 40.4038 230.474 39.1619C230.364 37.9053 230.523 36.7799 230.952 35.7855C231.38 34.7912 232.032 33.9981 232.908 33.4064C233.784 32.8147 234.821 32.4665 236.019 32.3619C237.174 32.2612 238.225 32.4197 239.175 32.8374C240.138 33.2538 240.909 33.9006 241.486 34.7778C242.076 35.639 242.423 36.6614 242.527 37.8449ZM239.272 37.2456C239.189 36.4579 238.849 35.8545 238.253 35.4354C237.656 35.0017 236.955 34.8199 236.152 34.89C235.392 34.9563 234.769 35.2462 234.284 35.7597C233.812 36.2573 233.554 36.9203 233.508 37.7487L239.272 37.2456ZM247.492 33.4585C247.831 32.7812 248.298 32.2325 248.894 31.8124C249.505 31.391 250.22 31.1446 251.038 31.0732L251.319 34.2949L250.509 34.3657C249.544 34.4499 248.833 34.7401 248.376 35.2364C247.934 35.7314 247.761 36.5415 247.859 37.6665L248.387 43.7155L245.319 43.9833L244.259 31.8415L247.328 31.5737L247.492 33.4585ZM258.843 43.0017C257.85 43.0884 256.943 42.9909 256.124 42.7091C255.303 42.4127 254.632 41.978 254.111 41.4052C253.604 40.831 253.297 40.1733 253.188 39.4319L256.278 39.1622C256.377 39.6247 256.637 39.9921 257.059 40.2645C257.495 40.5356 258.012 40.6451 258.611 40.5928C259.196 40.5418 259.638 40.3853 259.939 40.1235C260.255 39.8604 260.397 39.5462 260.365 39.1809C260.331 38.7864 260.101 38.5121 259.675 38.3578C259.263 38.1877 258.608 38.024 257.711 37.8667C256.786 37.7266 256.021 37.5652 255.416 37.3824C254.826 37.1984 254.298 36.8838 253.832 36.4386C253.381 35.9921 253.119 35.3598 253.048 34.5416C252.989 33.8695 253.126 33.2392 253.457 32.6508C253.803 32.0612 254.32 31.5744 255.008 31.1905C255.71 30.8052 256.551 30.5699 257.53 30.4845C258.977 30.3582 260.163 30.6228 261.089 31.2781C262.013 31.9188 262.573 32.849 262.768 34.0687L259.831 34.325C259.745 33.8466 259.507 33.4846 259.118 33.2389C258.741 32.9773 258.254 32.8726 257.655 32.9249C257.1 32.9733 256.678 33.1132 256.389 33.3446C256.114 33.5746 255.993 33.8723 256.025 34.2376C256.06 34.6467 256.292 34.943 256.721 35.1264C257.148 35.2953 257.802 35.4517 258.683 35.5956C259.579 35.7383 260.322 35.9016 260.912 36.0856C261.502 36.2697 262.024 36.5922 262.476 37.0533C262.942 37.4985 263.217 38.1223 263.302 38.9246C263.363 39.6259 263.221 40.2714 262.875 40.8611C262.543 41.4495 262.026 41.9363 261.324 42.3215C260.635 42.6908 259.808 42.9175 258.843 43.0017Z" fill="#1F262E"/>
</svg>
