<svg width="351" height="157" viewBox="0 0 351 157" fill="none" xmlns="http://www.w3.org/2000/svg">
<rect x="58.1406" y="29.6599" width="279.744" height="57.711" fill="#40FF62"/>
<path d="M81.8671 57.2947C81.8737 55.6467 82.2476 54.1762 82.9888 52.8831C83.746 51.5742 84.7661 50.5622 86.0489 49.8474C87.3479 49.1165 88.7973 48.7543 90.3973 48.7607C92.2693 48.7682 93.9074 49.2548 95.3115 50.2204C96.7157 51.186 97.6944 52.518 98.2476 54.2162L94.3836 54.2007C94.0028 53.3992 93.4612 52.797 92.7588 52.3942C92.0724 51.9915 91.2732 51.7883 90.3612 51.7846C89.3852 51.7807 88.5123 52.0092 87.7425 52.4702C86.9887 52.9151 86.3941 53.5528 85.9588 54.383C85.5395 55.2134 85.3276 56.1885 85.3231 57.3085C85.3187 58.4125 85.5228 59.3893 85.9354 60.239C86.3641 61.0727 86.9535 61.7231 87.7036 62.1901C88.4698 62.6411 89.3409 62.8686 90.3169 62.8725C91.2289 62.8762 92.0297 62.6794 92.7193 62.2821C93.4249 61.869 93.9714 61.2631 94.3585 60.4647L98.2225 60.4801C97.6557 62.1899 96.6663 63.5219 95.2545 64.4763C93.8587 65.4147 92.2169 65.8802 90.3289 65.8726C88.7289 65.8662 87.2824 65.5004 85.9892 64.7752C84.7122 64.0341 83.7003 63.0141 82.9535 61.7151C82.2226 60.4161 81.8605 58.9427 81.8671 57.2947ZM106.974 66.0112C105.694 66.0061 104.543 65.7214 103.522 65.1574C102.5 64.5773 101.695 63.766 101.107 62.7237C100.536 61.6814 100.252 60.4802 100.258 59.1203C100.263 57.7603 100.564 56.5615 101.16 55.5238C101.772 54.4863 102.6 53.6896 103.642 53.1337C104.684 52.5619 105.845 52.2785 107.125 52.2837C108.405 52.2888 109.564 52.5814 110.602 53.1616C111.64 53.7257 112.452 54.529 113.04 55.5713C113.644 56.6138 113.943 57.815 113.938 59.175C113.932 60.535 113.616 61.7337 112.987 62.7712C112.375 63.8088 111.54 64.6134 110.482 65.1852C109.439 65.741 108.27 66.0164 106.974 66.0112ZM106.986 63.0832C107.594 63.0856 108.163 62.9439 108.692 62.658C109.237 62.3562 109.671 61.9099 109.993 61.3192C110.315 60.7285 110.478 60.0091 110.482 59.1611C110.487 57.8972 110.155 56.9278 109.485 56.2531C108.832 55.5625 108.026 55.2153 107.066 55.2115C106.106 55.2076 105.296 55.5484 104.637 56.2337C103.995 56.9032 103.671 57.8699 103.666 59.1339C103.661 60.3979 103.969 61.3751 104.59 62.0656C105.227 62.7402 106.026 63.0794 106.986 63.0832ZM132.942 52.4109C134.574 52.4174 135.884 52.9267 136.872 53.9386C137.876 54.9347 138.374 56.3287 138.367 58.1207L138.336 65.9206L134.976 65.9072L135.005 58.5632C135.009 57.5232 134.748 56.7302 134.223 56.1841C133.697 55.622 132.978 55.3391 132.066 55.3354C131.154 55.3318 130.425 55.6089 129.879 56.1667C129.348 56.7086 129.081 57.4995 129.077 58.5395L129.048 65.8834L125.688 65.87L125.717 58.5261C125.721 57.4861 125.46 56.693 124.935 56.1469C124.409 55.5848 123.69 55.3019 122.778 55.2983C121.85 55.2946 121.113 55.5716 120.567 56.1294C120.036 56.6713 119.769 57.4623 119.765 58.5023L119.736 65.8462L116.376 65.8328L116.429 52.5369L119.789 52.5503L119.783 54.1583C120.217 53.6 120.771 53.1622 121.444 52.8449C122.133 52.5277 122.886 52.3707 123.702 52.374C124.742 52.3781 125.669 52.6058 126.483 53.0571C127.297 53.4923 127.927 54.1189 128.371 54.9367C128.807 54.1704 129.433 53.5569 130.251 53.0962C131.085 52.6355 131.982 52.4071 132.942 52.4109ZM144.93 54.5709C145.364 53.9646 145.958 53.463 146.712 53.066C147.481 52.6531 148.354 52.4485 149.33 52.4524C150.466 52.457 151.489 52.7411 152.399 53.3047C153.324 53.8684 154.049 54.6713 154.573 55.7134C155.113 56.7396 155.38 57.9327 155.375 59.2927C155.369 60.6527 155.092 61.8596 154.544 62.9134C154.012 63.9513 153.281 64.7563 152.351 65.3286C151.436 65.901 150.411 66.1849 149.275 66.1803C148.299 66.1764 147.436 65.973 146.686 65.57C145.951 65.167 145.353 64.6606 144.892 64.0508L144.859 72.2827L141.499 72.2693L141.577 52.6374L144.937 52.6509L144.93 54.5709ZM151.943 59.279C151.946 58.479 151.781 57.7903 151.447 57.213C151.129 56.6197 150.699 56.17 150.156 55.8638C149.63 55.5577 149.054 55.4034 148.43 55.4009C147.822 55.3984 147.246 55.5561 146.7 55.874C146.171 56.1758 145.737 56.6221 145.399 57.2128C145.077 57.8035 144.914 58.4988 144.911 59.2988C144.907 60.0988 145.065 60.7955 145.382 61.3887C145.716 61.9821 146.146 62.4398 146.673 62.7619C147.216 63.0681 147.791 63.2224 148.399 63.2248C149.023 63.2273 149.6 63.0696 150.129 62.7517C150.674 62.4339 151.108 61.9796 151.43 61.3889C151.769 60.7983 151.939 60.0949 151.943 59.279ZM161.221 48.252L161.15 66.0118L157.79 65.9984L157.861 48.2385L161.221 48.252ZM176.857 59.1386C176.855 59.6186 176.821 60.0504 176.756 60.4342L167.036 60.3953C167.112 61.3556 167.445 62.109 168.035 62.6553C168.625 63.2017 169.351 63.4766 170.215 63.4801C171.463 63.485 172.354 62.9526 172.886 61.8827L176.51 61.8972C176.121 63.1757 175.38 64.2287 174.289 65.0564C173.198 65.868 171.86 66.2707 170.276 66.2643C168.996 66.2592 167.845 65.9746 166.824 65.4105C165.818 64.8305 165.029 64.0193 164.457 62.977C163.902 61.9348 163.626 60.7337 163.632 59.3737C163.637 57.9977 163.922 56.7908 164.486 55.7531C165.05 54.7153 165.838 53.9185 166.848 53.3625C167.858 52.8065 169.019 52.5312 170.331 52.5364C171.595 52.5415 172.722 52.818 173.712 53.366C174.718 53.914 175.491 54.6931 176.031 55.7033C176.587 56.6975 176.862 57.8426 176.857 59.1386ZM173.381 58.1647C173.368 57.3006 173.059 56.6114 172.453 56.0969C171.847 55.5665 171.104 55.2995 170.224 55.296C169.392 55.2927 168.687 55.5459 168.109 56.0556C167.547 56.5493 167.2 57.244 167.069 58.1394L173.381 58.1647ZM183.236 55.5641L183.21 61.996C183.208 62.444 183.311 62.7724 183.518 62.9813C183.741 63.1741 184.109 63.2716 184.621 63.2737L186.181 63.2799L186.17 66.1119L184.058 66.1034C181.226 66.0921 179.815 64.7105 179.826 61.9585L179.852 55.5505L178.268 55.5442L178.279 52.7842L179.863 52.7906L179.876 49.5026L183.26 49.5161L183.247 52.8041L186.223 52.816L186.212 55.576L183.236 55.5641ZM200.974 59.235C200.972 59.715 200.938 60.1469 200.873 60.5306L191.153 60.4918C191.229 61.4521 191.562 62.2054 192.152 62.7518C192.742 63.2981 193.468 63.5731 194.332 63.5765C195.58 63.5815 196.471 63.0491 197.003 61.9792L200.627 61.9937C200.238 63.2721 199.497 64.3252 198.406 65.1528C197.315 65.9645 195.977 66.3671 194.393 66.3608C193.113 66.3557 191.962 66.071 190.941 65.507C189.935 64.9269 189.146 64.1158 188.574 63.0735C188.019 62.0312 187.743 60.8301 187.749 59.4701C187.754 58.0942 188.039 56.8873 188.603 55.8495C189.167 54.8118 189.955 54.0149 190.965 53.459C191.975 52.903 193.136 52.6276 194.448 52.6329C195.712 52.6379 196.839 52.9144 197.829 53.4624C198.835 54.0104 199.608 54.7895 200.148 55.7997C200.704 56.7939 200.979 57.939 200.974 59.235ZM197.498 58.2611C197.485 57.3971 197.176 56.7078 196.57 56.1934C195.964 55.663 195.221 55.396 194.341 55.3925C193.509 55.3891 192.804 55.6423 192.226 56.152C191.664 56.6458 191.317 57.3404 191.186 58.2359L197.498 58.2611ZM213.071 55.6834L213.046 62.1153C213.044 62.5633 213.147 62.8917 213.354 63.1006C213.577 63.2935 213.945 63.3909 214.457 63.393L216.017 63.3992L216.005 66.2312L213.893 66.2228C211.061 66.2114 209.651 64.8298 209.662 62.0778L209.687 55.6698L208.103 55.6635L208.114 52.9035L209.698 52.9099L209.712 49.6219L213.096 49.6354L213.082 52.9234L216.058 52.9353L216.047 55.6953L213.071 55.6834ZM225.964 52.7829C226.972 52.7869 227.867 53.0145 228.649 53.4657C229.431 53.9008 230.037 54.5512 230.465 55.4169C230.91 56.2667 231.13 57.2916 231.125 58.4916L231.094 66.2915L227.734 66.2781L227.763 58.9342C227.767 57.8782 227.507 57.0691 226.981 56.507C226.455 55.9289 225.736 55.638 224.824 55.6344C223.896 55.6307 223.159 55.9157 222.613 56.4895C222.083 57.0474 221.815 57.8544 221.811 58.9104L221.782 66.2543L218.422 66.2409L218.493 48.481L221.853 48.4944L221.828 54.6144C222.263 54.0401 222.84 53.5944 223.562 53.2773C224.283 52.9442 225.084 52.7794 225.964 52.7829ZM246.677 59.4178C246.675 59.8978 246.641 60.3297 246.575 60.7134L236.855 60.6745C236.932 61.6348 237.265 62.3882 237.854 62.9345C238.444 63.4809 239.171 63.7558 240.035 63.7593C241.283 63.7643 242.173 63.2318 242.706 62.1619L246.33 62.1764C245.94 63.4549 245.2 64.5079 244.109 65.3356C243.018 66.1472 241.68 66.5499 240.096 66.5435C238.816 66.5384 237.665 66.2538 236.643 65.6897C235.638 65.1097 234.849 64.2985 234.277 63.2562C233.721 62.214 233.446 61.0129 233.452 59.6529C233.457 58.2769 233.742 57.0701 234.306 56.0323C234.87 54.9946 235.657 54.1977 236.668 53.6417C237.678 53.0858 238.839 52.8104 240.151 52.8157C241.415 52.8207 242.542 53.0972 243.532 53.6452C244.537 54.1932 245.31 54.9723 245.85 55.9825C246.406 56.9767 246.682 58.1218 246.677 59.4178ZM243.2 58.4439C243.188 57.5798 242.879 56.8906 242.273 56.3762C241.667 55.8457 240.924 55.5788 240.044 55.5752C239.212 55.5719 238.507 55.8251 237.929 56.3348C237.367 56.8286 237.02 57.5232 236.888 58.4186L243.2 58.4439ZM260.958 55.8749L258.63 55.8656L258.588 66.4015L255.18 66.3879L255.222 55.8519L253.71 55.8459L253.721 53.0859L255.233 53.092L255.236 52.42C255.242 50.788 255.711 49.5899 256.642 48.8256C257.573 48.0613 258.975 47.7069 260.847 47.7624L260.835 50.5944C260.019 50.5751 259.451 50.7088 259.13 50.9955C258.808 51.2823 258.646 51.8016 258.643 52.5536L258.641 53.1056L260.969 53.1149L260.958 55.8749ZM268.996 66.6591C267.716 66.654 266.566 66.3694 265.544 65.8053C264.522 65.2252 263.717 64.414 263.13 63.3716C262.558 62.3293 262.275 61.1282 262.28 59.7682C262.285 58.4082 262.586 57.2094 263.182 56.1718C263.795 55.1342 264.622 54.3375 265.664 53.7817C266.706 53.2099 267.867 52.9265 269.147 52.9316C270.427 52.9367 271.586 53.2294 272.624 53.8095C273.662 54.3737 274.474 55.1769 275.062 56.2193C275.666 57.2617 275.965 58.4629 275.96 59.8229C275.954 61.1829 275.638 62.3816 275.009 63.4191C274.397 64.4567 273.562 65.2614 272.504 65.8331C271.462 66.389 270.292 66.6643 268.996 66.6591ZM269.008 63.7311C269.616 63.7336 270.185 63.5918 270.714 63.306C271.259 63.0041 271.693 62.5579 272.015 61.9672C272.338 61.3764 272.501 60.6571 272.504 59.8091C272.509 58.5451 272.177 57.5758 271.508 56.9011C270.854 56.2105 270.048 55.8632 269.088 55.8594C268.128 55.8556 267.318 56.1963 266.66 56.8817C266.017 57.5511 265.693 58.5178 265.688 59.7818C265.683 61.0458 265.991 62.0231 266.612 62.7136C267.25 63.3881 268.048 63.7273 269.008 63.7311ZM281.803 55.2622C282.238 54.56 282.8 54.0102 283.489 53.613C284.195 53.2158 284.996 53.019 285.892 53.0226L285.878 56.5505L284.99 56.547C283.934 56.5428 283.133 56.7876 282.587 57.2814C282.057 57.7753 281.789 58.6382 281.784 59.8702L281.758 66.4942L278.398 66.4807L278.451 53.1848L281.811 53.1983L281.803 55.2622ZM304.667 53.0977C306.299 53.1042 307.609 53.6134 308.597 54.6254C309.601 55.6214 310.099 57.0154 310.092 58.8074L310.061 66.6073L306.701 66.5939L306.73 59.25C306.734 58.21 306.474 57.4169 305.948 56.8708C305.422 56.3087 304.703 56.0258 303.791 56.0222C302.879 56.0185 302.15 56.2956 301.604 56.8534C301.074 57.3953 300.806 58.1863 300.802 59.2263L300.773 66.5702L297.413 66.5568L297.442 59.2128C297.446 58.1728 297.186 57.3798 296.66 56.8337C296.134 56.2716 295.415 55.9887 294.503 55.985C293.575 55.9813 292.838 56.2584 292.292 56.8162C291.762 57.3581 291.495 58.149 291.49 59.189L291.461 66.533L288.101 66.5195L288.154 53.2236L291.514 53.2371L291.508 54.845C291.942 54.2868 292.496 53.849 293.169 53.5317C293.858 53.2144 294.611 53.0574 295.427 53.0607C296.467 53.0649 297.394 53.2926 298.208 53.7438C299.022 54.1791 299.652 54.8056 300.097 55.6234C300.532 54.8571 301.158 54.2436 301.976 53.7829C302.81 53.3222 303.707 53.0938 304.667 53.0977Z" fill="#1F262E"/>
<rect x="12.8975" y="98.5974" width="279.744" height="57.711" transform="rotate(-4.16567 12.8975 98.5974)" fill="#1E93FF"/>
<path d="M56.6003 131.744L54.6543 130.077C53.2039 131.574 51.3615 132.402 49.1271 132.559C47.8981 132.646 46.7982 132.515 45.8273 132.166C44.8712 131.801 44.1108 131.253 43.5461 130.523C42.9803 129.777 42.6614 128.893 42.5894 127.871C42.5118 126.77 42.7534 125.759 43.314 124.837C43.8746 123.915 44.7423 123.14 45.917 122.512C45.449 122.016 45.1023 121.535 44.8771 121.07C44.6507 120.588 44.5178 120.068 44.4785 119.51C44.4245 118.744 44.5756 118.043 44.9319 117.409C45.2871 116.758 45.8194 116.231 46.5288 115.829C47.2542 115.425 48.1117 115.188 49.1012 115.118C50.1067 115.047 50.9821 115.178 51.7273 115.51C52.4725 115.843 53.0432 116.316 53.4393 116.93C53.8354 117.543 54.0371 118.243 54.0443 119.028L50.7883 119.258C50.7672 118.73 50.6114 118.34 50.321 118.088C50.0294 117.82 49.6522 117.702 49.1893 117.734C48.7424 117.766 48.3769 117.928 48.0928 118.221C47.8235 118.496 47.7035 118.842 47.7327 119.256C47.7608 119.656 47.9086 120.046 48.1761 120.428C48.4425 120.794 48.8673 121.246 49.4504 121.782L53.9575 125.651C53.9872 125.617 54.0089 125.583 54.0226 125.55C54.0363 125.517 54.05 125.484 54.0637 125.451L55.2681 123.08L58.7634 122.834L57.295 125.897C57.0197 126.542 56.7181 127.157 56.3904 127.741L60.7181 131.454L56.6003 131.744ZM49.0272 129.776C50.3359 129.683 51.4605 129.139 52.4007 128.142L47.9962 124.363C46.4964 125.158 45.7909 126.186 45.8797 127.447C45.9303 128.165 46.2444 128.753 46.8219 129.209C47.3983 129.65 48.1334 129.838 49.0272 129.776ZM73.1728 130.793C72.0875 130.87 71.1004 130.747 70.2116 130.424C69.3216 130.086 68.5977 129.6 68.0397 128.965C67.4977 128.33 67.1741 127.607 67.0688 126.796L70.4445 126.558C70.5443 127.065 70.8215 127.47 71.276 127.775C71.7465 128.079 72.309 128.207 72.9634 128.161C73.6018 128.116 74.0876 127.954 74.4207 127.674C74.7698 127.392 74.9303 127.052 74.9022 126.653C74.8718 126.222 74.6259 125.919 74.1644 125.743C73.7177 125.55 73.0065 125.359 72.0309 125.171C71.0245 125.002 70.1931 124.812 69.5367 124.601C68.8962 124.39 68.326 124.037 67.8261 123.543C67.3421 123.048 67.0686 122.353 67.0056 121.459C66.9539 120.725 67.1141 120.04 67.4864 119.405C67.8746 118.768 68.4474 118.246 69.2047 117.84C69.978 117.433 70.8993 117.191 71.9686 117.116C73.5487 117.005 74.8377 117.315 75.8356 118.046C76.8324 118.762 77.4258 119.787 77.6161 121.121L74.408 121.347C74.323 120.824 74.0703 120.424 73.65 120.149C73.2444 119.857 72.7145 119.734 72.0601 119.78C71.4536 119.823 70.9906 119.968 70.6712 120.215C70.3677 120.461 70.2301 120.783 70.2582 121.182C70.2897 121.629 70.5373 121.956 71.001 122.164C71.4637 122.356 72.1743 122.539 73.1328 122.712C74.1073 122.884 74.9148 123.076 75.5552 123.287C76.1957 123.499 76.7584 123.86 77.2436 124.371C77.7435 124.865 78.0324 125.551 78.1102 126.427C78.1642 127.193 77.9971 127.895 77.6089 128.532C77.2366 129.167 76.6639 129.689 75.8906 130.096C75.1321 130.487 74.2262 130.719 73.1728 130.793ZM79.7989 123.445C79.7022 122.073 79.8972 120.856 80.3839 119.795C80.8694 118.718 81.5872 117.866 82.5374 117.237C83.4865 116.593 84.5994 116.226 85.8763 116.136C87.5202 116.02 88.9061 116.34 90.0339 117.094C91.1766 117.832 91.9837 118.93 92.4554 120.388L88.8403 120.643C88.6083 120.082 88.2497 119.658 87.7643 119.371C87.2938 119.068 86.7234 118.939 86.0531 118.987C85.0954 119.054 84.362 119.459 83.8529 120.2C83.3426 120.926 83.1325 121.927 83.2225 123.204C83.3113 124.465 83.6598 125.427 84.2678 126.09C84.8748 126.737 85.6571 127.026 86.6147 126.959C87.9714 126.863 88.8144 126.194 89.144 124.952L92.759 124.697C92.4931 126.16 91.8473 127.352 90.8216 128.274C89.7959 129.197 88.469 129.715 86.8411 129.83C85.5642 129.92 84.4114 129.721 83.3825 129.232C82.3524 128.727 81.5221 127.983 80.8916 127.001C80.2599 126.003 79.8956 124.818 79.7989 123.445ZM102.051 115.02C103.057 114.95 103.966 115.11 104.78 115.502C105.592 115.878 106.244 116.481 106.736 117.313C107.243 118.127 107.538 119.133 107.622 120.33L108.17 128.111L104.819 128.347L104.303 121.021C104.228 119.968 103.908 119.18 103.342 118.659C102.775 118.121 102.037 117.885 101.127 117.949C100.201 118.014 99.4872 118.353 98.9851 118.966C98.4977 119.561 98.2912 120.386 98.3654 121.439L98.8815 128.765L95.5298 129.001L94.2816 111.285L97.6333 111.049L98.0635 117.154C98.4539 116.549 98.997 116.062 99.6927 115.692C100.387 115.306 101.174 115.082 102.051 115.02ZM123.2 120.099C123.233 120.578 123.232 121.011 123.195 121.398L113.499 122.081C113.646 123.033 114.034 123.76 114.663 124.261C115.292 124.762 116.037 124.982 116.899 124.921C118.144 124.834 118.992 124.237 119.444 123.13L123.059 122.876C122.765 124.179 122.106 125.284 121.079 126.191C120.051 127.081 118.747 127.582 117.167 127.694C115.89 127.783 114.721 127.585 113.66 127.098C112.614 126.595 111.767 125.844 111.12 124.847C110.488 123.849 110.124 122.672 110.029 121.315C109.932 119.943 110.126 118.718 110.612 117.641C111.097 116.565 111.823 115.711 112.789 115.082C113.756 114.453 114.893 114.092 116.202 113.999C117.463 113.911 118.607 114.103 119.635 114.576C120.679 115.047 121.507 115.767 122.121 116.734C122.749 117.684 123.109 118.806 123.2 120.099ZM119.661 119.386C119.584 118.525 119.225 117.861 118.582 117.393C117.939 116.909 117.178 116.698 116.3 116.759C115.47 116.818 114.786 117.123 114.247 117.674C113.723 118.208 113.429 118.927 113.364 119.829L119.661 119.386ZM124.801 120.226C124.707 118.886 124.886 117.678 125.34 116.604C125.809 115.528 126.487 114.678 127.374 114.054C128.26 113.431 129.27 113.079 130.403 112.999C131.265 112.938 132.1 113.072 132.909 113.4C133.717 113.712 134.375 114.163 134.881 114.753L134.438 108.456L137.837 108.217L139.086 125.933L135.686 126.172L135.548 124.209C135.179 124.893 134.633 125.46 133.911 125.912C133.189 126.364 132.334 126.625 131.344 126.695C130.227 126.773 129.185 126.558 128.219 126.049C127.253 125.539 126.462 124.785 125.846 123.786C125.245 122.77 124.897 121.583 124.801 120.226ZM135.243 119.539C135.185 118.725 134.977 118.042 134.617 117.49C134.256 116.922 133.794 116.505 133.23 116.24C132.665 115.959 132.071 115.841 131.448 115.885C130.826 115.928 130.262 116.121 129.757 116.461C129.251 116.801 128.852 117.279 128.558 117.893C128.28 118.49 128.168 119.187 128.225 119.985C128.281 120.783 128.49 121.474 128.852 122.058C129.229 122.625 129.692 123.05 130.241 123.332C130.806 123.613 131.392 123.732 131.998 123.689C132.621 123.645 133.193 123.453 133.714 123.111C134.234 122.754 134.634 122.277 134.912 121.679C135.19 121.066 135.3 120.353 135.243 119.539ZM153.946 111.557L154.88 124.82L151.504 125.058L151.386 123.382C150.996 123.987 150.461 124.482 149.783 124.866C149.119 125.234 148.38 125.446 147.566 125.504C146.529 125.577 145.596 125.426 144.767 125.051C143.938 124.661 143.262 124.059 142.739 123.245C142.232 122.415 141.936 121.409 141.853 120.228L141.305 112.447L144.657 112.211L145.171 119.513C145.245 120.567 145.566 121.362 146.133 121.899C146.699 122.421 147.437 122.65 148.347 122.586C149.273 122.52 149.979 122.19 150.466 121.594C150.953 120.982 151.159 120.15 151.084 119.097L150.57 111.795L153.946 111.557ZM160.291 106.635L161.539 124.351L158.187 124.587L156.939 106.871L160.291 106.635ZM176.692 116.33C176.726 116.809 176.724 117.242 176.687 117.629L166.992 118.313C167.139 119.265 167.527 119.991 168.156 120.492C168.784 120.993 169.53 121.213 170.392 121.153C171.636 121.065 172.485 120.468 172.936 119.361L176.551 119.107C176.258 120.411 175.598 121.516 174.571 122.422C173.543 123.313 172.239 123.813 170.659 123.925C169.382 124.015 168.213 123.816 167.153 123.33C166.107 122.826 165.26 122.076 164.612 121.079C163.98 120.081 163.617 118.903 163.521 117.547C163.424 116.174 163.619 114.949 164.104 113.873C164.59 112.796 165.316 111.943 166.282 111.313C167.248 110.684 168.385 110.323 169.694 110.231C170.955 110.142 172.099 110.334 173.127 110.807C174.171 111.279 175 111.998 175.613 112.965C176.241 113.916 176.601 115.037 176.692 116.33ZM173.153 115.617C173.077 114.756 172.717 114.092 172.075 113.624C171.431 113.14 170.67 112.929 169.792 112.991C168.962 113.049 168.278 113.354 167.74 113.905C167.216 114.439 166.922 115.158 166.857 116.061L173.153 115.617ZM183.998 116.056C183.904 114.715 184.083 113.508 184.537 112.433C185.006 111.357 185.676 110.508 186.547 109.885C187.433 109.262 188.443 108.91 189.576 108.83C190.566 108.76 191.442 108.899 192.204 109.246C192.982 109.592 193.616 110.053 194.106 110.628L193.972 108.737L197.348 108.499L198.283 121.762L194.907 122L194.77 120.061C194.383 120.713 193.821 121.274 193.084 121.743C192.362 122.195 191.507 122.456 190.517 122.526C189.4 122.604 188.358 122.389 187.392 121.88C186.442 121.369 185.659 120.614 185.043 119.615C184.442 118.599 184.094 117.412 183.998 116.056ZM194.44 115.368C194.382 114.554 194.174 113.871 193.814 113.319C193.453 112.751 192.991 112.335 192.427 112.07C191.862 111.789 191.268 111.67 190.645 111.714C190.023 111.758 189.459 111.95 188.954 112.29C188.448 112.631 188.049 113.108 187.755 113.722C187.477 114.319 187.365 115.017 187.422 115.815C187.478 116.613 187.687 117.304 188.049 117.888C188.426 118.455 188.889 118.879 189.438 119.161C190.003 119.442 190.589 119.561 191.195 119.519C191.818 119.475 192.39 119.282 192.911 118.941C193.431 118.583 193.831 118.106 194.109 117.509C194.387 116.896 194.497 116.182 194.44 115.368ZM205.932 114.559C205.835 113.186 206.03 111.969 206.517 110.908C207.002 109.832 207.72 108.979 208.67 108.351C209.619 107.706 210.732 107.339 212.009 107.249C213.653 107.134 215.039 107.453 216.167 108.208C217.309 108.945 218.116 110.043 218.588 111.502L214.973 111.756C214.741 111.195 214.382 110.771 213.897 110.485C213.426 110.181 212.856 110.053 212.186 110.1C211.228 110.168 210.495 110.572 209.986 111.314C209.475 112.039 209.265 113.041 209.355 114.317C209.444 115.578 209.792 116.54 210.4 117.203C211.007 117.85 211.79 118.14 212.747 118.072C214.104 117.977 214.947 117.308 215.277 116.066L218.892 115.811C218.626 117.273 217.98 118.466 216.954 119.388C215.929 120.31 214.602 120.829 212.974 120.943C211.697 121.033 210.544 120.834 209.515 120.345C208.485 119.84 207.655 119.097 207.024 118.115C206.393 117.117 206.028 115.931 205.932 114.559ZM220.33 113.496C220.236 112.155 220.415 110.948 220.869 109.873C221.338 108.798 222.008 107.948 222.879 107.326C223.765 106.702 224.775 106.35 225.908 106.27C226.898 106.2 227.773 106.339 228.536 106.687C229.314 107.033 229.948 107.493 230.438 108.068L230.304 106.177L233.68 105.939L234.614 119.202L231.239 119.44L231.102 117.501C230.715 118.154 230.153 118.715 229.416 119.184C228.694 119.635 227.838 119.896 226.849 119.966C225.732 120.045 224.69 119.829 223.724 119.32C222.773 118.809 221.991 118.055 221.375 117.055C220.774 116.039 220.426 114.853 220.33 113.496ZM230.772 112.809C230.714 111.995 230.506 111.312 230.146 110.759C229.785 110.191 229.323 109.775 228.759 109.51C228.194 109.229 227.6 109.11 226.977 109.154C226.355 109.198 225.791 109.39 225.286 109.73C224.78 110.071 224.381 110.548 224.087 111.162C223.809 111.759 223.697 112.457 223.754 113.255C223.81 114.053 224.019 114.744 224.381 115.328C224.758 115.895 225.221 116.319 225.77 116.601C226.335 116.882 226.921 117.002 227.527 116.959C228.15 116.915 228.722 116.722 229.243 116.381C229.763 116.023 230.162 115.546 230.441 114.949C230.719 114.336 230.829 113.623 230.772 112.809ZM239.991 101.019L241.24 118.735L237.888 118.972L236.64 101.256L239.991 101.019ZM246.655 100.55L247.903 118.266L244.551 118.502L243.303 100.786L246.655 100.55ZM252.71 118.096C252.104 118.138 251.588 117.99 251.163 117.651C250.753 117.295 250.529 116.838 250.489 116.279C250.45 115.721 250.609 115.244 250.966 114.85C251.338 114.439 251.827 114.212 252.434 114.169C253.024 114.128 253.525 114.285 253.935 114.641C254.344 114.981 254.568 115.431 254.607 115.989C254.646 116.548 254.488 117.032 254.132 117.442C253.775 117.836 253.301 118.054 252.71 118.096ZM252.012 108.184C251.406 108.227 250.89 108.079 250.465 107.74C250.055 107.384 249.83 106.927 249.791 106.368C249.752 105.809 249.91 105.333 250.268 104.939C250.64 104.528 251.129 104.301 251.735 104.258C252.326 104.216 252.826 104.374 253.236 104.73C253.645 105.07 253.869 105.519 253.909 106.078C253.948 106.636 253.79 107.121 253.434 107.531C253.076 107.925 252.603 108.143 252.012 108.184Z" fill="white"/>
</svg>
