<svg width="271" height="56" viewBox="0 0 271 56" fill="none" xmlns="http://www.w3.org/2000/svg">
<g clip-path="url(#clip0_2776_4893)">
<path d="M77.6182 43.1083L85.4823 42.6271C85.6525 43.8748 85.9992 44.8256 86.5223 45.4791C87.3736 46.5368 88.5902 47.0656 90.1714 47.0656C91.3514 47.0656 92.2575 46.7981 92.8901 46.2633C93.5347 45.7168 93.8572 45.0871 93.8572 44.3741C93.8572 43.6966 93.5529 43.0906 92.9449 42.5558C92.3366 42.0211 90.9256 41.5161 88.7118 41.0406C85.0869 40.2446 82.502 39.1868 80.9572 37.8678C79.4003 36.5488 78.6218 34.8673 78.6218 32.8233C78.6218 31.4803 79.0169 30.2148 79.8077 29.0266C80.6104 27.8263 81.8086 26.8876 83.4021 26.2101C85.0078 25.5209 87.2035 25.1763 89.989 25.1763C93.407 25.1763 96.0101 25.8001 97.7983 27.0478C99.5986 28.2838 100.669 30.2563 101.009 32.9658L93.2184 33.4116C93.0117 32.2351 92.5738 31.3793 91.9047 30.8446C91.248 30.3098 90.3357 30.0426 89.1678 30.0426C88.2069 30.0426 87.4832 30.2446 86.9967 30.6486C86.51 31.0408 86.2669 31.5221 86.2669 32.0923C86.2669 32.5083 86.4675 32.8826 86.8688 33.2153C87.2582 33.5601 88.1826 33.8808 89.6422 34.1781C93.255 34.9386 95.8399 35.7108 97.3968 36.4953C98.966 37.2676 100.103 38.2303 100.809 39.3828C101.527 40.5356 101.885 41.8251 101.885 43.2511C101.885 44.9266 101.411 46.4713 100.462 47.8856C99.5134 49.2996 98.1875 50.3751 96.4845 51.1118C94.7815 51.8368 92.6345 52.1991 90.0437 52.1991C85.4943 52.1991 82.3439 51.3436 80.5922 49.6323C78.8406 47.9211 77.8492 45.7466 77.6182 43.1083ZM124.841 44.0888H109.952C110.086 45.2533 110.408 46.1208 110.919 46.6913C111.637 47.5111 112.574 47.9211 113.729 47.9211C114.459 47.9211 115.152 47.7428 115.809 47.3863C116.21 47.1606 116.642 46.7626 117.105 46.1921L124.421 46.8516C123.302 48.7531 121.952 50.1196 120.371 50.9513C118.789 51.7713 116.521 52.1813 113.565 52.1813C110.998 52.1813 108.979 51.8308 107.507 51.1296C106.035 50.4166 104.813 49.2938 103.84 47.7608C102.879 46.2158 102.398 44.4036 102.398 42.3241C102.398 39.3651 103.365 36.9706 105.3 35.1406C107.246 33.3106 109.928 32.3956 113.346 32.3956C116.119 32.3956 118.309 32.8053 119.914 33.6253C121.52 34.4453 122.743 35.6338 123.582 37.1903C124.421 38.7471 124.841 40.7733 124.841 43.2688V44.0888ZM117.287 40.6128C117.141 39.2106 116.752 38.2066 116.119 37.6003C115.499 36.9943 114.678 36.6913 113.656 36.6913C112.476 36.6913 111.534 37.1488 110.828 38.0638C110.378 38.6343 110.092 39.4838 109.971 40.6128H117.287ZM126.266 25.6219H133.711V51.7536H126.266V25.6219ZM136.468 25.6219H143.912V51.7536H136.468V25.6219ZM169.698 51.7536V25.6219H183.474C186.028 25.6219 187.981 25.8358 189.331 26.2636C190.681 26.6913 191.77 27.4876 192.597 28.6521C193.424 29.8048 193.838 31.2131 193.838 32.8768C193.838 34.3266 193.521 35.5803 192.889 36.6378C192.256 37.6836 191.386 38.5333 190.28 39.1868C189.574 39.6028 188.607 39.9473 187.379 40.2208C188.364 40.5416 189.082 40.8623 189.531 41.1833C189.836 41.3971 190.274 41.8546 190.845 42.5558C191.429 43.2568 191.818 43.7976 192.013 44.1778L196.009 51.7536H186.667L182.251 43.7678C181.692 42.7341 181.193 42.0626 180.755 41.7536C180.159 41.3496 179.484 41.1476 178.73 41.1476H178V51.7536H169.698ZM178 36.2101H181.485C181.862 36.2101 182.592 36.0913 183.675 35.8536C184.222 35.7466 184.666 35.4733 185.007 35.0336C185.359 34.5938 185.536 34.0888 185.536 33.5186C185.536 32.6748 185.262 32.0271 184.715 31.5756C184.167 31.1238 183.139 30.8981 181.631 30.8981H178V36.2101ZM217.45 44.0888H202.561C202.695 45.2533 203.017 46.1208 203.528 46.6913C204.246 47.5111 205.183 47.9211 206.338 47.9211C207.068 47.9211 207.761 47.7428 208.418 47.3863C208.82 47.1606 209.251 46.7626 209.714 46.1921L217.03 46.8516C215.911 48.7531 214.561 50.1196 212.98 50.9513C211.399 51.7713 209.13 52.1813 206.174 52.1813C203.607 52.1813 201.588 51.8308 200.116 51.1296C198.645 50.4166 197.422 49.2938 196.449 47.7608C195.488 46.2158 195.007 44.4036 195.007 42.3241C195.007 39.3651 195.975 36.9706 197.909 35.1406C199.855 33.3106 202.537 32.3956 205.955 32.3956C208.728 32.3956 210.918 32.8053 212.524 33.6253C214.129 34.4453 215.352 35.6338 216.191 37.1903C217.03 38.7471 217.45 40.7733 217.45 43.2688V44.0888ZM209.896 40.6128C209.75 39.2106 209.361 38.2066 208.728 37.6003C208.108 36.9943 207.287 36.6913 206.265 36.6913C205.085 36.6913 204.143 37.1488 203.437 38.0638C202.987 38.6343 202.701 39.4838 202.58 40.6128H209.896ZM218.62 32.8233H225.535V35.9071C226.569 34.6473 227.615 33.7501 228.673 33.2153C229.732 32.6688 231.021 32.3956 232.542 32.3956C234.597 32.3956 236.203 32.9956 237.358 34.1958C238.526 35.3841 239.11 37.2261 239.11 39.7216V51.7536H231.648V41.3436C231.648 40.1553 231.423 39.3176 230.972 38.8303C230.522 38.3313 229.89 38.0816 229.075 38.0816C228.175 38.0816 227.445 38.4143 226.885 39.0798C226.326 39.7453 226.046 40.9396 226.046 42.6628V51.7536H218.62V32.8233ZM250.261 25.6219V32.8233H254.348V38.1173H250.261V44.8373C250.261 45.6456 250.34 46.1803 250.498 46.4416C250.741 46.8458 251.167 47.0478 251.775 47.0478C252.322 47.0478 253.089 46.8933 254.074 46.5843L254.621 51.5931C252.784 51.9853 251.069 52.1813 249.476 52.1813C247.627 52.1813 246.265 51.9496 245.389 51.4861C244.513 51.0228 243.862 50.3216 243.437 49.3828C243.023 48.4321 242.816 46.8991 242.816 44.7838V38.1173H240.079V32.8233H242.816V29.3473L250.261 25.6219Z" fill="#1E93FF"/>
<path d="M167.452 51.7536H145.155C145.411 49.6026 146.183 47.5826 147.472 45.6931C148.774 43.7916 151.207 41.5516 154.771 38.9728C156.948 37.3923 158.341 36.1923 158.949 35.3723C159.557 34.5523 159.861 33.7738 159.861 33.0371C159.861 32.2411 159.557 31.5636 158.949 31.0051C158.353 30.4348 157.599 30.1496 156.687 30.1496C155.738 30.1496 154.959 30.4406 154.351 31.0228C153.755 31.6053 153.354 32.6331 153.147 34.1066L145.703 33.5186C145.995 31.4746 146.53 29.8821 147.308 28.7413C148.087 27.5886 149.181 26.7093 150.592 26.1031C152.016 25.4852 153.98 25.1763 156.486 25.1763C159.101 25.1763 161.133 25.4674 162.58 26.0498C164.04 26.6321 165.183 27.5293 166.01 28.7413C166.85 29.9416 167.269 31.2903 167.269 32.7876C167.269 34.3801 166.789 35.9011 165.828 37.3508C164.879 38.8006 163.146 40.3931 160.628 42.1281C159.132 43.1381 158.128 43.8451 157.617 44.2491C157.118 44.6533 156.529 45.1821 155.847 45.8356H167.452V51.7536Z" fill="#40FF62"/>
<path d="M265.475 43.943C265.475 44.7177 264.943 45.1755 263.917 45.1755H262.545V42.7192H263.917C264.943 42.7192 265.475 43.1685 265.475 43.943Z" fill="#40FF62"/>
<g filter="url(#filter0_d_2776_4893)">
<mask id="mask0_2776_4893" style="mask-type:luminance" maskUnits="userSpaceOnUse" x="257" y="38" width="14" height="14">
<path d="M257.066 38.2935H270.808V51.7162H257.066V38.2935Z" fill="white"/>
</mask>
<g mask="url(#mask0_2776_4893)">
<path d="M265.501 47.9127L264.214 46.1085C264.132 46.1167 264.05 46.1167 263.971 46.1167H262.545V47.9127H261.376V41.7507H263.971C265.629 41.7507 266.655 42.5782 266.655 43.9427C266.655 44.8757 266.169 45.5625 265.312 45.888L266.763 47.9127H265.501ZM263.937 38.293C260.142 38.293 257.066 41.298 257.066 45.005C257.066 48.7117 260.142 51.7167 263.937 51.7167C267.732 51.7167 270.808 48.7117 270.808 45.005C270.808 41.298 267.732 38.293 263.937 38.293Z" fill="#40FF62"/>
</g>
</g>
<path fill-rule="evenodd" clip-rule="evenodd" d="M51.2263 0.855714C51.1754 0.809814 51.0968 0.809814 51.0462 0.855714L25.9877 23.4762C25.8989 23.5563 25.957 23.7011 26.0776 23.7011H34.8673V32.6398V34.2473V41.0923V41.2478V41.533V42.0385V42.4793L34.8407 42.7775L34.7744 43.1923L34.6416 43.8275L34.4691 44.359L34.3099 44.8775L34.1638 45.2278L33.8588 45.8758L33.2881 46.8223L32.837 47.4445L32.3858 47.95L31.8814 48.4815L31.5365 48.8058L30.8596 49.3373L30.1298 49.8298L29.6653 50.1151L28.6967 50.6078L27.5687 51.0226L26.7726 51.2558L25.6712 51.4763L24.145 51.6448L44.6107 51.6321C44.9158 51.6578 45.2244 51.6708 45.5361 51.6708H56.046C61.9384 51.6708 66.715 47.0043 66.715 41.2478V34.2473V32.6398V23.7011H76.1947C76.3154 23.7011 76.3733 23.5563 76.2847 23.4762L66.715 14.8377V6.9971C66.715 6.768 66.5249 6.58224 66.2905 6.58224H61.9379C61.7034 6.58224 61.5133 6.768 61.5133 6.9971V10.1419L51.2263 0.855714ZM45.3769 27.091C44.7906 27.091 44.3154 27.5555 44.3154 28.1283V36.7103C44.3154 37.283 44.7906 37.7475 45.3769 37.7475H54.8783C55.4646 37.7475 55.9398 37.283 55.9398 36.7103V28.1283C55.9398 27.5555 55.4646 27.091 54.8783 27.091H45.3769Z" fill="#1E93FF"/>
<path fill-rule="evenodd" clip-rule="evenodd" d="M33.6441 15.4375L25.2743 7.83936C25.1725 7.74691 25.0149 7.74691 24.913 7.83936L0.397772 30.0946C0.221107 30.2549 0.337269 30.5436 0.578433 30.5436H8.79816V34.9256V40.2406V40.9666C8.79816 46.8806 13.7056 51.6749 19.7592 51.6749H24.4036C24.709 51.6749 25.0114 51.6626 25.3104 51.6389L23.3094 51.6401L24.8354 51.4716L25.9369 51.2511L26.733 51.0179L27.861 50.6029L28.8296 50.1104L29.294 49.8251L30.0239 49.3324L30.7007 48.8009L31.0457 48.4769L31.5501 47.9454L32.0012 47.4396L32.4524 46.8174L33.023 45.8711L33.3281 45.2229L33.4742 44.8729L33.6334 44.3544L33.8058 43.8229L33.9386 43.1876L34.0049 42.7726L34.0582 42.2931V41.7674C34.0492 41.5936 34.0448 41.4189 34.0448 41.2429V34.2424V32.6349V24.3704H25.7833C25.0586 24.3704 24.7107 23.5017 25.2429 23.0212L33.6441 15.4375ZM17.3777 32.0904C17.3777 31.5176 17.8529 31.0534 18.4393 31.0534H25.8703C26.4568 31.0534 26.9321 31.5176 26.9321 32.0904V38.6761C26.9321 39.2489 26.4568 39.7131 25.8703 39.7131H18.4393C17.8529 39.7131 17.3777 39.2489 17.3777 38.6761V32.0904Z" fill="#40FF62"/>
</g>
<defs>
<filter id="filter0_d_2776_4893" x="256.652" y="38.2935" width="14.5714" height="14.2525" filterUnits="userSpaceOnUse" color-interpolation-filters="sRGB">
<feFlood flood-opacity="0" result="BackgroundImageFix"/>
<feColorMatrix in="SourceAlpha" type="matrix" values="0 0 0 0 0 0 0 0 0 0 0 0 0 0 0 0 0 0 127 0" result="hardAlpha"/>
<feOffset dy="0.414845"/>
<feGaussianBlur stdDeviation="0.207423"/>
<feComposite in2="hardAlpha" operator="out"/>
<feColorMatrix type="matrix" values="0 0 0 0 0 0 0 0 0 0 0 0 0 0 0 0 0 0 0.25 0"/>
<feBlend mode="normal" in2="BackgroundImageFix" result="effect1_dropShadow_2776_4893"/>
<feBlend mode="normal" in="SourceGraphic" in2="effect1_dropShadow_2776_4893" result="shape"/>
</filter>
<clipPath id="clip0_2776_4893">
<rect width="271" height="55" fill="white" transform="translate(0 0.776855)"/>
</clipPath>
</defs>
</svg>
